<?xml version="1.0" encoding="utf-8" standalone="no"?>
<!DOCTYPE svg PUBLIC "-//W3C//DTD SVG 1.1//EN"
  "http://www.w3.org/Graphics/SVG/1.1/DTD/svg11.dtd">
<svg xmlns:xlink="http://www.w3.org/1999/xlink" width="720pt" height="360pt" viewBox="0 0 720 360" xmlns="http://www.w3.org/2000/svg" version="1.1">
 <metadata>
  <rdf:RDF xmlns:dc="http://purl.org/dc/elements/1.1/" xmlns:cc="http://creativecommons.org/ns#" xmlns:rdf="http://www.w3.org/1999/02/22-rdf-syntax-ns#">
   <cc:Work>
    <dc:type rdf:resource="http://purl.org/dc/dcmitype/StillImage"/>
    <dc:date>2022-02-01T19:38:33.416442</dc:date>
    <dc:format>image/svg+xml</dc:format>
    <dc:creator>
     <cc:Agent>
      <dc:title>Matplotlib v3.5.1, https://matplotlib.org/</dc:title>
     </cc:Agent>
    </dc:creator>
   </cc:Work>
  </rdf:RDF>
 </metadata>
 <defs>
  <style type="text/css">*{stroke-linejoin: round; stroke-linecap: butt}</style>
 </defs>
 <g id="figure_1">
  <g id="patch_1">
   <path d="M 0 360 
L 720 360 
L 720 0 
L 0 0 
L 0 360 
z
" style="fill: none"/>
  </g>
  <g id="axes_1">
   <g id="patch_2">
    <path d="M 46.55 157.6 
L 709.2 157.6 
L 709.2 21.8 
L 46.55 21.8 
z
" style="fill: #ffffff"/>
   </g>
   <g id="matplotlib.axis_1">
    <g id="xtick_1">
     <g id="line2d_1">
      <defs>
       <path id="m086cf8ccc6" d="M 0 0 
L 0 3.5 
" style="stroke: #000000; stroke-width: 0.8"/>
      </defs>
      <g>
       <use xlink:href="#m086cf8ccc6" x="76.670455" y="157.6" style="stroke: #000000; stroke-width: 0.8"/>
      </g>
     </g>
     <g id="text_1">
      <!-- 0 -->
      <g transform="translate(73.489205 172.198438)scale(0.1 -0.1)">
       <defs>
        <path id="DejaVuSans-30" d="M 2034 4250 
Q 1547 4250 1301 3770 
Q 1056 3291 1056 2328 
Q 1056 1369 1301 889 
Q 1547 409 2034 409 
Q 2525 409 2770 889 
Q 3016 1369 3016 2328 
Q 3016 3291 2770 3770 
Q 2525 4250 2034 4250 
z
M 2034 4750 
Q 2819 4750 3233 4129 
Q 3647 3509 3647 2328 
Q 3647 1150 3233 529 
Q 2819 -91 2034 -91 
Q 1250 -91 836 529 
Q 422 1150 422 2328 
Q 422 3509 836 4129 
Q 1250 4750 2034 4750 
z
" transform="scale(0.015625)"/>
       </defs>
       <use xlink:href="#DejaVuSans-30"/>
      </g>
     </g>
    </g>
    <g id="xtick_2">
     <g id="line2d_2">
      <g>
       <use xlink:href="#m086cf8ccc6" x="171.189721" y="157.6" style="stroke: #000000; stroke-width: 0.8"/>
      </g>
     </g>
     <g id="text_2">
      <!-- 5000 -->
      <g transform="translate(158.464721 172.198438)scale(0.1 -0.1)">
       <defs>
        <path id="DejaVuSans-35" d="M 691 4666 
L 3169 4666 
L 3169 4134 
L 1269 4134 
L 1269 2991 
Q 1406 3038 1543 3061 
Q 1681 3084 1819 3084 
Q 2600 3084 3056 2656 
Q 3513 2228 3513 1497 
Q 3513 744 3044 326 
Q 2575 -91 1722 -91 
Q 1428 -91 1123 -41 
Q 819 9 494 109 
L 494 744 
Q 775 591 1075 516 
Q 1375 441 1709 441 
Q 2250 441 2565 725 
Q 2881 1009 2881 1497 
Q 2881 1984 2565 2268 
Q 2250 2553 1709 2553 
Q 1456 2553 1204 2497 
Q 953 2441 691 2322 
L 691 4666 
z
" transform="scale(0.015625)"/>
       </defs>
       <use xlink:href="#DejaVuSans-35"/>
       <use xlink:href="#DejaVuSans-30" x="63.623047"/>
       <use xlink:href="#DejaVuSans-30" x="127.246094"/>
       <use xlink:href="#DejaVuSans-30" x="190.869141"/>
      </g>
     </g>
    </g>
    <g id="xtick_3">
     <g id="line2d_3">
      <g>
       <use xlink:href="#m086cf8ccc6" x="265.708987" y="157.6" style="stroke: #000000; stroke-width: 0.8"/>
      </g>
     </g>
     <g id="text_3">
      <!-- 10000 -->
      <g transform="translate(249.802737 172.198438)scale(0.1 -0.1)">
       <defs>
        <path id="DejaVuSans-31" d="M 794 531 
L 1825 531 
L 1825 4091 
L 703 3866 
L 703 4441 
L 1819 4666 
L 2450 4666 
L 2450 531 
L 3481 531 
L 3481 0 
L 794 0 
L 794 531 
z
" transform="scale(0.015625)"/>
       </defs>
       <use xlink:href="#DejaVuSans-31"/>
       <use xlink:href="#DejaVuSans-30" x="63.623047"/>
       <use xlink:href="#DejaVuSans-30" x="127.246094"/>
       <use xlink:href="#DejaVuSans-30" x="190.869141"/>
       <use xlink:href="#DejaVuSans-30" x="254.492188"/>
      </g>
     </g>
    </g>
    <g id="xtick_4">
     <g id="line2d_4">
      <g>
       <use xlink:href="#m086cf8ccc6" x="360.228253" y="157.6" style="stroke: #000000; stroke-width: 0.8"/>
      </g>
     </g>
     <g id="text_4">
      <!-- 15000 -->
      <g transform="translate(344.322003 172.198438)scale(0.1 -0.1)">
       <use xlink:href="#DejaVuSans-31"/>
       <use xlink:href="#DejaVuSans-35" x="63.623047"/>
       <use xlink:href="#DejaVuSans-30" x="127.246094"/>
       <use xlink:href="#DejaVuSans-30" x="190.869141"/>
       <use xlink:href="#DejaVuSans-30" x="254.492188"/>
      </g>
     </g>
    </g>
    <g id="xtick_5">
     <g id="line2d_5">
      <g>
       <use xlink:href="#m086cf8ccc6" x="454.747519" y="157.6" style="stroke: #000000; stroke-width: 0.8"/>
      </g>
     </g>
     <g id="text_5">
      <!-- 20000 -->
      <g transform="translate(438.841269 172.198438)scale(0.1 -0.1)">
       <defs>
        <path id="DejaVuSans-32" d="M 1228 531 
L 3431 531 
L 3431 0 
L 469 0 
L 469 531 
Q 828 903 1448 1529 
Q 2069 2156 2228 2338 
Q 2531 2678 2651 2914 
Q 2772 3150 2772 3378 
Q 2772 3750 2511 3984 
Q 2250 4219 1831 4219 
Q 1534 4219 1204 4116 
Q 875 4013 500 3803 
L 500 4441 
Q 881 4594 1212 4672 
Q 1544 4750 1819 4750 
Q 2544 4750 2975 4387 
Q 3406 4025 3406 3419 
Q 3406 3131 3298 2873 
Q 3191 2616 2906 2266 
Q 2828 2175 2409 1742 
Q 1991 1309 1228 531 
z
" transform="scale(0.015625)"/>
       </defs>
       <use xlink:href="#DejaVuSans-32"/>
       <use xlink:href="#DejaVuSans-30" x="63.623047"/>
       <use xlink:href="#DejaVuSans-30" x="127.246094"/>
       <use xlink:href="#DejaVuSans-30" x="190.869141"/>
       <use xlink:href="#DejaVuSans-30" x="254.492188"/>
      </g>
     </g>
    </g>
    <g id="xtick_6">
     <g id="line2d_6">
      <g>
       <use xlink:href="#m086cf8ccc6" x="549.266785" y="157.6" style="stroke: #000000; stroke-width: 0.8"/>
      </g>
     </g>
     <g id="text_6">
      <!-- 25000 -->
      <g transform="translate(533.360535 172.198438)scale(0.1 -0.1)">
       <use xlink:href="#DejaVuSans-32"/>
       <use xlink:href="#DejaVuSans-35" x="63.623047"/>
       <use xlink:href="#DejaVuSans-30" x="127.246094"/>
       <use xlink:href="#DejaVuSans-30" x="190.869141"/>
       <use xlink:href="#DejaVuSans-30" x="254.492188"/>
      </g>
     </g>
    </g>
    <g id="xtick_7">
     <g id="line2d_7">
      <g>
       <use xlink:href="#m086cf8ccc6" x="643.786051" y="157.6" style="stroke: #000000; stroke-width: 0.8"/>
      </g>
     </g>
     <g id="text_7">
      <!-- 30000 -->
      <g transform="translate(627.879801 172.198438)scale(0.1 -0.1)">
       <defs>
        <path id="DejaVuSans-33" d="M 2597 2516 
Q 3050 2419 3304 2112 
Q 3559 1806 3559 1356 
Q 3559 666 3084 287 
Q 2609 -91 1734 -91 
Q 1441 -91 1130 -33 
Q 819 25 488 141 
L 488 750 
Q 750 597 1062 519 
Q 1375 441 1716 441 
Q 2309 441 2620 675 
Q 2931 909 2931 1356 
Q 2931 1769 2642 2001 
Q 2353 2234 1838 2234 
L 1294 2234 
L 1294 2753 
L 1863 2753 
Q 2328 2753 2575 2939 
Q 2822 3125 2822 3475 
Q 2822 3834 2567 4026 
Q 2313 4219 1838 4219 
Q 1578 4219 1281 4162 
Q 984 4106 628 3988 
L 628 4550 
Q 988 4650 1302 4700 
Q 1616 4750 1894 4750 
Q 2613 4750 3031 4423 
Q 3450 4097 3450 3541 
Q 3450 3153 3228 2886 
Q 3006 2619 2597 2516 
z
" transform="scale(0.015625)"/>
       </defs>
       <use xlink:href="#DejaVuSans-33"/>
       <use xlink:href="#DejaVuSans-30" x="63.623047"/>
       <use xlink:href="#DejaVuSans-30" x="127.246094"/>
       <use xlink:href="#DejaVuSans-30" x="190.869141"/>
       <use xlink:href="#DejaVuSans-30" x="254.492188"/>
      </g>
     </g>
    </g>
   </g>
   <g id="matplotlib.axis_2">
    <g id="ytick_1">
     <g id="line2d_8">
      <defs>
       <path id="m1498e280dc" d="M 0 0 
L -3.5 0 
" style="stroke: #000000; stroke-width: 0.8"/>
      </defs>
      <g>
       <use xlink:href="#m1498e280dc" x="46.55" y="151.562341" style="stroke: #000000; stroke-width: 0.8"/>
      </g>
     </g>
     <g id="text_8">
      <!-- 2.251 -->
      <g transform="translate(10.921875 155.36156)scale(0.1 -0.1)">
       <defs>
        <path id="DejaVuSans-2e" d="M 684 794 
L 1344 794 
L 1344 0 
L 684 0 
L 684 794 
z
" transform="scale(0.015625)"/>
       </defs>
       <use xlink:href="#DejaVuSans-32"/>
       <use xlink:href="#DejaVuSans-2e" x="63.623047"/>
       <use xlink:href="#DejaVuSans-32" x="95.410156"/>
       <use xlink:href="#DejaVuSans-35" x="159.033203"/>
       <use xlink:href="#DejaVuSans-31" x="222.65625"/>
      </g>
     </g>
    </g>
    <g id="ytick_2">
     <g id="line2d_9">
      <g>
       <use xlink:href="#m1498e280dc" x="46.55" y="107.890143" style="stroke: #000000; stroke-width: 0.8"/>
      </g>
     </g>
     <g id="text_9">
      <!-- 2.252 -->
      <g transform="translate(10.921875 111.689361)scale(0.1 -0.1)">
       <use xlink:href="#DejaVuSans-32"/>
       <use xlink:href="#DejaVuSans-2e" x="63.623047"/>
       <use xlink:href="#DejaVuSans-32" x="95.410156"/>
       <use xlink:href="#DejaVuSans-35" x="159.033203"/>
       <use xlink:href="#DejaVuSans-32" x="222.65625"/>
      </g>
     </g>
    </g>
    <g id="ytick_3">
     <g id="line2d_10">
      <g>
       <use xlink:href="#m1498e280dc" x="46.55" y="64.217944" style="stroke: #000000; stroke-width: 0.8"/>
      </g>
     </g>
     <g id="text_10">
      <!-- 2.253 -->
      <g transform="translate(10.921875 68.017163)scale(0.1 -0.1)">
       <use xlink:href="#DejaVuSans-32"/>
       <use xlink:href="#DejaVuSans-2e" x="63.623047"/>
       <use xlink:href="#DejaVuSans-32" x="95.410156"/>
       <use xlink:href="#DejaVuSans-35" x="159.033203"/>
       <use xlink:href="#DejaVuSans-33" x="222.65625"/>
      </g>
     </g>
    </g>
    <g id="text_11">
     <!-- 1e7 -->
     <g transform="translate(46.55 18.8)scale(0.1 -0.1)">
      <defs>
       <path id="DejaVuSans-65" d="M 3597 1894 
L 3597 1613 
L 953 1613 
Q 991 1019 1311 708 
Q 1631 397 2203 397 
Q 2534 397 2845 478 
Q 3156 559 3463 722 
L 3463 178 
Q 3153 47 2828 -22 
Q 2503 -91 2169 -91 
Q 1331 -91 842 396 
Q 353 884 353 1716 
Q 353 2575 817 3079 
Q 1281 3584 2069 3584 
Q 2775 3584 3186 3129 
Q 3597 2675 3597 1894 
z
M 3022 2063 
Q 3016 2534 2758 2815 
Q 2500 3097 2075 3097 
Q 1594 3097 1305 2825 
Q 1016 2553 972 2059 
L 3022 2063 
z
" transform="scale(0.015625)"/>
       <path id="DejaVuSans-37" d="M 525 4666 
L 3525 4666 
L 3525 4397 
L 1831 0 
L 1172 0 
L 2766 4134 
L 525 4134 
L 525 4666 
z
" transform="scale(0.015625)"/>
      </defs>
      <use xlink:href="#DejaVuSans-31"/>
      <use xlink:href="#DejaVuSans-65" x="63.623047"/>
      <use xlink:href="#DejaVuSans-37" x="125.146484"/>
     </g>
    </g>
   </g>
   <g id="line2d_11">
    <path d="M 76.670455 145.207823 
L 77.672359 145.116208 
L 79.05234 144.994387 
L 80.413417 144.898163 
L 81.528745 144.807477 
L 84.231996 144.596119 
L 88.579882 144.063043 
L 89.751921 143.961015 
L 93.910769 143.678527 
L 101.755868 144.188265 
L 103.249272 144.193108 
L 105.082946 144.212458 
L 111.415737 144.074673 
L 115.007469 143.896934 
L 115.706911 143.875629 
L 116.406354 143.854337 
L 117.654008 143.79545 
L 118.882759 143.750292 
L 120.281644 143.731394 
L 124.761857 143.542026 
L 134.516245 142.997205 
L 135.385823 142.960383 
L 138.580574 142.799465 
L 139.450151 142.734047 
L 142.512575 142.531145 
L 144.024884 142.450713 
L 150.490001 142.352753 
L 151.454098 142.359731 
L 170.622605 141.982615 
L 176.14253 141.591258 
L 177.768262 141.439532 
L 178.69455 141.313466 
L 181.246571 140.544595 
L 181.889302 140.003539 
L 182.41861 139.161606 
L 182.588744 138.35011 
L 182.891206 135.530861 
L 184.101052 115.11286 
L 184.611456 104.018814 
L 184.895014 96.259978 
L 185.197476 90.892459 
L 185.745688 81.99646 
L 185.859111 80.351939 
L 186.274996 70.603447 
L 186.577457 66.514384 
L 188.165381 43.684865 
L 188.789208 37.989194 
L 189.394131 33.449524 
L 189.904535 30.745807 
L 190.452747 28.842002 
L 190.90644 28.093214 
L 191.208901 27.973826 
L 191.473555 28.150404 
L 191.813825 28.779169 
L 192.248613 30.207939 
L 193.099287 34.998915 
L 193.552979 38.574052 
L 193.571883 38.537231 
L 194.328037 46.447062 
L 195.27323 59.719476 
L 195.556788 65.893803 
L 196.294038 76.335401 
L 196.350749 77.793556 
L 196.577596 84.990183 
L 196.766634 87.920765 
L 197.050192 93.127626 
L 197.692923 107.092095 
L 197.919769 110.002531 
L 198.203327 113.86008 
L 198.751539 120.880164 
L 199.224135 124.76185 
L 199.847962 127.49583 
L 200.339462 128.470743 
L 200.812059 129.077879 
L 201.473694 129.7388 
L 202.381079 130.785657 
L 202.664636 130.840974 
L 203.061617 130.632462 
L 203.685444 130.241912 
L 204.025714 129.961621 
L 204.460502 129.712574 
L 204.687349 129.766534 
L 205.273368 130.175568 
L 206.842388 131.030642 
L 207.258273 131.035433 
L 209.69687 131.288252 
L 210.074947 131.250097 
L 210.698774 131.188108 
L 213.628871 130.766725 
L 214.30941 130.950287 
L 214.744199 131.044502 
L 215.557064 131.166481 
L 216.029661 131.26602 
L 216.653488 131.262992 
L 217.636488 131.11513 
L 220.509874 129.299994 
L 221.076989 129.341372 
L 221.455066 129.471508 
L 222.494778 129.408323 
L 222.79724 129.291726 
L 223.213125 129.322646 
L 223.647913 129.656939 
L 224.139414 130.321801 
L 224.801048 131.379621 
L 225.784049 132.340859 
L 226.351164 132.673056 
L 227.863473 133.190614 
L 228.638531 133.024269 
L 230.05632 132.649474 
L 231.341782 132.526013 
L 231.77657 132.449492 
L 232.249167 132.293586 
L 232.646148 132.236337 
L 234.08284 132.48354 
L 234.404206 132.354691 
L 235.840899 131.484767 
L 236.748284 130.79345 
L 237.428822 130.46211 
L 238.184977 130.268509 
L 238.600861 130.000067 
L 238.978938 129.83094 
L 239.602766 129.692116 
L 239.943035 129.732596 
L 240.888228 129.953556 
L 241.398632 130.137981 
L 243.213402 131.54681 
L 243.704902 131.799365 
L 244.650094 131.925801 
L 245.103787 131.868659 
L 245.765422 131.768358 
L 246.29473 131.596602 
L 246.748422 131.472277 
L 247.693615 131.213156 
L 248.430865 130.942212 
L 250.623712 129.998732 
L 251.247539 130.048315 
L 251.720135 130.063194 
L 252.854367 130.086363 
L 253.270251 130.312452 
L 253.837367 130.616622 
L 255.860079 131.131934 
L 256.465003 131.233431 
L 256.975407 131.10761 
L 257.901695 130.61798 
L 258.260869 130.346061 
L 259.489619 129.826965 
L 260.056735 129.907351 
L 260.831793 130.109239 
L 262.230678 130.232871 
L 262.344101 130.22641 
L 262.816697 130.449146 
L 263.327101 130.639147 
L 263.875313 130.614462 
L 264.74489 130.604975 
L 265.614468 130.712474 
L 266.502949 131.111266 
L 268.185392 131.934278 
L 269.622084 131.727282 
L 269.981258 131.850524 
L 271.247816 132.003973 
L 272.136297 131.382296 
L 272.608893 131.065618 
L 273.100393 130.915911 
L 273.591894 130.909479 
L 273.951067 131.061282 
L 274.177913 131.294019 
L 274.934067 131.992822 
L 275.841452 132.289923 
L 277.334857 132.124931 
L 277.750741 132.002987 
L 278.809357 132.029364 
L 279.281953 132.262164 
L 280.567415 133.426882 
L 281.210147 133.812652 
L 281.493704 133.823707 
L 281.871781 133.790912 
L 282.55232 133.565209 
L 283.176147 133.425323 
L 284.140244 133.454409 
L 284.782975 133.205616 
L 285.085436 133.153936 
L 285.652552 133.077678 
L 285.955014 133.103404 
L 286.408706 133.1823 
L 286.616649 133.27574 
L 287.127053 133.469292 
L 287.372803 133.612039 
L 287.65636 133.73838 
L 288.904015 133.948596 
L 289.868111 133.830271 
L 291.059054 134.37363 
L 291.474939 134.464453 
L 292.079862 134.318036 
L 292.628074 134.211866 
L 292.911632 134.120887 
L 293.93244 134.056723 
L 294.405036 134.090036 
L 294.896536 133.782629 
L 295.312421 133.59266 
L 296.23871 133.565381 
L 297.108287 133.874619 
L 297.675403 133.876272 
L 297.95896 133.768831 
L 299.52798 132.881069 
L 300.700019 132.72481 
L 301.323846 132.787321 
L 301.890962 132.976291 
L 302.08 132.996838 
L 302.382462 133.003945 
L 303.063001 133.059306 
L 303.800251 132.891953 
L 304.291751 132.752576 
L 305.482694 132.220458 
L 306.144329 132.344579 
L 308.734157 134.219323 
L 309.112234 134.262571 
L 309.698253 134.229225 
L 310.057427 134.051802 
L 310.4166 133.68345 
L 311.116042 133.124903 
L 311.607542 132.99739 
L 312.47712 133.112395 
L 313.025331 133.357871 
L 314.462024 133.26725 
L 314.764486 133.222312 
L 315.27489 133.238027 
L 315.558448 133.375582 
L 316.390217 133.779827 
L 316.806102 133.870964 
L 317.316506 133.822092 
L 317.902526 133.586217 
L 318.507449 133.117816 
L 318.677584 133.051794 
L 319.849623 132.35557 
L 321.475354 132.27684 
L 322.363835 132.697072 
L 323.27122 133.266602 
L 323.76272 133.573428 
L 324.140797 133.679249 
L 324.764624 133.658936 
L 325.275028 133.690884 
L 327.014183 133.820951 
L 327.316645 133.828863 
L 327.694722 133.949443 
L 328.167318 134.227388 
L 328.734434 134.455309 
L 329.660722 134.600342 
L 330.076607 134.447754 
L 330.870569 133.994865 
L 331.210838 133.881903 
L 331.966992 133.231931 
L 332.477396 132.808427 
L 333.914089 131.92374 
L 334.594628 132.050893 
L 335.464205 132.638415 
L 336.409398 133.329401 
L 337.864995 133.502124 
L 338.904707 133.192987 
L 339.868803 133.1882 
L 341.173169 133.644406 
L 341.853708 134.294313 
L 343.309304 136.051505 
L 344.084362 136.596946 
L 344.916132 136.835268 
L 345.464344 136.690161 
L 346.617479 136.330773 
L 347.033363 136.335839 
L 348.715806 136.273818 
L 349.358537 136.016951 
L 349.982365 135.836168 
L 351.38125 135.710829 
L 351.664807 135.632074 
L 352.912462 134.704058 
L 353.574097 134.804895 
L 354.330251 134.807769 
L 355.16202 134.691537 
L 355.823655 134.356819 
L 356.447482 134.34286 
L 358.129925 135.035936 
L 358.375675 135.038303 
L 359.150733 134.774985 
L 360.039214 134.560925 
L 360.171541 134.504437 
L 361.381388 134.599685 
L 362.061927 134.77196 
L 363.101639 134.347836 
L 365.048736 132.115995 
L 365.748178 131.085355 
L 366.54214 129.352095 
L 367.317198 127.142598 
L 368.470333 123.985941 
L 369.245391 122.183185 
L 370.493045 119.811027 
L 371.476046 118.576502 
L 373.196296 116.786879 
L 373.933547 116.17626 
L 375.370239 115.399866 
L 377.203913 115.234906 
L 377.865548 115.488709 
L 379.321145 116.850222 
L 379.926068 117.981682 
L 381.041395 121.08144 
L 383.064108 128.119723 
L 383.744646 129.863282 
L 384.652031 131.121934 
L 385.049012 131.166979 
L 386.561321 131.161381 
L 387.374186 131.390615 
L 387.97911 131.68701 
L 390.03963 133.550997 
L 391.551938 134.010798 
L 392.00563 133.856636 
L 392.988631 133.189868 
L 393.952727 132.380051 
L 394.633266 132.139486 
L 395.465035 132.203877 
L 395.862016 132.457714 
L 396.769401 133.194617 
L 397.393228 133.282119 
L 397.94144 133.048199 
L 399.51046 131.846041 
L 399.850729 131.733559 
L 400.871537 131.945732 
L 401.381941 132.061358 
L 402.156999 132.188771 
L 402.950961 132.350536 
L 404.784635 132.131197 
L 405.181616 131.948032 
L 405.502981 131.743356 
L 406.240232 131.182786 
L 407.298848 130.510471 
L 409.07581 130.230457 
L 410.493599 130.383234 
L 411.287561 130.296136 
L 412.70535 129.620209 
L 414.160946 129.416301 
L 416.126947 128.958434 
L 416.958717 129.241344 
L 417.488024 129.711022 
L 418.981429 130.522815 
L 419.435121 130.425058 
L 420.60716 129.672473 
L 423.386027 128.887893 
L 424.425739 129.2131 
L 425.087373 129.350371 
L 425.503258 129.453801 
L 425.956951 129.553804 
L 426.618586 129.893218 
L 428.395548 130.839781 
L 428.716913 130.826161 
L 429.076086 130.609795 
L 429.624298 130.146141 
L 430.229222 129.681518 
L 431.306741 129.539483 
L 431.609203 129.696047 
L 432.535492 130.53358 
L 433.272742 131.367156 
L 433.575204 131.5355 
L 434.709435 131.627988 
L 435.200935 131.488827 
L 435.768051 131.211635 
L 436.713243 130.770071 
L 438.206648 130.552638 
L 438.90609 130.501724 
L 439.64334 130.479187 
L 441.117841 129.719753 
L 443.783284 128.085452 
L 444.539438 128.156792 
L 445.881612 128.536764 
L 448.96294 130.669009 
L 449.737998 130.852706 
L 450.134979 130.850322 
L 450.853325 130.779082 
L 451.26921 130.776308 
L 451.60948 130.805629 
L 453.273019 131.005068 
L 453.764519 131.126158 
L 454.274923 131.077507 
L 454.747519 131.108631 
L 455.409154 131.033256 
L 455.900654 130.915522 
L 457.053789 130.98271 
L 458.377059 131.116094 
L 461.174829 130.298821 
L 461.534002 130.187516 
L 461.893176 130.247233 
L 462.970695 130.820751 
L 463.63233 131.486727 
L 464.275061 132.072496 
L 464.936696 132.339117 
L 465.484908 132.201405 
L 466.656947 131.40833 
L 467.110639 130.994548 
L 468.509524 130.120215 
L 469.227871 130.092899 
L 469.776082 130.304276 
L 470.343198 130.721166 
L 470.683467 130.975925 
L 471.269487 131.105638 
L 471.685372 131.238433 
L 473.216584 132.066995 
L 473.897122 132.739315 
L 474.388623 133.041356 
L 475.466142 133.405876 
L 475.900931 133.288457 
L 477.205297 132.548084 
L 478.944451 131.490392 
L 480.192106 131.190341 
L 481.477568 131.278584 
L 483.00878 131.341829 
L 483.594799 131.235366 
L 484.048492 131.184425 
L 484.842454 131.066089 
L 485.598608 131.293416 
L 486.203531 131.745332 
L 487.337762 132.548223 
L 488.264051 132.602524 
L 489.398282 132.604249 
L 490.381283 132.640674 
L 491.061821 132.767883 
L 492.063725 132.903343 
L 492.990014 133.1589 
L 493.462611 133.160242 
L 493.783976 133.045224 
L 495.485323 132.24557 
L 496.165862 132.293934 
L 497.394612 132.674219 
L 498.16967 132.916899 
L 499.852113 134.007278 
L 500.438132 133.92044 
L 501.893729 133.386867 
L 503.065768 133.447221 
L 503.595076 133.53391 
L 504.389038 133.643109 
L 505.145192 133.744024 
L 505.958058 133.296904 
L 506.922154 132.800449 
L 508.264328 132.524243 
L 508.736924 132.842671 
L 509.30404 133.115133 
L 510.116905 133.145173 
L 510.665117 132.949559 
L 511.988387 132.977746 
L 512.933579 133.331989 
L 514.294657 132.768406 
L 514.918484 132.748423 
L 515.277657 132.71767 
L 515.63683 132.655134 
L 517.375985 132.526233 
L 517.905293 132.534724 
L 521.005525 130.583893 
L 521.761679 129.250698 
L 521.969621 128.385261 
L 522.423314 125.455408 
L 523.179468 118.679895 
L 523.746583 108.802816 
L 523.822199 107.038758 
L 524.030141 103.920546 
L 524.351507 99.721933 
L 525.277796 79.048932 
L 526.166277 66.120169 
L 526.241892 65.259347 
L 526.355315 61.633698 
L 526.544354 58.70829 
L 526.676681 57.470165 
L 527.054758 51.055857 
L 527.338316 47.901245 
L 528.245701 39.104909 
L 529.039662 33.931846 
L 529.947047 30.765339 
L 530.362932 30.2963 
L 530.589778 30.329658 
L 530.930048 30.752462 
L 531.213605 31.391561 
L 531.591683 32.764179 
L 532.007567 34.863464 
L 532.328933 36.925913 
L 532.896048 41.559606 
L 533.614395 48.886246 
L 534.049183 53.891809 
L 534.143703 55.040725 
L 534.483972 61.638457 
L 534.540684 62.103351 
L 535.372453 75.402743 
L 535.75053 80.928205 
L 536.034088 88.005911 
L 538.548301 137.443811 
L 539.228839 142.563922 
L 539.588012 143.216523 
L 540.306359 143.901597 
L 541.383879 144.509644 
L 542.347975 144.834425 
L 542.952898 144.955088 
L 543.765764 145.108863 
L 546.960515 145.484858 
L 548.642958 145.608949 
L 550.873613 145.783528 
L 551.951132 145.894694 
L 554.748903 146.166914 
L 558.964462 146.390156 
L 560.628001 146.459973 
L 564.10631 146.589017 
L 566.355869 146.663622 
L 568.302966 146.768012 
L 568.851177 146.765759 
L 570.476909 146.804122 
L 571.27087 146.826539 
L 574.65466 146.92329 
L 575.335199 146.941235 
L 578.265296 147.04334 
L 579.739797 147.085565 
L 580.722797 147.11837 
L 584.314529 147.253858 
L 587.452569 147.367531 
L 588.454473 147.404522 
L 593.426186 147.585823 
L 594.503706 147.616613 
L 598.983919 147.771103 
L 600.760882 147.842752 
L 605.222191 148.042835 
L 610.590885 148.278349 
L 611.573886 148.312894 
L 630.62897 149.12364 
L 634.16399 149.118967 
L 646.205745 149.895357 
L 647.283264 149.962976 
L 648.209553 150.010005 
L 648.83338 150.027215 
L 651.668958 150.142779 
L 653.067843 150.223402 
L 660.194596 150.481146 
L 661.744712 150.581498 
L 663.540578 150.678357 
L 664.107694 150.717384 
L 670.402677 151.055816 
L 671.669235 151.130604 
L 676.716564 151.337014 
L 677.510526 151.35432 
L 679.079545 151.425285 
L 679.079545 151.425285 
" clip-path="url(#p7e747ff7b5)" style="fill: none; stroke: #1f77b4; stroke-width: 1.5; stroke-linecap: square"/>
   </g>
   <g id="line2d_12">
    <path d="M 182.456417 157.6 
L 182.456417 21.8 
" clip-path="url(#p7e747ff7b5)" style="fill: none; stroke-dasharray: 5.55,2.4; stroke-dashoffset: 0; stroke: #000000; stroke-width: 1.5"/>
   </g>
   <g id="line2d_13">
    <path d="M 539.172128 157.6 
L 539.172128 21.8 
" clip-path="url(#p7e747ff7b5)" style="fill: none; stroke-dasharray: 5.55,2.4; stroke-dashoffset: 0; stroke: #000000; stroke-width: 1.5"/>
   </g>
   <g id="patch_3">
    <path d="M 46.55 157.6 
L 46.55 21.8 
" style="fill: none; stroke: #000000; stroke-width: 0.8; stroke-linejoin: miter; stroke-linecap: square"/>
   </g>
   <g id="patch_4">
    <path d="M 709.2 157.6 
L 709.2 21.8 
" style="fill: none; stroke: #000000; stroke-width: 0.8; stroke-linejoin: miter; stroke-linecap: square"/>
   </g>
   <g id="patch_5">
    <path d="M 46.55 157.6 
L 709.2 157.6 
" style="fill: none; stroke: #000000; stroke-width: 0.8; stroke-linejoin: miter; stroke-linecap: square"/>
   </g>
   <g id="patch_6">
    <path d="M 46.55 21.8 
L 709.2 21.8 
" style="fill: none; stroke: #000000; stroke-width: 0.8; stroke-linejoin: miter; stroke-linecap: square"/>
   </g>
  </g>
  <g id="axes_2">
   <g id="patch_7">
    <path d="M 46.55 332.2 
L 354.6 332.2 
L 354.6 196.4 
L 46.55 196.4 
z
" style="fill: #ffffff"/>
   </g>
   <g id="matplotlib.axis_3">
    <g id="xtick_8">
     <g id="line2d_14">
      <g>
       <use xlink:href="#m086cf8ccc6" x="78.5872" y="332.2" style="stroke: #000000; stroke-width: 0.8"/>
      </g>
     </g>
     <g id="text_12">
      <!-- 5200 -->
      <g transform="translate(65.8622 346.798437)scale(0.1 -0.1)">
       <use xlink:href="#DejaVuSans-35"/>
       <use xlink:href="#DejaVuSans-32" x="63.623047"/>
       <use xlink:href="#DejaVuSans-30" x="127.246094"/>
       <use xlink:href="#DejaVuSans-30" x="190.869141"/>
      </g>
     </g>
    </g>
    <g id="xtick_9">
     <g id="line2d_15">
      <g>
       <use xlink:href="#m086cf8ccc6" x="140.1972" y="332.2" style="stroke: #000000; stroke-width: 0.8"/>
      </g>
     </g>
     <g id="text_13">
      <!-- 5400 -->
      <g transform="translate(127.4722 346.798437)scale(0.1 -0.1)">
       <defs>
        <path id="DejaVuSans-34" d="M 2419 4116 
L 825 1625 
L 2419 1625 
L 2419 4116 
z
M 2253 4666 
L 3047 4666 
L 3047 1625 
L 3713 1625 
L 3713 1100 
L 3047 1100 
L 3047 0 
L 2419 0 
L 2419 1100 
L 313 1100 
L 313 1709 
L 2253 4666 
z
" transform="scale(0.015625)"/>
       </defs>
       <use xlink:href="#DejaVuSans-35"/>
       <use xlink:href="#DejaVuSans-34" x="63.623047"/>
       <use xlink:href="#DejaVuSans-30" x="127.246094"/>
       <use xlink:href="#DejaVuSans-30" x="190.869141"/>
      </g>
     </g>
    </g>
    <g id="xtick_10">
     <g id="line2d_16">
      <g>
       <use xlink:href="#m086cf8ccc6" x="201.8072" y="332.2" style="stroke: #000000; stroke-width: 0.8"/>
      </g>
     </g>
     <g id="text_14">
      <!-- 5600 -->
      <g transform="translate(189.0822 346.798437)scale(0.1 -0.1)">
       <defs>
        <path id="DejaVuSans-36" d="M 2113 2584 
Q 1688 2584 1439 2293 
Q 1191 2003 1191 1497 
Q 1191 994 1439 701 
Q 1688 409 2113 409 
Q 2538 409 2786 701 
Q 3034 994 3034 1497 
Q 3034 2003 2786 2293 
Q 2538 2584 2113 2584 
z
M 3366 4563 
L 3366 3988 
Q 3128 4100 2886 4159 
Q 2644 4219 2406 4219 
Q 1781 4219 1451 3797 
Q 1122 3375 1075 2522 
Q 1259 2794 1537 2939 
Q 1816 3084 2150 3084 
Q 2853 3084 3261 2657 
Q 3669 2231 3669 1497 
Q 3669 778 3244 343 
Q 2819 -91 2113 -91 
Q 1303 -91 875 529 
Q 447 1150 447 2328 
Q 447 3434 972 4092 
Q 1497 4750 2381 4750 
Q 2619 4750 2861 4703 
Q 3103 4656 3366 4563 
z
" transform="scale(0.015625)"/>
       </defs>
       <use xlink:href="#DejaVuSans-35"/>
       <use xlink:href="#DejaVuSans-36" x="63.623047"/>
       <use xlink:href="#DejaVuSans-30" x="127.246094"/>
       <use xlink:href="#DejaVuSans-30" x="190.869141"/>
      </g>
     </g>
    </g>
    <g id="xtick_11">
     <g id="line2d_17">
      <g>
       <use xlink:href="#m086cf8ccc6" x="263.4172" y="332.2" style="stroke: #000000; stroke-width: 0.8"/>
      </g>
     </g>
     <g id="text_15">
      <!-- 5800 -->
      <g transform="translate(250.6922 346.798437)scale(0.1 -0.1)">
       <defs>
        <path id="DejaVuSans-38" d="M 2034 2216 
Q 1584 2216 1326 1975 
Q 1069 1734 1069 1313 
Q 1069 891 1326 650 
Q 1584 409 2034 409 
Q 2484 409 2743 651 
Q 3003 894 3003 1313 
Q 3003 1734 2745 1975 
Q 2488 2216 2034 2216 
z
M 1403 2484 
Q 997 2584 770 2862 
Q 544 3141 544 3541 
Q 544 4100 942 4425 
Q 1341 4750 2034 4750 
Q 2731 4750 3128 4425 
Q 3525 4100 3525 3541 
Q 3525 3141 3298 2862 
Q 3072 2584 2669 2484 
Q 3125 2378 3379 2068 
Q 3634 1759 3634 1313 
Q 3634 634 3220 271 
Q 2806 -91 2034 -91 
Q 1263 -91 848 271 
Q 434 634 434 1313 
Q 434 1759 690 2068 
Q 947 2378 1403 2484 
z
M 1172 3481 
Q 1172 3119 1398 2916 
Q 1625 2713 2034 2713 
Q 2441 2713 2670 2916 
Q 2900 3119 2900 3481 
Q 2900 3844 2670 4047 
Q 2441 4250 2034 4250 
Q 1625 4250 1398 4047 
Q 1172 3844 1172 3481 
z
" transform="scale(0.015625)"/>
       </defs>
       <use xlink:href="#DejaVuSans-35"/>
       <use xlink:href="#DejaVuSans-38" x="63.623047"/>
       <use xlink:href="#DejaVuSans-30" x="127.246094"/>
       <use xlink:href="#DejaVuSans-30" x="190.869141"/>
      </g>
     </g>
    </g>
    <g id="xtick_12">
     <g id="line2d_18">
      <g>
       <use xlink:href="#m086cf8ccc6" x="325.0272" y="332.2" style="stroke: #000000; stroke-width: 0.8"/>
      </g>
     </g>
     <g id="text_16">
      <!-- 6000 -->
      <g transform="translate(312.3022 346.798437)scale(0.1 -0.1)">
       <use xlink:href="#DejaVuSans-36"/>
       <use xlink:href="#DejaVuSans-30" x="63.623047"/>
       <use xlink:href="#DejaVuSans-30" x="127.246094"/>
       <use xlink:href="#DejaVuSans-30" x="190.869141"/>
      </g>
     </g>
    </g>
   </g>
   <g id="matplotlib.axis_4">
    <g id="ytick_4">
     <g id="line2d_19">
      <g>
       <use xlink:href="#m1498e280dc" x="46.55" y="326.162341" style="stroke: #000000; stroke-width: 0.8"/>
      </g>
     </g>
     <g id="text_17">
      <!-- 2.251 -->
      <g transform="translate(10.921875 329.96156)scale(0.1 -0.1)">
       <use xlink:href="#DejaVuSans-32"/>
       <use xlink:href="#DejaVuSans-2e" x="63.623047"/>
       <use xlink:href="#DejaVuSans-32" x="95.410156"/>
       <use xlink:href="#DejaVuSans-35" x="159.033203"/>
       <use xlink:href="#DejaVuSans-31" x="222.65625"/>
      </g>
     </g>
    </g>
    <g id="ytick_5">
     <g id="line2d_20">
      <g>
       <use xlink:href="#m1498e280dc" x="46.55" y="282.490143" style="stroke: #000000; stroke-width: 0.8"/>
      </g>
     </g>
     <g id="text_18">
      <!-- 2.252 -->
      <g transform="translate(10.921875 286.289361)scale(0.1 -0.1)">
       <use xlink:href="#DejaVuSans-32"/>
       <use xlink:href="#DejaVuSans-2e" x="63.623047"/>
       <use xlink:href="#DejaVuSans-32" x="95.410156"/>
       <use xlink:href="#DejaVuSans-35" x="159.033203"/>
       <use xlink:href="#DejaVuSans-32" x="222.65625"/>
      </g>
     </g>
    </g>
    <g id="ytick_6">
     <g id="line2d_21">
      <g>
       <use xlink:href="#m1498e280dc" x="46.55" y="238.817944" style="stroke: #000000; stroke-width: 0.8"/>
      </g>
     </g>
     <g id="text_19">
      <!-- 2.253 -->
      <g transform="translate(10.921875 242.617163)scale(0.1 -0.1)">
       <use xlink:href="#DejaVuSans-32"/>
       <use xlink:href="#DejaVuSans-2e" x="63.623047"/>
       <use xlink:href="#DejaVuSans-32" x="95.410156"/>
       <use xlink:href="#DejaVuSans-35" x="159.033203"/>
       <use xlink:href="#DejaVuSans-33" x="222.65625"/>
      </g>
     </g>
    </g>
    <g id="text_20">
     <!-- 1e7 -->
     <g transform="translate(46.55 193.4)scale(0.1 -0.1)">
      <use xlink:href="#DejaVuSans-31"/>
      <use xlink:href="#DejaVuSans-65" x="63.623047"/>
      <use xlink:href="#DejaVuSans-37" x="125.146484"/>
     </g>
    </g>
   </g>
   <g id="line2d_22">
    <path d="M 46.24195 316.436186 
L 60.7203 316.362621 
L 98.61045 316.187388 
L 107.5439 316.14959 
L 170.69415 315.427262 
L 189.79325 314.710201 
L 196.8784 314.151892 
L 199.9589 313.761606 
L 201.49915 313.380211 
L 204.8877 312.332985 
L 206.42795 311.132669 
L 206.736 310.662992 
L 207.04405 310.408581 
L 207.3521 310.347941 
L 208.89235 309.165201 
L 211.0487 306.631908 
L 211.6648 305.537574 
L 212.2809 304.75845 
L 213.20505 303.466243 
L 218.13385 299.242496 
L 218.74995 298.486613 
L 219.36605 297.888348 
L 219.98215 297.228025 
L 220.59825 296.711123 
L 221.21435 296.123528 
L 221.83045 295.687614 
L 222.7546 294.92806 
L 223.3707 294.606429 
L 224.91095 293.300317 
L 225.52705 292.61596 
L 227.0673 290.077662 
L 227.6834 289.189268 
L 229.22365 286.764951 
L 229.83975 286.108127 
L 230.45585 285.570986 
L 231.07195 284.696293 
L 231.68805 284.088948 
L 235.6927 278.618814 
L 236.3088 277.834658 
L 237.23295 276.203594 
L 237.541 275.900308 
L 239.08125 273.202078 
L 240.31345 270.859978 
L 240.92955 269.907034 
L 244.01005 267.110467 
L 246.47445 263.780322 
L 247.3986 262.579546 
L 250.17105 259.904624 
L 252.63545 257.897035 
L 254.1757 256.59646 
L 254.48375 256.45611 
L 255.4079 255.616918 
L 255.71595 255.367827 
L 256.33205 254.357095 
L 257.56425 251.194397 
L 257.8723 250.297421 
L 258.79645 248.976674 
L 259.41255 247.892926 
L 260.02865 247.372124 
L 262.49305 245.527063 
L 263.10915 245.016217 
L 263.72525 244.542278 
L 266.18965 242.425926 
L 267.1138 241.636994 
L 270.50235 238.609986 
L 271.11845 237.790647 
L 271.73455 237.251911 
L 272.35065 236.68369 
L 272.6587 236.446752 
L 273.58285 235.4009 
L 273.8909 235.338886 
L 274.81505 234.423944 
L 275.43115 233.785055 
L 276.04725 233.402338 
L 276.9714 232.313863 
L 277.27945 232.092628 
L 277.5875 231.629123 
L 278.2036 230.353926 
L 278.8197 229.693468 
L 279.74385 228.392251 
L 282.82435 225.738728 
L 283.1324 225.660042 
L 285.90485 223.63245 
L 286.52095 223.166992 
L 287.75315 222.470598 
L 288.98535 221.310752 
L 289.9095 220.677408 
L 290.83365 219.973542 
L 291.44975 219.708099 
L 292.3739 219.052495 
L 292.99 218.756759 
L 294.2222 217.932597 
L 295.14635 217.51734 
L 296.37855 216.800053 
L 297.61075 216.003273 
L 303.77175 212.589194 
L 306.23615 211.313712 
L 309.31665 209.844766 
L 315.7857 207.268306 
L 320.0984 205.89139 
L 324.4111 204.706506 
L 330.26405 203.530274 
L 334.8848 202.944188 
L 338.5814 202.676983 
L 342.8941 202.572727 
L 346.5907 202.689265 
L 350.59535 203.053649 
L 354.90805 203.679507 
L 354.90805 203.679507 
" clip-path="url(#pdc4b3172fa)" style="fill: none; stroke: #1f77b4; stroke-width: 1.5; stroke-linecap: square"/>
   </g>
   <g id="line2d_23">
    <path d="M 200.575 332.2 
L 200.575 196.4 
" clip-path="url(#pdc4b3172fa)" style="fill: none; stroke-dasharray: 5.55,2.4; stroke-dashoffset: 0; stroke: #000000; stroke-width: 1.5"/>
   </g>
   <g id="line2d_24">
    <path clip-path="url(#pdc4b3172fa)" style="fill: none; stroke-dasharray: 5.55,2.4; stroke-dashoffset: 0; stroke: #000000; stroke-width: 1.5"/>
   </g>
   <g id="patch_8">
    <path d="M 46.55 332.2 
L 46.55 196.4 
" style="fill: none; stroke: #000000; stroke-width: 0.8; stroke-linejoin: miter; stroke-linecap: square"/>
   </g>
   <g id="patch_9">
    <path d="M 354.6 332.2 
L 354.6 196.4 
" style="fill: none; stroke: #000000; stroke-width: 0.8; stroke-linejoin: miter; stroke-linecap: square"/>
   </g>
   <g id="patch_10">
    <path d="M 46.55 332.2 
L 354.6 332.2 
" style="fill: none; stroke: #000000; stroke-width: 0.8; stroke-linejoin: miter; stroke-linecap: square"/>
   </g>
   <g id="patch_11">
    <path d="M 46.55 196.4 
L 354.6 196.4 
" style="fill: none; stroke: #000000; stroke-width: 0.8; stroke-linejoin: miter; stroke-linecap: square"/>
   </g>
  </g>
  <g id="axes_3">
   <g id="patch_12">
    <path d="M 401.15 332.2 
L 709.2 332.2 
L 709.2 196.4 
L 401.15 196.4 
z
" style="fill: #ffffff"/>
   </g>
   <g id="matplotlib.axis_5">
    <g id="xtick_13">
     <g id="line2d_25">
      <g>
       <use xlink:href="#m086cf8ccc6" x="411.6237" y="332.2" style="stroke: #000000; stroke-width: 0.8"/>
      </g>
     </g>
     <g id="text_21">
      <!-- 24000 -->
      <g transform="translate(395.71745 346.798437)scale(0.1 -0.1)">
       <use xlink:href="#DejaVuSans-32"/>
       <use xlink:href="#DejaVuSans-34" x="63.623047"/>
       <use xlink:href="#DejaVuSans-30" x="127.246094"/>
       <use xlink:href="#DejaVuSans-30" x="190.869141"/>
       <use xlink:href="#DejaVuSans-30" x="254.492188"/>
      </g>
     </g>
    </g>
    <g id="xtick_14">
     <g id="line2d_26">
      <g>
       <use xlink:href="#m086cf8ccc6" x="473.2337" y="332.2" style="stroke: #000000; stroke-width: 0.8"/>
      </g>
     </g>
     <g id="text_22">
      <!-- 24200 -->
      <g transform="translate(457.32745 346.798437)scale(0.1 -0.1)">
       <use xlink:href="#DejaVuSans-32"/>
       <use xlink:href="#DejaVuSans-34" x="63.623047"/>
       <use xlink:href="#DejaVuSans-32" x="127.246094"/>
       <use xlink:href="#DejaVuSans-30" x="190.869141"/>
       <use xlink:href="#DejaVuSans-30" x="254.492188"/>
      </g>
     </g>
    </g>
    <g id="xtick_15">
     <g id="line2d_27">
      <g>
       <use xlink:href="#m086cf8ccc6" x="534.8437" y="332.2" style="stroke: #000000; stroke-width: 0.8"/>
      </g>
     </g>
     <g id="text_23">
      <!-- 24400 -->
      <g transform="translate(518.93745 346.798437)scale(0.1 -0.1)">
       <use xlink:href="#DejaVuSans-32"/>
       <use xlink:href="#DejaVuSans-34" x="63.623047"/>
       <use xlink:href="#DejaVuSans-34" x="127.246094"/>
       <use xlink:href="#DejaVuSans-30" x="190.869141"/>
       <use xlink:href="#DejaVuSans-30" x="254.492188"/>
      </g>
     </g>
    </g>
    <g id="xtick_16">
     <g id="line2d_28">
      <g>
       <use xlink:href="#m086cf8ccc6" x="596.4537" y="332.2" style="stroke: #000000; stroke-width: 0.8"/>
      </g>
     </g>
     <g id="text_24">
      <!-- 24600 -->
      <g transform="translate(580.54745 346.798437)scale(0.1 -0.1)">
       <use xlink:href="#DejaVuSans-32"/>
       <use xlink:href="#DejaVuSans-34" x="63.623047"/>
       <use xlink:href="#DejaVuSans-36" x="127.246094"/>
       <use xlink:href="#DejaVuSans-30" x="190.869141"/>
       <use xlink:href="#DejaVuSans-30" x="254.492188"/>
      </g>
     </g>
    </g>
    <g id="xtick_17">
     <g id="line2d_29">
      <g>
       <use xlink:href="#m086cf8ccc6" x="658.0637" y="332.2" style="stroke: #000000; stroke-width: 0.8"/>
      </g>
     </g>
     <g id="text_25">
      <!-- 24800 -->
      <g transform="translate(642.15745 346.798437)scale(0.1 -0.1)">
       <use xlink:href="#DejaVuSans-32"/>
       <use xlink:href="#DejaVuSans-34" x="63.623047"/>
       <use xlink:href="#DejaVuSans-38" x="127.246094"/>
       <use xlink:href="#DejaVuSans-30" x="190.869141"/>
       <use xlink:href="#DejaVuSans-30" x="254.492188"/>
      </g>
     </g>
    </g>
   </g>
   <g id="matplotlib.axis_6">
    <g id="ytick_7">
     <g id="line2d_30">
      <g>
       <use xlink:href="#m1498e280dc" x="401.15" y="326.162341" style="stroke: #000000; stroke-width: 0.8"/>
      </g>
     </g>
     <g id="text_26">
      <!-- 2.251 -->
      <g transform="translate(365.521875 329.96156)scale(0.1 -0.1)">
       <use xlink:href="#DejaVuSans-32"/>
       <use xlink:href="#DejaVuSans-2e" x="63.623047"/>
       <use xlink:href="#DejaVuSans-32" x="95.410156"/>
       <use xlink:href="#DejaVuSans-35" x="159.033203"/>
       <use xlink:href="#DejaVuSans-31" x="222.65625"/>
      </g>
     </g>
    </g>
    <g id="ytick_8">
     <g id="line2d_31">
      <g>
       <use xlink:href="#m1498e280dc" x="401.15" y="282.490143" style="stroke: #000000; stroke-width: 0.8"/>
      </g>
     </g>
     <g id="text_27">
      <!-- 2.252 -->
      <g transform="translate(365.521875 286.289361)scale(0.1 -0.1)">
       <use xlink:href="#DejaVuSans-32"/>
       <use xlink:href="#DejaVuSans-2e" x="63.623047"/>
       <use xlink:href="#DejaVuSans-32" x="95.410156"/>
       <use xlink:href="#DejaVuSans-35" x="159.033203"/>
       <use xlink:href="#DejaVuSans-32" x="222.65625"/>
      </g>
     </g>
    </g>
    <g id="ytick_9">
     <g id="line2d_32">
      <g>
       <use xlink:href="#m1498e280dc" x="401.15" y="238.817944" style="stroke: #000000; stroke-width: 0.8"/>
      </g>
     </g>
     <g id="text_28">
      <!-- 2.253 -->
      <g transform="translate(365.521875 242.617163)scale(0.1 -0.1)">
       <use xlink:href="#DejaVuSans-32"/>
       <use xlink:href="#DejaVuSans-2e" x="63.623047"/>
       <use xlink:href="#DejaVuSans-32" x="95.410156"/>
       <use xlink:href="#DejaVuSans-35" x="159.033203"/>
       <use xlink:href="#DejaVuSans-33" x="222.65625"/>
      </g>
     </g>
    </g>
    <g id="text_29">
     <!-- 1e7 -->
     <g transform="translate(401.15 193.4)scale(0.1 -0.1)">
      <use xlink:href="#DejaVuSans-31"/>
      <use xlink:href="#DejaVuSans-65" x="63.623047"/>
      <use xlink:href="#DejaVuSans-37" x="125.146484"/>
     </g>
    </g>
   </g>
   <g id="line2d_33">
    <path d="M 400.84195 205.946211 
L 405.4627 205.306044 
L 411.0076 204.915255 
L 414.7042 204.903896 
L 419.0169 205.150379 
L 426.4101 206.151173 
L 430.1067 206.954225 
L 432.26305 207.506777 
L 433.8033 207.970833 
L 440.88845 210.383741 
L 449.2058 214.109785 
L 451.97825 215.583275 
L 453.82655 216.693039 
L 454.7507 217.253581 
L 460.2956 220.543531 
L 460.9117 220.917726 
L 462.1439 221.782699 
L 462.76 222.208661 
L 467.99685 226.153335 
L 468.61295 226.459911 
L 469.84515 227.351535 
L 470.46125 227.704978 
L 471.69345 228.491809 
L 472.30955 228.761585 
L 472.92565 229.220104 
L 474.15785 230.904374 
L 475.39005 233.518226 
L 476.62225 234.764863 
L 477.23835 235.108522 
L 478.7786 236.238457 
L 479.3947 236.390951 
L 480.6269 237.514127 
L 481.8591 238.475112 
L 483.0913 239.648968 
L 485.5557 243.034098 
L 486.47985 243.884916 
L 486.7879 244.350439 
L 488.0201 245.1259 
L 492.64085 249.296257 
L 493.25695 250.002743 
L 496.33745 252.032389 
L 497.8777 252.760021 
L 498.18575 253.006161 
L 498.4938 253.436657 
L 500.03405 257.035055 
L 500.65015 258.860493 
L 500.9582 259.341058 
L 501.26625 259.575027 
L 502.49845 260.967635 
L 502.8065 261.243548 
L 503.4226 262.140995 
L 504.0387 262.605911 
L 505.887 264.783784 
L 506.5031 265.471962 
L 507.1192 266.15953 
L 507.42725 266.325246 
L 508.04335 266.881634 
L 508.3514 267.037386 
L 509.5836 268.295171 
L 510.8158 270.949598 
L 511.4319 272.635243 
L 512.35605 274.618898 
L 512.6641 275.545718 
L 512.97215 276.008795 
L 513.2802 276.085955 
L 513.58825 276.335182 
L 513.8963 276.854153 
L 514.82045 277.680317 
L 515.43655 278.617525 
L 518.51705 282.426945 
L 519.13315 282.935335 
L 519.4412 283.141958 
L 520.0573 283.775415 
L 520.6734 284.184194 
L 521.2895 284.843125 
L 523.44585 287.897775 
L 525.6022 290.520803 
L 526.52635 291.68895 
L 527.14245 292.542833 
L 530.531 297.672578 
L 531.7632 298.747962 
L 533.30345 299.603242 
L 534.2276 300.046848 
L 536.0759 301.427281 
L 536.692 302.088803 
L 539.7725 306.040194 
L 540.3886 306.812028 
L 540.69665 307.088843 
L 541.92885 308.746994 
L 542.853 309.797046 
L 543.4691 310.579309 
L 545.3174 312.213852 
L 545.9335 312.845685 
L 546.5496 313.498584 
L 547.1657 313.725613 
L 548.3979 314.655646 
L 549.6301 315.343785 
L 550.2462 315.464355 
L 551.4784 315.967315 
L 552.40255 316.203299 
L 553.3267 316.368557 
L 555.175 316.999492 
L 557.33135 317.351659 
L 560.41185 317.698015 
L 570.5775 318.360632 
L 590.2927 319.08481 
L 604.463 319.394536 
L 647.89805 319.87514 
L 695.0297 320.150691 
L 709.50805 320.208949 
L 709.50805 320.208949 
" clip-path="url(#p5daedec375)" style="fill: none; stroke: #1f77b4; stroke-width: 1.5; stroke-linecap: square"/>
   </g>
   <g id="line2d_34">
    <path clip-path="url(#p5daedec375)" style="fill: none; stroke-dasharray: 5.55,2.4; stroke-dashoffset: 0; stroke: #000000; stroke-width: 1.5"/>
   </g>
   <g id="line2d_35">
    <path d="M 555.175 332.2 
L 555.175 196.4 
" clip-path="url(#p5daedec375)" style="fill: none; stroke-dasharray: 5.55,2.4; stroke-dashoffset: 0; stroke: #000000; stroke-width: 1.5"/>
   </g>
   <g id="patch_13">
    <path d="M 401.15 332.2 
L 401.15 196.4 
" style="fill: none; stroke: #000000; stroke-width: 0.8; stroke-linejoin: miter; stroke-linecap: square"/>
   </g>
   <g id="patch_14">
    <path d="M 709.2 332.2 
L 709.2 196.4 
" style="fill: none; stroke: #000000; stroke-width: 0.8; stroke-linejoin: miter; stroke-linecap: square"/>
   </g>
   <g id="patch_15">
    <path d="M 401.15 332.2 
L 709.2 332.2 
" style="fill: none; stroke: #000000; stroke-width: 0.8; stroke-linejoin: miter; stroke-linecap: square"/>
   </g>
   <g id="patch_16">
    <path d="M 401.15 196.4 
L 709.2 196.4 
" style="fill: none; stroke: #000000; stroke-width: 0.8; stroke-linejoin: miter; stroke-linecap: square"/>
   </g>
  </g>
 </g>
 <defs>
  <clipPath id="p7e747ff7b5">
   <rect x="46.55" y="21.8" width="662.65" height="135.8"/>
  </clipPath>
  <clipPath id="pdc4b3172fa">
   <rect x="46.55" y="196.4" width="308.05" height="135.8"/>
  </clipPath>
  <clipPath id="p5daedec375">
   <rect x="401.15" y="196.4" width="308.05" height="135.8"/>
  </clipPath>
 </defs>
</svg>
