<?xml version="1.0" encoding="utf-8"?>
<svg xmlns="http://www.w3.org/2000/svg" xmlns:xlink="http://www.w3.org/1999/xlink" width="500" height="400" viewBox="0 0 2000 1600">
<defs>
  <clipPath id="clip140">
    <rect x="0" y="0" width="2000" height="1600"/>
  </clipPath>
</defs>
<path clip-path="url(#clip140)" d="
M0 1600 L2000 1600 L2000 0 L0 0  Z
  " fill="#ffffff" fill-rule="evenodd" fill-opacity="1"/>
<defs>
  <clipPath id="clip141">
    <rect x="400" y="0" width="1401" height="1401"/>
  </clipPath>
</defs>
<path clip-path="url(#clip140)" d="
M240.787 1244.35 L1952.76 1244.35 L1952.76 47.2441 L240.787 47.2441  Z
  " fill="#ffffff" fill-rule="evenodd" fill-opacity="1"/>
<defs>
  <clipPath id="clip142">
    <rect x="240" y="47" width="1713" height="1198"/>
  </clipPath>
</defs>
<polyline clip-path="url(#clip142)" style="stroke:#000000; stroke-linecap:butt; stroke-linejoin:round; stroke-width:2; stroke-opacity:0.1; fill:none" points="
  437.453,1244.35 437.453,47.2441 
  "/>
<polyline clip-path="url(#clip142)" style="stroke:#000000; stroke-linecap:butt; stroke-linejoin:round; stroke-width:2; stroke-opacity:0.1; fill:none" points="
  701.181,1244.35 701.181,47.2441 
  "/>
<polyline clip-path="url(#clip142)" style="stroke:#000000; stroke-linecap:butt; stroke-linejoin:round; stroke-width:2; stroke-opacity:0.1; fill:none" points="
  964.908,1244.35 964.908,47.2441 
  "/>
<polyline clip-path="url(#clip142)" style="stroke:#000000; stroke-linecap:butt; stroke-linejoin:round; stroke-width:2; stroke-opacity:0.1; fill:none" points="
  1228.63,1244.35 1228.63,47.2441 
  "/>
<polyline clip-path="url(#clip142)" style="stroke:#000000; stroke-linecap:butt; stroke-linejoin:round; stroke-width:2; stroke-opacity:0.1; fill:none" points="
  1492.36,1244.35 1492.36,47.2441 
  "/>
<polyline clip-path="url(#clip142)" style="stroke:#000000; stroke-linecap:butt; stroke-linejoin:round; stroke-width:2; stroke-opacity:0.1; fill:none" points="
  1756.09,1244.35 1756.09,47.2441 
  "/>
<polyline clip-path="url(#clip140)" style="stroke:#000000; stroke-linecap:butt; stroke-linejoin:round; stroke-width:4; stroke-opacity:1; fill:none" points="
  240.787,1244.35 1952.76,1244.35 
  "/>
<polyline clip-path="url(#clip140)" style="stroke:#000000; stroke-linecap:butt; stroke-linejoin:round; stroke-width:4; stroke-opacity:1; fill:none" points="
  437.453,1244.35 437.453,1225.45 
  "/>
<polyline clip-path="url(#clip140)" style="stroke:#000000; stroke-linecap:butt; stroke-linejoin:round; stroke-width:4; stroke-opacity:1; fill:none" points="
  701.181,1244.35 701.181,1225.45 
  "/>
<polyline clip-path="url(#clip140)" style="stroke:#000000; stroke-linecap:butt; stroke-linejoin:round; stroke-width:4; stroke-opacity:1; fill:none" points="
  964.908,1244.35 964.908,1225.45 
  "/>
<polyline clip-path="url(#clip140)" style="stroke:#000000; stroke-linecap:butt; stroke-linejoin:round; stroke-width:4; stroke-opacity:1; fill:none" points="
  1228.63,1244.35 1228.63,1225.45 
  "/>
<polyline clip-path="url(#clip140)" style="stroke:#000000; stroke-linecap:butt; stroke-linejoin:round; stroke-width:4; stroke-opacity:1; fill:none" points="
  1492.36,1244.35 1492.36,1225.45 
  "/>
<polyline clip-path="url(#clip140)" style="stroke:#000000; stroke-linecap:butt; stroke-linejoin:round; stroke-width:4; stroke-opacity:1; fill:none" points="
  1756.09,1244.35 1756.09,1225.45 
  "/>
<path clip-path="url(#clip140)" d="M238.808 1430.35 L245.004 1447.6 L254.739 1439.43 L238.808 1430.35 M233.825 1428.51 L237.886 1425.11 L270.19 1443.11 L266.467 1446.24 L258.356 1441.47 L246.422 1451.48 L249.71 1460.3 L245.933 1463.47 L233.825 1428.51 Z" fill="#000000" fill-rule="evenodd" fill-opacity="1" /><path clip-path="url(#clip140)" d="M281.247 1415.52 L282.586 1417.12 L267.584 1429.71 Q270.624 1432.9 273.921 1433.15 Q277.22 1433.38 280.465 1430.65 Q282.345 1429.08 283.714 1427.14 Q285.1 1425.19 286.064 1422.81 L288.653 1425.9 Q287.522 1428.12 286.006 1430.05 Q284.489 1431.99 282.591 1433.58 Q277.839 1437.57 272.734 1437.14 Q267.646 1436.7 263.689 1431.98 Q259.597 1427.1 259.826 1422.05 Q260.057 1416.96 264.526 1413.21 Q268.533 1409.84 273.029 1410.48 Q277.527 1411.09 281.247 1415.52 M277.18 1417.3 Q274.898 1414.66 272.087 1414.3 Q269.294 1413.92 266.883 1415.94 Q264.152 1418.24 263.797 1421.16 Q263.46 1424.07 265.563 1427.08 L277.18 1417.3 Z" fill="#000000" fill-rule="evenodd" fill-opacity="1" /><path clip-path="url(#clip140)" d="M293.022 1395.31 Q292.204 1395.45 291.429 1395.86 Q290.657 1396.24 289.876 1396.89 Q287.11 1399.21 287.138 1402.27 Q287.169 1405.3 289.996 1408.67 L298.775 1419.13 L295.495 1421.88 L278.83 1402.02 L282.11 1399.27 L284.699 1402.35 Q284.21 1399.68 285.13 1397.43 Q286.035 1395.16 288.394 1393.18 Q288.731 1392.9 289.183 1392.61 Q289.621 1392.3 290.192 1391.97 L293.022 1395.31 Z" fill="#000000" fill-rule="evenodd" fill-opacity="1" /><path clip-path="url(#clip140)" d="M302.702 1385.89 Q300.078 1388.09 300.279 1391.43 Q300.465 1394.75 303.455 1398.31 Q306.446 1401.87 309.679 1402.67 Q312.916 1403.43 315.558 1401.21 Q318.164 1399.02 317.963 1395.68 Q317.762 1392.35 314.786 1388.8 Q311.826 1385.27 308.575 1384.5 Q305.309 1383.7 302.702 1385.89 M300.381 1383.12 Q304.637 1379.55 309.387 1380.28 Q314.138 1381.01 318.244 1385.9 Q322.336 1390.78 322.243 1395.6 Q322.135 1400.4 317.879 1403.97 Q313.605 1407.56 308.855 1406.83 Q304.107 1406.07 300.015 1401.2 Q295.909 1396.3 295.999 1391.51 Q296.107 1386.71 300.381 1383.12 Z" fill="#000000" fill-rule="evenodd" fill-opacity="1" /><path clip-path="url(#clip140)" d="M333.967 1362.25 Q333.346 1359.03 334.17 1356.55 Q334.995 1354.08 337.3 1352.14 Q340.403 1349.54 343.918 1350.31 Q347.417 1351.06 350.78 1355.06 L360.839 1367.05 L357.558 1369.8 L347.589 1357.92 Q345.193 1355.07 343.022 1354.53 Q340.851 1354 338.776 1355.74 Q336.24 1357.87 336.182 1360.79 Q336.124 1363.71 338.564 1366.61 L347.983 1377.84 L344.702 1380.59 L334.733 1368.71 Q332.323 1365.84 330.166 1365.32 Q327.995 1364.79 325.885 1366.56 Q323.384 1368.65 323.341 1371.59 Q323.283 1374.51 325.708 1377.4 L335.127 1388.63 L331.846 1391.38 L315.181 1371.52 L318.462 1368.77 L321.051 1371.85 Q320.635 1369.09 321.467 1366.91 Q322.298 1364.73 324.444 1362.93 Q326.607 1361.11 329.037 1360.95 Q331.484 1360.77 333.967 1362.25 Z" fill="#000000" fill-rule="evenodd" fill-opacity="1" /><path clip-path="url(#clip140)" d="M360.297 1337.56 Q357.672 1339.76 357.874 1343.1 Q358.06 1346.42 361.05 1349.98 Q364.041 1353.55 367.274 1354.34 Q370.51 1355.1 373.153 1352.88 Q375.759 1350.69 375.558 1347.36 Q375.357 1344.02 372.381 1340.47 Q369.42 1336.94 366.169 1336.17 Q362.904 1335.37 360.297 1337.56 M357.976 1334.79 Q362.232 1331.22 366.982 1331.95 Q371.733 1332.68 375.839 1337.57 Q379.931 1342.45 379.838 1347.27 Q379.73 1352.08 375.474 1355.65 Q371.2 1359.23 366.45 1358.5 Q361.702 1357.74 357.61 1352.87 Q353.504 1347.97 353.594 1343.18 Q353.702 1338.38 357.976 1334.79 Z" fill="#000000" fill-rule="evenodd" fill-opacity="1" /><path clip-path="url(#clip140)" d="M396.016 1317.11 L406.074 1329.09 L402.811 1331.83 L392.842 1319.95 Q390.476 1317.13 388.201 1316.65 Q385.927 1316.17 383.728 1318.02 Q381.086 1320.24 380.974 1323.2 Q380.863 1326.17 383.303 1329.07 L392.721 1340.3 L389.441 1343.05 L372.776 1323.19 L376.057 1320.44 L378.646 1323.52 Q378.313 1320.75 379.147 1318.54 Q379.999 1316.31 382.074 1314.57 Q385.496 1311.7 389.037 1312.36 Q392.564 1312.99 396.016 1317.11 Z" fill="#000000" fill-rule="evenodd" fill-opacity="1" /><path clip-path="url(#clip140)" d="M413.231 1306.08 Q409.276 1309.39 408.51 1311.58 Q407.744 1313.76 409.574 1315.94 Q411.032 1317.68 413.03 1317.76 Q415.031 1317.8 416.999 1316.15 Q419.712 1313.87 419.737 1310.59 Q419.764 1307.27 417.086 1304.08 L416.476 1303.35 L413.231 1306.08 M418.608 1299.27 L428.115 1310.6 L424.853 1313.34 L422.323 1310.32 Q422.724 1313.07 421.786 1315.34 Q420.833 1317.59 418.422 1319.61 Q415.372 1322.17 412.135 1321.98 Q408.9 1321.77 406.49 1318.89 Q403.678 1315.54 404.484 1311.97 Q405.307 1308.37 409.758 1304.64 L414.333 1300.8 L414.065 1300.48 Q412.175 1298.23 409.659 1298.25 Q407.146 1298.25 404.468 1300.5 Q402.766 1301.92 401.495 1303.69 Q400.223 1305.45 399.418 1307.51 L396.889 1304.5 Q398.099 1302.3 399.501 1300.55 Q400.888 1298.79 402.484 1297.45 Q406.793 1293.83 410.796 1294.28 Q414.798 1294.73 418.608 1299.27 Z" fill="#000000" fill-rule="evenodd" fill-opacity="1" /><path clip-path="url(#clip140)" d="M431.323 1275.06 L433.912 1278.15 Q431.934 1278.6 430.147 1279.49 Q428.36 1280.39 426.764 1281.73 Q424.334 1283.77 423.736 1285.54 Q423.155 1287.29 424.405 1288.78 Q425.357 1289.92 426.776 1289.84 Q428.181 1289.75 431.296 1288.14 L432.622 1287.45 Q436.722 1285.28 439.322 1285.42 Q441.925 1285.53 443.963 1287.96 Q446.284 1290.73 445.44 1294.19 Q444.612 1297.63 440.782 1300.85 Q439.186 1302.19 437.181 1303.32 Q435.208 1304.47 432.772 1305.45 L429.945 1302.08 Q432.542 1301.51 434.699 1300.51 Q436.842 1299.5 438.562 1298.06 Q440.867 1296.12 441.454 1294.3 Q442.025 1292.46 440.82 1291.02 Q439.704 1289.69 438.205 1289.74 Q436.723 1289.78 433.14 1291.67 L431.782 1292.35 Q428.214 1294.26 425.765 1294.08 Q423.302 1293.88 421.367 1291.57 Q419.016 1288.77 419.723 1285.58 Q420.429 1282.39 424.082 1279.32 Q425.891 1277.81 427.71 1276.73 Q429.529 1275.66 431.323 1275.06 Z" fill="#000000" fill-rule="evenodd" fill-opacity="1" /><path clip-path="url(#clip140)" d="M588.644 1352.08 L605.383 1338.03 L607.913 1341.05 L594.755 1352.09 L601.332 1359.92 L613.94 1349.35 L616.469 1352.36 L603.861 1362.94 L611.911 1372.53 L625.388 1361.22 L627.917 1364.24 L610.859 1378.55 L588.644 1352.08 Z" fill="#000000" fill-rule="evenodd" fill-opacity="1" /><path clip-path="url(#clip140)" d="M630.344 1354.53 L634.086 1351.39 L637.865 1355.89 L634.124 1359.03 L630.344 1354.53 Z" fill="#000000" fill-rule="evenodd" fill-opacity="1" /><path clip-path="url(#clip140)" d="M655.017 1308.95 L657.577 1312 Q655.554 1312.4 653.84 1313.21 Q652.13 1313.98 650.711 1315.17 Q647.537 1317.83 647.478 1321.32 Q647.404 1324.8 650.454 1328.44 Q653.504 1332.07 656.956 1332.62 Q660.393 1333.15 663.567 1330.49 Q664.986 1329.3 666.056 1327.76 Q667.13 1326.2 667.873 1324.28 L670.403 1327.29 Q669.573 1329.07 668.369 1330.63 Q667.183 1332.17 665.534 1333.55 Q661.047 1337.32 656.039 1336.71 Q651.031 1336.11 647.014 1331.32 Q642.937 1326.46 643.261 1321.45 Q643.602 1316.42 648.248 1312.52 Q649.756 1311.25 651.46 1310.37 Q653.149 1309.46 655.017 1308.95 Z" fill="#000000" fill-rule="evenodd" fill-opacity="1" /><path clip-path="url(#clip140)" d="M669.667 1299.26 Q667.043 1301.46 667.244 1304.8 Q667.43 1308.12 670.421 1311.68 Q673.411 1315.25 676.645 1316.04 Q679.881 1316.8 682.523 1314.58 Q685.13 1312.39 684.929 1309.06 Q684.728 1305.72 681.752 1302.17 Q678.791 1298.65 675.54 1297.87 Q672.274 1297.07 669.667 1299.26 M667.346 1296.49 Q671.602 1292.92 676.352 1293.65 Q681.103 1294.38 685.21 1299.27 Q689.301 1304.15 689.208 1308.97 Q689.1 1313.78 684.844 1317.35 Q680.571 1320.93 675.82 1320.21 Q671.072 1319.45 666.981 1314.57 Q662.874 1309.67 662.964 1304.88 Q663.073 1300.08 667.346 1296.49 Z" fill="#000000" fill-rule="evenodd" fill-opacity="1" /><path clip-path="url(#clip140)" d="M675.783 1277.06 L679.046 1274.32 L702.198 1301.91 L698.935 1304.65 L675.783 1277.06 Z" fill="#000000" fill-rule="evenodd" fill-opacity="1" /><path clip-path="url(#clip140)" d="M692.36 1276.32 L695.623 1273.58 L712.288 1293.44 L709.025 1296.18 L692.36 1276.32 M685.873 1268.59 L689.136 1265.85 L692.603 1269.98 L689.34 1272.72 L685.873 1268.59 Z" fill="#000000" fill-rule="evenodd" fill-opacity="1" /><path clip-path="url(#clip140)" d="M777.345 1415.03 L781.193 1411.8 L797.67 1416.53 L795.822 1399.53 L799.67 1396.3 L801.943 1418.02 L812.522 1430.63 L808.923 1433.65 L798.343 1421.04 L777.345 1415.03 Z" fill="#000000" fill-rule="evenodd" fill-opacity="1" /><path clip-path="url(#clip140)" d="M828.384 1399.01 L829.723 1400.6 L814.722 1413.19 Q817.761 1416.38 821.058 1416.64 Q824.358 1416.86 827.603 1414.14 Q829.482 1412.56 830.851 1410.63 Q832.237 1408.68 833.201 1406.3 L835.79 1409.38 Q834.66 1411.6 833.143 1413.54 Q831.626 1415.48 829.729 1417.07 Q824.976 1421.06 819.871 1420.63 Q814.784 1420.18 810.826 1415.46 Q806.734 1410.59 806.963 1405.53 Q807.195 1400.44 811.663 1396.69 Q815.671 1393.33 820.166 1393.97 Q824.664 1394.58 828.384 1399.01 M824.318 1400.79 Q822.036 1398.14 819.225 1397.78 Q816.431 1397.4 814.02 1399.43 Q811.289 1401.72 810.934 1404.65 Q810.598 1407.56 812.7 1410.57 L824.318 1400.79 Z" fill="#000000" fill-rule="evenodd" fill-opacity="1" /><path clip-path="url(#clip140)" d="M843.405 1387.7 Q839.451 1391.02 838.684 1393.21 Q837.918 1395.39 839.748 1397.57 Q841.207 1399.31 843.204 1399.38 Q845.205 1399.43 847.173 1397.78 Q849.886 1395.5 849.911 1392.22 Q849.938 1388.9 847.26 1385.71 L846.65 1384.98 L843.405 1387.7 M848.782 1380.9 L858.29 1392.23 L855.027 1394.96 L852.497 1391.95 Q852.898 1394.7 851.96 1396.96 Q851.008 1399.21 848.596 1401.24 Q845.546 1403.8 842.309 1403.61 Q839.075 1403.39 836.664 1400.52 Q833.852 1397.17 834.658 1393.59 Q835.481 1390 839.932 1386.27 L844.507 1382.43 L844.239 1382.11 Q842.35 1379.86 839.834 1379.88 Q837.32 1379.88 834.643 1382.12 Q832.94 1383.55 831.669 1385.31 Q830.397 1387.08 829.592 1389.14 L827.063 1386.13 Q828.274 1383.93 829.675 1382.18 Q831.062 1380.41 832.658 1379.07 Q836.967 1375.46 840.97 1375.91 Q844.973 1376.36 848.782 1380.9 Z" fill="#000000" fill-rule="evenodd" fill-opacity="1" /><path clip-path="url(#clip140)" d="M861.497 1356.69 L864.086 1359.77 Q862.108 1360.23 860.321 1361.12 Q858.534 1362.02 856.938 1363.35 Q854.509 1365.39 853.91 1367.16 Q853.329 1368.92 854.579 1370.41 Q855.531 1371.55 856.951 1371.47 Q858.355 1371.38 861.471 1369.76 L862.796 1369.08 Q866.897 1366.9 869.496 1367.05 Q872.099 1367.16 874.137 1369.59 Q876.459 1372.36 875.614 1375.82 Q874.787 1379.26 870.957 1382.47 Q869.361 1383.81 867.355 1384.95 Q865.382 1386.09 862.946 1387.08 L860.119 1383.71 Q862.716 1383.13 864.874 1382.14 Q867.016 1381.13 868.736 1379.68 Q871.041 1377.75 871.628 1375.93 Q872.2 1374.09 870.994 1372.65 Q869.878 1371.32 868.379 1371.37 Q866.897 1371.41 863.314 1373.29 L861.956 1373.98 Q858.388 1375.89 855.94 1375.71 Q853.476 1375.51 851.542 1373.2 Q849.191 1370.4 849.897 1367.21 Q850.604 1364.02 854.256 1360.95 Q856.065 1359.43 857.884 1358.36 Q859.703 1357.29 861.497 1356.69 Z" fill="#000000" fill-rule="evenodd" fill-opacity="1" /><path clip-path="url(#clip140)" d="M865.762 1342.5 L870.493 1348.14 L877.214 1342.5 L879.342 1345.04 L872.621 1350.68 L881.668 1361.46 Q883.706 1363.89 884.942 1364.03 Q886.197 1364.16 888.236 1362.45 L891.587 1359.63 L893.879 1362.36 L890.527 1365.18 Q886.75 1368.35 884.138 1368.15 Q881.512 1367.94 878.387 1364.21 L869.34 1353.43 L866.947 1355.44 L864.819 1352.9 L867.213 1350.9 L862.481 1345.26 L865.762 1342.5 Z" fill="#000000" fill-rule="evenodd" fill-opacity="1" /><path clip-path="url(#clip140)" d="M894.429 1314.94 Q895.475 1321.02 897.67 1325.97 Q899.866 1330.93 903.303 1335.03 Q906.74 1339.12 911.27 1342.18 Q915.803 1345.21 921.569 1347.29 L918.732 1349.67 Q912.575 1347.73 907.868 1344.82 Q903.178 1341.9 899.845 1337.93 Q896.527 1333.97 894.476 1328.86 Q892.426 1323.76 891.592 1317.32 L894.429 1314.94 Z" fill="#000000" fill-rule="evenodd" fill-opacity="1" /><path clip-path="url(#clip140)" d="M924.531 1319.63 Q920.576 1322.95 919.81 1325.13 Q919.044 1327.32 920.874 1329.5 Q922.332 1331.24 924.33 1331.31 Q926.331 1331.36 928.299 1329.7 Q931.012 1327.43 931.037 1324.14 Q931.064 1320.83 928.386 1317.64 L927.776 1316.91 L924.531 1319.63 M929.908 1312.82 L939.415 1324.15 L936.153 1326.89 L933.623 1323.88 Q934.024 1326.62 933.086 1328.89 Q932.133 1331.14 929.722 1333.16 Q926.672 1335.72 923.435 1335.54 Q920.2 1335.32 917.79 1332.45 Q914.978 1329.1 915.784 1325.52 Q916.607 1321.93 921.058 1318.19 L925.633 1314.35 L925.365 1314.04 Q923.476 1311.78 920.959 1311.81 Q918.446 1311.8 915.768 1314.05 Q914.066 1315.48 912.795 1317.24 Q911.523 1319 910.718 1321.07 L908.189 1318.05 Q909.399 1315.86 910.801 1314.11 Q912.188 1312.34 913.784 1311 Q918.093 1307.39 922.096 1307.83 Q926.099 1308.28 929.908 1312.82 Z" fill="#000000" fill-rule="evenodd" fill-opacity="1" /><path clip-path="url(#clip140)" d="M946.785 1300.96 Q942.83 1304.28 942.064 1306.46 Q941.298 1308.64 943.128 1310.82 Q944.587 1312.56 946.584 1312.64 Q948.585 1312.68 950.553 1311.03 Q953.266 1308.75 953.291 1305.47 Q953.318 1302.15 950.64 1298.96 L950.03 1298.23 L946.785 1300.96 M952.162 1294.15 L961.67 1305.48 L958.407 1308.22 L955.877 1305.2 Q956.278 1307.95 955.34 1310.22 Q954.388 1312.47 951.976 1314.49 Q948.926 1317.05 945.689 1316.87 Q942.455 1316.65 940.044 1313.78 Q937.232 1310.42 938.038 1306.85 Q938.861 1303.25 943.312 1299.52 L947.887 1295.68 L947.619 1295.36 Q945.73 1293.11 943.214 1293.14 Q940.7 1293.13 938.023 1295.38 Q936.32 1296.81 935.049 1298.57 Q933.777 1300.33 932.972 1302.39 L930.443 1299.38 Q931.654 1297.19 933.055 1295.44 Q934.442 1293.67 936.038 1292.33 Q940.347 1288.71 944.35 1289.16 Q948.353 1289.61 952.162 1294.15 Z" fill="#000000" fill-rule="evenodd" fill-opacity="1" /><path clip-path="url(#clip140)" d="M944.754 1272.72 L947.591 1270.34 Q953.762 1272.29 958.437 1275.2 Q963.13 1278.09 966.448 1282.04 Q969.781 1286.01 971.828 1291.15 Q973.894 1296.28 974.731 1302.68 L971.893 1305.06 Q970.844 1299.02 968.634 1294.05 Q966.427 1289.04 962.99 1284.94 Q959.553 1280.85 955.035 1277.84 Q950.534 1274.82 944.754 1272.72 Z" fill="#000000" fill-rule="evenodd" fill-opacity="1" /><path clip-path="url(#clip140)" d="M1123.21 1346.11 L1127.06 1342.88 L1143.53 1347.61 L1141.69 1330.61 L1145.53 1327.38 L1147.81 1349.1 L1158.39 1361.71 L1154.79 1364.73 L1144.21 1352.12 L1123.21 1346.11 Z" fill="#000000" fill-rule="evenodd" fill-opacity="1" /><path clip-path="url(#clip140)" d="M1174.25 1330.09 L1175.59 1331.68 L1160.59 1344.27 Q1163.63 1347.46 1166.92 1347.72 Q1170.22 1347.94 1173.47 1345.22 Q1175.35 1343.64 1176.71 1341.71 Q1178.1 1339.76 1179.06 1337.38 L1181.65 1340.46 Q1180.52 1342.68 1179.01 1344.62 Q1177.49 1346.56 1175.59 1348.15 Q1170.84 1352.14 1165.73 1351.71 Q1160.65 1351.26 1156.69 1346.54 Q1152.6 1341.67 1152.83 1336.61 Q1153.06 1331.52 1157.53 1327.77 Q1161.53 1324.41 1166.03 1325.05 Q1170.53 1325.65 1174.25 1330.09 M1170.18 1331.87 Q1167.9 1329.22 1165.09 1328.86 Q1162.3 1328.48 1159.88 1330.51 Q1157.15 1332.8 1156.8 1335.72 Q1156.46 1338.64 1158.56 1341.65 L1170.18 1331.87 Z" fill="#000000" fill-rule="evenodd" fill-opacity="1" /><path clip-path="url(#clip140)" d="M1189.27 1318.78 Q1185.31 1322.1 1184.55 1324.29 Q1183.78 1326.47 1185.61 1328.65 Q1187.07 1330.39 1189.07 1330.46 Q1191.07 1330.51 1193.04 1328.86 Q1195.75 1326.58 1195.77 1323.3 Q1195.8 1319.98 1193.12 1316.79 L1192.51 1316.06 L1189.27 1318.78 M1194.65 1311.97 L1204.15 1323.31 L1200.89 1326.04 L1198.36 1323.03 Q1198.76 1325.78 1197.82 1328.04 Q1196.87 1330.29 1194.46 1332.32 Q1191.41 1334.88 1188.17 1334.69 Q1184.94 1334.47 1182.53 1331.6 Q1179.72 1328.25 1180.52 1324.67 Q1181.35 1321.08 1185.8 1317.35 L1190.37 1313.51 L1190.1 1313.19 Q1188.21 1310.94 1185.7 1310.96 Q1183.18 1310.96 1180.51 1313.2 Q1178.8 1314.63 1177.53 1316.39 Q1176.26 1318.15 1175.46 1320.22 L1172.93 1317.21 Q1174.14 1315.01 1175.54 1313.26 Q1176.93 1311.49 1178.52 1310.15 Q1182.83 1306.54 1186.83 1306.99 Q1190.84 1307.44 1194.65 1311.97 Z" fill="#000000" fill-rule="evenodd" fill-opacity="1" /><path clip-path="url(#clip140)" d="M1207.36 1287.77 L1209.95 1290.85 Q1207.97 1291.3 1206.18 1292.2 Q1204.4 1293.09 1202.8 1294.43 Q1200.37 1296.47 1199.77 1298.24 Q1199.19 1300 1200.44 1301.49 Q1201.4 1302.62 1202.81 1302.55 Q1204.22 1302.46 1207.33 1300.84 L1208.66 1300.15 Q1212.76 1297.98 1215.36 1298.13 Q1217.96 1298.24 1220 1300.67 Q1222.32 1303.44 1221.48 1306.9 Q1220.65 1310.34 1216.82 1313.55 Q1215.22 1314.89 1213.22 1316.03 Q1211.25 1317.17 1208.81 1318.16 L1205.98 1314.79 Q1208.58 1314.21 1210.74 1313.22 Q1212.88 1312.21 1214.6 1310.76 Q1216.9 1308.83 1217.49 1307.01 Q1218.06 1305.17 1216.86 1303.73 Q1215.74 1302.4 1214.24 1302.45 Q1212.76 1302.49 1209.18 1304.37 L1207.82 1305.06 Q1204.25 1306.97 1201.8 1306.78 Q1199.34 1306.59 1197.41 1304.28 Q1195.05 1301.48 1195.76 1298.29 Q1196.47 1295.1 1200.12 1292.03 Q1201.93 1290.51 1203.75 1289.44 Q1205.57 1288.37 1207.36 1287.77 Z" fill="#000000" fill-rule="evenodd" fill-opacity="1" /><path clip-path="url(#clip140)" d="M1211.63 1273.58 L1216.36 1279.22 L1223.08 1273.58 L1225.21 1276.12 L1218.48 1281.76 L1227.53 1292.54 Q1229.57 1294.97 1230.81 1295.11 Q1232.06 1295.24 1234.1 1293.52 L1237.45 1290.71 L1239.74 1293.44 L1236.39 1296.26 Q1232.61 1299.42 1230 1299.23 Q1227.38 1299.02 1224.25 1295.29 L1215.2 1284.51 L1212.81 1286.52 L1210.68 1283.98 L1213.08 1281.97 L1208.34 1276.34 L1211.63 1273.58 Z" fill="#000000" fill-rule="evenodd" fill-opacity="1" /><path clip-path="url(#clip140)" d="M1232.75 1520.6 L1200.43 1502.61 L1204.17 1499.47 L1231.26 1514.72 L1220.96 1485.38 L1224.68 1482.26 L1236.81 1517.2 L1232.75 1520.6 Z" fill="#000000" fill-rule="evenodd" fill-opacity="1" /><path clip-path="url(#clip140)" d="M1242.62 1504.64 L1246.36 1501.5 L1250.14 1506.01 L1246.4 1509.15 L1242.62 1504.64 Z" fill="#000000" fill-rule="evenodd" fill-opacity="1" /><path clip-path="url(#clip140)" d="M1267.3 1459.07 L1269.86 1462.12 Q1267.83 1462.52 1266.12 1463.32 Q1264.41 1464.09 1262.99 1465.28 Q1259.82 1467.95 1259.76 1471.44 Q1259.68 1474.92 1262.73 1478.55 Q1265.78 1482.19 1269.24 1482.74 Q1272.67 1483.27 1275.85 1480.6 Q1277.26 1479.41 1278.34 1477.88 Q1279.41 1476.32 1280.15 1474.39 L1282.68 1477.41 Q1281.85 1479.19 1280.65 1480.74 Q1279.46 1482.28 1277.81 1483.67 Q1273.33 1487.43 1268.32 1486.83 Q1263.31 1486.23 1259.29 1481.44 Q1255.22 1476.58 1255.54 1471.57 Q1255.88 1466.53 1260.53 1462.64 Q1262.03 1461.37 1263.74 1460.49 Q1265.43 1459.58 1267.3 1459.07 Z" fill="#000000" fill-rule="evenodd" fill-opacity="1" /><path clip-path="url(#clip140)" d="M1295.45 1447.57 L1305.5 1459.56 L1302.24 1462.29 L1292.27 1450.41 Q1289.91 1447.59 1287.63 1447.11 Q1285.36 1446.64 1283.16 1448.48 Q1280.52 1450.7 1280.4 1453.66 Q1280.29 1456.63 1282.73 1459.53 L1292.15 1470.76 L1288.87 1473.51 L1265.72 1445.92 L1269 1443.17 L1278.08 1453.98 Q1277.74 1451.21 1278.58 1449 Q1279.43 1446.77 1281.5 1445.03 Q1284.93 1442.16 1288.47 1442.82 Q1291.99 1443.45 1295.45 1447.57 Z" fill="#000000" fill-rule="evenodd" fill-opacity="1" /><path clip-path="url(#clip140)" d="M1304.96 1430.06 Q1302.34 1432.27 1302.54 1435.6 Q1302.73 1438.92 1305.72 1442.49 Q1308.71 1446.05 1311.94 1446.84 Q1315.18 1447.6 1317.82 1445.38 Q1320.43 1443.2 1320.22 1439.86 Q1320.02 1436.52 1317.05 1432.98 Q1314.09 1429.45 1310.84 1428.67 Q1307.57 1427.88 1304.96 1430.06 M1302.64 1427.3 Q1306.9 1423.73 1311.65 1424.45 Q1316.4 1425.18 1320.51 1430.08 Q1324.6 1434.95 1324.5 1439.78 Q1324.4 1444.58 1320.14 1448.15 Q1315.87 1451.74 1311.12 1451.01 Q1306.37 1450.25 1302.28 1445.37 Q1298.17 1440.48 1298.26 1435.69 Q1298.37 1430.88 1302.64 1427.3 Z" fill="#000000" fill-rule="evenodd" fill-opacity="1" /><path clip-path="url(#clip140)" d="M1311.08 1407.86 L1314.34 1405.12 L1337.49 1432.71 L1334.23 1435.45 L1311.08 1407.86 Z" fill="#000000" fill-rule="evenodd" fill-opacity="1" /><path clip-path="url(#clip140)" d="M1352.29 1401.98 L1353.63 1403.58 L1338.63 1416.17 Q1341.67 1419.36 1344.97 1419.61 Q1348.27 1419.84 1351.51 1417.11 Q1353.39 1415.54 1354.76 1413.6 Q1356.15 1411.65 1357.11 1409.27 L1359.7 1412.36 Q1358.57 1414.58 1357.05 1416.51 Q1355.53 1418.45 1353.64 1420.04 Q1348.88 1424.03 1343.78 1423.6 Q1338.69 1423.16 1334.73 1418.44 Q1330.64 1413.56 1330.87 1408.51 Q1331.1 1403.42 1335.57 1399.67 Q1339.58 1396.3 1344.07 1396.94 Q1348.57 1397.55 1352.29 1401.98 M1348.23 1403.76 Q1345.94 1401.12 1343.13 1400.76 Q1340.34 1400.38 1337.93 1402.4 Q1335.2 1404.69 1334.84 1407.62 Q1334.51 1410.53 1336.61 1413.54 L1348.23 1403.76 Z" fill="#000000" fill-rule="evenodd" fill-opacity="1" /><path clip-path="url(#clip140)" d="M1364.07 1381.77 Q1363.25 1381.91 1362.47 1382.32 Q1361.7 1382.7 1360.92 1383.35 Q1358.16 1385.67 1358.18 1388.73 Q1358.21 1391.76 1361.04 1395.13 L1369.82 1405.59 L1366.54 1408.34 L1349.88 1388.48 L1353.16 1385.73 L1355.74 1388.81 Q1355.26 1386.14 1356.18 1383.89 Q1357.08 1381.62 1359.44 1379.64 Q1359.78 1379.36 1360.23 1379.07 Q1360.67 1378.76 1361.24 1378.43 L1364.07 1381.77 Z" fill="#000000" fill-rule="evenodd" fill-opacity="1" /><path clip-path="url(#clip140)" d="M1382.24 1378.15 Q1378.29 1381.47 1377.52 1383.65 Q1376.76 1385.84 1378.59 1388.02 Q1380.05 1389.76 1382.04 1389.83 Q1384.04 1389.88 1386.01 1388.22 Q1388.73 1385.95 1388.75 1382.66 Q1388.78 1379.35 1386.1 1376.16 L1385.49 1375.43 L1382.24 1378.15 M1387.62 1371.34 L1397.13 1382.67 L1393.87 1385.41 L1391.34 1382.4 Q1391.74 1385.14 1390.8 1387.41 Q1389.85 1389.66 1387.43 1391.68 Q1384.38 1394.24 1381.15 1394.06 Q1377.91 1393.84 1375.5 1390.97 Q1372.69 1387.62 1373.5 1384.04 Q1374.32 1380.45 1378.77 1376.71 L1383.35 1372.88 L1383.08 1372.56 Q1381.19 1370.3 1378.67 1370.33 Q1376.16 1370.32 1373.48 1372.57 Q1371.78 1374 1370.51 1375.76 Q1369.24 1377.52 1368.43 1379.59 L1365.9 1376.57 Q1367.11 1374.38 1368.51 1372.63 Q1369.9 1370.86 1371.5 1369.52 Q1375.81 1365.91 1379.81 1366.35 Q1383.81 1366.8 1387.62 1371.34 Z" fill="#000000" fill-rule="evenodd" fill-opacity="1" /><path clip-path="url(#clip140)" d="M1411.82 1352.03 L1413.16 1353.63 L1398.16 1366.22 Q1401.2 1369.41 1404.49 1369.66 Q1407.79 1369.89 1411.04 1367.16 Q1412.92 1365.59 1414.29 1363.65 Q1415.67 1361.7 1416.64 1359.32 L1419.23 1362.41 Q1418.1 1364.63 1416.58 1366.56 Q1415.06 1368.5 1413.16 1370.09 Q1408.41 1374.08 1403.31 1373.65 Q1398.22 1373.21 1394.26 1368.49 Q1390.17 1363.61 1390.4 1358.56 Q1390.63 1353.47 1395.1 1349.72 Q1399.11 1346.35 1403.6 1346.99 Q1408.1 1347.6 1411.82 1352.03 M1407.75 1353.81 Q1405.47 1351.17 1402.66 1350.81 Q1399.87 1350.43 1397.46 1352.45 Q1394.72 1354.75 1394.37 1357.67 Q1394.03 1360.58 1396.14 1363.59 L1407.75 1353.81 Z" fill="#000000" fill-rule="evenodd" fill-opacity="1" /><path clip-path="url(#clip140)" d="M1422.45 1314.47 Q1423.5 1320.54 1425.69 1325.5 Q1427.89 1330.45 1431.32 1334.55 Q1434.76 1338.65 1439.29 1341.7 Q1443.82 1344.73 1449.59 1346.81 L1446.75 1349.19 Q1440.6 1347.26 1435.89 1344.35 Q1431.2 1341.42 1427.87 1337.45 Q1424.55 1333.5 1422.5 1328.39 Q1420.45 1323.28 1419.61 1316.85 L1422.45 1314.47 Z" fill="#000000" fill-rule="evenodd" fill-opacity="1" /><path clip-path="url(#clip140)" d="M1433.34 1318.44 L1436.6 1315.71 L1453.69 1327.78 L1444.74 1308.88 L1448.59 1305.65 L1465.67 1317.72 L1456.73 1298.82 L1459.99 1296.08 L1471.46 1320.3 L1467.61 1323.53 L1449.68 1310.84 L1459.05 1330.72 L1455.2 1333.94 L1433.34 1318.44 Z" fill="#000000" fill-rule="evenodd" fill-opacity="1" /><path clip-path="url(#clip140)" d="M1463.44 1283.58 L1468.17 1289.22 L1474.89 1283.58 L1477.02 1286.12 L1470.3 1291.76 L1479.34 1302.54 Q1481.38 1304.97 1482.62 1305.11 Q1483.87 1305.23 1485.91 1303.52 L1489.26 1300.71 L1491.55 1303.44 L1488.2 1306.25 Q1484.42 1309.42 1481.81 1309.23 Q1479.19 1309.01 1476.06 1305.29 L1467.02 1294.51 L1464.62 1296.52 L1462.49 1293.98 L1464.89 1291.97 L1460.16 1286.33 L1463.44 1283.58 Z" fill="#000000" fill-rule="evenodd" fill-opacity="1" /><path clip-path="url(#clip140)" d="M1472.21 1272.72 L1475.05 1270.34 Q1481.22 1272.29 1485.89 1275.2 Q1490.58 1278.09 1493.9 1282.04 Q1497.24 1286.01 1499.28 1291.15 Q1501.35 1296.28 1502.18 1302.68 L1499.35 1305.06 Q1498.3 1299.02 1496.09 1294.05 Q1493.88 1289.04 1490.44 1284.94 Q1487.01 1280.85 1482.49 1277.84 Q1477.99 1274.82 1472.21 1272.72 Z" fill="#000000" fill-rule="evenodd" fill-opacity="1" /><path clip-path="url(#clip140)" d="M1459.42 1551.7 L1427.09 1533.71 L1430.83 1530.57 L1457.93 1545.82 L1447.63 1516.48 L1451.35 1513.35 L1463.48 1548.3 L1459.42 1551.7 Z" fill="#000000" fill-rule="evenodd" fill-opacity="1" /><path clip-path="url(#clip140)" d="M1469.29 1535.74 L1473.03 1532.6 L1476.81 1537.11 L1473.07 1540.25 L1469.29 1535.74 Z" fill="#000000" fill-rule="evenodd" fill-opacity="1" /><path clip-path="url(#clip140)" d="M1493.96 1490.17 L1496.52 1493.22 Q1494.5 1493.62 1492.79 1494.42 Q1491.08 1495.19 1489.66 1496.38 Q1486.48 1499.04 1486.42 1502.54 Q1486.35 1506.02 1489.4 1509.65 Q1492.45 1513.29 1495.9 1513.83 Q1499.34 1514.37 1502.51 1511.7 Q1503.93 1510.51 1505 1508.98 Q1506.08 1507.41 1506.82 1505.49 L1509.35 1508.5 Q1508.52 1510.29 1507.31 1511.84 Q1506.13 1513.38 1504.48 1514.77 Q1499.99 1518.53 1494.98 1517.93 Q1489.98 1517.33 1485.96 1512.54 Q1481.88 1507.68 1482.21 1502.66 Q1482.55 1497.63 1487.19 1493.73 Q1488.7 1492.47 1490.41 1491.58 Q1492.09 1490.68 1493.96 1490.17 Z" fill="#000000" fill-rule="evenodd" fill-opacity="1" /><path clip-path="url(#clip140)" d="M1522.11 1478.67 L1532.17 1490.65 L1528.91 1493.39 L1518.94 1481.51 Q1516.57 1478.69 1514.3 1478.21 Q1512.02 1477.73 1509.82 1479.58 Q1507.18 1481.8 1507.07 1484.76 Q1506.96 1487.72 1509.4 1490.63 L1518.82 1501.86 L1515.54 1504.61 L1492.39 1477.02 L1495.67 1474.27 L1504.74 1485.08 Q1504.41 1482.31 1505.24 1480.1 Q1506.1 1477.87 1508.17 1476.13 Q1511.59 1473.26 1515.13 1473.91 Q1518.66 1474.55 1522.11 1478.67 Z" fill="#000000" fill-rule="evenodd" fill-opacity="1" /><path clip-path="url(#clip140)" d="M1531.63 1461.16 Q1529.01 1463.36 1529.21 1466.7 Q1529.39 1470.02 1532.38 1473.58 Q1535.37 1477.15 1538.61 1477.94 Q1541.84 1478.7 1544.49 1476.48 Q1547.09 1474.3 1546.89 1470.96 Q1546.69 1467.62 1543.71 1464.08 Q1540.75 1460.55 1537.5 1459.77 Q1534.24 1458.97 1531.63 1461.16 M1529.31 1458.4 Q1533.56 1454.82 1538.31 1455.55 Q1543.07 1456.28 1547.17 1461.17 Q1551.26 1466.05 1551.17 1470.87 Q1551.06 1475.68 1546.81 1479.25 Q1542.53 1482.83 1537.78 1482.11 Q1533.03 1481.35 1528.94 1476.47 Q1524.84 1471.58 1524.93 1466.79 Q1525.03 1461.98 1529.31 1458.4 Z" fill="#000000" fill-rule="evenodd" fill-opacity="1" /><path clip-path="url(#clip140)" d="M1537.75 1438.96 L1541.01 1436.22 L1564.16 1463.81 L1560.9 1466.55 L1537.75 1438.96 Z" fill="#000000" fill-rule="evenodd" fill-opacity="1" /><path clip-path="url(#clip140)" d="M1578.96 1433.08 L1580.3 1434.68 L1565.3 1447.27 Q1568.34 1450.46 1571.63 1450.71 Q1574.93 1450.93 1578.18 1448.21 Q1580.06 1446.63 1581.43 1444.7 Q1582.81 1442.75 1583.78 1440.37 L1586.36 1443.46 Q1585.23 1445.67 1583.72 1447.61 Q1582.2 1449.55 1580.3 1451.14 Q1575.55 1455.13 1570.45 1454.7 Q1565.36 1454.25 1561.4 1449.54 Q1557.31 1444.66 1557.54 1439.6 Q1557.77 1434.51 1562.24 1430.76 Q1566.24 1427.4 1570.74 1428.04 Q1575.24 1428.65 1578.96 1433.08 M1574.89 1434.86 Q1572.61 1432.21 1569.8 1431.85 Q1567.01 1431.48 1564.59 1433.5 Q1561.86 1435.79 1561.51 1438.72 Q1561.17 1441.63 1563.27 1444.64 L1574.89 1434.86 Z" fill="#000000" fill-rule="evenodd" fill-opacity="1" /><path clip-path="url(#clip140)" d="M1590.73 1412.87 Q1589.92 1413.01 1589.14 1413.42 Q1588.37 1413.79 1587.59 1414.45 Q1584.82 1416.77 1584.85 1419.83 Q1584.88 1422.85 1587.71 1426.22 L1596.49 1436.69 L1593.21 1439.44 L1576.54 1419.58 L1579.82 1416.83 L1582.41 1419.91 Q1581.92 1417.24 1582.84 1414.99 Q1583.75 1412.72 1586.11 1410.74 Q1586.44 1410.45 1586.89 1410.17 Q1587.33 1409.86 1587.9 1409.53 L1590.73 1412.87 Z" fill="#000000" fill-rule="evenodd" fill-opacity="1" /><path clip-path="url(#clip140)" d="M1608.91 1409.25 Q1604.96 1412.57 1604.19 1414.75 Q1603.42 1416.94 1605.25 1419.12 Q1606.71 1420.85 1608.71 1420.93 Q1610.71 1420.97 1612.68 1419.32 Q1615.39 1417.05 1615.42 1413.76 Q1615.44 1410.44 1612.76 1407.25 L1612.15 1406.53 L1608.91 1409.25 M1614.29 1402.44 L1623.79 1413.77 L1620.53 1416.51 L1618 1413.49 Q1618.4 1416.24 1617.47 1418.51 Q1616.51 1420.76 1614.1 1422.78 Q1611.05 1425.34 1607.81 1425.16 Q1604.58 1424.94 1602.17 1422.07 Q1599.36 1418.72 1600.16 1415.14 Q1600.99 1411.55 1605.44 1407.81 L1610.01 1403.97 L1609.74 1403.65 Q1607.85 1401.4 1605.34 1401.43 Q1602.83 1401.42 1600.15 1403.67 Q1598.45 1405.1 1597.17 1406.86 Q1595.9 1408.62 1595.1 1410.69 L1592.57 1407.67 Q1593.78 1405.48 1595.18 1403.73 Q1596.57 1401.96 1598.16 1400.62 Q1602.47 1397 1606.47 1397.45 Q1610.48 1397.9 1614.29 1402.44 Z" fill="#000000" fill-rule="evenodd" fill-opacity="1" /><path clip-path="url(#clip140)" d="M1638.49 1383.13 L1639.83 1384.73 L1624.82 1397.32 Q1627.86 1400.51 1631.16 1400.76 Q1634.46 1400.99 1637.7 1398.26 Q1639.58 1396.69 1640.95 1394.75 Q1642.34 1392.8 1643.3 1390.42 L1645.89 1393.51 Q1644.76 1395.72 1643.24 1397.66 Q1641.73 1399.6 1639.83 1401.19 Q1635.08 1405.18 1629.97 1404.75 Q1624.89 1404.3 1620.93 1399.59 Q1616.84 1394.71 1617.06 1389.65 Q1617.3 1384.56 1621.77 1380.82 Q1625.77 1377.45 1630.27 1378.09 Q1634.77 1378.7 1638.49 1383.13 M1634.42 1384.91 Q1632.14 1382.26 1629.33 1381.9 Q1626.53 1381.53 1624.12 1383.55 Q1621.39 1385.84 1621.04 1388.77 Q1620.7 1391.68 1622.8 1394.69 L1634.42 1384.91 Z" fill="#000000" fill-rule="evenodd" fill-opacity="1" /><path clip-path="url(#clip140)" d="M1649.12 1345.57 Q1650.16 1351.64 1652.36 1356.59 Q1654.55 1361.55 1657.99 1365.65 Q1661.43 1369.74 1665.96 1372.8 Q1670.49 1375.83 1676.26 1377.91 L1673.42 1380.29 Q1667.26 1378.35 1662.56 1375.45 Q1657.87 1372.52 1654.53 1368.55 Q1651.21 1364.59 1649.16 1359.49 Q1647.11 1354.38 1646.28 1347.95 L1649.12 1345.57 Z" fill="#000000" fill-rule="evenodd" fill-opacity="1" /><path clip-path="url(#clip140)" d="M1656.5 1341.22 L1673.24 1327.17 L1675.77 1330.18 L1662.61 1341.23 L1669.19 1349.06 L1681.79 1338.48 L1684.32 1341.5 L1671.71 1352.08 L1679.76 1361.67 L1693.24 1350.36 L1695.77 1353.38 L1678.71 1367.69 L1656.5 1341.22 Z" fill="#000000" fill-rule="evenodd" fill-opacity="1" /><path clip-path="url(#clip140)" d="M1685.49 1321.9 L1693.84 1331.85 L1698.35 1328.07 Q1700.85 1325.97 1701.13 1323.53 Q1701.4 1321.09 1699.4 1318.7 Q1697.4 1316.32 1694.95 1316.17 Q1692.5 1316.02 1690 1318.12 L1685.49 1321.9 M1679.44 1321.96 L1687.53 1315.18 Q1691.98 1311.44 1695.95 1311.56 Q1699.91 1311.64 1703.17 1315.53 Q1706.46 1319.45 1705.86 1323.37 Q1705.27 1327.28 1700.82 1331.01 L1696.31 1334.79 L1705.24 1345.43 L1701.66 1348.44 L1679.44 1321.96 Z" fill="#000000" fill-rule="evenodd" fill-opacity="1" /><path clip-path="url(#clip140)" d="M1717.94 1291.14 L1720.87 1294.63 Q1718.02 1295.37 1715.81 1296.41 Q1713.59 1297.45 1711.91 1298.86 Q1708.98 1301.31 1708.34 1303.79 Q1707.71 1306.25 1709.47 1308.34 Q1710.94 1310.1 1712.75 1310.12 Q1714.56 1310.12 1717.96 1308.2 L1720.5 1306.82 Q1725.14 1304.22 1728.66 1304.56 Q1732.19 1304.87 1734.89 1308.1 Q1738.12 1311.95 1737.2 1316.11 Q1736.29 1320.25 1731.31 1324.43 Q1729.43 1326.01 1726.95 1327.37 Q1724.48 1328.71 1721.51 1329.78 L1718.42 1326.1 Q1721.62 1325.49 1724.24 1324.35 Q1726.85 1323.22 1728.87 1321.52 Q1731.94 1318.95 1732.59 1316.34 Q1733.25 1313.74 1731.38 1311.5 Q1729.74 1309.55 1727.61 1309.47 Q1725.5 1309.36 1722.31 1311.11 L1719.77 1312.51 Q1715.09 1315.07 1711.87 1314.88 Q1708.65 1314.68 1706.11 1311.64 Q1703.16 1308.13 1703.93 1304.04 Q1704.72 1299.94 1709.06 1296.29 Q1710.92 1294.73 1713.14 1293.45 Q1715.36 1292.16 1717.94 1291.14 Z" fill="#000000" fill-rule="evenodd" fill-opacity="1" /><path clip-path="url(#clip140)" d="M1735.25 1300.82 L1744.81 1292.8 L1747.25 1295.71 L1737.69 1303.73 L1735.25 1300.82 Z" fill="#000000" fill-rule="evenodd" fill-opacity="1" /><path clip-path="url(#clip140)" d="M1735.94 1272.72 L1738.77 1270.34 Q1744.94 1272.29 1749.62 1275.2 Q1754.31 1278.09 1757.63 1282.04 Q1760.96 1286.01 1763.01 1291.15 Q1765.08 1296.28 1765.91 1302.68 L1763.07 1305.06 Q1762.03 1299.02 1759.82 1294.05 Q1757.61 1289.04 1754.17 1284.94 Q1750.73 1280.85 1746.22 1277.84 Q1741.72 1274.82 1735.94 1272.72 Z" fill="#000000" fill-rule="evenodd" fill-opacity="1" /><polyline clip-path="url(#clip142)" style="stroke:#000000; stroke-linecap:butt; stroke-linejoin:round; stroke-width:2; stroke-opacity:0.1; fill:none" points="
  240.787,1210.47 1952.76,1210.47 
  "/>
<polyline clip-path="url(#clip142)" style="stroke:#000000; stroke-linecap:butt; stroke-linejoin:round; stroke-width:2; stroke-opacity:0.1; fill:none" points="
  240.787,992.114 1952.76,992.114 
  "/>
<polyline clip-path="url(#clip142)" style="stroke:#000000; stroke-linecap:butt; stroke-linejoin:round; stroke-width:2; stroke-opacity:0.1; fill:none" points="
  240.787,773.759 1952.76,773.759 
  "/>
<polyline clip-path="url(#clip142)" style="stroke:#000000; stroke-linecap:butt; stroke-linejoin:round; stroke-width:2; stroke-opacity:0.1; fill:none" points="
  240.787,555.404 1952.76,555.404 
  "/>
<polyline clip-path="url(#clip142)" style="stroke:#000000; stroke-linecap:butt; stroke-linejoin:round; stroke-width:2; stroke-opacity:0.1; fill:none" points="
  240.787,337.049 1952.76,337.049 
  "/>
<polyline clip-path="url(#clip142)" style="stroke:#000000; stroke-linecap:butt; stroke-linejoin:round; stroke-width:2; stroke-opacity:0.1; fill:none" points="
  240.787,118.693 1952.76,118.693 
  "/>
<polyline clip-path="url(#clip140)" style="stroke:#000000; stroke-linecap:butt; stroke-linejoin:round; stroke-width:4; stroke-opacity:1; fill:none" points="
  240.787,1244.35 240.787,47.2441 
  "/>
<polyline clip-path="url(#clip140)" style="stroke:#000000; stroke-linecap:butt; stroke-linejoin:round; stroke-width:4; stroke-opacity:1; fill:none" points="
  240.787,1210.47 259.684,1210.47 
  "/>
<polyline clip-path="url(#clip140)" style="stroke:#000000; stroke-linecap:butt; stroke-linejoin:round; stroke-width:4; stroke-opacity:1; fill:none" points="
  240.787,992.114 259.684,992.114 
  "/>
<polyline clip-path="url(#clip140)" style="stroke:#000000; stroke-linecap:butt; stroke-linejoin:round; stroke-width:4; stroke-opacity:1; fill:none" points="
  240.787,773.759 259.684,773.759 
  "/>
<polyline clip-path="url(#clip140)" style="stroke:#000000; stroke-linecap:butt; stroke-linejoin:round; stroke-width:4; stroke-opacity:1; fill:none" points="
  240.787,555.404 259.684,555.404 
  "/>
<polyline clip-path="url(#clip140)" style="stroke:#000000; stroke-linecap:butt; stroke-linejoin:round; stroke-width:4; stroke-opacity:1; fill:none" points="
  240.787,337.049 259.684,337.049 
  "/>
<polyline clip-path="url(#clip140)" style="stroke:#000000; stroke-linecap:butt; stroke-linejoin:round; stroke-width:4; stroke-opacity:1; fill:none" points="
  240.787,118.693 259.684,118.693 
  "/>
<path clip-path="url(#clip140)" d="M198.842 1196.27 Q195.231 1196.27 193.403 1199.83 Q191.597 1203.37 191.597 1210.5 Q191.597 1217.61 193.403 1221.18 Q195.231 1224.72 198.842 1224.72 Q202.477 1224.72 204.282 1221.18 Q206.111 1217.61 206.111 1210.5 Q206.111 1203.37 204.282 1199.83 Q202.477 1196.27 198.842 1196.27 M198.842 1192.56 Q204.653 1192.56 207.708 1197.17 Q210.787 1201.75 210.787 1210.5 Q210.787 1219.23 207.708 1223.84 Q204.653 1228.42 198.842 1228.42 Q193.032 1228.42 189.954 1223.84 Q186.898 1219.23 186.898 1210.5 Q186.898 1201.75 189.954 1197.17 Q193.032 1192.56 198.842 1192.56 Z" fill="#000000" fill-rule="evenodd" fill-opacity="1" /><path clip-path="url(#clip140)" d="M129.329 1005.46 L136.968 1005.46 L136.968 979.094 L128.658 980.76 L128.658 976.501 L136.922 974.834 L141.597 974.834 L141.597 1005.46 L149.236 1005.46 L149.236 1009.39 L129.329 1009.39 L129.329 1005.46 Z" fill="#000000" fill-rule="evenodd" fill-opacity="1" /><path clip-path="url(#clip140)" d="M168.681 977.913 Q165.07 977.913 163.241 981.478 Q161.435 985.02 161.435 992.149 Q161.435 999.256 163.241 1002.82 Q165.07 1006.36 168.681 1006.36 Q172.315 1006.36 174.12 1002.82 Q175.949 999.256 175.949 992.149 Q175.949 985.02 174.12 981.478 Q172.315 977.913 168.681 977.913 M168.681 974.209 Q174.491 974.209 177.546 978.816 Q180.625 983.399 180.625 992.149 Q180.625 1000.88 177.546 1005.48 Q174.491 1010.07 168.681 1010.07 Q162.87 1010.07 159.792 1005.48 Q156.736 1000.88 156.736 992.149 Q156.736 983.399 159.792 978.816 Q162.87 974.209 168.681 974.209 Z" fill="#000000" fill-rule="evenodd" fill-opacity="1" /><path clip-path="url(#clip140)" d="M198.842 977.913 Q195.231 977.913 193.403 981.478 Q191.597 985.02 191.597 992.149 Q191.597 999.256 193.403 1002.82 Q195.231 1006.36 198.842 1006.36 Q202.477 1006.36 204.282 1002.82 Q206.111 999.256 206.111 992.149 Q206.111 985.02 204.282 981.478 Q202.477 977.913 198.842 977.913 M198.842 974.209 Q204.653 974.209 207.708 978.816 Q210.787 983.399 210.787 992.149 Q210.787 1000.88 207.708 1005.48 Q204.653 1010.07 198.842 1010.07 Q193.032 1010.07 189.954 1005.48 Q186.898 1000.88 186.898 992.149 Q186.898 983.399 189.954 978.816 Q193.032 974.209 198.842 974.209 Z" fill="#000000" fill-rule="evenodd" fill-opacity="1" /><path clip-path="url(#clip140)" d="M132.547 787.104 L148.866 787.104 L148.866 791.039 L126.922 791.039 L126.922 787.104 Q129.584 784.349 134.167 779.72 Q138.773 775.067 139.954 773.724 Q142.199 771.201 143.079 769.465 Q143.982 767.706 143.982 766.016 Q143.982 763.261 142.037 761.525 Q140.116 759.789 137.014 759.789 Q134.815 759.789 132.361 760.553 Q129.931 761.317 127.153 762.868 L127.153 758.146 Q129.977 757.012 132.431 756.433 Q134.884 755.854 136.922 755.854 Q142.292 755.854 145.486 758.539 Q148.681 761.224 148.681 765.715 Q148.681 767.845 147.871 769.766 Q147.083 771.664 144.977 774.257 Q144.398 774.928 141.296 778.146 Q138.195 781.34 132.547 787.104 Z" fill="#000000" fill-rule="evenodd" fill-opacity="1" /><path clip-path="url(#clip140)" d="M168.681 759.558 Q165.07 759.558 163.241 763.123 Q161.435 766.664 161.435 773.794 Q161.435 780.9 163.241 784.465 Q165.07 788.007 168.681 788.007 Q172.315 788.007 174.12 784.465 Q175.949 780.9 175.949 773.794 Q175.949 766.664 174.12 763.123 Q172.315 759.558 168.681 759.558 M168.681 755.854 Q174.491 755.854 177.546 760.461 Q180.625 765.044 180.625 773.794 Q180.625 782.521 177.546 787.127 Q174.491 791.71 168.681 791.71 Q162.87 791.71 159.792 787.127 Q156.736 782.521 156.736 773.794 Q156.736 765.044 159.792 760.461 Q162.87 755.854 168.681 755.854 Z" fill="#000000" fill-rule="evenodd" fill-opacity="1" /><path clip-path="url(#clip140)" d="M198.842 759.558 Q195.231 759.558 193.403 763.123 Q191.597 766.664 191.597 773.794 Q191.597 780.9 193.403 784.465 Q195.231 788.007 198.842 788.007 Q202.477 788.007 204.282 784.465 Q206.111 780.9 206.111 773.794 Q206.111 766.664 204.282 763.123 Q202.477 759.558 198.842 759.558 M198.842 755.854 Q204.653 755.854 207.708 760.461 Q210.787 765.044 210.787 773.794 Q210.787 782.521 207.708 787.127 Q204.653 791.71 198.842 791.71 Q193.032 791.71 189.954 787.127 Q186.898 782.521 186.898 773.794 Q186.898 765.044 189.954 760.461 Q193.032 755.854 198.842 755.854 Z" fill="#000000" fill-rule="evenodd" fill-opacity="1" /><path clip-path="url(#clip140)" d="M142.685 554.05 Q146.042 554.767 147.917 557.036 Q149.815 559.304 149.815 562.638 Q149.815 567.753 146.296 570.554 Q142.778 573.355 136.297 573.355 Q134.121 573.355 131.806 572.915 Q129.514 572.499 127.06 571.642 L127.06 567.128 Q129.005 568.263 131.32 568.841 Q133.634 569.42 136.158 569.42 Q140.556 569.42 142.847 567.684 Q145.162 565.948 145.162 562.638 Q145.162 559.582 143.009 557.869 Q140.88 556.133 137.06 556.133 L133.033 556.133 L133.033 552.29 L137.246 552.29 Q140.695 552.29 142.523 550.925 Q144.352 549.536 144.352 546.943 Q144.352 544.281 142.454 542.869 Q140.579 541.434 137.06 541.434 Q135.139 541.434 132.94 541.851 Q130.741 542.267 128.102 543.147 L128.102 538.98 Q130.764 538.24 133.079 537.869 Q135.417 537.499 137.477 537.499 Q142.801 537.499 145.903 539.929 Q149.005 542.337 149.005 546.457 Q149.005 549.328 147.361 551.318 Q145.718 553.286 142.685 554.05 Z" fill="#000000" fill-rule="evenodd" fill-opacity="1" /><path clip-path="url(#clip140)" d="M168.681 541.203 Q165.07 541.203 163.241 544.767 Q161.435 548.309 161.435 555.439 Q161.435 562.545 163.241 566.11 Q165.07 569.651 168.681 569.651 Q172.315 569.651 174.12 566.11 Q175.949 562.545 175.949 555.439 Q175.949 548.309 174.12 544.767 Q172.315 541.203 168.681 541.203 M168.681 537.499 Q174.491 537.499 177.546 542.105 Q180.625 546.689 180.625 555.439 Q180.625 564.165 177.546 568.772 Q174.491 573.355 168.681 573.355 Q162.87 573.355 159.792 568.772 Q156.736 564.165 156.736 555.439 Q156.736 546.689 159.792 542.105 Q162.87 537.499 168.681 537.499 Z" fill="#000000" fill-rule="evenodd" fill-opacity="1" /><path clip-path="url(#clip140)" d="M198.842 541.203 Q195.231 541.203 193.403 544.767 Q191.597 548.309 191.597 555.439 Q191.597 562.545 193.403 566.11 Q195.231 569.651 198.842 569.651 Q202.477 569.651 204.282 566.11 Q206.111 562.545 206.111 555.439 Q206.111 548.309 204.282 544.767 Q202.477 541.203 198.842 541.203 M198.842 537.499 Q204.653 537.499 207.708 542.105 Q210.787 546.689 210.787 555.439 Q210.787 564.165 207.708 568.772 Q204.653 573.355 198.842 573.355 Q193.032 573.355 189.954 568.772 Q186.898 564.165 186.898 555.439 Q186.898 546.689 189.954 542.105 Q193.032 537.499 198.842 537.499 Z" fill="#000000" fill-rule="evenodd" fill-opacity="1" /><path clip-path="url(#clip140)" d="M141.366 323.843 L129.56 342.292 L141.366 342.292 L141.366 323.843 M140.139 319.769 L146.019 319.769 L146.019 342.292 L150.949 342.292 L150.949 346.181 L146.019 346.181 L146.019 354.329 L141.366 354.329 L141.366 346.181 L125.764 346.181 L125.764 341.667 L140.139 319.769 Z" fill="#000000" fill-rule="evenodd" fill-opacity="1" /><path clip-path="url(#clip140)" d="M168.681 322.847 Q165.07 322.847 163.241 326.412 Q161.435 329.954 161.435 337.083 Q161.435 344.19 163.241 347.755 Q165.07 351.296 168.681 351.296 Q172.315 351.296 174.12 347.755 Q175.949 344.19 175.949 337.083 Q175.949 329.954 174.12 326.412 Q172.315 322.847 168.681 322.847 M168.681 319.144 Q174.491 319.144 177.546 323.75 Q180.625 328.333 180.625 337.083 Q180.625 345.81 177.546 350.417 Q174.491 355 168.681 355 Q162.87 355 159.792 350.417 Q156.736 345.81 156.736 337.083 Q156.736 328.333 159.792 323.75 Q162.87 319.144 168.681 319.144 Z" fill="#000000" fill-rule="evenodd" fill-opacity="1" /><path clip-path="url(#clip140)" d="M198.842 322.847 Q195.231 322.847 193.403 326.412 Q191.597 329.954 191.597 337.083 Q191.597 344.19 193.403 347.755 Q195.231 351.296 198.842 351.296 Q202.477 351.296 204.282 347.755 Q206.111 344.19 206.111 337.083 Q206.111 329.954 204.282 326.412 Q202.477 322.847 198.842 322.847 M198.842 319.144 Q204.653 319.144 207.708 323.75 Q210.787 328.333 210.787 337.083 Q210.787 345.81 207.708 350.417 Q204.653 355 198.842 355 Q193.032 355 189.954 350.417 Q186.898 345.81 186.898 337.083 Q186.898 328.333 189.954 323.75 Q193.032 319.144 198.842 319.144 Z" fill="#000000" fill-rule="evenodd" fill-opacity="1" /><path clip-path="url(#clip140)" d="M128.565 101.413 L146.921 101.413 L146.921 105.349 L132.847 105.349 L132.847 113.821 Q133.866 113.474 134.884 113.311 Q135.903 113.126 136.922 113.126 Q142.709 113.126 146.088 116.298 Q149.468 119.469 149.468 124.885 Q149.468 130.464 145.996 133.566 Q142.523 136.645 136.204 136.645 Q134.028 136.645 131.759 136.274 Q129.514 135.904 127.107 135.163 L127.107 130.464 Q129.19 131.598 131.412 132.154 Q133.634 132.71 136.111 132.71 Q140.116 132.71 142.454 130.603 Q144.792 128.497 144.792 124.885 Q144.792 121.274 142.454 119.168 Q140.116 117.061 136.111 117.061 Q134.236 117.061 132.361 117.478 Q130.51 117.895 128.565 118.774 L128.565 101.413 Z" fill="#000000" fill-rule="evenodd" fill-opacity="1" /><path clip-path="url(#clip140)" d="M168.681 104.492 Q165.07 104.492 163.241 108.057 Q161.435 111.599 161.435 118.728 Q161.435 125.835 163.241 129.399 Q165.07 132.941 168.681 132.941 Q172.315 132.941 174.12 129.399 Q175.949 125.835 175.949 118.728 Q175.949 111.599 174.12 108.057 Q172.315 104.492 168.681 104.492 M168.681 100.788 Q174.491 100.788 177.546 105.395 Q180.625 109.978 180.625 118.728 Q180.625 127.455 177.546 132.061 Q174.491 136.645 168.681 136.645 Q162.87 136.645 159.792 132.061 Q156.736 127.455 156.736 118.728 Q156.736 109.978 159.792 105.395 Q162.87 100.788 168.681 100.788 Z" fill="#000000" fill-rule="evenodd" fill-opacity="1" /><path clip-path="url(#clip140)" d="M198.842 104.492 Q195.231 104.492 193.403 108.057 Q191.597 111.599 191.597 118.728 Q191.597 125.835 193.403 129.399 Q195.231 132.941 198.842 132.941 Q202.477 132.941 204.282 129.399 Q206.111 125.835 206.111 118.728 Q206.111 111.599 204.282 108.057 Q202.477 104.492 198.842 104.492 M198.842 100.788 Q204.653 100.788 207.708 105.395 Q210.787 109.978 210.787 118.728 Q210.787 127.455 207.708 132.061 Q204.653 136.645 198.842 136.645 Q193.032 136.645 189.954 132.061 Q186.898 127.455 186.898 118.728 Q186.898 109.978 189.954 105.395 Q193.032 100.788 198.842 100.788 Z" fill="#000000" fill-rule="evenodd" fill-opacity="1" /><path clip-path="url(#clip140)" d="M40.322 961.186 L63.9706 969.907 L63.9706 952.433 L40.322 961.186 M33.9882 964.814 L33.9882 957.526 L81.5082 939.415 L81.5082 946.099 L69.3178 950.428 L69.3178 971.849 L81.5082 976.177 L81.5082 982.957 L33.9882 964.814 Z" fill="#000000" fill-rule="evenodd" fill-opacity="1" /><path clip-path="url(#clip140)" d="M45.8602 940.752 L45.8602 934.545 L75.779 923.406 L45.8602 912.266 L45.8602 906.059 L81.5082 919.427 L81.5082 927.384 L45.8602 940.752 Z" fill="#000000" fill-rule="evenodd" fill-opacity="1" /><path clip-path="url(#clip140)" d="M62.2201 867.483 L65.0846 867.483 L65.0846 894.41 Q71.1321 894.028 74.3149 890.781 Q77.4659 887.503 77.4659 881.678 Q77.4659 878.304 76.6384 875.153 Q75.8109 871.971 74.1558 868.851 L79.6939 868.851 Q81.0307 872.002 81.731 875.313 Q82.4312 878.623 82.4312 882.028 Q82.4312 890.558 77.4659 895.556 Q72.5007 900.521 64.0343 900.521 Q55.2814 900.521 50.1571 895.81 Q45.0008 891.068 45.0008 883.047 Q45.0008 875.854 49.6478 871.684 Q54.2629 867.483 62.2201 867.483 M60.5013 873.339 Q55.6952 873.403 52.8306 876.045 Q49.9661 878.655 49.9661 882.983 Q49.9661 887.885 52.7352 890.845 Q55.5042 893.773 60.5332 894.219 L60.5013 873.339 Z" fill="#000000" fill-rule="evenodd" fill-opacity="1" /><path clip-path="url(#clip140)" d="M51.3347 837.214 Q50.7618 838.201 50.5072 839.378 Q50.2207 840.524 50.2207 841.924 Q50.2207 846.89 53.4672 849.563 Q56.6819 852.205 62.7293 852.205 L81.5082 852.205 L81.5082 858.093 L45.8602 858.093 L45.8602 852.205 L51.3984 852.205 Q48.1519 850.359 46.5923 847.399 Q45.0008 844.439 45.0008 840.206 Q45.0008 839.601 45.0963 838.869 Q45.16 838.137 45.3191 837.246 L51.3347 837.214 Z" fill="#000000" fill-rule="evenodd" fill-opacity="1" /><path clip-path="url(#clip140)" d="M63.5887 814.87 Q63.5887 821.968 65.2119 824.705 Q66.8352 827.442 70.7501 827.442 Q73.8693 827.442 75.7154 825.405 Q77.5296 823.337 77.5296 819.804 Q77.5296 814.934 74.0921 812.006 Q70.6228 809.046 64.8937 809.046 L63.5887 809.046 L63.5887 814.87 M61.1697 803.189 L81.5082 803.189 L81.5082 809.046 L76.0973 809.046 Q79.3438 811.051 80.9034 814.043 Q82.4312 817.035 82.4312 821.363 Q82.4312 826.838 79.3756 830.084 Q76.2883 833.299 71.1321 833.299 Q65.1165 833.299 62.0609 829.289 Q59.0054 825.246 59.0054 817.257 L59.0054 809.046 L58.4325 809.046 Q54.3902 809.046 52.1941 811.719 Q49.9661 814.361 49.9661 819.167 Q49.9661 822.223 50.6981 825.119 Q51.4302 828.015 52.8943 830.689 L47.4835 830.689 Q46.2421 827.474 45.6374 824.451 Q45.0008 821.427 45.0008 818.562 Q45.0008 810.828 49.0112 807.009 Q53.0216 803.189 61.1697 803.189 Z" fill="#000000" fill-rule="evenodd" fill-opacity="1" /><path clip-path="url(#clip140)" d="M63.2704 767.668 Q56.9047 767.668 53.4036 770.31 Q49.9024 772.92 49.9024 777.663 Q49.9024 782.373 53.4036 785.015 Q56.9047 787.625 63.2704 787.625 Q69.6043 787.625 73.1054 785.015 Q76.6066 782.373 76.6066 777.663 Q76.6066 772.92 73.1054 770.31 Q69.6043 767.668 63.2704 767.668 M77.084 761.812 Q86.187 761.812 90.6111 765.854 Q95.0671 769.896 95.0671 778.236 Q95.0671 781.323 94.5897 784.06 Q94.1441 786.797 93.1892 789.376 L87.4919 789.376 Q88.8924 786.797 89.5608 784.283 Q90.2292 781.769 90.2292 779.159 Q90.2292 773.398 87.2055 770.533 Q84.2136 767.668 78.1343 767.668 L75.2379 767.668 Q78.389 769.483 79.9486 772.315 Q81.5082 775.148 81.5082 779.095 Q81.5082 785.652 76.5111 789.662 Q71.514 793.672 63.2704 793.672 Q54.995 793.672 49.9979 789.662 Q45.0008 785.652 45.0008 779.095 Q45.0008 775.148 46.5604 772.315 Q48.12 769.483 51.2711 767.668 L45.8602 767.668 L45.8602 761.812 L77.084 761.812 Z" fill="#000000" fill-rule="evenodd" fill-opacity="1" /><path clip-path="url(#clip140)" d="M62.2201 719.257 L65.0846 719.257 L65.0846 746.184 Q71.1321 745.802 74.3149 742.556 Q77.4659 739.277 77.4659 733.453 Q77.4659 730.079 76.6384 726.928 Q75.8109 723.745 74.1558 720.626 L79.6939 720.626 Q81.0307 723.777 81.731 727.087 Q82.4312 730.397 82.4312 733.803 Q82.4312 742.333 77.4659 747.33 Q72.5007 752.295 64.0343 752.295 Q55.2814 752.295 50.1571 747.585 Q45.0008 742.842 45.0008 734.821 Q45.0008 727.628 49.6478 723.459 Q54.2629 719.257 62.2201 719.257 M60.5013 725.114 Q55.6952 725.177 52.8306 727.819 Q49.9661 730.429 49.9661 734.758 Q49.9661 739.659 52.7352 742.619 Q55.5042 745.548 60.5332 745.993 L60.5013 725.114 Z" fill="#000000" fill-rule="evenodd" fill-opacity="1" /><path clip-path="url(#clip140)" d="M33.9882 688.67 L33.9882 682.241 L53.4672 682.241 L53.4672 658.879 L33.9882 658.879 L33.9882 652.449 L81.5082 652.449 L81.5082 658.879 L58.8781 658.879 L58.8781 682.241 L81.5082 682.241 L81.5082 688.67 L33.9882 688.67 Z" fill="#000000" fill-rule="evenodd" fill-opacity="1" /><path clip-path="url(#clip140)" d="M62.2201 609.417 L65.0846 609.417 L65.0846 636.344 Q71.1321 635.962 74.3149 632.716 Q77.4659 629.437 77.4659 623.613 Q77.4659 620.239 76.6384 617.088 Q75.8109 613.905 74.1558 610.786 L79.6939 610.786 Q81.0307 613.937 81.731 617.247 Q82.4312 620.557 82.4312 623.963 Q82.4312 632.493 77.4659 637.49 Q72.5007 642.455 64.0343 642.455 Q55.2814 642.455 50.1571 637.744 Q45.0008 633.002 45.0008 624.981 Q45.0008 617.788 49.6478 613.618 Q54.2629 609.417 62.2201 609.417 M60.5013 615.273 Q55.6952 615.337 52.8306 617.979 Q49.9661 620.589 49.9661 624.918 Q49.9661 629.819 52.7352 632.779 Q55.5042 635.707 60.5332 636.153 L60.5013 615.273 Z" fill="#000000" fill-rule="evenodd" fill-opacity="1" /><path clip-path="url(#clip140)" d="M45.8602 599.805 L45.8602 593.948 L81.5082 593.948 L81.5082 599.805 L45.8602 599.805 M31.983 599.805 L31.983 593.948 L39.399 593.948 L39.399 599.805 L31.983 599.805 Z" fill="#000000" fill-rule="evenodd" fill-opacity="1" /><path clip-path="url(#clip140)" d="M63.2704 558.237 Q56.9047 558.237 53.4036 560.879 Q49.9024 563.488 49.9024 568.231 Q49.9024 572.942 53.4036 575.583 Q56.9047 578.193 63.2704 578.193 Q69.6043 578.193 73.1054 575.583 Q76.6066 572.942 76.6066 568.231 Q76.6066 563.488 73.1054 560.879 Q69.6043 558.237 63.2704 558.237 M77.084 552.38 Q86.187 552.38 90.6111 556.423 Q95.0671 560.465 95.0671 568.804 Q95.0671 571.891 94.5897 574.628 Q94.1441 577.366 93.1892 579.944 L87.4919 579.944 Q88.8924 577.366 89.5608 574.851 Q90.2292 572.337 90.2292 569.727 Q90.2292 563.966 87.2055 561.101 Q84.2136 558.237 78.1343 558.237 L75.2379 558.237 Q78.389 560.051 79.9486 562.884 Q81.5082 565.716 81.5082 569.663 Q81.5082 576.22 76.5111 580.23 Q71.514 584.241 63.2704 584.241 Q54.995 584.241 49.9979 580.23 Q45.0008 576.22 45.0008 569.663 Q45.0008 565.716 46.5604 562.884 Q48.12 560.051 51.2711 558.237 L45.8602 558.237 L45.8602 552.38 L77.084 552.38 Z" fill="#000000" fill-rule="evenodd" fill-opacity="1" /><path clip-path="url(#clip140)" d="M59.9921 510.685 L81.5082 510.685 L81.5082 516.541 L60.183 516.541 Q55.1223 516.541 52.6078 518.515 Q50.0934 520.488 50.0934 524.435 Q50.0934 529.177 53.1171 531.915 Q56.1408 534.652 61.3607 534.652 L81.5082 534.652 L81.5082 540.54 L31.983 540.54 L31.983 534.652 L51.3984 534.652 Q48.1837 532.551 46.5923 529.718 Q45.0008 526.854 45.0008 523.13 Q45.0008 516.987 48.8203 513.836 Q52.6078 510.685 59.9921 510.685 Z" fill="#000000" fill-rule="evenodd" fill-opacity="1" /><path clip-path="url(#clip140)" d="M35.7387 493.211 L45.8602 493.211 L45.8602 481.148 L50.4117 481.148 L50.4117 493.211 L69.7634 493.211 Q74.1239 493.211 75.3653 492.033 Q76.6066 490.824 76.6066 487.164 L76.6066 481.148 L81.5082 481.148 L81.5082 487.164 Q81.5082 493.943 78.9937 496.521 Q76.4474 499.099 69.7634 499.099 L50.4117 499.099 L50.4117 503.396 L45.8602 503.396 L45.8602 499.099 L35.7387 499.099 L35.7387 493.211 Z" fill="#000000" fill-rule="evenodd" fill-opacity="1" /><path clip-path="url(#clip140)" d="M31.983 453.266 L31.983 439.771 L36.5344 439.771 L36.5344 447.41 L85.5504 447.41 L85.5504 439.771 L90.1019 439.771 L90.1019 453.266 L31.983 453.266 Z" fill="#000000" fill-rule="evenodd" fill-opacity="1" /><path clip-path="url(#clip140)" d="M95.0671 427.899 L45.8602 427.899 L45.8602 422.042 L68.0129 422.042 Q72.628 422.042 74.9833 419.846 Q77.3386 417.65 77.3386 413.353 Q77.3386 408.643 74.665 406.287 Q71.9914 403.9 66.6442 403.9 L45.8602 403.9 L45.8602 398.044 L73.2964 398.044 Q75.2061 398.044 76.1291 397.503 Q77.0203 396.93 77.0203 395.752 Q77.0203 395.466 76.8612 394.956 Q76.6702 394.447 76.2883 393.556 L80.9989 393.556 Q81.731 394.861 82.0811 396.039 Q82.4312 397.184 82.4312 398.298 Q82.4312 400.495 81.1899 401.8 Q79.9486 403.104 77.4023 403.582 Q79.9167 405.173 81.1899 407.497 Q82.4312 409.788 82.4312 412.908 Q82.4312 416.154 81.1899 418.446 Q79.9486 420.706 77.4659 422.042 L95.0671 422.042 L95.0671 427.899 Z" fill="#000000" fill-rule="evenodd" fill-opacity="1" /><path clip-path="url(#clip140)" d="M52.7033 358.067 Q48.7566 355.871 46.8787 352.815 Q45.0008 349.76 45.0008 345.622 Q45.0008 340.052 48.9157 337.028 Q52.7988 334.005 59.9921 334.005 L81.5082 334.005 L81.5082 339.893 L60.183 339.893 Q55.0586 339.893 52.576 341.707 Q50.0934 343.521 50.0934 347.245 Q50.0934 351.797 53.1171 354.439 Q56.1408 357.08 61.3607 357.08 L81.5082 357.08 L81.5082 362.969 L60.183 362.969 Q55.0268 362.969 52.576 364.783 Q50.0934 366.597 50.0934 370.385 Q50.0934 374.873 53.1489 377.514 Q56.1726 380.156 61.3607 380.156 L81.5082 380.156 L81.5082 386.044 L45.8602 386.044 L45.8602 380.156 L51.3984 380.156 Q48.12 378.151 46.5604 375.35 Q45.0008 372.549 45.0008 368.698 Q45.0008 364.815 46.9742 362.109 Q48.9476 359.372 52.7033 358.067 Z" fill="#000000" fill-rule="evenodd" fill-opacity="1" /><path clip-path="url(#clip140)" d="M31.983 308.637 L90.1019 308.637 L90.1019 322.133 L85.5504 322.133 L85.5504 314.526 L36.5344 314.526 L36.5344 322.133 L31.983 322.133 L31.983 308.637 Z" fill="#000000" fill-rule="evenodd" fill-opacity="1" /><path clip-path="url(#clip142)" d="
M331.963 765.38 L331.963 1210.47 L437.453 1210.47 L437.453 765.38 L331.963 765.38 L331.963 765.38  Z
  " fill="#009af9" fill-rule="evenodd" fill-opacity="1"/>
<polyline clip-path="url(#clip142)" style="stroke:#000000; stroke-linecap:butt; stroke-linejoin:round; stroke-width:4; stroke-opacity:1; fill:none" points="
  331.963,765.38 331.963,1210.47 437.453,1210.47 437.453,765.38 331.963,765.38 
  "/>
<path clip-path="url(#clip142)" d="
M595.69 754.876 L595.69 1210.47 L701.181 1210.47 L701.181 754.876 L595.69 754.876 L595.69 754.876  Z
  " fill="#009af9" fill-rule="evenodd" fill-opacity="1"/>
<polyline clip-path="url(#clip142)" style="stroke:#000000; stroke-linecap:butt; stroke-linejoin:round; stroke-width:4; stroke-opacity:1; fill:none" points="
  595.69,754.876 595.69,1210.47 701.181,1210.47 701.181,754.876 595.69,754.876 
  "/>
<path clip-path="url(#clip142)" d="
M859.417 670.239 L859.417 1210.47 L964.908 1210.47 L964.908 670.239 L859.417 670.239 L859.417 670.239  Z
  " fill="#009af9" fill-rule="evenodd" fill-opacity="1"/>
<polyline clip-path="url(#clip142)" style="stroke:#000000; stroke-linecap:butt; stroke-linejoin:round; stroke-width:4; stroke-opacity:1; fill:none" points="
  859.417,670.239 859.417,1210.47 964.908,1210.47 964.908,670.239 859.417,670.239 
  "/>
<path clip-path="url(#clip142)" d="
M1123.14 150.915 L1123.14 1210.47 L1228.63 1210.47 L1228.63 150.915 L1123.14 150.915 L1123.14 150.915  Z
  " fill="#009af9" fill-rule="evenodd" fill-opacity="1"/>
<polyline clip-path="url(#clip142)" style="stroke:#000000; stroke-linecap:butt; stroke-linejoin:round; stroke-width:4; stroke-opacity:1; fill:none" points="
  1123.14,150.915 1123.14,1210.47 1228.63,1210.47 1228.63,150.915 1123.14,150.915 
  "/>
<path clip-path="url(#clip142)" d="
M1386.87 812.745 L1386.87 1210.47 L1492.36 1210.47 L1492.36 812.745 L1386.87 812.745 L1386.87 812.745  Z
  " fill="#009af9" fill-rule="evenodd" fill-opacity="1"/>
<polyline clip-path="url(#clip142)" style="stroke:#000000; stroke-linecap:butt; stroke-linejoin:round; stroke-width:4; stroke-opacity:1; fill:none" points="
  1386.87,812.745 1386.87,1210.47 1492.36,1210.47 1492.36,812.745 1386.87,812.745 
  "/>
<path clip-path="url(#clip142)" d="
M1650.6 765.24 L1650.6 1210.47 L1756.09 1210.47 L1756.09 765.24 L1650.6 765.24 L1650.6 765.24  Z
  " fill="#009af9" fill-rule="evenodd" fill-opacity="1"/>
<polyline clip-path="url(#clip142)" style="stroke:#000000; stroke-linecap:butt; stroke-linejoin:round; stroke-width:4; stroke-opacity:1; fill:none" points="
  1650.6,765.24 1650.6,1210.47 1756.09,1210.47 1756.09,765.24 1650.6,765.24 
  "/>
<circle clip-path="url(#clip142)" style="fill:#009af9; stroke:none; fill-opacity:0" cx="384.708" cy="765.38" r="2"/>
<circle clip-path="url(#clip142)" style="fill:#009af9; stroke:none; fill-opacity:0" cx="648.435" cy="754.876" r="2"/>
<circle clip-path="url(#clip142)" style="fill:#009af9; stroke:none; fill-opacity:0" cx="912.162" cy="670.239" r="2"/>
<circle clip-path="url(#clip142)" style="fill:#009af9; stroke:none; fill-opacity:0" cx="1175.89" cy="150.915" r="2"/>
<circle clip-path="url(#clip142)" style="fill:#009af9; stroke:none; fill-opacity:0" cx="1439.62" cy="812.745" r="2"/>
<circle clip-path="url(#clip142)" style="fill:#009af9; stroke:none; fill-opacity:0" cx="1703.34" cy="765.24" r="2"/>
<path clip-path="url(#clip142)" d="
M384.708 774.861 L384.708 755.899 L384.708 1210.47 L384.708 1210.47  Z
  " fill="#009af9" fill-rule="evenodd" fill-opacity="1"/>
<path clip-path="url(#clip142)" d="
M648.435 772.517 L648.435 737.236 L648.435 1210.47 L648.435 1210.47  Z
  " fill="#009af9" fill-rule="evenodd" fill-opacity="1"/>
<path clip-path="url(#clip142)" d="
M912.162 702.465 L912.162 638.013 L912.162 1210.47 L912.162 1210.47  Z
  " fill="#009af9" fill-rule="evenodd" fill-opacity="1"/>
<path clip-path="url(#clip142)" d="
M1175.89 199.481 L1175.89 102.35 L1175.89 1210.47 L1175.89 1210.47  Z
  " fill="#009af9" fill-rule="evenodd" fill-opacity="1"/>
<path clip-path="url(#clip142)" d="
M1439.62 831.425 L1439.62 794.065 L1439.62 1210.47 L1439.62 1210.47  Z
  " fill="#009af9" fill-rule="evenodd" fill-opacity="1"/>
<path clip-path="url(#clip142)" d="
M1703.34 834.178 L1703.34 696.303 L1703.34 1210.47 L1703.34 1210.47  Z
  " fill="#009af9" fill-rule="evenodd" fill-opacity="1"/>
<polyline clip-path="url(#clip142)" style="stroke:#000000; stroke-linecap:butt; stroke-linejoin:round; stroke-width:4; stroke-opacity:1; fill:none" points="
  384.708,774.861 384.708,755.899 
  "/>
<polyline clip-path="url(#clip142)" style="stroke:#000000; stroke-linecap:butt; stroke-linejoin:round; stroke-width:4; stroke-opacity:1; fill:none" points="
  648.435,772.517 648.435,737.236 
  "/>
<polyline clip-path="url(#clip142)" style="stroke:#000000; stroke-linecap:butt; stroke-linejoin:round; stroke-width:4; stroke-opacity:1; fill:none" points="
  912.162,702.465 912.162,638.013 
  "/>
<polyline clip-path="url(#clip142)" style="stroke:#000000; stroke-linecap:butt; stroke-linejoin:round; stroke-width:4; stroke-opacity:1; fill:none" points="
  1175.89,199.481 1175.89,102.35 
  "/>
<polyline clip-path="url(#clip142)" style="stroke:#000000; stroke-linecap:butt; stroke-linejoin:round; stroke-width:4; stroke-opacity:1; fill:none" points="
  1439.62,831.425 1439.62,794.065 
  "/>
<polyline clip-path="url(#clip142)" style="stroke:#000000; stroke-linecap:butt; stroke-linejoin:round; stroke-width:4; stroke-opacity:1; fill:none" points="
  1703.34,834.178 1703.34,696.303 
  "/>
<line clip-path="url(#clip142)" x1="400.708" y1="774.861" x2="368.708" y2="774.861" style="stroke:#000000; stroke-width:3.2; stroke-opacity:1"/>
<line clip-path="url(#clip142)" x1="400.708" y1="755.899" x2="368.708" y2="755.899" style="stroke:#000000; stroke-width:3.2; stroke-opacity:1"/>
<line clip-path="url(#clip142)" x1="664.435" y1="772.517" x2="632.435" y2="772.517" style="stroke:#000000; stroke-width:3.2; stroke-opacity:1"/>
<line clip-path="url(#clip142)" x1="664.435" y1="737.236" x2="632.435" y2="737.236" style="stroke:#000000; stroke-width:3.2; stroke-opacity:1"/>
<line clip-path="url(#clip142)" x1="928.162" y1="702.465" x2="896.162" y2="702.465" style="stroke:#000000; stroke-width:3.2; stroke-opacity:1"/>
<line clip-path="url(#clip142)" x1="928.162" y1="638.013" x2="896.162" y2="638.013" style="stroke:#000000; stroke-width:3.2; stroke-opacity:1"/>
<line clip-path="url(#clip142)" x1="1191.89" y1="199.481" x2="1159.89" y2="199.481" style="stroke:#000000; stroke-width:3.2; stroke-opacity:1"/>
<line clip-path="url(#clip142)" x1="1191.89" y1="102.35" x2="1159.89" y2="102.35" style="stroke:#000000; stroke-width:3.2; stroke-opacity:1"/>
<line clip-path="url(#clip142)" x1="1455.62" y1="831.425" x2="1423.62" y2="831.425" style="stroke:#000000; stroke-width:3.2; stroke-opacity:1"/>
<line clip-path="url(#clip142)" x1="1455.62" y1="794.065" x2="1423.62" y2="794.065" style="stroke:#000000; stroke-width:3.2; stroke-opacity:1"/>
<line clip-path="url(#clip142)" x1="1719.34" y1="834.178" x2="1687.34" y2="834.178" style="stroke:#000000; stroke-width:3.2; stroke-opacity:1"/>
<line clip-path="url(#clip142)" x1="1719.34" y1="696.303" x2="1687.34" y2="696.303" style="stroke:#000000; stroke-width:3.2; stroke-opacity:1"/>
<path clip-path="url(#clip142)" d="
M437.453 749.787 L437.453 1210.47 L542.944 1210.47 L542.944 749.787 L437.453 749.787 L437.453 749.787  Z
  " fill="#e26f46" fill-rule="evenodd" fill-opacity="1"/>
<polyline clip-path="url(#clip142)" style="stroke:#000000; stroke-linecap:butt; stroke-linejoin:round; stroke-width:4; stroke-opacity:1; fill:none" points="
  437.453,749.787 437.453,1210.47 542.944,1210.47 542.944,749.787 437.453,749.787 
  "/>
<path clip-path="url(#clip142)" d="
M701.181 729.218 L701.181 1210.47 L806.671 1210.47 L806.671 729.218 L701.181 729.218 L701.181 729.218  Z
  " fill="#e26f46" fill-rule="evenodd" fill-opacity="1"/>
<polyline clip-path="url(#clip142)" style="stroke:#000000; stroke-linecap:butt; stroke-linejoin:round; stroke-width:4; stroke-opacity:1; fill:none" points="
  701.181,729.218 701.181,1210.47 806.671,1210.47 806.671,729.218 701.181,729.218 
  "/>
<path clip-path="url(#clip142)" d="
M964.908 730.626 L964.908 1210.47 L1070.4 1210.47 L1070.4 730.626 L964.908 730.626 L964.908 730.626  Z
  " fill="#e26f46" fill-rule="evenodd" fill-opacity="1"/>
<polyline clip-path="url(#clip142)" style="stroke:#000000; stroke-linecap:butt; stroke-linejoin:round; stroke-width:4; stroke-opacity:1; fill:none" points="
  964.908,730.626 964.908,1210.47 1070.4,1210.47 1070.4,730.626 964.908,730.626 
  "/>
<path clip-path="url(#clip142)" d="
M1228.63 101.139 L1228.63 1210.47 L1334.13 1210.47 L1334.13 101.139 L1228.63 101.139 L1228.63 101.139  Z
  " fill="#e26f46" fill-rule="evenodd" fill-opacity="1"/>
<polyline clip-path="url(#clip142)" style="stroke:#000000; stroke-linecap:butt; stroke-linejoin:round; stroke-width:4; stroke-opacity:1; fill:none" points="
  1228.63,101.139 1228.63,1210.47 1334.13,1210.47 1334.13,101.139 1228.63,101.139 
  "/>
<path clip-path="url(#clip142)" d="
M1492.36 840.163 L1492.36 1210.47 L1597.85 1210.47 L1597.85 840.163 L1492.36 840.163 L1492.36 840.163  Z
  " fill="#e26f46" fill-rule="evenodd" fill-opacity="1"/>
<polyline clip-path="url(#clip142)" style="stroke:#000000; stroke-linecap:butt; stroke-linejoin:round; stroke-width:4; stroke-opacity:1; fill:none" points="
  1492.36,840.163 1492.36,1210.47 1597.85,1210.47 1597.85,840.163 1492.36,840.163 
  "/>
<path clip-path="url(#clip142)" d="
M1756.09 690.331 L1756.09 1210.47 L1861.58 1210.47 L1861.58 690.331 L1756.09 690.331 L1756.09 690.331  Z
  " fill="#e26f46" fill-rule="evenodd" fill-opacity="1"/>
<polyline clip-path="url(#clip142)" style="stroke:#000000; stroke-linecap:butt; stroke-linejoin:round; stroke-width:4; stroke-opacity:1; fill:none" points="
  1756.09,690.331 1756.09,1210.47 1861.58,1210.47 1861.58,690.331 1756.09,690.331 
  "/>
<circle clip-path="url(#clip142)" style="fill:#e26f46; stroke:none; fill-opacity:0" cx="490.199" cy="749.787" r="2"/>
<circle clip-path="url(#clip142)" style="fill:#e26f46; stroke:none; fill-opacity:0" cx="753.926" cy="729.218" r="2"/>
<circle clip-path="url(#clip142)" style="fill:#e26f46; stroke:none; fill-opacity:0" cx="1017.65" cy="730.626" r="2"/>
<circle clip-path="url(#clip142)" style="fill:#e26f46; stroke:none; fill-opacity:0" cx="1281.38" cy="101.139" r="2"/>
<circle clip-path="url(#clip142)" style="fill:#e26f46; stroke:none; fill-opacity:0" cx="1545.11" cy="840.163" r="2"/>
<circle clip-path="url(#clip142)" style="fill:#e26f46; stroke:none; fill-opacity:0" cx="1808.83" cy="690.331" r="2"/>
<path clip-path="url(#clip142)" d="
M490.199 754.221 L490.199 745.352 L490.199 1210.47 L490.199 1210.47  Z
  " fill="#e26f46" fill-rule="evenodd" fill-opacity="1"/>
<path clip-path="url(#clip142)" d="
M753.926 739.993 L753.926 718.443 L753.926 1210.47 L753.926 1210.47  Z
  " fill="#e26f46" fill-rule="evenodd" fill-opacity="1"/>
<path clip-path="url(#clip142)" d="
M1017.65 736.954 L1017.65 724.298 L1017.65 1210.47 L1017.65 1210.47  Z
  " fill="#e26f46" fill-rule="evenodd" fill-opacity="1"/>
<path clip-path="url(#clip142)" d="
M1281.38 121.154 L1281.38 81.1244 L1281.38 1210.47 L1281.38 1210.47  Z
  " fill="#e26f46" fill-rule="evenodd" fill-opacity="1"/>
<path clip-path="url(#clip142)" d="
M1545.11 871.309 L1545.11 809.017 L1545.11 1210.47 L1545.11 1210.47  Z
  " fill="#e26f46" fill-rule="evenodd" fill-opacity="1"/>
<path clip-path="url(#clip142)" d="
M1808.83 806.343 L1808.83 574.32 L1808.83 1210.47 L1808.83 1210.47  Z
  " fill="#e26f46" fill-rule="evenodd" fill-opacity="1"/>
<polyline clip-path="url(#clip142)" style="stroke:#000000; stroke-linecap:butt; stroke-linejoin:round; stroke-width:4; stroke-opacity:1; fill:none" points="
  490.199,754.221 490.199,745.352 
  "/>
<polyline clip-path="url(#clip142)" style="stroke:#000000; stroke-linecap:butt; stroke-linejoin:round; stroke-width:4; stroke-opacity:1; fill:none" points="
  753.926,739.993 753.926,718.443 
  "/>
<polyline clip-path="url(#clip142)" style="stroke:#000000; stroke-linecap:butt; stroke-linejoin:round; stroke-width:4; stroke-opacity:1; fill:none" points="
  1017.65,736.954 1017.65,724.298 
  "/>
<polyline clip-path="url(#clip142)" style="stroke:#000000; stroke-linecap:butt; stroke-linejoin:round; stroke-width:4; stroke-opacity:1; fill:none" points="
  1281.38,121.154 1281.38,81.1244 
  "/>
<polyline clip-path="url(#clip142)" style="stroke:#000000; stroke-linecap:butt; stroke-linejoin:round; stroke-width:4; stroke-opacity:1; fill:none" points="
  1545.11,871.309 1545.11,809.017 
  "/>
<polyline clip-path="url(#clip142)" style="stroke:#000000; stroke-linecap:butt; stroke-linejoin:round; stroke-width:4; stroke-opacity:1; fill:none" points="
  1808.83,806.343 1808.83,574.32 
  "/>
<line clip-path="url(#clip142)" x1="506.199" y1="754.221" x2="474.199" y2="754.221" style="stroke:#000000; stroke-width:3.2; stroke-opacity:1"/>
<line clip-path="url(#clip142)" x1="506.199" y1="745.352" x2="474.199" y2="745.352" style="stroke:#000000; stroke-width:3.2; stroke-opacity:1"/>
<line clip-path="url(#clip142)" x1="769.926" y1="739.993" x2="737.926" y2="739.993" style="stroke:#000000; stroke-width:3.2; stroke-opacity:1"/>
<line clip-path="url(#clip142)" x1="769.926" y1="718.443" x2="737.926" y2="718.443" style="stroke:#000000; stroke-width:3.2; stroke-opacity:1"/>
<line clip-path="url(#clip142)" x1="1033.65" y1="736.954" x2="1001.65" y2="736.954" style="stroke:#000000; stroke-width:3.2; stroke-opacity:1"/>
<line clip-path="url(#clip142)" x1="1033.65" y1="724.298" x2="1001.65" y2="724.298" style="stroke:#000000; stroke-width:3.2; stroke-opacity:1"/>
<line clip-path="url(#clip142)" x1="1297.38" y1="121.154" x2="1265.38" y2="121.154" style="stroke:#000000; stroke-width:3.2; stroke-opacity:1"/>
<line clip-path="url(#clip142)" x1="1297.38" y1="81.1244" x2="1265.38" y2="81.1244" style="stroke:#000000; stroke-width:3.2; stroke-opacity:1"/>
<line clip-path="url(#clip142)" x1="1561.11" y1="871.309" x2="1529.11" y2="871.309" style="stroke:#000000; stroke-width:3.2; stroke-opacity:1"/>
<line clip-path="url(#clip142)" x1="1561.11" y1="809.017" x2="1529.11" y2="809.017" style="stroke:#000000; stroke-width:3.2; stroke-opacity:1"/>
<line clip-path="url(#clip142)" x1="1824.83" y1="806.343" x2="1792.83" y2="806.343" style="stroke:#000000; stroke-width:3.2; stroke-opacity:1"/>
<line clip-path="url(#clip142)" x1="1824.83" y1="574.32" x2="1792.83" y2="574.32" style="stroke:#000000; stroke-width:3.2; stroke-opacity:1"/>
<path clip-path="url(#clip140)" d="
M1355.69 242.668 L1895.69 242.668 L1895.69 87.1476 L1355.69 87.1476  Z
  " fill="#ffffff" fill-rule="evenodd" fill-opacity="1"/>
<polyline clip-path="url(#clip140)" style="stroke:#000000; stroke-linecap:butt; stroke-linejoin:round; stroke-width:4; stroke-opacity:1; fill:none" points="
  1355.69,242.668 1895.69,242.668 1895.69,87.1476 1355.69,87.1476 1355.69,242.668 
  "/>
<path clip-path="url(#clip140)" d="
M1375.69 159.724 L1495.69 159.724 L1495.69 118.252 L1375.69 118.252 L1375.69 159.724  Z
  " fill="#009af9" fill-rule="evenodd" fill-opacity="1"/>
<polyline clip-path="url(#clip140)" style="stroke:#000000; stroke-linecap:butt; stroke-linejoin:round; stroke-width:4; stroke-opacity:1; fill:none" points="
  1375.69,159.724 1495.69,159.724 1495.69,118.252 1375.69,118.252 1375.69,159.724 
  "/>
<path clip-path="url(#clip140)" d="M1515.69 121.708 L1520.37 121.708 L1520.37 156.268 L1515.69 156.268 L1515.69 121.708 Z" fill="#000000" fill-rule="evenodd" fill-opacity="1" /><path clip-path="url(#clip140)" d="M1551.04 140.62 L1551.04 156.268 L1546.78 156.268 L1546.78 140.758 Q1546.78 137.078 1545.34 135.249 Q1543.91 133.421 1541.04 133.421 Q1537.59 133.421 1535.6 135.62 Q1533.61 137.819 1533.61 141.615 L1533.61 156.268 L1529.33 156.268 L1529.33 130.342 L1533.61 130.342 L1533.61 134.37 Q1535.14 132.032 1537.2 130.874 Q1539.28 129.717 1541.99 129.717 Q1546.46 129.717 1548.75 132.495 Q1551.04 135.249 1551.04 140.62 Z" fill="#000000" fill-rule="evenodd" fill-opacity="1" /><path clip-path="url(#clip140)" d="M1563.75 122.981 L1563.75 130.342 L1572.52 130.342 L1572.52 133.652 L1563.75 133.652 L1563.75 147.726 Q1563.75 150.897 1564.6 151.8 Q1565.48 152.703 1568.15 152.703 L1572.52 152.703 L1572.52 156.268 L1568.15 156.268 Q1563.21 156.268 1561.34 154.439 Q1559.47 152.587 1559.47 147.726 L1559.47 133.652 L1556.34 133.652 L1556.34 130.342 L1559.47 130.342 L1559.47 122.981 L1563.75 122.981 Z" fill="#000000" fill-rule="evenodd" fill-opacity="1" /><path clip-path="url(#clip140)" d="M1600.3 142.24 L1600.3 144.323 L1580.71 144.323 Q1580.99 148.721 1583.35 151.036 Q1585.74 153.328 1589.97 153.328 Q1592.43 153.328 1594.72 152.726 Q1597.03 152.124 1599.3 150.92 L1599.3 154.948 Q1597.01 155.92 1594.6 156.43 Q1592.2 156.939 1589.72 156.939 Q1583.52 156.939 1579.88 153.328 Q1576.27 149.717 1576.27 143.559 Q1576.27 137.194 1579.7 133.467 Q1583.15 129.717 1588.98 129.717 Q1594.21 129.717 1597.24 133.096 Q1600.3 136.453 1600.3 142.24 M1596.04 140.99 Q1595.99 137.495 1594.07 135.411 Q1592.17 133.328 1589.03 133.328 Q1585.46 133.328 1583.31 135.342 Q1581.18 137.356 1580.85 141.013 L1596.04 140.99 Z" fill="#000000" fill-rule="evenodd" fill-opacity="1" /><path clip-path="url(#clip140)" d="M1622.31 134.323 Q1621.59 133.907 1620.74 133.721 Q1619.9 133.513 1618.89 133.513 Q1615.27 133.513 1613.33 135.874 Q1611.41 138.212 1611.41 142.61 L1611.41 156.268 L1607.13 156.268 L1607.13 130.342 L1611.41 130.342 L1611.41 134.37 Q1612.75 132.008 1614.9 130.874 Q1617.06 129.717 1620.14 129.717 Q1620.58 129.717 1621.11 129.786 Q1621.64 129.833 1622.29 129.948 L1622.31 134.323 Z" fill="#000000" fill-rule="evenodd" fill-opacity="1" /><path clip-path="url(#clip140)" d="M1639.9 120.249 L1639.9 123.791 L1635.83 123.791 Q1633.54 123.791 1632.64 124.717 Q1631.76 125.643 1631.76 128.05 L1631.76 130.342 L1638.77 130.342 L1638.77 133.652 L1631.76 133.652 L1631.76 156.268 L1627.47 156.268 L1627.47 133.652 L1623.4 133.652 L1623.4 130.342 L1627.47 130.342 L1627.47 128.536 Q1627.47 124.208 1629.49 122.24 Q1631.5 120.249 1635.88 120.249 L1639.9 120.249 Z" fill="#000000" fill-rule="evenodd" fill-opacity="1" /><path clip-path="url(#clip140)" d="M1665.64 142.24 L1665.64 144.323 L1646.06 144.323 Q1646.34 148.721 1648.7 151.036 Q1651.08 153.328 1655.32 153.328 Q1657.77 153.328 1660.07 152.726 Q1662.38 152.124 1664.65 150.92 L1664.65 154.948 Q1662.36 155.92 1659.95 156.43 Q1657.54 156.939 1655.07 156.939 Q1648.86 156.939 1645.23 153.328 Q1641.62 149.717 1641.62 143.559 Q1641.62 137.194 1645.04 133.467 Q1648.49 129.717 1654.33 129.717 Q1659.56 129.717 1662.59 133.096 Q1665.64 136.453 1665.64 142.24 M1661.39 140.99 Q1661.34 137.495 1659.42 135.411 Q1657.52 133.328 1654.37 133.328 Q1650.81 133.328 1648.65 135.342 Q1646.52 137.356 1646.2 141.013 L1661.39 140.99 Z" fill="#000000" fill-rule="evenodd" fill-opacity="1" /><path clip-path="url(#clip140)" d="M1687.66 134.323 Q1686.94 133.907 1686.08 133.721 Q1685.25 133.513 1684.23 133.513 Q1680.62 133.513 1678.68 135.874 Q1676.76 138.212 1676.76 142.61 L1676.76 156.268 L1672.47 156.268 L1672.47 130.342 L1676.76 130.342 L1676.76 134.37 Q1678.1 132.008 1680.25 130.874 Q1682.4 129.717 1685.48 129.717 Q1685.92 129.717 1686.46 129.786 Q1686.99 129.833 1687.64 129.948 L1687.66 134.323 Z" fill="#000000" fill-rule="evenodd" fill-opacity="1" /><path clip-path="url(#clip140)" d="M1701.13 133.328 Q1697.71 133.328 1695.71 136.013 Q1693.72 138.675 1693.72 143.328 Q1693.72 147.981 1695.69 150.666 Q1697.68 153.328 1701.13 153.328 Q1704.53 153.328 1706.52 150.643 Q1708.52 147.957 1708.52 143.328 Q1708.52 138.721 1706.52 136.036 Q1704.53 133.328 1701.13 133.328 M1701.13 129.717 Q1706.69 129.717 1709.86 133.328 Q1713.03 136.939 1713.03 143.328 Q1713.03 149.694 1709.86 153.328 Q1706.69 156.939 1701.13 156.939 Q1695.55 156.939 1692.38 153.328 Q1689.23 149.694 1689.23 143.328 Q1689.23 136.939 1692.38 133.328 Q1695.55 129.717 1701.13 129.717 Z" fill="#000000" fill-rule="evenodd" fill-opacity="1" /><path clip-path="url(#clip140)" d="M1740.27 135.319 Q1741.87 132.448 1744.09 131.083 Q1746.32 129.717 1749.33 129.717 Q1753.38 129.717 1755.58 132.564 Q1757.77 135.388 1757.77 140.62 L1757.77 156.268 L1753.49 156.268 L1753.49 140.758 Q1753.49 137.032 1752.17 135.226 Q1750.85 133.421 1748.14 133.421 Q1744.83 133.421 1742.91 135.62 Q1740.99 137.819 1740.99 141.615 L1740.99 156.268 L1736.71 156.268 L1736.71 140.758 Q1736.71 137.008 1735.39 135.226 Q1734.07 133.421 1731.32 133.421 Q1728.05 133.421 1726.13 135.643 Q1724.21 137.842 1724.21 141.615 L1724.21 156.268 L1719.93 156.268 L1719.93 130.342 L1724.21 130.342 L1724.21 134.37 Q1725.67 131.985 1727.7 130.851 Q1729.74 129.717 1732.54 129.717 Q1735.37 129.717 1737.33 131.152 Q1739.33 132.587 1740.27 135.319 Z" fill="#000000" fill-rule="evenodd" fill-opacity="1" /><path clip-path="url(#clip140)" d="M1788.45 142.24 L1788.45 144.323 L1768.86 144.323 Q1769.14 148.721 1771.5 151.036 Q1773.89 153.328 1778.12 153.328 Q1780.57 153.328 1782.87 152.726 Q1785.18 152.124 1787.45 150.92 L1787.45 154.948 Q1785.16 155.92 1782.75 156.43 Q1780.34 156.939 1777.87 156.939 Q1771.66 156.939 1768.03 153.328 Q1764.42 149.717 1764.42 143.559 Q1764.42 137.194 1767.84 133.467 Q1771.29 129.717 1777.13 129.717 Q1782.36 129.717 1785.39 133.096 Q1788.45 136.453 1788.45 142.24 M1784.19 140.99 Q1784.14 137.495 1782.22 135.411 Q1780.32 133.328 1777.17 133.328 Q1773.61 133.328 1771.45 135.342 Q1769.32 137.356 1769 141.013 L1784.19 140.99 Z" fill="#000000" fill-rule="evenodd" fill-opacity="1" /><path clip-path="url(#clip140)" d="M1799.65 122.981 L1799.65 130.342 L1808.42 130.342 L1808.42 133.652 L1799.65 133.652 L1799.65 147.726 Q1799.65 150.897 1800.51 151.8 Q1801.39 152.703 1804.05 152.703 L1808.42 152.703 L1808.42 156.268 L1804.05 156.268 Q1799.12 156.268 1797.24 154.439 Q1795.37 152.587 1795.37 147.726 L1795.37 133.652 L1792.24 133.652 L1792.24 130.342 L1795.37 130.342 L1795.37 122.981 L1799.65 122.981 Z" fill="#000000" fill-rule="evenodd" fill-opacity="1" /><path clip-path="url(#clip140)" d="M1829.05 134.323 Q1828.33 133.907 1827.47 133.721 Q1826.64 133.513 1825.62 133.513 Q1822.01 133.513 1820.07 135.874 Q1818.14 138.212 1818.14 142.61 L1818.14 156.268 L1813.86 156.268 L1813.86 130.342 L1818.14 130.342 L1818.14 134.37 Q1819.49 132.008 1821.64 130.874 Q1823.79 129.717 1826.87 129.717 Q1827.31 129.717 1827.84 129.786 Q1828.38 129.833 1829.02 129.948 L1829.05 134.323 Z" fill="#000000" fill-rule="evenodd" fill-opacity="1" /><path clip-path="url(#clip140)" d="M1844.3 158.675 Q1842.5 163.305 1840.78 164.717 Q1839.07 166.129 1836.2 166.129 L1832.8 166.129 L1832.8 162.564 L1835.3 162.564 Q1837.06 162.564 1838.03 161.731 Q1839 160.897 1840.18 157.795 L1840.94 155.851 L1830.46 130.342 L1834.97 130.342 L1843.07 150.62 L1851.18 130.342 L1855.69 130.342 L1844.3 158.675 Z" fill="#000000" fill-rule="evenodd" fill-opacity="1" /><path clip-path="url(#clip140)" d="
M1375.69 211.564 L1495.69 211.564 L1495.69 170.092 L1375.69 170.092 L1375.69 211.564  Z
  " fill="#e26f46" fill-rule="evenodd" fill-opacity="1"/>
<polyline clip-path="url(#clip140)" style="stroke:#000000; stroke-linecap:butt; stroke-linejoin:round; stroke-width:4; stroke-opacity:1; fill:none" points="
  1375.69,211.564 1495.69,211.564 1495.69,170.092 1375.69,170.092 1375.69,211.564 
  "/>
<path clip-path="url(#clip140)" d="M1543.56 176.21 L1543.56 181.14 Q1541.2 178.941 1538.52 177.853 Q1535.85 176.765 1532.84 176.765 Q1526.92 176.765 1523.77 180.399 Q1520.62 184.011 1520.62 190.862 Q1520.62 197.691 1523.77 201.325 Q1526.92 204.936 1532.84 204.936 Q1535.85 204.936 1538.52 203.848 Q1541.2 202.76 1543.56 200.561 L1543.56 205.446 Q1541.11 207.112 1538.35 207.946 Q1535.62 208.779 1532.57 208.779 Q1524.72 208.779 1520.21 203.987 Q1515.69 199.172 1515.69 190.862 Q1515.69 182.529 1520.21 177.737 Q1524.72 172.923 1532.57 172.923 Q1535.67 172.923 1538.4 173.756 Q1541.15 174.566 1543.56 176.21 Z" fill="#000000" fill-rule="evenodd" fill-opacity="1" /><path clip-path="url(#clip140)" d="M1560.65 185.168 Q1557.22 185.168 1555.23 187.853 Q1553.24 190.515 1553.24 195.168 Q1553.24 199.821 1555.21 202.506 Q1557.2 205.168 1560.65 205.168 Q1564.05 205.168 1566.04 202.483 Q1568.03 199.797 1568.03 195.168 Q1568.03 190.561 1566.04 187.876 Q1564.05 185.168 1560.65 185.168 M1560.65 181.557 Q1566.2 181.557 1569.37 185.168 Q1572.54 188.779 1572.54 195.168 Q1572.54 201.534 1569.37 205.168 Q1566.2 208.779 1560.65 208.779 Q1555.07 208.779 1551.9 205.168 Q1548.75 201.534 1548.75 195.168 Q1548.75 188.779 1551.9 185.168 Q1555.07 181.557 1560.65 181.557 Z" fill="#000000" fill-rule="evenodd" fill-opacity="1" /><path clip-path="url(#clip140)" d="M1601.15 192.46 L1601.15 208.108 L1596.9 208.108 L1596.9 192.598 Q1596.9 188.918 1595.46 187.089 Q1594.03 185.261 1591.15 185.261 Q1587.71 185.261 1585.71 187.46 Q1583.72 189.659 1583.72 193.455 L1583.72 208.108 L1579.44 208.108 L1579.44 182.182 L1583.72 182.182 L1583.72 186.21 Q1585.25 183.872 1587.31 182.714 Q1589.4 181.557 1592.1 181.557 Q1596.57 181.557 1598.86 184.335 Q1601.15 187.089 1601.15 192.46 Z" fill="#000000" fill-rule="evenodd" fill-opacity="1" /><path clip-path="url(#clip140)" d="M1613.86 174.821 L1613.86 182.182 L1622.64 182.182 L1622.64 185.492 L1613.86 185.492 L1613.86 199.566 Q1613.86 202.737 1614.72 203.64 Q1615.6 204.543 1618.26 204.543 L1622.64 204.543 L1622.64 208.108 L1618.26 208.108 Q1613.33 208.108 1611.46 206.279 Q1609.58 204.427 1609.58 199.566 L1609.58 185.492 L1606.46 185.492 L1606.46 182.182 L1609.58 182.182 L1609.58 174.821 L1613.86 174.821 Z" fill="#000000" fill-rule="evenodd" fill-opacity="1" /><path clip-path="url(#clip140)" d="M1643.26 186.163 Q1642.54 185.747 1641.69 185.561 Q1640.85 185.353 1639.83 185.353 Q1636.22 185.353 1634.28 187.714 Q1632.36 190.052 1632.36 194.45 L1632.36 208.108 L1628.08 208.108 L1628.08 182.182 L1632.36 182.182 L1632.36 186.21 Q1633.7 183.848 1635.85 182.714 Q1638.01 181.557 1641.08 181.557 Q1641.52 181.557 1642.06 181.626 Q1642.59 181.673 1643.24 181.788 L1643.26 186.163 Z" fill="#000000" fill-rule="evenodd" fill-opacity="1" /><path clip-path="url(#clip140)" d="M1656.73 185.168 Q1653.31 185.168 1651.32 187.853 Q1649.33 190.515 1649.33 195.168 Q1649.33 199.821 1651.29 202.506 Q1653.28 205.168 1656.73 205.168 Q1660.14 205.168 1662.13 202.483 Q1664.12 199.797 1664.12 195.168 Q1664.12 190.561 1662.13 187.876 Q1660.14 185.168 1656.73 185.168 M1656.73 181.557 Q1662.29 181.557 1665.46 185.168 Q1668.63 188.779 1668.63 195.168 Q1668.63 201.534 1665.46 205.168 Q1662.29 208.779 1656.73 208.779 Q1651.15 208.779 1647.98 205.168 Q1644.83 201.534 1644.83 195.168 Q1644.83 188.779 1647.98 185.168 Q1651.15 181.557 1656.73 181.557 Z" fill="#000000" fill-rule="evenodd" fill-opacity="1" /><path clip-path="url(#clip140)" d="M1675.69 172.089 L1679.95 172.089 L1679.95 208.108 L1675.69 208.108 L1675.69 172.089 Z" fill="#000000" fill-rule="evenodd" fill-opacity="1" /></svg>
