<?xml version="1.0" encoding="utf-8"?>
<svg xmlns="http://www.w3.org/2000/svg" xmlns:xlink="http://www.w3.org/1999/xlink" width="600" height="400" viewBox="0 0 2400 1600">
<defs>
  <clipPath id="clip480">
    <rect x="0" y="0" width="2400" height="1600"/>
  </clipPath>
</defs>
<path clip-path="url(#clip480)" d="
M0 1600 L2400 1600 L2400 0 L0 0  Z
  " fill="#ffffff" fill-rule="evenodd" fill-opacity="1"/>
<defs>
  <clipPath id="clip481">
    <rect x="480" y="0" width="1681" height="1600"/>
  </clipPath>
</defs>
<path clip-path="url(#clip480)" d="
M235.283 1423.18 L2352.76 1423.18 L2352.76 47.2441 L235.283 47.2441  Z
  " fill="#ffffff" fill-rule="evenodd" fill-opacity="1"/>
<defs>
  <clipPath id="clip482">
    <rect x="235" y="47" width="2118" height="1377"/>
  </clipPath>
</defs>
<polyline clip-path="url(#clip482)" style="stroke:#000000; stroke-linecap:butt; stroke-linejoin:round; stroke-width:2; stroke-opacity:0.1; fill:none" points="
  293.371,1423.18 293.371,47.2441 
  "/>
<polyline clip-path="url(#clip482)" style="stroke:#000000; stroke-linecap:butt; stroke-linejoin:round; stroke-width:2; stroke-opacity:0.1; fill:none" points="
  887.034,1423.18 887.034,47.2441 
  "/>
<polyline clip-path="url(#clip482)" style="stroke:#000000; stroke-linecap:butt; stroke-linejoin:round; stroke-width:2; stroke-opacity:0.1; fill:none" points="
  1480.7,1423.18 1480.7,47.2441 
  "/>
<polyline clip-path="url(#clip482)" style="stroke:#000000; stroke-linecap:butt; stroke-linejoin:round; stroke-width:2; stroke-opacity:0.1; fill:none" points="
  2074.36,1423.18 2074.36,47.2441 
  "/>
<polyline clip-path="url(#clip480)" style="stroke:#000000; stroke-linecap:butt; stroke-linejoin:round; stroke-width:4; stroke-opacity:1; fill:none" points="
  235.283,1423.18 2352.76,1423.18 
  "/>
<polyline clip-path="url(#clip480)" style="stroke:#000000; stroke-linecap:butt; stroke-linejoin:round; stroke-width:4; stroke-opacity:1; fill:none" points="
  293.371,1423.18 293.371,1404.28 
  "/>
<polyline clip-path="url(#clip480)" style="stroke:#000000; stroke-linecap:butt; stroke-linejoin:round; stroke-width:4; stroke-opacity:1; fill:none" points="
  887.034,1423.18 887.034,1404.28 
  "/>
<polyline clip-path="url(#clip480)" style="stroke:#000000; stroke-linecap:butt; stroke-linejoin:round; stroke-width:4; stroke-opacity:1; fill:none" points="
  1480.7,1423.18 1480.7,1404.28 
  "/>
<polyline clip-path="url(#clip480)" style="stroke:#000000; stroke-linecap:butt; stroke-linejoin:round; stroke-width:4; stroke-opacity:1; fill:none" points="
  2074.36,1423.18 2074.36,1404.28 
  "/>
<path clip-path="url(#clip480)" d="M293.371 1454.1 Q289.76 1454.1 287.931 1457.66 Q286.126 1461.2 286.126 1468.33 Q286.126 1475.44 287.931 1479.01 Q289.76 1482.55 293.371 1482.55 Q297.005 1482.55 298.811 1479.01 Q300.639 1475.44 300.639 1468.33 Q300.639 1461.2 298.811 1457.66 Q297.005 1454.1 293.371 1454.1 M293.371 1450.39 Q299.181 1450.39 302.237 1455 Q305.315 1459.58 305.315 1468.33 Q305.315 1477.06 302.237 1481.67 Q299.181 1486.25 293.371 1486.25 Q287.561 1486.25 284.482 1481.67 Q281.427 1477.06 281.427 1468.33 Q281.427 1459.58 284.482 1455 Q287.561 1450.39 293.371 1450.39 Z" fill="#000000" fill-rule="evenodd" fill-opacity="1" /><path clip-path="url(#clip480)" d="M846.641 1481.64 L854.279 1481.64 L854.279 1455.28 L845.969 1456.95 L845.969 1452.69 L854.233 1451.02 L858.909 1451.02 L858.909 1481.64 L866.548 1481.64 L866.548 1485.58 L846.641 1485.58 L846.641 1481.64 Z" fill="#000000" fill-rule="evenodd" fill-opacity="1" /><path clip-path="url(#clip480)" d="M885.992 1454.1 Q882.381 1454.1 880.552 1457.66 Q878.747 1461.2 878.747 1468.33 Q878.747 1475.44 880.552 1479.01 Q882.381 1482.55 885.992 1482.55 Q889.626 1482.55 891.432 1479.01 Q893.261 1475.44 893.261 1468.33 Q893.261 1461.2 891.432 1457.66 Q889.626 1454.1 885.992 1454.1 M885.992 1450.39 Q891.802 1450.39 894.858 1455 Q897.937 1459.58 897.937 1468.33 Q897.937 1477.06 894.858 1481.67 Q891.802 1486.25 885.992 1486.25 Q880.182 1486.25 877.103 1481.67 Q874.048 1477.06 874.048 1468.33 Q874.048 1459.58 877.103 1455 Q880.182 1450.39 885.992 1450.39 Z" fill="#000000" fill-rule="evenodd" fill-opacity="1" /><path clip-path="url(#clip480)" d="M916.154 1454.1 Q912.543 1454.1 910.714 1457.66 Q908.909 1461.2 908.909 1468.33 Q908.909 1475.44 910.714 1479.01 Q912.543 1482.55 916.154 1482.55 Q919.788 1482.55 921.594 1479.01 Q923.423 1475.44 923.423 1468.33 Q923.423 1461.2 921.594 1457.66 Q919.788 1454.1 916.154 1454.1 M916.154 1450.39 Q921.964 1450.39 925.02 1455 Q928.098 1459.58 928.098 1468.33 Q928.098 1477.06 925.02 1481.67 Q921.964 1486.25 916.154 1486.25 Q910.344 1486.25 907.265 1481.67 Q904.21 1477.06 904.21 1468.33 Q904.21 1459.58 907.265 1455 Q910.344 1450.39 916.154 1450.39 Z" fill="#000000" fill-rule="evenodd" fill-opacity="1" /><path clip-path="url(#clip480)" d="M1444.39 1481.64 L1460.71 1481.64 L1460.71 1485.58 L1438.76 1485.58 L1438.76 1481.64 Q1441.43 1478.89 1446.01 1474.26 Q1450.62 1469.61 1451.8 1468.27 Q1454.04 1465.74 1454.92 1464.01 Q1455.82 1462.25 1455.82 1460.56 Q1455.82 1457.8 1453.88 1456.07 Q1451.96 1454.33 1448.86 1454.33 Q1446.66 1454.33 1444.2 1455.09 Q1441.77 1455.86 1439 1457.41 L1439 1452.69 Q1441.82 1451.55 1444.27 1450.97 Q1446.73 1450.39 1448.76 1450.39 Q1454.13 1450.39 1457.33 1453.08 Q1460.52 1455.77 1460.52 1460.26 Q1460.52 1462.39 1459.71 1464.31 Q1458.93 1466.2 1456.82 1468.8 Q1456.24 1469.47 1453.14 1472.69 Q1450.04 1475.88 1444.39 1481.64 Z" fill="#000000" fill-rule="evenodd" fill-opacity="1" /><path clip-path="url(#clip480)" d="M1480.52 1454.1 Q1476.91 1454.1 1475.08 1457.66 Q1473.28 1461.2 1473.28 1468.33 Q1473.28 1475.44 1475.08 1479.01 Q1476.91 1482.55 1480.52 1482.55 Q1484.16 1482.55 1485.96 1479.01 Q1487.79 1475.44 1487.79 1468.33 Q1487.79 1461.2 1485.96 1457.66 Q1484.16 1454.1 1480.52 1454.1 M1480.52 1450.39 Q1486.33 1450.39 1489.39 1455 Q1492.47 1459.58 1492.47 1468.33 Q1492.47 1477.06 1489.39 1481.67 Q1486.33 1486.25 1480.52 1486.25 Q1474.71 1486.25 1471.63 1481.67 Q1468.58 1477.06 1468.58 1468.33 Q1468.58 1459.58 1471.63 1455 Q1474.71 1450.39 1480.52 1450.39 Z" fill="#000000" fill-rule="evenodd" fill-opacity="1" /><path clip-path="url(#clip480)" d="M1510.68 1454.1 Q1507.07 1454.1 1505.25 1457.66 Q1503.44 1461.2 1503.44 1468.33 Q1503.44 1475.44 1505.25 1479.01 Q1507.07 1482.55 1510.68 1482.55 Q1514.32 1482.55 1516.12 1479.01 Q1517.95 1475.44 1517.95 1468.33 Q1517.95 1461.2 1516.12 1457.66 Q1514.32 1454.1 1510.68 1454.1 M1510.68 1450.39 Q1516.5 1450.39 1519.55 1455 Q1522.63 1459.58 1522.63 1468.33 Q1522.63 1477.06 1519.55 1481.67 Q1516.5 1486.25 1510.68 1486.25 Q1504.87 1486.25 1501.8 1481.67 Q1498.74 1477.06 1498.74 1468.33 Q1498.74 1459.58 1501.8 1455 Q1504.87 1450.39 1510.68 1450.39 Z" fill="#000000" fill-rule="evenodd" fill-opacity="1" /><path clip-path="url(#clip480)" d="M2048.12 1466.95 Q2051.48 1467.66 2053.35 1469.93 Q2055.25 1472.2 2055.25 1475.53 Q2055.25 1480.65 2051.73 1483.45 Q2048.21 1486.25 2041.73 1486.25 Q2039.56 1486.25 2037.24 1485.81 Q2034.95 1485.39 2032.5 1484.54 L2032.5 1480.02 Q2034.44 1481.16 2036.76 1481.74 Q2039.07 1482.32 2041.59 1482.32 Q2045.99 1482.32 2048.28 1480.58 Q2050.6 1478.84 2050.6 1475.53 Q2050.6 1472.48 2048.45 1470.77 Q2046.32 1469.03 2042.5 1469.03 L2038.47 1469.03 L2038.47 1465.19 L2042.68 1465.19 Q2046.13 1465.19 2047.96 1463.82 Q2049.79 1462.43 2049.79 1459.84 Q2049.79 1457.18 2047.89 1455.77 Q2046.01 1454.33 2042.5 1454.33 Q2040.57 1454.33 2038.38 1454.75 Q2036.18 1455.16 2033.54 1456.04 L2033.54 1451.88 Q2036.2 1451.14 2038.51 1450.77 Q2040.85 1450.39 2042.91 1450.39 Q2048.24 1450.39 2051.34 1452.83 Q2054.44 1455.23 2054.44 1459.35 Q2054.44 1462.22 2052.8 1464.21 Q2051.15 1466.18 2048.12 1466.95 Z" fill="#000000" fill-rule="evenodd" fill-opacity="1" /><path clip-path="url(#clip480)" d="M2074.12 1454.1 Q2070.51 1454.1 2068.68 1457.66 Q2066.87 1461.2 2066.87 1468.33 Q2066.87 1475.44 2068.68 1479.01 Q2070.51 1482.55 2074.12 1482.55 Q2077.75 1482.55 2079.56 1479.01 Q2081.38 1475.44 2081.38 1468.33 Q2081.38 1461.2 2079.56 1457.66 Q2077.75 1454.1 2074.12 1454.1 M2074.12 1450.39 Q2079.93 1450.39 2082.98 1455 Q2086.06 1459.58 2086.06 1468.33 Q2086.06 1477.06 2082.98 1481.67 Q2079.93 1486.25 2074.12 1486.25 Q2068.31 1486.25 2065.23 1481.67 Q2062.17 1477.06 2062.17 1468.33 Q2062.17 1459.58 2065.23 1455 Q2068.31 1450.39 2074.12 1450.39 Z" fill="#000000" fill-rule="evenodd" fill-opacity="1" /><path clip-path="url(#clip480)" d="M2104.28 1454.1 Q2100.67 1454.1 2098.84 1457.66 Q2097.03 1461.2 2097.03 1468.33 Q2097.03 1475.44 2098.84 1479.01 Q2100.67 1482.55 2104.28 1482.55 Q2107.91 1482.55 2109.72 1479.01 Q2111.55 1475.44 2111.55 1468.33 Q2111.55 1461.2 2109.72 1457.66 Q2107.91 1454.1 2104.28 1454.1 M2104.28 1450.39 Q2110.09 1450.39 2113.14 1455 Q2116.22 1459.58 2116.22 1468.33 Q2116.22 1477.06 2113.14 1481.67 Q2110.09 1486.25 2104.28 1486.25 Q2098.47 1486.25 2095.39 1481.67 Q2092.33 1477.06 2092.33 1468.33 Q2092.33 1459.58 2095.39 1455 Q2098.47 1450.39 2104.28 1450.39 Z" fill="#000000" fill-rule="evenodd" fill-opacity="1" /><path clip-path="url(#clip480)" d="M1147.11 1520.52 L1187.31 1520.52 L1187.31 1525.93 L1170.45 1525.93 L1170.45 1568.04 L1163.98 1568.04 L1163.98 1525.93 L1147.11 1525.93 L1147.11 1520.52 Z" fill="#000000" fill-rule="evenodd" fill-opacity="1" /><path clip-path="url(#clip480)" d="M1191.26 1532.4 L1197.12 1532.4 L1197.12 1568.04 L1191.26 1568.04 L1191.26 1532.4 M1191.26 1518.52 L1197.12 1518.52 L1197.12 1525.93 L1191.26 1525.93 L1191.26 1518.52 Z" fill="#000000" fill-rule="evenodd" fill-opacity="1" /><path clip-path="url(#clip480)" d="M1237.13 1539.24 Q1239.32 1535.29 1242.38 1533.41 Q1245.43 1531.54 1249.57 1531.54 Q1255.14 1531.54 1258.16 1535.45 Q1261.19 1539.33 1261.19 1546.53 L1261.19 1568.04 L1255.3 1568.04 L1255.3 1546.72 Q1255.3 1541.59 1253.49 1539.11 Q1251.67 1536.63 1247.95 1536.63 Q1243.4 1536.63 1240.75 1539.65 Q1238.11 1542.68 1238.11 1547.9 L1238.11 1568.04 L1232.22 1568.04 L1232.22 1546.72 Q1232.22 1541.56 1230.41 1539.11 Q1228.6 1536.63 1224.81 1536.63 Q1220.32 1536.63 1217.68 1539.68 Q1215.04 1542.71 1215.04 1547.9 L1215.04 1568.04 L1209.15 1568.04 L1209.15 1532.4 L1215.04 1532.4 L1215.04 1537.93 Q1217.04 1534.66 1219.84 1533.1 Q1222.64 1531.54 1226.5 1531.54 Q1230.38 1531.54 1233.08 1533.51 Q1235.82 1535.48 1237.13 1539.24 Z" fill="#000000" fill-rule="evenodd" fill-opacity="1" /><path clip-path="url(#clip480)" d="M1303.36 1548.76 L1303.36 1551.62 L1276.43 1551.62 Q1276.82 1557.67 1280.06 1560.85 Q1283.34 1564 1289.17 1564 Q1292.54 1564 1295.69 1563.17 Q1298.87 1562.35 1301.99 1560.69 L1301.99 1566.23 Q1298.84 1567.57 1295.53 1568.27 Q1292.22 1568.97 1288.82 1568.97 Q1280.29 1568.97 1275.29 1564 Q1270.32 1559.04 1270.32 1550.57 Q1270.32 1541.82 1275.03 1536.69 Q1279.78 1531.54 1287.8 1531.54 Q1294.99 1531.54 1299.16 1536.18 Q1303.36 1540.8 1303.36 1548.76 M1297.5 1547.04 Q1297.44 1542.23 1294.8 1539.37 Q1292.19 1536.5 1287.86 1536.5 Q1282.96 1536.5 1280 1539.27 Q1277.07 1542.04 1276.63 1547.07 L1297.5 1547.04 Z" fill="#000000" fill-rule="evenodd" fill-opacity="1" /><path clip-path="url(#clip480)" d="M1333.15 1518.52 L1346.65 1518.52 L1346.65 1523.07 L1339.01 1523.07 L1339.01 1572.09 L1346.65 1572.09 L1346.65 1576.64 L1333.15 1576.64 L1333.15 1518.52 Z" fill="#000000" fill-rule="evenodd" fill-opacity="1" /><path clip-path="url(#clip480)" d="M1388.76 1546.53 L1388.76 1568.04 L1382.9 1568.04 L1382.9 1546.72 Q1382.9 1541.66 1380.93 1539.14 Q1378.95 1536.63 1375.01 1536.63 Q1370.26 1536.63 1367.53 1539.65 Q1364.79 1542.68 1364.79 1547.9 L1364.79 1568.04 L1358.9 1568.04 L1358.9 1518.52 L1364.79 1518.52 L1364.79 1537.93 Q1366.89 1534.72 1369.72 1533.13 Q1372.59 1531.54 1376.31 1531.54 Q1382.45 1531.54 1385.61 1535.36 Q1388.76 1539.14 1388.76 1546.53 Z" fill="#000000" fill-rule="evenodd" fill-opacity="1" /><path clip-path="url(#clip480)" d="M1421.09 1537.87 Q1420.11 1537.3 1418.93 1537.04 Q1417.78 1536.76 1416.38 1536.76 Q1411.42 1536.76 1408.75 1540 Q1406.1 1543.22 1406.1 1549.27 L1406.1 1568.04 L1400.22 1568.04 L1400.22 1532.4 L1406.1 1532.4 L1406.1 1537.93 Q1407.95 1534.69 1410.91 1533.13 Q1413.87 1531.54 1418.1 1531.54 Q1418.71 1531.54 1419.44 1531.63 Q1420.17 1531.7 1421.06 1531.85 L1421.09 1537.87 Z" fill="#000000" fill-rule="evenodd" fill-opacity="1" /><path clip-path="url(#clip480)" d="M1440.92 1518.52 L1440.92 1576.64 L1427.43 1576.64 L1427.43 1572.09 L1435.04 1572.09 L1435.04 1523.07 L1427.43 1523.07 L1427.43 1518.52 L1440.92 1518.52 Z" fill="#000000" fill-rule="evenodd" fill-opacity="1" /><polyline clip-path="url(#clip482)" style="stroke:#000000; stroke-linecap:butt; stroke-linejoin:round; stroke-width:2; stroke-opacity:0.1; fill:none" points="
  235.283,1383.26 2352.76,1383.26 
  "/>
<polyline clip-path="url(#clip482)" style="stroke:#000000; stroke-linecap:butt; stroke-linejoin:round; stroke-width:2; stroke-opacity:0.1; fill:none" points="
  235.283,1054.29 2352.76,1054.29 
  "/>
<polyline clip-path="url(#clip482)" style="stroke:#000000; stroke-linecap:butt; stroke-linejoin:round; stroke-width:2; stroke-opacity:0.1; fill:none" points="
  235.283,725.334 2352.76,725.334 
  "/>
<polyline clip-path="url(#clip482)" style="stroke:#000000; stroke-linecap:butt; stroke-linejoin:round; stroke-width:2; stroke-opacity:0.1; fill:none" points="
  235.283,396.373 2352.76,396.373 
  "/>
<polyline clip-path="url(#clip482)" style="stroke:#000000; stroke-linecap:butt; stroke-linejoin:round; stroke-width:2; stroke-opacity:0.1; fill:none" points="
  235.283,67.4119 2352.76,67.4119 
  "/>
<polyline clip-path="url(#clip480)" style="stroke:#000000; stroke-linecap:butt; stroke-linejoin:round; stroke-width:4; stroke-opacity:1; fill:none" points="
  235.283,1423.18 235.283,47.2441 
  "/>
<polyline clip-path="url(#clip480)" style="stroke:#000000; stroke-linecap:butt; stroke-linejoin:round; stroke-width:4; stroke-opacity:1; fill:none" points="
  235.283,1383.26 254.18,1383.26 
  "/>
<polyline clip-path="url(#clip480)" style="stroke:#000000; stroke-linecap:butt; stroke-linejoin:round; stroke-width:4; stroke-opacity:1; fill:none" points="
  235.283,1054.29 254.18,1054.29 
  "/>
<polyline clip-path="url(#clip480)" style="stroke:#000000; stroke-linecap:butt; stroke-linejoin:round; stroke-width:4; stroke-opacity:1; fill:none" points="
  235.283,725.334 254.18,725.334 
  "/>
<polyline clip-path="url(#clip480)" style="stroke:#000000; stroke-linecap:butt; stroke-linejoin:round; stroke-width:4; stroke-opacity:1; fill:none" points="
  235.283,396.373 254.18,396.373 
  "/>
<polyline clip-path="url(#clip480)" style="stroke:#000000; stroke-linecap:butt; stroke-linejoin:round; stroke-width:4; stroke-opacity:1; fill:none" points="
  235.283,67.4119 254.18,67.4119 
  "/>
<path clip-path="url(#clip480)" d="M187.338 1369.05 Q183.727 1369.05 181.899 1372.62 Q180.093 1376.16 180.093 1383.29 Q180.093 1390.4 181.899 1393.96 Q183.727 1397.5 187.338 1397.5 Q190.973 1397.5 192.778 1393.96 Q194.607 1390.4 194.607 1383.29 Q194.607 1376.16 192.778 1372.62 Q190.973 1369.05 187.338 1369.05 M187.338 1365.35 Q193.149 1365.35 196.204 1369.96 Q199.283 1374.54 199.283 1383.29 Q199.283 1392.02 196.204 1396.62 Q193.149 1401.21 187.338 1401.21 Q181.528 1401.21 178.45 1396.62 Q175.394 1392.02 175.394 1383.29 Q175.394 1374.54 178.45 1369.96 Q181.528 1365.35 187.338 1365.35 Z" fill="#000000" fill-rule="evenodd" fill-opacity="1" /><path clip-path="url(#clip480)" d="M121.043 1067.64 L137.362 1067.64 L137.362 1071.57 L115.418 1071.57 L115.418 1067.64 Q118.08 1064.89 122.663 1060.26 Q127.269 1055.6 128.45 1054.26 Q130.695 1051.74 131.575 1050 Q132.478 1048.24 132.478 1046.55 Q132.478 1043.8 130.533 1042.06 Q128.612 1040.33 125.51 1040.33 Q123.311 1040.33 120.857 1041.09 Q118.427 1041.85 115.649 1043.4 L115.649 1038.68 Q118.473 1037.55 120.927 1036.97 Q123.38 1036.39 125.418 1036.39 Q130.788 1036.39 133.982 1039.08 Q137.177 1041.76 137.177 1046.25 Q137.177 1048.38 136.367 1050.3 Q135.579 1052.2 133.473 1054.79 Q132.894 1055.46 129.792 1058.68 Q126.691 1061.88 121.043 1067.64 Z" fill="#000000" fill-rule="evenodd" fill-opacity="1" /><path clip-path="url(#clip480)" d="M157.177 1040.09 Q153.566 1040.09 151.737 1043.66 Q149.931 1047.2 149.931 1054.33 Q149.931 1061.44 151.737 1065 Q153.566 1068.54 157.177 1068.54 Q160.811 1068.54 162.616 1065 Q164.445 1061.44 164.445 1054.33 Q164.445 1047.2 162.616 1043.66 Q160.811 1040.09 157.177 1040.09 M157.177 1036.39 Q162.987 1036.39 166.042 1041 Q169.121 1045.58 169.121 1054.33 Q169.121 1063.06 166.042 1067.66 Q162.987 1072.25 157.177 1072.25 Q151.366 1072.25 148.288 1067.66 Q145.232 1063.06 145.232 1054.33 Q145.232 1045.58 148.288 1041 Q151.366 1036.39 157.177 1036.39 Z" fill="#000000" fill-rule="evenodd" fill-opacity="1" /><path clip-path="url(#clip480)" d="M187.338 1040.09 Q183.727 1040.09 181.899 1043.66 Q180.093 1047.2 180.093 1054.33 Q180.093 1061.44 181.899 1065 Q183.727 1068.54 187.338 1068.54 Q190.973 1068.54 192.778 1065 Q194.607 1061.44 194.607 1054.33 Q194.607 1047.2 192.778 1043.66 Q190.973 1040.09 187.338 1040.09 M187.338 1036.39 Q193.149 1036.39 196.204 1041 Q199.283 1045.58 199.283 1054.33 Q199.283 1063.06 196.204 1067.66 Q193.149 1072.25 187.338 1072.25 Q181.528 1072.25 178.45 1067.66 Q175.394 1063.06 175.394 1054.33 Q175.394 1045.58 178.45 1041 Q181.528 1036.39 187.338 1036.39 Z" fill="#000000" fill-rule="evenodd" fill-opacity="1" /><path clip-path="url(#clip480)" d="M129.862 712.128 L118.056 730.577 L129.862 730.577 L129.862 712.128 M128.635 708.054 L134.515 708.054 L134.515 730.577 L139.445 730.577 L139.445 734.466 L134.515 734.466 L134.515 742.614 L129.862 742.614 L129.862 734.466 L114.26 734.466 L114.26 729.952 L128.635 708.054 Z" fill="#000000" fill-rule="evenodd" fill-opacity="1" /><path clip-path="url(#clip480)" d="M157.177 711.133 Q153.566 711.133 151.737 714.697 Q149.931 718.239 149.931 725.369 Q149.931 732.475 151.737 736.04 Q153.566 739.582 157.177 739.582 Q160.811 739.582 162.616 736.04 Q164.445 732.475 164.445 725.369 Q164.445 718.239 162.616 714.697 Q160.811 711.133 157.177 711.133 M157.177 707.429 Q162.987 707.429 166.042 712.035 Q169.121 716.619 169.121 725.369 Q169.121 734.095 166.042 738.702 Q162.987 743.285 157.177 743.285 Q151.366 743.285 148.288 738.702 Q145.232 734.095 145.232 725.369 Q145.232 716.619 148.288 712.035 Q151.366 707.429 157.177 707.429 Z" fill="#000000" fill-rule="evenodd" fill-opacity="1" /><path clip-path="url(#clip480)" d="M187.338 711.133 Q183.727 711.133 181.899 714.697 Q180.093 718.239 180.093 725.369 Q180.093 732.475 181.899 736.04 Q183.727 739.582 187.338 739.582 Q190.973 739.582 192.778 736.04 Q194.607 732.475 194.607 725.369 Q194.607 718.239 192.778 714.697 Q190.973 711.133 187.338 711.133 M187.338 707.429 Q193.149 707.429 196.204 712.035 Q199.283 716.619 199.283 725.369 Q199.283 734.095 196.204 738.702 Q193.149 743.285 187.338 743.285 Q181.528 743.285 178.45 738.702 Q175.394 734.095 175.394 725.369 Q175.394 716.619 178.45 712.035 Q181.528 707.429 187.338 707.429 Z" fill="#000000" fill-rule="evenodd" fill-opacity="1" /><path clip-path="url(#clip480)" d="M127.593 394.509 Q124.445 394.509 122.593 396.662 Q120.765 398.815 120.765 402.565 Q120.765 406.292 122.593 408.468 Q124.445 410.62 127.593 410.62 Q130.742 410.62 132.57 408.468 Q134.422 406.292 134.422 402.565 Q134.422 398.815 132.57 396.662 Q130.742 394.509 127.593 394.509 M136.876 379.857 L136.876 384.116 Q135.117 383.283 133.311 382.843 Q131.529 382.403 129.769 382.403 Q125.14 382.403 122.686 385.528 Q120.255 388.653 119.908 394.972 Q121.274 392.959 123.334 391.894 Q125.394 390.806 127.871 390.806 Q133.08 390.806 136.089 393.977 Q139.121 397.125 139.121 402.565 Q139.121 407.889 135.973 411.107 Q132.825 414.324 127.593 414.324 Q121.598 414.324 118.427 409.741 Q115.256 405.134 115.256 396.408 Q115.256 388.213 119.144 383.352 Q123.033 378.468 129.584 378.468 Q131.343 378.468 133.126 378.815 Q134.931 379.162 136.876 379.857 Z" fill="#000000" fill-rule="evenodd" fill-opacity="1" /><path clip-path="url(#clip480)" d="M157.177 382.172 Q153.566 382.172 151.737 385.736 Q149.931 389.278 149.931 396.408 Q149.931 403.514 151.737 407.079 Q153.566 410.62 157.177 410.62 Q160.811 410.62 162.616 407.079 Q164.445 403.514 164.445 396.408 Q164.445 389.278 162.616 385.736 Q160.811 382.172 157.177 382.172 M157.177 378.468 Q162.987 378.468 166.042 383.074 Q169.121 387.658 169.121 396.408 Q169.121 405.134 166.042 409.741 Q162.987 414.324 157.177 414.324 Q151.366 414.324 148.288 409.741 Q145.232 405.134 145.232 396.408 Q145.232 387.658 148.288 383.074 Q151.366 378.468 157.177 378.468 Z" fill="#000000" fill-rule="evenodd" fill-opacity="1" /><path clip-path="url(#clip480)" d="M187.338 382.172 Q183.727 382.172 181.899 385.736 Q180.093 389.278 180.093 396.408 Q180.093 403.514 181.899 407.079 Q183.727 410.62 187.338 410.62 Q190.973 410.62 192.778 407.079 Q194.607 403.514 194.607 396.408 Q194.607 389.278 192.778 385.736 Q190.973 382.172 187.338 382.172 M187.338 378.468 Q193.149 378.468 196.204 383.074 Q199.283 387.658 199.283 396.408 Q199.283 405.134 196.204 409.741 Q193.149 414.324 187.338 414.324 Q181.528 414.324 178.45 409.741 Q175.394 405.134 175.394 396.408 Q175.394 387.658 178.45 383.074 Q181.528 378.468 187.338 378.468 Z" fill="#000000" fill-rule="evenodd" fill-opacity="1" /><path clip-path="url(#clip480)" d="M127.015 68.2799 Q123.681 68.2799 121.76 70.0623 Q119.862 71.8447 119.862 74.9697 Q119.862 78.0947 121.76 79.8771 Q123.681 81.6595 127.015 81.6595 Q130.348 81.6595 132.269 79.8771 Q134.191 78.0715 134.191 74.9697 Q134.191 71.8447 132.269 70.0623 Q130.371 68.2799 127.015 68.2799 M122.339 66.2892 Q119.33 65.5485 117.64 63.4883 Q115.973 61.4281 115.973 58.4652 Q115.973 54.3217 118.913 51.9143 Q121.876 49.5069 127.015 49.5069 Q132.177 49.5069 135.117 51.9143 Q138.056 54.3217 138.056 58.4652 Q138.056 61.4281 136.367 63.4883 Q134.7 65.5485 131.714 66.2892 Q135.093 67.0762 136.968 69.3679 Q138.867 71.6595 138.867 74.9697 Q138.867 79.9928 135.788 82.678 Q132.732 85.3632 127.015 85.3632 Q121.297 85.3632 118.218 82.678 Q115.163 79.9928 115.163 74.9697 Q115.163 71.6595 117.061 69.3679 Q118.959 67.0762 122.339 66.2892 M120.626 58.905 Q120.626 61.5901 122.293 63.0948 Q123.982 64.5994 127.015 64.5994 Q130.024 64.5994 131.714 63.0948 Q133.427 61.5901 133.427 58.905 Q133.427 56.2198 131.714 54.7152 Q130.024 53.2106 127.015 53.2106 Q123.982 53.2106 122.293 54.7152 Q120.626 56.2198 120.626 58.905 Z" fill="#000000" fill-rule="evenodd" fill-opacity="1" /><path clip-path="url(#clip480)" d="M157.177 53.2106 Q153.566 53.2106 151.737 56.7753 Q149.931 60.317 149.931 67.4466 Q149.931 74.553 151.737 78.1178 Q153.566 81.6595 157.177 81.6595 Q160.811 81.6595 162.616 78.1178 Q164.445 74.553 164.445 67.4466 Q164.445 60.317 162.616 56.7753 Q160.811 53.2106 157.177 53.2106 M157.177 49.5069 Q162.987 49.5069 166.042 54.1133 Q169.121 58.6966 169.121 67.4466 Q169.121 76.1734 166.042 80.7799 Q162.987 85.3632 157.177 85.3632 Q151.366 85.3632 148.288 80.7799 Q145.232 76.1734 145.232 67.4466 Q145.232 58.6966 148.288 54.1133 Q151.366 49.5069 157.177 49.5069 Z" fill="#000000" fill-rule="evenodd" fill-opacity="1" /><path clip-path="url(#clip480)" d="M187.338 53.2106 Q183.727 53.2106 181.899 56.7753 Q180.093 60.317 180.093 67.4466 Q180.093 74.553 181.899 78.1178 Q183.727 81.6595 187.338 81.6595 Q190.973 81.6595 192.778 78.1178 Q194.607 74.553 194.607 67.4466 Q194.607 60.317 192.778 56.7753 Q190.973 53.2106 187.338 53.2106 M187.338 49.5069 Q193.149 49.5069 196.204 54.1133 Q199.283 58.6966 199.283 67.4466 Q199.283 76.1734 196.204 80.7799 Q193.149 85.3632 187.338 85.3632 Q181.528 85.3632 178.45 80.7799 Q175.394 76.1734 175.394 67.4466 Q175.394 58.6966 178.45 54.1133 Q181.528 49.5069 187.338 49.5069 Z" fill="#000000" fill-rule="evenodd" fill-opacity="1" /><path clip-path="url(#clip480)" d="M16.4842 925.228 L16.4842 918.799 L35.9632 918.799 L35.9632 895.437 L16.4842 895.437 L16.4842 889.007 L64.0042 889.007 L64.0042 895.437 L41.3741 895.437 L41.3741 918.799 L64.0042 918.799 L64.0042 925.228 L16.4842 925.228 Z" fill="#000000" fill-rule="evenodd" fill-opacity="1" /><path clip-path="url(#clip480)" d="M44.7161 845.975 L47.5806 845.975 L47.5806 872.902 Q53.6281 872.52 56.8109 869.274 Q59.9619 865.995 59.9619 860.171 Q59.9619 856.797 59.1344 853.646 Q58.3069 850.463 56.6518 847.344 L62.1899 847.344 Q63.5267 850.495 64.227 853.805 Q64.9272 857.115 64.9272 860.521 Q64.9272 869.051 59.9619 874.048 Q54.9967 879.013 46.5303 879.013 Q37.7774 879.013 32.6531 874.303 Q27.4968 869.56 27.4968 861.539 Q27.4968 854.346 32.1438 850.177 Q36.7589 845.975 44.7161 845.975 M42.9973 851.832 Q38.1912 851.895 35.3266 854.537 Q32.4621 857.147 32.4621 861.476 Q32.4621 866.377 35.2312 869.337 Q38.0002 872.266 43.0292 872.711 L42.9973 851.832 Z" fill="#000000" fill-rule="evenodd" fill-opacity="1" /><path clip-path="url(#clip480)" d="M28.3562 836.363 L28.3562 830.507 L64.0042 830.507 L64.0042 836.363 L28.3562 836.363 M14.479 836.363 L14.479 830.507 L21.895 830.507 L21.895 836.363 L14.479 836.363 Z" fill="#000000" fill-rule="evenodd" fill-opacity="1" /><path clip-path="url(#clip480)" d="M45.7664 794.795 Q39.4007 794.795 35.8996 797.437 Q32.3984 800.047 32.3984 804.789 Q32.3984 809.5 35.8996 812.142 Q39.4007 814.751 45.7664 814.751 Q52.1003 814.751 55.6014 812.142 Q59.1026 809.5 59.1026 804.789 Q59.1026 800.047 55.6014 797.437 Q52.1003 794.795 45.7664 794.795 M59.58 788.939 Q68.683 788.939 73.1071 792.981 Q77.5631 797.023 77.5631 805.362 Q77.5631 808.449 77.0857 811.187 Q76.6401 813.924 75.6852 816.502 L69.9879 816.502 Q71.3884 813.924 72.0568 811.409 Q72.7252 808.895 72.7252 806.285 Q72.7252 800.524 69.7015 797.66 Q66.7096 794.795 60.6303 794.795 L57.7339 794.795 Q60.885 796.609 62.4446 799.442 Q64.0042 802.275 64.0042 806.221 Q64.0042 812.778 59.0071 816.788 Q54.01 820.799 45.7664 820.799 Q37.491 820.799 32.4939 816.788 Q27.4968 812.778 27.4968 806.221 Q27.4968 802.275 29.0564 799.442 Q30.616 796.609 33.7671 794.795 L28.3562 794.795 L28.3562 788.939 L59.58 788.939 Z" fill="#000000" fill-rule="evenodd" fill-opacity="1" /><path clip-path="url(#clip480)" d="M42.4881 747.243 L64.0042 747.243 L64.0042 753.1 L42.679 753.1 Q37.6183 753.1 35.1038 755.073 Q32.5894 757.046 32.5894 760.993 Q32.5894 765.736 35.6131 768.473 Q38.6368 771.21 43.8567 771.21 L64.0042 771.21 L64.0042 777.098 L14.479 777.098 L14.479 771.21 L33.8944 771.21 Q30.6797 769.109 29.0883 766.277 Q27.4968 763.412 27.4968 759.688 Q27.4968 753.545 31.3163 750.394 Q35.1038 747.243 42.4881 747.243 Z" fill="#000000" fill-rule="evenodd" fill-opacity="1" /><path clip-path="url(#clip480)" d="M18.2347 729.769 L28.3562 729.769 L28.3562 717.706 L32.9077 717.706 L32.9077 729.769 L52.2594 729.769 Q56.6199 729.769 57.8613 728.592 Q59.1026 727.382 59.1026 723.722 L59.1026 717.706 L64.0042 717.706 L64.0042 723.722 Q64.0042 730.501 61.4897 733.079 Q58.9434 735.658 52.2594 735.658 L32.9077 735.658 L32.9077 739.954 L28.3562 739.954 L28.3562 735.658 L18.2347 735.658 L18.2347 729.769 Z" fill="#000000" fill-rule="evenodd" fill-opacity="1" /><path clip-path="url(#clip480)" d="M14.479 689.824 L14.479 676.329 L19.0304 676.329 L19.0304 683.968 L68.0464 683.968 L68.0464 676.329 L72.5979 676.329 L72.5979 689.824 L14.479 689.824 Z" fill="#000000" fill-rule="evenodd" fill-opacity="1" /><path clip-path="url(#clip480)" d="M77.5631 664.457 L28.3562 664.457 L28.3562 658.601 L50.5089 658.601 Q55.124 658.601 57.4793 656.405 Q59.8346 654.208 59.8346 649.911 Q59.8346 645.201 57.161 642.846 Q54.4874 640.458 49.1402 640.458 L28.3562 640.458 L28.3562 634.602 L55.7924 634.602 Q57.7021 634.602 58.6251 634.061 Q59.5163 633.488 59.5163 632.31 Q59.5163 632.024 59.3572 631.515 Q59.1662 631.005 58.7843 630.114 L63.4949 630.114 Q64.227 631.419 64.5771 632.597 Q64.9272 633.743 64.9272 634.857 Q64.9272 637.053 63.6859 638.358 Q62.4446 639.663 59.8983 640.14 Q62.4127 641.732 63.6859 644.055 Q64.9272 646.347 64.9272 649.466 Q64.9272 652.712 63.6859 655.004 Q62.4446 657.264 59.9619 658.601 L77.5631 658.601 L77.5631 664.457 Z" fill="#000000" fill-rule="evenodd" fill-opacity="1" /><path clip-path="url(#clip480)" d="M35.1993 594.625 Q31.2526 592.429 29.3747 589.374 Q27.4968 586.318 27.4968 582.18 Q27.4968 576.61 31.4117 573.587 Q35.2948 570.563 42.4881 570.563 L64.0042 570.563 L64.0042 576.451 L42.679 576.451 Q37.5546 576.451 35.072 578.265 Q32.5894 580.08 32.5894 583.804 Q32.5894 588.355 35.6131 590.997 Q38.6368 593.639 43.8567 593.639 L64.0042 593.639 L64.0042 599.527 L42.679 599.527 Q37.5228 599.527 35.072 601.341 Q32.5894 603.155 32.5894 606.943 Q32.5894 611.431 35.6449 614.073 Q38.6686 616.714 43.8567 616.714 L64.0042 616.714 L64.0042 622.603 L28.3562 622.603 L28.3562 616.714 L33.8944 616.714 Q30.616 614.709 29.0564 611.908 Q27.4968 609.107 27.4968 605.256 Q27.4968 601.373 29.4702 598.668 Q31.4436 595.93 35.1993 594.625 Z" fill="#000000" fill-rule="evenodd" fill-opacity="1" /><path clip-path="url(#clip480)" d="M14.479 545.196 L72.5979 545.196 L72.5979 558.691 L68.0464 558.691 L68.0464 551.084 L19.0304 551.084 L19.0304 558.691 L14.479 558.691 L14.479 545.196 Z" fill="#000000" fill-rule="evenodd" fill-opacity="1" /><path clip-path="url(#clip482)" d="
M295.211 1382.94 L297.349 1382.86 L299.486 1383.01 L301.564 1382.91 L303.701 1382.76 L305.838 1383.54 L307.975 1383.59 L310.112 1383.27 L312.19 1382.85 L314.327 1382.45 
  L316.939 1381.63 L319.611 1381.67 L322.223 1381.39 L324.835 1380.75 L327.447 1381.37 L330.059 1379.18 L332.671 1379.53 L335.343 1379.2 L338.43 1377.94 L341.873 1376.9 
  L345.257 1375.94 L348.641 1375.55 L352.025 1374.87 L355.409 1374.03 L358.793 1373.62 L362.177 1372.66 L365.56 1372.36 L368.944 1371.11 L372.328 1369.79 L375.712 1368.41 
  L379.274 1367.09 L382.658 1366.04 L386.042 1364.65 L389.426 1362.89 L392.869 1360.98 L396.253 1359.13 L399.637 1356.34 L403.021 1353.13 L406.404 1350.43 L409.788 1347.14 
  L413.232 1343.48 L416.615 1340.51 L419.999 1335.48 L423.383 1330.66 L426.767 1326.04 L430.21 1320.88 L433.594 1318.07 L436.978 1313.96 L440.362 1309.66 L443.746 1307.19 
  L447.13 1302.41 L450.514 1298.77 L453.957 1292.11 L457.341 1287.41 L460.725 1284.94 L464.168 1282.6 L467.552 1279.52 L470.936 1276.55 L474.319 1273.68 L477.703 1268.36 
  L481.503 1265.53 L485.421 1259.86 L489.339 1255.35 L493.257 1254.81 L497.235 1251.57 L501.153 1246.71 L505.071 1241.92 L508.989 1246.82 L512.907 1240.58 L516.826 1239.38 
  L520.744 1239.21 L524.721 1236.18 L528.64 1226.42 L532.558 1221.02 L536.476 1217.71 L540.394 1217.85 L544.312 1213.38 L547.934 1213.23 L552.089 1209.93 L556.067 1205.38 
  L559.985 1206.11 L563.903 1205.11 L567.999 1204.31 L572.155 1200.24 L576.311 1199.79 L576.311 1182.24 L572.155 1185.68 L567.999 1186.83 L563.903 1191.62 L559.985 1196.18 
  L556.067 1200.28 L552.089 1204.21 L547.934 1204.36 L544.312 1205.73 L540.394 1208.59 L536.476 1210.29 L532.558 1215.17 L528.64 1217.67 L524.721 1218.62 L520.744 1222.49 
  L516.826 1226.59 L512.907 1228.1 L508.989 1230.57 L505.071 1232.34 L501.153 1236.89 L497.235 1239.67 L493.257 1243.21 L489.339 1243.4 L485.421 1246.63 L481.503 1249.12 
  L477.703 1252.78 L474.319 1255.46 L470.936 1259.67 L467.552 1263.28 L464.168 1264.22 L460.725 1268.56 L457.341 1272.37 L453.957 1273.6 L450.514 1273.07 L447.13 1280.25 
  L443.746 1283.97 L440.362 1287.96 L436.978 1291.56 L433.594 1295.72 L430.21 1299.07 L426.767 1303.58 L423.383 1307.08 L419.999 1311.49 L416.615 1315.42 L413.232 1319.7 
  L409.788 1324.62 L406.404 1328.67 L403.021 1333.77 L399.637 1337.05 L396.253 1341.02 L392.869 1344.27 L389.426 1348.13 L386.042 1351.27 L382.658 1354.88 L379.274 1358.51 
  L375.712 1360.37 L372.328 1363.46 L368.944 1364.83 L365.56 1366.97 L362.177 1368.72 L358.793 1370.6 L355.409 1372.19 L352.025 1372.74 L348.641 1373.49 L345.257 1375.49 
  L341.873 1376.59 L338.43 1377.36 L335.343 1376.77 L332.671 1377.58 L330.059 1378.8 L327.447 1379.09 L324.835 1379.88 L322.223 1380.43 L319.611 1380.67 L316.939 1380.92 
  L314.327 1381.17 L312.19 1382 L310.112 1381.9 L307.975 1381.82 L305.838 1381.74 L303.701 1382.36 L301.564 1382.48 L299.486 1382.49 L297.349 1382.54 L295.211 1382.66 
   Z
  " fill="#009af9" fill-rule="evenodd" fill-opacity="0.6"/>
<polyline clip-path="url(#clip482)" style="stroke:#009af9; stroke-linecap:butt; stroke-linejoin:round; stroke-width:8; stroke-opacity:1; fill:none" points="
  295.211,1382.8 297.349,1382.7 299.486,1382.75 301.564,1382.69 303.701,1382.56 305.838,1382.64 307.975,1382.7 310.112,1382.58 312.19,1382.42 314.327,1381.81 
  316.939,1381.28 319.611,1381.17 322.223,1380.91 324.835,1380.32 327.447,1380.23 330.059,1378.99 332.671,1378.56 335.343,1377.98 338.43,1377.65 341.873,1376.74 
  345.257,1375.72 348.641,1374.52 352.025,1373.81 355.409,1373.11 358.793,1372.11 362.177,1370.69 365.56,1369.66 368.944,1367.97 372.328,1366.62 375.712,1364.39 
  379.274,1362.8 382.658,1360.46 386.042,1357.96 389.426,1355.51 392.869,1352.62 396.253,1350.08 399.637,1346.69 403.021,1343.45 406.404,1339.55 409.788,1335.88 
  413.232,1331.59 416.615,1327.97 419.999,1323.49 423.383,1318.87 426.767,1314.81 430.21,1309.98 433.594,1306.9 436.978,1302.76 440.362,1298.81 443.746,1295.58 
  447.13,1291.33 450.514,1285.92 453.957,1282.85 457.341,1279.89 460.725,1276.75 464.168,1273.41 467.552,1271.4 470.936,1268.11 474.319,1264.57 477.703,1260.57 
  481.503,1257.32 485.421,1253.24 489.339,1249.38 493.257,1249.01 497.235,1245.62 501.153,1241.8 505.071,1237.13 508.989,1238.7 512.907,1234.34 516.826,1232.98 
  520.744,1230.85 524.721,1227.4 528.64,1222.04 532.558,1218.09 536.476,1214 540.394,1213.22 544.312,1209.55 547.934,1208.8 552.089,1207.07 556.067,1202.83 
  559.985,1201.14 563.903,1198.37 567.999,1195.57 572.155,1192.96 576.311,1191.01 
  "/>
<path clip-path="url(#clip482)" d="
M296.458 1384.07 L298.417 1382.98 L300.317 1382.81 L302.276 1383.43 L304.176 1382.9 L306.075 1382.85 L308.034 1384.24 L309.934 1383.99 L311.893 1383.63 L313.793 1382.43 
  L315.693 1381.06 L317.652 1378.79 L319.552 1378.81 L321.511 1377.13 L323.41 1374.13 L325.31 1372.18 L327.982 1369.26 L329.881 1364.09 L331.781 1357.91 L333.681 1354.48 
  L335.58 1347.21 L337.48 1340.59 L339.38 1332.26 L341.28 1325.38 L343.179 1319.22 L345.138 1314.05 L347.038 1308.36 L348.938 1303.28 L350.838 1300.03 L353.034 1293.88 
  L355.884 1285.28 L358.793 1279.53 L361.702 1271.86 L364.551 1266.12 L367.46 1259.15 L370.369 1254.61 L373.278 1247.14 L376.128 1242.19 L379.037 1236.43 L381.945 1231.88 
  L384.854 1226.93 L387.704 1221.61 L390.613 1216.26 L393.522 1212.63 L396.371 1205.72 L399.28 1203.9 L402.189 1198.48 L405.039 1193.27 L407.948 1191.02 L410.857 1187.49 
  L413.706 1182.84 L416.615 1177.51 L419.524 1174.86 L422.433 1172.31 L425.283 1167.8 L428.192 1163.62 L431.101 1160.11 L433.95 1155.54 L436.8 1153.84 L439.709 1150.97 
  L442.618 1147.15 L445.527 1143.62 L448.376 1140.67 L451.285 1137.37 L454.194 1134.76 L457.103 1132.11 L459.953 1129.69 L462.862 1128.24 L465.771 1125.09 L468.68 1123.61 
  L471.589 1120.22 L474.498 1117.73 L477.406 1116.19 L480.256 1113.29 L483.165 1111.02 L486.074 1108.9 L488.983 1104.9 L491.892 1101.51 L495.573 1100.98 L499.372 1099.83 
  L503.409 1097.45 L507.446 1096.7 L511.483 1094.22 L515.46 1092.71 L519.497 1088.92 L523.534 1087.44 L527.571 1084.72 L531.608 1080.21 L535.645 1079.23 L539.682 1077.05 
  L543.719 1074.64 L547.756 1071.65 L551.792 1066.28 L555.77 1064.02 L559.807 1062.05 L563.844 1059.69 L567.881 1057.98 L571.918 1057.55 L575.954 1055.51 L575.954 1038.41 
  L571.918 1040.18 L567.881 1046.61 L563.844 1053 L559.807 1053.47 L555.77 1054.9 L551.792 1056 L547.756 1056.97 L543.719 1057.39 L539.682 1062.27 L535.645 1065.92 
  L531.608 1071.67 L527.571 1071.68 L523.534 1074.87 L519.497 1078.44 L515.46 1081.17 L511.483 1083.55 L507.446 1089 L503.409 1091.15 L499.372 1093.21 L495.573 1095.37 
  L491.892 1094.29 L488.983 1095.52 L486.074 1098.01 L483.165 1099.08 L480.256 1103.34 L477.406 1103.82 L474.498 1105.52 L471.589 1111.05 L468.68 1112.29 L465.771 1117.42 
  L462.862 1117.92 L459.953 1121.32 L457.103 1125.36 L454.194 1129.17 L451.285 1132.18 L448.376 1135.36 L445.527 1137.71 L442.618 1142.48 L439.709 1145.73 L436.8 1148.79 
  L433.95 1150.78 L431.101 1155.74 L428.192 1158.78 L425.283 1163.35 L422.433 1165.95 L419.524 1167.69 L416.615 1173.72 L413.706 1179.41 L410.857 1182.66 L407.948 1186.36 
  L405.039 1190.67 L402.189 1194.96 L399.28 1199.16 L396.371 1205.18 L393.522 1208.27 L390.613 1213.45 L387.704 1219.8 L384.854 1224.51 L381.945 1229.17 L379.037 1234.48 
  L376.128 1240.89 L373.278 1245.25 L370.369 1251.69 L367.46 1257.18 L364.551 1263.27 L361.702 1270.67 L358.793 1277.09 L355.884 1283.13 L353.034 1291.49 L350.838 1297.09 
  L348.938 1301.47 L347.038 1305.71 L345.138 1309.63 L343.179 1316.37 L341.28 1322.81 L339.38 1329.34 L337.48 1336.09 L335.58 1341.62 L333.681 1349.59 L331.781 1355.63 
  L329.881 1360.8 L327.982 1364.35 L325.31 1368.51 L323.41 1371.07 L321.511 1374.44 L319.552 1376.61 L317.652 1376.15 L315.693 1379.41 L313.793 1379.89 L311.893 1379.84 
  L309.934 1382.04 L308.034 1381.83 L306.075 1381.86 L304.176 1382.26 L302.276 1381.92 L300.317 1381.64 L298.417 1382.59 L296.458 1382.63  Z
  " fill="#e26f46" fill-rule="evenodd" fill-opacity="0.6"/>
<polyline clip-path="url(#clip482)" style="stroke:#e26f46; stroke-linecap:butt; stroke-linejoin:round; stroke-width:8; stroke-opacity:1; fill:none" points="
  296.458,1383.35 298.417,1382.78 300.317,1382.22 302.276,1382.67 304.176,1382.58 306.075,1382.35 308.034,1383.04 309.934,1383.02 311.893,1381.73 313.793,1381.16 
  315.693,1380.23 317.652,1377.47 319.552,1377.71 321.511,1375.78 323.41,1372.6 325.31,1370.35 327.982,1366.81 329.881,1362.45 331.781,1356.77 333.681,1352.04 
  335.58,1344.41 337.48,1338.34 339.38,1330.8 341.28,1324.1 343.179,1317.8 345.138,1311.84 347.038,1307.04 348.938,1302.37 350.838,1298.56 353.034,1292.68 
  355.884,1284.2 358.793,1278.31 361.702,1271.26 364.551,1264.7 367.46,1258.17 370.369,1253.15 373.278,1246.2 376.128,1241.54 379.037,1235.46 381.945,1230.53 
  384.854,1225.72 387.704,1220.71 390.613,1214.86 393.522,1210.45 396.371,1205.45 399.28,1201.53 402.189,1196.72 405.039,1191.97 407.948,1188.69 410.857,1185.07 
  413.706,1181.13 416.615,1175.62 419.524,1171.27 422.433,1169.13 425.283,1165.58 428.192,1161.2 431.101,1157.93 433.95,1153.16 436.8,1151.31 439.709,1148.35 
  442.618,1144.82 445.527,1140.67 448.376,1138.01 451.285,1134.78 454.194,1131.97 457.103,1128.73 459.953,1125.51 462.862,1123.08 465.771,1121.26 468.68,1117.95 
  471.589,1115.64 474.498,1111.63 477.406,1110.01 480.256,1108.32 483.165,1105.05 486.074,1103.46 488.983,1100.21 491.892,1097.9 495.573,1098.17 499.372,1096.52 
  503.409,1094.3 507.446,1092.85 511.483,1088.88 515.46,1086.94 519.497,1083.68 523.534,1081.15 527.571,1078.2 531.608,1075.94 535.645,1072.58 539.682,1069.66 
  543.719,1066.02 547.756,1064.31 551.792,1061.14 555.77,1059.46 559.807,1057.76 563.844,1056.35 567.881,1052.29 571.918,1048.86 575.954,1046.96 
  "/>
<path clip-path="url(#clip482)" d="
M295.983 1383.15 L297.942 1382.25 L299.961 1381.44 L301.92 1382.22 L303.879 1383.45 L305.897 1381.97 L307.856 1381.57 L309.815 1381.19 L311.834 1382.2 L313.793 1383.98 
  L315.752 1382.18 L317.771 1382.28 L319.848 1382.18 L322.342 1382.1 L324.776 1380.22 L327.269 1377.56 L329.763 1378.62 L332.197 1378.23 L334.69 1381.97 L337.183 1378.15 
  L339.617 1378.4 L342.111 1381.66 L344.604 1376.43 L347.038 1376.74 L349.531 1380.68 L352.025 1376.47 L354.518 1378.68 L356.952 1380.66 L359.446 1375.66 L361.939 1371.67 
  L364.373 1370.08 L366.866 1368.6 L369.36 1365.32 L371.794 1365.07 L374.287 1361.45 L376.781 1360.81 L379.215 1358.63 L381.708 1360.5 L384.201 1360.47 L386.695 1358.35 
  L389.129 1354.48 L391.622 1349.42 L394.116 1349.66 L396.609 1340.45 L399.043 1335.3 L401.536 1328.9 L404.03 1325.9 L406.642 1319.05 L409.313 1313.59 L411.985 1305.08 
  L414.597 1300.52 L417.268 1286.76 L419.94 1279.6 L422.611 1271.57 L425.283 1267.45 L427.954 1260.38 L430.626 1256.6 L433.297 1246.5 L436.206 1240.83 L439.234 1234.16 
  L442.262 1227.43 L445.349 1221.69 L448.376 1218.07 L451.404 1208.58 L454.432 1205.72 L457.459 1199.61 L460.546 1187.46 L463.574 1172.17 L467.136 1166.38 L470.342 1156.51 
  L473.548 1156.96 L476.753 1149.17 L479.9 1142.01 L483.106 1136.7 L486.311 1137.22 L489.517 1136.73 L492.723 1128.65 L495.929 1117.32 L499.135 1113.93 L502.4 1099.31 
  L505.605 1093.67 L508.811 1085.72 L512.017 1078.89 L515.223 1077.8 L518.429 1069.66 L521.634 1076.31 L524.84 1050.68 L528.046 1039.81 L531.252 1043.64 L534.457 1042.17 
  L537.663 1028.5 L540.869 1024.38 L544.075 1021.48 L547.281 1018.28 L550.486 1027.53 L553.751 1015.87 L556.957 1009.13 L560.222 1004.88 L563.428 1007.93 L566.634 1008.75 
  L569.899 1002.22 L573.164 1000.59 L573.164 952.041 L569.899 960.31 L566.634 957.819 L563.428 957.762 L560.222 958.663 L556.957 966.149 L553.751 980.187 L550.486 987.52 
  L547.281 986.162 L544.075 993.462 L540.869 998.081 L537.663 1011.54 L534.457 1022.89 L531.252 1027.3 L528.046 1034.31 L524.84 1036.86 L521.634 1046.49 L518.429 1045.42 
  L515.223 1048.48 L512.017 1058.72 L508.811 1065.51 L505.605 1081.96 L502.4 1092.9 L499.135 1093.01 L495.929 1102.86 L492.723 1098.26 L489.517 1104.93 L486.311 1112.89 
  L483.106 1122.17 L479.9 1125.52 L476.753 1131.61 L473.548 1140.02 L470.342 1140.37 L467.136 1157.29 L463.574 1157.31 L460.546 1172.89 L457.459 1178.39 L454.432 1184.62 
  L451.404 1183.72 L448.376 1191.41 L445.349 1197.91 L442.262 1207.86 L439.234 1215.77 L436.206 1232.36 L433.297 1239.98 L430.626 1243.8 L427.954 1251.67 L425.283 1258.85 
  L422.611 1262.26 L419.94 1272.02 L417.268 1279.4 L414.597 1285.9 L411.985 1299.58 L409.313 1308.95 L406.642 1315.29 L404.03 1317.41 L401.536 1324.56 L399.043 1331.47 
  L396.609 1333.68 L394.116 1337.48 L391.622 1339.18 L389.129 1346.04 L386.695 1346.38 L384.201 1352.16 L381.708 1353.88 L379.215 1356.87 L376.781 1356.74 L374.287 1357.88 
  L371.794 1361.01 L369.36 1358.86 L366.866 1367.24 L364.373 1362.23 L361.939 1365.77 L359.446 1366.26 L356.952 1367.77 L354.518 1367.34 L352.025 1368.45 L349.531 1370.2 
  L347.038 1371.36 L344.604 1373.2 L342.111 1371.19 L339.617 1375.15 L337.183 1375.8 L334.69 1372.48 L332.197 1372.75 L329.763 1375.4 L327.269 1374.95 L324.776 1375.7 
  L322.342 1376.38 L319.848 1376.08 L317.771 1375.71 L315.752 1375.72 L313.793 1377.09 L311.834 1380.48 L309.815 1377.26 L307.856 1380.49 L305.897 1379.93 L303.879 1380.48 
  L301.92 1381.3 L299.961 1379.77 L297.942 1378.3 L295.983 1379.93  Z
  " fill="#3da44d" fill-rule="evenodd" fill-opacity="0.6"/>
<polyline clip-path="url(#clip482)" style="stroke:#3da44d; stroke-linecap:butt; stroke-linejoin:round; stroke-width:8; stroke-opacity:1; fill:none" points="
  295.983,1381.54 297.942,1380.27 299.961,1380.61 301.92,1381.76 303.879,1381.96 305.897,1380.95 307.856,1381.03 309.815,1379.22 311.834,1381.34 313.793,1380.53 
  315.752,1378.95 317.771,1379 319.848,1379.13 322.342,1379.24 324.776,1377.96 327.269,1376.25 329.763,1377.01 332.197,1375.49 334.69,1377.22 337.183,1376.97 
  339.617,1376.78 342.111,1376.42 344.604,1374.82 347.038,1374.05 349.531,1375.44 352.025,1372.46 354.518,1373.01 356.952,1374.21 359.446,1370.96 361.939,1368.72 
  364.373,1366.16 366.866,1367.92 369.36,1362.09 371.794,1363.04 374.287,1359.67 376.781,1358.78 379.215,1357.75 381.708,1357.19 384.201,1356.31 386.695,1352.36 
  389.129,1350.26 391.622,1344.3 394.116,1343.57 396.609,1337.06 399.043,1333.38 401.536,1326.73 404.03,1321.65 406.642,1317.17 409.313,1311.27 411.985,1302.33 
  414.597,1293.21 417.268,1283.08 419.94,1275.81 422.611,1266.91 425.283,1263.15 427.954,1256.02 430.626,1250.2 433.297,1243.24 436.206,1236.6 439.234,1224.96 
  442.262,1217.65 445.349,1209.8 448.376,1204.74 451.404,1196.15 454.432,1195.17 457.459,1189 460.546,1180.17 463.574,1164.74 467.136,1161.84 470.342,1148.44 
  473.548,1148.49 476.753,1140.39 479.9,1133.76 483.106,1129.43 486.311,1125.06 489.517,1120.83 492.723,1113.46 495.929,1110.09 499.135,1103.47 502.4,1096.1 
  505.605,1087.82 508.811,1075.61 512.017,1068.81 515.223,1063.14 518.429,1057.54 521.634,1061.4 524.84,1043.77 528.046,1037.06 531.252,1035.47 534.457,1032.53 
  537.663,1020.02 540.869,1011.23 544.075,1007.47 547.281,1002.22 550.486,1007.52 553.751,998.027 556.957,987.639 560.222,981.771 563.428,982.847 566.634,983.284 
  569.899,981.265 573.164,976.316 
  "/>
<polyline clip-path="url(#clip482)" style="stroke:#000000; stroke-linecap:butt; stroke-linejoin:round; stroke-width:4; stroke-opacity:1; fill:none" points="
  816.15,1018.41 816.15,1004.42 
  "/>
<polyline clip-path="url(#clip482)" style="stroke:#000000; stroke-linecap:butt; stroke-linejoin:round; stroke-width:4; stroke-opacity:1; fill:none" points="
  1261.52,778.586 1261.52,738.137 
  "/>
<polyline clip-path="url(#clip482)" style="stroke:#000000; stroke-linecap:butt; stroke-linejoin:round; stroke-width:4; stroke-opacity:1; fill:none" points="
  817.338,1033.75 817.338,1018.63 
  "/>
<polyline clip-path="url(#clip482)" style="stroke:#000000; stroke-linecap:butt; stroke-linejoin:round; stroke-width:4; stroke-opacity:1; fill:none" points="
  1263.95,962.008 1263.95,949.623 
  "/>
<polyline clip-path="url(#clip482)" style="stroke:#000000; stroke-linecap:butt; stroke-linejoin:round; stroke-width:4; stroke-opacity:1; fill:none" points="
  818.644,1034.2 818.644,1015.05 
  "/>
<polyline clip-path="url(#clip482)" style="stroke:#000000; stroke-linecap:butt; stroke-linejoin:round; stroke-width:4; stroke-opacity:1; fill:none" points="
  1264.43,942.632 1264.43,921.839 
  "/>
<polyline clip-path="url(#clip482)" style="stroke:#000000; stroke-linecap:butt; stroke-linejoin:round; stroke-width:4; stroke-opacity:1; fill:none" points="
  1265.02,1132.54 1265.02,930.523 
  "/>
<polyline clip-path="url(#clip482)" style="stroke:#000000; stroke-linecap:butt; stroke-linejoin:round; stroke-width:4; stroke-opacity:1; fill:none" points="
  1557.81,956.906 1557.81,936.435 
  "/>
<polyline clip-path="url(#clip482)" style="stroke:#000000; stroke-linecap:butt; stroke-linejoin:round; stroke-width:4; stroke-opacity:1; fill:none" points="
  1265.43,959.692 1265.43,954.386 
  "/>
<polyline clip-path="url(#clip482)" style="stroke:#000000; stroke-linecap:butt; stroke-linejoin:round; stroke-width:4; stroke-opacity:1; fill:none" points="
  1558.35,984.947 1558.35,946.438 
  "/>
<polyline clip-path="url(#clip482)" style="stroke:#000000; stroke-linecap:butt; stroke-linejoin:round; stroke-width:4; stroke-opacity:1; fill:none" points="
  1265.85,988.397 1265.85,955.616 
  "/>
<polyline clip-path="url(#clip482)" style="stroke:#000000; stroke-linecap:butt; stroke-linejoin:round; stroke-width:4; stroke-opacity:1; fill:none" points="
  1558.88,994.51 1558.88,956.051 
  "/>
<polyline clip-path="url(#clip482)" style="stroke:#000000; stroke-linecap:butt; stroke-linejoin:round; stroke-width:4; stroke-opacity:1; fill:none" points="
  1559.59,860.251 1559.59,842.303 
  "/>
<polyline clip-path="url(#clip482)" style="stroke:#000000; stroke-linecap:butt; stroke-linejoin:round; stroke-width:4; stroke-opacity:1; fill:none" points="
  1560.07,900.223 1560.07,872.856 
  "/>
<polyline clip-path="url(#clip482)" style="stroke:#000000; stroke-linecap:butt; stroke-linejoin:round; stroke-width:4; stroke-opacity:1; fill:none" points="
  1560.66,873.778 1560.66,866.455 
  "/>
<line clip-path="url(#clip482)" x1="828.15" y1="1018.41" x2="804.15" y2="1018.41" style="stroke:#000000; stroke-width:3.2; stroke-opacity:1"/>
<line clip-path="url(#clip482)" x1="828.15" y1="1004.42" x2="804.15" y2="1004.42" style="stroke:#000000; stroke-width:3.2; stroke-opacity:1"/>
<line clip-path="url(#clip482)" x1="1273.52" y1="778.586" x2="1249.52" y2="778.586" style="stroke:#000000; stroke-width:3.2; stroke-opacity:1"/>
<line clip-path="url(#clip482)" x1="1273.52" y1="738.137" x2="1249.52" y2="738.137" style="stroke:#000000; stroke-width:3.2; stroke-opacity:1"/>
<line clip-path="url(#clip482)" x1="829.338" y1="1033.75" x2="805.338" y2="1033.75" style="stroke:#000000; stroke-width:3.2; stroke-opacity:1"/>
<line clip-path="url(#clip482)" x1="829.338" y1="1018.63" x2="805.338" y2="1018.63" style="stroke:#000000; stroke-width:3.2; stroke-opacity:1"/>
<line clip-path="url(#clip482)" x1="1275.95" y1="962.008" x2="1251.95" y2="962.008" style="stroke:#000000; stroke-width:3.2; stroke-opacity:1"/>
<line clip-path="url(#clip482)" x1="1275.95" y1="949.623" x2="1251.95" y2="949.623" style="stroke:#000000; stroke-width:3.2; stroke-opacity:1"/>
<line clip-path="url(#clip482)" x1="830.644" y1="1034.2" x2="806.644" y2="1034.2" style="stroke:#000000; stroke-width:3.2; stroke-opacity:1"/>
<line clip-path="url(#clip482)" x1="830.644" y1="1015.05" x2="806.644" y2="1015.05" style="stroke:#000000; stroke-width:3.2; stroke-opacity:1"/>
<line clip-path="url(#clip482)" x1="1276.43" y1="942.632" x2="1252.43" y2="942.632" style="stroke:#000000; stroke-width:3.2; stroke-opacity:1"/>
<line clip-path="url(#clip482)" x1="1276.43" y1="921.839" x2="1252.43" y2="921.839" style="stroke:#000000; stroke-width:3.2; stroke-opacity:1"/>
<line clip-path="url(#clip482)" x1="1277.02" y1="1132.54" x2="1253.02" y2="1132.54" style="stroke:#000000; stroke-width:3.2; stroke-opacity:1"/>
<line clip-path="url(#clip482)" x1="1277.02" y1="930.523" x2="1253.02" y2="930.523" style="stroke:#000000; stroke-width:3.2; stroke-opacity:1"/>
<line clip-path="url(#clip482)" x1="1569.81" y1="956.906" x2="1545.81" y2="956.906" style="stroke:#000000; stroke-width:3.2; stroke-opacity:1"/>
<line clip-path="url(#clip482)" x1="1569.81" y1="936.435" x2="1545.81" y2="936.435" style="stroke:#000000; stroke-width:3.2; stroke-opacity:1"/>
<line clip-path="url(#clip482)" x1="1277.43" y1="959.692" x2="1253.43" y2="959.692" style="stroke:#000000; stroke-width:3.2; stroke-opacity:1"/>
<line clip-path="url(#clip482)" x1="1277.43" y1="954.386" x2="1253.43" y2="954.386" style="stroke:#000000; stroke-width:3.2; stroke-opacity:1"/>
<line clip-path="url(#clip482)" x1="1570.35" y1="984.947" x2="1546.35" y2="984.947" style="stroke:#000000; stroke-width:3.2; stroke-opacity:1"/>
<line clip-path="url(#clip482)" x1="1570.35" y1="946.438" x2="1546.35" y2="946.438" style="stroke:#000000; stroke-width:3.2; stroke-opacity:1"/>
<line clip-path="url(#clip482)" x1="1277.85" y1="988.397" x2="1253.85" y2="988.397" style="stroke:#000000; stroke-width:3.2; stroke-opacity:1"/>
<line clip-path="url(#clip482)" x1="1277.85" y1="955.616" x2="1253.85" y2="955.616" style="stroke:#000000; stroke-width:3.2; stroke-opacity:1"/>
<line clip-path="url(#clip482)" x1="1570.88" y1="994.51" x2="1546.88" y2="994.51" style="stroke:#000000; stroke-width:3.2; stroke-opacity:1"/>
<line clip-path="url(#clip482)" x1="1570.88" y1="956.051" x2="1546.88" y2="956.051" style="stroke:#000000; stroke-width:3.2; stroke-opacity:1"/>
<line clip-path="url(#clip482)" x1="1571.59" y1="860.251" x2="1547.59" y2="860.251" style="stroke:#000000; stroke-width:3.2; stroke-opacity:1"/>
<line clip-path="url(#clip482)" x1="1571.59" y1="842.303" x2="1547.59" y2="842.303" style="stroke:#000000; stroke-width:3.2; stroke-opacity:1"/>
<line clip-path="url(#clip482)" x1="1572.07" y1="900.223" x2="1548.07" y2="900.223" style="stroke:#000000; stroke-width:3.2; stroke-opacity:1"/>
<line clip-path="url(#clip482)" x1="1572.07" y1="872.856" x2="1548.07" y2="872.856" style="stroke:#000000; stroke-width:3.2; stroke-opacity:1"/>
<line clip-path="url(#clip482)" x1="1572.66" y1="873.778" x2="1548.66" y2="873.778" style="stroke:#000000; stroke-width:3.2; stroke-opacity:1"/>
<line clip-path="url(#clip482)" x1="1572.66" y1="866.455" x2="1548.66" y2="866.455" style="stroke:#000000; stroke-width:3.2; stroke-opacity:1"/>
<circle clip-path="url(#clip482)" cx="816.15" cy="1011.41" r="10" fill="#009af9" fill-rule="evenodd" fill-opacity="1" stroke="#000000" stroke-opacity="1" stroke-width="3.2"/>
<circle clip-path="url(#clip482)" cx="1261.52" cy="758.362" r="10" fill="#009af9" fill-rule="evenodd" fill-opacity="1" stroke="#000000" stroke-opacity="1" stroke-width="3.2"/>
<circle clip-path="url(#clip482)" cx="817.338" cy="1026.19" r="10" fill="#009af9" fill-rule="evenodd" fill-opacity="1" stroke="#000000" stroke-opacity="1" stroke-width="3.2"/>
<circle clip-path="url(#clip482)" cx="1263.95" cy="955.816" r="10" fill="#009af9" fill-rule="evenodd" fill-opacity="1" stroke="#000000" stroke-opacity="1" stroke-width="3.2"/>
<circle clip-path="url(#clip482)" cx="818.644" cy="1024.63" r="10" fill="#009af9" fill-rule="evenodd" fill-opacity="1" stroke="#000000" stroke-opacity="1" stroke-width="3.2"/>
<circle clip-path="url(#clip482)" cx="1264.43" cy="932.236" r="10" fill="#009af9" fill-rule="evenodd" fill-opacity="1" stroke="#000000" stroke-opacity="1" stroke-width="3.2"/>
<circle clip-path="url(#clip482)" cx="1265.02" cy="1031.53" r="10" fill="#009af9" fill-rule="evenodd" fill-opacity="1" stroke="#000000" stroke-opacity="1" stroke-width="3.2"/>
<circle clip-path="url(#clip482)" cx="1557.81" cy="946.67" r="10" fill="#009af9" fill-rule="evenodd" fill-opacity="1" stroke="#000000" stroke-opacity="1" stroke-width="3.2"/>
<circle clip-path="url(#clip482)" cx="1265.43" cy="957.039" r="10" fill="#009af9" fill-rule="evenodd" fill-opacity="1" stroke="#000000" stroke-opacity="1" stroke-width="3.2"/>
<circle clip-path="url(#clip482)" cx="1558.35" cy="965.693" r="10" fill="#009af9" fill-rule="evenodd" fill-opacity="1" stroke="#000000" stroke-opacity="1" stroke-width="3.2"/>
<circle clip-path="url(#clip482)" cx="1265.85" cy="972.007" r="10" fill="#009af9" fill-rule="evenodd" fill-opacity="1" stroke="#000000" stroke-opacity="1" stroke-width="3.2"/>
<circle clip-path="url(#clip482)" cx="1558.88" cy="975.28" r="10" fill="#009af9" fill-rule="evenodd" fill-opacity="1" stroke="#000000" stroke-opacity="1" stroke-width="3.2"/>
<circle clip-path="url(#clip482)" cx="1559.59" cy="851.277" r="10" fill="#009af9" fill-rule="evenodd" fill-opacity="1" stroke="#000000" stroke-opacity="1" stroke-width="3.2"/>
<circle clip-path="url(#clip482)" cx="1560.07" cy="886.54" r="10" fill="#009af9" fill-rule="evenodd" fill-opacity="1" stroke="#000000" stroke-opacity="1" stroke-width="3.2"/>
<circle clip-path="url(#clip482)" cx="1560.66" cy="870.116" r="10" fill="#009af9" fill-rule="evenodd" fill-opacity="1" stroke="#000000" stroke-opacity="1" stroke-width="3.2"/>
<polyline clip-path="url(#clip482)" style="stroke:#000000; stroke-linecap:butt; stroke-linejoin:round; stroke-width:4; stroke-opacity:1; fill:none" points="
  583.197,1041.84 583.197,1023.78 
  "/>
<polyline clip-path="url(#clip482)" style="stroke:#000000; stroke-linecap:butt; stroke-linejoin:round; stroke-width:4; stroke-opacity:1; fill:none" points="
  584.741,1044.49 584.741,1028.36 
  "/>
<polyline clip-path="url(#clip482)" style="stroke:#000000; stroke-linecap:butt; stroke-linejoin:round; stroke-width:4; stroke-opacity:1; fill:none" points="
  585.809,1048.51 585.809,1030.46 
  "/>
<polyline clip-path="url(#clip482)" style="stroke:#000000; stroke-linecap:butt; stroke-linejoin:round; stroke-width:4; stroke-opacity:1; fill:none" points="
  2292.83,999.506 2292.83,982.358 
  "/>
<polyline clip-path="url(#clip482)" style="stroke:#000000; stroke-linecap:butt; stroke-linejoin:round; stroke-width:4; stroke-opacity:1; fill:none" points="
  2290.33,1045.48 2290.33,1034.97 
  "/>
<polyline clip-path="url(#clip482)" style="stroke:#000000; stroke-linecap:butt; stroke-linejoin:round; stroke-width:4; stroke-opacity:1; fill:none" points="
  2290.99,1044.95 2290.99,1041.96 
  "/>
<line clip-path="url(#clip482)" x1="595.197" y1="1041.84" x2="571.197" y2="1041.84" style="stroke:#000000; stroke-width:3.2; stroke-opacity:1"/>
<line clip-path="url(#clip482)" x1="595.197" y1="1023.78" x2="571.197" y2="1023.78" style="stroke:#000000; stroke-width:3.2; stroke-opacity:1"/>
<line clip-path="url(#clip482)" x1="596.741" y1="1044.49" x2="572.741" y2="1044.49" style="stroke:#000000; stroke-width:3.2; stroke-opacity:1"/>
<line clip-path="url(#clip482)" x1="596.741" y1="1028.36" x2="572.741" y2="1028.36" style="stroke:#000000; stroke-width:3.2; stroke-opacity:1"/>
<line clip-path="url(#clip482)" x1="597.809" y1="1048.51" x2="573.809" y2="1048.51" style="stroke:#000000; stroke-width:3.2; stroke-opacity:1"/>
<line clip-path="url(#clip482)" x1="597.809" y1="1030.46" x2="573.809" y2="1030.46" style="stroke:#000000; stroke-width:3.2; stroke-opacity:1"/>
<line clip-path="url(#clip482)" x1="2304.83" y1="999.506" x2="2280.83" y2="999.506" style="stroke:#000000; stroke-width:3.2; stroke-opacity:1"/>
<line clip-path="url(#clip482)" x1="2304.83" y1="982.358" x2="2280.83" y2="982.358" style="stroke:#000000; stroke-width:3.2; stroke-opacity:1"/>
<line clip-path="url(#clip482)" x1="2302.33" y1="1045.48" x2="2278.33" y2="1045.48" style="stroke:#000000; stroke-width:3.2; stroke-opacity:1"/>
<line clip-path="url(#clip482)" x1="2302.33" y1="1034.97" x2="2278.33" y2="1034.97" style="stroke:#000000; stroke-width:3.2; stroke-opacity:1"/>
<line clip-path="url(#clip482)" x1="2302.99" y1="1044.95" x2="2278.99" y2="1044.95" style="stroke:#000000; stroke-width:3.2; stroke-opacity:1"/>
<line clip-path="url(#clip482)" x1="2302.99" y1="1041.96" x2="2278.99" y2="1041.96" style="stroke:#000000; stroke-width:3.2; stroke-opacity:1"/>
<circle clip-path="url(#clip482)" cx="583.197" cy="1032.81" r="10" fill="#e26f46" fill-rule="evenodd" fill-opacity="1" stroke="#000000" stroke-opacity="1" stroke-width="3.2"/>
<circle clip-path="url(#clip482)" cx="584.741" cy="1036.42" r="10" fill="#e26f46" fill-rule="evenodd" fill-opacity="1" stroke="#000000" stroke-opacity="1" stroke-width="3.2"/>
<circle clip-path="url(#clip482)" cx="585.809" cy="1039.48" r="10" fill="#e26f46" fill-rule="evenodd" fill-opacity="1" stroke="#000000" stroke-opacity="1" stroke-width="3.2"/>
<circle clip-path="url(#clip482)" cx="2292.83" cy="990.932" r="10" fill="#e26f46" fill-rule="evenodd" fill-opacity="1" stroke="#000000" stroke-opacity="1" stroke-width="3.2"/>
<circle clip-path="url(#clip482)" cx="2290.33" cy="1040.22" r="10" fill="#e26f46" fill-rule="evenodd" fill-opacity="1" stroke="#000000" stroke-opacity="1" stroke-width="3.2"/>
<circle clip-path="url(#clip482)" cx="2290.99" cy="1043.45" r="10" fill="#e26f46" fill-rule="evenodd" fill-opacity="1" stroke="#000000" stroke-opacity="1" stroke-width="3.2"/>
<polyline clip-path="url(#clip482)" style="stroke:#000000; stroke-linecap:butt; stroke-linejoin:round; stroke-width:4; stroke-opacity:1; fill:none" points="
  578.745,1040.29 578.745,994.911 
  "/>
<polyline clip-path="url(#clip482)" style="stroke:#000000; stroke-linecap:butt; stroke-linejoin:round; stroke-width:4; stroke-opacity:1; fill:none" points="
  580.941,1048.5 580.941,1005.47 
  "/>
<polyline clip-path="url(#clip482)" style="stroke:#000000; stroke-linecap:butt; stroke-linejoin:round; stroke-width:4; stroke-opacity:1; fill:none" points="
  577.617,1042.01 577.617,999.65 
  "/>
<polyline clip-path="url(#clip482)" style="stroke:#000000; stroke-linecap:butt; stroke-linejoin:round; stroke-width:4; stroke-opacity:1; fill:none" points="
  567.821,1032.34 567.821,980.889 
  "/>
<polyline clip-path="url(#clip482)" style="stroke:#000000; stroke-linecap:butt; stroke-linejoin:round; stroke-width:4; stroke-opacity:1; fill:none" points="
  568.771,1017.44 568.771,968.165 
  "/>
<polyline clip-path="url(#clip482)" style="stroke:#000000; stroke-linecap:butt; stroke-linejoin:round; stroke-width:4; stroke-opacity:1; fill:none" points="
  571.799,997.61 571.799,948.516 
  "/>
<polyline clip-path="url(#clip482)" style="stroke:#000000; stroke-linecap:butt; stroke-linejoin:round; stroke-width:4; stroke-opacity:1; fill:none" points="
  572.927,1019.81 572.927,973.647 
  "/>
<polyline clip-path="url(#clip482)" style="stroke:#000000; stroke-linecap:butt; stroke-linejoin:round; stroke-width:4; stroke-opacity:1; fill:none" points="
  870.055,674.092 870.055,623.978 
  "/>
<polyline clip-path="url(#clip482)" style="stroke:#000000; stroke-linecap:butt; stroke-linejoin:round; stroke-width:4; stroke-opacity:1; fill:none" points="
  870.649,603.75 870.649,530.247 
  "/>
<polyline clip-path="url(#clip482)" style="stroke:#000000; stroke-linecap:butt; stroke-linejoin:round; stroke-width:4; stroke-opacity:1; fill:none" points="
  871.242,627.134 871.242,580.31 
  "/>
<polyline clip-path="url(#clip482)" style="stroke:#000000; stroke-linecap:butt; stroke-linejoin:round; stroke-width:4; stroke-opacity:1; fill:none" points="
  871.895,665.262 871.895,599.825 
  "/>
<polyline clip-path="url(#clip482)" style="stroke:#000000; stroke-linecap:butt; stroke-linejoin:round; stroke-width:4; stroke-opacity:1; fill:none" points="
  1155.78,505.185 1155.78,444.673 
  "/>
<polyline clip-path="url(#clip482)" style="stroke:#000000; stroke-linecap:butt; stroke-linejoin:round; stroke-width:4; stroke-opacity:1; fill:none" points="
  1156.5,498.292 1156.5,434.417 
  "/>
<polyline clip-path="url(#clip482)" style="stroke:#000000; stroke-linecap:butt; stroke-linejoin:round; stroke-width:4; stroke-opacity:1; fill:none" points="
  1157.21,493.594 1157.21,431.137 
  "/>
<polyline clip-path="url(#clip482)" style="stroke:#000000; stroke-linecap:butt; stroke-linejoin:round; stroke-width:4; stroke-opacity:1; fill:none" points="
  1157.98,506.086 1157.98,432.666 
  "/>
<polyline clip-path="url(#clip482)" style="stroke:#000000; stroke-linecap:butt; stroke-linejoin:round; stroke-width:4; stroke-opacity:1; fill:none" points="
  1272.14,379.517 1272.14,311.593 
  "/>
<polyline clip-path="url(#clip482)" style="stroke:#000000; stroke-linecap:butt; stroke-linejoin:round; stroke-width:4; stroke-opacity:1; fill:none" points="
  1272.97,247.271 1272.97,177.607 
  "/>
<polyline clip-path="url(#clip482)" style="stroke:#000000; stroke-linecap:butt; stroke-linejoin:round; stroke-width:4; stroke-opacity:1; fill:none" points="
  1273.86,327.523 1273.86,259.813 
  "/>
<polyline clip-path="url(#clip482)" style="stroke:#000000; stroke-linecap:butt; stroke-linejoin:round; stroke-width:4; stroke-opacity:1; fill:none" points="
  1274.64,474.996 1274.64,406.803 
  "/>
<polyline clip-path="url(#clip482)" style="stroke:#000000; stroke-linecap:butt; stroke-linejoin:round; stroke-width:4; stroke-opacity:1; fill:none" points="
  1711.04,333.471 1711.04,231.874 
  "/>
<polyline clip-path="url(#clip482)" style="stroke:#000000; stroke-linecap:butt; stroke-linejoin:round; stroke-width:4; stroke-opacity:1; fill:none" points="
  1711.93,328.306 1711.93,242.746 
  "/>
<polyline clip-path="url(#clip482)" style="stroke:#000000; stroke-linecap:butt; stroke-linejoin:round; stroke-width:4; stroke-opacity:1; fill:none" points="
  1712.76,445.232 1712.76,371.081 
  "/>
<polyline clip-path="url(#clip482)" style="stroke:#000000; stroke-linecap:butt; stroke-linejoin:round; stroke-width:4; stroke-opacity:1; fill:none" points="
  1713.59,458.019 1713.59,368.038 
  "/>
<polyline clip-path="url(#clip482)" style="stroke:#000000; stroke-linecap:butt; stroke-linejoin:round; stroke-width:4; stroke-opacity:1; fill:none" points="
  2013.15,302.311 2013.15,215.311 
  "/>
<polyline clip-path="url(#clip482)" style="stroke:#000000; stroke-linecap:butt; stroke-linejoin:round; stroke-width:4; stroke-opacity:1; fill:none" points="
  2014.46,175.351 2014.46,86.1857 
  "/>
<polyline clip-path="url(#clip482)" style="stroke:#000000; stroke-linecap:butt; stroke-linejoin:round; stroke-width:4; stroke-opacity:1; fill:none" points="
  2016.89,264.145 2016.89,189.718 
  "/>
<polyline clip-path="url(#clip482)" style="stroke:#000000; stroke-linecap:butt; stroke-linejoin:round; stroke-width:4; stroke-opacity:1; fill:none" points="
  2018.2,333.78 2018.2,267.251 
  "/>
<line clip-path="url(#clip482)" x1="590.745" y1="1040.29" x2="566.745" y2="1040.29" style="stroke:#000000; stroke-width:3.2; stroke-opacity:1"/>
<line clip-path="url(#clip482)" x1="590.745" y1="994.911" x2="566.745" y2="994.911" style="stroke:#000000; stroke-width:3.2; stroke-opacity:1"/>
<line clip-path="url(#clip482)" x1="592.941" y1="1048.5" x2="568.941" y2="1048.5" style="stroke:#000000; stroke-width:3.2; stroke-opacity:1"/>
<line clip-path="url(#clip482)" x1="592.941" y1="1005.47" x2="568.941" y2="1005.47" style="stroke:#000000; stroke-width:3.2; stroke-opacity:1"/>
<line clip-path="url(#clip482)" x1="589.617" y1="1042.01" x2="565.617" y2="1042.01" style="stroke:#000000; stroke-width:3.2; stroke-opacity:1"/>
<line clip-path="url(#clip482)" x1="589.617" y1="999.65" x2="565.617" y2="999.65" style="stroke:#000000; stroke-width:3.2; stroke-opacity:1"/>
<line clip-path="url(#clip482)" x1="579.821" y1="1032.34" x2="555.821" y2="1032.34" style="stroke:#000000; stroke-width:3.2; stroke-opacity:1"/>
<line clip-path="url(#clip482)" x1="579.821" y1="980.889" x2="555.821" y2="980.889" style="stroke:#000000; stroke-width:3.2; stroke-opacity:1"/>
<line clip-path="url(#clip482)" x1="580.771" y1="1017.44" x2="556.771" y2="1017.44" style="stroke:#000000; stroke-width:3.2; stroke-opacity:1"/>
<line clip-path="url(#clip482)" x1="580.771" y1="968.165" x2="556.771" y2="968.165" style="stroke:#000000; stroke-width:3.2; stroke-opacity:1"/>
<line clip-path="url(#clip482)" x1="583.799" y1="997.61" x2="559.799" y2="997.61" style="stroke:#000000; stroke-width:3.2; stroke-opacity:1"/>
<line clip-path="url(#clip482)" x1="583.799" y1="948.516" x2="559.799" y2="948.516" style="stroke:#000000; stroke-width:3.2; stroke-opacity:1"/>
<line clip-path="url(#clip482)" x1="584.927" y1="1019.81" x2="560.927" y2="1019.81" style="stroke:#000000; stroke-width:3.2; stroke-opacity:1"/>
<line clip-path="url(#clip482)" x1="584.927" y1="973.647" x2="560.927" y2="973.647" style="stroke:#000000; stroke-width:3.2; stroke-opacity:1"/>
<line clip-path="url(#clip482)" x1="882.055" y1="674.092" x2="858.055" y2="674.092" style="stroke:#000000; stroke-width:3.2; stroke-opacity:1"/>
<line clip-path="url(#clip482)" x1="882.055" y1="623.978" x2="858.055" y2="623.978" style="stroke:#000000; stroke-width:3.2; stroke-opacity:1"/>
<line clip-path="url(#clip482)" x1="882.649" y1="603.75" x2="858.649" y2="603.75" style="stroke:#000000; stroke-width:3.2; stroke-opacity:1"/>
<line clip-path="url(#clip482)" x1="882.649" y1="530.247" x2="858.649" y2="530.247" style="stroke:#000000; stroke-width:3.2; stroke-opacity:1"/>
<line clip-path="url(#clip482)" x1="883.242" y1="627.134" x2="859.242" y2="627.134" style="stroke:#000000; stroke-width:3.2; stroke-opacity:1"/>
<line clip-path="url(#clip482)" x1="883.242" y1="580.31" x2="859.242" y2="580.31" style="stroke:#000000; stroke-width:3.2; stroke-opacity:1"/>
<line clip-path="url(#clip482)" x1="883.895" y1="665.262" x2="859.895" y2="665.262" style="stroke:#000000; stroke-width:3.2; stroke-opacity:1"/>
<line clip-path="url(#clip482)" x1="883.895" y1="599.825" x2="859.895" y2="599.825" style="stroke:#000000; stroke-width:3.2; stroke-opacity:1"/>
<line clip-path="url(#clip482)" x1="1167.78" y1="505.185" x2="1143.78" y2="505.185" style="stroke:#000000; stroke-width:3.2; stroke-opacity:1"/>
<line clip-path="url(#clip482)" x1="1167.78" y1="444.673" x2="1143.78" y2="444.673" style="stroke:#000000; stroke-width:3.2; stroke-opacity:1"/>
<line clip-path="url(#clip482)" x1="1168.5" y1="498.292" x2="1144.5" y2="498.292" style="stroke:#000000; stroke-width:3.2; stroke-opacity:1"/>
<line clip-path="url(#clip482)" x1="1168.5" y1="434.417" x2="1144.5" y2="434.417" style="stroke:#000000; stroke-width:3.2; stroke-opacity:1"/>
<line clip-path="url(#clip482)" x1="1169.21" y1="493.594" x2="1145.21" y2="493.594" style="stroke:#000000; stroke-width:3.2; stroke-opacity:1"/>
<line clip-path="url(#clip482)" x1="1169.21" y1="431.137" x2="1145.21" y2="431.137" style="stroke:#000000; stroke-width:3.2; stroke-opacity:1"/>
<line clip-path="url(#clip482)" x1="1169.98" y1="506.086" x2="1145.98" y2="506.086" style="stroke:#000000; stroke-width:3.2; stroke-opacity:1"/>
<line clip-path="url(#clip482)" x1="1169.98" y1="432.666" x2="1145.98" y2="432.666" style="stroke:#000000; stroke-width:3.2; stroke-opacity:1"/>
<line clip-path="url(#clip482)" x1="1284.14" y1="379.517" x2="1260.14" y2="379.517" style="stroke:#000000; stroke-width:3.2; stroke-opacity:1"/>
<line clip-path="url(#clip482)" x1="1284.14" y1="311.593" x2="1260.14" y2="311.593" style="stroke:#000000; stroke-width:3.2; stroke-opacity:1"/>
<line clip-path="url(#clip482)" x1="1284.97" y1="247.271" x2="1260.97" y2="247.271" style="stroke:#000000; stroke-width:3.2; stroke-opacity:1"/>
<line clip-path="url(#clip482)" x1="1284.97" y1="177.607" x2="1260.97" y2="177.607" style="stroke:#000000; stroke-width:3.2; stroke-opacity:1"/>
<line clip-path="url(#clip482)" x1="1285.86" y1="327.523" x2="1261.86" y2="327.523" style="stroke:#000000; stroke-width:3.2; stroke-opacity:1"/>
<line clip-path="url(#clip482)" x1="1285.86" y1="259.813" x2="1261.86" y2="259.813" style="stroke:#000000; stroke-width:3.2; stroke-opacity:1"/>
<line clip-path="url(#clip482)" x1="1286.64" y1="474.996" x2="1262.64" y2="474.996" style="stroke:#000000; stroke-width:3.2; stroke-opacity:1"/>
<line clip-path="url(#clip482)" x1="1286.64" y1="406.803" x2="1262.64" y2="406.803" style="stroke:#000000; stroke-width:3.2; stroke-opacity:1"/>
<line clip-path="url(#clip482)" x1="1723.04" y1="333.471" x2="1699.04" y2="333.471" style="stroke:#000000; stroke-width:3.2; stroke-opacity:1"/>
<line clip-path="url(#clip482)" x1="1723.04" y1="231.874" x2="1699.04" y2="231.874" style="stroke:#000000; stroke-width:3.2; stroke-opacity:1"/>
<line clip-path="url(#clip482)" x1="1723.93" y1="328.306" x2="1699.93" y2="328.306" style="stroke:#000000; stroke-width:3.2; stroke-opacity:1"/>
<line clip-path="url(#clip482)" x1="1723.93" y1="242.746" x2="1699.93" y2="242.746" style="stroke:#000000; stroke-width:3.2; stroke-opacity:1"/>
<line clip-path="url(#clip482)" x1="1724.76" y1="445.232" x2="1700.76" y2="445.232" style="stroke:#000000; stroke-width:3.2; stroke-opacity:1"/>
<line clip-path="url(#clip482)" x1="1724.76" y1="371.081" x2="1700.76" y2="371.081" style="stroke:#000000; stroke-width:3.2; stroke-opacity:1"/>
<line clip-path="url(#clip482)" x1="1725.59" y1="458.019" x2="1701.59" y2="458.019" style="stroke:#000000; stroke-width:3.2; stroke-opacity:1"/>
<line clip-path="url(#clip482)" x1="1725.59" y1="368.038" x2="1701.59" y2="368.038" style="stroke:#000000; stroke-width:3.2; stroke-opacity:1"/>
<line clip-path="url(#clip482)" x1="2025.15" y1="302.311" x2="2001.15" y2="302.311" style="stroke:#000000; stroke-width:3.2; stroke-opacity:1"/>
<line clip-path="url(#clip482)" x1="2025.15" y1="215.311" x2="2001.15" y2="215.311" style="stroke:#000000; stroke-width:3.2; stroke-opacity:1"/>
<line clip-path="url(#clip482)" x1="2026.46" y1="175.351" x2="2002.46" y2="175.351" style="stroke:#000000; stroke-width:3.2; stroke-opacity:1"/>
<line clip-path="url(#clip482)" x1="2026.46" y1="86.1857" x2="2002.46" y2="86.1857" style="stroke:#000000; stroke-width:3.2; stroke-opacity:1"/>
<line clip-path="url(#clip482)" x1="2028.89" y1="264.145" x2="2004.89" y2="264.145" style="stroke:#000000; stroke-width:3.2; stroke-opacity:1"/>
<line clip-path="url(#clip482)" x1="2028.89" y1="189.718" x2="2004.89" y2="189.718" style="stroke:#000000; stroke-width:3.2; stroke-opacity:1"/>
<line clip-path="url(#clip482)" x1="2030.2" y1="333.78" x2="2006.2" y2="333.78" style="stroke:#000000; stroke-width:3.2; stroke-opacity:1"/>
<line clip-path="url(#clip482)" x1="2030.2" y1="267.251" x2="2006.2" y2="267.251" style="stroke:#000000; stroke-width:3.2; stroke-opacity:1"/>
<circle clip-path="url(#clip482)" cx="578.745" cy="1017.6" r="10" fill="#3da44d" fill-rule="evenodd" fill-opacity="1" stroke="#000000" stroke-opacity="1" stroke-width="3.2"/>
<circle clip-path="url(#clip482)" cx="580.941" cy="1026.98" r="10" fill="#3da44d" fill-rule="evenodd" fill-opacity="1" stroke="#000000" stroke-opacity="1" stroke-width="3.2"/>
<circle clip-path="url(#clip482)" cx="577.617" cy="1020.83" r="10" fill="#3da44d" fill-rule="evenodd" fill-opacity="1" stroke="#000000" stroke-opacity="1" stroke-width="3.2"/>
<circle clip-path="url(#clip482)" cx="567.821" cy="1006.62" r="10" fill="#3da44d" fill-rule="evenodd" fill-opacity="1" stroke="#000000" stroke-opacity="1" stroke-width="3.2"/>
<circle clip-path="url(#clip482)" cx="568.771" cy="992.801" r="10" fill="#3da44d" fill-rule="evenodd" fill-opacity="1" stroke="#000000" stroke-opacity="1" stroke-width="3.2"/>
<circle clip-path="url(#clip482)" cx="571.799" cy="973.063" r="10" fill="#3da44d" fill-rule="evenodd" fill-opacity="1" stroke="#000000" stroke-opacity="1" stroke-width="3.2"/>
<circle clip-path="url(#clip482)" cx="572.927" cy="996.73" r="10" fill="#3da44d" fill-rule="evenodd" fill-opacity="1" stroke="#000000" stroke-opacity="1" stroke-width="3.2"/>
<circle clip-path="url(#clip482)" cx="870.055" cy="649.035" r="10" fill="#3da44d" fill-rule="evenodd" fill-opacity="1" stroke="#000000" stroke-opacity="1" stroke-width="3.2"/>
<circle clip-path="url(#clip482)" cx="870.649" cy="566.998" r="10" fill="#3da44d" fill-rule="evenodd" fill-opacity="1" stroke="#000000" stroke-opacity="1" stroke-width="3.2"/>
<circle clip-path="url(#clip482)" cx="871.242" cy="603.722" r="10" fill="#3da44d" fill-rule="evenodd" fill-opacity="1" stroke="#000000" stroke-opacity="1" stroke-width="3.2"/>
<circle clip-path="url(#clip482)" cx="871.895" cy="632.544" r="10" fill="#3da44d" fill-rule="evenodd" fill-opacity="1" stroke="#000000" stroke-opacity="1" stroke-width="3.2"/>
<circle clip-path="url(#clip482)" cx="1155.78" cy="474.929" r="10" fill="#3da44d" fill-rule="evenodd" fill-opacity="1" stroke="#000000" stroke-opacity="1" stroke-width="3.2"/>
<circle clip-path="url(#clip482)" cx="1156.5" cy="466.354" r="10" fill="#3da44d" fill-rule="evenodd" fill-opacity="1" stroke="#000000" stroke-opacity="1" stroke-width="3.2"/>
<circle clip-path="url(#clip482)" cx="1157.21" cy="462.366" r="10" fill="#3da44d" fill-rule="evenodd" fill-opacity="1" stroke="#000000" stroke-opacity="1" stroke-width="3.2"/>
<circle clip-path="url(#clip482)" cx="1157.98" cy="469.376" r="10" fill="#3da44d" fill-rule="evenodd" fill-opacity="1" stroke="#000000" stroke-opacity="1" stroke-width="3.2"/>
<circle clip-path="url(#clip482)" cx="1272.14" cy="345.555" r="10" fill="#3da44d" fill-rule="evenodd" fill-opacity="1" stroke="#000000" stroke-opacity="1" stroke-width="3.2"/>
<circle clip-path="url(#clip482)" cx="1272.97" cy="212.439" r="10" fill="#3da44d" fill-rule="evenodd" fill-opacity="1" stroke="#000000" stroke-opacity="1" stroke-width="3.2"/>
<circle clip-path="url(#clip482)" cx="1273.86" cy="293.668" r="10" fill="#3da44d" fill-rule="evenodd" fill-opacity="1" stroke="#000000" stroke-opacity="1" stroke-width="3.2"/>
<circle clip-path="url(#clip482)" cx="1274.64" cy="440.899" r="10" fill="#3da44d" fill-rule="evenodd" fill-opacity="1" stroke="#000000" stroke-opacity="1" stroke-width="3.2"/>
<circle clip-path="url(#clip482)" cx="1711.04" cy="282.672" r="10" fill="#3da44d" fill-rule="evenodd" fill-opacity="1" stroke="#000000" stroke-opacity="1" stroke-width="3.2"/>
<circle clip-path="url(#clip482)" cx="1711.93" cy="285.526" r="10" fill="#3da44d" fill-rule="evenodd" fill-opacity="1" stroke="#000000" stroke-opacity="1" stroke-width="3.2"/>
<circle clip-path="url(#clip482)" cx="1712.76" cy="408.156" r="10" fill="#3da44d" fill-rule="evenodd" fill-opacity="1" stroke="#000000" stroke-opacity="1" stroke-width="3.2"/>
<circle clip-path="url(#clip482)" cx="1713.59" cy="413.028" r="10" fill="#3da44d" fill-rule="evenodd" fill-opacity="1" stroke="#000000" stroke-opacity="1" stroke-width="3.2"/>
<circle clip-path="url(#clip482)" cx="2013.15" cy="258.811" r="10" fill="#3da44d" fill-rule="evenodd" fill-opacity="1" stroke="#000000" stroke-opacity="1" stroke-width="3.2"/>
<circle clip-path="url(#clip482)" cx="2014.46" cy="130.768" r="10" fill="#3da44d" fill-rule="evenodd" fill-opacity="1" stroke="#000000" stroke-opacity="1" stroke-width="3.2"/>
<circle clip-path="url(#clip482)" cx="2016.89" cy="226.932" r="10" fill="#3da44d" fill-rule="evenodd" fill-opacity="1" stroke="#000000" stroke-opacity="1" stroke-width="3.2"/>
<circle clip-path="url(#clip482)" cx="2018.2" cy="300.515" r="10" fill="#3da44d" fill-rule="evenodd" fill-opacity="1" stroke="#000000" stroke-opacity="1" stroke-width="3.2"/>
<path clip-path="url(#clip480)" d="
M305.865 300.469 L706.767 300.469 L706.767 93.1086 L305.865 93.1086  Z
  " fill="#ffffff" fill-rule="evenodd" fill-opacity="1"/>
<polyline clip-path="url(#clip480)" style="stroke:#000000; stroke-linecap:butt; stroke-linejoin:round; stroke-width:4; stroke-opacity:1; fill:none" points="
  305.865,300.469 706.767,300.469 706.767,93.1086 305.865,93.1086 305.865,300.469 
  "/>
<polyline clip-path="url(#clip480)" style="stroke:#009af9; stroke-linecap:butt; stroke-linejoin:round; stroke-width:4; stroke-opacity:1; fill:none" points="
  329.865,144.949 473.865,144.949 
  "/>
<path clip-path="url(#clip480)" d="M503.189 136.303 L507.449 136.303 L507.449 162.692 Q507.449 167.645 505.55 169.867 Q503.675 172.09 499.486 172.09 L497.865 172.09 L497.865 168.479 L499 168.479 Q501.43 168.479 502.31 167.344 Q503.189 166.233 503.189 162.692 L503.189 136.303 M503.189 126.21 L507.449 126.21 L507.449 131.604 L503.189 131.604 L503.189 126.21 Z" fill="#000000" fill-rule="evenodd" fill-opacity="1" /><path clip-path="url(#clip480)" d="M520.573 128.942 L520.573 136.303 L529.347 136.303 L529.347 139.613 L520.573 139.613 L520.573 153.687 Q520.573 156.858 521.43 157.761 Q522.31 158.664 524.972 158.664 L529.347 158.664 L529.347 162.229 L524.972 162.229 Q520.041 162.229 518.166 160.4 Q516.291 158.548 516.291 153.687 L516.291 139.613 L513.166 139.613 L513.166 136.303 L516.291 136.303 L516.291 128.942 L520.573 128.942 Z" fill="#000000" fill-rule="evenodd" fill-opacity="1" /><path clip-path="url(#clip480)" d="M549.717 143.594 Q553.073 144.312 554.948 146.581 Q556.846 148.849 556.846 152.182 Q556.846 157.298 553.328 160.099 Q549.809 162.9 543.328 162.9 Q541.152 162.9 538.837 162.46 Q536.546 162.043 534.092 161.187 L534.092 156.673 Q536.036 157.807 538.351 158.386 Q540.666 158.965 543.189 158.965 Q547.587 158.965 549.879 157.229 Q552.194 155.493 552.194 152.182 Q552.194 149.127 550.041 147.414 Q547.911 145.678 544.092 145.678 L540.064 145.678 L540.064 141.835 L544.277 141.835 Q547.726 141.835 549.555 140.469 Q551.384 139.081 551.384 136.488 Q551.384 133.826 549.485 132.414 Q547.61 130.979 544.092 130.979 Q542.171 130.979 539.972 131.395 Q537.772 131.812 535.134 132.692 L535.134 128.525 Q537.796 127.784 540.11 127.414 Q542.448 127.044 544.509 127.044 Q549.833 127.044 552.934 129.474 Q556.036 131.882 556.036 136.002 Q556.036 138.872 554.393 140.863 Q552.749 142.831 549.717 143.594 Z" fill="#000000" fill-rule="evenodd" fill-opacity="1" /><path clip-path="url(#clip480)" d="M575.712 130.747 Q572.101 130.747 570.272 134.312 Q568.467 137.854 568.467 144.983 Q568.467 152.09 570.272 155.655 Q572.101 159.196 575.712 159.196 Q579.346 159.196 581.152 155.655 Q582.981 152.09 582.981 144.983 Q582.981 137.854 581.152 134.312 Q579.346 130.747 575.712 130.747 M575.712 127.044 Q581.522 127.044 584.578 131.65 Q587.656 136.233 587.656 144.983 Q587.656 153.71 584.578 158.317 Q581.522 162.9 575.712 162.9 Q569.902 162.9 566.823 158.317 Q563.768 153.71 563.768 144.983 Q563.768 136.233 566.823 131.65 Q569.902 127.044 575.712 127.044 Z" fill="#000000" fill-rule="evenodd" fill-opacity="1" /><path clip-path="url(#clip480)" d="M595.92 127.669 L614.277 127.669 L614.277 131.604 L600.203 131.604 L600.203 140.076 Q601.221 139.729 602.24 139.567 Q603.258 139.382 604.277 139.382 Q610.064 139.382 613.443 142.553 Q616.823 145.724 616.823 151.141 Q616.823 156.719 613.351 159.821 Q609.879 162.9 603.559 162.9 Q601.383 162.9 599.115 162.53 Q596.869 162.159 594.462 161.418 L594.462 156.719 Q596.545 157.854 598.768 158.409 Q600.99 158.965 603.467 158.965 Q607.471 158.965 609.809 156.858 Q612.147 154.752 612.147 151.141 Q612.147 147.53 609.809 145.423 Q607.471 143.317 603.467 143.317 Q601.592 143.317 599.717 143.733 Q597.865 144.15 595.92 145.03 L595.92 127.669 Z" fill="#000000" fill-rule="evenodd" fill-opacity="1" /><polyline clip-path="url(#clip480)" style="stroke:#e26f46; stroke-linecap:butt; stroke-linejoin:round; stroke-width:4; stroke-opacity:1; fill:none" points="
  329.865,196.789 473.865,196.789 
  "/>
<path clip-path="url(#clip480)" d="M516.638 201.129 Q516.638 196.43 514.694 193.768 Q512.773 191.083 509.393 191.083 Q506.013 191.083 504.069 193.768 Q502.148 196.43 502.148 201.129 Q502.148 205.828 504.069 208.513 Q506.013 211.175 509.393 211.175 Q512.773 211.175 514.694 208.513 Q516.638 205.828 516.638 201.129 M502.148 192.078 Q503.49 189.763 505.527 188.652 Q507.587 187.518 510.435 187.518 Q515.157 187.518 518.097 191.268 Q521.06 195.018 521.06 201.129 Q521.06 207.24 518.097 210.99 Q515.157 214.74 510.435 214.74 Q507.587 214.74 505.527 213.629 Q503.49 212.495 502.148 210.18 L502.148 214.069 L497.865 214.069 L497.865 178.05 L502.148 178.05 L502.148 192.078 Z" fill="#000000" fill-rule="evenodd" fill-opacity="1" /><path clip-path="url(#clip480)" d="M545.18 200.805 Q545.18 196.175 543.259 193.629 Q541.36 191.083 537.911 191.083 Q534.485 191.083 532.564 193.629 Q530.666 196.175 530.666 200.805 Q530.666 205.411 532.564 207.958 Q534.485 210.504 537.911 210.504 Q541.36 210.504 543.259 207.958 Q545.18 205.411 545.18 200.805 M549.439 210.851 Q549.439 217.471 546.499 220.689 Q543.559 223.93 537.495 223.93 Q535.249 223.93 533.259 223.582 Q531.268 223.258 529.393 222.564 L529.393 218.42 Q531.268 219.439 533.097 219.925 Q534.925 220.411 536.823 220.411 Q541.013 220.411 543.097 218.212 Q545.18 216.036 545.18 211.615 L545.18 209.508 Q543.86 211.8 541.8 212.934 Q539.74 214.069 536.87 214.069 Q532.101 214.069 529.185 210.434 Q526.268 206.8 526.268 200.805 Q526.268 194.786 529.185 191.152 Q532.101 187.518 536.87 187.518 Q539.74 187.518 541.8 188.652 Q543.86 189.786 545.18 192.078 L545.18 188.143 L549.439 188.143 L549.439 210.851 Z" fill="#000000" fill-rule="evenodd" fill-opacity="1" /><path clip-path="url(#clip480)" d="M562.425 180.782 L562.425 188.143 L571.198 188.143 L571.198 191.453 L562.425 191.453 L562.425 205.527 Q562.425 208.698 563.282 209.601 Q564.161 210.504 566.823 210.504 L571.198 210.504 L571.198 214.069 L566.823 214.069 Q561.893 214.069 560.018 212.24 Q558.143 210.388 558.143 205.527 L558.143 191.453 L555.018 191.453 L555.018 188.143 L558.143 188.143 L558.143 180.782 L562.425 180.782 Z" fill="#000000" fill-rule="evenodd" fill-opacity="1" /><path clip-path="url(#clip480)" d="M578.212 210.133 L585.851 210.133 L585.851 183.768 L577.541 185.435 L577.541 181.175 L585.805 179.509 L590.481 179.509 L590.481 210.133 L598.119 210.133 L598.119 214.069 L578.212 214.069 L578.212 210.133 Z" fill="#000000" fill-rule="evenodd" fill-opacity="1" /><path clip-path="url(#clip480)" d="M611.592 210.133 L627.911 210.133 L627.911 214.069 L605.967 214.069 L605.967 210.133 Q608.629 207.379 613.212 202.749 Q617.818 198.096 618.999 196.754 Q621.244 194.231 622.124 192.495 Q623.027 190.735 623.027 189.046 Q623.027 186.291 621.082 184.555 Q619.161 182.819 616.059 182.819 Q613.86 182.819 611.406 183.583 Q608.976 184.347 606.198 185.897 L606.198 181.175 Q609.022 180.041 611.476 179.462 Q613.929 178.884 615.967 178.884 Q621.337 178.884 624.531 181.569 Q627.726 184.254 627.726 188.745 Q627.726 190.874 626.916 192.796 Q626.128 194.694 624.022 197.286 Q623.443 197.958 620.341 201.175 Q617.24 204.37 611.592 210.133 Z" fill="#000000" fill-rule="evenodd" fill-opacity="1" /><path clip-path="url(#clip480)" d="M636.545 179.509 L658.767 179.509 L658.767 181.499 L646.221 214.069 L641.337 214.069 L653.142 183.444 L636.545 183.444 L636.545 179.509 Z" fill="#000000" fill-rule="evenodd" fill-opacity="1" /><polyline clip-path="url(#clip480)" style="stroke:#3da44d; stroke-linecap:butt; stroke-linejoin:round; stroke-width:4; stroke-opacity:1; fill:none" points="
  329.865,248.629 473.865,248.629 
  "/>
<path clip-path="url(#clip480)" d="M516.777 252.645 Q516.777 248.015 514.856 245.469 Q512.958 242.923 509.509 242.923 Q506.083 242.923 504.162 245.469 Q502.263 248.015 502.263 252.645 Q502.263 257.251 504.162 259.798 Q506.083 262.344 509.509 262.344 Q512.958 262.344 514.856 259.798 Q516.777 257.251 516.777 252.645 M521.036 262.691 Q521.036 269.311 518.097 272.529 Q515.157 275.77 509.092 275.77 Q506.847 275.77 504.856 275.422 Q502.865 275.098 500.99 274.404 L500.99 270.26 Q502.865 271.279 504.694 271.765 Q506.523 272.251 508.421 272.251 Q512.611 272.251 514.694 270.052 Q516.777 267.876 516.777 263.455 L516.777 261.348 Q515.458 263.64 513.398 264.774 Q511.337 265.909 508.467 265.909 Q503.699 265.909 500.782 262.274 Q497.865 258.64 497.865 252.645 Q497.865 246.626 500.782 242.992 Q503.699 239.358 508.467 239.358 Q511.337 239.358 513.398 240.492 Q515.458 241.626 516.777 243.918 L516.777 239.983 L521.036 239.983 L521.036 262.691 Z" fill="#000000" fill-rule="evenodd" fill-opacity="1" /><path clip-path="url(#clip480)" d="M539.856 242.969 Q536.43 242.969 534.439 245.654 Q532.448 248.316 532.448 252.969 Q532.448 257.622 534.416 260.307 Q536.407 262.969 539.856 262.969 Q543.259 262.969 545.249 260.284 Q547.24 257.598 547.24 252.969 Q547.24 248.362 545.249 245.677 Q543.259 242.969 539.856 242.969 M539.856 239.358 Q545.411 239.358 548.583 242.969 Q551.754 246.58 551.754 252.969 Q551.754 259.335 548.583 262.969 Q545.411 266.58 539.856 266.58 Q534.277 266.58 531.106 262.969 Q527.958 259.335 527.958 252.969 Q527.958 246.58 531.106 242.969 Q534.277 239.358 539.856 239.358 Z" fill="#000000" fill-rule="evenodd" fill-opacity="1" /><path clip-path="url(#clip480)" d="M577.425 252.969 Q577.425 248.27 575.481 245.608 Q573.559 242.923 570.18 242.923 Q566.8 242.923 564.856 245.608 Q562.934 248.27 562.934 252.969 Q562.934 257.668 564.856 260.353 Q566.8 263.015 570.18 263.015 Q573.559 263.015 575.481 260.353 Q577.425 257.668 577.425 252.969 M562.934 243.918 Q564.277 241.603 566.314 240.492 Q568.374 239.358 571.221 239.358 Q575.944 239.358 578.883 243.108 Q581.846 246.858 581.846 252.969 Q581.846 259.08 578.883 262.83 Q575.944 266.58 571.221 266.58 Q568.374 266.58 566.314 265.469 Q564.277 264.335 562.934 262.02 L562.934 265.909 L558.652 265.909 L558.652 229.89 L562.934 229.89 L562.934 243.918 Z" fill="#000000" fill-rule="evenodd" fill-opacity="1" /><path clip-path="url(#clip480)" d="M603.675 247.274 Q607.031 247.992 608.906 250.261 Q610.804 252.529 610.804 255.862 Q610.804 260.978 607.286 263.779 Q603.767 266.58 597.286 266.58 Q595.11 266.58 592.795 266.14 Q590.504 265.723 588.05 264.867 L588.05 260.353 Q589.994 261.487 592.309 262.066 Q594.624 262.645 597.147 262.645 Q601.545 262.645 603.837 260.909 Q606.152 259.173 606.152 255.862 Q606.152 252.807 603.999 251.094 Q601.869 249.358 598.05 249.358 L594.022 249.358 L594.022 245.515 L598.235 245.515 Q601.684 245.515 603.513 244.149 Q605.342 242.761 605.342 240.168 Q605.342 237.506 603.443 236.094 Q601.568 234.659 598.05 234.659 Q596.129 234.659 593.93 235.075 Q591.731 235.492 589.092 236.372 L589.092 232.205 Q591.754 231.464 594.068 231.094 Q596.406 230.724 598.467 230.724 Q603.791 230.724 606.892 233.154 Q609.994 235.562 609.994 239.682 Q609.994 242.552 608.351 244.543 Q606.707 246.511 603.675 247.274 Z" fill="#000000" fill-rule="evenodd" fill-opacity="1" /><path clip-path="url(#clip480)" d="M633.837 247.274 Q637.193 247.992 639.068 250.261 Q640.966 252.529 640.966 255.862 Q640.966 260.978 637.448 263.779 Q633.929 266.58 627.448 266.58 Q625.272 266.58 622.957 266.14 Q620.666 265.723 618.212 264.867 L618.212 260.353 Q620.156 261.487 622.471 262.066 Q624.786 262.645 627.309 262.645 Q631.707 262.645 633.999 260.909 Q636.314 259.173 636.314 255.862 Q636.314 252.807 634.161 251.094 Q632.031 249.358 628.212 249.358 L624.184 249.358 L624.184 245.515 L628.397 245.515 Q631.846 245.515 633.675 244.149 Q635.503 242.761 635.503 240.168 Q635.503 237.506 633.605 236.094 Q631.73 234.659 628.212 234.659 Q626.291 234.659 624.091 235.075 Q621.892 235.492 619.254 236.372 L619.254 232.205 Q621.916 231.464 624.23 231.094 Q626.568 230.724 628.628 230.724 Q633.953 230.724 637.054 233.154 Q640.156 235.562 640.156 239.682 Q640.156 242.552 638.513 244.543 Q636.869 246.511 633.837 247.274 Z" fill="#000000" fill-rule="evenodd" fill-opacity="1" /></svg>
