<?xml version="1.0" encoding="utf-8"?>
<svg xmlns="http://www.w3.org/2000/svg" xmlns:xlink="http://www.w3.org/1999/xlink" width="600" height="400" viewBox="0 0 2400 1600">
<defs>
  <clipPath id="clip640">
    <rect x="0" y="0" width="2400" height="1600"/>
  </clipPath>
</defs>
<path clip-path="url(#clip640)" d="
M0 1600 L2400 1600 L2400 0 L0 0  Z
  " fill="#ffffff" fill-rule="evenodd" fill-opacity="1"/>
<defs>
  <clipPath id="clip641">
    <rect x="480" y="0" width="1681" height="1600"/>
  </clipPath>
</defs>
<path clip-path="url(#clip640)" d="
M242.135 1423.18 L2352.76 1423.18 L2352.76 47.2441 L242.135 47.2441  Z
  " fill="#ffffff" fill-rule="evenodd" fill-opacity="1"/>
<defs>
  <clipPath id="clip642">
    <rect x="242" y="47" width="2112" height="1377"/>
  </clipPath>
</defs>
<polyline clip-path="url(#clip642)" style="stroke:#000000; stroke-linecap:butt; stroke-linejoin:round; stroke-width:2; stroke-opacity:0.1; fill:none" points="
  279.877,1423.18 279.877,47.2441 
  "/>
<polyline clip-path="url(#clip642)" style="stroke:#000000; stroke-linecap:butt; stroke-linejoin:round; stroke-width:2; stroke-opacity:0.1; fill:none" points="
  702.806,1423.18 702.806,47.2441 
  "/>
<polyline clip-path="url(#clip642)" style="stroke:#000000; stroke-linecap:butt; stroke-linejoin:round; stroke-width:2; stroke-opacity:0.1; fill:none" points="
  1125.74,1423.18 1125.74,47.2441 
  "/>
<polyline clip-path="url(#clip642)" style="stroke:#000000; stroke-linecap:butt; stroke-linejoin:round; stroke-width:2; stroke-opacity:0.1; fill:none" points="
  1548.67,1423.18 1548.67,47.2441 
  "/>
<polyline clip-path="url(#clip642)" style="stroke:#000000; stroke-linecap:butt; stroke-linejoin:round; stroke-width:2; stroke-opacity:0.1; fill:none" points="
  1971.59,1423.18 1971.59,47.2441 
  "/>
<polyline clip-path="url(#clip640)" style="stroke:#000000; stroke-linecap:butt; stroke-linejoin:round; stroke-width:4; stroke-opacity:1; fill:none" points="
  242.135,1423.18 2352.76,1423.18 
  "/>
<polyline clip-path="url(#clip640)" style="stroke:#000000; stroke-linecap:butt; stroke-linejoin:round; stroke-width:4; stroke-opacity:1; fill:none" points="
  279.877,1423.18 279.877,1404.28 
  "/>
<polyline clip-path="url(#clip640)" style="stroke:#000000; stroke-linecap:butt; stroke-linejoin:round; stroke-width:4; stroke-opacity:1; fill:none" points="
  702.806,1423.18 702.806,1404.28 
  "/>
<polyline clip-path="url(#clip640)" style="stroke:#000000; stroke-linecap:butt; stroke-linejoin:round; stroke-width:4; stroke-opacity:1; fill:none" points="
  1125.74,1423.18 1125.74,1404.28 
  "/>
<polyline clip-path="url(#clip640)" style="stroke:#000000; stroke-linecap:butt; stroke-linejoin:round; stroke-width:4; stroke-opacity:1; fill:none" points="
  1548.67,1423.18 1548.67,1404.28 
  "/>
<polyline clip-path="url(#clip640)" style="stroke:#000000; stroke-linecap:butt; stroke-linejoin:round; stroke-width:4; stroke-opacity:1; fill:none" points="
  1971.59,1423.18 1971.59,1404.28 
  "/>
<path clip-path="url(#clip640)" d="M279.877 1454.1 Q276.266 1454.1 274.437 1457.66 Q272.632 1461.2 272.632 1468.33 Q272.632 1475.44 274.437 1479.01 Q276.266 1482.55 279.877 1482.55 Q283.511 1482.55 285.317 1479.01 Q287.145 1475.44 287.145 1468.33 Q287.145 1461.2 285.317 1457.66 Q283.511 1454.1 279.877 1454.1 M279.877 1450.39 Q285.687 1450.39 288.743 1455 Q291.821 1459.58 291.821 1468.33 Q291.821 1477.06 288.743 1481.67 Q285.687 1486.25 279.877 1486.25 Q274.067 1486.25 270.988 1481.67 Q267.933 1477.06 267.933 1468.33 Q267.933 1459.58 270.988 1455 Q274.067 1450.39 279.877 1450.39 Z" fill="#000000" fill-rule="evenodd" fill-opacity="1" /><path clip-path="url(#clip640)" d="M677.494 1481.64 L685.133 1481.64 L685.133 1455.28 L676.823 1456.95 L676.823 1452.69 L685.087 1451.02 L689.762 1451.02 L689.762 1481.64 L697.401 1481.64 L697.401 1485.58 L677.494 1485.58 L677.494 1481.64 Z" fill="#000000" fill-rule="evenodd" fill-opacity="1" /><path clip-path="url(#clip640)" d="M716.846 1454.1 Q713.235 1454.1 711.406 1457.66 Q709.6 1461.2 709.6 1468.33 Q709.6 1475.44 711.406 1479.01 Q713.235 1482.55 716.846 1482.55 Q720.48 1482.55 722.285 1479.01 Q724.114 1475.44 724.114 1468.33 Q724.114 1461.2 722.285 1457.66 Q720.48 1454.1 716.846 1454.1 M716.846 1450.39 Q722.656 1450.39 725.711 1455 Q728.79 1459.58 728.79 1468.33 Q728.79 1477.06 725.711 1481.67 Q722.656 1486.25 716.846 1486.25 Q711.036 1486.25 707.957 1481.67 Q704.901 1477.06 704.901 1468.33 Q704.901 1459.58 707.957 1455 Q711.036 1450.39 716.846 1450.39 Z" fill="#000000" fill-rule="evenodd" fill-opacity="1" /><path clip-path="url(#clip640)" d="M1104.51 1481.64 L1120.83 1481.64 L1120.83 1485.58 L1098.88 1485.58 L1098.88 1481.64 Q1101.55 1478.89 1106.13 1474.26 Q1110.74 1469.61 1111.92 1468.27 Q1114.16 1465.74 1115.04 1464.01 Q1115.94 1462.25 1115.94 1460.56 Q1115.94 1457.8 1114 1456.07 Q1112.08 1454.33 1108.98 1454.33 Q1106.78 1454.33 1104.32 1455.09 Q1101.89 1455.86 1099.12 1457.41 L1099.12 1452.69 Q1101.94 1451.55 1104.39 1450.97 Q1106.85 1450.39 1108.88 1450.39 Q1114.25 1450.39 1117.45 1453.08 Q1120.64 1455.77 1120.64 1460.26 Q1120.64 1462.39 1119.83 1464.31 Q1119.05 1466.2 1116.94 1468.8 Q1116.36 1469.47 1113.26 1472.69 Q1110.16 1475.88 1104.51 1481.64 Z" fill="#000000" fill-rule="evenodd" fill-opacity="1" /><path clip-path="url(#clip640)" d="M1140.64 1454.1 Q1137.03 1454.1 1135.2 1457.66 Q1133.4 1461.2 1133.4 1468.33 Q1133.4 1475.44 1135.2 1479.01 Q1137.03 1482.55 1140.64 1482.55 Q1144.28 1482.55 1146.08 1479.01 Q1147.91 1475.44 1147.91 1468.33 Q1147.91 1461.2 1146.08 1457.66 Q1144.28 1454.1 1140.64 1454.1 M1140.64 1450.39 Q1146.45 1450.39 1149.51 1455 Q1152.59 1459.58 1152.59 1468.33 Q1152.59 1477.06 1149.51 1481.67 Q1146.45 1486.25 1140.64 1486.25 Q1134.83 1486.25 1131.75 1481.67 Q1128.7 1477.06 1128.7 1468.33 Q1128.7 1459.58 1131.75 1455 Q1134.83 1450.39 1140.64 1450.39 Z" fill="#000000" fill-rule="evenodd" fill-opacity="1" /><path clip-path="url(#clip640)" d="M1537.51 1466.95 Q1540.86 1467.66 1542.74 1469.93 Q1544.64 1472.2 1544.64 1475.53 Q1544.64 1480.65 1541.12 1483.45 Q1537.6 1486.25 1531.12 1486.25 Q1528.94 1486.25 1526.63 1485.81 Q1524.34 1485.39 1521.88 1484.54 L1521.88 1480.02 Q1523.83 1481.16 1526.14 1481.74 Q1528.46 1482.32 1530.98 1482.32 Q1535.38 1482.32 1537.67 1480.58 Q1539.98 1478.84 1539.98 1475.53 Q1539.98 1472.48 1537.83 1470.77 Q1535.7 1469.03 1531.88 1469.03 L1527.86 1469.03 L1527.86 1465.19 L1532.07 1465.19 Q1535.52 1465.19 1537.35 1463.82 Q1539.17 1462.43 1539.17 1459.84 Q1539.17 1457.18 1537.28 1455.77 Q1535.4 1454.33 1531.88 1454.33 Q1529.96 1454.33 1527.76 1454.75 Q1525.56 1455.16 1522.92 1456.04 L1522.92 1451.88 Q1525.59 1451.14 1527.9 1450.77 Q1530.24 1450.39 1532.3 1450.39 Q1537.62 1450.39 1540.73 1452.83 Q1543.83 1455.23 1543.83 1459.35 Q1543.83 1462.22 1542.18 1464.21 Q1540.54 1466.18 1537.51 1466.95 Z" fill="#000000" fill-rule="evenodd" fill-opacity="1" /><path clip-path="url(#clip640)" d="M1563.5 1454.1 Q1559.89 1454.1 1558.06 1457.66 Q1556.26 1461.2 1556.26 1468.33 Q1556.26 1475.44 1558.06 1479.01 Q1559.89 1482.55 1563.5 1482.55 Q1567.14 1482.55 1568.94 1479.01 Q1570.77 1475.44 1570.77 1468.33 Q1570.77 1461.2 1568.94 1457.66 Q1567.14 1454.1 1563.5 1454.1 M1563.5 1450.39 Q1569.31 1450.39 1572.37 1455 Q1575.45 1459.58 1575.45 1468.33 Q1575.45 1477.06 1572.37 1481.67 Q1569.31 1486.25 1563.5 1486.25 Q1557.69 1486.25 1554.61 1481.67 Q1551.56 1477.06 1551.56 1468.33 Q1551.56 1459.58 1554.61 1455 Q1557.69 1450.39 1563.5 1450.39 Z" fill="#000000" fill-rule="evenodd" fill-opacity="1" /><path clip-path="url(#clip640)" d="M1959.77 1455.09 L1947.96 1473.54 L1959.77 1473.54 L1959.77 1455.09 M1958.54 1451.02 L1964.42 1451.02 L1964.42 1473.54 L1969.35 1473.54 L1969.35 1477.43 L1964.42 1477.43 L1964.42 1485.58 L1959.77 1485.58 L1959.77 1477.43 L1944.16 1477.43 L1944.16 1472.92 L1958.54 1451.02 Z" fill="#000000" fill-rule="evenodd" fill-opacity="1" /><path clip-path="url(#clip640)" d="M1987.08 1454.1 Q1983.47 1454.1 1981.64 1457.66 Q1979.84 1461.2 1979.84 1468.33 Q1979.84 1475.44 1981.64 1479.01 Q1983.47 1482.55 1987.08 1482.55 Q1990.72 1482.55 1992.52 1479.01 Q1994.35 1475.44 1994.35 1468.33 Q1994.35 1461.2 1992.52 1457.66 Q1990.72 1454.1 1987.08 1454.1 M1987.08 1450.39 Q1992.89 1450.39 1995.95 1455 Q1999.03 1459.58 1999.03 1468.33 Q1999.03 1477.06 1995.95 1481.67 Q1992.89 1486.25 1987.08 1486.25 Q1981.27 1486.25 1978.19 1481.67 Q1975.14 1477.06 1975.14 1468.33 Q1975.14 1459.58 1978.19 1455 Q1981.27 1450.39 1987.08 1450.39 Z" fill="#000000" fill-rule="evenodd" fill-opacity="1" /><path clip-path="url(#clip640)" d="M1150.54 1520.52 L1190.74 1520.52 L1190.74 1525.93 L1173.87 1525.93 L1173.87 1568.04 L1167.41 1568.04 L1167.41 1525.93 L1150.54 1525.93 L1150.54 1520.52 Z" fill="#000000" fill-rule="evenodd" fill-opacity="1" /><path clip-path="url(#clip640)" d="M1194.69 1532.4 L1200.54 1532.4 L1200.54 1568.04 L1194.69 1568.04 L1194.69 1532.4 M1194.69 1518.52 L1200.54 1518.52 L1200.54 1525.93 L1194.69 1525.93 L1194.69 1518.52 Z" fill="#000000" fill-rule="evenodd" fill-opacity="1" /><path clip-path="url(#clip640)" d="M1240.55 1539.24 Q1242.75 1535.29 1245.8 1533.41 Q1248.86 1531.54 1253 1531.54 Q1258.57 1531.54 1261.59 1535.45 Q1264.61 1539.33 1264.61 1546.53 L1264.61 1568.04 L1258.73 1568.04 L1258.73 1546.72 Q1258.73 1541.59 1256.91 1539.11 Q1255.1 1536.63 1251.37 1536.63 Q1246.82 1536.63 1244.18 1539.65 Q1241.54 1542.68 1241.54 1547.9 L1241.54 1568.04 L1235.65 1568.04 L1235.65 1546.72 Q1235.65 1541.56 1233.84 1539.11 Q1232.02 1536.63 1228.23 1536.63 Q1223.75 1536.63 1221.1 1539.68 Q1218.46 1542.71 1218.46 1547.9 L1218.46 1568.04 L1212.57 1568.04 L1212.57 1532.4 L1218.46 1532.4 L1218.46 1537.93 Q1220.47 1534.66 1223.27 1533.1 Q1226.07 1531.54 1229.92 1531.54 Q1233.8 1531.54 1236.51 1533.51 Q1239.25 1535.48 1240.55 1539.24 Z" fill="#000000" fill-rule="evenodd" fill-opacity="1" /><path clip-path="url(#clip640)" d="M1306.79 1548.76 L1306.79 1551.62 L1279.86 1551.62 Q1280.24 1557.67 1283.49 1560.85 Q1286.77 1564 1292.59 1564 Q1295.97 1564 1299.12 1563.17 Q1302.3 1562.35 1305.42 1560.69 L1305.42 1566.23 Q1302.27 1567.57 1298.96 1568.27 Q1295.65 1568.97 1292.24 1568.97 Q1283.71 1568.97 1278.71 1564 Q1273.75 1559.04 1273.75 1550.57 Q1273.75 1541.82 1278.46 1536.69 Q1283.2 1531.54 1291.22 1531.54 Q1298.42 1531.54 1302.59 1536.18 Q1306.79 1540.8 1306.79 1548.76 M1300.93 1547.04 Q1300.87 1542.23 1298.23 1539.37 Q1295.62 1536.5 1291.29 1536.5 Q1286.38 1536.5 1283.42 1539.27 Q1280.5 1542.04 1280.05 1547.07 L1300.93 1547.04 Z" fill="#000000" fill-rule="evenodd" fill-opacity="1" /><path clip-path="url(#clip640)" d="M1336.58 1518.52 L1350.07 1518.52 L1350.07 1523.07 L1342.43 1523.07 L1342.43 1572.09 L1350.07 1572.09 L1350.07 1576.64 L1336.58 1576.64 L1336.58 1518.52 Z" fill="#000000" fill-rule="evenodd" fill-opacity="1" /><path clip-path="url(#clip640)" d="M1392.18 1546.53 L1392.18 1568.04 L1386.33 1568.04 L1386.33 1546.72 Q1386.33 1541.66 1384.35 1539.14 Q1382.38 1536.63 1378.43 1536.63 Q1373.69 1536.63 1370.95 1539.65 Q1368.22 1542.68 1368.22 1547.9 L1368.22 1568.04 L1362.33 1568.04 L1362.33 1518.52 L1368.22 1518.52 L1368.22 1537.93 Q1370.32 1534.72 1373.15 1533.13 Q1376.01 1531.54 1379.74 1531.54 Q1385.88 1531.54 1389.03 1535.36 Q1392.18 1539.14 1392.18 1546.53 Z" fill="#000000" fill-rule="evenodd" fill-opacity="1" /><path clip-path="url(#clip640)" d="M1424.52 1537.87 Q1423.53 1537.3 1422.36 1537.04 Q1421.21 1536.76 1419.81 1536.76 Q1414.84 1536.76 1412.17 1540 Q1409.53 1543.22 1409.53 1549.27 L1409.53 1568.04 L1403.64 1568.04 L1403.64 1532.4 L1409.53 1532.4 L1409.53 1537.93 Q1411.38 1534.69 1414.34 1533.13 Q1417.3 1531.54 1421.53 1531.54 Q1422.13 1531.54 1422.87 1531.63 Q1423.6 1531.7 1424.49 1531.85 L1424.52 1537.87 Z" fill="#000000" fill-rule="evenodd" fill-opacity="1" /><path clip-path="url(#clip640)" d="M1444.35 1518.52 L1444.35 1576.64 L1430.85 1576.64 L1430.85 1572.09 L1438.46 1572.09 L1438.46 1523.07 L1430.85 1523.07 L1430.85 1518.52 L1444.35 1518.52 Z" fill="#000000" fill-rule="evenodd" fill-opacity="1" /><polyline clip-path="url(#clip642)" style="stroke:#000000; stroke-linecap:butt; stroke-linejoin:round; stroke-width:2; stroke-opacity:0.1; fill:none" points="
  242.135,1406.12 2352.76,1406.12 
  "/>
<polyline clip-path="url(#clip642)" style="stroke:#000000; stroke-linecap:butt; stroke-linejoin:round; stroke-width:2; stroke-opacity:0.1; fill:none" points="
  242.135,1040.61 2352.76,1040.61 
  "/>
<polyline clip-path="url(#clip642)" style="stroke:#000000; stroke-linecap:butt; stroke-linejoin:round; stroke-width:2; stroke-opacity:0.1; fill:none" points="
  242.135,675.104 2352.76,675.104 
  "/>
<polyline clip-path="url(#clip642)" style="stroke:#000000; stroke-linecap:butt; stroke-linejoin:round; stroke-width:2; stroke-opacity:0.1; fill:none" points="
  242.135,309.598 2352.76,309.598 
  "/>
<polyline clip-path="url(#clip640)" style="stroke:#000000; stroke-linecap:butt; stroke-linejoin:round; stroke-width:4; stroke-opacity:1; fill:none" points="
  242.135,1423.18 242.135,47.2441 
  "/>
<polyline clip-path="url(#clip640)" style="stroke:#000000; stroke-linecap:butt; stroke-linejoin:round; stroke-width:4; stroke-opacity:1; fill:none" points="
  242.135,1406.12 261.032,1406.12 
  "/>
<polyline clip-path="url(#clip640)" style="stroke:#000000; stroke-linecap:butt; stroke-linejoin:round; stroke-width:4; stroke-opacity:1; fill:none" points="
  242.135,1040.61 261.032,1040.61 
  "/>
<polyline clip-path="url(#clip640)" style="stroke:#000000; stroke-linecap:butt; stroke-linejoin:round; stroke-width:4; stroke-opacity:1; fill:none" points="
  242.135,675.104 261.032,675.104 
  "/>
<polyline clip-path="url(#clip640)" style="stroke:#000000; stroke-linecap:butt; stroke-linejoin:round; stroke-width:4; stroke-opacity:1; fill:none" points="
  242.135,309.598 261.032,309.598 
  "/>
<path clip-path="url(#clip640)" d="M114.26 1406.57 L143.936 1406.57 L143.936 1410.5 L114.26 1410.5 L114.26 1406.57 Z" fill="#000000" fill-rule="evenodd" fill-opacity="1" /><path clip-path="url(#clip640)" d="M166.876 1392.91 L155.07 1411.36 L166.876 1411.36 L166.876 1392.91 M165.649 1388.84 L171.528 1388.84 L171.528 1411.36 L176.459 1411.36 L176.459 1415.25 L171.528 1415.25 L171.528 1423.4 L166.876 1423.4 L166.876 1415.25 L151.274 1415.25 L151.274 1410.73 L165.649 1388.84 Z" fill="#000000" fill-rule="evenodd" fill-opacity="1" /><path clip-path="url(#clip640)" d="M194.19 1391.91 Q190.579 1391.91 188.75 1395.48 Q186.945 1399.02 186.945 1406.15 Q186.945 1413.26 188.75 1416.82 Q190.579 1420.36 194.19 1420.36 Q197.825 1420.36 199.63 1416.82 Q201.459 1413.26 201.459 1406.15 Q201.459 1399.02 199.63 1395.48 Q197.825 1391.91 194.19 1391.91 M194.19 1388.21 Q200 1388.21 203.056 1392.82 Q206.135 1397.4 206.135 1406.15 Q206.135 1414.88 203.056 1419.48 Q200 1424.07 194.19 1424.07 Q188.38 1424.07 185.301 1419.48 Q182.246 1414.88 182.246 1406.15 Q182.246 1397.4 185.301 1392.82 Q188.38 1388.21 194.19 1388.21 Z" fill="#000000" fill-rule="evenodd" fill-opacity="1" /><path clip-path="url(#clip640)" d="M114.26 1041.06 L143.936 1041.06 L143.936 1045 L114.26 1045 L114.26 1041.06 Z" fill="#000000" fill-rule="evenodd" fill-opacity="1" /><path clip-path="url(#clip640)" d="M158.056 1053.95 L174.376 1053.95 L174.376 1057.89 L152.431 1057.89 L152.431 1053.95 Q155.093 1051.2 159.677 1046.57 Q164.283 1041.92 165.464 1040.58 Q167.709 1038.05 168.589 1036.32 Q169.491 1034.56 169.491 1032.87 Q169.491 1030.11 167.547 1028.38 Q165.626 1026.64 162.524 1026.64 Q160.325 1026.64 157.871 1027.4 Q155.44 1028.17 152.663 1029.72 L152.663 1025 Q155.487 1023.86 157.94 1023.28 Q160.394 1022.71 162.431 1022.71 Q167.802 1022.71 170.996 1025.39 Q174.19 1028.08 174.19 1032.57 Q174.19 1034.7 173.38 1036.62 Q172.593 1038.52 170.487 1041.11 Q169.908 1041.78 166.806 1045 Q163.704 1048.19 158.056 1053.95 Z" fill="#000000" fill-rule="evenodd" fill-opacity="1" /><path clip-path="url(#clip640)" d="M194.19 1026.41 Q190.579 1026.41 188.75 1029.97 Q186.945 1033.52 186.945 1040.64 Q186.945 1047.75 188.75 1051.32 Q190.579 1054.86 194.19 1054.86 Q197.825 1054.86 199.63 1051.32 Q201.459 1047.75 201.459 1040.64 Q201.459 1033.52 199.63 1029.97 Q197.825 1026.41 194.19 1026.41 M194.19 1022.71 Q200 1022.71 203.056 1027.31 Q206.135 1031.89 206.135 1040.64 Q206.135 1049.37 203.056 1053.98 Q200 1058.56 194.19 1058.56 Q188.38 1058.56 185.301 1053.98 Q182.246 1049.37 182.246 1040.64 Q182.246 1031.89 185.301 1027.31 Q188.38 1022.71 194.19 1022.71 Z" fill="#000000" fill-rule="evenodd" fill-opacity="1" /><path clip-path="url(#clip640)" d="M194.19 660.902 Q190.579 660.902 188.75 664.467 Q186.945 668.009 186.945 675.139 Q186.945 682.245 188.75 685.81 Q190.579 689.351 194.19 689.351 Q197.825 689.351 199.63 685.81 Q201.459 682.245 201.459 675.139 Q201.459 668.009 199.63 664.467 Q197.825 660.902 194.19 660.902 M194.19 657.199 Q200 657.199 203.056 661.805 Q206.135 666.389 206.135 675.139 Q206.135 683.865 203.056 688.472 Q200 693.055 194.19 693.055 Q188.38 693.055 185.301 688.472 Q182.246 683.865 182.246 675.139 Q182.246 666.389 185.301 661.805 Q188.38 657.199 194.19 657.199 Z" fill="#000000" fill-rule="evenodd" fill-opacity="1" /><path clip-path="url(#clip640)" d="M158.056 322.942 L174.376 322.942 L174.376 326.878 L152.431 326.878 L152.431 322.942 Q155.093 320.188 159.677 315.558 Q164.283 310.905 165.464 309.563 Q167.709 307.04 168.589 305.304 Q169.491 303.544 169.491 301.855 Q169.491 299.1 167.547 297.364 Q165.626 295.628 162.524 295.628 Q160.325 295.628 157.871 296.392 Q155.44 297.155 152.663 298.706 L152.663 293.984 Q155.487 292.85 157.94 292.271 Q160.394 291.693 162.431 291.693 Q167.802 291.693 170.996 294.378 Q174.19 297.063 174.19 301.554 Q174.19 303.683 173.38 305.604 Q172.593 307.503 170.487 310.095 Q169.908 310.766 166.806 313.984 Q163.704 317.178 158.056 322.942 Z" fill="#000000" fill-rule="evenodd" fill-opacity="1" /><path clip-path="url(#clip640)" d="M194.19 295.396 Q190.579 295.396 188.75 298.961 Q186.945 302.503 186.945 309.632 Q186.945 316.739 188.75 320.303 Q190.579 323.845 194.19 323.845 Q197.825 323.845 199.63 320.303 Q201.459 316.739 201.459 309.632 Q201.459 302.503 199.63 298.961 Q197.825 295.396 194.19 295.396 M194.19 291.693 Q200 291.693 203.056 296.299 Q206.135 300.882 206.135 309.632 Q206.135 318.359 203.056 322.966 Q200 327.549 194.19 327.549 Q188.38 327.549 185.301 322.966 Q182.246 318.359 182.246 309.632 Q182.246 300.882 185.301 296.299 Q188.38 291.693 194.19 291.693 Z" fill="#000000" fill-rule="evenodd" fill-opacity="1" /><path clip-path="url(#clip640)" d="M41.7242 932.597 Q42.4244 930.528 44.7161 928.586 Q47.0077 926.613 51.0181 924.639 L64.0042 918.115 L64.0042 925.021 L51.8138 931.101 Q47.0395 933.456 45.48 935.684 Q43.9204 937.88 43.9204 941.7 L43.9204 948.702 L64.0042 948.702 L64.0042 955.131 L16.4842 955.131 L16.4842 940.617 Q16.4842 932.469 19.8898 928.459 Q23.2955 924.449 30.1704 924.449 Q34.6582 924.449 37.6183 926.549 Q40.5784 928.618 41.7242 932.597 M21.7677 948.702 L38.6368 948.702 L38.6368 940.617 Q38.6368 935.97 36.5043 933.615 Q34.34 931.228 30.1704 931.228 Q26.0009 931.228 23.9002 933.615 Q21.7677 935.97 21.7677 940.617 L21.7677 948.702 Z" fill="#000000" fill-rule="evenodd" fill-opacity="1" /><path clip-path="url(#clip640)" d="M44.7161 882.53 L47.5806 882.53 L47.5806 909.457 Q53.6281 909.075 56.8109 905.829 Q59.9619 902.55 59.9619 896.726 Q59.9619 893.352 59.1344 890.201 Q58.3069 887.018 56.6518 883.899 L62.1899 883.899 Q63.5267 887.05 64.227 890.36 Q64.9272 893.67 64.9272 897.076 Q64.9272 905.606 59.9619 910.603 Q54.9967 915.568 46.5303 915.568 Q37.7774 915.568 32.6531 910.858 Q27.4968 906.115 27.4968 898.094 Q27.4968 890.901 32.1438 886.732 Q36.7589 882.53 44.7161 882.53 M42.9973 888.387 Q38.1912 888.45 35.3266 891.092 Q32.4621 893.702 32.4621 898.031 Q32.4621 902.932 35.2312 905.892 Q38.0002 908.821 43.0292 909.266 L42.9973 888.387 Z" fill="#000000" fill-rule="evenodd" fill-opacity="1" /><path clip-path="url(#clip640)" d="M29.4065 850.193 L34.9447 850.193 Q33.6716 852.675 33.035 855.349 Q32.3984 858.022 32.3984 860.887 Q32.3984 865.247 33.7352 867.444 Q35.072 869.608 37.7456 869.608 Q39.7826 869.608 40.9603 868.048 Q42.1061 866.489 43.1565 861.778 L43.6021 859.773 Q44.9389 853.535 47.3897 850.925 Q49.8086 848.283 54.1691 848.283 Q59.1344 848.283 62.0308 852.23 Q64.9272 856.144 64.9272 863.019 Q64.9272 865.884 64.3543 869.003 Q63.8132 872.091 62.6992 875.528 L56.6518 875.528 Q58.3387 872.282 59.198 869.131 Q60.0256 865.979 60.0256 862.892 Q60.0256 858.754 58.6251 856.526 Q57.1929 854.298 54.6147 854.298 Q52.2276 854.298 50.9545 855.922 Q49.6813 857.513 48.5037 862.956 L48.0262 864.993 Q46.8804 870.435 44.5251 872.854 Q42.138 875.273 38.0002 875.273 Q32.9713 875.273 30.2341 871.709 Q27.4968 868.144 27.4968 861.587 Q27.4968 858.341 27.9743 855.476 Q28.4517 852.612 29.4065 850.193 Z" fill="#000000" fill-rule="evenodd" fill-opacity="1" /><path clip-path="url(#clip640)" d="M28.3562 838.957 L28.3562 833.101 L64.0042 833.101 L64.0042 838.957 L28.3562 838.957 M14.479 838.957 L14.479 833.101 L21.895 833.101 L21.895 838.957 L14.479 838.957 Z" fill="#000000" fill-rule="evenodd" fill-opacity="1" /><path clip-path="url(#clip640)" d="M33.7671 797.389 L14.479 797.389 L14.479 791.533 L64.0042 791.533 L64.0042 797.389 L58.657 797.389 Q61.8398 799.235 63.3994 802.068 Q64.9272 804.869 64.9272 808.815 Q64.9272 815.277 59.771 819.351 Q54.6147 823.393 46.212 823.393 Q37.8093 823.393 32.6531 819.351 Q27.4968 815.277 27.4968 808.815 Q27.4968 804.869 29.0564 802.068 Q30.5842 799.235 33.7671 797.389 M46.212 817.345 Q52.6732 817.345 56.3653 814.704 Q60.0256 812.03 60.0256 807.383 Q60.0256 802.736 56.3653 800.063 Q52.6732 797.389 46.212 797.389 Q39.7508 797.389 36.0905 800.063 Q32.3984 802.736 32.3984 807.383 Q32.3984 812.03 36.0905 814.704 Q39.7508 817.345 46.212 817.345 Z" fill="#000000" fill-rule="evenodd" fill-opacity="1" /><path clip-path="url(#clip640)" d="M49.9359 780.074 L28.3562 780.074 L28.3562 774.218 L49.7131 774.218 Q54.7739 774.218 57.3202 772.244 Q59.8346 770.271 59.8346 766.324 Q59.8346 761.582 56.8109 758.845 Q53.7872 756.076 48.5673 756.076 L28.3562 756.076 L28.3562 750.219 L64.0042 750.219 L64.0042 756.076 L58.5296 756.076 Q61.7762 758.208 63.3676 761.041 Q64.9272 763.842 64.9272 767.566 Q64.9272 773.709 61.1078 776.891 Q57.2883 780.074 49.9359 780.074 M27.4968 765.338 L27.4968 765.338 Z" fill="#000000" fill-rule="evenodd" fill-opacity="1" /><path clip-path="url(#clip640)" d="M46.0847 721.955 Q46.0847 729.053 47.7079 731.79 Q49.3312 734.528 53.2461 734.528 Q56.3653 734.528 58.2114 732.491 Q60.0256 730.422 60.0256 726.889 Q60.0256 722.019 56.5881 719.091 Q53.1188 716.131 47.3897 716.131 L46.0847 716.131 L46.0847 721.955 M43.6657 710.274 L64.0042 710.274 L64.0042 716.131 L58.5933 716.131 Q61.8398 718.136 63.3994 721.128 Q64.9272 724.12 64.9272 728.448 Q64.9272 733.923 61.8716 737.169 Q58.7843 740.384 53.6281 740.384 Q47.6125 740.384 44.5569 736.374 Q41.5014 732.331 41.5014 724.343 L41.5014 716.131 L40.9285 716.131 Q36.8862 716.131 34.6901 718.804 Q32.4621 721.446 32.4621 726.252 Q32.4621 729.308 33.1941 732.204 Q33.9262 735.101 35.3903 737.774 L29.9795 737.774 Q28.7381 734.559 28.1334 731.536 Q27.4968 728.512 27.4968 725.647 Q27.4968 717.913 31.5072 714.094 Q35.5176 710.274 43.6657 710.274 Z" fill="#000000" fill-rule="evenodd" fill-opacity="1" /><path clip-path="url(#clip640)" d="M14.479 698.211 L14.479 692.355 L64.0042 692.355 L64.0042 698.211 L14.479 698.211 Z" fill="#000000" fill-rule="evenodd" fill-opacity="1" /><path clip-path="url(#clip640)" d="M14.479 659.922 L14.479 646.426 L19.0304 646.426 L19.0304 654.065 L68.0464 654.065 L68.0464 646.426 L72.5979 646.426 L72.5979 659.922 L14.479 659.922 Z" fill="#000000" fill-rule="evenodd" fill-opacity="1" /><path clip-path="url(#clip640)" d="M77.5631 634.554 L28.3562 634.554 L28.3562 628.698 L50.5089 628.698 Q55.124 628.698 57.4793 626.502 Q59.8346 624.305 59.8346 620.009 Q59.8346 615.298 57.161 612.943 Q54.4874 610.556 49.1402 610.556 L28.3562 610.556 L28.3562 604.699 L55.7924 604.699 Q57.7021 604.699 58.6251 604.158 Q59.5163 603.585 59.5163 602.407 Q59.5163 602.121 59.3572 601.612 Q59.1662 601.102 58.7843 600.211 L63.4949 600.211 Q64.227 601.516 64.5771 602.694 Q64.9272 603.84 64.9272 604.954 Q64.9272 607.15 63.6859 608.455 Q62.4446 609.76 59.8983 610.237 Q62.4127 611.829 63.6859 614.152 Q64.9272 616.444 64.9272 619.563 Q64.9272 622.81 63.6859 625.101 Q62.4446 627.361 59.9619 628.698 L77.5631 628.698 L77.5631 634.554 Z" fill="#000000" fill-rule="evenodd" fill-opacity="1" /><path clip-path="url(#clip640)" d="M35.1993 564.722 Q31.2526 562.526 29.3747 559.471 Q27.4968 556.415 27.4968 552.277 Q27.4968 546.707 31.4117 543.684 Q35.2948 540.66 42.4881 540.66 L64.0042 540.66 L64.0042 546.548 L42.679 546.548 Q37.5546 546.548 35.072 548.363 Q32.5894 550.177 32.5894 553.901 Q32.5894 558.452 35.6131 561.094 Q38.6368 563.736 43.8567 563.736 L64.0042 563.736 L64.0042 569.624 L42.679 569.624 Q37.5228 569.624 35.072 571.438 Q32.5894 573.252 32.5894 577.04 Q32.5894 581.528 35.6449 584.17 Q38.6686 586.811 43.8567 586.811 L64.0042 586.811 L64.0042 592.7 L28.3562 592.7 L28.3562 586.811 L33.8944 586.811 Q30.616 584.806 29.0564 582.005 Q27.4968 579.204 27.4968 575.353 Q27.4968 571.47 29.4702 568.765 Q31.4436 566.027 35.1993 564.722 Z" fill="#000000" fill-rule="evenodd" fill-opacity="1" /><path clip-path="url(#clip640)" d="M14.479 515.293 L72.5979 515.293 L72.5979 528.788 L68.0464 528.788 L68.0464 521.181 L19.0304 521.181 L19.0304 528.788 L14.479 528.788 L14.479 515.293 Z" fill="#000000" fill-rule="evenodd" fill-opacity="1" /><polyline clip-path="url(#clip642)" style="stroke:#000000; stroke-linecap:butt; stroke-linejoin:round; stroke-width:4; stroke-opacity:0.6; fill:none" stroke-dasharray="16, 10" points="
  -1868.49,675.104 4463.38,675.104 
  "/>
<polyline clip-path="url(#clip642)" style="stroke:#3da44d; stroke-linecap:butt; stroke-linejoin:round; stroke-width:8; stroke-opacity:1; fill:none" points="
  301.869,670.921 315.826,673.717 329.36,678.343 343.316,671.302 356.85,669.935 370.384,669.617 384.34,658.496 397.874,654.589 411.831,663.816 425.365,664.384 
  438.898,667.882 452.855,690.437 466.389,678.454 480.345,688.86 493.879,711.886 507.413,722.891 526.445,739.155 539.979,768.678 553.512,810.512 567.046,839.451 
  580.58,897.894 594.114,936.469 607.647,988.49 621.181,1028.42 634.715,1060.87 648.671,1085.29 662.205,1095.11 675.739,1100.47 689.273,1093.5 704.921,1098.22 
  725.222,1108.63 745.945,1082.92 766.669,1065.05 786.969,1039.74 807.693,1008.67 828.416,958.358 849.14,928.106 869.441,874.026 890.164,833.923 910.888,782.191 
  931.611,730.997 951.912,686.857 972.635,653.002 993.359,606.832 1013.66,573.139 1034.38,529.788 1055.11,500.945 1075.41,477.468 1096.13,440.79 1116.85,412.408 
  1137.16,393.557 1157.88,395.233 1178.6,388.223 1199.33,360.896 1219.63,354.116 1240.35,359.252 1261.07,355.581 1281.37,372.604 1301.67,360.108 1322.4,362.223 
  1343.12,373.315 1363.85,393.768 1384.15,400.317 1404.87,414.979 1425.59,426.858 1446.32,445.201 1466.62,465.432 1487.34,477.898 1508.06,485.037 1528.79,509.864 
  1549.51,524.821 1570.23,559.668 1590.96,568.924 1611.26,579.926 1631.98,609.077 1652.71,620.279 1673.43,650.517 1694.15,670.935 1720.37,662.013 1747.44,675.064 
  1776.2,694.82 1804.96,706.72 1833.72,747.169 1862.06,765.623 1890.82,799.186 1919.57,824.998 1948.33,855.802 1977.09,879.237 2005.85,915.231 2034.61,946.463 
  2063.37,985.895 2092.13,1003.99 2120.89,1038.52 2149.23,1056.58 2177.98,1075.08 2206.74,1090.34 2235.5,1135.08 2264.26,1172.97 2293.02,1193.95 
  "/>
<polyline clip-path="url(#clip642)" style="stroke:#e26f46; stroke-linecap:butt; stroke-linejoin:round; stroke-width:8; stroke-opacity:1; fill:none" points="
  301.869,670.975 315.826,673.825 329.36,678.518 343.316,671.568 356.85,670.312 370.384,670.132 384.34,659.183 397.874,655.476 411.831,664.946 425.365,665.785 
  438.898,669.59 452.855,692.497 466.389,680.883 480.345,691.694 493.879,715.127 507.413,726.538 526.445,743.341 539.979,773.201 553.512,815.306 567.046,844.427 
  580.58,902.936 594.114,941.436 607.647,993.217 621.181,1032.72 634.715,1064.53 648.671,1088.05 662.205,1096.77 675.739,1100.8 689.273,1092.27 704.921,1094.93 
  725.222,1102.3 745.945,1073.19 766.669,1051.76 786.969,1022.99 807.693,988.565 828.416,935.274 849.14,902.552 869.441,846.658 890.164,805.408 910.888,753.275 
  931.611,702.416 951.912,659.287 972.635,627.1 993.359,583.124 1013.66,551.984 1034.38,511.559 1055.11,485.88 1075.41,465.64 1096.13,432.289 1116.85,407.166 
  1137.16,391.361 1157.88,395.943 1178.6,391.612 1199.33,366.733 1219.63,362.098 1240.35,369.133 1261.07,367.051 1281.37,385.338 1301.67,373.836 1322.4,376.72 
  1343.12,388.36 1363.85,409.149 1384.15,415.827 1404.87,430.427 1425.59,442.067 1446.32,460.027 1466.62,479.772 1487.34,491.656 1508.06,498.133 1528.79,522.228 
  1549.51,536.389 1570.23,570.386 1590.96,578.753 1611.26,588.864 1631.98,617.1 1652.71,627.388 1673.43,656.713 1694.15,676.224 1720.37,666.165 1747.44,678.061 
  1776.2,696.626 1804.96,707.385 1833.72,746.744 1862.06,764.173 1890.82,796.743 1919.57,821.608 1948.33,851.517 1977.09,874.108 2005.85,909.307 2034.61,939.787 
  2063.37,978.512 2092.13,995.942 2120.89,1029.84 2149.23,1047.31 2177.98,1065.24 2206.74,1079.97 2235.5,1124.22 2264.26,1161.63 2293.02,1182.15 
  "/>
<polyline clip-path="url(#clip642)" style="stroke:#009af9; stroke-linecap:butt; stroke-linejoin:round; stroke-width:8; stroke-opacity:1; fill:none" points="
  301.869,670.927 315.826,673.694 329.36,678.241 343.316,671.037 356.85,669.385 370.384,668.594 384.34,656.693 397.874,651.622 411.831,659.05 425.365,657.057 
  438.898,656.889 452.855,674.075 466.389,654.802 480.345,654.799 493.879,663.989 507.413,658.324 526.445,633.397 539.979,619.373 553.512,619.77 567.046,610.994 
  580.58,635.296 594.114,643.406 607.647,668.729 621.181,685.789 634.715,699.245 648.671,708.139 662.205,706.839 675.739,704.91 689.273,694.413 704.921,699.611 
  725.222,717.592 745.945,707.153 766.669,711.429 786.969,713.682 807.693,715.83 828.416,702.919 849.14,713.249 869.441,701.051 890.164,704.959 910.888,697.644 
  931.611,690.47 951.912,688.384 972.635,695.761 993.359,688.59 1013.66,690.532 1034.38,680.628 1055.11,682.058 1075.41,685.025 1096.13,671.986 1116.85,663.83 
  1137.16,661.514 1157.88,676.804 1178.6,680.24 1199.33,660.36 1219.63,658.115 1240.35,665.233 1261.07,661.045 1281.37,675.32 1301.67,658.042 1322.4,653.374 
  1343.12,655.954 1363.85,666.333 1384.15,661.65 1404.87,663.61 1425.59,661.684 1446.32,665.263 1466.62,670.233 1487.34,666.432 1508.06,656.709 1528.79,664.176 
  1549.51,661.365 1570.23,678.119 1590.96,669.037 1611.26,661.908 1631.98,672.444 1652.71,664.975 1673.43,676.531 1694.15,678.3 1720.37,645.888 1747.44,634.886 
  1776.2,629.377 1804.96,616.378 1833.72,632.342 1862.06,627.113 1890.82,637.122 1919.57,639.896 1948.33,648.202 1977.09,649.694 2005.85,664.306 2034.61,674.722 
  2063.37,693.908 2092.13,692.33 2120.89,707.75 2149.23,707.529 2177.98,708.017 2206.74,705.816 2235.5,733.634 2264.26,755.118 2293.02,760.197 
  "/>
<polyline clip-path="url(#clip642)" style="stroke:#e26f46; stroke-linecap:butt; stroke-linejoin:round; stroke-width:8; stroke-opacity:1; fill:none" stroke-dasharray="32, 20" points="
  301.869,671.55 315.826,674.931 329.36,680.297 343.316,674.241 356.85,674.084 370.384,675.277 384.34,666.084 397.874,664.465 411.831,676.551 425.365,680.444 
  438.898,687.883 452.855,715.223 466.389,708.652 480.345,725.509 493.879,755.7 507.413,774.817 526.445,804.164 539.979,844.21 553.512,897.57 567.046,938.996 
  580.58,1010.81 594.114,1063.54 607.647,1130.32 621.181,1185.42 634.715,1233.19 648.671,1273.23 662.205,1297.65 675.739,1316.64 689.273,1321.87 704.921,1338.28 
  725.222,1358.73 745.945,1335.58 766.669,1310.78 786.969,1268.28 807.693,1208.33 828.416,1117.89 849.14,1037.4 869.441,926.276 890.164,822.833 910.888,706.093 
  931.611,591.905 951.912,491.052 972.635,406.937 993.359,320.189 1013.66,257.038 1034.38,194.103 1055.11,155.798 1075.41,131.943 1096.13,102.484 1116.85,87.2534 
  1137.16,86.1857 1157.88,110.117 1178.6,128.412 1199.33,128.141 1219.63,148.132 1240.35,180.477 1261.07,203.687 1281.37,246.38 1301.67,258.602 1322.4,284.708 
  1343.12,318.404 1363.85,360.102 1384.15,386.163 1404.87,419.421 1425.59,448.54 1446.32,482.726 1466.62,517.163 1487.34,542.945 1508.06,562.285 1528.79,598.274 
  1549.51,623.418 1570.23,667.533 1590.96,685.19 1611.26,703.648 1631.98,739.708 1652.71,757.177 1673.43,793.095 1694.15,818.66 1720.37,815.552 1747.44,833.856 
  1776.2,858.435 1804.96,874.49 1833.72,918.524 1862.06,940.026 1890.82,976.256 1919.57,1004.36 1948.33,1037.13 1977.09,1062.23 2005.85,1099.63 2034.61,1132.05 
  2063.37,1172.48 2092.13,1191.42 2120.89,1226.65 2149.23,1245.29 2177.98,1264.27 2206.74,1279.93 2235.5,1324.98 2264.26,1363.1 2293.02,1384.24 
  "/>
<polyline clip-path="url(#clip642)" style="stroke:#009af9; stroke-linecap:butt; stroke-linejoin:round; stroke-width:8; stroke-opacity:1; fill:none" stroke-dasharray="32, 20" points="
  301.869,670.92 315.826,673.68 329.36,678.217 343.316,670.998 356.85,669.326 370.384,668.506 384.34,656.565 397.874,651.442 411.831,658.795 425.365,656.706 
  438.898,656.406 452.855,673.413 466.389,653.909 480.345,653.581 493.879,662.364 507.413,654.131 526.445,631.547 539.979,620.58 553.512,620.117 567.046,611.259 
  580.58,635.614 594.114,643.707 607.647,669.012 621.181,686.056 634.715,699.496 648.671,708.373 662.205,707.058 675.739,705.114 689.273,694.602 704.921,699.784 
  725.222,717.746 745.945,707.288 766.669,711.547 786.969,713.784 807.693,715.916 828.416,702.992 849.14,713.308 869.441,701.098 890.164,704.994 910.888,697.668 
  931.611,690.483 951.912,688.388 972.635,695.756 993.359,688.577 1013.66,690.512 1034.38,680.601 1055.11,682.026 1075.41,684.987 1096.13,671.944 1116.85,663.784 
  1137.16,661.465 1157.88,676.751 1178.6,680.185 1199.33,660.302 1219.63,658.055 1240.35,665.171 1261.07,660.983 1281.37,675.256 1301.67,657.977 1322.4,653.308 
  1343.12,655.889 1363.85,666.267 1384.15,661.585 1404.87,663.545 1425.59,661.62 1446.32,665.2 1466.62,670.173 1487.34,666.374 1508.06,656.654 1528.79,664.124 
  1549.51,661.315 1570.23,678.073 1590.96,668.995 1611.26,661.869 1631.98,672.408 1652.71,664.943 1673.43,676.502 1694.15,678.274 1720.37,645.866 1747.44,634.867 
  1776.2,629.363 1804.96,616.368 1833.72,632.336 1862.06,627.111 1890.82,637.127 1919.57,639.908 1948.33,648.223 1977.09,649.724 2005.85,664.345 2034.61,674.769 
  2063.37,693.964 2092.13,692.393 2120.89,707.819 2149.23,707.605 2177.98,708.098 2206.74,705.901 2235.5,733.722 2264.26,755.21 2293.02,760.293 
  "/>
<path clip-path="url(#clip640)" d="
M1785.09 455.989 L2282.4 455.989 L2282.4 93.1086 L1785.09 93.1086  Z
  " fill="#ffffff" fill-rule="evenodd" fill-opacity="1"/>
<polyline clip-path="url(#clip640)" style="stroke:#000000; stroke-linecap:butt; stroke-linejoin:round; stroke-width:4; stroke-opacity:1; fill:none" points="
  1785.09,455.989 2282.4,455.989 2282.4,93.1086 1785.09,93.1086 1785.09,455.989 
  "/>
<polyline clip-path="url(#clip640)" style="stroke:#000000; stroke-linecap:butt; stroke-linejoin:round; stroke-width:4; stroke-opacity:0.6; fill:none" stroke-dasharray="16, 10" points="
  1809.09,144.949 1953.09,144.949 
  "/>
<path clip-path="url(#clip640)" d="M1990.93 164.636 Q1989.13 169.266 1987.41 170.678 Q1985.7 172.09 1982.83 172.09 L1979.43 172.09 L1979.43 168.525 L1981.93 168.525 Q1983.69 168.525 1984.66 167.692 Q1985.63 166.858 1986.81 163.756 L1987.57 161.812 L1977.09 136.303 L1981.6 136.303 L1989.7 156.581 L1997.81 136.303 L2002.32 136.303 L1990.93 164.636 Z" fill="#000000" fill-rule="evenodd" fill-opacity="1" /><path clip-path="url(#clip640)" d="M2009.61 158.293 L2017.25 158.293 L2017.25 131.928 L2008.94 133.595 L2008.94 129.335 L2017.2 127.669 L2021.88 127.669 L2021.88 158.293 L2029.52 158.293 L2029.52 162.229 L2009.61 162.229 L2009.61 158.293 Z" fill="#000000" fill-rule="evenodd" fill-opacity="1" /><polyline clip-path="url(#clip640)" style="stroke:#3da44d; stroke-linecap:butt; stroke-linejoin:round; stroke-width:4; stroke-opacity:1; fill:none" points="
  1809.09,196.789 1953.09,196.789 
  "/>
<path clip-path="url(#clip640)" d="M1977.09 179.509 L1983.38 179.509 L1998.71 208.421 L1998.71 179.509 L2003.25 179.509 L2003.25 214.069 L1996.95 214.069 L1981.63 185.157 L1981.63 214.069 L1977.09 214.069 L1977.09 179.509 Z" fill="#000000" fill-rule="evenodd" fill-opacity="1" /><path clip-path="url(#clip640)" d="M2011.93 203.837 L2011.93 188.143 L2016.19 188.143 L2016.19 203.675 Q2016.19 207.356 2017.62 209.208 Q2019.06 211.036 2021.93 211.036 Q2025.38 211.036 2027.37 208.837 Q2029.38 206.638 2029.38 202.842 L2029.38 188.143 L2033.64 188.143 L2033.64 214.069 L2029.38 214.069 L2029.38 210.087 Q2027.83 212.448 2025.77 213.606 Q2023.73 214.74 2021.02 214.74 Q2016.56 214.74 2014.24 211.962 Q2011.93 209.184 2011.93 203.837 M2022.64 187.518 L2022.64 187.518 Z" fill="#000000" fill-rule="evenodd" fill-opacity="1" /><path clip-path="url(#clip640)" d="M2046.63 180.782 L2046.63 188.143 L2055.4 188.143 L2055.4 191.453 L2046.63 191.453 L2046.63 205.527 Q2046.63 208.698 2047.48 209.601 Q2048.36 210.504 2051.02 210.504 L2055.4 210.504 L2055.4 214.069 L2051.02 214.069 Q2046.09 214.069 2044.22 212.24 Q2042.34 210.388 2042.34 205.527 L2042.34 191.453 L2039.22 191.453 L2039.22 188.143 L2042.34 188.143 L2042.34 180.782 L2046.63 180.782 Z" fill="#000000" fill-rule="evenodd" fill-opacity="1" /><path clip-path="url(#clip640)" d="M2076.02 192.124 Q2075.31 191.708 2074.45 191.522 Q2073.62 191.314 2072.6 191.314 Q2068.99 191.314 2067.04 193.675 Q2065.12 196.013 2065.12 200.411 L2065.12 214.069 L2060.84 214.069 L2060.84 188.143 L2065.12 188.143 L2065.12 192.171 Q2066.46 189.809 2068.62 188.675 Q2070.77 187.518 2073.85 187.518 Q2074.29 187.518 2074.82 187.587 Q2075.35 187.634 2076 187.749 L2076.02 192.124 Z" fill="#000000" fill-rule="evenodd" fill-opacity="1" /><path clip-path="url(#clip640)" d="M2080.49 188.143 L2084.75 188.143 L2084.75 214.069 L2080.49 214.069 L2080.49 188.143 M2080.49 178.05 L2084.75 178.05 L2084.75 183.444 L2080.49 183.444 L2080.49 178.05 Z" fill="#000000" fill-rule="evenodd" fill-opacity="1" /><path clip-path="url(#clip640)" d="M2115.84 200.041 L2115.84 202.124 L2096.25 202.124 Q2096.53 206.522 2098.89 208.837 Q2101.28 211.129 2105.51 211.129 Q2107.97 211.129 2110.26 210.527 Q2112.57 209.925 2114.84 208.721 L2114.84 212.749 Q2112.55 213.721 2110.14 214.231 Q2107.74 214.74 2105.26 214.74 Q2099.06 214.74 2095.42 211.129 Q2091.81 207.518 2091.81 201.36 Q2091.81 194.995 2095.24 191.268 Q2098.68 187.518 2104.52 187.518 Q2109.75 187.518 2112.78 190.897 Q2115.84 194.254 2115.84 200.041 M2111.58 198.791 Q2111.53 195.296 2109.61 193.212 Q2107.71 191.129 2104.56 191.129 Q2101 191.129 2098.85 193.143 Q2096.72 195.157 2096.39 198.814 L2111.58 198.791 Z" fill="#000000" fill-rule="evenodd" fill-opacity="1" /><path clip-path="url(#clip640)" d="M2144.38 198.421 L2144.38 214.069 L2140.12 214.069 L2140.12 198.559 Q2140.12 194.879 2138.68 193.05 Q2137.25 191.222 2134.38 191.222 Q2130.93 191.222 2128.94 193.421 Q2126.95 195.62 2126.95 199.416 L2126.95 214.069 L2122.67 214.069 L2122.67 188.143 L2126.95 188.143 L2126.95 192.171 Q2128.48 189.833 2130.54 188.675 Q2132.62 187.518 2135.33 187.518 Q2139.8 187.518 2142.09 190.296 Q2144.38 193.05 2144.38 198.421 Z" fill="#000000" fill-rule="evenodd" fill-opacity="1" /><path clip-path="url(#clip640)" d="M2157.09 180.782 L2157.09 188.143 L2165.86 188.143 L2165.86 191.453 L2157.09 191.453 L2157.09 205.527 Q2157.09 208.698 2157.94 209.601 Q2158.82 210.504 2161.49 210.504 L2165.86 210.504 L2165.86 214.069 L2161.49 214.069 Q2156.56 214.069 2154.68 212.24 Q2152.81 210.388 2152.81 205.527 L2152.81 191.453 L2149.68 191.453 L2149.68 188.143 L2152.81 188.143 L2152.81 180.782 L2157.09 180.782 Z" fill="#000000" fill-rule="evenodd" fill-opacity="1" /><path clip-path="url(#clip640)" d="M2191.16 221.939 L2191.16 225.249 L2166.53 225.249 L2166.53 221.939 L2191.16 221.939 Z" fill="#000000" fill-rule="evenodd" fill-opacity="1" /><path clip-path="url(#clip640)" d="M2216.72 198.421 L2216.72 214.069 L2212.46 214.069 L2212.46 198.559 Q2212.46 194.879 2211.02 193.05 Q2209.59 191.222 2206.72 191.222 Q2203.27 191.222 2201.28 193.421 Q2199.29 195.62 2199.29 199.416 L2199.29 214.069 L2195 214.069 L2195 188.143 L2199.29 188.143 L2199.29 192.171 Q2200.81 189.833 2202.87 188.675 Q2204.96 187.518 2207.67 187.518 Q2212.13 187.518 2214.43 190.296 Q2216.72 193.05 2216.72 198.421 Z" fill="#000000" fill-rule="evenodd" fill-opacity="1" /><polyline clip-path="url(#clip640)" style="stroke:#e26f46; stroke-linecap:butt; stroke-linejoin:round; stroke-width:4; stroke-opacity:1; fill:none" points="
  1809.09,248.629 1953.09,248.629 
  "/>
<path clip-path="url(#clip640)" d="M1977.09 231.349 L1981.76 231.349 L1981.76 261.973 L1998.59 261.973 L1998.59 265.909 L1977.09 265.909 L1977.09 231.349 Z" fill="#000000" fill-rule="evenodd" fill-opacity="1" /><path clip-path="url(#clip640)" d="M2012.53 242.969 Q2009.1 242.969 2007.11 245.654 Q2005.12 248.316 2005.12 252.969 Q2005.12 257.622 2007.09 260.307 Q2009.08 262.969 2012.53 262.969 Q2015.93 262.969 2017.92 260.284 Q2019.91 257.598 2019.91 252.969 Q2019.91 248.362 2017.92 245.677 Q2015.93 242.969 2012.53 242.969 M2012.53 239.358 Q2018.08 239.358 2021.25 242.969 Q2024.43 246.58 2024.43 252.969 Q2024.43 259.335 2021.25 262.969 Q2018.08 266.58 2012.53 266.58 Q2006.95 266.58 2003.78 262.969 Q2000.63 259.335 2000.63 252.969 Q2000.63 246.58 2003.78 242.969 Q2006.95 239.358 2012.53 239.358 Z" fill="#000000" fill-rule="evenodd" fill-opacity="1" /><path clip-path="url(#clip640)" d="M2048.55 252.645 Q2048.55 248.015 2046.63 245.469 Q2044.73 242.923 2041.28 242.923 Q2037.85 242.923 2035.93 245.469 Q2034.03 248.015 2034.03 252.645 Q2034.03 257.251 2035.93 259.798 Q2037.85 262.344 2041.28 262.344 Q2044.73 262.344 2046.63 259.798 Q2048.55 257.251 2048.55 252.645 M2052.81 262.691 Q2052.81 269.311 2049.87 272.529 Q2046.93 275.77 2040.86 275.77 Q2038.62 275.77 2036.63 275.422 Q2034.63 275.098 2032.76 274.404 L2032.76 270.26 Q2034.63 271.279 2036.46 271.765 Q2038.29 272.251 2040.19 272.251 Q2044.38 272.251 2046.46 270.052 Q2048.55 267.876 2048.55 263.455 L2048.55 261.348 Q2047.23 263.64 2045.17 264.774 Q2043.11 265.909 2040.24 265.909 Q2035.47 265.909 2032.55 262.274 Q2029.63 258.64 2029.63 252.645 Q2029.63 246.626 2032.55 242.992 Q2035.47 239.358 2040.24 239.358 Q2043.11 239.358 2045.17 240.492 Q2047.23 241.626 2048.55 243.918 L2048.55 239.983 L2052.81 239.983 L2052.81 262.691 Z" fill="#000000" fill-rule="evenodd" fill-opacity="1" /><path clip-path="url(#clip640)" d="M2061.58 239.983 L2065.84 239.983 L2065.84 265.909 L2061.58 265.909 L2061.58 239.983 M2061.58 229.89 L2065.84 229.89 L2065.84 235.284 L2061.58 235.284 L2061.58 229.89 Z" fill="#000000" fill-rule="evenodd" fill-opacity="1" /><path clip-path="url(#clip640)" d="M2091.28 240.747 L2091.28 244.774 Q2089.47 243.849 2087.53 243.386 Q2085.58 242.923 2083.5 242.923 Q2080.33 242.923 2078.73 243.895 Q2077.16 244.867 2077.16 246.811 Q2077.16 248.293 2078.29 249.149 Q2079.43 249.983 2082.85 250.747 L2084.31 251.071 Q2088.85 252.043 2090.75 253.825 Q2092.67 255.585 2092.67 258.756 Q2092.67 262.367 2089.8 264.473 Q2086.95 266.58 2081.95 266.58 Q2079.87 266.58 2077.6 266.163 Q2075.35 265.77 2072.85 264.96 L2072.85 260.561 Q2075.21 261.788 2077.5 262.413 Q2079.8 263.015 2082.04 263.015 Q2085.05 263.015 2086.67 261.997 Q2088.29 260.955 2088.29 259.08 Q2088.29 257.344 2087.11 256.418 Q2085.95 255.492 2082 254.636 L2080.51 254.288 Q2076.56 253.455 2074.8 251.742 Q2073.04 250.006 2073.04 246.997 Q2073.04 243.339 2075.63 241.349 Q2078.22 239.358 2082.99 239.358 Q2085.35 239.358 2087.44 239.705 Q2089.52 240.052 2091.28 240.747 Z" fill="#000000" fill-rule="evenodd" fill-opacity="1" /><path clip-path="url(#clip640)" d="M2103.66 232.622 L2103.66 239.983 L2112.43 239.983 L2112.43 243.293 L2103.66 243.293 L2103.66 257.367 Q2103.66 260.538 2104.52 261.441 Q2105.4 262.344 2108.06 262.344 L2112.43 262.344 L2112.43 265.909 L2108.06 265.909 Q2103.13 265.909 2101.25 264.08 Q2099.38 262.228 2099.38 257.367 L2099.38 243.293 L2096.25 243.293 L2096.25 239.983 L2099.38 239.983 L2099.38 232.622 L2103.66 232.622 Z" fill="#000000" fill-rule="evenodd" fill-opacity="1" /><path clip-path="url(#clip640)" d="M2118.04 239.983 L2122.3 239.983 L2122.3 265.909 L2118.04 265.909 L2118.04 239.983 M2118.04 229.89 L2122.3 229.89 L2122.3 235.284 L2118.04 235.284 L2118.04 229.89 Z" fill="#000000" fill-rule="evenodd" fill-opacity="1" /><path clip-path="url(#clip640)" d="M2149.87 240.978 L2149.87 244.96 Q2148.06 243.964 2146.23 243.478 Q2144.43 242.969 2142.57 242.969 Q2138.43 242.969 2136.14 245.608 Q2133.85 248.224 2133.85 252.969 Q2133.85 257.714 2136.14 260.353 Q2138.43 262.969 2142.57 262.969 Q2144.43 262.969 2146.23 262.483 Q2148.06 261.973 2149.87 260.978 L2149.87 264.913 Q2148.08 265.747 2146.16 266.163 Q2144.26 266.58 2142.11 266.58 Q2136.25 266.58 2132.81 262.899 Q2129.36 259.219 2129.36 252.969 Q2129.36 246.626 2132.83 242.992 Q2136.32 239.358 2142.39 239.358 Q2144.36 239.358 2146.23 239.775 Q2148.11 240.168 2149.87 240.978 Z" fill="#000000" fill-rule="evenodd" fill-opacity="1" /><path clip-path="url(#clip640)" d="M2176.97 273.779 L2176.97 277.089 L2152.34 277.089 L2152.34 273.779 L2176.97 273.779 Z" fill="#000000" fill-rule="evenodd" fill-opacity="1" /><path clip-path="url(#clip640)" d="M2202.53 250.261 L2202.53 265.909 L2198.27 265.909 L2198.27 250.399 Q2198.27 246.719 2196.83 244.89 Q2195.4 243.062 2192.53 243.062 Q2189.08 243.062 2187.09 245.261 Q2185.1 247.46 2185.1 251.256 L2185.1 265.909 L2180.81 265.909 L2180.81 239.983 L2185.1 239.983 L2185.1 244.011 Q2186.62 241.673 2188.68 240.515 Q2190.77 239.358 2193.48 239.358 Q2197.94 239.358 2200.24 242.136 Q2202.53 244.89 2202.53 250.261 Z" fill="#000000" fill-rule="evenodd" fill-opacity="1" /><polyline clip-path="url(#clip640)" style="stroke:#009af9; stroke-linecap:butt; stroke-linejoin:round; stroke-width:4; stroke-opacity:1; fill:none" points="
  1809.09,300.469 1953.09,300.469 
  "/>
<path clip-path="url(#clip640)" d="M1977.09 283.189 L1981.76 283.189 L1981.76 317.749 L1977.09 317.749 L1977.09 283.189 Z" fill="#000000" fill-rule="evenodd" fill-opacity="1" /><path clip-path="url(#clip640)" d="M2012.44 302.101 L2012.44 317.749 L2008.18 317.749 L2008.18 302.239 Q2008.18 298.559 2006.74 296.73 Q2005.31 294.902 2002.44 294.902 Q1998.99 294.902 1997 297.101 Q1995 299.3 1995 303.096 L1995 317.749 L1990.72 317.749 L1990.72 291.823 L1995 291.823 L1995 295.851 Q1996.53 293.513 1998.59 292.355 Q2000.68 291.198 2003.38 291.198 Q2007.85 291.198 2010.14 293.976 Q2012.44 296.73 2012.44 302.101 Z" fill="#000000" fill-rule="evenodd" fill-opacity="1" /><path clip-path="url(#clip640)" d="M2025.14 284.462 L2025.14 291.823 L2033.92 291.823 L2033.92 295.133 L2025.14 295.133 L2025.14 309.207 Q2025.14 312.378 2026 313.281 Q2026.88 314.184 2029.54 314.184 L2033.92 314.184 L2033.92 317.749 L2029.54 317.749 Q2024.61 317.749 2022.74 315.92 Q2020.86 314.068 2020.86 309.207 L2020.86 295.133 L2017.74 295.133 L2017.74 291.823 L2020.86 291.823 L2020.86 284.462 L2025.14 284.462 Z" fill="#000000" fill-rule="evenodd" fill-opacity="1" /><path clip-path="url(#clip640)" d="M2061.69 303.721 L2061.69 305.804 L2042.11 305.804 Q2042.39 310.202 2044.75 312.517 Q2047.13 314.809 2051.37 314.809 Q2053.82 314.809 2056.12 314.207 Q2058.43 313.605 2060.7 312.401 L2060.7 316.429 Q2058.41 317.401 2056 317.911 Q2053.59 318.42 2051.12 318.42 Q2044.91 318.42 2041.28 314.809 Q2037.67 311.198 2037.67 305.04 Q2037.67 298.675 2041.09 294.948 Q2044.54 291.198 2050.38 291.198 Q2055.61 291.198 2058.64 294.577 Q2061.69 297.934 2061.69 303.721 M2057.44 302.471 Q2057.39 298.976 2055.47 296.892 Q2053.57 294.809 2050.42 294.809 Q2046.86 294.809 2044.7 296.823 Q2042.57 298.837 2042.25 302.494 L2057.44 302.471 Z" fill="#000000" fill-rule="evenodd" fill-opacity="1" /><path clip-path="url(#clip640)" d="M2083.71 295.804 Q2082.99 295.388 2082.13 295.202 Q2081.3 294.994 2080.28 294.994 Q2076.67 294.994 2074.73 297.355 Q2072.81 299.693 2072.81 304.091 L2072.81 317.749 L2068.52 317.749 L2068.52 291.823 L2072.81 291.823 L2072.81 295.851 Q2074.15 293.489 2076.3 292.355 Q2078.45 291.198 2081.53 291.198 Q2081.97 291.198 2082.5 291.267 Q2083.04 291.314 2083.69 291.429 L2083.71 295.804 Z" fill="#000000" fill-rule="evenodd" fill-opacity="1" /><path clip-path="url(#clip640)" d="M2101.3 281.73 L2101.3 285.272 L2097.23 285.272 Q2094.94 285.272 2094.03 286.198 Q2093.15 287.124 2093.15 289.531 L2093.15 291.823 L2100.17 291.823 L2100.17 295.133 L2093.15 295.133 L2093.15 317.749 L2088.87 317.749 L2088.87 295.133 L2084.8 295.133 L2084.8 291.823 L2088.87 291.823 L2088.87 290.017 Q2088.87 285.689 2090.88 283.721 Q2092.9 281.73 2097.27 281.73 L2101.3 281.73 Z" fill="#000000" fill-rule="evenodd" fill-opacity="1" /><path clip-path="url(#clip640)" d="M2116.65 304.716 Q2111.49 304.716 2109.5 305.897 Q2107.5 307.077 2107.5 309.925 Q2107.5 312.193 2108.99 313.536 Q2110.49 314.855 2113.06 314.855 Q2116.6 314.855 2118.73 312.355 Q2120.88 309.832 2120.88 305.665 L2120.88 304.716 L2116.65 304.716 M2125.14 302.957 L2125.14 317.749 L2120.88 317.749 L2120.88 313.813 Q2119.43 316.175 2117.25 317.309 Q2115.07 318.42 2111.93 318.42 Q2107.94 318.42 2105.58 316.198 Q2103.25 313.952 2103.25 310.202 Q2103.25 305.827 2106.16 303.605 Q2109.1 301.383 2114.91 301.383 L2120.88 301.383 L2120.88 300.966 Q2120.88 298.027 2118.94 296.429 Q2117.02 294.809 2113.52 294.809 Q2111.3 294.809 2109.19 295.341 Q2107.09 295.874 2105.14 296.939 L2105.14 293.003 Q2107.48 292.101 2109.68 291.661 Q2111.88 291.198 2113.96 291.198 Q2119.59 291.198 2122.37 294.114 Q2125.14 297.031 2125.14 302.957 Z" fill="#000000" fill-rule="evenodd" fill-opacity="1" /><path clip-path="url(#clip640)" d="M2152.57 292.818 L2152.57 296.8 Q2150.77 295.804 2148.94 295.318 Q2147.13 294.809 2145.28 294.809 Q2141.14 294.809 2138.85 297.448 Q2136.56 300.064 2136.56 304.809 Q2136.56 309.554 2138.85 312.193 Q2141.14 314.809 2145.28 314.809 Q2147.13 314.809 2148.94 314.323 Q2150.77 313.813 2152.57 312.818 L2152.57 316.753 Q2150.79 317.587 2148.87 318.003 Q2146.97 318.42 2144.82 318.42 Q2138.96 318.42 2135.51 314.739 Q2132.06 311.059 2132.06 304.809 Q2132.06 298.466 2135.54 294.832 Q2139.03 291.198 2145.1 291.198 Q2147.06 291.198 2148.94 291.615 Q2150.81 292.008 2152.57 292.818 Z" fill="#000000" fill-rule="evenodd" fill-opacity="1" /><path clip-path="url(#clip640)" d="M2182.16 303.721 L2182.16 305.804 L2162.57 305.804 Q2162.85 310.202 2165.21 312.517 Q2167.6 314.809 2171.83 314.809 Q2174.29 314.809 2176.58 314.207 Q2178.89 313.605 2181.16 312.401 L2181.16 316.429 Q2178.87 317.401 2176.46 317.911 Q2174.05 318.42 2171.58 318.42 Q2165.37 318.42 2161.74 314.809 Q2158.13 311.198 2158.13 305.04 Q2158.13 298.675 2161.56 294.948 Q2165 291.198 2170.84 291.198 Q2176.07 291.198 2179.1 294.577 Q2182.16 297.934 2182.16 303.721 M2177.9 302.471 Q2177.85 298.976 2175.93 296.892 Q2174.03 294.809 2170.88 294.809 Q2167.32 294.809 2165.17 296.823 Q2163.04 298.837 2162.71 302.494 L2177.9 302.471 Z" fill="#000000" fill-rule="evenodd" fill-opacity="1" /><path clip-path="url(#clip640)" d="M2208.85 325.619 L2208.85 328.929 L2184.22 328.929 L2184.22 325.619 L2208.85 325.619 Z" fill="#000000" fill-rule="evenodd" fill-opacity="1" /><path clip-path="url(#clip640)" d="M2234.4 302.101 L2234.4 317.749 L2230.14 317.749 L2230.14 302.239 Q2230.14 298.559 2228.71 296.73 Q2227.27 294.902 2224.4 294.902 Q2220.95 294.902 2218.96 297.101 Q2216.97 299.3 2216.97 303.096 L2216.97 317.749 L2212.69 317.749 L2212.69 291.823 L2216.97 291.823 L2216.97 295.851 Q2218.5 293.513 2220.56 292.355 Q2222.64 291.198 2225.35 291.198 Q2229.82 291.198 2232.11 293.976 Q2234.4 296.73 2234.4 302.101 Z" fill="#000000" fill-rule="evenodd" fill-opacity="1" /><polyline clip-path="url(#clip640)" style="stroke:#e26f46; stroke-linecap:butt; stroke-linejoin:round; stroke-width:4; stroke-opacity:1; fill:none" stroke-dasharray="16, 10" points="
  1809.09,352.309 1953.09,352.309 
  "/>
<path clip-path="url(#clip640)" d="M1977.09 335.029 L1983.38 335.029 L1998.71 363.941 L1998.71 335.029 L2003.25 335.029 L2003.25 369.589 L1996.95 369.589 L1981.63 340.677 L1981.63 369.589 L1977.09 369.589 L1977.09 335.029 Z" fill="#000000" fill-rule="evenodd" fill-opacity="1" /><path clip-path="url(#clip640)" d="M2011.93 359.357 L2011.93 343.663 L2016.19 343.663 L2016.19 359.195 Q2016.19 362.876 2017.62 364.728 Q2019.06 366.556 2021.93 366.556 Q2025.38 366.556 2027.37 364.357 Q2029.38 362.158 2029.38 358.362 L2029.38 343.663 L2033.64 343.663 L2033.64 369.589 L2029.38 369.589 L2029.38 365.607 Q2027.83 367.968 2025.77 369.126 Q2023.73 370.26 2021.02 370.26 Q2016.56 370.26 2014.24 367.482 Q2011.93 364.704 2011.93 359.357 M2022.64 343.038 L2022.64 343.038 Z" fill="#000000" fill-rule="evenodd" fill-opacity="1" /><path clip-path="url(#clip640)" d="M2046.63 336.302 L2046.63 343.663 L2055.4 343.663 L2055.4 346.973 L2046.63 346.973 L2046.63 361.047 Q2046.63 364.218 2047.48 365.121 Q2048.36 366.024 2051.02 366.024 L2055.4 366.024 L2055.4 369.589 L2051.02 369.589 Q2046.09 369.589 2044.22 367.76 Q2042.34 365.908 2042.34 361.047 L2042.34 346.973 L2039.22 346.973 L2039.22 343.663 L2042.34 343.663 L2042.34 336.302 L2046.63 336.302 Z" fill="#000000" fill-rule="evenodd" fill-opacity="1" /><path clip-path="url(#clip640)" d="M2076.02 347.644 Q2075.31 347.228 2074.45 347.042 Q2073.62 346.834 2072.6 346.834 Q2068.99 346.834 2067.04 349.195 Q2065.12 351.533 2065.12 355.931 L2065.12 369.589 L2060.84 369.589 L2060.84 343.663 L2065.12 343.663 L2065.12 347.691 Q2066.46 345.329 2068.62 344.195 Q2070.77 343.038 2073.85 343.038 Q2074.29 343.038 2074.82 343.107 Q2075.35 343.154 2076 343.269 L2076.02 347.644 Z" fill="#000000" fill-rule="evenodd" fill-opacity="1" /><path clip-path="url(#clip640)" d="M2080.49 343.663 L2084.75 343.663 L2084.75 369.589 L2080.49 369.589 L2080.49 343.663 M2080.49 333.57 L2084.75 333.57 L2084.75 338.964 L2080.49 338.964 L2080.49 333.57 Z" fill="#000000" fill-rule="evenodd" fill-opacity="1" /><path clip-path="url(#clip640)" d="M2115.84 355.561 L2115.84 357.644 L2096.25 357.644 Q2096.53 362.042 2098.89 364.357 Q2101.28 366.649 2105.51 366.649 Q2107.97 366.649 2110.26 366.047 Q2112.57 365.445 2114.84 364.241 L2114.84 368.269 Q2112.55 369.241 2110.14 369.751 Q2107.74 370.26 2105.26 370.26 Q2099.06 370.26 2095.42 366.649 Q2091.81 363.038 2091.81 356.88 Q2091.81 350.515 2095.24 346.788 Q2098.68 343.038 2104.52 343.038 Q2109.75 343.038 2112.78 346.417 Q2115.84 349.774 2115.84 355.561 M2111.58 354.311 Q2111.53 350.816 2109.61 348.732 Q2107.71 346.649 2104.56 346.649 Q2101 346.649 2098.85 348.663 Q2096.72 350.677 2096.39 354.334 L2111.58 354.311 Z" fill="#000000" fill-rule="evenodd" fill-opacity="1" /><path clip-path="url(#clip640)" d="M2144.38 353.941 L2144.38 369.589 L2140.12 369.589 L2140.12 354.079 Q2140.12 350.399 2138.68 348.57 Q2137.25 346.742 2134.38 346.742 Q2130.93 346.742 2128.94 348.941 Q2126.95 351.14 2126.95 354.936 L2126.95 369.589 L2122.67 369.589 L2122.67 343.663 L2126.95 343.663 L2126.95 347.691 Q2128.48 345.353 2130.54 344.195 Q2132.62 343.038 2135.33 343.038 Q2139.8 343.038 2142.09 345.816 Q2144.38 348.57 2144.38 353.941 Z" fill="#000000" fill-rule="evenodd" fill-opacity="1" /><path clip-path="url(#clip640)" d="M2157.09 336.302 L2157.09 343.663 L2165.86 343.663 L2165.86 346.973 L2157.09 346.973 L2157.09 361.047 Q2157.09 364.218 2157.94 365.121 Q2158.82 366.024 2161.49 366.024 L2165.86 366.024 L2165.86 369.589 L2161.49 369.589 Q2156.56 369.589 2154.68 367.76 Q2152.81 365.908 2152.81 361.047 L2152.81 346.973 L2149.68 346.973 L2149.68 343.663 L2152.81 343.663 L2152.81 336.302 L2157.09 336.302 Z" fill="#000000" fill-rule="evenodd" fill-opacity="1" /><polyline clip-path="url(#clip640)" style="stroke:#009af9; stroke-linecap:butt; stroke-linejoin:round; stroke-width:4; stroke-opacity:1; fill:none" stroke-dasharray="16, 10" points="
  1809.09,404.149 1953.09,404.149 
  "/>
<path clip-path="url(#clip640)" d="M1977.09 386.869 L1981.76 386.869 L1981.76 421.429 L1977.09 421.429 L1977.09 386.869 Z" fill="#000000" fill-rule="evenodd" fill-opacity="1" /><path clip-path="url(#clip640)" d="M2012.44 405.781 L2012.44 421.429 L2008.18 421.429 L2008.18 405.919 Q2008.18 402.239 2006.74 400.41 Q2005.31 398.582 2002.44 398.582 Q1998.99 398.582 1997 400.781 Q1995 402.98 1995 406.776 L1995 421.429 L1990.72 421.429 L1990.72 395.503 L1995 395.503 L1995 399.531 Q1996.53 397.193 1998.59 396.035 Q2000.68 394.878 2003.38 394.878 Q2007.85 394.878 2010.14 397.656 Q2012.44 400.41 2012.44 405.781 Z" fill="#000000" fill-rule="evenodd" fill-opacity="1" /><path clip-path="url(#clip640)" d="M2025.14 388.142 L2025.14 395.503 L2033.92 395.503 L2033.92 398.813 L2025.14 398.813 L2025.14 412.887 Q2025.14 416.058 2026 416.961 Q2026.88 417.864 2029.54 417.864 L2033.92 417.864 L2033.92 421.429 L2029.54 421.429 Q2024.61 421.429 2022.74 419.6 Q2020.86 417.748 2020.86 412.887 L2020.86 398.813 L2017.74 398.813 L2017.74 395.503 L2020.86 395.503 L2020.86 388.142 L2025.14 388.142 Z" fill="#000000" fill-rule="evenodd" fill-opacity="1" /><path clip-path="url(#clip640)" d="M2061.69 407.401 L2061.69 409.484 L2042.11 409.484 Q2042.39 413.882 2044.75 416.197 Q2047.13 418.489 2051.37 418.489 Q2053.82 418.489 2056.12 417.887 Q2058.43 417.285 2060.7 416.081 L2060.7 420.109 Q2058.41 421.081 2056 421.591 Q2053.59 422.1 2051.12 422.1 Q2044.91 422.1 2041.28 418.489 Q2037.67 414.878 2037.67 408.72 Q2037.67 402.355 2041.09 398.628 Q2044.54 394.878 2050.38 394.878 Q2055.61 394.878 2058.64 398.257 Q2061.69 401.614 2061.69 407.401 M2057.44 406.151 Q2057.39 402.656 2055.47 400.572 Q2053.57 398.489 2050.42 398.489 Q2046.86 398.489 2044.7 400.503 Q2042.57 402.517 2042.25 406.174 L2057.44 406.151 Z" fill="#000000" fill-rule="evenodd" fill-opacity="1" /><path clip-path="url(#clip640)" d="M2083.71 399.484 Q2082.99 399.068 2082.13 398.882 Q2081.3 398.674 2080.28 398.674 Q2076.67 398.674 2074.73 401.035 Q2072.81 403.373 2072.81 407.771 L2072.81 421.429 L2068.52 421.429 L2068.52 395.503 L2072.81 395.503 L2072.81 399.531 Q2074.15 397.169 2076.3 396.035 Q2078.45 394.878 2081.53 394.878 Q2081.97 394.878 2082.5 394.947 Q2083.04 394.994 2083.69 395.109 L2083.71 399.484 Z" fill="#000000" fill-rule="evenodd" fill-opacity="1" /><path clip-path="url(#clip640)" d="M2101.3 385.41 L2101.3 388.952 L2097.23 388.952 Q2094.94 388.952 2094.03 389.878 Q2093.15 390.804 2093.15 393.211 L2093.15 395.503 L2100.17 395.503 L2100.17 398.813 L2093.15 398.813 L2093.15 421.429 L2088.87 421.429 L2088.87 398.813 L2084.8 398.813 L2084.8 395.503 L2088.87 395.503 L2088.87 393.697 Q2088.87 389.369 2090.88 387.401 Q2092.9 385.41 2097.27 385.41 L2101.3 385.41 Z" fill="#000000" fill-rule="evenodd" fill-opacity="1" /><path clip-path="url(#clip640)" d="M2116.65 408.396 Q2111.49 408.396 2109.5 409.577 Q2107.5 410.757 2107.5 413.605 Q2107.5 415.873 2108.99 417.216 Q2110.49 418.535 2113.06 418.535 Q2116.6 418.535 2118.73 416.035 Q2120.88 413.512 2120.88 409.345 L2120.88 408.396 L2116.65 408.396 M2125.14 406.637 L2125.14 421.429 L2120.88 421.429 L2120.88 417.493 Q2119.43 419.855 2117.25 420.989 Q2115.07 422.1 2111.93 422.1 Q2107.94 422.1 2105.58 419.878 Q2103.25 417.632 2103.25 413.882 Q2103.25 409.507 2106.16 407.285 Q2109.1 405.063 2114.91 405.063 L2120.88 405.063 L2120.88 404.646 Q2120.88 401.707 2118.94 400.109 Q2117.02 398.489 2113.52 398.489 Q2111.3 398.489 2109.19 399.021 Q2107.09 399.554 2105.14 400.619 L2105.14 396.683 Q2107.48 395.781 2109.68 395.341 Q2111.88 394.878 2113.96 394.878 Q2119.59 394.878 2122.37 397.794 Q2125.14 400.711 2125.14 406.637 Z" fill="#000000" fill-rule="evenodd" fill-opacity="1" /><path clip-path="url(#clip640)" d="M2152.57 396.498 L2152.57 400.48 Q2150.77 399.484 2148.94 398.998 Q2147.13 398.489 2145.28 398.489 Q2141.14 398.489 2138.85 401.128 Q2136.56 403.744 2136.56 408.489 Q2136.56 413.234 2138.85 415.873 Q2141.14 418.489 2145.28 418.489 Q2147.13 418.489 2148.94 418.003 Q2150.77 417.493 2152.57 416.498 L2152.57 420.433 Q2150.79 421.267 2148.87 421.683 Q2146.97 422.1 2144.82 422.1 Q2138.96 422.1 2135.51 418.419 Q2132.06 414.739 2132.06 408.489 Q2132.06 402.146 2135.54 398.512 Q2139.03 394.878 2145.1 394.878 Q2147.06 394.878 2148.94 395.295 Q2150.81 395.688 2152.57 396.498 Z" fill="#000000" fill-rule="evenodd" fill-opacity="1" /><path clip-path="url(#clip640)" d="M2182.16 407.401 L2182.16 409.484 L2162.57 409.484 Q2162.85 413.882 2165.21 416.197 Q2167.6 418.489 2171.83 418.489 Q2174.29 418.489 2176.58 417.887 Q2178.89 417.285 2181.16 416.081 L2181.16 420.109 Q2178.87 421.081 2176.46 421.591 Q2174.05 422.1 2171.58 422.1 Q2165.37 422.1 2161.74 418.489 Q2158.13 414.878 2158.13 408.72 Q2158.13 402.355 2161.56 398.628 Q2165 394.878 2170.84 394.878 Q2176.07 394.878 2179.1 398.257 Q2182.16 401.614 2182.16 407.401 M2177.9 406.151 Q2177.85 402.656 2175.93 400.572 Q2174.03 398.489 2170.88 398.489 Q2167.32 398.489 2165.17 400.503 Q2163.04 402.517 2162.71 406.174 L2177.9 406.151 Z" fill="#000000" fill-rule="evenodd" fill-opacity="1" /></svg>
