<?xml version="1.0" encoding="utf-8"?>
<svg xmlns="http://www.w3.org/2000/svg" xmlns:xlink="http://www.w3.org/1999/xlink" width="600" height="400" viewBox="0 0 2400 1600">
<defs>
  <clipPath id="clip400">
    <rect x="0" y="0" width="2400" height="1600"/>
  </clipPath>
</defs>
<path clip-path="url(#clip400)" d="
M0 1600 L2400 1600 L2400 0 L0 0  Z
  " fill="#ffffff" fill-rule="evenodd" fill-opacity="1"/>
<defs>
  <clipPath id="clip401">
    <rect x="480" y="0" width="1681" height="1600"/>
  </clipPath>
</defs>
<path clip-path="url(#clip400)" d="
M156.598 1486.45 L2352.76 1486.45 L2352.76 47.2441 L156.598 47.2441  Z
  " fill="#ffffff" fill-rule="evenodd" fill-opacity="1"/>
<defs>
  <clipPath id="clip402">
    <rect x="156" y="47" width="2197" height="1440"/>
  </clipPath>
</defs>
<polyline clip-path="url(#clip402)" style="stroke:#000000; stroke-linecap:butt; stroke-linejoin:round; stroke-width:2; stroke-opacity:0.1; fill:none" points="
  195.87,1486.45 195.87,47.2441 
  "/>
<polyline clip-path="url(#clip402)" style="stroke:#000000; stroke-linecap:butt; stroke-linejoin:round; stroke-width:2; stroke-opacity:0.1; fill:none" points="
  635.939,1486.45 635.939,47.2441 
  "/>
<polyline clip-path="url(#clip402)" style="stroke:#000000; stroke-linecap:butt; stroke-linejoin:round; stroke-width:2; stroke-opacity:0.1; fill:none" points="
  1076.01,1486.45 1076.01,47.2441 
  "/>
<polyline clip-path="url(#clip402)" style="stroke:#000000; stroke-linecap:butt; stroke-linejoin:round; stroke-width:2; stroke-opacity:0.1; fill:none" points="
  1516.08,1486.45 1516.08,47.2441 
  "/>
<polyline clip-path="url(#clip402)" style="stroke:#000000; stroke-linecap:butt; stroke-linejoin:round; stroke-width:2; stroke-opacity:0.1; fill:none" points="
  1956.15,1486.45 1956.15,47.2441 
  "/>
<polyline clip-path="url(#clip400)" style="stroke:#000000; stroke-linecap:butt; stroke-linejoin:round; stroke-width:4; stroke-opacity:1; fill:none" points="
  156.598,1486.45 2352.76,1486.45 
  "/>
<polyline clip-path="url(#clip400)" style="stroke:#000000; stroke-linecap:butt; stroke-linejoin:round; stroke-width:4; stroke-opacity:1; fill:none" points="
  195.87,1486.45 195.87,1467.55 
  "/>
<polyline clip-path="url(#clip400)" style="stroke:#000000; stroke-linecap:butt; stroke-linejoin:round; stroke-width:4; stroke-opacity:1; fill:none" points="
  635.939,1486.45 635.939,1467.55 
  "/>
<polyline clip-path="url(#clip400)" style="stroke:#000000; stroke-linecap:butt; stroke-linejoin:round; stroke-width:4; stroke-opacity:1; fill:none" points="
  1076.01,1486.45 1076.01,1467.55 
  "/>
<polyline clip-path="url(#clip400)" style="stroke:#000000; stroke-linecap:butt; stroke-linejoin:round; stroke-width:4; stroke-opacity:1; fill:none" points="
  1516.08,1486.45 1516.08,1467.55 
  "/>
<polyline clip-path="url(#clip400)" style="stroke:#000000; stroke-linecap:butt; stroke-linejoin:round; stroke-width:4; stroke-opacity:1; fill:none" points="
  1956.15,1486.45 1956.15,1467.55 
  "/>
<path clip-path="url(#clip400)" d="M195.87 1517.37 Q192.259 1517.37 190.43 1520.93 Q188.625 1524.47 188.625 1531.6 Q188.625 1538.71 190.43 1542.27 Q192.259 1545.82 195.87 1545.82 Q199.504 1545.82 201.31 1542.27 Q203.139 1538.71 203.139 1531.6 Q203.139 1524.47 201.31 1520.93 Q199.504 1517.37 195.87 1517.37 M195.87 1513.66 Q201.68 1513.66 204.736 1518.27 Q207.814 1522.85 207.814 1531.6 Q207.814 1540.33 204.736 1544.94 Q201.68 1549.52 195.87 1549.52 Q190.06 1549.52 186.981 1544.94 Q183.926 1540.33 183.926 1531.6 Q183.926 1522.85 186.981 1518.27 Q190.06 1513.66 195.87 1513.66 Z" fill="#000000" fill-rule="evenodd" fill-opacity="1" /><path clip-path="url(#clip400)" d="M610.627 1544.91 L618.266 1544.91 L618.266 1518.55 L609.956 1520.21 L609.956 1515.95 L618.22 1514.29 L622.896 1514.29 L622.896 1544.91 L630.534 1544.91 L630.534 1548.85 L610.627 1548.85 L610.627 1544.91 Z" fill="#000000" fill-rule="evenodd" fill-opacity="1" /><path clip-path="url(#clip400)" d="M649.979 1517.37 Q646.368 1517.37 644.539 1520.93 Q642.733 1524.47 642.733 1531.6 Q642.733 1538.71 644.539 1542.27 Q646.368 1545.82 649.979 1545.82 Q653.613 1545.82 655.419 1542.27 Q657.247 1538.71 657.247 1531.6 Q657.247 1524.47 655.419 1520.93 Q653.613 1517.37 649.979 1517.37 M649.979 1513.66 Q655.789 1513.66 658.844 1518.27 Q661.923 1522.85 661.923 1531.6 Q661.923 1540.33 658.844 1544.94 Q655.789 1549.52 649.979 1549.52 Q644.169 1549.52 641.09 1544.94 Q638.034 1540.33 638.034 1531.6 Q638.034 1522.85 641.09 1518.27 Q644.169 1513.66 649.979 1513.66 Z" fill="#000000" fill-rule="evenodd" fill-opacity="1" /><path clip-path="url(#clip400)" d="M1054.78 1544.91 L1071.1 1544.91 L1071.1 1548.85 L1049.16 1548.85 L1049.16 1544.91 Q1051.82 1542.16 1056.4 1537.53 Q1061.01 1532.88 1062.19 1531.53 Q1064.43 1529.01 1065.31 1527.27 Q1066.22 1525.51 1066.22 1523.82 Q1066.22 1521.07 1064.27 1519.33 Q1062.35 1517.6 1059.25 1517.6 Q1057.05 1517.6 1054.6 1518.36 Q1052.17 1519.13 1049.39 1520.68 L1049.39 1515.95 Q1052.21 1514.82 1054.67 1514.24 Q1057.12 1513.66 1059.16 1513.66 Q1064.53 1513.66 1067.72 1516.35 Q1070.92 1519.03 1070.92 1523.52 Q1070.92 1525.65 1070.11 1527.57 Q1069.32 1529.47 1067.21 1532.07 Q1066.63 1532.74 1063.53 1535.95 Q1060.43 1539.15 1054.78 1544.91 Z" fill="#000000" fill-rule="evenodd" fill-opacity="1" /><path clip-path="url(#clip400)" d="M1090.92 1517.37 Q1087.31 1517.37 1085.48 1520.93 Q1083.67 1524.47 1083.67 1531.6 Q1083.67 1538.71 1085.48 1542.27 Q1087.31 1545.82 1090.92 1545.82 Q1094.55 1545.82 1096.36 1542.27 Q1098.18 1538.71 1098.18 1531.6 Q1098.18 1524.47 1096.36 1520.93 Q1094.55 1517.37 1090.92 1517.37 M1090.92 1513.66 Q1096.73 1513.66 1099.78 1518.27 Q1102.86 1522.85 1102.86 1531.6 Q1102.86 1540.33 1099.78 1544.94 Q1096.73 1549.52 1090.92 1549.52 Q1085.11 1549.52 1082.03 1544.94 Q1078.97 1540.33 1078.97 1531.6 Q1078.97 1522.85 1082.03 1518.27 Q1085.11 1513.66 1090.92 1513.66 Z" fill="#000000" fill-rule="evenodd" fill-opacity="1" /><path clip-path="url(#clip400)" d="M1504.92 1530.21 Q1508.28 1530.93 1510.15 1533.2 Q1512.05 1535.47 1512.05 1538.8 Q1512.05 1543.92 1508.53 1546.72 Q1505.01 1549.52 1498.53 1549.52 Q1496.36 1549.52 1494.04 1549.08 Q1491.75 1548.66 1489.3 1547.81 L1489.3 1543.29 Q1491.24 1544.43 1493.56 1545.01 Q1495.87 1545.58 1498.39 1545.58 Q1502.79 1545.58 1505.08 1543.85 Q1507.4 1542.11 1507.4 1538.8 Q1507.4 1535.75 1505.25 1534.03 Q1503.12 1532.3 1499.3 1532.3 L1495.27 1532.3 L1495.27 1528.45 L1499.48 1528.45 Q1502.93 1528.45 1504.76 1527.09 Q1506.59 1525.7 1506.59 1523.11 Q1506.59 1520.45 1504.69 1519.03 Q1502.81 1517.6 1499.3 1517.6 Q1497.37 1517.6 1495.18 1518.01 Q1492.98 1518.43 1490.34 1519.31 L1490.34 1515.14 Q1493 1514.4 1495.31 1514.03 Q1497.65 1513.66 1499.71 1513.66 Q1505.04 1513.66 1508.14 1516.09 Q1511.24 1518.5 1511.24 1522.62 Q1511.24 1525.49 1509.6 1527.48 Q1507.95 1529.45 1504.92 1530.21 Z" fill="#000000" fill-rule="evenodd" fill-opacity="1" /><path clip-path="url(#clip400)" d="M1530.92 1517.37 Q1527.31 1517.37 1525.48 1520.93 Q1523.67 1524.47 1523.67 1531.6 Q1523.67 1538.71 1525.48 1542.27 Q1527.31 1545.82 1530.92 1545.82 Q1534.55 1545.82 1536.36 1542.27 Q1538.18 1538.71 1538.18 1531.6 Q1538.18 1524.47 1536.36 1520.93 Q1534.55 1517.37 1530.92 1517.37 M1530.92 1513.66 Q1536.73 1513.66 1539.78 1518.27 Q1542.86 1522.85 1542.86 1531.6 Q1542.86 1540.33 1539.78 1544.94 Q1536.73 1549.52 1530.92 1549.52 Q1525.11 1549.52 1522.03 1544.94 Q1518.97 1540.33 1518.97 1531.6 Q1518.97 1522.85 1522.03 1518.27 Q1525.11 1513.66 1530.92 1513.66 Z" fill="#000000" fill-rule="evenodd" fill-opacity="1" /><path clip-path="url(#clip400)" d="M1944.32 1518.36 L1932.51 1536.81 L1944.32 1536.81 L1944.32 1518.36 M1943.09 1514.29 L1948.97 1514.29 L1948.97 1536.81 L1953.9 1536.81 L1953.9 1540.7 L1948.97 1540.7 L1948.97 1548.85 L1944.32 1548.85 L1944.32 1540.7 L1928.72 1540.7 L1928.72 1536.19 L1943.09 1514.29 Z" fill="#000000" fill-rule="evenodd" fill-opacity="1" /><path clip-path="url(#clip400)" d="M1971.63 1517.37 Q1968.02 1517.37 1966.19 1520.93 Q1964.39 1524.47 1964.39 1531.6 Q1964.39 1538.71 1966.19 1542.27 Q1968.02 1545.82 1971.63 1545.82 Q1975.27 1545.82 1977.07 1542.27 Q1978.9 1538.71 1978.9 1531.6 Q1978.9 1524.47 1977.07 1520.93 Q1975.27 1517.37 1971.63 1517.37 M1971.63 1513.66 Q1977.44 1513.66 1980.5 1518.27 Q1983.58 1522.85 1983.58 1531.6 Q1983.58 1540.33 1980.5 1544.94 Q1977.44 1549.52 1971.63 1549.52 Q1965.82 1549.52 1962.74 1544.94 Q1959.69 1540.33 1959.69 1531.6 Q1959.69 1522.85 1962.74 1518.27 Q1965.82 1513.66 1971.63 1513.66 Z" fill="#000000" fill-rule="evenodd" fill-opacity="1" /><polyline clip-path="url(#clip402)" style="stroke:#000000; stroke-linecap:butt; stroke-linejoin:round; stroke-width:2; stroke-opacity:0.1; fill:none" points="
  156.598,1486.45 2352.76,1486.45 
  "/>
<polyline clip-path="url(#clip402)" style="stroke:#000000; stroke-linecap:butt; stroke-linejoin:round; stroke-width:2; stroke-opacity:0.1; fill:none" points="
  156.598,1198.61 2352.76,1198.61 
  "/>
<polyline clip-path="url(#clip402)" style="stroke:#000000; stroke-linecap:butt; stroke-linejoin:round; stroke-width:2; stroke-opacity:0.1; fill:none" points="
  156.598,910.766 2352.76,910.766 
  "/>
<polyline clip-path="url(#clip402)" style="stroke:#000000; stroke-linecap:butt; stroke-linejoin:round; stroke-width:2; stroke-opacity:0.1; fill:none" points="
  156.598,622.926 2352.76,622.926 
  "/>
<polyline clip-path="url(#clip402)" style="stroke:#000000; stroke-linecap:butt; stroke-linejoin:round; stroke-width:2; stroke-opacity:0.1; fill:none" points="
  156.598,335.085 2352.76,335.085 
  "/>
<polyline clip-path="url(#clip402)" style="stroke:#000000; stroke-linecap:butt; stroke-linejoin:round; stroke-width:2; stroke-opacity:0.1; fill:none" points="
  156.598,47.2441 2352.76,47.2441 
  "/>
<polyline clip-path="url(#clip400)" style="stroke:#000000; stroke-linecap:butt; stroke-linejoin:round; stroke-width:4; stroke-opacity:1; fill:none" points="
  156.598,1486.45 156.598,47.2441 
  "/>
<polyline clip-path="url(#clip400)" style="stroke:#000000; stroke-linecap:butt; stroke-linejoin:round; stroke-width:4; stroke-opacity:1; fill:none" points="
  156.598,1486.45 175.496,1486.45 
  "/>
<polyline clip-path="url(#clip400)" style="stroke:#000000; stroke-linecap:butt; stroke-linejoin:round; stroke-width:4; stroke-opacity:1; fill:none" points="
  156.598,1198.61 175.496,1198.61 
  "/>
<polyline clip-path="url(#clip400)" style="stroke:#000000; stroke-linecap:butt; stroke-linejoin:round; stroke-width:4; stroke-opacity:1; fill:none" points="
  156.598,910.766 175.496,910.766 
  "/>
<polyline clip-path="url(#clip400)" style="stroke:#000000; stroke-linecap:butt; stroke-linejoin:round; stroke-width:4; stroke-opacity:1; fill:none" points="
  156.598,622.926 175.496,622.926 
  "/>
<polyline clip-path="url(#clip400)" style="stroke:#000000; stroke-linecap:butt; stroke-linejoin:round; stroke-width:4; stroke-opacity:1; fill:none" points="
  156.598,335.085 175.496,335.085 
  "/>
<polyline clip-path="url(#clip400)" style="stroke:#000000; stroke-linecap:butt; stroke-linejoin:round; stroke-width:4; stroke-opacity:1; fill:none" points="
  156.598,47.2441 175.496,47.2441 
  "/>
<path clip-path="url(#clip400)" d="M63.4226 1472.25 Q59.8115 1472.25 57.9828 1475.81 Q56.1773 1479.35 56.1773 1486.48 Q56.1773 1493.59 57.9828 1497.15 Q59.8115 1500.7 63.4226 1500.7 Q67.0569 1500.7 68.8624 1497.15 Q70.6911 1493.59 70.6911 1486.48 Q70.6911 1479.35 68.8624 1475.81 Q67.0569 1472.25 63.4226 1472.25 M63.4226 1468.54 Q69.2328 1468.54 72.2883 1473.15 Q75.367 1477.73 75.367 1486.48 Q75.367 1495.21 72.2883 1499.82 Q69.2328 1504.4 63.4226 1504.4 Q57.6125 1504.4 54.5338 1499.82 Q51.4782 1495.21 51.4782 1486.48 Q51.4782 1477.73 54.5338 1473.15 Q57.6125 1468.54 63.4226 1468.54 Z" fill="#000000" fill-rule="evenodd" fill-opacity="1" /><path clip-path="url(#clip400)" d="M83.5845 1497.85 L88.4688 1497.85 L88.4688 1503.73 L83.5845 1503.73 L83.5845 1497.85 Z" fill="#000000" fill-rule="evenodd" fill-opacity="1" /><path clip-path="url(#clip400)" d="M108.654 1472.25 Q105.043 1472.25 103.214 1475.81 Q101.409 1479.35 101.409 1486.48 Q101.409 1493.59 103.214 1497.15 Q105.043 1500.7 108.654 1500.7 Q112.288 1500.7 114.094 1497.15 Q115.922 1493.59 115.922 1486.48 Q115.922 1479.35 114.094 1475.81 Q112.288 1472.25 108.654 1472.25 M108.654 1468.54 Q114.464 1468.54 117.52 1473.15 Q120.598 1477.73 120.598 1486.48 Q120.598 1495.21 117.52 1499.82 Q114.464 1504.4 108.654 1504.4 Q102.844 1504.4 99.765 1499.82 Q96.7095 1495.21 96.7095 1486.48 Q96.7095 1477.73 99.765 1473.15 Q102.844 1468.54 108.654 1468.54 Z" fill="#000000" fill-rule="evenodd" fill-opacity="1" /><path clip-path="url(#clip400)" d="M65.0198 1184.41 Q61.4087 1184.41 59.58 1187.97 Q57.7745 1191.51 57.7745 1198.64 Q57.7745 1205.75 59.58 1209.31 Q61.4087 1212.85 65.0198 1212.85 Q68.6541 1212.85 70.4596 1209.31 Q72.2883 1205.75 72.2883 1198.64 Q72.2883 1191.51 70.4596 1187.97 Q68.6541 1184.41 65.0198 1184.41 M65.0198 1180.7 Q70.83 1180.7 73.8855 1185.31 Q76.9642 1189.89 76.9642 1198.64 Q76.9642 1207.37 73.8855 1211.98 Q70.83 1216.56 65.0198 1216.56 Q59.2097 1216.56 56.131 1211.98 Q53.0754 1207.37 53.0754 1198.64 Q53.0754 1189.89 56.131 1185.31 Q59.2097 1180.7 65.0198 1180.7 Z" fill="#000000" fill-rule="evenodd" fill-opacity="1" /><path clip-path="url(#clip400)" d="M85.1818 1210.01 L90.066 1210.01 L90.066 1215.89 L85.1818 1215.89 L85.1818 1210.01 Z" fill="#000000" fill-rule="evenodd" fill-opacity="1" /><path clip-path="url(#clip400)" d="M104.279 1211.95 L120.598 1211.95 L120.598 1215.89 L98.6539 1215.89 L98.6539 1211.95 Q101.316 1209.2 105.899 1204.57 Q110.506 1199.91 111.686 1198.57 Q113.932 1196.05 114.811 1194.31 Q115.714 1192.55 115.714 1190.86 Q115.714 1188.11 113.77 1186.37 Q111.848 1184.64 108.746 1184.64 Q106.547 1184.64 104.094 1185.4 Q101.663 1186.17 98.8854 1187.72 L98.8854 1182.99 Q101.709 1181.86 104.163 1181.28 Q106.617 1180.7 108.654 1180.7 Q114.024 1180.7 117.219 1183.39 Q120.413 1186.07 120.413 1190.56 Q120.413 1192.69 119.603 1194.61 Q118.816 1196.51 116.709 1199.1 Q116.131 1199.78 113.029 1202.99 Q109.927 1206.19 104.279 1211.95 Z" fill="#000000" fill-rule="evenodd" fill-opacity="1" /><path clip-path="url(#clip400)" d="M62.9365 896.565 Q59.3254 896.565 57.4967 900.13 Q55.6912 903.671 55.6912 910.801 Q55.6912 917.908 57.4967 921.472 Q59.3254 925.014 62.9365 925.014 Q66.5707 925.014 68.3763 921.472 Q70.205 917.908 70.205 910.801 Q70.205 903.671 68.3763 900.13 Q66.5707 896.565 62.9365 896.565 M62.9365 892.861 Q68.7467 892.861 71.8022 897.468 Q74.8809 902.051 74.8809 910.801 Q74.8809 919.528 71.8022 924.134 Q68.7467 928.718 62.9365 928.718 Q57.1264 928.718 54.0477 924.134 Q50.9921 919.528 50.9921 910.801 Q50.9921 902.051 54.0477 897.468 Q57.1264 892.861 62.9365 892.861 Z" fill="#000000" fill-rule="evenodd" fill-opacity="1" /><path clip-path="url(#clip400)" d="M83.0984 922.167 L87.9827 922.167 L87.9827 928.046 L83.0984 928.046 L83.0984 922.167 Z" fill="#000000" fill-rule="evenodd" fill-opacity="1" /><path clip-path="url(#clip400)" d="M111.015 897.56 L99.2095 916.009 L111.015 916.009 L111.015 897.56 M109.788 893.486 L115.668 893.486 L115.668 916.009 L120.598 916.009 L120.598 919.898 L115.668 919.898 L115.668 928.046 L111.015 928.046 L111.015 919.898 L95.4132 919.898 L95.4132 915.384 L109.788 893.486 Z" fill="#000000" fill-rule="evenodd" fill-opacity="1" /><path clip-path="url(#clip400)" d="M63.2606 608.724 Q59.6495 608.724 57.8208 612.289 Q56.0152 615.831 56.0152 622.96 Q56.0152 630.067 57.8208 633.632 Q59.6495 637.173 63.2606 637.173 Q66.8948 637.173 68.7004 633.632 Q70.5291 630.067 70.5291 622.96 Q70.5291 615.831 68.7004 612.289 Q66.8948 608.724 63.2606 608.724 M63.2606 605.021 Q69.0707 605.021 72.1263 609.627 Q75.205 614.21 75.205 622.96 Q75.205 631.687 72.1263 636.294 Q69.0707 640.877 63.2606 640.877 Q57.4504 640.877 54.3717 636.294 Q51.3162 631.687 51.3162 622.96 Q51.3162 614.21 54.3717 609.627 Q57.4504 605.021 63.2606 605.021 Z" fill="#000000" fill-rule="evenodd" fill-opacity="1" /><path clip-path="url(#clip400)" d="M83.4225 634.326 L88.3067 634.326 L88.3067 640.206 L83.4225 640.206 L83.4225 634.326 Z" fill="#000000" fill-rule="evenodd" fill-opacity="1" /><path clip-path="url(#clip400)" d="M109.071 621.062 Q105.922 621.062 104.071 623.215 Q102.242 625.368 102.242 629.118 Q102.242 632.845 104.071 635.02 Q105.922 637.173 109.071 637.173 Q112.219 637.173 114.047 635.02 Q115.899 632.845 115.899 629.118 Q115.899 625.368 114.047 623.215 Q112.219 621.062 109.071 621.062 M118.353 606.409 L118.353 610.669 Q116.594 609.835 114.788 609.396 Q113.006 608.956 111.246 608.956 Q106.617 608.956 104.163 612.081 Q101.733 615.206 101.385 621.525 Q102.751 619.511 104.811 618.446 Q106.871 617.359 109.348 617.359 Q114.557 617.359 117.566 620.53 Q120.598 623.678 120.598 629.118 Q120.598 634.442 117.45 637.659 Q114.302 640.877 109.071 640.877 Q103.075 640.877 99.9039 636.294 Q96.7326 631.687 96.7326 622.96 Q96.7326 614.766 100.621 609.905 Q104.51 605.021 111.061 605.021 Q112.82 605.021 114.603 605.368 Q116.408 605.715 118.353 606.409 Z" fill="#000000" fill-rule="evenodd" fill-opacity="1" /><path clip-path="url(#clip400)" d="M63.5152 320.884 Q59.9041 320.884 58.0754 324.448 Q56.2699 327.99 56.2699 335.12 Q56.2699 342.226 58.0754 345.791 Q59.9041 349.332 63.5152 349.332 Q67.1494 349.332 68.955 345.791 Q70.7837 342.226 70.7837 335.12 Q70.7837 327.99 68.955 324.448 Q67.1494 320.884 63.5152 320.884 M63.5152 317.18 Q69.3254 317.18 72.3809 321.786 Q75.4596 326.37 75.4596 335.12 Q75.4596 343.846 72.3809 348.453 Q69.3254 353.036 63.5152 353.036 Q57.7051 353.036 54.6264 348.453 Q51.5708 343.846 51.5708 335.12 Q51.5708 326.37 54.6264 321.786 Q57.7051 317.18 63.5152 317.18 Z" fill="#000000" fill-rule="evenodd" fill-opacity="1" /><path clip-path="url(#clip400)" d="M83.6771 346.485 L88.5614 346.485 L88.5614 352.365 L83.6771 352.365 L83.6771 346.485 Z" fill="#000000" fill-rule="evenodd" fill-opacity="1" /><path clip-path="url(#clip400)" d="M108.746 335.953 Q105.413 335.953 103.492 337.735 Q101.594 339.518 101.594 342.643 Q101.594 345.768 103.492 347.55 Q105.413 349.332 108.746 349.332 Q112.08 349.332 114.001 347.55 Q115.922 345.745 115.922 342.643 Q115.922 339.518 114.001 337.735 Q112.103 335.953 108.746 335.953 M104.071 333.962 Q101.061 333.221 99.3715 331.161 Q97.7048 329.101 97.7048 326.138 Q97.7048 321.995 100.645 319.587 Q103.608 317.18 108.746 317.18 Q113.908 317.18 116.848 319.587 Q119.788 321.995 119.788 326.138 Q119.788 329.101 118.098 331.161 Q116.432 333.221 113.445 333.962 Q116.825 334.749 118.7 337.041 Q120.598 339.333 120.598 342.643 Q120.598 347.666 117.52 350.351 Q114.464 353.036 108.746 353.036 Q103.029 353.036 99.9502 350.351 Q96.8947 347.666 96.8947 342.643 Q96.8947 339.333 98.7928 337.041 Q100.691 334.749 104.071 333.962 M102.358 326.578 Q102.358 329.263 104.024 330.768 Q105.714 332.272 108.746 332.272 Q111.756 332.272 113.445 330.768 Q115.158 329.263 115.158 326.578 Q115.158 323.893 113.445 322.388 Q111.756 320.884 108.746 320.884 Q105.714 320.884 104.024 322.388 Q102.358 323.893 102.358 326.578 Z" fill="#000000" fill-rule="evenodd" fill-opacity="1" /><path clip-path="url(#clip400)" d="M54.2328 60.5889 L61.8717 60.5889 L61.8717 34.2233 L53.5616 35.89 L53.5616 31.6308 L61.8254 29.9641 L66.5013 29.9641 L66.5013 60.5889 L74.1402 60.5889 L74.1402 64.5241 L54.2328 64.5241 L54.2328 60.5889 Z" fill="#000000" fill-rule="evenodd" fill-opacity="1" /><path clip-path="url(#clip400)" d="M83.5845 58.6445 L88.4688 58.6445 L88.4688 64.5241 L83.5845 64.5241 L83.5845 58.6445 Z" fill="#000000" fill-rule="evenodd" fill-opacity="1" /><path clip-path="url(#clip400)" d="M108.654 33.0428 Q105.043 33.0428 103.214 36.6076 Q101.409 40.1492 101.409 47.2788 Q101.409 54.3853 103.214 57.9501 Q105.043 61.4917 108.654 61.4917 Q112.288 61.4917 114.094 57.9501 Q115.922 54.3853 115.922 47.2788 Q115.922 40.1492 114.094 36.6076 Q112.288 33.0428 108.654 33.0428 M108.654 29.3391 Q114.464 29.3391 117.52 33.9456 Q120.598 38.5289 120.598 47.2788 Q120.598 56.0056 117.52 60.6121 Q114.464 65.1954 108.654 65.1954 Q102.844 65.1954 99.765 60.6121 Q96.7095 56.0056 96.7095 47.2788 Q96.7095 38.5289 99.765 33.9456 Q102.844 29.3391 108.654 29.3391 Z" fill="#000000" fill-rule="evenodd" fill-opacity="1" /><polyline clip-path="url(#clip402)" style="stroke:#000000; stroke-linecap:butt; stroke-linejoin:round; stroke-width:4; stroke-opacity:0.6; fill:none" stroke-dasharray="16, 10" points="
  -2039.56,1486.45 4548.91,1486.45 
  "/>
<polyline clip-path="url(#clip402)" style="stroke:#3da44d; stroke-linecap:butt; stroke-linejoin:round; stroke-width:8; stroke-opacity:1; fill:none" points="
  218.754,-4004.12 233.276,1106.02 247.358,1080.28 261.88,639.147 275.963,490.415 290.045,697.997 304.567,-8298.33 318.649,-9655.43 333.172,526.522 347.254,823.623 
  361.336,1176.79 375.858,1143.33 389.941,1408.14 404.463,1247.99 418.545,1039.22 432.627,1006.98 452.431,982.051 466.513,904.002 480.595,824.224 494.677,804.58 
  508.759,743.466 522.842,732.71 536.924,712.544 551.006,712.856 565.088,723.063 579.611,742.476 593.693,772.664 607.775,805.252 621.857,846.595 638.14,881.343 
  659.263,919.53 680.827,983.09 702.39,1035.43 723.513,1088.06 745.077,1141.04 766.64,1204.45 788.203,1247.34 809.327,1304.63 830.89,1347.26 852.454,1395.63 
  874.017,1440.49 895.14,1477.08 916.704,1469.45 938.267,1435.27 959.39,1412.17 980.954,1382.87 1002.52,1365.51 1023.64,1352.62 1045.2,1330.46 1066.77,1314.75 
  1087.89,1306.02 1109.45,1311.86 1131.02,1311.15 1152.58,1296.37 1173.7,1295.44 1195.27,1302.21 1216.83,1302.77 1237.95,1316.16 1259.08,1310.54 1280.64,1313.92 
  1302.2,1322.5 1323.77,1336.23 1344.89,1341.31 1366.45,1350.85 1388.02,1358.49 1409.58,1369.45 1430.7,1381.08 1452.27,1388.27 1473.83,1392.48 1495.4,1405.77 
  1516.96,1413.71 1538.52,1431.4 1560.09,1436.11 1581.21,1441.61 1602.77,1455.71 1624.34,1461.07 1645.9,1475.2 1667.46,1484.56 1694.75,1480.5 1722.91,1486.43 
  1752.84,1477.61 1782.76,1472.35 1812.69,1454.74 1842.17,1446.88 1872.09,1432.8 1902.02,1422.18 1931.94,1409.72 1961.87,1400.41 1991.79,1386.33 2021.72,1374.36 
  2051.64,1359.55 2081.57,1352.88 2111.49,1340.31 2140.98,1333.84 2170.9,1327.28 2200.83,1321.92 2230.75,1306.42 2260.68,1293.59 2290.6,1286.61 
  "/>
<polyline clip-path="url(#clip402)" style="stroke:#e26f46; stroke-linecap:butt; stroke-linejoin:round; stroke-width:8; stroke-opacity:1; fill:none" points="
  218.754,-3932.04 233.276,1135.53 247.358,1058.29 261.88,698.393 275.963,563.044 290.045,771.91 304.567,-7893.61 318.649,-9173.58 333.172,622.606 347.254,910.252 
  361.336,1250.02 375.858,1097.26 389.941,1351.38 404.463,1198.86 418.545,999.827 432.627,970.398 452.431,949.086 466.513,875.849 480.595,800.776 494.677,783.935 
  508.759,726.653 522.842,718.384 536.924,700.871 551.006,703.449 565.088,715.827 579.611,737.464 593.693,769.838 607.775,804.724 621.857,848.474 638.14,886.05 
  659.263,927.802 680.827,995.101 702.39,1050.8 723.513,1106.37 745.077,1161.86 766.64,1227.43 788.203,1271.49 809.327,1329.65 830.89,1372.25 852.454,1420.15 
  874.017,1463.99 895.14,1473.84 916.704,1449.52 938.267,1417.5 959.39,1396.76 980.954,1369.87 1002.52,1355.05 1023.64,1344.61 1045.2,1324.8 1066.77,1311.33 
  1087.89,1304.62 1109.45,1312.3 1131.02,1313.22 1152.58,1299.91 1173.7,1300.19 1195.27,1307.97 1216.83,1309.36 1237.95,1323.33 1259.08,1318.2 1280.64,1321.92 
  1302.2,1330.68 1323.77,1344.44 1344.89,1349.5 1366.45,1358.9 1388.02,1366.33 1409.58,1376.99 1430.7,1388.29 1452.27,1395.12 1473.83,1398.96 1495.4,1411.81 
  1516.96,1419.31 1538.52,1436.51 1560.09,1440.77 1581.21,1445.82 1602.77,1459.44 1624.34,1464.36 1645.9,1478.03 1667.46,1485.94 1694.75,1482.39 1722.91,1485.11 
  1752.84,1476.8 1782.76,1472.05 1812.69,1454.92 1842.17,1447.51 1872.09,1433.85 1902.02,1423.63 1931.94,1411.54 1961.87,1402.57 1991.79,1388.8 2021.72,1377.12 
  2051.64,1362.57 2081.57,1356.15 2111.49,1343.8 2140.98,1337.55 2170.9,1331.19 2200.83,1326.03 2230.75,1310.68 2260.68,1297.99 2290.6,1291.15 
  "/>
<polyline clip-path="url(#clip402)" style="stroke:#009af9; stroke-linecap:butt; stroke-linejoin:round; stroke-width:8; stroke-opacity:1; fill:none" points="
  218.754,-3996.18 233.276,1099.52 247.358,1093.02 261.88,580.046 275.963,384.377 290.045,550.888 304.567,-9360.7 318.649,-11266.7 333.172,121.134 347.254,370.639 
  361.336,705.449 375.858,1463.43 389.941,1011.99 404.463,1134.47 418.545,1351.3 432.627,1318.09 452.431,1158.02 466.513,1139.56 480.595,1215.83 494.677,1220.46 
  508.759,1353.69 522.842,1395.04 536.924,1470.7 551.006,1463.05 565.088,1438.67 579.611,1426.53 593.693,1432.52 607.775,1438.71 621.857,1456.92 638.14,1451.4 
  659.263,1430.89 680.827,1446.89 702.39,1444.43 723.513,1444.3 745.077,1444.28 766.64,1458.76 788.203,1450.4 809.327,1462.73 830.89,1460.28 852.454,1467.33 
  874.017,1473.81 895.14,1475.87 916.704,1470.56 938.267,1476.34 959.39,1475.21 980.954,1482.51 1002.52,1481.62 1023.64,1479.73 1045.2,1484.37 1066.77,1479.08 
  1087.89,1477.74 1109.45,1485.39 1131.02,1483.31 1152.58,1477.53 1173.7,1476.34 1195.27,1480.69 1216.83,1478.37 1237.95,1486.33 1259.08,1476.92 1280.64,1474.47 
  1302.2,1476.05 1323.77,1481.76 1344.89,1479.34 1366.45,1480.46 1388.02,1479.53 1409.58,1481.44 1430.7,1484 1452.27,1482.13 1473.83,1477.35 1495.4,1481.11 
  1516.96,1479.8 1538.52,1485.01 1560.09,1483.57 1581.21,1480.23 1602.77,1485.21 1624.34,1481.76 1645.9,1485.79 1667.46,1485 1694.75,1473.17 1722.91,1468.28 
  1752.84,1465.95 1782.76,1460.25 1812.69,1467.63 1842.17,1465.47 1872.09,1470.03 1902.02,1471.35 1931.94,1475.03 1961.87,1475.74 1991.79,1481.95 2021.72,1486.29 
  2051.64,1478.77 2081.57,1479.45 2111.49,1473.32 2140.98,1473.48 2170.9,1473.35 2200.83,1474.28 2230.75,1463.54 2260.68,1455.45 2290.6,1453.67 
  "/>
<polyline clip-path="url(#clip402)" style="stroke:#e26f46; stroke-linecap:butt; stroke-linejoin:round; stroke-width:8; stroke-opacity:1; fill:none" stroke-dasharray="32, 20" points="
  218.754,-3178.14 233.276,1438.93 247.358,835.168 261.88,1294.17 275.963,1290.02 290.045,1461.53 304.567,-3827.87 318.649,-4291.71 333.172,1363.35 347.254,1156.29 
  361.336,938.53 375.858,588.704 389.941,702.396 404.463,612.688 418.545,506.511 432.627,485.995 452.431,470.113 466.513,433.863 480.595,398.462 494.677,391.571 
  508.759,366.89 522.842,366.263 536.924,362.291 551.006,369.098 565.088,382.073 579.611,401.61 593.693,428.463 607.775,459.073 621.857,497.34 638.14,538.018 
  659.263,592.475 680.827,671.246 702.39,751.221 723.513,838.374 745.077,934.282 766.64,1045.62 788.203,1144.06 809.327,1256.88 830.89,1356.98 852.454,1460.17 
  874.017,1418.04 895.14,1339.78 916.704,1280.17 938.267,1220.41 959.39,1181.89 980.954,1143.6 1002.52,1125.85 1023.64,1118.64 1045.2,1105.24 1066.77,1102.24 
  1087.89,1109.05 1109.45,1134 1131.02,1152.4 1152.58,1155.57 1173.7,1172.87 1195.27,1197.93 1216.83,1215.46 1237.95,1245.1 1259.08,1253.85 1280.64,1271.18 
  1302.2,1292.67 1323.77,1318.25 1344.89,1333.84 1366.45,1353.16 1388.02,1369.66 1409.58,1388.54 1430.7,1407.08 1452.27,1420.65 1473.83,1430.67 1495.4,1448.94 
  1516.96,1461.43 1538.52,1482.84 1560.09,1481.67 1581.21,1473 1602.77,1456.37 1624.34,1448.45 1645.9,1432.45 1667.46,1421.28 1694.75,1422.63 1722.91,1414.73 
  1752.84,1404.27 1782.76,1397.52 1812.69,1379.34 1842.17,1370.64 1872.09,1356.24 1902.02,1345.28 1931.94,1332.73 1961.87,1323.28 1991.79,1309.45 2021.72,1297.71 
  2051.64,1283.37 2081.57,1276.76 2111.49,1264.66 2140.98,1258.35 2170.9,1251.99 2200.83,1246.8 2230.75,1232.1 2260.68,1219.95 2290.6,1213.31 
  "/>
<polyline clip-path="url(#clip402)" style="stroke:#009af9; stroke-linecap:butt; stroke-linejoin:round; stroke-width:8; stroke-opacity:1; fill:none" stroke-dasharray="32, 20" points="
  218.754,-4005.05 233.276,1095.69 247.358,1096.03 261.88,571.358 275.963,372.959 290.045,538.324 304.567,-9435.65 318.649,-11364.7 333.172,99.4833 347.254,348.91 
  361.336,684.74 375.858,1448.62 389.941,991.109 404.463,1113.37 418.545,1331.55 432.627,1276.02 452.431,1143.44 466.513,1147.07 480.595,1217.53 494.677,1221.56 
  508.759,1354.76 522.842,1395.9 536.924,1471.4 551.006,1462.47 565.088,1438.18 579.611,1426.11 593.693,1432.14 607.775,1438.39 621.857,1456.63 638.14,1451.15 
  659.263,1430.69 680.827,1446.72 702.39,1444.3 723.513,1444.19 745.077,1444.19 766.64,1458.68 788.203,1450.34 809.327,1462.69 830.89,1460.25 852.454,1467.31 
  874.017,1473.8 895.14,1475.86 916.704,1470.56 938.267,1476.35 959.39,1475.22 980.954,1482.53 1002.52,1481.64 1023.64,1479.76 1045.2,1484.34 1066.77,1479.05 
  1087.89,1477.71 1109.45,1485.42 1131.02,1483.34 1152.58,1477.49 1173.7,1476.3 1195.27,1480.65 1216.83,1478.33 1237.95,1486.36 1259.08,1476.88 1280.64,1474.43 
  1302.2,1476.01 1323.77,1481.73 1344.89,1479.31 1366.45,1480.42 1388.02,1479.5 1409.58,1481.41 1430.7,1483.97 1452.27,1482.1 1473.83,1477.33 1495.4,1481.09 
  1516.96,1479.77 1538.52,1485.03 1560.09,1483.55 1581.21,1480.21 1602.77,1485.19 1624.34,1481.74 1645.9,1485.81 1667.46,1485.01 1694.75,1473.16 1722.91,1468.27 
  1752.84,1465.94 1782.76,1460.25 1812.69,1467.63 1842.17,1465.47 1872.09,1470.03 1902.02,1471.36 1931.94,1475.03 1961.87,1475.75 1991.79,1481.96 2021.72,1486.31 
  2051.64,1478.75 2081.57,1479.43 2111.49,1473.29 2140.98,1473.45 2170.9,1473.32 2200.83,1474.25 2230.75,1463.51 2260.68,1455.42 2290.6,1453.64 
  "/>
<path clip-path="url(#clip400)" d="
M1782.24 458.098 L2279.55 458.098 L2279.55 95.2176 L1782.24 95.2176  Z
  " fill="#ffffff" fill-rule="evenodd" fill-opacity="1"/>
<polyline clip-path="url(#clip400)" style="stroke:#000000; stroke-linecap:butt; stroke-linejoin:round; stroke-width:4; stroke-opacity:1; fill:none" points="
  1782.24,458.098 2279.55,458.098 2279.55,95.2176 1782.24,95.2176 1782.24,458.098 
  "/>
<polyline clip-path="url(#clip400)" style="stroke:#000000; stroke-linecap:butt; stroke-linejoin:round; stroke-width:4; stroke-opacity:0.6; fill:none" stroke-dasharray="16, 10" points="
  1806.24,147.058 1950.24,147.058 
  "/>
<path clip-path="url(#clip400)" d="M1988.08 166.745 Q1986.27 171.375 1984.56 172.787 Q1982.85 174.199 1979.98 174.199 L1976.58 174.199 L1976.58 170.634 L1979.08 170.634 Q1980.83 170.634 1981.81 169.8 Q1982.78 168.967 1983.96 165.865 L1984.72 163.921 L1974.24 138.412 L1978.75 138.412 L1986.85 158.689 L1994.95 138.412 L1999.47 138.412 L1988.08 166.745 Z" fill="#000000" fill-rule="evenodd" fill-opacity="1" /><path clip-path="url(#clip400)" d="M2006.76 160.402 L2014.4 160.402 L2014.4 134.037 L2006.09 135.703 L2006.09 131.444 L2014.35 129.778 L2019.03 129.778 L2019.03 160.402 L2026.67 160.402 L2026.67 164.338 L2006.76 164.338 L2006.76 160.402 Z" fill="#000000" fill-rule="evenodd" fill-opacity="1" /><polyline clip-path="url(#clip400)" style="stroke:#3da44d; stroke-linecap:butt; stroke-linejoin:round; stroke-width:4; stroke-opacity:1; fill:none" points="
  1806.24,198.898 1950.24,198.898 
  "/>
<path clip-path="url(#clip400)" d="M1974.24 181.618 L1980.53 181.618 L1995.86 210.529 L1995.86 181.618 L2000.39 181.618 L2000.39 216.178 L1994.1 216.178 L1978.77 187.266 L1978.77 216.178 L1974.24 216.178 L1974.24 181.618 Z" fill="#000000" fill-rule="evenodd" fill-opacity="1" /><path clip-path="url(#clip400)" d="M2009.07 205.946 L2009.07 190.252 L2013.33 190.252 L2013.33 205.784 Q2013.33 209.465 2014.77 211.316 Q2016.2 213.145 2019.07 213.145 Q2022.52 213.145 2024.51 210.946 Q2026.53 208.747 2026.53 204.951 L2026.53 190.252 L2030.79 190.252 L2030.79 216.178 L2026.53 216.178 L2026.53 212.196 Q2024.98 214.557 2022.92 215.715 Q2020.88 216.849 2018.17 216.849 Q2013.7 216.849 2011.39 214.071 Q2009.07 211.293 2009.07 205.946 M2019.79 189.627 L2019.79 189.627 Z" fill="#000000" fill-rule="evenodd" fill-opacity="1" /><path clip-path="url(#clip400)" d="M2043.77 182.891 L2043.77 190.252 L2052.55 190.252 L2052.55 193.562 L2043.77 193.562 L2043.77 207.636 Q2043.77 210.807 2044.63 211.71 Q2045.51 212.613 2048.17 212.613 L2052.55 212.613 L2052.55 216.178 L2048.17 216.178 Q2043.24 216.178 2041.37 214.349 Q2039.49 212.497 2039.49 207.636 L2039.49 193.562 L2036.37 193.562 L2036.37 190.252 L2039.49 190.252 L2039.49 182.891 L2043.77 182.891 Z" fill="#000000" fill-rule="evenodd" fill-opacity="1" /><path clip-path="url(#clip400)" d="M2073.17 194.233 Q2072.45 193.817 2071.6 193.631 Q2070.76 193.423 2069.75 193.423 Q2066.13 193.423 2064.19 195.784 Q2062.27 198.122 2062.27 202.52 L2062.27 216.178 L2057.99 216.178 L2057.99 190.252 L2062.27 190.252 L2062.27 194.28 Q2063.61 191.918 2065.76 190.784 Q2067.92 189.627 2071 189.627 Q2071.44 189.627 2071.97 189.696 Q2072.5 189.743 2073.15 189.858 L2073.17 194.233 Z" fill="#000000" fill-rule="evenodd" fill-opacity="1" /><path clip-path="url(#clip400)" d="M2077.64 190.252 L2081.9 190.252 L2081.9 216.178 L2077.64 216.178 L2077.64 190.252 M2077.64 180.159 L2081.9 180.159 L2081.9 185.553 L2077.64 185.553 L2077.64 180.159 Z" fill="#000000" fill-rule="evenodd" fill-opacity="1" /><path clip-path="url(#clip400)" d="M2112.99 202.15 L2112.99 204.233 L2093.4 204.233 Q2093.68 208.631 2096.04 210.946 Q2098.43 213.238 2102.66 213.238 Q2105.12 213.238 2107.41 212.636 Q2109.72 212.034 2111.99 210.83 L2111.99 214.858 Q2109.7 215.83 2107.29 216.34 Q2104.88 216.849 2102.41 216.849 Q2096.2 216.849 2092.57 213.238 Q2088.96 209.627 2088.96 203.469 Q2088.96 197.104 2092.38 193.377 Q2095.83 189.627 2101.67 189.627 Q2106.9 189.627 2109.93 193.006 Q2112.99 196.363 2112.99 202.15 M2108.73 200.9 Q2108.68 197.405 2106.76 195.321 Q2104.86 193.238 2101.71 193.238 Q2098.15 193.238 2096 195.252 Q2093.87 197.266 2093.54 200.923 L2108.73 200.9 Z" fill="#000000" fill-rule="evenodd" fill-opacity="1" /><path clip-path="url(#clip400)" d="M2141.53 200.529 L2141.53 216.178 L2137.27 216.178 L2137.27 200.668 Q2137.27 196.988 2135.83 195.159 Q2134.4 193.33 2131.53 193.33 Q2128.08 193.33 2126.09 195.53 Q2124.1 197.729 2124.1 201.525 L2124.1 216.178 L2119.82 216.178 L2119.82 190.252 L2124.1 190.252 L2124.1 194.28 Q2125.63 191.942 2127.69 190.784 Q2129.77 189.627 2132.48 189.627 Q2136.94 189.627 2139.24 192.405 Q2141.53 195.159 2141.53 200.529 Z" fill="#000000" fill-rule="evenodd" fill-opacity="1" /><path clip-path="url(#clip400)" d="M2154.24 182.891 L2154.24 190.252 L2163.01 190.252 L2163.01 193.562 L2154.24 193.562 L2154.24 207.636 Q2154.24 210.807 2155.09 211.71 Q2155.97 212.613 2158.63 212.613 L2163.01 212.613 L2163.01 216.178 L2158.63 216.178 Q2153.7 216.178 2151.83 214.349 Q2149.95 212.497 2149.95 207.636 L2149.95 193.562 L2146.83 193.562 L2146.83 190.252 L2149.95 190.252 L2149.95 182.891 L2154.24 182.891 Z" fill="#000000" fill-rule="evenodd" fill-opacity="1" /><path clip-path="url(#clip400)" d="M2188.31 224.048 L2188.31 227.358 L2163.68 227.358 L2163.68 224.048 L2188.31 224.048 Z" fill="#000000" fill-rule="evenodd" fill-opacity="1" /><path clip-path="url(#clip400)" d="M2213.87 200.529 L2213.87 216.178 L2209.61 216.178 L2209.61 200.668 Q2209.61 196.988 2208.17 195.159 Q2206.74 193.33 2203.87 193.33 Q2200.42 193.33 2198.43 195.53 Q2196.44 197.729 2196.44 201.525 L2196.44 216.178 L2192.15 216.178 L2192.15 190.252 L2196.44 190.252 L2196.44 194.28 Q2197.96 191.942 2200.02 190.784 Q2202.11 189.627 2204.81 189.627 Q2209.28 189.627 2211.57 192.405 Q2213.87 195.159 2213.87 200.529 Z" fill="#000000" fill-rule="evenodd" fill-opacity="1" /><polyline clip-path="url(#clip400)" style="stroke:#e26f46; stroke-linecap:butt; stroke-linejoin:round; stroke-width:4; stroke-opacity:1; fill:none" points="
  1806.24,250.738 1950.24,250.738 
  "/>
<path clip-path="url(#clip400)" d="M1974.24 233.458 L1978.91 233.458 L1978.91 264.082 L1995.74 264.082 L1995.74 268.018 L1974.24 268.018 L1974.24 233.458 Z" fill="#000000" fill-rule="evenodd" fill-opacity="1" /><path clip-path="url(#clip400)" d="M2009.68 245.078 Q2006.25 245.078 2004.26 247.763 Q2002.27 250.425 2002.27 255.078 Q2002.27 259.731 2004.24 262.416 Q2006.23 265.078 2009.68 265.078 Q2013.08 265.078 2015.07 262.393 Q2017.06 259.707 2017.06 255.078 Q2017.06 250.471 2015.07 247.786 Q2013.08 245.078 2009.68 245.078 M2009.68 241.467 Q2015.23 241.467 2018.4 245.078 Q2021.57 248.689 2021.57 255.078 Q2021.57 261.444 2018.4 265.078 Q2015.23 268.689 2009.68 268.689 Q2004.1 268.689 2000.93 265.078 Q1997.78 261.444 1997.78 255.078 Q1997.78 248.689 2000.93 245.078 Q2004.1 241.467 2009.68 241.467 Z" fill="#000000" fill-rule="evenodd" fill-opacity="1" /><path clip-path="url(#clip400)" d="M2045.7 254.754 Q2045.7 250.124 2043.77 247.578 Q2041.88 245.032 2038.43 245.032 Q2035 245.032 2033.08 247.578 Q2031.18 250.124 2031.18 254.754 Q2031.18 259.36 2033.08 261.906 Q2035 264.453 2038.43 264.453 Q2041.88 264.453 2043.77 261.906 Q2045.7 259.36 2045.7 254.754 M2049.95 264.8 Q2049.95 271.42 2047.01 274.638 Q2044.07 277.879 2038.01 277.879 Q2035.76 277.879 2033.77 277.531 Q2031.78 277.207 2029.91 276.513 L2029.91 272.369 Q2031.78 273.388 2033.61 273.874 Q2035.44 274.36 2037.34 274.36 Q2041.53 274.36 2043.61 272.161 Q2045.7 269.985 2045.7 265.564 L2045.7 263.457 Q2044.38 265.749 2042.32 266.883 Q2040.26 268.018 2037.39 268.018 Q2032.62 268.018 2029.7 264.383 Q2026.78 260.749 2026.78 254.754 Q2026.78 248.735 2029.7 245.101 Q2032.62 241.467 2037.39 241.467 Q2040.26 241.467 2042.32 242.601 Q2044.38 243.735 2045.7 246.027 L2045.7 242.092 L2049.95 242.092 L2049.95 264.8 Z" fill="#000000" fill-rule="evenodd" fill-opacity="1" /><path clip-path="url(#clip400)" d="M2058.73 242.092 L2062.99 242.092 L2062.99 268.018 L2058.73 268.018 L2058.73 242.092 M2058.73 231.999 L2062.99 231.999 L2062.99 237.393 L2058.73 237.393 L2058.73 231.999 Z" fill="#000000" fill-rule="evenodd" fill-opacity="1" /><path clip-path="url(#clip400)" d="M2088.43 242.856 L2088.43 246.883 Q2086.62 245.957 2084.68 245.495 Q2082.73 245.032 2080.65 245.032 Q2077.48 245.032 2075.88 246.004 Q2074.31 246.976 2074.31 248.92 Q2074.31 250.402 2075.44 251.258 Q2076.57 252.092 2080 252.856 L2081.46 253.18 Q2086 254.152 2087.89 255.934 Q2089.82 257.694 2089.82 260.865 Q2089.82 264.476 2086.94 266.582 Q2084.1 268.689 2079.1 268.689 Q2077.01 268.689 2074.75 268.272 Q2072.5 267.879 2070 267.068 L2070 262.67 Q2072.36 263.897 2074.65 264.522 Q2076.94 265.124 2079.19 265.124 Q2082.2 265.124 2083.82 264.106 Q2085.44 263.064 2085.44 261.189 Q2085.44 259.453 2084.26 258.527 Q2083.1 257.601 2079.14 256.744 L2077.66 256.397 Q2073.7 255.564 2071.95 253.851 Q2070.19 252.115 2070.19 249.106 Q2070.19 245.448 2072.78 243.458 Q2075.37 241.467 2080.14 241.467 Q2082.5 241.467 2084.58 241.814 Q2086.67 242.161 2088.43 242.856 Z" fill="#000000" fill-rule="evenodd" fill-opacity="1" /><path clip-path="url(#clip400)" d="M2100.81 234.731 L2100.81 242.092 L2109.58 242.092 L2109.58 245.402 L2100.81 245.402 L2100.81 259.476 Q2100.81 262.647 2101.67 263.55 Q2102.55 264.453 2105.21 264.453 L2109.58 264.453 L2109.58 268.018 L2105.21 268.018 Q2100.28 268.018 2098.4 266.189 Q2096.53 264.337 2096.53 259.476 L2096.53 245.402 L2093.4 245.402 L2093.4 242.092 L2096.53 242.092 L2096.53 234.731 L2100.81 234.731 Z" fill="#000000" fill-rule="evenodd" fill-opacity="1" /><path clip-path="url(#clip400)" d="M2115.19 242.092 L2119.44 242.092 L2119.44 268.018 L2115.19 268.018 L2115.19 242.092 M2115.19 231.999 L2119.44 231.999 L2119.44 237.393 L2115.19 237.393 L2115.19 231.999 Z" fill="#000000" fill-rule="evenodd" fill-opacity="1" /><path clip-path="url(#clip400)" d="M2147.01 243.087 L2147.01 247.069 Q2145.21 246.073 2143.38 245.587 Q2141.57 245.078 2139.72 245.078 Q2135.58 245.078 2133.29 247.717 Q2131 250.332 2131 255.078 Q2131 259.823 2133.29 262.462 Q2135.58 265.078 2139.72 265.078 Q2141.57 265.078 2143.38 264.592 Q2145.21 264.082 2147.01 263.087 L2147.01 267.022 Q2145.23 267.856 2143.31 268.272 Q2141.41 268.689 2139.26 268.689 Q2133.4 268.689 2129.95 265.008 Q2126.5 261.328 2126.5 255.078 Q2126.5 248.735 2129.98 245.101 Q2133.47 241.467 2139.54 241.467 Q2141.5 241.467 2143.38 241.883 Q2145.25 242.277 2147.01 243.087 Z" fill="#000000" fill-rule="evenodd" fill-opacity="1" /><path clip-path="url(#clip400)" d="M2174.12 275.888 L2174.12 279.198 L2149.49 279.198 L2149.49 275.888 L2174.12 275.888 Z" fill="#000000" fill-rule="evenodd" fill-opacity="1" /><path clip-path="url(#clip400)" d="M2199.68 252.369 L2199.68 268.018 L2195.42 268.018 L2195.42 252.508 Q2195.42 248.828 2193.98 246.999 Q2192.55 245.17 2189.68 245.17 Q2186.23 245.17 2184.24 247.37 Q2182.25 249.569 2182.25 253.365 L2182.25 268.018 L2177.96 268.018 L2177.96 242.092 L2182.25 242.092 L2182.25 246.12 Q2183.77 243.782 2185.83 242.624 Q2187.92 241.467 2190.62 241.467 Q2195.09 241.467 2197.38 244.245 Q2199.68 246.999 2199.68 252.369 Z" fill="#000000" fill-rule="evenodd" fill-opacity="1" /><polyline clip-path="url(#clip400)" style="stroke:#009af9; stroke-linecap:butt; stroke-linejoin:round; stroke-width:4; stroke-opacity:1; fill:none" points="
  1806.24,302.578 1950.24,302.578 
  "/>
<path clip-path="url(#clip400)" d="M1974.24 285.298 L1978.91 285.298 L1978.91 319.858 L1974.24 319.858 L1974.24 285.298 Z" fill="#000000" fill-rule="evenodd" fill-opacity="1" /><path clip-path="url(#clip400)" d="M2009.58 304.209 L2009.58 319.858 L2005.33 319.858 L2005.33 304.348 Q2005.33 300.668 2003.89 298.839 Q2002.45 297.01 1999.58 297.01 Q1996.14 297.01 1994.14 299.21 Q1992.15 301.409 1992.15 305.205 L1992.15 319.858 L1987.87 319.858 L1987.87 293.932 L1992.15 293.932 L1992.15 297.96 Q1993.68 295.622 1995.74 294.464 Q1997.83 293.307 2000.53 293.307 Q2005 293.307 2007.29 296.085 Q2009.58 298.839 2009.58 304.209 Z" fill="#000000" fill-rule="evenodd" fill-opacity="1" /><path clip-path="url(#clip400)" d="M2022.29 286.571 L2022.29 293.932 L2031.07 293.932 L2031.07 297.242 L2022.29 297.242 L2022.29 311.316 Q2022.29 314.487 2023.15 315.39 Q2024.03 316.293 2026.69 316.293 L2031.07 316.293 L2031.07 319.858 L2026.69 319.858 Q2021.76 319.858 2019.89 318.029 Q2018.01 316.177 2018.01 311.316 L2018.01 297.242 L2014.89 297.242 L2014.89 293.932 L2018.01 293.932 L2018.01 286.571 L2022.29 286.571 Z" fill="#000000" fill-rule="evenodd" fill-opacity="1" /><path clip-path="url(#clip400)" d="M2058.84 305.83 L2058.84 307.913 L2039.26 307.913 Q2039.54 312.311 2041.9 314.626 Q2044.28 316.918 2048.52 316.918 Q2050.97 316.918 2053.26 316.316 Q2055.58 315.714 2057.85 314.51 L2057.85 318.538 Q2055.56 319.51 2053.15 320.02 Q2050.74 320.529 2048.26 320.529 Q2042.06 320.529 2038.43 316.918 Q2034.82 313.307 2034.82 307.149 Q2034.82 300.784 2038.24 297.057 Q2041.69 293.307 2047.52 293.307 Q2052.76 293.307 2055.79 296.686 Q2058.84 300.043 2058.84 305.83 M2054.58 304.58 Q2054.54 301.085 2052.62 299.001 Q2050.72 296.918 2047.57 296.918 Q2044.01 296.918 2041.85 298.932 Q2039.72 300.946 2039.4 304.603 L2054.58 304.58 Z" fill="#000000" fill-rule="evenodd" fill-opacity="1" /><path clip-path="url(#clip400)" d="M2080.86 297.913 Q2080.14 297.497 2079.28 297.311 Q2078.45 297.103 2077.43 297.103 Q2073.82 297.103 2071.88 299.464 Q2069.95 301.802 2069.95 306.2 L2069.95 319.858 L2065.67 319.858 L2065.67 293.932 L2069.95 293.932 L2069.95 297.96 Q2071.3 295.598 2073.45 294.464 Q2075.6 293.307 2078.68 293.307 Q2079.12 293.307 2079.65 293.376 Q2080.19 293.423 2080.83 293.538 L2080.86 297.913 Z" fill="#000000" fill-rule="evenodd" fill-opacity="1" /><path clip-path="url(#clip400)" d="M2098.45 283.839 L2098.45 287.381 L2094.38 287.381 Q2092.08 287.381 2091.18 288.307 Q2090.3 289.233 2090.3 291.64 L2090.3 293.932 L2097.32 293.932 L2097.32 297.242 L2090.3 297.242 L2090.3 319.858 L2086.02 319.858 L2086.02 297.242 L2081.94 297.242 L2081.94 293.932 L2086.02 293.932 L2086.02 292.126 Q2086.02 287.798 2088.03 285.83 Q2090.05 283.839 2094.42 283.839 L2098.45 283.839 Z" fill="#000000" fill-rule="evenodd" fill-opacity="1" /><path clip-path="url(#clip400)" d="M2113.8 306.825 Q2108.63 306.825 2106.64 308.006 Q2104.65 309.186 2104.65 312.034 Q2104.65 314.302 2106.13 315.645 Q2107.64 316.964 2110.21 316.964 Q2113.75 316.964 2115.88 314.464 Q2118.03 311.941 2118.03 307.774 L2118.03 306.825 L2113.8 306.825 M2122.29 305.066 L2122.29 319.858 L2118.03 319.858 L2118.03 315.922 Q2116.57 318.283 2114.4 319.418 Q2112.22 320.529 2109.07 320.529 Q2105.09 320.529 2102.73 318.307 Q2100.39 316.061 2100.39 312.311 Q2100.39 307.936 2103.31 305.714 Q2106.25 303.492 2112.06 303.492 L2118.03 303.492 L2118.03 303.075 Q2118.03 300.135 2116.09 298.538 Q2114.17 296.918 2110.67 296.918 Q2108.45 296.918 2106.34 297.45 Q2104.24 297.983 2102.29 299.047 L2102.29 295.112 Q2104.63 294.21 2106.83 293.77 Q2109.03 293.307 2111.11 293.307 Q2116.74 293.307 2119.51 296.223 Q2122.29 299.14 2122.29 305.066 Z" fill="#000000" fill-rule="evenodd" fill-opacity="1" /><path clip-path="url(#clip400)" d="M2149.72 294.927 L2149.72 298.909 Q2147.92 297.913 2146.09 297.427 Q2144.28 296.918 2142.43 296.918 Q2138.29 296.918 2136 299.557 Q2133.7 302.172 2133.7 306.918 Q2133.7 311.663 2136 314.302 Q2138.29 316.918 2142.43 316.918 Q2144.28 316.918 2146.09 316.432 Q2147.92 315.922 2149.72 314.927 L2149.72 318.862 Q2147.94 319.696 2146.02 320.112 Q2144.12 320.529 2141.97 320.529 Q2136.11 320.529 2132.66 316.848 Q2129.21 313.168 2129.21 306.918 Q2129.21 300.575 2132.69 296.941 Q2136.18 293.307 2142.25 293.307 Q2144.21 293.307 2146.09 293.723 Q2147.96 294.117 2149.72 294.927 Z" fill="#000000" fill-rule="evenodd" fill-opacity="1" /><path clip-path="url(#clip400)" d="M2179.31 305.83 L2179.31 307.913 L2159.72 307.913 Q2160 312.311 2162.36 314.626 Q2164.75 316.918 2168.98 316.918 Q2171.44 316.918 2173.73 316.316 Q2176.04 315.714 2178.31 314.51 L2178.31 318.538 Q2176.02 319.51 2173.61 320.02 Q2171.2 320.529 2168.73 320.529 Q2162.52 320.529 2158.89 316.918 Q2155.28 313.307 2155.28 307.149 Q2155.28 300.784 2158.7 297.057 Q2162.15 293.307 2167.99 293.307 Q2173.22 293.307 2176.25 296.686 Q2179.31 300.043 2179.31 305.83 M2175.05 304.58 Q2175 301.085 2173.08 299.001 Q2171.18 296.918 2168.03 296.918 Q2164.47 296.918 2162.31 298.932 Q2160.19 300.946 2159.86 304.603 L2175.05 304.58 Z" fill="#000000" fill-rule="evenodd" fill-opacity="1" /><path clip-path="url(#clip400)" d="M2206 327.728 L2206 331.038 L2181.37 331.038 L2181.37 327.728 L2206 327.728 Z" fill="#000000" fill-rule="evenodd" fill-opacity="1" /><path clip-path="url(#clip400)" d="M2231.55 304.209 L2231.55 319.858 L2227.29 319.858 L2227.29 304.348 Q2227.29 300.668 2225.86 298.839 Q2224.42 297.01 2221.55 297.01 Q2218.1 297.01 2216.11 299.21 Q2214.12 301.409 2214.12 305.205 L2214.12 319.858 L2209.84 319.858 L2209.84 293.932 L2214.12 293.932 L2214.12 297.96 Q2215.65 295.622 2217.71 294.464 Q2219.79 293.307 2222.5 293.307 Q2226.97 293.307 2229.26 296.085 Q2231.55 298.839 2231.55 304.209 Z" fill="#000000" fill-rule="evenodd" fill-opacity="1" /><polyline clip-path="url(#clip400)" style="stroke:#e26f46; stroke-linecap:butt; stroke-linejoin:round; stroke-width:4; stroke-opacity:1; fill:none" stroke-dasharray="16, 10" points="
  1806.24,354.418 1950.24,354.418 
  "/>
<path clip-path="url(#clip400)" d="M1974.24 337.138 L1980.53 337.138 L1995.86 366.049 L1995.86 337.138 L2000.39 337.138 L2000.39 371.698 L1994.1 371.698 L1978.77 342.786 L1978.77 371.698 L1974.24 371.698 L1974.24 337.138 Z" fill="#000000" fill-rule="evenodd" fill-opacity="1" /><path clip-path="url(#clip400)" d="M2009.07 361.466 L2009.07 345.772 L2013.33 345.772 L2013.33 361.304 Q2013.33 364.985 2014.77 366.836 Q2016.2 368.665 2019.07 368.665 Q2022.52 368.665 2024.51 366.466 Q2026.53 364.267 2026.53 360.471 L2026.53 345.772 L2030.79 345.772 L2030.79 371.698 L2026.53 371.698 L2026.53 367.716 Q2024.98 370.077 2022.92 371.235 Q2020.88 372.369 2018.17 372.369 Q2013.7 372.369 2011.39 369.591 Q2009.07 366.813 2009.07 361.466 M2019.79 345.147 L2019.79 345.147 Z" fill="#000000" fill-rule="evenodd" fill-opacity="1" /><path clip-path="url(#clip400)" d="M2043.77 338.411 L2043.77 345.772 L2052.55 345.772 L2052.55 349.082 L2043.77 349.082 L2043.77 363.156 Q2043.77 366.327 2044.63 367.23 Q2045.51 368.133 2048.17 368.133 L2052.55 368.133 L2052.55 371.698 L2048.17 371.698 Q2043.24 371.698 2041.37 369.869 Q2039.49 368.017 2039.49 363.156 L2039.49 349.082 L2036.37 349.082 L2036.37 345.772 L2039.49 345.772 L2039.49 338.411 L2043.77 338.411 Z" fill="#000000" fill-rule="evenodd" fill-opacity="1" /><path clip-path="url(#clip400)" d="M2073.17 349.753 Q2072.45 349.337 2071.6 349.151 Q2070.76 348.943 2069.75 348.943 Q2066.13 348.943 2064.19 351.304 Q2062.27 353.642 2062.27 358.04 L2062.27 371.698 L2057.99 371.698 L2057.99 345.772 L2062.27 345.772 L2062.27 349.8 Q2063.61 347.438 2065.76 346.304 Q2067.92 345.147 2071 345.147 Q2071.44 345.147 2071.97 345.216 Q2072.5 345.263 2073.15 345.378 L2073.17 349.753 Z" fill="#000000" fill-rule="evenodd" fill-opacity="1" /><path clip-path="url(#clip400)" d="M2077.64 345.772 L2081.9 345.772 L2081.9 371.698 L2077.64 371.698 L2077.64 345.772 M2077.64 335.679 L2081.9 335.679 L2081.9 341.073 L2077.64 341.073 L2077.64 335.679 Z" fill="#000000" fill-rule="evenodd" fill-opacity="1" /><path clip-path="url(#clip400)" d="M2112.99 357.67 L2112.99 359.753 L2093.4 359.753 Q2093.68 364.151 2096.04 366.466 Q2098.43 368.758 2102.66 368.758 Q2105.12 368.758 2107.41 368.156 Q2109.72 367.554 2111.99 366.35 L2111.99 370.378 Q2109.7 371.35 2107.29 371.86 Q2104.88 372.369 2102.41 372.369 Q2096.2 372.369 2092.57 368.758 Q2088.96 365.147 2088.96 358.989 Q2088.96 352.624 2092.38 348.897 Q2095.83 345.147 2101.67 345.147 Q2106.9 345.147 2109.93 348.526 Q2112.99 351.883 2112.99 357.67 M2108.73 356.42 Q2108.68 352.925 2106.76 350.841 Q2104.86 348.758 2101.71 348.758 Q2098.15 348.758 2096 350.772 Q2093.87 352.786 2093.54 356.443 L2108.73 356.42 Z" fill="#000000" fill-rule="evenodd" fill-opacity="1" /><path clip-path="url(#clip400)" d="M2141.53 356.049 L2141.53 371.698 L2137.27 371.698 L2137.27 356.188 Q2137.27 352.508 2135.83 350.679 Q2134.4 348.85 2131.53 348.85 Q2128.08 348.85 2126.09 351.05 Q2124.1 353.249 2124.1 357.045 L2124.1 371.698 L2119.82 371.698 L2119.82 345.772 L2124.1 345.772 L2124.1 349.8 Q2125.63 347.462 2127.69 346.304 Q2129.77 345.147 2132.48 345.147 Q2136.94 345.147 2139.24 347.925 Q2141.53 350.679 2141.53 356.049 Z" fill="#000000" fill-rule="evenodd" fill-opacity="1" /><path clip-path="url(#clip400)" d="M2154.24 338.411 L2154.24 345.772 L2163.01 345.772 L2163.01 349.082 L2154.24 349.082 L2154.24 363.156 Q2154.24 366.327 2155.09 367.23 Q2155.97 368.133 2158.63 368.133 L2163.01 368.133 L2163.01 371.698 L2158.63 371.698 Q2153.7 371.698 2151.83 369.869 Q2149.95 368.017 2149.95 363.156 L2149.95 349.082 L2146.83 349.082 L2146.83 345.772 L2149.95 345.772 L2149.95 338.411 L2154.24 338.411 Z" fill="#000000" fill-rule="evenodd" fill-opacity="1" /><polyline clip-path="url(#clip400)" style="stroke:#009af9; stroke-linecap:butt; stroke-linejoin:round; stroke-width:4; stroke-opacity:1; fill:none" stroke-dasharray="16, 10" points="
  1806.24,406.258 1950.24,406.258 
  "/>
<path clip-path="url(#clip400)" d="M1974.24 388.978 L1978.91 388.978 L1978.91 423.538 L1974.24 423.538 L1974.24 388.978 Z" fill="#000000" fill-rule="evenodd" fill-opacity="1" /><path clip-path="url(#clip400)" d="M2009.58 407.889 L2009.58 423.538 L2005.33 423.538 L2005.33 408.028 Q2005.33 404.348 2003.89 402.519 Q2002.45 400.69 1999.58 400.69 Q1996.14 400.69 1994.14 402.89 Q1992.15 405.089 1992.15 408.885 L1992.15 423.538 L1987.87 423.538 L1987.87 397.612 L1992.15 397.612 L1992.15 401.64 Q1993.68 399.302 1995.74 398.144 Q1997.83 396.987 2000.53 396.987 Q2005 396.987 2007.29 399.765 Q2009.58 402.519 2009.58 407.889 Z" fill="#000000" fill-rule="evenodd" fill-opacity="1" /><path clip-path="url(#clip400)" d="M2022.29 390.251 L2022.29 397.612 L2031.07 397.612 L2031.07 400.922 L2022.29 400.922 L2022.29 414.996 Q2022.29 418.167 2023.15 419.07 Q2024.03 419.973 2026.69 419.973 L2031.07 419.973 L2031.07 423.538 L2026.69 423.538 Q2021.76 423.538 2019.89 421.709 Q2018.01 419.857 2018.01 414.996 L2018.01 400.922 L2014.89 400.922 L2014.89 397.612 L2018.01 397.612 L2018.01 390.251 L2022.29 390.251 Z" fill="#000000" fill-rule="evenodd" fill-opacity="1" /><path clip-path="url(#clip400)" d="M2058.84 409.51 L2058.84 411.593 L2039.26 411.593 Q2039.54 415.991 2041.9 418.306 Q2044.28 420.598 2048.52 420.598 Q2050.97 420.598 2053.26 419.996 Q2055.58 419.394 2057.85 418.19 L2057.85 422.218 Q2055.56 423.19 2053.15 423.7 Q2050.74 424.209 2048.26 424.209 Q2042.06 424.209 2038.43 420.598 Q2034.82 416.987 2034.82 410.829 Q2034.82 404.464 2038.24 400.737 Q2041.69 396.987 2047.52 396.987 Q2052.76 396.987 2055.79 400.366 Q2058.84 403.723 2058.84 409.51 M2054.58 408.26 Q2054.54 404.765 2052.62 402.681 Q2050.72 400.598 2047.57 400.598 Q2044.01 400.598 2041.85 402.612 Q2039.72 404.626 2039.4 408.283 L2054.58 408.26 Z" fill="#000000" fill-rule="evenodd" fill-opacity="1" /><path clip-path="url(#clip400)" d="M2080.86 401.593 Q2080.14 401.177 2079.28 400.991 Q2078.45 400.783 2077.43 400.783 Q2073.82 400.783 2071.88 403.144 Q2069.95 405.482 2069.95 409.88 L2069.95 423.538 L2065.67 423.538 L2065.67 397.612 L2069.95 397.612 L2069.95 401.64 Q2071.3 399.278 2073.45 398.144 Q2075.6 396.987 2078.68 396.987 Q2079.12 396.987 2079.65 397.056 Q2080.19 397.103 2080.83 397.218 L2080.86 401.593 Z" fill="#000000" fill-rule="evenodd" fill-opacity="1" /><path clip-path="url(#clip400)" d="M2098.45 387.519 L2098.45 391.061 L2094.38 391.061 Q2092.08 391.061 2091.18 391.987 Q2090.3 392.913 2090.3 395.32 L2090.3 397.612 L2097.32 397.612 L2097.32 400.922 L2090.3 400.922 L2090.3 423.538 L2086.02 423.538 L2086.02 400.922 L2081.94 400.922 L2081.94 397.612 L2086.02 397.612 L2086.02 395.806 Q2086.02 391.478 2088.03 389.51 Q2090.05 387.519 2094.42 387.519 L2098.45 387.519 Z" fill="#000000" fill-rule="evenodd" fill-opacity="1" /><path clip-path="url(#clip400)" d="M2113.8 410.505 Q2108.63 410.505 2106.64 411.686 Q2104.65 412.866 2104.65 415.714 Q2104.65 417.982 2106.13 419.325 Q2107.64 420.644 2110.21 420.644 Q2113.75 420.644 2115.88 418.144 Q2118.03 415.621 2118.03 411.454 L2118.03 410.505 L2113.8 410.505 M2122.29 408.746 L2122.29 423.538 L2118.03 423.538 L2118.03 419.602 Q2116.57 421.963 2114.4 423.098 Q2112.22 424.209 2109.07 424.209 Q2105.09 424.209 2102.73 421.987 Q2100.39 419.741 2100.39 415.991 Q2100.39 411.616 2103.31 409.394 Q2106.25 407.172 2112.06 407.172 L2118.03 407.172 L2118.03 406.755 Q2118.03 403.815 2116.09 402.218 Q2114.17 400.598 2110.67 400.598 Q2108.45 400.598 2106.34 401.13 Q2104.24 401.663 2102.29 402.727 L2102.29 398.792 Q2104.63 397.89 2106.83 397.45 Q2109.03 396.987 2111.11 396.987 Q2116.74 396.987 2119.51 399.903 Q2122.29 402.82 2122.29 408.746 Z" fill="#000000" fill-rule="evenodd" fill-opacity="1" /><path clip-path="url(#clip400)" d="M2149.72 398.607 L2149.72 402.589 Q2147.92 401.593 2146.09 401.107 Q2144.28 400.598 2142.43 400.598 Q2138.29 400.598 2136 403.237 Q2133.7 405.852 2133.7 410.598 Q2133.7 415.343 2136 417.982 Q2138.29 420.598 2142.43 420.598 Q2144.28 420.598 2146.09 420.112 Q2147.92 419.602 2149.72 418.607 L2149.72 422.542 Q2147.94 423.376 2146.02 423.792 Q2144.12 424.209 2141.97 424.209 Q2136.11 424.209 2132.66 420.528 Q2129.21 416.848 2129.21 410.598 Q2129.21 404.255 2132.69 400.621 Q2136.18 396.987 2142.25 396.987 Q2144.21 396.987 2146.09 397.403 Q2147.96 397.797 2149.72 398.607 Z" fill="#000000" fill-rule="evenodd" fill-opacity="1" /><path clip-path="url(#clip400)" d="M2179.31 409.51 L2179.31 411.593 L2159.72 411.593 Q2160 415.991 2162.36 418.306 Q2164.75 420.598 2168.98 420.598 Q2171.44 420.598 2173.73 419.996 Q2176.04 419.394 2178.31 418.19 L2178.31 422.218 Q2176.02 423.19 2173.61 423.7 Q2171.2 424.209 2168.73 424.209 Q2162.52 424.209 2158.89 420.598 Q2155.28 416.987 2155.28 410.829 Q2155.28 404.464 2158.7 400.737 Q2162.15 396.987 2167.99 396.987 Q2173.22 396.987 2176.25 400.366 Q2179.31 403.723 2179.31 409.51 M2175.05 408.26 Q2175 404.765 2173.08 402.681 Q2171.18 400.598 2168.03 400.598 Q2164.47 400.598 2162.31 402.612 Q2160.19 404.626 2159.86 408.283 L2175.05 408.26 Z" fill="#000000" fill-rule="evenodd" fill-opacity="1" /></svg>
