<?xml version="1.0" encoding="utf-8"?>
<svg xmlns="http://www.w3.org/2000/svg" xmlns:xlink="http://www.w3.org/1999/xlink" width="400" height="400" viewBox="0 0 1600 1600">
<defs>
  <clipPath id="clip330">
    <rect x="0" y="0" width="1600" height="1600"/>
  </clipPath>
</defs>
<path clip-path="url(#clip330)" d="
M0 1600 L1600 1600 L1600 0 L0 0  Z
  " fill="#ffffff" fill-rule="evenodd" fill-opacity="1"/>
<defs>
  <clipPath id="clip331">
    <rect x="320" y="160" width="1121" height="1121"/>
  </clipPath>
</defs>
<path clip-path="url(#clip330)" d="
M178.274 1382.14 L1552.76 1382.14 L1552.76 47.2441 L178.274 47.2441  Z
  " fill="#ffffff" fill-rule="evenodd" fill-opacity="1"/>
<defs>
  <clipPath id="clip332">
    <rect x="178" y="47" width="1375" height="1336"/>
  </clipPath>
</defs>
<polyline clip-path="url(#clip330)" style="stroke:#000000; stroke-linecap:butt; stroke-linejoin:round; stroke-width:4; stroke-opacity:1; fill:none" points="
  178.274,1382.14 1552.76,1382.14 
  "/>
<polyline clip-path="url(#clip330)" style="stroke:#000000; stroke-linecap:butt; stroke-linejoin:round; stroke-width:4; stroke-opacity:1; fill:none" points="
  178.274,1382.14 178.274,1363.24 
  "/>
<polyline clip-path="url(#clip330)" style="stroke:#000000; stroke-linecap:butt; stroke-linejoin:round; stroke-width:4; stroke-opacity:1; fill:none" points="
  521.894,1382.14 521.894,1363.24 
  "/>
<polyline clip-path="url(#clip330)" style="stroke:#000000; stroke-linecap:butt; stroke-linejoin:round; stroke-width:4; stroke-opacity:1; fill:none" points="
  865.515,1382.14 865.515,1363.24 
  "/>
<polyline clip-path="url(#clip330)" style="stroke:#000000; stroke-linecap:butt; stroke-linejoin:round; stroke-width:4; stroke-opacity:1; fill:none" points="
  1209.14,1382.14 1209.14,1363.24 
  "/>
<polyline clip-path="url(#clip330)" style="stroke:#000000; stroke-linecap:butt; stroke-linejoin:round; stroke-width:4; stroke-opacity:1; fill:none" points="
  1552.76,1382.14 1552.76,1363.24 
  "/>
<path clip-path="url(#clip330)" d="M155.658 1406.66 Q152.047 1406.66 150.219 1410.22 Q148.413 1413.76 148.413 1420.89 Q148.413 1428 150.219 1431.57 Q152.047 1435.11 155.658 1435.11 Q159.293 1435.11 161.098 1431.57 Q162.927 1428 162.927 1420.89 Q162.927 1413.76 161.098 1410.22 Q159.293 1406.66 155.658 1406.66 M155.658 1402.95 Q161.469 1402.95 164.524 1407.56 Q167.603 1412.14 167.603 1420.89 Q167.603 1429.62 164.524 1434.23 Q161.469 1438.81 155.658 1438.81 Q149.848 1438.81 146.77 1434.23 Q143.714 1429.62 143.714 1420.89 Q143.714 1412.14 146.77 1407.56 Q149.848 1402.95 155.658 1402.95 Z" fill="#000000" fill-rule="evenodd" fill-opacity="1" /><path clip-path="url(#clip330)" d="M175.82 1432.26 L180.705 1432.26 L180.705 1438.14 L175.82 1438.14 L175.82 1432.26 Z" fill="#000000" fill-rule="evenodd" fill-opacity="1" /><path clip-path="url(#clip330)" d="M200.89 1406.66 Q197.279 1406.66 195.45 1410.22 Q193.644 1413.76 193.644 1420.89 Q193.644 1428 195.45 1431.57 Q197.279 1435.11 200.89 1435.11 Q204.524 1435.11 206.329 1431.57 Q208.158 1428 208.158 1420.89 Q208.158 1413.76 206.329 1410.22 Q204.524 1406.66 200.89 1406.66 M200.89 1402.95 Q206.7 1402.95 209.755 1407.56 Q212.834 1412.14 212.834 1420.89 Q212.834 1429.62 209.755 1434.23 Q206.7 1438.81 200.89 1438.81 Q195.079 1438.81 192.001 1434.23 Q188.945 1429.62 188.945 1420.89 Q188.945 1412.14 192.001 1407.56 Q195.079 1402.95 200.89 1402.95 Z" fill="#000000" fill-rule="evenodd" fill-opacity="1" /><path clip-path="url(#clip330)" d="M499.777 1406.66 Q496.165 1406.66 494.337 1410.22 Q492.531 1413.76 492.531 1420.89 Q492.531 1428 494.337 1431.57 Q496.165 1435.11 499.777 1435.11 Q503.411 1435.11 505.216 1431.57 Q507.045 1428 507.045 1420.89 Q507.045 1413.76 505.216 1410.22 Q503.411 1406.66 499.777 1406.66 M499.777 1402.95 Q505.587 1402.95 508.642 1407.56 Q511.721 1412.14 511.721 1420.89 Q511.721 1429.62 508.642 1434.23 Q505.587 1438.81 499.777 1438.81 Q493.966 1438.81 490.888 1434.23 Q487.832 1429.62 487.832 1420.89 Q487.832 1412.14 490.888 1407.56 Q493.966 1402.95 499.777 1402.95 Z" fill="#000000" fill-rule="evenodd" fill-opacity="1" /><path clip-path="url(#clip330)" d="M519.938 1432.26 L524.823 1432.26 L524.823 1438.14 L519.938 1438.14 L519.938 1432.26 Z" fill="#000000" fill-rule="evenodd" fill-opacity="1" /><path clip-path="url(#clip330)" d="M535.054 1403.58 L553.411 1403.58 L553.411 1407.52 L539.337 1407.52 L539.337 1415.99 Q540.355 1415.64 541.374 1415.48 Q542.392 1415.29 543.411 1415.29 Q549.198 1415.29 552.577 1418.46 Q555.957 1421.64 555.957 1427.05 Q555.957 1432.63 552.485 1435.73 Q549.012 1438.81 542.693 1438.81 Q540.517 1438.81 538.249 1438.44 Q536.003 1438.07 533.596 1437.33 L533.596 1432.63 Q535.679 1433.76 537.901 1434.32 Q540.124 1434.88 542.6 1434.88 Q546.605 1434.88 548.943 1432.77 Q551.281 1430.66 551.281 1427.05 Q551.281 1423.44 548.943 1421.33 Q546.605 1419.23 542.6 1419.23 Q540.725 1419.23 538.85 1419.64 Q536.999 1420.06 535.054 1420.94 L535.054 1403.58 Z" fill="#000000" fill-rule="evenodd" fill-opacity="1" /><path clip-path="url(#clip330)" d="M832.668 1434.2 L840.307 1434.2 L840.307 1407.84 L831.997 1409.51 L831.997 1405.25 L840.26 1403.58 L844.936 1403.58 L844.936 1434.2 L852.575 1434.2 L852.575 1438.14 L832.668 1438.14 L832.668 1434.2 Z" fill="#000000" fill-rule="evenodd" fill-opacity="1" /><path clip-path="url(#clip330)" d="M862.02 1432.26 L866.904 1432.26 L866.904 1438.14 L862.02 1438.14 L862.02 1432.26 Z" fill="#000000" fill-rule="evenodd" fill-opacity="1" /><path clip-path="url(#clip330)" d="M887.089 1406.66 Q883.478 1406.66 881.649 1410.22 Q879.844 1413.76 879.844 1420.89 Q879.844 1428 881.649 1431.57 Q883.478 1435.11 887.089 1435.11 Q890.723 1435.11 892.529 1431.57 Q894.357 1428 894.357 1420.89 Q894.357 1413.76 892.529 1410.22 Q890.723 1406.66 887.089 1406.66 M887.089 1402.95 Q892.899 1402.95 895.955 1407.56 Q899.033 1412.14 899.033 1420.89 Q899.033 1429.62 895.955 1434.23 Q892.899 1438.81 887.089 1438.81 Q881.279 1438.81 878.2 1434.23 Q875.145 1429.62 875.145 1420.89 Q875.145 1412.14 878.2 1407.56 Q881.279 1402.95 887.089 1402.95 Z" fill="#000000" fill-rule="evenodd" fill-opacity="1" /><path clip-path="url(#clip330)" d="M1176.79 1434.2 L1184.42 1434.2 L1184.42 1407.84 L1176.11 1409.51 L1176.11 1405.25 L1184.38 1403.58 L1189.05 1403.58 L1189.05 1434.2 L1196.69 1434.2 L1196.69 1438.14 L1176.79 1438.14 L1176.79 1434.2 Z" fill="#000000" fill-rule="evenodd" fill-opacity="1" /><path clip-path="url(#clip330)" d="M1206.14 1432.26 L1211.02 1432.26 L1211.02 1438.14 L1206.14 1438.14 L1206.14 1432.26 Z" fill="#000000" fill-rule="evenodd" fill-opacity="1" /><path clip-path="url(#clip330)" d="M1221.25 1403.58 L1239.61 1403.58 L1239.61 1407.52 L1225.54 1407.52 L1225.54 1415.99 Q1226.55 1415.64 1227.57 1415.48 Q1228.59 1415.29 1229.61 1415.29 Q1235.4 1415.29 1238.78 1418.46 Q1242.16 1421.64 1242.16 1427.05 Q1242.16 1432.63 1238.68 1435.73 Q1235.21 1438.81 1228.89 1438.81 Q1226.72 1438.81 1224.45 1438.44 Q1222.2 1438.07 1219.8 1437.33 L1219.8 1432.63 Q1221.88 1433.76 1224.1 1434.32 Q1226.32 1434.88 1228.8 1434.88 Q1232.8 1434.88 1235.14 1432.77 Q1237.48 1430.66 1237.48 1427.05 Q1237.48 1423.44 1235.14 1421.33 Q1232.8 1419.23 1228.8 1419.23 Q1226.92 1419.23 1225.05 1419.64 Q1223.2 1420.06 1221.25 1420.94 L1221.25 1403.58 Z" fill="#000000" fill-rule="evenodd" fill-opacity="1" /><path clip-path="url(#clip330)" d="M1523.99 1434.2 L1540.31 1434.2 L1540.31 1438.14 L1518.37 1438.14 L1518.37 1434.2 Q1521.03 1431.45 1525.61 1426.82 Q1530.22 1422.17 1531.4 1420.83 Q1533.65 1418.3 1534.53 1416.57 Q1535.43 1414.81 1535.43 1413.12 Q1535.43 1410.36 1533.49 1408.63 Q1531.56 1406.89 1528.46 1406.89 Q1526.26 1406.89 1523.81 1407.65 Q1521.38 1408.42 1518.6 1409.97 L1518.6 1405.25 Q1521.43 1404.11 1523.88 1403.53 Q1526.33 1402.95 1528.37 1402.95 Q1533.74 1402.95 1536.93 1405.64 Q1540.13 1408.33 1540.13 1412.82 Q1540.13 1414.95 1539.32 1416.87 Q1538.53 1418.76 1536.42 1421.36 Q1535.85 1422.03 1532.74 1425.25 Q1529.64 1428.44 1523.99 1434.2 Z" fill="#000000" fill-rule="evenodd" fill-opacity="1" /><path clip-path="url(#clip330)" d="M1550.13 1432.26 L1555.01 1432.26 L1555.01 1438.14 L1550.13 1438.14 L1550.13 1432.26 Z" fill="#000000" fill-rule="evenodd" fill-opacity="1" /><path clip-path="url(#clip330)" d="M1575.2 1406.66 Q1571.59 1406.66 1569.76 1410.22 Q1567.95 1413.76 1567.95 1420.89 Q1567.95 1428 1569.76 1431.57 Q1571.59 1435.11 1575.2 1435.11 Q1578.83 1435.11 1580.64 1431.57 Q1582.47 1428 1582.47 1420.89 Q1582.47 1413.76 1580.64 1410.22 Q1578.83 1406.66 1575.2 1406.66 M1575.2 1402.95 Q1581.01 1402.95 1584.06 1407.56 Q1587.14 1412.14 1587.14 1420.89 Q1587.14 1429.62 1584.06 1434.23 Q1581.01 1438.81 1575.2 1438.81 Q1569.39 1438.81 1566.31 1434.23 Q1563.25 1429.62 1563.25 1420.89 Q1563.25 1412.14 1566.31 1407.56 Q1569.39 1402.95 1575.2 1402.95 Z" fill="#000000" fill-rule="evenodd" fill-opacity="1" /><path clip-path="url(#clip330)" d="M734.365 1472.77 L734.365 1509.72 L742.132 1509.72 Q751.967 1509.72 756.518 1505.26 Q761.101 1500.81 761.101 1491.2 Q761.101 1481.65 756.518 1477.22 Q751.967 1472.77 742.132 1472.77 L734.365 1472.77 M727.936 1467.48 L741.145 1467.48 Q754.959 1467.48 761.42 1473.24 Q767.881 1478.97 767.881 1491.2 Q767.881 1503.48 761.388 1509.24 Q754.895 1515 741.145 1515 L727.936 1515 L727.936 1467.48 Z" fill="#000000" fill-rule="evenodd" fill-opacity="1" /><path clip-path="url(#clip330)" d="M777.875 1479.36 L783.732 1479.36 L783.732 1515 L777.875 1515 L777.875 1479.36 M777.875 1465.48 L783.732 1465.48 L783.732 1472.89 L777.875 1472.89 L777.875 1465.48 Z" fill="#000000" fill-rule="evenodd" fill-opacity="1" /><path clip-path="url(#clip330)" d="M818.711 1480.41 L818.711 1485.94 Q816.228 1484.67 813.555 1484.03 Q810.881 1483.4 808.017 1483.4 Q803.656 1483.4 801.46 1484.73 Q799.296 1486.07 799.296 1488.75 Q799.296 1490.78 800.855 1491.96 Q802.415 1493.11 807.126 1494.16 L809.131 1494.6 Q815.369 1495.94 817.979 1498.39 Q820.621 1500.81 820.621 1505.17 Q820.621 1510.13 816.674 1513.03 Q812.759 1515.93 805.884 1515.93 Q803.02 1515.93 799.9 1515.35 Q796.813 1514.81 793.376 1513.7 L793.376 1507.65 Q796.622 1509.34 799.773 1510.2 Q802.924 1511.03 806.012 1511.03 Q810.149 1511.03 812.377 1509.62 Q814.605 1508.19 814.605 1505.61 Q814.605 1503.23 812.982 1501.95 Q811.391 1500.68 805.948 1499.5 L803.911 1499.03 Q798.468 1497.88 796.049 1495.52 Q793.63 1493.14 793.63 1489 Q793.63 1483.97 797.195 1481.23 Q800.76 1478.5 807.316 1478.5 Q810.563 1478.5 813.428 1478.97 Q816.292 1479.45 818.711 1480.41 Z" fill="#000000" fill-rule="evenodd" fill-opacity="1" /><path clip-path="url(#clip330)" d="M835.739 1469.23 L835.739 1479.36 L847.802 1479.36 L847.802 1483.91 L835.739 1483.91 L835.739 1503.26 Q835.739 1507.62 836.917 1508.86 Q838.127 1510.1 841.787 1510.1 L847.802 1510.1 L847.802 1515 L841.787 1515 Q835.007 1515 832.429 1512.49 Q829.851 1509.94 829.851 1503.26 L829.851 1483.91 L825.554 1483.91 L825.554 1479.36 L829.851 1479.36 L829.851 1469.23 L835.739 1469.23 Z" fill="#000000" fill-rule="evenodd" fill-opacity="1" /><path clip-path="url(#clip330)" d="M871.706 1497.08 Q864.608 1497.08 861.871 1498.71 Q859.133 1500.33 859.133 1504.25 Q859.133 1507.36 861.17 1509.21 Q863.239 1511.03 866.772 1511.03 Q871.642 1511.03 874.57 1507.59 Q877.53 1504.12 877.53 1498.39 L877.53 1497.08 L871.706 1497.08 M883.387 1494.67 L883.387 1515 L877.53 1515 L877.53 1509.59 Q875.525 1512.84 872.533 1514.4 Q869.541 1515.93 865.213 1515.93 Q859.738 1515.93 856.492 1512.87 Q853.277 1509.78 853.277 1504.63 Q853.277 1498.61 857.287 1495.56 Q861.33 1492.5 869.318 1492.5 L877.53 1492.5 L877.53 1491.93 Q877.53 1487.89 874.857 1485.69 Q872.215 1483.46 867.409 1483.46 Q864.353 1483.46 861.457 1484.19 Q858.56 1484.93 855.887 1486.39 L855.887 1480.98 Q859.102 1479.74 862.125 1479.13 Q865.149 1478.5 868.013 1478.5 Q875.748 1478.5 879.567 1482.51 Q883.387 1486.52 883.387 1494.67 Z" fill="#000000" fill-rule="evenodd" fill-opacity="1" /><path clip-path="url(#clip330)" d="M925.082 1493.49 L925.082 1515 L919.226 1515 L919.226 1493.68 Q919.226 1488.62 917.252 1486.1 Q915.279 1483.59 911.332 1483.59 Q906.59 1483.59 903.852 1486.61 Q901.115 1489.64 901.115 1494.86 L901.115 1515 L895.227 1515 L895.227 1479.36 L901.115 1479.36 L901.115 1484.89 Q903.216 1481.68 906.049 1480.09 Q908.913 1478.5 912.637 1478.5 Q918.78 1478.5 921.931 1482.32 Q925.082 1486.1 925.082 1493.49 Z" fill="#000000" fill-rule="evenodd" fill-opacity="1" /><path clip-path="url(#clip330)" d="M962.417 1480.72 L962.417 1486.2 Q959.934 1484.83 957.42 1484.16 Q954.937 1483.46 952.391 1483.46 Q946.694 1483.46 943.543 1487.09 Q940.392 1490.69 940.392 1497.21 Q940.392 1503.74 943.543 1507.36 Q946.694 1510.96 952.391 1510.96 Q954.937 1510.96 957.42 1510.29 Q959.934 1509.59 962.417 1508.22 L962.417 1513.64 Q959.966 1514.78 957.324 1515.35 Q954.714 1515.93 951.754 1515.93 Q943.702 1515.93 938.959 1510.87 Q934.217 1505.81 934.217 1497.21 Q934.217 1488.49 938.991 1483.49 Q943.797 1478.5 952.136 1478.5 Q954.842 1478.5 957.42 1479.07 Q959.998 1479.61 962.417 1480.72 Z" fill="#000000" fill-rule="evenodd" fill-opacity="1" /><path clip-path="url(#clip330)" d="M1003.09 1495.72 L1003.09 1498.58 L976.167 1498.58 Q976.549 1504.63 979.795 1507.81 Q983.074 1510.96 988.898 1510.96 Q992.272 1510.96 995.423 1510.13 Q998.606 1509.31 1001.73 1507.65 L1001.73 1513.19 Q998.574 1514.53 995.264 1515.23 Q991.954 1515.93 988.548 1515.93 Q980.018 1515.93 975.021 1510.96 Q970.056 1506 970.056 1497.53 Q970.056 1488.78 974.766 1483.65 Q979.509 1478.5 987.53 1478.5 Q994.723 1478.5 998.892 1483.14 Q1003.09 1487.76 1003.09 1495.72 M997.237 1494 Q997.174 1489.19 994.532 1486.33 Q991.922 1483.46 987.593 1483.46 Q982.692 1483.46 979.732 1486.23 Q976.803 1489 976.358 1494.03 L997.237 1494 Z" fill="#000000" fill-rule="evenodd" fill-opacity="1" /><polyline clip-path="url(#clip330)" style="stroke:#000000; stroke-linecap:butt; stroke-linejoin:round; stroke-width:4; stroke-opacity:1; fill:none" points="
  178.274,1382.14 178.274,47.2441 
  "/>
<polyline clip-path="url(#clip330)" style="stroke:#000000; stroke-linecap:butt; stroke-linejoin:round; stroke-width:4; stroke-opacity:1; fill:none" points="
  178.274,1344.36 197.172,1344.36 
  "/>
<polyline clip-path="url(#clip330)" style="stroke:#000000; stroke-linecap:butt; stroke-linejoin:round; stroke-width:4; stroke-opacity:1; fill:none" points="
  178.274,1029.53 197.172,1029.53 
  "/>
<polyline clip-path="url(#clip330)" style="stroke:#000000; stroke-linecap:butt; stroke-linejoin:round; stroke-width:4; stroke-opacity:1; fill:none" points="
  178.274,714.692 197.172,714.692 
  "/>
<polyline clip-path="url(#clip330)" style="stroke:#000000; stroke-linecap:butt; stroke-linejoin:round; stroke-width:4; stroke-opacity:1; fill:none" points="
  178.274,399.858 197.172,399.858 
  "/>
<polyline clip-path="url(#clip330)" style="stroke:#000000; stroke-linecap:butt; stroke-linejoin:round; stroke-width:4; stroke-opacity:1; fill:none" points="
  178.274,85.0242 197.172,85.0242 
  "/>
<path clip-path="url(#clip330)" d="M66.9365 1330.16 Q63.3254 1330.16 61.4967 1333.72 Q59.6912 1337.26 59.6912 1344.39 Q59.6912 1351.5 61.4967 1355.07 Q63.3254 1358.61 66.9365 1358.61 Q70.5707 1358.61 72.3763 1355.07 Q74.205 1351.5 74.205 1344.39 Q74.205 1337.26 72.3763 1333.72 Q70.5707 1330.16 66.9365 1330.16 M66.9365 1326.45 Q72.7467 1326.45 75.8022 1331.06 Q78.8809 1335.64 78.8809 1344.39 Q78.8809 1353.12 75.8022 1357.73 Q72.7467 1362.31 66.9365 1362.31 Q61.1264 1362.31 58.0477 1357.73 Q54.9921 1353.12 54.9921 1344.39 Q54.9921 1335.64 58.0477 1331.06 Q61.1264 1326.45 66.9365 1326.45 Z" fill="#000000" fill-rule="evenodd" fill-opacity="1" /><path clip-path="url(#clip330)" d="M87.0984 1355.76 L91.9827 1355.76 L91.9827 1361.64 L87.0984 1361.64 L87.0984 1355.76 Z" fill="#000000" fill-rule="evenodd" fill-opacity="1" /><path clip-path="url(#clip330)" d="M112.168 1330.16 Q108.557 1330.16 106.728 1333.72 Q104.922 1337.26 104.922 1344.39 Q104.922 1351.5 106.728 1355.07 Q108.557 1358.61 112.168 1358.61 Q115.802 1358.61 117.608 1355.07 Q119.436 1351.5 119.436 1344.39 Q119.436 1337.26 117.608 1333.72 Q115.802 1330.16 112.168 1330.16 M112.168 1326.45 Q117.978 1326.45 121.033 1331.06 Q124.112 1335.64 124.112 1344.39 Q124.112 1353.12 121.033 1357.73 Q117.978 1362.31 112.168 1362.31 Q106.358 1362.31 103.279 1357.73 Q100.223 1353.12 100.223 1344.39 Q100.223 1335.64 103.279 1331.06 Q106.358 1326.45 112.168 1326.45 Z" fill="#000000" fill-rule="evenodd" fill-opacity="1" /><path clip-path="url(#clip330)" d="M142.33 1330.16 Q138.719 1330.16 136.89 1333.72 Q135.084 1337.26 135.084 1344.39 Q135.084 1351.5 136.89 1355.07 Q138.719 1358.61 142.33 1358.61 Q145.964 1358.61 147.769 1355.07 Q149.598 1351.5 149.598 1344.39 Q149.598 1337.26 147.769 1333.72 Q145.964 1330.16 142.33 1330.16 M142.33 1326.45 Q148.14 1326.45 151.195 1331.06 Q154.274 1335.64 154.274 1344.39 Q154.274 1353.12 151.195 1357.73 Q148.14 1362.31 142.33 1362.31 Q136.519 1362.31 133.441 1357.73 Q130.385 1353.12 130.385 1344.39 Q130.385 1335.64 133.441 1331.06 Q136.519 1326.45 142.33 1326.45 Z" fill="#000000" fill-rule="evenodd" fill-opacity="1" /><path clip-path="url(#clip330)" d="M67.9319 1015.32 Q64.3208 1015.32 62.4921 1018.89 Q60.6865 1022.43 60.6865 1029.56 Q60.6865 1036.67 62.4921 1040.23 Q64.3208 1043.77 67.9319 1043.77 Q71.5661 1043.77 73.3717 1040.23 Q75.2004 1036.67 75.2004 1029.56 Q75.2004 1022.43 73.3717 1018.89 Q71.5661 1015.32 67.9319 1015.32 M67.9319 1011.62 Q73.742 1011.62 76.7976 1016.23 Q79.8763 1020.81 79.8763 1029.56 Q79.8763 1038.29 76.7976 1042.89 Q73.742 1047.48 67.9319 1047.48 Q62.1217 1047.48 59.043 1042.89 Q55.9875 1038.29 55.9875 1029.56 Q55.9875 1020.81 59.043 1016.23 Q62.1217 1011.62 67.9319 1011.62 Z" fill="#000000" fill-rule="evenodd" fill-opacity="1" /><path clip-path="url(#clip330)" d="M88.0938 1040.93 L92.978 1040.93 L92.978 1046.81 L88.0938 1046.81 L88.0938 1040.93 Z" fill="#000000" fill-rule="evenodd" fill-opacity="1" /><path clip-path="url(#clip330)" d="M107.191 1042.87 L123.51 1042.87 L123.51 1046.81 L101.566 1046.81 L101.566 1042.87 Q104.228 1040.12 108.811 1035.49 Q113.418 1030.83 114.598 1029.49 Q116.844 1026.97 117.723 1025.23 Q118.626 1023.47 118.626 1021.78 Q118.626 1019.03 116.682 1017.29 Q114.76 1015.56 111.658 1015.56 Q109.459 1015.56 107.006 1016.32 Q104.575 1017.08 101.797 1018.63 L101.797 1013.91 Q104.621 1012.78 107.075 1012.2 Q109.529 1011.62 111.566 1011.62 Q116.936 1011.62 120.131 1014.31 Q123.325 1016.99 123.325 1021.48 Q123.325 1023.61 122.515 1025.53 Q121.728 1027.43 119.621 1030.02 Q119.043 1030.69 115.941 1033.91 Q112.839 1037.11 107.191 1042.87 Z" fill="#000000" fill-rule="evenodd" fill-opacity="1" /><path clip-path="url(#clip330)" d="M133.371 1012.25 L151.728 1012.25 L151.728 1016.18 L137.654 1016.18 L137.654 1024.65 Q138.672 1024.31 139.691 1024.14 Q140.709 1023.96 141.728 1023.96 Q147.515 1023.96 150.894 1027.13 Q154.274 1030.3 154.274 1035.72 Q154.274 1041.3 150.802 1044.4 Q147.33 1047.48 141.01 1047.48 Q138.834 1047.48 136.566 1047.11 Q134.32 1046.74 131.913 1046 L131.913 1041.3 Q133.996 1042.43 136.219 1042.99 Q138.441 1043.54 140.918 1043.54 Q144.922 1043.54 147.26 1041.44 Q149.598 1039.33 149.598 1035.72 Q149.598 1032.11 147.26 1030 Q144.922 1027.89 140.918 1027.89 Q139.043 1027.89 137.168 1028.31 Q135.316 1028.73 133.371 1029.61 L133.371 1012.25 Z" fill="#000000" fill-rule="evenodd" fill-opacity="1" /><path clip-path="url(#clip330)" d="M66.9365 700.491 Q63.3254 700.491 61.4967 704.055 Q59.6912 707.597 59.6912 714.727 Q59.6912 721.833 61.4967 725.398 Q63.3254 728.94 66.9365 728.94 Q70.5707 728.94 72.3763 725.398 Q74.205 721.833 74.205 714.727 Q74.205 707.597 72.3763 704.055 Q70.5707 700.491 66.9365 700.491 M66.9365 696.787 Q72.7467 696.787 75.8022 701.393 Q78.8809 705.977 78.8809 714.727 Q78.8809 723.453 75.8022 728.06 Q72.7467 732.643 66.9365 732.643 Q61.1264 732.643 58.0477 728.06 Q54.9921 723.453 54.9921 714.727 Q54.9921 705.977 58.0477 701.393 Q61.1264 696.787 66.9365 696.787 Z" fill="#000000" fill-rule="evenodd" fill-opacity="1" /><path clip-path="url(#clip330)" d="M87.0984 726.092 L91.9827 726.092 L91.9827 731.972 L87.0984 731.972 L87.0984 726.092 Z" fill="#000000" fill-rule="evenodd" fill-opacity="1" /><path clip-path="url(#clip330)" d="M102.214 697.412 L120.57 697.412 L120.57 701.347 L106.496 701.347 L106.496 709.819 Q107.515 709.472 108.534 709.31 Q109.552 709.125 110.571 709.125 Q116.358 709.125 119.737 712.296 Q123.117 715.467 123.117 720.884 Q123.117 726.463 119.645 729.565 Q116.172 732.643 109.853 732.643 Q107.677 732.643 105.409 732.273 Q103.163 731.903 100.756 731.162 L100.756 726.463 Q102.839 727.597 105.061 728.153 Q107.284 728.708 109.76 728.708 Q113.765 728.708 116.103 726.602 Q118.441 724.495 118.441 720.884 Q118.441 717.273 116.103 715.167 Q113.765 713.06 109.76 713.06 Q107.885 713.06 106.01 713.477 Q104.159 713.893 102.214 714.773 L102.214 697.412 Z" fill="#000000" fill-rule="evenodd" fill-opacity="1" /><path clip-path="url(#clip330)" d="M142.33 700.491 Q138.719 700.491 136.89 704.055 Q135.084 707.597 135.084 714.727 Q135.084 721.833 136.89 725.398 Q138.719 728.94 142.33 728.94 Q145.964 728.94 147.769 725.398 Q149.598 721.833 149.598 714.727 Q149.598 707.597 147.769 704.055 Q145.964 700.491 142.33 700.491 M142.33 696.787 Q148.14 696.787 151.195 701.393 Q154.274 705.977 154.274 714.727 Q154.274 723.453 151.195 728.06 Q148.14 732.643 142.33 732.643 Q136.519 732.643 133.441 728.06 Q130.385 723.453 130.385 714.727 Q130.385 705.977 133.441 701.393 Q136.519 696.787 142.33 696.787 Z" fill="#000000" fill-rule="evenodd" fill-opacity="1" /><path clip-path="url(#clip330)" d="M67.9319 385.657 Q64.3208 385.657 62.4921 389.222 Q60.6865 392.763 60.6865 399.893 Q60.6865 406.999 62.4921 410.564 Q64.3208 414.106 67.9319 414.106 Q71.5661 414.106 73.3717 410.564 Q75.2004 406.999 75.2004 399.893 Q75.2004 392.763 73.3717 389.222 Q71.5661 385.657 67.9319 385.657 M67.9319 381.953 Q73.742 381.953 76.7976 386.56 Q79.8763 391.143 79.8763 399.893 Q79.8763 408.62 76.7976 413.226 Q73.742 417.809 67.9319 417.809 Q62.1217 417.809 59.043 413.226 Q55.9875 408.62 55.9875 399.893 Q55.9875 391.143 59.043 386.56 Q62.1217 381.953 67.9319 381.953 Z" fill="#000000" fill-rule="evenodd" fill-opacity="1" /><path clip-path="url(#clip330)" d="M88.0938 411.258 L92.978 411.258 L92.978 417.138 L88.0938 417.138 L88.0938 411.258 Z" fill="#000000" fill-rule="evenodd" fill-opacity="1" /><path clip-path="url(#clip330)" d="M101.983 382.578 L124.205 382.578 L124.205 384.569 L111.658 417.138 L106.774 417.138 L118.58 386.513 L101.983 386.513 L101.983 382.578 Z" fill="#000000" fill-rule="evenodd" fill-opacity="1" /><path clip-path="url(#clip330)" d="M133.371 382.578 L151.728 382.578 L151.728 386.513 L137.654 386.513 L137.654 394.985 Q138.672 394.638 139.691 394.476 Q140.709 394.291 141.728 394.291 Q147.515 394.291 150.894 397.462 Q154.274 400.634 154.274 406.05 Q154.274 411.629 150.802 414.731 Q147.33 417.809 141.01 417.809 Q138.834 417.809 136.566 417.439 Q134.32 417.069 131.913 416.328 L131.913 411.629 Q133.996 412.763 136.219 413.319 Q138.441 413.874 140.918 413.874 Q144.922 413.874 147.26 411.768 Q149.598 409.661 149.598 406.05 Q149.598 402.439 147.26 400.333 Q144.922 398.226 140.918 398.226 Q139.043 398.226 137.168 398.643 Q135.316 399.059 133.371 399.939 L133.371 382.578 Z" fill="#000000" fill-rule="evenodd" fill-opacity="1" /><path clip-path="url(#clip330)" d="M57.7467 98.369 L65.3856 98.369 L65.3856 72.0034 L57.0754 73.6701 L57.0754 69.4108 L65.3393 67.7442 L70.0152 67.7442 L70.0152 98.369 L77.654 98.369 L77.654 102.304 L57.7467 102.304 L57.7467 98.369 Z" fill="#000000" fill-rule="evenodd" fill-opacity="1" /><path clip-path="url(#clip330)" d="M87.0984 96.4246 L91.9827 96.4246 L91.9827 102.304 L87.0984 102.304 L87.0984 96.4246 Z" fill="#000000" fill-rule="evenodd" fill-opacity="1" /><path clip-path="url(#clip330)" d="M112.168 70.8229 Q108.557 70.8229 106.728 74.3876 Q104.922 77.9293 104.922 85.0589 Q104.922 92.1653 106.728 95.7301 Q108.557 99.2718 112.168 99.2718 Q115.802 99.2718 117.608 95.7301 Q119.436 92.1653 119.436 85.0589 Q119.436 77.9293 117.608 74.3876 Q115.802 70.8229 112.168 70.8229 M112.168 67.1192 Q117.978 67.1192 121.033 71.7256 Q124.112 76.3089 124.112 85.0589 Q124.112 93.7857 121.033 98.3921 Q117.978 102.975 112.168 102.975 Q106.358 102.975 103.279 98.3921 Q100.223 93.7857 100.223 85.0589 Q100.223 76.3089 103.279 71.7256 Q106.358 67.1192 112.168 67.1192 Z" fill="#000000" fill-rule="evenodd" fill-opacity="1" /><path clip-path="url(#clip330)" d="M142.33 70.8229 Q138.719 70.8229 136.89 74.3876 Q135.084 77.9293 135.084 85.0589 Q135.084 92.1653 136.89 95.7301 Q138.719 99.2718 142.33 99.2718 Q145.964 99.2718 147.769 95.7301 Q149.598 92.1653 149.598 85.0589 Q149.598 77.9293 147.769 74.3876 Q145.964 70.8229 142.33 70.8229 M142.33 67.1192 Q148.14 67.1192 151.195 71.7256 Q154.274 76.3089 154.274 85.0589 Q154.274 93.7857 151.195 98.3921 Q148.14 102.975 142.33 102.975 Q136.519 102.975 133.441 98.3921 Q130.385 93.7857 130.385 85.0589 Q130.385 76.3089 133.441 71.7256 Q136.519 67.1192 142.33 67.1192 Z" fill="#000000" fill-rule="evenodd" fill-opacity="1" /><polyline clip-path="url(#clip332)" style="stroke:#009af9; stroke-linecap:butt; stroke-linejoin:round; stroke-width:4; stroke-opacity:1; fill:none" points="
  178.274,85.0242 212.636,214.384 246.998,341.609 281.36,464.669 315.722,581.736 350.084,691.262 384.446,792.043 418.808,883.246 453.17,964.419 487.532,1035.47 
  521.894,1096.64 556.257,1148.43 590.619,1191.56 624.981,1226.88 659.343,1255.32 693.705,1277.86 728.067,1295.41 762.429,1308.86 796.791,1319 831.153,1326.51 
  865.515,1331.99 899.877,1335.91 934.239,1338.68 968.601,1340.6 1002.96,1341.91 1037.33,1342.79 1071.69,1343.37 1106.05,1343.74 1140.41,1343.98 1174.77,1344.13 
  1209.14,1344.22 1243.5,1344.28 1277.86,1344.31 1312.22,1344.33 1346.58,1344.35 1380.95,1344.35 1415.31,1344.36 1449.67,1344.36 1484.03,1344.36 1518.39,1344.36 
  1552.76,1344.36 1587.12,1344.36 1621.48,1344.36 1655.84,1344.36 1690.2,1344.36 1724.57,1344.36 1758.93,1344.36 1793.29,1344.36 1827.65,1344.36 1862.01,1344.36 
  1896.38,1344.36 1930.74,1344.36 1965.1,1344.36 1999.46,1344.36 2033.82,1344.36 2068.19,1344.36 2102.55,1344.36 2136.91,1344.36 2171.27,1344.36 2205.63,1344.36 
  2240,1344.36 
  "/>
<polyline clip-path="url(#clip332)" style="stroke:#e26f46; stroke-linecap:butt; stroke-linejoin:round; stroke-width:4; stroke-opacity:1; fill:none" points="
  178.274,1344.36 212.636,1151.08 246.998,978.58 281.36,826.357 315.722,693.584 350.084,579.161 384.446,481.767 418.808,399.912 453.17,332.006 487.532,276.415 
  521.894,231.515 556.257,195.746 590.619,167.645 624.981,145.878 659.343,129.256 693.705,116.746 728.067,107.467 762.429,100.686 796.791,95.8021 831.153,92.3379 
  865.515,89.9173 899.877,88.2512 934.239,87.122 968.601,86.3682 1002.96,85.8727 1037.33,85.5521 1071.69,85.3477 1106.05,85.2196 1140.41,85.1404 1174.77,85.0923 
  1209.14,85.0635 1243.5,85.0465 1277.86,85.0367 1312.22,85.0311 1346.58,85.0279 1380.95,85.0262 1415.31,85.0252 1449.67,85.0247 1484.03,85.0244 1518.39,85.0243 
  1552.76,85.0242 1587.12,85.0242 1621.48,85.0242 1655.84,85.0242 1690.2,85.0242 1724.57,85.0242 1758.93,85.0242 1793.29,85.0242 1827.65,85.0242 1862.01,85.0242 
  1896.38,85.0242 1930.74,85.0242 1965.1,85.0242 1999.46,85.0242 2033.82,85.0242 2068.19,85.0242 2102.55,85.0242 2136.91,85.0242 2171.27,85.0242 2205.63,85.0242 
  2240,85.0242 
  "/>
<polyline clip-path="url(#clip332)" style="stroke:#000000; stroke-linecap:butt; stroke-linejoin:round; stroke-width:4; stroke-opacity:1; fill:none" stroke-dasharray="16, 10" points="
  554.691,2717.04 554.691,-1287.65 
  "/>
<path clip-path="url(#clip330)" d="
M986.698 792.452 L1506.94 792.452 L1506.94 585.092 L986.698 585.092  Z
  " fill="#ffffff" fill-rule="evenodd" fill-opacity="1"/>
<polyline clip-path="url(#clip330)" style="stroke:#000000; stroke-linecap:butt; stroke-linejoin:round; stroke-width:4; stroke-opacity:1; fill:none" points="
  986.698,792.452 1506.94,792.452 1506.94,585.092 986.698,585.092 986.698,792.452 
  "/>
<polyline clip-path="url(#clip330)" style="stroke:#009af9; stroke-linecap:butt; stroke-linejoin:round; stroke-width:4; stroke-opacity:1; fill:none" points="
  1001.97,636.932 1093.6,636.932 
  "/>
<path clip-path="url(#clip330)" d="M1136.74 622.314 L1136.74 627.245 Q1134.38 625.045 1131.7 623.958 Q1129.04 622.87 1126.03 622.87 Q1120.1 622.87 1116.95 626.504 Q1113.81 630.115 1113.81 636.967 Q1113.81 643.795 1116.95 647.43 Q1120.1 651.041 1126.03 651.041 Q1129.04 651.041 1131.7 649.953 Q1134.38 648.865 1136.74 646.666 L1136.74 651.55 Q1134.29 653.217 1131.54 654.05 Q1128.81 654.883 1125.75 654.883 Q1117.9 654.883 1113.39 650.092 Q1108.87 645.277 1108.87 636.967 Q1108.87 628.633 1113.39 623.842 Q1117.9 619.027 1125.75 619.027 Q1128.85 619.027 1131.58 619.86 Q1134.34 620.67 1136.74 622.314 Z" fill="#000000" fill-rule="evenodd" fill-opacity="1" /><path clip-path="url(#clip330)" d="M1153.83 631.272 Q1150.4 631.272 1148.41 633.957 Q1146.42 636.619 1146.42 641.272 Q1146.42 645.925 1148.39 648.61 Q1150.38 651.272 1153.83 651.272 Q1157.23 651.272 1159.22 648.587 Q1161.21 645.902 1161.21 641.272 Q1161.21 636.666 1159.22 633.981 Q1157.23 631.272 1153.83 631.272 M1153.83 627.661 Q1159.38 627.661 1162.55 631.272 Q1165.73 634.883 1165.73 641.272 Q1165.73 647.638 1162.55 651.272 Q1159.38 654.883 1153.83 654.883 Q1148.25 654.883 1145.08 651.272 Q1141.93 647.638 1141.93 641.272 Q1141.93 634.883 1145.08 631.272 Q1148.25 627.661 1153.83 627.661 Z" fill="#000000" fill-rule="evenodd" fill-opacity="1" /><path clip-path="url(#clip330)" d="M1194.34 638.564 L1194.34 654.212 L1190.08 654.212 L1190.08 638.703 Q1190.08 635.022 1188.64 633.194 Q1187.21 631.365 1184.34 631.365 Q1180.89 631.365 1178.9 633.564 Q1176.91 635.763 1176.91 639.559 L1176.91 654.212 L1172.62 654.212 L1172.62 628.286 L1176.91 628.286 L1176.91 632.314 Q1178.43 629.976 1180.49 628.819 Q1182.58 627.661 1185.29 627.661 Q1189.75 627.661 1192.05 630.439 Q1194.34 633.194 1194.34 638.564 Z" fill="#000000" fill-rule="evenodd" fill-opacity="1" /><path clip-path="url(#clip330)" d="M1221.49 629.282 L1221.49 633.263 Q1219.68 632.268 1217.86 631.782 Q1216.05 631.272 1214.2 631.272 Q1210.05 631.272 1207.76 633.911 Q1205.47 636.527 1205.47 641.272 Q1205.47 646.018 1207.76 648.656 Q1210.05 651.272 1214.2 651.272 Q1216.05 651.272 1217.86 650.786 Q1219.68 650.277 1221.49 649.281 L1221.49 653.217 Q1219.71 654.05 1217.79 654.467 Q1215.89 654.883 1213.74 654.883 Q1207.88 654.883 1204.43 651.203 Q1200.98 647.522 1200.98 641.272 Q1200.98 634.93 1204.45 631.295 Q1207.95 627.661 1214.01 627.661 Q1215.98 627.661 1217.86 628.078 Q1219.73 628.471 1221.49 629.282 Z" fill="#000000" fill-rule="evenodd" fill-opacity="1" /><path clip-path="url(#clip330)" d="M1251.07 640.184 L1251.07 642.268 L1231.49 642.268 Q1231.77 646.666 1234.13 648.981 Q1236.51 651.272 1240.75 651.272 Q1243.2 651.272 1245.49 650.67 Q1247.81 650.068 1250.08 648.865 L1250.08 652.893 Q1247.79 653.865 1245.38 654.374 Q1242.97 654.883 1240.49 654.883 Q1234.29 654.883 1230.66 651.272 Q1227.05 647.661 1227.05 641.504 Q1227.05 635.138 1230.47 631.411 Q1233.92 627.661 1239.75 627.661 Q1244.99 627.661 1248.02 631.041 Q1251.07 634.397 1251.07 640.184 M1246.81 638.934 Q1246.77 635.439 1244.85 633.356 Q1242.95 631.272 1239.8 631.272 Q1236.24 631.272 1234.08 633.286 Q1231.95 635.3 1231.63 638.957 L1246.81 638.934 Z" fill="#000000" fill-rule="evenodd" fill-opacity="1" /><path clip-path="url(#clip330)" d="M1279.61 638.564 L1279.61 654.212 L1275.36 654.212 L1275.36 638.703 Q1275.36 635.022 1273.92 633.194 Q1272.48 631.365 1269.61 631.365 Q1266.17 631.365 1264.17 633.564 Q1262.18 635.763 1262.18 639.559 L1262.18 654.212 L1257.9 654.212 L1257.9 628.286 L1262.18 628.286 L1262.18 632.314 Q1263.71 629.976 1265.77 628.819 Q1267.86 627.661 1270.56 627.661 Q1275.03 627.661 1277.32 630.439 Q1279.61 633.194 1279.61 638.564 Z" fill="#000000" fill-rule="evenodd" fill-opacity="1" /><path clip-path="url(#clip330)" d="M1292.32 620.925 L1292.32 628.286 L1301.1 628.286 L1301.1 631.596 L1292.32 631.596 L1292.32 645.67 Q1292.32 648.842 1293.18 649.744 Q1294.06 650.647 1296.72 650.647 L1301.1 650.647 L1301.1 654.212 L1296.72 654.212 Q1291.79 654.212 1289.92 652.383 Q1288.04 650.531 1288.04 645.67 L1288.04 631.596 L1284.92 631.596 L1284.92 628.286 L1288.04 628.286 L1288.04 620.925 L1292.32 620.925 Z" fill="#000000" fill-rule="evenodd" fill-opacity="1" /><path clip-path="url(#clip330)" d="M1321.72 632.268 Q1321 631.851 1320.15 631.666 Q1319.31 631.457 1318.29 631.457 Q1314.68 631.457 1312.74 633.819 Q1310.82 636.157 1310.82 640.555 L1310.82 654.212 L1306.54 654.212 L1306.54 628.286 L1310.82 628.286 L1310.82 632.314 Q1312.16 629.953 1314.31 628.819 Q1316.47 627.661 1319.54 627.661 Q1319.98 627.661 1320.52 627.731 Q1321.05 627.777 1321.7 627.893 L1321.72 632.268 Z" fill="#000000" fill-rule="evenodd" fill-opacity="1" /><path clip-path="url(#clip330)" d="M1337.97 641.18 Q1332.81 641.18 1330.82 642.36 Q1328.83 643.541 1328.83 646.388 Q1328.83 648.656 1330.31 649.999 Q1331.81 651.318 1334.38 651.318 Q1337.92 651.318 1340.05 648.818 Q1342.21 646.295 1342.21 642.129 L1342.21 641.18 L1337.97 641.18 M1346.47 639.42 L1346.47 654.212 L1342.21 654.212 L1342.21 650.277 Q1340.75 652.638 1338.57 653.772 Q1336.4 654.883 1333.25 654.883 Q1329.27 654.883 1326.91 652.661 Q1324.57 650.416 1324.57 646.666 Q1324.57 642.291 1327.48 640.069 Q1330.42 637.846 1336.23 637.846 L1342.21 637.846 L1342.21 637.43 Q1342.21 634.49 1340.26 632.893 Q1338.34 631.272 1334.85 631.272 Q1332.62 631.272 1330.52 631.805 Q1328.41 632.337 1326.47 633.402 L1326.47 629.467 Q1328.8 628.564 1331 628.124 Q1333.2 627.661 1335.29 627.661 Q1340.91 627.661 1343.69 630.578 Q1346.47 633.494 1346.47 639.42 Z" fill="#000000" fill-rule="evenodd" fill-opacity="1" /><path clip-path="url(#clip330)" d="M1359.45 620.925 L1359.45 628.286 L1368.23 628.286 L1368.23 631.596 L1359.45 631.596 L1359.45 645.67 Q1359.45 648.842 1360.31 649.744 Q1361.19 650.647 1363.85 650.647 L1368.23 650.647 L1368.23 654.212 L1363.85 654.212 Q1358.92 654.212 1357.04 652.383 Q1355.17 650.531 1355.17 645.67 L1355.17 631.596 L1352.04 631.596 L1352.04 628.286 L1355.17 628.286 L1355.17 620.925 L1359.45 620.925 Z" fill="#000000" fill-rule="evenodd" fill-opacity="1" /><path clip-path="url(#clip330)" d="M1373.83 628.286 L1378.09 628.286 L1378.09 654.212 L1373.83 654.212 L1373.83 628.286 M1373.83 618.194 L1378.09 618.194 L1378.09 623.587 L1373.83 623.587 L1373.83 618.194 Z" fill="#000000" fill-rule="evenodd" fill-opacity="1" /><path clip-path="url(#clip330)" d="M1397.04 631.272 Q1393.62 631.272 1391.63 633.957 Q1389.64 636.619 1389.64 641.272 Q1389.64 645.925 1391.6 648.61 Q1393.6 651.272 1397.04 651.272 Q1400.45 651.272 1402.44 648.587 Q1404.43 645.902 1404.43 641.272 Q1404.43 636.666 1402.44 633.981 Q1400.45 631.272 1397.04 631.272 M1397.04 627.661 Q1402.6 627.661 1405.77 631.272 Q1408.94 634.883 1408.94 641.272 Q1408.94 647.638 1405.77 651.272 Q1402.6 654.883 1397.04 654.883 Q1391.47 654.883 1388.29 651.272 Q1385.15 647.638 1385.15 641.272 Q1385.15 634.883 1388.29 631.272 Q1391.47 627.661 1397.04 627.661 Z" fill="#000000" fill-rule="evenodd" fill-opacity="1" /><path clip-path="url(#clip330)" d="M1437.55 638.564 L1437.55 654.212 L1433.29 654.212 L1433.29 638.703 Q1433.29 635.022 1431.86 633.194 Q1430.42 631.365 1427.55 631.365 Q1424.1 631.365 1422.11 633.564 Q1420.12 635.763 1420.12 639.559 L1420.12 654.212 L1415.84 654.212 L1415.84 628.286 L1420.12 628.286 L1420.12 632.314 Q1421.65 629.976 1423.71 628.819 Q1425.79 627.661 1428.5 627.661 Q1432.97 627.661 1435.26 630.439 Q1437.55 633.194 1437.55 638.564 Z" fill="#000000" fill-rule="evenodd" fill-opacity="1" /><polyline clip-path="url(#clip330)" style="stroke:#e26f46; stroke-linecap:butt; stroke-linejoin:round; stroke-width:4; stroke-opacity:1; fill:none" points="
  1001.97,688.772 1093.6,688.772 
  "/>
<path clip-path="url(#clip330)" d="M1136.74 674.154 L1136.74 679.085 Q1134.38 676.885 1131.7 675.798 Q1129.04 674.71 1126.03 674.71 Q1120.1 674.71 1116.95 678.344 Q1113.81 681.955 1113.81 688.807 Q1113.81 695.635 1116.95 699.27 Q1120.1 702.881 1126.03 702.881 Q1129.04 702.881 1131.7 701.793 Q1134.38 700.705 1136.74 698.506 L1136.74 703.39 Q1134.29 705.057 1131.54 705.89 Q1128.81 706.723 1125.75 706.723 Q1117.9 706.723 1113.39 701.932 Q1108.87 697.117 1108.87 688.807 Q1108.87 680.473 1113.39 675.682 Q1117.9 670.867 1125.75 670.867 Q1128.85 670.867 1131.58 671.7 Q1134.34 672.51 1136.74 674.154 Z" fill="#000000" fill-rule="evenodd" fill-opacity="1" /><path clip-path="url(#clip330)" d="M1143.34 695.821 L1143.34 680.126 L1147.6 680.126 L1147.6 695.659 Q1147.6 699.339 1149.04 701.191 Q1150.47 703.02 1153.34 703.02 Q1156.79 703.02 1158.78 700.821 Q1160.8 698.621 1160.8 694.825 L1160.8 680.126 L1165.05 680.126 L1165.05 706.052 L1160.8 706.052 L1160.8 702.071 Q1159.24 704.432 1157.18 705.589 Q1155.15 706.723 1152.44 706.723 Q1147.97 706.723 1145.66 703.945 Q1143.34 701.168 1143.34 695.821 M1154.06 679.501 L1154.06 679.501 Z" fill="#000000" fill-rule="evenodd" fill-opacity="1" /><path clip-path="url(#clip330)" d="M1194.01 685.103 Q1195.61 682.233 1197.83 680.867 Q1200.05 679.501 1203.06 679.501 Q1207.11 679.501 1209.31 682.348 Q1211.51 685.172 1211.51 690.404 L1211.51 706.052 L1207.23 706.052 L1207.23 690.543 Q1207.23 686.816 1205.91 685.01 Q1204.59 683.205 1201.88 683.205 Q1198.57 683.205 1196.65 685.404 Q1194.73 687.603 1194.73 691.399 L1194.73 706.052 L1190.45 706.052 L1190.45 690.543 Q1190.45 686.793 1189.13 685.01 Q1187.81 683.205 1185.05 683.205 Q1181.79 683.205 1179.87 685.427 Q1177.95 687.626 1177.95 691.399 L1177.95 706.052 L1173.67 706.052 L1173.67 680.126 L1177.95 680.126 L1177.95 684.154 Q1179.41 681.77 1181.44 680.635 Q1183.48 679.501 1186.28 679.501 Q1189.11 679.501 1191.07 680.936 Q1193.06 682.372 1194.01 685.103 Z" fill="#000000" fill-rule="evenodd" fill-opacity="1" /><path clip-path="url(#clip330)" d="M1219.57 695.821 L1219.57 680.126 L1223.83 680.126 L1223.83 695.659 Q1223.83 699.339 1225.26 701.191 Q1226.7 703.02 1229.57 703.02 Q1233.02 703.02 1235.01 700.821 Q1237.02 698.621 1237.02 694.825 L1237.02 680.126 L1241.28 680.126 L1241.28 706.052 L1237.02 706.052 L1237.02 702.071 Q1235.47 704.432 1233.41 705.589 Q1231.37 706.723 1228.67 706.723 Q1224.2 706.723 1221.88 703.945 Q1219.57 701.168 1219.57 695.821 M1230.29 679.501 L1230.29 679.501 Z" fill="#000000" fill-rule="evenodd" fill-opacity="1" /><path clip-path="url(#clip330)" d="M1250.05 670.034 L1254.31 670.034 L1254.31 706.052 L1250.05 706.052 L1250.05 670.034 Z" fill="#000000" fill-rule="evenodd" fill-opacity="1" /><path clip-path="url(#clip330)" d="M1275.01 693.02 Q1269.85 693.02 1267.86 694.2 Q1265.86 695.381 1265.86 698.228 Q1265.86 700.496 1267.35 701.839 Q1268.85 703.158 1271.42 703.158 Q1274.96 703.158 1277.09 700.658 Q1279.24 698.135 1279.24 693.969 L1279.24 693.02 L1275.01 693.02 M1283.5 691.26 L1283.5 706.052 L1279.24 706.052 L1279.24 702.117 Q1277.79 704.478 1275.61 705.612 Q1273.43 706.723 1270.29 706.723 Q1266.3 706.723 1263.94 704.501 Q1261.61 702.256 1261.61 698.506 Q1261.61 694.131 1264.52 691.909 Q1267.46 689.686 1273.27 689.686 L1279.24 689.686 L1279.24 689.27 Q1279.24 686.33 1277.3 684.733 Q1275.38 683.112 1271.88 683.112 Q1269.66 683.112 1267.55 683.645 Q1265.45 684.177 1263.5 685.242 L1263.5 681.307 Q1265.84 680.404 1268.04 679.964 Q1270.24 679.501 1272.32 679.501 Q1277.95 679.501 1280.73 682.418 Q1283.5 685.334 1283.5 691.26 Z" fill="#000000" fill-rule="evenodd" fill-opacity="1" /><path clip-path="url(#clip330)" d="M1296.49 672.765 L1296.49 680.126 L1305.26 680.126 L1305.26 683.436 L1296.49 683.436 L1296.49 697.51 Q1296.49 700.682 1297.35 701.584 Q1298.23 702.487 1300.89 702.487 L1305.26 702.487 L1305.26 706.052 L1300.89 706.052 Q1295.96 706.052 1294.08 704.223 Q1292.21 702.371 1292.21 697.51 L1292.21 683.436 L1289.08 683.436 L1289.08 680.126 L1292.21 680.126 L1292.21 672.765 L1296.49 672.765 Z" fill="#000000" fill-rule="evenodd" fill-opacity="1" /><path clip-path="url(#clip330)" d="M1310.86 680.126 L1315.12 680.126 L1315.12 706.052 L1310.86 706.052 L1310.86 680.126 M1310.86 670.034 L1315.12 670.034 L1315.12 675.427 L1310.86 675.427 L1310.86 670.034 Z" fill="#000000" fill-rule="evenodd" fill-opacity="1" /><path clip-path="url(#clip330)" d="M1320.98 680.126 L1325.49 680.126 L1333.6 701.885 L1341.7 680.126 L1346.21 680.126 L1336.49 706.052 L1330.7 706.052 L1320.98 680.126 Z" fill="#000000" fill-rule="evenodd" fill-opacity="1" /><path clip-path="url(#clip330)" d="M1374.27 692.024 L1374.27 694.108 L1354.68 694.108 Q1354.96 698.506 1357.32 700.821 Q1359.71 703.112 1363.94 703.112 Q1366.4 703.112 1368.69 702.51 Q1371 701.908 1373.27 700.705 L1373.27 704.733 Q1370.98 705.705 1368.57 706.214 Q1366.16 706.723 1363.69 706.723 Q1357.48 706.723 1353.85 703.112 Q1350.24 699.501 1350.24 693.344 Q1350.24 686.978 1353.66 683.251 Q1357.11 679.501 1362.95 679.501 Q1368.18 679.501 1371.21 682.881 Q1374.27 686.237 1374.27 692.024 M1370.01 690.774 Q1369.96 687.279 1368.04 685.196 Q1366.14 683.112 1362.99 683.112 Q1359.43 683.112 1357.28 685.126 Q1355.15 687.14 1354.82 690.797 L1370.01 690.774 Z" fill="#000000" fill-rule="evenodd" fill-opacity="1" /><polyline clip-path="url(#clip330)" style="stroke:#000000; stroke-linecap:butt; stroke-linejoin:round; stroke-width:4; stroke-opacity:1; fill:none" stroke-dasharray="16, 10" points="
  1001.97,740.612 1093.6,740.612 
  "/>
<path clip-path="url(#clip330)" d="M1113.55 727.175 L1113.55 754.049 L1119.2 754.049 Q1126.35 754.049 1129.66 750.809 Q1132.99 747.568 1132.99 740.577 Q1132.99 733.633 1129.66 730.415 Q1126.35 727.175 1119.2 727.175 L1113.55 727.175 M1108.87 723.332 L1118.48 723.332 Q1128.53 723.332 1133.23 727.522 Q1137.93 731.688 1137.93 740.577 Q1137.93 749.512 1133.2 753.702 Q1128.48 757.892 1118.48 757.892 L1108.87 757.892 L1108.87 723.332 Z" fill="#000000" fill-rule="evenodd" fill-opacity="1" /><path clip-path="url(#clip330)" d="M1145.19 731.966 L1149.45 731.966 L1149.45 757.892 L1145.19 757.892 L1145.19 731.966 M1145.19 721.874 L1149.45 721.874 L1149.45 727.267 L1145.19 727.267 L1145.19 721.874 Z" fill="#000000" fill-rule="evenodd" fill-opacity="1" /><path clip-path="url(#clip330)" d="M1171.49 721.874 L1171.49 725.415 L1167.42 725.415 Q1165.12 725.415 1164.22 726.341 Q1163.34 727.267 1163.34 729.675 L1163.34 731.966 L1170.36 731.966 L1170.36 735.276 L1163.34 735.276 L1163.34 757.892 L1159.06 757.892 L1159.06 735.276 L1154.99 735.276 L1154.99 731.966 L1159.06 731.966 L1159.06 730.161 Q1159.06 725.832 1161.07 723.864 Q1163.09 721.874 1167.46 721.874 L1171.49 721.874 Z" fill="#000000" fill-rule="evenodd" fill-opacity="1" /><path clip-path="url(#clip330)" d="M1188.18 721.874 L1188.18 725.415 L1184.11 725.415 Q1181.81 725.415 1180.91 726.341 Q1180.03 727.267 1180.03 729.675 L1180.03 731.966 L1187.05 731.966 L1187.05 735.276 L1180.03 735.276 L1180.03 757.892 L1175.75 757.892 L1175.75 735.276 L1171.68 735.276 L1171.68 731.966 L1175.75 731.966 L1175.75 730.161 Q1175.75 725.832 1177.76 723.864 Q1179.78 721.874 1184.15 721.874 L1188.18 721.874 Z" fill="#000000" fill-rule="evenodd" fill-opacity="1" /><path clip-path="url(#clip330)" d="M1191.3 747.661 L1191.3 731.966 L1195.56 731.966 L1195.56 747.499 Q1195.56 751.179 1197 753.031 Q1198.43 754.86 1201.3 754.86 Q1204.75 754.86 1206.74 752.661 Q1208.76 750.461 1208.76 746.665 L1208.76 731.966 L1213.02 731.966 L1213.02 757.892 L1208.76 757.892 L1208.76 753.911 Q1207.21 756.272 1205.15 757.429 Q1203.11 758.563 1200.4 758.563 Q1195.93 758.563 1193.62 755.785 Q1191.3 753.008 1191.3 747.661 M1202.02 731.341 L1202.02 731.341 Z" fill="#000000" fill-rule="evenodd" fill-opacity="1" /><path clip-path="url(#clip330)" d="M1238.32 732.73 L1238.32 736.758 Q1236.51 735.832 1234.57 735.369 Q1232.62 734.906 1230.54 734.906 Q1227.37 734.906 1225.77 735.878 Q1224.2 736.85 1224.2 738.795 Q1224.2 740.276 1225.33 741.133 Q1226.47 741.966 1229.89 742.73 L1231.35 743.054 Q1235.89 744.026 1237.79 745.809 Q1239.71 747.568 1239.71 750.739 Q1239.71 754.35 1236.84 756.457 Q1233.99 758.563 1228.99 758.563 Q1226.91 758.563 1224.64 758.147 Q1222.39 757.753 1219.89 756.943 L1219.89 752.545 Q1222.25 753.772 1224.55 754.397 Q1226.84 754.998 1229.08 754.998 Q1232.09 754.998 1233.71 753.98 Q1235.33 752.938 1235.33 751.063 Q1235.33 749.327 1234.15 748.401 Q1232.99 747.475 1229.04 746.619 L1227.55 746.272 Q1223.6 745.438 1221.84 743.725 Q1220.08 741.989 1220.08 738.98 Q1220.08 735.323 1222.67 733.332 Q1225.26 731.341 1230.03 731.341 Q1232.39 731.341 1234.48 731.688 Q1236.56 732.036 1238.32 732.73 Z" fill="#000000" fill-rule="evenodd" fill-opacity="1" /><path clip-path="url(#clip330)" d="M1246.49 731.966 L1250.75 731.966 L1250.75 757.892 L1246.49 757.892 L1246.49 731.966 M1246.49 721.874 L1250.75 721.874 L1250.75 727.267 L1246.49 727.267 L1246.49 721.874 Z" fill="#000000" fill-rule="evenodd" fill-opacity="1" /><path clip-path="url(#clip330)" d="M1269.71 734.952 Q1266.28 734.952 1264.29 737.637 Q1262.3 740.299 1262.3 744.952 Q1262.3 749.605 1264.27 752.29 Q1266.26 754.952 1269.71 754.952 Q1273.11 754.952 1275.1 752.267 Q1277.09 749.582 1277.09 744.952 Q1277.09 740.346 1275.1 737.661 Q1273.11 734.952 1269.71 734.952 M1269.71 731.341 Q1275.26 731.341 1278.43 734.952 Q1281.61 738.563 1281.61 744.952 Q1281.61 751.318 1278.43 754.952 Q1275.26 758.563 1269.71 758.563 Q1264.13 758.563 1260.96 754.952 Q1257.81 751.318 1257.81 744.952 Q1257.81 738.563 1260.96 734.952 Q1264.13 731.341 1269.71 731.341 Z" fill="#000000" fill-rule="evenodd" fill-opacity="1" /><path clip-path="url(#clip330)" d="M1310.22 742.244 L1310.22 757.892 L1305.96 757.892 L1305.96 742.383 Q1305.96 738.702 1304.52 736.874 Q1303.09 735.045 1300.22 735.045 Q1296.77 735.045 1294.78 737.244 Q1292.79 739.443 1292.79 743.239 L1292.79 757.892 L1288.5 757.892 L1288.5 731.966 L1292.79 731.966 L1292.79 735.994 Q1294.31 733.656 1296.37 732.499 Q1298.46 731.341 1301.17 731.341 Q1305.63 731.341 1307.92 734.119 Q1310.22 736.874 1310.22 742.244 Z" fill="#000000" fill-rule="evenodd" fill-opacity="1" /><path clip-path="url(#clip330)" d="M1333.78 721.874 L1338.04 721.874 L1338.04 757.892 L1333.78 757.892 L1333.78 721.874 Z" fill="#000000" fill-rule="evenodd" fill-opacity="1" /><path clip-path="url(#clip330)" d="M1369.13 743.864 L1369.13 745.948 L1349.54 745.948 Q1349.82 750.346 1352.18 752.661 Q1354.57 754.952 1358.8 754.952 Q1361.26 754.952 1363.55 754.35 Q1365.86 753.748 1368.13 752.545 L1368.13 756.573 Q1365.84 757.545 1363.43 758.054 Q1361.03 758.563 1358.55 758.563 Q1352.35 758.563 1348.71 754.952 Q1345.1 751.341 1345.1 745.184 Q1345.1 738.818 1348.53 735.091 Q1351.98 731.341 1357.81 731.341 Q1363.04 731.341 1366.07 734.721 Q1369.13 738.077 1369.13 743.864 M1364.87 742.614 Q1364.82 739.119 1362.9 737.036 Q1361 734.952 1357.85 734.952 Q1354.29 734.952 1352.14 736.966 Q1350.01 738.98 1349.68 742.637 L1364.87 742.614 Z" fill="#000000" fill-rule="evenodd" fill-opacity="1" /><path clip-path="url(#clip330)" d="M1397.67 742.244 L1397.67 757.892 L1393.41 757.892 L1393.41 742.383 Q1393.41 738.702 1391.97 736.874 Q1390.54 735.045 1387.67 735.045 Q1384.22 735.045 1382.23 737.244 Q1380.24 739.443 1380.24 743.239 L1380.24 757.892 L1375.96 757.892 L1375.96 731.966 L1380.24 731.966 L1380.24 735.994 Q1381.77 733.656 1383.83 732.499 Q1385.91 731.341 1388.62 731.341 Q1393.09 731.341 1395.38 734.119 Q1397.67 736.874 1397.67 742.244 Z" fill="#000000" fill-rule="evenodd" fill-opacity="1" /><path clip-path="url(#clip330)" d="M1423.22 744.628 Q1423.22 739.999 1421.3 737.452 Q1419.41 734.906 1415.96 734.906 Q1412.53 734.906 1410.61 737.452 Q1408.71 739.999 1408.71 744.628 Q1408.71 749.235 1410.61 751.781 Q1412.53 754.327 1415.96 754.327 Q1419.41 754.327 1421.3 751.781 Q1423.22 749.235 1423.22 744.628 M1427.48 754.674 Q1427.48 761.295 1424.54 764.512 Q1421.6 767.753 1415.54 767.753 Q1413.29 767.753 1411.3 767.406 Q1409.31 767.082 1407.44 766.387 L1407.44 762.244 Q1409.31 763.262 1411.14 763.748 Q1412.97 764.235 1414.87 764.235 Q1419.06 764.235 1421.14 762.035 Q1423.22 759.86 1423.22 755.438 L1423.22 753.332 Q1421.91 755.623 1419.85 756.758 Q1417.79 757.892 1414.91 757.892 Q1410.15 757.892 1407.23 754.258 Q1404.31 750.623 1404.31 744.628 Q1404.31 738.61 1407.23 734.975 Q1410.15 731.341 1414.91 731.341 Q1417.79 731.341 1419.85 732.475 Q1421.91 733.61 1423.22 735.901 L1423.22 731.966 L1427.48 731.966 L1427.48 754.674 Z" fill="#000000" fill-rule="evenodd" fill-opacity="1" /><path clip-path="url(#clip330)" d="M1440.47 724.605 L1440.47 731.966 L1449.24 731.966 L1449.24 735.276 L1440.47 735.276 L1440.47 749.35 Q1440.47 752.522 1441.33 753.424 Q1442.21 754.327 1444.87 754.327 L1449.24 754.327 L1449.24 757.892 L1444.87 757.892 Q1439.94 757.892 1438.06 756.063 Q1436.19 754.211 1436.19 749.35 L1436.19 735.276 L1433.06 735.276 L1433.06 731.966 L1436.19 731.966 L1436.19 724.605 L1440.47 724.605 Z" fill="#000000" fill-rule="evenodd" fill-opacity="1" /><path clip-path="url(#clip330)" d="M1476.4 742.244 L1476.4 757.892 L1472.14 757.892 L1472.14 742.383 Q1472.14 738.702 1470.7 736.874 Q1469.27 735.045 1466.4 735.045 Q1462.95 735.045 1460.96 737.244 Q1458.97 739.443 1458.97 743.239 L1458.97 757.892 L1454.68 757.892 L1454.68 721.874 L1458.97 721.874 L1458.97 735.994 Q1460.49 733.656 1462.55 732.499 Q1464.64 731.341 1467.34 731.341 Q1471.81 731.341 1474.1 734.119 Q1476.4 736.874 1476.4 742.244 Z" fill="#000000" fill-rule="evenodd" fill-opacity="1" /></svg>
