<?xml version="1.0" encoding="utf-8"?>
<svg xmlns="http://www.w3.org/2000/svg" xmlns:xlink="http://www.w3.org/1999/xlink" width="400" height="400" viewBox="0 0 1600 1600">
<defs>
  <clipPath id="clip410">
    <rect x="0" y="0" width="1600" height="1600"/>
  </clipPath>
</defs>
<path clip-path="url(#clip410)" d="
M0 1600 L1600 1600 L1600 0 L0 0  Z
  " fill="#ffffff" fill-rule="evenodd" fill-opacity="1"/>
<defs>
  <clipPath id="clip411">
    <rect x="320" y="160" width="1121" height="1121"/>
  </clipPath>
</defs>
<path clip-path="url(#clip410)" d="
M178.274 1382.14 L1552.76 1382.14 L1552.76 47.2441 L178.274 47.2441  Z
  " fill="#ffffff" fill-rule="evenodd" fill-opacity="1"/>
<defs>
  <clipPath id="clip412">
    <rect x="178" y="47" width="1375" height="1336"/>
  </clipPath>
</defs>
<polyline clip-path="url(#clip410)" style="stroke:#000000; stroke-linecap:butt; stroke-linejoin:round; stroke-width:4; stroke-opacity:1; fill:none" points="
  178.274,1382.14 1552.76,1382.14 
  "/>
<polyline clip-path="url(#clip410)" style="stroke:#000000; stroke-linecap:butt; stroke-linejoin:round; stroke-width:4; stroke-opacity:1; fill:none" points="
  178.274,1382.14 178.274,1363.24 
  "/>
<polyline clip-path="url(#clip410)" style="stroke:#000000; stroke-linecap:butt; stroke-linejoin:round; stroke-width:4; stroke-opacity:1; fill:none" points="
  521.894,1382.14 521.894,1363.24 
  "/>
<polyline clip-path="url(#clip410)" style="stroke:#000000; stroke-linecap:butt; stroke-linejoin:round; stroke-width:4; stroke-opacity:1; fill:none" points="
  865.515,1382.14 865.515,1363.24 
  "/>
<polyline clip-path="url(#clip410)" style="stroke:#000000; stroke-linecap:butt; stroke-linejoin:round; stroke-width:4; stroke-opacity:1; fill:none" points="
  1209.14,1382.14 1209.14,1363.24 
  "/>
<polyline clip-path="url(#clip410)" style="stroke:#000000; stroke-linecap:butt; stroke-linejoin:round; stroke-width:4; stroke-opacity:1; fill:none" points="
  1552.76,1382.14 1552.76,1363.24 
  "/>
<path clip-path="url(#clip410)" d="M155.658 1406.66 Q152.047 1406.66 150.219 1410.22 Q148.413 1413.76 148.413 1420.89 Q148.413 1428 150.219 1431.57 Q152.047 1435.11 155.658 1435.11 Q159.293 1435.11 161.098 1431.57 Q162.927 1428 162.927 1420.89 Q162.927 1413.76 161.098 1410.22 Q159.293 1406.66 155.658 1406.66 M155.658 1402.95 Q161.469 1402.95 164.524 1407.56 Q167.603 1412.14 167.603 1420.89 Q167.603 1429.62 164.524 1434.23 Q161.469 1438.81 155.658 1438.81 Q149.848 1438.81 146.77 1434.23 Q143.714 1429.62 143.714 1420.89 Q143.714 1412.14 146.77 1407.56 Q149.848 1402.95 155.658 1402.95 Z" fill="#000000" fill-rule="evenodd" fill-opacity="1" /><path clip-path="url(#clip410)" d="M175.82 1432.26 L180.705 1432.26 L180.705 1438.14 L175.82 1438.14 L175.82 1432.26 Z" fill="#000000" fill-rule="evenodd" fill-opacity="1" /><path clip-path="url(#clip410)" d="M200.89 1406.66 Q197.279 1406.66 195.45 1410.22 Q193.644 1413.76 193.644 1420.89 Q193.644 1428 195.45 1431.57 Q197.279 1435.11 200.89 1435.11 Q204.524 1435.11 206.329 1431.57 Q208.158 1428 208.158 1420.89 Q208.158 1413.76 206.329 1410.22 Q204.524 1406.66 200.89 1406.66 M200.89 1402.95 Q206.7 1402.95 209.755 1407.56 Q212.834 1412.14 212.834 1420.89 Q212.834 1429.62 209.755 1434.23 Q206.7 1438.81 200.89 1438.81 Q195.079 1438.81 192.001 1434.23 Q188.945 1429.62 188.945 1420.89 Q188.945 1412.14 192.001 1407.56 Q195.079 1402.95 200.89 1402.95 Z" fill="#000000" fill-rule="evenodd" fill-opacity="1" /><path clip-path="url(#clip410)" d="M499.777 1406.66 Q496.165 1406.66 494.337 1410.22 Q492.531 1413.76 492.531 1420.89 Q492.531 1428 494.337 1431.57 Q496.165 1435.11 499.777 1435.11 Q503.411 1435.11 505.216 1431.57 Q507.045 1428 507.045 1420.89 Q507.045 1413.76 505.216 1410.22 Q503.411 1406.66 499.777 1406.66 M499.777 1402.95 Q505.587 1402.95 508.642 1407.56 Q511.721 1412.14 511.721 1420.89 Q511.721 1429.62 508.642 1434.23 Q505.587 1438.81 499.777 1438.81 Q493.966 1438.81 490.888 1434.23 Q487.832 1429.62 487.832 1420.89 Q487.832 1412.14 490.888 1407.56 Q493.966 1402.95 499.777 1402.95 Z" fill="#000000" fill-rule="evenodd" fill-opacity="1" /><path clip-path="url(#clip410)" d="M519.938 1432.26 L524.823 1432.26 L524.823 1438.14 L519.938 1438.14 L519.938 1432.26 Z" fill="#000000" fill-rule="evenodd" fill-opacity="1" /><path clip-path="url(#clip410)" d="M535.054 1403.58 L553.411 1403.58 L553.411 1407.52 L539.337 1407.52 L539.337 1415.99 Q540.355 1415.64 541.374 1415.48 Q542.392 1415.29 543.411 1415.29 Q549.198 1415.29 552.577 1418.46 Q555.957 1421.64 555.957 1427.05 Q555.957 1432.63 552.485 1435.73 Q549.012 1438.81 542.693 1438.81 Q540.517 1438.81 538.249 1438.44 Q536.003 1438.07 533.596 1437.33 L533.596 1432.63 Q535.679 1433.76 537.901 1434.32 Q540.124 1434.88 542.6 1434.88 Q546.605 1434.88 548.943 1432.77 Q551.281 1430.66 551.281 1427.05 Q551.281 1423.44 548.943 1421.33 Q546.605 1419.23 542.6 1419.23 Q540.725 1419.23 538.85 1419.64 Q536.999 1420.06 535.054 1420.94 L535.054 1403.58 Z" fill="#000000" fill-rule="evenodd" fill-opacity="1" /><path clip-path="url(#clip410)" d="M832.668 1434.2 L840.307 1434.2 L840.307 1407.84 L831.997 1409.51 L831.997 1405.25 L840.26 1403.58 L844.936 1403.58 L844.936 1434.2 L852.575 1434.2 L852.575 1438.14 L832.668 1438.14 L832.668 1434.2 Z" fill="#000000" fill-rule="evenodd" fill-opacity="1" /><path clip-path="url(#clip410)" d="M862.02 1432.26 L866.904 1432.26 L866.904 1438.14 L862.02 1438.14 L862.02 1432.26 Z" fill="#000000" fill-rule="evenodd" fill-opacity="1" /><path clip-path="url(#clip410)" d="M887.089 1406.66 Q883.478 1406.66 881.649 1410.22 Q879.844 1413.76 879.844 1420.89 Q879.844 1428 881.649 1431.57 Q883.478 1435.11 887.089 1435.11 Q890.723 1435.11 892.529 1431.57 Q894.357 1428 894.357 1420.89 Q894.357 1413.76 892.529 1410.22 Q890.723 1406.66 887.089 1406.66 M887.089 1402.95 Q892.899 1402.95 895.955 1407.56 Q899.033 1412.14 899.033 1420.89 Q899.033 1429.62 895.955 1434.23 Q892.899 1438.81 887.089 1438.81 Q881.279 1438.81 878.2 1434.23 Q875.145 1429.62 875.145 1420.89 Q875.145 1412.14 878.2 1407.56 Q881.279 1402.95 887.089 1402.95 Z" fill="#000000" fill-rule="evenodd" fill-opacity="1" /><path clip-path="url(#clip410)" d="M1176.79 1434.2 L1184.42 1434.2 L1184.42 1407.84 L1176.11 1409.51 L1176.11 1405.25 L1184.38 1403.58 L1189.05 1403.58 L1189.05 1434.2 L1196.69 1434.2 L1196.69 1438.14 L1176.79 1438.14 L1176.79 1434.2 Z" fill="#000000" fill-rule="evenodd" fill-opacity="1" /><path clip-path="url(#clip410)" d="M1206.14 1432.26 L1211.02 1432.26 L1211.02 1438.14 L1206.14 1438.14 L1206.14 1432.26 Z" fill="#000000" fill-rule="evenodd" fill-opacity="1" /><path clip-path="url(#clip410)" d="M1221.25 1403.58 L1239.61 1403.58 L1239.61 1407.52 L1225.54 1407.52 L1225.54 1415.99 Q1226.55 1415.64 1227.57 1415.48 Q1228.59 1415.29 1229.61 1415.29 Q1235.4 1415.29 1238.78 1418.46 Q1242.16 1421.64 1242.16 1427.05 Q1242.16 1432.63 1238.68 1435.73 Q1235.21 1438.81 1228.89 1438.81 Q1226.72 1438.81 1224.45 1438.44 Q1222.2 1438.07 1219.8 1437.33 L1219.8 1432.63 Q1221.88 1433.76 1224.1 1434.32 Q1226.32 1434.88 1228.8 1434.88 Q1232.8 1434.88 1235.14 1432.77 Q1237.48 1430.66 1237.48 1427.05 Q1237.48 1423.44 1235.14 1421.33 Q1232.8 1419.23 1228.8 1419.23 Q1226.92 1419.23 1225.05 1419.64 Q1223.2 1420.06 1221.25 1420.94 L1221.25 1403.58 Z" fill="#000000" fill-rule="evenodd" fill-opacity="1" /><path clip-path="url(#clip410)" d="M1523.99 1434.2 L1540.31 1434.2 L1540.31 1438.14 L1518.37 1438.14 L1518.37 1434.2 Q1521.03 1431.45 1525.61 1426.82 Q1530.22 1422.17 1531.4 1420.83 Q1533.65 1418.3 1534.53 1416.57 Q1535.43 1414.81 1535.43 1413.12 Q1535.43 1410.36 1533.49 1408.63 Q1531.56 1406.89 1528.46 1406.89 Q1526.26 1406.89 1523.81 1407.65 Q1521.38 1408.42 1518.6 1409.97 L1518.6 1405.25 Q1521.43 1404.11 1523.88 1403.53 Q1526.33 1402.95 1528.37 1402.95 Q1533.74 1402.95 1536.93 1405.64 Q1540.13 1408.33 1540.13 1412.82 Q1540.13 1414.95 1539.32 1416.87 Q1538.53 1418.76 1536.42 1421.36 Q1535.85 1422.03 1532.74 1425.25 Q1529.64 1428.44 1523.99 1434.2 Z" fill="#000000" fill-rule="evenodd" fill-opacity="1" /><path clip-path="url(#clip410)" d="M1550.13 1432.26 L1555.01 1432.26 L1555.01 1438.14 L1550.13 1438.14 L1550.13 1432.26 Z" fill="#000000" fill-rule="evenodd" fill-opacity="1" /><path clip-path="url(#clip410)" d="M1575.2 1406.66 Q1571.59 1406.66 1569.76 1410.22 Q1567.95 1413.76 1567.95 1420.89 Q1567.95 1428 1569.76 1431.57 Q1571.59 1435.11 1575.2 1435.11 Q1578.83 1435.11 1580.64 1431.57 Q1582.47 1428 1582.47 1420.89 Q1582.47 1413.76 1580.64 1410.22 Q1578.83 1406.66 1575.2 1406.66 M1575.2 1402.95 Q1581.01 1402.95 1584.06 1407.56 Q1587.14 1412.14 1587.14 1420.89 Q1587.14 1429.62 1584.06 1434.23 Q1581.01 1438.81 1575.2 1438.81 Q1569.39 1438.81 1566.31 1434.23 Q1563.25 1429.62 1563.25 1420.89 Q1563.25 1412.14 1566.31 1407.56 Q1569.39 1402.95 1575.2 1402.95 Z" fill="#000000" fill-rule="evenodd" fill-opacity="1" /><path clip-path="url(#clip410)" d="M734.365 1472.77 L734.365 1509.72 L742.132 1509.72 Q751.967 1509.72 756.518 1505.26 Q761.101 1500.81 761.101 1491.2 Q761.101 1481.65 756.518 1477.22 Q751.967 1472.77 742.132 1472.77 L734.365 1472.77 M727.936 1467.48 L741.145 1467.48 Q754.959 1467.48 761.42 1473.24 Q767.881 1478.97 767.881 1491.2 Q767.881 1503.48 761.388 1509.24 Q754.895 1515 741.145 1515 L727.936 1515 L727.936 1467.48 Z" fill="#000000" fill-rule="evenodd" fill-opacity="1" /><path clip-path="url(#clip410)" d="M777.875 1479.36 L783.732 1479.36 L783.732 1515 L777.875 1515 L777.875 1479.36 M777.875 1465.48 L783.732 1465.48 L783.732 1472.89 L777.875 1472.89 L777.875 1465.48 Z" fill="#000000" fill-rule="evenodd" fill-opacity="1" /><path clip-path="url(#clip410)" d="M818.711 1480.41 L818.711 1485.94 Q816.228 1484.67 813.555 1484.03 Q810.881 1483.4 808.017 1483.4 Q803.656 1483.4 801.46 1484.73 Q799.296 1486.07 799.296 1488.75 Q799.296 1490.78 800.855 1491.96 Q802.415 1493.11 807.126 1494.16 L809.131 1494.6 Q815.369 1495.94 817.979 1498.39 Q820.621 1500.81 820.621 1505.17 Q820.621 1510.13 816.674 1513.03 Q812.759 1515.93 805.884 1515.93 Q803.02 1515.93 799.9 1515.35 Q796.813 1514.81 793.376 1513.7 L793.376 1507.65 Q796.622 1509.34 799.773 1510.2 Q802.924 1511.03 806.012 1511.03 Q810.149 1511.03 812.377 1509.62 Q814.605 1508.19 814.605 1505.61 Q814.605 1503.23 812.982 1501.95 Q811.391 1500.68 805.948 1499.5 L803.911 1499.03 Q798.468 1497.88 796.049 1495.52 Q793.63 1493.14 793.63 1489 Q793.63 1483.97 797.195 1481.23 Q800.76 1478.5 807.316 1478.5 Q810.563 1478.5 813.428 1478.97 Q816.292 1479.45 818.711 1480.41 Z" fill="#000000" fill-rule="evenodd" fill-opacity="1" /><path clip-path="url(#clip410)" d="M835.739 1469.23 L835.739 1479.36 L847.802 1479.36 L847.802 1483.91 L835.739 1483.91 L835.739 1503.26 Q835.739 1507.62 836.917 1508.86 Q838.127 1510.1 841.787 1510.1 L847.802 1510.1 L847.802 1515 L841.787 1515 Q835.007 1515 832.429 1512.49 Q829.851 1509.94 829.851 1503.26 L829.851 1483.91 L825.554 1483.91 L825.554 1479.36 L829.851 1479.36 L829.851 1469.23 L835.739 1469.23 Z" fill="#000000" fill-rule="evenodd" fill-opacity="1" /><path clip-path="url(#clip410)" d="M871.706 1497.08 Q864.608 1497.08 861.871 1498.71 Q859.133 1500.33 859.133 1504.25 Q859.133 1507.36 861.17 1509.21 Q863.239 1511.03 866.772 1511.03 Q871.642 1511.03 874.57 1507.59 Q877.53 1504.12 877.53 1498.39 L877.53 1497.08 L871.706 1497.08 M883.387 1494.67 L883.387 1515 L877.53 1515 L877.53 1509.59 Q875.525 1512.84 872.533 1514.4 Q869.541 1515.93 865.213 1515.93 Q859.738 1515.93 856.492 1512.87 Q853.277 1509.78 853.277 1504.63 Q853.277 1498.61 857.287 1495.56 Q861.33 1492.5 869.318 1492.5 L877.53 1492.5 L877.53 1491.93 Q877.53 1487.89 874.857 1485.69 Q872.215 1483.46 867.409 1483.46 Q864.353 1483.46 861.457 1484.19 Q858.56 1484.93 855.887 1486.39 L855.887 1480.98 Q859.102 1479.74 862.125 1479.13 Q865.149 1478.5 868.013 1478.5 Q875.748 1478.5 879.567 1482.51 Q883.387 1486.52 883.387 1494.67 Z" fill="#000000" fill-rule="evenodd" fill-opacity="1" /><path clip-path="url(#clip410)" d="M925.082 1493.49 L925.082 1515 L919.226 1515 L919.226 1493.68 Q919.226 1488.62 917.252 1486.1 Q915.279 1483.59 911.332 1483.59 Q906.59 1483.59 903.852 1486.61 Q901.115 1489.64 901.115 1494.86 L901.115 1515 L895.227 1515 L895.227 1479.36 L901.115 1479.36 L901.115 1484.89 Q903.216 1481.68 906.049 1480.09 Q908.913 1478.5 912.637 1478.5 Q918.78 1478.5 921.931 1482.32 Q925.082 1486.1 925.082 1493.49 Z" fill="#000000" fill-rule="evenodd" fill-opacity="1" /><path clip-path="url(#clip410)" d="M962.417 1480.72 L962.417 1486.2 Q959.934 1484.83 957.42 1484.16 Q954.937 1483.46 952.391 1483.46 Q946.694 1483.46 943.543 1487.09 Q940.392 1490.69 940.392 1497.21 Q940.392 1503.74 943.543 1507.36 Q946.694 1510.96 952.391 1510.96 Q954.937 1510.96 957.42 1510.29 Q959.934 1509.59 962.417 1508.22 L962.417 1513.64 Q959.966 1514.78 957.324 1515.35 Q954.714 1515.93 951.754 1515.93 Q943.702 1515.93 938.959 1510.87 Q934.217 1505.81 934.217 1497.21 Q934.217 1488.49 938.991 1483.49 Q943.797 1478.5 952.136 1478.5 Q954.842 1478.5 957.42 1479.07 Q959.998 1479.61 962.417 1480.72 Z" fill="#000000" fill-rule="evenodd" fill-opacity="1" /><path clip-path="url(#clip410)" d="M1003.09 1495.72 L1003.09 1498.58 L976.167 1498.58 Q976.549 1504.63 979.795 1507.81 Q983.074 1510.96 988.898 1510.96 Q992.272 1510.96 995.423 1510.13 Q998.606 1509.31 1001.73 1507.65 L1001.73 1513.19 Q998.574 1514.53 995.264 1515.23 Q991.954 1515.93 988.548 1515.93 Q980.018 1515.93 975.021 1510.96 Q970.056 1506 970.056 1497.53 Q970.056 1488.78 974.766 1483.65 Q979.509 1478.5 987.53 1478.5 Q994.723 1478.5 998.892 1483.14 Q1003.09 1487.76 1003.09 1495.72 M997.237 1494 Q997.174 1489.19 994.532 1486.33 Q991.922 1483.46 987.593 1483.46 Q982.692 1483.46 979.732 1486.23 Q976.803 1489 976.358 1494.03 L997.237 1494 Z" fill="#000000" fill-rule="evenodd" fill-opacity="1" /><polyline clip-path="url(#clip410)" style="stroke:#000000; stroke-linecap:butt; stroke-linejoin:round; stroke-width:4; stroke-opacity:1; fill:none" points="
  178.274,1382.14 178.274,47.2441 
  "/>
<polyline clip-path="url(#clip410)" style="stroke:#000000; stroke-linecap:butt; stroke-linejoin:round; stroke-width:4; stroke-opacity:1; fill:none" points="
  178.274,1344.36 197.172,1344.36 
  "/>
<polyline clip-path="url(#clip410)" style="stroke:#000000; stroke-linecap:butt; stroke-linejoin:round; stroke-width:4; stroke-opacity:1; fill:none" points="
  178.274,1029.53 197.172,1029.53 
  "/>
<polyline clip-path="url(#clip410)" style="stroke:#000000; stroke-linecap:butt; stroke-linejoin:round; stroke-width:4; stroke-opacity:1; fill:none" points="
  178.274,714.692 197.172,714.692 
  "/>
<polyline clip-path="url(#clip410)" style="stroke:#000000; stroke-linecap:butt; stroke-linejoin:round; stroke-width:4; stroke-opacity:1; fill:none" points="
  178.274,399.858 197.172,399.858 
  "/>
<polyline clip-path="url(#clip410)" style="stroke:#000000; stroke-linecap:butt; stroke-linejoin:round; stroke-width:4; stroke-opacity:1; fill:none" points="
  178.274,85.0242 197.172,85.0242 
  "/>
<path clip-path="url(#clip410)" d="M66.9365 1330.16 Q63.3254 1330.16 61.4967 1333.72 Q59.6912 1337.26 59.6912 1344.39 Q59.6912 1351.5 61.4967 1355.07 Q63.3254 1358.61 66.9365 1358.61 Q70.5707 1358.61 72.3763 1355.07 Q74.205 1351.5 74.205 1344.39 Q74.205 1337.26 72.3763 1333.72 Q70.5707 1330.16 66.9365 1330.16 M66.9365 1326.45 Q72.7467 1326.45 75.8022 1331.06 Q78.8809 1335.64 78.8809 1344.39 Q78.8809 1353.12 75.8022 1357.73 Q72.7467 1362.31 66.9365 1362.31 Q61.1264 1362.31 58.0477 1357.73 Q54.9921 1353.12 54.9921 1344.39 Q54.9921 1335.64 58.0477 1331.06 Q61.1264 1326.45 66.9365 1326.45 Z" fill="#000000" fill-rule="evenodd" fill-opacity="1" /><path clip-path="url(#clip410)" d="M87.0984 1355.76 L91.9827 1355.76 L91.9827 1361.64 L87.0984 1361.64 L87.0984 1355.76 Z" fill="#000000" fill-rule="evenodd" fill-opacity="1" /><path clip-path="url(#clip410)" d="M112.168 1330.16 Q108.557 1330.16 106.728 1333.72 Q104.922 1337.26 104.922 1344.39 Q104.922 1351.5 106.728 1355.07 Q108.557 1358.61 112.168 1358.61 Q115.802 1358.61 117.608 1355.07 Q119.436 1351.5 119.436 1344.39 Q119.436 1337.26 117.608 1333.72 Q115.802 1330.16 112.168 1330.16 M112.168 1326.45 Q117.978 1326.45 121.033 1331.06 Q124.112 1335.64 124.112 1344.39 Q124.112 1353.12 121.033 1357.73 Q117.978 1362.31 112.168 1362.31 Q106.358 1362.31 103.279 1357.73 Q100.223 1353.12 100.223 1344.39 Q100.223 1335.64 103.279 1331.06 Q106.358 1326.45 112.168 1326.45 Z" fill="#000000" fill-rule="evenodd" fill-opacity="1" /><path clip-path="url(#clip410)" d="M142.33 1330.16 Q138.719 1330.16 136.89 1333.72 Q135.084 1337.26 135.084 1344.39 Q135.084 1351.5 136.89 1355.07 Q138.719 1358.61 142.33 1358.61 Q145.964 1358.61 147.769 1355.07 Q149.598 1351.5 149.598 1344.39 Q149.598 1337.26 147.769 1333.72 Q145.964 1330.16 142.33 1330.16 M142.33 1326.45 Q148.14 1326.45 151.195 1331.06 Q154.274 1335.64 154.274 1344.39 Q154.274 1353.12 151.195 1357.73 Q148.14 1362.31 142.33 1362.31 Q136.519 1362.31 133.441 1357.73 Q130.385 1353.12 130.385 1344.39 Q130.385 1335.64 133.441 1331.06 Q136.519 1326.45 142.33 1326.45 Z" fill="#000000" fill-rule="evenodd" fill-opacity="1" /><path clip-path="url(#clip410)" d="M67.9319 1015.32 Q64.3208 1015.32 62.4921 1018.89 Q60.6865 1022.43 60.6865 1029.56 Q60.6865 1036.67 62.4921 1040.23 Q64.3208 1043.77 67.9319 1043.77 Q71.5661 1043.77 73.3717 1040.23 Q75.2004 1036.67 75.2004 1029.56 Q75.2004 1022.43 73.3717 1018.89 Q71.5661 1015.32 67.9319 1015.32 M67.9319 1011.62 Q73.742 1011.62 76.7976 1016.23 Q79.8763 1020.81 79.8763 1029.56 Q79.8763 1038.29 76.7976 1042.89 Q73.742 1047.48 67.9319 1047.48 Q62.1217 1047.48 59.043 1042.89 Q55.9875 1038.29 55.9875 1029.56 Q55.9875 1020.81 59.043 1016.23 Q62.1217 1011.62 67.9319 1011.62 Z" fill="#000000" fill-rule="evenodd" fill-opacity="1" /><path clip-path="url(#clip410)" d="M88.0938 1040.93 L92.978 1040.93 L92.978 1046.81 L88.0938 1046.81 L88.0938 1040.93 Z" fill="#000000" fill-rule="evenodd" fill-opacity="1" /><path clip-path="url(#clip410)" d="M107.191 1042.87 L123.51 1042.87 L123.51 1046.81 L101.566 1046.81 L101.566 1042.87 Q104.228 1040.12 108.811 1035.49 Q113.418 1030.83 114.598 1029.49 Q116.844 1026.97 117.723 1025.23 Q118.626 1023.47 118.626 1021.78 Q118.626 1019.03 116.682 1017.29 Q114.76 1015.56 111.658 1015.56 Q109.459 1015.56 107.006 1016.32 Q104.575 1017.08 101.797 1018.63 L101.797 1013.91 Q104.621 1012.78 107.075 1012.2 Q109.529 1011.62 111.566 1011.62 Q116.936 1011.62 120.131 1014.31 Q123.325 1016.99 123.325 1021.48 Q123.325 1023.61 122.515 1025.53 Q121.728 1027.43 119.621 1030.02 Q119.043 1030.69 115.941 1033.91 Q112.839 1037.11 107.191 1042.87 Z" fill="#000000" fill-rule="evenodd" fill-opacity="1" /><path clip-path="url(#clip410)" d="M133.371 1012.25 L151.728 1012.25 L151.728 1016.18 L137.654 1016.18 L137.654 1024.65 Q138.672 1024.31 139.691 1024.14 Q140.709 1023.96 141.728 1023.96 Q147.515 1023.96 150.894 1027.13 Q154.274 1030.3 154.274 1035.72 Q154.274 1041.3 150.802 1044.4 Q147.33 1047.48 141.01 1047.48 Q138.834 1047.48 136.566 1047.11 Q134.32 1046.74 131.913 1046 L131.913 1041.3 Q133.996 1042.43 136.219 1042.99 Q138.441 1043.54 140.918 1043.54 Q144.922 1043.54 147.26 1041.44 Q149.598 1039.33 149.598 1035.72 Q149.598 1032.11 147.26 1030 Q144.922 1027.89 140.918 1027.89 Q139.043 1027.89 137.168 1028.31 Q135.316 1028.73 133.371 1029.61 L133.371 1012.25 Z" fill="#000000" fill-rule="evenodd" fill-opacity="1" /><path clip-path="url(#clip410)" d="M66.9365 700.491 Q63.3254 700.491 61.4967 704.055 Q59.6912 707.597 59.6912 714.727 Q59.6912 721.833 61.4967 725.398 Q63.3254 728.94 66.9365 728.94 Q70.5707 728.94 72.3763 725.398 Q74.205 721.833 74.205 714.727 Q74.205 707.597 72.3763 704.055 Q70.5707 700.491 66.9365 700.491 M66.9365 696.787 Q72.7467 696.787 75.8022 701.393 Q78.8809 705.977 78.8809 714.727 Q78.8809 723.453 75.8022 728.06 Q72.7467 732.643 66.9365 732.643 Q61.1264 732.643 58.0477 728.06 Q54.9921 723.453 54.9921 714.727 Q54.9921 705.977 58.0477 701.393 Q61.1264 696.787 66.9365 696.787 Z" fill="#000000" fill-rule="evenodd" fill-opacity="1" /><path clip-path="url(#clip410)" d="M87.0984 726.092 L91.9827 726.092 L91.9827 731.972 L87.0984 731.972 L87.0984 726.092 Z" fill="#000000" fill-rule="evenodd" fill-opacity="1" /><path clip-path="url(#clip410)" d="M102.214 697.412 L120.57 697.412 L120.57 701.347 L106.496 701.347 L106.496 709.819 Q107.515 709.472 108.534 709.31 Q109.552 709.125 110.571 709.125 Q116.358 709.125 119.737 712.296 Q123.117 715.467 123.117 720.884 Q123.117 726.463 119.645 729.565 Q116.172 732.643 109.853 732.643 Q107.677 732.643 105.409 732.273 Q103.163 731.903 100.756 731.162 L100.756 726.463 Q102.839 727.597 105.061 728.153 Q107.284 728.708 109.76 728.708 Q113.765 728.708 116.103 726.602 Q118.441 724.495 118.441 720.884 Q118.441 717.273 116.103 715.167 Q113.765 713.06 109.76 713.06 Q107.885 713.06 106.01 713.477 Q104.159 713.893 102.214 714.773 L102.214 697.412 Z" fill="#000000" fill-rule="evenodd" fill-opacity="1" /><path clip-path="url(#clip410)" d="M142.33 700.491 Q138.719 700.491 136.89 704.055 Q135.084 707.597 135.084 714.727 Q135.084 721.833 136.89 725.398 Q138.719 728.94 142.33 728.94 Q145.964 728.94 147.769 725.398 Q149.598 721.833 149.598 714.727 Q149.598 707.597 147.769 704.055 Q145.964 700.491 142.33 700.491 M142.33 696.787 Q148.14 696.787 151.195 701.393 Q154.274 705.977 154.274 714.727 Q154.274 723.453 151.195 728.06 Q148.14 732.643 142.33 732.643 Q136.519 732.643 133.441 728.06 Q130.385 723.453 130.385 714.727 Q130.385 705.977 133.441 701.393 Q136.519 696.787 142.33 696.787 Z" fill="#000000" fill-rule="evenodd" fill-opacity="1" /><path clip-path="url(#clip410)" d="M67.9319 385.657 Q64.3208 385.657 62.4921 389.222 Q60.6865 392.763 60.6865 399.893 Q60.6865 406.999 62.4921 410.564 Q64.3208 414.106 67.9319 414.106 Q71.5661 414.106 73.3717 410.564 Q75.2004 406.999 75.2004 399.893 Q75.2004 392.763 73.3717 389.222 Q71.5661 385.657 67.9319 385.657 M67.9319 381.953 Q73.742 381.953 76.7976 386.56 Q79.8763 391.143 79.8763 399.893 Q79.8763 408.62 76.7976 413.226 Q73.742 417.809 67.9319 417.809 Q62.1217 417.809 59.043 413.226 Q55.9875 408.62 55.9875 399.893 Q55.9875 391.143 59.043 386.56 Q62.1217 381.953 67.9319 381.953 Z" fill="#000000" fill-rule="evenodd" fill-opacity="1" /><path clip-path="url(#clip410)" d="M88.0938 411.258 L92.978 411.258 L92.978 417.138 L88.0938 417.138 L88.0938 411.258 Z" fill="#000000" fill-rule="evenodd" fill-opacity="1" /><path clip-path="url(#clip410)" d="M101.983 382.578 L124.205 382.578 L124.205 384.569 L111.658 417.138 L106.774 417.138 L118.58 386.513 L101.983 386.513 L101.983 382.578 Z" fill="#000000" fill-rule="evenodd" fill-opacity="1" /><path clip-path="url(#clip410)" d="M133.371 382.578 L151.728 382.578 L151.728 386.513 L137.654 386.513 L137.654 394.985 Q138.672 394.638 139.691 394.476 Q140.709 394.291 141.728 394.291 Q147.515 394.291 150.894 397.462 Q154.274 400.634 154.274 406.05 Q154.274 411.629 150.802 414.731 Q147.33 417.809 141.01 417.809 Q138.834 417.809 136.566 417.439 Q134.32 417.069 131.913 416.328 L131.913 411.629 Q133.996 412.763 136.219 413.319 Q138.441 413.874 140.918 413.874 Q144.922 413.874 147.26 411.768 Q149.598 409.661 149.598 406.05 Q149.598 402.439 147.26 400.333 Q144.922 398.226 140.918 398.226 Q139.043 398.226 137.168 398.643 Q135.316 399.059 133.371 399.939 L133.371 382.578 Z" fill="#000000" fill-rule="evenodd" fill-opacity="1" /><path clip-path="url(#clip410)" d="M57.7467 98.369 L65.3856 98.369 L65.3856 72.0034 L57.0754 73.6701 L57.0754 69.4108 L65.3393 67.7442 L70.0152 67.7442 L70.0152 98.369 L77.654 98.369 L77.654 102.304 L57.7467 102.304 L57.7467 98.369 Z" fill="#000000" fill-rule="evenodd" fill-opacity="1" /><path clip-path="url(#clip410)" d="M87.0984 96.4246 L91.9827 96.4246 L91.9827 102.304 L87.0984 102.304 L87.0984 96.4246 Z" fill="#000000" fill-rule="evenodd" fill-opacity="1" /><path clip-path="url(#clip410)" d="M112.168 70.8229 Q108.557 70.8229 106.728 74.3876 Q104.922 77.9293 104.922 85.0589 Q104.922 92.1653 106.728 95.7301 Q108.557 99.2718 112.168 99.2718 Q115.802 99.2718 117.608 95.7301 Q119.436 92.1653 119.436 85.0589 Q119.436 77.9293 117.608 74.3876 Q115.802 70.8229 112.168 70.8229 M112.168 67.1192 Q117.978 67.1192 121.033 71.7256 Q124.112 76.3089 124.112 85.0589 Q124.112 93.7857 121.033 98.3921 Q117.978 102.975 112.168 102.975 Q106.358 102.975 103.279 98.3921 Q100.223 93.7857 100.223 85.0589 Q100.223 76.3089 103.279 71.7256 Q106.358 67.1192 112.168 67.1192 Z" fill="#000000" fill-rule="evenodd" fill-opacity="1" /><path clip-path="url(#clip410)" d="M142.33 70.8229 Q138.719 70.8229 136.89 74.3876 Q135.084 77.9293 135.084 85.0589 Q135.084 92.1653 136.89 95.7301 Q138.719 99.2718 142.33 99.2718 Q145.964 99.2718 147.769 95.7301 Q149.598 92.1653 149.598 85.0589 Q149.598 77.9293 147.769 74.3876 Q145.964 70.8229 142.33 70.8229 M142.33 67.1192 Q148.14 67.1192 151.195 71.7256 Q154.274 76.3089 154.274 85.0589 Q154.274 93.7857 151.195 98.3921 Q148.14 102.975 142.33 102.975 Q136.519 102.975 133.441 98.3921 Q130.385 93.7857 130.385 85.0589 Q130.385 76.3089 133.441 71.7256 Q136.519 67.1192 142.33 67.1192 Z" fill="#000000" fill-rule="evenodd" fill-opacity="1" /><polyline clip-path="url(#clip412)" style="stroke:#009af9; stroke-linecap:butt; stroke-linejoin:round; stroke-width:4; stroke-opacity:1; fill:none" points="
  178.274,85.0242 212.636,214.384 246.998,341.609 281.36,464.669 315.722,581.736 350.084,691.262 384.446,792.043 418.808,883.246 453.17,964.419 487.532,1035.47 
  521.894,1096.64 556.257,1148.43 590.619,1191.56 624.981,1226.88 659.343,1255.32 693.705,1277.86 728.067,1295.41 762.429,1308.86 796.791,1319 831.153,1326.51 
  865.515,1331.99 899.877,1335.91 934.239,1338.68 968.601,1340.6 1002.96,1341.91 1037.33,1342.79 1071.69,1343.37 1106.05,1343.74 1140.41,1343.98 1174.77,1344.13 
  1209.14,1344.22 1243.5,1344.28 1277.86,1344.31 1312.22,1344.33 1346.58,1344.35 1380.95,1344.35 1415.31,1344.36 1449.67,1344.36 1484.03,1344.36 1518.39,1344.36 
  1552.76,1344.36 1587.12,1344.36 1621.48,1344.36 1655.84,1344.36 1690.2,1344.36 1724.57,1344.36 1758.93,1344.36 1793.29,1344.36 1827.65,1344.36 1862.01,1344.36 
  1896.38,1344.36 1930.74,1344.36 1965.1,1344.36 1999.46,1344.36 2033.82,1344.36 2068.19,1344.36 2102.55,1344.36 2136.91,1344.36 2171.27,1344.36 2205.63,1344.36 
  2240,1344.36 
  "/>
<polyline clip-path="url(#clip412)" style="stroke:#000000; stroke-linecap:butt; stroke-linejoin:round; stroke-width:4; stroke-opacity:1; fill:none" stroke-dasharray="16, 10" points="
  554.691,2717.04 554.691,-1287.65 
  "/>
<path clip-path="url(#clip410)" d="
M986.698 766.532 L1506.94 766.532 L1506.94 611.012 L986.698 611.012  Z
  " fill="#ffffff" fill-rule="evenodd" fill-opacity="1"/>
<polyline clip-path="url(#clip410)" style="stroke:#000000; stroke-linecap:butt; stroke-linejoin:round; stroke-width:4; stroke-opacity:1; fill:none" points="
  986.698,766.532 1506.94,766.532 1506.94,611.012 986.698,611.012 986.698,766.532 
  "/>
<polyline clip-path="url(#clip410)" style="stroke:#009af9; stroke-linecap:butt; stroke-linejoin:round; stroke-width:4; stroke-opacity:1; fill:none" points="
  1001.97,662.852 1093.6,662.852 
  "/>
<path clip-path="url(#clip410)" d="M1136.74 648.234 L1136.74 653.165 Q1134.38 650.965 1131.7 649.878 Q1129.04 648.79 1126.03 648.79 Q1120.1 648.79 1116.95 652.424 Q1113.81 656.035 1113.81 662.887 Q1113.81 669.715 1116.95 673.35 Q1120.1 676.961 1126.03 676.961 Q1129.04 676.961 1131.7 675.873 Q1134.38 674.785 1136.74 672.586 L1136.74 677.47 Q1134.29 679.137 1131.54 679.97 Q1128.81 680.803 1125.75 680.803 Q1117.9 680.803 1113.39 676.012 Q1108.87 671.197 1108.87 662.887 Q1108.87 654.553 1113.39 649.762 Q1117.9 644.947 1125.75 644.947 Q1128.85 644.947 1131.58 645.78 Q1134.34 646.59 1136.74 648.234 Z" fill="#000000" fill-rule="evenodd" fill-opacity="1" /><path clip-path="url(#clip410)" d="M1153.83 657.192 Q1150.4 657.192 1148.41 659.877 Q1146.42 662.539 1146.42 667.192 Q1146.42 671.845 1148.39 674.53 Q1150.38 677.192 1153.83 677.192 Q1157.23 677.192 1159.22 674.507 Q1161.21 671.822 1161.21 667.192 Q1161.21 662.586 1159.22 659.901 Q1157.23 657.192 1153.83 657.192 M1153.83 653.581 Q1159.38 653.581 1162.55 657.192 Q1165.73 660.803 1165.73 667.192 Q1165.73 673.558 1162.55 677.192 Q1159.38 680.803 1153.83 680.803 Q1148.25 680.803 1145.08 677.192 Q1141.93 673.558 1141.93 667.192 Q1141.93 660.803 1145.08 657.192 Q1148.25 653.581 1153.83 653.581 Z" fill="#000000" fill-rule="evenodd" fill-opacity="1" /><path clip-path="url(#clip410)" d="M1194.34 664.484 L1194.34 680.132 L1190.08 680.132 L1190.08 664.623 Q1190.08 660.942 1188.64 659.114 Q1187.21 657.285 1184.34 657.285 Q1180.89 657.285 1178.9 659.484 Q1176.91 661.683 1176.91 665.479 L1176.91 680.132 L1172.62 680.132 L1172.62 654.206 L1176.91 654.206 L1176.91 658.234 Q1178.43 655.896 1180.49 654.739 Q1182.58 653.581 1185.29 653.581 Q1189.75 653.581 1192.05 656.359 Q1194.34 659.114 1194.34 664.484 Z" fill="#000000" fill-rule="evenodd" fill-opacity="1" /><path clip-path="url(#clip410)" d="M1221.49 655.202 L1221.49 659.183 Q1219.68 658.188 1217.86 657.702 Q1216.05 657.192 1214.2 657.192 Q1210.05 657.192 1207.76 659.831 Q1205.47 662.447 1205.47 667.192 Q1205.47 671.938 1207.76 674.576 Q1210.05 677.192 1214.2 677.192 Q1216.05 677.192 1217.86 676.706 Q1219.68 676.197 1221.49 675.201 L1221.49 679.137 Q1219.71 679.97 1217.79 680.387 Q1215.89 680.803 1213.74 680.803 Q1207.88 680.803 1204.43 677.123 Q1200.98 673.442 1200.98 667.192 Q1200.98 660.85 1204.45 657.215 Q1207.95 653.581 1214.01 653.581 Q1215.98 653.581 1217.86 653.998 Q1219.73 654.391 1221.49 655.202 Z" fill="#000000" fill-rule="evenodd" fill-opacity="1" /><path clip-path="url(#clip410)" d="M1251.07 666.104 L1251.07 668.188 L1231.49 668.188 Q1231.77 672.586 1234.13 674.901 Q1236.51 677.192 1240.75 677.192 Q1243.2 677.192 1245.49 676.59 Q1247.81 675.988 1250.08 674.785 L1250.08 678.813 Q1247.79 679.785 1245.38 680.294 Q1242.97 680.803 1240.49 680.803 Q1234.29 680.803 1230.66 677.192 Q1227.05 673.581 1227.05 667.424 Q1227.05 661.058 1230.47 657.331 Q1233.92 653.581 1239.75 653.581 Q1244.99 653.581 1248.02 656.961 Q1251.07 660.317 1251.07 666.104 M1246.81 664.854 Q1246.77 661.359 1244.85 659.276 Q1242.95 657.192 1239.8 657.192 Q1236.24 657.192 1234.08 659.206 Q1231.95 661.22 1231.63 664.877 L1246.81 664.854 Z" fill="#000000" fill-rule="evenodd" fill-opacity="1" /><path clip-path="url(#clip410)" d="M1279.61 664.484 L1279.61 680.132 L1275.36 680.132 L1275.36 664.623 Q1275.36 660.942 1273.92 659.114 Q1272.48 657.285 1269.61 657.285 Q1266.17 657.285 1264.17 659.484 Q1262.18 661.683 1262.18 665.479 L1262.18 680.132 L1257.9 680.132 L1257.9 654.206 L1262.18 654.206 L1262.18 658.234 Q1263.71 655.896 1265.77 654.739 Q1267.86 653.581 1270.56 653.581 Q1275.03 653.581 1277.32 656.359 Q1279.61 659.114 1279.61 664.484 Z" fill="#000000" fill-rule="evenodd" fill-opacity="1" /><path clip-path="url(#clip410)" d="M1292.32 646.845 L1292.32 654.206 L1301.1 654.206 L1301.1 657.516 L1292.32 657.516 L1292.32 671.59 Q1292.32 674.762 1293.18 675.664 Q1294.06 676.567 1296.72 676.567 L1301.1 676.567 L1301.1 680.132 L1296.72 680.132 Q1291.79 680.132 1289.92 678.303 Q1288.04 676.451 1288.04 671.59 L1288.04 657.516 L1284.92 657.516 L1284.92 654.206 L1288.04 654.206 L1288.04 646.845 L1292.32 646.845 Z" fill="#000000" fill-rule="evenodd" fill-opacity="1" /><path clip-path="url(#clip410)" d="M1321.72 658.188 Q1321 657.771 1320.15 657.586 Q1319.31 657.377 1318.29 657.377 Q1314.68 657.377 1312.74 659.739 Q1310.82 662.077 1310.82 666.475 L1310.82 680.132 L1306.54 680.132 L1306.54 654.206 L1310.82 654.206 L1310.82 658.234 Q1312.16 655.873 1314.31 654.739 Q1316.47 653.581 1319.54 653.581 Q1319.98 653.581 1320.52 653.651 Q1321.05 653.697 1321.7 653.813 L1321.72 658.188 Z" fill="#000000" fill-rule="evenodd" fill-opacity="1" /><path clip-path="url(#clip410)" d="M1337.97 667.1 Q1332.81 667.1 1330.82 668.28 Q1328.83 669.461 1328.83 672.308 Q1328.83 674.576 1330.31 675.919 Q1331.81 677.238 1334.38 677.238 Q1337.92 677.238 1340.05 674.738 Q1342.21 672.215 1342.21 668.049 L1342.21 667.1 L1337.97 667.1 M1346.47 665.34 L1346.47 680.132 L1342.21 680.132 L1342.21 676.197 Q1340.75 678.558 1338.57 679.692 Q1336.4 680.803 1333.25 680.803 Q1329.27 680.803 1326.91 678.581 Q1324.57 676.336 1324.57 672.586 Q1324.57 668.211 1327.48 665.989 Q1330.42 663.766 1336.23 663.766 L1342.21 663.766 L1342.21 663.35 Q1342.21 660.41 1340.26 658.813 Q1338.34 657.192 1334.85 657.192 Q1332.62 657.192 1330.52 657.725 Q1328.41 658.257 1326.47 659.322 L1326.47 655.387 Q1328.8 654.484 1331 654.044 Q1333.2 653.581 1335.29 653.581 Q1340.91 653.581 1343.69 656.498 Q1346.47 659.414 1346.47 665.34 Z" fill="#000000" fill-rule="evenodd" fill-opacity="1" /><path clip-path="url(#clip410)" d="M1359.45 646.845 L1359.45 654.206 L1368.23 654.206 L1368.23 657.516 L1359.45 657.516 L1359.45 671.59 Q1359.45 674.762 1360.31 675.664 Q1361.19 676.567 1363.85 676.567 L1368.23 676.567 L1368.23 680.132 L1363.85 680.132 Q1358.92 680.132 1357.04 678.303 Q1355.17 676.451 1355.17 671.59 L1355.17 657.516 L1352.04 657.516 L1352.04 654.206 L1355.17 654.206 L1355.17 646.845 L1359.45 646.845 Z" fill="#000000" fill-rule="evenodd" fill-opacity="1" /><path clip-path="url(#clip410)" d="M1373.83 654.206 L1378.09 654.206 L1378.09 680.132 L1373.83 680.132 L1373.83 654.206 M1373.83 644.114 L1378.09 644.114 L1378.09 649.507 L1373.83 649.507 L1373.83 644.114 Z" fill="#000000" fill-rule="evenodd" fill-opacity="1" /><path clip-path="url(#clip410)" d="M1397.04 657.192 Q1393.62 657.192 1391.63 659.877 Q1389.64 662.539 1389.64 667.192 Q1389.64 671.845 1391.6 674.53 Q1393.6 677.192 1397.04 677.192 Q1400.45 677.192 1402.44 674.507 Q1404.43 671.822 1404.43 667.192 Q1404.43 662.586 1402.44 659.901 Q1400.45 657.192 1397.04 657.192 M1397.04 653.581 Q1402.6 653.581 1405.77 657.192 Q1408.94 660.803 1408.94 667.192 Q1408.94 673.558 1405.77 677.192 Q1402.6 680.803 1397.04 680.803 Q1391.47 680.803 1388.29 677.192 Q1385.15 673.558 1385.15 667.192 Q1385.15 660.803 1388.29 657.192 Q1391.47 653.581 1397.04 653.581 Z" fill="#000000" fill-rule="evenodd" fill-opacity="1" /><path clip-path="url(#clip410)" d="M1437.55 664.484 L1437.55 680.132 L1433.29 680.132 L1433.29 664.623 Q1433.29 660.942 1431.86 659.114 Q1430.42 657.285 1427.55 657.285 Q1424.1 657.285 1422.11 659.484 Q1420.12 661.683 1420.12 665.479 L1420.12 680.132 L1415.84 680.132 L1415.84 654.206 L1420.12 654.206 L1420.12 658.234 Q1421.65 655.896 1423.71 654.739 Q1425.79 653.581 1428.5 653.581 Q1432.97 653.581 1435.26 656.359 Q1437.55 659.114 1437.55 664.484 Z" fill="#000000" fill-rule="evenodd" fill-opacity="1" /><polyline clip-path="url(#clip410)" style="stroke:#000000; stroke-linecap:butt; stroke-linejoin:round; stroke-width:4; stroke-opacity:1; fill:none" stroke-dasharray="16, 10" points="
  1001.97,714.692 1093.6,714.692 
  "/>
<path clip-path="url(#clip410)" d="M1113.55 701.255 L1113.55 728.129 L1119.2 728.129 Q1126.35 728.129 1129.66 724.889 Q1132.99 721.648 1132.99 714.657 Q1132.99 707.713 1129.66 704.495 Q1126.35 701.255 1119.2 701.255 L1113.55 701.255 M1108.87 697.412 L1118.48 697.412 Q1128.53 697.412 1133.23 701.602 Q1137.93 705.768 1137.93 714.657 Q1137.93 723.592 1133.2 727.782 Q1128.48 731.972 1118.48 731.972 L1108.87 731.972 L1108.87 697.412 Z" fill="#000000" fill-rule="evenodd" fill-opacity="1" /><path clip-path="url(#clip410)" d="M1145.19 706.046 L1149.45 706.046 L1149.45 731.972 L1145.19 731.972 L1145.19 706.046 M1145.19 695.954 L1149.45 695.954 L1149.45 701.347 L1145.19 701.347 L1145.19 695.954 Z" fill="#000000" fill-rule="evenodd" fill-opacity="1" /><path clip-path="url(#clip410)" d="M1171.49 695.954 L1171.49 699.495 L1167.42 699.495 Q1165.12 699.495 1164.22 700.421 Q1163.34 701.347 1163.34 703.755 L1163.34 706.046 L1170.36 706.046 L1170.36 709.356 L1163.34 709.356 L1163.34 731.972 L1159.06 731.972 L1159.06 709.356 L1154.99 709.356 L1154.99 706.046 L1159.06 706.046 L1159.06 704.241 Q1159.06 699.912 1161.07 697.944 Q1163.09 695.954 1167.46 695.954 L1171.49 695.954 Z" fill="#000000" fill-rule="evenodd" fill-opacity="1" /><path clip-path="url(#clip410)" d="M1188.18 695.954 L1188.18 699.495 L1184.11 699.495 Q1181.81 699.495 1180.91 700.421 Q1180.03 701.347 1180.03 703.755 L1180.03 706.046 L1187.05 706.046 L1187.05 709.356 L1180.03 709.356 L1180.03 731.972 L1175.75 731.972 L1175.75 709.356 L1171.68 709.356 L1171.68 706.046 L1175.75 706.046 L1175.75 704.241 Q1175.75 699.912 1177.76 697.944 Q1179.78 695.954 1184.15 695.954 L1188.18 695.954 Z" fill="#000000" fill-rule="evenodd" fill-opacity="1" /><path clip-path="url(#clip410)" d="M1191.3 721.741 L1191.3 706.046 L1195.56 706.046 L1195.56 721.579 Q1195.56 725.259 1197 727.111 Q1198.43 728.94 1201.3 728.94 Q1204.75 728.94 1206.74 726.741 Q1208.76 724.541 1208.76 720.745 L1208.76 706.046 L1213.02 706.046 L1213.02 731.972 L1208.76 731.972 L1208.76 727.991 Q1207.21 730.352 1205.15 731.509 Q1203.11 732.643 1200.4 732.643 Q1195.93 732.643 1193.62 729.865 Q1191.3 727.088 1191.3 721.741 M1202.02 705.421 L1202.02 705.421 Z" fill="#000000" fill-rule="evenodd" fill-opacity="1" /><path clip-path="url(#clip410)" d="M1238.32 706.81 L1238.32 710.838 Q1236.51 709.912 1234.57 709.449 Q1232.62 708.986 1230.54 708.986 Q1227.37 708.986 1225.77 709.958 Q1224.2 710.93 1224.2 712.875 Q1224.2 714.356 1225.33 715.213 Q1226.47 716.046 1229.89 716.81 L1231.35 717.134 Q1235.89 718.106 1237.79 719.889 Q1239.71 721.648 1239.71 724.819 Q1239.71 728.43 1236.84 730.537 Q1233.99 732.643 1228.99 732.643 Q1226.91 732.643 1224.64 732.227 Q1222.39 731.833 1219.89 731.023 L1219.89 726.625 Q1222.25 727.852 1224.55 728.477 Q1226.84 729.078 1229.08 729.078 Q1232.09 729.078 1233.71 728.06 Q1235.33 727.018 1235.33 725.143 Q1235.33 723.407 1234.15 722.481 Q1232.99 721.555 1229.04 720.699 L1227.55 720.352 Q1223.6 719.518 1221.84 717.805 Q1220.08 716.069 1220.08 713.06 Q1220.08 709.403 1222.67 707.412 Q1225.26 705.421 1230.03 705.421 Q1232.39 705.421 1234.48 705.768 Q1236.56 706.116 1238.32 706.81 Z" fill="#000000" fill-rule="evenodd" fill-opacity="1" /><path clip-path="url(#clip410)" d="M1246.49 706.046 L1250.75 706.046 L1250.75 731.972 L1246.49 731.972 L1246.49 706.046 M1246.49 695.954 L1250.75 695.954 L1250.75 701.347 L1246.49 701.347 L1246.49 695.954 Z" fill="#000000" fill-rule="evenodd" fill-opacity="1" /><path clip-path="url(#clip410)" d="M1269.71 709.032 Q1266.28 709.032 1264.29 711.717 Q1262.3 714.379 1262.3 719.032 Q1262.3 723.685 1264.27 726.37 Q1266.26 729.032 1269.71 729.032 Q1273.11 729.032 1275.1 726.347 Q1277.09 723.662 1277.09 719.032 Q1277.09 714.426 1275.1 711.741 Q1273.11 709.032 1269.71 709.032 M1269.71 705.421 Q1275.26 705.421 1278.43 709.032 Q1281.61 712.643 1281.61 719.032 Q1281.61 725.398 1278.43 729.032 Q1275.26 732.643 1269.71 732.643 Q1264.13 732.643 1260.96 729.032 Q1257.81 725.398 1257.81 719.032 Q1257.81 712.643 1260.96 709.032 Q1264.13 705.421 1269.71 705.421 Z" fill="#000000" fill-rule="evenodd" fill-opacity="1" /><path clip-path="url(#clip410)" d="M1310.22 716.324 L1310.22 731.972 L1305.96 731.972 L1305.96 716.463 Q1305.96 712.782 1304.52 710.954 Q1303.09 709.125 1300.22 709.125 Q1296.77 709.125 1294.78 711.324 Q1292.79 713.523 1292.79 717.319 L1292.79 731.972 L1288.5 731.972 L1288.5 706.046 L1292.79 706.046 L1292.79 710.074 Q1294.31 707.736 1296.37 706.579 Q1298.46 705.421 1301.17 705.421 Q1305.63 705.421 1307.92 708.199 Q1310.22 710.954 1310.22 716.324 Z" fill="#000000" fill-rule="evenodd" fill-opacity="1" /><path clip-path="url(#clip410)" d="M1333.78 695.954 L1338.04 695.954 L1338.04 731.972 L1333.78 731.972 L1333.78 695.954 Z" fill="#000000" fill-rule="evenodd" fill-opacity="1" /><path clip-path="url(#clip410)" d="M1369.13 717.944 L1369.13 720.028 L1349.54 720.028 Q1349.82 724.426 1352.18 726.741 Q1354.57 729.032 1358.8 729.032 Q1361.26 729.032 1363.55 728.43 Q1365.86 727.828 1368.13 726.625 L1368.13 730.653 Q1365.84 731.625 1363.43 732.134 Q1361.03 732.643 1358.55 732.643 Q1352.35 732.643 1348.71 729.032 Q1345.1 725.421 1345.1 719.264 Q1345.1 712.898 1348.53 709.171 Q1351.98 705.421 1357.81 705.421 Q1363.04 705.421 1366.07 708.801 Q1369.13 712.157 1369.13 717.944 M1364.87 716.694 Q1364.82 713.199 1362.9 711.116 Q1361 709.032 1357.85 709.032 Q1354.29 709.032 1352.14 711.046 Q1350.01 713.06 1349.68 716.717 L1364.87 716.694 Z" fill="#000000" fill-rule="evenodd" fill-opacity="1" /><path clip-path="url(#clip410)" d="M1397.67 716.324 L1397.67 731.972 L1393.41 731.972 L1393.41 716.463 Q1393.41 712.782 1391.97 710.954 Q1390.54 709.125 1387.67 709.125 Q1384.22 709.125 1382.23 711.324 Q1380.24 713.523 1380.24 717.319 L1380.24 731.972 L1375.96 731.972 L1375.96 706.046 L1380.24 706.046 L1380.24 710.074 Q1381.77 707.736 1383.83 706.579 Q1385.91 705.421 1388.62 705.421 Q1393.09 705.421 1395.38 708.199 Q1397.67 710.954 1397.67 716.324 Z" fill="#000000" fill-rule="evenodd" fill-opacity="1" /><path clip-path="url(#clip410)" d="M1423.22 718.708 Q1423.22 714.079 1421.3 711.532 Q1419.41 708.986 1415.96 708.986 Q1412.53 708.986 1410.61 711.532 Q1408.71 714.079 1408.71 718.708 Q1408.71 723.315 1410.61 725.861 Q1412.53 728.407 1415.96 728.407 Q1419.41 728.407 1421.3 725.861 Q1423.22 723.315 1423.22 718.708 M1427.48 728.754 Q1427.48 735.375 1424.54 738.592 Q1421.6 741.833 1415.54 741.833 Q1413.29 741.833 1411.3 741.486 Q1409.31 741.162 1407.44 740.467 L1407.44 736.324 Q1409.31 737.342 1411.14 737.828 Q1412.97 738.315 1414.87 738.315 Q1419.06 738.315 1421.14 736.115 Q1423.22 733.94 1423.22 729.518 L1423.22 727.412 Q1421.91 729.703 1419.85 730.838 Q1417.79 731.972 1414.91 731.972 Q1410.15 731.972 1407.23 728.338 Q1404.31 724.703 1404.31 718.708 Q1404.31 712.69 1407.23 709.055 Q1410.15 705.421 1414.91 705.421 Q1417.79 705.421 1419.85 706.555 Q1421.91 707.69 1423.22 709.981 L1423.22 706.046 L1427.48 706.046 L1427.48 728.754 Z" fill="#000000" fill-rule="evenodd" fill-opacity="1" /><path clip-path="url(#clip410)" d="M1440.47 698.685 L1440.47 706.046 L1449.24 706.046 L1449.24 709.356 L1440.47 709.356 L1440.47 723.43 Q1440.47 726.602 1441.33 727.504 Q1442.21 728.407 1444.87 728.407 L1449.24 728.407 L1449.24 731.972 L1444.87 731.972 Q1439.94 731.972 1438.06 730.143 Q1436.19 728.291 1436.19 723.43 L1436.19 709.356 L1433.06 709.356 L1433.06 706.046 L1436.19 706.046 L1436.19 698.685 L1440.47 698.685 Z" fill="#000000" fill-rule="evenodd" fill-opacity="1" /><path clip-path="url(#clip410)" d="M1476.4 716.324 L1476.4 731.972 L1472.14 731.972 L1472.14 716.463 Q1472.14 712.782 1470.7 710.954 Q1469.27 709.125 1466.4 709.125 Q1462.95 709.125 1460.96 711.324 Q1458.97 713.523 1458.97 717.319 L1458.97 731.972 L1454.68 731.972 L1454.68 695.954 L1458.97 695.954 L1458.97 710.074 Q1460.49 707.736 1462.55 706.579 Q1464.64 705.421 1467.34 705.421 Q1471.81 705.421 1474.1 708.199 Q1476.4 710.954 1476.4 716.324 Z" fill="#000000" fill-rule="evenodd" fill-opacity="1" /></svg>
