<?xml version="1.0" encoding="utf-8"?>
<svg xmlns="http://www.w3.org/2000/svg" xmlns:xlink="http://www.w3.org/1999/xlink" width="400" height="600" viewBox="0 0 1600 2400">
<defs>
  <clipPath id="clip520">
    <rect x="0" y="0" width="1600" height="2400"/>
  </clipPath>
</defs>
<path clip-path="url(#clip520)" d="
M0 2400 L1600 2400 L1600 0 L0 0  Z
  " fill="#ffffff" fill-rule="evenodd" fill-opacity="1"/>
<defs>
  <clipPath id="clip521">
    <rect x="480" y="240" width="1600" height="1681"/>
  </clipPath>
</defs>
<path clip-path="url(#clip520)" d="
M206.498 974.14 L1552.76 974.14 L1552.76 47.2441 L206.498 47.2441  Z
  " fill="#ffffff" fill-rule="evenodd" fill-opacity="1"/>
<defs>
  <clipPath id="clip522">
    <rect x="206" y="47" width="1347" height="928"/>
  </clipPath>
</defs>
<polyline clip-path="url(#clip522)" style="stroke:#000000; stroke-linecap:butt; stroke-linejoin:round; stroke-width:2; stroke-opacity:0.1; fill:none" points="
  228.454,974.14 228.454,47.2441 
  "/>
<polyline clip-path="url(#clip522)" style="stroke:#000000; stroke-linecap:butt; stroke-linejoin:round; stroke-width:2; stroke-opacity:0.1; fill:none" points="
  492.663,974.14 492.663,47.2441 
  "/>
<polyline clip-path="url(#clip522)" style="stroke:#000000; stroke-linecap:butt; stroke-linejoin:round; stroke-width:2; stroke-opacity:0.1; fill:none" points="
  756.873,974.14 756.873,47.2441 
  "/>
<polyline clip-path="url(#clip522)" style="stroke:#000000; stroke-linecap:butt; stroke-linejoin:round; stroke-width:2; stroke-opacity:0.1; fill:none" points="
  1021.08,974.14 1021.08,47.2441 
  "/>
<polyline clip-path="url(#clip522)" style="stroke:#000000; stroke-linecap:butt; stroke-linejoin:round; stroke-width:2; stroke-opacity:0.1; fill:none" points="
  1285.29,974.14 1285.29,47.2441 
  "/>
<polyline clip-path="url(#clip522)" style="stroke:#000000; stroke-linecap:butt; stroke-linejoin:round; stroke-width:2; stroke-opacity:0.1; fill:none" points="
  1549.5,974.14 1549.5,47.2441 
  "/>
<polyline clip-path="url(#clip520)" style="stroke:#000000; stroke-linecap:butt; stroke-linejoin:round; stroke-width:4; stroke-opacity:1; fill:none" points="
  206.498,974.14 1552.76,974.14 
  "/>
<polyline clip-path="url(#clip520)" style="stroke:#000000; stroke-linecap:butt; stroke-linejoin:round; stroke-width:4; stroke-opacity:1; fill:none" points="
  228.454,974.14 228.454,955.242 
  "/>
<polyline clip-path="url(#clip520)" style="stroke:#000000; stroke-linecap:butt; stroke-linejoin:round; stroke-width:4; stroke-opacity:1; fill:none" points="
  492.663,974.14 492.663,955.242 
  "/>
<polyline clip-path="url(#clip520)" style="stroke:#000000; stroke-linecap:butt; stroke-linejoin:round; stroke-width:4; stroke-opacity:1; fill:none" points="
  756.873,974.14 756.873,955.242 
  "/>
<polyline clip-path="url(#clip520)" style="stroke:#000000; stroke-linecap:butt; stroke-linejoin:round; stroke-width:4; stroke-opacity:1; fill:none" points="
  1021.08,974.14 1021.08,955.242 
  "/>
<polyline clip-path="url(#clip520)" style="stroke:#000000; stroke-linecap:butt; stroke-linejoin:round; stroke-width:4; stroke-opacity:1; fill:none" points="
  1285.29,974.14 1285.29,955.242 
  "/>
<polyline clip-path="url(#clip520)" style="stroke:#000000; stroke-linecap:butt; stroke-linejoin:round; stroke-width:4; stroke-opacity:1; fill:none" points="
  1549.5,974.14 1549.5,955.242 
  "/>
<path clip-path="url(#clip520)" d="M228.454 1005.06 Q224.843 1005.06 223.014 1008.62 Q221.209 1012.16 221.209 1019.29 Q221.209 1026.4 223.014 1029.97 Q224.843 1033.51 228.454 1033.51 Q232.088 1033.51 233.894 1029.97 Q235.722 1026.4 235.722 1019.29 Q235.722 1012.16 233.894 1008.62 Q232.088 1005.06 228.454 1005.06 M228.454 1001.35 Q234.264 1001.35 237.32 1005.96 Q240.398 1010.54 240.398 1019.29 Q240.398 1028.02 237.32 1032.63 Q234.264 1037.21 228.454 1037.21 Q222.644 1037.21 219.565 1032.63 Q216.509 1028.02 216.509 1019.29 Q216.509 1010.54 219.565 1005.96 Q222.644 1001.35 228.454 1001.35 Z" fill="#000000" fill-rule="evenodd" fill-opacity="1" /><path clip-path="url(#clip520)" d="M467.351 1032.6 L474.99 1032.6 L474.99 1006.24 L466.68 1007.91 L466.68 1003.65 L474.943 1001.98 L479.619 1001.98 L479.619 1032.6 L487.258 1032.6 L487.258 1036.54 L467.351 1036.54 L467.351 1032.6 Z" fill="#000000" fill-rule="evenodd" fill-opacity="1" /><path clip-path="url(#clip520)" d="M506.702 1005.06 Q503.091 1005.06 501.263 1008.62 Q499.457 1012.16 499.457 1019.29 Q499.457 1026.4 501.263 1029.97 Q503.091 1033.51 506.702 1033.51 Q510.337 1033.51 512.142 1029.97 Q513.971 1026.4 513.971 1019.29 Q513.971 1012.16 512.142 1008.62 Q510.337 1005.06 506.702 1005.06 M506.702 1001.35 Q512.513 1001.35 515.568 1005.96 Q518.647 1010.54 518.647 1019.29 Q518.647 1028.02 515.568 1032.63 Q512.513 1037.21 506.702 1037.21 Q500.892 1037.21 497.814 1032.63 Q494.758 1028.02 494.758 1019.29 Q494.758 1010.54 497.814 1005.96 Q500.892 1001.35 506.702 1001.35 Z" fill="#000000" fill-rule="evenodd" fill-opacity="1" /><path clip-path="url(#clip520)" d="M735.646 1032.6 L751.965 1032.6 L751.965 1036.54 L730.021 1036.54 L730.021 1032.6 Q732.683 1029.85 737.266 1025.22 Q741.873 1020.57 743.053 1019.23 Q745.299 1016.7 746.178 1014.97 Q747.081 1013.21 747.081 1011.52 Q747.081 1008.76 745.136 1007.03 Q743.215 1005.29 740.113 1005.29 Q737.914 1005.29 735.461 1006.05 Q733.03 1006.82 730.252 1008.37 L730.252 1003.65 Q733.076 1002.51 735.53 1001.93 Q737.984 1001.35 740.021 1001.35 Q745.391 1001.35 748.586 1004.04 Q751.78 1006.73 751.78 1011.22 Q751.78 1013.35 750.97 1015.27 Q750.183 1017.16 748.076 1019.76 Q747.498 1020.43 744.396 1023.65 Q741.294 1026.84 735.646 1032.6 Z" fill="#000000" fill-rule="evenodd" fill-opacity="1" /><path clip-path="url(#clip520)" d="M771.78 1005.06 Q768.169 1005.06 766.34 1008.62 Q764.535 1012.16 764.535 1019.29 Q764.535 1026.4 766.34 1029.97 Q768.169 1033.51 771.78 1033.51 Q775.414 1033.51 777.22 1029.97 Q779.048 1026.4 779.048 1019.29 Q779.048 1012.16 777.22 1008.62 Q775.414 1005.06 771.78 1005.06 M771.78 1001.35 Q777.59 1001.35 780.646 1005.96 Q783.724 1010.54 783.724 1019.29 Q783.724 1028.02 780.646 1032.63 Q777.59 1037.21 771.78 1037.21 Q765.97 1037.21 762.891 1032.63 Q759.835 1028.02 759.835 1019.29 Q759.835 1010.54 762.891 1005.96 Q765.97 1001.35 771.78 1001.35 Z" fill="#000000" fill-rule="evenodd" fill-opacity="1" /><path clip-path="url(#clip520)" d="M1009.92 1017.91 Q1013.28 1018.62 1015.16 1020.89 Q1017.05 1023.16 1017.05 1026.49 Q1017.05 1031.61 1013.54 1034.41 Q1010.02 1037.21 1003.54 1037.21 Q1001.36 1037.21 999.045 1036.77 Q996.753 1036.35 994.3 1035.5 L994.3 1030.98 Q996.244 1032.12 998.559 1032.7 Q1000.87 1033.28 1003.4 1033.28 Q1007.79 1033.28 1010.09 1031.54 Q1012.4 1029.8 1012.4 1026.49 Q1012.4 1023.44 1010.25 1021.73 Q1008.12 1019.99 1004.3 1019.99 L1000.27 1019.99 L1000.27 1016.15 L1004.48 1016.15 Q1007.93 1016.15 1009.76 1014.78 Q1011.59 1013.39 1011.59 1010.8 Q1011.59 1008.14 1009.69 1006.73 Q1007.82 1005.29 1004.3 1005.29 Q1002.38 1005.29 1000.18 1005.71 Q997.98 1006.12 995.341 1007 L995.341 1002.84 Q998.003 1002.1 1000.32 1001.73 Q1002.66 1001.35 1004.72 1001.35 Q1010.04 1001.35 1013.14 1003.79 Q1016.24 1006.19 1016.24 1010.31 Q1016.24 1013.18 1014.6 1015.17 Q1012.96 1017.14 1009.92 1017.91 Z" fill="#000000" fill-rule="evenodd" fill-opacity="1" /><path clip-path="url(#clip520)" d="M1035.92 1005.06 Q1032.31 1005.06 1030.48 1008.62 Q1028.67 1012.16 1028.67 1019.29 Q1028.67 1026.4 1030.48 1029.97 Q1032.31 1033.51 1035.92 1033.51 Q1039.55 1033.51 1041.36 1029.97 Q1043.19 1026.4 1043.19 1019.29 Q1043.19 1012.16 1041.36 1008.62 Q1039.55 1005.06 1035.92 1005.06 M1035.92 1001.35 Q1041.73 1001.35 1044.79 1005.96 Q1047.86 1010.54 1047.86 1019.29 Q1047.86 1028.02 1044.79 1032.63 Q1041.73 1037.21 1035.92 1037.21 Q1030.11 1037.21 1027.03 1032.63 Q1023.98 1028.02 1023.98 1019.29 Q1023.98 1010.54 1027.03 1005.96 Q1030.11 1001.35 1035.92 1001.35 Z" fill="#000000" fill-rule="evenodd" fill-opacity="1" /><path clip-path="url(#clip520)" d="M1273.46 1006.05 L1261.66 1024.5 L1273.46 1024.5 L1273.46 1006.05 M1272.24 1001.98 L1278.12 1001.98 L1278.12 1024.5 L1283.05 1024.5 L1283.05 1028.39 L1278.12 1028.39 L1278.12 1036.54 L1273.46 1036.54 L1273.46 1028.39 L1257.86 1028.39 L1257.86 1023.88 L1272.24 1001.98 Z" fill="#000000" fill-rule="evenodd" fill-opacity="1" /><path clip-path="url(#clip520)" d="M1300.78 1005.06 Q1297.17 1005.06 1295.34 1008.62 Q1293.53 1012.16 1293.53 1019.29 Q1293.53 1026.4 1295.34 1029.97 Q1297.17 1033.51 1300.78 1033.51 Q1304.41 1033.51 1306.22 1029.97 Q1308.05 1026.4 1308.05 1019.29 Q1308.05 1012.16 1306.22 1008.62 Q1304.41 1005.06 1300.78 1005.06 M1300.78 1001.35 Q1306.59 1001.35 1309.64 1005.96 Q1312.72 1010.54 1312.72 1019.29 Q1312.72 1028.02 1309.64 1032.63 Q1306.59 1037.21 1300.78 1037.21 Q1294.97 1037.21 1291.89 1032.63 Q1288.83 1028.02 1288.83 1019.29 Q1288.83 1010.54 1291.89 1005.96 Q1294.97 1001.35 1300.78 1001.35 Z" fill="#000000" fill-rule="evenodd" fill-opacity="1" /><path clip-path="url(#clip520)" d="M1524.2 1001.98 L1542.56 1001.98 L1542.56 1005.92 L1528.48 1005.92 L1528.48 1014.39 Q1529.5 1014.04 1530.52 1013.88 Q1531.54 1013.69 1532.56 1013.69 Q1538.34 1013.69 1541.72 1016.86 Q1545.1 1020.04 1545.1 1025.45 Q1545.1 1031.03 1541.63 1034.13 Q1538.16 1037.21 1531.84 1037.21 Q1529.66 1037.21 1527.39 1036.84 Q1525.15 1036.47 1522.74 1035.73 L1522.74 1031.03 Q1524.82 1032.16 1527.05 1032.72 Q1529.27 1033.28 1531.75 1033.28 Q1535.75 1033.28 1538.09 1031.17 Q1540.43 1029.06 1540.43 1025.45 Q1540.43 1021.84 1538.09 1019.73 Q1535.75 1017.63 1531.75 1017.63 Q1529.87 1017.63 1528 1018.04 Q1526.14 1018.46 1524.2 1019.34 L1524.2 1001.98 Z" fill="#000000" fill-rule="evenodd" fill-opacity="1" /><path clip-path="url(#clip520)" d="M1564.32 1005.06 Q1560.7 1005.06 1558.88 1008.62 Q1557.07 1012.16 1557.07 1019.29 Q1557.07 1026.4 1558.88 1029.97 Q1560.7 1033.51 1564.32 1033.51 Q1567.95 1033.51 1569.76 1029.97 Q1571.58 1026.4 1571.58 1019.29 Q1571.58 1012.16 1569.76 1008.62 Q1567.95 1005.06 1564.32 1005.06 M1564.32 1001.35 Q1570.13 1001.35 1573.18 1005.96 Q1576.26 1010.54 1576.26 1019.29 Q1576.26 1028.02 1573.18 1032.63 Q1570.13 1037.21 1564.32 1037.21 Q1558.51 1037.21 1555.43 1032.63 Q1552.37 1028.02 1552.37 1019.29 Q1552.37 1010.54 1555.43 1005.96 Q1558.51 1001.35 1564.32 1001.35 Z" fill="#000000" fill-rule="evenodd" fill-opacity="1" /><path clip-path="url(#clip520)" d="M746.122 1071.48 L786.322 1071.48 L786.322 1076.89 L769.453 1076.89 L769.453 1119 L762.991 1119 L762.991 1076.89 L746.122 1076.89 L746.122 1071.48 Z" fill="#000000" fill-rule="evenodd" fill-opacity="1" /><path clip-path="url(#clip520)" d="M790.269 1083.36 L796.125 1083.36 L796.125 1119 L790.269 1119 L790.269 1083.36 M790.269 1069.48 L796.125 1069.48 L796.125 1076.89 L790.269 1076.89 L790.269 1069.48 Z" fill="#000000" fill-rule="evenodd" fill-opacity="1" /><path clip-path="url(#clip520)" d="M836.133 1090.2 Q838.33 1086.25 841.385 1084.37 Q844.441 1082.5 848.578 1082.5 Q854.148 1082.5 857.172 1086.41 Q860.196 1090.29 860.196 1097.49 L860.196 1119 L854.308 1119 L854.308 1097.68 Q854.308 1092.55 852.493 1090.07 Q850.679 1087.59 846.955 1087.59 Q842.404 1087.59 839.762 1090.61 Q837.12 1093.64 837.12 1098.86 L837.12 1119 L831.232 1119 L831.232 1097.68 Q831.232 1092.52 829.418 1090.07 Q827.603 1087.59 823.816 1087.59 Q819.328 1087.59 816.686 1090.64 Q814.044 1093.67 814.044 1098.86 L814.044 1119 L808.156 1119 L808.156 1083.36 L814.044 1083.36 L814.044 1088.89 Q816.05 1085.62 818.851 1084.06 Q821.651 1082.5 825.503 1082.5 Q829.386 1082.5 832.091 1084.47 Q834.828 1086.44 836.133 1090.2 Z" fill="#000000" fill-rule="evenodd" fill-opacity="1" /><path clip-path="url(#clip520)" d="M902.369 1099.72 L902.369 1102.58 L875.442 1102.58 Q875.824 1108.63 879.07 1111.81 Q882.348 1114.96 888.173 1114.96 Q891.547 1114.96 894.698 1114.13 Q897.881 1113.31 901 1111.65 L901 1117.19 Q897.849 1118.53 894.539 1119.23 Q891.229 1119.93 887.823 1119.93 Q879.293 1119.93 874.296 1114.96 Q869.331 1110 869.331 1101.53 Q869.331 1092.78 874.041 1087.65 Q878.784 1082.5 886.804 1082.5 Q893.998 1082.5 898.167 1087.14 Q902.369 1091.76 902.369 1099.72 M896.512 1098 Q896.449 1093.19 893.807 1090.33 Q891.197 1087.46 886.868 1087.46 Q881.967 1087.46 879.006 1090.23 Q876.078 1093 875.633 1098.03 L896.512 1098 Z" fill="#000000" fill-rule="evenodd" fill-opacity="1" /><path clip-path="url(#clip520)" d="M932.16 1069.48 L945.655 1069.48 L945.655 1074.03 L938.017 1074.03 L938.017 1123.05 L945.655 1123.05 L945.655 1127.6 L932.16 1127.6 L932.16 1069.48 Z" fill="#000000" fill-rule="evenodd" fill-opacity="1" /><path clip-path="url(#clip520)" d="M987.765 1097.49 L987.765 1119 L981.908 1119 L981.908 1097.68 Q981.908 1092.62 979.935 1090.1 Q977.961 1087.59 974.015 1087.59 Q969.272 1087.59 966.535 1090.61 Q963.798 1093.64 963.798 1098.86 L963.798 1119 L957.909 1119 L957.909 1069.48 L963.798 1069.48 L963.798 1088.89 Q965.898 1085.68 968.731 1084.09 Q971.596 1082.5 975.32 1082.5 Q981.463 1082.5 984.614 1086.32 Q987.765 1090.1 987.765 1097.49 Z" fill="#000000" fill-rule="evenodd" fill-opacity="1" /><path clip-path="url(#clip520)" d="M1013.13 1069.48 L1013.13 1127.6 L999.637 1127.6 L999.637 1123.05 L1007.24 1123.05 L1007.24 1074.03 L999.637 1074.03 L999.637 1069.48 L1013.13 1069.48 Z" fill="#000000" fill-rule="evenodd" fill-opacity="1" /><polyline clip-path="url(#clip522)" style="stroke:#000000; stroke-linecap:butt; stroke-linejoin:round; stroke-width:2; stroke-opacity:0.1; fill:none" points="
  206.498,796.087 1552.76,796.087 
  "/>
<polyline clip-path="url(#clip522)" style="stroke:#000000; stroke-linecap:butt; stroke-linejoin:round; stroke-width:2; stroke-opacity:0.1; fill:none" points="
  206.498,605.701 1552.76,605.701 
  "/>
<polyline clip-path="url(#clip522)" style="stroke:#000000; stroke-linecap:butt; stroke-linejoin:round; stroke-width:2; stroke-opacity:0.1; fill:none" points="
  206.498,415.315 1552.76,415.315 
  "/>
<polyline clip-path="url(#clip522)" style="stroke:#000000; stroke-linecap:butt; stroke-linejoin:round; stroke-width:2; stroke-opacity:0.1; fill:none" points="
  206.498,224.929 1552.76,224.929 
  "/>
<polyline clip-path="url(#clip520)" style="stroke:#000000; stroke-linecap:butt; stroke-linejoin:round; stroke-width:4; stroke-opacity:1; fill:none" points="
  206.498,974.14 206.498,47.2441 
  "/>
<polyline clip-path="url(#clip520)" style="stroke:#000000; stroke-linecap:butt; stroke-linejoin:round; stroke-width:4; stroke-opacity:1; fill:none" points="
  206.498,796.087 225.396,796.087 
  "/>
<polyline clip-path="url(#clip520)" style="stroke:#000000; stroke-linecap:butt; stroke-linejoin:round; stroke-width:4; stroke-opacity:1; fill:none" points="
  206.498,605.701 225.396,605.701 
  "/>
<polyline clip-path="url(#clip520)" style="stroke:#000000; stroke-linecap:butt; stroke-linejoin:round; stroke-width:4; stroke-opacity:1; fill:none" points="
  206.498,415.315 225.396,415.315 
  "/>
<polyline clip-path="url(#clip520)" style="stroke:#000000; stroke-linecap:butt; stroke-linejoin:round; stroke-width:4; stroke-opacity:1; fill:none" points="
  206.498,224.929 225.396,224.929 
  "/>
<path clip-path="url(#clip520)" d="M109.781 796.539 L139.457 796.539 L139.457 800.474 L109.781 800.474 L109.781 796.539 Z" fill="#000000" fill-rule="evenodd" fill-opacity="1" /><path clip-path="url(#clip520)" d="M149.596 778.807 L167.952 778.807 L167.952 782.743 L153.878 782.743 L153.878 791.215 Q154.897 790.868 155.915 790.706 Q156.934 790.52 157.952 790.52 Q163.739 790.52 167.119 793.692 Q170.498 796.863 170.498 802.28 Q170.498 807.858 167.026 810.96 Q163.554 814.039 157.235 814.039 Q155.059 814.039 152.79 813.668 Q150.545 813.298 148.137 812.557 L148.137 807.858 Q150.221 808.993 152.443 809.548 Q154.665 810.104 157.142 810.104 Q161.147 810.104 163.484 807.997 Q165.822 805.891 165.822 802.28 Q165.822 798.668 163.484 796.562 Q161.147 794.456 157.142 794.456 Q155.267 794.456 153.392 794.872 Q151.54 795.289 149.596 796.169 L149.596 778.807 Z" fill="#000000" fill-rule="evenodd" fill-opacity="1" /><path clip-path="url(#clip520)" d="M158.554 591.5 Q154.943 591.5 153.114 595.065 Q151.309 598.606 151.309 605.736 Q151.309 612.842 153.114 616.407 Q154.943 619.949 158.554 619.949 Q162.188 619.949 163.994 616.407 Q165.822 612.842 165.822 605.736 Q165.822 598.606 163.994 595.065 Q162.188 591.5 158.554 591.5 M158.554 587.796 Q164.364 587.796 167.42 592.403 Q170.498 596.986 170.498 605.736 Q170.498 614.463 167.42 619.069 Q164.364 623.653 158.554 623.653 Q152.744 623.653 149.665 619.069 Q146.61 614.463 146.61 605.736 Q146.61 596.986 149.665 592.403 Q152.744 587.796 158.554 587.796 Z" fill="#000000" fill-rule="evenodd" fill-opacity="1" /><path clip-path="url(#clip520)" d="M149.596 398.035 L167.952 398.035 L167.952 401.97 L153.878 401.97 L153.878 410.442 Q154.897 410.095 155.915 409.933 Q156.934 409.748 157.952 409.748 Q163.739 409.748 167.119 412.919 Q170.498 416.09 170.498 421.507 Q170.498 427.086 167.026 430.188 Q163.554 433.266 157.235 433.266 Q155.059 433.266 152.79 432.896 Q150.545 432.525 148.137 431.785 L148.137 427.086 Q150.221 428.22 152.443 428.776 Q154.665 429.331 157.142 429.331 Q161.147 429.331 163.484 427.225 Q165.822 425.118 165.822 421.507 Q165.822 417.896 163.484 415.789 Q161.147 413.683 157.142 413.683 Q155.267 413.683 153.392 414.1 Q151.54 414.516 149.596 415.396 L149.596 398.035 Z" fill="#000000" fill-rule="evenodd" fill-opacity="1" /><path clip-path="url(#clip520)" d="M119.202 238.274 L126.841 238.274 L126.841 211.908 L118.531 213.575 L118.531 209.315 L126.795 207.649 L131.471 207.649 L131.471 238.274 L139.11 238.274 L139.11 242.209 L119.202 242.209 L119.202 238.274 Z" fill="#000000" fill-rule="evenodd" fill-opacity="1" /><path clip-path="url(#clip520)" d="M158.554 210.727 Q154.943 210.727 153.114 214.292 Q151.309 217.834 151.309 224.963 Q151.309 232.07 153.114 235.635 Q154.943 239.176 158.554 239.176 Q162.188 239.176 163.994 235.635 Q165.822 232.07 165.822 224.963 Q165.822 217.834 163.994 214.292 Q162.188 210.727 158.554 210.727 M158.554 207.024 Q164.364 207.024 167.42 211.63 Q170.498 216.213 170.498 224.963 Q170.498 233.69 167.42 238.297 Q164.364 242.88 158.554 242.88 Q152.744 242.88 149.665 238.297 Q146.61 233.69 146.61 224.963 Q146.61 216.213 149.665 211.63 Q152.744 207.024 158.554 207.024 Z" fill="#000000" fill-rule="evenodd" fill-opacity="1" /><path clip-path="url(#clip520)" d="M12.0051 700.708 L12.0051 694.279 L31.4841 694.279 L31.4841 670.917 L12.0051 670.917 L12.0051 664.487 L59.5251 664.487 L59.5251 670.917 L36.895 670.917 L36.895 694.279 L59.5251 694.279 L59.5251 700.708 L12.0051 700.708 Z" fill="#000000" fill-rule="evenodd" fill-opacity="1" /><path clip-path="url(#clip520)" d="M40.237 621.455 L43.1015 621.455 L43.1015 648.382 Q49.149 648 52.3318 644.754 Q55.4828 641.475 55.4828 635.651 Q55.4828 632.277 54.6553 629.126 Q53.8278 625.943 52.1727 622.824 L57.7108 622.824 Q59.0476 625.975 59.7479 629.285 Q60.4481 632.595 60.4481 636.001 Q60.4481 644.531 55.4828 649.528 Q50.5176 654.493 42.0512 654.493 Q33.2984 654.493 28.174 649.783 Q23.0177 645.04 23.0177 637.019 Q23.0177 629.826 27.6647 625.657 Q32.2798 621.455 40.237 621.455 M38.5182 627.312 Q33.7121 627.375 30.8476 630.017 Q27.983 632.627 27.983 636.956 Q27.983 641.857 30.7521 644.817 Q33.5212 647.746 38.5501 648.191 L38.5182 627.312 Z" fill="#000000" fill-rule="evenodd" fill-opacity="1" /><path clip-path="url(#clip520)" d="M23.8771 611.843 L23.8771 605.987 L59.5251 605.987 L59.5251 611.843 L23.8771 611.843 M9.99987 611.843 L9.99987 605.987 L17.4159 605.987 L17.4159 611.843 L9.99987 611.843 Z" fill="#000000" fill-rule="evenodd" fill-opacity="1" /><path clip-path="url(#clip520)" d="M41.2873 570.275 Q34.9216 570.275 31.4205 572.917 Q27.9193 575.527 27.9193 580.269 Q27.9193 584.98 31.4205 587.622 Q34.9216 590.231 41.2873 590.231 Q47.6212 590.231 51.1223 587.622 Q54.6235 584.98 54.6235 580.269 Q54.6235 575.527 51.1223 572.917 Q47.6212 570.275 41.2873 570.275 M55.1009 564.419 Q64.2039 564.419 68.628 568.461 Q73.084 572.503 73.084 580.842 Q73.084 583.929 72.6066 586.667 Q72.161 589.404 71.2061 591.982 L65.5088 591.982 Q66.9093 589.404 67.5777 586.889 Q68.2461 584.375 68.2461 581.765 Q68.2461 576.004 65.2224 573.14 Q62.2305 570.275 56.1512 570.275 L53.2548 570.275 Q56.4059 572.089 57.9655 574.922 Q59.5251 577.755 59.5251 581.701 Q59.5251 588.258 54.528 592.268 Q49.5309 596.279 41.2873 596.279 Q33.0119 596.279 28.0148 592.268 Q23.0177 588.258 23.0177 581.701 Q23.0177 577.755 24.5773 574.922 Q26.1369 572.089 29.288 570.275 L23.8771 570.275 L23.8771 564.419 L55.1009 564.419 Z" fill="#000000" fill-rule="evenodd" fill-opacity="1" /><path clip-path="url(#clip520)" d="M38.009 522.723 L59.5251 522.723 L59.5251 528.58 L38.2 528.58 Q33.1392 528.58 30.6248 530.553 Q28.1103 532.526 28.1103 536.473 Q28.1103 541.216 31.134 543.953 Q34.1577 546.69 39.3776 546.69 L59.5251 546.69 L59.5251 552.578 L9.99987 552.578 L9.99987 546.69 L29.4153 546.69 Q26.2006 544.589 24.6092 541.757 Q23.0177 538.892 23.0177 535.168 Q23.0177 529.025 26.8372 525.874 Q30.6248 522.723 38.009 522.723 Z" fill="#000000" fill-rule="evenodd" fill-opacity="1" /><path clip-path="url(#clip520)" d="M13.7556 505.249 L23.8771 505.249 L23.8771 493.186 L28.4286 493.186 L28.4286 505.249 L47.7803 505.249 Q52.1408 505.249 53.3822 504.072 Q54.6235 502.862 54.6235 499.202 L54.6235 493.186 L59.5251 493.186 L59.5251 499.202 Q59.5251 505.981 57.0106 508.559 Q54.4643 511.138 47.7803 511.138 L28.4286 511.138 L28.4286 515.434 L23.8771 515.434 L23.8771 511.138 L13.7556 511.138 L13.7556 505.249 Z" fill="#000000" fill-rule="evenodd" fill-opacity="1" /><path clip-path="url(#clip520)" d="M9.99987 465.304 L9.99987 451.809 L14.5514 451.809 L14.5514 459.448 L63.5673 459.448 L63.5673 451.809 L68.1188 451.809 L68.1188 465.304 L9.99987 465.304 Z" fill="#000000" fill-rule="evenodd" fill-opacity="1" /><path clip-path="url(#clip520)" d="M73.084 439.937 L23.8771 439.937 L23.8771 434.081 L46.0298 434.081 Q50.6449 434.081 53.0002 431.885 Q55.3555 429.688 55.3555 425.391 Q55.3555 420.681 52.6819 418.326 Q50.0083 415.938 44.6611 415.938 L23.8771 415.938 L23.8771 410.082 L51.3133 410.082 Q53.223 410.082 54.146 409.541 Q55.0372 408.968 55.0372 407.79 Q55.0372 407.504 54.8781 406.995 Q54.6871 406.485 54.3052 405.594 L59.0158 405.594 Q59.7479 406.899 60.098 408.077 Q60.4481 409.223 60.4481 410.337 Q60.4481 412.533 59.2068 413.838 Q57.9655 415.143 55.4192 415.62 Q57.9336 417.212 59.2068 419.535 Q60.4481 421.827 60.4481 424.946 Q60.4481 428.192 59.2068 430.484 Q57.9655 432.744 55.4828 434.081 L73.084 434.081 L73.084 439.937 Z" fill="#000000" fill-rule="evenodd" fill-opacity="1" /><path clip-path="url(#clip520)" d="M30.7202 370.105 Q26.7735 367.909 24.8956 364.854 Q23.0177 361.798 23.0177 357.66 Q23.0177 352.09 26.9327 349.067 Q30.8157 346.043 38.009 346.043 L59.5251 346.043 L59.5251 351.931 L38.2 351.931 Q33.0756 351.931 30.5929 353.745 Q28.1103 355.56 28.1103 359.284 Q28.1103 363.835 31.134 366.477 Q34.1577 369.119 39.3776 369.119 L59.5251 369.119 L59.5251 375.007 L38.2 375.007 Q33.0437 375.007 30.5929 376.821 Q28.1103 378.635 28.1103 382.423 Q28.1103 386.911 31.1658 389.553 Q34.1896 392.194 39.3776 392.194 L59.5251 392.194 L59.5251 398.083 L23.8771 398.083 L23.8771 392.194 L29.4153 392.194 Q26.1369 390.189 24.5773 387.388 Q23.0177 384.587 23.0177 380.736 Q23.0177 376.853 24.9911 374.148 Q26.9645 371.41 30.7202 370.105 Z" fill="#000000" fill-rule="evenodd" fill-opacity="1" /><path clip-path="url(#clip520)" d="M9.99987 320.676 L68.1188 320.676 L68.1188 334.171 L63.5673 334.171 L63.5673 326.564 L14.5514 326.564 L14.5514 334.171 L9.99987 334.171 L9.99987 320.676 Z" fill="#000000" fill-rule="evenodd" fill-opacity="1" /><circle clip-path="url(#clip522)" cx="244.6" cy="556.921" r="14" fill="#009af9" fill-rule="evenodd" fill-opacity="1" stroke="#000000" stroke-opacity="1" stroke-width="3.2"/>
<circle clip-path="url(#clip522)" cx="250.031" cy="657.942" r="14" fill="#009af9" fill-rule="evenodd" fill-opacity="1" stroke="#000000" stroke-opacity="1" stroke-width="3.2"/>
<circle clip-path="url(#clip522)" cx="255.462" cy="709.646" r="14" fill="#009af9" fill-rule="evenodd" fill-opacity="1" stroke="#000000" stroke-opacity="1" stroke-width="3.2"/>
<circle clip-path="url(#clip522)" cx="260.893" cy="448.117" r="14" fill="#009af9" fill-rule="evenodd" fill-opacity="1" stroke="#000000" stroke-opacity="1" stroke-width="3.2"/>
<circle clip-path="url(#clip522)" cx="266.324" cy="779.02" r="14" fill="#009af9" fill-rule="evenodd" fill-opacity="1" stroke="#000000" stroke-opacity="1" stroke-width="3.2"/>
<circle clip-path="url(#clip522)" cx="271.755" cy="805.828" r="14" fill="#009af9" fill-rule="evenodd" fill-opacity="1" stroke="#000000" stroke-opacity="1" stroke-width="3.2"/>
<circle clip-path="url(#clip522)" cx="277.186" cy="319.753" r="14" fill="#009af9" fill-rule="evenodd" fill-opacity="1" stroke="#000000" stroke-opacity="1" stroke-width="3.2"/>
<circle clip-path="url(#clip522)" cx="282.661" cy="619.811" r="14" fill="#009af9" fill-rule="evenodd" fill-opacity="1" stroke="#000000" stroke-opacity="1" stroke-width="3.2"/>
<circle clip-path="url(#clip522)" cx="288.092" cy="483.896" r="14" fill="#009af9" fill-rule="evenodd" fill-opacity="1" stroke="#000000" stroke-opacity="1" stroke-width="3.2"/>
<circle clip-path="url(#clip522)" cx="293.523" cy="778.755" r="14" fill="#009af9" fill-rule="evenodd" fill-opacity="1" stroke="#000000" stroke-opacity="1" stroke-width="3.2"/>
<circle clip-path="url(#clip522)" cx="298.954" cy="461.592" r="14" fill="#009af9" fill-rule="evenodd" fill-opacity="1" stroke="#000000" stroke-opacity="1" stroke-width="3.2"/>
<circle clip-path="url(#clip522)" cx="304.385" cy="530.122" r="14" fill="#009af9" fill-rule="evenodd" fill-opacity="1" stroke="#000000" stroke-opacity="1" stroke-width="3.2"/>
<circle clip-path="url(#clip522)" cx="309.816" cy="780.642" r="14" fill="#009af9" fill-rule="evenodd" fill-opacity="1" stroke="#000000" stroke-opacity="1" stroke-width="3.2"/>
<circle clip-path="url(#clip522)" cx="315.276" cy="494.621" r="14" fill="#009af9" fill-rule="evenodd" fill-opacity="1" stroke="#000000" stroke-opacity="1" stroke-width="3.2"/>
<circle clip-path="url(#clip522)" cx="323.437" cy="541.379" r="14" fill="#009af9" fill-rule="evenodd" fill-opacity="1" stroke="#000000" stroke-opacity="1" stroke-width="3.2"/>
<circle clip-path="url(#clip522)" cx="335.415" cy="572.098" r="14" fill="#009af9" fill-rule="evenodd" fill-opacity="1" stroke="#000000" stroke-opacity="1" stroke-width="3.2"/>
<circle clip-path="url(#clip522)" cx="347.465" cy="421.574" r="14" fill="#009af9" fill-rule="evenodd" fill-opacity="1" stroke="#000000" stroke-opacity="1" stroke-width="3.2"/>
<circle clip-path="url(#clip522)" cx="359.854" cy="460.387" r="14" fill="#009af9" fill-rule="evenodd" fill-opacity="1" stroke="#000000" stroke-opacity="1" stroke-width="3.2"/>
<circle clip-path="url(#clip522)" cx="371.934" cy="424.419" r="14" fill="#009af9" fill-rule="evenodd" fill-opacity="1" stroke="#000000" stroke-opacity="1" stroke-width="3.2"/>
<circle clip-path="url(#clip522)" cx="384.073" cy="457.334" r="14" fill="#009af9" fill-rule="evenodd" fill-opacity="1" stroke="#000000" stroke-opacity="1" stroke-width="3.2"/>
<circle clip-path="url(#clip522)" cx="396.124" cy="384.327" r="14" fill="#009af9" fill-rule="evenodd" fill-opacity="1" stroke="#000000" stroke-opacity="1" stroke-width="3.2"/>
<circle clip-path="url(#clip522)" cx="408.19" cy="457.656" r="14" fill="#009af9" fill-rule="evenodd" fill-opacity="1" stroke="#000000" stroke-opacity="1" stroke-width="3.2"/>
<circle clip-path="url(#clip522)" cx="420.27" cy="425.493" r="14" fill="#009af9" fill-rule="evenodd" fill-opacity="1" stroke="#000000" stroke-opacity="1" stroke-width="3.2"/>
<circle clip-path="url(#clip522)" cx="432.335" cy="483.548" r="14" fill="#009af9" fill-rule="evenodd" fill-opacity="1" stroke="#000000" stroke-opacity="1" stroke-width="3.2"/>
<circle clip-path="url(#clip522)" cx="445.223" cy="290.511" r="14" fill="#009af9" fill-rule="evenodd" fill-opacity="1" stroke="#000000" stroke-opacity="1" stroke-width="3.2"/>
<circle clip-path="url(#clip522)" cx="458.962" cy="505.164" r="14" fill="#009af9" fill-rule="evenodd" fill-opacity="1" stroke="#000000" stroke-opacity="1" stroke-width="3.2"/>
<circle clip-path="url(#clip522)" cx="472.715" cy="143.717" r="14" fill="#009af9" fill-rule="evenodd" fill-opacity="1" stroke="#000000" stroke-opacity="1" stroke-width="3.2"/>
<circle clip-path="url(#clip522)" cx="486.498" cy="365.042" r="14" fill="#009af9" fill-rule="evenodd" fill-opacity="1" stroke="#000000" stroke-opacity="1" stroke-width="3.2"/>
<circle clip-path="url(#clip522)" cx="500.267" cy="249.027" r="14" fill="#009af9" fill-rule="evenodd" fill-opacity="1" stroke="#000000" stroke-opacity="1" stroke-width="3.2"/>
<circle clip-path="url(#clip522)" cx="514.035" cy="456.054" r="14" fill="#009af9" fill-rule="evenodd" fill-opacity="1" stroke="#000000" stroke-opacity="1" stroke-width="3.2"/>
<circle clip-path="url(#clip522)" cx="527.759" cy="434.041" r="14" fill="#009af9" fill-rule="evenodd" fill-opacity="1" stroke="#000000" stroke-opacity="1" stroke-width="3.2"/>
<circle clip-path="url(#clip522)" cx="541.527" cy="493.757" r="14" fill="#009af9" fill-rule="evenodd" fill-opacity="1" stroke="#000000" stroke-opacity="1" stroke-width="3.2"/>
<circle clip-path="url(#clip522)" cx="555.295" cy="291.797" r="14" fill="#009af9" fill-rule="evenodd" fill-opacity="1" stroke="#000000" stroke-opacity="1" stroke-width="3.2"/>
<circle clip-path="url(#clip522)" cx="569.093" cy="331.608" r="14" fill="#009af9" fill-rule="evenodd" fill-opacity="1" stroke="#000000" stroke-opacity="1" stroke-width="3.2"/>
<circle clip-path="url(#clip522)" cx="582.861" cy="571.349" r="14" fill="#009af9" fill-rule="evenodd" fill-opacity="1" stroke="#000000" stroke-opacity="1" stroke-width="3.2"/>
<circle clip-path="url(#clip522)" cx="596.63" cy="290.817" r="14" fill="#009af9" fill-rule="evenodd" fill-opacity="1" stroke="#000000" stroke-opacity="1" stroke-width="3.2"/>
<circle clip-path="url(#clip522)" cx="610.368" cy="341.774" r="14" fill="#009af9" fill-rule="evenodd" fill-opacity="1" stroke="#000000" stroke-opacity="1" stroke-width="3.2"/>
<circle clip-path="url(#clip522)" cx="624.137" cy="517.005" r="14" fill="#009af9" fill-rule="evenodd" fill-opacity="1" stroke="#000000" stroke-opacity="1" stroke-width="3.2"/>
<circle clip-path="url(#clip522)" cx="637.876" cy="384.123" r="14" fill="#009af9" fill-rule="evenodd" fill-opacity="1" stroke="#000000" stroke-opacity="1" stroke-width="3.2"/>
<circle clip-path="url(#clip522)" cx="651.629" cy="356.798" r="14" fill="#009af9" fill-rule="evenodd" fill-opacity="1" stroke="#000000" stroke-opacity="1" stroke-width="3.2"/>
<circle clip-path="url(#clip522)" cx="665.397" cy="380.048" r="14" fill="#009af9" fill-rule="evenodd" fill-opacity="1" stroke="#000000" stroke-opacity="1" stroke-width="3.2"/>
<circle clip-path="url(#clip522)" cx="679.136" cy="549.598" r="14" fill="#009af9" fill-rule="evenodd" fill-opacity="1" stroke="#000000" stroke-opacity="1" stroke-width="3.2"/>
<circle clip-path="url(#clip522)" cx="692.904" cy="391.948" r="14" fill="#009af9" fill-rule="evenodd" fill-opacity="1" stroke="#000000" stroke-opacity="1" stroke-width="3.2"/>
<circle clip-path="url(#clip522)" cx="706.658" cy="289.852" r="14" fill="#009af9" fill-rule="evenodd" fill-opacity="1" stroke="#000000" stroke-opacity="1" stroke-width="3.2"/>
<circle clip-path="url(#clip522)" cx="720.397" cy="592.555" r="14" fill="#009af9" fill-rule="evenodd" fill-opacity="1" stroke="#000000" stroke-opacity="1" stroke-width="3.2"/>
<circle clip-path="url(#clip522)" cx="734.165" cy="280.206" r="14" fill="#009af9" fill-rule="evenodd" fill-opacity="1" stroke="#000000" stroke-opacity="1" stroke-width="3.2"/>
<circle clip-path="url(#clip522)" cx="747.919" cy="546.634" r="14" fill="#009af9" fill-rule="evenodd" fill-opacity="1" stroke="#000000" stroke-opacity="1" stroke-width="3.2"/>
<circle clip-path="url(#clip522)" cx="761.672" cy="374.941" r="14" fill="#009af9" fill-rule="evenodd" fill-opacity="1" stroke="#000000" stroke-opacity="1" stroke-width="3.2"/>
<circle clip-path="url(#clip522)" cx="775.455" cy="529.281" r="14" fill="#009af9" fill-rule="evenodd" fill-opacity="1" stroke="#000000" stroke-opacity="1" stroke-width="3.2"/>
<circle clip-path="url(#clip522)" cx="789.268" cy="264.731" r="14" fill="#009af9" fill-rule="evenodd" fill-opacity="1" stroke="#000000" stroke-opacity="1" stroke-width="3.2"/>
<circle clip-path="url(#clip522)" cx="803.021" cy="527.631" r="14" fill="#009af9" fill-rule="evenodd" fill-opacity="1" stroke="#000000" stroke-opacity="1" stroke-width="3.2"/>
<circle clip-path="url(#clip522)" cx="816.76" cy="474.023" r="14" fill="#009af9" fill-rule="evenodd" fill-opacity="1" stroke="#000000" stroke-opacity="1" stroke-width="3.2"/>
<circle clip-path="url(#clip522)" cx="830.484" cy="436.743" r="14" fill="#009af9" fill-rule="evenodd" fill-opacity="1" stroke="#000000" stroke-opacity="1" stroke-width="3.2"/>
<circle clip-path="url(#clip522)" cx="844.238" cy="503.883" r="14" fill="#009af9" fill-rule="evenodd" fill-opacity="1" stroke="#000000" stroke-opacity="1" stroke-width="3.2"/>
<circle clip-path="url(#clip522)" cx="857.947" cy="410.736" r="14" fill="#009af9" fill-rule="evenodd" fill-opacity="1" stroke="#000000" stroke-opacity="1" stroke-width="3.2"/>
<circle clip-path="url(#clip522)" cx="871.716" cy="459.479" r="14" fill="#009af9" fill-rule="evenodd" fill-opacity="1" stroke="#000000" stroke-opacity="1" stroke-width="3.2"/>
<circle clip-path="url(#clip522)" cx="885.454" cy="482.715" r="14" fill="#009af9" fill-rule="evenodd" fill-opacity="1" stroke="#000000" stroke-opacity="1" stroke-width="3.2"/>
<circle clip-path="url(#clip522)" cx="899.164" cy="493.218" r="14" fill="#009af9" fill-rule="evenodd" fill-opacity="1" stroke="#000000" stroke-opacity="1" stroke-width="3.2"/>
<circle clip-path="url(#clip522)" cx="912.917" cy="559.589" r="14" fill="#009af9" fill-rule="evenodd" fill-opacity="1" stroke="#000000" stroke-opacity="1" stroke-width="3.2"/>
<circle clip-path="url(#clip522)" cx="926.686" cy="430.999" r="14" fill="#009af9" fill-rule="evenodd" fill-opacity="1" stroke="#000000" stroke-opacity="1" stroke-width="3.2"/>
<circle clip-path="url(#clip522)" cx="940.41" cy="576.635" r="14" fill="#009af9" fill-rule="evenodd" fill-opacity="1" stroke="#000000" stroke-opacity="1" stroke-width="3.2"/>
<circle clip-path="url(#clip522)" cx="954.149" cy="544.899" r="14" fill="#009af9" fill-rule="evenodd" fill-opacity="1" stroke="#000000" stroke-opacity="1" stroke-width="3.2"/>
<circle clip-path="url(#clip522)" cx="968.005" cy="578.8" r="14" fill="#009af9" fill-rule="evenodd" fill-opacity="1" stroke="#000000" stroke-opacity="1" stroke-width="3.2"/>
<circle clip-path="url(#clip522)" cx="981.729" cy="423.752" r="14" fill="#009af9" fill-rule="evenodd" fill-opacity="1" stroke="#000000" stroke-opacity="1" stroke-width="3.2"/>
<circle clip-path="url(#clip522)" cx="995.483" cy="662.175" r="14" fill="#009af9" fill-rule="evenodd" fill-opacity="1" stroke="#000000" stroke-opacity="1" stroke-width="3.2"/>
<circle clip-path="url(#clip522)" cx="1009.19" cy="534.364" r="14" fill="#009af9" fill-rule="evenodd" fill-opacity="1" stroke="#000000" stroke-opacity="1" stroke-width="3.2"/>
<circle clip-path="url(#clip522)" cx="1022.95" cy="302.812" r="14" fill="#009af9" fill-rule="evenodd" fill-opacity="1" stroke="#000000" stroke-opacity="1" stroke-width="3.2"/>
<circle clip-path="url(#clip522)" cx="1036.76" cy="630.172" r="14" fill="#009af9" fill-rule="evenodd" fill-opacity="1" stroke="#000000" stroke-opacity="1" stroke-width="3.2"/>
<circle clip-path="url(#clip522)" cx="1050.47" cy="461.085" r="14" fill="#009af9" fill-rule="evenodd" fill-opacity="1" stroke="#000000" stroke-opacity="1" stroke-width="3.2"/>
<circle clip-path="url(#clip522)" cx="1064.24" cy="465.629" r="14" fill="#009af9" fill-rule="evenodd" fill-opacity="1" stroke="#000000" stroke-opacity="1" stroke-width="3.2"/>
<circle clip-path="url(#clip522)" cx="1077.99" cy="476.306" r="14" fill="#009af9" fill-rule="evenodd" fill-opacity="1" stroke="#000000" stroke-opacity="1" stroke-width="3.2"/>
<circle clip-path="url(#clip522)" cx="1091.74" cy="653.13" r="14" fill="#009af9" fill-rule="evenodd" fill-opacity="1" stroke="#000000" stroke-opacity="1" stroke-width="3.2"/>
<circle clip-path="url(#clip522)" cx="1106.17" cy="414.002" r="14" fill="#009af9" fill-rule="evenodd" fill-opacity="1" stroke="#000000" stroke-opacity="1" stroke-width="3.2"/>
<circle clip-path="url(#clip522)" cx="1120.01" cy="480.336" r="14" fill="#009af9" fill-rule="evenodd" fill-opacity="1" stroke="#000000" stroke-opacity="1" stroke-width="3.2"/>
<circle clip-path="url(#clip522)" cx="1134.52" cy="624.767" r="14" fill="#009af9" fill-rule="evenodd" fill-opacity="1" stroke="#000000" stroke-opacity="1" stroke-width="3.2"/>
<circle clip-path="url(#clip522)" cx="1149.03" cy="295.75" r="14" fill="#009af9" fill-rule="evenodd" fill-opacity="1" stroke="#000000" stroke-opacity="1" stroke-width="3.2"/>
<circle clip-path="url(#clip522)" cx="1163.53" cy="481.729" r="14" fill="#009af9" fill-rule="evenodd" fill-opacity="1" stroke="#000000" stroke-opacity="1" stroke-width="3.2"/>
<circle clip-path="url(#clip522)" cx="1178.07" cy="947.907" r="14" fill="#009af9" fill-rule="evenodd" fill-opacity="1" stroke="#000000" stroke-opacity="1" stroke-width="3.2"/>
<circle clip-path="url(#clip522)" cx="1192.57" cy="73.477" r="14" fill="#009af9" fill-rule="evenodd" fill-opacity="1" stroke="#000000" stroke-opacity="1" stroke-width="3.2"/>
<circle clip-path="url(#clip522)" cx="1207.09" cy="533.351" r="14" fill="#009af9" fill-rule="evenodd" fill-opacity="1" stroke="#000000" stroke-opacity="1" stroke-width="3.2"/>
<circle clip-path="url(#clip522)" cx="1221.59" cy="515.463" r="14" fill="#009af9" fill-rule="evenodd" fill-opacity="1" stroke="#000000" stroke-opacity="1" stroke-width="3.2"/>
<circle clip-path="url(#clip522)" cx="1236.09" cy="654.928" r="14" fill="#009af9" fill-rule="evenodd" fill-opacity="1" stroke="#000000" stroke-opacity="1" stroke-width="3.2"/>
<circle clip-path="url(#clip522)" cx="1250.61" cy="566.381" r="14" fill="#009af9" fill-rule="evenodd" fill-opacity="1" stroke="#000000" stroke-opacity="1" stroke-width="3.2"/>
<circle clip-path="url(#clip522)" cx="1265.14" cy="472.442" r="14" fill="#009af9" fill-rule="evenodd" fill-opacity="1" stroke="#000000" stroke-opacity="1" stroke-width="3.2"/>
<circle clip-path="url(#clip522)" cx="1279.64" cy="589.125" r="14" fill="#009af9" fill-rule="evenodd" fill-opacity="1" stroke="#000000" stroke-opacity="1" stroke-width="3.2"/>
<circle clip-path="url(#clip522)" cx="1294.14" cy="533.469" r="14" fill="#009af9" fill-rule="evenodd" fill-opacity="1" stroke="#000000" stroke-opacity="1" stroke-width="3.2"/>
<circle clip-path="url(#clip522)" cx="1308.66" cy="594.036" r="14" fill="#009af9" fill-rule="evenodd" fill-opacity="1" stroke="#000000" stroke-opacity="1" stroke-width="3.2"/>
<circle clip-path="url(#clip522)" cx="1323.16" cy="505.34" r="14" fill="#009af9" fill-rule="evenodd" fill-opacity="1" stroke="#000000" stroke-opacity="1" stroke-width="3.2"/>
<circle clip-path="url(#clip522)" cx="1337.66" cy="631.827" r="14" fill="#009af9" fill-rule="evenodd" fill-opacity="1" stroke="#000000" stroke-opacity="1" stroke-width="3.2"/>
<circle clip-path="url(#clip522)" cx="1352.17" cy="474.043" r="14" fill="#009af9" fill-rule="evenodd" fill-opacity="1" stroke="#000000" stroke-opacity="1" stroke-width="3.2"/>
<circle clip-path="url(#clip522)" cx="1366.67" cy="579.052" r="14" fill="#009af9" fill-rule="evenodd" fill-opacity="1" stroke="#000000" stroke-opacity="1" stroke-width="3.2"/>
<circle clip-path="url(#clip522)" cx="1381.16" cy="584.596" r="14" fill="#009af9" fill-rule="evenodd" fill-opacity="1" stroke="#000000" stroke-opacity="1" stroke-width="3.2"/>
<circle clip-path="url(#clip522)" cx="1395.76" cy="407.844" r="14" fill="#009af9" fill-rule="evenodd" fill-opacity="1" stroke="#000000" stroke-opacity="1" stroke-width="3.2"/>
<circle clip-path="url(#clip522)" cx="1410.7" cy="548.112" r="14" fill="#009af9" fill-rule="evenodd" fill-opacity="1" stroke="#000000" stroke-opacity="1" stroke-width="3.2"/>
<circle clip-path="url(#clip522)" cx="1425.54" cy="427.364" r="14" fill="#009af9" fill-rule="evenodd" fill-opacity="1" stroke="#000000" stroke-opacity="1" stroke-width="3.2"/>
<circle clip-path="url(#clip522)" cx="1440.44" cy="591.189" r="14" fill="#009af9" fill-rule="evenodd" fill-opacity="1" stroke="#000000" stroke-opacity="1" stroke-width="3.2"/>
<circle clip-path="url(#clip522)" cx="1455.31" cy="533.856" r="14" fill="#009af9" fill-rule="evenodd" fill-opacity="1" stroke="#000000" stroke-opacity="1" stroke-width="3.2"/>
<circle clip-path="url(#clip522)" cx="1470.14" cy="477.175" r="14" fill="#009af9" fill-rule="evenodd" fill-opacity="1" stroke="#000000" stroke-opacity="1" stroke-width="3.2"/>
<circle clip-path="url(#clip522)" cx="1484.99" cy="640.281" r="14" fill="#009af9" fill-rule="evenodd" fill-opacity="1" stroke="#000000" stroke-opacity="1" stroke-width="3.2"/>
<circle clip-path="url(#clip522)" cx="1499.83" cy="471.939" r="14" fill="#009af9" fill-rule="evenodd" fill-opacity="1" stroke="#000000" stroke-opacity="1" stroke-width="3.2"/>
<path clip-path="url(#clip520)" d="
M1169.66 181.821 L1507.88 181.821 L1507.88 78.1406 L1169.66 78.1406  Z
  " fill="#ffffff" fill-rule="evenodd" fill-opacity="1"/>
<polyline clip-path="url(#clip520)" style="stroke:#000000; stroke-linecap:butt; stroke-linejoin:round; stroke-width:4; stroke-opacity:1; fill:none" points="
  1169.66,181.821 1507.88,181.821 1507.88,78.1406 1169.66,78.1406 1169.66,181.821 
  "/>
<circle clip-path="url(#clip520)" cx="1229.5" cy="129.981" r="23" fill="#009af9" fill-rule="evenodd" fill-opacity="1" stroke="#000000" stroke-opacity="1" stroke-width="5.12"/>
<path clip-path="url(#clip520)" d="M1294.01 116.543 L1294.01 143.418 L1299.65 143.418 Q1306.81 143.418 1310.12 140.177 Q1313.45 136.937 1313.45 129.946 Q1313.45 123.001 1310.12 119.784 Q1306.81 116.543 1299.65 116.543 L1294.01 116.543 M1289.33 112.701 L1298.94 112.701 Q1308.98 112.701 1313.68 116.89 Q1318.38 121.057 1318.38 129.946 Q1318.38 138.881 1313.66 143.071 Q1308.94 147.261 1298.94 147.261 L1289.33 147.261 L1289.33 112.701 Z" fill="#000000" fill-rule="evenodd" fill-opacity="1" /><path clip-path="url(#clip520)" d="M1325.65 121.335 L1329.91 121.335 L1329.91 147.261 L1325.65 147.261 L1325.65 121.335 M1325.65 111.242 L1329.91 111.242 L1329.91 116.636 L1325.65 116.636 L1325.65 111.242 Z" fill="#000000" fill-rule="evenodd" fill-opacity="1" /><path clip-path="url(#clip520)" d="M1355.35 122.099 L1355.35 126.126 Q1353.54 125.201 1351.6 124.738 Q1349.65 124.275 1347.57 124.275 Q1344.4 124.275 1342.8 125.247 Q1341.23 126.219 1341.23 128.163 Q1341.23 129.645 1342.36 130.501 Q1343.5 131.335 1346.92 132.099 L1348.38 132.423 Q1352.92 133.395 1354.82 135.177 Q1356.74 136.937 1356.74 140.108 Q1356.74 143.719 1353.87 145.825 Q1351.02 147.932 1346.02 147.932 Q1343.94 147.932 1341.67 147.515 Q1339.42 147.122 1336.92 146.312 L1336.92 141.913 Q1339.28 143.14 1341.58 143.765 Q1343.87 144.367 1346.11 144.367 Q1349.12 144.367 1350.74 143.349 Q1352.36 142.307 1352.36 140.432 Q1352.36 138.696 1351.18 137.77 Q1350.02 136.844 1346.07 135.988 L1344.58 135.64 Q1340.63 134.807 1338.87 133.094 Q1337.11 131.358 1337.11 128.349 Q1337.11 124.691 1339.7 122.701 Q1342.29 120.71 1347.06 120.71 Q1349.42 120.71 1351.51 121.057 Q1353.59 121.404 1355.35 122.099 Z" fill="#000000" fill-rule="evenodd" fill-opacity="1" /><path clip-path="url(#clip520)" d="M1382.18 122.33 L1382.18 126.312 Q1380.37 125.316 1378.54 124.83 Q1376.74 124.321 1374.89 124.321 Q1370.74 124.321 1368.45 126.96 Q1366.16 129.576 1366.16 134.321 Q1366.16 139.066 1368.45 141.705 Q1370.74 144.321 1374.89 144.321 Q1376.74 144.321 1378.54 143.835 Q1380.37 143.325 1382.18 142.33 L1382.18 146.265 Q1380.39 147.099 1378.47 147.515 Q1376.58 147.932 1374.42 147.932 Q1368.57 147.932 1365.12 144.251 Q1361.67 140.571 1361.67 134.321 Q1361.67 127.978 1365.14 124.344 Q1368.64 120.71 1374.7 120.71 Q1376.67 120.71 1378.54 121.127 Q1380.42 121.52 1382.18 122.33 Z" fill="#000000" fill-rule="evenodd" fill-opacity="1" /><path clip-path="url(#clip520)" d="M1404.61 125.316 Q1403.89 124.9 1403.03 124.714 Q1402.2 124.506 1401.18 124.506 Q1397.57 124.506 1395.63 126.867 Q1393.71 129.205 1393.71 133.603 L1393.71 147.261 L1389.42 147.261 L1389.42 121.335 L1393.71 121.335 L1393.71 125.363 Q1395.05 123.001 1397.2 121.867 Q1399.35 120.71 1402.43 120.71 Q1402.87 120.71 1403.4 120.779 Q1403.94 120.826 1404.58 120.941 L1404.61 125.316 Z" fill="#000000" fill-rule="evenodd" fill-opacity="1" /><path clip-path="url(#clip520)" d="M1430.21 133.233 L1430.21 135.316 L1410.63 135.316 Q1410.9 139.714 1413.27 142.029 Q1415.65 144.321 1419.89 144.321 Q1422.34 144.321 1424.63 143.719 Q1426.95 143.117 1429.21 141.913 L1429.21 145.941 Q1426.92 146.913 1424.52 147.423 Q1422.11 147.932 1419.63 147.932 Q1413.43 147.932 1409.79 144.321 Q1406.18 140.71 1406.18 134.552 Q1406.18 128.187 1409.61 124.46 Q1413.06 120.71 1418.89 120.71 Q1424.12 120.71 1427.15 124.089 Q1430.21 127.446 1430.21 133.233 M1425.95 131.983 Q1425.9 128.488 1423.98 126.404 Q1422.08 124.321 1418.94 124.321 Q1415.37 124.321 1413.22 126.335 Q1411.09 128.349 1410.77 132.006 L1425.95 131.983 Z" fill="#000000" fill-rule="evenodd" fill-opacity="1" /><path clip-path="url(#clip520)" d="M1441.41 113.974 L1441.41 121.335 L1450.19 121.335 L1450.19 124.645 L1441.41 124.645 L1441.41 138.719 Q1441.41 141.89 1442.27 142.793 Q1443.15 143.696 1445.81 143.696 L1450.19 143.696 L1450.19 147.261 L1445.81 147.261 Q1440.88 147.261 1439.01 145.432 Q1437.13 143.58 1437.13 138.719 L1437.13 124.645 L1434.01 124.645 L1434.01 121.335 L1437.13 121.335 L1437.13 113.974 L1441.41 113.974 Z" fill="#000000" fill-rule="evenodd" fill-opacity="1" /><path clip-path="url(#clip520)" d="M1477.96 133.233 L1477.96 135.316 L1458.38 135.316 Q1458.66 139.714 1461.02 142.029 Q1463.4 144.321 1467.64 144.321 Q1470.09 144.321 1472.39 143.719 Q1474.7 143.117 1476.97 141.913 L1476.97 145.941 Q1474.68 146.913 1472.27 147.423 Q1469.86 147.932 1467.39 147.932 Q1461.18 147.932 1457.55 144.321 Q1453.94 140.71 1453.94 134.552 Q1453.94 128.187 1457.36 124.46 Q1460.81 120.71 1466.64 120.71 Q1471.88 120.71 1474.91 124.089 Q1477.96 127.446 1477.96 133.233 M1473.7 131.983 Q1473.66 128.488 1471.74 126.404 Q1469.84 124.321 1466.69 124.321 Q1463.13 124.321 1460.97 126.335 Q1458.84 128.349 1458.52 132.006 L1473.7 131.983 Z" fill="#000000" fill-rule="evenodd" fill-opacity="1" /><path clip-path="url(#clip520)" d="
M206.498 2174.14 L1552.76 2174.14 L1552.76 1247.24 L206.498 1247.24  Z
  " fill="#ffffff" fill-rule="evenodd" fill-opacity="1"/>
<defs>
  <clipPath id="clip523">
    <rect x="206" y="1247" width="1347" height="928"/>
  </clipPath>
</defs>
<polyline clip-path="url(#clip523)" style="stroke:#000000; stroke-linecap:butt; stroke-linejoin:round; stroke-width:2; stroke-opacity:0.1; fill:none" points="
  247.565,2174.14 247.565,1247.24 
  "/>
<polyline clip-path="url(#clip523)" style="stroke:#000000; stroke-linecap:butt; stroke-linejoin:round; stroke-width:2; stroke-opacity:0.1; fill:none" points="
  646.321,2174.14 646.321,1247.24 
  "/>
<polyline clip-path="url(#clip523)" style="stroke:#000000; stroke-linecap:butt; stroke-linejoin:round; stroke-width:2; stroke-opacity:0.1; fill:none" points="
  1045.08,2174.14 1045.08,1247.24 
  "/>
<polyline clip-path="url(#clip523)" style="stroke:#000000; stroke-linecap:butt; stroke-linejoin:round; stroke-width:2; stroke-opacity:0.1; fill:none" points="
  1443.83,2174.14 1443.83,1247.24 
  "/>
<polyline clip-path="url(#clip520)" style="stroke:#000000; stroke-linecap:butt; stroke-linejoin:round; stroke-width:4; stroke-opacity:1; fill:none" points="
  206.498,2174.14 1552.76,2174.14 
  "/>
<polyline clip-path="url(#clip520)" style="stroke:#000000; stroke-linecap:butt; stroke-linejoin:round; stroke-width:4; stroke-opacity:1; fill:none" points="
  247.565,2174.14 247.565,2155.24 
  "/>
<polyline clip-path="url(#clip520)" style="stroke:#000000; stroke-linecap:butt; stroke-linejoin:round; stroke-width:4; stroke-opacity:1; fill:none" points="
  646.321,2174.14 646.321,2155.24 
  "/>
<polyline clip-path="url(#clip520)" style="stroke:#000000; stroke-linecap:butt; stroke-linejoin:round; stroke-width:4; stroke-opacity:1; fill:none" points="
  1045.08,2174.14 1045.08,2155.24 
  "/>
<polyline clip-path="url(#clip520)" style="stroke:#000000; stroke-linecap:butt; stroke-linejoin:round; stroke-width:4; stroke-opacity:1; fill:none" points="
  1443.83,2174.14 1443.83,2155.24 
  "/>
<path clip-path="url(#clip520)" d="M247.565 2205.06 Q243.954 2205.06 242.125 2208.62 Q240.319 2212.16 240.319 2219.29 Q240.319 2226.4 242.125 2229.97 Q243.954 2233.51 247.565 2233.51 Q251.199 2233.51 253.005 2229.97 Q254.833 2226.4 254.833 2219.29 Q254.833 2212.16 253.005 2208.62 Q251.199 2205.06 247.565 2205.06 M247.565 2201.35 Q253.375 2201.35 256.431 2205.96 Q259.509 2210.54 259.509 2219.29 Q259.509 2228.02 256.431 2232.63 Q253.375 2237.21 247.565 2237.21 Q241.755 2237.21 238.676 2232.63 Q235.62 2228.02 235.62 2219.29 Q235.62 2210.54 238.676 2205.96 Q241.755 2201.35 247.565 2201.35 Z" fill="#000000" fill-rule="evenodd" fill-opacity="1" /><path clip-path="url(#clip520)" d="M621.02 2201.98 L639.376 2201.98 L639.376 2205.92 L625.302 2205.92 L625.302 2214.39 Q626.321 2214.04 627.339 2213.88 Q628.358 2213.69 629.376 2213.69 Q635.163 2213.69 638.543 2216.86 Q641.923 2220.04 641.923 2225.45 Q641.923 2231.03 638.45 2234.13 Q634.978 2237.21 628.659 2237.21 Q626.483 2237.21 624.214 2236.84 Q621.969 2236.47 619.562 2235.73 L619.562 2231.03 Q621.645 2232.16 623.867 2232.72 Q626.089 2233.28 628.566 2233.28 Q632.571 2233.28 634.909 2231.17 Q637.247 2229.06 637.247 2225.45 Q637.247 2221.84 634.909 2219.73 Q632.571 2217.63 628.566 2217.63 Q626.691 2217.63 624.816 2218.04 Q622.964 2218.46 621.02 2219.34 L621.02 2201.98 Z" fill="#000000" fill-rule="evenodd" fill-opacity="1" /><path clip-path="url(#clip520)" d="M661.136 2205.06 Q657.524 2205.06 655.696 2208.62 Q653.89 2212.16 653.89 2219.29 Q653.89 2226.4 655.696 2229.97 Q657.524 2233.51 661.136 2233.51 Q664.77 2233.51 666.575 2229.97 Q668.404 2226.4 668.404 2219.29 Q668.404 2212.16 666.575 2208.62 Q664.77 2205.06 661.136 2205.06 M661.136 2201.35 Q666.946 2201.35 670.001 2205.96 Q673.08 2210.54 673.08 2219.29 Q673.08 2228.02 670.001 2232.63 Q666.946 2237.21 661.136 2237.21 Q655.325 2237.21 652.247 2232.63 Q649.191 2228.02 649.191 2219.29 Q649.191 2210.54 652.247 2205.96 Q655.325 2201.35 661.136 2201.35 Z" fill="#000000" fill-rule="evenodd" fill-opacity="1" /><path clip-path="url(#clip520)" d="M1004.68 2232.6 L1012.32 2232.6 L1012.32 2206.24 L1004.01 2207.91 L1004.01 2203.65 L1012.28 2201.98 L1016.95 2201.98 L1016.95 2232.6 L1024.59 2232.6 L1024.59 2236.54 L1004.68 2236.54 L1004.68 2232.6 Z" fill="#000000" fill-rule="evenodd" fill-opacity="1" /><path clip-path="url(#clip520)" d="M1044.04 2205.06 Q1040.42 2205.06 1038.6 2208.62 Q1036.79 2212.16 1036.79 2219.29 Q1036.79 2226.4 1038.6 2229.97 Q1040.42 2233.51 1044.04 2233.51 Q1047.67 2233.51 1049.47 2229.97 Q1051.3 2226.4 1051.3 2219.29 Q1051.3 2212.16 1049.47 2208.62 Q1047.67 2205.06 1044.04 2205.06 M1044.04 2201.35 Q1049.85 2201.35 1052.9 2205.96 Q1055.98 2210.54 1055.98 2219.29 Q1055.98 2228.02 1052.9 2232.63 Q1049.85 2237.21 1044.04 2237.21 Q1038.22 2237.21 1035.15 2232.63 Q1032.09 2228.02 1032.09 2219.29 Q1032.09 2210.54 1035.15 2205.96 Q1038.22 2201.35 1044.04 2201.35 Z" fill="#000000" fill-rule="evenodd" fill-opacity="1" /><path clip-path="url(#clip520)" d="M1074.2 2205.06 Q1070.59 2205.06 1068.76 2208.62 Q1066.95 2212.16 1066.95 2219.29 Q1066.95 2226.4 1068.76 2229.97 Q1070.59 2233.51 1074.2 2233.51 Q1077.83 2233.51 1079.64 2229.97 Q1081.47 2226.4 1081.47 2219.29 Q1081.47 2212.16 1079.64 2208.62 Q1077.83 2205.06 1074.2 2205.06 M1074.2 2201.35 Q1080.01 2201.35 1083.06 2205.96 Q1086.14 2210.54 1086.14 2219.29 Q1086.14 2228.02 1083.06 2232.63 Q1080.01 2237.21 1074.2 2237.21 Q1068.39 2237.21 1065.31 2232.63 Q1062.25 2228.02 1062.25 2219.29 Q1062.25 2210.54 1065.31 2205.96 Q1068.39 2201.35 1074.2 2201.35 Z" fill="#000000" fill-rule="evenodd" fill-opacity="1" /><path clip-path="url(#clip520)" d="M1403.44 2232.6 L1411.08 2232.6 L1411.08 2206.24 L1402.77 2207.91 L1402.77 2203.65 L1411.03 2201.98 L1415.71 2201.98 L1415.71 2232.6 L1423.35 2232.6 L1423.35 2236.54 L1403.44 2236.54 L1403.44 2232.6 Z" fill="#000000" fill-rule="evenodd" fill-opacity="1" /><path clip-path="url(#clip520)" d="M1432.84 2201.98 L1451.19 2201.98 L1451.19 2205.92 L1437.12 2205.92 L1437.12 2214.39 Q1438.14 2214.04 1439.16 2213.88 Q1440.18 2213.69 1441.19 2213.69 Q1446.98 2213.69 1450.36 2216.86 Q1453.74 2220.04 1453.74 2225.45 Q1453.74 2231.03 1450.27 2234.13 Q1446.8 2237.21 1440.48 2237.21 Q1438.3 2237.21 1436.03 2236.84 Q1433.79 2236.47 1431.38 2235.73 L1431.38 2231.03 Q1433.46 2232.16 1435.68 2232.72 Q1437.91 2233.28 1440.38 2233.28 Q1444.39 2233.28 1446.73 2231.17 Q1449.06 2229.06 1449.06 2225.45 Q1449.06 2221.84 1446.73 2219.73 Q1444.39 2217.63 1440.38 2217.63 Q1438.51 2217.63 1436.63 2218.04 Q1434.78 2218.46 1432.84 2219.34 L1432.84 2201.98 Z" fill="#000000" fill-rule="evenodd" fill-opacity="1" /><path clip-path="url(#clip520)" d="M1472.95 2205.06 Q1469.34 2205.06 1467.51 2208.62 Q1465.71 2212.16 1465.71 2219.29 Q1465.71 2226.4 1467.51 2229.97 Q1469.34 2233.51 1472.95 2233.51 Q1476.59 2233.51 1478.39 2229.97 Q1480.22 2226.4 1480.22 2219.29 Q1480.22 2212.16 1478.39 2208.62 Q1476.59 2205.06 1472.95 2205.06 M1472.95 2201.35 Q1478.76 2201.35 1481.82 2205.96 Q1484.9 2210.54 1484.9 2219.29 Q1484.9 2228.02 1481.82 2232.63 Q1478.76 2237.21 1472.95 2237.21 Q1467.14 2237.21 1464.06 2232.63 Q1461.01 2228.02 1461.01 2219.29 Q1461.01 2210.54 1464.06 2205.96 Q1467.14 2201.35 1472.95 2201.35 Z" fill="#000000" fill-rule="evenodd" fill-opacity="1" /><path clip-path="url(#clip520)" d="M689.611 2271.48 L696.04 2271.48 L696.04 2290.96 L719.402 2290.96 L719.402 2271.48 L725.832 2271.48 L725.832 2319 L719.402 2319 L719.402 2296.37 L696.04 2296.37 L696.04 2319 L689.611 2319 L689.611 2271.48 Z" fill="#000000" fill-rule="evenodd" fill-opacity="1" /><path clip-path="url(#clip520)" d="M768.864 2299.72 L768.864 2302.58 L741.937 2302.58 Q742.319 2308.63 745.565 2311.81 Q748.844 2314.96 754.668 2314.96 Q758.042 2314.96 761.193 2314.13 Q764.376 2313.31 767.495 2311.65 L767.495 2317.19 Q764.344 2318.53 761.034 2319.23 Q757.724 2319.93 754.318 2319.93 Q745.788 2319.93 740.791 2314.96 Q735.826 2310 735.826 2301.53 Q735.826 2292.78 740.536 2287.65 Q745.279 2282.5 753.3 2282.5 Q760.493 2282.5 764.662 2287.14 Q768.864 2291.76 768.864 2299.72 M763.007 2298 Q762.944 2293.19 760.302 2290.33 Q757.692 2287.46 753.363 2287.46 Q748.462 2287.46 745.502 2290.23 Q742.573 2293 742.128 2298.03 L763.007 2298 Z" fill="#000000" fill-rule="evenodd" fill-opacity="1" /><path clip-path="url(#clip520)" d="M778.476 2283.36 L784.332 2283.36 L784.332 2319 L778.476 2319 L778.476 2283.36 M778.476 2269.48 L784.332 2269.48 L784.332 2276.89 L778.476 2276.89 L778.476 2269.48 Z" fill="#000000" fill-rule="evenodd" fill-opacity="1" /><path clip-path="url(#clip520)" d="M820.044 2300.77 Q820.044 2294.4 817.402 2290.9 Q814.792 2287.4 810.05 2287.4 Q805.339 2287.4 802.698 2290.9 Q800.088 2294.4 800.088 2300.77 Q800.088 2307.1 802.698 2310.6 Q805.339 2314.1 810.05 2314.1 Q814.792 2314.1 817.402 2310.6 Q820.044 2307.1 820.044 2300.77 M825.901 2314.58 Q825.901 2323.68 821.858 2328.11 Q817.816 2332.56 809.477 2332.56 Q806.39 2332.56 803.652 2332.09 Q800.915 2331.64 798.337 2330.68 L798.337 2324.99 Q800.915 2326.39 803.43 2327.06 Q805.944 2327.72 808.554 2327.72 Q814.315 2327.72 817.18 2324.7 Q820.044 2321.71 820.044 2315.63 L820.044 2312.73 Q818.23 2315.88 815.397 2317.44 Q812.564 2319 808.618 2319 Q802.061 2319 798.051 2314.01 Q794.04 2309.01 794.04 2300.77 Q794.04 2292.49 798.051 2287.49 Q802.061 2282.5 808.618 2282.5 Q812.564 2282.5 815.397 2284.06 Q818.23 2285.62 820.044 2288.77 L820.044 2283.36 L825.901 2283.36 L825.901 2314.58 Z" fill="#000000" fill-rule="evenodd" fill-opacity="1" /><path clip-path="url(#clip520)" d="M867.596 2297.49 L867.596 2319 L861.739 2319 L861.739 2297.68 Q861.739 2292.62 859.766 2290.1 Q857.793 2287.59 853.846 2287.59 Q849.104 2287.59 846.366 2290.61 Q843.629 2293.64 843.629 2298.86 L843.629 2319 L837.741 2319 L837.741 2269.48 L843.629 2269.48 L843.629 2288.89 Q845.73 2285.68 848.562 2284.09 Q851.427 2282.5 855.151 2282.5 Q861.294 2282.5 864.445 2286.32 Q867.596 2290.1 867.596 2297.49 Z" fill="#000000" fill-rule="evenodd" fill-opacity="1" /><path clip-path="url(#clip520)" d="M885.07 2273.23 L885.07 2283.36 L897.133 2283.36 L897.133 2287.91 L885.07 2287.91 L885.07 2307.26 Q885.07 2311.62 886.247 2312.86 Q887.457 2314.1 891.117 2314.1 L897.133 2314.1 L897.133 2319 L891.117 2319 Q884.338 2319 881.76 2316.49 Q879.182 2313.94 879.182 2307.26 L879.182 2287.91 L874.885 2287.91 L874.885 2283.36 L879.182 2283.36 L879.182 2273.23 L885.07 2273.23 Z" fill="#000000" fill-rule="evenodd" fill-opacity="1" /><path clip-path="url(#clip520)" d="M925.015 2269.48 L938.51 2269.48 L938.51 2274.03 L930.871 2274.03 L930.871 2323.05 L938.51 2323.05 L938.51 2327.6 L925.015 2327.6 L925.015 2269.48 Z" fill="#000000" fill-rule="evenodd" fill-opacity="1" /><path clip-path="url(#clip520)" d="M950.382 2332.56 L950.382 2283.36 L956.238 2283.36 L956.238 2305.51 Q956.238 2310.12 958.435 2312.48 Q960.631 2314.83 964.928 2314.83 Q969.638 2314.83 971.994 2312.16 Q974.381 2309.49 974.381 2304.14 L974.381 2283.36 L980.237 2283.36 L980.237 2310.79 Q980.237 2312.7 980.778 2313.62 Q981.351 2314.52 982.529 2314.52 Q982.815 2314.52 983.324 2314.36 Q983.834 2314.17 984.725 2313.78 L984.725 2318.49 Q983.42 2319.23 982.242 2319.58 Q981.096 2319.93 979.982 2319.93 Q977.786 2319.93 976.481 2318.69 Q975.176 2317.44 974.699 2314.9 Q973.108 2317.41 970.784 2318.69 Q968.492 2319.93 965.373 2319.93 Q962.127 2319.93 959.835 2318.69 Q957.575 2317.44 956.238 2314.96 L956.238 2332.56 L950.382 2332.56 Z" fill="#000000" fill-rule="evenodd" fill-opacity="1" /><path clip-path="url(#clip520)" d="M1020.21 2290.2 Q1022.41 2286.25 1025.47 2284.37 Q1028.52 2282.5 1032.66 2282.5 Q1038.23 2282.5 1041.25 2286.41 Q1044.28 2290.29 1044.28 2297.49 L1044.28 2319 L1038.39 2319 L1038.39 2297.68 Q1038.39 2292.55 1036.57 2290.07 Q1034.76 2287.59 1031.04 2287.59 Q1026.48 2287.59 1023.84 2290.61 Q1021.2 2293.64 1021.2 2298.86 L1021.2 2319 L1015.31 2319 L1015.31 2297.68 Q1015.31 2292.52 1013.5 2290.07 Q1011.68 2287.59 1007.9 2287.59 Q1003.41 2287.59 1000.77 2290.64 Q998.125 2293.67 998.125 2298.86 L998.125 2319 L992.236 2319 L992.236 2283.36 L998.125 2283.36 L998.125 2288.89 Q1000.13 2285.62 1002.93 2284.06 Q1005.73 2282.5 1009.58 2282.5 Q1013.47 2282.5 1016.17 2284.47 Q1018.91 2286.44 1020.21 2290.2 Z" fill="#000000" fill-rule="evenodd" fill-opacity="1" /><path clip-path="url(#clip520)" d="M1069.64 2269.48 L1069.64 2327.6 L1056.15 2327.6 L1056.15 2323.05 L1063.76 2323.05 L1063.76 2274.03 L1056.15 2274.03 L1056.15 2269.48 L1069.64 2269.48 Z" fill="#000000" fill-rule="evenodd" fill-opacity="1" /><polyline clip-path="url(#clip523)" style="stroke:#000000; stroke-linecap:butt; stroke-linejoin:round; stroke-width:2; stroke-opacity:0.1; fill:none" points="
  206.498,1996.09 1552.76,1996.09 
  "/>
<polyline clip-path="url(#clip523)" style="stroke:#000000; stroke-linecap:butt; stroke-linejoin:round; stroke-width:2; stroke-opacity:0.1; fill:none" points="
  206.498,1805.7 1552.76,1805.7 
  "/>
<polyline clip-path="url(#clip523)" style="stroke:#000000; stroke-linecap:butt; stroke-linejoin:round; stroke-width:2; stroke-opacity:0.1; fill:none" points="
  206.498,1615.31 1552.76,1615.31 
  "/>
<polyline clip-path="url(#clip523)" style="stroke:#000000; stroke-linecap:butt; stroke-linejoin:round; stroke-width:2; stroke-opacity:0.1; fill:none" points="
  206.498,1424.93 1552.76,1424.93 
  "/>
<polyline clip-path="url(#clip520)" style="stroke:#000000; stroke-linecap:butt; stroke-linejoin:round; stroke-width:4; stroke-opacity:1; fill:none" points="
  206.498,2174.14 206.498,1247.24 
  "/>
<polyline clip-path="url(#clip520)" style="stroke:#000000; stroke-linecap:butt; stroke-linejoin:round; stroke-width:4; stroke-opacity:1; fill:none" points="
  206.498,1996.09 225.396,1996.09 
  "/>
<polyline clip-path="url(#clip520)" style="stroke:#000000; stroke-linecap:butt; stroke-linejoin:round; stroke-width:4; stroke-opacity:1; fill:none" points="
  206.498,1805.7 225.396,1805.7 
  "/>
<polyline clip-path="url(#clip520)" style="stroke:#000000; stroke-linecap:butt; stroke-linejoin:round; stroke-width:4; stroke-opacity:1; fill:none" points="
  206.498,1615.31 225.396,1615.31 
  "/>
<polyline clip-path="url(#clip520)" style="stroke:#000000; stroke-linecap:butt; stroke-linejoin:round; stroke-width:4; stroke-opacity:1; fill:none" points="
  206.498,1424.93 225.396,1424.93 
  "/>
<path clip-path="url(#clip520)" d="M109.781 1996.54 L139.457 1996.54 L139.457 2000.47 L109.781 2000.47 L109.781 1996.54 Z" fill="#000000" fill-rule="evenodd" fill-opacity="1" /><path clip-path="url(#clip520)" d="M149.596 1978.81 L167.952 1978.81 L167.952 1982.74 L153.878 1982.74 L153.878 1991.21 Q154.897 1990.87 155.915 1990.71 Q156.934 1990.52 157.952 1990.52 Q163.739 1990.52 167.119 1993.69 Q170.498 1996.86 170.498 2002.28 Q170.498 2007.86 167.026 2010.96 Q163.554 2014.04 157.235 2014.04 Q155.059 2014.04 152.79 2013.67 Q150.545 2013.3 148.137 2012.56 L148.137 2007.86 Q150.221 2008.99 152.443 2009.55 Q154.665 2010.1 157.142 2010.1 Q161.147 2010.1 163.484 2008 Q165.822 2005.89 165.822 2002.28 Q165.822 1998.67 163.484 1996.56 Q161.147 1994.46 157.142 1994.46 Q155.267 1994.46 153.392 1994.87 Q151.54 1995.29 149.596 1996.17 L149.596 1978.81 Z" fill="#000000" fill-rule="evenodd" fill-opacity="1" /><path clip-path="url(#clip520)" d="M158.554 1791.5 Q154.943 1791.5 153.114 1795.06 Q151.309 1798.61 151.309 1805.74 Q151.309 1812.84 153.114 1816.41 Q154.943 1819.95 158.554 1819.95 Q162.188 1819.95 163.994 1816.41 Q165.822 1812.84 165.822 1805.74 Q165.822 1798.61 163.994 1795.06 Q162.188 1791.5 158.554 1791.5 M158.554 1787.8 Q164.364 1787.8 167.42 1792.4 Q170.498 1796.99 170.498 1805.74 Q170.498 1814.46 167.42 1819.07 Q164.364 1823.65 158.554 1823.65 Q152.744 1823.65 149.665 1819.07 Q146.61 1814.46 146.61 1805.74 Q146.61 1796.99 149.665 1792.4 Q152.744 1787.8 158.554 1787.8 Z" fill="#000000" fill-rule="evenodd" fill-opacity="1" /><path clip-path="url(#clip520)" d="M149.596 1598.03 L167.952 1598.03 L167.952 1601.97 L153.878 1601.97 L153.878 1610.44 Q154.897 1610.1 155.915 1609.93 Q156.934 1609.75 157.952 1609.75 Q163.739 1609.75 167.119 1612.92 Q170.498 1616.09 170.498 1621.51 Q170.498 1627.09 167.026 1630.19 Q163.554 1633.27 157.235 1633.27 Q155.059 1633.27 152.79 1632.9 Q150.545 1632.53 148.137 1631.78 L148.137 1627.09 Q150.221 1628.22 152.443 1628.78 Q154.665 1629.33 157.142 1629.33 Q161.147 1629.33 163.484 1627.22 Q165.822 1625.12 165.822 1621.51 Q165.822 1617.9 163.484 1615.79 Q161.147 1613.68 157.142 1613.68 Q155.267 1613.68 153.392 1614.1 Q151.54 1614.52 149.596 1615.4 L149.596 1598.03 Z" fill="#000000" fill-rule="evenodd" fill-opacity="1" /><path clip-path="url(#clip520)" d="M119.202 1438.27 L126.841 1438.27 L126.841 1411.91 L118.531 1413.57 L118.531 1409.32 L126.795 1407.65 L131.471 1407.65 L131.471 1438.27 L139.11 1438.27 L139.11 1442.21 L119.202 1442.21 L119.202 1438.27 Z" fill="#000000" fill-rule="evenodd" fill-opacity="1" /><path clip-path="url(#clip520)" d="M158.554 1410.73 Q154.943 1410.73 153.114 1414.29 Q151.309 1417.83 151.309 1424.96 Q151.309 1432.07 153.114 1435.63 Q154.943 1439.18 158.554 1439.18 Q162.188 1439.18 163.994 1435.63 Q165.822 1432.07 165.822 1424.96 Q165.822 1417.83 163.994 1414.29 Q162.188 1410.73 158.554 1410.73 M158.554 1407.02 Q164.364 1407.02 167.42 1411.63 Q170.498 1416.21 170.498 1424.96 Q170.498 1433.69 167.42 1438.3 Q164.364 1442.88 158.554 1442.88 Q152.744 1442.88 149.665 1438.3 Q146.61 1433.69 146.61 1424.96 Q146.61 1416.21 149.665 1411.63 Q152.744 1407.02 158.554 1407.02 Z" fill="#000000" fill-rule="evenodd" fill-opacity="1" /><path clip-path="url(#clip520)" d="M18.3389 1946.18 L54.1779 1959.23 L54.1779 1933.09 L18.3389 1946.18 M59.5251 1967.95 L12.0051 1949.8 L12.0051 1942.52 L59.5251 1924.4 L59.5251 1967.95 Z" fill="#000000" fill-rule="evenodd" fill-opacity="1" /><path clip-path="url(#clip520)" d="M12.0051 1896.75 L12.0051 1890.32 L31.4841 1890.32 L31.4841 1866.95 L12.0051 1866.95 L12.0051 1860.52 L59.5251 1860.52 L59.5251 1866.95 L36.895 1866.95 L36.895 1890.32 L59.5251 1890.32 L59.5251 1896.75 L12.0051 1896.75 Z" fill="#000000" fill-rule="evenodd" fill-opacity="1" /><path clip-path="url(#clip520)" d="M40.237 1817.49 L43.1015 1817.49 L43.1015 1844.42 Q49.149 1844.04 52.3318 1840.79 Q55.4828 1837.51 55.4828 1831.69 Q55.4828 1828.31 54.6553 1825.16 Q53.8278 1821.98 52.1727 1818.86 L57.7108 1818.86 Q59.0476 1822.01 59.7479 1825.32 Q60.4481 1828.63 60.4481 1832.04 Q60.4481 1840.57 55.4828 1845.57 Q50.5176 1850.53 42.0512 1850.53 Q33.2984 1850.53 28.174 1845.82 Q23.0177 1841.08 23.0177 1833.06 Q23.0177 1825.86 27.6647 1821.69 Q32.2798 1817.49 40.237 1817.49 M38.5182 1823.35 Q33.7121 1823.41 30.8476 1826.05 Q27.983 1828.66 27.983 1832.99 Q27.983 1837.89 30.7521 1840.85 Q33.5212 1843.78 38.5501 1844.23 L38.5182 1823.35 Z" fill="#000000" fill-rule="evenodd" fill-opacity="1" /><path clip-path="url(#clip520)" d="M23.8771 1807.88 L23.8771 1802.02 L59.5251 1802.02 L59.5251 1807.88 L23.8771 1807.88 M9.99987 1807.88 L9.99987 1802.02 L17.4159 1802.02 L17.4159 1807.88 L9.99987 1807.88 Z" fill="#000000" fill-rule="evenodd" fill-opacity="1" /><path clip-path="url(#clip520)" d="M41.2873 1766.31 Q34.9216 1766.31 31.4205 1768.95 Q27.9193 1771.56 27.9193 1776.31 Q27.9193 1781.02 31.4205 1783.66 Q34.9216 1786.27 41.2873 1786.27 Q47.6212 1786.27 51.1223 1783.66 Q54.6235 1781.02 54.6235 1776.31 Q54.6235 1771.56 51.1223 1768.95 Q47.6212 1766.31 41.2873 1766.31 M55.1009 1760.46 Q64.2039 1760.46 68.628 1764.5 Q73.084 1768.54 73.084 1776.88 Q73.084 1779.97 72.6066 1782.7 Q72.161 1785.44 71.2061 1788.02 L65.5088 1788.02 Q66.9093 1785.44 67.5777 1782.93 Q68.2461 1780.41 68.2461 1777.8 Q68.2461 1772.04 65.2224 1769.18 Q62.2305 1766.31 56.1512 1766.31 L53.2548 1766.31 Q56.4059 1768.13 57.9655 1770.96 Q59.5251 1773.79 59.5251 1777.74 Q59.5251 1784.3 54.528 1788.31 Q49.5309 1792.32 41.2873 1792.32 Q33.0119 1792.32 28.0148 1788.31 Q23.0177 1784.3 23.0177 1777.74 Q23.0177 1773.79 24.5773 1770.96 Q26.1369 1768.13 29.288 1766.31 L23.8771 1766.31 L23.8771 1760.46 L55.1009 1760.46 Z" fill="#000000" fill-rule="evenodd" fill-opacity="1" /><path clip-path="url(#clip520)" d="M38.009 1718.76 L59.5251 1718.76 L59.5251 1724.62 L38.2 1724.62 Q33.1392 1724.62 30.6248 1726.59 Q28.1103 1728.56 28.1103 1732.51 Q28.1103 1737.25 31.134 1739.99 Q34.1577 1742.73 39.3776 1742.73 L59.5251 1742.73 L59.5251 1748.62 L9.99987 1748.62 L9.99987 1742.73 L29.4153 1742.73 Q26.2006 1740.63 24.6092 1737.79 Q23.0177 1734.93 23.0177 1731.21 Q23.0177 1725.06 26.8372 1721.91 Q30.6248 1718.76 38.009 1718.76 Z" fill="#000000" fill-rule="evenodd" fill-opacity="1" /><path clip-path="url(#clip520)" d="M13.7556 1701.29 L23.8771 1701.29 L23.8771 1689.22 L28.4286 1689.22 L28.4286 1701.29 L47.7803 1701.29 Q52.1408 1701.29 53.3822 1700.11 Q54.6235 1698.9 54.6235 1695.24 L54.6235 1689.22 L59.5251 1689.22 L59.5251 1695.24 Q59.5251 1702.02 57.0106 1704.6 Q54.4643 1707.17 47.7803 1707.17 L28.4286 1707.17 L28.4286 1711.47 L23.8771 1711.47 L23.8771 1707.17 L13.7556 1707.17 L13.7556 1701.29 Z" fill="#000000" fill-rule="evenodd" fill-opacity="1" /><path clip-path="url(#clip520)" d="M9.99987 1661.34 L9.99987 1647.85 L14.5514 1647.85 L14.5514 1655.49 L63.5673 1655.49 L63.5673 1647.85 L68.1188 1647.85 L68.1188 1661.34 L9.99987 1661.34 Z" fill="#000000" fill-rule="evenodd" fill-opacity="1" /><path clip-path="url(#clip520)" d="M73.084 1635.97 L23.8771 1635.97 L23.8771 1630.12 L46.0298 1630.12 Q50.6449 1630.12 53.0002 1627.92 Q55.3555 1625.73 55.3555 1621.43 Q55.3555 1616.72 52.6819 1614.36 Q50.0083 1611.98 44.6611 1611.98 L23.8771 1611.98 L23.8771 1606.12 L51.3133 1606.12 Q53.223 1606.12 54.146 1605.58 Q55.0372 1605.01 55.0372 1603.83 Q55.0372 1603.54 54.8781 1603.03 Q54.6871 1602.52 54.3052 1601.63 L59.0158 1601.63 Q59.7479 1602.94 60.098 1604.11 Q60.4481 1605.26 60.4481 1606.37 Q60.4481 1608.57 59.2068 1609.88 Q57.9655 1611.18 55.4192 1611.66 Q57.9336 1613.25 59.2068 1615.57 Q60.4481 1617.86 60.4481 1620.98 Q60.4481 1624.23 59.2068 1626.52 Q57.9655 1628.78 55.4828 1630.12 L73.084 1630.12 L73.084 1635.97 Z" fill="#000000" fill-rule="evenodd" fill-opacity="1" /><path clip-path="url(#clip520)" d="M30.7202 1566.14 Q26.7735 1563.95 24.8956 1560.89 Q23.0177 1557.84 23.0177 1553.7 Q23.0177 1548.13 26.9327 1545.1 Q30.8157 1542.08 38.009 1542.08 L59.5251 1542.08 L59.5251 1547.97 L38.2 1547.97 Q33.0756 1547.97 30.5929 1549.78 Q28.1103 1551.6 28.1103 1555.32 Q28.1103 1559.87 31.134 1562.51 Q34.1577 1565.16 39.3776 1565.16 L59.5251 1565.16 L59.5251 1571.04 L38.2 1571.04 Q33.0437 1571.04 30.5929 1572.86 Q28.1103 1574.67 28.1103 1578.46 Q28.1103 1582.95 31.1658 1585.59 Q34.1896 1588.23 39.3776 1588.23 L59.5251 1588.23 L59.5251 1594.12 L23.8771 1594.12 L23.8771 1588.23 L29.4153 1588.23 Q26.1369 1586.23 24.5773 1583.43 Q23.0177 1580.62 23.0177 1576.77 Q23.0177 1572.89 24.9911 1570.18 Q26.9645 1567.45 30.7202 1566.14 Z" fill="#000000" fill-rule="evenodd" fill-opacity="1" /><path clip-path="url(#clip520)" d="M12.0051 1519.99 L12.0051 1514.58 L65.5725 1531.13 L65.5725 1536.54 L12.0051 1519.99 Z" fill="#000000" fill-rule="evenodd" fill-opacity="1" /><path clip-path="url(#clip520)" d="M38.009 1478.81 L59.5251 1478.81 L59.5251 1484.66 L38.2 1484.66 Q33.1392 1484.66 30.6248 1486.64 Q28.1103 1488.61 28.1103 1492.56 Q28.1103 1497.3 31.134 1500.03 Q34.1577 1502.77 39.3776 1502.77 L59.5251 1502.77 L59.5251 1508.66 L9.99987 1508.66 L9.99987 1502.77 L29.4153 1502.77 Q26.2006 1500.67 24.6092 1497.84 Q23.0177 1494.97 23.0177 1491.25 Q23.0177 1485.11 26.8372 1481.96 Q30.6248 1478.81 38.009 1478.81 Z" fill="#000000" fill-rule="evenodd" fill-opacity="1" /><path clip-path="url(#clip520)" d="M9.99987 1453.44 L68.1188 1453.44 L68.1188 1466.93 L63.5673 1466.93 L63.5673 1459.33 L14.5514 1459.33 L14.5514 1466.93 L9.99987 1466.93 L9.99987 1453.44 Z" fill="#000000" fill-rule="evenodd" fill-opacity="1" /><circle clip-path="url(#clip523)" cx="258.517" cy="1756.92" r="14" fill="#009af9" fill-rule="evenodd" fill-opacity="1" stroke="#000000" stroke-opacity="1" stroke-width="3.2"/>
<circle clip-path="url(#clip523)" cx="260.618" cy="1857.94" r="14" fill="#009af9" fill-rule="evenodd" fill-opacity="1" stroke="#000000" stroke-opacity="1" stroke-width="3.2"/>
<circle clip-path="url(#clip523)" cx="258.369" cy="1909.65" r="14" fill="#009af9" fill-rule="evenodd" fill-opacity="1" stroke="#000000" stroke-opacity="1" stroke-width="3.2"/>
<circle clip-path="url(#clip523)" cx="253.893" cy="1648.12" r="14" fill="#009af9" fill-rule="evenodd" fill-opacity="1" stroke="#000000" stroke-opacity="1" stroke-width="3.2"/>
<circle clip-path="url(#clip523)" cx="260.678" cy="1979.02" r="14" fill="#009af9" fill-rule="evenodd" fill-opacity="1" stroke="#000000" stroke-opacity="1" stroke-width="3.2"/>
<circle clip-path="url(#clip523)" cx="253.216" cy="2005.83" r="14" fill="#009af9" fill-rule="evenodd" fill-opacity="1" stroke="#000000" stroke-opacity="1" stroke-width="3.2"/>
<circle clip-path="url(#clip523)" cx="244.6" cy="1519.75" r="14" fill="#009af9" fill-rule="evenodd" fill-opacity="1" stroke="#000000" stroke-opacity="1" stroke-width="3.2"/>
<circle clip-path="url(#clip523)" cx="257.011" cy="1819.81" r="14" fill="#009af9" fill-rule="evenodd" fill-opacity="1" stroke="#000000" stroke-opacity="1" stroke-width="3.2"/>
<circle clip-path="url(#clip523)" cx="256.403" cy="1683.9" r="14" fill="#009af9" fill-rule="evenodd" fill-opacity="1" stroke="#000000" stroke-opacity="1" stroke-width="3.2"/>
<circle clip-path="url(#clip523)" cx="261.647" cy="1978.76" r="14" fill="#009af9" fill-rule="evenodd" fill-opacity="1" stroke="#000000" stroke-opacity="1" stroke-width="3.2"/>
<circle clip-path="url(#clip523)" cx="254.197" cy="1661.59" r="14" fill="#009af9" fill-rule="evenodd" fill-opacity="1" stroke="#000000" stroke-opacity="1" stroke-width="3.2"/>
<circle clip-path="url(#clip523)" cx="260.401" cy="1730.12" r="14" fill="#009af9" fill-rule="evenodd" fill-opacity="1" stroke="#000000" stroke-opacity="1" stroke-width="3.2"/>
<circle clip-path="url(#clip523)" cx="263.655" cy="1980.64" r="14" fill="#009af9" fill-rule="evenodd" fill-opacity="1" stroke="#000000" stroke-opacity="1" stroke-width="3.2"/>
<circle clip-path="url(#clip523)" cx="256.083" cy="1694.62" r="14" fill="#009af9" fill-rule="evenodd" fill-opacity="1" stroke="#000000" stroke-opacity="1" stroke-width="3.2"/>
<circle clip-path="url(#clip523)" cx="263.269" cy="1741.38" r="14" fill="#009af9" fill-rule="evenodd" fill-opacity="1" stroke="#000000" stroke-opacity="1" stroke-width="3.2"/>
<circle clip-path="url(#clip523)" cx="269.376" cy="1772.1" r="14" fill="#009af9" fill-rule="evenodd" fill-opacity="1" stroke="#000000" stroke-opacity="1" stroke-width="3.2"/>
<circle clip-path="url(#clip523)" cx="272.586" cy="1621.57" r="14" fill="#009af9" fill-rule="evenodd" fill-opacity="1" stroke="#000000" stroke-opacity="1" stroke-width="3.2"/>
<circle clip-path="url(#clip523)" cx="290.669" cy="1660.39" r="14" fill="#009af9" fill-rule="evenodd" fill-opacity="1" stroke="#000000" stroke-opacity="1" stroke-width="3.2"/>
<circle clip-path="url(#clip523)" cx="304.585" cy="1624.42" r="14" fill="#009af9" fill-rule="evenodd" fill-opacity="1" stroke="#000000" stroke-opacity="1" stroke-width="3.2"/>
<circle clip-path="url(#clip523)" cx="322.029" cy="1657.33" r="14" fill="#009af9" fill-rule="evenodd" fill-opacity="1" stroke="#000000" stroke-opacity="1" stroke-width="3.2"/>
<circle clip-path="url(#clip523)" cx="336.203" cy="1584.33" r="14" fill="#009af9" fill-rule="evenodd" fill-opacity="1" stroke="#000000" stroke-opacity="1" stroke-width="3.2"/>
<circle clip-path="url(#clip523)" cx="357.377" cy="1657.66" r="14" fill="#009af9" fill-rule="evenodd" fill-opacity="1" stroke="#000000" stroke-opacity="1" stroke-width="3.2"/>
<circle clip-path="url(#clip523)" cx="371.554" cy="1625.49" r="14" fill="#009af9" fill-rule="evenodd" fill-opacity="1" stroke="#000000" stroke-opacity="1" stroke-width="3.2"/>
<circle clip-path="url(#clip523)" cx="388.79" cy="1683.55" r="14" fill="#009af9" fill-rule="evenodd" fill-opacity="1" stroke="#000000" stroke-opacity="1" stroke-width="3.2"/>
<circle clip-path="url(#clip523)" cx="401.27" cy="1490.51" r="14" fill="#009af9" fill-rule="evenodd" fill-opacity="1" stroke="#000000" stroke-opacity="1" stroke-width="3.2"/>
<circle clip-path="url(#clip523)" cx="435.598" cy="1705.16" r="14" fill="#009af9" fill-rule="evenodd" fill-opacity="1" stroke="#000000" stroke-opacity="1" stroke-width="3.2"/>
<circle clip-path="url(#clip523)" cx="446.559" cy="1343.72" r="14" fill="#009af9" fill-rule="evenodd" fill-opacity="1" stroke="#000000" stroke-opacity="1" stroke-width="3.2"/>
<circle clip-path="url(#clip523)" cx="497.036" cy="1565.04" r="14" fill="#009af9" fill-rule="evenodd" fill-opacity="1" stroke="#000000" stroke-opacity="1" stroke-width="3.2"/>
<circle clip-path="url(#clip523)" cx="523.303" cy="1449.03" r="14" fill="#009af9" fill-rule="evenodd" fill-opacity="1" stroke="#000000" stroke-opacity="1" stroke-width="3.2"/>
<circle clip-path="url(#clip523)" cx="562.232" cy="1656.05" r="14" fill="#009af9" fill-rule="evenodd" fill-opacity="1" stroke="#000000" stroke-opacity="1" stroke-width="3.2"/>
<circle clip-path="url(#clip523)" cx="578.512" cy="1634.04" r="14" fill="#009af9" fill-rule="evenodd" fill-opacity="1" stroke="#000000" stroke-opacity="1" stroke-width="3.2"/>
<circle clip-path="url(#clip523)" cx="597.248" cy="1693.76" r="14" fill="#009af9" fill-rule="evenodd" fill-opacity="1" stroke="#000000" stroke-opacity="1" stroke-width="3.2"/>
<circle clip-path="url(#clip523)" cx="609.466" cy="1491.8" r="14" fill="#009af9" fill-rule="evenodd" fill-opacity="1" stroke="#000000" stroke-opacity="1" stroke-width="3.2"/>
<circle clip-path="url(#clip523)" cx="643.8" cy="1531.61" r="14" fill="#009af9" fill-rule="evenodd" fill-opacity="1" stroke="#000000" stroke-opacity="1" stroke-width="3.2"/>
<circle clip-path="url(#clip523)" cx="673.716" cy="1771.35" r="14" fill="#009af9" fill-rule="evenodd" fill-opacity="1" stroke="#000000" stroke-opacity="1" stroke-width="3.2"/>
<circle clip-path="url(#clip523)" cx="677.465" cy="1490.82" r="14" fill="#009af9" fill-rule="evenodd" fill-opacity="1" stroke="#000000" stroke-opacity="1" stroke-width="3.2"/>
<circle clip-path="url(#clip523)" cx="711.76" cy="1541.77" r="14" fill="#009af9" fill-rule="evenodd" fill-opacity="1" stroke="#000000" stroke-opacity="1" stroke-width="3.2"/>
<circle clip-path="url(#clip523)" cx="740.566" cy="1717" r="14" fill="#009af9" fill-rule="evenodd" fill-opacity="1" stroke="#000000" stroke-opacity="1" stroke-width="3.2"/>
<circle clip-path="url(#clip523)" cx="750.226" cy="1584.12" r="14" fill="#009af9" fill-rule="evenodd" fill-opacity="1" stroke="#000000" stroke-opacity="1" stroke-width="3.2"/>
<circle clip-path="url(#clip523)" cx="774.385" cy="1556.8" r="14" fill="#009af9" fill-rule="evenodd" fill-opacity="1" stroke="#000000" stroke-opacity="1" stroke-width="3.2"/>
<circle clip-path="url(#clip523)" cx="801.551" cy="1580.05" r="14" fill="#009af9" fill-rule="evenodd" fill-opacity="1" stroke="#000000" stroke-opacity="1" stroke-width="3.2"/>
<circle clip-path="url(#clip523)" cx="826.127" cy="1749.6" r="14" fill="#009af9" fill-rule="evenodd" fill-opacity="1" stroke="#000000" stroke-opacity="1" stroke-width="3.2"/>
<circle clip-path="url(#clip523)" cx="832.25" cy="1591.95" r="14" fill="#009af9" fill-rule="evenodd" fill-opacity="1" stroke="#000000" stroke-opacity="1" stroke-width="3.2"/>
<circle clip-path="url(#clip523)" cx="855.556" cy="1489.85" r="14" fill="#009af9" fill-rule="evenodd" fill-opacity="1" stroke="#000000" stroke-opacity="1" stroke-width="3.2"/>
<circle clip-path="url(#clip523)" cx="889.955" cy="1792.55" r="14" fill="#009af9" fill-rule="evenodd" fill-opacity="1" stroke="#000000" stroke-opacity="1" stroke-width="3.2"/>
<circle clip-path="url(#clip523)" cx="891.39" cy="1480.21" r="14" fill="#009af9" fill-rule="evenodd" fill-opacity="1" stroke="#000000" stroke-opacity="1" stroke-width="3.2"/>
<circle clip-path="url(#clip523)" cx="926.878" cy="1746.63" r="14" fill="#009af9" fill-rule="evenodd" fill-opacity="1" stroke="#000000" stroke-opacity="1" stroke-width="3.2"/>
<circle clip-path="url(#clip523)" cx="933.318" cy="1574.94" r="14" fill="#009af9" fill-rule="evenodd" fill-opacity="1" stroke="#000000" stroke-opacity="1" stroke-width="3.2"/>
<circle clip-path="url(#clip523)" cx="958.531" cy="1729.28" r="14" fill="#009af9" fill-rule="evenodd" fill-opacity="1" stroke="#000000" stroke-opacity="1" stroke-width="3.2"/>
<circle clip-path="url(#clip523)" cx="966.899" cy="1464.73" r="14" fill="#009af9" fill-rule="evenodd" fill-opacity="1" stroke="#000000" stroke-opacity="1" stroke-width="3.2"/>
<circle clip-path="url(#clip523)" cx="1004.07" cy="1727.63" r="14" fill="#009af9" fill-rule="evenodd" fill-opacity="1" stroke="#000000" stroke-opacity="1" stroke-width="3.2"/>
<circle clip-path="url(#clip523)" cx="1012.58" cy="1674.02" r="14" fill="#009af9" fill-rule="evenodd" fill-opacity="1" stroke="#000000" stroke-opacity="1" stroke-width="3.2"/>
<circle clip-path="url(#clip523)" cx="1026.9" cy="1636.74" r="14" fill="#009af9" fill-rule="evenodd" fill-opacity="1" stroke="#000000" stroke-opacity="1" stroke-width="3.2"/>
<circle clip-path="url(#clip523)" cx="1045.32" cy="1703.88" r="14" fill="#009af9" fill-rule="evenodd" fill-opacity="1" stroke="#000000" stroke-opacity="1" stroke-width="3.2"/>
<circle clip-path="url(#clip523)" cx="1056.39" cy="1610.74" r="14" fill="#009af9" fill-rule="evenodd" fill-opacity="1" stroke="#000000" stroke-opacity="1" stroke-width="3.2"/>
<circle clip-path="url(#clip523)" cx="1077.67" cy="1659.48" r="14" fill="#009af9" fill-rule="evenodd" fill-opacity="1" stroke="#000000" stroke-opacity="1" stroke-width="3.2"/>
<circle clip-path="url(#clip523)" cx="1093.59" cy="1682.71" r="14" fill="#009af9" fill-rule="evenodd" fill-opacity="1" stroke="#000000" stroke-opacity="1" stroke-width="3.2"/>
<circle clip-path="url(#clip523)" cx="1106.96" cy="1693.22" r="14" fill="#009af9" fill-rule="evenodd" fill-opacity="1" stroke="#000000" stroke-opacity="1" stroke-width="3.2"/>
<circle clip-path="url(#clip523)" cx="1119.22" cy="1759.59" r="14" fill="#009af9" fill-rule="evenodd" fill-opacity="1" stroke="#000000" stroke-opacity="1" stroke-width="3.2"/>
<circle clip-path="url(#clip523)" cx="1124.26" cy="1631" r="14" fill="#009af9" fill-rule="evenodd" fill-opacity="1" stroke="#000000" stroke-opacity="1" stroke-width="3.2"/>
<circle clip-path="url(#clip523)" cx="1143.26" cy="1776.63" r="14" fill="#009af9" fill-rule="evenodd" fill-opacity="1" stroke="#000000" stroke-opacity="1" stroke-width="3.2"/>
<circle clip-path="url(#clip523)" cx="1146.43" cy="1744.9" r="14" fill="#009af9" fill-rule="evenodd" fill-opacity="1" stroke="#000000" stroke-opacity="1" stroke-width="3.2"/>
<circle clip-path="url(#clip523)" cx="1153.11" cy="1778.8" r="14" fill="#009af9" fill-rule="evenodd" fill-opacity="1" stroke="#000000" stroke-opacity="1" stroke-width="3.2"/>
<circle clip-path="url(#clip523)" cx="1156.04" cy="1623.75" r="14" fill="#009af9" fill-rule="evenodd" fill-opacity="1" stroke="#000000" stroke-opacity="1" stroke-width="3.2"/>
<circle clip-path="url(#clip523)" cx="1175.87" cy="1862.18" r="14" fill="#009af9" fill-rule="evenodd" fill-opacity="1" stroke="#000000" stroke-opacity="1" stroke-width="3.2"/>
<circle clip-path="url(#clip523)" cx="1169.74" cy="1734.36" r="14" fill="#009af9" fill-rule="evenodd" fill-opacity="1" stroke="#000000" stroke-opacity="1" stroke-width="3.2"/>
<circle clip-path="url(#clip523)" cx="1177.51" cy="1502.81" r="14" fill="#009af9" fill-rule="evenodd" fill-opacity="1" stroke="#000000" stroke-opacity="1" stroke-width="3.2"/>
<circle clip-path="url(#clip523)" cx="1210.68" cy="1830.17" r="14" fill="#009af9" fill-rule="evenodd" fill-opacity="1" stroke="#000000" stroke-opacity="1" stroke-width="3.2"/>
<circle clip-path="url(#clip523)" cx="1208.02" cy="1661.08" r="14" fill="#009af9" fill-rule="evenodd" fill-opacity="1" stroke="#000000" stroke-opacity="1" stroke-width="3.2"/>
<circle clip-path="url(#clip523)" cx="1223.8" cy="1665.63" r="14" fill="#009af9" fill-rule="evenodd" fill-opacity="1" stroke="#000000" stroke-opacity="1" stroke-width="3.2"/>
<circle clip-path="url(#clip523)" cx="1239.07" cy="1676.31" r="14" fill="#009af9" fill-rule="evenodd" fill-opacity="1" stroke="#000000" stroke-opacity="1" stroke-width="3.2"/>
<circle clip-path="url(#clip523)" cx="1253.18" cy="1853.13" r="14" fill="#009af9" fill-rule="evenodd" fill-opacity="1" stroke="#000000" stroke-opacity="1" stroke-width="3.2"/>
<circle clip-path="url(#clip523)" cx="1247.76" cy="1614" r="14" fill="#009af9" fill-rule="evenodd" fill-opacity="1" stroke="#000000" stroke-opacity="1" stroke-width="3.2"/>
<circle clip-path="url(#clip523)" cx="1268.79" cy="1680.34" r="14" fill="#009af9" fill-rule="evenodd" fill-opacity="1" stroke="#000000" stroke-opacity="1" stroke-width="3.2"/>
<circle clip-path="url(#clip523)" cx="1283.2" cy="1824.77" r="14" fill="#009af9" fill-rule="evenodd" fill-opacity="1" stroke="#000000" stroke-opacity="1" stroke-width="3.2"/>
<circle clip-path="url(#clip523)" cx="1281.01" cy="1495.75" r="14" fill="#009af9" fill-rule="evenodd" fill-opacity="1" stroke="#000000" stroke-opacity="1" stroke-width="3.2"/>
<circle clip-path="url(#clip523)" cx="1316.64" cy="1681.73" r="14" fill="#009af9" fill-rule="evenodd" fill-opacity="1" stroke="#000000" stroke-opacity="1" stroke-width="3.2"/>
<circle clip-path="url(#clip523)" cx="1330.92" cy="2147.91" r="14" fill="#009af9" fill-rule="evenodd" fill-opacity="1" stroke="#000000" stroke-opacity="1" stroke-width="3.2"/>
<circle clip-path="url(#clip523)" cx="1291.58" cy="1273.48" r="14" fill="#009af9" fill-rule="evenodd" fill-opacity="1" stroke="#000000" stroke-opacity="1" stroke-width="3.2"/>
<circle clip-path="url(#clip523)" cx="1352.83" cy="1733.35" r="14" fill="#009af9" fill-rule="evenodd" fill-opacity="1" stroke="#000000" stroke-opacity="1" stroke-width="3.2"/>
<circle clip-path="url(#clip523)" cx="1361.15" cy="1715.46" r="14" fill="#009af9" fill-rule="evenodd" fill-opacity="1" stroke="#000000" stroke-opacity="1" stroke-width="3.2"/>
<circle clip-path="url(#clip523)" cx="1371.52" cy="1854.93" r="14" fill="#009af9" fill-rule="evenodd" fill-opacity="1" stroke="#000000" stroke-opacity="1" stroke-width="3.2"/>
<circle clip-path="url(#clip523)" cx="1365.86" cy="1766.38" r="14" fill="#009af9" fill-rule="evenodd" fill-opacity="1" stroke="#000000" stroke-opacity="1" stroke-width="3.2"/>
<circle clip-path="url(#clip523)" cx="1370.39" cy="1672.44" r="14" fill="#009af9" fill-rule="evenodd" fill-opacity="1" stroke="#000000" stroke-opacity="1" stroke-width="3.2"/>
<circle clip-path="url(#clip523)" cx="1385.71" cy="1789.13" r="14" fill="#009af9" fill-rule="evenodd" fill-opacity="1" stroke="#000000" stroke-opacity="1" stroke-width="3.2"/>
<circle clip-path="url(#clip523)" cx="1387.61" cy="1733.47" r="14" fill="#009af9" fill-rule="evenodd" fill-opacity="1" stroke="#000000" stroke-opacity="1" stroke-width="3.2"/>
<circle clip-path="url(#clip523)" cx="1395.92" cy="1794.04" r="14" fill="#009af9" fill-rule="evenodd" fill-opacity="1" stroke="#000000" stroke-opacity="1" stroke-width="3.2"/>
<circle clip-path="url(#clip523)" cx="1397.27" cy="1705.34" r="14" fill="#009af9" fill-rule="evenodd" fill-opacity="1" stroke="#000000" stroke-opacity="1" stroke-width="3.2"/>
<circle clip-path="url(#clip523)" cx="1408.8" cy="1831.83" r="14" fill="#009af9" fill-rule="evenodd" fill-opacity="1" stroke="#000000" stroke-opacity="1" stroke-width="3.2"/>
<circle clip-path="url(#clip523)" cx="1405.8" cy="1674.04" r="14" fill="#009af9" fill-rule="evenodd" fill-opacity="1" stroke="#000000" stroke-opacity="1" stroke-width="3.2"/>
<circle clip-path="url(#clip523)" cx="1420.94" cy="1779.05" r="14" fill="#009af9" fill-rule="evenodd" fill-opacity="1" stroke="#000000" stroke-opacity="1" stroke-width="3.2"/>
<circle clip-path="url(#clip523)" cx="1424" cy="1784.6" r="14" fill="#009af9" fill-rule="evenodd" fill-opacity="1" stroke="#000000" stroke-opacity="1" stroke-width="3.2"/>
<circle clip-path="url(#clip523)" cx="1426.44" cy="1607.84" r="14" fill="#009af9" fill-rule="evenodd" fill-opacity="1" stroke="#000000" stroke-opacity="1" stroke-width="3.2"/>
<circle clip-path="url(#clip523)" cx="1449.88" cy="1748.11" r="14" fill="#009af9" fill-rule="evenodd" fill-opacity="1" stroke="#000000" stroke-opacity="1" stroke-width="3.2"/>
<circle clip-path="url(#clip523)" cx="1456.65" cy="1627.36" r="14" fill="#009af9" fill-rule="evenodd" fill-opacity="1" stroke="#000000" stroke-opacity="1" stroke-width="3.2"/>
<circle clip-path="url(#clip523)" cx="1477.71" cy="1791.19" r="14" fill="#009af9" fill-rule="evenodd" fill-opacity="1" stroke="#000000" stroke-opacity="1" stroke-width="3.2"/>
<circle clip-path="url(#clip523)" cx="1479.42" cy="1733.86" r="14" fill="#009af9" fill-rule="evenodd" fill-opacity="1" stroke="#000000" stroke-opacity="1" stroke-width="3.2"/>
<circle clip-path="url(#clip523)" cx="1487.87" cy="1677.17" r="14" fill="#009af9" fill-rule="evenodd" fill-opacity="1" stroke="#000000" stroke-opacity="1" stroke-width="3.2"/>
<circle clip-path="url(#clip523)" cx="1503" cy="1840.28" r="14" fill="#009af9" fill-rule="evenodd" fill-opacity="1" stroke="#000000" stroke-opacity="1" stroke-width="3.2"/>
<circle clip-path="url(#clip523)" cx="1498.93" cy="1671.94" r="14" fill="#009af9" fill-rule="evenodd" fill-opacity="1" stroke="#000000" stroke-opacity="1" stroke-width="3.2"/>
</svg>
