<?xml version="1.0" encoding="utf-8"?>
<svg xmlns="http://www.w3.org/2000/svg" xmlns:xlink="http://www.w3.org/1999/xlink" width="400" height="600" viewBox="0 0 1600 2400">
<defs>
  <clipPath id="clip240">
    <rect x="0" y="0" width="1600" height="2400"/>
  </clipPath>
</defs>
<path clip-path="url(#clip240)" d="
M0 2400 L1600 2400 L1600 0 L0 0  Z
  " fill="#ffffff" fill-rule="evenodd" fill-opacity="1"/>
<defs>
  <clipPath id="clip241">
    <rect x="480" y="240" width="1600" height="1681"/>
  </clipPath>
</defs>
<path clip-path="url(#clip240)" d="
M200.665 974.14 L1552.76 974.14 L1552.76 47.2441 L200.665 47.2441  Z
  " fill="#ffffff" fill-rule="evenodd" fill-opacity="1"/>
<defs>
  <clipPath id="clip242">
    <rect x="200" y="47" width="1353" height="928"/>
  </clipPath>
</defs>
<polyline clip-path="url(#clip242)" style="stroke:#000000; stroke-linecap:butt; stroke-linejoin:round; stroke-width:2; stroke-opacity:0.1; fill:none" points="
  227.794,974.14 227.794,47.2441 
  "/>
<polyline clip-path="url(#clip242)" style="stroke:#000000; stroke-linecap:butt; stroke-linejoin:round; stroke-width:2; stroke-opacity:0.1; fill:none" points="
  495.092,974.14 495.092,47.2441 
  "/>
<polyline clip-path="url(#clip242)" style="stroke:#000000; stroke-linecap:butt; stroke-linejoin:round; stroke-width:2; stroke-opacity:0.1; fill:none" points="
  762.389,974.14 762.389,47.2441 
  "/>
<polyline clip-path="url(#clip242)" style="stroke:#000000; stroke-linecap:butt; stroke-linejoin:round; stroke-width:2; stroke-opacity:0.1; fill:none" points="
  1029.69,974.14 1029.69,47.2441 
  "/>
<polyline clip-path="url(#clip242)" style="stroke:#000000; stroke-linecap:butt; stroke-linejoin:round; stroke-width:2; stroke-opacity:0.1; fill:none" points="
  1296.98,974.14 1296.98,47.2441 
  "/>
<polyline clip-path="url(#clip240)" style="stroke:#000000; stroke-linecap:butt; stroke-linejoin:round; stroke-width:4; stroke-opacity:1; fill:none" points="
  200.665,974.14 1552.76,974.14 
  "/>
<polyline clip-path="url(#clip240)" style="stroke:#000000; stroke-linecap:butt; stroke-linejoin:round; stroke-width:4; stroke-opacity:1; fill:none" points="
  227.794,974.14 227.794,955.242 
  "/>
<polyline clip-path="url(#clip240)" style="stroke:#000000; stroke-linecap:butt; stroke-linejoin:round; stroke-width:4; stroke-opacity:1; fill:none" points="
  495.092,974.14 495.092,955.242 
  "/>
<polyline clip-path="url(#clip240)" style="stroke:#000000; stroke-linecap:butt; stroke-linejoin:round; stroke-width:4; stroke-opacity:1; fill:none" points="
  762.389,974.14 762.389,955.242 
  "/>
<polyline clip-path="url(#clip240)" style="stroke:#000000; stroke-linecap:butt; stroke-linejoin:round; stroke-width:4; stroke-opacity:1; fill:none" points="
  1029.69,974.14 1029.69,955.242 
  "/>
<polyline clip-path="url(#clip240)" style="stroke:#000000; stroke-linecap:butt; stroke-linejoin:round; stroke-width:4; stroke-opacity:1; fill:none" points="
  1296.98,974.14 1296.98,955.242 
  "/>
<path clip-path="url(#clip240)" d="M227.794 1005.06 Q224.183 1005.06 222.355 1008.62 Q220.549 1012.16 220.549 1019.29 Q220.549 1026.4 222.355 1029.97 Q224.183 1033.51 227.794 1033.51 Q231.429 1033.51 233.234 1029.97 Q235.063 1026.4 235.063 1019.29 Q235.063 1012.16 233.234 1008.62 Q231.429 1005.06 227.794 1005.06 M227.794 1001.35 Q233.605 1001.35 236.66 1005.96 Q239.739 1010.54 239.739 1019.29 Q239.739 1028.02 236.66 1032.63 Q233.605 1037.21 227.794 1037.21 Q221.984 1037.21 218.906 1032.63 Q215.85 1028.02 215.85 1019.29 Q215.85 1010.54 218.906 1005.96 Q221.984 1001.35 227.794 1001.35 Z" fill="#000000" fill-rule="evenodd" fill-opacity="1" /><path clip-path="url(#clip240)" d="M469.779 1032.6 L477.418 1032.6 L477.418 1006.24 L469.108 1007.91 L469.108 1003.65 L477.372 1001.98 L482.048 1001.98 L482.048 1032.6 L489.687 1032.6 L489.687 1036.54 L469.779 1036.54 L469.779 1032.6 Z" fill="#000000" fill-rule="evenodd" fill-opacity="1" /><path clip-path="url(#clip240)" d="M509.131 1005.06 Q505.52 1005.06 503.691 1008.62 Q501.886 1012.16 501.886 1019.29 Q501.886 1026.4 503.691 1029.97 Q505.52 1033.51 509.131 1033.51 Q512.765 1033.51 514.571 1029.97 Q516.399 1026.4 516.399 1019.29 Q516.399 1012.16 514.571 1008.62 Q512.765 1005.06 509.131 1005.06 M509.131 1001.35 Q514.941 1001.35 517.997 1005.96 Q521.075 1010.54 521.075 1019.29 Q521.075 1028.02 517.997 1032.63 Q514.941 1037.21 509.131 1037.21 Q503.321 1037.21 500.242 1032.63 Q497.187 1028.02 497.187 1019.29 Q497.187 1010.54 500.242 1005.96 Q503.321 1001.35 509.131 1001.35 Z" fill="#000000" fill-rule="evenodd" fill-opacity="1" /><path clip-path="url(#clip240)" d="M741.162 1032.6 L757.482 1032.6 L757.482 1036.54 L735.537 1036.54 L735.537 1032.6 Q738.199 1029.85 742.783 1025.22 Q747.389 1020.57 748.57 1019.23 Q750.815 1016.7 751.695 1014.97 Q752.597 1013.21 752.597 1011.52 Q752.597 1008.76 750.653 1007.03 Q748.732 1005.29 745.63 1005.29 Q743.431 1005.29 740.977 1006.05 Q738.546 1006.82 735.769 1008.37 L735.769 1003.65 Q738.593 1002.51 741.046 1001.93 Q743.5 1001.35 745.537 1001.35 Q750.907 1001.35 754.102 1004.04 Q757.296 1006.73 757.296 1011.22 Q757.296 1013.35 756.486 1015.27 Q755.699 1017.16 753.593 1019.76 Q753.014 1020.43 749.912 1023.65 Q746.81 1026.84 741.162 1032.6 Z" fill="#000000" fill-rule="evenodd" fill-opacity="1" /><path clip-path="url(#clip240)" d="M777.296 1005.06 Q773.685 1005.06 771.856 1008.62 Q770.051 1012.16 770.051 1019.29 Q770.051 1026.4 771.856 1029.97 Q773.685 1033.51 777.296 1033.51 Q780.93 1033.51 782.736 1029.97 Q784.565 1026.4 784.565 1019.29 Q784.565 1012.16 782.736 1008.62 Q780.93 1005.06 777.296 1005.06 M777.296 1001.35 Q783.106 1001.35 786.162 1005.96 Q789.241 1010.54 789.241 1019.29 Q789.241 1028.02 786.162 1032.63 Q783.106 1037.21 777.296 1037.21 Q771.486 1037.21 768.407 1032.63 Q765.352 1028.02 765.352 1019.29 Q765.352 1010.54 768.407 1005.96 Q771.486 1001.35 777.296 1001.35 Z" fill="#000000" fill-rule="evenodd" fill-opacity="1" /><path clip-path="url(#clip240)" d="M1018.53 1017.91 Q1021.89 1018.62 1023.76 1020.89 Q1025.66 1023.16 1025.66 1026.49 Q1025.66 1031.61 1022.14 1034.41 Q1018.62 1037.21 1012.14 1037.21 Q1009.96 1037.21 1007.65 1036.77 Q1005.36 1036.35 1002.9 1035.5 L1002.9 1030.98 Q1004.85 1032.12 1007.16 1032.7 Q1009.48 1033.28 1012 1033.28 Q1016.4 1033.28 1018.69 1031.54 Q1021.01 1029.8 1021.01 1026.49 Q1021.01 1023.44 1018.85 1021.73 Q1016.72 1019.99 1012.9 1019.99 L1008.88 1019.99 L1008.88 1016.15 L1013.09 1016.15 Q1016.54 1016.15 1018.37 1014.78 Q1020.2 1013.39 1020.2 1010.8 Q1020.2 1008.14 1018.3 1006.73 Q1016.42 1005.29 1012.9 1005.29 Q1010.98 1005.29 1008.78 1005.71 Q1006.58 1006.12 1003.95 1007 L1003.95 1002.84 Q1006.61 1002.1 1008.92 1001.73 Q1011.26 1001.35 1013.32 1001.35 Q1018.64 1001.35 1021.75 1003.79 Q1024.85 1006.19 1024.85 1010.31 Q1024.85 1013.18 1023.2 1015.17 Q1021.56 1017.14 1018.53 1017.91 Z" fill="#000000" fill-rule="evenodd" fill-opacity="1" /><path clip-path="url(#clip240)" d="M1044.52 1005.06 Q1040.91 1005.06 1039.08 1008.62 Q1037.28 1012.16 1037.28 1019.29 Q1037.28 1026.4 1039.08 1029.97 Q1040.91 1033.51 1044.52 1033.51 Q1048.16 1033.51 1049.96 1029.97 Q1051.79 1026.4 1051.79 1019.29 Q1051.79 1012.16 1049.96 1008.62 Q1048.16 1005.06 1044.52 1005.06 M1044.52 1001.35 Q1050.33 1001.35 1053.39 1005.96 Q1056.47 1010.54 1056.47 1019.29 Q1056.47 1028.02 1053.39 1032.63 Q1050.33 1037.21 1044.52 1037.21 Q1038.71 1037.21 1035.64 1032.63 Q1032.58 1028.02 1032.58 1019.29 Q1032.58 1010.54 1035.64 1005.96 Q1038.71 1001.35 1044.52 1001.35 Z" fill="#000000" fill-rule="evenodd" fill-opacity="1" /><path clip-path="url(#clip240)" d="M1285.15 1006.05 L1273.35 1024.5 L1285.15 1024.5 L1285.15 1006.05 M1283.93 1001.98 L1289.81 1001.98 L1289.81 1024.5 L1294.74 1024.5 L1294.74 1028.39 L1289.81 1028.39 L1289.81 1036.54 L1285.15 1036.54 L1285.15 1028.39 L1269.55 1028.39 L1269.55 1023.88 L1283.93 1001.98 Z" fill="#000000" fill-rule="evenodd" fill-opacity="1" /><path clip-path="url(#clip240)" d="M1312.47 1005.06 Q1308.86 1005.06 1307.03 1008.62 Q1305.22 1012.16 1305.22 1019.29 Q1305.22 1026.4 1307.03 1029.97 Q1308.86 1033.51 1312.47 1033.51 Q1316.1 1033.51 1317.91 1029.97 Q1319.74 1026.4 1319.74 1019.29 Q1319.74 1012.16 1317.91 1008.62 Q1316.1 1005.06 1312.47 1005.06 M1312.47 1001.35 Q1318.28 1001.35 1321.34 1005.96 Q1324.41 1010.54 1324.41 1019.29 Q1324.41 1028.02 1321.34 1032.63 Q1318.28 1037.21 1312.47 1037.21 Q1306.66 1037.21 1303.58 1032.63 Q1300.53 1028.02 1300.53 1019.29 Q1300.53 1010.54 1303.58 1005.96 Q1306.66 1001.35 1312.47 1001.35 Z" fill="#000000" fill-rule="evenodd" fill-opacity="1" /><path clip-path="url(#clip240)" d="M743.206 1071.48 L783.405 1071.48 L783.405 1076.89 L766.536 1076.89 L766.536 1119 L760.075 1119 L760.075 1076.89 L743.206 1076.89 L743.206 1071.48 Z" fill="#000000" fill-rule="evenodd" fill-opacity="1" /><path clip-path="url(#clip240)" d="M787.352 1083.36 L793.208 1083.36 L793.208 1119 L787.352 1119 L787.352 1083.36 M787.352 1069.48 L793.208 1069.48 L793.208 1076.89 L787.352 1076.89 L787.352 1069.48 Z" fill="#000000" fill-rule="evenodd" fill-opacity="1" /><path clip-path="url(#clip240)" d="M833.217 1090.2 Q835.413 1086.25 838.468 1084.37 Q841.524 1082.5 845.662 1082.5 Q851.232 1082.5 854.255 1086.41 Q857.279 1090.29 857.279 1097.49 L857.279 1119 L851.391 1119 L851.391 1097.68 Q851.391 1092.55 849.577 1090.07 Q847.762 1087.59 844.038 1087.59 Q839.487 1087.59 836.845 1090.61 Q834.203 1093.64 834.203 1098.86 L834.203 1119 L828.315 1119 L828.315 1097.68 Q828.315 1092.52 826.501 1090.07 Q824.687 1087.59 820.899 1087.59 Q816.411 1087.59 813.77 1090.64 Q811.128 1093.67 811.128 1098.86 L811.128 1119 L805.239 1119 L805.239 1083.36 L811.128 1083.36 L811.128 1088.89 Q813.133 1085.62 815.934 1084.06 Q818.735 1082.5 822.586 1082.5 Q826.469 1082.5 829.175 1084.47 Q831.912 1086.44 833.217 1090.2 Z" fill="#000000" fill-rule="evenodd" fill-opacity="1" /><path clip-path="url(#clip240)" d="M899.452 1099.72 L899.452 1102.58 L872.525 1102.58 Q872.907 1108.63 876.153 1111.81 Q879.432 1114.96 885.256 1114.96 Q888.63 1114.96 891.781 1114.13 Q894.964 1113.31 898.083 1111.65 L898.083 1117.19 Q894.932 1118.53 891.622 1119.23 Q888.312 1119.93 884.906 1119.93 Q876.376 1119.93 871.379 1114.96 Q866.414 1110 866.414 1101.53 Q866.414 1092.78 871.125 1087.65 Q875.867 1082.5 883.888 1082.5 Q891.081 1082.5 895.251 1087.14 Q899.452 1091.76 899.452 1099.72 M893.596 1098 Q893.532 1093.19 890.89 1090.33 Q888.28 1087.46 883.951 1087.46 Q879.05 1087.46 876.09 1090.23 Q873.162 1093 872.716 1098.03 L893.596 1098 Z" fill="#000000" fill-rule="evenodd" fill-opacity="1" /><path clip-path="url(#clip240)" d="M929.243 1069.48 L942.739 1069.48 L942.739 1074.03 L935.1 1074.03 L935.1 1123.05 L942.739 1123.05 L942.739 1127.6 L929.243 1127.6 L929.243 1069.48 Z" fill="#000000" fill-rule="evenodd" fill-opacity="1" /><path clip-path="url(#clip240)" d="M984.848 1097.49 L984.848 1119 L978.991 1119 L978.991 1097.68 Q978.991 1092.62 977.018 1090.1 Q975.045 1087.59 971.098 1087.59 Q966.356 1087.59 963.618 1090.61 Q960.881 1093.64 960.881 1098.86 L960.881 1119 L954.993 1119 L954.993 1069.48 L960.881 1069.48 L960.881 1088.89 Q962.982 1085.68 965.814 1084.09 Q968.679 1082.5 972.403 1082.5 Q978.546 1082.5 981.697 1086.32 Q984.848 1090.1 984.848 1097.49 Z" fill="#000000" fill-rule="evenodd" fill-opacity="1" /><path clip-path="url(#clip240)" d="M1010.22 1069.48 L1010.22 1127.6 L996.72 1127.6 L996.72 1123.05 L1004.33 1123.05 L1004.33 1074.03 L996.72 1074.03 L996.72 1069.48 L1010.22 1069.48 Z" fill="#000000" fill-rule="evenodd" fill-opacity="1" /><polyline clip-path="url(#clip242)" style="stroke:#000000; stroke-linecap:butt; stroke-linejoin:round; stroke-width:2; stroke-opacity:0.1; fill:none" points="
  200.665,807.57 1552.76,807.57 
  "/>
<polyline clip-path="url(#clip242)" style="stroke:#000000; stroke-linecap:butt; stroke-linejoin:round; stroke-width:2; stroke-opacity:0.1; fill:none" points="
  200.665,563.59 1552.76,563.59 
  "/>
<polyline clip-path="url(#clip242)" style="stroke:#000000; stroke-linecap:butt; stroke-linejoin:round; stroke-width:2; stroke-opacity:0.1; fill:none" points="
  200.665,319.61 1552.76,319.61 
  "/>
<polyline clip-path="url(#clip242)" style="stroke:#000000; stroke-linecap:butt; stroke-linejoin:round; stroke-width:2; stroke-opacity:0.1; fill:none" points="
  200.665,75.6298 1552.76,75.6298 
  "/>
<polyline clip-path="url(#clip240)" style="stroke:#000000; stroke-linecap:butt; stroke-linejoin:round; stroke-width:4; stroke-opacity:1; fill:none" points="
  200.665,974.14 200.665,47.2441 
  "/>
<polyline clip-path="url(#clip240)" style="stroke:#000000; stroke-linecap:butt; stroke-linejoin:round; stroke-width:4; stroke-opacity:1; fill:none" points="
  200.665,807.57 219.563,807.57 
  "/>
<polyline clip-path="url(#clip240)" style="stroke:#000000; stroke-linecap:butt; stroke-linejoin:round; stroke-width:4; stroke-opacity:1; fill:none" points="
  200.665,563.59 219.563,563.59 
  "/>
<polyline clip-path="url(#clip240)" style="stroke:#000000; stroke-linecap:butt; stroke-linejoin:round; stroke-width:4; stroke-opacity:1; fill:none" points="
  200.665,319.61 219.563,319.61 
  "/>
<polyline clip-path="url(#clip240)" style="stroke:#000000; stroke-linecap:butt; stroke-linejoin:round; stroke-width:4; stroke-opacity:1; fill:none" points="
  200.665,75.6298 219.563,75.6298 
  "/>
<path clip-path="url(#clip240)" d="M152.721 793.369 Q149.11 793.369 147.281 796.934 Q145.475 800.476 145.475 807.605 Q145.475 814.712 147.281 818.276 Q149.11 821.818 152.721 821.818 Q156.355 821.818 158.16 818.276 Q159.989 814.712 159.989 807.605 Q159.989 800.476 158.16 796.934 Q156.355 793.369 152.721 793.369 M152.721 789.665 Q158.531 789.665 161.586 794.272 Q164.665 798.855 164.665 807.605 Q164.665 816.332 161.586 820.938 Q158.531 825.522 152.721 825.522 Q146.91 825.522 143.832 820.938 Q140.776 816.332 140.776 807.605 Q140.776 798.855 143.832 794.272 Q146.91 789.665 152.721 789.665 Z" fill="#000000" fill-rule="evenodd" fill-opacity="1" /><path clip-path="url(#clip240)" d="M143.762 546.31 L162.119 546.31 L162.119 550.245 L148.045 550.245 L148.045 558.718 Q149.063 558.37 150.082 558.208 Q151.1 558.023 152.119 558.023 Q157.906 558.023 161.285 561.194 Q164.665 564.366 164.665 569.782 Q164.665 575.361 161.193 578.463 Q157.721 581.541 151.401 581.541 Q149.225 581.541 146.957 581.171 Q144.711 580.801 142.304 580.06 L142.304 575.361 Q144.387 576.495 146.61 577.051 Q148.832 577.606 151.309 577.606 Q155.313 577.606 157.651 575.5 Q159.989 573.393 159.989 569.782 Q159.989 566.171 157.651 564.065 Q155.313 561.958 151.309 561.958 Q149.434 561.958 147.559 562.375 Q145.707 562.792 143.762 563.671 L143.762 546.31 Z" fill="#000000" fill-rule="evenodd" fill-opacity="1" /><path clip-path="url(#clip240)" d="M113.369 332.955 L121.008 332.955 L121.008 306.589 L112.698 308.256 L112.698 303.997 L120.962 302.33 L125.637 302.33 L125.637 332.955 L133.276 332.955 L133.276 336.89 L113.369 336.89 L113.369 332.955 Z" fill="#000000" fill-rule="evenodd" fill-opacity="1" /><path clip-path="url(#clip240)" d="M152.721 305.409 Q149.11 305.409 147.281 308.973 Q145.475 312.515 145.475 319.645 Q145.475 326.751 147.281 330.316 Q149.11 333.858 152.721 333.858 Q156.355 333.858 158.16 330.316 Q159.989 326.751 159.989 319.645 Q159.989 312.515 158.16 308.973 Q156.355 305.409 152.721 305.409 M152.721 301.705 Q158.531 301.705 161.586 306.311 Q164.665 310.895 164.665 319.645 Q164.665 328.371 161.586 332.978 Q158.531 337.561 152.721 337.561 Q146.91 337.561 143.832 332.978 Q140.776 328.371 140.776 319.645 Q140.776 310.895 143.832 306.311 Q146.91 301.705 152.721 301.705 Z" fill="#000000" fill-rule="evenodd" fill-opacity="1" /><path clip-path="url(#clip240)" d="M114.364 88.9746 L122.003 88.9746 L122.003 62.609 L113.693 64.2756 L113.693 60.0164 L121.957 58.3498 L126.633 58.3498 L126.633 88.9746 L134.272 88.9746 L134.272 92.9098 L114.364 92.9098 L114.364 88.9746 Z" fill="#000000" fill-rule="evenodd" fill-opacity="1" /><path clip-path="url(#clip240)" d="M143.762 58.3498 L162.119 58.3498 L162.119 62.2849 L148.045 62.2849 L148.045 70.7571 Q149.063 70.4099 150.082 70.2478 Q151.1 70.0627 152.119 70.0627 Q157.906 70.0627 161.285 73.2339 Q164.665 76.4052 164.665 81.8218 Q164.665 87.4005 161.193 90.5024 Q157.721 93.581 151.401 93.581 Q149.225 93.581 146.957 93.2107 Q144.711 92.8403 142.304 92.0996 L142.304 87.4005 Q144.387 88.5348 146.61 89.0903 Q148.832 89.6459 151.309 89.6459 Q155.313 89.6459 157.651 87.5394 Q159.989 85.4329 159.989 81.8218 Q159.989 78.2108 157.651 76.1043 Q155.313 73.9978 151.309 73.9978 Q149.434 73.9978 147.559 74.4145 Q145.707 74.8311 143.762 75.7108 L143.762 58.3498 Z" fill="#000000" fill-rule="evenodd" fill-opacity="1" /><path clip-path="url(#clip240)" d="M14.9217 700.708 L14.9217 694.279 L34.4008 694.279 L34.4008 670.917 L14.9217 670.917 L14.9217 664.487 L62.4417 664.487 L62.4417 670.917 L39.8116 670.917 L39.8116 694.279 L62.4417 694.279 L62.4417 700.708 L14.9217 700.708 Z" fill="#000000" fill-rule="evenodd" fill-opacity="1" /><path clip-path="url(#clip240)" d="M43.1536 621.455 L46.0182 621.455 L46.0182 648.382 Q52.0656 648 55.2485 644.754 Q58.3995 641.475 58.3995 635.651 Q58.3995 632.277 57.572 629.126 Q56.7444 625.943 55.0893 622.824 L60.6275 622.824 Q61.9643 625.975 62.6645 629.285 Q63.3647 632.595 63.3647 636.001 Q63.3647 644.531 58.3995 649.528 Q53.4342 654.493 44.9679 654.493 Q36.215 654.493 31.0906 649.783 Q25.9344 645.04 25.9344 637.019 Q25.9344 629.826 30.5814 625.657 Q35.1965 621.455 43.1536 621.455 M41.4349 627.312 Q36.6288 627.375 33.7642 630.017 Q30.8996 632.627 30.8996 636.956 Q30.8996 641.857 33.6687 644.817 Q36.4378 647.746 41.4667 648.191 L41.4349 627.312 Z" fill="#000000" fill-rule="evenodd" fill-opacity="1" /><path clip-path="url(#clip240)" d="M26.7938 611.843 L26.7938 605.987 L62.4417 605.987 L62.4417 611.843 L26.7938 611.843 M12.9165 611.843 L12.9165 605.987 L20.3326 605.987 L20.3326 611.843 L12.9165 611.843 Z" fill="#000000" fill-rule="evenodd" fill-opacity="1" /><path clip-path="url(#clip240)" d="M44.204 570.275 Q37.8383 570.275 34.3371 572.917 Q30.836 575.527 30.836 580.269 Q30.836 584.98 34.3371 587.622 Q37.8383 590.231 44.204 590.231 Q50.5378 590.231 54.039 587.622 Q57.5401 584.98 57.5401 580.269 Q57.5401 575.527 54.039 572.917 Q50.5378 570.275 44.204 570.275 M58.0176 564.419 Q67.1205 564.419 71.5447 568.461 Q76.0007 572.503 76.0007 580.842 Q76.0007 583.929 75.5232 586.667 Q75.0776 589.404 74.1228 591.982 L68.4255 591.982 Q69.8259 589.404 70.4943 586.889 Q71.1627 584.375 71.1627 581.765 Q71.1627 576.004 68.139 573.14 Q65.1471 570.275 59.0679 570.275 L56.1715 570.275 Q59.3225 572.089 60.8821 574.922 Q62.4417 577.755 62.4417 581.701 Q62.4417 588.258 57.4446 592.268 Q52.4476 596.279 44.204 596.279 Q35.9286 596.279 30.9315 592.268 Q25.9344 588.258 25.9344 581.701 Q25.9344 577.755 27.494 574.922 Q29.0536 572.089 32.2046 570.275 L26.7938 570.275 L26.7938 564.419 L58.0176 564.419 Z" fill="#000000" fill-rule="evenodd" fill-opacity="1" /><path clip-path="url(#clip240)" d="M40.9256 522.723 L62.4417 522.723 L62.4417 528.58 L41.1166 528.58 Q36.0559 528.58 33.5414 530.553 Q31.027 532.526 31.027 536.473 Q31.027 541.216 34.0507 543.953 Q37.0744 546.69 42.2943 546.69 L62.4417 546.69 L62.4417 552.578 L12.9165 552.578 L12.9165 546.69 L32.3319 546.69 Q29.1172 544.589 27.5258 541.757 Q25.9344 538.892 25.9344 535.168 Q25.9344 529.025 29.7538 525.874 Q33.5414 522.723 40.9256 522.723 Z" fill="#000000" fill-rule="evenodd" fill-opacity="1" /><path clip-path="url(#clip240)" d="M16.6723 505.249 L26.7938 505.249 L26.7938 493.186 L31.3452 493.186 L31.3452 505.249 L50.697 505.249 Q55.0575 505.249 56.2988 504.072 Q57.5401 502.862 57.5401 499.202 L57.5401 493.186 L62.4417 493.186 L62.4417 499.202 Q62.4417 505.981 59.9273 508.559 Q57.381 511.138 50.697 511.138 L31.3452 511.138 L31.3452 515.434 L26.7938 515.434 L26.7938 511.138 L16.6723 511.138 L16.6723 505.249 Z" fill="#000000" fill-rule="evenodd" fill-opacity="1" /><path clip-path="url(#clip240)" d="M12.9165 465.304 L12.9165 451.809 L17.468 451.809 L17.468 459.448 L66.4839 459.448 L66.4839 451.809 L71.0354 451.809 L71.0354 465.304 L12.9165 465.304 Z" fill="#000000" fill-rule="evenodd" fill-opacity="1" /><path clip-path="url(#clip240)" d="M76.0007 439.937 L26.7938 439.937 L26.7938 434.081 L48.9464 434.081 Q53.5616 434.081 55.9169 431.885 Q58.2722 429.688 58.2722 425.391 Q58.2722 420.681 55.5986 418.326 Q52.925 415.938 47.5778 415.938 L26.7938 415.938 L26.7938 410.082 L54.23 410.082 Q56.1397 410.082 57.0627 409.541 Q57.9539 408.968 57.9539 407.79 Q57.9539 407.504 57.7948 406.995 Q57.6038 406.485 57.2218 405.594 L61.9325 405.594 Q62.6645 406.899 63.0146 408.077 Q63.3647 409.223 63.3647 410.337 Q63.3647 412.533 62.1234 413.838 Q60.8821 415.143 58.3358 415.62 Q60.8503 417.212 62.1234 419.535 Q63.3647 421.827 63.3647 424.946 Q63.3647 428.192 62.1234 430.484 Q60.8821 432.744 58.3995 434.081 L76.0007 434.081 L76.0007 439.937 Z" fill="#000000" fill-rule="evenodd" fill-opacity="1" /><path clip-path="url(#clip240)" d="M33.6369 370.105 Q29.6902 367.909 27.8123 364.854 Q25.9344 361.798 25.9344 357.66 Q25.9344 352.09 29.8493 349.067 Q33.7324 346.043 40.9256 346.043 L62.4417 346.043 L62.4417 351.931 L41.1166 351.931 Q35.9922 351.931 33.5096 353.745 Q31.027 355.56 31.027 359.284 Q31.027 363.835 34.0507 366.477 Q37.0744 369.119 42.2943 369.119 L62.4417 369.119 L62.4417 375.007 L41.1166 375.007 Q35.9604 375.007 33.5096 376.821 Q31.027 378.635 31.027 382.423 Q31.027 386.911 34.0825 389.553 Q37.1062 392.194 42.2943 392.194 L62.4417 392.194 L62.4417 398.083 L26.7938 398.083 L26.7938 392.194 L32.3319 392.194 Q29.0536 390.189 27.494 387.388 Q25.9344 384.587 25.9344 380.736 Q25.9344 376.853 27.9078 374.148 Q29.8811 371.41 33.6369 370.105 Z" fill="#000000" fill-rule="evenodd" fill-opacity="1" /><path clip-path="url(#clip240)" d="M12.9165 320.676 L71.0354 320.676 L71.0354 334.171 L66.4839 334.171 L66.4839 326.564 L17.468 326.564 L17.468 334.171 L12.9165 334.171 L12.9165 320.676 Z" fill="#000000" fill-rule="evenodd" fill-opacity="1" /><circle clip-path="url(#clip242)" cx="238.932" cy="816.34" r="14" fill="#009af9" fill-rule="evenodd" fill-opacity="1" stroke="#000000" stroke-opacity="1" stroke-width="3.2"/>
<circle clip-path="url(#clip242)" cx="247.589" cy="779.834" r="14" fill="#009af9" fill-rule="evenodd" fill-opacity="1" stroke="#000000" stroke-opacity="1" stroke-width="3.2"/>
<circle clip-path="url(#clip242)" cx="256.232" cy="762.05" r="14" fill="#009af9" fill-rule="evenodd" fill-opacity="1" stroke="#000000" stroke-opacity="1" stroke-width="3.2"/>
<circle clip-path="url(#clip242)" cx="264.889" cy="865.349" r="14" fill="#009af9" fill-rule="evenodd" fill-opacity="1" stroke="#000000" stroke-opacity="1" stroke-width="3.2"/>
<circle clip-path="url(#clip242)" cx="273.547" cy="819.291" r="14" fill="#009af9" fill-rule="evenodd" fill-opacity="1" stroke="#000000" stroke-opacity="1" stroke-width="3.2"/>
<circle clip-path="url(#clip242)" cx="282.219" cy="864.378" r="14" fill="#009af9" fill-rule="evenodd" fill-opacity="1" stroke="#000000" stroke-opacity="1" stroke-width="3.2"/>
<circle clip-path="url(#clip242)" cx="290.877" cy="789.877" r="14" fill="#009af9" fill-rule="evenodd" fill-opacity="1" stroke="#000000" stroke-opacity="1" stroke-width="3.2"/>
<circle clip-path="url(#clip242)" cx="299.534" cy="683.847" r="14" fill="#009af9" fill-rule="evenodd" fill-opacity="1" stroke="#000000" stroke-opacity="1" stroke-width="3.2"/>
<circle clip-path="url(#clip242)" cx="308.206" cy="748.904" r="14" fill="#009af9" fill-rule="evenodd" fill-opacity="1" stroke="#000000" stroke-opacity="1" stroke-width="3.2"/>
<circle clip-path="url(#clip242)" cx="316.864" cy="745.77" r="14" fill="#009af9" fill-rule="evenodd" fill-opacity="1" stroke="#000000" stroke-opacity="1" stroke-width="3.2"/>
<circle clip-path="url(#clip242)" cx="325.566" cy="539.521" r="14" fill="#009af9" fill-rule="evenodd" fill-opacity="1" stroke="#000000" stroke-opacity="1" stroke-width="3.2"/>
<circle clip-path="url(#clip242)" cx="334.223" cy="890.819" r="14" fill="#009af9" fill-rule="evenodd" fill-opacity="1" stroke="#000000" stroke-opacity="1" stroke-width="3.2"/>
<circle clip-path="url(#clip242)" cx="342.881" cy="650.929" r="14" fill="#009af9" fill-rule="evenodd" fill-opacity="1" stroke="#000000" stroke-opacity="1" stroke-width="3.2"/>
<circle clip-path="url(#clip242)" cx="351.538" cy="560.431" r="14" fill="#009af9" fill-rule="evenodd" fill-opacity="1" stroke="#000000" stroke-opacity="1" stroke-width="3.2"/>
<circle clip-path="url(#clip242)" cx="360.21" cy="645.309" r="14" fill="#009af9" fill-rule="evenodd" fill-opacity="1" stroke="#000000" stroke-opacity="1" stroke-width="3.2"/>
<circle clip-path="url(#clip242)" cx="368.868" cy="574.786" r="14" fill="#009af9" fill-rule="evenodd" fill-opacity="1" stroke="#000000" stroke-opacity="1" stroke-width="3.2"/>
<circle clip-path="url(#clip242)" cx="380.763" cy="326.968" r="14" fill="#009af9" fill-rule="evenodd" fill-opacity="1" stroke="#000000" stroke-opacity="1" stroke-width="3.2"/>
<circle clip-path="url(#clip242)" cx="389.316" cy="291.152" r="14" fill="#009af9" fill-rule="evenodd" fill-opacity="1" stroke="#000000" stroke-opacity="1" stroke-width="3.2"/>
<circle clip-path="url(#clip242)" cx="397.885" cy="342.216" r="14" fill="#009af9" fill-rule="evenodd" fill-opacity="1" stroke="#000000" stroke-opacity="1" stroke-width="3.2"/>
<circle clip-path="url(#clip242)" cx="406.453" cy="263.785" r="14" fill="#009af9" fill-rule="evenodd" fill-opacity="1" stroke="#000000" stroke-opacity="1" stroke-width="3.2"/>
<circle clip-path="url(#clip242)" cx="415.006" cy="164.588" r="14" fill="#009af9" fill-rule="evenodd" fill-opacity="1" stroke="#000000" stroke-opacity="1" stroke-width="3.2"/>
<circle clip-path="url(#clip242)" cx="423.59" cy="73.477" r="14" fill="#009af9" fill-rule="evenodd" fill-opacity="1" stroke="#000000" stroke-opacity="1" stroke-width="3.2"/>
<circle clip-path="url(#clip242)" cx="432.158" cy="160.411" r="14" fill="#009af9" fill-rule="evenodd" fill-opacity="1" stroke="#000000" stroke-opacity="1" stroke-width="3.2"/>
<circle clip-path="url(#clip242)" cx="440.726" cy="119.104" r="14" fill="#009af9" fill-rule="evenodd" fill-opacity="1" stroke="#000000" stroke-opacity="1" stroke-width="3.2"/>
<circle clip-path="url(#clip242)" cx="449.31" cy="415.937" r="14" fill="#009af9" fill-rule="evenodd" fill-opacity="1" stroke="#000000" stroke-opacity="1" stroke-width="3.2"/>
<circle clip-path="url(#clip242)" cx="457.878" cy="298.289" r="14" fill="#009af9" fill-rule="evenodd" fill-opacity="1" stroke="#000000" stroke-opacity="1" stroke-width="3.2"/>
<circle clip-path="url(#clip242)" cx="466.476" cy="181.274" r="14" fill="#009af9" fill-rule="evenodd" fill-opacity="1" stroke="#000000" stroke-opacity="1" stroke-width="3.2"/>
<circle clip-path="url(#clip242)" cx="475.044" cy="429.599" r="14" fill="#009af9" fill-rule="evenodd" fill-opacity="1" stroke="#000000" stroke-opacity="1" stroke-width="3.2"/>
<circle clip-path="url(#clip242)" cx="483.613" cy="391.641" r="14" fill="#009af9" fill-rule="evenodd" fill-opacity="1" stroke="#000000" stroke-opacity="1" stroke-width="3.2"/>
<circle clip-path="url(#clip242)" cx="493.488" cy="334.839" r="14" fill="#009af9" fill-rule="evenodd" fill-opacity="1" stroke="#000000" stroke-opacity="1" stroke-width="3.2"/>
<circle clip-path="url(#clip242)" cx="506.496" cy="388.904" r="14" fill="#009af9" fill-rule="evenodd" fill-opacity="1" stroke="#000000" stroke-opacity="1" stroke-width="3.2"/>
<circle clip-path="url(#clip242)" cx="519.52" cy="390.493" r="14" fill="#009af9" fill-rule="evenodd" fill-opacity="1" stroke="#000000" stroke-opacity="1" stroke-width="3.2"/>
<circle clip-path="url(#clip242)" cx="532.543" cy="435.817" r="14" fill="#009af9" fill-rule="evenodd" fill-opacity="1" stroke="#000000" stroke-opacity="1" stroke-width="3.2"/>
<circle clip-path="url(#clip242)" cx="545.566" cy="427.52" r="14" fill="#009af9" fill-rule="evenodd" fill-opacity="1" stroke="#000000" stroke-opacity="1" stroke-width="3.2"/>
<circle clip-path="url(#clip242)" cx="558.604" cy="479.765" r="14" fill="#009af9" fill-rule="evenodd" fill-opacity="1" stroke="#000000" stroke-opacity="1" stroke-width="3.2"/>
<circle clip-path="url(#clip242)" cx="571.628" cy="450.83" r="14" fill="#009af9" fill-rule="evenodd" fill-opacity="1" stroke="#000000" stroke-opacity="1" stroke-width="3.2"/>
<circle clip-path="url(#clip242)" cx="584.696" cy="475.893" r="14" fill="#009af9" fill-rule="evenodd" fill-opacity="1" stroke="#000000" stroke-opacity="1" stroke-width="3.2"/>
<circle clip-path="url(#clip242)" cx="597.719" cy="482.787" r="14" fill="#009af9" fill-rule="evenodd" fill-opacity="1" stroke="#000000" stroke-opacity="1" stroke-width="3.2"/>
<circle clip-path="url(#clip242)" cx="610.727" cy="502.97" r="14" fill="#009af9" fill-rule="evenodd" fill-opacity="1" stroke="#000000" stroke-opacity="1" stroke-width="3.2"/>
<circle clip-path="url(#clip242)" cx="623.751" cy="559.465" r="14" fill="#009af9" fill-rule="evenodd" fill-opacity="1" stroke="#000000" stroke-opacity="1" stroke-width="3.2"/>
<circle clip-path="url(#clip242)" cx="636.759" cy="444.587" r="14" fill="#009af9" fill-rule="evenodd" fill-opacity="1" stroke="#000000" stroke-opacity="1" stroke-width="3.2"/>
<circle clip-path="url(#clip242)" cx="649.783" cy="490.762" r="14" fill="#009af9" fill-rule="evenodd" fill-opacity="1" stroke="#000000" stroke-opacity="1" stroke-width="3.2"/>
<circle clip-path="url(#clip242)" cx="662.791" cy="565.915" r="14" fill="#009af9" fill-rule="evenodd" fill-opacity="1" stroke="#000000" stroke-opacity="1" stroke-width="3.2"/>
<circle clip-path="url(#clip242)" cx="675.844" cy="392.074" r="14" fill="#009af9" fill-rule="evenodd" fill-opacity="1" stroke="#000000" stroke-opacity="1" stroke-width="3.2"/>
<circle clip-path="url(#clip242)" cx="688.852" cy="681.028" r="14" fill="#009af9" fill-rule="evenodd" fill-opacity="1" stroke="#000000" stroke-opacity="1" stroke-width="3.2"/>
<circle clip-path="url(#clip242)" cx="701.861" cy="454.182" r="14" fill="#009af9" fill-rule="evenodd" fill-opacity="1" stroke="#000000" stroke-opacity="1" stroke-width="3.2"/>
<circle clip-path="url(#clip242)" cx="714.84" cy="552.855" r="14" fill="#009af9" fill-rule="evenodd" fill-opacity="1" stroke="#000000" stroke-opacity="1" stroke-width="3.2"/>
<circle clip-path="url(#clip242)" cx="727.848" cy="597.773" r="14" fill="#009af9" fill-rule="evenodd" fill-opacity="1" stroke="#000000" stroke-opacity="1" stroke-width="3.2"/>
<circle clip-path="url(#clip242)" cx="740.871" cy="543.554" r="14" fill="#009af9" fill-rule="evenodd" fill-opacity="1" stroke="#000000" stroke-opacity="1" stroke-width="3.2"/>
<circle clip-path="url(#clip242)" cx="753.88" cy="554.387" r="14" fill="#009af9" fill-rule="evenodd" fill-opacity="1" stroke="#000000" stroke-opacity="1" stroke-width="3.2"/>
<circle clip-path="url(#clip242)" cx="766.888" cy="479.924" r="14" fill="#009af9" fill-rule="evenodd" fill-opacity="1" stroke="#000000" stroke-opacity="1" stroke-width="3.2"/>
<circle clip-path="url(#clip242)" cx="779.912" cy="560.165" r="14" fill="#009af9" fill-rule="evenodd" fill-opacity="1" stroke="#000000" stroke-opacity="1" stroke-width="3.2"/>
<circle clip-path="url(#clip242)" cx="792.965" cy="644.252" r="14" fill="#009af9" fill-rule="evenodd" fill-opacity="1" stroke="#000000" stroke-opacity="1" stroke-width="3.2"/>
<circle clip-path="url(#clip242)" cx="806.018" cy="597.098" r="14" fill="#009af9" fill-rule="evenodd" fill-opacity="1" stroke="#000000" stroke-opacity="1" stroke-width="3.2"/>
<circle clip-path="url(#clip242)" cx="819.041" cy="530.194" r="14" fill="#009af9" fill-rule="evenodd" fill-opacity="1" stroke="#000000" stroke-opacity="1" stroke-width="3.2"/>
<circle clip-path="url(#clip242)" cx="832.05" cy="615.765" r="14" fill="#009af9" fill-rule="evenodd" fill-opacity="1" stroke="#000000" stroke-opacity="1" stroke-width="3.2"/>
<circle clip-path="url(#clip242)" cx="845.073" cy="490.306" r="14" fill="#009af9" fill-rule="evenodd" fill-opacity="1" stroke="#000000" stroke-opacity="1" stroke-width="3.2"/>
<circle clip-path="url(#clip242)" cx="857.784" cy="621.357" r="14" fill="#009af9" fill-rule="evenodd" fill-opacity="1" stroke="#000000" stroke-opacity="1" stroke-width="3.2"/>
<circle clip-path="url(#clip242)" cx="870.808" cy="628.824" r="14" fill="#009af9" fill-rule="evenodd" fill-opacity="1" stroke="#000000" stroke-opacity="1" stroke-width="3.2"/>
<circle clip-path="url(#clip242)" cx="883.831" cy="540.967" r="14" fill="#009af9" fill-rule="evenodd" fill-opacity="1" stroke="#000000" stroke-opacity="1" stroke-width="3.2"/>
<circle clip-path="url(#clip242)" cx="896.869" cy="590.535" r="14" fill="#009af9" fill-rule="evenodd" fill-opacity="1" stroke="#000000" stroke-opacity="1" stroke-width="3.2"/>
<circle clip-path="url(#clip242)" cx="909.937" cy="685.496" r="14" fill="#009af9" fill-rule="evenodd" fill-opacity="1" stroke="#000000" stroke-opacity="1" stroke-width="3.2"/>
<circle clip-path="url(#clip242)" cx="922.975" cy="592.563" r="14" fill="#009af9" fill-rule="evenodd" fill-opacity="1" stroke="#000000" stroke-opacity="1" stroke-width="3.2"/>
<circle clip-path="url(#clip242)" cx="936.013" cy="615.084" r="14" fill="#009af9" fill-rule="evenodd" fill-opacity="1" stroke="#000000" stroke-opacity="1" stroke-width="3.2"/>
<circle clip-path="url(#clip242)" cx="949.052" cy="557.831" r="14" fill="#009af9" fill-rule="evenodd" fill-opacity="1" stroke="#000000" stroke-opacity="1" stroke-width="3.2"/>
<circle clip-path="url(#clip242)" cx="962.09" cy="575.837" r="14" fill="#009af9" fill-rule="evenodd" fill-opacity="1" stroke="#000000" stroke-opacity="1" stroke-width="3.2"/>
<circle clip-path="url(#clip242)" cx="975.143" cy="617.015" r="14" fill="#009af9" fill-rule="evenodd" fill-opacity="1" stroke="#000000" stroke-opacity="1" stroke-width="3.2"/>
<circle clip-path="url(#clip242)" cx="988.166" cy="776.662" r="14" fill="#009af9" fill-rule="evenodd" fill-opacity="1" stroke="#000000" stroke-opacity="1" stroke-width="3.2"/>
<circle clip-path="url(#clip242)" cx="1001.22" cy="576.796" r="14" fill="#009af9" fill-rule="evenodd" fill-opacity="1" stroke="#000000" stroke-opacity="1" stroke-width="3.2"/>
<circle clip-path="url(#clip242)" cx="1014.27" cy="646.156" r="14" fill="#009af9" fill-rule="evenodd" fill-opacity="1" stroke="#000000" stroke-opacity="1" stroke-width="3.2"/>
<circle clip-path="url(#clip242)" cx="1027.33" cy="505.742" r="14" fill="#009af9" fill-rule="evenodd" fill-opacity="1" stroke="#000000" stroke-opacity="1" stroke-width="3.2"/>
<circle clip-path="url(#clip242)" cx="1040.41" cy="730.078" r="14" fill="#009af9" fill-rule="evenodd" fill-opacity="1" stroke="#000000" stroke-opacity="1" stroke-width="3.2"/>
<circle clip-path="url(#clip242)" cx="1053.46" cy="669.238" r="14" fill="#009af9" fill-rule="evenodd" fill-opacity="1" stroke="#000000" stroke-opacity="1" stroke-width="3.2"/>
<circle clip-path="url(#clip242)" cx="1066.5" cy="543.805" r="14" fill="#009af9" fill-rule="evenodd" fill-opacity="1" stroke="#000000" stroke-opacity="1" stroke-width="3.2"/>
<circle clip-path="url(#clip242)" cx="1079.55" cy="687.304" r="14" fill="#009af9" fill-rule="evenodd" fill-opacity="1" stroke="#000000" stroke-opacity="1" stroke-width="3.2"/>
<circle clip-path="url(#clip242)" cx="1092.59" cy="683.039" r="14" fill="#009af9" fill-rule="evenodd" fill-opacity="1" stroke="#000000" stroke-opacity="1" stroke-width="3.2"/>
<circle clip-path="url(#clip242)" cx="1105.63" cy="735.993" r="14" fill="#009af9" fill-rule="evenodd" fill-opacity="1" stroke="#000000" stroke-opacity="1" stroke-width="3.2"/>
<circle clip-path="url(#clip242)" cx="1118.67" cy="860.932" r="14" fill="#009af9" fill-rule="evenodd" fill-opacity="1" stroke="#000000" stroke-opacity="1" stroke-width="3.2"/>
<circle clip-path="url(#clip242)" cx="1134.41" cy="696.312" r="14" fill="#009af9" fill-rule="evenodd" fill-opacity="1" stroke="#000000" stroke-opacity="1" stroke-width="3.2"/>
<circle clip-path="url(#clip242)" cx="1151.44" cy="720.062" r="14" fill="#009af9" fill-rule="evenodd" fill-opacity="1" stroke="#000000" stroke-opacity="1" stroke-width="3.2"/>
<circle clip-path="url(#clip242)" cx="1169.62" cy="708.938" r="14" fill="#009af9" fill-rule="evenodd" fill-opacity="1" stroke="#000000" stroke-opacity="1" stroke-width="3.2"/>
<circle clip-path="url(#clip242)" cx="1187.78" cy="556.777" r="14" fill="#009af9" fill-rule="evenodd" fill-opacity="1" stroke="#000000" stroke-opacity="1" stroke-width="3.2"/>
<circle clip-path="url(#clip242)" cx="1205.92" cy="715.612" r="14" fill="#009af9" fill-rule="evenodd" fill-opacity="1" stroke="#000000" stroke-opacity="1" stroke-width="3.2"/>
<circle clip-path="url(#clip242)" cx="1224.07" cy="683.384" r="14" fill="#009af9" fill-rule="evenodd" fill-opacity="1" stroke="#000000" stroke-opacity="1" stroke-width="3.2"/>
<circle clip-path="url(#clip242)" cx="1242.23" cy="665.673" r="14" fill="#009af9" fill-rule="evenodd" fill-opacity="1" stroke="#000000" stroke-opacity="1" stroke-width="3.2"/>
<circle clip-path="url(#clip242)" cx="1260.38" cy="653.724" r="14" fill="#009af9" fill-rule="evenodd" fill-opacity="1" stroke="#000000" stroke-opacity="1" stroke-width="3.2"/>
<circle clip-path="url(#clip242)" cx="1278.57" cy="811.834" r="14" fill="#009af9" fill-rule="evenodd" fill-opacity="1" stroke="#000000" stroke-opacity="1" stroke-width="3.2"/>
<circle clip-path="url(#clip242)" cx="1296.72" cy="544.872" r="14" fill="#009af9" fill-rule="evenodd" fill-opacity="1" stroke="#000000" stroke-opacity="1" stroke-width="3.2"/>
<circle clip-path="url(#clip242)" cx="1314.86" cy="666.283" r="14" fill="#009af9" fill-rule="evenodd" fill-opacity="1" stroke="#000000" stroke-opacity="1" stroke-width="3.2"/>
<circle clip-path="url(#clip242)" cx="1333.02" cy="591.699" r="14" fill="#009af9" fill-rule="evenodd" fill-opacity="1" stroke="#000000" stroke-opacity="1" stroke-width="3.2"/>
<circle clip-path="url(#clip242)" cx="1351.16" cy="788.746" r="14" fill="#009af9" fill-rule="evenodd" fill-opacity="1" stroke="#000000" stroke-opacity="1" stroke-width="3.2"/>
<circle clip-path="url(#clip242)" cx="1369.3" cy="765.781" r="14" fill="#009af9" fill-rule="evenodd" fill-opacity="1" stroke="#000000" stroke-opacity="1" stroke-width="3.2"/>
<circle clip-path="url(#clip242)" cx="1387.45" cy="762.741" r="14" fill="#009af9" fill-rule="evenodd" fill-opacity="1" stroke="#000000" stroke-opacity="1" stroke-width="3.2"/>
<circle clip-path="url(#clip242)" cx="1405.6" cy="745.196" r="14" fill="#009af9" fill-rule="evenodd" fill-opacity="1" stroke="#000000" stroke-opacity="1" stroke-width="3.2"/>
<circle clip-path="url(#clip242)" cx="1423.73" cy="791.58" r="14" fill="#009af9" fill-rule="evenodd" fill-opacity="1" stroke="#000000" stroke-opacity="1" stroke-width="3.2"/>
<circle clip-path="url(#clip242)" cx="1441.9" cy="502.384" r="14" fill="#009af9" fill-rule="evenodd" fill-opacity="1" stroke="#000000" stroke-opacity="1" stroke-width="3.2"/>
<circle clip-path="url(#clip242)" cx="1460.03" cy="506.876" r="14" fill="#009af9" fill-rule="evenodd" fill-opacity="1" stroke="#000000" stroke-opacity="1" stroke-width="3.2"/>
<circle clip-path="url(#clip242)" cx="1478.2" cy="736.214" r="14" fill="#009af9" fill-rule="evenodd" fill-opacity="1" stroke="#000000" stroke-opacity="1" stroke-width="3.2"/>
<circle clip-path="url(#clip242)" cx="1496.34" cy="947.907" r="14" fill="#009af9" fill-rule="evenodd" fill-opacity="1" stroke="#000000" stroke-opacity="1" stroke-width="3.2"/>
<path clip-path="url(#clip240)" d="
M1168.82 181.821 L1507.69 181.821 L1507.69 78.1406 L1168.82 78.1406  Z
  " fill="#ffffff" fill-rule="evenodd" fill-opacity="1"/>
<polyline clip-path="url(#clip240)" style="stroke:#000000; stroke-linecap:butt; stroke-linejoin:round; stroke-width:4; stroke-opacity:1; fill:none" points="
  1168.82,181.821 1507.69,181.821 1507.69,78.1406 1168.82,78.1406 1168.82,181.821 
  "/>
<circle clip-path="url(#clip240)" cx="1228.91" cy="129.981" r="23" fill="#009af9" fill-rule="evenodd" fill-opacity="1" stroke="#000000" stroke-opacity="1" stroke-width="5.12"/>
<path clip-path="url(#clip240)" d="M1293.68 116.543 L1293.68 143.418 L1299.33 143.418 Q1306.48 143.418 1309.79 140.177 Q1313.13 136.937 1313.13 129.946 Q1313.13 123.001 1309.79 119.784 Q1306.48 116.543 1299.33 116.543 L1293.68 116.543 M1289.01 112.701 L1298.61 112.701 Q1308.66 112.701 1313.36 116.89 Q1318.06 121.057 1318.06 129.946 Q1318.06 138.881 1313.34 143.071 Q1308.61 147.261 1298.61 147.261 L1289.01 147.261 L1289.01 112.701 Z" fill="#000000" fill-rule="evenodd" fill-opacity="1" /><path clip-path="url(#clip240)" d="M1325.33 121.335 L1329.58 121.335 L1329.58 147.261 L1325.33 147.261 L1325.33 121.335 M1325.33 111.242 L1329.58 111.242 L1329.58 116.636 L1325.33 116.636 L1325.33 111.242 Z" fill="#000000" fill-rule="evenodd" fill-opacity="1" /><path clip-path="url(#clip240)" d="M1355.02 122.099 L1355.02 126.126 Q1353.22 125.201 1351.27 124.738 Q1349.33 124.275 1347.25 124.275 Q1344.08 124.275 1342.48 125.247 Q1340.9 126.219 1340.9 128.163 Q1340.9 129.645 1342.04 130.501 Q1343.17 131.335 1346.6 132.099 L1348.06 132.423 Q1352.59 133.395 1354.49 135.177 Q1356.41 136.937 1356.41 140.108 Q1356.41 143.719 1353.54 145.825 Q1350.7 147.932 1345.7 147.932 Q1343.61 147.932 1341.34 147.515 Q1339.1 147.122 1336.6 146.312 L1336.6 141.913 Q1338.96 143.14 1341.25 143.765 Q1343.54 144.367 1345.79 144.367 Q1348.8 144.367 1350.42 143.349 Q1352.04 142.307 1352.04 140.432 Q1352.04 138.696 1350.86 137.77 Q1349.7 136.844 1345.74 135.988 L1344.26 135.64 Q1340.3 134.807 1338.54 133.094 Q1336.78 131.358 1336.78 128.349 Q1336.78 124.691 1339.38 122.701 Q1341.97 120.71 1346.74 120.71 Q1349.1 120.71 1351.18 121.057 Q1353.27 121.404 1355.02 122.099 Z" fill="#000000" fill-rule="evenodd" fill-opacity="1" /><path clip-path="url(#clip240)" d="M1381.85 122.33 L1381.85 126.312 Q1380.05 125.316 1378.22 124.83 Q1376.41 124.321 1374.56 124.321 Q1370.42 124.321 1368.13 126.96 Q1365.83 129.576 1365.83 134.321 Q1365.83 139.066 1368.13 141.705 Q1370.42 144.321 1374.56 144.321 Q1376.41 144.321 1378.22 143.835 Q1380.05 143.325 1381.85 142.33 L1381.85 146.265 Q1380.07 147.099 1378.15 147.515 Q1376.25 147.932 1374.1 147.932 Q1368.24 147.932 1364.79 144.251 Q1361.34 140.571 1361.34 134.321 Q1361.34 127.978 1364.82 124.344 Q1368.31 120.71 1374.38 120.71 Q1376.34 120.71 1378.22 121.127 Q1380.09 121.52 1381.85 122.33 Z" fill="#000000" fill-rule="evenodd" fill-opacity="1" /><path clip-path="url(#clip240)" d="M1404.28 125.316 Q1403.57 124.9 1402.71 124.714 Q1401.88 124.506 1400.86 124.506 Q1397.25 124.506 1395.3 126.867 Q1393.38 129.205 1393.38 133.603 L1393.38 147.261 L1389.1 147.261 L1389.1 121.335 L1393.38 121.335 L1393.38 125.363 Q1394.72 123.001 1396.88 121.867 Q1399.03 120.71 1402.11 120.71 Q1402.55 120.71 1403.08 120.779 Q1403.61 120.826 1404.26 120.941 L1404.28 125.316 Z" fill="#000000" fill-rule="evenodd" fill-opacity="1" /><path clip-path="url(#clip240)" d="M1429.89 133.233 L1429.89 135.316 L1410.3 135.316 Q1410.58 139.714 1412.94 142.029 Q1415.33 144.321 1419.56 144.321 Q1422.02 144.321 1424.31 143.719 Q1426.62 143.117 1428.89 141.913 L1428.89 145.941 Q1426.6 146.913 1424.19 147.423 Q1421.78 147.932 1419.31 147.932 Q1413.1 147.932 1409.47 144.321 Q1405.86 140.71 1405.86 134.552 Q1405.86 128.187 1409.28 124.46 Q1412.73 120.71 1418.57 120.71 Q1423.8 120.71 1426.83 124.089 Q1429.89 127.446 1429.89 133.233 M1425.63 131.983 Q1425.58 128.488 1423.66 126.404 Q1421.76 124.321 1418.61 124.321 Q1415.05 124.321 1412.89 126.335 Q1410.77 128.349 1410.44 132.006 L1425.63 131.983 Z" fill="#000000" fill-rule="evenodd" fill-opacity="1" /><path clip-path="url(#clip240)" d="M1441.09 113.974 L1441.09 121.335 L1449.86 121.335 L1449.86 124.645 L1441.09 124.645 L1441.09 138.719 Q1441.09 141.89 1441.95 142.793 Q1442.83 143.696 1445.49 143.696 L1449.86 143.696 L1449.86 147.261 L1445.49 147.261 Q1440.56 147.261 1438.68 145.432 Q1436.81 143.58 1436.81 138.719 L1436.81 124.645 L1433.68 124.645 L1433.68 121.335 L1436.81 121.335 L1436.81 113.974 L1441.09 113.974 Z" fill="#000000" fill-rule="evenodd" fill-opacity="1" /><path clip-path="url(#clip240)" d="M1477.64 133.233 L1477.64 135.316 L1458.06 135.316 Q1458.33 139.714 1460.7 142.029 Q1463.08 144.321 1467.32 144.321 Q1469.77 144.321 1472.06 143.719 Q1474.38 143.117 1476.64 141.913 L1476.64 145.941 Q1474.35 146.913 1471.95 147.423 Q1469.54 147.932 1467.06 147.932 Q1460.86 147.932 1457.22 144.321 Q1453.61 140.71 1453.61 134.552 Q1453.61 128.187 1457.04 124.46 Q1460.49 120.71 1466.32 120.71 Q1471.55 120.71 1474.58 124.089 Q1477.64 127.446 1477.64 133.233 M1473.38 131.983 Q1473.33 128.488 1471.41 126.404 Q1469.51 124.321 1466.37 124.321 Q1462.8 124.321 1460.65 126.335 Q1458.52 128.349 1458.2 132.006 L1473.38 131.983 Z" fill="#000000" fill-rule="evenodd" fill-opacity="1" /><path clip-path="url(#clip240)" d="
M200.665 2174.14 L1552.76 2174.14 L1552.76 1247.24 L200.665 1247.24  Z
  " fill="#ffffff" fill-rule="evenodd" fill-opacity="1"/>
<defs>
  <clipPath id="clip243">
    <rect x="200" y="1247" width="1353" height="928"/>
  </clipPath>
</defs>
<polyline clip-path="url(#clip243)" style="stroke:#000000; stroke-linecap:butt; stroke-linejoin:round; stroke-width:2; stroke-opacity:0.1; fill:none" points="
  239.469,2174.14 239.469,1247.24 
  "/>
<polyline clip-path="url(#clip243)" style="stroke:#000000; stroke-linecap:butt; stroke-linejoin:round; stroke-width:2; stroke-opacity:0.1; fill:none" points="
  542.494,2174.14 542.494,1247.24 
  "/>
<polyline clip-path="url(#clip243)" style="stroke:#000000; stroke-linecap:butt; stroke-linejoin:round; stroke-width:2; stroke-opacity:0.1; fill:none" points="
  845.518,2174.14 845.518,1247.24 
  "/>
<polyline clip-path="url(#clip243)" style="stroke:#000000; stroke-linecap:butt; stroke-linejoin:round; stroke-width:2; stroke-opacity:0.1; fill:none" points="
  1148.54,2174.14 1148.54,1247.24 
  "/>
<polyline clip-path="url(#clip243)" style="stroke:#000000; stroke-linecap:butt; stroke-linejoin:round; stroke-width:2; stroke-opacity:0.1; fill:none" points="
  1451.57,2174.14 1451.57,1247.24 
  "/>
<polyline clip-path="url(#clip240)" style="stroke:#000000; stroke-linecap:butt; stroke-linejoin:round; stroke-width:4; stroke-opacity:1; fill:none" points="
  200.665,2174.14 1552.76,2174.14 
  "/>
<polyline clip-path="url(#clip240)" style="stroke:#000000; stroke-linecap:butt; stroke-linejoin:round; stroke-width:4; stroke-opacity:1; fill:none" points="
  239.469,2174.14 239.469,2155.24 
  "/>
<polyline clip-path="url(#clip240)" style="stroke:#000000; stroke-linecap:butt; stroke-linejoin:round; stroke-width:4; stroke-opacity:1; fill:none" points="
  542.494,2174.14 542.494,2155.24 
  "/>
<polyline clip-path="url(#clip240)" style="stroke:#000000; stroke-linecap:butt; stroke-linejoin:round; stroke-width:4; stroke-opacity:1; fill:none" points="
  845.518,2174.14 845.518,2155.24 
  "/>
<polyline clip-path="url(#clip240)" style="stroke:#000000; stroke-linecap:butt; stroke-linejoin:round; stroke-width:4; stroke-opacity:1; fill:none" points="
  1148.54,2174.14 1148.54,2155.24 
  "/>
<polyline clip-path="url(#clip240)" style="stroke:#000000; stroke-linecap:butt; stroke-linejoin:round; stroke-width:4; stroke-opacity:1; fill:none" points="
  1451.57,2174.14 1451.57,2155.24 
  "/>
<path clip-path="url(#clip240)" d="M239.469 2205.06 Q235.858 2205.06 234.029 2208.62 Q232.224 2212.16 232.224 2219.29 Q232.224 2226.4 234.029 2229.97 Q235.858 2233.51 239.469 2233.51 Q243.103 2233.51 244.909 2229.97 Q246.738 2226.4 246.738 2219.29 Q246.738 2212.16 244.909 2208.62 Q243.103 2205.06 239.469 2205.06 M239.469 2201.35 Q245.279 2201.35 248.335 2205.96 Q251.414 2210.54 251.414 2219.29 Q251.414 2228.02 248.335 2232.63 Q245.279 2237.21 239.469 2237.21 Q233.659 2237.21 230.58 2232.63 Q227.525 2228.02 227.525 2219.29 Q227.525 2210.54 230.58 2205.96 Q233.659 2201.35 239.469 2201.35 Z" fill="#000000" fill-rule="evenodd" fill-opacity="1" /><path clip-path="url(#clip240)" d="M517.193 2201.98 L535.549 2201.98 L535.549 2205.92 L521.475 2205.92 L521.475 2214.39 Q522.494 2214.04 523.512 2213.88 Q524.531 2213.69 525.549 2213.69 Q531.336 2213.69 534.716 2216.86 Q538.096 2220.04 538.096 2225.45 Q538.096 2231.03 534.623 2234.13 Q531.151 2237.21 524.832 2237.21 Q522.656 2237.21 520.387 2236.84 Q518.142 2236.47 515.735 2235.73 L515.735 2231.03 Q517.818 2232.16 520.04 2232.72 Q522.262 2233.28 524.739 2233.28 Q528.744 2233.28 531.082 2231.17 Q533.42 2229.06 533.42 2225.45 Q533.42 2221.84 531.082 2219.73 Q528.744 2217.63 524.739 2217.63 Q522.864 2217.63 520.989 2218.04 Q519.137 2218.46 517.193 2219.34 L517.193 2201.98 Z" fill="#000000" fill-rule="evenodd" fill-opacity="1" /><path clip-path="url(#clip240)" d="M557.308 2205.06 Q553.697 2205.06 551.869 2208.62 Q550.063 2212.16 550.063 2219.29 Q550.063 2226.4 551.869 2229.97 Q553.697 2233.51 557.308 2233.51 Q560.943 2233.51 562.748 2229.97 Q564.577 2226.4 564.577 2219.29 Q564.577 2212.16 562.748 2208.62 Q560.943 2205.06 557.308 2205.06 M557.308 2201.35 Q563.119 2201.35 566.174 2205.96 Q569.253 2210.54 569.253 2219.29 Q569.253 2228.02 566.174 2232.63 Q563.119 2237.21 557.308 2237.21 Q551.498 2237.21 548.42 2232.63 Q545.364 2228.02 545.364 2219.29 Q545.364 2210.54 548.42 2205.96 Q551.498 2201.35 557.308 2201.35 Z" fill="#000000" fill-rule="evenodd" fill-opacity="1" /><path clip-path="url(#clip240)" d="M805.125 2232.6 L812.764 2232.6 L812.764 2206.24 L804.454 2207.91 L804.454 2203.65 L812.718 2201.98 L817.393 2201.98 L817.393 2232.6 L825.032 2232.6 L825.032 2236.54 L805.125 2236.54 L805.125 2232.6 Z" fill="#000000" fill-rule="evenodd" fill-opacity="1" /><path clip-path="url(#clip240)" d="M844.477 2205.06 Q840.866 2205.06 839.037 2208.62 Q837.231 2212.16 837.231 2219.29 Q837.231 2226.4 839.037 2229.97 Q840.866 2233.51 844.477 2233.51 Q848.111 2233.51 849.916 2229.97 Q851.745 2226.4 851.745 2219.29 Q851.745 2212.16 849.916 2208.62 Q848.111 2205.06 844.477 2205.06 M844.477 2201.35 Q850.287 2201.35 853.342 2205.96 Q856.421 2210.54 856.421 2219.29 Q856.421 2228.02 853.342 2232.63 Q850.287 2237.21 844.477 2237.21 Q838.666 2237.21 835.588 2232.63 Q832.532 2228.02 832.532 2219.29 Q832.532 2210.54 835.588 2205.96 Q838.666 2201.35 844.477 2201.35 Z" fill="#000000" fill-rule="evenodd" fill-opacity="1" /><path clip-path="url(#clip240)" d="M874.639 2205.06 Q871.027 2205.06 869.199 2208.62 Q867.393 2212.16 867.393 2219.29 Q867.393 2226.4 869.199 2229.97 Q871.027 2233.51 874.639 2233.51 Q878.273 2233.51 880.078 2229.97 Q881.907 2226.4 881.907 2219.29 Q881.907 2212.16 880.078 2208.62 Q878.273 2205.06 874.639 2205.06 M874.639 2201.35 Q880.449 2201.35 883.504 2205.96 Q886.583 2210.54 886.583 2219.29 Q886.583 2228.02 883.504 2232.63 Q880.449 2237.21 874.639 2237.21 Q868.828 2237.21 865.75 2232.63 Q862.694 2228.02 862.694 2219.29 Q862.694 2210.54 865.75 2205.96 Q868.828 2201.35 874.639 2201.35 Z" fill="#000000" fill-rule="evenodd" fill-opacity="1" /><path clip-path="url(#clip240)" d="M1108.15 2232.6 L1115.79 2232.6 L1115.79 2206.24 L1107.48 2207.91 L1107.48 2203.65 L1115.74 2201.98 L1120.42 2201.98 L1120.42 2232.6 L1128.06 2232.6 L1128.06 2236.54 L1108.15 2236.54 L1108.15 2232.6 Z" fill="#000000" fill-rule="evenodd" fill-opacity="1" /><path clip-path="url(#clip240)" d="M1137.55 2201.98 L1155.9 2201.98 L1155.9 2205.92 L1141.83 2205.92 L1141.83 2214.39 Q1142.85 2214.04 1143.87 2213.88 Q1144.89 2213.69 1145.9 2213.69 Q1151.69 2213.69 1155.07 2216.86 Q1158.45 2220.04 1158.45 2225.45 Q1158.45 2231.03 1154.98 2234.13 Q1151.51 2237.21 1145.19 2237.21 Q1143.01 2237.21 1140.74 2236.84 Q1138.5 2236.47 1136.09 2235.73 L1136.09 2231.03 Q1138.17 2232.16 1140.39 2232.72 Q1142.62 2233.28 1145.09 2233.28 Q1149.1 2233.28 1151.44 2231.17 Q1153.77 2229.06 1153.77 2225.45 Q1153.77 2221.84 1151.44 2219.73 Q1149.1 2217.63 1145.09 2217.63 Q1143.22 2217.63 1141.34 2218.04 Q1139.49 2218.46 1137.55 2219.34 L1137.55 2201.98 Z" fill="#000000" fill-rule="evenodd" fill-opacity="1" /><path clip-path="url(#clip240)" d="M1177.66 2205.06 Q1174.05 2205.06 1172.22 2208.62 Q1170.42 2212.16 1170.42 2219.29 Q1170.42 2226.4 1172.22 2229.97 Q1174.05 2233.51 1177.66 2233.51 Q1181.3 2233.51 1183.1 2229.97 Q1184.93 2226.4 1184.93 2219.29 Q1184.93 2212.16 1183.1 2208.62 Q1181.3 2205.06 1177.66 2205.06 M1177.66 2201.35 Q1183.47 2201.35 1186.53 2205.96 Q1189.61 2210.54 1189.61 2219.29 Q1189.61 2228.02 1186.53 2232.63 Q1183.47 2237.21 1177.66 2237.21 Q1171.85 2237.21 1168.77 2232.63 Q1165.72 2228.02 1165.72 2219.29 Q1165.72 2210.54 1168.77 2205.96 Q1171.85 2201.35 1177.66 2201.35 Z" fill="#000000" fill-rule="evenodd" fill-opacity="1" /><path clip-path="url(#clip240)" d="M1415.26 2232.6 L1431.58 2232.6 L1431.58 2236.54 L1409.63 2236.54 L1409.63 2232.6 Q1412.3 2229.85 1416.88 2225.22 Q1421.49 2220.57 1422.67 2219.23 Q1424.91 2216.7 1425.79 2214.97 Q1426.69 2213.21 1426.69 2211.52 Q1426.69 2208.76 1424.75 2207.03 Q1422.83 2205.29 1419.73 2205.29 Q1417.53 2205.29 1415.07 2206.05 Q1412.64 2206.82 1409.87 2208.37 L1409.87 2203.65 Q1412.69 2202.51 1415.14 2201.93 Q1417.6 2201.35 1419.63 2201.35 Q1425 2201.35 1428.2 2204.04 Q1431.39 2206.73 1431.39 2211.22 Q1431.39 2213.35 1430.58 2215.27 Q1429.8 2217.16 1427.69 2219.76 Q1427.11 2220.43 1424.01 2223.65 Q1420.91 2226.84 1415.26 2232.6 Z" fill="#000000" fill-rule="evenodd" fill-opacity="1" /><path clip-path="url(#clip240)" d="M1451.39 2205.06 Q1447.78 2205.06 1445.95 2208.62 Q1444.15 2212.16 1444.15 2219.29 Q1444.15 2226.4 1445.95 2229.97 Q1447.78 2233.51 1451.39 2233.51 Q1455.03 2233.51 1456.83 2229.97 Q1458.66 2226.4 1458.66 2219.29 Q1458.66 2212.16 1456.83 2208.62 Q1455.03 2205.06 1451.39 2205.06 M1451.39 2201.35 Q1457.2 2201.35 1460.26 2205.96 Q1463.34 2210.54 1463.34 2219.29 Q1463.34 2228.02 1460.26 2232.63 Q1457.2 2237.21 1451.39 2237.21 Q1445.58 2237.21 1442.5 2232.63 Q1439.45 2228.02 1439.45 2219.29 Q1439.45 2210.54 1442.5 2205.96 Q1445.58 2201.35 1451.39 2201.35 Z" fill="#000000" fill-rule="evenodd" fill-opacity="1" /><path clip-path="url(#clip240)" d="M1481.56 2205.06 Q1477.94 2205.06 1476.12 2208.62 Q1474.31 2212.16 1474.31 2219.29 Q1474.31 2226.4 1476.12 2229.97 Q1477.94 2233.51 1481.56 2233.51 Q1485.19 2233.51 1487 2229.97 Q1488.82 2226.4 1488.82 2219.29 Q1488.82 2212.16 1487 2208.62 Q1485.19 2205.06 1481.56 2205.06 M1481.56 2201.35 Q1487.37 2201.35 1490.42 2205.96 Q1493.5 2210.54 1493.5 2219.29 Q1493.5 2228.02 1490.42 2232.63 Q1487.37 2237.21 1481.56 2237.21 Q1475.75 2237.21 1472.67 2232.63 Q1469.61 2228.02 1469.61 2219.29 Q1469.61 2210.54 1472.67 2205.96 Q1475.75 2201.35 1481.56 2201.35 Z" fill="#000000" fill-rule="evenodd" fill-opacity="1" /><path clip-path="url(#clip240)" d="M686.694 2271.48 L693.123 2271.48 L693.123 2290.96 L716.486 2290.96 L716.486 2271.48 L722.915 2271.48 L722.915 2319 L716.486 2319 L716.486 2296.37 L693.123 2296.37 L693.123 2319 L686.694 2319 L686.694 2271.48 Z" fill="#000000" fill-rule="evenodd" fill-opacity="1" /><path clip-path="url(#clip240)" d="M765.947 2299.72 L765.947 2302.58 L739.02 2302.58 Q739.402 2308.63 742.649 2311.81 Q745.927 2314.96 751.752 2314.96 Q755.125 2314.96 758.276 2314.13 Q761.459 2313.31 764.579 2311.65 L764.579 2317.19 Q761.428 2318.53 758.117 2319.23 Q754.807 2319.93 751.402 2319.93 Q742.871 2319.93 737.874 2314.96 Q732.909 2310 732.909 2301.53 Q732.909 2292.78 737.62 2287.65 Q742.362 2282.5 750.383 2282.5 Q757.576 2282.5 761.746 2287.14 Q765.947 2291.76 765.947 2299.72 M760.091 2298 Q760.027 2293.19 757.385 2290.33 Q754.775 2287.46 750.447 2287.46 Q745.545 2287.46 742.585 2290.23 Q739.657 2293 739.211 2298.03 L760.091 2298 Z" fill="#000000" fill-rule="evenodd" fill-opacity="1" /><path clip-path="url(#clip240)" d="M775.559 2283.36 L781.416 2283.36 L781.416 2319 L775.559 2319 L775.559 2283.36 M775.559 2269.48 L781.416 2269.48 L781.416 2276.89 L775.559 2276.89 L775.559 2269.48 Z" fill="#000000" fill-rule="evenodd" fill-opacity="1" /><path clip-path="url(#clip240)" d="M817.127 2300.77 Q817.127 2294.4 814.486 2290.9 Q811.876 2287.4 807.133 2287.4 Q802.423 2287.4 799.781 2290.9 Q797.171 2294.4 797.171 2300.77 Q797.171 2307.1 799.781 2310.6 Q802.423 2314.1 807.133 2314.1 Q811.876 2314.1 814.486 2310.6 Q817.127 2307.1 817.127 2300.77 M822.984 2314.58 Q822.984 2323.68 818.942 2328.11 Q814.899 2332.56 806.56 2332.56 Q803.473 2332.56 800.736 2332.09 Q797.999 2331.64 795.42 2330.68 L795.42 2324.99 Q797.999 2326.39 800.513 2327.06 Q803.027 2327.72 805.637 2327.72 Q811.398 2327.72 814.263 2324.7 Q817.127 2321.71 817.127 2315.63 L817.127 2312.73 Q815.313 2315.88 812.48 2317.44 Q809.648 2319 805.701 2319 Q799.144 2319 795.134 2314.01 Q791.124 2309.01 791.124 2300.77 Q791.124 2292.49 795.134 2287.49 Q799.144 2282.5 805.701 2282.5 Q809.648 2282.5 812.48 2284.06 Q815.313 2285.62 817.127 2288.77 L817.127 2283.36 L822.984 2283.36 L822.984 2314.58 Z" fill="#000000" fill-rule="evenodd" fill-opacity="1" /><path clip-path="url(#clip240)" d="M864.679 2297.49 L864.679 2319 L858.823 2319 L858.823 2297.68 Q858.823 2292.62 856.849 2290.1 Q854.876 2287.59 850.929 2287.59 Q846.187 2287.59 843.45 2290.61 Q840.712 2293.64 840.712 2298.86 L840.712 2319 L834.824 2319 L834.824 2269.48 L840.712 2269.48 L840.712 2288.89 Q842.813 2285.68 845.646 2284.09 Q848.51 2282.5 852.234 2282.5 Q858.377 2282.5 861.528 2286.32 Q864.679 2290.1 864.679 2297.49 Z" fill="#000000" fill-rule="evenodd" fill-opacity="1" /><path clip-path="url(#clip240)" d="M882.153 2273.23 L882.153 2283.36 L894.216 2283.36 L894.216 2287.91 L882.153 2287.91 L882.153 2307.26 Q882.153 2311.62 883.331 2312.86 Q884.54 2314.1 888.201 2314.1 L894.216 2314.1 L894.216 2319 L888.201 2319 Q881.421 2319 878.843 2316.49 Q876.265 2313.94 876.265 2307.26 L876.265 2287.91 L871.968 2287.91 L871.968 2283.36 L876.265 2283.36 L876.265 2273.23 L882.153 2273.23 Z" fill="#000000" fill-rule="evenodd" fill-opacity="1" /><path clip-path="url(#clip240)" d="M922.098 2269.48 L935.593 2269.48 L935.593 2274.03 L927.954 2274.03 L927.954 2323.05 L935.593 2323.05 L935.593 2327.6 L922.098 2327.6 L922.098 2269.48 Z" fill="#000000" fill-rule="evenodd" fill-opacity="1" /><path clip-path="url(#clip240)" d="M947.465 2332.56 L947.465 2283.36 L953.322 2283.36 L953.322 2305.51 Q953.322 2310.12 955.518 2312.48 Q957.714 2314.83 962.011 2314.83 Q966.722 2314.83 969.077 2312.16 Q971.464 2309.49 971.464 2304.14 L971.464 2283.36 L977.32 2283.36 L977.32 2310.79 Q977.32 2312.7 977.862 2313.62 Q978.434 2314.52 979.612 2314.52 Q979.899 2314.52 980.408 2314.36 Q980.917 2314.17 981.808 2313.78 L981.808 2318.49 Q980.503 2319.23 979.326 2319.58 Q978.18 2319.93 977.066 2319.93 Q974.87 2319.93 973.565 2318.69 Q972.26 2317.44 971.782 2314.9 Q970.191 2317.41 967.867 2318.69 Q965.576 2319.93 962.457 2319.93 Q959.21 2319.93 956.918 2318.69 Q954.659 2317.44 953.322 2314.96 L953.322 2332.56 L947.465 2332.56 Z" fill="#000000" fill-rule="evenodd" fill-opacity="1" /><path clip-path="url(#clip240)" d="M1017.3 2290.2 Q1019.49 2286.25 1022.55 2284.37 Q1025.6 2282.5 1029.74 2282.5 Q1035.31 2282.5 1038.34 2286.41 Q1041.36 2290.29 1041.36 2297.49 L1041.36 2319 L1035.47 2319 L1035.47 2297.68 Q1035.47 2292.55 1033.66 2290.07 Q1031.84 2287.59 1028.12 2287.59 Q1023.57 2287.59 1020.93 2290.61 Q1018.28 2293.64 1018.28 2298.86 L1018.28 2319 L1012.4 2319 L1012.4 2297.68 Q1012.4 2292.52 1010.58 2290.07 Q1008.77 2287.59 1004.98 2287.59 Q1000.49 2287.59 997.85 2290.64 Q995.208 2293.67 995.208 2298.86 L995.208 2319 L989.32 2319 L989.32 2283.36 L995.208 2283.36 L995.208 2288.89 Q997.213 2285.62 1000.01 2284.06 Q1002.82 2282.5 1006.67 2282.5 Q1010.55 2282.5 1013.25 2284.47 Q1015.99 2286.44 1017.3 2290.2 Z" fill="#000000" fill-rule="evenodd" fill-opacity="1" /><path clip-path="url(#clip240)" d="M1066.73 2269.48 L1066.73 2327.6 L1053.23 2327.6 L1053.23 2323.05 L1060.84 2323.05 L1060.84 2274.03 L1053.23 2274.03 L1053.23 2269.48 L1066.73 2269.48 Z" fill="#000000" fill-rule="evenodd" fill-opacity="1" /><polyline clip-path="url(#clip243)" style="stroke:#000000; stroke-linecap:butt; stroke-linejoin:round; stroke-width:2; stroke-opacity:0.1; fill:none" points="
  200.665,2007.57 1552.76,2007.57 
  "/>
<polyline clip-path="url(#clip243)" style="stroke:#000000; stroke-linecap:butt; stroke-linejoin:round; stroke-width:2; stroke-opacity:0.1; fill:none" points="
  200.665,1763.59 1552.76,1763.59 
  "/>
<polyline clip-path="url(#clip243)" style="stroke:#000000; stroke-linecap:butt; stroke-linejoin:round; stroke-width:2; stroke-opacity:0.1; fill:none" points="
  200.665,1519.61 1552.76,1519.61 
  "/>
<polyline clip-path="url(#clip243)" style="stroke:#000000; stroke-linecap:butt; stroke-linejoin:round; stroke-width:2; stroke-opacity:0.1; fill:none" points="
  200.665,1275.63 1552.76,1275.63 
  "/>
<polyline clip-path="url(#clip240)" style="stroke:#000000; stroke-linecap:butt; stroke-linejoin:round; stroke-width:4; stroke-opacity:1; fill:none" points="
  200.665,2174.14 200.665,1247.24 
  "/>
<polyline clip-path="url(#clip240)" style="stroke:#000000; stroke-linecap:butt; stroke-linejoin:round; stroke-width:4; stroke-opacity:1; fill:none" points="
  200.665,2007.57 219.563,2007.57 
  "/>
<polyline clip-path="url(#clip240)" style="stroke:#000000; stroke-linecap:butt; stroke-linejoin:round; stroke-width:4; stroke-opacity:1; fill:none" points="
  200.665,1763.59 219.563,1763.59 
  "/>
<polyline clip-path="url(#clip240)" style="stroke:#000000; stroke-linecap:butt; stroke-linejoin:round; stroke-width:4; stroke-opacity:1; fill:none" points="
  200.665,1519.61 219.563,1519.61 
  "/>
<polyline clip-path="url(#clip240)" style="stroke:#000000; stroke-linecap:butt; stroke-linejoin:round; stroke-width:4; stroke-opacity:1; fill:none" points="
  200.665,1275.63 219.563,1275.63 
  "/>
<path clip-path="url(#clip240)" d="M152.721 1993.37 Q149.11 1993.37 147.281 1996.93 Q145.475 2000.48 145.475 2007.61 Q145.475 2014.71 147.281 2018.28 Q149.11 2021.82 152.721 2021.82 Q156.355 2021.82 158.16 2018.28 Q159.989 2014.71 159.989 2007.61 Q159.989 2000.48 158.16 1996.93 Q156.355 1993.37 152.721 1993.37 M152.721 1989.67 Q158.531 1989.67 161.586 1994.27 Q164.665 1998.86 164.665 2007.61 Q164.665 2016.33 161.586 2020.94 Q158.531 2025.52 152.721 2025.52 Q146.91 2025.52 143.832 2020.94 Q140.776 2016.33 140.776 2007.61 Q140.776 1998.86 143.832 1994.27 Q146.91 1989.67 152.721 1989.67 Z" fill="#000000" fill-rule="evenodd" fill-opacity="1" /><path clip-path="url(#clip240)" d="M143.762 1746.31 L162.119 1746.31 L162.119 1750.25 L148.045 1750.25 L148.045 1758.72 Q149.063 1758.37 150.082 1758.21 Q151.1 1758.02 152.119 1758.02 Q157.906 1758.02 161.285 1761.19 Q164.665 1764.37 164.665 1769.78 Q164.665 1775.36 161.193 1778.46 Q157.721 1781.54 151.401 1781.54 Q149.225 1781.54 146.957 1781.17 Q144.711 1780.8 142.304 1780.06 L142.304 1775.36 Q144.387 1776.5 146.61 1777.05 Q148.832 1777.61 151.309 1777.61 Q155.313 1777.61 157.651 1775.5 Q159.989 1773.39 159.989 1769.78 Q159.989 1766.17 157.651 1764.06 Q155.313 1761.96 151.309 1761.96 Q149.434 1761.96 147.559 1762.37 Q145.707 1762.79 143.762 1763.67 L143.762 1746.31 Z" fill="#000000" fill-rule="evenodd" fill-opacity="1" /><path clip-path="url(#clip240)" d="M113.369 1532.95 L121.008 1532.95 L121.008 1506.59 L112.698 1508.26 L112.698 1504 L120.962 1502.33 L125.637 1502.33 L125.637 1532.95 L133.276 1532.95 L133.276 1536.89 L113.369 1536.89 L113.369 1532.95 Z" fill="#000000" fill-rule="evenodd" fill-opacity="1" /><path clip-path="url(#clip240)" d="M152.721 1505.41 Q149.11 1505.41 147.281 1508.97 Q145.475 1512.52 145.475 1519.64 Q145.475 1526.75 147.281 1530.32 Q149.11 1533.86 152.721 1533.86 Q156.355 1533.86 158.16 1530.32 Q159.989 1526.75 159.989 1519.64 Q159.989 1512.52 158.16 1508.97 Q156.355 1505.41 152.721 1505.41 M152.721 1501.7 Q158.531 1501.7 161.586 1506.31 Q164.665 1510.89 164.665 1519.64 Q164.665 1528.37 161.586 1532.98 Q158.531 1537.56 152.721 1537.56 Q146.91 1537.56 143.832 1532.98 Q140.776 1528.37 140.776 1519.64 Q140.776 1510.89 143.832 1506.31 Q146.91 1501.7 152.721 1501.7 Z" fill="#000000" fill-rule="evenodd" fill-opacity="1" /><path clip-path="url(#clip240)" d="M114.364 1288.97 L122.003 1288.97 L122.003 1262.61 L113.693 1264.28 L113.693 1260.02 L121.957 1258.35 L126.633 1258.35 L126.633 1288.97 L134.272 1288.97 L134.272 1292.91 L114.364 1292.91 L114.364 1288.97 Z" fill="#000000" fill-rule="evenodd" fill-opacity="1" /><path clip-path="url(#clip240)" d="M143.762 1258.35 L162.119 1258.35 L162.119 1262.28 L148.045 1262.28 L148.045 1270.76 Q149.063 1270.41 150.082 1270.25 Q151.1 1270.06 152.119 1270.06 Q157.906 1270.06 161.285 1273.23 Q164.665 1276.41 164.665 1281.82 Q164.665 1287.4 161.193 1290.5 Q157.721 1293.58 151.401 1293.58 Q149.225 1293.58 146.957 1293.21 Q144.711 1292.84 142.304 1292.1 L142.304 1287.4 Q144.387 1288.53 146.61 1289.09 Q148.832 1289.65 151.309 1289.65 Q155.313 1289.65 157.651 1287.54 Q159.989 1285.43 159.989 1281.82 Q159.989 1278.21 157.651 1276.1 Q155.313 1274 151.309 1274 Q149.434 1274 147.559 1274.41 Q145.707 1274.83 143.762 1275.71 L143.762 1258.35 Z" fill="#000000" fill-rule="evenodd" fill-opacity="1" /><path clip-path="url(#clip240)" d="M21.2556 1946.18 L57.0945 1959.23 L57.0945 1933.09 L21.2556 1946.18 M62.4417 1967.95 L14.9217 1949.8 L14.9217 1942.52 L62.4417 1924.4 L62.4417 1967.95 Z" fill="#000000" fill-rule="evenodd" fill-opacity="1" /><path clip-path="url(#clip240)" d="M14.9217 1896.75 L14.9217 1890.32 L34.4008 1890.32 L34.4008 1866.95 L14.9217 1866.95 L14.9217 1860.52 L62.4417 1860.52 L62.4417 1866.95 L39.8116 1866.95 L39.8116 1890.32 L62.4417 1890.32 L62.4417 1896.75 L14.9217 1896.75 Z" fill="#000000" fill-rule="evenodd" fill-opacity="1" /><path clip-path="url(#clip240)" d="M43.1536 1817.49 L46.0182 1817.49 L46.0182 1844.42 Q52.0656 1844.04 55.2485 1840.79 Q58.3995 1837.51 58.3995 1831.69 Q58.3995 1828.31 57.572 1825.16 Q56.7444 1821.98 55.0893 1818.86 L60.6275 1818.86 Q61.9643 1822.01 62.6645 1825.32 Q63.3647 1828.63 63.3647 1832.04 Q63.3647 1840.57 58.3995 1845.57 Q53.4342 1850.53 44.9679 1850.53 Q36.215 1850.53 31.0906 1845.82 Q25.9344 1841.08 25.9344 1833.06 Q25.9344 1825.86 30.5814 1821.69 Q35.1965 1817.49 43.1536 1817.49 M41.4349 1823.35 Q36.6288 1823.41 33.7642 1826.05 Q30.8996 1828.66 30.8996 1832.99 Q30.8996 1837.89 33.6687 1840.85 Q36.4378 1843.78 41.4667 1844.23 L41.4349 1823.35 Z" fill="#000000" fill-rule="evenodd" fill-opacity="1" /><path clip-path="url(#clip240)" d="M26.7938 1807.88 L26.7938 1802.02 L62.4417 1802.02 L62.4417 1807.88 L26.7938 1807.88 M12.9165 1807.88 L12.9165 1802.02 L20.3326 1802.02 L20.3326 1807.88 L12.9165 1807.88 Z" fill="#000000" fill-rule="evenodd" fill-opacity="1" /><path clip-path="url(#clip240)" d="M44.204 1766.31 Q37.8383 1766.31 34.3371 1768.95 Q30.836 1771.56 30.836 1776.31 Q30.836 1781.02 34.3371 1783.66 Q37.8383 1786.27 44.204 1786.27 Q50.5378 1786.27 54.039 1783.66 Q57.5401 1781.02 57.5401 1776.31 Q57.5401 1771.56 54.039 1768.95 Q50.5378 1766.31 44.204 1766.31 M58.0176 1760.46 Q67.1205 1760.46 71.5447 1764.5 Q76.0007 1768.54 76.0007 1776.88 Q76.0007 1779.97 75.5232 1782.7 Q75.0776 1785.44 74.1228 1788.02 L68.4255 1788.02 Q69.8259 1785.44 70.4943 1782.93 Q71.1627 1780.41 71.1627 1777.8 Q71.1627 1772.04 68.139 1769.18 Q65.1471 1766.31 59.0679 1766.31 L56.1715 1766.31 Q59.3225 1768.13 60.8821 1770.96 Q62.4417 1773.79 62.4417 1777.74 Q62.4417 1784.3 57.4446 1788.31 Q52.4476 1792.32 44.204 1792.32 Q35.9286 1792.32 30.9315 1788.31 Q25.9344 1784.3 25.9344 1777.74 Q25.9344 1773.79 27.494 1770.96 Q29.0536 1768.13 32.2046 1766.31 L26.7938 1766.31 L26.7938 1760.46 L58.0176 1760.46 Z" fill="#000000" fill-rule="evenodd" fill-opacity="1" /><path clip-path="url(#clip240)" d="M40.9256 1718.76 L62.4417 1718.76 L62.4417 1724.62 L41.1166 1724.62 Q36.0559 1724.62 33.5414 1726.59 Q31.027 1728.56 31.027 1732.51 Q31.027 1737.25 34.0507 1739.99 Q37.0744 1742.73 42.2943 1742.73 L62.4417 1742.73 L62.4417 1748.62 L12.9165 1748.62 L12.9165 1742.73 L32.3319 1742.73 Q29.1172 1740.63 27.5258 1737.79 Q25.9344 1734.93 25.9344 1731.21 Q25.9344 1725.06 29.7538 1721.91 Q33.5414 1718.76 40.9256 1718.76 Z" fill="#000000" fill-rule="evenodd" fill-opacity="1" /><path clip-path="url(#clip240)" d="M16.6723 1701.29 L26.7938 1701.29 L26.7938 1689.22 L31.3452 1689.22 L31.3452 1701.29 L50.697 1701.29 Q55.0575 1701.29 56.2988 1700.11 Q57.5401 1698.9 57.5401 1695.24 L57.5401 1689.22 L62.4417 1689.22 L62.4417 1695.24 Q62.4417 1702.02 59.9273 1704.6 Q57.381 1707.17 50.697 1707.17 L31.3452 1707.17 L31.3452 1711.47 L26.7938 1711.47 L26.7938 1707.17 L16.6723 1707.17 L16.6723 1701.29 Z" fill="#000000" fill-rule="evenodd" fill-opacity="1" /><path clip-path="url(#clip240)" d="M12.9165 1661.34 L12.9165 1647.85 L17.468 1647.85 L17.468 1655.49 L66.4839 1655.49 L66.4839 1647.85 L71.0354 1647.85 L71.0354 1661.34 L12.9165 1661.34 Z" fill="#000000" fill-rule="evenodd" fill-opacity="1" /><path clip-path="url(#clip240)" d="M76.0007 1635.97 L26.7938 1635.97 L26.7938 1630.12 L48.9464 1630.12 Q53.5616 1630.12 55.9169 1627.92 Q58.2722 1625.73 58.2722 1621.43 Q58.2722 1616.72 55.5986 1614.36 Q52.925 1611.98 47.5778 1611.98 L26.7938 1611.98 L26.7938 1606.12 L54.23 1606.12 Q56.1397 1606.12 57.0627 1605.58 Q57.9539 1605.01 57.9539 1603.83 Q57.9539 1603.54 57.7948 1603.03 Q57.6038 1602.52 57.2218 1601.63 L61.9325 1601.63 Q62.6645 1602.94 63.0146 1604.11 Q63.3647 1605.26 63.3647 1606.37 Q63.3647 1608.57 62.1234 1609.88 Q60.8821 1611.18 58.3358 1611.66 Q60.8503 1613.25 62.1234 1615.57 Q63.3647 1617.86 63.3647 1620.98 Q63.3647 1624.23 62.1234 1626.52 Q60.8821 1628.78 58.3995 1630.12 L76.0007 1630.12 L76.0007 1635.97 Z" fill="#000000" fill-rule="evenodd" fill-opacity="1" /><path clip-path="url(#clip240)" d="M33.6369 1566.14 Q29.6902 1563.95 27.8123 1560.89 Q25.9344 1557.84 25.9344 1553.7 Q25.9344 1548.13 29.8493 1545.1 Q33.7324 1542.08 40.9256 1542.08 L62.4417 1542.08 L62.4417 1547.97 L41.1166 1547.97 Q35.9922 1547.97 33.5096 1549.78 Q31.027 1551.6 31.027 1555.32 Q31.027 1559.87 34.0507 1562.51 Q37.0744 1565.16 42.2943 1565.16 L62.4417 1565.16 L62.4417 1571.04 L41.1166 1571.04 Q35.9604 1571.04 33.5096 1572.86 Q31.027 1574.67 31.027 1578.46 Q31.027 1582.95 34.0825 1585.59 Q37.1062 1588.23 42.2943 1588.23 L62.4417 1588.23 L62.4417 1594.12 L26.7938 1594.12 L26.7938 1588.23 L32.3319 1588.23 Q29.0536 1586.23 27.494 1583.43 Q25.9344 1580.62 25.9344 1576.77 Q25.9344 1572.89 27.9078 1570.18 Q29.8811 1567.45 33.6369 1566.14 Z" fill="#000000" fill-rule="evenodd" fill-opacity="1" /><path clip-path="url(#clip240)" d="M14.9217 1519.99 L14.9217 1514.58 L68.4891 1531.13 L68.4891 1536.54 L14.9217 1519.99 Z" fill="#000000" fill-rule="evenodd" fill-opacity="1" /><path clip-path="url(#clip240)" d="M40.9256 1478.81 L62.4417 1478.81 L62.4417 1484.66 L41.1166 1484.66 Q36.0559 1484.66 33.5414 1486.64 Q31.027 1488.61 31.027 1492.56 Q31.027 1497.3 34.0507 1500.03 Q37.0744 1502.77 42.2943 1502.77 L62.4417 1502.77 L62.4417 1508.66 L12.9165 1508.66 L12.9165 1502.77 L32.3319 1502.77 Q29.1172 1500.67 27.5258 1497.84 Q25.9344 1494.97 25.9344 1491.25 Q25.9344 1485.11 29.7538 1481.96 Q33.5414 1478.81 40.9256 1478.81 Z" fill="#000000" fill-rule="evenodd" fill-opacity="1" /><path clip-path="url(#clip240)" d="M12.9165 1453.44 L71.0354 1453.44 L71.0354 1466.93 L66.4839 1466.93 L66.4839 1459.33 L17.468 1459.33 L17.468 1466.93 L12.9165 1466.93 L12.9165 1453.44 Z" fill="#000000" fill-rule="evenodd" fill-opacity="1" /><circle clip-path="url(#clip243)" cx="241.421" cy="2016.34" r="14" fill="#009af9" fill-rule="evenodd" fill-opacity="1" stroke="#000000" stroke-opacity="1" stroke-width="3.2"/>
<circle clip-path="url(#clip243)" cx="241.069" cy="1979.83" r="14" fill="#009af9" fill-rule="evenodd" fill-opacity="1" stroke="#000000" stroke-opacity="1" stroke-width="3.2"/>
<circle clip-path="url(#clip243)" cx="242.182" cy="1962.05" r="14" fill="#009af9" fill-rule="evenodd" fill-opacity="1" stroke="#000000" stroke-opacity="1" stroke-width="3.2"/>
<circle clip-path="url(#clip243)" cx="244.014" cy="2065.35" r="14" fill="#009af9" fill-rule="evenodd" fill-opacity="1" stroke="#000000" stroke-opacity="1" stroke-width="3.2"/>
<circle clip-path="url(#clip243)" cx="241.689" cy="2019.29" r="14" fill="#009af9" fill-rule="evenodd" fill-opacity="1" stroke="#000000" stroke-opacity="1" stroke-width="3.2"/>
<circle clip-path="url(#clip243)" cx="241.217" cy="2064.38" r="14" fill="#009af9" fill-rule="evenodd" fill-opacity="1" stroke="#000000" stroke-opacity="1" stroke-width="3.2"/>
<circle clip-path="url(#clip243)" cx="238.932" cy="1989.88" r="14" fill="#009af9" fill-rule="evenodd" fill-opacity="1" stroke="#000000" stroke-opacity="1" stroke-width="3.2"/>
<circle clip-path="url(#clip243)" cx="239.644" cy="1883.85" r="14" fill="#009af9" fill-rule="evenodd" fill-opacity="1" stroke="#000000" stroke-opacity="1" stroke-width="3.2"/>
<circle clip-path="url(#clip243)" cx="244.629" cy="1948.9" r="14" fill="#009af9" fill-rule="evenodd" fill-opacity="1" stroke="#000000" stroke-opacity="1" stroke-width="3.2"/>
<circle clip-path="url(#clip243)" cx="246.989" cy="1945.77" r="14" fill="#009af9" fill-rule="evenodd" fill-opacity="1" stroke="#000000" stroke-opacity="1" stroke-width="3.2"/>
<circle clip-path="url(#clip243)" cx="249.488" cy="1739.52" r="14" fill="#009af9" fill-rule="evenodd" fill-opacity="1" stroke="#000000" stroke-opacity="1" stroke-width="3.2"/>
<circle clip-path="url(#clip243)" cx="260.271" cy="2090.82" r="14" fill="#009af9" fill-rule="evenodd" fill-opacity="1" stroke="#000000" stroke-opacity="1" stroke-width="3.2"/>
<circle clip-path="url(#clip243)" cx="256.922" cy="1850.93" r="14" fill="#009af9" fill-rule="evenodd" fill-opacity="1" stroke="#000000" stroke-opacity="1" stroke-width="3.2"/>
<circle clip-path="url(#clip243)" cx="263.223" cy="1760.43" r="14" fill="#009af9" fill-rule="evenodd" fill-opacity="1" stroke="#000000" stroke-opacity="1" stroke-width="3.2"/>
<circle clip-path="url(#clip243)" cx="273.182" cy="1845.31" r="14" fill="#009af9" fill-rule="evenodd" fill-opacity="1" stroke="#000000" stroke-opacity="1" stroke-width="3.2"/>
<circle clip-path="url(#clip243)" cx="279.709" cy="1774.79" r="14" fill="#009af9" fill-rule="evenodd" fill-opacity="1" stroke="#000000" stroke-opacity="1" stroke-width="3.2"/>
<circle clip-path="url(#clip243)" cx="292.575" cy="1526.97" r="14" fill="#009af9" fill-rule="evenodd" fill-opacity="1" stroke="#000000" stroke-opacity="1" stroke-width="3.2"/>
<circle clip-path="url(#clip243)" cx="311.676" cy="1491.15" r="14" fill="#009af9" fill-rule="evenodd" fill-opacity="1" stroke="#000000" stroke-opacity="1" stroke-width="3.2"/>
<circle clip-path="url(#clip243)" cx="332.236" cy="1542.22" r="14" fill="#009af9" fill-rule="evenodd" fill-opacity="1" stroke="#000000" stroke-opacity="1" stroke-width="3.2"/>
<circle clip-path="url(#clip243)" cx="350.764" cy="1463.79" r="14" fill="#009af9" fill-rule="evenodd" fill-opacity="1" stroke="#000000" stroke-opacity="1" stroke-width="3.2"/>
<circle clip-path="url(#clip243)" cx="372.376" cy="1364.59" r="14" fill="#009af9" fill-rule="evenodd" fill-opacity="1" stroke="#000000" stroke-opacity="1" stroke-width="3.2"/>
<circle clip-path="url(#clip243)" cx="398.019" cy="1273.48" r="14" fill="#009af9" fill-rule="evenodd" fill-opacity="1" stroke="#000000" stroke-opacity="1" stroke-width="3.2"/>
<circle clip-path="url(#clip243)" cx="427.246" cy="1360.41" r="14" fill="#009af9" fill-rule="evenodd" fill-opacity="1" stroke="#000000" stroke-opacity="1" stroke-width="3.2"/>
<circle clip-path="url(#clip243)" cx="453.011" cy="1319.1" r="14" fill="#009af9" fill-rule="evenodd" fill-opacity="1" stroke="#000000" stroke-opacity="1" stroke-width="3.2"/>
<circle clip-path="url(#clip243)" cx="480.469" cy="1615.94" r="14" fill="#009af9" fill-rule="evenodd" fill-opacity="1" stroke="#000000" stroke-opacity="1" stroke-width="3.2"/>
<circle clip-path="url(#clip243)" cx="496.061" cy="1498.29" r="14" fill="#009af9" fill-rule="evenodd" fill-opacity="1" stroke="#000000" stroke-opacity="1" stroke-width="3.2"/>
<circle clip-path="url(#clip243)" cx="516.408" cy="1381.27" r="14" fill="#009af9" fill-rule="evenodd" fill-opacity="1" stroke="#000000" stroke-opacity="1" stroke-width="3.2"/>
<circle clip-path="url(#clip243)" cx="541.342" cy="1629.6" r="14" fill="#009af9" fill-rule="evenodd" fill-opacity="1" stroke="#000000" stroke-opacity="1" stroke-width="3.2"/>
<circle clip-path="url(#clip243)" cx="556.391" cy="1591.64" r="14" fill="#009af9" fill-rule="evenodd" fill-opacity="1" stroke="#000000" stroke-opacity="1" stroke-width="3.2"/>
<circle clip-path="url(#clip243)" cx="575.476" cy="1534.84" r="14" fill="#009af9" fill-rule="evenodd" fill-opacity="1" stroke="#000000" stroke-opacity="1" stroke-width="3.2"/>
<circle clip-path="url(#clip243)" cx="604.049" cy="1588.9" r="14" fill="#009af9" fill-rule="evenodd" fill-opacity="1" stroke="#000000" stroke-opacity="1" stroke-width="3.2"/>
<circle clip-path="url(#clip243)" cx="629.384" cy="1590.49" r="14" fill="#009af9" fill-rule="evenodd" fill-opacity="1" stroke="#000000" stroke-opacity="1" stroke-width="3.2"/>
<circle clip-path="url(#clip243)" cx="654.623" cy="1635.82" r="14" fill="#009af9" fill-rule="evenodd" fill-opacity="1" stroke="#000000" stroke-opacity="1" stroke-width="3.2"/>
<circle clip-path="url(#clip243)" cx="677.119" cy="1627.52" r="14" fill="#009af9" fill-rule="evenodd" fill-opacity="1" stroke="#000000" stroke-opacity="1" stroke-width="3.2"/>
<circle clip-path="url(#clip243)" cx="700.143" cy="1679.77" r="14" fill="#009af9" fill-rule="evenodd" fill-opacity="1" stroke="#000000" stroke-opacity="1" stroke-width="3.2"/>
<circle clip-path="url(#clip243)" cx="719.98" cy="1650.83" r="14" fill="#009af9" fill-rule="evenodd" fill-opacity="1" stroke="#000000" stroke-opacity="1" stroke-width="3.2"/>
<circle clip-path="url(#clip243)" cx="741.641" cy="1675.89" r="14" fill="#009af9" fill-rule="evenodd" fill-opacity="1" stroke="#000000" stroke-opacity="1" stroke-width="3.2"/>
<circle clip-path="url(#clip243)" cx="761.712" cy="1682.79" r="14" fill="#009af9" fill-rule="evenodd" fill-opacity="1" stroke="#000000" stroke-opacity="1" stroke-width="3.2"/>
<circle clip-path="url(#clip243)" cx="781.343" cy="1702.97" r="14" fill="#009af9" fill-rule="evenodd" fill-opacity="1" stroke="#000000" stroke-opacity="1" stroke-width="3.2"/>
<circle clip-path="url(#clip243)" cx="799.776" cy="1759.46" r="14" fill="#009af9" fill-rule="evenodd" fill-opacity="1" stroke="#000000" stroke-opacity="1" stroke-width="3.2"/>
<circle clip-path="url(#clip243)" cx="814.772" cy="1644.59" r="14" fill="#009af9" fill-rule="evenodd" fill-opacity="1" stroke="#000000" stroke-opacity="1" stroke-width="3.2"/>
<circle clip-path="url(#clip243)" cx="836.737" cy="1690.76" r="14" fill="#009af9" fill-rule="evenodd" fill-opacity="1" stroke="#000000" stroke-opacity="1" stroke-width="3.2"/>
<circle clip-path="url(#clip243)" cx="855.887" cy="1765.91" r="14" fill="#009af9" fill-rule="evenodd" fill-opacity="1" stroke="#000000" stroke-opacity="1" stroke-width="3.2"/>
<circle clip-path="url(#clip243)" cx="870.543" cy="1592.07" r="14" fill="#009af9" fill-rule="evenodd" fill-opacity="1" stroke="#000000" stroke-opacity="1" stroke-width="3.2"/>
<circle clip-path="url(#clip243)" cx="895.658" cy="1881.03" r="14" fill="#009af9" fill-rule="evenodd" fill-opacity="1" stroke="#000000" stroke-opacity="1" stroke-width="3.2"/>
<circle clip-path="url(#clip243)" cx="903.307" cy="1654.18" r="14" fill="#009af9" fill-rule="evenodd" fill-opacity="1" stroke="#000000" stroke-opacity="1" stroke-width="3.2"/>
<circle clip-path="url(#clip243)" cx="924.618" cy="1752.86" r="14" fill="#009af9" fill-rule="evenodd" fill-opacity="1" stroke="#000000" stroke-opacity="1" stroke-width="3.2"/>
<circle clip-path="url(#clip243)" cx="940.014" cy="1797.77" r="14" fill="#009af9" fill-rule="evenodd" fill-opacity="1" stroke="#000000" stroke-opacity="1" stroke-width="3.2"/>
<circle clip-path="url(#clip243)" cx="952.71" cy="1743.55" r="14" fill="#009af9" fill-rule="evenodd" fill-opacity="1" stroke="#000000" stroke-opacity="1" stroke-width="3.2"/>
<circle clip-path="url(#clip243)" cx="968.668" cy="1754.39" r="14" fill="#009af9" fill-rule="evenodd" fill-opacity="1" stroke="#000000" stroke-opacity="1" stroke-width="3.2"/>
<circle clip-path="url(#clip243)" cx="983.971" cy="1679.92" r="14" fill="#009af9" fill-rule="evenodd" fill-opacity="1" stroke="#000000" stroke-opacity="1" stroke-width="3.2"/>
<circle clip-path="url(#clip243)" cx="1003.8" cy="1760.16" r="14" fill="#009af9" fill-rule="evenodd" fill-opacity="1" stroke="#000000" stroke-opacity="1" stroke-width="3.2"/>
<circle clip-path="url(#clip243)" cx="1018.8" cy="1844.25" r="14" fill="#009af9" fill-rule="evenodd" fill-opacity="1" stroke="#000000" stroke-opacity="1" stroke-width="3.2"/>
<circle clip-path="url(#clip243)" cx="1028.71" cy="1797.1" r="14" fill="#009af9" fill-rule="evenodd" fill-opacity="1" stroke="#000000" stroke-opacity="1" stroke-width="3.2"/>
<circle clip-path="url(#clip243)" cx="1041.45" cy="1730.19" r="14" fill="#009af9" fill-rule="evenodd" fill-opacity="1" stroke="#000000" stroke-opacity="1" stroke-width="3.2"/>
<circle clip-path="url(#clip243)" cx="1058.21" cy="1815.76" r="14" fill="#009af9" fill-rule="evenodd" fill-opacity="1" stroke="#000000" stroke-opacity="1" stroke-width="3.2"/>
<circle clip-path="url(#clip243)" cx="1069.82" cy="1690.31" r="14" fill="#009af9" fill-rule="evenodd" fill-opacity="1" stroke="#000000" stroke-opacity="1" stroke-width="3.2"/>
<circle clip-path="url(#clip243)" cx="1088.56" cy="1821.36" r="14" fill="#009af9" fill-rule="evenodd" fill-opacity="1" stroke="#000000" stroke-opacity="1" stroke-width="3.2"/>
<circle clip-path="url(#clip243)" cx="1099.83" cy="1828.82" r="14" fill="#009af9" fill-rule="evenodd" fill-opacity="1" stroke="#000000" stroke-opacity="1" stroke-width="3.2"/>
<circle clip-path="url(#clip243)" cx="1110.64" cy="1740.97" r="14" fill="#009af9" fill-rule="evenodd" fill-opacity="1" stroke="#000000" stroke-opacity="1" stroke-width="3.2"/>
<circle clip-path="url(#clip243)" cx="1126.79" cy="1790.54" r="14" fill="#009af9" fill-rule="evenodd" fill-opacity="1" stroke="#000000" stroke-opacity="1" stroke-width="3.2"/>
<circle clip-path="url(#clip243)" cx="1139.97" cy="1885.5" r="14" fill="#009af9" fill-rule="evenodd" fill-opacity="1" stroke="#000000" stroke-opacity="1" stroke-width="3.2"/>
<circle clip-path="url(#clip243)" cx="1147.37" cy="1792.56" r="14" fill="#009af9" fill-rule="evenodd" fill-opacity="1" stroke="#000000" stroke-opacity="1" stroke-width="3.2"/>
<circle clip-path="url(#clip243)" cx="1160.39" cy="1815.08" r="14" fill="#009af9" fill-rule="evenodd" fill-opacity="1" stroke="#000000" stroke-opacity="1" stroke-width="3.2"/>
<circle clip-path="url(#clip243)" cx="1172.05" cy="1757.83" r="14" fill="#009af9" fill-rule="evenodd" fill-opacity="1" stroke="#000000" stroke-opacity="1" stroke-width="3.2"/>
<circle clip-path="url(#clip243)" cx="1187.18" cy="1775.84" r="14" fill="#009af9" fill-rule="evenodd" fill-opacity="1" stroke="#000000" stroke-opacity="1" stroke-width="3.2"/>
<circle clip-path="url(#clip243)" cx="1201.24" cy="1817.02" r="14" fill="#009af9" fill-rule="evenodd" fill-opacity="1" stroke="#000000" stroke-opacity="1" stroke-width="3.2"/>
<circle clip-path="url(#clip243)" cx="1212.77" cy="1976.66" r="14" fill="#009af9" fill-rule="evenodd" fill-opacity="1" stroke="#000000" stroke-opacity="1" stroke-width="3.2"/>
<circle clip-path="url(#clip243)" cx="1214.64" cy="1776.8" r="14" fill="#009af9" fill-rule="evenodd" fill-opacity="1" stroke="#000000" stroke-opacity="1" stroke-width="3.2"/>
<circle clip-path="url(#clip243)" cx="1228.64" cy="1846.16" r="14" fill="#009af9" fill-rule="evenodd" fill-opacity="1" stroke="#000000" stroke-opacity="1" stroke-width="3.2"/>
<circle clip-path="url(#clip243)" cx="1238.43" cy="1705.74" r="14" fill="#009af9" fill-rule="evenodd" fill-opacity="1" stroke="#000000" stroke-opacity="1" stroke-width="3.2"/>
<circle clip-path="url(#clip243)" cx="1256.78" cy="1930.08" r="14" fill="#009af9" fill-rule="evenodd" fill-opacity="1" stroke="#000000" stroke-opacity="1" stroke-width="3.2"/>
<circle clip-path="url(#clip243)" cx="1261.48" cy="1869.24" r="14" fill="#009af9" fill-rule="evenodd" fill-opacity="1" stroke="#000000" stroke-opacity="1" stroke-width="3.2"/>
<circle clip-path="url(#clip243)" cx="1269.86" cy="1743.81" r="14" fill="#009af9" fill-rule="evenodd" fill-opacity="1" stroke="#000000" stroke-opacity="1" stroke-width="3.2"/>
<circle clip-path="url(#clip243)" cx="1285.86" cy="1887.3" r="14" fill="#009af9" fill-rule="evenodd" fill-opacity="1" stroke="#000000" stroke-opacity="1" stroke-width="3.2"/>
<circle clip-path="url(#clip243)" cx="1293.14" cy="1883.04" r="14" fill="#009af9" fill-rule="evenodd" fill-opacity="1" stroke="#000000" stroke-opacity="1" stroke-width="3.2"/>
<circle clip-path="url(#clip243)" cx="1300.69" cy="1935.99" r="14" fill="#009af9" fill-rule="evenodd" fill-opacity="1" stroke="#000000" stroke-opacity="1" stroke-width="3.2"/>
<circle clip-path="url(#clip243)" cx="1305.02" cy="2060.93" r="14" fill="#009af9" fill-rule="evenodd" fill-opacity="1" stroke="#000000" stroke-opacity="1" stroke-width="3.2"/>
<circle clip-path="url(#clip243)" cx="1301.12" cy="1896.31" r="14" fill="#009af9" fill-rule="evenodd" fill-opacity="1" stroke="#000000" stroke-opacity="1" stroke-width="3.2"/>
<circle clip-path="url(#clip243)" cx="1309.93" cy="1920.06" r="14" fill="#009af9" fill-rule="evenodd" fill-opacity="1" stroke="#000000" stroke-opacity="1" stroke-width="3.2"/>
<circle clip-path="url(#clip243)" cx="1317.32" cy="1908.94" r="14" fill="#009af9" fill-rule="evenodd" fill-opacity="1" stroke="#000000" stroke-opacity="1" stroke-width="3.2"/>
<circle clip-path="url(#clip243)" cx="1325.64" cy="1756.78" r="14" fill="#009af9" fill-rule="evenodd" fill-opacity="1" stroke="#000000" stroke-opacity="1" stroke-width="3.2"/>
<circle clip-path="url(#clip243)" cx="1346.79" cy="1915.61" r="14" fill="#009af9" fill-rule="evenodd" fill-opacity="1" stroke="#000000" stroke-opacity="1" stroke-width="3.2"/>
<circle clip-path="url(#clip243)" cx="1354.54" cy="1883.38" r="14" fill="#009af9" fill-rule="evenodd" fill-opacity="1" stroke="#000000" stroke-opacity="1" stroke-width="3.2"/>
<circle clip-path="url(#clip243)" cx="1365.02" cy="1865.67" r="14" fill="#009af9" fill-rule="evenodd" fill-opacity="1" stroke="#000000" stroke-opacity="1" stroke-width="3.2"/>
<circle clip-path="url(#clip243)" cx="1376.98" cy="1853.72" r="14" fill="#009af9" fill-rule="evenodd" fill-opacity="1" stroke="#000000" stroke-opacity="1" stroke-width="3.2"/>
<circle clip-path="url(#clip243)" cx="1389.99" cy="2011.83" r="14" fill="#009af9" fill-rule="evenodd" fill-opacity="1" stroke="#000000" stroke-opacity="1" stroke-width="3.2"/>
<circle clip-path="url(#clip243)" cx="1389.63" cy="1744.87" r="14" fill="#009af9" fill-rule="evenodd" fill-opacity="1" stroke="#000000" stroke-opacity="1" stroke-width="3.2"/>
<circle clip-path="url(#clip243)" cx="1411.78" cy="1866.28" r="14" fill="#009af9" fill-rule="evenodd" fill-opacity="1" stroke="#000000" stroke-opacity="1" stroke-width="3.2"/>
<circle clip-path="url(#clip243)" cx="1423.7" cy="1791.7" r="14" fill="#009af9" fill-rule="evenodd" fill-opacity="1" stroke="#000000" stroke-opacity="1" stroke-width="3.2"/>
<circle clip-path="url(#clip243)" cx="1441.89" cy="1988.75" r="14" fill="#009af9" fill-rule="evenodd" fill-opacity="1" stroke="#000000" stroke-opacity="1" stroke-width="3.2"/>
<circle clip-path="url(#clip243)" cx="1443.48" cy="1965.78" r="14" fill="#009af9" fill-rule="evenodd" fill-opacity="1" stroke="#000000" stroke-opacity="1" stroke-width="3.2"/>
<circle clip-path="url(#clip243)" cx="1447" cy="1962.74" r="14" fill="#009af9" fill-rule="evenodd" fill-opacity="1" stroke="#000000" stroke-opacity="1" stroke-width="3.2"/>
<circle clip-path="url(#clip243)" cx="1450.78" cy="1945.2" r="14" fill="#009af9" fill-rule="evenodd" fill-opacity="1" stroke="#000000" stroke-opacity="1" stroke-width="3.2"/>
<circle clip-path="url(#clip243)" cx="1456.04" cy="1991.58" r="14" fill="#009af9" fill-rule="evenodd" fill-opacity="1" stroke="#000000" stroke-opacity="1" stroke-width="3.2"/>
<circle clip-path="url(#clip243)" cx="1457.39" cy="1702.38" r="14" fill="#009af9" fill-rule="evenodd" fill-opacity="1" stroke="#000000" stroke-opacity="1" stroke-width="3.2"/>
<circle clip-path="url(#clip243)" cx="1483.1" cy="1706.88" r="14" fill="#009af9" fill-rule="evenodd" fill-opacity="1" stroke="#000000" stroke-opacity="1" stroke-width="3.2"/>
<circle clip-path="url(#clip243)" cx="1508.47" cy="1936.21" r="14" fill="#009af9" fill-rule="evenodd" fill-opacity="1" stroke="#000000" stroke-opacity="1" stroke-width="3.2"/>
<circle clip-path="url(#clip243)" cx="1514.49" cy="2147.91" r="14" fill="#009af9" fill-rule="evenodd" fill-opacity="1" stroke="#000000" stroke-opacity="1" stroke-width="3.2"/>
</svg>
