<?xml version="1.0" encoding="utf-8"?>
<svg xmlns="http://www.w3.org/2000/svg" xmlns:xlink="http://www.w3.org/1999/xlink" width="700" height="80" viewBox="0 0 2800 320">
<defs>
  <clipPath id="clip950">
    <rect x="0" y="0" width="2800" height="320"/>
  </clipPath>
</defs>
<path clip-path="url(#clip950)" d="
M0 320 L2800 320 L2800 0 L0 0  Z
  " fill="#ffffff" fill-rule="evenodd" fill-opacity="1"/>
<defs>
  <clipPath id="clip951">
    <rect x="560" y="0" width="1961" height="320"/>
  </clipPath>
</defs>
<path clip-path="url(#clip950)" d="
M214.363 216.387 L896.089 216.387 L896.089 47.2441 L214.363 47.2441  Z
  " fill="#ffffff" fill-rule="evenodd" fill-opacity="1"/>
<defs>
  <clipPath id="clip952">
    <rect x="214" y="47" width="683" height="170"/>
  </clipPath>
</defs>
<polyline clip-path="url(#clip952)" style="stroke:#000000; stroke-linecap:butt; stroke-linejoin:round; stroke-width:2; stroke-opacity:0.1; fill:none" points="
  227.244,216.387 227.244,47.2441 
  "/>
<polyline clip-path="url(#clip952)" style="stroke:#000000; stroke-linecap:butt; stroke-linejoin:round; stroke-width:2; stroke-opacity:0.1; fill:none" points="
  363.694,216.387 363.694,47.2441 
  "/>
<polyline clip-path="url(#clip952)" style="stroke:#000000; stroke-linecap:butt; stroke-linejoin:round; stroke-width:2; stroke-opacity:0.1; fill:none" points="
  500.145,216.387 500.145,47.2441 
  "/>
<polyline clip-path="url(#clip952)" style="stroke:#000000; stroke-linecap:butt; stroke-linejoin:round; stroke-width:2; stroke-opacity:0.1; fill:none" points="
  636.596,216.387 636.596,47.2441 
  "/>
<polyline clip-path="url(#clip952)" style="stroke:#000000; stroke-linecap:butt; stroke-linejoin:round; stroke-width:2; stroke-opacity:0.1; fill:none" points="
  773.047,216.387 773.047,47.2441 
  "/>
<polyline clip-path="url(#clip950)" style="stroke:#000000; stroke-linecap:butt; stroke-linejoin:round; stroke-width:4; stroke-opacity:1; fill:none" points="
  214.363,216.387 896.089,216.387 
  "/>
<polyline clip-path="url(#clip950)" style="stroke:#000000; stroke-linecap:butt; stroke-linejoin:round; stroke-width:4; stroke-opacity:1; fill:none" points="
  227.244,216.387 227.244,197.49 
  "/>
<polyline clip-path="url(#clip950)" style="stroke:#000000; stroke-linecap:butt; stroke-linejoin:round; stroke-width:4; stroke-opacity:1; fill:none" points="
  363.694,216.387 363.694,197.49 
  "/>
<polyline clip-path="url(#clip950)" style="stroke:#000000; stroke-linecap:butt; stroke-linejoin:round; stroke-width:4; stroke-opacity:1; fill:none" points="
  500.145,216.387 500.145,197.49 
  "/>
<polyline clip-path="url(#clip950)" style="stroke:#000000; stroke-linecap:butt; stroke-linejoin:round; stroke-width:4; stroke-opacity:1; fill:none" points="
  636.596,216.387 636.596,197.49 
  "/>
<polyline clip-path="url(#clip950)" style="stroke:#000000; stroke-linecap:butt; stroke-linejoin:round; stroke-width:4; stroke-opacity:1; fill:none" points="
  773.047,216.387 773.047,197.49 
  "/>
<path clip-path="url(#clip950)" d="M227.244 250.506 Q223.633 250.506 221.804 254.071 Q219.998 257.612 219.998 264.742 Q219.998 271.848 221.804 275.413 Q223.633 278.955 227.244 278.955 Q230.878 278.955 232.683 275.413 Q234.512 271.848 234.512 264.742 Q234.512 257.612 232.683 254.071 Q230.878 250.506 227.244 250.506 M227.244 246.802 Q233.054 246.802 236.109 251.409 Q239.188 255.992 239.188 264.742 Q239.188 273.469 236.109 278.075 Q233.054 282.659 227.244 282.659 Q221.433 282.659 218.355 278.075 Q215.299 273.469 215.299 264.742 Q215.299 255.992 218.355 251.409 Q221.433 246.802 227.244 246.802 Z" fill="#000000" fill-rule="evenodd" fill-opacity="1" /><path clip-path="url(#clip950)" d="M338.382 278.052 L346.021 278.052 L346.021 251.686 L337.711 253.353 L337.711 249.094 L345.975 247.427 L350.651 247.427 L350.651 278.052 L358.289 278.052 L358.289 281.987 L338.382 281.987 L338.382 278.052 Z" fill="#000000" fill-rule="evenodd" fill-opacity="1" /><path clip-path="url(#clip950)" d="M377.734 250.506 Q374.123 250.506 372.294 254.071 Q370.488 257.612 370.488 264.742 Q370.488 271.848 372.294 275.413 Q374.123 278.955 377.734 278.955 Q381.368 278.955 383.174 275.413 Q385.002 271.848 385.002 264.742 Q385.002 257.612 383.174 254.071 Q381.368 250.506 377.734 250.506 M377.734 246.802 Q383.544 246.802 386.599 251.409 Q389.678 255.992 389.678 264.742 Q389.678 273.469 386.599 278.075 Q383.544 282.659 377.734 282.659 Q371.924 282.659 368.845 278.075 Q365.789 273.469 365.789 264.742 Q365.789 255.992 368.845 251.409 Q371.924 246.802 377.734 246.802 Z" fill="#000000" fill-rule="evenodd" fill-opacity="1" /><path clip-path="url(#clip950)" d="M478.919 278.052 L495.238 278.052 L495.238 281.987 L473.294 281.987 L473.294 278.052 Q475.956 275.297 480.539 270.668 Q485.145 266.015 486.326 264.673 Q488.571 262.149 489.451 260.413 Q490.354 258.654 490.354 256.964 Q490.354 254.21 488.409 252.474 Q486.488 250.737 483.386 250.737 Q481.187 250.737 478.733 251.501 Q476.303 252.265 473.525 253.816 L473.525 249.094 Q476.349 247.96 478.803 247.381 Q481.257 246.802 483.294 246.802 Q488.664 246.802 491.858 249.487 Q495.053 252.173 495.053 256.663 Q495.053 258.793 494.243 260.714 Q493.456 262.612 491.349 265.205 Q490.77 265.876 487.669 269.094 Q484.567 272.288 478.919 278.052 Z" fill="#000000" fill-rule="evenodd" fill-opacity="1" /><path clip-path="url(#clip950)" d="M515.053 250.506 Q511.442 250.506 509.613 254.071 Q507.807 257.612 507.807 264.742 Q507.807 271.848 509.613 275.413 Q511.442 278.955 515.053 278.955 Q518.687 278.955 520.492 275.413 Q522.321 271.848 522.321 264.742 Q522.321 257.612 520.492 254.071 Q518.687 250.506 515.053 250.506 M515.053 246.802 Q520.863 246.802 523.918 251.409 Q526.997 255.992 526.997 264.742 Q526.997 273.469 523.918 278.075 Q520.863 282.659 515.053 282.659 Q509.242 282.659 506.164 278.075 Q503.108 273.469 503.108 264.742 Q503.108 255.992 506.164 251.409 Q509.242 246.802 515.053 246.802 Z" fill="#000000" fill-rule="evenodd" fill-opacity="1" /><path clip-path="url(#clip950)" d="M625.439 263.353 Q628.795 264.071 630.67 266.339 Q632.568 268.608 632.568 271.941 Q632.568 277.057 629.05 279.858 Q625.531 282.659 619.05 282.659 Q616.874 282.659 614.559 282.219 Q612.268 281.802 609.814 280.946 L609.814 276.432 Q611.758 277.566 614.073 278.145 Q616.388 278.723 618.911 278.723 Q623.309 278.723 625.601 276.987 Q627.916 275.251 627.916 271.941 Q627.916 268.885 625.763 267.173 Q623.633 265.436 619.814 265.436 L615.786 265.436 L615.786 261.594 L619.999 261.594 Q623.448 261.594 625.277 260.228 Q627.105 258.839 627.105 256.247 Q627.105 253.585 625.207 252.173 Q623.332 250.737 619.814 250.737 Q617.893 250.737 615.693 251.154 Q613.494 251.571 610.856 252.45 L610.856 248.284 Q613.518 247.543 615.832 247.173 Q618.17 246.802 620.23 246.802 Q625.555 246.802 628.656 249.233 Q631.758 251.64 631.758 255.761 Q631.758 258.631 630.115 260.622 Q628.471 262.589 625.439 263.353 Z" fill="#000000" fill-rule="evenodd" fill-opacity="1" /><path clip-path="url(#clip950)" d="M651.434 250.506 Q647.823 250.506 645.994 254.071 Q644.189 257.612 644.189 264.742 Q644.189 271.848 645.994 275.413 Q647.823 278.955 651.434 278.955 Q655.068 278.955 656.874 275.413 Q658.702 271.848 658.702 264.742 Q658.702 257.612 656.874 254.071 Q655.068 250.506 651.434 250.506 M651.434 246.802 Q657.244 246.802 660.3 251.409 Q663.378 255.992 663.378 264.742 Q663.378 273.469 660.3 278.075 Q657.244 282.659 651.434 282.659 Q645.624 282.659 642.545 278.075 Q639.49 273.469 639.49 264.742 Q639.49 255.992 642.545 251.409 Q645.624 246.802 651.434 246.802 Z" fill="#000000" fill-rule="evenodd" fill-opacity="1" /><path clip-path="url(#clip950)" d="M761.218 251.501 L749.413 269.95 L761.218 269.95 L761.218 251.501 M759.991 247.427 L765.871 247.427 L765.871 269.95 L770.802 269.95 L770.802 273.839 L765.871 273.839 L765.871 281.987 L761.218 281.987 L761.218 273.839 L745.617 273.839 L745.617 269.325 L759.991 247.427 Z" fill="#000000" fill-rule="evenodd" fill-opacity="1" /><path clip-path="url(#clip950)" d="M788.533 250.506 Q784.922 250.506 783.093 254.071 Q781.288 257.612 781.288 264.742 Q781.288 271.848 783.093 275.413 Q784.922 278.955 788.533 278.955 Q792.167 278.955 793.973 275.413 Q795.801 271.848 795.801 264.742 Q795.801 257.612 793.973 254.071 Q792.167 250.506 788.533 250.506 M788.533 246.802 Q794.343 246.802 797.399 251.409 Q800.477 255.992 800.477 264.742 Q800.477 273.469 797.399 278.075 Q794.343 282.659 788.533 282.659 Q782.723 282.659 779.644 278.075 Q776.589 273.469 776.589 264.742 Q776.589 255.992 779.644 251.409 Q782.723 246.802 788.533 246.802 Z" fill="#000000" fill-rule="evenodd" fill-opacity="1" /><polyline clip-path="url(#clip952)" style="stroke:#000000; stroke-linecap:butt; stroke-linejoin:round; stroke-width:2; stroke-opacity:0.1; fill:none" points="
  214.363,192.684 896.089,192.684 
  "/>
<polyline clip-path="url(#clip952)" style="stroke:#000000; stroke-linecap:butt; stroke-linejoin:round; stroke-width:2; stroke-opacity:0.1; fill:none" points="
  214.363,54.6111 896.089,54.6111 
  "/>
<polyline clip-path="url(#clip950)" style="stroke:#000000; stroke-linecap:butt; stroke-linejoin:round; stroke-width:4; stroke-opacity:1; fill:none" points="
  214.363,216.387 214.363,47.2441 
  "/>
<polyline clip-path="url(#clip950)" style="stroke:#000000; stroke-linecap:butt; stroke-linejoin:round; stroke-width:4; stroke-opacity:1; fill:none" points="
  214.363,192.684 233.26,192.684 
  "/>
<polyline clip-path="url(#clip950)" style="stroke:#000000; stroke-linecap:butt; stroke-linejoin:round; stroke-width:4; stroke-opacity:1; fill:none" points="
  214.363,54.6111 233.26,54.6111 
  "/>
<path clip-path="url(#clip950)" d="M80.4882 193.136 L110.164 193.136 L110.164 197.071 L80.4882 197.071 L80.4882 193.136 Z" fill="#000000" fill-rule="evenodd" fill-opacity="1" /><path clip-path="url(#clip950)" d="M121.067 206.029 L128.706 206.029 L128.706 179.663 L120.395 181.33 L120.395 177.071 L128.659 175.404 L133.335 175.404 L133.335 206.029 L140.974 206.029 L140.974 209.964 L121.067 209.964 L121.067 206.029 Z" fill="#000000" fill-rule="evenodd" fill-opacity="1" /><path clip-path="url(#clip950)" d="M160.418 178.483 Q156.807 178.483 154.979 182.048 Q153.173 185.589 153.173 192.719 Q153.173 199.825 154.979 203.39 Q156.807 206.932 160.418 206.932 Q164.053 206.932 165.858 203.39 Q167.687 199.825 167.687 192.719 Q167.687 185.589 165.858 182.048 Q164.053 178.483 160.418 178.483 M160.418 174.779 Q166.228 174.779 169.284 179.386 Q172.363 183.969 172.363 192.719 Q172.363 201.446 169.284 206.052 Q166.228 210.636 160.418 210.636 Q154.608 210.636 151.529 206.052 Q148.474 201.446 148.474 192.719 Q148.474 183.969 151.529 179.386 Q154.608 174.779 160.418 174.779 Z" fill="#000000" fill-rule="evenodd" fill-opacity="1" /><path clip-path="url(#clip950)" d="M151.46 37.3311 L169.816 37.3311 L169.816 41.2663 L155.742 41.2663 L155.742 49.7385 Q156.761 49.3913 157.779 49.2292 Q158.798 49.044 159.816 49.044 Q165.603 49.044 168.983 52.2153 Q172.363 55.3866 172.363 60.8032 Q172.363 66.3819 168.89 69.4837 Q165.418 72.5624 159.099 72.5624 Q156.923 72.5624 154.654 72.1921 Q152.409 71.8217 150.002 71.081 L150.002 66.3819 Q152.085 67.5162 154.307 68.0717 Q156.529 68.6273 159.006 68.6273 Q163.011 68.6273 165.349 66.5208 Q167.687 64.4143 167.687 60.8032 Q167.687 57.1921 165.349 55.0857 Q163.011 52.9792 159.006 52.9792 Q157.131 52.9792 155.256 53.3959 Q153.404 53.8125 151.46 54.6922 L151.46 37.3311 Z" fill="#000000" fill-rule="evenodd" fill-opacity="1" /><path clip-path="url(#clip952)" d="
M233.657 102.497 L238.842 101.714 L243.208 103.904 L246.961 102.53 L252.078 102.426 L256.49 103.395 L260.947 103.397 L264.563 105.569 L269.066 108.85 L274.183 107.746 
  L278.595 105.233 L283.052 108.014 L287.464 106.794 L291.921 108.178 L296.288 109.2 L300.7 110.896 L306.794 114.374 L311.161 109.854 L315.527 107.038 L319.894 114.296 
  L324.26 116.267 L328.627 113.209 L333.039 108.81 L337.405 107.834 L341.771 108.606 L346.183 113.013 L350.55 108.053 L354.916 105.696 L359.283 108.857 L364.331 107.336 
  L370.972 106.65 L377.612 107.441 L384.299 103.958 L390.894 108.595 L397.58 106.134 L404.22 108.815 L410.906 105.92 L417.502 104.263 L424.188 106.086 L430.828 108.231 
  L437.469 107.402 L444.109 105.701 L450.75 108.499 L457.436 112.819 L464.031 102.137 L470.717 113.911 L477.313 110.487 L483.953 107.922 L490.639 113.679 L497.28 114.162 
  L503.875 110.229 L510.561 111.267 L517.202 120.709 L523.888 118.446 L530.483 113.099 L537.169 114.176 L543.81 112.865 L550.314 113.962 L556.954 114.775 L563.595 115.314 
  L570.281 113.7 L576.922 117.191 L583.562 115.491 L590.248 115.156 L596.889 116.302 L603.575 119.537 L610.17 124.067 L616.856 129.516 L623.542 122.09 L630.183 132.3 
  L636.869 126.295 L643.555 134.805 L650.196 135.228 L656.836 128.474 L663.522 134.05 L670.163 131.101 L676.849 126.872 L683.49 120.839 L691.995 116.343 L700.728 119.169 
  L710.007 118.271 L719.24 122.189 L728.519 130.492 L737.752 132.932 L747.03 129.977 L756.309 135.816 L765.588 137.13 L774.866 124.53 L784.145 137.861 L793.424 141.989 
  L802.657 148.896 L811.935 141.73 L821.169 129.394 L830.402 126.154 L839.68 124.643 L848.959 119.357 L858.238 132.437 L867.516 149.24 L876.795 148.495 L876.795 52.7758 
  L867.516 52.0312 L858.238 68.8344 L848.959 81.9138 L839.68 76.6276 L830.402 75.1165 L821.169 71.8774 L811.935 59.5414 L802.657 52.375 L793.424 59.2816 L784.145 63.4103 
  L774.866 76.7408 L765.588 64.141 L756.309 65.4552 L747.03 71.294 L737.752 68.3389 L728.519 70.779 L719.24 79.0818 L710.007 82.9997 L700.728 82.1021 L691.995 84.9282 
  L683.49 80.4316 L676.849 74.3992 L670.163 70.1704 L663.522 67.2207 L656.836 72.7969 L650.196 66.0435 L643.555 66.4665 L636.869 74.9762 L630.183 68.9714 L623.542 79.1809 
  L616.856 71.7548 L610.17 77.2038 L603.575 81.7345 L596.889 84.9691 L590.248 86.1146 L583.562 85.7804 L576.922 84.08 L570.281 87.5709 L563.595 85.9569 L556.954 86.4965 
  L550.314 87.3095 L543.81 88.4063 L537.169 87.0954 L530.483 88.1716 L523.888 82.8252 L517.202 80.5623 L510.561 90.0043 L503.875 91.0421 L497.28 87.1094 L490.639 87.5922 
  L483.953 93.3492 L477.313 90.7841 L470.717 87.3603 L464.031 99.1345 L457.436 88.4521 L450.75 92.7719 L444.109 95.5697 L437.469 93.869 L430.828 93.0396 L424.188 95.1855 
  L417.502 97.0077 L410.906 95.3511 L404.22 92.4559 L397.58 95.1366 L390.894 92.6757 L384.299 97.3127 L377.612 93.8303 L370.972 94.621 L364.331 93.9353 L359.283 92.4138 
  L354.916 95.5753 L350.55 93.2178 L346.183 88.2578 L341.771 92.665 L337.405 93.4372 L333.039 92.4611 L328.627 88.0616 L324.26 85.0041 L319.894 86.9752 L315.527 94.2334 
  L311.161 91.4172 L306.794 86.8966 L300.7 90.3748 L296.288 92.0712 L291.921 93.0926 L287.464 94.4769 L283.052 93.2571 L278.595 96.0377 L274.183 93.5246 L269.066 92.4214 
  L264.563 95.7018 L260.947 97.874 L256.49 97.8755 L252.078 98.8448 L246.961 98.7414 L243.208 97.3673 L238.842 99.5567 L233.657 98.774  Z
  " fill="#808080" fill-rule="evenodd" fill-opacity="0.5"/>
<polyline clip-path="url(#clip952)" style="stroke:#808080; stroke-linecap:butt; stroke-linejoin:round; stroke-width:4; stroke-opacity:1; fill:none" points="
  233.657,100.636 238.842,100.636 243.208,100.636 246.961,100.636 252.078,100.636 256.49,100.636 260.947,100.636 264.563,100.636 269.066,100.636 274.183,100.636 
  278.595,100.636 283.052,100.636 287.464,100.636 291.921,100.636 296.288,100.636 300.7,100.636 306.794,100.636 311.161,100.636 315.527,100.636 319.894,100.636 
  324.26,100.636 328.627,100.636 333.039,100.636 337.405,100.636 341.771,100.636 346.183,100.636 350.55,100.636 354.916,100.636 359.283,100.636 364.331,100.636 
  370.972,100.636 377.612,100.636 384.299,100.636 390.894,100.636 397.58,100.636 404.22,100.636 410.906,100.636 417.502,100.636 424.188,100.636 430.828,100.636 
  437.469,100.636 444.109,100.636 450.75,100.636 457.436,100.636 464.031,100.636 470.717,100.636 477.313,100.636 483.953,100.636 490.639,100.636 497.28,100.636 
  503.875,100.636 510.561,100.636 517.202,100.636 523.888,100.636 530.483,100.636 537.169,100.636 543.81,100.636 550.314,100.636 556.954,100.636 563.595,100.636 
  570.281,100.636 576.922,100.636 583.562,100.636 590.248,100.636 596.889,100.636 603.575,100.636 610.17,100.636 616.856,100.636 623.542,100.636 630.183,100.636 
  636.869,100.636 643.555,100.636 650.196,100.636 656.836,100.636 663.522,100.636 670.163,100.636 676.849,100.636 683.49,100.636 691.995,100.636 700.728,100.636 
  710.007,100.636 719.24,100.636 728.519,100.636 737.752,100.636 747.03,100.636 756.309,100.636 765.588,100.636 774.866,100.636 784.145,100.636 793.424,100.636 
  802.657,100.636 811.935,100.636 821.169,100.636 830.402,100.636 839.68,100.636 848.959,100.636 858.238,100.636 867.516,100.636 876.795,100.636 
  "/>
<polyline clip-path="url(#clip952)" style="stroke:#0072b2; stroke-linecap:butt; stroke-linejoin:round; stroke-width:8; stroke-opacity:1; fill:none" stroke-dasharray="32, 20" points="
  233.657,100.928 238.842,101.424 243.208,104.004 246.961,103.174 252.078,100.277 256.49,100.302 260.947,102.342 264.563,95.6365 269.066,102.789 274.183,96.7138 
  278.595,97.1231 283.052,106.308 287.464,96.7777 291.921,96.8138 296.288,100.885 300.7,95.9342 306.794,78.6713 311.161,71.2896 315.527,71.6768 319.894,67.3083 
  324.26,79.5984 328.627,83.7317 333.039,96.2293 337.405,104.873 341.771,111.699 346.183,116.805 350.55,116.187 354.916,115.251 359.283,109.998 364.331,112.653 
  370.972,121.231 377.612,116.287 384.299,118.49 390.894,119.427 397.58,120.558 404.22,114.335 410.906,119.578 417.502,113.25 424.188,115.259 430.828,111.823 
  437.469,108.446 444.109,107.02 450.75,110.963 457.436,107.377 464.031,108.193 470.717,103.231 477.313,104.329 483.953,105.495 490.639,98.9497 497.28,95.0272 
  503.875,93.7176 510.561,101.438 517.202,103.339 523.888,93.3384 530.483,92.075 537.169,95.6741 543.81,93.7145 550.314,101.046 556.954,92.0852 563.595,89.8699 
  570.281,91.1739 576.922,96.5256 583.562,93.9309 590.248,94.9233 596.889,94.0704 603.575,95.8748 610.17,98.2739 616.856,96.3638 623.542,91.4709 630.183,95.3344 
  636.869,93.9188 643.555,102.357 650.196,97.8738 656.836,94.1001 663.522,99.4057 670.163,95.7278 676.849,101.544 683.49,102.511 691.995,86.0971 700.728,80.5463 
  710.007,77.762 719.24,71.2757 728.519,79.3051 737.752,76.5296 747.03,81.5673 756.309,82.9609 765.588,87.1412 774.866,87.8887 784.145,95.2434 793.424,100.483 
  802.657,110.191 811.935,109.386 821.169,117.188 830.402,116.97 839.68,117.204 848.959,116.083 858.238,130.083 867.516,140.893 876.795,143.44 
  "/>
<polyline clip-path="url(#clip952)" style="stroke:#0072b2; stroke-linecap:butt; stroke-linejoin:round; stroke-width:8; stroke-opacity:1; fill:none" points="
  233.657,100.954 238.842,101.488 243.208,104.117 246.961,103.349 252.078,100.575 256.49,100.757 260.947,103.024 264.563,96.5707 269.066,104.153 274.183,98.7841 
  278.595,100.059 283.052,110.458 287.464,102.583 291.921,104.92 296.288,112.047 300.7,110.799 306.794,104.639 311.161,103.999 315.527,104.146 319.894,95.8503 
  324.26,104.071 328.627,104.671 333.039,113.696 337.405,119.072 341.771,122.795 346.183,124.927 350.55,121.521 354.916,117.947 359.283,110.201 364.331,110.15 
  370.972,115.444 377.612,107.518 384.299,107.007 390.894,105.537 397.58,104.491 404.22,96.3531 410.906,99.9055 417.502,92.133 424.188,92.8919 430.828,88.4174 
  437.469,84.1938 444.109,82.1041 450.75,85.5567 457.436,81.6425 464.031,82.2902 470.717,77.3059 477.313,78.5198 483.953,79.9327 490.639,73.7627 497.28,70.3302 
  503.875,69.617 510.561,78.0474 517.202,80.7515 523.888,71.654 530.483,71.3671 537.169,76.0382 543.81,75.2198 550.314,83.7375 556.954,76.0543 563.595,75.178 
  570.281,77.8883 576.922,84.6903 583.562,83.595 590.248,86.1435 596.889,86.8783 603.575,90.3203 610.17,94.3699 616.856,94.166 623.542,91.0085 630.183,96.6223 
  636.869,96.9929 643.555,107.239 650.196,104.569 656.836,102.625 663.522,109.787 670.163,107.964 676.849,115.658 683.49,118.497 691.995,104.49 700.728,101.418 
  710.007,101.271 719.24,97.4091 728.519,108.072 737.752,107.91 747.03,115.563 756.309,119.558 765.588,126.323 774.866,129.636 784.145,139.535 793.424,147.295 
  802.657,159.485 811.935,161.147 821.169,171.378 830.402,173.559 839.68,176.173 848.959,177.401 858.238,193.715 867.516,206.807 876.795,211.6 
  "/>
<path clip-path="url(#clip950)" d="
M1127.7 216.387 L1809.42 216.387 L1809.42 47.2441 L1127.7 47.2441  Z
  " fill="#ffffff" fill-rule="evenodd" fill-opacity="1"/>
<defs>
  <clipPath id="clip953">
    <rect x="1127" y="47" width="683" height="170"/>
  </clipPath>
</defs>
<polyline clip-path="url(#clip953)" style="stroke:#000000; stroke-linecap:butt; stroke-linejoin:round; stroke-width:2; stroke-opacity:0.1; fill:none" points="
  1142.83,216.387 1142.83,47.2441 
  "/>
<polyline clip-path="url(#clip953)" style="stroke:#000000; stroke-linecap:butt; stroke-linejoin:round; stroke-width:2; stroke-opacity:0.1; fill:none" points="
  1278.64,216.387 1278.64,47.2441 
  "/>
<polyline clip-path="url(#clip953)" style="stroke:#000000; stroke-linecap:butt; stroke-linejoin:round; stroke-width:2; stroke-opacity:0.1; fill:none" points="
  1414.46,216.387 1414.46,47.2441 
  "/>
<polyline clip-path="url(#clip953)" style="stroke:#000000; stroke-linecap:butt; stroke-linejoin:round; stroke-width:2; stroke-opacity:0.1; fill:none" points="
  1550.28,216.387 1550.28,47.2441 
  "/>
<polyline clip-path="url(#clip953)" style="stroke:#000000; stroke-linecap:butt; stroke-linejoin:round; stroke-width:2; stroke-opacity:0.1; fill:none" points="
  1686.09,216.387 1686.09,47.2441 
  "/>
<polyline clip-path="url(#clip950)" style="stroke:#000000; stroke-linecap:butt; stroke-linejoin:round; stroke-width:4; stroke-opacity:1; fill:none" points="
  1127.7,216.387 1809.42,216.387 
  "/>
<polyline clip-path="url(#clip950)" style="stroke:#000000; stroke-linecap:butt; stroke-linejoin:round; stroke-width:4; stroke-opacity:1; fill:none" points="
  1142.83,216.387 1142.83,197.49 
  "/>
<polyline clip-path="url(#clip950)" style="stroke:#000000; stroke-linecap:butt; stroke-linejoin:round; stroke-width:4; stroke-opacity:1; fill:none" points="
  1278.64,216.387 1278.64,197.49 
  "/>
<polyline clip-path="url(#clip950)" style="stroke:#000000; stroke-linecap:butt; stroke-linejoin:round; stroke-width:4; stroke-opacity:1; fill:none" points="
  1414.46,216.387 1414.46,197.49 
  "/>
<polyline clip-path="url(#clip950)" style="stroke:#000000; stroke-linecap:butt; stroke-linejoin:round; stroke-width:4; stroke-opacity:1; fill:none" points="
  1550.28,216.387 1550.28,197.49 
  "/>
<polyline clip-path="url(#clip950)" style="stroke:#000000; stroke-linecap:butt; stroke-linejoin:round; stroke-width:4; stroke-opacity:1; fill:none" points="
  1686.09,216.387 1686.09,197.49 
  "/>
<path clip-path="url(#clip950)" d="M1142.83 250.506 Q1139.21 250.506 1137.39 254.071 Q1135.58 257.612 1135.58 264.742 Q1135.58 271.848 1137.39 275.413 Q1139.21 278.955 1142.83 278.955 Q1146.46 278.955 1148.27 275.413 Q1150.09 271.848 1150.09 264.742 Q1150.09 257.612 1148.27 254.071 Q1146.46 250.506 1142.83 250.506 M1142.83 246.802 Q1148.64 246.802 1151.69 251.409 Q1154.77 255.992 1154.77 264.742 Q1154.77 273.469 1151.69 278.075 Q1148.64 282.659 1142.83 282.659 Q1137.02 282.659 1133.94 278.075 Q1130.88 273.469 1130.88 264.742 Q1130.88 255.992 1133.94 251.409 Q1137.02 246.802 1142.83 246.802 Z" fill="#000000" fill-rule="evenodd" fill-opacity="1" /><path clip-path="url(#clip950)" d="M1253.33 278.052 L1260.97 278.052 L1260.97 251.686 L1252.66 253.353 L1252.66 249.094 L1260.92 247.427 L1265.6 247.427 L1265.6 278.052 L1273.24 278.052 L1273.24 281.987 L1253.33 281.987 L1253.33 278.052 Z" fill="#000000" fill-rule="evenodd" fill-opacity="1" /><path clip-path="url(#clip950)" d="M1292.68 250.506 Q1289.07 250.506 1287.24 254.071 Q1285.44 257.612 1285.44 264.742 Q1285.44 271.848 1287.24 275.413 Q1289.07 278.955 1292.68 278.955 Q1296.32 278.955 1298.12 275.413 Q1299.95 271.848 1299.95 264.742 Q1299.95 257.612 1298.12 254.071 Q1296.32 250.506 1292.68 250.506 M1292.68 246.802 Q1298.49 246.802 1301.55 251.409 Q1304.63 255.992 1304.63 264.742 Q1304.63 273.469 1301.55 278.075 Q1298.49 282.659 1292.68 282.659 Q1286.87 282.659 1283.79 278.075 Q1280.74 273.469 1280.74 264.742 Q1280.74 255.992 1283.79 251.409 Q1286.87 246.802 1292.68 246.802 Z" fill="#000000" fill-rule="evenodd" fill-opacity="1" /><path clip-path="url(#clip950)" d="M1393.23 278.052 L1409.55 278.052 L1409.55 281.987 L1387.61 281.987 L1387.61 278.052 Q1390.27 275.297 1394.85 270.668 Q1399.46 266.015 1400.64 264.673 Q1402.88 262.149 1403.76 260.413 Q1404.67 258.654 1404.67 256.964 Q1404.67 254.21 1402.72 252.474 Q1400.8 250.737 1397.7 250.737 Q1395.5 250.737 1393.05 251.501 Q1390.62 252.265 1387.84 253.816 L1387.84 249.094 Q1390.66 247.96 1393.12 247.381 Q1395.57 246.802 1397.61 246.802 Q1402.98 246.802 1406.17 249.487 Q1409.37 252.173 1409.37 256.663 Q1409.37 258.793 1408.56 260.714 Q1407.77 262.612 1405.66 265.205 Q1405.08 265.876 1401.98 269.094 Q1398.88 272.288 1393.23 278.052 Z" fill="#000000" fill-rule="evenodd" fill-opacity="1" /><path clip-path="url(#clip950)" d="M1429.37 250.506 Q1425.76 250.506 1423.93 254.071 Q1422.12 257.612 1422.12 264.742 Q1422.12 271.848 1423.93 275.413 Q1425.76 278.955 1429.37 278.955 Q1433 278.955 1434.81 275.413 Q1436.63 271.848 1436.63 264.742 Q1436.63 257.612 1434.81 254.071 Q1433 250.506 1429.37 250.506 M1429.37 246.802 Q1435.18 246.802 1438.23 251.409 Q1441.31 255.992 1441.31 264.742 Q1441.31 273.469 1438.23 278.075 Q1435.18 282.659 1429.37 282.659 Q1423.56 282.659 1420.48 278.075 Q1417.42 273.469 1417.42 264.742 Q1417.42 255.992 1420.48 251.409 Q1423.56 246.802 1429.37 246.802 Z" fill="#000000" fill-rule="evenodd" fill-opacity="1" /><path clip-path="url(#clip950)" d="M1539.12 263.353 Q1542.47 264.071 1544.35 266.339 Q1546.25 268.608 1546.25 271.941 Q1546.25 277.057 1542.73 279.858 Q1539.21 282.659 1532.73 282.659 Q1530.55 282.659 1528.24 282.219 Q1525.95 281.802 1523.49 280.946 L1523.49 276.432 Q1525.44 277.566 1527.75 278.145 Q1530.07 278.723 1532.59 278.723 Q1536.99 278.723 1539.28 276.987 Q1541.6 275.251 1541.6 271.941 Q1541.6 268.885 1539.44 267.173 Q1537.31 265.436 1533.49 265.436 L1529.47 265.436 L1529.47 261.594 L1533.68 261.594 Q1537.13 261.594 1538.96 260.228 Q1540.79 258.839 1540.79 256.247 Q1540.79 253.585 1538.89 252.173 Q1537.01 250.737 1533.49 250.737 Q1531.57 250.737 1529.37 251.154 Q1527.17 251.571 1524.54 252.45 L1524.54 248.284 Q1527.2 247.543 1529.51 247.173 Q1531.85 246.802 1533.91 246.802 Q1539.23 246.802 1542.34 249.233 Q1545.44 251.64 1545.44 255.761 Q1545.44 258.631 1543.79 260.622 Q1542.15 262.589 1539.12 263.353 Z" fill="#000000" fill-rule="evenodd" fill-opacity="1" /><path clip-path="url(#clip950)" d="M1565.11 250.506 Q1561.5 250.506 1559.67 254.071 Q1557.87 257.612 1557.87 264.742 Q1557.87 271.848 1559.67 275.413 Q1561.5 278.955 1565.11 278.955 Q1568.75 278.955 1570.55 275.413 Q1572.38 271.848 1572.38 264.742 Q1572.38 257.612 1570.55 254.071 Q1568.75 250.506 1565.11 250.506 M1565.11 246.802 Q1570.92 246.802 1573.98 251.409 Q1577.06 255.992 1577.06 264.742 Q1577.06 273.469 1573.98 278.075 Q1570.92 282.659 1565.11 282.659 Q1559.3 282.659 1556.22 278.075 Q1553.17 273.469 1553.17 264.742 Q1553.17 255.992 1556.22 251.409 Q1559.3 246.802 1565.11 246.802 Z" fill="#000000" fill-rule="evenodd" fill-opacity="1" /><path clip-path="url(#clip950)" d="M1674.26 251.501 L1662.46 269.95 L1674.26 269.95 L1674.26 251.501 M1673.04 247.427 L1678.92 247.427 L1678.92 269.95 L1683.85 269.95 L1683.85 273.839 L1678.92 273.839 L1678.92 281.987 L1674.26 281.987 L1674.26 273.839 L1658.66 273.839 L1658.66 269.325 L1673.04 247.427 Z" fill="#000000" fill-rule="evenodd" fill-opacity="1" /><path clip-path="url(#clip950)" d="M1701.58 250.506 Q1697.97 250.506 1696.14 254.071 Q1694.33 257.612 1694.33 264.742 Q1694.33 271.848 1696.14 275.413 Q1697.97 278.955 1701.58 278.955 Q1705.21 278.955 1707.02 275.413 Q1708.85 271.848 1708.85 264.742 Q1708.85 257.612 1707.02 254.071 Q1705.21 250.506 1701.58 250.506 M1701.58 246.802 Q1707.39 246.802 1710.44 251.409 Q1713.52 255.992 1713.52 264.742 Q1713.52 273.469 1710.44 278.075 Q1707.39 282.659 1701.58 282.659 Q1695.77 282.659 1692.69 278.075 Q1689.63 273.469 1689.63 264.742 Q1689.63 255.992 1692.69 251.409 Q1695.77 246.802 1701.58 246.802 Z" fill="#000000" fill-rule="evenodd" fill-opacity="1" /><polyline clip-path="url(#clip953)" style="stroke:#000000; stroke-linecap:butt; stroke-linejoin:round; stroke-width:2; stroke-opacity:0.1; fill:none" points="
  1127.7,193.085 1809.42,193.085 
  "/>
<polyline clip-path="url(#clip953)" style="stroke:#000000; stroke-linecap:butt; stroke-linejoin:round; stroke-width:2; stroke-opacity:0.1; fill:none" points="
  1127.7,70.5462 1809.42,70.5462 
  "/>
<polyline clip-path="url(#clip950)" style="stroke:#000000; stroke-linecap:butt; stroke-linejoin:round; stroke-width:4; stroke-opacity:1; fill:none" points="
  1127.7,216.387 1127.7,47.2441 
  "/>
<polyline clip-path="url(#clip950)" style="stroke:#000000; stroke-linecap:butt; stroke-linejoin:round; stroke-width:4; stroke-opacity:1; fill:none" points="
  1127.7,193.085 1146.59,193.085 
  "/>
<polyline clip-path="url(#clip950)" style="stroke:#000000; stroke-linecap:butt; stroke-linejoin:round; stroke-width:4; stroke-opacity:1; fill:none" points="
  1127.7,70.5462 1146.59,70.5462 
  "/>
<path clip-path="url(#clip950)" d="M1023.82 193.537 L1053.5 193.537 L1053.5 197.472 L1023.82 197.472 L1023.82 193.537 Z" fill="#000000" fill-rule="evenodd" fill-opacity="1" /><path clip-path="url(#clip950)" d="M1074.17 191.222 Q1071.02 191.222 1069.17 193.374 Q1067.34 195.527 1067.34 199.277 Q1067.34 203.004 1069.17 205.18 Q1071.02 207.333 1074.17 207.333 Q1077.32 207.333 1079.15 205.18 Q1081 203.004 1081 199.277 Q1081 195.527 1079.15 193.374 Q1077.32 191.222 1074.17 191.222 M1083.45 176.569 L1083.45 180.828 Q1081.69 179.995 1079.89 179.555 Q1078.1 179.115 1076.34 179.115 Q1071.71 179.115 1069.26 182.24 Q1066.83 185.365 1066.48 191.685 Q1067.85 189.671 1069.91 188.606 Q1071.97 187.518 1074.45 187.518 Q1079.65 187.518 1082.66 190.689 Q1085.7 193.837 1085.7 199.277 Q1085.7 204.601 1082.55 207.819 Q1079.4 211.036 1074.17 211.036 Q1068.17 211.036 1065 206.453 Q1061.83 201.847 1061.83 193.12 Q1061.83 184.925 1065.72 180.064 Q1069.61 175.18 1076.16 175.18 Q1077.92 175.18 1079.7 175.527 Q1081.51 175.875 1083.45 176.569 Z" fill="#000000" fill-rule="evenodd" fill-opacity="1" /><path clip-path="url(#clip950)" d="M1074.17 68.6828 Q1071.02 68.6828 1069.17 70.8356 Q1067.34 72.9883 1067.34 76.7383 Q1067.34 80.4651 1069.17 82.6411 Q1071.02 84.7938 1074.17 84.7938 Q1077.32 84.7938 1079.15 82.6411 Q1081 80.4651 1081 76.7383 Q1081 72.9883 1079.15 70.8356 Q1077.32 68.6828 1074.17 68.6828 M1083.45 54.0301 L1083.45 58.2893 Q1081.69 57.456 1079.89 57.0162 Q1078.1 56.5764 1076.34 56.5764 Q1071.71 56.5764 1069.26 59.7014 Q1066.83 62.8263 1066.48 69.1458 Q1067.85 67.1319 1069.91 66.0671 Q1071.97 64.9791 1074.45 64.9791 Q1079.65 64.9791 1082.66 68.1504 Q1085.7 71.2985 1085.7 76.7383 Q1085.7 82.0624 1082.55 85.2799 Q1079.4 88.4975 1074.17 88.4975 Q1068.17 88.4975 1065 83.9142 Q1061.83 79.3077 1061.83 70.5809 Q1061.83 62.3865 1065.72 57.5255 Q1069.61 52.6412 1076.16 52.6412 Q1077.92 52.6412 1079.7 52.9884 Q1081.51 53.3357 1083.45 54.0301 Z" fill="#000000" fill-rule="evenodd" fill-opacity="1" /><path clip-path="url(#clip953)" d="
M1146.99 132.69 L1151.88 132.829 L1156.77 133.426 L1161.57 133.157 L1166.46 133.057 L1171.96 135.101 L1176.85 133.419 L1181.74 132.61 L1185.92 134.454 L1190.77 135.798 
  L1196.79 134.01 L1202.81 134.934 L1208.79 134.773 L1214.81 134.523 L1220.78 138.899 L1226.76 132.99 L1232.74 137.859 L1238.85 139.365 L1245.96 133.605 L1253.74 132.773 
  L1261.48 133.204 L1269.23 138.233 L1276.97 138.434 L1284.71 137.52 L1292.45 141.171 L1300.19 144.049 L1308.02 148.519 L1315.77 151.312 L1323.51 151.457 L1331.25 156.758 
  L1339.31 158.456 L1347.14 166.473 L1354.88 173.363 L1362.62 177.631 L1370.41 183.702 L1378.15 188.021 L1385.89 191.69 L1393.72 191.933 L1401.47 199.374 L1409.21 201.707 
  L1416.99 205.629 L1424.74 209.695 L1432.52 206.273 L1440.31 205.014 L1448.05 201.556 L1455.84 199.516 L1463.58 201.191 L1471.32 201.34 L1479.06 199.163 L1486.89 203.89 
  L1494.64 200.603 L1502.38 211.6 L1510.16 189.272 L1517.95 178.5 L1525.74 182.689 L1533.53 188.873 L1541.27 182.246 L1549.01 184.209 L1556.84 188.358 L1564.58 180.178 
  L1573.18 182.735 L1582.24 172.875 L1591.2 168.927 L1600.17 167.838 L1609.18 168.772 L1618.14 162.301 L1627.1 161.57 L1636.07 182.268 L1645.08 170.557 L1654.09 171.526 
  L1663.05 183.712 L1672.06 186.314 L1681.02 158.996 L1689.99 149.964 L1699 154.854 L1708 160.554 L1716.97 155.558 L1725.16 159.339 L1734.76 149.556 L1743.77 147.671 
  L1752.73 162.648 L1761.7 173.699 L1771.11 186.066 L1780.62 176.992 L1790.13 186.292 L1790.13 77.3395 L1780.62 86.6389 L1771.11 77.5653 L1761.7 89.9323 L1752.73 100.983 
  L1743.77 115.96 L1734.76 114.076 L1725.16 104.292 L1716.97 108.074 L1708 103.077 L1699 108.778 L1689.99 113.667 L1681.02 104.636 L1672.06 77.3176 L1663.05 79.9198 
  L1654.09 92.1054 L1645.08 93.0739 L1636.07 81.3637 L1627.1 102.061 L1618.14 101.331 L1609.18 94.8589 L1600.17 95.7932 L1591.2 94.7039 L1582.24 90.7566 L1573.18 80.8968 
  L1564.58 83.4534 L1556.84 75.273 L1549.01 79.4218 L1541.27 81.3853 L1533.53 74.7588 L1525.74 80.9421 L1517.95 85.1314 L1510.16 74.3589 L1502.38 52.0312 L1494.64 63.0282 
  L1486.89 59.741 L1479.06 64.4686 L1471.32 62.2909 L1463.58 62.4402 L1455.84 64.1151 L1448.05 62.0749 L1440.31 58.6172 L1432.52 57.3586 L1424.74 53.9365 L1416.99 58.0021 
  L1409.21 61.9243 L1401.47 64.257 L1393.72 71.6981 L1385.89 71.9413 L1378.15 75.6102 L1370.41 79.9298 L1362.62 86.0006 L1354.88 90.2684 L1347.14 97.1582 L1339.31 105.176 
  L1331.25 106.874 L1323.51 112.174 L1315.77 112.319 L1308.02 115.113 L1300.19 119.582 L1292.45 122.46 L1284.71 126.111 L1276.97 125.197 L1269.23 125.398 L1261.48 130.427 
  L1253.74 130.859 L1245.96 130.027 L1238.85 124.266 L1232.74 125.773 L1226.76 130.642 L1220.78 124.732 L1214.81 129.108 L1208.79 128.858 L1202.81 128.697 L1196.79 129.622 
  L1190.77 127.833 L1185.92 129.178 L1181.74 131.021 L1176.85 130.213 L1171.96 128.53 L1166.46 130.575 L1161.57 130.474 L1156.77 130.206 L1151.88 130.802 L1146.99 130.942 
   Z
  " fill="#808080" fill-rule="evenodd" fill-opacity="0.5"/>
<polyline clip-path="url(#clip953)" style="stroke:#808080; stroke-linecap:butt; stroke-linejoin:round; stroke-width:4; stroke-opacity:1; fill:none" points="
  1146.99,131.816 1151.88,131.816 1156.77,131.816 1161.57,131.816 1166.46,131.816 1171.96,131.816 1176.85,131.816 1181.74,131.816 1185.92,131.816 1190.77,131.816 
  1196.79,131.816 1202.81,131.816 1208.79,131.816 1214.81,131.816 1220.78,131.816 1226.76,131.816 1232.74,131.816 1238.85,131.816 1245.96,131.816 1253.74,131.816 
  1261.48,131.816 1269.23,131.816 1276.97,131.816 1284.71,131.816 1292.45,131.816 1300.19,131.816 1308.02,131.816 1315.77,131.816 1323.51,131.816 1331.25,131.816 
  1339.31,131.816 1347.14,131.816 1354.88,131.816 1362.62,131.816 1370.41,131.816 1378.15,131.816 1385.89,131.816 1393.72,131.816 1401.47,131.816 1409.21,131.816 
  1416.99,131.816 1424.74,131.816 1432.52,131.816 1440.31,131.816 1448.05,131.816 1455.84,131.816 1463.58,131.816 1471.32,131.816 1479.06,131.816 1486.89,131.816 
  1494.64,131.816 1502.38,131.816 1510.16,131.816 1517.95,131.816 1525.74,131.816 1533.53,131.816 1541.27,131.816 1549.01,131.816 1556.84,131.816 1564.58,131.816 
  1573.18,131.816 1582.24,131.816 1591.2,131.816 1600.17,131.816 1609.18,131.816 1618.14,131.816 1627.1,131.816 1636.07,131.816 1645.08,131.816 1654.09,131.816 
  1663.05,131.816 1672.06,131.816 1681.02,131.816 1689.99,131.816 1699,131.816 1708,131.816 1716.97,131.816 1725.16,131.816 1734.76,131.816 1743.77,131.816 
  1752.73,131.816 1761.7,131.816 1771.11,131.816 1780.62,131.816 1790.13,131.816 
  "/>
<polyline clip-path="url(#clip953)" style="stroke:#f0e442; stroke-linecap:butt; stroke-linejoin:round; stroke-width:8; stroke-opacity:1; fill:none" stroke-dasharray="32, 20" points="
  1146.99,133.522 1151.88,134.006 1156.77,133.53 1161.57,133.734 1166.46,134.364 1171.96,136.577 1176.85,136.104 1181.74,135.873 1185.92,134.214 1190.77,137.683 
  1196.79,140.517 1202.81,140.636 1208.79,141.621 1214.81,144.581 1220.78,144.295 1226.76,151.079 1232.74,152.688 1238.85,154.966 1245.96,155.306 1253.74,158.706 
  1261.48,162.398 1269.23,166.607 1276.97,167.182 1284.71,166.898 1292.45,167.593 1300.19,169.813 1308.02,168.15 1315.77,169.179 1323.51,166.156 1331.25,166.381 
  1339.31,159.177 1347.14,153.285 1354.88,145.035 1362.62,134.781 1370.41,126.725 1378.15,116.902 1385.89,112.595 1393.72,107.464 1401.47,107.026 1409.21,105.447 
  1416.99,107.953 1424.74,106.697 1432.52,110.992 1440.31,116.41 1448.05,118.824 1455.84,126.181 1463.58,123.089 1471.32,126.846 1479.06,129.709 1486.89,128.14 
  1494.64,133.457 1502.38,146.232 1510.16,144.612 1517.95,142.582 1525.74,141.968 1533.53,142.817 1541.27,135.807 1549.01,136.999 1556.84,139.744 1564.58,145.848 
  1573.18,145.432 1582.24,149.456 1591.2,152.682 1600.17,134.489 1609.18,135.252 1618.14,139.111 1627.1,148.532 1636.07,119.538 1645.08,127.47 1654.09,117.11 
  1663.05,111.928 1672.06,115.12 1681.02,130.489 1689.99,137.412 1699,145.369 1708,133.048 1716.97,139.001 1725.16,128.541 1734.76,121.751 1743.77,131.902 
  1752.73,126.534 1761.7,128.148 1771.11,129.369 1780.62,129.53 1790.13,125.833 
  "/>
<polyline clip-path="url(#clip953)" style="stroke:#f0e442; stroke-linecap:butt; stroke-linejoin:round; stroke-width:8; stroke-opacity:1; fill:none" points="
  1146.99,133.517 1151.88,133.993 1156.77,133.508 1161.57,133.701 1166.46,134.316 1171.96,136.511 1176.85,136.017 1181.74,135.76 1185.92,134.077 1190.77,137.511 
  1196.79,140.295 1202.81,140.35 1208.79,141.259 1214.81,144.125 1220.78,143.724 1226.76,150.37 1232.74,151.812 1238.85,153.884 1245.96,153.929 1253.74,156.923 
  1261.48,160.102 1269.23,163.665 1276.97,163.426 1284.71,162.119 1292.45,161.529 1300.19,162.139 1308.02,158.436 1315.77,156.947 1323.51,150.779 1331.25,147.084 
  1339.31,134.879 1347.14,125.824 1354.88,117.848 1362.62,110.058 1370.41,105.084 1378.15,98.243 1385.89,96.7563 1393.72,94.3136 1401.47,96.375 1409.21,97.1392 
  1416.99,101.849 1424.74,102.633 1432.52,108.833 1440.31,116.01 1448.05,120.032 1455.84,128.866 1463.58,127.106 1471.32,132.063 1479.06,135.994 1486.89,135.376 
  1494.64,141.507 1502.38,154.972 1510.16,153.924 1517.95,152.348 1525.74,152.069 1533.53,153.139 1541.27,146.236 1549.01,147.428 1556.84,150.063 1564.58,155.953 
  1573.18,155.178 1582.24,158.692 1591.2,161.282 1600.17,142.323 1609.18,142.191 1618.14,145.038 1627.1,153.328 1636.07,123.086 1645.08,129.651 1654.09,117.812 
  1663.05,111.05 1672.06,112.549 1681.02,126.131 1689.99,131.167 1699,137.13 1708,122.72 1716.97,126.502 1725.16,113.979 1734.76,104.68 1743.77,112.387 
  1752.73,104.505 1761.7,103.525 1771.11,101.935 1780.62,99.1749 1790.13,92.4737 
  "/>
<path clip-path="url(#clip950)" d="
M2071.03 216.387 L2752.76 216.387 L2752.76 47.2441 L2071.03 47.2441  Z
  " fill="#ffffff" fill-rule="evenodd" fill-opacity="1"/>
<defs>
  <clipPath id="clip954">
    <rect x="2071" y="47" width="683" height="170"/>
  </clipPath>
</defs>
<polyline clip-path="url(#clip954)" style="stroke:#000000; stroke-linecap:butt; stroke-linejoin:round; stroke-width:2; stroke-opacity:0.1; fill:none" points="
  2084.26,216.387 2084.26,47.2441 
  "/>
<polyline clip-path="url(#clip954)" style="stroke:#000000; stroke-linecap:butt; stroke-linejoin:round; stroke-width:2; stroke-opacity:0.1; fill:none" points="
  2222.02,216.387 2222.02,47.2441 
  "/>
<polyline clip-path="url(#clip954)" style="stroke:#000000; stroke-linecap:butt; stroke-linejoin:round; stroke-width:2; stroke-opacity:0.1; fill:none" points="
  2359.77,216.387 2359.77,47.2441 
  "/>
<polyline clip-path="url(#clip954)" style="stroke:#000000; stroke-linecap:butt; stroke-linejoin:round; stroke-width:2; stroke-opacity:0.1; fill:none" points="
  2497.53,216.387 2497.53,47.2441 
  "/>
<polyline clip-path="url(#clip954)" style="stroke:#000000; stroke-linecap:butt; stroke-linejoin:round; stroke-width:2; stroke-opacity:0.1; fill:none" points="
  2635.29,216.387 2635.29,47.2441 
  "/>
<polyline clip-path="url(#clip950)" style="stroke:#000000; stroke-linecap:butt; stroke-linejoin:round; stroke-width:4; stroke-opacity:1; fill:none" points="
  2071.03,216.387 2752.76,216.387 
  "/>
<polyline clip-path="url(#clip950)" style="stroke:#000000; stroke-linecap:butt; stroke-linejoin:round; stroke-width:4; stroke-opacity:1; fill:none" points="
  2084.26,216.387 2084.26,197.49 
  "/>
<polyline clip-path="url(#clip950)" style="stroke:#000000; stroke-linecap:butt; stroke-linejoin:round; stroke-width:4; stroke-opacity:1; fill:none" points="
  2222.02,216.387 2222.02,197.49 
  "/>
<polyline clip-path="url(#clip950)" style="stroke:#000000; stroke-linecap:butt; stroke-linejoin:round; stroke-width:4; stroke-opacity:1; fill:none" points="
  2359.77,216.387 2359.77,197.49 
  "/>
<polyline clip-path="url(#clip950)" style="stroke:#000000; stroke-linecap:butt; stroke-linejoin:round; stroke-width:4; stroke-opacity:1; fill:none" points="
  2497.53,216.387 2497.53,197.49 
  "/>
<polyline clip-path="url(#clip950)" style="stroke:#000000; stroke-linecap:butt; stroke-linejoin:round; stroke-width:4; stroke-opacity:1; fill:none" points="
  2635.29,216.387 2635.29,197.49 
  "/>
<path clip-path="url(#clip950)" d="M2084.26 250.506 Q2080.65 250.506 2078.82 254.071 Q2077.02 257.612 2077.02 264.742 Q2077.02 271.848 2078.82 275.413 Q2080.65 278.955 2084.26 278.955 Q2087.9 278.955 2089.7 275.413 Q2091.53 271.848 2091.53 264.742 Q2091.53 257.612 2089.7 254.071 Q2087.9 250.506 2084.26 250.506 M2084.26 246.802 Q2090.07 246.802 2093.13 251.409 Q2096.21 255.992 2096.21 264.742 Q2096.21 273.469 2093.13 278.075 Q2090.07 282.659 2084.26 282.659 Q2078.45 282.659 2075.37 278.075 Q2072.32 273.469 2072.32 264.742 Q2072.32 255.992 2075.37 251.409 Q2078.45 246.802 2084.26 246.802 Z" fill="#000000" fill-rule="evenodd" fill-opacity="1" /><path clip-path="url(#clip950)" d="M2196.71 278.052 L2204.35 278.052 L2204.35 251.686 L2196.03 253.353 L2196.03 249.094 L2204.3 247.427 L2208.97 247.427 L2208.97 278.052 L2216.61 278.052 L2216.61 281.987 L2196.71 281.987 L2196.71 278.052 Z" fill="#000000" fill-rule="evenodd" fill-opacity="1" /><path clip-path="url(#clip950)" d="M2236.06 250.506 Q2232.45 250.506 2230.62 254.071 Q2228.81 257.612 2228.81 264.742 Q2228.81 271.848 2230.62 275.413 Q2232.45 278.955 2236.06 278.955 Q2239.69 278.955 2241.5 275.413 Q2243.33 271.848 2243.33 264.742 Q2243.33 257.612 2241.5 254.071 Q2239.69 250.506 2236.06 250.506 M2236.06 246.802 Q2241.87 246.802 2244.92 251.409 Q2248 255.992 2248 264.742 Q2248 273.469 2244.92 278.075 Q2241.87 282.659 2236.06 282.659 Q2230.25 282.659 2227.17 278.075 Q2224.11 273.469 2224.11 264.742 Q2224.11 255.992 2227.17 251.409 Q2230.25 246.802 2236.06 246.802 Z" fill="#000000" fill-rule="evenodd" fill-opacity="1" /><path clip-path="url(#clip950)" d="M2338.55 278.052 L2354.87 278.052 L2354.87 281.987 L2332.92 281.987 L2332.92 278.052 Q2335.59 275.297 2340.17 270.668 Q2344.77 266.015 2345.96 264.673 Q2348.2 262.149 2349.08 260.413 Q2349.98 258.654 2349.98 256.964 Q2349.98 254.21 2348.04 252.474 Q2346.12 250.737 2343.02 250.737 Q2340.82 250.737 2338.36 251.501 Q2335.93 252.265 2333.15 253.816 L2333.15 249.094 Q2335.98 247.96 2338.43 247.381 Q2340.89 246.802 2342.92 246.802 Q2348.29 246.802 2351.49 249.487 Q2354.68 252.173 2354.68 256.663 Q2354.68 258.793 2353.87 260.714 Q2353.09 262.612 2350.98 265.205 Q2350.4 265.876 2347.3 269.094 Q2344.2 272.288 2338.55 278.052 Z" fill="#000000" fill-rule="evenodd" fill-opacity="1" /><path clip-path="url(#clip950)" d="M2374.68 250.506 Q2371.07 250.506 2369.24 254.071 Q2367.44 257.612 2367.44 264.742 Q2367.44 271.848 2369.24 275.413 Q2371.07 278.955 2374.68 278.955 Q2378.32 278.955 2380.12 275.413 Q2381.95 271.848 2381.95 264.742 Q2381.95 257.612 2380.12 254.071 Q2378.32 250.506 2374.68 250.506 M2374.68 246.802 Q2380.49 246.802 2383.55 251.409 Q2386.63 255.992 2386.63 264.742 Q2386.63 273.469 2383.55 278.075 Q2380.49 282.659 2374.68 282.659 Q2368.87 282.659 2365.79 278.075 Q2362.74 273.469 2362.74 264.742 Q2362.74 255.992 2365.79 251.409 Q2368.87 246.802 2374.68 246.802 Z" fill="#000000" fill-rule="evenodd" fill-opacity="1" /><path clip-path="url(#clip950)" d="M2486.37 263.353 Q2489.73 264.071 2491.61 266.339 Q2493.5 268.608 2493.5 271.941 Q2493.5 277.057 2489.98 279.858 Q2486.47 282.659 2479.98 282.659 Q2477.81 282.659 2475.49 282.219 Q2473.2 281.802 2470.75 280.946 L2470.75 276.432 Q2472.69 277.566 2475.01 278.145 Q2477.32 278.723 2479.85 278.723 Q2484.24 278.723 2486.54 276.987 Q2488.85 275.251 2488.85 271.941 Q2488.85 268.885 2486.7 267.173 Q2484.57 265.436 2480.75 265.436 L2476.72 265.436 L2476.72 261.594 L2480.93 261.594 Q2484.38 261.594 2486.21 260.228 Q2488.04 258.839 2488.04 256.247 Q2488.04 253.585 2486.14 252.173 Q2484.27 250.737 2480.75 250.737 Q2478.83 250.737 2476.63 251.154 Q2474.43 251.571 2471.79 252.45 L2471.79 248.284 Q2474.45 247.543 2476.77 247.173 Q2479.11 246.802 2481.17 246.802 Q2486.49 246.802 2489.59 249.233 Q2492.69 251.64 2492.69 255.761 Q2492.69 258.631 2491.05 260.622 Q2489.41 262.589 2486.37 263.353 Z" fill="#000000" fill-rule="evenodd" fill-opacity="1" /><path clip-path="url(#clip950)" d="M2512.37 250.506 Q2508.76 250.506 2506.93 254.071 Q2505.12 257.612 2505.12 264.742 Q2505.12 271.848 2506.93 275.413 Q2508.76 278.955 2512.37 278.955 Q2516 278.955 2517.81 275.413 Q2519.64 271.848 2519.64 264.742 Q2519.64 257.612 2517.81 254.071 Q2516 250.506 2512.37 250.506 M2512.37 246.802 Q2518.18 246.802 2521.23 251.409 Q2524.31 255.992 2524.31 264.742 Q2524.31 273.469 2521.23 278.075 Q2518.18 282.659 2512.37 282.659 Q2506.56 282.659 2503.48 278.075 Q2500.42 273.469 2500.42 264.742 Q2500.42 255.992 2503.48 251.409 Q2506.56 246.802 2512.37 246.802 Z" fill="#000000" fill-rule="evenodd" fill-opacity="1" /><path clip-path="url(#clip950)" d="M2623.46 251.501 L2611.65 269.95 L2623.46 269.95 L2623.46 251.501 M2622.23 247.427 L2628.11 247.427 L2628.11 269.95 L2633.04 269.95 L2633.04 273.839 L2628.11 273.839 L2628.11 281.987 L2623.46 281.987 L2623.46 273.839 L2607.86 273.839 L2607.86 269.325 L2622.23 247.427 Z" fill="#000000" fill-rule="evenodd" fill-opacity="1" /><path clip-path="url(#clip950)" d="M2650.77 250.506 Q2647.16 250.506 2645.33 254.071 Q2643.53 257.612 2643.53 264.742 Q2643.53 271.848 2645.33 275.413 Q2647.16 278.955 2650.77 278.955 Q2654.41 278.955 2656.21 275.413 Q2658.04 271.848 2658.04 264.742 Q2658.04 257.612 2656.21 254.071 Q2654.41 250.506 2650.77 250.506 M2650.77 246.802 Q2656.58 246.802 2659.64 251.409 Q2662.72 255.992 2662.72 264.742 Q2662.72 273.469 2659.64 278.075 Q2656.58 282.659 2650.77 282.659 Q2644.96 282.659 2641.88 278.075 Q2638.83 273.469 2638.83 264.742 Q2638.83 255.992 2641.88 251.409 Q2644.96 246.802 2650.77 246.802 Z" fill="#000000" fill-rule="evenodd" fill-opacity="1" /><polyline clip-path="url(#clip954)" style="stroke:#000000; stroke-linecap:butt; stroke-linejoin:round; stroke-width:2; stroke-opacity:0.1; fill:none" points="
  2071.03,183.373 2752.76,183.373 
  "/>
<polyline clip-path="url(#clip954)" style="stroke:#000000; stroke-linecap:butt; stroke-linejoin:round; stroke-width:2; stroke-opacity:0.1; fill:none" points="
  2071.03,80.3919 2752.76,80.3919 
  "/>
<polyline clip-path="url(#clip950)" style="stroke:#000000; stroke-linecap:butt; stroke-linejoin:round; stroke-width:4; stroke-opacity:1; fill:none" points="
  2071.03,216.387 2071.03,47.2441 
  "/>
<polyline clip-path="url(#clip950)" style="stroke:#000000; stroke-linecap:butt; stroke-linejoin:round; stroke-width:4; stroke-opacity:1; fill:none" points="
  2071.03,183.373 2089.93,183.373 
  "/>
<polyline clip-path="url(#clip950)" style="stroke:#000000; stroke-linecap:butt; stroke-linejoin:round; stroke-width:4; stroke-opacity:1; fill:none" points="
  2071.03,80.3919 2089.93,80.3919 
  "/>
<path clip-path="url(#clip950)" d="M1937.15 183.824 L1966.83 183.824 L1966.83 187.759 L1937.15 187.759 L1937.15 183.824 Z" fill="#000000" fill-rule="evenodd" fill-opacity="1" /><path clip-path="url(#clip950)" d="M1977.73 196.718 L1985.37 196.718 L1985.37 170.352 L1977.06 172.019 L1977.06 167.759 L1985.33 166.093 L1990 166.093 L1990 196.718 L1997.64 196.718 L1997.64 200.653 L1977.73 200.653 L1977.73 196.718 Z" fill="#000000" fill-rule="evenodd" fill-opacity="1" /><path clip-path="url(#clip950)" d="M2017.09 169.171 Q2013.47 169.171 2011.65 172.736 Q2009.84 176.278 2009.84 183.407 Q2009.84 190.514 2011.65 194.079 Q2013.47 197.62 2017.09 197.62 Q2020.72 197.62 2022.52 194.079 Q2024.35 190.514 2024.35 183.407 Q2024.35 176.278 2022.52 172.736 Q2020.72 169.171 2017.09 169.171 M2017.09 165.468 Q2022.9 165.468 2025.95 170.074 Q2029.03 174.657 2029.03 183.407 Q2029.03 192.134 2025.95 196.741 Q2022.9 201.324 2017.09 201.324 Q2011.27 201.324 2008.2 196.741 Q2005.14 192.134 2005.14 183.407 Q2005.14 174.657 2008.2 170.074 Q2011.27 165.468 2017.09 165.468 Z" fill="#000000" fill-rule="evenodd" fill-opacity="1" /><path clip-path="url(#clip950)" d="M1977.73 93.7367 L1985.37 93.7367 L1985.37 67.3711 L1977.06 69.0378 L1977.06 64.7785 L1985.33 63.1119 L1990 63.1119 L1990 93.7367 L1997.64 93.7367 L1997.64 97.6719 L1977.73 97.6719 L1977.73 93.7367 Z" fill="#000000" fill-rule="evenodd" fill-opacity="1" /><path clip-path="url(#clip950)" d="M2017.09 66.1906 Q2013.47 66.1906 2011.65 69.7554 Q2009.84 73.297 2009.84 80.4266 Q2009.84 87.533 2011.65 91.0978 Q2013.47 94.6395 2017.09 94.6395 Q2020.72 94.6395 2022.52 91.0978 Q2024.35 87.533 2024.35 80.4266 Q2024.35 73.297 2022.52 69.7554 Q2020.72 66.1906 2017.09 66.1906 M2017.09 62.4869 Q2022.9 62.4869 2025.95 67.0933 Q2029.03 71.6767 2029.03 80.4266 Q2029.03 89.1534 2025.95 93.7599 Q2022.9 98.3432 2017.09 98.3432 Q2011.27 98.3432 2008.2 93.7599 Q2005.14 89.1534 2005.14 80.4266 Q2005.14 71.6767 2008.2 67.0933 Q2011.27 62.4869 2017.09 62.4869 Z" fill="#000000" fill-rule="evenodd" fill-opacity="1" /><path clip-path="url(#clip954)" d="
M2090.32 134.347 L2094.87 138.065 L2099.51 134.491 L2104.1 133.337 L2108.65 135.578 L2113.28 135.065 L2117.87 133.583 L2122.42 138.041 L2127.1 134.579 L2131.65 142.673 
  L2136.2 141.992 L2140.88 142.155 L2145.7 141.427 L2151.44 140.841 L2157.14 138.968 L2162.92 135.967 L2168.66 136.931 L2174.35 140.463 L2180.14 146.744 L2185.88 135.552 
  L2191.57 136.981 L2197.36 148.262 L2203.15 136.942 L2208.79 140.301 L2214.58 148.29 L2220.37 144.431 L2226.11 149.641 L2231.8 152.059 L2237.59 146.605 L2243.32 141.117 
  L2249.02 144.174 L2254.8 134.007 L2260.54 141.99 L2266.24 138.226 L2272.02 137.478 L2277.81 138.257 L2283.5 134.63 L2289.24 142.244 L2295.03 144.889 L2300.77 150.627 
  L2306.46 145.091 L2312.25 147.906 L2318.03 150.934 L2323.77 142.476 L2329.47 137.869 L2335.25 138.684 L2341.04 145.162 L2347.1 137.767 L2353.25 139.155 L2359.45 140.49 
  L2365.56 154.766 L2371.76 143.409 L2377.96 143.745 L2384.16 146.462 L2390.36 145.339 L2396.56 145.529 L2402.75 151.908 L2408.91 142.085 L2415.7 145.126 L2422.73 160.661 
  L2429.8 162.513 L2436.87 169.114 L2443.9 173.603 L2450.97 170.803 L2458 164.909 L2465.07 165.096 L2472.14 154.689 L2479.21 155.143 L2487.52 146.115 L2494.91 157.146 
  L2502.35 158.395 L2509.75 159.362 L2517.14 157.689 L2524.53 154.627 L2531.97 169.965 L2539.41 181.663 L2546.85 179.459 L2554.29 154.514 L2561.73 164.623 L2569.3 141.92 
  L2576.74 150.2 L2584.18 163.512 L2591.62 163.448 L2599.06 177.773 L2606.5 169.824 L2613.94 178.567 L2621.33 153.52 L2628.77 140.484 L2636.25 157.47 L2643.64 162.058 
  L2651.13 158.442 L2658.57 173.048 L2666.01 175.734 L2673.45 182.155 L2680.88 194.502 L2688.46 187.728 L2695.9 199.157 L2703.38 204.222 L2710.92 210.411 L2718.35 211.6 
  L2725.93 197.481 L2733.46 207.875 L2733.46 55.8891 L2725.93 66.2837 L2718.35 52.1644 L2710.92 53.3538 L2703.38 59.543 L2695.9 64.6072 L2688.46 76.0368 L2680.88 69.2627 
  L2673.45 81.6093 L2666.01 88.0311 L2658.57 90.7168 L2651.13 105.322 L2643.64 101.707 L2636.25 106.295 L2628.77 123.281 L2621.33 110.244 L2613.94 85.1976 L2606.5 93.9406 
  L2599.06 85.9915 L2591.62 100.317 L2584.18 100.252 L2576.74 113.565 L2569.3 121.845 L2561.73 99.1415 L2554.29 109.251 L2546.85 84.3061 L2539.41 82.102 L2531.97 93.7994 
  L2524.53 109.138 L2517.14 106.075 L2509.75 104.403 L2502.35 105.369 L2494.91 106.619 L2487.52 117.649 L2479.21 108.622 L2472.14 109.075 L2465.07 98.6688 L2458 98.8558 
  L2450.97 92.9619 L2443.9 90.1621 L2436.87 94.6504 L2429.8 101.251 L2422.73 103.104 L2415.7 118.638 L2408.91 121.68 L2402.75 111.856 L2396.56 118.236 L2390.36 118.426 
  L2384.16 117.303 L2377.96 120.02 L2371.76 120.356 L2365.56 108.998 L2359.45 123.274 L2353.25 124.609 L2347.1 125.998 L2341.04 118.603 L2335.25 125.081 L2329.47 125.895 
  L2323.77 121.289 L2318.03 112.831 L2312.25 115.858 L2306.46 118.674 L2300.77 113.137 L2295.03 118.876 L2289.24 121.52 L2283.5 129.134 L2277.81 125.507 L2272.02 126.287 
  L2266.24 125.539 L2260.54 121.774 L2254.8 129.757 L2249.02 119.591 L2243.32 122.647 L2237.59 117.159 L2231.8 111.705 L2226.11 114.124 L2220.37 119.334 L2214.58 115.475 
  L2208.79 123.464 L2203.15 126.822 L2197.36 115.502 L2191.57 126.783 L2185.88 128.213 L2180.14 117.02 L2174.35 123.301 L2168.66 126.834 L2162.92 127.798 L2157.14 124.797 
  L2151.44 122.924 L2145.7 122.338 L2140.88 121.61 L2136.2 121.773 L2131.65 121.092 L2127.1 129.185 L2122.42 125.724 L2117.87 130.182 L2113.28 128.7 L2108.65 128.187 
  L2104.1 130.428 L2099.51 129.273 L2094.87 125.7 L2090.32 129.417  Z
  " fill="#808080" fill-rule="evenodd" fill-opacity="0.5"/>
<polyline clip-path="url(#clip954)" style="stroke:#808080; stroke-linecap:butt; stroke-linejoin:round; stroke-width:4; stroke-opacity:1; fill:none" points="
  2090.32,131.882 2094.87,131.882 2099.51,131.882 2104.1,131.882 2108.65,131.882 2113.28,131.882 2117.87,131.882 2122.42,131.882 2127.1,131.882 2131.65,131.882 
  2136.2,131.882 2140.88,131.882 2145.7,131.882 2151.44,131.882 2157.14,131.882 2162.92,131.882 2168.66,131.882 2174.35,131.882 2180.14,131.882 2185.88,131.882 
  2191.57,131.882 2197.36,131.882 2203.15,131.882 2208.79,131.882 2214.58,131.882 2220.37,131.882 2226.11,131.882 2231.8,131.882 2237.59,131.882 2243.32,131.882 
  2249.02,131.882 2254.8,131.882 2260.54,131.882 2266.24,131.882 2272.02,131.882 2277.81,131.882 2283.5,131.882 2289.24,131.882 2295.03,131.882 2300.77,131.882 
  2306.46,131.882 2312.25,131.882 2318.03,131.882 2323.77,131.882 2329.47,131.882 2335.25,131.882 2341.04,131.882 2347.1,131.882 2353.25,131.882 2359.45,131.882 
  2365.56,131.882 2371.76,131.882 2377.96,131.882 2384.16,131.882 2390.36,131.882 2396.56,131.882 2402.75,131.882 2408.91,131.882 2415.7,131.882 2422.73,131.882 
  2429.8,131.882 2436.87,131.882 2443.9,131.882 2450.97,131.882 2458,131.882 2465.07,131.882 2472.14,131.882 2479.21,131.882 2487.52,131.882 2494.91,131.882 
  2502.35,131.882 2509.75,131.882 2517.14,131.882 2524.53,131.882 2531.97,131.882 2539.41,131.882 2546.85,131.882 2554.29,131.882 2561.73,131.882 2569.3,131.882 
  2576.74,131.882 2584.18,131.882 2591.62,131.882 2599.06,131.882 2606.5,131.882 2613.94,131.882 2621.33,131.882 2628.77,131.882 2636.25,131.882 2643.64,131.882 
  2651.13,131.882 2658.57,131.882 2666.01,131.882 2673.45,131.882 2680.88,131.882 2688.46,131.882 2695.9,131.882 2703.38,131.882 2710.92,131.882 2718.35,131.882 
  2725.93,131.882 2733.46,131.882 
  "/>
<polyline clip-path="url(#clip954)" style="stroke:#d55e00; stroke-linecap:butt; stroke-linejoin:round; stroke-width:8; stroke-opacity:1; fill:none" stroke-dasharray="32, 20" points="
  2090.32,139.396 2094.87,140.56 2099.51,139.439 2104.1,135.747 2108.65,137.237 2113.28,138.091 2117.87,137.725 2122.42,143.249 2127.1,136.482 2131.65,138.849 
  2136.2,143.632 2140.88,143.291 2145.7,142.631 2151.44,141.996 2157.14,145.643 2162.92,150.582 2168.66,147.751 2174.35,151.972 2180.14,145.95 2185.88,146.039 
  2191.57,145.877 2197.36,146.069 2203.15,150.064 2208.79,151.305 2214.58,145.6 2220.37,153.374 2226.11,149.876 2231.8,144.109 2237.59,151.975 2243.32,156.36 
  2249.02,161.38 2254.8,152.388 2260.54,166.704 2266.24,159.269 2272.02,164.643 2277.81,161.493 2283.5,158.025 2289.24,152.075 2295.03,145.962 2300.77,148.258 
  2306.46,143.444 2312.25,148.834 2318.03,135.94 2323.77,138.416 2329.47,129.813 2335.25,129.007 2341.04,122.894 2347.1,114.056 2353.25,109.65 2359.45,114.765 
  2365.56,121.002 2371.76,130.303 2377.96,130.872 2384.16,136.784 2390.36,126.853 2396.56,127.67 2402.75,124.646 2408.91,125.557 2415.7,123.539 2422.73,136.641 
  2429.8,136.372 2436.87,138.032 2443.9,131.386 2450.97,135.929 2458,117.054 2465.07,114.536 2472.14,120.591 2479.21,147.609 2487.52,131.968 2494.91,152.221 
  2502.35,130.5 2509.75,134.699 2517.14,134.544 2524.53,127.47 2531.97,120.677 2539.41,113.66 2546.85,116.77 2554.29,107.56 2561.73,108.82 2569.3,112.271 
  2576.74,119.226 2584.18,138.665 2591.62,141.463 2599.06,140.912 2606.5,140.397 2613.94,110.471 2621.33,148.17 2628.77,151.796 2636.25,139.493 2643.64,131.855 
  2651.13,154.18 2658.57,165.168 2666.01,160.626 2673.45,160.943 2680.88,128.437 2688.46,142.168 2695.9,159.179 2703.38,162.145 2710.92,143.471 2718.35,127.176 
  2725.93,118.488 2733.46,119.252 
  "/>
<polyline clip-path="url(#clip954)" style="stroke:#d55e00; stroke-linecap:butt; stroke-linejoin:round; stroke-width:8; stroke-opacity:1; fill:none" points="
  2090.32,139.396 2094.87,140.558 2099.51,139.437 2104.1,135.743 2108.65,137.232 2113.28,138.085 2117.87,137.716 2122.42,143.238 2127.1,136.469 2131.65,138.832 
  2136.2,143.612 2140.88,143.267 2145.7,142.601 2151.44,141.959 2157.14,145.597 2162.92,150.525 2168.66,147.682 2174.35,151.887 2180.14,145.846 2185.88,145.913 
  2191.57,145.726 2197.36,145.886 2203.15,149.844 2208.79,151.041 2214.58,145.285 2220.37,152.996 2226.11,149.426 2231.8,143.574 2237.59,151.338 2243.32,155.604 
  2249.02,160.485 2254.8,151.328 2260.54,165.451 2266.24,157.79 2272.02,162.895 2277.81,159.429 2283.5,155.598 2289.24,149.219 2295.03,142.599 2300.77,144.305 
  2306.46,138.808 2312.25,143.385 2318.03,129.466 2323.77,131.347 2329.47,123.189 2335.25,123.63 2341.04,119.286 2347.1,112.532 2353.25,110.11 2359.45,117.068 
  2365.56,125.003 2371.76,135.9 2377.96,137.939 2384.16,145.195 2390.36,136.486 2396.56,138.404 2402.75,136.361 2408.91,138.13 2415.7,136.927 2422.73,150.728 
  2429.8,151.017 2436.87,153.094 2443.9,146.721 2450.97,151.402 2458,132.531 2465.07,129.883 2472.14,135.678 2479.21,162.308 2487.52,146.05 2494.91,165.61 
  2502.35,143.059 2509.75,146.302 2517.14,145.066 2524.53,136.785 2531.97,128.654 2539.41,120.177 2546.85,121.709 2554.29,110.805 2561.73,110.255 2569.3,111.748 
  2576.74,116.671 2584.18,133.969 2591.62,134.521 2599.06,131.621 2606.5,128.655 2613.94,96.1805 2621.33,131.25 2628.77,132.135 2636.25,116.982 2643.64,106.437 
  2651.13,125.729 2658.57,133.616 2666.01,125.887 2673.45,122.935 2680.88,87.0778 2688.46,97.3136 2695.9,110.814 2703.38,110.17 2710.92,87.7896 2718.35,67.7587 
  2725.93,55.1929 2733.46,52.0312 
  "/>
</svg>
