<?xml version="1.0" encoding="utf-8"?>
<svg xmlns="http://www.w3.org/2000/svg" xmlns:xlink="http://www.w3.org/1999/xlink" width="400" height="120" viewBox="0 0 1600 480">
<defs>
  <clipPath id="clip520">
    <rect x="0" y="0" width="1600" height="480"/>
  </clipPath>
</defs>
<path clip-path="url(#clip520)" d="
M0 480 L1600 480 L1600 0 L0 0  Z
  " fill="#ffffff" fill-rule="evenodd" fill-opacity="1"/>
<defs>
  <clipPath id="clip521">
    <rect x="320" y="0" width="1121" height="480"/>
  </clipPath>
</defs>
<path clip-path="url(#clip520)" d="
M162.857 396.656 L486.089 396.656 L486.089 47.2441 L162.857 47.2441  Z
  " fill="#ffffff" fill-rule="evenodd" fill-opacity="1"/>
<defs>
  <clipPath id="clip522">
    <rect x="162" y="47" width="324" height="350"/>
  </clipPath>
</defs>
<polyline clip-path="url(#clip520)" style="stroke:#000000; stroke-linecap:butt; stroke-linejoin:round; stroke-width:4; stroke-opacity:1; fill:none" points="
  162.857,396.656 486.089,396.656 
  "/>
<polyline clip-path="url(#clip520)" style="stroke:#000000; stroke-linecap:butt; stroke-linejoin:round; stroke-width:4; stroke-opacity:1; fill:none" points="
  162.857,396.656 162.857,377.758 
  "/>
<polyline clip-path="url(#clip520)" style="stroke:#000000; stroke-linecap:butt; stroke-linejoin:round; stroke-width:4; stroke-opacity:1; fill:none" points="
  486.089,396.656 486.089,377.758 
  "/>
<path clip-path="url(#clip520)" d="M162.857 421.175 Q159.246 421.175 157.418 424.739 Q155.612 428.281 155.612 435.411 Q155.612 442.517 157.418 446.082 Q159.246 449.623 162.857 449.623 Q166.492 449.623 168.297 446.082 Q170.126 442.517 170.126 435.411 Q170.126 428.281 168.297 424.739 Q166.492 421.175 162.857 421.175 M162.857 417.471 Q168.668 417.471 171.723 422.077 Q174.802 426.661 174.802 435.411 Q174.802 444.137 171.723 448.744 Q168.668 453.327 162.857 453.327 Q157.047 453.327 153.969 448.744 Q150.913 444.137 150.913 435.411 Q150.913 426.661 153.969 422.077 Q157.047 417.471 162.857 417.471 Z" fill="#000000" fill-rule="evenodd" fill-opacity="1" /><path clip-path="url(#clip520)" d="M449.782 448.721 L466.101 448.721 L466.101 452.656 L444.157 452.656 L444.157 448.721 Q446.819 445.966 451.402 441.336 Q456.008 436.684 457.189 435.341 Q459.434 432.818 460.314 431.082 Q461.217 429.323 461.217 427.633 Q461.217 424.878 459.272 423.142 Q457.351 421.406 454.249 421.406 Q452.05 421.406 449.596 422.17 Q447.166 422.934 444.388 424.485 L444.388 419.763 Q447.212 418.628 449.666 418.05 Q452.12 417.471 454.157 417.471 Q459.527 417.471 462.721 420.156 Q465.916 422.841 465.916 427.332 Q465.916 429.462 465.106 431.383 Q464.319 433.281 462.212 435.874 Q461.633 436.545 458.532 439.762 Q455.43 442.957 449.782 448.721 Z" fill="#000000" fill-rule="evenodd" fill-opacity="1" /><path clip-path="url(#clip520)" d="M474.735 418.096 L496.957 418.096 L496.957 420.087 L484.411 452.656 L479.527 452.656 L491.332 422.031 L474.735 422.031 L474.735 418.096 Z" fill="#000000" fill-rule="evenodd" fill-opacity="1" /><path clip-path="url(#clip520)" d="M516.078 421.175 Q512.466 421.175 510.638 424.739 Q508.832 428.281 508.832 435.411 Q508.832 442.517 510.638 446.082 Q512.466 449.623 516.078 449.623 Q519.712 449.623 521.517 446.082 Q523.346 442.517 523.346 435.411 Q523.346 428.281 521.517 424.739 Q519.712 421.175 516.078 421.175 M516.078 417.471 Q521.888 417.471 524.943 422.077 Q528.022 426.661 528.022 435.411 Q528.022 444.137 524.943 448.744 Q521.888 453.327 516.078 453.327 Q510.267 453.327 507.189 448.744 Q504.133 444.137 504.133 435.411 Q504.133 426.661 507.189 422.077 Q510.267 417.471 516.078 417.471 Z" fill="#000000" fill-rule="evenodd" fill-opacity="1" /><polyline clip-path="url(#clip520)" style="stroke:#000000; stroke-linecap:butt; stroke-linejoin:round; stroke-width:4; stroke-opacity:1; fill:none" points="
  162.857,396.656 162.857,47.2441 
  "/>
<polyline clip-path="url(#clip520)" style="stroke:#000000; stroke-linecap:butt; stroke-linejoin:round; stroke-width:4; stroke-opacity:1; fill:none" points="
  162.857,396.656 181.755,396.656 
  "/>
<polyline clip-path="url(#clip520)" style="stroke:#000000; stroke-linecap:butt; stroke-linejoin:round; stroke-width:4; stroke-opacity:1; fill:none" points="
  162.857,47.2441 181.755,47.2441 
  "/>
<path clip-path="url(#clip520)" d="M126.913 382.455 Q123.302 382.455 121.473 386.019 Q119.668 389.561 119.668 396.691 Q119.668 403.797 121.473 407.362 Q123.302 410.903 126.913 410.903 Q130.547 410.903 132.353 407.362 Q134.182 403.797 134.182 396.691 Q134.182 389.561 132.353 386.019 Q130.547 382.455 126.913 382.455 M126.913 378.751 Q132.723 378.751 135.779 383.357 Q138.857 387.941 138.857 396.691 Q138.857 405.417 135.779 410.024 Q132.723 414.607 126.913 414.607 Q121.103 414.607 118.024 410.024 Q114.969 405.417 114.969 396.691 Q114.969 387.941 118.024 383.357 Q121.103 378.751 126.913 378.751 Z" fill="#000000" fill-rule="evenodd" fill-opacity="1" /><path clip-path="url(#clip520)" d="M60.6171 60.5889 L76.9365 60.5889 L76.9365 64.5241 L54.9921 64.5241 L54.9921 60.5889 Q57.6541 57.8343 62.2375 53.2047 Q66.8439 48.552 68.0245 47.2094 Q70.2698 44.6862 71.1494 42.9501 Q72.0522 41.1909 72.0522 39.5011 Q72.0522 36.7465 70.1078 35.0104 Q68.1865 33.2743 65.0847 33.2743 Q62.8856 33.2743 60.4319 34.0381 Q58.0014 34.802 55.2236 36.3529 L55.2236 31.6308 Q58.0477 30.4965 60.5014 29.9178 Q62.955 29.3391 64.9921 29.3391 Q70.3624 29.3391 73.5568 32.0243 Q76.7513 34.7094 76.7513 39.2002 Q76.7513 41.3298 75.9411 43.2511 Q75.1541 45.1492 73.0476 47.7418 Q72.4689 48.4131 69.367 51.6306 Q66.2652 54.8251 60.6171 60.5889 Z" fill="#000000" fill-rule="evenodd" fill-opacity="1" /><path clip-path="url(#clip520)" d="M85.5707 29.9641 L107.793 29.9641 L107.793 31.9548 L95.2465 64.5241 L90.3623 64.5241 L102.168 33.8993 L85.5707 33.8993 L85.5707 29.9641 Z" fill="#000000" fill-rule="evenodd" fill-opacity="1" /><path clip-path="url(#clip520)" d="M126.913 33.0428 Q123.302 33.0428 121.473 36.6076 Q119.668 40.1492 119.668 47.2788 Q119.668 54.3853 121.473 57.9501 Q123.302 61.4917 126.913 61.4917 Q130.547 61.4917 132.353 57.9501 Q134.182 54.3853 134.182 47.2788 Q134.182 40.1492 132.353 36.6076 Q130.547 33.0428 126.913 33.0428 M126.913 29.3391 Q132.723 29.3391 135.779 33.9456 Q138.857 38.5289 138.857 47.2788 Q138.857 56.0056 135.779 60.6121 Q132.723 65.1954 126.913 65.1954 Q121.103 65.1954 118.024 60.6121 Q114.969 56.0056 114.969 47.2788 Q114.969 38.5289 118.024 33.9456 Q121.103 29.3391 126.913 29.3391 Z" fill="#000000" fill-rule="evenodd" fill-opacity="1" /><polyline clip-path="url(#clip522)" style="stroke:#808080; stroke-linecap:butt; stroke-linejoin:round; stroke-width:4; stroke-opacity:1; fill:none" stroke-dasharray="16, 10" points="
  162.857,396.656 522.004,8.42056 
  "/>
<polyline clip-path="url(#clip522)" style="stroke:#0072b2; stroke-linecap:butt; stroke-linejoin:round; stroke-width:12; stroke-opacity:1; fill:none" points="
  163.072,396.469 163.201,396.404 163.609,396.333 163.581,396.255 163.347,396.118 163.513,395.964 163.995,395.762 163.346,395.556 164.632,395.233 164.382,394.747 
  165.056,394.198 167.071,393.482 166.891,392.569 168.296,391.379 170.611,389.878 172.254,387.927 174.829,384.277 178.004,380.756 182.135,376.311 185.581,371.419 
  191.127,366.579 195.549,361.884 201.034,357.223 205.916,352.702 210.5,348.27 214.837,343.881 218.332,339.624 221.728,335.451 224.505,331.361 228.78,326.732 
  234.952,320.804 239.241,315.054 244.369,309.438 249.149,304.064 253.902,298.779 257.553,293.688 262.615,288.716 266.005,283.958 270.432,279.28 274.02,274.772 
  277.516,270.399 281.168,266.158 285.423,262.043 288.632,258.024 292.273,254.179 295.123,250.398 298.628,246.779 302.082,243.244 304.473,239.792 307.103,236.466 
  309.975,233.262 313.987,230.11 317.147,227.074 318.706,224.11 321.293,221.273 324.482,218.483 326.862,215.795 330.333,213.24 331.675,210.71 333.832,208.254 
  336.403,205.857 339.424,203.546 341.355,201.305 343.711,199.117 345.757,197.009 348.109,194.95 350.458,192.979 352.224,191.042 353.552,189.163 355.957,187.353 
  357.64,185.585 360.559,183.87 361.74,182.218 362.969,180.616 365.348,179.051 366.506,177.543 368.869,176.071 370.55,174.652 370.352,172.897 371.555,171.164 
  373.17,169.398 374.227,167.713 377.115,166.091 378.525,164.543 380.9,163.052 382.741,161.623 384.887,160.254 386.532,158.942 388.983,157.684 391.108,156.478 
  393.757,155.328 394.998,154.22 397.306,153.164 398.527,152.151 399.77,151.175 400.794,150.24 403.745,149.344 406.243,148.485 407.628,147.661 
  "/>
<path clip-path="url(#clip520)" d="M200.743 428.513 L200.743 455.387 L206.391 455.387 Q213.544 455.387 216.854 452.147 Q220.187 448.906 220.187 441.915 Q220.187 434.971 216.854 431.753 Q213.544 428.513 206.391 428.513 L200.743 428.513 M196.067 424.67 L205.674 424.67 Q215.72 424.67 220.419 428.86 Q225.118 433.026 225.118 441.915 Q225.118 450.85 220.396 455.04 Q215.674 459.23 205.674 459.23 L196.067 459.23 L196.067 424.67 Z" fill="#000000" fill-rule="evenodd" fill-opacity="1" /><path clip-path="url(#clip520)" d="M244.169 446.198 Q239.007 446.198 237.016 447.378 Q235.025 448.559 235.025 451.406 Q235.025 453.674 236.507 455.017 Q238.011 456.336 240.581 456.336 Q244.123 456.336 246.252 453.837 Q248.405 451.313 248.405 447.147 L248.405 446.198 L244.169 446.198 M252.664 444.438 L252.664 459.23 L248.405 459.23 L248.405 455.295 Q246.947 457.656 244.771 458.79 Q242.595 459.901 239.447 459.901 Q235.465 459.901 233.104 457.679 Q230.766 455.434 230.766 451.684 Q230.766 447.309 233.683 445.087 Q236.623 442.864 242.433 442.864 L248.405 442.864 L248.405 442.448 Q248.405 439.508 246.46 437.911 Q244.539 436.29 241.044 436.29 Q238.822 436.29 236.715 436.823 Q234.609 437.355 232.664 438.42 L232.664 434.485 Q235.002 433.582 237.201 433.142 Q239.4 432.679 241.484 432.679 Q247.109 432.679 249.886 435.596 Q252.664 438.513 252.664 444.438 Z" fill="#000000" fill-rule="evenodd" fill-opacity="1" /><path clip-path="url(#clip520)" d="M265.65 425.943 L265.65 433.304 L274.423 433.304 L274.423 436.614 L265.65 436.614 L265.65 450.688 Q265.65 453.86 266.507 454.762 Q267.386 455.665 270.048 455.665 L274.423 455.665 L274.423 459.23 L270.048 459.23 Q265.118 459.23 263.243 457.401 Q261.368 455.549 261.368 450.688 L261.368 436.614 L258.243 436.614 L258.243 433.304 L261.368 433.304 L261.368 425.943 L265.65 425.943 Z" fill="#000000" fill-rule="evenodd" fill-opacity="1" /><path clip-path="url(#clip520)" d="M291.807 446.198 Q286.645 446.198 284.655 447.378 Q282.664 448.559 282.664 451.406 Q282.664 453.674 284.145 455.017 Q285.65 456.336 288.22 456.336 Q291.761 456.336 293.891 453.837 Q296.044 451.313 296.044 447.147 L296.044 446.198 L291.807 446.198 M300.303 444.438 L300.303 459.23 L296.044 459.23 L296.044 455.295 Q294.585 457.656 292.409 458.79 Q290.233 459.901 287.085 459.901 Q283.104 459.901 280.743 457.679 Q278.405 455.434 278.405 451.684 Q278.405 447.309 281.321 445.087 Q284.261 442.864 290.071 442.864 L296.044 442.864 L296.044 442.448 Q296.044 439.508 294.099 437.911 Q292.178 436.29 288.682 436.29 Q286.46 436.29 284.354 436.823 Q282.247 437.355 280.303 438.42 L280.303 434.485 Q282.641 433.582 284.84 433.142 Q287.039 432.679 289.122 432.679 Q294.747 432.679 297.525 435.596 Q300.303 438.513 300.303 444.438 Z" fill="#000000" fill-rule="evenodd" fill-opacity="1" /><path clip-path="url(#clip520)" d="M323.752 423.212 L333.566 423.212 L333.566 426.522 L328.011 426.522 L328.011 462.17 L333.566 462.17 L333.566 465.48 L323.752 465.48 L323.752 423.212 Z" fill="#000000" fill-rule="evenodd" fill-opacity="1" /><path clip-path="url(#clip520)" d="M342.201 469.091 L342.201 433.304 L346.46 433.304 L346.46 449.415 Q346.46 452.772 348.057 454.485 Q349.654 456.198 352.779 456.198 Q356.205 456.198 357.918 454.253 Q359.654 452.309 359.654 448.42 L359.654 433.304 L363.914 433.304 L363.914 453.258 Q363.914 454.647 364.307 455.318 Q364.724 455.966 365.58 455.966 Q365.789 455.966 366.159 455.85 Q366.529 455.711 367.177 455.434 L367.177 458.86 Q366.228 459.392 365.372 459.647 Q364.539 459.901 363.728 459.901 Q362.131 459.901 361.182 458.999 Q360.233 458.096 359.886 456.244 Q358.728 458.073 357.039 458.999 Q355.372 459.901 353.103 459.901 Q350.742 459.901 349.076 458.999 Q347.432 458.096 346.46 456.29 L346.46 469.091 L342.201 469.091 Z" fill="#000000" fill-rule="evenodd" fill-opacity="1" /><path clip-path="url(#clip520)" d="M392.987 438.281 Q394.585 435.411 396.807 434.045 Q399.029 432.679 402.038 432.679 Q406.089 432.679 408.288 435.526 Q410.487 438.35 410.487 443.582 L410.487 459.23 L406.205 459.23 L406.205 443.721 Q406.205 439.994 404.886 438.188 Q403.566 436.383 400.858 436.383 Q397.548 436.383 395.626 438.582 Q393.705 440.781 393.705 444.577 L393.705 459.23 L389.423 459.23 L389.423 443.721 Q389.423 439.971 388.103 438.188 Q386.784 436.383 384.029 436.383 Q380.765 436.383 378.844 438.605 Q376.923 440.804 376.923 444.577 L376.923 459.23 L372.64 459.23 L372.64 433.304 L376.923 433.304 L376.923 437.332 Q378.381 434.948 380.418 433.813 Q382.455 432.679 385.256 432.679 Q388.08 432.679 390.048 434.114 Q392.038 435.55 392.987 438.281 Z" fill="#000000" fill-rule="evenodd" fill-opacity="1" /><path clip-path="url(#clip520)" d="M428.936 423.212 L428.936 465.48 L419.122 465.48 L419.122 462.17 L424.654 462.17 L424.654 426.522 L419.122 426.522 L419.122 423.212 L428.936 423.212 Z" fill="#000000" fill-rule="evenodd" fill-opacity="1" /><path clip-path="url(#clip520)" d="M97.6912 352.956 L97.6912 345.989 L121.21 337.169 L97.6912 328.304 L97.6912 321.336 L132.251 321.336 L132.251 325.896 L101.904 325.896 L125.608 334.808 L125.608 339.507 L101.904 348.419 L132.251 348.419 L132.251 352.956 L97.6912 352.956 Z" fill="#000000" fill-rule="evenodd" fill-opacity="1" /><path clip-path="url(#clip520)" d="M109.312 302.193 Q109.312 305.619 111.997 307.609 Q114.659 309.6 119.311 309.6 Q123.964 309.6 126.649 307.632 Q129.311 305.642 129.311 302.193 Q129.311 298.79 126.626 296.799 Q123.941 294.808 119.311 294.808 Q114.705 294.808 112.02 296.799 Q109.312 298.79 109.312 302.193 M105.7 302.193 Q105.7 296.637 109.312 293.466 Q112.923 290.295 119.311 290.295 Q125.677 290.295 129.311 293.466 Q132.923 296.637 132.923 302.193 Q132.923 307.771 129.311 310.943 Q125.677 314.091 119.311 314.091 Q112.923 314.091 109.312 310.943 Q105.7 307.771 105.7 302.193 Z" fill="#000000" fill-rule="evenodd" fill-opacity="1" /><path clip-path="url(#clip520)" d="M110.261 266.174 L96.2329 266.174 L96.2329 261.915 L132.251 261.915 L132.251 266.174 L128.362 266.174 Q130.677 267.517 131.811 269.577 Q132.923 271.614 132.923 274.484 Q132.923 279.183 129.173 282.146 Q125.423 285.086 119.311 285.086 Q113.2 285.086 109.45 282.146 Q105.7 279.183 105.7 274.484 Q105.7 271.614 106.835 269.577 Q107.946 267.517 110.261 266.174 M119.311 280.688 Q124.011 280.688 126.696 278.767 Q129.358 276.822 129.358 273.443 Q129.358 270.063 126.696 268.119 Q124.011 266.174 119.311 266.174 Q114.612 266.174 111.95 268.119 Q109.265 270.063 109.265 273.443 Q109.265 276.822 111.95 278.767 Q114.612 280.688 119.311 280.688 Z" fill="#000000" fill-rule="evenodd" fill-opacity="1" /><path clip-path="url(#clip520)" d="M118.224 230.966 L120.307 230.966 L120.307 250.549 Q124.705 250.272 127.02 247.91 Q129.311 245.526 129.311 241.29 Q129.311 238.836 128.71 236.545 Q128.108 234.23 126.904 231.962 L130.932 231.962 Q131.904 234.253 132.413 236.661 Q132.923 239.068 132.923 241.545 Q132.923 247.748 129.311 251.383 Q125.7 254.994 119.543 254.994 Q113.177 254.994 109.45 251.568 Q105.7 248.119 105.7 242.286 Q105.7 237.054 109.08 234.022 Q112.437 230.966 118.224 230.966 M116.974 235.225 Q113.478 235.272 111.395 237.193 Q109.312 239.091 109.312 242.239 Q109.312 245.804 111.325 247.957 Q113.339 250.086 116.997 250.41 L116.974 235.225 Z" fill="#000000" fill-rule="evenodd" fill-opacity="1" /><path clip-path="url(#clip520)" d="M96.2329 223.975 L96.2329 219.716 L132.251 219.716 L132.251 223.975 L96.2329 223.975 Z" fill="#000000" fill-rule="evenodd" fill-opacity="1" /><path clip-path="url(#clip520)" d="M96.2329 196.128 L96.2329 186.314 L99.5431 186.314 L99.5431 191.869 L135.191 191.869 L135.191 186.314 L138.501 186.314 L138.501 196.128 L96.2329 196.128 Z" fill="#000000" fill-rule="evenodd" fill-opacity="1" /><path clip-path="url(#clip520)" d="M142.112 177.679 L106.325 177.679 L106.325 173.42 L122.436 173.42 Q125.793 173.42 127.506 171.823 Q129.219 170.226 129.219 167.101 Q129.219 163.675 127.274 161.962 Q125.33 160.226 121.441 160.226 L106.325 160.226 L106.325 155.967 L126.279 155.967 Q127.668 155.967 128.339 155.573 Q128.987 155.156 128.987 154.3 Q128.987 154.092 128.872 153.721 Q128.733 153.351 128.455 152.703 L131.881 152.703 Q132.413 153.652 132.668 154.508 Q132.923 155.342 132.923 156.152 Q132.923 157.749 132.02 158.698 Q131.117 159.647 129.265 159.994 Q131.094 161.152 132.02 162.842 Q132.923 164.508 132.923 166.777 Q132.923 169.138 132.02 170.804 Q131.117 172.448 129.311 173.42 L142.112 173.42 L142.112 177.679 Z" fill="#000000" fill-rule="evenodd" fill-opacity="1" /><path clip-path="url(#clip520)" d="M111.302 126.893 Q108.432 125.295 107.066 123.073 Q105.7 120.851 105.7 117.842 Q105.7 113.791 108.548 111.592 Q111.372 109.393 116.603 109.393 L132.251 109.393 L132.251 113.675 L116.742 113.675 Q113.015 113.675 111.21 114.995 Q109.404 116.314 109.404 119.022 Q109.404 122.332 111.603 124.254 Q113.802 126.175 117.599 126.175 L132.251 126.175 L132.251 130.457 L116.742 130.457 Q112.992 130.457 111.21 131.777 Q109.404 133.096 109.404 135.851 Q109.404 139.115 111.626 141.036 Q113.825 142.957 117.599 142.957 L132.251 142.957 L132.251 147.24 L106.325 147.24 L106.325 142.957 L110.353 142.957 Q107.969 141.499 106.835 139.462 Q105.7 137.425 105.7 134.624 Q105.7 131.8 107.136 129.832 Q108.571 127.842 111.302 126.893 Z" fill="#000000" fill-rule="evenodd" fill-opacity="1" /><path clip-path="url(#clip520)" d="M96.2329 90.9437 L138.501 90.9437 L138.501 100.759 L135.191 100.759 L135.191 95.2261 L99.5431 95.2261 L99.5431 100.759 L96.2329 100.759 L96.2329 90.9437 Z" fill="#000000" fill-rule="evenodd" fill-opacity="1" /><path clip-path="url(#clip520)" d="M247.102 73.4273 L247.102 82.0558 Q242.97 78.2074 238.271 76.3035 Q233.612 74.3996 228.346 74.3996 Q217.976 74.3996 212.466 80.7595 Q206.957 87.0789 206.957 99.0696 Q206.957 111.02 212.466 117.38 Q217.976 123.699 228.346 123.699 Q233.612 123.699 238.271 121.795 Q242.97 119.891 247.102 116.043 L247.102 124.59 Q242.808 127.507 237.987 128.965 Q233.207 130.424 227.86 130.424 Q214.127 130.424 206.228 122.038 Q198.329 113.612 198.329 99.0696 Q198.329 84.4863 206.228 76.1009 Q214.127 67.6751 227.86 67.6751 Q233.288 67.6751 238.068 69.1334 Q242.889 70.5512 247.102 73.4273 Z" fill="#000000" fill-rule="evenodd" fill-opacity="1" /><path clip-path="url(#clip520)" d="
M696.191 396.656 L1019.42 396.656 L1019.42 47.2441 L696.191 47.2441  Z
  " fill="#ffffff" fill-rule="evenodd" fill-opacity="1"/>
<defs>
  <clipPath id="clip523">
    <rect x="696" y="47" width="324" height="350"/>
  </clipPath>
</defs>
<polyline clip-path="url(#clip520)" style="stroke:#000000; stroke-linecap:butt; stroke-linejoin:round; stroke-width:4; stroke-opacity:1; fill:none" points="
  696.191,396.656 1019.42,396.656 
  "/>
<polyline clip-path="url(#clip520)" style="stroke:#000000; stroke-linecap:butt; stroke-linejoin:round; stroke-width:4; stroke-opacity:1; fill:none" points="
  696.191,396.656 696.191,377.758 
  "/>
<polyline clip-path="url(#clip520)" style="stroke:#000000; stroke-linecap:butt; stroke-linejoin:round; stroke-width:4; stroke-opacity:1; fill:none" points="
  1019.42,396.656 1019.42,377.758 
  "/>
<path clip-path="url(#clip520)" d="M696.191 421.175 Q692.58 421.175 690.751 424.739 Q688.945 428.281 688.945 435.411 Q688.945 442.517 690.751 446.082 Q692.58 449.623 696.191 449.623 Q699.825 449.623 701.631 446.082 Q703.459 442.517 703.459 435.411 Q703.459 428.281 701.631 424.739 Q699.825 421.175 696.191 421.175 M696.191 417.471 Q702.001 417.471 705.056 422.077 Q708.135 426.661 708.135 435.411 Q708.135 444.137 705.056 448.744 Q702.001 453.327 696.191 453.327 Q690.381 453.327 687.302 448.744 Q684.246 444.137 684.246 435.411 Q684.246 426.661 687.302 422.077 Q690.381 417.471 696.191 417.471 Z" fill="#000000" fill-rule="evenodd" fill-opacity="1" /><path clip-path="url(#clip520)" d="M983.115 448.721 L999.434 448.721 L999.434 452.656 L977.49 452.656 L977.49 448.721 Q980.152 445.966 984.735 441.336 Q989.342 436.684 990.522 435.341 Q992.768 432.818 993.647 431.082 Q994.55 429.323 994.55 427.633 Q994.55 424.878 992.606 423.142 Q990.684 421.406 987.582 421.406 Q985.383 421.406 982.93 422.17 Q980.499 422.934 977.721 424.485 L977.721 419.763 Q980.545 418.628 982.999 418.05 Q985.453 417.471 987.49 417.471 Q992.86 417.471 996.055 420.156 Q999.249 422.841 999.249 427.332 Q999.249 429.462 998.439 431.383 Q997.652 433.281 995.545 435.874 Q994.967 436.545 991.865 439.762 Q988.763 442.957 983.115 448.721 Z" fill="#000000" fill-rule="evenodd" fill-opacity="1" /><path clip-path="url(#clip520)" d="M1008.07 418.096 L1030.29 418.096 L1030.29 420.087 L1017.74 452.656 L1012.86 452.656 L1024.67 422.031 L1008.07 422.031 L1008.07 418.096 Z" fill="#000000" fill-rule="evenodd" fill-opacity="1" /><path clip-path="url(#clip520)" d="M1049.41 421.175 Q1045.8 421.175 1043.97 424.739 Q1042.17 428.281 1042.17 435.411 Q1042.17 442.517 1043.97 446.082 Q1045.8 449.623 1049.41 449.623 Q1053.05 449.623 1054.85 446.082 Q1056.68 442.517 1056.68 435.411 Q1056.68 428.281 1054.85 424.739 Q1053.05 421.175 1049.41 421.175 M1049.41 417.471 Q1055.22 417.471 1058.28 422.077 Q1061.36 426.661 1061.36 435.411 Q1061.36 444.137 1058.28 448.744 Q1055.22 453.327 1049.41 453.327 Q1043.6 453.327 1040.52 448.744 Q1037.47 444.137 1037.47 435.411 Q1037.47 426.661 1040.52 422.077 Q1043.6 417.471 1049.41 417.471 Z" fill="#000000" fill-rule="evenodd" fill-opacity="1" /><polyline clip-path="url(#clip520)" style="stroke:#000000; stroke-linecap:butt; stroke-linejoin:round; stroke-width:4; stroke-opacity:1; fill:none" points="
  696.191,396.656 696.191,47.2441 
  "/>
<polyline clip-path="url(#clip520)" style="stroke:#000000; stroke-linecap:butt; stroke-linejoin:round; stroke-width:4; stroke-opacity:1; fill:none" points="
  696.191,396.656 715.088,396.656 
  "/>
<polyline clip-path="url(#clip520)" style="stroke:#000000; stroke-linecap:butt; stroke-linejoin:round; stroke-width:4; stroke-opacity:1; fill:none" points="
  696.191,47.2441 715.088,47.2441 
  "/>
<path clip-path="url(#clip520)" d="M660.246 382.455 Q656.635 382.455 654.807 386.019 Q653.001 389.561 653.001 396.691 Q653.001 403.797 654.807 407.362 Q656.635 410.903 660.246 410.903 Q663.881 410.903 665.686 407.362 Q667.515 403.797 667.515 396.691 Q667.515 389.561 665.686 386.019 Q663.881 382.455 660.246 382.455 M660.246 378.751 Q666.057 378.751 669.112 383.357 Q672.191 387.941 672.191 396.691 Q672.191 405.417 669.112 410.024 Q666.057 414.607 660.246 414.607 Q654.436 414.607 651.358 410.024 Q648.302 405.417 648.302 396.691 Q648.302 387.941 651.358 383.357 Q654.436 378.751 660.246 378.751 Z" fill="#000000" fill-rule="evenodd" fill-opacity="1" /><path clip-path="url(#clip520)" d="M593.95 60.5889 L610.27 60.5889 L610.27 64.5241 L588.325 64.5241 L588.325 60.5889 Q590.987 57.8343 595.571 53.2047 Q600.177 48.552 601.358 47.2094 Q603.603 44.6862 604.483 42.9501 Q605.386 41.1909 605.386 39.5011 Q605.386 36.7465 603.441 35.0104 Q601.52 33.2743 598.418 33.2743 Q596.219 33.2743 593.765 34.0381 Q591.335 34.802 588.557 36.3529 L588.557 31.6308 Q591.381 30.4965 593.835 29.9178 Q596.288 29.3391 598.325 29.3391 Q603.696 29.3391 606.89 32.0243 Q610.085 34.7094 610.085 39.2002 Q610.085 41.3298 609.274 43.2511 Q608.487 45.1492 606.381 47.7418 Q605.802 48.4131 602.7 51.6306 Q599.599 54.8251 593.95 60.5889 Z" fill="#000000" fill-rule="evenodd" fill-opacity="1" /><path clip-path="url(#clip520)" d="M618.904 29.9641 L641.126 29.9641 L641.126 31.9548 L628.58 64.5241 L623.696 64.5241 L635.501 33.8993 L618.904 33.8993 L618.904 29.9641 Z" fill="#000000" fill-rule="evenodd" fill-opacity="1" /><path clip-path="url(#clip520)" d="M660.246 33.0428 Q656.635 33.0428 654.807 36.6076 Q653.001 40.1492 653.001 47.2788 Q653.001 54.3853 654.807 57.9501 Q656.635 61.4917 660.246 61.4917 Q663.881 61.4917 665.686 57.9501 Q667.515 54.3853 667.515 47.2788 Q667.515 40.1492 665.686 36.6076 Q663.881 33.0428 660.246 33.0428 M660.246 29.3391 Q666.057 29.3391 669.112 33.9456 Q672.191 38.5289 672.191 47.2788 Q672.191 56.0056 669.112 60.6121 Q666.057 65.1954 660.246 65.1954 Q654.436 65.1954 651.358 60.6121 Q648.302 56.0056 648.302 47.2788 Q648.302 38.5289 651.358 33.9456 Q654.436 29.3391 660.246 29.3391 Z" fill="#000000" fill-rule="evenodd" fill-opacity="1" /><polyline clip-path="url(#clip523)" style="stroke:#808080; stroke-linecap:butt; stroke-linejoin:round; stroke-width:4; stroke-opacity:1; fill:none" stroke-dasharray="16, 10" points="
  696.191,396.656 1055.34,8.42056 
  "/>
<polyline clip-path="url(#clip523)" style="stroke:#f0e442; stroke-linecap:butt; stroke-linejoin:round; stroke-width:12; stroke-opacity:1; fill:none" points="
  696.523,396.513 696.595,396.494 696.557,396.474 696.601,396.451 696.697,396.425 696.985,396.392 696.958,396.359 696.963,396.321 696.799,396.285 697.245,396.238 
  697.632,396.172 697.71,396.096 697.897,396.008 698.328,395.905 698.391,395.787 699.296,395.65 699.611,395.492 700.028,395.305 700.27,395.049 700.932,394.712 
  701.679,394.308 702.549,393.819 703.068,393.228 703.574,392.515 704.303,391.652 705.338,390.611 706.083,389.336 707.318,387.813 708.297,385.972 709.922,383.748 
  711.078,380.951 712.782,377.961 714.602,374.984 716.383,372.071 718.487,369.166 720.341,366.295 722.803,363.445 725.164,360.583 728.004,357.775 730.672,354.988 
  733.798,352.205 736.431,349.458 739.694,346.716 743.053,343.995 746.01,341.309 749.526,338.627 751.768,335.98 754.779,333.353 757.652,330.746 760.002,328.127 
  763.098,325.558 767.036,323.008 769.268,320.461 771.422,317.934 773.71,315.425 776.139,312.935 777.603,310.477 779.999,308.038 782.574,305.588 785.488,303.185 
  787.849,300.535 790.819,297.769 793.634,295.055 793.901,292.363 796.367,289.681 799.148,287.035 802.547,284.411 801.408,281.81 804.575,279.219 805.564,276.649 
  807.117,274.114 809.629,271.588 813.527,269.096 816.403,266.625 819.379,264.163 819.948,261.722 822.619,259.315 823.17,257.131 824.426,254.596 827.511,252.237 
  828.74,249.91 830.76,247.602 832.796,245.2 834.696,242.795 836.115,240.413 
  "/>
<path clip-path="url(#clip520)" d="M734.076 428.513 L734.076 455.387 L739.725 455.387 Q746.877 455.387 750.187 452.147 Q753.521 448.906 753.521 441.915 Q753.521 434.971 750.187 431.753 Q746.877 428.513 739.725 428.513 L734.076 428.513 M729.401 424.67 L739.007 424.67 Q749.053 424.67 753.752 428.86 Q758.451 433.026 758.451 441.915 Q758.451 450.85 753.729 455.04 Q749.007 459.23 739.007 459.23 L729.401 459.23 L729.401 424.67 Z" fill="#000000" fill-rule="evenodd" fill-opacity="1" /><path clip-path="url(#clip520)" d="M777.502 446.198 Q772.34 446.198 770.349 447.378 Q768.359 448.559 768.359 451.406 Q768.359 453.674 769.84 455.017 Q771.345 456.336 773.914 456.336 Q777.456 456.336 779.585 453.837 Q781.738 451.313 781.738 447.147 L781.738 446.198 L777.502 446.198 M785.997 444.438 L785.997 459.23 L781.738 459.23 L781.738 455.295 Q780.28 457.656 778.104 458.79 Q775.928 459.901 772.78 459.901 Q768.798 459.901 766.437 457.679 Q764.099 455.434 764.099 451.684 Q764.099 447.309 767.016 445.087 Q769.956 442.864 775.766 442.864 L781.738 442.864 L781.738 442.448 Q781.738 439.508 779.794 437.911 Q777.873 436.29 774.377 436.29 Q772.155 436.29 770.048 436.823 Q767.942 437.355 765.998 438.42 L765.998 434.485 Q768.336 433.582 770.535 433.142 Q772.734 432.679 774.817 432.679 Q780.442 432.679 783.22 435.596 Q785.997 438.513 785.997 444.438 Z" fill="#000000" fill-rule="evenodd" fill-opacity="1" /><path clip-path="url(#clip520)" d="M798.984 425.943 L798.984 433.304 L807.757 433.304 L807.757 436.614 L798.984 436.614 L798.984 450.688 Q798.984 453.86 799.84 454.762 Q800.72 455.665 803.382 455.665 L807.757 455.665 L807.757 459.23 L803.382 459.23 Q798.451 459.23 796.576 457.401 Q794.701 455.549 794.701 450.688 L794.701 436.614 L791.576 436.614 L791.576 433.304 L794.701 433.304 L794.701 425.943 L798.984 425.943 Z" fill="#000000" fill-rule="evenodd" fill-opacity="1" /><path clip-path="url(#clip520)" d="M825.141 446.198 Q819.979 446.198 817.988 447.378 Q815.997 448.559 815.997 451.406 Q815.997 453.674 817.479 455.017 Q818.983 456.336 821.553 456.336 Q825.094 456.336 827.224 453.837 Q829.377 451.313 829.377 447.147 L829.377 446.198 L825.141 446.198 M833.636 444.438 L833.636 459.23 L829.377 459.23 L829.377 455.295 Q827.919 457.656 825.743 458.79 Q823.567 459.901 820.419 459.901 Q816.437 459.901 814.076 457.679 Q811.738 455.434 811.738 451.684 Q811.738 447.309 814.655 445.087 Q817.595 442.864 823.405 442.864 L829.377 442.864 L829.377 442.448 Q829.377 439.508 827.432 437.911 Q825.511 436.29 822.016 436.29 Q819.794 436.29 817.687 436.823 Q815.581 437.355 813.636 438.42 L813.636 434.485 Q815.974 433.582 818.173 433.142 Q820.372 432.679 822.456 432.679 Q828.081 432.679 830.858 435.596 Q833.636 438.513 833.636 444.438 Z" fill="#000000" fill-rule="evenodd" fill-opacity="1" /><path clip-path="url(#clip520)" d="M857.085 423.212 L866.9 423.212 L866.9 426.522 L861.344 426.522 L861.344 462.17 L866.9 462.17 L866.9 465.48 L857.085 465.48 L857.085 423.212 Z" fill="#000000" fill-rule="evenodd" fill-opacity="1" /><path clip-path="url(#clip520)" d="M875.534 469.091 L875.534 433.304 L879.793 433.304 L879.793 449.415 Q879.793 452.772 881.39 454.485 Q882.988 456.198 886.113 456.198 Q889.539 456.198 891.252 454.253 Q892.988 452.309 892.988 448.42 L892.988 433.304 L897.247 433.304 L897.247 453.258 Q897.247 454.647 897.64 455.318 Q898.057 455.966 898.914 455.966 Q899.122 455.966 899.492 455.85 Q899.863 455.711 900.511 455.434 L900.511 458.86 Q899.562 459.392 898.705 459.647 Q897.872 459.901 897.062 459.901 Q895.464 459.901 894.515 458.999 Q893.566 458.096 893.219 456.244 Q892.062 458.073 890.372 458.999 Q888.705 459.901 886.437 459.901 Q884.076 459.901 882.409 458.999 Q880.765 458.096 879.793 456.29 L879.793 469.091 L875.534 469.091 Z" fill="#000000" fill-rule="evenodd" fill-opacity="1" /><path clip-path="url(#clip520)" d="M926.321 438.281 Q927.918 435.411 930.14 434.045 Q932.362 432.679 935.372 432.679 Q939.423 432.679 941.622 435.526 Q943.821 438.35 943.821 443.582 L943.821 459.23 L939.538 459.23 L939.538 443.721 Q939.538 439.994 938.219 438.188 Q936.899 436.383 934.191 436.383 Q930.881 436.383 928.96 438.582 Q927.038 440.781 927.038 444.577 L927.038 459.23 L922.756 459.23 L922.756 443.721 Q922.756 439.971 921.437 438.188 Q920.117 436.383 917.363 436.383 Q914.099 436.383 912.177 438.605 Q910.256 440.804 910.256 444.577 L910.256 459.23 L905.974 459.23 L905.974 433.304 L910.256 433.304 L910.256 437.332 Q911.714 434.948 913.751 433.813 Q915.788 432.679 918.589 432.679 Q921.413 432.679 923.381 434.114 Q925.372 435.55 926.321 438.281 Z" fill="#000000" fill-rule="evenodd" fill-opacity="1" /><path clip-path="url(#clip520)" d="M962.27 423.212 L962.27 465.48 L952.455 465.48 L952.455 462.17 L957.987 462.17 L957.987 426.522 L952.455 426.522 L952.455 423.212 L962.27 423.212 Z" fill="#000000" fill-rule="evenodd" fill-opacity="1" /><path clip-path="url(#clip520)" d="M631.025 352.956 L631.025 345.989 L654.543 337.169 L631.025 328.304 L631.025 321.336 L665.585 321.336 L665.585 325.896 L635.237 325.896 L658.941 334.808 L658.941 339.507 L635.237 348.419 L665.585 348.419 L665.585 352.956 L631.025 352.956 Z" fill="#000000" fill-rule="evenodd" fill-opacity="1" /><path clip-path="url(#clip520)" d="M642.645 302.193 Q642.645 305.619 645.33 307.609 Q647.992 309.6 652.645 309.6 Q657.298 309.6 659.983 307.632 Q662.645 305.642 662.645 302.193 Q662.645 298.79 659.96 296.799 Q657.274 294.808 652.645 294.808 Q648.038 294.808 645.353 296.799 Q642.645 298.79 642.645 302.193 M639.034 302.193 Q639.034 296.637 642.645 293.466 Q646.256 290.295 652.645 290.295 Q659.011 290.295 662.645 293.466 Q666.256 296.637 666.256 302.193 Q666.256 307.771 662.645 310.943 Q659.011 314.091 652.645 314.091 Q646.256 314.091 642.645 310.943 Q639.034 307.771 639.034 302.193 Z" fill="#000000" fill-rule="evenodd" fill-opacity="1" /><path clip-path="url(#clip520)" d="M643.594 266.174 L629.566 266.174 L629.566 261.915 L665.585 261.915 L665.585 266.174 L661.696 266.174 Q664.01 267.517 665.145 269.577 Q666.256 271.614 666.256 274.484 Q666.256 279.183 662.506 282.146 Q658.756 285.086 652.645 285.086 Q646.534 285.086 642.784 282.146 Q639.034 279.183 639.034 274.484 Q639.034 271.614 640.168 269.577 Q641.279 267.517 643.594 266.174 M652.645 280.688 Q657.344 280.688 660.029 278.767 Q662.691 276.822 662.691 273.443 Q662.691 270.063 660.029 268.119 Q657.344 266.174 652.645 266.174 Q647.946 266.174 645.284 268.119 Q642.599 270.063 642.599 273.443 Q642.599 276.822 645.284 278.767 Q647.946 280.688 652.645 280.688 Z" fill="#000000" fill-rule="evenodd" fill-opacity="1" /><path clip-path="url(#clip520)" d="M651.557 230.966 L653.64 230.966 L653.64 250.549 Q658.038 250.272 660.353 247.91 Q662.645 245.526 662.645 241.29 Q662.645 238.836 662.043 236.545 Q661.441 234.23 660.237 231.962 L664.265 231.962 Q665.237 234.253 665.747 236.661 Q666.256 239.068 666.256 241.545 Q666.256 247.748 662.645 251.383 Q659.034 254.994 652.876 254.994 Q646.511 254.994 642.784 251.568 Q639.034 248.119 639.034 242.286 Q639.034 237.054 642.413 234.022 Q645.77 230.966 651.557 230.966 M650.307 235.225 Q646.812 235.272 644.728 237.193 Q642.645 239.091 642.645 242.239 Q642.645 245.804 644.659 247.957 Q646.673 250.086 650.33 250.41 L650.307 235.225 Z" fill="#000000" fill-rule="evenodd" fill-opacity="1" /><path clip-path="url(#clip520)" d="M629.566 223.975 L629.566 219.716 L665.585 219.716 L665.585 223.975 L629.566 223.975 Z" fill="#000000" fill-rule="evenodd" fill-opacity="1" /><path clip-path="url(#clip520)" d="M629.566 196.128 L629.566 186.314 L632.876 186.314 L632.876 191.869 L668.524 191.869 L668.524 186.314 L671.835 186.314 L671.835 196.128 L629.566 196.128 Z" fill="#000000" fill-rule="evenodd" fill-opacity="1" /><path clip-path="url(#clip520)" d="M675.446 177.679 L639.659 177.679 L639.659 173.42 L655.77 173.42 Q659.126 173.42 660.839 171.823 Q662.552 170.226 662.552 167.101 Q662.552 163.675 660.608 161.962 Q658.663 160.226 654.774 160.226 L639.659 160.226 L639.659 155.967 L659.612 155.967 Q661.001 155.967 661.673 155.573 Q662.321 155.156 662.321 154.3 Q662.321 154.092 662.205 153.721 Q662.066 153.351 661.788 152.703 L665.214 152.703 Q665.747 153.652 666.001 154.508 Q666.256 155.342 666.256 156.152 Q666.256 157.749 665.353 158.698 Q664.45 159.647 662.598 159.994 Q664.427 161.152 665.353 162.842 Q666.256 164.508 666.256 166.777 Q666.256 169.138 665.353 170.804 Q664.45 172.448 662.645 173.42 L675.446 173.42 L675.446 177.679 Z" fill="#000000" fill-rule="evenodd" fill-opacity="1" /><path clip-path="url(#clip520)" d="M644.636 126.893 Q641.765 125.295 640.4 123.073 Q639.034 120.851 639.034 117.842 Q639.034 113.791 641.881 111.592 Q644.705 109.393 649.936 109.393 L665.585 109.393 L665.585 113.675 L650.075 113.675 Q646.349 113.675 644.543 114.995 Q642.737 116.314 642.737 119.022 Q642.737 122.332 644.937 124.254 Q647.136 126.175 650.932 126.175 L665.585 126.175 L665.585 130.457 L650.075 130.457 Q646.325 130.457 644.543 131.777 Q642.737 133.096 642.737 135.851 Q642.737 139.115 644.96 141.036 Q647.159 142.957 650.932 142.957 L665.585 142.957 L665.585 147.24 L639.659 147.24 L639.659 142.957 L643.687 142.957 Q641.302 141.499 640.168 139.462 Q639.034 137.425 639.034 134.624 Q639.034 131.8 640.469 129.832 Q641.904 127.842 644.636 126.893 Z" fill="#000000" fill-rule="evenodd" fill-opacity="1" /><path clip-path="url(#clip520)" d="M629.566 90.9437 L671.835 90.9437 L671.835 100.759 L668.524 100.759 L668.524 95.2261 L632.876 95.2261 L632.876 100.759 L629.566 100.759 L629.566 90.9437 Z" fill="#000000" fill-rule="evenodd" fill-opacity="1" /><path clip-path="url(#clip520)" d="
M1229.52 396.656 L1552.76 396.656 L1552.76 47.2441 L1229.52 47.2441  Z
  " fill="#ffffff" fill-rule="evenodd" fill-opacity="1"/>
<defs>
  <clipPath id="clip524">
    <rect x="1229" y="47" width="324" height="350"/>
  </clipPath>
</defs>
<polyline clip-path="url(#clip520)" style="stroke:#000000; stroke-linecap:butt; stroke-linejoin:round; stroke-width:4; stroke-opacity:1; fill:none" points="
  1229.52,396.656 1552.76,396.656 
  "/>
<polyline clip-path="url(#clip520)" style="stroke:#000000; stroke-linecap:butt; stroke-linejoin:round; stroke-width:4; stroke-opacity:1; fill:none" points="
  1229.52,396.656 1229.52,377.758 
  "/>
<polyline clip-path="url(#clip520)" style="stroke:#000000; stroke-linecap:butt; stroke-linejoin:round; stroke-width:4; stroke-opacity:1; fill:none" points="
  1552.76,396.656 1552.76,377.758 
  "/>
<path clip-path="url(#clip520)" d="M1229.52 421.175 Q1225.91 421.175 1224.08 424.739 Q1222.28 428.281 1222.28 435.411 Q1222.28 442.517 1224.08 446.082 Q1225.91 449.623 1229.52 449.623 Q1233.16 449.623 1234.96 446.082 Q1236.79 442.517 1236.79 435.411 Q1236.79 428.281 1234.96 424.739 Q1233.16 421.175 1229.52 421.175 M1229.52 417.471 Q1235.33 417.471 1238.39 422.077 Q1241.47 426.661 1241.47 435.411 Q1241.47 444.137 1238.39 448.744 Q1235.33 453.327 1229.52 453.327 Q1223.71 453.327 1220.64 448.744 Q1217.58 444.137 1217.58 435.411 Q1217.58 426.661 1220.64 422.077 Q1223.71 417.471 1229.52 417.471 Z" fill="#000000" fill-rule="evenodd" fill-opacity="1" /><path clip-path="url(#clip520)" d="M1516.45 448.721 L1532.77 448.721 L1532.77 452.656 L1510.82 452.656 L1510.82 448.721 Q1513.49 445.966 1518.07 441.336 Q1522.68 436.684 1523.86 435.341 Q1526.1 432.818 1526.98 431.082 Q1527.88 429.323 1527.88 427.633 Q1527.88 424.878 1525.94 423.142 Q1524.02 421.406 1520.92 421.406 Q1518.72 421.406 1516.26 422.17 Q1513.83 422.934 1511.05 424.485 L1511.05 419.763 Q1513.88 418.628 1516.33 418.05 Q1518.79 417.471 1520.82 417.471 Q1526.19 417.471 1529.39 420.156 Q1532.58 422.841 1532.58 427.332 Q1532.58 429.462 1531.77 431.383 Q1530.99 433.281 1528.88 435.874 Q1528.3 436.545 1525.2 439.762 Q1522.1 442.957 1516.45 448.721 Z" fill="#000000" fill-rule="evenodd" fill-opacity="1" /><path clip-path="url(#clip520)" d="M1541.4 418.096 L1563.62 418.096 L1563.62 420.087 L1551.08 452.656 L1546.19 452.656 L1558 422.031 L1541.4 422.031 L1541.4 418.096 Z" fill="#000000" fill-rule="evenodd" fill-opacity="1" /><path clip-path="url(#clip520)" d="M1582.74 421.175 Q1579.13 421.175 1577.3 424.739 Q1575.5 428.281 1575.5 435.411 Q1575.5 442.517 1577.3 446.082 Q1579.13 449.623 1582.74 449.623 Q1586.38 449.623 1588.18 446.082 Q1590.01 442.517 1590.01 435.411 Q1590.01 428.281 1588.18 424.739 Q1586.38 421.175 1582.74 421.175 M1582.74 417.471 Q1588.55 417.471 1591.61 422.077 Q1594.69 426.661 1594.69 435.411 Q1594.69 444.137 1591.61 448.744 Q1588.55 453.327 1582.74 453.327 Q1576.93 453.327 1573.86 448.744 Q1570.8 444.137 1570.8 435.411 Q1570.8 426.661 1573.86 422.077 Q1576.93 417.471 1582.74 417.471 Z" fill="#000000" fill-rule="evenodd" fill-opacity="1" /><polyline clip-path="url(#clip520)" style="stroke:#000000; stroke-linecap:butt; stroke-linejoin:round; stroke-width:4; stroke-opacity:1; fill:none" points="
  1229.52,396.656 1229.52,47.2441 
  "/>
<polyline clip-path="url(#clip520)" style="stroke:#000000; stroke-linecap:butt; stroke-linejoin:round; stroke-width:4; stroke-opacity:1; fill:none" points="
  1229.52,396.656 1248.42,396.656 
  "/>
<polyline clip-path="url(#clip520)" style="stroke:#000000; stroke-linecap:butt; stroke-linejoin:round; stroke-width:4; stroke-opacity:1; fill:none" points="
  1229.52,47.2441 1248.42,47.2441 
  "/>
<path clip-path="url(#clip520)" d="M1193.58 382.455 Q1189.97 382.455 1188.14 386.019 Q1186.33 389.561 1186.33 396.691 Q1186.33 403.797 1188.14 407.362 Q1189.97 410.903 1193.58 410.903 Q1197.21 410.903 1199.02 407.362 Q1200.85 403.797 1200.85 396.691 Q1200.85 389.561 1199.02 386.019 Q1197.21 382.455 1193.58 382.455 M1193.58 378.751 Q1199.39 378.751 1202.45 383.357 Q1205.52 387.941 1205.52 396.691 Q1205.52 405.417 1202.45 410.024 Q1199.39 414.607 1193.58 414.607 Q1187.77 414.607 1184.69 410.024 Q1181.64 405.417 1181.64 396.691 Q1181.64 387.941 1184.69 383.357 Q1187.77 378.751 1193.58 378.751 Z" fill="#000000" fill-rule="evenodd" fill-opacity="1" /><path clip-path="url(#clip520)" d="M1127.28 60.5889 L1143.6 60.5889 L1143.6 64.5241 L1121.66 64.5241 L1121.66 60.5889 Q1124.32 57.8343 1128.9 53.2047 Q1133.51 48.552 1134.69 47.2094 Q1136.94 44.6862 1137.82 42.9501 Q1138.72 41.1909 1138.72 39.5011 Q1138.72 36.7465 1136.77 35.0104 Q1134.85 33.2743 1131.75 33.2743 Q1129.55 33.2743 1127.1 34.0381 Q1124.67 34.802 1121.89 36.3529 L1121.89 31.6308 Q1124.71 30.4965 1127.17 29.9178 Q1129.62 29.3391 1131.66 29.3391 Q1137.03 29.3391 1140.22 32.0243 Q1143.42 34.7094 1143.42 39.2002 Q1143.42 41.3298 1142.61 43.2511 Q1141.82 45.1492 1139.71 47.7418 Q1139.14 48.4131 1136.03 51.6306 Q1132.93 54.8251 1127.28 60.5889 Z" fill="#000000" fill-rule="evenodd" fill-opacity="1" /><path clip-path="url(#clip520)" d="M1152.24 29.9641 L1174.46 29.9641 L1174.46 31.9548 L1161.91 64.5241 L1157.03 64.5241 L1168.83 33.8993 L1152.24 33.8993 L1152.24 29.9641 Z" fill="#000000" fill-rule="evenodd" fill-opacity="1" /><path clip-path="url(#clip520)" d="M1193.58 33.0428 Q1189.97 33.0428 1188.14 36.6076 Q1186.33 40.1492 1186.33 47.2788 Q1186.33 54.3853 1188.14 57.9501 Q1189.97 61.4917 1193.58 61.4917 Q1197.21 61.4917 1199.02 57.9501 Q1200.85 54.3853 1200.85 47.2788 Q1200.85 40.1492 1199.02 36.6076 Q1197.21 33.0428 1193.58 33.0428 M1193.58 29.3391 Q1199.39 29.3391 1202.45 33.9456 Q1205.52 38.5289 1205.52 47.2788 Q1205.52 56.0056 1202.45 60.6121 Q1199.39 65.1954 1193.58 65.1954 Q1187.77 65.1954 1184.69 60.6121 Q1181.64 56.0056 1181.64 47.2788 Q1181.64 38.5289 1184.69 33.9456 Q1187.77 29.3391 1193.58 29.3391 Z" fill="#000000" fill-rule="evenodd" fill-opacity="1" /><polyline clip-path="url(#clip524)" style="stroke:#808080; stroke-linecap:butt; stroke-linejoin:round; stroke-width:4; stroke-opacity:1; fill:none" stroke-dasharray="16, 10" points="
  1229.52,396.656 1588.67,8.42056 
  "/>
<polyline clip-path="url(#clip524)" style="stroke:#d55e00; stroke-linecap:butt; stroke-linejoin:round; stroke-width:12; stroke-opacity:1; fill:none" points="
  1231.41,396.507 1231.69,396.49 1231.45,396.471 1230.61,396.449 1230.98,396.426 1231.2,396.4 1231.14,396.37 1232.46,396.338 1230.92,396.301 1231.51,396.261 
  1232.66,396.216 1232.63,396.165 1232.52,396.106 1232.45,396.026 1233.38,395.936 1234.62,395.831 1234.07,395.712 1235.17,395.576 1233.92,395.419 1234.1,395.24 
  1234.24,395.036 1234.5,394.8 1235.67,394.529 1236.23,394.227 1235.22,393.872 1237.38,393.466 1236.98,393.004 1236.11,392.48 1238.47,391.871 1240.11,391.178 
  1241.97,390.392 1240.69,389.478 1244.93,388.44 1244.24,387.261 1246.69,385.89 1247.34,384.318 1248.09,382.548 1248.49,380.506 1249.14,378.15 1252.01,375.472 
  1253.54,372.433 1257.88,368.896 1258.41,364.824 1263.15,360.176 1265.82,355.232 1270.67,350.106 1274.36,345.023 1277.62,339.798 1281.92,334.546 1288.43,329.259 
  1295.06,324.078 1302.44,318.847 1307.73,313.642 1314.2,308.465 1316.94,303.314 1322.13,298.191 1326.37,293.094 1331.44,288.061 1336.27,282.532 1344.73,276.85 
  1350.06,271.165 1355.77,265.514 1359.45,259.932 1365.71,254.347 1366.42,248.832 1370.91,243.313 1377.34,237.827 1388.57,232.374 1390.68,226.005 1400.44,220.378 
  1400.4,214.752 1406.29,209.195 1411.11,203.672 1414.27,198.184 1417.45,192.696 1420.53,187.242 1425.9,181.822 1428.34,176.437 1433.17,171.084 1438.52,165.668 
  1444.56,160.383 1453.44,155.131 1458.39,149.912 1462.52,144.726 1466.6,139.572 1463.78,134.45 1476.62,129.392 1481.5,124.334 1482.66,119.277 1484.8,114.312 
  1493.9,109.318 1500.3,104.386 1503.04,99.4838 1506.86,94.6127 1503,89.772 1509.91,84.8728 1517.47,80.093 1521.74,75.3138 1520.96,70.5357 1520.64,65.8455 
  1522.11,61.0986 1525.71,56.4104 
  "/>
<path clip-path="url(#clip520)" d="M1267.41 428.513 L1267.41 455.387 L1273.06 455.387 Q1280.21 455.387 1283.52 452.147 Q1286.85 448.906 1286.85 441.915 Q1286.85 434.971 1283.52 431.753 Q1280.21 428.513 1273.06 428.513 L1267.41 428.513 M1262.73 424.67 L1272.34 424.67 Q1282.39 424.67 1287.09 428.86 Q1291.78 433.026 1291.78 441.915 Q1291.78 450.85 1287.06 455.04 Q1282.34 459.23 1272.34 459.23 L1262.73 459.23 L1262.73 424.67 Z" fill="#000000" fill-rule="evenodd" fill-opacity="1" /><path clip-path="url(#clip520)" d="M1310.84 446.198 Q1305.67 446.198 1303.68 447.378 Q1301.69 448.559 1301.69 451.406 Q1301.69 453.674 1303.17 455.017 Q1304.68 456.336 1307.25 456.336 Q1310.79 456.336 1312.92 453.837 Q1315.07 451.313 1315.07 447.147 L1315.07 446.198 L1310.84 446.198 M1319.33 444.438 L1319.33 459.23 L1315.07 459.23 L1315.07 455.295 Q1313.61 457.656 1311.44 458.79 Q1309.26 459.901 1306.11 459.901 Q1302.13 459.901 1299.77 457.679 Q1297.43 455.434 1297.43 451.684 Q1297.43 447.309 1300.35 445.087 Q1303.29 442.864 1309.1 442.864 L1315.07 442.864 L1315.07 442.448 Q1315.07 439.508 1313.13 437.911 Q1311.21 436.29 1307.71 436.29 Q1305.49 436.29 1303.38 436.823 Q1301.28 437.355 1299.33 438.42 L1299.33 434.485 Q1301.67 433.582 1303.87 433.142 Q1306.07 432.679 1308.15 432.679 Q1313.78 432.679 1316.55 435.596 Q1319.33 438.513 1319.33 444.438 Z" fill="#000000" fill-rule="evenodd" fill-opacity="1" /><path clip-path="url(#clip520)" d="M1332.32 425.943 L1332.32 433.304 L1341.09 433.304 L1341.09 436.614 L1332.32 436.614 L1332.32 450.688 Q1332.32 453.86 1333.17 454.762 Q1334.05 455.665 1336.71 455.665 L1341.09 455.665 L1341.09 459.23 L1336.71 459.23 Q1331.78 459.23 1329.91 457.401 Q1328.03 455.549 1328.03 450.688 L1328.03 436.614 L1324.91 436.614 L1324.91 433.304 L1328.03 433.304 L1328.03 425.943 L1332.32 425.943 Z" fill="#000000" fill-rule="evenodd" fill-opacity="1" /><path clip-path="url(#clip520)" d="M1358.47 446.198 Q1353.31 446.198 1351.32 447.378 Q1349.33 448.559 1349.33 451.406 Q1349.33 453.674 1350.81 455.017 Q1352.32 456.336 1354.89 456.336 Q1358.43 456.336 1360.56 453.837 Q1362.71 451.313 1362.71 447.147 L1362.71 446.198 L1358.47 446.198 M1366.97 444.438 L1366.97 459.23 L1362.71 459.23 L1362.71 455.295 Q1361.25 457.656 1359.08 458.79 Q1356.9 459.901 1353.75 459.901 Q1349.77 459.901 1347.41 457.679 Q1345.07 455.434 1345.07 451.684 Q1345.07 447.309 1347.99 445.087 Q1350.93 442.864 1356.74 442.864 L1362.71 442.864 L1362.71 442.448 Q1362.71 439.508 1360.77 437.911 Q1358.84 436.29 1355.35 436.29 Q1353.13 436.29 1351.02 436.823 Q1348.91 437.355 1346.97 438.42 L1346.97 434.485 Q1349.31 433.582 1351.51 433.142 Q1353.71 432.679 1355.79 432.679 Q1361.41 432.679 1364.19 435.596 Q1366.97 438.513 1366.97 444.438 Z" fill="#000000" fill-rule="evenodd" fill-opacity="1" /><path clip-path="url(#clip520)" d="M1390.42 423.212 L1400.23 423.212 L1400.23 426.522 L1394.68 426.522 L1394.68 462.17 L1400.23 462.17 L1400.23 465.48 L1390.42 465.48 L1390.42 423.212 Z" fill="#000000" fill-rule="evenodd" fill-opacity="1" /><path clip-path="url(#clip520)" d="M1408.87 469.091 L1408.87 433.304 L1413.13 433.304 L1413.13 449.415 Q1413.13 452.772 1414.72 454.485 Q1416.32 456.198 1419.45 456.198 Q1422.87 456.198 1424.58 454.253 Q1426.32 452.309 1426.32 448.42 L1426.32 433.304 L1430.58 433.304 L1430.58 453.258 Q1430.58 454.647 1430.97 455.318 Q1431.39 455.966 1432.25 455.966 Q1432.46 455.966 1432.83 455.85 Q1433.2 455.711 1433.84 455.434 L1433.84 458.86 Q1432.9 459.392 1432.04 459.647 Q1431.21 459.901 1430.4 459.901 Q1428.8 459.901 1427.85 458.999 Q1426.9 458.096 1426.55 456.244 Q1425.4 458.073 1423.71 458.999 Q1422.04 459.901 1419.77 459.901 Q1417.41 459.901 1415.74 458.999 Q1414.1 458.096 1413.13 456.29 L1413.13 469.091 L1408.87 469.091 Z" fill="#000000" fill-rule="evenodd" fill-opacity="1" /><path clip-path="url(#clip520)" d="M1459.65 438.281 Q1461.25 435.411 1463.47 434.045 Q1465.7 432.679 1468.71 432.679 Q1472.76 432.679 1474.95 435.526 Q1477.15 438.35 1477.15 443.582 L1477.15 459.23 L1472.87 459.23 L1472.87 443.721 Q1472.87 439.994 1471.55 438.188 Q1470.23 436.383 1467.52 436.383 Q1464.21 436.383 1462.29 438.582 Q1460.37 440.781 1460.37 444.577 L1460.37 459.23 L1456.09 459.23 L1456.09 443.721 Q1456.09 439.971 1454.77 438.188 Q1453.45 436.383 1450.7 436.383 Q1447.43 436.383 1445.51 438.605 Q1443.59 440.804 1443.59 444.577 L1443.59 459.23 L1439.31 459.23 L1439.31 433.304 L1443.59 433.304 L1443.59 437.332 Q1445.05 434.948 1447.08 433.813 Q1449.12 432.679 1451.92 432.679 Q1454.75 432.679 1456.71 434.114 Q1458.71 435.55 1459.65 438.281 Z" fill="#000000" fill-rule="evenodd" fill-opacity="1" /><path clip-path="url(#clip520)" d="M1495.6 423.212 L1495.6 465.48 L1485.79 465.48 L1485.79 462.17 L1491.32 462.17 L1491.32 426.522 L1485.79 426.522 L1485.79 423.212 L1495.6 423.212 Z" fill="#000000" fill-rule="evenodd" fill-opacity="1" /><path clip-path="url(#clip520)" d="M1164.36 352.956 L1164.36 345.989 L1187.88 337.169 L1164.36 328.304 L1164.36 321.336 L1198.92 321.336 L1198.92 325.896 L1168.57 325.896 L1192.27 334.808 L1192.27 339.507 L1168.57 348.419 L1198.92 348.419 L1198.92 352.956 L1164.36 352.956 Z" fill="#000000" fill-rule="evenodd" fill-opacity="1" /><path clip-path="url(#clip520)" d="M1175.98 302.193 Q1175.98 305.619 1178.66 307.609 Q1181.33 309.6 1185.98 309.6 Q1190.63 309.6 1193.32 307.632 Q1195.98 305.642 1195.98 302.193 Q1195.98 298.79 1193.29 296.799 Q1190.61 294.808 1185.98 294.808 Q1181.37 294.808 1178.69 296.799 Q1175.98 298.79 1175.98 302.193 M1172.37 302.193 Q1172.37 296.637 1175.98 293.466 Q1179.59 290.295 1185.98 290.295 Q1192.34 290.295 1195.98 293.466 Q1199.59 296.637 1199.59 302.193 Q1199.59 307.771 1195.98 310.943 Q1192.34 314.091 1185.98 314.091 Q1179.59 314.091 1175.98 310.943 Q1172.37 307.771 1172.37 302.193 Z" fill="#000000" fill-rule="evenodd" fill-opacity="1" /><path clip-path="url(#clip520)" d="M1176.93 266.174 L1162.9 266.174 L1162.9 261.915 L1198.92 261.915 L1198.92 266.174 L1195.03 266.174 Q1197.34 267.517 1198.48 269.577 Q1199.59 271.614 1199.59 274.484 Q1199.59 279.183 1195.84 282.146 Q1192.09 285.086 1185.98 285.086 Q1179.87 285.086 1176.12 282.146 Q1172.37 279.183 1172.37 274.484 Q1172.37 271.614 1173.5 269.577 Q1174.61 267.517 1176.93 266.174 M1185.98 280.688 Q1190.68 280.688 1193.36 278.767 Q1196.02 276.822 1196.02 273.443 Q1196.02 270.063 1193.36 268.119 Q1190.68 266.174 1185.98 266.174 Q1181.28 266.174 1178.62 268.119 Q1175.93 270.063 1175.93 273.443 Q1175.93 276.822 1178.62 278.767 Q1181.28 280.688 1185.98 280.688 Z" fill="#000000" fill-rule="evenodd" fill-opacity="1" /><path clip-path="url(#clip520)" d="M1184.89 230.966 L1186.97 230.966 L1186.97 250.549 Q1191.37 250.272 1193.69 247.91 Q1195.98 245.526 1195.98 241.29 Q1195.98 238.836 1195.38 236.545 Q1194.77 234.23 1193.57 231.962 L1197.6 231.962 Q1198.57 234.253 1199.08 236.661 Q1199.59 239.068 1199.59 241.545 Q1199.59 247.748 1195.98 251.383 Q1192.37 254.994 1186.21 254.994 Q1179.84 254.994 1176.12 251.568 Q1172.37 248.119 1172.37 242.286 Q1172.37 237.054 1175.75 234.022 Q1179.1 230.966 1184.89 230.966 M1183.64 235.225 Q1180.14 235.272 1178.06 237.193 Q1175.98 239.091 1175.98 242.239 Q1175.98 245.804 1177.99 247.957 Q1180.01 250.086 1183.66 250.41 L1183.64 235.225 Z" fill="#000000" fill-rule="evenodd" fill-opacity="1" /><path clip-path="url(#clip520)" d="M1162.9 223.975 L1162.9 219.716 L1198.92 219.716 L1198.92 223.975 L1162.9 223.975 Z" fill="#000000" fill-rule="evenodd" fill-opacity="1" /><path clip-path="url(#clip520)" d="M1162.9 196.128 L1162.9 186.314 L1166.21 186.314 L1166.21 191.869 L1201.86 191.869 L1201.86 186.314 L1205.17 186.314 L1205.17 196.128 L1162.9 196.128 Z" fill="#000000" fill-rule="evenodd" fill-opacity="1" /><path clip-path="url(#clip520)" d="M1208.78 177.679 L1172.99 177.679 L1172.99 173.42 L1189.1 173.42 Q1192.46 173.42 1194.17 171.823 Q1195.89 170.226 1195.89 167.101 Q1195.89 163.675 1193.94 161.962 Q1192 160.226 1188.11 160.226 L1172.99 160.226 L1172.99 155.967 L1192.95 155.967 Q1194.33 155.967 1195.01 155.573 Q1195.65 155.156 1195.65 154.3 Q1195.65 154.092 1195.54 153.721 Q1195.4 153.351 1195.12 152.703 L1198.55 152.703 Q1199.08 153.652 1199.33 154.508 Q1199.59 155.342 1199.59 156.152 Q1199.59 157.749 1198.69 158.698 Q1197.78 159.647 1195.93 159.994 Q1197.76 161.152 1198.69 162.842 Q1199.59 164.508 1199.59 166.777 Q1199.59 169.138 1198.69 170.804 Q1197.78 172.448 1195.98 173.42 L1208.78 173.42 L1208.78 177.679 Z" fill="#000000" fill-rule="evenodd" fill-opacity="1" /><path clip-path="url(#clip520)" d="M1177.97 126.893 Q1175.1 125.295 1173.73 123.073 Q1172.37 120.851 1172.37 117.842 Q1172.37 113.791 1175.21 111.592 Q1178.04 109.393 1183.27 109.393 L1198.92 109.393 L1198.92 113.675 L1183.41 113.675 Q1179.68 113.675 1177.88 114.995 Q1176.07 116.314 1176.07 119.022 Q1176.07 122.332 1178.27 124.254 Q1180.47 126.175 1184.27 126.175 L1198.92 126.175 L1198.92 130.457 L1183.41 130.457 Q1179.66 130.457 1177.88 131.777 Q1176.07 133.096 1176.07 135.851 Q1176.07 139.115 1178.29 141.036 Q1180.49 142.957 1184.27 142.957 L1198.92 142.957 L1198.92 147.24 L1172.99 147.24 L1172.99 142.957 L1177.02 142.957 Q1174.64 141.499 1173.5 139.462 Q1172.37 137.425 1172.37 134.624 Q1172.37 131.8 1173.8 129.832 Q1175.24 127.842 1177.97 126.893 Z" fill="#000000" fill-rule="evenodd" fill-opacity="1" /><path clip-path="url(#clip520)" d="M1162.9 90.9437 L1205.17 90.9437 L1205.17 100.759 L1201.86 100.759 L1201.86 95.2261 L1166.21 95.2261 L1166.21 100.759 L1162.9 100.759 L1162.9 90.9437 Z" fill="#000000" fill-rule="evenodd" fill-opacity="1" /></svg>
