<?xml version="1.0" encoding="UTF-8" standalone="no"?>
<svg
   width="400"
   height="120"
   viewBox="0 0 1600 480"
   version="1.1"
   id="svg337"
   sodipodi:docname="fig4_r2.svg"
   inkscape:version="1.2.1 (9c6d41e410, 2022-07-14)"
   xmlns:inkscape="http://www.inkscape.org/namespaces/inkscape"
   xmlns:sodipodi="http://sodipodi.sourceforge.net/DTD/sodipodi-0.dtd"
   xmlns="http://www.w3.org/2000/svg"
   xmlns:svg="http://www.w3.org/2000/svg">
  <sodipodi:namedview
     id="namedview339"
     pagecolor="#ffffff"
     bordercolor="#666666"
     borderopacity="1.0"
     inkscape:showpageshadow="2"
     inkscape:pageopacity="0.0"
     inkscape:pagecheckerboard="0"
     inkscape:deskcolor="#d1d1d1"
     showgrid="false"
     inkscape:zoom="2.8226149"
     inkscape:cx="220.71732"
     inkscape:cy="46.588007"
     inkscape:window-width="1920"
     inkscape:window-height="1008"
     inkscape:window-x="0"
     inkscape:window-y="40"
     inkscape:window-maximized="1"
     inkscape:current-layer="svg337" />
  <defs
     id="defs5">
    <clipPath
       id="clip550">
      <rect
         x="0"
         y="0"
         width="1600"
         height="480"
         id="rect2" />
    </clipPath>
  </defs>
  <defs
     id="defs12">
    <clipPath
       id="clip551">
      <rect
         x="320"
         y="0"
         width="1121"
         height="480"
         id="rect9" />
    </clipPath>
  </defs>
  <path
     clip-path="url(#clip550)"
     d=" M162.857 396.656 L486.089 396.656 L486.089 47.2441 L162.857 47.2441  Z   "
     fill="#ffffff"
     fill-rule="evenodd"
     fill-opacity="1"
     id="path14" />
  <defs
     id="defs19">
    <clipPath
       id="clip552">
      <rect
         x="162"
         y="47"
         width="324"
         height="350"
         id="rect16" />
    </clipPath>
  </defs>
  <polyline
     clip-path="url(#clip550)"
     style="stroke:#000000; stroke-linecap:butt; stroke-linejoin:round; stroke-width:4; stroke-opacity:1; fill:none"
     points="   162.857,396.656 486.089,396.656    "
     id="polyline21" />
  <polyline
     clip-path="url(#clip550)"
     style="stroke:#000000; stroke-linecap:butt; stroke-linejoin:round; stroke-width:4; stroke-opacity:1; fill:none"
     points="   162.857,396.656 162.857,377.758    "
     id="polyline23" />
  <polyline
     clip-path="url(#clip550)"
     style="stroke:#000000; stroke-linecap:butt; stroke-linejoin:round; stroke-width:4; stroke-opacity:1; fill:none"
     points="   486.089,396.656 486.089,377.758    "
     id="polyline25" />
  <path
     clip-path="url(#clip550)"
     d="M162.857 421.175 Q159.246 421.175 157.418 424.739 Q155.612 428.281 155.612 435.411 Q155.612 442.517 157.418 446.082 Q159.246 449.623 162.857 449.623 Q166.492 449.623 168.297 446.082 Q170.126 442.517 170.126 435.411 Q170.126 428.281 168.297 424.739 Q166.492 421.175 162.857 421.175 M162.857 417.471 Q168.668 417.471 171.723 422.077 Q174.802 426.661 174.802 435.411 Q174.802 444.137 171.723 448.744 Q168.668 453.327 162.857 453.327 Q157.047 453.327 153.969 448.744 Q150.913 444.137 150.913 435.411 Q150.913 426.661 153.969 422.077 Q157.047 417.471 162.857 417.471 Z"
     fill="#000000"
     fill-rule="evenodd"
     fill-opacity="1"
     id="path27" />
  <path
     clip-path="url(#clip550)"
     d="M449.782 448.721 L466.101 448.721 L466.101 452.656 L444.157 452.656 L444.157 448.721 Q446.819 445.966 451.402 441.336 Q456.008 436.684 457.189 435.341 Q459.434 432.818 460.314 431.082 Q461.217 429.323 461.217 427.633 Q461.217 424.878 459.272 423.142 Q457.351 421.406 454.249 421.406 Q452.05 421.406 449.596 422.17 Q447.166 422.934 444.388 424.485 L444.388 419.763 Q447.212 418.628 449.666 418.05 Q452.12 417.471 454.157 417.471 Q459.527 417.471 462.721 420.156 Q465.916 422.841 465.916 427.332 Q465.916 429.462 465.106 431.383 Q464.319 433.281 462.212 435.874 Q461.633 436.545 458.532 439.762 Q455.43 442.957 449.782 448.721 Z"
     fill="#000000"
     fill-rule="evenodd"
     fill-opacity="1"
     id="path29" />
  <path
     clip-path="url(#clip550)"
     d="M474.735 418.096 L496.957 418.096 L496.957 420.087 L484.411 452.656 L479.527 452.656 L491.332 422.031 L474.735 422.031 L474.735 418.096 Z"
     fill="#000000"
     fill-rule="evenodd"
     fill-opacity="1"
     id="path31" />
  <path
     clip-path="url(#clip550)"
     d="M516.078 421.175 Q512.466 421.175 510.638 424.739 Q508.832 428.281 508.832 435.411 Q508.832 442.517 510.638 446.082 Q512.466 449.623 516.078 449.623 Q519.712 449.623 521.517 446.082 Q523.346 442.517 523.346 435.411 Q523.346 428.281 521.517 424.739 Q519.712 421.175 516.078 421.175 M516.078 417.471 Q521.888 417.471 524.943 422.077 Q528.022 426.661 528.022 435.411 Q528.022 444.137 524.943 448.744 Q521.888 453.327 516.078 453.327 Q510.267 453.327 507.189 448.744 Q504.133 444.137 504.133 435.411 Q504.133 426.661 507.189 422.077 Q510.267 417.471 516.078 417.471 Z"
     fill="#000000"
     fill-rule="evenodd"
     fill-opacity="1"
     id="path33" />
  <polyline
     clip-path="url(#clip550)"
     style="stroke:#000000; stroke-linecap:butt; stroke-linejoin:round; stroke-width:4; stroke-opacity:1; fill:none"
     points="   162.857,396.656 162.857,47.2441    "
     id="polyline35" />
  <polyline
     clip-path="url(#clip550)"
     style="stroke:#000000; stroke-linecap:butt; stroke-linejoin:round; stroke-width:4; stroke-opacity:1; fill:none"
     points="   162.857,396.656 181.755,396.656    "
     id="polyline37" />
  <polyline
     clip-path="url(#clip550)"
     style="stroke:#000000; stroke-linecap:butt; stroke-linejoin:round; stroke-width:4; stroke-opacity:1; fill:none"
     points="   162.857,47.2441 181.755,47.2441    "
     id="polyline39" />
  <path
     clip-path="url(#clip550)"
     d="M126.913 382.455 Q123.302 382.455 121.473 386.019 Q119.668 389.561 119.668 396.691 Q119.668 403.797 121.473 407.362 Q123.302 410.903 126.913 410.903 Q130.547 410.903 132.353 407.362 Q134.182 403.797 134.182 396.691 Q134.182 389.561 132.353 386.019 Q130.547 382.455 126.913 382.455 M126.913 378.751 Q132.723 378.751 135.779 383.357 Q138.857 387.941 138.857 396.691 Q138.857 405.417 135.779 410.024 Q132.723 414.607 126.913 414.607 Q121.103 414.607 118.024 410.024 Q114.969 405.417 114.969 396.691 Q114.969 387.941 118.024 383.357 Q121.103 378.751 126.913 378.751 Z"
     fill="#000000"
     fill-rule="evenodd"
     fill-opacity="1"
     id="path41" />
  <path
     clip-path="url(#clip550)"
     d="M60.6171 60.5889 L76.9365 60.5889 L76.9365 64.5241 L54.9921 64.5241 L54.9921 60.5889 Q57.6541 57.8343 62.2375 53.2047 Q66.8439 48.552 68.0245 47.2094 Q70.2698 44.6862 71.1494 42.9501 Q72.0522 41.1909 72.0522 39.5011 Q72.0522 36.7465 70.1078 35.0104 Q68.1865 33.2743 65.0847 33.2743 Q62.8856 33.2743 60.4319 34.0381 Q58.0014 34.802 55.2236 36.3529 L55.2236 31.6308 Q58.0477 30.4965 60.5014 29.9178 Q62.955 29.3391 64.9921 29.3391 Q70.3624 29.3391 73.5568 32.0243 Q76.7513 34.7094 76.7513 39.2002 Q76.7513 41.3298 75.9411 43.2511 Q75.1541 45.1492 73.0476 47.7418 Q72.4689 48.4131 69.367 51.6306 Q66.2652 54.8251 60.6171 60.5889 Z"
     fill="#000000"
     fill-rule="evenodd"
     fill-opacity="1"
     id="path43" />
  <path
     clip-path="url(#clip550)"
     d="M85.5707 29.9641 L107.793 29.9641 L107.793 31.9548 L95.2465 64.5241 L90.3623 64.5241 L102.168 33.8993 L85.5707 33.8993 L85.5707 29.9641 Z"
     fill="#000000"
     fill-rule="evenodd"
     fill-opacity="1"
     id="path45" />
  <path
     clip-path="url(#clip550)"
     d="M126.913 33.0428 Q123.302 33.0428 121.473 36.6076 Q119.668 40.1492 119.668 47.2788 Q119.668 54.3853 121.473 57.9501 Q123.302 61.4917 126.913 61.4917 Q130.547 61.4917 132.353 57.9501 Q134.182 54.3853 134.182 47.2788 Q134.182 40.1492 132.353 36.6076 Q130.547 33.0428 126.913 33.0428 M126.913 29.3391 Q132.723 29.3391 135.779 33.9456 Q138.857 38.5289 138.857 47.2788 Q138.857 56.0056 135.779 60.6121 Q132.723 65.1954 126.913 65.1954 Q121.103 65.1954 118.024 60.6121 Q114.969 56.0056 114.969 47.2788 Q114.969 38.5289 118.024 33.9456 Q121.103 29.3391 126.913 29.3391 Z"
     fill="#000000"
     fill-rule="evenodd"
     fill-opacity="1"
     id="path47" />
  <polyline
     clip-path="url(#clip552)"
     style="stroke:#808080; stroke-linecap:butt; stroke-linejoin:round; stroke-width:4; stroke-opacity:1; fill:none"
     stroke-dasharray="16, 10"
     points="   162.857,396.656 522.004,8.42056    "
     id="polyline49" />
  <polyline
     clip-path="url(#clip552)"
     style="stroke:#0072b2; stroke-linecap:butt; stroke-linejoin:round; stroke-width:12; stroke-opacity:1; fill:none"
     points="   163.03,396.424 163.09,396.284 163.156,395.843 163.228,395.874 163.355,396.127 163.498,395.947 163.684,395.426 163.874,396.128 164.174,394.738 164.623,395.008    165.131,394.279 165.793,392.101 166.637,392.295 167.738,390.777 169.126,388.274 170.93,386.498 174.306,383.714 177.563,380.283 181.674,375.817 186.199,372.092    190.676,366.096 195.02,361.317 199.332,355.387 203.514,350.11 207.614,345.155 211.674,340.466 215.612,336.688 219.473,333.017 223.257,330.016 227.539,325.394    233.022,318.722 238.342,314.086 243.537,308.542 248.508,303.375 253.397,298.237 258.107,294.29 262.707,288.819 267.108,285.154 271.436,280.368 275.606,276.49    279.651,272.711 283.575,268.763 287.382,264.163 291.099,260.695 294.656,256.758 298.155,253.677 301.502,249.888 304.772,246.155 307.966,243.57 311.043,240.727    314.007,237.623 316.922,233.286 319.731,229.87 322.473,228.184 325.098,225.388 327.679,221.941 330.165,219.368 332.528,215.616 334.87,214.165 337.141,211.833    339.359,209.055 341.496,205.788 343.569,203.701 345.594,201.154 347.545,198.943 349.449,196.4 351.272,193.86 353.064,191.951 354.803,190.516 356.477,187.917    358.113,186.097 359.699,182.942 361.227,181.665 362.709,180.336 364.157,177.764 365.552,176.513 366.914,173.959 368.226,172.141 369.85,172.355 371.453,171.054    373.087,169.309 374.646,168.167 376.147,165.045 377.578,163.52 378.958,160.953 380.279,158.963 381.546,156.643 382.76,154.865 383.924,152.215 385.039,149.919    386.103,147.055 387.128,145.713 388.105,143.218 389.042,141.898 389.945,140.555 390.81,139.447 391.639,136.257 392.434,133.558 393.196,132.061    "
     id="polyline51" />
  <path
     clip-path="url(#clip550)"
     d="M97.6912 360.144 L97.6912 355.468 L111.858 355.468 L111.858 338.477 L97.6912 338.477 L97.6912 333.801 L132.251 333.801 L132.251 338.477 L115.793 338.477 L115.793 355.468 L132.251 355.468 L132.251 360.144 L97.6912 360.144 Z"
     fill="#000000"
     fill-rule="evenodd"
     fill-opacity="1"
     id="path83" />
  <path
     clip-path="url(#clip550)"
     d="M118.224 302.505 L120.307 302.505 L120.307 322.088 Q124.705 321.811 127.02 319.449 Q129.311 317.065 129.311 312.829 Q129.311 310.375 128.71 308.084 Q128.108 305.769 126.904 303.5 L130.932 303.5 Q131.904 305.792 132.413 308.2 Q132.923 310.607 132.923 313.084 Q132.923 319.287 129.311 322.922 Q125.7 326.533 119.543 326.533 Q113.177 326.533 109.45 323.107 Q105.7 319.658 105.7 313.824 Q105.7 308.593 109.08 305.561 Q112.437 302.505 118.224 302.505 M116.974 306.764 Q113.478 306.811 111.395 308.732 Q109.312 310.63 109.312 313.778 Q109.312 317.343 111.325 319.496 Q113.339 321.625 116.997 321.949 L116.974 306.764 Z"
     fill="#000000"
     fill-rule="evenodd"
     fill-opacity="1"
     id="path85" />
  <path
     clip-path="url(#clip550)"
     d="M106.325 295.514 L106.325 291.255 L132.251 291.255 L132.251 295.514 L106.325 295.514 M96.2329 295.514 L96.2329 291.255 L101.626 291.255 L101.626 295.514 L96.2329 295.514 Z"
     fill="#000000"
     fill-rule="evenodd"
     fill-opacity="1"
     id="path87" />
  <path
     clip-path="url(#clip550)"
     d="M118.987 265.283 Q114.358 265.283 111.812 267.204 Q109.265 269.103 109.265 272.552 Q109.265 275.977 111.812 277.899 Q114.358 279.797 118.987 279.797 Q123.594 279.797 126.14 277.899 Q128.686 275.977 128.686 272.552 Q128.686 269.103 126.14 267.204 Q123.594 265.283 118.987 265.283 M129.034 261.024 Q135.654 261.024 138.872 263.964 Q142.112 266.903 142.112 272.968 Q142.112 275.214 141.765 277.204 Q141.441 279.195 140.747 281.07 L136.603 281.07 Q137.622 279.195 138.108 277.366 Q138.594 275.538 138.594 273.64 Q138.594 269.45 136.395 267.366 Q134.219 265.283 129.798 265.283 L127.691 265.283 Q129.983 266.603 131.117 268.663 Q132.251 270.723 132.251 273.593 Q132.251 278.362 128.617 281.278 Q124.983 284.195 118.987 284.195 Q112.969 284.195 109.335 281.278 Q105.7 278.362 105.7 273.593 Q105.7 270.723 106.835 268.663 Q107.969 266.603 110.261 265.283 L106.325 265.283 L106.325 261.024 L129.034 261.024 Z"
     fill="#000000"
     fill-rule="evenodd"
     fill-opacity="1"
     id="path89" />
  <path
     clip-path="url(#clip550)"
     d="M116.603 230.7 L132.251 230.7 L132.251 234.959 L116.742 234.959 Q113.062 234.959 111.233 236.394 Q109.404 237.83 109.404 240.7 Q109.404 244.149 111.603 246.14 Q113.802 248.13 117.599 248.13 L132.251 248.13 L132.251 252.413 L96.2329 252.413 L96.2329 248.13 L110.353 248.13 Q108.015 246.603 106.858 244.542 Q105.7 242.459 105.7 239.751 Q105.7 235.283 108.478 232.992 Q111.233 230.7 116.603 230.7 Z"
     fill="#000000"
     fill-rule="evenodd"
     fill-opacity="1"
     id="path91" />
  <path
     clip-path="url(#clip550)"
     d="M98.9644 217.992 L106.325 217.992 L106.325 209.219 L109.636 209.219 L109.636 217.992 L123.71 217.992 Q126.881 217.992 127.784 217.135 Q128.686 216.256 128.686 213.594 L128.686 209.219 L132.251 209.219 L132.251 213.594 Q132.251 218.524 130.423 220.399 Q128.571 222.274 123.71 222.274 L109.636 222.274 L109.636 225.399 L106.325 225.399 L106.325 222.274 L98.9644 222.274 L98.9644 217.992 Z"
     fill="#000000"
     fill-rule="evenodd"
     fill-opacity="1"
     id="path93" />
  <path
     clip-path="url(#clip550)"
     d="M96.2329 188.941 L96.2329 179.126 L99.5431 179.126 L99.5431 184.682 L135.191 184.682 L135.191 179.126 L138.501 179.126 L138.501 188.941 L96.2329 188.941 Z"
     fill="#000000"
     fill-rule="evenodd"
     fill-opacity="1"
     id="path95" />
  <path
     clip-path="url(#clip550)"
     d="M142.112 170.492 L106.325 170.492 L106.325 166.233 L122.436 166.233 Q125.793 166.233 127.506 164.635 Q129.219 163.038 129.219 159.913 Q129.219 156.487 127.274 154.774 Q125.33 153.038 121.441 153.038 L106.325 153.038 L106.325 148.779 L126.279 148.779 Q127.668 148.779 128.339 148.386 Q128.987 147.969 128.987 147.112 Q128.987 146.904 128.872 146.534 Q128.733 146.163 128.455 145.515 L131.881 145.515 Q132.413 146.464 132.668 147.321 Q132.923 148.154 132.923 148.964 Q132.923 150.561 132.02 151.511 Q131.117 152.46 129.265 152.807 Q131.094 153.964 132.02 155.654 Q132.923 157.321 132.923 159.589 Q132.923 161.95 132.02 163.617 Q131.117 165.26 129.311 166.233 L142.112 166.233 L142.112 170.492 Z"
     fill="#000000"
     fill-rule="evenodd"
     fill-opacity="1"
     id="path97" />
  <path
     clip-path="url(#clip550)"
     d="M111.302 119.705 Q108.432 118.108 107.066 115.886 Q105.7 113.664 105.7 110.654 Q105.7 106.603 108.548 104.404 Q111.372 102.205 116.603 102.205 L132.251 102.205 L132.251 106.488 L116.742 106.488 Q113.015 106.488 111.21 107.807 Q109.404 109.127 109.404 111.835 Q109.404 115.145 111.603 117.066 Q113.802 118.988 117.599 118.988 L132.251 118.988 L132.251 123.27 L116.742 123.27 Q112.992 123.27 111.21 124.589 Q109.404 125.909 109.404 128.663 Q109.404 131.927 111.626 133.849 Q113.825 135.77 117.599 135.77 L132.251 135.77 L132.251 140.052 L106.325 140.052 L106.325 135.77 L110.353 135.77 Q107.969 134.312 106.835 132.275 Q105.7 130.238 105.7 127.437 Q105.7 124.613 107.136 122.645 Q108.571 120.654 111.302 119.705 Z"
     fill="#000000"
     fill-rule="evenodd"
     fill-opacity="1"
     id="path99" />
  <path
     clip-path="url(#clip550)"
     d="M96.2329 83.7563 L138.501 83.7563 L138.501 93.571 L135.191 93.571 L135.191 88.0387 L99.5431 88.0387 L99.5431 93.571 L96.2329 93.571 L96.2329 83.7563 Z"
     fill="#000000"
     fill-rule="evenodd"
     fill-opacity="1"
     id="path101" />
  <path
     clip-path="url(#clip550)"
     d="M247.102 73.4273 L247.102 82.0558 Q242.97 78.2074 238.271 76.3035 Q233.612 74.3996 228.346 74.3996 Q217.976 74.3996 212.466 80.7595 Q206.957 87.0789 206.957 99.0696 Q206.957 111.02 212.466 117.38 Q217.976 123.699 228.346 123.699 Q233.612 123.699 238.271 121.795 Q242.97 119.891 247.102 116.043 L247.102 124.59 Q242.808 127.507 237.987 128.965 Q233.207 130.424 227.86 130.424 Q214.127 130.424 206.228 122.038 Q198.329 113.612 198.329 99.0696 Q198.329 84.4863 206.228 76.1009 Q214.127 67.6751 227.86 67.6751 Q233.288 67.6751 238.068 69.1334 Q242.889 70.5512 247.102 73.4273 Z"
     fill="#000000"
     fill-rule="evenodd"
     fill-opacity="1"
     id="path103" />
  <path
     clip-path="url(#clip550)"
     d="M278.572 341.692 Q279.889 342.137 281.124 343.596 Q282.38 345.054 283.636 347.606 L287.788 355.87 L283.393 355.87 L279.524 348.113 Q278.025 345.074 276.607 344.082 Q275.21 343.089 272.779 343.089 L268.323 343.089 L268.323 355.87 L264.232 355.87 L264.232 325.63 L273.468 325.63 Q278.653 325.63 281.205 327.797 Q283.757 329.964 283.757 334.339 Q283.757 337.195 282.42 339.079 Q281.104 340.963 278.572 341.692 M268.323 328.992 L268.323 339.727 L273.468 339.727 Q276.425 339.727 277.924 338.37 Q279.443 336.993 279.443 334.339 Q279.443 331.686 277.924 330.349 Q276.425 328.992 273.468 328.992 L268.323 328.992 Z"
     fill="#000000"
     fill-rule="evenodd"
     fill-opacity="1"
     id="path105" />
  <path
     clip-path="url(#clip550)"
     d="M294.411 340.031 L302.999 340.031 L302.999 342.34 L290.887 342.34 L290.887 340.112 Q291.575 339.484 292.851 338.35 Q299.819 332.172 299.819 330.268 Q299.819 328.931 298.766 328.121 Q297.713 327.291 295.991 327.291 Q294.938 327.291 293.702 327.655 Q292.467 328 291.008 328.709 L291.008 326.217 Q292.568 325.65 293.905 325.367 Q295.262 325.083 296.416 325.083 Q299.353 325.083 301.115 326.42 Q302.877 327.757 302.877 329.944 Q302.877 332.76 296.173 338.512 Q295.039 339.484 294.411 340.031 Z"
     fill="#000000"
     fill-rule="evenodd"
     fill-opacity="1"
     id="path107" />
  <path
     clip-path="url(#clip550)"
     d="M310.007 337.033 L335.973 337.033 L335.973 340.436 L310.007 340.436 L310.007 337.033 M310.007 345.297 L335.973 345.297 L335.973 348.74 L310.007 348.74 L310.007 345.297 Z"
     fill="#000000"
     fill-rule="evenodd"
     fill-opacity="1"
     id="path109" />
  <path
     clip-path="url(#clip550)"
     d="M353.554 328.324 Q350.395 328.324 348.794 331.443 Q347.215 334.542 347.215 340.78 Q347.215 346.999 348.794 350.118 Q350.395 353.217 353.554 353.217 Q356.734 353.217 358.314 350.118 Q359.914 346.999 359.914 340.78 Q359.914 334.542 358.314 331.443 Q356.734 328.324 353.554 328.324 M353.554 325.083 Q358.638 325.083 361.312 329.114 Q364.006 333.124 364.006 340.78 Q364.006 348.416 361.312 352.447 Q358.638 356.457 353.554 356.457 Q348.47 356.457 345.777 352.447 Q343.103 348.416 343.103 340.78 Q343.103 333.124 345.777 329.114 Q348.47 325.083 353.554 325.083 Z"
     fill="#000000"
     fill-rule="evenodd"
     fill-opacity="1"
     id="path111" />
  <path
     clip-path="url(#clip550)"
     d="M371.196 350.725 L375.47 350.725 L375.47 355.87 L371.196 355.87 L371.196 350.725 Z"
     fill="#000000"
     fill-rule="evenodd"
     fill-opacity="1"
     id="path113" />
  <path
     clip-path="url(#clip550)"
     d="M384.503 355.242 L384.503 351.515 Q386.043 352.244 387.622 352.629 Q389.202 353.014 390.721 353.014 Q394.772 353.014 396.899 350.3 Q399.046 347.566 399.35 342.016 Q398.175 343.758 396.372 344.689 Q394.57 345.621 392.382 345.621 Q387.845 345.621 385.192 342.887 Q382.559 340.132 382.559 335.372 Q382.559 330.714 385.313 327.898 Q388.068 325.083 392.645 325.083 Q397.891 325.083 400.646 329.114 Q403.421 333.124 403.421 340.78 Q403.421 347.93 400.018 352.204 Q396.636 356.457 390.904 356.457 Q389.364 356.457 387.784 356.154 Q386.205 355.85 384.503 355.242 M392.645 342.421 Q395.4 342.421 397 340.537 Q398.621 338.654 398.621 335.372 Q398.621 332.111 397 330.228 Q395.4 328.324 392.645 328.324 Q389.891 328.324 388.271 330.228 Q386.67 332.111 386.67 335.372 Q386.67 338.654 388.271 340.537 Q389.891 342.421 392.645 342.421 Z"
     fill="#000000"
     fill-rule="evenodd"
     fill-opacity="1"
     id="path115" />
  <path
     clip-path="url(#clip550)"
     d="M410.895 355.242 L410.895 351.515 Q412.434 352.244 414.014 352.629 Q415.594 353.014 417.113 353.014 Q421.164 353.014 423.291 350.3 Q425.438 347.566 425.741 342.016 Q424.567 343.758 422.764 344.689 Q420.961 345.621 418.774 345.621 Q414.237 345.621 411.583 342.887 Q408.95 340.132 408.95 335.372 Q408.95 330.714 411.705 327.898 Q414.46 325.083 419.037 325.083 Q424.283 325.083 427.038 329.114 Q429.813 333.124 429.813 340.78 Q429.813 347.93 426.41 352.204 Q423.027 356.457 417.295 356.457 Q415.756 356.457 414.176 356.154 Q412.596 355.85 410.895 355.242 M419.037 342.421 Q421.792 342.421 423.392 340.537 Q425.012 338.654 425.012 335.372 Q425.012 332.111 423.392 330.228 Q421.792 328.324 419.037 328.324 Q416.283 328.324 414.662 330.228 Q413.062 332.111 413.062 335.372 Q413.062 338.654 414.662 340.537 Q416.283 342.421 419.037 342.421 Z"
     fill="#000000"
     fill-rule="evenodd"
     fill-opacity="1"
     id="path117" />
  <path
     clip-path="url(#clip550)"
     d="M445.915 341.51 Q442.998 341.51 441.317 343.069 Q439.656 344.629 439.656 347.363 Q439.656 350.097 441.317 351.657 Q442.998 353.217 445.915 353.217 Q448.832 353.217 450.513 351.657 Q452.194 350.077 452.194 347.363 Q452.194 344.629 450.513 343.069 Q448.852 341.51 445.915 341.51 M441.823 339.768 Q439.19 339.12 437.712 337.317 Q436.253 335.514 436.253 332.922 Q436.253 329.296 438.826 327.19 Q441.418 325.083 445.915 325.083 Q450.432 325.083 453.004 327.19 Q455.576 329.296 455.576 332.922 Q455.576 335.514 454.098 337.317 Q452.639 339.12 450.027 339.768 Q452.984 340.456 454.624 342.461 Q456.285 344.467 456.285 347.363 Q456.285 351.758 453.591 354.108 Q450.918 356.457 445.915 356.457 Q440.912 356.457 438.218 354.108 Q435.545 351.758 435.545 347.363 Q435.545 344.467 437.205 342.461 Q438.866 340.456 441.823 339.768 M440.325 333.306 Q440.325 335.656 441.783 336.973 Q443.262 338.289 445.915 338.289 Q448.548 338.289 450.027 336.973 Q451.525 335.656 451.525 333.306 Q451.525 330.957 450.027 329.64 Q448.548 328.324 445.915 328.324 Q443.262 328.324 441.783 329.64 Q440.325 330.957 440.325 333.306 Z"
     fill="#000000"
     fill-rule="evenodd"
     fill-opacity="1"
     id="path119" />
  <path
     clip-path="url(#clip550)"
     d="M464.265 352.427 L470.949 352.427 L470.949 329.357 L463.678 330.815 L463.678 327.088 L470.909 325.63 L475 325.63 L475 352.427 L481.684 352.427 L481.684 355.87 L464.265 355.87 L464.265 352.427 Z"
     fill="#000000"
     fill-rule="evenodd"
     fill-opacity="1"
     id="path121" />
  <path
     clip-path="url(#clip550)"
     d=" M696.191 396.656 L1019.42 396.656 L1019.42 47.2441 L696.191 47.2441  Z   "
     fill="#ffffff"
     fill-rule="evenodd"
     fill-opacity="1"
     id="path123" />
  <defs
     id="defs128">
    <clipPath
       id="clip553">
      <rect
         x="696"
         y="47"
         width="324"
         height="350"
         id="rect125" />
    </clipPath>
  </defs>
  <polyline
     clip-path="url(#clip550)"
     style="stroke:#000000; stroke-linecap:butt; stroke-linejoin:round; stroke-width:4; stroke-opacity:1; fill:none"
     points="   696.191,396.656 1019.42,396.656    "
     id="polyline130" />
  <polyline
     clip-path="url(#clip550)"
     style="stroke:#000000; stroke-linecap:butt; stroke-linejoin:round; stroke-width:4; stroke-opacity:1; fill:none"
     points="   696.191,396.656 696.191,377.758    "
     id="polyline132" />
  <polyline
     clip-path="url(#clip550)"
     style="stroke:#000000; stroke-linecap:butt; stroke-linejoin:round; stroke-width:4; stroke-opacity:1; fill:none"
     points="   1019.42,396.656 1019.42,377.758    "
     id="polyline134" />
  <path
     clip-path="url(#clip550)"
     d="M696.191 421.175 Q692.58 421.175 690.751 424.739 Q688.945 428.281 688.945 435.411 Q688.945 442.517 690.751 446.082 Q692.58 449.623 696.191 449.623 Q699.825 449.623 701.631 446.082 Q703.459 442.517 703.459 435.411 Q703.459 428.281 701.631 424.739 Q699.825 421.175 696.191 421.175 M696.191 417.471 Q702.001 417.471 705.056 422.077 Q708.135 426.661 708.135 435.411 Q708.135 444.137 705.056 448.744 Q702.001 453.327 696.191 453.327 Q690.381 453.327 687.302 448.744 Q684.246 444.137 684.246 435.411 Q684.246 426.661 687.302 422.077 Q690.381 417.471 696.191 417.471 Z"
     fill="#000000"
     fill-rule="evenodd"
     fill-opacity="1"
     id="path136" />
  <path
     clip-path="url(#clip550)"
     d="M983.115 448.721 L999.434 448.721 L999.434 452.656 L977.49 452.656 L977.49 448.721 Q980.152 445.966 984.735 441.336 Q989.342 436.684 990.522 435.341 Q992.768 432.818 993.647 431.082 Q994.55 429.323 994.55 427.633 Q994.55 424.878 992.606 423.142 Q990.684 421.406 987.582 421.406 Q985.383 421.406 982.93 422.17 Q980.499 422.934 977.721 424.485 L977.721 419.763 Q980.545 418.628 982.999 418.05 Q985.453 417.471 987.49 417.471 Q992.86 417.471 996.055 420.156 Q999.249 422.841 999.249 427.332 Q999.249 429.462 998.439 431.383 Q997.652 433.281 995.545 435.874 Q994.967 436.545 991.865 439.762 Q988.763 442.957 983.115 448.721 Z"
     fill="#000000"
     fill-rule="evenodd"
     fill-opacity="1"
     id="path138" />
  <path
     clip-path="url(#clip550)"
     d="M1008.07 418.096 L1030.29 418.096 L1030.29 420.087 L1017.74 452.656 L1012.86 452.656 L1024.67 422.031 L1008.07 422.031 L1008.07 418.096 Z"
     fill="#000000"
     fill-rule="evenodd"
     fill-opacity="1"
     id="path140" />
  <path
     clip-path="url(#clip550)"
     d="M1049.41 421.175 Q1045.8 421.175 1043.97 424.739 Q1042.17 428.281 1042.17 435.411 Q1042.17 442.517 1043.97 446.082 Q1045.8 449.623 1049.41 449.623 Q1053.05 449.623 1054.85 446.082 Q1056.68 442.517 1056.68 435.411 Q1056.68 428.281 1054.85 424.739 Q1053.05 421.175 1049.41 421.175 M1049.41 417.471 Q1055.22 417.471 1058.28 422.077 Q1061.36 426.661 1061.36 435.411 Q1061.36 444.137 1058.28 448.744 Q1055.22 453.327 1049.41 453.327 Q1043.6 453.327 1040.52 448.744 Q1037.47 444.137 1037.47 435.411 Q1037.47 426.661 1040.52 422.077 Q1043.6 417.471 1049.41 417.471 Z"
     fill="#000000"
     fill-rule="evenodd"
     fill-opacity="1"
     id="path142" />
  <polyline
     clip-path="url(#clip550)"
     style="stroke:#000000; stroke-linecap:butt; stroke-linejoin:round; stroke-width:4; stroke-opacity:1; fill:none"
     points="   696.191,396.656 696.191,47.2441    "
     id="polyline144" />
  <polyline
     clip-path="url(#clip550)"
     style="stroke:#000000; stroke-linecap:butt; stroke-linejoin:round; stroke-width:4; stroke-opacity:1; fill:none"
     points="   696.191,396.656 715.088,396.656    "
     id="polyline146" />
  <polyline
     clip-path="url(#clip550)"
     style="stroke:#000000; stroke-linecap:butt; stroke-linejoin:round; stroke-width:4; stroke-opacity:1; fill:none"
     points="   696.191,47.2441 715.088,47.2441    "
     id="polyline148" />
  <path
     clip-path="url(#clip550)"
     d="M660.246 382.455 Q656.635 382.455 654.807 386.019 Q653.001 389.561 653.001 396.691 Q653.001 403.797 654.807 407.362 Q656.635 410.903 660.246 410.903 Q663.881 410.903 665.686 407.362 Q667.515 403.797 667.515 396.691 Q667.515 389.561 665.686 386.019 Q663.881 382.455 660.246 382.455 M660.246 378.751 Q666.057 378.751 669.112 383.357 Q672.191 387.941 672.191 396.691 Q672.191 405.417 669.112 410.024 Q666.057 414.607 660.246 414.607 Q654.436 414.607 651.358 410.024 Q648.302 405.417 648.302 396.691 Q648.302 387.941 651.358 383.357 Q654.436 378.751 660.246 378.751 Z"
     fill="#000000"
     fill-rule="evenodd"
     fill-opacity="1"
     id="path150" />
  <path
     clip-path="url(#clip550)"
     d="M593.95 60.5889 L610.27 60.5889 L610.27 64.5241 L588.325 64.5241 L588.325 60.5889 Q590.987 57.8343 595.571 53.2047 Q600.177 48.552 601.358 47.2094 Q603.603 44.6862 604.483 42.9501 Q605.386 41.1909 605.386 39.5011 Q605.386 36.7465 603.441 35.0104 Q601.52 33.2743 598.418 33.2743 Q596.219 33.2743 593.765 34.0381 Q591.335 34.802 588.557 36.3529 L588.557 31.6308 Q591.381 30.4965 593.835 29.9178 Q596.288 29.3391 598.325 29.3391 Q603.696 29.3391 606.89 32.0243 Q610.085 34.7094 610.085 39.2002 Q610.085 41.3298 609.274 43.2511 Q608.487 45.1492 606.381 47.7418 Q605.802 48.4131 602.7 51.6306 Q599.599 54.8251 593.95 60.5889 Z"
     fill="#000000"
     fill-rule="evenodd"
     fill-opacity="1"
     id="path152" />
  <path
     clip-path="url(#clip550)"
     d="M618.904 29.9641 L641.126 29.9641 L641.126 31.9548 L628.58 64.5241 L623.696 64.5241 L635.501 33.8993 L618.904 33.8993 L618.904 29.9641 Z"
     fill="#000000"
     fill-rule="evenodd"
     fill-opacity="1"
     id="path154" />
  <path
     clip-path="url(#clip550)"
     d="M660.246 33.0428 Q656.635 33.0428 654.807 36.6076 Q653.001 40.1492 653.001 47.2788 Q653.001 54.3853 654.807 57.9501 Q656.635 61.4917 660.246 61.4917 Q663.881 61.4917 665.686 57.9501 Q667.515 54.3853 667.515 47.2788 Q667.515 40.1492 665.686 36.6076 Q663.881 33.0428 660.246 33.0428 M660.246 29.3391 Q666.057 29.3391 669.112 33.9456 Q672.191 38.5289 672.191 47.2788 Q672.191 56.0056 669.112 60.6121 Q666.057 65.1954 660.246 65.1954 Q654.436 65.1954 651.358 60.6121 Q648.302 56.0056 648.302 47.2788 Q648.302 38.5289 651.358 33.9456 Q654.436 29.3391 660.246 29.3391 Z"
     fill="#000000"
     fill-rule="evenodd"
     fill-opacity="1"
     id="path156" />
  <polyline
     clip-path="url(#clip553)"
     style="stroke:#808080; stroke-linecap:butt; stroke-linejoin:round; stroke-width:4; stroke-opacity:1; fill:none"
     stroke-dasharray="16, 10"
     points="   696.191,396.656 1055.34,8.42056    "
     id="polyline158" />
  <polyline
     clip-path="url(#clip553)"
     style="stroke:#f0e442; stroke-linecap:butt; stroke-linejoin:round; stroke-width:12; stroke-opacity:1; fill:none"
     points="   696.323,396.297 696.34,396.218 696.359,396.259 696.38,396.212 696.404,396.108 696.435,395.797 696.466,395.826 696.5,395.821 696.534,395.998 696.577,395.517    696.638,395.098 696.709,395.014 696.79,394.811 696.885,394.345 696.995,394.278 697.121,393.299 697.267,392.958 697.44,392.508 697.677,392.246 697.989,391.53    698.363,390.723 698.815,389.782 699.362,389.222 700.022,388.674 700.819,387.887 701.783,386.768 702.962,385.963 704.371,384.628 706.074,383.569 708.132,381.813    710.719,380.563 713.485,378.721 716.239,376.754 718.934,374.828 721.621,372.554 724.277,370.55 726.913,367.888 729.561,365.336 732.158,362.266 734.737,359.382    737.311,356.002 739.852,353.157 742.388,349.629 744.906,345.998 747.391,342.802 749.872,339.001 752.32,336.577 754.75,333.322 757.162,330.216 759.585,327.676    761.962,324.33 764.321,320.073 766.676,317.659 769.015,315.332 771.335,312.858 773.639,310.233 775.912,308.65 778.169,306.059 780.435,303.276 782.658,300.126    785.11,297.574 787.668,294.363 790.18,291.32 792.67,291.031 795.151,288.366 797.598,285.359 800.025,281.685 802.431,282.917 804.829,279.493 807.206,278.424    809.551,276.746 811.888,274.03 814.193,269.816 816.479,266.707 818.756,263.49 821.014,262.875 823.242,259.988 825.261,259.392 827.607,258.035 829.789,254.699    831.942,253.371 834.076,251.188 836.299,248.986 838.523,246.932 840.727,245.399    "
     id="polyline160" />
  <path
     clip-path="url(#clip550)"
     d="m 628.938,424.67 h 6.968 l 8.819,23.518 8.866,-23.518 h 6.967 v 34.56 h -4.56 v -30.347 l -8.912,23.704 h -4.699 l -8.912,-23.704 v 30.347 h -4.537 z"
     fill="#000000"
     fill-rule="evenodd"
     fill-opacity="1"
     id="path162"
     transform="translate(0,48)" />
  <path
     clip-path="url(#clip550)"
     d="m 679.702,436.29 q -3.426,0 -5.417,2.685 -1.991,2.662 -1.991,7.315 0,4.653 1.968,7.338 1.991,2.662 5.44,2.662 3.403,0 5.393,-2.685 1.991,-2.685 1.991,-7.315 0,-4.606 -1.991,-7.291 -1.99,-2.709 -5.393,-2.709 m 0,-3.611 q 5.555,0 8.727,3.611 3.171,3.611 3.171,10 0,6.366 -3.171,10 -3.172,3.611 -8.727,3.611 -5.579,0 -8.75,-3.611 -3.148,-3.634 -3.148,-10 0,-6.389 3.148,-10 3.171,-3.611 8.75,-3.611 z"
     fill="#000000"
     fill-rule="evenodd"
     fill-opacity="1"
     id="path164"
     transform="translate(0,48)" />
  <path
     clip-path="url(#clip550)"
     d="m 715.72,437.239 v -14.027 h 4.259 v 36.018 h -4.259 v -3.889 q -1.343,2.315 -3.403,3.449 -2.037,1.111 -4.907,1.111 -4.699,0 -7.662,-3.75 -2.94,-3.75 -2.94,-9.861 0,-6.111 2.94,-9.861 2.963,-3.75 7.662,-3.75 2.87,0 4.907,1.134 2.06,1.112 3.403,3.426 m -14.514,9.051 q 0,4.699 1.922,7.384 1.944,2.662 5.324,2.662 3.379,0 5.324,-2.662 1.944,-2.685 1.944,-7.384 0,-4.699 -1.944,-7.361 -1.945,-2.685 -5.324,-2.685 -3.38,0 -5.324,2.685 -1.922,2.662 -1.922,7.361 z"
     fill="#000000"
     fill-rule="evenodd"
     fill-opacity="1"
     id="path166"
     transform="translate(0,48)" />
  <path
     clip-path="url(#clip550)"
     d="m 750.928,445.202 v 2.084 h -19.583 q 0.278,4.398 2.639,6.713 2.384,2.291 6.62,2.291 2.454,0 4.746,-0.602 2.314,-0.602 4.583,-1.805 v 4.028 q -2.292,0.972 -4.699,1.481 -2.408,0.509 -4.884,0.509 -6.204,0 -9.838,-3.611 -3.611,-3.611 -3.611,-9.768 0,-6.366 3.425,-10.093 3.45,-3.75 9.283,-3.75 5.231,0 8.264,3.38 3.055,3.356 3.055,9.143 m -4.259,-1.25 q -0.046,-3.495 -1.968,-5.578 -1.898,-2.084 -5.046,-2.084 -3.565,0 -5.717,2.014 -2.13,2.014 -2.454,5.671 z"
     fill="#000000"
     fill-rule="evenodd"
     fill-opacity="1"
     id="path168"
     transform="translate(0,48)" />
  <path
     clip-path="url(#clip550)"
     d="m 757.919,423.212 h 4.259 v 36.018 h -4.259 z"
     fill="#000000"
     fill-rule="evenodd"
     fill-opacity="1"
     id="path170"
     transform="translate(0,48)" />
  <path
     clip-path="url(#clip550)"
     d="m 786.345,424.67 h 4.676 v 14.167 h 16.99 V 424.67 h 4.676 v 34.56 h -4.676 v -16.458 h -16.99 v 16.458 h -4.676 z"
     fill="#000000"
     fill-rule="evenodd"
     fill-opacity="1"
     id="path172"
     transform="translate(0,48)" />
  <path
     clip-path="url(#clip550)"
     d="m 843.983,445.202 v 2.084 H 824.4 q 0.278,4.398 2.639,6.713 2.384,2.291 6.62,2.291 2.454,0 4.746,-0.602 2.314,-0.602 4.583,-1.805 v 4.028 q -2.292,0.972 -4.699,1.481 -2.408,0.509 -4.884,0.509 -6.204,0 -9.838,-3.611 -3.611,-3.611 -3.611,-9.768 0,-6.366 3.426,-10.093 3.449,-3.75 9.282,-3.75 5.231,0 8.264,3.38 3.055,3.356 3.055,9.143 m -4.259,-1.25 q -0.046,-3.495 -1.968,-5.578 -1.898,-2.084 -5.046,-2.084 -3.565,0 -5.717,2.014 -2.13,2.014 -2.454,5.671 z"
     fill="#000000"
     fill-rule="evenodd"
     fill-opacity="1"
     id="path174"
     transform="translate(0,48)" />
  <path
     clip-path="url(#clip550)"
     d="m 850.974,433.304 h 4.259 v 25.926 h -4.259 v -25.926 m 0,-10.092 h 4.259 v 5.393 h -4.259 z"
     fill="#000000"
     fill-rule="evenodd"
     fill-opacity="1"
     id="path176"
     transform="translate(0,48)" />
  <path
     clip-path="url(#clip550)"
     d="m 881.205,445.966 q 0,-4.629 -1.921,-7.176 -1.898,-2.546 -5.347,-2.546 -3.426,0 -5.347,2.546 -1.899,2.547 -1.899,7.176 0,4.607 1.899,7.153 1.921,2.546 5.347,2.546 3.449,0 5.347,-2.546 1.921,-2.546 1.921,-7.153 m 4.26,10.046 q 0,6.621 -2.94,9.838 -2.94,3.241 -9.005,3.241 -2.245,0 -4.236,-0.347 -1.991,-0.324 -3.866,-1.019 v -4.143 q 1.875,1.018 3.704,1.504 1.829,0.487 3.727,0.487 4.19,0 6.273,-2.2 2.083,-2.175 2.083,-6.597 v -2.106 q -1.319,2.291 -3.379,3.426 -2.06,1.134 -4.931,1.134 -4.768,0 -7.685,-3.634 -2.917,-3.634 -2.917,-9.63 0,-6.018 2.917,-9.653 2.917,-3.634 7.685,-3.634 2.871,0 4.931,1.134 2.06,1.135 3.379,3.426 v -3.935 h 4.26 z"
     fill="#000000"
     fill-rule="evenodd"
     fill-opacity="1"
     id="path178"
     transform="translate(0,48)" />
  <path
     clip-path="url(#clip550)"
     d="m 915.788,443.582 v 15.648 h -4.259 v -15.509 q 0,-3.681 -1.435,-5.509 -1.435,-1.829 -4.306,-1.829 -3.449,0 -5.439,2.199 -1.991,2.199 -1.991,5.995 v 14.653 h -4.282 v -36.018 h 4.282 v 14.12 q 1.528,-2.338 3.588,-3.495 2.083,-1.158 4.792,-1.158 4.467,0 6.759,2.778 2.291,2.755 2.291,8.125 z"
     fill="#000000"
     fill-rule="evenodd"
     fill-opacity="1"
     id="path180"
     transform="translate(0,48)" />
  <path
     clip-path="url(#clip550)"
     d="m 928.497,425.943 v 7.361 h 8.773 v 3.31 h -8.773 v 14.074 q 0,3.172 0.856,4.074 0.88,0.903 3.542,0.903 h 4.375 v 3.565 h -4.375 q -4.931,0 -6.806,-1.829 -1.875,-1.852 -1.875,-6.713 v -14.074 h -3.125 v -3.31 h 3.125 v -7.361 z"
     fill="#000000"
     fill-rule="evenodd"
     fill-opacity="1"
     id="path182"
     transform="translate(0,48)" />
  <path
     clip-path="url(#clip550)"
     d="m 957.547,423.212 h 9.815 v 3.31 h -5.555 v 35.648 h 5.555 v 3.31 h -9.815 z"
     fill="#000000"
     fill-rule="evenodd"
     fill-opacity="1"
     id="path184"
     transform="translate(0,48)" />
  <path
     clip-path="url(#clip550)"
     d="m 975.996,469.091 v -35.787 h 4.26 v 16.111 q 0,3.357 1.597,5.07 1.597,1.713 4.722,1.713 3.426,0 5.139,-1.945 1.736,-1.944 1.736,-5.833 v -15.116 h 4.259 v 19.954 q 0,1.389 0.394,2.06 0.416,0.648 1.273,0.648 0.208,0 0.579,-0.116 0.375,-0.139 1.015,-0.416 v 3.426 q -0.95,0.532 -1.802,0.787 -0.834,0.254 -1.644,0.254 -1.597,0 -2.546,-0.902 -0.949,-0.903 -1.296,-2.755 -1.158,1.829 -2.848,2.755 -1.666,0.902 -3.935,0.902 -2.361,0 -4.028,-0.902 -1.643,-0.903 -2.615,-2.709 v 12.801 z"
     fill="#000000"
     fill-rule="evenodd"
     fill-opacity="1"
     id="path186"
     transform="translate(0,48)" />
  <path
     clip-path="url(#clip550)"
     d="m 1026.78,438.281 q 1.6,-2.87 3.82,-4.236 2.22,-1.366 5.23,-1.366 4.05,0 6.25,2.847 2.2,2.824 2.2,8.056 V 459.23 H 1040 v -15.509 q 0,-3.727 -1.32,-5.533 -1.32,-1.805 -4.03,-1.805 -3.31,0 -5.23,2.199 -1.92,2.199 -1.92,5.995 v 14.653 h -4.28 v -15.509 q 0,-3.75 -1.32,-5.533 -1.32,-1.805 -4.08,-1.805 -3.26,0 -5.18,2.222 -1.92,2.199 -1.92,5.972 v 14.653 h -4.28 v -25.926 h 4.28 v 4.028 q 1.46,-2.384 3.49,-3.519 2.04,-1.134 4.84,-1.134 2.83,0 4.79,1.435 1.99,1.436 2.94,4.167 z"
     fill="#000000"
     fill-rule="evenodd"
     fill-opacity="1"
     id="path188"
     transform="translate(0,48)" />
  <path
     clip-path="url(#clip550)"
     d="m 1062.73,423.212 v 42.268 h -9.81 v -3.31 h 5.53 v -35.648 h -5.53 v -3.31 z"
     fill="#000000"
     fill-rule="evenodd"
     fill-opacity="1"
     id="path190"
     transform="translate(0,48)" />
  <path
     clip-path="url(#clip550)"
     d="M811.409 341.692 Q812.726 342.137 813.961 343.596 Q815.217 345.054 816.473 347.606 L820.625 355.87 L816.23 355.87 L812.361 348.113 Q810.862 345.074 809.444 344.082 Q808.047 343.089 805.616 343.089 L801.16 343.089 L801.16 355.87 L797.069 355.87 L797.069 325.63 L806.305 325.63 Q811.49 325.63 814.042 327.797 Q816.594 329.964 816.594 334.339 Q816.594 337.195 815.257 339.079 Q813.941 340.963 811.409 341.692 M801.16 328.992 L801.16 339.727 L806.305 339.727 Q809.262 339.727 810.761 338.37 Q812.28 336.993 812.28 334.339 Q812.28 331.686 810.761 330.349 Q809.262 328.992 806.305 328.992 L801.16 328.992 Z"
     fill="#000000"
     fill-rule="evenodd"
     fill-opacity="1"
     id="path212" />
  <path
     clip-path="url(#clip550)"
     d="M827.248 340.031 L835.836 340.031 L835.836 342.34 L823.724 342.34 L823.724 340.112 Q824.413 339.484 825.689 338.35 Q832.656 332.172 832.656 330.268 Q832.656 328.931 831.603 328.121 Q830.55 327.291 828.828 327.291 Q827.775 327.291 826.539 327.655 Q825.304 328 823.845 328.709 L823.845 326.217 Q825.405 325.65 826.742 325.367 Q828.099 325.083 829.253 325.083 Q832.19 325.083 833.952 326.42 Q835.715 327.757 835.715 329.944 Q835.715 332.76 829.01 338.512 Q827.876 339.484 827.248 340.031 Z"
     fill="#000000"
     fill-rule="evenodd"
     fill-opacity="1"
     id="path214" />
  <path
     clip-path="url(#clip550)"
     d="M842.844 337.033 L868.81 337.033 L868.81 340.436 L842.844 340.436 L842.844 337.033 M842.844 345.297 L868.81 345.297 L868.81 348.74 L842.844 348.74 L842.844 345.297 Z"
     fill="#000000"
     fill-rule="evenodd"
     fill-opacity="1"
     id="path216" />
  <path
     clip-path="url(#clip550)"
     d="M886.391 328.324 Q883.232 328.324 881.632 331.443 Q880.052 334.542 880.052 340.78 Q880.052 346.999 881.632 350.118 Q883.232 353.217 886.391 353.217 Q889.571 353.217 891.151 350.118 Q892.751 346.999 892.751 340.78 Q892.751 334.542 891.151 331.443 Q889.571 328.324 886.391 328.324 M886.391 325.083 Q891.475 325.083 894.149 329.114 Q896.843 333.124 896.843 340.78 Q896.843 348.416 894.149 352.447 Q891.475 356.457 886.391 356.457 Q881.307 356.457 878.614 352.447 Q875.94 348.416 875.94 340.78 Q875.94 333.124 878.614 329.114 Q881.307 325.083 886.391 325.083 Z"
     fill="#000000"
     fill-rule="evenodd"
     fill-opacity="1"
     id="path218" />
  <path
     clip-path="url(#clip550)"
     d="M904.033 350.725 L908.307 350.725 L908.307 355.87 L904.033 355.87 L904.033 350.725 Z"
     fill="#000000"
     fill-rule="evenodd"
     fill-opacity="1"
     id="path220" />
  <path
     clip-path="url(#clip550)"
     d="M917.34 355.242 L917.34 351.515 Q918.88 352.244 920.459 352.629 Q922.039 353.014 923.558 353.014 Q927.609 353.014 929.736 350.3 Q931.883 347.566 932.187 342.016 Q931.012 343.758 929.209 344.689 Q927.407 345.621 925.219 345.621 Q920.682 345.621 918.029 342.887 Q915.396 340.132 915.396 335.372 Q915.396 330.714 918.15 327.898 Q920.905 325.083 925.483 325.083 Q930.729 325.083 933.483 329.114 Q936.258 333.124 936.258 340.78 Q936.258 347.93 932.855 352.204 Q929.473 356.457 923.741 356.457 Q922.201 356.457 920.622 356.154 Q919.042 355.85 917.34 355.242 M925.483 342.421 Q928.237 342.421 929.837 340.537 Q931.458 338.654 931.458 335.372 Q931.458 332.111 929.837 330.228 Q928.237 328.324 925.483 328.324 Q922.728 328.324 921.108 330.228 Q919.508 332.111 919.508 335.372 Q919.508 338.654 921.108 340.537 Q922.728 342.421 925.483 342.421 Z"
     fill="#000000"
     fill-rule="evenodd"
     fill-opacity="1"
     id="path222" />
  <path
     clip-path="url(#clip550)"
     d="M943.732 355.242 L943.732 351.515 Q945.271 352.244 946.851 352.629 Q948.431 353.014 949.95 353.014 Q954.001 353.014 956.128 350.3 Q958.275 347.566 958.578 342.016 Q957.404 343.758 955.601 344.689 Q953.798 345.621 951.611 345.621 Q947.074 345.621 944.421 342.887 Q941.787 340.132 941.787 335.372 Q941.787 330.714 944.542 327.898 Q947.297 325.083 951.874 325.083 Q957.12 325.083 959.875 329.114 Q962.65 333.124 962.65 340.78 Q962.65 347.93 959.247 352.204 Q955.864 356.457 950.132 356.457 Q948.593 356.457 947.013 356.154 Q945.433 355.85 943.732 355.242 M951.874 342.421 Q954.629 342.421 956.229 340.537 Q957.849 338.654 957.849 335.372 Q957.849 332.111 956.229 330.228 Q954.629 328.324 951.874 328.324 Q949.12 328.324 947.499 330.228 Q945.899 332.111 945.899 335.372 Q945.899 338.654 947.499 340.537 Q949.12 342.421 951.874 342.421 Z"
     fill="#000000"
     fill-rule="evenodd"
     fill-opacity="1"
     id="path224" />
  <path
     clip-path="url(#clip550)"
     d="M968.969 325.63 L988.413 325.63 L988.413 327.372 L977.435 355.87 L973.162 355.87 L983.492 329.073 L968.969 329.073 L968.969 325.63 Z"
     fill="#000000"
     fill-rule="evenodd"
     fill-opacity="1"
     id="path226" />
  <path
     clip-path="url(#clip550)"
     d="M1005.14 341.51 Q1002.23 341.51 1000.55 343.069 Q998.885 344.629 998.885 347.363 Q998.885 350.097 1000.55 351.657 Q1002.23 353.217 1005.14 353.217 Q1008.06 353.217 1009.74 351.657 Q1011.42 350.077 1011.42 347.363 Q1011.42 344.629 1009.74 343.069 Q1008.08 341.51 1005.14 341.51 M1001.05 339.768 Q998.419 339.12 996.941 337.317 Q995.482 335.514 995.482 332.922 Q995.482 329.296 998.055 327.19 Q1000.65 325.083 1005.14 325.083 Q1009.66 325.083 1012.23 327.19 Q1014.81 329.296 1014.81 332.922 Q1014.81 335.514 1013.33 337.317 Q1011.87 339.12 1009.26 339.768 Q1012.21 340.456 1013.85 342.461 Q1015.51 344.467 1015.51 347.363 Q1015.51 351.758 1012.82 354.108 Q1010.15 356.457 1005.14 356.457 Q1000.14 356.457 997.447 354.108 Q994.773 351.758 994.773 347.363 Q994.773 344.467 996.434 342.461 Q998.095 340.456 1001.05 339.768 M999.553 333.306 Q999.553 335.656 1001.01 336.973 Q1002.49 338.289 1005.14 338.289 Q1007.78 338.289 1009.26 336.973 Q1010.75 335.656 1010.75 333.306 Q1010.75 330.957 1009.26 329.64 Q1007.78 328.324 1005.14 328.324 Q1002.49 328.324 1001.01 329.64 Q999.553 330.957 999.553 333.306 Z"
     fill="#000000"
     fill-rule="evenodd"
     fill-opacity="1"
     id="path228" />
  <path
     clip-path="url(#clip550)"
     d=" M1229.52 396.656 L1552.76 396.656 L1552.76 47.2441 L1229.52 47.2441  Z   "
     fill="#ffffff"
     fill-rule="evenodd"
     fill-opacity="1"
     id="path230" />
  <defs
     id="defs235">
    <clipPath
       id="clip554">
      <rect
         x="1229"
         y="47"
         width="324"
         height="350"
         id="rect232" />
    </clipPath>
  </defs>
  <polyline
     clip-path="url(#clip550)"
     style="stroke:#000000; stroke-linecap:butt; stroke-linejoin:round; stroke-width:4; stroke-opacity:1; fill:none"
     points="   1229.52,396.656 1552.76,396.656    "
     id="polyline237" />
  <polyline
     clip-path="url(#clip550)"
     style="stroke:#000000; stroke-linecap:butt; stroke-linejoin:round; stroke-width:4; stroke-opacity:1; fill:none"
     points="   1229.52,396.656 1229.52,377.758    "
     id="polyline239" />
  <polyline
     clip-path="url(#clip550)"
     style="stroke:#000000; stroke-linecap:butt; stroke-linejoin:round; stroke-width:4; stroke-opacity:1; fill:none"
     points="   1552.76,396.656 1552.76,377.758    "
     id="polyline241" />
  <path
     clip-path="url(#clip550)"
     d="M1229.52 421.175 Q1225.91 421.175 1224.08 424.739 Q1222.28 428.281 1222.28 435.411 Q1222.28 442.517 1224.08 446.082 Q1225.91 449.623 1229.52 449.623 Q1233.16 449.623 1234.96 446.082 Q1236.79 442.517 1236.79 435.411 Q1236.79 428.281 1234.96 424.739 Q1233.16 421.175 1229.52 421.175 M1229.52 417.471 Q1235.33 417.471 1238.39 422.077 Q1241.47 426.661 1241.47 435.411 Q1241.47 444.137 1238.39 448.744 Q1235.33 453.327 1229.52 453.327 Q1223.71 453.327 1220.64 448.744 Q1217.58 444.137 1217.58 435.411 Q1217.58 426.661 1220.64 422.077 Q1223.71 417.471 1229.52 417.471 Z"
     fill="#000000"
     fill-rule="evenodd"
     fill-opacity="1"
     id="path243" />
  <path
     clip-path="url(#clip550)"
     d="M1516.45 448.721 L1532.77 448.721 L1532.77 452.656 L1510.82 452.656 L1510.82 448.721 Q1513.49 445.966 1518.07 441.336 Q1522.68 436.684 1523.86 435.341 Q1526.1 432.818 1526.98 431.082 Q1527.88 429.323 1527.88 427.633 Q1527.88 424.878 1525.94 423.142 Q1524.02 421.406 1520.92 421.406 Q1518.72 421.406 1516.26 422.17 Q1513.83 422.934 1511.05 424.485 L1511.05 419.763 Q1513.88 418.628 1516.33 418.05 Q1518.79 417.471 1520.82 417.471 Q1526.19 417.471 1529.39 420.156 Q1532.58 422.841 1532.58 427.332 Q1532.58 429.462 1531.77 431.383 Q1530.99 433.281 1528.88 435.874 Q1528.3 436.545 1525.2 439.762 Q1522.1 442.957 1516.45 448.721 Z"
     fill="#000000"
     fill-rule="evenodd"
     fill-opacity="1"
     id="path245" />
  <path
     clip-path="url(#clip550)"
     d="M1541.4 418.096 L1563.62 418.096 L1563.62 420.087 L1551.08 452.656 L1546.19 452.656 L1558 422.031 L1541.4 422.031 L1541.4 418.096 Z"
     fill="#000000"
     fill-rule="evenodd"
     fill-opacity="1"
     id="path247" />
  <path
     clip-path="url(#clip550)"
     d="M1582.74 421.175 Q1579.13 421.175 1577.3 424.739 Q1575.5 428.281 1575.5 435.411 Q1575.5 442.517 1577.3 446.082 Q1579.13 449.623 1582.74 449.623 Q1586.38 449.623 1588.18 446.082 Q1590.01 442.517 1590.01 435.411 Q1590.01 428.281 1588.18 424.739 Q1586.38 421.175 1582.74 421.175 M1582.74 417.471 Q1588.55 417.471 1591.61 422.077 Q1594.69 426.661 1594.69 435.411 Q1594.69 444.137 1591.61 448.744 Q1588.55 453.327 1582.74 453.327 Q1576.93 453.327 1573.86 448.744 Q1570.8 444.137 1570.8 435.411 Q1570.8 426.661 1573.86 422.077 Q1576.93 417.471 1582.74 417.471 Z"
     fill="#000000"
     fill-rule="evenodd"
     fill-opacity="1"
     id="path249" />
  <polyline
     clip-path="url(#clip550)"
     style="stroke:#000000; stroke-linecap:butt; stroke-linejoin:round; stroke-width:4; stroke-opacity:1; fill:none"
     points="   1229.52,396.656 1229.52,47.2441    "
     id="polyline251" />
  <polyline
     clip-path="url(#clip550)"
     style="stroke:#000000; stroke-linecap:butt; stroke-linejoin:round; stroke-width:4; stroke-opacity:1; fill:none"
     points="   1229.52,396.656 1248.42,396.656    "
     id="polyline253" />
  <polyline
     clip-path="url(#clip550)"
     style="stroke:#000000; stroke-linecap:butt; stroke-linejoin:round; stroke-width:4; stroke-opacity:1; fill:none"
     points="   1229.52,47.2441 1248.42,47.2441    "
     id="polyline255" />
  <path
     clip-path="url(#clip550)"
     d="M1193.58 382.455 Q1189.97 382.455 1188.14 386.019 Q1186.33 389.561 1186.33 396.691 Q1186.33 403.797 1188.14 407.362 Q1189.97 410.903 1193.58 410.903 Q1197.21 410.903 1199.02 407.362 Q1200.85 403.797 1200.85 396.691 Q1200.85 389.561 1199.02 386.019 Q1197.21 382.455 1193.58 382.455 M1193.58 378.751 Q1199.39 378.751 1202.45 383.357 Q1205.52 387.941 1205.52 396.691 Q1205.52 405.417 1202.45 410.024 Q1199.39 414.607 1193.58 414.607 Q1187.77 414.607 1184.69 410.024 Q1181.64 405.417 1181.64 396.691 Q1181.64 387.941 1184.69 383.357 Q1187.77 378.751 1193.58 378.751 Z"
     fill="#000000"
     fill-rule="evenodd"
     fill-opacity="1"
     id="path257" />
  <path
     clip-path="url(#clip550)"
     d="M1127.28 60.5889 L1143.6 60.5889 L1143.6 64.5241 L1121.66 64.5241 L1121.66 60.5889 Q1124.32 57.8343 1128.9 53.2047 Q1133.51 48.552 1134.69 47.2094 Q1136.94 44.6862 1137.82 42.9501 Q1138.72 41.1909 1138.72 39.5011 Q1138.72 36.7465 1136.77 35.0104 Q1134.85 33.2743 1131.75 33.2743 Q1129.55 33.2743 1127.1 34.0381 Q1124.67 34.802 1121.89 36.3529 L1121.89 31.6308 Q1124.71 30.4965 1127.17 29.9178 Q1129.62 29.3391 1131.66 29.3391 Q1137.03 29.3391 1140.22 32.0243 Q1143.42 34.7094 1143.42 39.2002 Q1143.42 41.3298 1142.61 43.2511 Q1141.82 45.1492 1139.71 47.7418 Q1139.14 48.4131 1136.03 51.6306 Q1132.93 54.8251 1127.28 60.5889 Z"
     fill="#000000"
     fill-rule="evenodd"
     fill-opacity="1"
     id="path259" />
  <path
     clip-path="url(#clip550)"
     d="M1152.24 29.9641 L1174.46 29.9641 L1174.46 31.9548 L1161.91 64.5241 L1157.03 64.5241 L1168.83 33.8993 L1152.24 33.8993 L1152.24 29.9641 Z"
     fill="#000000"
     fill-rule="evenodd"
     fill-opacity="1"
     id="path261" />
  <path
     clip-path="url(#clip550)"
     d="M1193.58 33.0428 Q1189.97 33.0428 1188.14 36.6076 Q1186.33 40.1492 1186.33 47.2788 Q1186.33 54.3853 1188.14 57.9501 Q1189.97 61.4917 1193.58 61.4917 Q1197.21 61.4917 1199.02 57.9501 Q1200.85 54.3853 1200.85 47.2788 Q1200.85 40.1492 1199.02 36.6076 Q1197.21 33.0428 1193.58 33.0428 M1193.58 29.3391 Q1199.39 29.3391 1202.45 33.9456 Q1205.52 38.5289 1205.52 47.2788 Q1205.52 56.0056 1202.45 60.6121 Q1199.39 65.1954 1193.58 65.1954 Q1187.77 65.1954 1184.69 60.6121 Q1181.64 56.0056 1181.64 47.2788 Q1181.64 38.5289 1184.69 33.9456 Q1187.77 29.3391 1193.58 29.3391 Z"
     fill="#000000"
     fill-rule="evenodd"
     fill-opacity="1"
     id="path263" />
  <polyline
     clip-path="url(#clip554)"
     style="stroke:#808080; stroke-linecap:butt; stroke-linejoin:round; stroke-width:4; stroke-opacity:1; fill:none"
     stroke-dasharray="16, 10"
     points="   1229.52,396.656 1588.67,8.42056    "
     id="polyline265" />
  <polyline
     clip-path="url(#clip554)"
     style="stroke:#d55e00; stroke-linecap:butt; stroke-linejoin:round; stroke-width:12; stroke-opacity:1; fill:none"
     points="   1229.66,394.618 1229.68,394.309 1229.7,394.572 1229.72,395.479 1229.74,395.082 1229.76,394.841 1229.79,394.904 1229.82,393.484 1229.85,395.148 1229.89,394.514    1229.93,393.268 1229.98,393.304 1230.03,393.412 1230.11,393.494 1230.19,392.489 1230.29,391.146 1230.4,391.741 1230.52,390.549 1230.67,391.909 1230.83,391.713    1231.02,391.557 1231.24,391.281 1231.49,390.015 1231.77,389.411 1232.1,390.504 1232.48,388.159 1232.9,388.595 1233.39,389.542 1233.95,386.981 1234.59,385.216    1235.32,383.204 1236.16,384.591 1237.12,380.003 1238.22,380.749 1239.48,378.095 1240.94,377.395 1242.58,376.587 1244.46,376.149 1246.64,375.456 1249.12,372.35    1251.93,370.692 1255.2,366.005 1258.97,365.431 1263.27,360.31 1267.84,357.417 1272.59,352.18 1277.29,348.189 1282.12,344.662 1286.98,340.018 1291.87,332.983    1296.66,325.807 1301.5,317.837 1306.32,312.12 1311.11,305.119 1315.87,302.157 1320.61,296.552 1325.33,291.968 1329.98,286.491 1335.1,281.265 1340.35,272.114    1345.61,266.356 1350.84,260.183 1356,256.203 1361.17,249.441 1366.27,248.669 1371.38,243.815 1376.45,236.873 1381.5,224.727 1387.39,222.445 1392.59,211.902    1397.8,211.943 1402.94,205.57 1408.05,200.358 1413.13,196.952 1418.2,193.507 1423.25,190.184 1428.26,184.379 1433.24,181.734 1438.19,176.52 1443.21,170.728    1448.09,164.206 1452.95,154.607 1457.78,149.249 1462.58,144.792 1467.35,140.383 1472.08,143.423 1476.76,129.551 1481.44,124.27 1486.12,123.022 1490.71,120.708    1495.33,110.865 1499.9,103.95 1504.43,100.991 1508.94,96.8614 1513.41,101.033 1517.95,93.561 1522.37,85.3882 1526.79,80.7708 1531.21,81.6176 1535.55,81.9618    1539.94,80.3731 1544.28,76.4795    "
     id="polyline267" />
  <path
     clip-path="url(#clip550)"
     d="M1344.74 341.692 Q1346.06 342.137 1347.29 343.596 Q1348.55 345.054 1349.81 347.606 L1353.96 355.87 L1349.56 355.87 L1345.69 348.113 Q1344.2 345.074 1342.78 344.082 Q1341.38 343.089 1338.95 343.089 L1334.49 343.089 L1334.49 355.87 L1330.4 355.87 L1330.4 325.63 L1339.64 325.63 Q1344.82 325.63 1347.38 327.797 Q1349.93 329.964 1349.93 334.339 Q1349.93 337.195 1348.59 339.079 Q1347.27 340.963 1344.74 341.692 M1334.49 328.992 L1334.49 339.727 L1339.64 339.727 Q1342.6 339.727 1344.09 338.37 Q1345.61 336.993 1345.61 334.339 Q1345.61 331.686 1344.09 330.349 Q1342.6 328.992 1339.64 328.992 L1334.49 328.992 Z"
     fill="#000000"
     fill-rule="evenodd"
     fill-opacity="1"
     id="path319" />
  <path
     clip-path="url(#clip550)"
     d="M1360.58 340.031 L1369.17 340.031 L1369.17 342.34 L1357.06 342.34 L1357.06 340.112 Q1357.75 339.484 1359.02 338.35 Q1365.99 332.172 1365.99 330.268 Q1365.99 328.931 1364.94 328.121 Q1363.88 327.291 1362.16 327.291 Q1361.11 327.291 1359.87 327.655 Q1358.64 328 1357.18 328.709 L1357.18 326.217 Q1358.74 325.65 1360.08 325.367 Q1361.43 325.083 1362.59 325.083 Q1365.52 325.083 1367.29 326.42 Q1369.05 327.757 1369.05 329.944 Q1369.05 332.76 1362.34 338.512 Q1361.21 339.484 1360.58 340.031 Z"
     fill="#000000"
     fill-rule="evenodd"
     fill-opacity="1"
     id="path321" />
  <path
     clip-path="url(#clip550)"
     d="M1376.18 337.033 L1402.14 337.033 L1402.14 340.436 L1376.18 340.436 L1376.18 337.033 M1376.18 345.297 L1402.14 345.297 L1402.14 348.74 L1376.18 348.74 L1376.18 345.297 Z"
     fill="#000000"
     fill-rule="evenodd"
     fill-opacity="1"
     id="path323" />
  <path
     clip-path="url(#clip550)"
     d="M1419.72 328.324 Q1416.56 328.324 1414.96 331.443 Q1413.39 334.542 1413.39 340.78 Q1413.39 346.999 1414.96 350.118 Q1416.56 353.217 1419.72 353.217 Q1422.9 353.217 1424.48 350.118 Q1426.08 346.999 1426.08 340.78 Q1426.08 334.542 1424.48 331.443 Q1422.9 328.324 1419.72 328.324 M1419.72 325.083 Q1424.81 325.083 1427.48 329.114 Q1430.18 333.124 1430.18 340.78 Q1430.18 348.416 1427.48 352.447 Q1424.81 356.457 1419.72 356.457 Q1414.64 356.457 1411.95 352.447 Q1409.27 348.416 1409.27 340.78 Q1409.27 333.124 1411.95 329.114 Q1414.64 325.083 1419.72 325.083 Z"
     fill="#000000"
     fill-rule="evenodd"
     fill-opacity="1"
     id="path325" />
  <path
     clip-path="url(#clip550)"
     d="M1437.37 350.725 L1441.64 350.725 L1441.64 355.87 L1437.37 355.87 L1437.37 350.725 Z"
     fill="#000000"
     fill-rule="evenodd"
     fill-opacity="1"
     id="path327" />
  <path
     clip-path="url(#clip550)"
     d="M1450.67 355.242 L1450.67 351.515 Q1452.21 352.244 1453.79 352.629 Q1455.37 353.014 1456.89 353.014 Q1460.94 353.014 1463.07 350.3 Q1465.22 347.566 1465.52 342.016 Q1464.35 343.758 1462.54 344.689 Q1460.74 345.621 1458.55 345.621 Q1454.02 345.621 1451.36 342.887 Q1448.73 340.132 1448.73 335.372 Q1448.73 330.714 1451.48 327.898 Q1454.24 325.083 1458.82 325.083 Q1464.06 325.083 1466.82 329.114 Q1469.59 333.124 1469.59 340.78 Q1469.59 347.93 1466.19 352.204 Q1462.81 356.457 1457.07 356.457 Q1455.53 356.457 1453.95 356.154 Q1452.37 355.85 1450.67 355.242 M1458.82 342.421 Q1461.57 342.421 1463.17 340.537 Q1464.79 338.654 1464.79 335.372 Q1464.79 332.111 1463.17 330.228 Q1461.57 328.324 1458.82 328.324 Q1456.06 328.324 1454.44 330.228 Q1452.84 332.111 1452.84 335.372 Q1452.84 338.654 1454.44 340.537 Q1456.06 342.421 1458.82 342.421 Z"
     fill="#000000"
     fill-rule="evenodd"
     fill-opacity="1"
     id="path329" />
  <path
     clip-path="url(#clip550)"
     d="M1477.07 355.242 L1477.07 351.515 Q1478.6 352.244 1480.18 352.629 Q1481.76 353.014 1483.28 353.014 Q1487.33 353.014 1489.46 350.3 Q1491.61 347.566 1491.91 342.016 Q1490.74 343.758 1488.93 344.689 Q1487.13 345.621 1484.94 345.621 Q1480.41 345.621 1477.75 342.887 Q1475.12 340.132 1475.12 335.372 Q1475.12 330.714 1477.88 327.898 Q1480.63 325.083 1485.21 325.083 Q1490.45 325.083 1493.21 329.114 Q1495.98 333.124 1495.98 340.78 Q1495.98 347.93 1492.58 352.204 Q1489.2 356.457 1483.47 356.457 Q1481.93 356.457 1480.35 356.154 Q1478.77 355.85 1477.07 355.242 M1485.21 342.421 Q1487.96 342.421 1489.56 340.537 Q1491.18 338.654 1491.18 335.372 Q1491.18 332.111 1489.56 330.228 Q1487.96 328.324 1485.21 328.324 Q1482.45 328.324 1480.83 330.228 Q1479.23 332.111 1479.23 335.372 Q1479.23 338.654 1480.83 340.537 Q1482.45 342.421 1485.21 342.421 Z"
     fill="#000000"
     fill-rule="evenodd"
     fill-opacity="1"
     id="path331" />
  <path
     clip-path="url(#clip550)"
     d="M1512.09 341.51 Q1509.17 341.51 1507.49 343.069 Q1505.83 344.629 1505.83 347.363 Q1505.83 350.097 1507.49 351.657 Q1509.17 353.217 1512.09 353.217 Q1515 353.217 1516.68 351.657 Q1518.36 350.077 1518.36 347.363 Q1518.36 344.629 1516.68 343.069 Q1515.02 341.51 1512.09 341.51 M1507.99 339.768 Q1505.36 339.12 1503.88 337.317 Q1502.42 335.514 1502.42 332.922 Q1502.42 329.296 1505 327.19 Q1507.59 325.083 1512.09 325.083 Q1516.6 325.083 1519.17 327.19 Q1521.75 329.296 1521.75 332.922 Q1521.75 335.514 1520.27 337.317 Q1518.81 339.12 1516.2 339.768 Q1519.15 340.456 1520.79 342.461 Q1522.46 344.467 1522.46 347.363 Q1522.46 351.758 1519.76 354.108 Q1517.09 356.457 1512.09 356.457 Q1507.08 356.457 1504.39 354.108 Q1501.72 351.758 1501.72 347.363 Q1501.72 344.467 1503.38 342.461 Q1505.04 340.456 1507.99 339.768 M1506.5 333.306 Q1506.5 335.656 1507.95 336.973 Q1509.43 338.289 1512.09 338.289 Q1514.72 338.289 1516.2 336.973 Q1517.7 335.656 1517.7 333.306 Q1517.7 330.957 1516.2 329.64 Q1514.72 328.324 1512.09 328.324 Q1509.43 328.324 1507.95 329.64 Q1506.5 330.957 1506.5 333.306 Z"
     fill="#000000"
     fill-rule="evenodd"
     fill-opacity="1"
     id="path333" />
  <path
     clip-path="url(#clip550)"
     d="M1538.48 341.51 Q1535.56 341.51 1533.88 343.069 Q1532.22 344.629 1532.22 347.363 Q1532.22 350.097 1533.88 351.657 Q1535.56 353.217 1538.48 353.217 Q1541.39 353.217 1543.07 351.657 Q1544.76 350.077 1544.76 347.363 Q1544.76 344.629 1543.07 343.069 Q1541.41 341.51 1538.48 341.51 M1534.39 339.768 Q1531.75 339.12 1530.27 337.317 Q1528.82 335.514 1528.82 332.922 Q1528.82 329.296 1531.39 327.19 Q1533.98 325.083 1538.48 325.083 Q1542.99 325.083 1545.57 327.19 Q1548.14 329.296 1548.14 332.922 Q1548.14 335.514 1546.66 337.317 Q1545.2 339.12 1542.59 339.768 Q1545.55 340.456 1547.19 342.461 Q1548.85 344.467 1548.85 347.363 Q1548.85 351.758 1546.15 354.108 Q1543.48 356.457 1538.48 356.457 Q1533.47 356.457 1530.78 354.108 Q1528.11 351.758 1528.11 347.363 Q1528.11 344.467 1529.77 342.461 Q1531.43 340.456 1534.39 339.768 M1532.89 333.306 Q1532.89 335.656 1534.35 336.973 Q1535.82 338.289 1538.48 338.289 Q1541.11 338.289 1542.59 336.973 Q1544.09 335.656 1544.09 333.306 Q1544.09 330.957 1542.59 329.64 Q1541.11 328.324 1538.48 328.324 Q1535.82 328.324 1534.35 329.64 Q1532.89 330.957 1532.89 333.306 Z"
     fill="#000000"
     fill-rule="evenodd"
     fill-opacity="1"
     id="path335" />
</svg>
