<?xml version="1.0" encoding="utf-8"?>
<svg xmlns="http://www.w3.org/2000/svg" xmlns:xlink="http://www.w3.org/1999/xlink" width="300" height="400" viewBox="0 0 1200 1600">
<defs>
  <clipPath id="clip980">
    <rect x="0" y="0" width="1200" height="1600"/>
  </clipPath>
</defs>
<path clip-path="url(#clip980)" d="
M0 1600 L1200 1600 L1200 0 L0 0  Z
  " fill="#ffffff" fill-rule="evenodd" fill-opacity="1"/>
<defs>
  <clipPath id="clip981">
    <rect x="320" y="160" width="1121" height="1121"/>
  </clipPath>
</defs>
<path clip-path="url(#clip980)" d="
M277.735 1297.31 L1152.76 1297.31 L1152.76 47.2441 L277.735 47.2441  Z
  " fill="#ffffff" fill-rule="evenodd" fill-opacity="1"/>
<defs>
  <clipPath id="clip982">
    <rect x="277" y="47" width="876" height="1251"/>
  </clipPath>
</defs>
<polyline clip-path="url(#clip980)" style="stroke:#000000; stroke-linecap:butt; stroke-linejoin:round; stroke-width:4; stroke-opacity:1; fill:none" points="
  277.735,1297.31 1152.76,1297.31 
  "/>
<polyline clip-path="url(#clip980)" style="stroke:#000000; stroke-linecap:butt; stroke-linejoin:round; stroke-width:4; stroke-opacity:1; fill:none" points="
  420.427,1297.31 420.427,1278.42 
  "/>
<polyline clip-path="url(#clip980)" style="stroke:#000000; stroke-linecap:butt; stroke-linejoin:round; stroke-width:4; stroke-opacity:1; fill:none" points="
  715.245,1297.31 715.245,1278.42 
  "/>
<polyline clip-path="url(#clip980)" style="stroke:#000000; stroke-linecap:butt; stroke-linejoin:round; stroke-width:4; stroke-opacity:1; fill:none" points="
  1010.06,1297.31 1010.06,1278.42 
  "/>
<path clip-path="url(#clip980)" d="M235.622 1495.32 L243.299 1511.97 L252.285 1502.98 L235.622 1495.32 M230.499 1493.93 L234.247 1490.18 L267.999 1505.31 L264.561 1508.74 L256.066 1504.7 L245.05 1515.72 L249.093 1524.21 L245.607 1527.7 L230.499 1493.93 Z" fill="#000000" fill-rule="evenodd" fill-opacity="1" /><path clip-path="url(#clip980)" d="M276.608 1476.86 L278.081 1478.33 L264.234 1492.18 Q267.54 1495.09 270.847 1495.06 Q274.153 1494.99 277.148 1492 Q278.883 1490.26 280.078 1488.22 Q281.289 1486.16 282.042 1483.7 L284.89 1486.55 Q283.957 1488.86 282.615 1490.92 Q281.273 1492.98 279.522 1494.73 Q275.135 1499.12 270.012 1499.14 Q264.905 1499.14 260.551 1494.78 Q256.05 1490.28 255.837 1485.22 Q255.624 1480.13 259.749 1476.01 Q263.448 1472.31 267.982 1472.55 Q272.516 1472.77 276.608 1476.86 M272.713 1478.99 Q270.208 1476.55 267.377 1476.43 Q264.561 1476.3 262.335 1478.53 Q259.814 1481.05 259.716 1484 Q259.634 1486.93 261.991 1489.74 L272.713 1478.99 Z" fill="#000000" fill-rule="evenodd" fill-opacity="1" /><path clip-path="url(#clip980)" d="M286.576 1455.7 Q285.774 1455.91 285.038 1456.38 Q284.301 1456.82 283.581 1457.54 Q281.028 1460.1 281.322 1463.14 Q281.617 1466.15 284.727 1469.26 L294.384 1478.92 L291.356 1481.95 L273.024 1463.62 L276.052 1460.59 L278.9 1463.44 Q278.179 1460.82 278.9 1458.49 Q279.604 1456.15 281.78 1453.98 Q282.091 1453.67 282.517 1453.34 Q282.926 1452.99 283.466 1452.62 L286.576 1455.7 Z" fill="#000000" fill-rule="evenodd" fill-opacity="1" /><path clip-path="url(#clip980)" d="M295.399 1445.47 Q292.976 1447.89 293.467 1451.19 Q293.942 1454.48 297.232 1457.77 Q300.522 1461.06 303.812 1461.57 Q307.102 1462.05 309.541 1459.61 Q311.947 1457.2 311.456 1453.89 Q310.965 1450.59 307.691 1447.31 Q304.434 1444.06 301.128 1443.57 Q297.805 1443.06 295.399 1445.47 M292.845 1442.91 Q296.774 1438.98 301.57 1439.29 Q306.365 1439.61 310.883 1444.12 Q315.384 1448.62 315.712 1453.44 Q316.023 1458.23 312.094 1462.16 Q308.15 1466.11 303.354 1465.79 Q298.558 1465.45 294.057 1460.95 Q289.539 1456.43 289.212 1451.65 Q288.901 1446.86 292.845 1442.91 Z" fill="#000000" fill-rule="evenodd" fill-opacity="1" /><path clip-path="url(#clip980)" d="M324.485 1419.19 Q323.585 1416.04 324.19 1413.5 Q324.796 1410.96 326.924 1408.83 Q329.788 1405.97 333.356 1406.43 Q336.908 1406.87 340.608 1410.57 L351.672 1421.63 L348.644 1424.66 L337.678 1413.69 Q335.042 1411.06 332.833 1410.72 Q330.623 1410.37 328.708 1412.29 Q326.367 1414.63 326.564 1417.54 Q326.76 1420.45 329.444 1423.14 L339.805 1433.5 L336.777 1436.53 L325.811 1425.56 Q323.159 1422.91 320.966 1422.58 Q318.756 1422.24 316.808 1424.19 Q314.5 1426.49 314.713 1429.42 Q314.91 1432.34 317.578 1435.01 L327.939 1445.37 L324.91 1448.39 L306.578 1430.06 L309.606 1427.03 L312.454 1429.88 Q311.8 1427.17 312.438 1424.92 Q313.076 1422.68 315.057 1420.7 Q317.054 1418.7 319.46 1418.33 Q321.882 1417.93 324.485 1419.19 Z" fill="#000000" fill-rule="evenodd" fill-opacity="1" /><path clip-path="url(#clip980)" d="M348.562 1392.3 Q346.14 1394.72 346.631 1398.03 Q347.106 1401.32 350.396 1404.61 Q353.686 1407.9 356.976 1408.41 Q360.266 1408.88 362.704 1406.44 Q365.111 1404.04 364.62 1400.73 Q364.129 1397.42 360.855 1394.15 Q357.598 1390.89 354.291 1390.4 Q350.969 1389.9 348.562 1392.3 M346.009 1389.75 Q349.937 1385.82 354.733 1386.13 Q359.529 1386.44 364.047 1390.96 Q368.548 1395.46 368.875 1400.27 Q369.186 1405.07 365.258 1409 Q361.313 1412.94 356.517 1412.63 Q351.721 1412.29 347.22 1407.79 Q342.703 1403.27 342.375 1398.49 Q342.064 1393.69 346.009 1389.75 Z" fill="#000000" fill-rule="evenodd" fill-opacity="1" /><path clip-path="url(#clip980)" d="M382.363 1368.81 L393.427 1379.88 L390.416 1382.89 L379.449 1371.92 Q376.847 1369.32 374.539 1369.04 Q372.231 1368.76 370.201 1370.79 Q367.762 1373.23 367.91 1376.2 Q368.057 1379.16 370.741 1381.84 L381.102 1392.2 L378.074 1395.23 L359.742 1376.9 L362.77 1373.87 L365.618 1376.72 Q365.045 1373.99 365.683 1371.71 Q366.338 1369.42 368.253 1367.5 Q371.412 1364.34 374.997 1364.69 Q378.565 1365.02 382.363 1368.81 Z" fill="#000000" fill-rule="evenodd" fill-opacity="1" /><path clip-path="url(#clip980)" d="M398.551 1356.32 Q394.901 1359.97 394.328 1362.22 Q393.755 1364.46 395.768 1366.47 Q397.372 1368.08 399.369 1367.98 Q401.366 1367.85 403.183 1366.03 Q405.687 1363.53 405.425 1360.25 Q405.163 1356.95 402.217 1354 L401.546 1353.33 L398.551 1356.32 M403.314 1349.07 L413.773 1359.53 L410.761 1362.54 L407.979 1359.76 Q408.617 1362.46 407.881 1364.8 Q407.128 1367.13 404.902 1369.35 Q402.086 1372.17 398.845 1372.27 Q395.604 1372.33 392.953 1369.68 Q389.859 1366.59 390.35 1362.95 Q390.858 1359.3 394.966 1355.19 L399.189 1350.97 L398.894 1350.68 Q396.816 1348.6 394.311 1348.84 Q391.807 1349.06 389.335 1351.53 Q387.764 1353.1 386.651 1354.97 Q385.538 1356.83 384.916 1358.96 L382.133 1356.18 Q383.148 1353.89 384.392 1352.02 Q385.62 1350.14 387.093 1348.66 Q391.07 1344.69 395.097 1344.78 Q399.124 1344.88 403.314 1349.07 Z" fill="#000000" fill-rule="evenodd" fill-opacity="1" /><path clip-path="url(#clip980)" d="M413.871 1323.85 L416.719 1326.7 Q414.788 1327.32 413.086 1328.37 Q411.383 1329.42 409.91 1330.89 Q407.668 1333.13 407.226 1334.95 Q406.8 1336.75 408.175 1338.12 Q409.223 1339.17 410.63 1338.97 Q412.022 1338.76 414.984 1336.88 L416.245 1336.08 Q420.14 1333.56 422.743 1333.47 Q425.345 1333.36 427.588 1335.6 Q430.141 1338.16 429.601 1341.67 Q429.077 1345.18 425.542 1348.71 Q424.069 1350.19 422.17 1351.5 Q420.304 1352.81 417.963 1354 L414.853 1350.89 Q417.39 1350.09 419.453 1348.91 Q421.499 1347.71 423.087 1346.13 Q425.214 1344 425.64 1342.13 Q426.049 1340.25 424.723 1338.92 Q423.496 1337.7 422.006 1337.88 Q420.533 1338.04 417.129 1340.23 L415.835 1341.04 Q412.447 1343.25 409.992 1343.28 Q407.52 1343.3 405.393 1341.17 Q402.806 1338.58 403.232 1335.34 Q403.658 1332.1 407.029 1328.73 Q408.699 1327.06 410.418 1325.83 Q412.136 1324.6 413.871 1323.85 Z" fill="#000000" fill-rule="evenodd" fill-opacity="1" /><path clip-path="url(#clip980)" d="M540.147 1479.1 L543.699 1475.55 L560.526 1478.82 L557.203 1462.05 L560.755 1458.49 L564.912 1479.94 L576.55 1491.57 L573.227 1494.9 L561.589 1483.26 L540.147 1479.1 Z" fill="#000000" fill-rule="evenodd" fill-opacity="1" /><path clip-path="url(#clip980)" d="M589.595 1458.69 L591.068 1460.16 L577.221 1474.01 Q580.527 1476.92 583.834 1476.89 Q587.14 1476.83 590.135 1473.83 Q591.87 1472.1 593.065 1470.05 Q594.277 1467.99 595.03 1465.53 L597.878 1468.38 Q596.945 1470.69 595.602 1472.75 Q594.26 1474.81 592.509 1476.56 Q588.122 1480.95 582.999 1480.97 Q577.892 1480.97 573.538 1476.61 Q569.037 1472.11 568.824 1467.05 Q568.611 1461.96 572.736 1457.84 Q576.435 1454.14 580.969 1454.39 Q585.503 1454.6 589.595 1458.69 M585.7 1460.82 Q583.195 1458.38 580.364 1458.26 Q577.548 1458.13 575.322 1460.36 Q572.802 1462.88 572.703 1465.83 Q572.622 1468.76 574.979 1471.57 L585.7 1460.82 Z" fill="#000000" fill-rule="evenodd" fill-opacity="1" /><path clip-path="url(#clip980)" d="M603.574 1446.12 Q599.924 1449.77 599.351 1452.01 Q598.778 1454.25 600.791 1456.27 Q602.395 1457.87 604.392 1457.77 Q606.389 1457.64 608.206 1455.83 Q610.71 1453.32 610.448 1450.05 Q610.186 1446.74 607.24 1443.8 L606.569 1443.12 L603.574 1446.12 M608.337 1438.87 L618.796 1449.33 L615.784 1452.34 L613.002 1449.56 Q613.64 1452.26 612.904 1454.6 Q612.151 1456.92 609.925 1459.15 Q607.109 1461.96 603.868 1462.06 Q600.627 1462.13 597.976 1459.48 Q594.882 1456.38 595.373 1452.75 Q595.881 1449.1 599.989 1444.99 L604.212 1440.77 L603.917 1440.47 Q601.839 1438.39 599.334 1438.64 Q596.83 1438.85 594.358 1441.32 Q592.787 1442.9 591.674 1444.76 Q590.561 1446.63 589.939 1448.76 L587.156 1445.97 Q588.171 1443.68 589.415 1441.81 Q590.643 1439.93 592.116 1438.46 Q596.093 1434.48 600.12 1434.58 Q604.147 1434.68 608.337 1438.87 Z" fill="#000000" fill-rule="evenodd" fill-opacity="1" /><path clip-path="url(#clip980)" d="M618.894 1413.65 L621.742 1416.49 Q619.811 1417.12 618.109 1418.16 Q616.406 1419.21 614.933 1420.68 Q612.691 1422.93 612.249 1424.74 Q611.823 1426.54 613.198 1427.92 Q614.246 1428.97 615.653 1428.77 Q617.045 1428.56 620.007 1426.67 L621.268 1425.87 Q625.163 1423.35 627.766 1423.27 Q630.368 1423.16 632.611 1425.4 Q635.164 1427.95 634.624 1431.47 Q634.1 1434.97 630.565 1438.51 Q629.092 1439.98 627.193 1441.29 Q625.327 1442.6 622.986 1443.8 L619.876 1440.69 Q622.413 1439.88 624.476 1438.7 Q626.522 1437.51 628.109 1435.92 Q630.237 1433.79 630.663 1431.93 Q631.072 1430.05 629.746 1428.72 Q628.519 1427.49 627.029 1427.67 Q625.556 1427.84 622.152 1430.03 L620.858 1430.83 Q617.47 1433.04 615.015 1433.07 Q612.543 1433.09 610.416 1430.96 Q607.829 1428.38 608.255 1425.14 Q608.681 1421.89 612.052 1418.52 Q613.722 1416.85 615.441 1415.63 Q617.159 1414.4 618.894 1413.65 Z" fill="#000000" fill-rule="evenodd" fill-opacity="1" /><path clip-path="url(#clip980)" d="M621.906 1399.14 L627.111 1404.35 L633.315 1398.14 L635.655 1400.49 L629.452 1406.69 L639.404 1416.64 Q641.646 1418.88 642.89 1418.92 Q644.15 1418.93 646.033 1417.05 L649.126 1413.96 L651.647 1416.48 L648.553 1419.57 Q645.067 1423.06 642.448 1423.09 Q639.813 1423.11 636.375 1419.67 L626.424 1409.72 L624.214 1411.93 L621.873 1409.59 L624.083 1407.38 L618.878 1402.17 L621.906 1399.14 Z" fill="#000000" fill-rule="evenodd" fill-opacity="1" /><path clip-path="url(#clip980)" d="M648.062 1369.19 Q649.634 1375.15 652.252 1379.89 Q654.871 1384.64 658.652 1388.42 Q662.433 1392.2 667.213 1394.85 Q671.992 1397.47 677.918 1399.05 L675.299 1401.66 Q668.997 1400.27 664.054 1397.78 Q659.127 1395.28 655.461 1391.61 Q651.811 1387.96 649.323 1383.05 Q646.835 1378.14 645.443 1371.81 L648.062 1369.19 Z" fill="#000000" fill-rule="evenodd" fill-opacity="1" /><path clip-path="url(#clip980)" d="M678.458 1371.24 Q674.808 1374.89 674.235 1377.13 Q673.662 1379.37 675.675 1381.38 Q677.279 1382.99 679.276 1382.89 Q681.273 1382.76 683.09 1380.94 Q685.594 1378.44 685.332 1375.16 Q685.071 1371.86 682.124 1368.91 L681.453 1368.24 L678.458 1371.24 M683.221 1363.98 L693.68 1374.44 L690.668 1377.46 L687.886 1374.67 Q688.524 1377.37 687.788 1379.71 Q687.035 1382.04 684.809 1384.26 Q681.993 1387.08 678.752 1387.18 Q675.512 1387.24 672.86 1384.59 Q669.766 1381.5 670.257 1377.86 Q670.765 1374.21 674.873 1370.11 L679.096 1365.88 L678.802 1365.59 Q676.723 1363.51 674.219 1363.76 Q671.714 1363.97 669.243 1366.44 Q667.671 1368.01 666.558 1369.88 Q665.445 1371.74 664.823 1373.87 L662.041 1371.09 Q663.055 1368.8 664.299 1366.93 Q665.527 1365.05 667 1363.58 Q670.978 1359.6 675.004 1359.7 Q679.031 1359.79 683.221 1363.98 Z" fill="#000000" fill-rule="evenodd" fill-opacity="1" /><path clip-path="url(#clip980)" d="M699 1350.69 Q695.35 1354.34 694.777 1356.59 Q694.204 1358.83 696.217 1360.84 Q697.821 1362.45 699.818 1362.35 Q701.815 1362.22 703.632 1360.4 Q706.136 1357.9 705.874 1354.62 Q705.613 1351.32 702.666 1348.37 L701.995 1347.7 L699 1350.69 M703.763 1343.44 L714.222 1353.9 L711.21 1356.91 L708.428 1354.13 Q709.066 1356.83 708.33 1359.17 Q707.577 1361.5 705.351 1363.72 Q702.535 1366.54 699.294 1366.64 Q696.054 1366.7 693.402 1364.05 Q690.308 1360.96 690.799 1357.32 Q691.307 1353.67 695.415 1349.56 L699.638 1345.34 L699.344 1345.05 Q697.265 1342.97 694.761 1343.21 Q692.256 1343.43 689.785 1345.9 Q688.213 1347.47 687.1 1349.34 Q685.987 1351.2 685.365 1353.33 L682.583 1350.55 Q683.597 1348.25 684.841 1346.39 Q686.069 1344.51 687.542 1343.03 Q691.52 1339.06 695.546 1339.15 Q699.573 1339.25 703.763 1343.44 Z" fill="#000000" fill-rule="evenodd" fill-opacity="1" /><path clip-path="url(#clip980)" d="M694.515 1322.74 L697.134 1320.12 Q703.452 1321.53 708.362 1324.01 Q713.289 1326.49 716.939 1330.14 Q720.606 1333.8 723.094 1338.74 Q725.598 1343.67 726.989 1349.97 L724.37 1352.59 Q722.799 1346.67 720.164 1341.9 Q717.529 1337.11 713.748 1333.33 Q709.966 1329.55 705.203 1326.94 Q700.457 1324.32 694.515 1322.74 Z" fill="#000000" fill-rule="evenodd" fill-opacity="1" /><path clip-path="url(#clip980)" d="M904.219 1409.85 L919.671 1394.4 L922.453 1397.18 L910.308 1409.32 L917.543 1416.56 L929.181 1404.92 L931.963 1407.7 L920.325 1419.34 L929.181 1428.2 L941.62 1415.76 L944.403 1418.54 L928.657 1434.29 L904.219 1409.85 Z" fill="#000000" fill-rule="evenodd" fill-opacity="1" /><path clip-path="url(#clip980)" d="M945.974 1408.65 L949.428 1405.2 L953.586 1409.36 L950.132 1412.81 L945.974 1408.65 Z" fill="#000000" fill-rule="evenodd" fill-opacity="1" /><path clip-path="url(#clip980)" d="M966.582 1361.1 L969.397 1363.92 Q967.417 1364.49 965.78 1365.44 Q964.143 1366.36 962.834 1367.67 Q959.904 1370.6 960.149 1374.08 Q960.378 1377.55 963.734 1380.91 Q967.089 1384.26 970.576 1384.51 Q974.046 1384.74 976.976 1381.81 Q978.285 1380.5 979.218 1378.88 Q980.151 1377.23 980.724 1375.25 L983.506 1378.03 Q982.835 1379.88 981.771 1381.53 Q980.724 1383.17 979.202 1384.69 Q975.061 1388.83 970.019 1388.67 Q964.978 1388.5 960.558 1384.08 Q956.073 1379.6 955.959 1374.57 Q955.861 1369.53 960.149 1365.24 Q961.54 1363.85 963.161 1362.82 Q964.765 1361.77 966.582 1361.1 Z" fill="#000000" fill-rule="evenodd" fill-opacity="1" /><path clip-path="url(#clip980)" d="M980.331 1350.17 Q977.909 1352.59 978.4 1355.9 Q978.874 1359.19 982.164 1362.48 Q985.454 1365.77 988.744 1366.28 Q992.034 1366.75 994.473 1364.31 Q996.879 1361.91 996.388 1358.6 Q995.897 1355.29 992.624 1352.02 Q989.366 1348.76 986.06 1348.27 Q982.737 1347.76 980.331 1350.17 M977.778 1347.62 Q981.706 1343.69 986.502 1344 Q991.298 1344.31 995.815 1348.83 Q1000.32 1353.33 1000.64 1358.14 Q1000.95 1362.94 997.027 1366.87 Q993.082 1370.81 988.286 1370.5 Q983.49 1370.16 978.989 1365.65 Q974.471 1361.14 974.144 1356.36 Q973.833 1351.56 977.778 1347.62 Z" fill="#000000" fill-rule="evenodd" fill-opacity="1" /><path clip-path="url(#clip980)" d="M984.489 1327.52 L987.5 1324.5 L1012.97 1349.97 L1009.96 1352.99 L984.489 1327.52 Z" fill="#000000" fill-rule="evenodd" fill-opacity="1" /><path clip-path="url(#clip980)" d="M1000.94 1325.34 L1003.95 1322.33 L1022.28 1340.66 L1019.27 1343.67 L1000.94 1325.34 M993.802 1318.2 L996.814 1315.19 L1000.63 1319 L997.616 1322.02 L993.802 1318.2 Z" fill="#000000" fill-rule="evenodd" fill-opacity="1" /><polyline clip-path="url(#clip980)" style="stroke:#000000; stroke-linecap:butt; stroke-linejoin:round; stroke-width:4; stroke-opacity:1; fill:none" points="
  277.735,1297.31 277.735,47.2441 
  "/>
<polyline clip-path="url(#clip980)" style="stroke:#000000; stroke-linecap:butt; stroke-linejoin:round; stroke-width:4; stroke-opacity:1; fill:none" points="
  277.735,1297.31 296.632,1297.31 
  "/>
<polyline clip-path="url(#clip980)" style="stroke:#000000; stroke-linecap:butt; stroke-linejoin:round; stroke-width:4; stroke-opacity:1; fill:none" points="
  277.735,1047.3 296.632,1047.3 
  "/>
<polyline clip-path="url(#clip980)" style="stroke:#000000; stroke-linecap:butt; stroke-linejoin:round; stroke-width:4; stroke-opacity:1; fill:none" points="
  277.735,797.285 296.632,797.285 
  "/>
<polyline clip-path="url(#clip980)" style="stroke:#000000; stroke-linecap:butt; stroke-linejoin:round; stroke-width:4; stroke-opacity:1; fill:none" points="
  277.735,547.272 296.632,547.272 
  "/>
<polyline clip-path="url(#clip980)" style="stroke:#000000; stroke-linecap:butt; stroke-linejoin:round; stroke-width:4; stroke-opacity:1; fill:none" points="
  277.735,297.258 296.632,297.258 
  "/>
<polyline clip-path="url(#clip980)" style="stroke:#000000; stroke-linecap:butt; stroke-linejoin:round; stroke-width:4; stroke-opacity:1; fill:none" points="
  277.735,47.2441 296.632,47.2441 
  "/>
<path clip-path="url(#clip980)" d="M241.79 1283.11 Q238.179 1283.11 236.35 1286.68 Q234.545 1290.22 234.545 1297.35 Q234.545 1304.45 236.35 1308.02 Q238.179 1311.56 241.79 1311.56 Q245.424 1311.56 247.23 1308.02 Q249.059 1304.45 249.059 1297.35 Q249.059 1290.22 247.23 1286.68 Q245.424 1283.11 241.79 1283.11 M241.79 1279.41 Q247.6 1279.41 250.656 1284.01 Q253.735 1288.6 253.735 1297.35 Q253.735 1306.07 250.656 1310.68 Q247.6 1315.26 241.79 1315.26 Q235.98 1315.26 232.901 1310.68 Q229.846 1306.07 229.846 1297.35 Q229.846 1288.6 232.901 1284.01 Q235.98 1279.41 241.79 1279.41 Z" fill="#000000" fill-rule="evenodd" fill-opacity="1" /><path clip-path="url(#clip980)" d="M175.494 1060.64 L191.814 1060.64 L191.814 1064.58 L169.869 1064.58 L169.869 1060.64 Q172.531 1057.89 177.115 1053.26 Q181.721 1048.61 182.902 1047.26 Q185.147 1044.74 186.027 1043.01 Q186.929 1041.25 186.929 1039.56 Q186.929 1036.8 184.985 1035.07 Q183.064 1033.33 179.962 1033.33 Q177.763 1033.33 175.309 1034.09 Q172.878 1034.86 170.101 1036.41 L170.101 1031.69 Q172.925 1030.55 175.378 1029.97 Q177.832 1029.39 179.869 1029.39 Q185.24 1029.39 188.434 1032.08 Q191.628 1034.76 191.628 1039.26 Q191.628 1041.38 190.818 1043.31 Q190.031 1045.2 187.925 1047.8 Q187.346 1048.47 184.244 1051.69 Q181.142 1054.88 175.494 1060.64 Z" fill="#000000" fill-rule="evenodd" fill-opacity="1" /><path clip-path="url(#clip980)" d="M211.628 1033.1 Q208.017 1033.1 206.188 1036.66 Q204.383 1040.2 204.383 1047.33 Q204.383 1054.44 206.188 1058.01 Q208.017 1061.55 211.628 1061.55 Q215.263 1061.55 217.068 1058.01 Q218.897 1054.44 218.897 1047.33 Q218.897 1040.2 217.068 1036.66 Q215.263 1033.1 211.628 1033.1 M211.628 1029.39 Q217.438 1029.39 220.494 1034 Q223.573 1038.58 223.573 1047.33 Q223.573 1056.06 220.494 1060.67 Q217.438 1065.25 211.628 1065.25 Q205.818 1065.25 202.739 1060.67 Q199.684 1056.06 199.684 1047.33 Q199.684 1038.58 202.739 1034 Q205.818 1029.39 211.628 1029.39 Z" fill="#000000" fill-rule="evenodd" fill-opacity="1" /><path clip-path="url(#clip980)" d="M241.79 1033.1 Q238.179 1033.1 236.35 1036.66 Q234.545 1040.2 234.545 1047.33 Q234.545 1054.44 236.35 1058.01 Q238.179 1061.55 241.79 1061.55 Q245.424 1061.55 247.23 1058.01 Q249.059 1054.44 249.059 1047.33 Q249.059 1040.2 247.23 1036.66 Q245.424 1033.1 241.79 1033.1 M241.79 1029.39 Q247.6 1029.39 250.656 1034 Q253.735 1038.58 253.735 1047.33 Q253.735 1056.06 250.656 1060.67 Q247.6 1065.25 241.79 1065.25 Q235.98 1065.25 232.901 1060.67 Q229.846 1056.06 229.846 1047.33 Q229.846 1038.58 232.901 1034 Q235.98 1029.39 241.79 1029.39 Z" fill="#000000" fill-rule="evenodd" fill-opacity="1" /><path clip-path="url(#clip980)" d="M184.314 784.079 L172.508 802.528 L184.314 802.528 L184.314 784.079 M183.087 780.005 L188.966 780.005 L188.966 802.528 L193.897 802.528 L193.897 806.417 L188.966 806.417 L188.966 814.565 L184.314 814.565 L184.314 806.417 L168.712 806.417 L168.712 801.903 L183.087 780.005 Z" fill="#000000" fill-rule="evenodd" fill-opacity="1" /><path clip-path="url(#clip980)" d="M211.628 783.084 Q208.017 783.084 206.188 786.649 Q204.383 790.191 204.383 797.32 Q204.383 804.427 206.188 807.991 Q208.017 811.533 211.628 811.533 Q215.263 811.533 217.068 807.991 Q218.897 804.427 218.897 797.32 Q218.897 790.191 217.068 786.649 Q215.263 783.084 211.628 783.084 M211.628 779.38 Q217.438 779.38 220.494 783.987 Q223.573 788.57 223.573 797.32 Q223.573 806.047 220.494 810.653 Q217.438 815.237 211.628 815.237 Q205.818 815.237 202.739 810.653 Q199.684 806.047 199.684 797.32 Q199.684 788.57 202.739 783.987 Q205.818 779.38 211.628 779.38 Z" fill="#000000" fill-rule="evenodd" fill-opacity="1" /><path clip-path="url(#clip980)" d="M241.79 783.084 Q238.179 783.084 236.35 786.649 Q234.545 790.191 234.545 797.32 Q234.545 804.427 236.35 807.991 Q238.179 811.533 241.79 811.533 Q245.424 811.533 247.23 807.991 Q249.059 804.427 249.059 797.32 Q249.059 790.191 247.23 786.649 Q245.424 783.084 241.79 783.084 M241.79 779.38 Q247.6 779.38 250.656 783.987 Q253.735 788.57 253.735 797.32 Q253.735 806.047 250.656 810.653 Q247.6 815.237 241.79 815.237 Q235.98 815.237 232.901 810.653 Q229.846 806.047 229.846 797.32 Q229.846 788.57 232.901 783.987 Q235.98 779.38 241.79 779.38 Z" fill="#000000" fill-rule="evenodd" fill-opacity="1" /><path clip-path="url(#clip980)" d="M182.045 545.408 Q178.897 545.408 177.045 547.561 Q175.216 549.714 175.216 553.464 Q175.216 557.191 177.045 559.366 Q178.897 561.519 182.045 561.519 Q185.193 561.519 187.022 559.366 Q188.874 557.191 188.874 553.464 Q188.874 549.714 187.022 547.561 Q185.193 545.408 182.045 545.408 M191.327 530.755 L191.327 535.015 Q189.568 534.181 187.763 533.742 Q185.98 533.302 184.221 533.302 Q179.591 533.302 177.138 536.427 Q174.707 539.552 174.36 545.871 Q175.726 543.857 177.786 542.792 Q179.846 541.705 182.323 541.705 Q187.531 541.705 190.54 544.876 Q193.573 548.024 193.573 553.464 Q193.573 558.788 190.425 562.005 Q187.277 565.223 182.045 565.223 Q176.05 565.223 172.878 560.64 Q169.707 556.033 169.707 547.306 Q169.707 539.112 173.596 534.251 Q177.485 529.367 184.036 529.367 Q185.795 529.367 187.577 529.714 Q189.383 530.061 191.327 530.755 Z" fill="#000000" fill-rule="evenodd" fill-opacity="1" /><path clip-path="url(#clip980)" d="M211.628 533.07 Q208.017 533.07 206.188 536.635 Q204.383 540.177 204.383 547.306 Q204.383 554.413 206.188 557.978 Q208.017 561.519 211.628 561.519 Q215.263 561.519 217.068 557.978 Q218.897 554.413 218.897 547.306 Q218.897 540.177 217.068 536.635 Q215.263 533.07 211.628 533.07 M211.628 529.367 Q217.438 529.367 220.494 533.973 Q223.573 538.556 223.573 547.306 Q223.573 556.033 220.494 560.64 Q217.438 565.223 211.628 565.223 Q205.818 565.223 202.739 560.64 Q199.684 556.033 199.684 547.306 Q199.684 538.556 202.739 533.973 Q205.818 529.367 211.628 529.367 Z" fill="#000000" fill-rule="evenodd" fill-opacity="1" /><path clip-path="url(#clip980)" d="M241.79 533.07 Q238.179 533.07 236.35 536.635 Q234.545 540.177 234.545 547.306 Q234.545 554.413 236.35 557.978 Q238.179 561.519 241.79 561.519 Q245.424 561.519 247.23 557.978 Q249.059 554.413 249.059 547.306 Q249.059 540.177 247.23 536.635 Q245.424 533.07 241.79 533.07 M241.79 529.367 Q247.6 529.367 250.656 533.973 Q253.735 538.556 253.735 547.306 Q253.735 556.033 250.656 560.64 Q247.6 565.223 241.79 565.223 Q235.98 565.223 232.901 560.64 Q229.846 556.033 229.846 547.306 Q229.846 538.556 232.901 533.973 Q235.98 529.367 241.79 529.367 Z" fill="#000000" fill-rule="evenodd" fill-opacity="1" /><path clip-path="url(#clip980)" d="M181.466 298.126 Q178.133 298.126 176.212 299.908 Q174.314 301.691 174.314 304.816 Q174.314 307.941 176.212 309.723 Q178.133 311.505 181.466 311.505 Q184.8 311.505 186.721 309.723 Q188.642 307.918 188.642 304.816 Q188.642 301.691 186.721 299.908 Q184.823 298.126 181.466 298.126 M176.79 296.135 Q173.781 295.394 172.091 293.334 Q170.425 291.274 170.425 288.311 Q170.425 284.168 173.365 281.76 Q176.328 279.353 181.466 279.353 Q186.628 279.353 189.568 281.76 Q192.508 284.168 192.508 288.311 Q192.508 291.274 190.818 293.334 Q189.152 295.394 186.165 296.135 Q189.545 296.922 191.42 299.214 Q193.318 301.506 193.318 304.816 Q193.318 309.839 190.239 312.524 Q187.184 315.209 181.466 315.209 Q175.749 315.209 172.67 312.524 Q169.615 309.839 169.615 304.816 Q169.615 301.506 171.513 299.214 Q173.411 296.922 176.79 296.135 M175.078 288.751 Q175.078 291.436 176.744 292.941 Q178.434 294.445 181.466 294.445 Q184.476 294.445 186.165 292.941 Q187.878 291.436 187.878 288.751 Q187.878 286.066 186.165 284.561 Q184.476 283.057 181.466 283.057 Q178.434 283.057 176.744 284.561 Q175.078 286.066 175.078 288.751 Z" fill="#000000" fill-rule="evenodd" fill-opacity="1" /><path clip-path="url(#clip980)" d="M211.628 283.057 Q208.017 283.057 206.188 286.621 Q204.383 290.163 204.383 297.293 Q204.383 304.399 206.188 307.964 Q208.017 311.505 211.628 311.505 Q215.263 311.505 217.068 307.964 Q218.897 304.399 218.897 297.293 Q218.897 290.163 217.068 286.621 Q215.263 283.057 211.628 283.057 M211.628 279.353 Q217.438 279.353 220.494 283.959 Q223.573 288.543 223.573 297.293 Q223.573 306.019 220.494 310.626 Q217.438 315.209 211.628 315.209 Q205.818 315.209 202.739 310.626 Q199.684 306.019 199.684 297.293 Q199.684 288.543 202.739 283.959 Q205.818 279.353 211.628 279.353 Z" fill="#000000" fill-rule="evenodd" fill-opacity="1" /><path clip-path="url(#clip980)" d="M241.79 283.057 Q238.179 283.057 236.35 286.621 Q234.545 290.163 234.545 297.293 Q234.545 304.399 236.35 307.964 Q238.179 311.505 241.79 311.505 Q245.424 311.505 247.23 307.964 Q249.059 304.399 249.059 297.293 Q249.059 290.163 247.23 286.621 Q245.424 283.057 241.79 283.057 M241.79 279.353 Q247.6 279.353 250.656 283.959 Q253.735 288.543 253.735 297.293 Q253.735 306.019 250.656 310.626 Q247.6 315.209 241.79 315.209 Q235.98 315.209 232.901 310.626 Q229.846 306.019 229.846 297.293 Q229.846 288.543 232.901 283.959 Q235.98 279.353 241.79 279.353 Z" fill="#000000" fill-rule="evenodd" fill-opacity="1" /><path clip-path="url(#clip980)" d="M142.115 60.5889 L149.754 60.5889 L149.754 34.2233 L141.443 35.89 L141.443 31.6308 L149.707 29.9641 L154.383 29.9641 L154.383 60.5889 L162.022 60.5889 L162.022 64.5241 L142.115 64.5241 L142.115 60.5889 Z" fill="#000000" fill-rule="evenodd" fill-opacity="1" /><path clip-path="url(#clip980)" d="M181.466 33.0428 Q177.855 33.0428 176.027 36.6076 Q174.221 40.1492 174.221 47.2788 Q174.221 54.3853 176.027 57.9501 Q177.855 61.4917 181.466 61.4917 Q185.101 61.4917 186.906 57.9501 Q188.735 54.3853 188.735 47.2788 Q188.735 40.1492 186.906 36.6076 Q185.101 33.0428 181.466 33.0428 M181.466 29.3391 Q187.277 29.3391 190.332 33.9456 Q193.411 38.5289 193.411 47.2788 Q193.411 56.0056 190.332 60.6121 Q187.277 65.1954 181.466 65.1954 Q175.656 65.1954 172.578 60.6121 Q169.522 56.0056 169.522 47.2788 Q169.522 38.5289 172.578 33.9456 Q175.656 29.3391 181.466 29.3391 Z" fill="#000000" fill-rule="evenodd" fill-opacity="1" /><path clip-path="url(#clip980)" d="M211.628 33.0428 Q208.017 33.0428 206.188 36.6076 Q204.383 40.1492 204.383 47.2788 Q204.383 54.3853 206.188 57.9501 Q208.017 61.4917 211.628 61.4917 Q215.263 61.4917 217.068 57.9501 Q218.897 54.3853 218.897 47.2788 Q218.897 40.1492 217.068 36.6076 Q215.263 33.0428 211.628 33.0428 M211.628 29.3391 Q217.438 29.3391 220.494 33.9456 Q223.573 38.5289 223.573 47.2788 Q223.573 56.0056 220.494 60.6121 Q217.438 65.1954 211.628 65.1954 Q205.818 65.1954 202.739 60.6121 Q199.684 56.0056 199.684 47.2788 Q199.684 38.5289 202.739 33.9456 Q205.818 29.3391 211.628 29.3391 Z" fill="#000000" fill-rule="evenodd" fill-opacity="1" /><path clip-path="url(#clip980)" d="M241.79 33.0428 Q238.179 33.0428 236.35 36.6076 Q234.545 40.1492 234.545 47.2788 Q234.545 54.3853 236.35 57.9501 Q238.179 61.4917 241.79 61.4917 Q245.424 61.4917 247.23 57.9501 Q249.059 54.3853 249.059 47.2788 Q249.059 40.1492 247.23 36.6076 Q245.424 33.0428 241.79 33.0428 M241.79 29.3391 Q247.6 29.3391 250.656 33.9456 Q253.735 38.5289 253.735 47.2788 Q253.735 56.0056 250.656 60.6121 Q247.6 65.1954 241.79 65.1954 Q235.98 65.1954 232.901 60.6121 Q229.846 56.0056 229.846 47.2788 Q229.846 38.5289 232.901 33.9456 Q235.98 29.3391 241.79 29.3391 Z" fill="#000000" fill-rule="evenodd" fill-opacity="1" /><path clip-path="url(#clip980)" d="M55.6675 1029.39 L55.6675 1019.81 L88.0052 1007.69 L55.6675 995.497 L55.6675 985.917 L103.187 985.917 L103.187 992.187 L61.4602 992.187 L94.0527 1004.44 L94.0527 1010.9 L61.4602 1023.16 L103.187 1023.16 L103.187 1029.39 L55.6675 1029.39 Z" fill="#000000" fill-rule="evenodd" fill-opacity="1" /><path clip-path="url(#clip980)" d="M85.268 957.208 Q85.268 964.305 86.8912 967.043 Q88.5145 969.78 92.4294 969.78 Q95.5486 969.78 97.3947 967.743 Q99.2089 965.674 99.2089 962.141 Q99.2089 957.271 95.7714 954.343 Q92.3021 951.383 86.573 951.383 L85.268 951.383 L85.268 957.208 M82.849 945.526 L103.187 945.526 L103.187 951.383 L97.7766 951.383 Q101.023 953.388 102.583 956.38 Q104.11 959.372 104.11 963.701 Q104.11 969.175 101.055 972.422 Q97.9676 975.636 92.8114 975.636 Q86.7958 975.636 83.7402 971.626 Q80.6847 967.584 80.6847 959.595 L80.6847 951.383 L80.1118 951.383 Q76.0695 951.383 73.8734 954.056 Q71.6454 956.698 71.6454 961.504 Q71.6454 964.56 72.3774 967.456 Q73.1095 970.353 74.5736 973.026 L69.1628 973.026 Q67.9214 969.812 67.3167 966.788 Q66.6801 963.764 66.6801 960.9 Q66.6801 953.165 70.6905 949.346 Q74.7009 945.526 82.849 945.526 Z" fill="#000000" fill-rule="evenodd" fill-opacity="1" /><path clip-path="url(#clip980)" d="M67.5395 903.831 L84.886 916.722 L103.187 903.163 L103.187 910.069 L89.1829 920.446 L103.187 930.822 L103.187 937.728 L84.5359 923.883 L67.5395 936.551 L67.5395 929.644 L80.2391 920.191 L67.5395 910.738 L67.5395 903.831 Z" fill="#000000" fill-rule="evenodd" fill-opacity="1" /><path clip-path="url(#clip980)" d="M67.5395 894.887 L67.5395 889.031 L103.187 889.031 L103.187 894.887 L67.5395 894.887 M53.6623 894.887 L53.6623 889.031 L61.0783 889.031 L61.0783 894.887 L53.6623 894.887 Z" fill="#000000" fill-rule="evenodd" fill-opacity="1" /><path clip-path="url(#clip980)" d="M74.3826 849.022 Q70.4359 846.826 68.558 843.771 Q66.6801 840.715 66.6801 836.577 Q66.6801 831.007 70.595 827.984 Q74.4781 824.96 81.6714 824.96 L103.187 824.96 L103.187 830.848 L81.8623 830.848 Q76.7379 830.848 74.2553 832.662 Q71.7727 834.477 71.7727 838.201 Q71.7727 842.752 74.7964 845.394 Q77.8201 848.036 83.04 848.036 L103.187 848.036 L103.187 853.924 L81.8623 853.924 Q76.7061 853.924 74.2553 855.738 Q71.7727 857.552 71.7727 861.34 Q71.7727 865.828 74.8282 868.47 Q77.8519 871.111 83.04 871.111 L103.187 871.111 L103.187 877 L67.5395 877 L67.5395 871.111 L73.0777 871.111 Q69.7993 869.106 68.2397 866.305 Q66.6801 863.504 66.6801 859.653 Q66.6801 855.77 68.6535 853.065 Q70.6269 850.327 74.3826 849.022 Z" fill="#000000" fill-rule="evenodd" fill-opacity="1" /><path clip-path="url(#clip980)" d="M89.1192 813.884 L67.5395 813.884 L67.5395 808.027 L88.8964 808.027 Q93.9572 808.027 96.5035 806.054 Q99.0179 804.08 99.0179 800.134 Q99.0179 795.391 95.9942 792.654 Q92.9705 789.885 87.7506 789.885 L67.5395 789.885 L67.5395 784.028 L103.187 784.028 L103.187 789.885 L97.7129 789.885 Q100.959 792.017 102.551 794.85 Q104.11 797.651 104.11 801.375 Q104.11 807.518 100.291 810.701 Q96.4716 813.884 89.1192 813.884 M66.6801 799.147 L66.6801 799.147 Z" fill="#000000" fill-rule="evenodd" fill-opacity="1" /><path clip-path="url(#clip980)" d="M74.3826 744.211 Q70.4359 742.015 68.558 738.959 Q66.6801 735.904 66.6801 731.766 Q66.6801 726.196 70.595 723.172 Q74.4781 720.149 81.6714 720.149 L103.187 720.149 L103.187 726.037 L81.8623 726.037 Q76.7379 726.037 74.2553 727.851 Q71.7727 729.665 71.7727 733.389 Q71.7727 737.941 74.7964 740.583 Q77.8201 743.224 83.04 743.224 L103.187 743.224 L103.187 749.113 L81.8623 749.113 Q76.7061 749.113 74.2553 750.927 Q71.7727 752.741 71.7727 756.529 Q71.7727 761.016 74.8282 763.658 Q77.8519 766.3 83.04 766.3 L103.187 766.3 L103.187 772.188 L67.5395 772.188 L67.5395 766.3 L73.0777 766.3 Q69.7993 764.295 68.2397 761.494 Q66.6801 758.693 66.6801 754.842 Q66.6801 750.959 68.6535 748.253 Q70.6269 745.516 74.3826 744.211 Z" fill="#000000" fill-rule="evenodd" fill-opacity="1" /><path clip-path="url(#clip980)" d="M81.6714 658.115 L103.187 658.115 L103.187 663.971 L81.8623 663.971 Q76.8016 663.971 74.2871 665.945 Q71.7727 667.918 71.7727 671.865 Q71.7727 676.607 74.7964 679.344 Q77.8201 682.082 83.04 682.082 L103.187 682.082 L103.187 687.97 L53.6623 687.97 L53.6623 682.082 L73.0777 682.082 Q69.863 679.981 68.2716 677.148 Q66.6801 674.284 66.6801 670.56 Q66.6801 664.417 70.4996 661.266 Q74.2871 658.115 81.6714 658.115 Z" fill="#000000" fill-rule="evenodd" fill-opacity="1" /><path clip-path="url(#clip980)" d="M83.8994 615.942 L86.7639 615.942 L86.7639 642.869 Q92.8114 642.487 95.9942 639.24 Q99.1452 635.962 99.1452 630.138 Q99.1452 626.764 98.3177 623.613 Q97.4901 620.43 95.8351 617.311 L101.373 617.311 Q102.71 620.462 103.41 623.772 Q104.11 627.082 104.11 630.488 Q104.11 639.018 99.1452 644.015 Q94.18 648.98 85.7136 648.98 Q76.9607 648.98 71.8363 644.269 Q66.6801 639.527 66.6801 631.506 Q66.6801 624.313 71.3271 620.143 Q75.9422 615.942 83.8994 615.942 M82.1806 621.798 Q77.3745 621.862 74.5099 624.504 Q71.6454 627.114 71.6454 631.442 Q71.6454 636.344 74.4145 639.304 Q77.1835 642.232 82.2125 642.678 L82.1806 621.798 Z" fill="#000000" fill-rule="evenodd" fill-opacity="1" /><path clip-path="url(#clip980)" d="M67.5395 606.33 L67.5395 600.473 L103.187 600.473 L103.187 606.33 L67.5395 606.33 M53.6623 606.33 L53.6623 600.473 L61.0783 600.473 L61.0783 606.33 L53.6623 606.33 Z" fill="#000000" fill-rule="evenodd" fill-opacity="1" /><path clip-path="url(#clip980)" d="M84.9497 564.762 Q78.584 564.762 75.0829 567.403 Q71.5817 570.013 71.5817 574.756 Q71.5817 579.466 75.0829 582.108 Q78.584 584.718 84.9497 584.718 Q91.2836 584.718 94.7847 582.108 Q98.2859 579.466 98.2859 574.756 Q98.2859 570.013 94.7847 567.403 Q91.2836 564.762 84.9497 564.762 M98.7633 558.905 Q107.866 558.905 112.29 562.947 Q116.746 566.99 116.746 575.329 Q116.746 578.416 116.269 581.153 Q115.823 583.891 114.869 586.469 L109.171 586.469 Q110.572 583.891 111.24 581.376 Q111.908 578.862 111.908 576.252 Q111.908 570.491 108.885 567.626 Q105.893 564.762 99.8136 564.762 L96.9172 564.762 Q100.068 566.576 101.628 569.409 Q103.187 572.241 103.187 576.188 Q103.187 582.745 98.1904 586.755 Q93.1933 590.766 84.9497 590.766 Q76.6743 590.766 71.6772 586.755 Q66.6801 582.745 66.6801 576.188 Q66.6801 572.241 68.2397 569.409 Q69.7993 566.576 72.9503 564.762 L67.5395 564.762 L67.5395 558.905 L98.7633 558.905 Z" fill="#000000" fill-rule="evenodd" fill-opacity="1" /><path clip-path="url(#clip980)" d="M81.6714 517.21 L103.187 517.21 L103.187 523.066 L81.8623 523.066 Q76.8016 523.066 74.2871 525.04 Q71.7727 527.013 71.7727 530.96 Q71.7727 535.702 74.7964 538.44 Q77.8201 541.177 83.04 541.177 L103.187 541.177 L103.187 547.065 L53.6623 547.065 L53.6623 541.177 L73.0777 541.177 Q69.863 539.076 68.2716 536.243 Q66.6801 533.379 66.6801 529.655 Q66.6801 523.512 70.4996 520.361 Q74.2871 517.21 81.6714 517.21 Z" fill="#000000" fill-rule="evenodd" fill-opacity="1" /><path clip-path="url(#clip980)" d="M57.418 499.736 L67.5395 499.736 L67.5395 487.673 L72.091 487.673 L72.091 499.736 L91.4427 499.736 Q95.8032 499.736 97.0445 498.558 Q98.2859 497.349 98.2859 493.689 L98.2859 487.673 L103.187 487.673 L103.187 493.689 Q103.187 500.468 100.673 503.046 Q98.1267 505.624 91.4427 505.624 L72.091 505.624 L72.091 509.921 L67.5395 509.921 L67.5395 505.624 L57.418 505.624 L57.418 499.736 Z" fill="#000000" fill-rule="evenodd" fill-opacity="1" /><path clip-path="url(#clip980)" d="M53.6623 459.791 L53.6623 446.296 L58.2137 446.296 L58.2137 453.935 L107.23 453.935 L107.23 446.296 L111.781 446.296 L111.781 459.791 L53.6623 459.791 Z" fill="#000000" fill-rule="evenodd" fill-opacity="1" /><path clip-path="url(#clip980)" d="M116.746 434.424 L67.5395 434.424 L67.5395 428.567 L89.6922 428.567 Q94.3073 428.567 96.6626 426.371 Q99.0179 424.175 99.0179 419.878 Q99.0179 415.168 96.3443 412.812 Q93.6707 410.425 88.3235 410.425 L67.5395 410.425 L67.5395 404.569 L94.9757 404.569 Q96.8854 404.569 97.8084 404.028 Q98.6996 403.455 98.6996 402.277 Q98.6996 401.991 98.5405 401.481 Q98.3495 400.972 97.9676 400.081 L102.678 400.081 Q103.41 401.386 103.76 402.564 Q104.11 403.709 104.11 404.823 Q104.11 407.02 102.869 408.324 Q101.628 409.629 99.0816 410.107 Q101.596 411.698 102.869 414.022 Q104.11 416.313 104.11 419.433 Q104.11 422.679 102.869 424.971 Q101.628 427.231 99.1452 428.567 L116.746 428.567 L116.746 434.424 Z" fill="#000000" fill-rule="evenodd" fill-opacity="1" /><path clip-path="url(#clip980)" d="M74.3826 364.592 Q70.4359 362.396 68.558 359.34 Q66.6801 356.285 66.6801 352.147 Q66.6801 346.577 70.595 343.553 Q74.4781 340.53 81.6714 340.53 L103.187 340.53 L103.187 346.418 L81.8623 346.418 Q76.7379 346.418 74.2553 348.232 Q71.7727 350.046 71.7727 353.77 Q71.7727 358.322 74.7964 360.964 Q77.8201 363.605 83.04 363.605 L103.187 363.605 L103.187 369.494 L81.8623 369.494 Q76.7061 369.494 74.2553 371.308 Q71.7727 373.122 71.7727 376.91 Q71.7727 381.398 74.8282 384.039 Q77.8519 386.681 83.04 386.681 L103.187 386.681 L103.187 392.569 L67.5395 392.569 L67.5395 386.681 L73.0777 386.681 Q69.7993 384.676 68.2397 381.875 Q66.6801 379.074 66.6801 375.223 Q66.6801 371.34 68.6535 368.634 Q70.6269 365.897 74.3826 364.592 Z" fill="#000000" fill-rule="evenodd" fill-opacity="1" /><path clip-path="url(#clip980)" d="M53.6623 315.162 L111.781 315.162 L111.781 328.658 L107.23 328.658 L107.23 321.051 L58.2137 321.051 L58.2137 328.658 L53.6623 328.658 L53.6623 315.162 Z" fill="#000000" fill-rule="evenodd" fill-opacity="1" /><path clip-path="url(#clip982)" d="
M522.863 1037.24 L525.261 1035.49 L527.493 1033.74 L529.546 1031.99 L531.408 1030.23 L533.068 1028.48 L534.516 1026.73 L535.743 1024.98 L536.742 1023.23 L537.506 1021.48 
  L538.032 1019.73 L538.315 1017.98 L538.354 1016.23 L538.149 1014.48 L537.7 1012.73 L537.012 1010.98 L536.087 1009.23 L534.932 1007.48 L533.554 1005.73 L531.961 1003.98 
  L530.162 1002.23 L528.169 1000.47 L525.993 998.724 L523.647 996.974 L521.144 995.223 L518.498 993.473 L322.355 993.473 L319.709 995.223 L317.206 996.974 L314.86 998.724 
  L312.684 1000.47 L310.691 1002.23 L308.893 1003.98 L307.299 1005.73 L305.921 1007.48 L304.766 1009.23 L303.842 1010.98 L303.153 1012.73 L302.705 1014.48 L302.499 1016.23 
  L302.538 1017.98 L302.821 1019.73 L303.347 1021.48 L304.111 1023.23 L305.11 1024.98 L306.337 1026.73 L307.785 1028.48 L309.445 1030.23 L311.307 1031.99 L313.36 1033.74 
  L315.592 1035.49 L317.99 1037.24 L522.863 1037.24  Z
  " fill="#000000" fill-rule="evenodd" fill-opacity="0.2"/>
<polyline clip-path="url(#clip982)" style="stroke:#000000; stroke-linecap:butt; stroke-linejoin:round; stroke-width:4; stroke-opacity:1; fill:none" points="
  522.863,1037.24 525.261,1035.49 527.493,1033.74 529.546,1031.99 531.408,1030.23 533.068,1028.48 534.516,1026.73 535.743,1024.98 536.742,1023.23 537.506,1021.48 
  538.032,1019.73 538.315,1017.98 538.354,1016.23 538.149,1014.48 537.7,1012.73 537.012,1010.98 536.087,1009.23 534.932,1007.48 533.554,1005.73 531.961,1003.98 
  530.162,1002.23 528.169,1000.47 525.993,998.724 523.647,996.974 521.144,995.223 518.498,993.473 322.355,993.473 319.709,995.223 317.206,996.974 314.86,998.724 
  312.684,1000.47 310.691,1002.23 308.893,1003.98 307.299,1005.73 305.921,1007.48 304.766,1009.23 303.842,1010.98 303.153,1012.73 302.705,1014.48 302.499,1016.23 
  302.538,1017.98 302.821,1019.73 303.347,1021.48 304.111,1023.23 305.11,1024.98 306.337,1026.73 307.785,1028.48 309.445,1030.23 311.307,1031.99 313.36,1033.74 
  315.592,1035.49 317.99,1037.24 522.863,1037.24 
  "/>
<path clip-path="url(#clip982)" d="
M730.587 861.417 L733.409 856.21 L736.537 851.003 L739.959 845.796 L743.651 840.589 L747.578 835.382 L751.695 830.174 L755.947 824.967 L760.269 819.76 L764.593 814.553 
  L768.845 809.346 L772.953 804.139 L776.851 798.932 L780.478 793.725 L783.789 788.517 L786.752 783.31 L789.352 778.103 L791.595 772.896 L793.503 767.689 L795.115 762.482 
  L796.487 757.275 L797.68 752.068 L798.765 746.86 L799.812 741.653 L800.888 736.446 L802.052 731.239 L803.352 726.032 L804.821 720.825 L806.478 715.618 L808.327 710.411 
  L810.354 705.204 L812.536 699.996 L814.836 694.789 L817.206 689.582 L819.595 684.375 L821.947 679.168 L824.203 673.961 L826.307 668.754 L828.206 663.547 L829.851 658.339 
  L831.2 653.132 L832.219 647.925 L832.883 642.718 L833.173 637.511 L833.079 632.304 L832.6 627.097 L831.74 621.89 L830.51 616.683 L828.927 611.475 L827.01 606.268 
  L824.784 601.061 L822.277 595.854 L819.517 590.647 L816.539 585.44 L813.375 580.233 L810.063 575.026 L806.639 569.818 L803.138 564.611 L799.596 559.404 L796.045 554.197 
  L792.515 548.99 L789.031 543.783 L785.613 538.576 L782.276 533.369 L779.029 528.161 L775.878 522.954 L772.823 517.747 L769.86 512.54 L766.987 507.333 L764.197 502.126 
  L761.487 496.919 L758.853 491.712 L756.295 486.505 L753.816 481.297 L751.42 476.09 L749.115 470.883 L746.91 465.676 L744.818 460.469 L742.848 455.262 L741.011 450.055 
  L739.315 444.848 L737.767 439.64 L736.368 434.433 L735.116 429.226 L734.005 424.019 L733.026 418.812 L732.164 413.605 L731.405 408.398 L730.731 403.191 L730.123 397.983 
  L729.565 392.776 L729.042 387.569 L728.541 382.362 L728.055 377.155 L727.577 371.948 L727.109 366.741 L726.653 361.534 L726.215 356.327 L725.802 351.119 L725.424 345.912 
  L725.088 340.705 L724.802 335.498 L724.571 330.291 L724.397 325.084 L724.28 319.877 L724.216 314.67 L724.199 309.462 L724.221 304.255 L724.272 299.048 L724.342 293.841 
  L724.421 288.634 L724.499 283.427 L724.568 278.22 L724.622 273.013 L724.659 267.806 L724.675 262.598 L724.673 257.391 L724.654 252.184 L724.624 246.977 L724.587 241.77 
  L724.548 236.563 L724.512 231.356 L724.48 226.149 L724.454 220.941 L724.433 215.734 L724.414 210.527 L724.39 205.32 L724.355 200.113 L724.3 194.906 L724.217 189.699 
  L724.098 184.492 L723.935 179.284 L723.722 174.077 L723.456 168.87 L723.136 163.663 L722.764 158.456 L722.344 153.249 L721.882 148.042 L721.386 142.835 L720.866 137.628 
  L709.624 137.628 L709.105 142.835 L708.609 148.042 L708.146 153.249 L707.726 158.456 L707.354 163.663 L707.034 168.87 L706.769 174.077 L706.556 179.284 L706.392 184.492 
  L706.273 189.699 L706.19 194.906 L706.136 200.113 L706.101 205.32 L706.077 210.527 L706.057 215.734 L706.036 220.941 L706.011 226.149 L705.979 231.356 L705.942 236.563 
  L705.903 241.77 L705.866 246.977 L705.836 252.184 L705.818 257.391 L705.815 262.598 L705.832 267.806 L705.868 273.013 L705.923 278.22 L705.992 283.427 L706.07 288.634 
  L706.148 293.841 L706.219 299.048 L706.27 304.255 L706.292 309.462 L706.275 314.67 L706.211 319.877 L706.093 325.084 L705.919 330.291 L705.688 335.498 L705.402 340.705 
  L705.066 345.912 L704.688 351.119 L704.275 356.327 L703.837 361.534 L703.381 366.741 L702.913 371.948 L702.436 377.155 L701.949 382.362 L701.448 387.569 L700.925 392.776 
  L700.367 397.983 L699.759 403.191 L699.085 408.398 L698.326 413.605 L697.465 418.812 L696.486 424.019 L695.375 429.226 L694.123 434.433 L692.724 439.64 L691.175 444.848 
  L689.48 450.055 L687.643 455.262 L685.673 460.469 L683.58 465.676 L681.376 470.883 L679.071 476.09 L676.675 481.297 L674.195 486.505 L671.637 491.712 L669.004 496.919 
  L666.293 502.126 L663.504 507.333 L660.63 512.54 L657.668 517.747 L654.612 522.954 L651.461 528.161 L648.214 533.369 L644.877 538.576 L641.459 543.783 L637.975 548.99 
  L634.446 554.197 L630.895 559.404 L627.353 564.611 L623.852 569.818 L620.427 575.026 L617.115 580.233 L613.952 585.44 L610.973 590.647 L608.214 595.854 L605.706 601.061 
  L603.48 606.268 L601.563 611.475 L599.98 616.683 L598.75 621.89 L597.891 627.097 L597.411 632.304 L597.318 637.511 L597.608 642.718 L598.271 647.925 L599.29 653.132 
  L600.64 658.339 L602.284 663.547 L604.183 668.754 L606.287 673.961 L608.543 679.168 L610.895 684.375 L613.284 689.582 L615.655 694.789 L617.954 699.996 L620.136 705.204 
  L622.164 710.411 L624.012 715.618 L625.669 720.825 L627.138 726.032 L628.438 731.239 L629.602 736.446 L630.678 741.653 L631.725 746.86 L632.81 752.068 L634.004 757.275 
  L635.375 762.482 L636.988 767.689 L638.896 772.896 L641.138 778.103 L643.739 783.31 L646.701 788.517 L650.012 793.725 L653.64 798.932 L657.537 804.139 L661.646 809.346 
  L665.898 814.553 L670.221 819.76 L674.544 824.967 L678.795 830.174 L682.912 835.382 L686.839 840.589 L690.531 845.796 L693.953 851.003 L697.082 856.21 L699.904 861.417 
  L730.587 861.417  Z
  " fill="#000000" fill-rule="evenodd" fill-opacity="0.2"/>
<polyline clip-path="url(#clip982)" style="stroke:#000000; stroke-linecap:butt; stroke-linejoin:round; stroke-width:4; stroke-opacity:1; fill:none" points="
  730.587,861.417 733.409,856.21 736.537,851.003 739.959,845.796 743.651,840.589 747.578,835.382 751.695,830.174 755.947,824.967 760.269,819.76 764.593,814.553 
  768.845,809.346 772.953,804.139 776.851,798.932 780.478,793.725 783.789,788.517 786.752,783.31 789.352,778.103 791.595,772.896 793.503,767.689 795.115,762.482 
  796.487,757.275 797.68,752.068 798.765,746.86 799.812,741.653 800.888,736.446 802.052,731.239 803.352,726.032 804.821,720.825 806.478,715.618 808.327,710.411 
  810.354,705.204 812.536,699.996 814.836,694.789 817.206,689.582 819.595,684.375 821.947,679.168 824.203,673.961 826.307,668.754 828.206,663.547 829.851,658.339 
  831.2,653.132 832.219,647.925 832.883,642.718 833.173,637.511 833.079,632.304 832.6,627.097 831.74,621.89 830.51,616.683 828.927,611.475 827.01,606.268 
  824.784,601.061 822.277,595.854 819.517,590.647 816.539,585.44 813.375,580.233 810.063,575.026 806.639,569.818 803.138,564.611 799.596,559.404 796.045,554.197 
  792.515,548.99 789.031,543.783 785.613,538.576 782.276,533.369 779.029,528.161 775.878,522.954 772.823,517.747 769.86,512.54 766.987,507.333 764.197,502.126 
  761.487,496.919 758.853,491.712 756.295,486.505 753.816,481.297 751.42,476.09 749.115,470.883 746.91,465.676 744.818,460.469 742.848,455.262 741.011,450.055 
  739.315,444.848 737.767,439.64 736.368,434.433 735.116,429.226 734.005,424.019 733.026,418.812 732.164,413.605 731.405,408.398 730.731,403.191 730.123,397.983 
  729.565,392.776 729.042,387.569 728.541,382.362 728.055,377.155 727.577,371.948 727.109,366.741 726.653,361.534 726.215,356.327 725.802,351.119 725.424,345.912 
  725.088,340.705 724.802,335.498 724.571,330.291 724.397,325.084 724.28,319.877 724.216,314.67 724.199,309.462 724.221,304.255 724.272,299.048 724.342,293.841 
  724.421,288.634 724.499,283.427 724.568,278.22 724.622,273.013 724.659,267.806 724.675,262.598 724.673,257.391 724.654,252.184 724.624,246.977 724.587,241.77 
  724.548,236.563 724.512,231.356 724.48,226.149 724.454,220.941 724.433,215.734 724.414,210.527 724.39,205.32 724.355,200.113 724.3,194.906 724.217,189.699 
  724.098,184.492 723.935,179.284 723.722,174.077 723.456,168.87 723.136,163.663 722.764,158.456 722.344,153.249 721.882,148.042 721.386,142.835 720.866,137.628 
  709.624,137.628 709.105,142.835 708.609,148.042 708.146,153.249 707.726,158.456 707.354,163.663 707.034,168.87 706.769,174.077 706.556,179.284 706.392,184.492 
  706.273,189.699 706.19,194.906 706.136,200.113 706.101,205.32 706.077,210.527 706.057,215.734 706.036,220.941 706.011,226.149 705.979,231.356 705.942,236.563 
  705.903,241.77 705.866,246.977 705.836,252.184 705.818,257.391 705.815,262.598 705.832,267.806 705.868,273.013 705.923,278.22 705.992,283.427 706.07,288.634 
  706.148,293.841 706.219,299.048 706.27,304.255 706.292,309.462 706.275,314.67 706.211,319.877 706.093,325.084 705.919,330.291 705.688,335.498 705.402,340.705 
  705.066,345.912 704.688,351.119 704.275,356.327 703.837,361.534 703.381,366.741 702.913,371.948 702.436,377.155 701.949,382.362 701.448,387.569 700.925,392.776 
  700.367,397.983 699.759,403.191 699.085,408.398 698.326,413.605 697.465,418.812 696.486,424.019 695.375,429.226 694.123,434.433 692.724,439.64 691.175,444.848 
  689.48,450.055 687.643,455.262 685.673,460.469 683.58,465.676 681.376,470.883 679.071,476.09 676.675,481.297 674.195,486.505 671.637,491.712 669.004,496.919 
  666.293,502.126 663.504,507.333 660.63,512.54 657.668,517.747 654.612,522.954 651.461,528.161 648.214,533.369 644.877,538.576 641.459,543.783 637.975,548.99 
  634.446,554.197 630.895,559.404 627.353,564.611 623.852,569.818 620.427,575.026 617.115,580.233 613.952,585.44 610.973,590.647 608.214,595.854 605.706,601.061 
  603.48,606.268 601.563,611.475 599.98,616.683 598.75,621.89 597.891,627.097 597.411,632.304 597.318,637.511 597.608,642.718 598.271,647.925 599.29,653.132 
  600.64,658.339 602.284,663.547 604.183,668.754 606.287,673.961 608.543,679.168 610.895,684.375 613.284,689.582 615.655,694.789 617.954,699.996 620.136,705.204 
  622.164,710.411 624.012,715.618 625.669,720.825 627.138,726.032 628.438,731.239 629.602,736.446 630.678,741.653 631.725,746.86 632.81,752.068 634.004,757.275 
  635.375,762.482 636.988,767.689 638.896,772.896 641.138,778.103 643.739,783.31 646.701,788.517 650.012,793.725 653.64,798.932 657.537,804.139 661.646,809.346 
  665.898,814.553 670.221,819.76 674.544,824.967 678.795,830.174 682.912,835.382 686.839,840.589 690.531,845.796 693.953,851.003 697.082,856.21 699.904,861.417 
  730.587,861.417 
  "/>
<path clip-path="url(#clip982)" d="
M1034.24 1147.54 L1037.15 1144.26 L1040.28 1140.97 L1043.6 1137.68 L1047.13 1134.4 L1050.84 1131.11 L1054.73 1127.82 L1058.77 1124.53 L1062.94 1121.25 L1067.22 1117.96 
  L1071.59 1114.67 L1076.01 1111.39 L1080.44 1108.1 L1084.87 1104.81 L1089.24 1101.53 L1093.54 1098.24 L1097.71 1094.95 L1101.73 1091.67 L1105.56 1088.38 L1109.17 1085.09 
  L1112.52 1081.81 L1115.6 1078.52 L1118.37 1075.23 L1120.81 1071.95 L1122.91 1068.66 L1124.66 1065.37 L1126.04 1062.09 L1127.06 1058.8 L1127.71 1055.51 L1127.99 1052.23 
  L1127.92 1048.94 L1127.51 1045.65 L1126.77 1042.37 L1125.73 1039.08 L1124.39 1035.79 L1122.79 1032.51 L1120.95 1029.22 L1118.89 1025.93 L1116.65 1022.65 L1114.23 1019.36 
  L1111.67 1016.07 L1109 1012.79 L1106.23 1009.5 L1103.38 1006.21 L1100.48 1002.93 L1097.53 999.639 L1094.57 996.352 L1091.6 993.065 L1088.63 989.779 L1085.68 986.492 
  L1082.75 983.205 L1079.86 979.918 L1077.01 976.632 L1074.21 973.345 L1071.47 970.058 L1068.78 966.771 L1066.16 963.485 L1063.61 960.198 L1061.14 956.911 L1058.74 953.624 
  L1056.42 950.338 L1054.19 947.051 L1052.05 943.764 L1049.99 940.477 L1048.03 937.191 L1046.16 933.904 L1044.39 930.617 L1042.7 927.33 L1041.11 924.044 L1039.62 920.757 
  L1038.21 917.47 L1036.9 914.184 L1035.66 910.897 L1034.51 907.61 L1033.44 904.323 L1032.44 901.037 L1031.51 897.75 L1030.64 894.463 L1029.84 891.176 L1029.08 887.89 
  L1028.37 884.603 L1027.71 881.316 L1027.09 878.029 L1026.49 874.743 L1025.93 871.456 L1025.39 868.169 L1024.87 864.882 L1024.36 861.596 L1023.87 858.309 L1023.39 855.022 
  L1022.91 851.735 L1022.44 848.449 L1021.96 845.162 L1021.49 841.875 L1021.02 838.588 L1020.54 835.302 L1020.06 832.015 L1019.57 828.728 L1019.09 825.441 L1018.6 822.155 
  L1018.11 818.868 L1017.62 815.581 L1017.14 812.295 L1016.66 809.008 L1016.18 805.721 L1015.72 802.434 L1004.41 802.434 L1003.94 805.721 L1003.47 809.008 L1002.99 812.295 
  L1002.51 815.581 L1002.02 818.868 L1001.53 822.155 L1001.04 825.441 L1000.55 828.728 L1000.07 832.015 L999.589 835.302 L999.111 838.588 L998.636 841.875 L998.163 845.162 
  L997.69 848.449 L997.216 851.735 L996.738 855.022 L996.255 858.309 L995.763 861.596 L995.258 864.882 L994.738 868.169 L994.198 871.456 L993.634 874.743 L993.042 878.029 
  L992.416 881.316 L991.753 884.603 L991.046 887.89 L990.291 891.176 L989.483 894.463 L988.616 897.75 L987.686 901.037 L986.687 904.323 L985.614 907.61 L984.464 910.897 
  L983.232 914.184 L981.914 917.47 L980.509 920.757 L979.013 924.044 L977.424 927.33 L975.742 930.617 L973.966 933.904 L972.097 937.191 L970.134 940.477 L968.08 943.764 
  L965.935 947.051 L963.704 950.338 L961.388 953.624 L958.99 956.911 L956.515 960.198 L953.965 963.485 L951.346 966.771 L948.661 970.058 L945.916 973.345 L943.115 976.632 
  L940.266 979.918 L937.375 983.205 L934.449 986.492 L931.497 989.779 L928.53 993.065 L925.557 996.352 L922.593 999.639 L919.651 1002.93 L916.748 1006.21 L913.901 1009.5 
  L911.129 1012.79 L908.453 1016.07 L905.896 1019.36 L903.481 1022.65 L901.233 1025.93 L899.176 1029.22 L897.336 1032.51 L895.736 1035.79 L894.402 1039.08 L893.356 1042.37 
  L892.617 1045.65 L892.206 1048.94 L892.136 1052.23 L892.421 1055.51 L893.069 1058.8 L894.084 1062.09 L895.467 1065.37 L897.214 1068.66 L899.316 1071.95 L901.761 1075.23 
  L904.531 1078.52 L907.606 1081.81 L910.961 1085.09 L914.568 1088.38 L918.398 1091.67 L922.417 1094.95 L926.59 1098.24 L930.883 1101.53 L935.26 1104.81 L939.684 1108.1 
  L944.122 1111.39 L948.539 1114.67 L952.904 1117.96 L957.186 1121.25 L961.36 1124.53 L965.399 1127.82 L969.285 1131.11 L972.998 1134.4 L976.524 1137.68 L979.852 1140.97 
  L982.974 1144.26 L985.885 1147.54 L1034.24 1147.54  Z
  " fill="#000000" fill-rule="evenodd" fill-opacity="0.2"/>
<polyline clip-path="url(#clip982)" style="stroke:#000000; stroke-linecap:butt; stroke-linejoin:round; stroke-width:4; stroke-opacity:1; fill:none" points="
  1034.24,1147.54 1037.15,1144.26 1040.28,1140.97 1043.6,1137.68 1047.13,1134.4 1050.84,1131.11 1054.73,1127.82 1058.77,1124.53 1062.94,1121.25 1067.22,1117.96 
  1071.59,1114.67 1076.01,1111.39 1080.44,1108.1 1084.87,1104.81 1089.24,1101.53 1093.54,1098.24 1097.71,1094.95 1101.73,1091.67 1105.56,1088.38 1109.17,1085.09 
  1112.52,1081.81 1115.6,1078.52 1118.37,1075.23 1120.81,1071.95 1122.91,1068.66 1124.66,1065.37 1126.04,1062.09 1127.06,1058.8 1127.71,1055.51 1127.99,1052.23 
  1127.92,1048.94 1127.51,1045.65 1126.77,1042.37 1125.73,1039.08 1124.39,1035.79 1122.79,1032.51 1120.95,1029.22 1118.89,1025.93 1116.65,1022.65 1114.23,1019.36 
  1111.67,1016.07 1109,1012.79 1106.23,1009.5 1103.38,1006.21 1100.48,1002.93 1097.53,999.639 1094.57,996.352 1091.6,993.065 1088.63,989.779 1085.68,986.492 
  1082.75,983.205 1079.86,979.918 1077.01,976.632 1074.21,973.345 1071.47,970.058 1068.78,966.771 1066.16,963.485 1063.61,960.198 1061.14,956.911 1058.74,953.624 
  1056.42,950.338 1054.19,947.051 1052.05,943.764 1049.99,940.477 1048.03,937.191 1046.16,933.904 1044.39,930.617 1042.7,927.33 1041.11,924.044 1039.62,920.757 
  1038.21,917.47 1036.9,914.184 1035.66,910.897 1034.51,907.61 1033.44,904.323 1032.44,901.037 1031.51,897.75 1030.64,894.463 1029.84,891.176 1029.08,887.89 
  1028.37,884.603 1027.71,881.316 1027.09,878.029 1026.49,874.743 1025.93,871.456 1025.39,868.169 1024.87,864.882 1024.36,861.596 1023.87,858.309 1023.39,855.022 
  1022.91,851.735 1022.44,848.449 1021.96,845.162 1021.49,841.875 1021.02,838.588 1020.54,835.302 1020.06,832.015 1019.57,828.728 1019.09,825.441 1018.6,822.155 
  1018.11,818.868 1017.62,815.581 1017.14,812.295 1016.66,809.008 1016.18,805.721 1015.72,802.434 1004.41,802.434 1003.94,805.721 1003.47,809.008 1002.99,812.295 
  1002.51,815.581 1002.02,818.868 1001.53,822.155 1001.04,825.441 1000.55,828.728 1000.07,832.015 999.589,835.302 999.111,838.588 998.636,841.875 998.163,845.162 
  997.69,848.449 997.216,851.735 996.738,855.022 996.255,858.309 995.763,861.596 995.258,864.882 994.738,868.169 994.198,871.456 993.634,874.743 993.042,878.029 
  992.416,881.316 991.753,884.603 991.046,887.89 990.291,891.176 989.483,894.463 988.616,897.75 987.686,901.037 986.687,904.323 985.614,907.61 984.464,910.897 
  983.232,914.184 981.914,917.47 980.509,920.757 979.013,924.044 977.424,927.33 975.742,930.617 973.966,933.904 972.097,937.191 970.134,940.477 968.08,943.764 
  965.935,947.051 963.704,950.338 961.388,953.624 958.99,956.911 956.515,960.198 953.965,963.485 951.346,966.771 948.661,970.058 945.916,973.345 943.115,976.632 
  940.266,979.918 937.375,983.205 934.449,986.492 931.497,989.779 928.53,993.065 925.557,996.352 922.593,999.639 919.651,1002.93 916.748,1006.21 913.901,1009.5 
  911.129,1012.79 908.453,1016.07 905.896,1019.36 903.481,1022.65 901.233,1025.93 899.176,1029.22 897.336,1032.51 895.736,1035.79 894.402,1039.08 893.356,1042.37 
  892.617,1045.65 892.206,1048.94 892.136,1052.23 892.421,1055.51 893.069,1058.8 894.084,1062.09 895.467,1065.37 897.214,1068.66 899.316,1071.95 901.761,1075.23 
  904.531,1078.52 907.606,1081.81 910.961,1085.09 914.568,1088.38 918.398,1091.67 922.417,1094.95 926.59,1098.24 930.883,1101.53 935.26,1104.81 939.684,1108.1 
  944.122,1111.39 948.539,1114.67 952.904,1117.96 957.186,1121.25 961.36,1124.53 965.399,1127.82 969.285,1131.11 972.998,1134.4 976.524,1137.68 979.852,1140.97 
  982.974,1144.26 985.885,1147.54 1034.24,1147.54 
  "/>
<circle clip-path="url(#clip982)" cx="420.427" cy="1016.64" r="18" fill="#000000" fill-rule="evenodd" fill-opacity="1" stroke="none"/>
<circle clip-path="url(#clip982)" cx="715.245" cy="707.777" r="18" fill="#000000" fill-rule="evenodd" fill-opacity="1" stroke="none"/>
<circle clip-path="url(#clip982)" cx="1010.06" cy="1030.27" r="18" fill="#000000" fill-rule="evenodd" fill-opacity="1" stroke="none"/>
<path clip-path="url(#clip982)" d="M420.427 1018.46 L400.427 1058.46 L440.427 1058.46 L420.427 1018.46 Z" fill="#e69f00" fill-rule="evenodd" fill-opacity="1" stroke="#000000" stroke-opacity="1" stroke-width="2.4"/>
<path clip-path="url(#clip982)" d="M715.245 237.423 L695.245 277.423 L735.245 277.423 L715.245 237.423 Z" fill="#e69f00" fill-rule="evenodd" fill-opacity="1" stroke="#000000" stroke-opacity="1" stroke-width="2.4"/>
<path clip-path="url(#clip982)" d="M1010.06 873.731 L990.064 913.731 L1030.06 913.731 L1010.06 873.731 Z" fill="#e69f00" fill-rule="evenodd" fill-opacity="1" stroke="#000000" stroke-opacity="1" stroke-width="2.4"/>
<path clip-path="url(#clip980)" d="
M802.569 296.273 L1123.59 296.273 L1123.59 88.9131 L802.569 88.9131  Z
  " fill="#ffffff" fill-rule="evenodd" fill-opacity="1"/>
<polyline clip-path="url(#clip980)" style="stroke:#000000; stroke-linecap:butt; stroke-linejoin:round; stroke-width:4; stroke-opacity:1; fill:none" points="
  802.569,296.273 1123.59,296.273 1123.59,88.9131 802.569,88.9131 802.569,296.273 
  "/>
<path clip-path="url(#clip980)" d="
M812.291 161.489 L870.626 161.489 L870.626 120.017 L812.291 120.017 L812.291 161.489  Z
  " fill="#000000" fill-rule="evenodd" fill-opacity="0.2"/>
<polyline clip-path="url(#clip980)" style="stroke:#000000; stroke-linecap:butt; stroke-linejoin:round; stroke-width:4; stroke-opacity:1; fill:none" points="
  812.291,161.489 870.626,161.489 870.626,120.017 812.291,120.017 812.291,161.489 
  "/>
<path clip-path="url(#clip980)" d="M885.024 141.529 L885.024 154.19 L892.524 154.19 Q896.297 154.19 898.103 152.64 Q899.932 151.065 899.932 147.848 Q899.932 144.607 898.103 143.079 Q896.297 141.529 892.524 141.529 L885.024 141.529 M885.024 127.316 L885.024 137.732 L891.946 137.732 Q895.372 137.732 897.038 136.459 Q898.728 135.163 898.728 132.524 Q898.728 129.908 897.038 128.612 Q895.372 127.316 891.946 127.316 L885.024 127.316 M880.349 123.473 L892.293 123.473 Q897.64 123.473 900.534 125.695 Q903.427 127.917 903.427 132.015 Q903.427 135.186 901.946 137.061 Q900.464 138.936 897.594 139.399 Q901.043 140.14 902.941 142.501 Q904.862 144.839 904.862 148.357 Q904.862 152.987 901.714 155.51 Q898.566 158.033 892.756 158.033 L880.349 158.033 L880.349 123.473 Z" fill="#000000" fill-rule="evenodd" fill-opacity="1" /><path clip-path="url(#clip980)" d="M922.733 135.093 Q919.307 135.093 917.316 137.779 Q915.325 140.441 915.325 145.093 Q915.325 149.746 917.293 152.431 Q919.283 155.093 922.733 155.093 Q926.135 155.093 928.126 152.408 Q930.117 149.723 930.117 145.093 Q930.117 140.487 928.126 137.802 Q926.135 135.093 922.733 135.093 M922.733 131.482 Q928.288 131.482 931.459 135.093 Q934.631 138.704 934.631 145.093 Q934.631 151.459 931.459 155.093 Q928.288 158.704 922.733 158.704 Q917.154 158.704 913.983 155.093 Q910.834 151.459 910.834 145.093 Q910.834 138.704 913.983 135.093 Q917.154 131.482 922.733 131.482 Z" fill="#000000" fill-rule="evenodd" fill-opacity="1" /><path clip-path="url(#clip980)" d="M951.737 135.093 Q948.311 135.093 946.32 137.779 Q944.33 140.441 944.33 145.093 Q944.33 149.746 946.297 152.431 Q948.288 155.093 951.737 155.093 Q955.14 155.093 957.131 152.408 Q959.121 149.723 959.121 145.093 Q959.121 140.487 957.131 137.802 Q955.14 135.093 951.737 135.093 M951.737 131.482 Q957.293 131.482 960.464 135.093 Q963.635 138.704 963.635 145.093 Q963.635 151.459 960.464 155.093 Q957.293 158.704 951.737 158.704 Q946.158 158.704 942.987 155.093 Q939.839 151.459 939.839 145.093 Q939.839 138.704 942.987 135.093 Q946.158 131.482 951.737 131.482 Z" fill="#000000" fill-rule="evenodd" fill-opacity="1" /><path clip-path="url(#clip980)" d="M974.908 124.746 L974.908 132.107 L983.681 132.107 L983.681 135.417 L974.908 135.417 L974.908 149.491 Q974.908 152.663 975.765 153.565 Q976.644 154.468 979.306 154.468 L983.681 154.468 L983.681 158.033 L979.306 158.033 Q974.376 158.033 972.501 156.204 Q970.626 154.353 970.626 149.491 L970.626 135.417 L967.501 135.417 L967.501 132.107 L970.626 132.107 L970.626 124.746 L974.908 124.746 Z" fill="#000000" fill-rule="evenodd" fill-opacity="1" /><path clip-path="url(#clip980)" d="M1005.81 132.871 L1005.81 136.899 Q1004.01 135.973 1002.06 135.51 Q1000.12 135.047 998.033 135.047 Q994.862 135.047 993.265 136.019 Q991.691 136.992 991.691 138.936 Q991.691 140.417 992.825 141.274 Q993.959 142.107 997.385 142.871 L998.843 143.195 Q1003.38 144.167 1005.28 145.95 Q1007.2 147.709 1007.2 150.88 Q1007.2 154.491 1004.33 156.598 Q1001.48 158.704 996.482 158.704 Q994.399 158.704 992.13 158.288 Q989.885 157.894 987.385 157.084 L987.385 152.686 Q989.746 153.913 992.038 154.538 Q994.329 155.14 996.575 155.14 Q999.584 155.14 1001.2 154.121 Q1002.82 153.079 1002.82 151.204 Q1002.82 149.468 1001.64 148.542 Q1000.49 147.616 996.528 146.76 L995.047 146.413 Q991.089 145.579 989.329 143.866 Q987.57 142.13 987.57 139.121 Q987.57 135.464 990.163 133.473 Q992.755 131.482 997.524 131.482 Q999.885 131.482 1001.97 131.829 Q1004.05 132.177 1005.81 132.871 Z" fill="#000000" fill-rule="evenodd" fill-opacity="1" /><path clip-path="url(#clip980)" d="M1018.19 124.746 L1018.19 132.107 L1026.97 132.107 L1026.97 135.417 L1018.19 135.417 L1018.19 149.491 Q1018.19 152.663 1019.05 153.565 Q1019.93 154.468 1022.59 154.468 L1026.97 154.468 L1026.97 158.033 L1022.59 158.033 Q1017.66 158.033 1015.79 156.204 Q1013.91 154.353 1013.91 149.491 L1013.91 135.417 L1010.79 135.417 L1010.79 132.107 L1013.91 132.107 L1013.91 124.746 L1018.19 124.746 Z" fill="#000000" fill-rule="evenodd" fill-opacity="1" /><path clip-path="url(#clip980)" d="M1047.59 136.089 Q1046.88 135.672 1046.02 135.487 Q1045.19 135.279 1044.17 135.279 Q1040.56 135.279 1038.61 137.64 Q1036.69 139.978 1036.69 144.376 L1036.69 158.033 L1032.41 158.033 L1032.41 132.107 L1036.69 132.107 L1036.69 136.135 Q1038.03 133.774 1040.19 132.64 Q1042.34 131.482 1045.42 131.482 Q1045.86 131.482 1046.39 131.552 Q1046.92 131.598 1047.57 131.714 L1047.59 136.089 Z" fill="#000000" fill-rule="evenodd" fill-opacity="1" /><path clip-path="url(#clip980)" d="M1063.84 145.001 Q1058.68 145.001 1056.69 146.181 Q1054.7 147.362 1054.7 150.209 Q1054.7 152.478 1056.18 153.82 Q1057.69 155.14 1060.25 155.14 Q1063.8 155.14 1065.93 152.64 Q1068.08 150.116 1068.08 145.95 L1068.08 145.001 L1063.84 145.001 M1072.34 143.241 L1072.34 158.033 L1068.08 158.033 L1068.08 154.098 Q1066.62 156.459 1064.44 157.593 Q1062.27 158.704 1059.12 158.704 Q1055.14 158.704 1052.78 156.482 Q1050.44 154.237 1050.44 150.487 Q1050.44 146.112 1053.36 143.89 Q1056.3 141.667 1062.11 141.667 L1068.08 141.667 L1068.08 141.251 Q1068.08 138.311 1066.13 136.714 Q1064.21 135.093 1060.72 135.093 Q1058.5 135.093 1056.39 135.626 Q1054.28 136.158 1052.34 137.223 L1052.34 133.288 Q1054.68 132.385 1056.88 131.945 Q1059.07 131.482 1061.16 131.482 Q1066.78 131.482 1069.56 134.399 Q1072.34 137.316 1072.34 143.241 Z" fill="#000000" fill-rule="evenodd" fill-opacity="1" /><path clip-path="url(#clip980)" d="M1085.23 154.144 L1085.23 167.894 L1080.95 167.894 L1080.95 132.107 L1085.23 132.107 L1085.23 136.042 Q1086.57 133.728 1088.61 132.617 Q1090.67 131.482 1093.52 131.482 Q1098.24 131.482 1101.18 135.232 Q1104.14 138.982 1104.14 145.093 Q1104.14 151.204 1101.18 154.954 Q1098.24 158.704 1093.52 158.704 Q1090.67 158.704 1088.61 157.593 Q1086.57 156.459 1085.23 154.144 M1099.72 145.093 Q1099.72 140.394 1097.78 137.732 Q1095.86 135.047 1092.48 135.047 Q1089.1 135.047 1087.15 137.732 Q1085.23 140.394 1085.23 145.093 Q1085.23 149.792 1087.15 152.478 Q1089.1 155.14 1092.48 155.14 Q1095.86 155.14 1097.78 152.478 Q1099.72 149.792 1099.72 145.093 Z" fill="#000000" fill-rule="evenodd" fill-opacity="1" /><circle clip-path="url(#clip980)" cx="841.459" cy="192.593" r="23" fill="#000000" fill-rule="evenodd" fill-opacity="1" stroke="none"/>
<path clip-path="url(#clip980)" d="M895.95 179.387 L884.145 197.836 L895.95 197.836 L895.95 179.387 M894.723 175.313 L900.603 175.313 L900.603 197.836 L905.534 197.836 L905.534 201.725 L900.603 201.725 L900.603 209.873 L895.95 209.873 L895.95 201.725 L880.349 201.725 L880.349 197.211 L894.723 175.313 Z" fill="#000000" fill-rule="evenodd" fill-opacity="1" /><path clip-path="url(#clip980)" d="M923.265 193.461 Q919.932 193.461 918.01 195.244 Q916.112 197.026 916.112 200.151 Q916.112 203.276 918.01 205.058 Q919.932 206.841 923.265 206.841 Q926.598 206.841 928.52 205.058 Q930.441 203.253 930.441 200.151 Q930.441 197.026 928.52 195.244 Q926.621 193.461 923.265 193.461 M918.589 191.47 Q915.58 190.73 913.89 188.669 Q912.223 186.609 912.223 183.646 Q912.223 179.503 915.163 177.095 Q918.126 174.688 923.265 174.688 Q928.427 174.688 931.367 177.095 Q934.307 179.503 934.307 183.646 Q934.307 186.609 932.617 188.669 Q930.95 190.73 927.964 191.47 Q931.344 192.257 933.219 194.549 Q935.117 196.841 935.117 200.151 Q935.117 205.174 932.038 207.859 Q928.983 210.544 923.265 210.544 Q917.547 210.544 914.469 207.859 Q911.413 205.174 911.413 200.151 Q911.413 196.841 913.311 194.549 Q915.209 192.257 918.589 191.47 M916.876 184.086 Q916.876 186.771 918.543 188.276 Q920.233 189.781 923.265 189.781 Q926.274 189.781 927.964 188.276 Q929.677 186.771 929.677 184.086 Q929.677 181.401 927.964 179.896 Q926.274 178.392 923.265 178.392 Q920.233 178.392 918.543 179.896 Q916.876 181.401 916.876 184.086 Z" fill="#000000" fill-rule="evenodd" fill-opacity="1" /><path clip-path="url(#clip980)" d="M964.376 194.225 L964.376 209.873 L960.117 209.873 L960.117 194.364 Q960.117 190.683 958.681 188.855 Q957.246 187.026 954.376 187.026 Q950.927 187.026 948.936 189.225 Q946.945 191.424 946.945 195.22 L946.945 209.873 L942.663 209.873 L942.663 173.855 L946.945 173.855 L946.945 187.975 Q948.473 185.637 950.533 184.48 Q952.617 183.322 955.325 183.322 Q959.793 183.322 962.084 186.1 Q964.376 188.855 964.376 194.225 Z" fill="#000000" fill-rule="evenodd" fill-opacity="1" /><path clip-path="url(#clip980)" d="M841.459 218.833 L815.859 270.033 L867.059 270.033 L841.459 218.833 Z" fill="#e69f00" fill-rule="evenodd" fill-opacity="1" stroke="#000000" stroke-opacity="1" stroke-width="3.072"/>
<path clip-path="url(#clip980)" d="M896.182 231.76 L889.839 248.958 L902.547 248.958 L896.182 231.76 M893.543 227.153 L898.844 227.153 L912.015 261.713 L907.154 261.713 L904.006 252.847 L888.427 252.847 L885.279 261.713 L880.349 261.713 L893.543 227.153 Z" fill="#000000" fill-rule="evenodd" fill-opacity="1" /><path clip-path="url(#clip980)" d="M916.876 225.695 L921.135 225.695 L921.135 261.713 L916.876 261.713 L916.876 225.695 Z" fill="#000000" fill-rule="evenodd" fill-opacity="1" /><path clip-path="url(#clip980)" d="M930.047 225.695 L934.307 225.695 L934.307 261.713 L930.047 261.713 L930.047 225.695 Z" fill="#000000" fill-rule="evenodd" fill-opacity="1" /></svg>
