<?xml version="1.0" encoding="UTF-8" standalone="no"?>
<svg
   width="300"
   height="400"
   viewBox="0 0 1200 1600"
   version="1.1"
   id="svg239"
   sodipodi:docname="hmax_bootstrap.svg"
   inkscape:export-filename="hmax_bootstrap.pdf"
   inkscape:export-xdpi="500"
   inkscape:export-ydpi="500"
   inkscape:version="1.2 (dc2aedaf03, 2022-05-15)"
   xmlns:inkscape="http://www.inkscape.org/namespaces/inkscape"
   xmlns:sodipodi="http://sodipodi.sourceforge.net/DTD/sodipodi-0.dtd"
   xmlns="http://www.w3.org/2000/svg"
   xmlns:svg="http://www.w3.org/2000/svg">
  <sodipodi:namedview
     id="namedview241"
     pagecolor="#ffffff"
     bordercolor="#666666"
     borderopacity="1.0"
     inkscape:showpageshadow="2"
     inkscape:pageopacity="0.0"
     inkscape:pagecheckerboard="0"
     inkscape:deskcolor="#d1d1d1"
     showgrid="false"
     inkscape:zoom="2.2"
     inkscape:cx="143.18182"
     inkscape:cy="200.22727"
     inkscape:window-width="1920"
     inkscape:window-height="1008"
     inkscape:window-x="1920"
     inkscape:window-y="40"
     inkscape:window-maximized="1"
     inkscape:current-layer="svg239" />
  <defs
     id="defs5">
    <clipPath
       id="clip140">
      <rect
         x="0"
         y="0"
         width="1200"
         height="1600"
         id="rect2" />
    </clipPath>
  </defs>
  <path
     clip-path="url(#clip140)"
     d=" M0 1600 L1200 1600 L1200 0 L0 0  Z   "
     fill="#ffffff"
     fill-rule="evenodd"
     fill-opacity="1"
     id="path7" />
  <defs
     id="defs12">
    <clipPath
       id="clip141">
      <rect
         x="320"
         y="160"
         width="1121"
         height="1121"
         id="rect9" />
    </clipPath>
  </defs>
  <path
     clip-path="url(#clip140)"
     d=" M277.735 1199.14 L1152.76 1199.14 L1152.76 47.2441 L277.735 47.2441  Z   "
     fill="#ffffff"
     fill-rule="evenodd"
     fill-opacity="1"
     id="path14" />
  <defs
     id="defs19">
    <clipPath
       id="clip142">
      <rect
         x="277"
         y="47"
         width="876"
         height="1153"
         id="rect16" />
    </clipPath>
  </defs>
  <polyline
     clip-path="url(#clip140)"
     style="stroke:#000000; stroke-linecap:butt; stroke-linejoin:round; stroke-width:4; stroke-opacity:1; fill:none"
     points="   277.735,1199.14 1152.76,1199.14    "
     id="polyline21" />
  <polyline
     clip-path="url(#clip140)"
     style="stroke:#000000; stroke-linecap:butt; stroke-linejoin:round; stroke-width:4; stroke-opacity:1; fill:none"
     points="   420.427,1199.14 420.427,1180.24    "
     id="polyline23" />
  <polyline
     clip-path="url(#clip140)"
     style="stroke:#000000; stroke-linecap:butt; stroke-linejoin:round; stroke-width:4; stroke-opacity:1; fill:none"
     points="   715.245,1199.14 715.245,1180.24    "
     id="polyline25" />
  <polyline
     clip-path="url(#clip140)"
     style="stroke:#000000; stroke-linecap:butt; stroke-linejoin:round; stroke-width:4; stroke-opacity:1; fill:none"
     points="   1010.06,1199.14 1010.06,1180.24    "
     id="polyline27" />
  <path
     clip-path="url(#clip140)"
     d="M268.522 1364.25 L276.199 1380.89 L285.185 1371.91 L268.522 1364.25 M263.399 1362.86 L267.147 1359.11 L300.898 1374.23 L297.461 1377.67 L288.966 1373.63 L277.95 1384.64 L281.993 1393.14 L278.507 1396.62 L263.399 1362.86 Z"
     fill="#000000"
     fill-rule="evenodd"
     fill-opacity="1"
     id="path29" />
  <path
     clip-path="url(#clip140)"
     d="M300.015 1366.8 L303.468 1363.35 L307.626 1367.5 L304.172 1370.96 L300.015 1366.8 Z"
     fill="#000000"
     fill-rule="evenodd"
     fill-opacity="1"
     id="path31" />
  <path
     clip-path="url(#clip140)"
     d="M304.565 1333.9 L307.757 1330.71 L328.872 1340.37 L319.214 1319.25 L322.406 1316.06 L333.864 1341.27 L329.772 1345.36 L304.565 1333.9 Z"
     fill="#000000"
     fill-rule="evenodd"
     fill-opacity="1"
     id="path33" />
  <path
     clip-path="url(#clip140)"
     d="M350.658 1304.63 L352.131 1306.11 L338.283 1319.95 Q341.59 1322.87 344.896 1322.84 Q348.202 1322.77 351.198 1319.77 Q352.933 1318.04 354.128 1315.99 Q355.339 1313.93 356.092 1311.48 L358.94 1314.32 Q358.007 1316.63 356.665 1318.69 Q355.322 1320.76 353.571 1322.51 Q349.184 1326.89 344.061 1326.91 Q338.954 1326.91 334.6 1322.56 Q330.099 1318.06 329.886 1313 Q329.674 1307.91 333.798 1303.78 Q337.498 1300.08 342.032 1300.33 Q346.566 1300.54 350.658 1304.63 M346.762 1306.76 Q344.258 1304.32 341.426 1304.21 Q338.611 1304.08 336.385 1306.3 Q333.864 1308.82 333.766 1311.77 Q333.684 1314.7 336.041 1317.52 L346.762 1306.76 Z"
     fill="#000000"
     fill-rule="evenodd"
     fill-opacity="1"
     id="path35" />
  <path
     clip-path="url(#clip140)"
     d="M360.626 1283.47 Q359.824 1283.68 359.087 1284.16 Q358.351 1284.6 357.63 1285.32 Q355.077 1287.87 355.372 1290.92 Q355.666 1293.93 358.776 1297.04 L368.433 1306.7 L365.405 1309.72 L347.073 1291.39 L350.101 1288.36 L352.949 1291.21 Q352.229 1288.59 352.949 1286.27 Q353.653 1283.93 355.83 1281.75 Q356.141 1281.44 356.566 1281.11 Q356.976 1280.77 357.516 1280.39 L360.626 1283.47 Z"
     fill="#000000"
     fill-rule="evenodd"
     fill-opacity="1"
     id="path37" />
  <path
     clip-path="url(#clip140)"
     d="M369.448 1273.24 Q367.026 1275.66 367.517 1278.97 Q367.991 1282.26 371.281 1285.55 Q374.571 1288.84 377.861 1289.35 Q381.151 1289.82 383.59 1287.38 Q385.996 1284.98 385.505 1281.67 Q385.014 1278.36 381.741 1275.09 Q378.483 1271.83 375.177 1271.34 Q371.854 1270.83 369.448 1273.24 M366.895 1270.69 Q370.823 1266.76 375.619 1267.07 Q380.415 1267.38 384.932 1271.9 Q389.434 1276.4 389.761 1281.21 Q390.072 1286.01 386.144 1289.94 Q382.199 1293.88 377.403 1293.57 Q372.607 1293.23 368.106 1288.72 Q363.588 1284.21 363.261 1279.43 Q362.95 1274.63 366.895 1270.69 Z"
     fill="#000000"
     fill-rule="evenodd"
     fill-opacity="1"
     id="path39" />
  <path
     clip-path="url(#clip140)"
     d="M403.248 1249.75 L414.313 1260.82 L411.301 1263.83 L400.335 1252.86 Q397.732 1250.26 395.424 1249.98 Q393.116 1249.7 391.087 1251.73 Q388.648 1254.17 388.795 1257.13 Q388.943 1260.1 391.627 1262.78 L401.988 1273.14 L398.96 1276.17 L380.628 1257.84 L383.656 1254.81 L386.504 1257.66 Q385.931 1254.92 386.569 1252.65 Q387.224 1250.36 389.139 1248.44 Q392.298 1245.28 395.883 1245.63 Q399.451 1245.95 403.248 1249.75 Z"
     fill="#000000"
     fill-rule="evenodd"
     fill-opacity="1"
     id="path41" />
  <path
     clip-path="url(#clip140)"
     d="M401.988 1236.48 L405 1233.47 L423.332 1251.8 L420.32 1254.81 L401.988 1236.48 M394.851 1229.34 L397.863 1226.33 L401.677 1230.14 L398.665 1233.15 L394.851 1229.34 Z"
     fill="#000000"
     fill-rule="evenodd"
     fill-opacity="1"
     id="path43" />
  <path
     clip-path="url(#clip140)"
     d="M411.301 1227.16 L414.313 1224.15 L432.645 1242.48 L429.634 1245.5 L411.301 1227.16 M404.165 1220.03 L407.177 1217.02 L410.99 1220.83 L407.979 1223.84 L404.165 1220.03 Z"
     fill="#000000"
     fill-rule="evenodd"
     fill-opacity="1"
     id="path45" />
  <path
     clip-path="url(#clip140)"
     d="M434.344 1488.33 L437.568 1491.56 Q434.786 1492.54 432.674 1493.77 Q430.563 1494.99 429.008 1496.55 Q426.307 1499.25 425.881 1501.77 Q425.472 1504.28 427.404 1506.21 Q429.024 1507.83 430.824 1507.7 Q432.625 1507.53 435.85 1505.32 L438.256 1503.74 Q442.659 1500.74 446.194 1500.77 Q449.73 1500.77 452.709 1503.75 Q456.261 1507.3 455.704 1511.53 Q455.164 1515.73 450.564 1520.33 Q448.829 1522.07 446.472 1523.64 Q444.132 1525.19 441.267 1526.52 L437.863 1523.12 Q441.005 1522.23 443.51 1520.87 Q446.014 1519.51 447.88 1517.65 Q450.712 1514.82 451.137 1512.17 Q451.563 1509.51 449.501 1507.45 Q447.7 1505.65 445.572 1505.75 Q443.461 1505.83 440.433 1507.84 L438.026 1509.46 Q433.591 1512.43 430.366 1512.51 Q427.142 1512.59 424.343 1509.79 Q421.102 1506.55 421.511 1502.41 Q421.937 1498.25 425.947 1494.24 Q427.665 1492.52 429.761 1491.05 Q431.856 1489.58 434.344 1488.33 Z"
     fill="#000000"
     fill-rule="evenodd"
     fill-opacity="1"
     id="path47" />
  <path
     clip-path="url(#clip140)"
     d="M460.745 1500.89 L464.199 1497.43 L468.357 1501.59 L464.903 1505.04 L460.745 1500.89 Z"
     fill="#000000"
     fill-rule="evenodd"
     fill-opacity="1"
     id="path49" />
  <path
     clip-path="url(#clip140)"
     d="M481.353 1453.34 L484.168 1456.15 Q482.188 1456.73 480.551 1457.68 Q478.914 1458.59 477.605 1459.9 Q474.675 1462.83 474.92 1466.32 Q475.149 1469.79 478.505 1473.14 Q481.86 1476.5 485.347 1476.74 Q488.817 1476.97 491.747 1474.04 Q493.056 1472.73 493.989 1471.11 Q494.922 1469.46 495.495 1467.48 L498.278 1470.26 Q497.606 1472.11 496.543 1473.77 Q495.495 1475.4 493.973 1476.92 Q489.832 1481.07 484.79 1480.9 Q479.749 1480.74 475.329 1476.32 Q470.845 1471.83 470.73 1466.81 Q470.632 1461.77 474.92 1457.48 Q476.312 1456.09 477.932 1455.06 Q479.536 1454.01 481.353 1453.34 Z"
     fill="#000000"
     fill-rule="evenodd"
     fill-opacity="1"
     id="path51" />
  <path
     clip-path="url(#clip140)"
     d="M509.981 1440.13 L511.454 1441.6 L497.606 1455.45 Q500.913 1458.36 504.219 1458.33 Q507.526 1458.26 510.521 1455.27 Q512.256 1453.53 513.451 1451.49 Q514.662 1449.43 515.415 1446.97 L518.263 1449.82 Q517.33 1452.13 515.988 1454.19 Q514.646 1456.25 512.894 1458 Q508.508 1462.39 503.384 1462.41 Q498.278 1462.41 493.924 1458.05 Q489.422 1453.55 489.21 1448.49 Q488.997 1443.4 493.122 1439.28 Q496.821 1435.58 501.355 1435.82 Q505.889 1436.04 509.981 1440.13 M506.085 1442.26 Q503.581 1439.82 500.749 1439.7 Q497.934 1439.57 495.708 1441.8 Q493.187 1444.32 493.089 1447.27 Q493.007 1450.2 495.364 1453.01 L506.085 1442.26 Z"
     fill="#000000"
     fill-rule="evenodd"
     fill-opacity="1"
     id="path53" />
  <path
     clip-path="url(#clip140)"
     d="M519.949 1418.97 Q519.147 1419.18 518.41 1419.65 Q517.674 1420.09 516.954 1420.81 Q514.4 1423.37 514.695 1426.41 Q514.989 1429.42 518.099 1432.53 L527.757 1442.19 L524.728 1445.22 L506.396 1426.89 L509.424 1423.86 L512.272 1426.71 Q511.552 1424.09 512.272 1421.76 Q512.976 1419.42 515.153 1417.25 Q515.464 1416.94 515.89 1416.61 Q516.299 1416.26 516.839 1415.89 L519.949 1418.97 Z"
     fill="#000000"
     fill-rule="evenodd"
     fill-opacity="1"
     id="path55" />
  <path
     clip-path="url(#clip140)"
     d="M543.65 1406.46 L545.123 1407.93 L531.276 1421.78 Q534.582 1424.69 537.888 1424.66 Q541.195 1424.6 544.19 1421.6 Q545.925 1419.87 547.12 1417.82 Q548.331 1415.76 549.084 1413.3 L551.932 1416.15 Q550.999 1418.46 549.657 1420.52 Q548.315 1422.58 546.564 1424.33 Q542.177 1428.72 537.054 1428.74 Q531.947 1428.74 527.593 1424.38 Q523.092 1419.88 522.879 1414.82 Q522.666 1409.73 526.791 1405.61 Q530.49 1401.91 535.024 1402.15 Q539.558 1402.37 543.65 1406.46 M539.754 1408.59 Q537.25 1406.15 534.418 1406.03 Q531.603 1405.9 529.377 1408.13 Q526.856 1410.65 526.758 1413.6 Q526.676 1416.53 529.033 1419.34 L539.754 1408.59 Z"
     fill="#000000"
     fill-rule="evenodd"
     fill-opacity="1"
     id="path57" />
  <path
     clip-path="url(#clip140)"
     d="M538.019 1395.26 L541.211 1392.07 L562.326 1401.73 L552.669 1380.61 L555.861 1377.42 L567.318 1402.63 L563.226 1406.72 L538.019 1395.26 Z"
     fill="#000000"
     fill-rule="evenodd"
     fill-opacity="1"
     id="path59" />
  <path
     clip-path="url(#clip140)"
     d="M560.018 1373.27 L563.03 1370.25 L581.362 1388.59 L578.35 1391.6 L560.018 1373.27 M552.882 1366.13 L555.893 1363.12 L559.707 1366.93 L556.695 1369.94 L552.882 1366.13 Z"
     fill="#000000"
     fill-rule="evenodd"
     fill-opacity="1"
     id="path61" />
  <path
     clip-path="url(#clip140)"
     d="M581.559 1352.81 L584.407 1355.65 Q582.475 1356.28 580.773 1357.32 Q579.071 1358.37 577.597 1359.84 Q575.355 1362.09 574.913 1363.9 Q574.488 1365.7 575.862 1367.08 Q576.91 1368.13 578.318 1367.93 Q579.709 1367.72 582.672 1365.83 L583.932 1365.03 Q587.828 1362.51 590.43 1362.43 Q593.033 1362.31 595.275 1364.56 Q597.828 1367.11 597.288 1370.63 Q596.765 1374.13 593.229 1377.67 Q591.756 1379.14 589.857 1380.45 Q587.991 1381.76 585.651 1382.96 L582.541 1379.85 Q585.078 1379.04 587.14 1377.86 Q589.186 1376.67 590.774 1375.08 Q592.902 1372.95 593.327 1371.09 Q593.736 1369.21 592.411 1367.88 Q591.183 1366.65 589.694 1366.83 Q588.22 1367 584.816 1369.19 L583.523 1369.99 Q580.135 1372.2 577.679 1372.23 Q575.208 1372.25 573.08 1370.12 Q570.494 1367.54 570.919 1364.3 Q571.345 1361.05 574.717 1357.68 Q576.386 1356.01 578.105 1354.79 Q579.824 1353.56 581.559 1352.81 Z"
     fill="#000000"
     fill-rule="evenodd"
     fill-opacity="1"
     id="path63" />
  <path
     clip-path="url(#clip140)"
     d="M586.796 1346.49 L589.808 1343.48 L608.14 1361.81 L605.129 1364.82 L586.796 1346.49 M579.66 1339.35 L582.672 1336.34 L586.485 1340.15 L583.474 1343.16 L579.66 1339.35 Z"
     fill="#000000"
     fill-rule="evenodd"
     fill-opacity="1"
     id="path65" />
  <path
     clip-path="url(#clip140)"
     d="M613.558 1337.96 Q609.908 1341.61 609.335 1343.85 Q608.762 1346.09 610.776 1348.11 Q612.38 1349.71 614.377 1349.61 Q616.374 1349.48 618.19 1347.67 Q620.695 1345.16 620.433 1341.89 Q620.171 1338.58 617.225 1335.63 L616.554 1334.96 L613.558 1337.96 M618.321 1330.71 L628.781 1341.17 L625.769 1344.18 L622.986 1341.4 Q623.625 1344.1 622.888 1346.44 Q622.135 1348.76 619.909 1350.99 Q617.094 1353.8 613.853 1353.9 Q610.612 1353.97 607.96 1351.32 Q604.867 1348.22 605.358 1344.59 Q605.865 1340.94 609.974 1336.83 L614.197 1332.61 L613.902 1332.31 Q611.823 1330.23 609.319 1330.48 Q606.815 1330.69 604.343 1333.16 Q602.772 1334.73 601.659 1336.6 Q600.546 1338.47 599.924 1340.59 L597.141 1337.81 Q598.156 1335.52 599.4 1333.65 Q600.627 1331.77 602.101 1330.3 Q606.078 1326.32 610.105 1326.42 Q614.131 1326.52 618.321 1330.71 Z"
     fill="#000000"
     fill-rule="evenodd"
     fill-opacity="1"
     id="path67" />
  <path
     clip-path="url(#clip140)"
     d="M640.746 1309.36 L642.219 1310.84 L628.371 1324.68 Q631.678 1327.6 634.984 1327.57 Q638.29 1327.5 641.286 1324.5 Q643.021 1322.77 644.216 1320.72 Q645.427 1318.66 646.18 1316.21 L649.028 1319.05 Q648.095 1321.36 646.753 1323.42 Q645.411 1325.49 643.659 1327.24 Q639.273 1331.62 634.149 1331.64 Q629.042 1331.64 624.689 1327.29 Q620.187 1322.79 619.975 1317.73 Q619.762 1312.64 623.887 1308.51 Q627.586 1304.81 632.12 1305.06 Q636.654 1305.27 640.746 1309.36 M636.85 1311.49 Q634.346 1309.05 631.514 1308.94 Q628.699 1308.81 626.473 1311.03 Q623.952 1313.55 623.854 1316.5 Q623.772 1319.43 626.129 1322.25 L636.85 1311.49 Z"
     fill="#000000"
     fill-rule="evenodd"
     fill-opacity="1"
     id="path69" />
  <path
     clip-path="url(#clip140)"
     d="M648.062 1271.01 Q649.634 1276.97 652.252 1281.72 Q654.871 1286.47 658.652 1290.25 Q662.433 1294.03 667.213 1296.68 Q671.992 1299.3 677.918 1300.87 L675.299 1303.49 Q668.997 1302.1 664.054 1299.61 Q659.127 1297.1 655.461 1293.44 Q651.811 1289.79 649.323 1284.88 Q646.835 1279.97 645.443 1273.63 L648.062 1271.01 Z"
     fill="#000000"
     fill-rule="evenodd"
     fill-opacity="1"
     id="path71" />
  <path
     clip-path="url(#clip140)"
     d="M678.458 1273.06 Q674.808 1276.71 674.235 1278.95 Q673.662 1281.19 675.675 1283.21 Q677.279 1284.81 679.276 1284.71 Q681.273 1284.58 683.09 1282.77 Q685.594 1280.26 685.332 1276.99 Q685.071 1273.68 682.124 1270.74 L681.453 1270.06 L678.458 1273.06 M683.221 1265.81 L693.68 1276.27 L690.668 1279.28 L687.886 1276.5 Q688.524 1279.2 687.788 1281.54 Q687.035 1283.86 684.809 1286.09 Q681.993 1288.9 678.752 1289 Q675.512 1289.07 672.86 1286.42 Q669.766 1283.32 670.257 1279.69 Q670.765 1276.04 674.873 1271.93 L679.096 1267.71 L678.802 1267.41 Q676.723 1265.33 674.219 1265.58 Q671.714 1265.79 669.243 1268.26 Q667.671 1269.84 666.558 1271.7 Q665.445 1273.57 664.823 1275.69 L662.041 1272.91 Q663.055 1270.62 664.299 1268.75 Q665.527 1266.87 667 1265.4 Q670.978 1261.42 675.004 1261.52 Q679.031 1261.62 683.221 1265.81 Z"
     fill="#000000"
     fill-rule="evenodd"
     fill-opacity="1"
     id="path73" />
  <path
     clip-path="url(#clip140)"
     d="M699 1252.52 Q695.35 1256.17 694.777 1258.41 Q694.204 1260.65 696.217 1262.67 Q697.821 1264.27 699.818 1264.17 Q701.815 1264.04 703.632 1262.22 Q706.136 1259.72 705.874 1256.45 Q705.613 1253.14 702.666 1250.19 L701.995 1249.52 L699 1252.52 M703.763 1245.27 L714.222 1255.73 L711.21 1258.74 L708.428 1255.95 Q709.066 1258.66 708.33 1261 Q707.577 1263.32 705.351 1265.55 Q702.535 1268.36 699.294 1268.46 Q696.054 1268.53 693.402 1265.87 Q690.308 1262.78 690.799 1259.15 Q691.307 1255.5 695.415 1251.39 L699.638 1247.17 L699.344 1246.87 Q697.265 1244.79 694.761 1245.04 Q692.256 1245.25 689.785 1247.72 Q688.213 1249.29 687.1 1251.16 Q685.987 1253.02 685.365 1255.15 L682.583 1252.37 Q683.597 1250.08 684.841 1248.21 Q686.069 1246.33 687.542 1244.86 Q691.52 1240.88 695.546 1240.98 Q699.573 1241.08 703.763 1245.27 Z"
     fill="#000000"
     fill-rule="evenodd"
     fill-opacity="1"
     id="path75" />
  <path
     clip-path="url(#clip140)"
     d="M694.515 1224.56 L697.134 1221.94 Q703.452 1223.35 708.362 1225.84 Q713.289 1228.31 716.939 1231.96 Q720.606 1235.63 723.094 1240.57 Q725.598 1245.5 726.989 1251.8 L724.37 1254.42 Q722.799 1248.49 720.164 1243.73 Q717.529 1238.93 713.748 1235.15 Q709.966 1231.37 705.203 1228.77 Q700.457 1226.15 694.515 1224.56 Z"
     fill="#000000"
     fill-rule="evenodd"
     fill-opacity="1"
     id="path77" />
  <path
     clip-path="url(#clip140)"
     d="M904.219 1311.67 L919.671 1296.22 L922.453 1299 L910.308 1311.15 L917.543 1318.38 L929.181 1306.75 L931.963 1309.53 L920.325 1321.17 L929.181 1330.02 L941.62 1317.58 L944.403 1320.36 L928.657 1336.11 L904.219 1311.67 Z"
     fill="#000000"
     fill-rule="evenodd"
     fill-opacity="1"
     id="path79" />
  <path
     clip-path="url(#clip140)"
     d="M945.974 1310.48 L949.428 1307.02 L953.586 1311.18 L950.132 1314.63 L945.974 1310.48 Z"
     fill="#000000"
     fill-rule="evenodd"
     fill-opacity="1"
     id="path81" />
  <path
     clip-path="url(#clip140)"
     d="M966.582 1262.93 L969.397 1265.74 Q967.417 1266.32 965.78 1267.27 Q964.143 1268.18 962.834 1269.49 Q959.904 1272.42 960.149 1275.91 Q960.378 1279.38 963.734 1282.73 Q967.089 1286.09 970.576 1286.33 Q974.046 1286.56 976.976 1283.63 Q978.285 1282.32 979.218 1280.7 Q980.151 1279.05 980.724 1277.07 L983.506 1279.85 Q982.835 1281.7 981.771 1283.36 Q980.724 1284.99 979.202 1286.51 Q975.061 1290.66 970.019 1290.49 Q964.978 1290.33 960.558 1285.91 Q956.073 1281.42 955.959 1276.4 Q955.861 1271.36 960.149 1267.07 Q961.54 1265.68 963.161 1264.65 Q964.765 1263.6 966.582 1262.93 Z"
     fill="#000000"
     fill-rule="evenodd"
     fill-opacity="1"
     id="path83" />
  <path
     clip-path="url(#clip140)"
     d="M980.331 1251.99 Q977.909 1254.42 978.4 1257.72 Q978.874 1261.01 982.164 1264.3 Q985.454 1267.59 988.744 1268.1 Q992.034 1268.57 994.473 1266.14 Q996.879 1263.73 996.388 1260.42 Q995.897 1257.12 992.624 1253.84 Q989.366 1250.59 986.06 1250.1 Q982.737 1249.59 980.331 1251.99 M977.778 1249.44 Q981.706 1245.51 986.502 1245.82 Q991.298 1246.13 995.815 1250.65 Q1000.32 1255.15 1000.64 1259.97 Q1000.95 1264.76 997.027 1268.69 Q993.082 1272.63 988.286 1272.32 Q983.49 1271.98 978.989 1267.48 Q974.471 1262.96 974.144 1258.18 Q973.833 1253.39 977.778 1249.44 Z"
     fill="#000000"
     fill-rule="evenodd"
     fill-opacity="1"
     id="path85" />
  <path
     clip-path="url(#clip140)"
     d="M984.489 1229.34 L987.5 1226.33 L1012.97 1251.8 L1009.96 1254.81 L984.489 1229.34 Z"
     fill="#000000"
     fill-rule="evenodd"
     fill-opacity="1"
     id="path87" />
  <path
     clip-path="url(#clip140)"
     d="M1000.94 1227.16 L1003.95 1224.15 L1022.28 1242.48 L1019.27 1245.5 L1000.94 1227.16 M993.802 1220.03 L996.814 1217.02 L1000.63 1220.83 L997.616 1223.84 L993.802 1220.03 Z"
     fill="#000000"
     fill-rule="evenodd"
     fill-opacity="1"
     id="path89" />
  <polyline
     clip-path="url(#clip140)"
     style="stroke:#000000; stroke-linecap:butt; stroke-linejoin:round; stroke-width:4; stroke-opacity:1; fill:none"
     points="   277.735,1199.14 277.735,47.2441    "
     id="polyline91" />
  <polyline
     clip-path="url(#clip140)"
     style="stroke:#000000; stroke-linecap:butt; stroke-linejoin:round; stroke-width:4; stroke-opacity:1; fill:none"
     points="   277.735,1199.14 296.632,1199.14    "
     id="polyline93" />
  <polyline
     clip-path="url(#clip140)"
     style="stroke:#000000; stroke-linecap:butt; stroke-linejoin:round; stroke-width:4; stroke-opacity:1; fill:none"
     points="   277.735,968.758 296.632,968.758    "
     id="polyline95" />
  <polyline
     clip-path="url(#clip140)"
     style="stroke:#000000; stroke-linecap:butt; stroke-linejoin:round; stroke-width:4; stroke-opacity:1; fill:none"
     points="   277.735,738.38 296.632,738.38    "
     id="polyline97" />
  <polyline
     clip-path="url(#clip140)"
     style="stroke:#000000; stroke-linecap:butt; stroke-linejoin:round; stroke-width:4; stroke-opacity:1; fill:none"
     points="   277.735,508.001 296.632,508.001    "
     id="polyline99" />
  <polyline
     clip-path="url(#clip140)"
     style="stroke:#000000; stroke-linecap:butt; stroke-linejoin:round; stroke-width:4; stroke-opacity:1; fill:none"
     points="   277.735,277.623 296.632,277.623    "
     id="polyline101" />
  <polyline
     clip-path="url(#clip140)"
     style="stroke:#000000; stroke-linecap:butt; stroke-linejoin:round; stroke-width:4; stroke-opacity:1; fill:none"
     points="   277.735,47.2441 296.632,47.2441    "
     id="polyline103" />
  <path
     clip-path="url(#clip140)"
     d="M241.79 1184.94 Q238.179 1184.94 236.35 1188.5 Q234.545 1192.04 234.545 1199.17 Q234.545 1206.28 236.35 1209.84 Q238.179 1213.38 241.79 1213.38 Q245.424 1213.38 247.23 1209.84 Q249.059 1206.28 249.059 1199.17 Q249.059 1192.04 247.23 1188.5 Q245.424 1184.94 241.79 1184.94 M241.79 1181.23 Q247.6 1181.23 250.656 1185.84 Q253.735 1190.42 253.735 1199.17 Q253.735 1207.9 250.656 1212.5 Q247.6 1217.09 241.79 1217.09 Q235.98 1217.09 232.901 1212.5 Q229.846 1207.9 229.846 1199.17 Q229.846 1190.42 232.901 1185.84 Q235.98 1181.23 241.79 1181.23 Z"
     fill="#000000"
     fill-rule="evenodd"
     fill-opacity="1"
     id="path105" />
  <path
     clip-path="url(#clip140)"
     d="M175.494 982.103 L191.814 982.103 L191.814 986.038 L169.869 986.038 L169.869 982.103 Q172.531 979.349 177.115 974.719 Q181.721 970.066 182.902 968.724 Q185.147 966.2 186.027 964.464 Q186.929 962.705 186.929 961.015 Q186.929 958.261 184.985 956.525 Q183.064 954.788 179.962 954.788 Q177.763 954.788 175.309 955.552 Q172.878 956.316 170.101 957.867 L170.101 953.145 Q172.925 952.011 175.378 951.432 Q177.832 950.853 179.869 950.853 Q185.24 950.853 188.434 953.538 Q191.628 956.224 191.628 960.714 Q191.628 962.844 190.818 964.765 Q190.031 966.663 187.925 969.256 Q187.346 969.927 184.244 973.145 Q181.142 976.339 175.494 982.103 Z"
     fill="#000000"
     fill-rule="evenodd"
     fill-opacity="1"
     id="path107" />
  <path
     clip-path="url(#clip140)"
     d="M211.628 954.557 Q208.017 954.557 206.188 958.122 Q204.383 961.663 204.383 968.793 Q204.383 975.899 206.188 979.464 Q208.017 983.006 211.628 983.006 Q215.263 983.006 217.068 979.464 Q218.897 975.899 218.897 968.793 Q218.897 961.663 217.068 958.122 Q215.263 954.557 211.628 954.557 M211.628 950.853 Q217.438 950.853 220.494 955.46 Q223.573 960.043 223.573 968.793 Q223.573 977.52 220.494 982.126 Q217.438 986.71 211.628 986.71 Q205.818 986.71 202.739 982.126 Q199.684 977.52 199.684 968.793 Q199.684 960.043 202.739 955.46 Q205.818 950.853 211.628 950.853 Z"
     fill="#000000"
     fill-rule="evenodd"
     fill-opacity="1"
     id="path109" />
  <path
     clip-path="url(#clip140)"
     d="M241.79 954.557 Q238.179 954.557 236.35 958.122 Q234.545 961.663 234.545 968.793 Q234.545 975.899 236.35 979.464 Q238.179 983.006 241.79 983.006 Q245.424 983.006 247.23 979.464 Q249.059 975.899 249.059 968.793 Q249.059 961.663 247.23 958.122 Q245.424 954.557 241.79 954.557 M241.79 950.853 Q247.6 950.853 250.656 955.46 Q253.735 960.043 253.735 968.793 Q253.735 977.52 250.656 982.126 Q247.6 986.71 241.79 986.71 Q235.98 986.71 232.901 982.126 Q229.846 977.52 229.846 968.793 Q229.846 960.043 232.901 955.46 Q235.98 950.853 241.79 950.853 Z"
     fill="#000000"
     fill-rule="evenodd"
     fill-opacity="1"
     id="path111" />
  <path
     clip-path="url(#clip140)"
     d="M184.314 725.174 L172.508 743.623 L184.314 743.623 L184.314 725.174 M183.087 721.1 L188.966 721.1 L188.966 743.623 L193.897 743.623 L193.897 747.512 L188.966 747.512 L188.966 755.66 L184.314 755.66 L184.314 747.512 L168.712 747.512 L168.712 742.998 L183.087 721.1 Z"
     fill="#000000"
     fill-rule="evenodd"
     fill-opacity="1"
     id="path113" />
  <path
     clip-path="url(#clip140)"
     d="M211.628 724.178 Q208.017 724.178 206.188 727.743 Q204.383 731.285 204.383 738.414 Q204.383 745.521 206.188 749.086 Q208.017 752.627 211.628 752.627 Q215.263 752.627 217.068 749.086 Q218.897 745.521 218.897 738.414 Q218.897 731.285 217.068 727.743 Q215.263 724.178 211.628 724.178 M211.628 720.475 Q217.438 720.475 220.494 725.081 Q223.573 729.665 223.573 738.414 Q223.573 747.141 220.494 751.748 Q217.438 756.331 211.628 756.331 Q205.818 756.331 202.739 751.748 Q199.684 747.141 199.684 738.414 Q199.684 729.665 202.739 725.081 Q205.818 720.475 211.628 720.475 Z"
     fill="#000000"
     fill-rule="evenodd"
     fill-opacity="1"
     id="path115" />
  <path
     clip-path="url(#clip140)"
     d="M241.79 724.178 Q238.179 724.178 236.35 727.743 Q234.545 731.285 234.545 738.414 Q234.545 745.521 236.35 749.086 Q238.179 752.627 241.79 752.627 Q245.424 752.627 247.23 749.086 Q249.059 745.521 249.059 738.414 Q249.059 731.285 247.23 727.743 Q245.424 724.178 241.79 724.178 M241.79 720.475 Q247.6 720.475 250.656 725.081 Q253.735 729.665 253.735 738.414 Q253.735 747.141 250.656 751.748 Q247.6 756.331 241.79 756.331 Q235.98 756.331 232.901 751.748 Q229.846 747.141 229.846 738.414 Q229.846 729.665 232.901 725.081 Q235.98 720.475 241.79 720.475 Z"
     fill="#000000"
     fill-rule="evenodd"
     fill-opacity="1"
     id="path117" />
  <path
     clip-path="url(#clip140)"
     d="M182.045 506.138 Q178.897 506.138 177.045 508.291 Q175.216 510.443 175.216 514.193 Q175.216 517.92 177.045 520.096 Q178.897 522.249 182.045 522.249 Q185.193 522.249 187.022 520.096 Q188.874 517.92 188.874 514.193 Q188.874 510.443 187.022 508.291 Q185.193 506.138 182.045 506.138 M191.327 491.485 L191.327 495.744 Q189.568 494.911 187.763 494.471 Q185.98 494.031 184.221 494.031 Q179.591 494.031 177.138 497.156 Q174.707 500.281 174.36 506.601 Q175.726 504.587 177.786 503.522 Q179.846 502.434 182.323 502.434 Q187.531 502.434 190.54 505.605 Q193.573 508.754 193.573 514.193 Q193.573 519.517 190.425 522.735 Q187.277 525.953 182.045 525.953 Q176.05 525.953 172.878 521.369 Q169.707 516.763 169.707 508.036 Q169.707 499.842 173.596 494.98 Q177.485 490.096 184.036 490.096 Q185.795 490.096 187.577 490.443 Q189.383 490.791 191.327 491.485 Z"
     fill="#000000"
     fill-rule="evenodd"
     fill-opacity="1"
     id="path119" />
  <path
     clip-path="url(#clip140)"
     d="M211.628 493.8 Q208.017 493.8 206.188 497.365 Q204.383 500.906 204.383 508.036 Q204.383 515.142 206.188 518.707 Q208.017 522.249 211.628 522.249 Q215.263 522.249 217.068 518.707 Q218.897 515.142 218.897 508.036 Q218.897 500.906 217.068 497.365 Q215.263 493.8 211.628 493.8 M211.628 490.096 Q217.438 490.096 220.494 494.703 Q223.573 499.286 223.573 508.036 Q223.573 516.763 220.494 521.369 Q217.438 525.953 211.628 525.953 Q205.818 525.953 202.739 521.369 Q199.684 516.763 199.684 508.036 Q199.684 499.286 202.739 494.703 Q205.818 490.096 211.628 490.096 Z"
     fill="#000000"
     fill-rule="evenodd"
     fill-opacity="1"
     id="path121" />
  <path
     clip-path="url(#clip140)"
     d="M241.79 493.8 Q238.179 493.8 236.35 497.365 Q234.545 500.906 234.545 508.036 Q234.545 515.142 236.35 518.707 Q238.179 522.249 241.79 522.249 Q245.424 522.249 247.23 518.707 Q249.059 515.142 249.059 508.036 Q249.059 500.906 247.23 497.365 Q245.424 493.8 241.79 493.8 M241.79 490.096 Q247.6 490.096 250.656 494.703 Q253.735 499.286 253.735 508.036 Q253.735 516.763 250.656 521.369 Q247.6 525.953 241.79 525.953 Q235.98 525.953 232.901 521.369 Q229.846 516.763 229.846 508.036 Q229.846 499.286 232.901 494.703 Q235.98 490.096 241.79 490.096 Z"
     fill="#000000"
     fill-rule="evenodd"
     fill-opacity="1"
     id="path123" />
  <path
     clip-path="url(#clip140)"
     d="M181.466 278.491 Q178.133 278.491 176.212 280.273 Q174.314 282.055 174.314 285.18 Q174.314 288.305 176.212 290.088 Q178.133 291.87 181.466 291.87 Q184.8 291.87 186.721 290.088 Q188.642 288.282 188.642 285.18 Q188.642 282.055 186.721 280.273 Q184.823 278.491 181.466 278.491 M176.79 276.5 Q173.781 275.759 172.091 273.699 Q170.425 271.639 170.425 268.676 Q170.425 264.532 173.365 262.125 Q176.328 259.718 181.466 259.718 Q186.628 259.718 189.568 262.125 Q192.508 264.532 192.508 268.676 Q192.508 271.639 190.818 273.699 Q189.152 275.759 186.165 276.5 Q189.545 277.287 191.42 279.579 Q193.318 281.87 193.318 285.18 Q193.318 290.204 190.239 292.889 Q187.184 295.574 181.466 295.574 Q175.749 295.574 172.67 292.889 Q169.615 290.204 169.615 285.18 Q169.615 281.87 171.513 279.579 Q173.411 277.287 176.79 276.5 M175.078 269.116 Q175.078 271.801 176.744 273.306 Q178.434 274.81 181.466 274.81 Q184.476 274.81 186.165 273.306 Q187.878 271.801 187.878 269.116 Q187.878 266.431 186.165 264.926 Q184.476 263.421 181.466 263.421 Q178.434 263.421 176.744 264.926 Q175.078 266.431 175.078 269.116 Z"
     fill="#000000"
     fill-rule="evenodd"
     fill-opacity="1"
     id="path125" />
  <path
     clip-path="url(#clip140)"
     d="M211.628 263.421 Q208.017 263.421 206.188 266.986 Q204.383 270.528 204.383 277.657 Q204.383 284.764 206.188 288.329 Q208.017 291.87 211.628 291.87 Q215.263 291.87 217.068 288.329 Q218.897 284.764 218.897 277.657 Q218.897 270.528 217.068 266.986 Q215.263 263.421 211.628 263.421 M211.628 259.718 Q217.438 259.718 220.494 264.324 Q223.573 268.907 223.573 277.657 Q223.573 286.384 220.494 290.991 Q217.438 295.574 211.628 295.574 Q205.818 295.574 202.739 290.991 Q199.684 286.384 199.684 277.657 Q199.684 268.907 202.739 264.324 Q205.818 259.718 211.628 259.718 Z"
     fill="#000000"
     fill-rule="evenodd"
     fill-opacity="1"
     id="path127" />
  <path
     clip-path="url(#clip140)"
     d="M241.79 263.421 Q238.179 263.421 236.35 266.986 Q234.545 270.528 234.545 277.657 Q234.545 284.764 236.35 288.329 Q238.179 291.87 241.79 291.87 Q245.424 291.87 247.23 288.329 Q249.059 284.764 249.059 277.657 Q249.059 270.528 247.23 266.986 Q245.424 263.421 241.79 263.421 M241.79 259.718 Q247.6 259.718 250.656 264.324 Q253.735 268.907 253.735 277.657 Q253.735 286.384 250.656 290.991 Q247.6 295.574 241.79 295.574 Q235.98 295.574 232.901 290.991 Q229.846 286.384 229.846 277.657 Q229.846 268.907 232.901 264.324 Q235.98 259.718 241.79 259.718 Z"
     fill="#000000"
     fill-rule="evenodd"
     fill-opacity="1"
     id="path129" />
  <path
     clip-path="url(#clip140)"
     d="M142.115 60.5889 L149.754 60.5889 L149.754 34.2233 L141.443 35.89 L141.443 31.6308 L149.707 29.9641 L154.383 29.9641 L154.383 60.5889 L162.022 60.5889 L162.022 64.5241 L142.115 64.5241 L142.115 60.5889 Z"
     fill="#000000"
     fill-rule="evenodd"
     fill-opacity="1"
     id="path131" />
  <path
     clip-path="url(#clip140)"
     d="M181.466 33.0428 Q177.855 33.0428 176.027 36.6076 Q174.221 40.1492 174.221 47.2788 Q174.221 54.3853 176.027 57.9501 Q177.855 61.4917 181.466 61.4917 Q185.101 61.4917 186.906 57.9501 Q188.735 54.3853 188.735 47.2788 Q188.735 40.1492 186.906 36.6076 Q185.101 33.0428 181.466 33.0428 M181.466 29.3391 Q187.277 29.3391 190.332 33.9456 Q193.411 38.5289 193.411 47.2788 Q193.411 56.0056 190.332 60.6121 Q187.277 65.1954 181.466 65.1954 Q175.656 65.1954 172.578 60.6121 Q169.522 56.0056 169.522 47.2788 Q169.522 38.5289 172.578 33.9456 Q175.656 29.3391 181.466 29.3391 Z"
     fill="#000000"
     fill-rule="evenodd"
     fill-opacity="1"
     id="path133" />
  <path
     clip-path="url(#clip140)"
     d="M211.628 33.0428 Q208.017 33.0428 206.188 36.6076 Q204.383 40.1492 204.383 47.2788 Q204.383 54.3853 206.188 57.9501 Q208.017 61.4917 211.628 61.4917 Q215.263 61.4917 217.068 57.9501 Q218.897 54.3853 218.897 47.2788 Q218.897 40.1492 217.068 36.6076 Q215.263 33.0428 211.628 33.0428 M211.628 29.3391 Q217.438 29.3391 220.494 33.9456 Q223.573 38.5289 223.573 47.2788 Q223.573 56.0056 220.494 60.6121 Q217.438 65.1954 211.628 65.1954 Q205.818 65.1954 202.739 60.6121 Q199.684 56.0056 199.684 47.2788 Q199.684 38.5289 202.739 33.9456 Q205.818 29.3391 211.628 29.3391 Z"
     fill="#000000"
     fill-rule="evenodd"
     fill-opacity="1"
     id="path135" />
  <path
     clip-path="url(#clip140)"
     d="M241.79 33.0428 Q238.179 33.0428 236.35 36.6076 Q234.545 40.1492 234.545 47.2788 Q234.545 54.3853 236.35 57.9501 Q238.179 61.4917 241.79 61.4917 Q245.424 61.4917 247.23 57.9501 Q249.059 54.3853 249.059 47.2788 Q249.059 40.1492 247.23 36.6076 Q245.424 33.0428 241.79 33.0428 M241.79 29.3391 Q247.6 29.3391 250.656 33.9456 Q253.735 38.5289 253.735 47.2788 Q253.735 56.0056 250.656 60.6121 Q247.6 65.1954 241.79 65.1954 Q235.98 65.1954 232.901 60.6121 Q229.846 56.0056 229.846 47.2788 Q229.846 38.5289 232.901 33.9456 Q235.98 29.3391 241.79 29.3391 Z"
     fill="#000000"
     fill-rule="evenodd"
     fill-opacity="1"
     id="path137" />
  <path
     clip-path="url(#clip140)"
     d="M55.6675 980.307 L55.6675 970.726 L88.0052 958.6 L55.6675 946.409 L55.6675 936.829 L103.187 936.829 L103.187 943.099 L61.4602 943.099 L94.0527 955.353 L94.0527 961.814 L61.4602 974.068 L103.187 974.068 L103.187 980.307 L55.6675 980.307 Z"
     fill="#000000"
     fill-rule="evenodd"
     fill-opacity="1"
     id="path139" />
  <path
     clip-path="url(#clip140)"
     d="M85.268 908.12 Q85.268 915.217 86.8912 917.955 Q88.5145 920.692 92.4294 920.692 Q95.5486 920.692 97.3947 918.655 Q99.2089 916.586 99.2089 913.053 Q99.2089 908.183 95.7714 905.255 Q92.3021 902.295 86.573 902.295 L85.268 902.295 L85.268 908.12 M82.849 896.438 L103.187 896.438 L103.187 902.295 L97.7766 902.295 Q101.023 904.3 102.583 907.292 Q104.11 910.284 104.11 914.613 Q104.11 920.087 101.055 923.334 Q97.9676 926.548 92.8114 926.548 Q86.7958 926.548 83.7402 922.538 Q80.6847 918.496 80.6847 910.507 L80.6847 902.295 L80.1118 902.295 Q76.0695 902.295 73.8734 904.968 Q71.6454 907.61 71.6454 912.416 Q71.6454 915.472 72.3774 918.368 Q73.1095 921.265 74.5736 923.938 L69.1628 923.938 Q67.9214 920.724 67.3167 917.7 Q66.6801 914.676 66.6801 911.812 Q66.6801 904.077 70.6905 900.258 Q74.7009 896.438 82.849 896.438 Z"
     fill="#000000"
     fill-rule="evenodd"
     fill-opacity="1"
     id="path141" />
  <path
     clip-path="url(#clip140)"
     d="M67.5395 854.743 L84.886 867.634 L103.187 854.075 L103.187 860.981 L89.1829 871.358 L103.187 881.734 L103.187 888.64 L84.5359 874.795 L67.5395 887.463 L67.5395 880.556 L80.2391 871.103 L67.5395 861.65 L67.5395 854.743 Z"
     fill="#000000"
     fill-rule="evenodd"
     fill-opacity="1"
     id="path143" />
  <path
     clip-path="url(#clip140)"
     d="M67.5395 845.799 L67.5395 839.943 L103.187 839.943 L103.187 845.799 L67.5395 845.799 M53.6623 845.799 L53.6623 839.943 L61.0783 839.943 L61.0783 845.799 L53.6623 845.799 Z"
     fill="#000000"
     fill-rule="evenodd"
     fill-opacity="1"
     id="path145" />
  <path
     clip-path="url(#clip140)"
     d="M74.3826 799.934 Q70.4359 797.738 68.558 794.683 Q66.6801 791.627 66.6801 787.489 Q66.6801 781.919 70.595 778.896 Q74.4781 775.872 81.6714 775.872 L103.187 775.872 L103.187 781.76 L81.8623 781.76 Q76.7379 781.76 74.2553 783.574 Q71.7727 785.389 71.7727 789.113 Q71.7727 793.664 74.7964 796.306 Q77.8201 798.948 83.04 798.948 L103.187 798.948 L103.187 804.836 L81.8623 804.836 Q76.7061 804.836 74.2553 806.65 Q71.7727 808.464 71.7727 812.252 Q71.7727 816.74 74.8282 819.382 Q77.8519 822.023 83.04 822.023 L103.187 822.023 L103.187 827.912 L67.5395 827.912 L67.5395 822.023 L73.0777 822.023 Q69.7993 820.018 68.2397 817.217 Q66.6801 814.416 66.6801 810.565 Q66.6801 806.682 68.6535 803.977 Q70.6269 801.239 74.3826 799.934 Z"
     fill="#000000"
     fill-rule="evenodd"
     fill-opacity="1"
     id="path147" />
  <path
     clip-path="url(#clip140)"
     d="M89.1192 764.796 L67.5395 764.796 L67.5395 758.939 L88.8964 758.939 Q93.9572 758.939 96.5035 756.966 Q99.0179 754.992 99.0179 751.046 Q99.0179 746.303 95.9942 743.566 Q92.9705 740.797 87.7506 740.797 L67.5395 740.797 L67.5395 734.94 L103.187 734.94 L103.187 740.797 L97.7129 740.797 Q100.959 742.929 102.551 745.762 Q104.11 748.563 104.11 752.287 Q104.11 758.43 100.291 761.613 Q96.4716 764.796 89.1192 764.796 M66.6801 750.059 L66.6801 750.059 Z"
     fill="#000000"
     fill-rule="evenodd"
     fill-opacity="1"
     id="path149" />
  <path
     clip-path="url(#clip140)"
     d="M74.3826 695.123 Q70.4359 692.927 68.558 689.871 Q66.6801 686.816 66.6801 682.678 Q66.6801 677.108 70.595 674.084 Q74.4781 671.061 81.6714 671.061 L103.187 671.061 L103.187 676.949 L81.8623 676.949 Q76.7379 676.949 74.2553 678.763 Q71.7727 680.577 71.7727 684.301 Q71.7727 688.853 74.7964 691.495 Q77.8201 694.136 83.04 694.136 L103.187 694.136 L103.187 700.025 L81.8623 700.025 Q76.7061 700.025 74.2553 701.839 Q71.7727 703.653 71.7727 707.441 Q71.7727 711.928 74.8282 714.57 Q77.8519 717.212 83.04 717.212 L103.187 717.212 L103.187 723.1 L67.5395 723.1 L67.5395 717.212 L73.0777 717.212 Q69.7993 715.207 68.2397 712.406 Q66.6801 709.605 66.6801 705.754 Q66.6801 701.871 68.6535 699.165 Q70.6269 696.428 74.3826 695.123 Z"
     fill="#000000"
     fill-rule="evenodd"
     fill-opacity="1"
     id="path151" />
  <path
     clip-path="url(#clip140)"
     d="M81.6714 609.027 L103.187 609.027 L103.187 614.883 L81.8623 614.883 Q76.8016 614.883 74.2871 616.857 Q71.7727 618.83 71.7727 622.777 Q71.7727 627.519 74.7964 630.256 Q77.8201 632.994 83.04 632.994 L103.187 632.994 L103.187 638.882 L53.6623 638.882 L53.6623 632.994 L73.0777 632.994 Q69.863 630.893 68.2716 628.06 Q66.6801 625.196 66.6801 621.472 Q66.6801 615.329 70.4996 612.178 Q74.2871 609.027 81.6714 609.027 Z"
     fill="#000000"
     fill-rule="evenodd"
     fill-opacity="1"
     id="path153" />
  <path
     clip-path="url(#clip140)"
     d="M83.8994 566.854 L86.7639 566.854 L86.7639 593.781 Q92.8114 593.399 95.9942 590.152 Q99.1452 586.874 99.1452 581.05 Q99.1452 577.676 98.3177 574.525 Q97.4901 571.342 95.8351 568.223 L101.373 568.223 Q102.71 571.374 103.41 574.684 Q104.11 577.994 104.11 581.4 Q104.11 589.93 99.1452 594.927 Q94.18 599.892 85.7136 599.892 Q76.9607 599.892 71.8363 595.181 Q66.6801 590.439 66.6801 582.418 Q66.6801 575.225 71.3271 571.055 Q75.9422 566.854 83.8994 566.854 M82.1806 572.71 Q77.3745 572.774 74.5099 575.416 Q71.6454 578.026 71.6454 582.354 Q71.6454 587.256 74.4145 590.216 Q77.1835 593.144 82.2125 593.59 L82.1806 572.71 Z"
     fill="#000000"
     fill-rule="evenodd"
     fill-opacity="1"
     id="path155" />
  <path
     clip-path="url(#clip140)"
     d="M67.5395 557.242 L67.5395 551.385 L103.187 551.385 L103.187 557.242 L67.5395 557.242 M53.6623 557.242 L53.6623 551.385 L61.0783 551.385 L61.0783 557.242 L53.6623 557.242 Z"
     fill="#000000"
     fill-rule="evenodd"
     fill-opacity="1"
     id="path157" />
  <path
     clip-path="url(#clip140)"
     d="M84.9497 515.674 Q78.584 515.674 75.0829 518.315 Q71.5817 520.925 71.5817 525.668 Q71.5817 530.378 75.0829 533.02 Q78.584 535.63 84.9497 535.63 Q91.2836 535.63 94.7847 533.02 Q98.2859 530.378 98.2859 525.668 Q98.2859 520.925 94.7847 518.315 Q91.2836 515.674 84.9497 515.674 M98.7633 509.817 Q107.866 509.817 112.29 513.859 Q116.746 517.902 116.746 526.241 Q116.746 529.328 116.269 532.065 Q115.823 534.803 114.869 537.381 L109.171 537.381 Q110.572 534.803 111.24 532.288 Q111.908 529.774 111.908 527.164 Q111.908 521.403 108.885 518.538 Q105.893 515.674 99.8136 515.674 L96.9172 515.674 Q100.068 517.488 101.628 520.321 Q103.187 523.153 103.187 527.1 Q103.187 533.657 98.1904 537.667 Q93.1933 541.678 84.9497 541.678 Q76.6743 541.678 71.6772 537.667 Q66.6801 533.657 66.6801 527.1 Q66.6801 523.153 68.2397 520.321 Q69.7993 517.488 72.9503 515.674 L67.5395 515.674 L67.5395 509.817 L98.7633 509.817 Z"
     fill="#000000"
     fill-rule="evenodd"
     fill-opacity="1"
     id="path159" />
  <path
     clip-path="url(#clip140)"
     d="M81.6714 468.122 L103.187 468.122 L103.187 473.978 L81.8623 473.978 Q76.8016 473.978 74.2871 475.952 Q71.7727 477.925 71.7727 481.872 Q71.7727 486.614 74.7964 489.352 Q77.8201 492.089 83.04 492.089 L103.187 492.089 L103.187 497.977 L53.6623 497.977 L53.6623 492.089 L73.0777 492.089 Q69.863 489.988 68.2716 487.155 Q66.6801 484.291 66.6801 480.567 Q66.6801 474.424 70.4996 471.273 Q74.2871 468.122 81.6714 468.122 Z"
     fill="#000000"
     fill-rule="evenodd"
     fill-opacity="1"
     id="path161" />
  <path
     clip-path="url(#clip140)"
     d="M57.418 450.648 L67.5395 450.648 L67.5395 438.585 L72.091 438.585 L72.091 450.648 L91.4427 450.648 Q95.8032 450.648 97.0445 449.47 Q98.2859 448.261 98.2859 444.601 L98.2859 438.585 L103.187 438.585 L103.187 444.601 Q103.187 451.38 100.673 453.958 Q98.1267 456.536 91.4427 456.536 L72.091 456.536 L72.091 460.833 L67.5395 460.833 L67.5395 456.536 L57.418 456.536 L57.418 450.648 Z"
     fill="#000000"
     fill-rule="evenodd"
     fill-opacity="1"
     id="path163" />
  <path
     clip-path="url(#clip140)"
     d="M53.6623 410.703 L53.6623 397.208 L58.2137 397.208 L58.2137 404.847 L107.23 404.847 L107.23 397.208 L111.781 397.208 L111.781 410.703 L53.6623 410.703 Z"
     fill="#000000"
     fill-rule="evenodd"
     fill-opacity="1"
     id="path165" />
  <path
     clip-path="url(#clip140)"
     d="M116.746 385.336 L67.5395 385.336 L67.5395 379.479 L89.6922 379.479 Q94.3073 379.479 96.6626 377.283 Q99.0179 375.087 99.0179 370.79 Q99.0179 366.08 96.3443 363.724 Q93.6707 361.337 88.3235 361.337 L67.5395 361.337 L67.5395 355.481 L94.9757 355.481 Q96.8854 355.481 97.8084 354.94 Q98.6996 354.367 98.6996 353.189 Q98.6996 352.903 98.5405 352.393 Q98.3495 351.884 97.9676 350.993 L102.678 350.993 Q103.41 352.298 103.76 353.475 Q104.11 354.621 104.11 355.735 Q104.11 357.931 102.869 359.236 Q101.628 360.541 99.0816 361.019 Q101.596 362.61 102.869 364.934 Q104.11 367.225 104.11 370.345 Q104.11 373.591 102.869 375.883 Q101.628 378.143 99.1452 379.479 L116.746 379.479 L116.746 385.336 Z"
     fill="#000000"
     fill-rule="evenodd"
     fill-opacity="1"
     id="path167" />
  <path
     clip-path="url(#clip140)"
     d="M74.3826 315.504 Q70.4359 313.308 68.558 310.252 Q66.6801 307.197 66.6801 303.059 Q66.6801 297.489 70.595 294.465 Q74.4781 291.442 81.6714 291.442 L103.187 291.442 L103.187 297.33 L81.8623 297.33 Q76.7379 297.33 74.2553 299.144 Q71.7727 300.958 71.7727 304.682 Q71.7727 309.234 74.7964 311.876 Q77.8201 314.517 83.04 314.517 L103.187 314.517 L103.187 320.406 L81.8623 320.406 Q76.7061 320.406 74.2553 322.22 Q71.7727 324.034 71.7727 327.822 Q71.7727 332.31 74.8282 334.951 Q77.8519 337.593 83.04 337.593 L103.187 337.593 L103.187 343.481 L67.5395 343.481 L67.5395 337.593 L73.0777 337.593 Q69.7993 335.588 68.2397 332.787 Q66.6801 329.986 66.6801 326.135 Q66.6801 322.252 68.6535 319.546 Q70.6269 316.809 74.3826 315.504 Z"
     fill="#000000"
     fill-rule="evenodd"
     fill-opacity="1"
     id="path169" />
  <path
     clip-path="url(#clip140)"
     d="M53.6623 266.074 L111.781 266.074 L111.781 279.57 L107.23 279.57 L107.23 271.963 L58.2137 271.963 L58.2137 279.57 L53.6623 279.57 L53.6623 266.074 Z"
     fill="#000000"
     fill-rule="evenodd"
     fill-opacity="1"
     id="path171" />
  <path
     clip-path="url(#clip142)"
     d=" M522.863 959.487 L525.261 957.873 L527.493 956.26 L529.546 954.647 L531.408 953.034 L533.068 951.421 L534.516 949.808 L535.743 948.195 L536.742 946.582 L537.506 944.969    L538.032 943.356 L538.315 941.743 L538.354 940.129 L538.149 938.516 L537.7 936.903 L537.012 935.29 L536.087 933.677 L534.932 932.064 L533.554 930.451 L531.961 928.838    L530.162 927.225 L528.169 925.612 L525.993 923.998 L523.647 922.385 L521.144 920.772 L518.498 919.159 L322.355 919.159 L319.709 920.772 L317.206 922.385 L314.86 923.998    L312.684 925.612 L310.691 927.225 L308.893 928.838 L307.299 930.451 L305.921 932.064 L304.766 933.677 L303.842 935.29 L303.153 936.903 L302.705 938.516 L302.499 940.129    L302.538 941.743 L302.821 943.356 L303.347 944.969 L304.111 946.582 L305.11 948.195 L306.337 949.808 L307.785 951.421 L309.445 953.034 L311.307 954.647 L313.36 956.26    L315.592 957.873 L317.99 959.487 L522.863 959.487  Z   "
     fill="#000000"
     fill-rule="evenodd"
     fill-opacity="0.2"
     id="path173" />
  <polyline
     clip-path="url(#clip142)"
     style="stroke:#000000; stroke-linecap:butt; stroke-linejoin:round; stroke-width:4; stroke-opacity:1; fill:none"
     points="   522.863,959.487 525.261,957.873 527.493,956.26 529.546,954.647 531.408,953.034 533.068,951.421 534.516,949.808 535.743,948.195 536.742,946.582 537.506,944.969    538.032,943.356 538.315,941.743 538.354,940.129 538.149,938.516 537.7,936.903 537.012,935.29 536.087,933.677 534.932,932.064 533.554,930.451 531.961,928.838    530.162,927.225 528.169,925.612 525.993,923.998 523.647,922.385 521.144,920.772 518.498,919.159 322.355,919.159 319.709,920.772 317.206,922.385 314.86,923.998    312.684,925.612 310.691,927.225 308.893,928.838 307.299,930.451 305.921,932.064 304.766,933.677 303.842,935.29 303.153,936.903 302.705,938.516 302.499,940.129    302.538,941.743 302.821,943.356 303.347,944.969 304.111,946.582 305.11,948.195 306.337,949.808 307.785,951.421 309.445,953.034 311.307,954.647 313.36,956.26    315.592,957.873 317.99,959.487 522.863,959.487    "
     id="polyline175" />
  <path
     clip-path="url(#clip142)"
     d=" M730.587 797.475 L733.409 792.677 L736.537 787.878 L739.959 783.08 L743.651 778.282 L747.578 773.484 L751.695 768.686 L755.947 763.888 L760.269 759.089 L764.593 754.291    L768.845 749.493 L772.953 744.695 L776.851 739.897 L780.478 735.099 L783.789 730.3 L786.752 725.502 L789.352 720.704 L791.595 715.906 L793.503 711.108 L795.115 706.31    L796.487 701.511 L797.68 696.713 L798.765 691.915 L799.812 687.117 L800.888 682.319 L802.052 677.521 L803.352 672.722 L804.821 667.924 L806.478 663.126 L808.327 658.328    L810.354 653.53 L812.536 648.732 L814.836 643.933 L817.206 639.135 L819.595 634.337 L821.947 629.539 L824.203 624.741 L826.307 619.943 L828.206 615.144 L829.851 610.346    L831.2 605.548 L832.219 600.75 L832.883 595.952 L833.173 591.153 L833.079 586.355 L832.6 581.557 L831.74 576.759 L830.51 571.961 L828.927 567.163 L827.01 562.364    L824.784 557.566 L822.277 552.768 L819.517 547.97 L816.539 543.172 L813.375 538.374 L810.063 533.575 L806.639 528.777 L803.138 523.979 L799.596 519.181 L796.045 514.383    L792.515 509.585 L789.031 504.786 L785.613 499.988 L782.276 495.19 L779.029 490.392 L775.878 485.594 L772.823 480.796 L769.86 475.997 L766.987 471.199 L764.197 466.401    L761.487 461.603 L758.853 456.805 L756.295 452.007 L753.816 447.208 L751.42 442.41 L749.115 437.612 L746.91 432.814 L744.818 428.016 L742.848 423.218 L741.011 418.419    L739.315 413.621 L737.767 408.823 L736.368 404.025 L735.116 399.227 L734.005 394.429 L733.026 389.63 L732.164 384.832 L731.405 380.034 L730.731 375.236 L730.123 370.438    L729.565 365.639 L729.042 360.841 L728.541 356.043 L728.055 351.245 L727.577 346.447 L727.109 341.649 L726.653 336.85 L726.215 332.052 L725.802 327.254 L725.424 322.456    L725.088 317.658 L724.802 312.86 L724.571 308.061 L724.397 303.263 L724.28 298.465 L724.216 293.667 L724.199 288.869 L724.221 284.071 L724.272 279.272 L724.342 274.474    L724.421 269.676 L724.499 264.878 L724.568 260.08 L724.622 255.282 L724.659 250.483 L724.675 245.685 L724.673 240.887 L724.654 236.089 L724.624 231.291 L724.587 226.493    L724.548 221.694 L724.512 216.896 L724.48 212.098 L724.454 207.3 L724.433 202.502 L724.414 197.704 L724.39 192.905 L724.355 188.107 L724.3 183.309 L724.217 178.511    L724.098 173.713 L723.935 168.915 L723.722 164.116 L723.456 159.318 L723.136 154.52 L722.764 149.722 L722.344 144.924 L721.882 140.125 L721.386 135.327 L720.866 130.529    L709.624 130.529 L709.105 135.327 L708.609 140.125 L708.146 144.924 L707.726 149.722 L707.354 154.52 L707.034 159.318 L706.769 164.116 L706.556 168.915 L706.392 173.713    L706.273 178.511 L706.19 183.309 L706.136 188.107 L706.101 192.905 L706.077 197.704 L706.057 202.502 L706.036 207.3 L706.011 212.098 L705.979 216.896 L705.942 221.694    L705.903 226.493 L705.866 231.291 L705.836 236.089 L705.818 240.887 L705.815 245.685 L705.832 250.483 L705.868 255.282 L705.923 260.08 L705.992 264.878 L706.07 269.676    L706.148 274.474 L706.219 279.272 L706.27 284.071 L706.292 288.869 L706.275 293.667 L706.211 298.465 L706.093 303.263 L705.919 308.061 L705.688 312.86 L705.402 317.658    L705.066 322.456 L704.688 327.254 L704.275 332.052 L703.837 336.85 L703.381 341.649 L702.913 346.447 L702.436 351.245 L701.949 356.043 L701.448 360.841 L700.925 365.639    L700.367 370.438 L699.759 375.236 L699.085 380.034 L698.326 384.832 L697.465 389.63 L696.486 394.429 L695.375 399.227 L694.123 404.025 L692.724 408.823 L691.175 413.621    L689.48 418.419 L687.643 423.218 L685.673 428.016 L683.58 432.814 L681.376 437.612 L679.071 442.41 L676.675 447.208 L674.195 452.007 L671.637 456.805 L669.004 461.603    L666.293 466.401 L663.504 471.199 L660.63 475.997 L657.668 480.796 L654.612 485.594 L651.461 490.392 L648.214 495.19 L644.877 499.988 L641.459 504.786 L637.975 509.585    L634.446 514.383 L630.895 519.181 L627.353 523.979 L623.852 528.777 L620.427 533.575 L617.115 538.374 L613.952 543.172 L610.973 547.97 L608.214 552.768 L605.706 557.566    L603.48 562.364 L601.563 567.163 L599.98 571.961 L598.75 576.759 L597.891 581.557 L597.411 586.355 L597.318 591.153 L597.608 595.952 L598.271 600.75 L599.29 605.548    L600.64 610.346 L602.284 615.144 L604.183 619.943 L606.287 624.741 L608.543 629.539 L610.895 634.337 L613.284 639.135 L615.655 643.933 L617.954 648.732 L620.136 653.53    L622.164 658.328 L624.012 663.126 L625.669 667.924 L627.138 672.722 L628.438 677.521 L629.602 682.319 L630.678 687.117 L631.725 691.915 L632.81 696.713 L634.004 701.511    L635.375 706.31 L636.988 711.108 L638.896 715.906 L641.138 720.704 L643.739 725.502 L646.701 730.3 L650.012 735.099 L653.64 739.897 L657.537 744.695 L661.646 749.493    L665.898 754.291 L670.221 759.089 L674.544 763.888 L678.795 768.686 L682.912 773.484 L686.839 778.282 L690.531 783.08 L693.953 787.878 L697.082 792.677 L699.904 797.475    L730.587 797.475  Z   "
     fill="#000000"
     fill-rule="evenodd"
     fill-opacity="0.2"
     id="path177" />
  <polyline
     clip-path="url(#clip142)"
     style="stroke:#000000; stroke-linecap:butt; stroke-linejoin:round; stroke-width:4; stroke-opacity:1; fill:none"
     points="   730.587,797.475 733.409,792.677 736.537,787.878 739.959,783.08 743.651,778.282 747.578,773.484 751.695,768.686 755.947,763.888 760.269,759.089 764.593,754.291    768.845,749.493 772.953,744.695 776.851,739.897 780.478,735.099 783.789,730.3 786.752,725.502 789.352,720.704 791.595,715.906 793.503,711.108 795.115,706.31    796.487,701.511 797.68,696.713 798.765,691.915 799.812,687.117 800.888,682.319 802.052,677.521 803.352,672.722 804.821,667.924 806.478,663.126 808.327,658.328    810.354,653.53 812.536,648.732 814.836,643.933 817.206,639.135 819.595,634.337 821.947,629.539 824.203,624.741 826.307,619.943 828.206,615.144 829.851,610.346    831.2,605.548 832.219,600.75 832.883,595.952 833.173,591.153 833.079,586.355 832.6,581.557 831.74,576.759 830.51,571.961 828.927,567.163 827.01,562.364    824.784,557.566 822.277,552.768 819.517,547.97 816.539,543.172 813.375,538.374 810.063,533.575 806.639,528.777 803.138,523.979 799.596,519.181 796.045,514.383    792.515,509.585 789.031,504.786 785.613,499.988 782.276,495.19 779.029,490.392 775.878,485.594 772.823,480.796 769.86,475.997 766.987,471.199 764.197,466.401    761.487,461.603 758.853,456.805 756.295,452.007 753.816,447.208 751.42,442.41 749.115,437.612 746.91,432.814 744.818,428.016 742.848,423.218 741.011,418.419    739.315,413.621 737.767,408.823 736.368,404.025 735.116,399.227 734.005,394.429 733.026,389.63 732.164,384.832 731.405,380.034 730.731,375.236 730.123,370.438    729.565,365.639 729.042,360.841 728.541,356.043 728.055,351.245 727.577,346.447 727.109,341.649 726.653,336.85 726.215,332.052 725.802,327.254 725.424,322.456    725.088,317.658 724.802,312.86 724.571,308.061 724.397,303.263 724.28,298.465 724.216,293.667 724.199,288.869 724.221,284.071 724.272,279.272 724.342,274.474    724.421,269.676 724.499,264.878 724.568,260.08 724.622,255.282 724.659,250.483 724.675,245.685 724.673,240.887 724.654,236.089 724.624,231.291 724.587,226.493    724.548,221.694 724.512,216.896 724.48,212.098 724.454,207.3 724.433,202.502 724.414,197.704 724.39,192.905 724.355,188.107 724.3,183.309 724.217,178.511    724.098,173.713 723.935,168.915 723.722,164.116 723.456,159.318 723.136,154.52 722.764,149.722 722.344,144.924 721.882,140.125 721.386,135.327 720.866,130.529    709.624,130.529 709.105,135.327 708.609,140.125 708.146,144.924 707.726,149.722 707.354,154.52 707.034,159.318 706.769,164.116 706.556,168.915 706.392,173.713    706.273,178.511 706.19,183.309 706.136,188.107 706.101,192.905 706.077,197.704 706.057,202.502 706.036,207.3 706.011,212.098 705.979,216.896 705.942,221.694    705.903,226.493 705.866,231.291 705.836,236.089 705.818,240.887 705.815,245.685 705.832,250.483 705.868,255.282 705.923,260.08 705.992,264.878 706.07,269.676    706.148,274.474 706.219,279.272 706.27,284.071 706.292,288.869 706.275,293.667 706.211,298.465 706.093,303.263 705.919,308.061 705.688,312.86 705.402,317.658    705.066,322.456 704.688,327.254 704.275,332.052 703.837,336.85 703.381,341.649 702.913,346.447 702.436,351.245 701.949,356.043 701.448,360.841 700.925,365.639    700.367,370.438 699.759,375.236 699.085,380.034 698.326,384.832 697.465,389.63 696.486,394.429 695.375,399.227 694.123,404.025 692.724,408.823 691.175,413.621    689.48,418.419 687.643,423.218 685.673,428.016 683.58,432.814 681.376,437.612 679.071,442.41 676.675,447.208 674.195,452.007 671.637,456.805 669.004,461.603    666.293,466.401 663.504,471.199 660.63,475.997 657.668,480.796 654.612,485.594 651.461,490.392 648.214,495.19 644.877,499.988 641.459,504.786 637.975,509.585    634.446,514.383 630.895,519.181 627.353,523.979 623.852,528.777 620.427,533.575 617.115,538.374 613.952,543.172 610.973,547.97 608.214,552.768 605.706,557.566    603.48,562.364 601.563,567.163 599.98,571.961 598.75,576.759 597.891,581.557 597.411,586.355 597.318,591.153 597.608,595.952 598.271,600.75 599.29,605.548    600.64,610.346 602.284,615.144 604.183,619.943 606.287,624.741 608.543,629.539 610.895,634.337 613.284,639.135 615.655,643.933 617.954,648.732 620.136,653.53    622.164,658.328 624.012,663.126 625.669,667.924 627.138,672.722 628.438,677.521 629.602,682.319 630.678,687.117 631.725,691.915 632.81,696.713 634.004,701.511    635.375,706.31 636.988,711.108 638.896,715.906 641.138,720.704 643.739,725.502 646.701,730.3 650.012,735.099 653.64,739.897 657.537,744.695 661.646,749.493    665.898,754.291 670.221,759.089 674.544,763.888 678.795,768.686 682.912,773.484 686.839,778.282 690.531,783.08 693.953,787.878 697.082,792.677 699.904,797.475    730.587,797.475    "
     id="polyline179" />
  <path
     clip-path="url(#clip142)"
     d=" M1034.24 1061.13 L1037.15 1058.1 L1040.28 1055.07 L1043.6 1052.04 L1047.13 1049.01 L1050.84 1045.99 L1054.73 1042.96 L1058.77 1039.93 L1062.94 1036.9 L1067.22 1033.87    L1071.59 1030.84 L1076.01 1027.81 L1080.44 1024.79 L1084.87 1021.76 L1089.24 1018.73 L1093.54 1015.7 L1097.71 1012.67 L1101.73 1009.64 L1105.56 1006.61 L1109.17 1003.58    L1112.52 1000.56 L1115.6 997.528 L1118.37 994.499 L1120.81 991.471 L1122.91 988.442 L1124.66 985.413 L1126.04 982.385 L1127.06 979.356 L1127.71 976.327 L1127.99 973.299    L1127.92 970.27 L1127.51 967.242 L1126.77 964.213 L1125.73 961.184 L1124.39 958.156 L1122.79 955.127 L1120.95 952.099 L1118.89 949.07 L1116.65 946.041 L1114.23 943.013    L1111.67 939.984 L1109 936.955 L1106.23 933.927 L1103.38 930.898 L1100.48 927.87 L1097.53 924.841 L1094.57 921.812 L1091.6 918.784 L1088.63 915.755 L1085.68 912.727    L1082.75 909.698 L1079.86 906.669 L1077.01 903.641 L1074.21 900.612 L1071.47 897.584 L1068.78 894.555 L1066.16 891.526 L1063.61 888.498 L1061.14 885.469 L1058.74 882.44    L1056.42 879.412 L1054.19 876.383 L1052.05 873.355 L1049.99 870.326 L1048.03 867.297 L1046.16 864.269 L1044.39 861.24 L1042.7 858.212 L1041.11 855.183 L1039.62 852.154    L1038.21 849.126 L1036.9 846.097 L1035.66 843.069 L1034.51 840.04 L1033.44 837.011 L1032.44 833.983 L1031.51 830.954 L1030.64 827.925 L1029.84 824.897 L1029.08 821.868    L1028.37 818.84 L1027.71 815.811 L1027.09 812.782 L1026.49 809.754 L1025.93 806.725 L1025.39 803.697 L1024.87 800.668 L1024.36 797.639 L1023.87 794.611 L1023.39 791.582    L1022.91 788.554 L1022.44 785.525 L1021.96 782.496 L1021.49 779.468 L1021.02 776.439 L1020.54 773.41 L1020.06 770.382 L1019.57 767.353 L1019.09 764.325 L1018.6 761.296    L1018.11 758.267 L1017.62 755.239 L1017.14 752.21 L1016.66 749.182 L1016.18 746.153 L1015.72 743.124 L1004.41 743.124 L1003.94 746.153 L1003.47 749.182 L1002.99 752.21    L1002.51 755.239 L1002.02 758.267 L1001.53 761.296 L1001.04 764.325 L1000.55 767.353 L1000.07 770.382 L999.589 773.41 L999.111 776.439 L998.636 779.468 L998.163 782.496    L997.69 785.525 L997.216 788.554 L996.738 791.582 L996.255 794.611 L995.763 797.639 L995.258 800.668 L994.738 803.697 L994.198 806.725 L993.634 809.754 L993.042 812.782    L992.416 815.811 L991.753 818.84 L991.046 821.868 L990.291 824.897 L989.483 827.925 L988.616 830.954 L987.686 833.983 L986.687 837.011 L985.614 840.04 L984.464 843.069    L983.232 846.097 L981.914 849.126 L980.509 852.154 L979.013 855.183 L977.424 858.212 L975.742 861.24 L973.966 864.269 L972.097 867.297 L970.134 870.326 L968.08 873.355    L965.935 876.383 L963.704 879.412 L961.388 882.44 L958.99 885.469 L956.515 888.498 L953.965 891.526 L951.346 894.555 L948.661 897.584 L945.916 900.612 L943.115 903.641    L940.266 906.669 L937.375 909.698 L934.449 912.727 L931.497 915.755 L928.53 918.784 L925.557 921.812 L922.593 924.841 L919.651 927.87 L916.748 930.898 L913.901 933.927    L911.129 936.955 L908.453 939.984 L905.896 943.013 L903.481 946.041 L901.233 949.07 L899.176 952.099 L897.336 955.127 L895.736 958.156 L894.402 961.184 L893.356 964.213    L892.617 967.242 L892.206 970.27 L892.136 973.299 L892.421 976.327 L893.069 979.356 L894.084 982.385 L895.467 985.413 L897.214 988.442 L899.316 991.471 L901.761 994.499    L904.531 997.528 L907.606 1000.56 L910.961 1003.58 L914.568 1006.61 L918.398 1009.64 L922.417 1012.67 L926.59 1015.7 L930.883 1018.73 L935.26 1021.76 L939.684 1024.79    L944.122 1027.81 L948.539 1030.84 L952.904 1033.87 L957.186 1036.9 L961.36 1039.93 L965.399 1042.96 L969.285 1045.99 L972.998 1049.01 L976.524 1052.04 L979.852 1055.07    L982.974 1058.1 L985.885 1061.13 L1034.24 1061.13  Z   "
     fill="#000000"
     fill-rule="evenodd"
     fill-opacity="0.2"
     id="path181" />
  <polyline
     clip-path="url(#clip142)"
     style="stroke:#000000; stroke-linecap:butt; stroke-linejoin:round; stroke-width:4; stroke-opacity:1; fill:none"
     points="   1034.24,1061.13 1037.15,1058.1 1040.28,1055.07 1043.6,1052.04 1047.13,1049.01 1050.84,1045.99 1054.73,1042.96 1058.77,1039.93 1062.94,1036.9 1067.22,1033.87    1071.59,1030.84 1076.01,1027.81 1080.44,1024.79 1084.87,1021.76 1089.24,1018.73 1093.54,1015.7 1097.71,1012.67 1101.73,1009.64 1105.56,1006.61 1109.17,1003.58    1112.52,1000.56 1115.6,997.528 1118.37,994.499 1120.81,991.471 1122.91,988.442 1124.66,985.413 1126.04,982.385 1127.06,979.356 1127.71,976.327 1127.99,973.299    1127.92,970.27 1127.51,967.242 1126.77,964.213 1125.73,961.184 1124.39,958.156 1122.79,955.127 1120.95,952.099 1118.89,949.07 1116.65,946.041 1114.23,943.013    1111.67,939.984 1109,936.955 1106.23,933.927 1103.38,930.898 1100.48,927.87 1097.53,924.841 1094.57,921.812 1091.6,918.784 1088.63,915.755 1085.68,912.727    1082.75,909.698 1079.86,906.669 1077.01,903.641 1074.21,900.612 1071.47,897.584 1068.78,894.555 1066.16,891.526 1063.61,888.498 1061.14,885.469 1058.74,882.44    1056.42,879.412 1054.19,876.383 1052.05,873.355 1049.99,870.326 1048.03,867.297 1046.16,864.269 1044.39,861.24 1042.7,858.212 1041.11,855.183 1039.62,852.154    1038.21,849.126 1036.9,846.097 1035.66,843.069 1034.51,840.04 1033.44,837.011 1032.44,833.983 1031.51,830.954 1030.64,827.925 1029.84,824.897 1029.08,821.868    1028.37,818.84 1027.71,815.811 1027.09,812.782 1026.49,809.754 1025.93,806.725 1025.39,803.697 1024.87,800.668 1024.36,797.639 1023.87,794.611 1023.39,791.582    1022.91,788.554 1022.44,785.525 1021.96,782.496 1021.49,779.468 1021.02,776.439 1020.54,773.41 1020.06,770.382 1019.57,767.353 1019.09,764.325 1018.6,761.296    1018.11,758.267 1017.62,755.239 1017.14,752.21 1016.66,749.182 1016.18,746.153 1015.72,743.124 1004.41,743.124 1003.94,746.153 1003.47,749.182 1002.99,752.21    1002.51,755.239 1002.02,758.267 1001.53,761.296 1001.04,764.325 1000.55,767.353 1000.07,770.382 999.589,773.41 999.111,776.439 998.636,779.468 998.163,782.496    997.69,785.525 997.216,788.554 996.738,791.582 996.255,794.611 995.763,797.639 995.258,800.668 994.738,803.697 994.198,806.725 993.634,809.754 993.042,812.782    992.416,815.811 991.753,818.84 991.046,821.868 990.291,824.897 989.483,827.925 988.616,830.954 987.686,833.983 986.687,837.011 985.614,840.04 984.464,843.069    983.232,846.097 981.914,849.126 980.509,852.154 979.013,855.183 977.424,858.212 975.742,861.24 973.966,864.269 972.097,867.297 970.134,870.326 968.08,873.355    965.935,876.383 963.704,879.412 961.388,882.44 958.99,885.469 956.515,888.498 953.965,891.526 951.346,894.555 948.661,897.584 945.916,900.612 943.115,903.641    940.266,906.669 937.375,909.698 934.449,912.727 931.497,915.755 928.53,918.784 925.557,921.812 922.593,924.841 919.651,927.87 916.748,930.898 913.901,933.927    911.129,936.955 908.453,939.984 905.896,943.013 903.481,946.041 901.233,949.07 899.176,952.099 897.336,955.127 895.736,958.156 894.402,961.184 893.356,964.213    892.617,967.242 892.206,970.27 892.136,973.299 892.421,976.327 893.069,979.356 894.084,982.385 895.467,985.413 897.214,988.442 899.316,991.471 901.761,994.499    904.531,997.528 907.606,1000.56 910.961,1003.58 914.568,1006.61 918.398,1009.64 922.417,1012.67 926.59,1015.7 930.883,1018.73 935.26,1021.76 939.684,1024.79    944.122,1027.81 948.539,1030.84 952.904,1033.87 957.186,1036.9 961.36,1039.93 965.399,1042.96 969.285,1045.99 972.998,1049.01 976.524,1052.04 979.852,1055.07    982.974,1058.1 985.885,1061.13 1034.24,1061.13    "
     id="polyline183" />
  <circle
     clip-path="url(#clip142)"
     cx="420.427"
     cy="940.583"
     r="18"
     fill="#000000"
     fill-rule="evenodd"
     fill-opacity="1"
     stroke="none"
     id="circle185" />
  <circle
     clip-path="url(#clip142)"
     cx="715.245"
     cy="580.86"
     r="18"
     fill="#000000"
     fill-rule="evenodd"
     fill-opacity="1"
     stroke="none"
     id="circle187" />
  <circle
     clip-path="url(#clip142)"
     cx="1010.06"
     cy="953.063"
     r="18"
     fill="#000000"
     fill-rule="evenodd"
     fill-opacity="1"
     stroke="none"
     id="circle189" />
  <path
     clip-path="url(#clip142)"
     d="M420.427 940.61 L400.427 980.61 L440.427 980.61 L420.427 940.61 Z"
     fill="#e69f00"
     fill-rule="evenodd"
     fill-opacity="1"
     stroke="#000000"
     stroke-opacity="1"
     stroke-width="2.4"
     id="path191" />
  <path
     clip-path="url(#clip142)"
     d="M715.245 220.916 L695.245 260.916 L735.245 260.916 L715.245 220.916 Z"
     fill="#e69f00"
     fill-rule="evenodd"
     fill-opacity="1"
     stroke="#000000"
     stroke-opacity="1"
     stroke-width="2.4"
     id="path193" />
  <path
     clip-path="url(#clip142)"
     d="M1010.06 807.251 L990.064 847.251 L1030.06 847.251 L1010.06 807.251 Z"
     fill="#e69f00"
     fill-rule="evenodd"
     fill-opacity="1"
     stroke="#000000"
     stroke-opacity="1"
     stroke-width="2.4"
     id="path195" />
  <path
     clip-path="url(#clip140)"
     d=" M802.569 293.001 L1123.59 293.001 L1123.59 85.6405 L802.569 85.6405  Z   "
     fill="#ffffff"
     fill-rule="evenodd"
     fill-opacity="1"
     id="path197" />
  <polyline
     clip-path="url(#clip140)"
     style="stroke:#000000; stroke-linecap:butt; stroke-linejoin:round; stroke-width:4; stroke-opacity:1; fill:none"
     points="   802.569,293.001 1123.59,293.001 1123.59,85.6405 802.569,85.6405 802.569,293.001    "
     id="polyline199" />
  <path
     clip-path="url(#clip140)"
     d=" M812.291 158.217 L870.626 158.217 L870.626 116.745 L812.291 116.745 L812.291 158.217  Z   "
     fill="#000000"
     fill-rule="evenodd"
     fill-opacity="0.2"
     id="path201" />
  <polyline
     clip-path="url(#clip140)"
     style="stroke:#000000; stroke-linecap:butt; stroke-linejoin:round; stroke-width:4; stroke-opacity:1; fill:none"
     points="   812.291,158.217 870.626,158.217 870.626,116.745 812.291,116.745 812.291,158.217    "
     id="polyline203" />
  <path
     clip-path="url(#clip140)"
     d="M885.024 138.256 L885.024 150.918 L892.524 150.918 Q896.297 150.918 898.103 149.367 Q899.932 147.793 899.932 144.575 Q899.932 141.335 898.103 139.807 Q896.297 138.256 892.524 138.256 L885.024 138.256 M885.024 124.043 L885.024 134.46 L891.946 134.46 Q895.372 134.46 897.038 133.187 Q898.728 131.89 898.728 129.251 Q898.728 126.636 897.038 125.339 Q895.372 124.043 891.946 124.043 L885.024 124.043 M880.349 120.201 L892.293 120.201 Q897.64 120.201 900.534 122.423 Q903.427 124.645 903.427 128.742 Q903.427 131.913 901.946 133.788 Q900.464 135.663 897.594 136.126 Q901.043 136.867 902.941 139.228 Q904.862 141.566 904.862 145.085 Q904.862 149.714 901.714 152.237 Q898.566 154.761 892.756 154.761 L880.349 154.761 L880.349 120.201 Z"
     fill="#000000"
     fill-rule="evenodd"
     fill-opacity="1"
     id="path205" />
  <path
     clip-path="url(#clip140)"
     d="M922.733 131.821 Q919.307 131.821 917.316 134.506 Q915.325 137.168 915.325 141.821 Q915.325 146.474 917.293 149.159 Q919.283 151.821 922.733 151.821 Q926.135 151.821 928.126 149.136 Q930.117 146.45 930.117 141.821 Q930.117 137.214 928.126 134.529 Q926.135 131.821 922.733 131.821 M922.733 128.21 Q928.288 128.21 931.459 131.821 Q934.631 135.432 934.631 141.821 Q934.631 148.186 931.459 151.821 Q928.288 155.432 922.733 155.432 Q917.154 155.432 913.983 151.821 Q910.834 148.186 910.834 141.821 Q910.834 135.432 913.983 131.821 Q917.154 128.21 922.733 128.21 Z"
     fill="#000000"
     fill-rule="evenodd"
     fill-opacity="1"
     id="path207" />
  <path
     clip-path="url(#clip140)"
     d="M951.737 131.821 Q948.311 131.821 946.32 134.506 Q944.33 137.168 944.33 141.821 Q944.33 146.474 946.297 149.159 Q948.288 151.821 951.737 151.821 Q955.14 151.821 957.131 149.136 Q959.121 146.45 959.121 141.821 Q959.121 137.214 957.131 134.529 Q955.14 131.821 951.737 131.821 M951.737 128.21 Q957.293 128.21 960.464 131.821 Q963.635 135.432 963.635 141.821 Q963.635 148.186 960.464 151.821 Q957.293 155.432 951.737 155.432 Q946.158 155.432 942.987 151.821 Q939.839 148.186 939.839 141.821 Q939.839 135.432 942.987 131.821 Q946.158 128.21 951.737 128.21 Z"
     fill="#000000"
     fill-rule="evenodd"
     fill-opacity="1"
     id="path209" />
  <path
     clip-path="url(#clip140)"
     d="M974.908 121.474 L974.908 128.835 L983.681 128.835 L983.681 132.145 L974.908 132.145 L974.908 146.219 Q974.908 149.39 975.765 150.293 Q976.644 151.196 979.306 151.196 L983.681 151.196 L983.681 154.761 L979.306 154.761 Q974.376 154.761 972.501 152.932 Q970.626 151.08 970.626 146.219 L970.626 132.145 L967.501 132.145 L967.501 128.835 L970.626 128.835 L970.626 121.474 L974.908 121.474 Z"
     fill="#000000"
     fill-rule="evenodd"
     fill-opacity="1"
     id="path211" />
  <path
     clip-path="url(#clip140)"
     d="M1005.81 129.599 L1005.81 133.626 Q1004.01 132.7 1002.06 132.237 Q1000.12 131.775 998.033 131.775 Q994.862 131.775 993.265 132.747 Q991.691 133.719 991.691 135.663 Q991.691 137.145 992.825 138.001 Q993.959 138.835 997.385 139.599 L998.843 139.923 Q1003.38 140.895 1005.28 142.677 Q1007.2 144.437 1007.2 147.608 Q1007.2 151.219 1004.33 153.325 Q1001.48 155.432 996.482 155.432 Q994.399 155.432 992.13 155.015 Q989.885 154.622 987.385 153.811 L987.385 149.413 Q989.746 150.64 992.038 151.265 Q994.329 151.867 996.575 151.867 Q999.584 151.867 1001.2 150.849 Q1002.82 149.807 1002.82 147.932 Q1002.82 146.196 1001.64 145.27 Q1000.49 144.344 996.528 143.487 L995.047 143.14 Q991.089 142.307 989.329 140.594 Q987.57 138.858 987.57 135.849 Q987.57 132.191 990.163 130.2 Q992.755 128.21 997.524 128.21 Q999.885 128.21 1001.97 128.557 Q1004.05 128.904 1005.81 129.599 Z"
     fill="#000000"
     fill-rule="evenodd"
     fill-opacity="1"
     id="path213" />
  <path
     clip-path="url(#clip140)"
     d="M1018.19 121.474 L1018.19 128.835 L1026.97 128.835 L1026.97 132.145 L1018.19 132.145 L1018.19 146.219 Q1018.19 149.39 1019.05 150.293 Q1019.93 151.196 1022.59 151.196 L1026.97 151.196 L1026.97 154.761 L1022.59 154.761 Q1017.66 154.761 1015.79 152.932 Q1013.91 151.08 1013.91 146.219 L1013.91 132.145 L1010.79 132.145 L1010.79 128.835 L1013.91 128.835 L1013.91 121.474 L1018.19 121.474 Z"
     fill="#000000"
     fill-rule="evenodd"
     fill-opacity="1"
     id="path215" />
  <path
     clip-path="url(#clip140)"
     d="M1047.59 132.816 Q1046.88 132.4 1046.02 132.214 Q1045.19 132.006 1044.17 132.006 Q1040.56 132.006 1038.61 134.367 Q1036.69 136.705 1036.69 141.103 L1036.69 154.761 L1032.41 154.761 L1032.41 128.835 L1036.69 128.835 L1036.69 132.862 Q1038.03 130.501 1040.19 129.367 Q1042.34 128.21 1045.42 128.21 Q1045.86 128.21 1046.39 128.279 Q1046.92 128.325 1047.57 128.441 L1047.59 132.816 Z"
     fill="#000000"
     fill-rule="evenodd"
     fill-opacity="1"
     id="path217" />
  <path
     clip-path="url(#clip140)"
     d="M1063.84 141.728 Q1058.68 141.728 1056.69 142.909 Q1054.7 144.089 1054.7 146.936 Q1054.7 149.205 1056.18 150.548 Q1057.69 151.867 1060.25 151.867 Q1063.8 151.867 1065.93 149.367 Q1068.08 146.844 1068.08 142.677 L1068.08 141.728 L1063.84 141.728 M1072.34 139.969 L1072.34 154.761 L1068.08 154.761 L1068.08 150.825 Q1066.62 153.186 1064.44 154.321 Q1062.27 155.432 1059.12 155.432 Q1055.14 155.432 1052.78 153.21 Q1050.44 150.964 1050.44 147.214 Q1050.44 142.839 1053.36 140.617 Q1056.3 138.395 1062.11 138.395 L1068.08 138.395 L1068.08 137.978 Q1068.08 135.038 1066.13 133.441 Q1064.21 131.821 1060.72 131.821 Q1058.5 131.821 1056.39 132.353 Q1054.28 132.886 1052.34 133.95 L1052.34 130.015 Q1054.68 129.113 1056.88 128.673 Q1059.07 128.21 1061.16 128.21 Q1066.78 128.21 1069.56 131.126 Q1072.34 134.043 1072.34 139.969 Z"
     fill="#000000"
     fill-rule="evenodd"
     fill-opacity="1"
     id="path219" />
  <path
     clip-path="url(#clip140)"
     d="M1085.23 150.872 L1085.23 164.622 L1080.95 164.622 L1080.95 128.835 L1085.23 128.835 L1085.23 132.77 Q1086.57 130.455 1088.61 129.344 Q1090.67 128.21 1093.52 128.21 Q1098.24 128.21 1101.18 131.96 Q1104.14 135.71 1104.14 141.821 Q1104.14 147.932 1101.18 151.682 Q1098.24 155.432 1093.52 155.432 Q1090.67 155.432 1088.61 154.321 Q1086.57 153.186 1085.23 150.872 M1099.72 141.821 Q1099.72 137.122 1097.78 134.46 Q1095.86 131.775 1092.48 131.775 Q1089.1 131.775 1087.15 134.46 Q1085.23 137.122 1085.23 141.821 Q1085.23 146.52 1087.15 149.205 Q1089.1 151.867 1092.48 151.867 Q1095.86 151.867 1097.78 149.205 Q1099.72 146.52 1099.72 141.821 Z"
     fill="#000000"
     fill-rule="evenodd"
     fill-opacity="1"
     id="path221" />
  <circle
     clip-path="url(#clip140)"
     cx="841.459"
     cy="189.321"
     r="23"
     fill="#000000"
     fill-rule="evenodd"
     fill-opacity="1"
     stroke="none"
     id="circle223" />
  <path
     clip-path="url(#clip140)"
     d="M895.95 176.115 L884.145 194.564 L895.95 194.564 L895.95 176.115 M894.723 172.041 L900.603 172.041 L900.603 194.564 L905.534 194.564 L905.534 198.452 L900.603 198.452 L900.603 206.601 L895.95 206.601 L895.95 198.452 L880.349 198.452 L880.349 193.939 L894.723 172.041 Z"
     fill="#000000"
     fill-rule="evenodd"
     fill-opacity="1"
     id="path225" />
  <path
     clip-path="url(#clip140)"
     d="M923.265 190.189 Q919.932 190.189 918.01 191.971 Q916.112 193.753 916.112 196.878 Q916.112 200.003 918.01 201.786 Q919.932 203.568 923.265 203.568 Q926.598 203.568 928.52 201.786 Q930.441 199.98 930.441 196.878 Q930.441 193.753 928.52 191.971 Q926.621 190.189 923.265 190.189 M918.589 188.198 Q915.58 187.457 913.89 185.397 Q912.223 183.337 912.223 180.374 Q912.223 176.23 915.163 173.823 Q918.126 171.416 923.265 171.416 Q928.427 171.416 931.367 173.823 Q934.307 176.23 934.307 180.374 Q934.307 183.337 932.617 185.397 Q930.95 187.457 927.964 188.198 Q931.344 188.985 933.219 191.277 Q935.117 193.568 935.117 196.878 Q935.117 201.901 932.038 204.587 Q928.983 207.272 923.265 207.272 Q917.547 207.272 914.469 204.587 Q911.413 201.901 911.413 196.878 Q911.413 193.568 913.311 191.277 Q915.209 188.985 918.589 188.198 M916.876 180.814 Q916.876 183.499 918.543 185.003 Q920.233 186.508 923.265 186.508 Q926.274 186.508 927.964 185.003 Q929.677 183.499 929.677 180.814 Q929.677 178.128 927.964 176.624 Q926.274 175.119 923.265 175.119 Q920.233 175.119 918.543 176.624 Q916.876 178.128 916.876 180.814 Z"
     fill="#000000"
     fill-rule="evenodd"
     fill-opacity="1"
     id="path227" />
  <path
     clip-path="url(#clip140)"
     d="M964.376 190.952 L964.376 206.601 L960.117 206.601 L960.117 191.091 Q960.117 187.411 958.681 185.582 Q957.246 183.753 954.376 183.753 Q950.927 183.753 948.936 185.952 Q946.945 188.152 946.945 191.948 L946.945 206.601 L942.663 206.601 L942.663 170.582 L946.945 170.582 L946.945 184.702 Q948.473 182.365 950.533 181.207 Q952.617 180.05 955.325 180.05 Q959.793 180.05 962.084 182.828 Q964.376 185.582 964.376 190.952 Z"
     fill="#000000"
     fill-rule="evenodd"
     fill-opacity="1"
     id="path229" />
  <path
     clip-path="url(#clip140)"
     d="M841.459 215.561 L815.859 266.761 L867.059 266.761 L841.459 215.561 Z"
     fill="#e69f00"
     fill-rule="evenodd"
     fill-opacity="1"
     stroke="#000000"
     stroke-opacity="1"
     stroke-width="3.072"
     id="path231" />
  <path
     clip-path="url(#clip140)"
     d="M896.182 228.487 L889.839 245.686 L902.547 245.686 L896.182 228.487 M893.543 223.881 L898.844 223.881 L912.015 258.441 L907.154 258.441 L904.006 249.575 L888.427 249.575 L885.279 258.441 L880.349 258.441 L893.543 223.881 Z"
     fill="#000000"
     fill-rule="evenodd"
     fill-opacity="1"
     id="path233" />
  <path
     clip-path="url(#clip140)"
     d="M916.876 222.422 L921.135 222.422 L921.135 258.441 L916.876 258.441 L916.876 222.422 Z"
     fill="#000000"
     fill-rule="evenodd"
     fill-opacity="1"
     id="path235" />
  <path
     clip-path="url(#clip140)"
     d="M930.047 222.422 L934.307 222.422 L934.307 258.441 L930.047 258.441 L930.047 222.422 Z"
     fill="#000000"
     fill-rule="evenodd"
     fill-opacity="1"
     id="path237" />
</svg>
