<?xml version="1.0" encoding="utf-8"?>
<svg xmlns="http://www.w3.org/2000/svg" xmlns:xlink="http://www.w3.org/1999/xlink" width="500" height="400" viewBox="0 0 2000 1600">
<defs>
  <clipPath id="clip160">
    <rect x="0" y="0" width="2000" height="1600"/>
  </clipPath>
</defs>
<path clip-path="url(#clip160)" d="
M0 1600 L2000 1600 L2000 0 L0 0  Z
  " fill="#ffffff" fill-rule="evenodd" fill-opacity="1"/>
<defs>
  <clipPath id="clip161">
    <rect x="400" y="0" width="1401" height="1401"/>
  </clipPath>
</defs>
<path clip-path="url(#clip160)" d="
M239.629 1406.76 L1952.76 1406.76 L1952.76 47.2441 L239.629 47.2441  Z
  " fill="#ffffff" fill-rule="evenodd" fill-opacity="1"/>
<defs>
  <clipPath id="clip162">
    <rect x="239" y="47" width="1714" height="1361"/>
  </clipPath>
</defs>
<polyline clip-path="url(#clip162)" style="stroke:#000000; stroke-width:2; stroke-opacity:0.1; fill:none" points="
  239.629,1406.76 239.629,47.2441 
  "/>
<polyline clip-path="url(#clip162)" style="stroke:#000000; stroke-width:2; stroke-opacity:0.1; fill:none" points="
  484.362,1406.76 484.362,47.2441 
  "/>
<polyline clip-path="url(#clip162)" style="stroke:#000000; stroke-width:2; stroke-opacity:0.1; fill:none" points="
  729.094,1406.76 729.094,47.2441 
  "/>
<polyline clip-path="url(#clip162)" style="stroke:#000000; stroke-width:2; stroke-opacity:0.1; fill:none" points="
  973.827,1406.76 973.827,47.2441 
  "/>
<polyline clip-path="url(#clip162)" style="stroke:#000000; stroke-width:2; stroke-opacity:0.1; fill:none" points="
  1218.56,1406.76 1218.56,47.2441 
  "/>
<polyline clip-path="url(#clip162)" style="stroke:#000000; stroke-width:2; stroke-opacity:0.1; fill:none" points="
  1463.29,1406.76 1463.29,47.2441 
  "/>
<polyline clip-path="url(#clip162)" style="stroke:#000000; stroke-width:2; stroke-opacity:0.1; fill:none" points="
  1708.02,1406.76 1708.02,47.2441 
  "/>
<polyline clip-path="url(#clip162)" style="stroke:#000000; stroke-width:2; stroke-opacity:0.1; fill:none" points="
  1952.76,1406.76 1952.76,47.2441 
  "/>
<polyline clip-path="url(#clip160)" style="stroke:#000000; stroke-width:4; stroke-opacity:1; fill:none" points="
  239.629,1406.76 1952.76,1406.76 
  "/>
<polyline clip-path="url(#clip160)" style="stroke:#000000; stroke-width:4; stroke-opacity:1; fill:none" points="
  239.629,1406.76 239.629,1390.45 
  "/>
<polyline clip-path="url(#clip160)" style="stroke:#000000; stroke-width:4; stroke-opacity:1; fill:none" points="
  484.362,1406.76 484.362,1390.45 
  "/>
<polyline clip-path="url(#clip160)" style="stroke:#000000; stroke-width:4; stroke-opacity:1; fill:none" points="
  729.094,1406.76 729.094,1390.45 
  "/>
<polyline clip-path="url(#clip160)" style="stroke:#000000; stroke-width:4; stroke-opacity:1; fill:none" points="
  973.827,1406.76 973.827,1390.45 
  "/>
<polyline clip-path="url(#clip160)" style="stroke:#000000; stroke-width:4; stroke-opacity:1; fill:none" points="
  1218.56,1406.76 1218.56,1390.45 
  "/>
<polyline clip-path="url(#clip160)" style="stroke:#000000; stroke-width:4; stroke-opacity:1; fill:none" points="
  1463.29,1406.76 1463.29,1390.45 
  "/>
<polyline clip-path="url(#clip160)" style="stroke:#000000; stroke-width:4; stroke-opacity:1; fill:none" points="
  1708.02,1406.76 1708.02,1390.45 
  "/>
<polyline clip-path="url(#clip160)" style="stroke:#000000; stroke-width:4; stroke-opacity:1; fill:none" points="
  1952.76,1406.76 1952.76,1390.45 
  "/>
<path clip-path="url(#clip160)" d="M 0 0 M239.629 1432.75 Q236.018 1432.75 234.19 1436.32 Q232.384 1439.86 232.384 1446.99 Q232.384 1454.1 234.19 1457.66 Q236.018 1461.2 239.629 1461.2 Q243.264 1461.2 245.069 1457.66 Q246.898 1454.1 246.898 1446.99 Q246.898 1439.86 245.069 1436.32 Q243.264 1432.75 239.629 1432.75 M239.629 1429.05 Q245.44 1429.05 248.495 1433.66 Q251.574 1438.24 251.574 1446.99 Q251.574 1455.72 248.495 1460.32 Q245.44 1464.91 239.629 1464.91 Q233.819 1464.91 230.741 1460.32 Q227.685 1455.72 227.685 1446.99 Q227.685 1438.24 230.741 1433.66 Q233.819 1429.05 239.629 1429.05 Z" fill="#000000" fill-rule="evenodd" fill-opacity="1" /><path clip-path="url(#clip160)" d="M 0 0 M459.061 1429.68 L477.417 1429.68 L477.417 1433.61 L463.343 1433.61 L463.343 1442.08 Q464.362 1441.74 465.38 1441.57 Q466.399 1441.39 467.417 1441.39 Q473.204 1441.39 476.584 1444.56 Q479.964 1447.73 479.964 1453.15 Q479.964 1458.73 476.491 1461.83 Q473.019 1464.91 466.7 1464.91 Q464.524 1464.91 462.255 1464.54 Q460.01 1464.17 457.603 1463.43 L457.603 1458.73 Q459.686 1459.86 461.908 1460.42 Q464.13 1460.97 466.607 1460.97 Q470.612 1460.97 472.95 1458.87 Q475.288 1456.76 475.288 1453.15 Q475.288 1449.54 472.95 1447.43 Q470.612 1445.32 466.607 1445.32 Q464.732 1445.32 462.857 1445.74 Q461.005 1446.16 459.061 1447.04 L459.061 1429.68 Z" fill="#000000" fill-rule="evenodd" fill-opacity="1" /><path clip-path="url(#clip160)" d="M 0 0 M499.177 1432.75 Q495.565 1432.75 493.737 1436.32 Q491.931 1439.86 491.931 1446.99 Q491.931 1454.1 493.737 1457.66 Q495.565 1461.2 499.177 1461.2 Q502.811 1461.2 504.616 1457.66 Q506.445 1454.1 506.445 1446.99 Q506.445 1439.86 504.616 1436.32 Q502.811 1432.75 499.177 1432.75 M499.177 1429.05 Q504.987 1429.05 508.042 1433.66 Q511.121 1438.24 511.121 1446.99 Q511.121 1455.72 508.042 1460.32 Q504.987 1464.91 499.177 1464.91 Q493.366 1464.91 490.288 1460.32 Q487.232 1455.72 487.232 1446.99 Q487.232 1438.24 490.288 1433.66 Q493.366 1429.05 499.177 1429.05 Z" fill="#000000" fill-rule="evenodd" fill-opacity="1" /><path clip-path="url(#clip160)" d="M 0 0 M688.701 1460.3 L696.34 1460.3 L696.34 1433.94 L688.03 1435.6 L688.03 1431.34 L696.293 1429.68 L700.969 1429.68 L700.969 1460.3 L708.608 1460.3 L708.608 1464.24 L688.701 1464.24 L688.701 1460.3 Z" fill="#000000" fill-rule="evenodd" fill-opacity="1" /><path clip-path="url(#clip160)" d="M 0 0 M728.052 1432.75 Q724.441 1432.75 722.613 1436.32 Q720.807 1439.86 720.807 1446.99 Q720.807 1454.1 722.613 1457.66 Q724.441 1461.2 728.052 1461.2 Q731.687 1461.2 733.492 1457.66 Q735.321 1454.1 735.321 1446.99 Q735.321 1439.86 733.492 1436.32 Q731.687 1432.75 728.052 1432.75 M728.052 1429.05 Q733.863 1429.05 736.918 1433.66 Q739.997 1438.24 739.997 1446.99 Q739.997 1455.72 736.918 1460.32 Q733.863 1464.91 728.052 1464.91 Q722.242 1464.91 719.164 1460.32 Q716.108 1455.72 716.108 1446.99 Q716.108 1438.24 719.164 1433.66 Q722.242 1429.05 728.052 1429.05 Z" fill="#000000" fill-rule="evenodd" fill-opacity="1" /><path clip-path="url(#clip160)" d="M 0 0 M758.214 1432.75 Q754.603 1432.75 752.775 1436.32 Q750.969 1439.86 750.969 1446.99 Q750.969 1454.1 752.775 1457.66 Q754.603 1461.2 758.214 1461.2 Q761.849 1461.2 763.654 1457.66 Q765.483 1454.1 765.483 1446.99 Q765.483 1439.86 763.654 1436.32 Q761.849 1432.75 758.214 1432.75 M758.214 1429.05 Q764.025 1429.05 767.08 1433.66 Q770.159 1438.24 770.159 1446.99 Q770.159 1455.72 767.08 1460.32 Q764.025 1464.91 758.214 1464.91 Q752.404 1464.91 749.326 1460.32 Q746.27 1455.72 746.27 1446.99 Q746.27 1438.24 749.326 1433.66 Q752.404 1429.05 758.214 1429.05 Z" fill="#000000" fill-rule="evenodd" fill-opacity="1" /><path clip-path="url(#clip160)" d="M 0 0 M933.433 1460.3 L941.072 1460.3 L941.072 1433.94 L932.762 1435.6 L932.762 1431.34 L941.026 1429.68 L945.702 1429.68 L945.702 1460.3 L953.341 1460.3 L953.341 1464.24 L933.433 1464.24 L933.433 1460.3 Z" fill="#000000" fill-rule="evenodd" fill-opacity="1" /><path clip-path="url(#clip160)" d="M 0 0 M962.831 1429.68 L981.188 1429.68 L981.188 1433.61 L967.114 1433.61 L967.114 1442.08 Q968.132 1441.74 969.151 1441.57 Q970.169 1441.39 971.188 1441.39 Q976.975 1441.39 980.354 1444.56 Q983.734 1447.73 983.734 1453.15 Q983.734 1458.73 980.262 1461.83 Q976.789 1464.91 970.47 1464.91 Q968.294 1464.91 966.026 1464.54 Q963.78 1464.17 961.373 1463.43 L961.373 1458.73 Q963.456 1459.86 965.678 1460.42 Q967.901 1460.97 970.377 1460.97 Q974.382 1460.97 976.72 1458.87 Q979.058 1456.76 979.058 1453.15 Q979.058 1449.54 976.72 1447.43 Q974.382 1445.32 970.377 1445.32 Q968.502 1445.32 966.627 1445.74 Q964.776 1446.16 962.831 1447.04 L962.831 1429.68 Z" fill="#000000" fill-rule="evenodd" fill-opacity="1" /><path clip-path="url(#clip160)" d="M 0 0 M1002.95 1432.75 Q999.336 1432.75 997.507 1436.32 Q995.701 1439.86 995.701 1446.99 Q995.701 1454.1 997.507 1457.66 Q999.336 1461.2 1002.95 1461.2 Q1006.58 1461.2 1008.39 1457.66 Q1010.22 1454.1 1010.22 1446.99 Q1010.22 1439.86 1008.39 1436.32 Q1006.58 1432.75 1002.95 1432.75 M1002.95 1429.05 Q1008.76 1429.05 1011.81 1433.66 Q1014.89 1438.24 1014.89 1446.99 Q1014.89 1455.72 1011.81 1460.32 Q1008.76 1464.91 1002.95 1464.91 Q997.137 1464.91 994.058 1460.32 Q991.002 1455.72 991.002 1446.99 Q991.002 1438.24 994.058 1433.66 Q997.137 1429.05 1002.95 1429.05 Z" fill="#000000" fill-rule="evenodd" fill-opacity="1" /><path clip-path="url(#clip160)" d="M 0 0 M1182.25 1460.3 L1198.57 1460.3 L1198.57 1464.24 L1176.63 1464.24 L1176.63 1460.3 Q1179.29 1457.55 1183.87 1452.92 Q1188.48 1448.26 1189.66 1446.92 Q1191.9 1444.4 1192.78 1442.66 Q1193.69 1440.9 1193.69 1439.21 Q1193.69 1436.46 1191.74 1434.72 Q1189.82 1432.99 1186.72 1432.99 Q1184.52 1432.99 1182.07 1433.75 Q1179.64 1434.51 1176.86 1436.06 L1176.86 1431.34 Q1179.68 1430.21 1182.14 1429.63 Q1184.59 1429.05 1186.63 1429.05 Q1192 1429.05 1195.19 1431.74 Q1198.39 1434.42 1198.39 1438.91 Q1198.39 1441.04 1197.58 1442.96 Q1196.79 1444.86 1194.68 1447.45 Q1194.1 1448.12 1191 1451.34 Q1187.9 1454.54 1182.25 1460.3 Z" fill="#000000" fill-rule="evenodd" fill-opacity="1" /><path clip-path="url(#clip160)" d="M 0 0 M1218.39 1432.75 Q1214.77 1432.75 1212.95 1436.32 Q1211.14 1439.86 1211.14 1446.99 Q1211.14 1454.1 1212.95 1457.66 Q1214.77 1461.2 1218.39 1461.2 Q1222.02 1461.2 1223.83 1457.66 Q1225.65 1454.1 1225.65 1446.99 Q1225.65 1439.86 1223.83 1436.32 Q1222.02 1432.75 1218.39 1432.75 M1218.39 1429.05 Q1224.2 1429.05 1227.25 1433.66 Q1230.33 1438.24 1230.33 1446.99 Q1230.33 1455.72 1227.25 1460.32 Q1224.2 1464.91 1218.39 1464.91 Q1212.58 1464.91 1209.5 1460.32 Q1206.44 1455.72 1206.44 1446.99 Q1206.44 1438.24 1209.5 1433.66 Q1212.58 1429.05 1218.39 1429.05 Z" fill="#000000" fill-rule="evenodd" fill-opacity="1" /><path clip-path="url(#clip160)" d="M 0 0 M1248.55 1432.75 Q1244.94 1432.75 1243.11 1436.32 Q1241.3 1439.86 1241.3 1446.99 Q1241.3 1454.1 1243.11 1457.66 Q1244.94 1461.2 1248.55 1461.2 Q1252.18 1461.2 1253.99 1457.66 Q1255.82 1454.1 1255.82 1446.99 Q1255.82 1439.86 1253.99 1436.32 Q1252.18 1432.75 1248.55 1432.75 M1248.55 1429.05 Q1254.36 1429.05 1257.41 1433.66 Q1260.49 1438.24 1260.49 1446.99 Q1260.49 1455.72 1257.41 1460.32 Q1254.36 1464.91 1248.55 1464.91 Q1242.74 1464.91 1239.66 1460.32 Q1236.6 1455.72 1236.6 1446.99 Q1236.6 1438.24 1239.66 1433.66 Q1242.74 1429.05 1248.55 1429.05 Z" fill="#000000" fill-rule="evenodd" fill-opacity="1" /><path clip-path="url(#clip160)" d="M 0 0 M1426.98 1460.3 L1443.3 1460.3 L1443.3 1464.24 L1421.36 1464.24 L1421.36 1460.3 Q1424.02 1457.55 1428.6 1452.92 Q1433.21 1448.26 1434.39 1446.92 Q1436.64 1444.4 1437.52 1442.66 Q1438.42 1440.9 1438.42 1439.21 Q1438.42 1436.46 1436.47 1434.72 Q1434.55 1432.99 1431.45 1432.99 Q1429.25 1432.99 1426.8 1433.75 Q1424.37 1434.51 1421.59 1436.06 L1421.59 1431.34 Q1424.41 1430.21 1426.87 1429.63 Q1429.32 1429.05 1431.36 1429.05 Q1436.73 1429.05 1439.92 1431.74 Q1443.12 1434.42 1443.12 1438.91 Q1443.12 1441.04 1442.31 1442.96 Q1441.52 1444.86 1439.41 1447.45 Q1438.84 1448.12 1435.73 1451.34 Q1432.63 1454.54 1426.98 1460.3 Z" fill="#000000" fill-rule="evenodd" fill-opacity="1" /><path clip-path="url(#clip160)" d="M 0 0 M1453.16 1429.68 L1471.52 1429.68 L1471.52 1433.61 L1457.45 1433.61 L1457.45 1442.08 Q1458.46 1441.74 1459.48 1441.57 Q1460.5 1441.39 1461.52 1441.39 Q1467.31 1441.39 1470.69 1444.56 Q1474.07 1447.73 1474.07 1453.15 Q1474.07 1458.73 1470.59 1461.83 Q1467.12 1464.91 1460.8 1464.91 Q1458.63 1464.91 1456.36 1464.54 Q1454.11 1464.17 1451.71 1463.43 L1451.71 1458.73 Q1453.79 1459.86 1456.01 1460.42 Q1458.23 1460.97 1460.71 1460.97 Q1464.71 1460.97 1467.05 1458.87 Q1469.39 1456.76 1469.39 1453.15 Q1469.39 1449.54 1467.05 1447.43 Q1464.71 1445.32 1460.71 1445.32 Q1458.84 1445.32 1456.96 1445.74 Q1455.11 1446.16 1453.16 1447.04 L1453.16 1429.68 Z" fill="#000000" fill-rule="evenodd" fill-opacity="1" /><path clip-path="url(#clip160)" d="M 0 0 M1493.28 1432.75 Q1489.67 1432.75 1487.84 1436.32 Q1486.03 1439.86 1486.03 1446.99 Q1486.03 1454.1 1487.84 1457.66 Q1489.67 1461.2 1493.28 1461.2 Q1496.91 1461.2 1498.72 1457.66 Q1500.55 1454.1 1500.55 1446.99 Q1500.55 1439.86 1498.72 1436.32 Q1496.91 1432.75 1493.28 1432.75 M1493.28 1429.05 Q1499.09 1429.05 1502.15 1433.66 Q1505.22 1438.24 1505.22 1446.99 Q1505.22 1455.72 1502.15 1460.32 Q1499.09 1464.91 1493.28 1464.91 Q1487.47 1464.91 1484.39 1460.32 Q1481.34 1455.72 1481.34 1446.99 Q1481.34 1438.24 1484.39 1433.66 Q1487.47 1429.05 1493.28 1429.05 Z" fill="#000000" fill-rule="evenodd" fill-opacity="1" /><path clip-path="url(#clip160)" d="M 0 0 M1681.79 1445.6 Q1685.14 1446.32 1687.02 1448.59 Q1688.91 1450.86 1688.91 1454.19 Q1688.91 1459.31 1685.4 1462.11 Q1681.88 1464.91 1675.4 1464.91 Q1673.22 1464.91 1670.91 1464.47 Q1668.61 1464.05 1666.16 1463.19 L1666.16 1458.68 Q1668.1 1459.81 1670.42 1460.39 Q1672.73 1460.97 1675.26 1460.97 Q1679.66 1460.97 1681.95 1459.24 Q1684.26 1457.5 1684.26 1454.19 Q1684.26 1451.13 1682.11 1449.42 Q1679.98 1447.69 1676.16 1447.69 L1672.13 1447.69 L1672.13 1443.84 L1676.35 1443.84 Q1679.79 1443.84 1681.62 1442.48 Q1683.45 1441.09 1683.45 1438.5 Q1683.45 1435.83 1681.55 1434.42 Q1679.68 1432.99 1676.16 1432.99 Q1674.24 1432.99 1672.04 1433.4 Q1669.84 1433.82 1667.2 1434.7 L1667.2 1430.53 Q1669.86 1429.79 1672.18 1429.42 Q1674.52 1429.05 1676.58 1429.05 Q1681.9 1429.05 1685 1431.48 Q1688.1 1433.89 1688.1 1438.01 Q1688.1 1440.88 1686.46 1442.87 Q1684.82 1444.84 1681.79 1445.6 Z" fill="#000000" fill-rule="evenodd" fill-opacity="1" /><path clip-path="url(#clip160)" d="M 0 0 M1707.78 1432.75 Q1704.17 1432.75 1702.34 1436.32 Q1700.54 1439.86 1700.54 1446.99 Q1700.54 1454.1 1702.34 1457.66 Q1704.17 1461.2 1707.78 1461.2 Q1711.41 1461.2 1713.22 1457.66 Q1715.05 1454.1 1715.05 1446.99 Q1715.05 1439.86 1713.22 1436.32 Q1711.41 1432.75 1707.78 1432.75 M1707.78 1429.05 Q1713.59 1429.05 1716.65 1433.66 Q1719.72 1438.24 1719.72 1446.99 Q1719.72 1455.72 1716.65 1460.32 Q1713.59 1464.91 1707.78 1464.91 Q1701.97 1464.91 1698.89 1460.32 Q1695.84 1455.72 1695.84 1446.99 Q1695.84 1438.24 1698.89 1433.66 Q1701.97 1429.05 1707.78 1429.05 Z" fill="#000000" fill-rule="evenodd" fill-opacity="1" /><path clip-path="url(#clip160)" d="M 0 0 M1737.94 1432.75 Q1734.33 1432.75 1732.5 1436.32 Q1730.7 1439.86 1730.7 1446.99 Q1730.7 1454.1 1732.5 1457.66 Q1734.33 1461.2 1737.94 1461.2 Q1741.58 1461.2 1743.38 1457.66 Q1745.21 1454.1 1745.21 1446.99 Q1745.21 1439.86 1743.38 1436.32 Q1741.58 1432.75 1737.94 1432.75 M1737.94 1429.05 Q1743.75 1429.05 1746.81 1433.66 Q1749.89 1438.24 1749.89 1446.99 Q1749.89 1455.72 1746.81 1460.32 Q1743.75 1464.91 1737.94 1464.91 Q1732.13 1464.91 1729.05 1460.32 Q1726 1455.72 1726 1446.99 Q1726 1438.24 1729.05 1433.66 Q1732.13 1429.05 1737.94 1429.05 Z" fill="#000000" fill-rule="evenodd" fill-opacity="1" /><path clip-path="url(#clip160)" d="M 0 0 M1926.52 1445.6 Q1929.87 1446.32 1931.75 1448.59 Q1933.65 1450.86 1933.65 1454.19 Q1933.65 1459.31 1930.13 1462.11 Q1926.61 1464.91 1920.13 1464.91 Q1917.95 1464.91 1915.64 1464.47 Q1913.35 1464.05 1910.89 1463.19 L1910.89 1458.68 Q1912.84 1459.81 1915.15 1460.39 Q1917.47 1460.97 1919.99 1460.97 Q1924.39 1460.97 1926.68 1459.24 Q1928.99 1457.5 1928.99 1454.19 Q1928.99 1451.13 1926.84 1449.42 Q1924.71 1447.69 1920.89 1447.69 L1916.86 1447.69 L1916.86 1443.84 L1921.08 1443.84 Q1924.53 1443.84 1926.36 1442.48 Q1928.18 1441.09 1928.18 1438.5 Q1928.18 1435.83 1926.29 1434.42 Q1924.41 1432.99 1920.89 1432.99 Q1918.97 1432.99 1916.77 1433.4 Q1914.57 1433.82 1911.93 1434.7 L1911.93 1430.53 Q1914.6 1429.79 1916.91 1429.42 Q1919.25 1429.05 1921.31 1429.05 Q1926.63 1429.05 1929.74 1431.48 Q1932.84 1433.89 1932.84 1438.01 Q1932.84 1440.88 1931.19 1442.87 Q1929.55 1444.84 1926.52 1445.6 Z" fill="#000000" fill-rule="evenodd" fill-opacity="1" /><path clip-path="url(#clip160)" d="M 0 0 M1942.56 1429.68 L1960.92 1429.68 L1960.92 1433.61 L1946.84 1433.61 L1946.84 1442.08 Q1947.86 1441.74 1948.88 1441.57 Q1949.9 1441.39 1950.92 1441.39 Q1956.7 1441.39 1960.08 1444.56 Q1963.46 1447.73 1963.46 1453.15 Q1963.46 1458.73 1959.99 1461.83 Q1956.52 1464.91 1950.2 1464.91 Q1948.02 1464.91 1945.75 1464.54 Q1943.51 1464.17 1941.1 1463.43 L1941.1 1458.73 Q1943.18 1459.86 1945.41 1460.42 Q1947.63 1460.97 1950.11 1460.97 Q1954.11 1460.97 1956.45 1458.87 Q1958.79 1456.76 1958.79 1453.15 Q1958.79 1449.54 1956.45 1447.43 Q1954.11 1445.32 1950.11 1445.32 Q1948.23 1445.32 1946.36 1445.74 Q1944.5 1446.16 1942.56 1447.04 L1942.56 1429.68 Z" fill="#000000" fill-rule="evenodd" fill-opacity="1" /><path clip-path="url(#clip160)" d="M 0 0 M1982.67 1432.75 Q1979.06 1432.75 1977.23 1436.32 Q1975.43 1439.86 1975.43 1446.99 Q1975.43 1454.1 1977.23 1457.66 Q1979.06 1461.2 1982.67 1461.2 Q1986.31 1461.2 1988.11 1457.66 Q1989.94 1454.1 1989.94 1446.99 Q1989.94 1439.86 1988.11 1436.32 Q1986.31 1432.75 1982.67 1432.75 M1982.67 1429.05 Q1988.48 1429.05 1991.54 1433.66 Q1994.62 1438.24 1994.62 1446.99 Q1994.62 1455.72 1991.54 1460.32 Q1988.48 1464.91 1982.67 1464.91 Q1976.86 1464.91 1973.79 1460.32 Q1970.73 1455.72 1970.73 1446.99 Q1970.73 1438.24 1973.79 1433.66 Q1976.86 1429.05 1982.67 1429.05 Z" fill="#000000" fill-rule="evenodd" fill-opacity="1" /><path clip-path="url(#clip160)" d="M 0 0 M949.288 1498.11 L989.488 1498.11 L989.488 1503.52 L972.618 1503.52 L972.618 1545.63 L966.157 1545.63 L966.157 1503.52 L949.288 1503.52 L949.288 1498.11 Z" fill="#000000" fill-rule="evenodd" fill-opacity="1" /><path clip-path="url(#clip160)" d="M 0 0 M993.434 1509.98 L999.291 1509.98 L999.291 1545.63 L993.434 1545.63 L993.434 1509.98 M993.434 1496.1 L999.291 1496.1 L999.291 1503.52 L993.434 1503.52 L993.434 1496.1 Z" fill="#000000" fill-rule="evenodd" fill-opacity="1" /><path clip-path="url(#clip160)" d="M 0 0 M1039.3 1516.82 Q1041.5 1512.88 1044.55 1511 Q1047.61 1509.12 1051.74 1509.12 Q1057.31 1509.12 1060.34 1513.04 Q1063.36 1516.92 1063.36 1524.11 L1063.36 1545.63 L1057.47 1545.63 L1057.47 1524.3 Q1057.47 1519.18 1055.66 1516.7 Q1053.84 1514.21 1050.12 1514.21 Q1045.57 1514.21 1042.93 1517.24 Q1040.29 1520.26 1040.29 1525.48 L1040.29 1545.63 L1034.4 1545.63 L1034.4 1524.3 Q1034.4 1519.15 1032.58 1516.7 Q1030.77 1514.21 1026.98 1514.21 Q1022.49 1514.21 1019.85 1517.27 Q1017.21 1520.29 1017.21 1525.48 L1017.21 1545.63 L1011.32 1545.63 L1011.32 1509.98 L1017.21 1509.98 L1017.21 1515.52 Q1019.22 1512.24 1022.02 1510.68 Q1024.82 1509.12 1028.67 1509.12 Q1032.55 1509.12 1035.26 1511.09 Q1037.99 1513.07 1039.3 1516.82 Z" fill="#000000" fill-rule="evenodd" fill-opacity="1" /><path clip-path="url(#clip160)" d="M 0 0 M1105.53 1526.34 L1105.53 1529.2 L1078.61 1529.2 Q1078.99 1535.25 1082.24 1538.43 Q1085.51 1541.59 1091.34 1541.59 Q1094.71 1541.59 1097.86 1540.76 Q1101.05 1539.93 1104.17 1538.28 L1104.17 1543.81 Q1101.01 1545.15 1097.7 1545.85 Q1094.39 1546.55 1090.99 1546.55 Q1082.46 1546.55 1077.46 1541.59 Q1072.5 1536.62 1072.5 1528.15 Q1072.5 1519.4 1077.21 1514.28 Q1081.95 1509.12 1089.97 1509.12 Q1097.16 1509.12 1101.33 1513.77 Q1105.53 1518.38 1105.53 1526.34 M1099.68 1524.62 Q1099.61 1519.81 1096.97 1516.95 Q1094.36 1514.09 1090.03 1514.09 Q1085.13 1514.09 1082.17 1516.85 Q1079.24 1519.62 1078.8 1524.65 L1099.68 1524.62 Z" fill="#000000" fill-rule="evenodd" fill-opacity="1" /><path clip-path="url(#clip160)" d="M 0 0 M1149.94 1496.17 Q1145.67 1503.49 1143.6 1510.65 Q1141.53 1517.81 1141.53 1525.16 Q1141.53 1532.51 1143.6 1539.74 Q1145.7 1546.93 1149.94 1554.22 L1144.84 1554.22 Q1140.07 1546.74 1137.68 1539.52 Q1135.33 1532.29 1135.33 1525.16 Q1135.33 1518.06 1137.68 1510.87 Q1140.04 1503.68 1144.84 1496.17 L1149.94 1496.17 Z" fill="#000000" fill-rule="evenodd" fill-opacity="1" /><path clip-path="url(#clip160)" d="M 0 0 M1190.93 1524.11 L1190.93 1545.63 L1185.07 1545.63 L1185.07 1524.3 Q1185.07 1519.24 1183.1 1516.73 Q1181.13 1514.21 1177.18 1514.21 Q1172.44 1514.21 1169.7 1517.24 Q1166.96 1520.26 1166.96 1525.48 L1166.96 1545.63 L1161.08 1545.63 L1161.08 1496.1 L1166.96 1496.1 L1166.96 1515.52 Q1169.06 1512.3 1171.9 1510.71 Q1174.76 1509.12 1178.49 1509.12 Q1184.63 1509.12 1187.78 1512.94 Q1190.93 1516.73 1190.93 1524.11 Z" fill="#000000" fill-rule="evenodd" fill-opacity="1" /><path clip-path="url(#clip160)" d="M 0 0 M1223.27 1515.45 Q1222.28 1514.88 1221.1 1514.63 Q1219.96 1514.34 1218.56 1514.34 Q1213.59 1514.34 1210.92 1517.59 Q1208.28 1520.8 1208.28 1526.85 L1208.28 1545.63 L1202.39 1545.63 L1202.39 1509.98 L1208.28 1509.98 L1208.28 1515.52 Q1210.12 1512.27 1213.08 1510.71 Q1216.04 1509.12 1220.28 1509.12 Q1220.88 1509.12 1221.61 1509.22 Q1222.35 1509.28 1223.24 1509.44 L1223.27 1515.45 Z" fill="#000000" fill-rule="evenodd" fill-opacity="1" /><path clip-path="url(#clip160)" d="M 0 0 M1228.49 1496.17 L1233.58 1496.17 Q1238.35 1503.68 1240.71 1510.87 Q1243.1 1518.06 1243.1 1525.16 Q1243.1 1532.29 1240.71 1539.52 Q1238.35 1546.74 1233.58 1554.22 L1228.49 1554.22 Q1232.72 1546.93 1234.79 1539.74 Q1236.89 1532.51 1236.89 1525.16 Q1236.89 1517.81 1234.79 1510.65 Q1232.72 1503.49 1228.49 1496.17 Z" fill="#000000" fill-rule="evenodd" fill-opacity="1" /><polyline clip-path="url(#clip162)" style="stroke:#000000; stroke-width:2; stroke-opacity:0.1; fill:none" points="
  239.629,1368.82 1952.76,1368.82 
  "/>
<polyline clip-path="url(#clip162)" style="stroke:#000000; stroke-width:2; stroke-opacity:0.1; fill:none" points="
  239.629,1103.68 1952.76,1103.68 
  "/>
<polyline clip-path="url(#clip162)" style="stroke:#000000; stroke-width:2; stroke-opacity:0.1; fill:none" points="
  239.629,838.536 1952.76,838.536 
  "/>
<polyline clip-path="url(#clip162)" style="stroke:#000000; stroke-width:2; stroke-opacity:0.1; fill:none" points="
  239.629,573.395 1952.76,573.395 
  "/>
<polyline clip-path="url(#clip162)" style="stroke:#000000; stroke-width:2; stroke-opacity:0.1; fill:none" points="
  239.629,308.254 1952.76,308.254 
  "/>
<polyline clip-path="url(#clip160)" style="stroke:#000000; stroke-width:4; stroke-opacity:1; fill:none" points="
  239.629,1406.76 239.629,47.2441 
  "/>
<polyline clip-path="url(#clip160)" style="stroke:#000000; stroke-width:4; stroke-opacity:1; fill:none" points="
  239.629,1368.82 260.187,1368.82 
  "/>
<polyline clip-path="url(#clip160)" style="stroke:#000000; stroke-width:4; stroke-opacity:1; fill:none" points="
  239.629,1103.68 260.187,1103.68 
  "/>
<polyline clip-path="url(#clip160)" style="stroke:#000000; stroke-width:4; stroke-opacity:1; fill:none" points="
  239.629,838.536 260.187,838.536 
  "/>
<polyline clip-path="url(#clip160)" style="stroke:#000000; stroke-width:4; stroke-opacity:1; fill:none" points="
  239.629,573.395 260.187,573.395 
  "/>
<polyline clip-path="url(#clip160)" style="stroke:#000000; stroke-width:4; stroke-opacity:1; fill:none" points="
  239.629,308.254 260.187,308.254 
  "/>
<path clip-path="url(#clip160)" d="M 0 0 M197.685 1354.62 Q194.074 1354.62 192.245 1358.18 Q190.44 1361.72 190.44 1368.85 Q190.44 1375.96 192.245 1379.52 Q194.074 1383.06 197.685 1383.06 Q201.319 1383.06 203.125 1379.52 Q204.954 1375.96 204.954 1368.85 Q204.954 1361.72 203.125 1358.18 Q201.319 1354.62 197.685 1354.62 M197.685 1350.91 Q203.495 1350.91 206.551 1355.52 Q209.629 1360.1 209.629 1368.85 Q209.629 1377.58 206.551 1382.19 Q203.495 1386.77 197.685 1386.77 Q191.875 1386.77 188.796 1382.19 Q185.741 1377.58 185.741 1368.85 Q185.741 1360.1 188.796 1355.52 Q191.875 1350.91 197.685 1350.91 Z" fill="#000000" fill-rule="evenodd" fill-opacity="1" /><path clip-path="url(#clip160)" d="M 0 0 M157.57 1086.4 L175.926 1086.4 L175.926 1090.33 L161.852 1090.33 L161.852 1098.8 Q162.87 1098.46 163.889 1098.29 Q164.907 1098.11 165.926 1098.11 Q171.713 1098.11 175.093 1101.28 Q178.472 1104.45 178.472 1109.87 Q178.472 1115.45 175 1118.55 Q171.528 1121.63 165.208 1121.63 Q163.032 1121.63 160.764 1121.26 Q158.519 1120.89 156.111 1120.15 L156.111 1115.45 Q158.195 1116.58 160.417 1117.14 Q162.639 1117.69 165.116 1117.69 Q169.12 1117.69 171.458 1115.59 Q173.796 1113.48 173.796 1109.87 Q173.796 1106.26 171.458 1104.15 Q169.12 1102.04 165.116 1102.04 Q163.241 1102.04 161.366 1102.46 Q159.514 1102.88 157.57 1103.76 L157.57 1086.4 Z" fill="#000000" fill-rule="evenodd" fill-opacity="1" /><path clip-path="url(#clip160)" d="M 0 0 M197.685 1089.48 Q194.074 1089.48 192.245 1093.04 Q190.44 1096.58 190.44 1103.71 Q190.44 1110.82 192.245 1114.38 Q194.074 1117.92 197.685 1117.92 Q201.319 1117.92 203.125 1114.38 Q204.954 1110.82 204.954 1103.71 Q204.954 1096.58 203.125 1093.04 Q201.319 1089.48 197.685 1089.48 M197.685 1085.77 Q203.495 1085.77 206.551 1090.38 Q209.629 1094.96 209.629 1103.71 Q209.629 1112.44 206.551 1117.04 Q203.495 1121.63 197.685 1121.63 Q191.875 1121.63 188.796 1117.04 Q185.741 1112.44 185.741 1103.71 Q185.741 1094.96 188.796 1090.38 Q191.875 1085.77 197.685 1085.77 Z" fill="#000000" fill-rule="evenodd" fill-opacity="1" /><path clip-path="url(#clip160)" d="M 0 0 M128.172 851.88 L135.81 851.88 L135.81 825.515 L127.5 827.181 L127.5 822.922 L135.764 821.256 L140.44 821.256 L140.44 851.88 L148.079 851.88 L148.079 855.816 L128.172 855.816 L128.172 851.88 Z" fill="#000000" fill-rule="evenodd" fill-opacity="1" /><path clip-path="url(#clip160)" d="M 0 0 M167.523 824.334 Q163.912 824.334 162.083 827.899 Q160.278 831.441 160.278 838.57 Q160.278 845.677 162.083 849.242 Q163.912 852.783 167.523 852.783 Q171.157 852.783 172.963 849.242 Q174.792 845.677 174.792 838.57 Q174.792 831.441 172.963 827.899 Q171.157 824.334 167.523 824.334 M167.523 820.631 Q173.333 820.631 176.389 825.237 Q179.468 829.82 179.468 838.57 Q179.468 847.297 176.389 851.904 Q173.333 856.487 167.523 856.487 Q161.713 856.487 158.634 851.904 Q155.579 847.297 155.579 838.57 Q155.579 829.82 158.634 825.237 Q161.713 820.631 167.523 820.631 Z" fill="#000000" fill-rule="evenodd" fill-opacity="1" /><path clip-path="url(#clip160)" d="M 0 0 M197.685 824.334 Q194.074 824.334 192.245 827.899 Q190.44 831.441 190.44 838.57 Q190.44 845.677 192.245 849.242 Q194.074 852.783 197.685 852.783 Q201.319 852.783 203.125 849.242 Q204.954 845.677 204.954 838.57 Q204.954 831.441 203.125 827.899 Q201.319 824.334 197.685 824.334 M197.685 820.631 Q203.495 820.631 206.551 825.237 Q209.629 829.82 209.629 838.57 Q209.629 847.297 206.551 851.904 Q203.495 856.487 197.685 856.487 Q191.875 856.487 188.796 851.904 Q185.741 847.297 185.741 838.57 Q185.741 829.82 188.796 825.237 Q191.875 820.631 197.685 820.631 Z" fill="#000000" fill-rule="evenodd" fill-opacity="1" /><path clip-path="url(#clip160)" d="M 0 0 M128.172 586.74 L135.81 586.74 L135.81 560.374 L127.5 562.041 L127.5 557.781 L135.764 556.115 L140.44 556.115 L140.44 586.74 L148.079 586.74 L148.079 590.675 L128.172 590.675 L128.172 586.74 Z" fill="#000000" fill-rule="evenodd" fill-opacity="1" /><path clip-path="url(#clip160)" d="M 0 0 M157.57 556.115 L175.926 556.115 L175.926 560.05 L161.852 560.05 L161.852 568.522 Q162.87 568.175 163.889 568.013 Q164.907 567.828 165.926 567.828 Q171.713 567.828 175.093 570.999 Q178.472 574.17 178.472 579.587 Q178.472 585.166 175 588.267 Q171.528 591.346 165.208 591.346 Q163.032 591.346 160.764 590.976 Q158.519 590.605 156.111 589.865 L156.111 585.166 Q158.195 586.3 160.417 586.855 Q162.639 587.411 165.116 587.411 Q169.12 587.411 171.458 585.304 Q173.796 583.198 173.796 579.587 Q173.796 575.976 171.458 573.869 Q169.12 571.763 165.116 571.763 Q163.241 571.763 161.366 572.18 Q159.514 572.596 157.57 573.476 L157.57 556.115 Z" fill="#000000" fill-rule="evenodd" fill-opacity="1" /><path clip-path="url(#clip160)" d="M 0 0 M197.685 559.193 Q194.074 559.193 192.245 562.758 Q190.44 566.3 190.44 573.43 Q190.44 580.536 192.245 584.101 Q194.074 587.642 197.685 587.642 Q201.319 587.642 203.125 584.101 Q204.954 580.536 204.954 573.43 Q204.954 566.3 203.125 562.758 Q201.319 559.193 197.685 559.193 M197.685 555.49 Q203.495 555.49 206.551 560.096 Q209.629 564.68 209.629 573.43 Q209.629 582.156 206.551 586.763 Q203.495 591.346 197.685 591.346 Q191.875 591.346 188.796 586.763 Q185.741 582.156 185.741 573.43 Q185.741 564.68 188.796 560.096 Q191.875 555.49 197.685 555.49 Z" fill="#000000" fill-rule="evenodd" fill-opacity="1" /><path clip-path="url(#clip160)" d="M 0 0 M131.389 321.599 L147.708 321.599 L147.708 325.534 L125.764 325.534 L125.764 321.599 Q128.426 318.844 133.009 314.215 Q137.616 309.562 138.796 308.219 Q141.042 305.696 141.921 303.96 Q142.824 302.201 142.824 300.511 Q142.824 297.756 140.88 296.02 Q138.959 294.284 135.857 294.284 Q133.658 294.284 131.204 295.048 Q128.773 295.812 125.996 297.363 L125.996 292.641 Q128.82 291.506 131.273 290.928 Q133.727 290.349 135.764 290.349 Q141.134 290.349 144.329 293.034 Q147.523 295.719 147.523 300.21 Q147.523 302.34 146.713 304.261 Q145.926 306.159 143.82 308.752 Q143.241 309.423 140.139 312.641 Q137.037 315.835 131.389 321.599 Z" fill="#000000" fill-rule="evenodd" fill-opacity="1" /><path clip-path="url(#clip160)" d="M 0 0 M167.523 294.053 Q163.912 294.053 162.083 297.617 Q160.278 301.159 160.278 308.289 Q160.278 315.395 162.083 318.96 Q163.912 322.502 167.523 322.502 Q171.157 322.502 172.963 318.96 Q174.792 315.395 174.792 308.289 Q174.792 301.159 172.963 297.617 Q171.157 294.053 167.523 294.053 M167.523 290.349 Q173.333 290.349 176.389 294.955 Q179.468 299.539 179.468 308.289 Q179.468 317.016 176.389 321.622 Q173.333 326.205 167.523 326.205 Q161.713 326.205 158.634 321.622 Q155.579 317.016 155.579 308.289 Q155.579 299.539 158.634 294.955 Q161.713 290.349 167.523 290.349 Z" fill="#000000" fill-rule="evenodd" fill-opacity="1" /><path clip-path="url(#clip160)" d="M 0 0 M197.685 294.053 Q194.074 294.053 192.245 297.617 Q190.44 301.159 190.44 308.289 Q190.44 315.395 192.245 318.96 Q194.074 322.502 197.685 322.502 Q201.319 322.502 203.125 318.96 Q204.954 315.395 204.954 308.289 Q204.954 301.159 203.125 297.617 Q201.319 294.053 197.685 294.053 M197.685 290.349 Q203.495 290.349 206.551 294.955 Q209.629 299.539 209.629 308.289 Q209.629 317.016 206.551 321.622 Q203.495 326.205 197.685 326.205 Q191.875 326.205 188.796 321.622 Q185.741 317.016 185.741 308.289 Q185.741 299.539 188.796 294.955 Q191.875 290.349 197.685 290.349 Z" fill="#000000" fill-rule="evenodd" fill-opacity="1" /><path clip-path="url(#clip160)" d="M 0 0 M33.9882 917.02 L33.9882 910.591 L53.4672 910.591 L53.4672 887.229 L33.9882 887.229 L33.9882 880.799 L81.5082 880.799 L81.5082 887.229 L58.8781 887.229 L58.8781 910.591 L81.5082 910.591 L81.5082 917.02 L33.9882 917.02 Z" fill="#000000" fill-rule="evenodd" fill-opacity="1" /><path clip-path="url(#clip160)" d="M 0 0 M62.2201 837.767 L65.0846 837.767 L65.0846 864.694 Q71.1321 864.312 74.3149 861.066 Q77.4659 857.787 77.4659 851.963 Q77.4659 848.589 76.6384 845.438 Q75.8109 842.255 74.1558 839.136 L79.6939 839.136 Q81.0307 842.287 81.731 845.597 Q82.4312 848.907 82.4312 852.313 Q82.4312 860.843 77.4659 865.84 Q72.5007 870.805 64.0343 870.805 Q55.2814 870.805 50.1571 866.095 Q45.0008 861.352 45.0008 853.331 Q45.0008 846.138 49.6478 841.969 Q54.2629 837.767 62.2201 837.767 M60.5013 843.624 Q55.6952 843.687 52.8306 846.329 Q49.9661 848.939 49.9661 853.268 Q49.9661 858.169 52.7352 861.129 Q55.5042 864.058 60.5332 864.503 L60.5013 843.624 Z" fill="#000000" fill-rule="evenodd" fill-opacity="1" /><path clip-path="url(#clip160)" d="M 0 0 M45.8602 828.155 L45.8602 822.299 L81.5082 822.299 L81.5082 828.155 L45.8602 828.155 M31.983 828.155 L31.983 822.299 L39.399 822.299 L39.399 828.155 L31.983 828.155 Z" fill="#000000" fill-rule="evenodd" fill-opacity="1" /><path clip-path="url(#clip160)" d="M 0 0 M63.2704 786.587 Q56.9047 786.587 53.4036 789.229 Q49.9024 791.839 49.9024 796.581 Q49.9024 801.292 53.4036 803.934 Q56.9047 806.543 63.2704 806.543 Q69.6043 806.543 73.1054 803.934 Q76.6066 801.292 76.6066 796.581 Q76.6066 791.839 73.1054 789.229 Q69.6043 786.587 63.2704 786.587 M77.084 780.731 Q86.187 780.731 90.6111 784.773 Q95.0671 788.815 95.0671 797.154 Q95.0671 800.241 94.5897 802.979 Q94.1441 805.716 93.1892 808.294 L87.4919 808.294 Q88.8924 805.716 89.5608 803.201 Q90.2292 800.687 90.2292 798.077 Q90.2292 792.316 87.2055 789.452 Q84.2136 786.587 78.1343 786.587 L75.2379 786.587 Q78.389 788.401 79.9486 791.234 Q81.5082 794.067 81.5082 798.013 Q81.5082 804.57 76.5111 808.58 Q71.514 812.591 63.2704 812.591 Q54.995 812.591 49.9979 808.58 Q45.0008 804.57 45.0008 798.013 Q45.0008 794.067 46.5604 791.234 Q48.12 788.401 51.2711 786.587 L45.8602 786.587 L45.8602 780.731 L77.084 780.731 Z" fill="#000000" fill-rule="evenodd" fill-opacity="1" /><path clip-path="url(#clip160)" d="M 0 0 M59.9921 739.035 L81.5082 739.035 L81.5082 744.892 L60.183 744.892 Q55.1223 744.892 52.6078 746.865 Q50.0934 748.838 50.0934 752.785 Q50.0934 757.528 53.1171 760.265 Q56.1408 763.002 61.3607 763.002 L81.5082 763.002 L81.5082 768.89 L31.983 768.89 L31.983 763.002 L51.3984 763.002 Q48.1837 760.901 46.5923 758.069 Q45.0008 755.204 45.0008 751.48 Q45.0008 745.337 48.8203 742.186 Q52.6078 739.035 59.9921 739.035 Z" fill="#000000" fill-rule="evenodd" fill-opacity="1" /><path clip-path="url(#clip160)" d="M 0 0 M35.7387 721.561 L45.8602 721.561 L45.8602 709.498 L50.4117 709.498 L50.4117 721.561 L69.7634 721.561 Q74.1239 721.561 75.3653 720.384 Q76.6066 719.174 76.6066 715.514 L76.6066 709.498 L81.5082 709.498 L81.5082 715.514 Q81.5082 722.293 78.9937 724.871 Q76.4474 727.45 69.7634 727.45 L50.4117 727.45 L50.4117 731.746 L45.8602 731.746 L45.8602 727.45 L35.7387 727.45 L35.7387 721.561 Z" fill="#000000" fill-rule="evenodd" fill-opacity="1" /><path clip-path="url(#clip160)" d="M 0 0 M32.0466 667.007 Q39.3672 671.272 46.5286 673.341 Q53.69 675.41 61.0424 675.41 Q68.3948 675.41 75.6199 673.341 Q82.8131 671.24 90.1019 667.007 L90.1019 672.1 Q82.6222 676.874 75.3971 679.261 Q68.172 681.616 61.0424 681.616 Q53.9446 681.616 46.7514 679.261 Q39.5582 676.906 32.0466 672.1 L32.0466 667.007 Z" fill="#000000" fill-rule="evenodd" fill-opacity="1" /><path clip-path="url(#clip160)" d="M 0 0 M95.0671 656.249 L45.8602 656.249 L45.8602 650.393 L68.0129 650.393 Q72.628 650.393 74.9833 648.197 Q77.3386 646 77.3386 641.703 Q77.3386 636.993 74.665 634.638 Q71.9914 632.25 66.6442 632.25 L45.8602 632.25 L45.8602 626.394 L73.2964 626.394 Q75.2061 626.394 76.1291 625.853 Q77.0203 625.28 77.0203 624.102 Q77.0203 623.816 76.8612 623.307 Q76.6702 622.797 76.2883 621.906 L80.9989 621.906 Q81.731 623.211 82.0811 624.389 Q82.4312 625.535 82.4312 626.649 Q82.4312 628.845 81.1899 630.15 Q79.9486 631.455 77.4023 631.932 Q79.9167 633.524 81.1899 635.847 Q82.4312 638.139 82.4312 641.258 Q82.4312 644.504 81.1899 646.796 Q79.9486 649.056 77.4659 650.393 L95.0671 650.393 L95.0671 656.249 Z" fill="#000000" fill-rule="evenodd" fill-opacity="1" /><path clip-path="url(#clip160)" d="M 0 0 M52.7033 586.417 Q48.7566 584.221 46.8787 581.166 Q45.0008 578.11 45.0008 573.972 Q45.0008 568.402 48.9157 565.379 Q52.7988 562.355 59.9921 562.355 L81.5082 562.355 L81.5082 568.243 L60.183 568.243 Q55.0586 568.243 52.576 570.057 Q50.0934 571.872 50.0934 575.596 Q50.0934 580.147 53.1171 582.789 Q56.1408 585.431 61.3607 585.431 L81.5082 585.431 L81.5082 591.319 L60.183 591.319 Q55.0268 591.319 52.576 593.133 Q50.0934 594.947 50.0934 598.735 Q50.0934 603.223 53.1489 605.865 Q56.1726 608.506 61.3607 608.506 L81.5082 608.506 L81.5082 614.395 L45.8602 614.395 L45.8602 608.506 L51.3984 608.506 Q48.12 606.501 46.5604 603.7 Q45.0008 600.899 45.0008 597.048 Q45.0008 593.165 46.9742 590.46 Q48.9476 587.722 52.7033 586.417 Z" fill="#000000" fill-rule="evenodd" fill-opacity="1" /><path clip-path="url(#clip160)" d="M 0 0 M32.0466 551.597 L32.0466 546.504 Q39.5582 541.73 46.7514 539.375 Q53.9446 536.988 61.0424 536.988 Q68.172 536.988 75.3971 539.375 Q82.6222 541.73 90.1019 546.504 L90.1019 551.597 Q82.8131 547.364 75.6199 545.295 Q68.3948 543.194 61.0424 543.194 Q53.69 543.194 46.5286 545.295 Q39.3672 547.364 32.0466 551.597 Z" fill="#000000" fill-rule="evenodd" fill-opacity="1" /><polyline clip-path="url(#clip162)" style="stroke:#009af9; stroke-width:8; stroke-opacity:1; fill:none" points="
  239.629,1368.29 241.589,1368.09 243.549,1367.81 245.509,1367.43 247.469,1366.9 249.429,1366.17 251.388,1365.17 253.348,1363.79 255.308,1361.88 257.268,1359.26 
  259.228,1355.63 261.187,1350.64 263.147,1343.75 265.107,1334.25 267.067,1321.15 269.027,1303.08 270.987,1281.66 272.946,1260.37 274.906,1239.52 276.866,1219.05 
  278.826,1198.96 280.786,1179.23 282.745,1159.87 284.705,1140.85 286.665,1122.19 288.625,1103.87 290.585,1085.89 292.545,1068.23 294.504,1050.9 296.464,1033.89 
  298.424,1017.19 300.384,1000.79 302.344,984.698 304.303,968.898 306.263,953.387 308.223,938.161 310.183,923.214 312.143,908.541 314.103,894.137 316.062,879.997 
  318.022,866.116 319.982,852.489 321.942,839.112 323.902,825.981 325.861,813.09 327.821,800.435 329.781,788.012 331.741,775.817 333.701,763.846 335.661,752.093 
  337.62,740.557 339.58,729.231 341.54,718.113 343.5,707.199 345.46,696.485 347.419,685.967 349.379,675.642 351.339,665.507 353.299,655.557 355.259,645.79 
  357.219,636.201 359.178,626.789 361.138,617.549 363.098,608.478 365.058,599.574 367.018,590.833 368.977,582.251 370.937,573.828 372.897,565.558 374.857,557.44 
  376.817,549.471 378.777,541.647 380.736,533.967 382.696,526.428 384.656,519.027 386.616,511.762 388.576,504.63 390.535,497.628 392.495,490.755 394.455,484.008 
  396.415,477.385 398.375,470.883 400.335,464.501 402.294,458.235 404.254,452.085 406.214,446.047 408.174,440.12 410.134,434.301 412.093,428.589 414.053,422.981 
  416.013,417.477 417.973,412.073 419.933,406.768 421.893,401.56 423.852,396.448 425.812,391.429 427.772,386.502 429.732,381.665 431.692,376.917 433.651,372.256 
  435.611,367.68 437.571,363.189 439.531,358.78 441.491,354.451 443.451,350.203 445.41,346.032 447.37,341.937 449.33,337.918 451.29,333.973 453.25,330.1 
  455.209,326.298 457.169,322.565 459.129,318.901 461.089,315.305 463.049,311.774 465.009,308.308 466.968,304.905 468.928,301.565 470.888,298.286 472.848,295.066 
  474.808,291.906 476.768,288.804 478.727,285.758 480.687,282.768 482.647,279.832 484.607,276.951 486.567,274.122 488.526,271.345 490.486,268.618 492.446,265.942 
  494.406,263.315 496.366,260.736 498.326,258.204 500.285,255.719 502.245,253.28 504.205,250.885 506.165,248.535 508.125,246.227 510.084,243.962 512.044,241.739 
  514.004,239.556 515.964,237.413 517.924,235.31 519.884,233.246 521.843,231.219 523.803,229.229 525.763,227.276 527.723,225.359 529.683,223.477 531.642,221.629 
  533.602,219.815 535.562,218.034 537.522,216.286 539.482,214.57 541.442,212.885 543.401,211.231 545.361,209.607 547.321,208.013 549.281,206.447 551.241,204.911 
  553.2,203.402 555.16,201.921 557.12,200.467 559.08,199.04 561.04,197.638 563,196.263 564.959,194.913 566.919,193.587 568.879,192.286 570.839,191.009 
  572.799,189.756 574.758,188.525 576.718,187.317 578.678,186.132 580.638,184.968 582.598,183.826 584.558,182.704 586.517,181.604 588.477,180.523 590.437,179.463 
  592.397,178.422 594.357,177.4 596.316,176.397 598.276,175.412 600.236,174.446 602.196,173.497 604.156,172.565 606.116,171.651 608.075,170.753 610.035,169.872 
  611.995,169.007 613.955,168.157 615.915,167.323 617.874,166.505 619.834,165.701 621.794,164.912 623.754,164.137 625.714,163.376 627.674,162.629 629.633,161.895 
  631.593,161.175 633.553,160.468 635.513,159.774 637.473,159.092 639.432,158.423 641.392,157.766 643.352,157.122 645.312,156.489 647.272,155.867 649.232,155.258 
  651.191,154.659 653.151,154.071 655.111,153.495 657.071,152.929 659.031,152.373 660.99,151.828 662.95,151.293 664.91,150.767 666.87,150.252 668.83,149.746 
  670.79,149.249 672.749,148.761 674.709,148.283 676.669,147.813 678.629,147.352 680.589,146.9 682.548,146.456 684.508,146.02 686.468,145.592 688.428,145.172 
  690.388,144.76 692.348,144.355 694.307,143.957 696.267,143.567 698.227,143.185 700.187,142.809 702.147,142.44 704.106,142.077 706.066,141.721 708.026,141.372 
  709.986,141.029 711.946,140.692 713.906,140.361 715.865,140.036 717.825,139.717 719.785,139.404 721.745,139.096 723.705,138.794 725.664,138.497 727.624,138.206 
  729.584,137.92 731.544,137.639 733.504,137.363 735.464,137.092 737.423,136.826 739.383,136.565 741.343,136.309 743.303,136.058 745.263,135.811 747.222,135.569 
  749.182,135.331 751.142,135.098 753.102,134.869 755.062,134.644 757.022,134.424 758.981,134.207 760.941,133.995 762.901,133.787 764.861,133.582 766.821,133.381 
  768.78,133.184 770.74,132.991 772.7,132.802 774.66,132.615 776.62,132.433 778.58,132.254 780.539,132.078 782.499,131.905 784.459,131.736 786.419,131.57 
  788.379,131.407 790.338,131.246 792.298,131.089 794.258,130.935 796.218,130.784 798.178,130.635 800.138,130.489 802.097,130.346 804.057,130.205 806.017,130.067 
  807.977,129.932 809.937,129.799 811.896,129.668 813.856,129.54 815.816,129.414 817.776,129.29 819.736,129.168 821.696,129.049 823.655,128.931 825.615,128.816 
  827.575,128.702 829.535,128.591 831.495,128.481 833.454,128.374 835.414,128.268 837.374,128.164 839.334,128.063 841.294,127.962 843.254,127.864 845.213,127.768 
  847.173,127.673 849.133,127.58 851.093,127.489 853.053,127.399 855.012,127.311 856.972,127.225 858.932,127.14 860.892,127.057 862.852,126.975 864.812,126.895 
  866.771,126.816 868.731,126.739 870.691,126.664 872.651,126.589 874.611,126.516 876.571,126.445 878.53,126.375 880.49,126.306 882.45,126.239 884.41,126.173 
  886.37,126.108 888.329,126.044 890.289,125.982 892.249,125.92 894.209,125.86 896.169,125.801 898.129,125.744 900.088,125.687 902.048,125.631 904.008,125.577 
  905.968,125.523 907.928,125.471 909.887,125.419 911.847,125.369 913.807,125.319 915.767,125.271 917.727,125.223 919.687,125.176 921.646,125.13 923.606,125.085 
  925.566,125.041 927.526,124.998 929.486,124.955 931.445,124.913 933.405,124.872 935.365,124.832 937.325,124.792 939.285,124.753 941.245,124.715 943.204,124.677 
  945.164,124.64 947.124,124.604 949.084,124.568 951.044,124.532 953.003,124.498 954.963,124.464 956.923,124.43 958.883,124.397 960.843,124.364 962.803,124.333 
  964.762,124.301 966.722,124.27 968.682,124.24 970.642,124.21 972.602,124.181 974.561,124.152 976.521,124.124 978.481,124.096 980.441,124.069 982.401,124.042 
  984.361,124.016 986.32,123.99 988.28,123.964 990.24,123.939 992.2,123.915 994.16,123.891 996.119,123.868 998.079,123.844 1000.04,123.822 1002,123.8 
  1003.96,123.778 1005.92,123.756 1007.88,123.736 1009.84,123.715 1011.8,123.695 1013.76,123.675 1015.72,123.656 1017.68,123.637 1019.64,123.618 1021.6,123.6 
  1023.56,123.582 1025.52,123.565 1027.48,123.548 1029.44,123.531 1031.4,123.514 1033.36,123.498 1035.32,123.482 1037.28,123.467 1039.24,123.452 1041.2,123.437 
  1043.16,123.423 1045.11,123.408 1047.07,123.394 1049.03,123.381 1050.99,123.367 1052.95,123.354 1054.91,123.342 1056.87,123.329 1058.83,123.317 1060.79,123.305 
  1062.75,123.293 1064.71,123.281 1066.67,123.27 1068.63,123.259 1070.59,123.248 1072.55,123.237 1074.51,123.227 1076.47,123.216 1078.43,123.206 1080.39,123.196 
  1082.35,123.187 1084.31,123.177 1086.27,123.168 1088.23,123.158 1090.19,123.149 1092.15,123.14 1094.11,123.131 1096.07,123.123 1098.03,123.114 1099.99,123.106 
  1101.95,123.097 1103.91,123.089 1105.87,123.081 1107.83,123.073 1109.79,123.065 1111.75,123.057 1113.71,123.049 1115.67,123.041 1117.63,123.034 1119.59,123.026 
  1121.55,123.019 1123.51,123.012 1125.47,123.005 1127.43,122.998 1129.39,122.991 1131.35,122.984 1133.31,122.977 1135.27,122.971 1137.23,122.964 1139.19,122.958 
  1141.15,122.952 1143.11,122.946 1145.07,122.94 1147.03,122.934 1148.99,122.928 1150.95,122.922 1152.9,122.916 1154.86,122.911 1156.82,122.905 1158.78,122.9 
  1160.74,122.895 1162.7,122.89 1164.66,122.885 1166.62,122.88 1168.58,122.875 1170.54,122.87 1172.5,122.866 1174.46,122.861 1176.42,122.857 1178.38,122.852 
  1180.34,122.848 1182.3,122.844 1184.26,122.84 1186.22,122.836 1188.18,122.832 1190.14,122.828 1192.1,122.825 1194.06,122.821 1196.02,122.817 1197.98,122.814 
  1199.94,122.811 1201.9,122.807 1203.86,122.804 1205.82,122.801 1207.78,122.798 1209.74,122.795 1211.7,122.792 1213.66,122.789 1215.62,122.787 1217.58,122.784 
  1219.54,122.781 1221.5,122.779 1223.46,122.776 1225.42,122.774 1227.38,122.771 1229.34,122.769 1231.3,122.767 1233.26,122.765 1235.22,122.763 1237.18,122.761 
  1239.14,122.759 1241.1,122.757 1243.06,122.755 1245.02,122.753 1246.98,122.751 1248.94,122.749 1250.9,122.748 1252.86,122.746 1254.82,122.744 1256.78,122.743 
  1258.74,122.741 1260.69,122.739 1262.65,122.738 1264.61,122.736 1266.57,122.735 1268.53,122.734 1270.49,122.732 1272.45,122.731 1274.41,122.729 1276.37,122.728 
  1278.33,122.727 1280.29,122.725 1282.25,122.724 1284.21,122.723 1286.17,122.721 1288.13,122.72 1290.09,122.719 1292.05,122.717 1294.01,122.716 1295.97,122.715 
  1297.93,122.713 1299.89,122.712 1301.85,122.711 1303.81,122.709 1305.77,122.708 1307.73,122.706 1309.69,122.705 1311.65,122.704 1313.61,122.702 1315.57,122.701 
  1317.53,122.7 1319.49,122.698 1321.45,122.697 1323.41,122.696 1325.37,122.695 1327.33,122.693 1329.29,122.692 1331.25,122.691 1333.21,122.69 1335.17,122.688 
  1337.13,122.687 1339.09,122.686 1341.05,122.685 1343.01,122.684 1344.97,122.683 1346.93,122.682 1348.89,122.681 1350.85,122.68 1352.81,122.678 1354.77,122.677 
  1356.73,122.676 1358.69,122.675 1360.65,122.674 1362.61,122.674 1364.57,122.673 1366.53,122.672 1368.48,122.671 1370.44,122.67 1372.4,122.669 1374.36,122.668 
  1376.32,122.667 1378.28,122.667 1380.24,122.666 1382.2,122.665 1384.16,122.664 1386.12,122.664 1388.08,122.663 1390.04,122.662 1392,122.662 1393.96,122.661 
  1395.92,122.66 1397.88,122.66 1399.84,122.659 1401.8,122.659 1403.76,122.658 1405.72,122.657 1407.68,122.657 1409.64,122.656 1411.6,122.656 1413.56,122.655 
  1415.52,122.655 1417.48,122.655 1419.44,122.654 1421.4,122.654 1423.36,122.653 1425.32,122.653 1427.28,122.653 1429.24,122.652 1431.2,122.652 1433.16,122.652 
  1435.12,122.652 1437.08,122.651 1439.04,122.651 1441,122.651 1442.96,122.651 1444.92,122.65 1446.88,122.65 1448.84,122.65 1450.8,122.65 1452.76,122.65 
  1454.72,122.65 1456.68,122.65 1458.64,122.649 1460.6,122.649 1462.56,122.649 1464.52,122.649 1466.48,122.649 1468.44,122.649 1470.4,122.649 1472.36,122.649 
  1474.32,122.649 1476.28,122.649 1478.23,122.649 1480.19,122.649 1482.15,122.649 1484.11,122.649 1486.07,122.649 1488.03,122.649 1489.99,122.649 1491.95,122.649 
  1493.91,122.649 1495.87,122.649 1497.83,122.649 1499.79,122.649 1501.75,122.649 1503.71,122.649 1505.67,122.649 1507.63,122.649 1509.59,122.649 1511.55,122.649 
  1513.51,122.649 1515.47,122.649 1517.43,122.649 1519.39,122.649 1521.35,122.649 1523.31,122.649 1525.27,122.649 1527.23,122.649 1529.19,122.648 1531.15,122.648 
  1533.11,122.648 1535.07,122.648 1537.03,122.648 1538.99,122.648 1540.95,122.648 1542.91,122.647 1544.87,122.647 1546.83,122.647 1548.79,122.647 1550.75,122.647 
  1552.71,122.646 1554.67,122.646 1556.63,122.646 1558.59,122.646 1560.55,122.645 1562.51,122.645 1564.47,122.645 1566.43,122.645 1568.39,122.644 1570.35,122.644 
  1572.31,122.644 1574.27,122.644 1576.23,122.643 1578.19,122.643 1580.15,122.643 1582.11,122.643 1584.07,122.642 1586.02,122.642 1587.98,122.642 1589.94,122.641 
  1591.9,122.641 1593.86,122.641 1595.82,122.641 1597.78,122.64 1599.74,122.64 1601.7,122.64 1603.66,122.64 1605.62,122.64 1607.58,122.639 1609.54,122.639 
  1611.5,122.639 1613.46,122.639 1615.42,122.638 1617.38,122.638 1619.34,122.638 1621.3,122.638 1623.26,122.637 1625.22,122.637 1627.18,122.637 1629.14,122.637 
  1631.1,122.637 1633.06,122.637 1635.02,122.636 1636.98,122.636 1638.94,122.636 1640.9,122.636 1642.86,122.636 1644.82,122.635 1646.78,122.635 1648.74,122.635 
  1650.7,122.635 1652.66,122.635 1654.62,122.635 1656.58,122.635 1658.54,122.634 1660.5,122.634 1662.46,122.634 1664.42,122.634 1666.38,122.634 1668.34,122.634 
  1670.3,122.634 1672.26,122.634 1674.22,122.634 1676.18,122.634 1678.14,122.634 1680.1,122.634 1682.06,122.633 1684.02,122.633 1685.98,122.633 1687.94,122.633 
  1689.9,122.633 1691.86,122.633 1693.81,122.633 1695.77,122.633 1697.73,122.633 1699.69,122.633 1701.65,122.633 1703.61,122.633 1705.57,122.633 1707.53,122.633 
  1709.49,122.633 1711.45,122.633 1713.41,122.633 1715.37,122.633 1717.33,122.633 1719.29,122.633 1721.25,122.634 1723.21,122.634 1725.17,122.634 1727.13,122.634 
  1729.09,122.634 1731.05,122.634 1733.01,122.634 1734.97,122.634 1736.93,122.634 1738.89,122.634 1740.85,122.634 1742.81,122.634 1744.77,122.635 1746.73,122.635 
  1748.69,122.635 1750.65,122.635 1752.61,122.635 1754.57,122.635 1756.53,122.635 1758.49,122.635 1760.45,122.636 1762.41,122.636 1764.37,122.636 1766.33,122.636 
  1768.29,122.636 1770.25,122.636 1772.21,122.636 1774.17,122.636 1776.13,122.637 1778.09,122.637 1780.05,122.637 1782.01,122.637 1783.97,122.637 1785.93,122.637 
  1787.89,122.637 1789.85,122.638 1791.81,122.638 1793.77,122.638 1795.73,122.638 1797.69,122.638 1799.65,122.638 1801.6,122.638 1803.56,122.639 1805.52,122.639 
  1807.48,122.639 1809.44,122.639 1811.4,122.639 1813.36,122.639 1815.32,122.639 1817.28,122.639 1819.24,122.64 1821.2,122.64 1823.16,122.64 1825.12,122.64 
  1827.08,122.64 1829.04,122.64 1831,122.64 1832.96,122.64 1834.92,122.64 1836.88,122.64 1838.84,122.64 1840.8,122.64 1842.76,122.64 1844.72,122.64 
  1846.68,122.64 1848.64,122.64 1850.6,122.64 1852.56,122.64 1854.52,122.64 1856.48,122.64 1858.44,122.64 1860.4,122.64 1862.36,122.64 1864.32,122.64 
  1866.28,122.64 1868.24,122.64 1870.2,122.64 1872.16,122.64 1874.12,122.639 1876.08,122.639 1878.04,122.639 1880,122.639 1881.96,122.639 1883.92,122.639 
  1885.88,122.639 1887.84,122.639 1889.8,122.639 1891.76,122.638 1893.72,122.638 1895.68,122.638 1897.64,122.638 1899.6,122.638 1901.56,122.638 1903.52,122.638 
  1905.48,122.638 1907.44,122.638 1909.39,122.637 1911.35,122.637 1913.31,122.637 1915.27,122.637 1917.23,122.637 1919.19,122.637 1921.15,122.637 1923.11,122.637 
  1925.07,122.637 1927.03,122.636 1928.99,122.636 1930.95,122.636 1932.91,122.636 1934.87,122.636 1936.83,122.636 1938.79,122.636 1940.75,122.636 1942.71,122.636 
  1944.67,122.636 1946.63,122.635 1948.59,122.635 1950.55,122.635 1952.51,122.635 1954.47,122.635 1956.43,122.635 1958.39,122.635 1960.35,122.635 1962.31,122.635 
  1964.27,122.635 1966.23,122.635 1968.19,122.635 1970.15,122.635 1972.11,122.634 1974.07,122.634 1976.03,122.634 1977.99,122.634 1979.95,122.634 1981.91,122.634 
  1983.87,122.634 1985.83,122.634 1987.79,122.634 1989.75,122.634 1991.71,122.634 1993.67,122.634 1995.63,122.634 1997.59,122.634 1999.55,122.634 2001.51,122.634 
  2003.47,122.634 2005.43,122.634 2007.39,122.634 2009.35,122.634 2011.31,122.634 2013.27,122.634 2015.23,122.634 2017.18,122.634 2019.14,122.634 2021.1,122.634 
  2023.06,122.634 2025.02,122.634 2026.98,122.634 2028.94,122.634 2030.9,122.634 2032.86,122.634 2034.82,122.634 2036.78,122.634 2038.74,122.634 2040.7,122.634 
  2042.66,122.634 2044.62,122.634 2046.58,122.634 2048.54,122.634 2050.5,122.634 2052.46,122.634 2054.42,122.634 2056.38,122.634 2058.34,122.634 2060.3,122.634 
  2062.26,122.634 2064.22,122.634 2066.18,122.634 2068.14,122.634 2070.1,122.634 2072.06,122.635 2074.02,122.635 2075.98,122.635 2077.94,122.635 2079.9,122.635 
  2081.86,122.635 2083.82,122.635 2085.78,122.635 2087.74,122.635 2089.7,122.635 2091.66,122.635 2093.62,122.635 2095.58,122.635 2097.54,122.635 2099.5,122.636 
  2101.46,122.636 2103.42,122.636 2105.38,122.636 2107.34,122.636 2109.3,122.636 2111.26,122.636 2113.22,122.636 2115.18,122.636 2117.14,122.636 2119.1,122.636 
  2121.06,122.636 2123.02,122.636 2124.97,122.637 2126.93,122.637 2128.89,122.637 2130.85,122.637 2132.81,122.637 2134.77,122.637 2136.73,122.637 2138.69,122.637 
  2140.65,122.637 2142.61,122.637 2144.57,122.637 2146.53,122.637 2148.49,122.637 2150.45,122.637 2152.41,122.638 2154.37,122.638 2156.33,122.638 2158.29,122.638 
  2160.25,122.638 2162.21,122.638 2164.17,122.638 2166.13,122.638 2168.09,122.638 2170.05,122.638 2172.01,122.638 2173.97,122.638 2175.93,122.638 2177.89,122.638 
  2179.85,122.638 2181.81,122.638 2183.77,122.638 2185.73,122.638 2187.69,122.638 2189.65,122.638 2191.61,122.638 2193.57,122.638 2195.53,122.638 2197.49,122.638 
  
  "/>
<polyline clip-path="url(#clip162)" style="stroke:#e26f46; stroke-width:8; stroke-opacity:1; fill:none" points="
  239.629,1368.29 241.589,1368.09 243.549,1367.83 245.509,1367.46 247.469,1366.96 249.429,1366.28 251.388,1365.34 253.348,1364.07 255.308,1362.32 257.268,1359.93 
  259.228,1356.66 261.187,1352.19 263.147,1346.07 265.107,1337.7 267.067,1326.26 269.027,1310.57 270.987,1289.17 272.946,1266.64 274.906,1244.6 276.866,1223.02 
  278.826,1201.89 280.786,1181.22 282.745,1160.99 284.705,1141.19 286.665,1121.81 288.625,1102.84 290.585,1084.28 292.545,1066.11 294.504,1048.33 296.464,1030.93 
  298.424,1013.9 300.384,997.227 302.344,980.913 304.303,964.946 306.263,949.318 308.223,934.024 310.183,919.055 312.143,904.405 314.103,890.067 316.062,876.034 
  318.022,862.299 319.982,848.858 321.942,835.702 323.902,822.826 325.861,810.225 327.821,797.891 329.781,785.821 331.741,774.007 333.701,762.444 335.661,751.128 
  337.62,740.053 339.58,729.214 341.54,718.605 343.5,708.223 345.46,698.061 347.419,688.116 349.379,678.383 351.339,668.857 353.299,659.533 355.259,650.409 
  357.219,641.478 359.178,632.737 361.138,624.183 363.098,615.81 365.058,607.616 367.018,599.596 368.977,591.746 370.937,584.064 372.897,576.546 374.857,569.187 
  376.817,561.986 378.777,554.938 380.736,548.04 382.696,541.288 384.656,534.681 386.616,528.215 388.576,521.886 390.535,515.691 392.495,509.629 394.455,503.696 
  396.415,497.889 398.375,492.205 400.335,486.642 402.294,481.198 404.254,475.869 406.214,470.654 408.174,465.55 410.134,460.554 412.093,455.665 414.053,450.879 
  416.013,446.196 417.973,441.613 419.933,437.127 421.893,432.737 423.852,428.441 425.812,424.236 427.772,420.12 429.732,416.093 431.692,412.151 433.651,408.293 
  435.611,404.518 437.571,400.823 439.531,397.206 441.491,393.666 443.451,390.202 445.41,386.811 447.37,383.493 449.33,380.245 451.29,377.066 453.25,373.954 
  455.209,370.908 457.169,367.928 459.129,365.01 461.089,362.155 463.049,359.36 465.009,356.625 466.968,353.948 468.928,351.329 470.888,348.765 472.848,346.256 
  474.808,343.8 476.768,341.397 478.727,339.045 480.687,336.744 482.647,334.491 484.607,332.287 486.567,330.129 488.526,328.018 490.486,325.952 492.446,323.929 
  494.406,321.95 496.366,320.012 498.326,318.116 500.285,316.261 502.245,314.444 504.205,312.667 506.165,310.926 508.125,309.223 510.084,307.556 512.044,305.924 
  514.004,304.327 515.964,302.764 517.924,301.233 519.884,299.736 521.843,298.27 523.803,296.835 525.763,295.431 527.723,294.057 529.683,292.712 531.642,291.396 
  533.602,290.108 535.562,288.848 537.522,287.615 539.482,286.408 541.442,285.227 543.401,284.071 545.361,282.94 547.321,281.833 549.281,280.749 551.241,279.689 
  553.2,278.652 555.16,277.636 557.12,276.643 559.08,275.67 561.04,274.718 563,273.787 564.959,272.875 566.919,271.983 568.879,271.109 570.839,270.254 
  572.799,269.417 574.758,268.598 576.718,267.796 578.678,267.011 580.638,266.243 582.598,265.49 584.558,264.754 586.517,264.033 588.477,263.327 590.437,262.636 
  592.397,261.96 594.357,261.299 596.316,260.651 598.276,260.018 600.236,259.397 602.196,258.791 604.156,258.197 606.116,257.616 608.075,257.047 610.035,256.49 
  611.995,255.946 613.955,255.413 615.915,254.892 617.874,254.382 619.834,253.883 621.794,253.394 623.754,252.916 625.714,252.449 627.674,251.991 629.633,251.543 
  631.593,251.105 633.553,250.676 635.513,250.257 637.473,249.846 639.432,249.444 641.392,249.05 643.352,248.665 645.312,248.288 647.272,247.919 649.232,247.558 
  651.191,247.205 653.151,246.859 655.111,246.52 657.071,246.188 659.031,245.863 660.99,245.544 662.95,245.233 664.91,244.928 666.87,244.629 668.83,244.337 
  670.79,244.05 672.749,243.77 674.709,243.496 676.669,243.227 678.629,242.965 680.589,242.707 682.548,242.456 684.508,242.21 686.468,241.969 688.428,241.733 
  690.388,241.502 692.348,241.277 694.307,241.056 696.267,240.84 698.227,240.628 700.187,240.422 702.147,240.219 704.106,240.022 706.066,239.828 708.026,239.639 
  709.986,239.454 711.946,239.272 713.906,239.095 715.865,238.922 717.825,238.752 719.785,238.586 721.745,238.424 723.705,238.265 725.664,238.109 727.624,237.957 
  729.584,237.808 731.544,237.663 733.504,237.52 735.464,237.38 737.423,237.244 739.383,237.11 741.343,236.979 743.303,236.851 745.263,236.725 747.222,236.602 
  749.182,236.482 751.142,236.363 753.102,236.248 755.062,236.134 757.022,236.023 758.981,235.914 760.941,235.808 762.901,235.703 764.861,235.601 766.821,235.501 
  768.78,235.403 770.74,235.307 772.7,235.213 774.66,235.121 776.62,235.031 778.58,234.943 780.539,234.857 782.499,234.772 784.459,234.69 786.419,234.609 
  788.379,234.53 790.338,234.453 792.298,234.377 794.258,234.303 796.218,234.231 798.178,234.16 800.138,234.091 802.097,234.024 804.057,233.957 806.017,233.893 
  807.977,233.83 809.937,233.768 811.896,233.707 813.856,233.648 815.816,233.591 817.776,233.534 819.736,233.479 821.696,233.425 823.655,233.372 825.615,233.321 
  827.575,233.27 829.535,233.221 831.495,233.173 833.454,233.126 835.414,233.08 837.374,233.034 839.334,232.99 841.294,232.947 843.254,232.905 845.213,232.863 
  847.173,232.823 849.133,232.783 851.093,232.744 853.053,232.706 855.012,232.669 856.972,232.632 858.932,232.596 860.892,232.561 862.852,232.526 864.812,232.492 
  866.771,232.459 868.731,232.426 870.691,232.394 872.651,232.362 874.611,232.332 876.571,232.301 878.53,232.272 880.49,232.243 882.45,232.214 884.41,232.186 
  886.37,232.159 888.329,232.132 890.289,232.106 892.249,232.08 894.209,232.055 896.169,232.031 898.129,232.006 900.088,231.983 902.048,231.96 904.008,231.937 
  905.968,231.915 907.928,231.894 909.887,231.873 911.847,231.852 913.807,231.832 915.767,231.813 917.727,231.793 919.687,231.775 921.646,231.756 923.606,231.738 
  925.566,231.721 927.526,231.704 929.486,231.687 931.445,231.671 933.405,231.655 935.365,231.64 937.325,231.624 939.285,231.61 941.245,231.595 943.204,231.581 
  945.164,231.568 947.124,231.554 949.084,231.541 951.044,231.528 953.003,231.516 954.963,231.504 956.923,231.492 958.883,231.48 960.843,231.469 962.803,231.458 
  964.762,231.447 966.722,231.437 968.682,231.426 970.642,231.416 972.602,231.407 974.561,231.397 976.521,231.387 978.481,231.378 980.441,231.369 982.401,231.36 
  984.361,231.351 986.32,231.343 988.28,231.334 990.24,231.326 992.2,231.318 994.16,231.31 996.119,231.302 998.079,231.294 1000.04,231.286 1002,231.279 
  1003.96,231.271 1005.92,231.264 1007.88,231.256 1009.84,231.249 1011.8,231.242 1013.76,231.235 1015.72,231.229 1017.68,231.222 1019.64,231.215 1021.6,231.209 
  1023.56,231.202 1025.52,231.196 1027.48,231.19 1029.44,231.184 1031.4,231.178 1033.36,231.173 1035.32,231.167 1037.28,231.162 1039.24,231.156 1041.2,231.151 
  1043.16,231.146 1045.11,231.141 1047.07,231.136 1049.03,231.131 1050.99,231.126 1052.95,231.122 1054.91,231.117 1056.87,231.113 1058.83,231.109 1060.79,231.104 
  1062.75,231.1 1064.71,231.096 1066.67,231.093 1068.63,231.089 1070.59,231.085 1072.55,231.082 1074.51,231.078 1076.47,231.075 1078.43,231.072 1080.39,231.068 
  1082.35,231.065 1084.31,231.062 1086.27,231.059 1088.23,231.057 1090.19,231.054 1092.15,231.051 1094.11,231.049 1096.07,231.046 1098.03,231.044 1099.99,231.041 
  1101.95,231.039 1103.91,231.037 1105.87,231.035 1107.83,231.033 1109.79,231.031 1111.75,231.029 1113.71,231.027 1115.67,231.025 1117.63,231.023 1119.59,231.022 
  1121.55,231.02 1123.51,231.018 1125.47,231.017 1127.43,231.015 1129.39,231.014 1131.35,231.012 1133.31,231.011 1135.27,231.009 1137.23,231.008 1139.19,231.007 
  1141.15,231.005 1143.11,231.004 1145.07,231.003 1147.03,231.002 1148.99,231 1150.95,230.999 1152.9,230.998 1154.86,230.997 1156.82,230.995 1158.78,230.994 
  1160.74,230.993 1162.7,230.992 1164.66,230.99 1166.62,230.989 1168.58,230.988 1170.54,230.987 1172.5,230.985 1174.46,230.984 1176.42,230.983 1178.38,230.981 
  1180.34,230.98 1182.3,230.979 1184.26,230.978 1186.22,230.976 1188.18,230.975 1190.14,230.974 1192.1,230.973 1194.06,230.972 1196.02,230.97 1197.98,230.969 
  1199.94,230.968 1201.9,230.967 1203.86,230.966 1205.82,230.965 1207.78,230.964 1209.74,230.963 1211.7,230.962 1213.66,230.961 1215.62,230.96 1217.58,230.959 
  1219.54,230.958 1221.5,230.957 1223.46,230.956 1225.42,230.955 1227.38,230.955 1229.34,230.954 1231.3,230.953 1233.26,230.952 1235.22,230.951 1237.18,230.951 
  1239.14,230.95 1241.1,230.949 1243.06,230.949 1245.02,230.948 1246.98,230.947 1248.94,230.947 1250.9,230.946 1252.86,230.946 1254.82,230.945 1256.78,230.944 
  1258.74,230.944 1260.69,230.943 1262.65,230.943 1264.61,230.943 1266.57,230.942 1268.53,230.942 1270.49,230.941 1272.45,230.941 1274.41,230.941 1276.37,230.94 
  1278.33,230.94 1280.29,230.94 1282.25,230.94 1284.21,230.939 1286.17,230.939 1288.13,230.939 1290.09,230.939 1292.05,230.938 1294.01,230.938 1295.97,230.938 
  1297.93,230.938 1299.89,230.938 1301.85,230.938 1303.81,230.938 1305.77,230.938 1307.73,230.938 1309.69,230.938 1311.65,230.937 1313.61,230.937 1315.57,230.937 
  1317.53,230.937 1319.49,230.937 1321.45,230.937 1323.41,230.937 1325.37,230.937 1327.33,230.937 1329.29,230.937 1331.25,230.938 1333.21,230.938 1335.17,230.938 
  1337.13,230.938 1339.09,230.938 1341.05,230.938 1343.01,230.938 1344.97,230.938 1346.93,230.938 1348.89,230.938 1350.85,230.938 1352.81,230.938 1354.77,230.938 
  1356.73,230.938 1358.69,230.938 1360.65,230.938 1362.61,230.938 1364.57,230.938 1366.53,230.938 1368.48,230.938 1370.44,230.937 1372.4,230.937 1374.36,230.937 
  1376.32,230.937 1378.28,230.937 1380.24,230.937 1382.2,230.936 1384.16,230.936 1386.12,230.936 1388.08,230.936 1390.04,230.935 1392,230.935 1393.96,230.935 
  1395.92,230.935 1397.88,230.935 1399.84,230.934 1401.8,230.934 1403.76,230.934 1405.72,230.933 1407.68,230.933 1409.64,230.933 1411.6,230.933 1413.56,230.932 
  1415.52,230.932 1417.48,230.932 1419.44,230.932 1421.4,230.931 1423.36,230.931 1425.32,230.931 1427.28,230.931 1429.24,230.93 1431.2,230.93 1433.16,230.93 
  1435.12,230.93 1437.08,230.929 1439.04,230.929 1441,230.929 1442.96,230.929 1444.92,230.929 1446.88,230.928 1448.84,230.928 1450.8,230.928 1452.76,230.928 
  1454.72,230.928 1456.68,230.927 1458.64,230.927 1460.6,230.927 1462.56,230.927 1464.52,230.927 1466.48,230.926 1468.44,230.926 1470.4,230.926 1472.36,230.926 
  1474.32,230.926 1476.28,230.926 1478.23,230.926 1480.19,230.925 1482.15,230.925 1484.11,230.925 1486.07,230.925 1488.03,230.925 1489.99,230.925 1491.95,230.925 
  1493.91,230.925 1495.87,230.925 1497.83,230.925 1499.79,230.925 1501.75,230.925 1503.71,230.925 1505.67,230.925 1507.63,230.924 1509.59,230.924 1511.55,230.924 
  1513.51,230.924 1515.47,230.924 1517.43,230.924 1519.39,230.924 1521.35,230.924 1523.31,230.925 1525.27,230.925 1527.23,230.925 1529.19,230.925 1531.15,230.925 
  1533.11,230.925 1535.07,230.925 1537.03,230.925 1538.99,230.925 1540.95,230.925 1542.91,230.925 1544.87,230.925 1546.83,230.925 1548.79,230.925 1550.75,230.926 
  1552.71,230.926 1554.67,230.926 1556.63,230.926 1558.59,230.926 1560.55,230.926 1562.51,230.926 1564.47,230.926 1566.43,230.927 1568.39,230.927 1570.35,230.927 
  1572.31,230.927 1574.27,230.927 1576.23,230.927 1578.19,230.927 1580.15,230.928 1582.11,230.928 1584.07,230.928 1586.02,230.928 1587.98,230.928 1589.94,230.928 
  1591.9,230.929 1593.86,230.929 1595.82,230.929 1597.78,230.929 1599.74,230.929 1601.7,230.929 1603.66,230.929 1605.62,230.93 1607.58,230.93 1609.54,230.93 
  1611.5,230.93 1613.46,230.93 1615.42,230.93 1617.38,230.93 1619.34,230.93 1621.3,230.931 1623.26,230.931 1625.22,230.931 1627.18,230.931 1629.14,230.931 
  1631.1,230.931 1633.06,230.931 1635.02,230.931 1636.98,230.931 1638.94,230.931 1640.9,230.931 1642.86,230.931 1644.82,230.931 1646.78,230.931 1648.74,230.931 
  1650.7,230.931 1652.66,230.931 1654.62,230.931 1656.58,230.931 1658.54,230.931 1660.5,230.931 1662.46,230.931 1664.42,230.931 1666.38,230.931 1668.34,230.93 
  1670.3,230.93 1672.26,230.93 1674.22,230.93 1676.18,230.93 1678.14,230.929 1680.1,230.929 1682.06,230.929 1684.02,230.929 1685.98,230.929 1687.94,230.928 
  1689.9,230.928 1691.86,230.928 1693.81,230.928 1695.77,230.927 1697.73,230.927 1699.69,230.927 1701.65,230.927 1703.61,230.926 1705.57,230.926 1707.53,230.926 
  1709.49,230.926 1711.45,230.925 1713.41,230.925 1715.37,230.925 1717.33,230.924 1719.29,230.924 1721.25,230.924 1723.21,230.924 1725.17,230.923 1727.13,230.923 
  1729.09,230.923 1731.05,230.922 1733.01,230.922 1734.97,230.922 1736.93,230.922 1738.89,230.921 1740.85,230.921 1742.81,230.921 1744.77,230.921 1746.73,230.92 
  1748.69,230.92 1750.65,230.92 1752.61,230.92 1754.57,230.919 1756.53,230.919 1758.49,230.919 1760.45,230.919 1762.41,230.919 1764.37,230.918 1766.33,230.918 
  1768.29,230.918 1770.25,230.918 1772.21,230.918 1774.17,230.917 1776.13,230.917 1778.09,230.917 1780.05,230.917 1782.01,230.917 1783.97,230.917 1785.93,230.917 
  1787.89,230.917 1789.85,230.916 1791.81,230.916 1793.77,230.916 1795.73,230.916 1797.69,230.916 1799.65,230.916 1801.6,230.916 1803.56,230.916 1805.52,230.916 
  1807.48,230.916 1809.44,230.916 1811.4,230.916 1813.36,230.916 1815.32,230.916 1817.28,230.916 1819.24,230.916 1821.2,230.916 1823.16,230.916 1825.12,230.916 
  1827.08,230.916 1829.04,230.916 1831,230.916 1832.96,230.916 1834.92,230.916 1836.88,230.916 1838.84,230.917 1840.8,230.917 1842.76,230.917 1844.72,230.917 
  1846.68,230.917 1848.64,230.917 1850.6,230.917 1852.56,230.918 1854.52,230.918 1856.48,230.918 1858.44,230.918 1860.4,230.918 1862.36,230.919 1864.32,230.919 
  1866.28,230.919 1868.24,230.919 1870.2,230.919 1872.16,230.92 1874.12,230.92 1876.08,230.92 1878.04,230.921 1880,230.921 1881.96,230.921 1883.92,230.921 
  1885.88,230.922 1887.84,230.922 1889.8,230.922 1891.76,230.923 1893.72,230.923 1895.68,230.923 1897.64,230.923 1899.6,230.924 1901.56,230.924 1903.52,230.924 
  1905.48,230.925 1907.44,230.925 1909.39,230.926 1911.35,230.926 1913.31,230.926 1915.27,230.927 1917.23,230.927 1919.19,230.927 1921.15,230.928 1923.11,230.928 
  1925.07,230.928 1927.03,230.929 1928.99,230.929 1930.95,230.929 1932.91,230.93 1934.87,230.93 1936.83,230.93 1938.79,230.931 1940.75,230.931 1942.71,230.931 
  1944.67,230.932 1946.63,230.932 1948.59,230.932 1950.55,230.933 1952.51,230.933 1954.47,230.933 1956.43,230.934 1958.39,230.934 1960.35,230.934 1962.31,230.935 
  1964.27,230.935 1966.23,230.935 1968.19,230.935 1970.15,230.936 1972.11,230.936 1974.07,230.936 1976.03,230.936 1977.99,230.937 1979.95,230.937 1981.91,230.937 
  1983.87,230.937 1985.83,230.937 1987.79,230.937 1989.75,230.938 1991.71,230.938 1993.67,230.938 1995.63,230.938 1997.59,230.938 1999.55,230.938 2001.51,230.938 
  2003.47,230.938 2005.43,230.938 2007.39,230.938 2009.35,230.938 2011.31,230.938 2013.27,230.938 2015.23,230.938 2017.18,230.938 2019.14,230.938 2021.1,230.937 
  2023.06,230.937 2025.02,230.937 2026.98,230.937 2028.94,230.937 2030.9,230.936 2032.86,230.936 2034.82,230.936 2036.78,230.936 2038.74,230.936 2040.7,230.935 
  2042.66,230.935 2044.62,230.935 2046.58,230.935 2048.54,230.935 2050.5,230.934 2052.46,230.934 2054.42,230.934 2056.38,230.934 2058.34,230.934 2060.3,230.934 
  2062.26,230.933 2064.22,230.933 2066.18,230.933 2068.14,230.933 2070.1,230.933 2072.06,230.933 2074.02,230.933 2075.98,230.932 2077.94,230.932 2079.9,230.932 
  2081.86,230.932 2083.82,230.932 2085.78,230.932 2087.74,230.932 2089.7,230.932 2091.66,230.931 2093.62,230.931 2095.58,230.931 2097.54,230.931 2099.5,230.931 
  2101.46,230.931 2103.42,230.931 2105.38,230.931 2107.34,230.931 2109.3,230.931 2111.26,230.93 2113.22,230.93 2115.18,230.93 2117.14,230.93 2119.1,230.93 
  2121.06,230.93 2123.02,230.93 2124.97,230.93 2126.93,230.93 2128.89,230.93 2130.85,230.93 2132.81,230.93 2134.77,230.93 2136.73,230.93 2138.69,230.93 
  2140.65,230.929 2142.61,230.929 2144.57,230.929 2146.53,230.929 2148.49,230.929 2150.45,230.929 2152.41,230.929 2154.37,230.929 2156.33,230.929 2158.29,230.929 
  2160.25,230.929 2162.21,230.929 2164.17,230.929 2166.13,230.929 2168.09,230.929 2170.05,230.929 2172.01,230.929 2173.97,230.929 2175.93,230.929 2177.89,230.929 
  2179.85,230.929 2181.81,230.929 2183.77,230.929 2185.73,230.929 2187.69,230.929 2189.65,230.929 2191.61,230.929 2193.57,230.928 2195.53,230.928 2197.49,230.928 
  
  "/>
<polyline clip-path="url(#clip162)" style="stroke:#3da44d; stroke-width:8; stroke-opacity:1; fill:none" points="
  239.629,1368.29 241.589,1368.09 243.549,1367.83 245.509,1367.47 247.469,1366.98 249.429,1366.31 251.388,1365.4 253.348,1364.16 255.308,1362.47 257.268,1360.16 
  259.228,1357 261.187,1352.7 263.147,1346.84 265.107,1338.84 267.067,1327.94 269.027,1313.06 270.987,1293.27 272.946,1271.72 274.906,1250.8 276.866,1230.25 
  278.826,1210.1 280.786,1190.34 282.745,1170.95 284.705,1151.94 286.665,1133.29 288.625,1115 290.585,1097.05 292.545,1079.46 294.504,1062.19 296.464,1045.26 
  298.424,1028.66 300.384,1012.37 302.344,996.394 304.303,980.725 306.263,965.355 308.223,950.28 310.183,935.493 312.143,920.99 314.103,906.765 316.062,892.813 
  318.022,879.127 319.982,865.704 321.942,852.539 323.902,839.625 325.861,826.959 327.821,814.535 329.781,802.35 331.741,790.398 333.701,778.675 335.661,767.176 
  337.62,755.898 339.58,744.835 341.54,733.985 343.5,723.343 345.46,712.904 347.419,702.666 349.379,692.624 351.339,682.774 353.299,673.113 355.259,663.637 
  357.219,654.343 359.178,645.227 361.138,636.286 363.098,627.515 365.058,618.913 367.018,610.476 368.977,602.2 370.937,594.083 372.897,586.121 374.857,578.311 
  376.817,570.651 378.777,563.138 380.736,555.769 382.696,548.541 384.656,541.452 386.616,534.498 388.576,527.678 390.535,520.988 392.495,514.427 394.455,507.992 
  396.415,501.679 398.375,495.488 400.335,489.416 402.294,483.46 404.254,477.618 406.214,471.888 408.174,466.267 410.134,460.754 412.093,455.347 414.053,450.044 
  416.013,444.842 417.973,439.739 419.933,434.734 421.893,429.825 423.852,425.01 425.812,420.287 427.772,415.654 429.732,411.11 431.692,406.654 433.651,402.283 
  435.611,397.995 437.571,393.79 439.531,389.666 441.491,385.621 443.451,381.653 445.41,377.762 447.37,373.945 449.33,370.201 451.29,366.529 453.25,362.928 
  455.209,359.395 457.169,355.93 459.129,352.532 461.089,349.199 463.049,345.929 465.009,342.722 466.968,339.576 468.928,336.491 470.888,333.465 472.848,330.496 
  474.808,327.584 476.768,324.728 478.727,321.926 480.687,319.178 482.647,316.483 484.607,313.839 486.567,311.246 488.526,308.702 490.486,306.208 492.446,303.761 
  494.406,301.361 496.366,299.008 498.326,296.699 500.285,294.435 502.245,292.214 504.205,290.036 506.165,287.9 508.125,285.805 510.084,283.75 512.044,281.735 
  514.004,279.758 515.964,277.819 517.924,275.917 519.884,274.052 521.843,272.222 523.803,270.428 525.763,268.668 527.723,266.941 529.683,265.248 531.642,263.586 
  533.602,261.957 535.562,260.359 537.522,258.791 539.482,257.253 541.442,255.744 543.401,254.264 545.361,252.812 547.321,251.388 549.281,249.991 551.241,248.621 
  553.2,247.278 555.16,245.96 557.12,244.667 559.08,243.399 561.04,242.156 563,240.936 564.959,239.74 566.919,238.567 568.879,237.416 570.839,236.288 
  572.799,235.181 574.758,234.096 576.718,233.032 578.678,231.988 580.638,230.964 582.598,229.96 584.558,228.975 586.517,228.009 588.477,227.062 590.437,226.133 
  592.397,225.221 594.357,224.328 596.316,223.451 598.276,222.591 600.236,221.747 602.196,220.92 604.156,220.108 606.116,219.312 608.075,218.531 610.035,217.765 
  611.995,217.013 613.955,216.276 615.915,215.553 617.874,214.843 619.834,214.147 621.794,213.464 623.754,212.794 625.714,212.136 627.674,211.492 629.633,210.859 
  631.593,210.239 633.553,209.631 635.513,209.034 637.473,208.449 639.432,207.875 641.392,207.312 643.352,206.76 645.312,206.218 647.272,205.687 649.232,205.167 
  651.191,204.656 653.151,204.155 655.111,203.664 657.071,203.183 659.031,202.711 660.99,202.248 662.95,201.794 664.91,201.348 666.87,200.911 668.83,200.483 
  670.79,200.063 672.749,199.651 674.709,199.247 676.669,198.851 678.629,198.462 680.589,198.081 682.548,197.708 684.508,197.341 686.468,196.981 688.428,196.628 
  690.388,196.282 692.348,195.943 694.307,195.61 696.267,195.283 698.227,194.962 700.187,194.648 702.147,194.339 704.106,194.036 706.066,193.739 708.026,193.447 
  709.986,193.161 711.946,192.88 713.906,192.604 715.865,192.334 717.825,192.069 719.785,191.808 721.745,191.553 723.705,191.303 725.664,191.057 727.624,190.816 
  729.584,190.58 731.544,190.349 733.504,190.122 735.464,189.899 737.423,189.68 739.383,189.466 741.343,189.256 743.303,189.05 745.263,188.848 747.222,188.65 
  749.182,188.456 751.142,188.266 753.102,188.079 755.062,187.896 757.022,187.717 758.981,187.541 760.941,187.369 762.901,187.2 764.861,187.034 766.821,186.871 
  768.78,186.712 770.74,186.556 772.7,186.403 774.66,186.253 776.62,186.105 778.58,185.961 780.539,185.819 782.499,185.68 784.459,185.544 786.419,185.41 
  788.379,185.279 790.338,185.151 792.298,185.025 794.258,184.901 796.218,184.779 798.178,184.66 800.138,184.543 802.097,184.428 804.057,184.316 806.017,184.205 
  807.977,184.096 809.937,183.99 811.896,183.885 813.856,183.782 815.816,183.681 817.776,183.582 819.736,183.485 821.696,183.389 823.655,183.296 825.615,183.204 
  827.575,183.113 829.535,183.025 831.495,182.938 833.454,182.853 835.414,182.77 837.374,182.688 839.334,182.607 841.294,182.529 843.254,182.451 845.213,182.376 
  847.173,182.301 849.133,182.228 851.093,182.157 853.053,182.087 855.012,182.019 856.972,181.951 858.932,181.885 860.892,181.821 862.852,181.758 864.812,181.696 
  866.771,181.635 868.731,181.575 870.691,181.517 872.651,181.46 874.611,181.404 876.571,181.349 878.53,181.295 880.49,181.242 882.45,181.191 884.41,181.14 
  886.37,181.09 888.329,181.042 890.289,180.994 892.249,180.947 894.209,180.902 896.169,180.857 898.129,180.813 900.088,180.77 902.048,180.727 904.008,180.686 
  905.968,180.645 907.928,180.605 909.887,180.566 911.847,180.528 913.807,180.49 915.767,180.453 917.727,180.417 919.687,180.381 921.646,180.346 923.606,180.312 
  925.566,180.278 927.526,180.245 929.486,180.213 931.445,180.18 933.405,180.149 935.365,180.118 937.325,180.087 939.285,180.057 941.245,180.028 943.204,179.999 
  945.164,179.97 947.124,179.943 949.084,179.915 951.044,179.888 953.003,179.862 954.963,179.836 956.923,179.81 958.883,179.785 960.843,179.761 962.803,179.736 
  964.762,179.713 966.722,179.69 968.682,179.667 970.642,179.645 972.602,179.623 974.561,179.601 976.521,179.58 978.481,179.56 980.441,179.539 982.401,179.52 
  984.361,179.5 986.32,179.481 988.28,179.463 990.24,179.445 992.2,179.427 994.16,179.409 996.119,179.392 998.079,179.375 1000.04,179.359 1002,179.343 
  1003.96,179.327 1005.92,179.312 1007.88,179.297 1009.84,179.282 1011.8,179.268 1013.76,179.254 1015.72,179.24 1017.68,179.226 1019.64,179.213 1021.6,179.2 
  1023.56,179.188 1025.52,179.175 1027.48,179.163 1029.44,179.151 1031.4,179.14 1033.36,179.129 1035.32,179.117 1037.28,179.107 1039.24,179.096 1041.2,179.086 
  1043.16,179.075 1045.11,179.066 1047.07,179.056 1049.03,179.046 1050.99,179.037 1052.95,179.028 1054.91,179.019 1056.87,179.01 1058.83,179.001 1060.79,178.993 
  1062.75,178.984 1064.71,178.976 1066.67,178.968 1068.63,178.96 1070.59,178.952 1072.55,178.944 1074.51,178.937 1076.47,178.929 1078.43,178.922 1080.39,178.915 
  1082.35,178.907 1084.31,178.9 1086.27,178.893 1088.23,178.886 1090.19,178.879 1092.15,178.872 1094.11,178.866 1096.07,178.859 1098.03,178.853 1099.99,178.846 
  1101.95,178.84 1103.91,178.834 1105.87,178.828 1107.83,178.822 1109.79,178.816 1111.75,178.81 1113.71,178.804 1115.67,178.799 1117.63,178.793 1119.59,178.788 
  1121.55,178.783 1123.51,178.777 1125.47,178.772 1127.43,178.767 1129.39,178.762 1131.35,178.757 1133.31,178.753 1135.27,178.748 1137.23,178.744 1139.19,178.739 
  1141.15,178.735 1143.11,178.731 1145.07,178.726 1147.03,178.722 1148.99,178.718 1150.95,178.715 1152.9,178.711 1154.86,178.707 1156.82,178.703 1158.78,178.7 
  1160.74,178.696 1162.7,178.693 1164.66,178.69 1166.62,178.686 1168.58,178.683 1170.54,178.68 1172.5,178.677 1174.46,178.674 1176.42,178.672 1178.38,178.669 
  1180.34,178.666 1182.3,178.664 1184.26,178.661 1186.22,178.659 1188.18,178.656 1190.14,178.654 1192.1,178.652 1194.06,178.649 1196.02,178.647 1197.98,178.645 
  1199.94,178.643 1201.9,178.641 1203.86,178.639 1205.82,178.637 1207.78,178.636 1209.74,178.634 1211.7,178.632 1213.66,178.63 1215.62,178.629 1217.58,178.627 
  1219.54,178.626 1221.5,178.624 1223.46,178.623 1225.42,178.621 1227.38,178.62 1229.34,178.619 1231.3,178.617 1233.26,178.616 1235.22,178.615 1237.18,178.613 
  1239.14,178.612 1241.1,178.611 1243.06,178.61 1245.02,178.609 1246.98,178.608 1248.94,178.606 1250.9,178.605 1252.86,178.604 1254.82,178.603 1256.78,178.602 
  1258.74,178.601 1260.69,178.6 1262.65,178.598 1264.61,178.597 1266.57,178.596 1268.53,178.595 1270.49,178.594 1272.45,178.592 1274.41,178.591 1276.37,178.59 
  1278.33,178.589 1280.29,178.588 1282.25,178.586 1284.21,178.585 1286.17,178.584 1288.13,178.583 1290.09,178.582 1292.05,178.581 1294.01,178.58 1295.97,178.578 
  1297.93,178.577 1299.89,178.576 1301.85,178.575 1303.81,178.574 1305.77,178.573 1307.73,178.572 1309.69,178.571 1311.65,178.57 1313.61,178.569 1315.57,178.568 
  1317.53,178.567 1319.49,178.566 1321.45,178.565 1323.41,178.564 1325.37,178.564 1327.33,178.563 1329.29,178.562 1331.25,178.561 1333.21,178.56 1335.17,178.559 
  1337.13,178.559 1339.09,178.558 1341.05,178.557 1343.01,178.556 1344.97,178.556 1346.93,178.555 1348.89,178.554 1350.85,178.554 1352.81,178.553 1354.77,178.552 
  1356.73,178.552 1358.69,178.551 1360.65,178.551 1362.61,178.55 1364.57,178.549 1366.53,178.549 1368.48,178.548 1370.44,178.548 1372.4,178.547 1374.36,178.547 
  1376.32,178.547 1378.28,178.546 1380.24,178.546 1382.2,178.545 1384.16,178.545 1386.12,178.545 1388.08,178.544 1390.04,178.544 1392,178.544 1393.96,178.544 
  1395.92,178.543 1397.88,178.543 1399.84,178.543 1401.8,178.543 1403.76,178.542 1405.72,178.542 1407.68,178.542 1409.64,178.542 1411.6,178.542 1413.56,178.542 
  1415.52,178.541 1417.48,178.541 1419.44,178.541 1421.4,178.541 1423.36,178.541 1425.32,178.541 1427.28,178.541 1429.24,178.541 1431.2,178.541 1433.16,178.541 
  1435.12,178.541 1437.08,178.541 1439.04,178.541 1441,178.541 1442.96,178.541 1444.92,178.541 1446.88,178.541 1448.84,178.541 1450.8,178.541 1452.76,178.541 
  1454.72,178.541 1456.68,178.541 1458.64,178.541 1460.6,178.541 1462.56,178.541 1464.52,178.541 1466.48,178.541 1468.44,178.541 1470.4,178.541 1472.36,178.541 
  1474.32,178.541 1476.28,178.541 1478.23,178.541 1480.19,178.541 1482.15,178.541 1484.11,178.541 1486.07,178.541 1488.03,178.541 1489.99,178.541 1491.95,178.541 
  1493.91,178.541 1495.87,178.541 1497.83,178.541 1499.79,178.541 1501.75,178.541 1503.71,178.54 1505.67,178.54 1507.63,178.54 1509.59,178.54 1511.55,178.54 
  1513.51,178.539 1515.47,178.539 1517.43,178.539 1519.39,178.539 1521.35,178.539 1523.31,178.538 1525.27,178.538 1527.23,178.538 1529.19,178.538 1531.15,178.537 
  1533.11,178.537 1535.07,178.537 1537.03,178.537 1538.99,178.537 1540.95,178.536 1542.91,178.536 1544.87,178.536 1546.83,178.536 1548.79,178.535 1550.75,178.535 
  1552.71,178.535 1554.67,178.535 1556.63,178.534 1558.59,178.534 1560.55,178.534 1562.51,178.534 1564.47,178.533 1566.43,178.533 1568.39,178.533 1570.35,178.533 
  1572.31,178.533 1574.27,178.532 1576.23,178.532 1578.19,178.532 1580.15,178.532 1582.11,178.532 1584.07,178.531 1586.02,178.531 1587.98,178.531 1589.94,178.531 
  1591.9,178.531 1593.86,178.53 1595.82,178.53 1597.78,178.53 1599.74,178.53 1601.7,178.53 1603.66,178.53 1605.62,178.529 1607.58,178.529 1609.54,178.529 
  1611.5,178.529 1613.46,178.529 1615.42,178.529 1617.38,178.529 1619.34,178.528 1621.3,178.528 1623.26,178.528 1625.22,178.528 1627.18,178.528 1629.14,178.528 
  1631.1,178.528 1633.06,178.528 1635.02,178.528 1636.98,178.528 1638.94,178.528 1640.9,178.528 1642.86,178.528 1644.82,178.528 1646.78,178.527 1648.74,178.527 
  1650.7,178.527 1652.66,178.527 1654.62,178.527 1656.58,178.527 1658.54,178.527 1660.5,178.527 1662.46,178.527 1664.42,178.527 1666.38,178.527 1668.34,178.527 
  1670.3,178.528 1672.26,178.528 1674.22,178.528 1676.18,178.528 1678.14,178.528 1680.1,178.528 1682.06,178.528 1684.02,178.528 1685.98,178.528 1687.94,178.528 
  1689.9,178.528 1691.86,178.528 1693.81,178.528 1695.77,178.528 1697.73,178.529 1699.69,178.529 1701.65,178.529 1703.61,178.529 1705.57,178.529 1707.53,178.529 
  1709.49,178.529 1711.45,178.529 1713.41,178.529 1715.37,178.53 1717.33,178.53 1719.29,178.53 1721.25,178.53 1723.21,178.53 1725.17,178.53 1727.13,178.53 
  1729.09,178.531 1731.05,178.531 1733.01,178.531 1734.97,178.531 1736.93,178.531 1738.89,178.531 1740.85,178.531 1742.81,178.532 1744.77,178.532 1746.73,178.532 
  1748.69,178.532 1750.65,178.532 1752.61,178.532 1754.57,178.532 1756.53,178.533 1758.49,178.533 1760.45,178.533 1762.41,178.533 1764.37,178.533 1766.33,178.533 
  1768.29,178.533 1770.25,178.534 1772.21,178.534 1774.17,178.534 1776.13,178.534 1778.09,178.534 1780.05,178.534 1782.01,178.534 1783.97,178.534 1785.93,178.534 
  1787.89,178.534 1789.85,178.534 1791.81,178.534 1793.77,178.535 1795.73,178.535 1797.69,178.535 1799.65,178.535 1801.6,178.535 1803.56,178.535 1805.52,178.535 
  1807.48,178.535 1809.44,178.535 1811.4,178.535 1813.36,178.535 1815.32,178.534 1817.28,178.534 1819.24,178.534 1821.2,178.534 1823.16,178.534 1825.12,178.534 
  1827.08,178.534 1829.04,178.534 1831,178.534 1832.96,178.533 1834.92,178.533 1836.88,178.533 1838.84,178.533 1840.8,178.533 1842.76,178.533 1844.72,178.533 
  1846.68,178.532 1848.64,178.532 1850.6,178.532 1852.56,178.532 1854.52,178.532 1856.48,178.532 1858.44,178.531 1860.4,178.531 1862.36,178.531 1864.32,178.531 
  1866.28,178.531 1868.24,178.53 1870.2,178.53 1872.16,178.53 1874.12,178.53 1876.08,178.53 1878.04,178.529 1880,178.529 1881.96,178.529 1883.92,178.529 
  1885.88,178.529 1887.84,178.528 1889.8,178.528 1891.76,178.528 1893.72,178.528 1895.68,178.528 1897.64,178.528 1899.6,178.527 1901.56,178.527 1903.52,178.527 
  1905.48,178.527 1907.44,178.527 1909.39,178.526 1911.35,178.526 1913.31,178.526 1915.27,178.526 1917.23,178.526 1919.19,178.526 1921.15,178.525 1923.11,178.525 
  1925.07,178.525 1927.03,178.525 1928.99,178.525 1930.95,178.525 1932.91,178.525 1934.87,178.525 1936.83,178.524 1938.79,178.524 1940.75,178.524 1942.71,178.524 
  1944.67,178.524 1946.63,178.524 1948.59,178.524 1950.55,178.524 1952.51,178.524 1954.47,178.524 1956.43,178.523 1958.39,178.523 1960.35,178.523 1962.31,178.523 
  1964.27,178.523 1966.23,178.523 1968.19,178.523 1970.15,178.523 1972.11,178.523 1974.07,178.523 1976.03,178.523 1977.99,178.523 1979.95,178.523 1981.91,178.523 
  1983.87,178.523 1985.83,178.523 1987.79,178.523 1989.75,178.523 1991.71,178.523 1993.67,178.523 1995.63,178.523 1997.59,178.523 1999.55,178.523 2001.51,178.523 
  2003.47,178.523 2005.43,178.523 2007.39,178.523 2009.35,178.523 2011.31,178.524 2013.27,178.524 2015.23,178.524 2017.18,178.524 2019.14,178.524 2021.1,178.524 
  2023.06,178.524 2025.02,178.524 2026.98,178.524 2028.94,178.525 2030.9,178.525 2032.86,178.525 2034.82,178.525 2036.78,178.525 2038.74,178.525 2040.7,178.525 
  2042.66,178.526 2044.62,178.526 2046.58,178.526 2048.54,178.526 2050.5,178.526 2052.46,178.526 2054.42,178.527 2056.38,178.527 2058.34,178.527 2060.3,178.527 
  2062.26,178.527 2064.22,178.527 2066.18,178.528 2068.14,178.528 2070.1,178.528 2072.06,178.528 2074.02,178.529 2075.98,178.529 2077.94,178.529 2079.9,178.529 
  2081.86,178.529 2083.82,178.53 2085.78,178.53 2087.74,178.53 2089.7,178.53 2091.66,178.53 2093.62,178.531 2095.58,178.531 2097.54,178.531 2099.5,178.531 
  2101.46,178.532 2103.42,178.532 2105.38,178.532 2107.34,178.532 2109.3,178.532 2111.26,178.533 2113.22,178.533 2115.18,178.533 2117.14,178.533 2119.1,178.533 
  2121.06,178.534 2123.02,178.534 2124.97,178.534 2126.93,178.534 2128.89,178.534 2130.85,178.535 2132.81,178.535 2134.77,178.535 2136.73,178.535 2138.69,178.535 
  2140.65,178.536 2142.61,178.536 2144.57,178.536 2146.53,178.536 2148.49,178.536 2150.45,178.536 2152.41,178.536 2154.37,178.537 2156.33,178.537 2158.29,178.537 
  2160.25,178.537 2162.21,178.537 2164.17,178.537 2166.13,178.537 2168.09,178.537 2170.05,178.537 2172.01,178.537 2173.97,178.537 2175.93,178.537 2177.89,178.537 
  2179.85,178.537 2181.81,178.537 2183.77,178.537 2185.73,178.537 2187.69,178.537 2189.65,178.537 2191.61,178.537 2193.57,178.537 2195.53,178.537 2197.49,178.537 
  
  "/>
<circle clip-path="url(#clip162)" cx="1888.12" cy="270.093" r="14" fill="#ff0000" fill-rule="evenodd" fill-opacity="0.7" stroke="#000000" stroke-opacity="0.7" stroke-width="3.2"/>
<circle clip-path="url(#clip162)" cx="1886.11" cy="85.7211" r="14" fill="#ff0000" fill-rule="evenodd" fill-opacity="0.7" stroke="#000000" stroke-opacity="0.7" stroke-width="3.2"/>
<circle clip-path="url(#clip162)" cx="1886.65" cy="241.824" r="14" fill="#ff0000" fill-rule="evenodd" fill-opacity="0.7" stroke="#000000" stroke-opacity="0.7" stroke-width="3.2"/>
<path clip-path="url(#clip160)" d="
M1541.05 1361.45 L1895.65 1361.45 L1895.65 1059.05 L1541.05 1059.05  Z
  " fill="#ffffff" fill-rule="evenodd" fill-opacity="1"/>
<polyline clip-path="url(#clip160)" style="stroke:#000000; stroke-width:4; stroke-opacity:1; fill:none" points="
  1541.05,1361.45 1895.65,1361.45 1895.65,1059.05 1541.05,1059.05 1541.05,1361.45 
  "/>
<polyline clip-path="url(#clip160)" style="stroke:#009af9; stroke-width:4; stroke-opacity:1; fill:none" points="
  1560.08,1119.53 1674.29,1119.53 
  "/>
<path clip-path="url(#clip160)" d="M 0 0 M1709.16 1106.85 L1702.81 1124.05 L1715.52 1124.05 L1709.16 1106.85 M1706.52 1102.25 L1711.82 1102.25 L1724.99 1136.81 L1720.13 1136.81 L1716.98 1127.94 L1701.4 1127.94 L1698.25 1136.81 L1693.32 1136.81 L1706.52 1102.25 Z" fill="#000000" fill-rule="evenodd" fill-opacity="1" /><polyline clip-path="url(#clip160)" style="stroke:#e26f46; stroke-width:4; stroke-opacity:1; fill:none" points="
  1560.08,1180.01 1674.29,1180.01 
  "/>
<path clip-path="url(#clip160)" d="M 0 0 M1698 1180.78 L1698 1193.44 L1705.5 1193.44 Q1709.27 1193.44 1711.08 1191.89 Q1712.91 1190.32 1712.91 1187.1 Q1712.91 1183.86 1711.08 1182.33 Q1709.27 1180.78 1705.5 1180.78 L1698 1180.78 M1698 1166.57 L1698 1176.99 L1704.92 1176.99 Q1708.35 1176.99 1710.01 1175.71 Q1711.7 1174.42 1711.7 1171.78 Q1711.7 1169.16 1710.01 1167.87 Q1708.35 1166.57 1704.92 1166.57 L1698 1166.57 M1693.32 1162.73 L1705.27 1162.73 Q1710.62 1162.73 1713.51 1164.95 Q1716.4 1167.17 1716.4 1171.27 Q1716.4 1174.44 1714.92 1176.31 Q1713.44 1178.19 1710.57 1178.65 Q1714.02 1179.39 1715.92 1181.75 Q1717.84 1184.09 1717.84 1187.61 Q1717.84 1192.24 1714.69 1194.76 Q1711.54 1197.29 1705.73 1197.29 L1693.32 1197.29 L1693.32 1162.73 Z" fill="#000000" fill-rule="evenodd" fill-opacity="1" /><polyline clip-path="url(#clip160)" style="stroke:#3da44d; stroke-width:4; stroke-opacity:1; fill:none" points="
  1560.08,1240.49 1674.29,1240.49 
  "/>
<path clip-path="url(#clip160)" d="M 0 0 M1721.19 1225.87 L1721.19 1230.8 Q1718.83 1228.6 1716.15 1227.51 Q1713.49 1226.42 1710.48 1226.42 Q1704.55 1226.42 1701.4 1230.06 Q1698.25 1233.67 1698.25 1240.52 Q1698.25 1247.35 1701.4 1250.98 Q1704.55 1254.6 1710.48 1254.6 Q1713.49 1254.6 1716.15 1253.51 Q1718.83 1252.42 1721.19 1250.22 L1721.19 1255.1 Q1718.74 1256.77 1715.99 1257.6 Q1713.25 1258.44 1710.2 1258.44 Q1702.35 1258.44 1697.84 1253.65 Q1693.32 1248.83 1693.32 1240.52 Q1693.32 1232.19 1697.84 1227.4 Q1702.35 1222.58 1710.2 1222.58 Q1713.3 1222.58 1716.03 1223.41 Q1718.79 1224.23 1721.19 1225.87 Z" fill="#000000" fill-rule="evenodd" fill-opacity="1" /><circle clip-path="url(#clip160)" cx="1617.18" cy="1300.97" r="23" fill="#ff0000" fill-rule="evenodd" fill-opacity="0.7" stroke="#000000" stroke-opacity="0.7" stroke-width="5.12"/>
<path clip-path="url(#clip160)" d="M 0 0 M1721.19 1286.35 L1721.19 1291.28 Q1718.83 1289.08 1716.15 1287.99 Q1713.49 1286.9 1710.48 1286.9 Q1704.55 1286.9 1701.4 1290.54 Q1698.25 1294.15 1698.25 1301 Q1698.25 1307.83 1701.4 1311.46 Q1704.55 1315.08 1710.48 1315.08 Q1713.49 1315.08 1716.15 1313.99 Q1718.83 1312.9 1721.19 1310.7 L1721.19 1315.58 Q1718.74 1317.25 1715.99 1318.08 Q1713.25 1318.92 1710.2 1318.92 Q1702.35 1318.92 1697.84 1314.13 Q1693.32 1309.31 1693.32 1301 Q1693.32 1292.67 1697.84 1287.88 Q1702.35 1283.06 1710.2 1283.06 Q1713.3 1283.06 1716.03 1283.89 Q1718.79 1284.71 1721.19 1286.35 Z" fill="#000000" fill-rule="evenodd" fill-opacity="1" /><path clip-path="url(#clip160)" d="M 0 0 M1738.28 1295.31 Q1734.85 1295.31 1732.86 1297.99 Q1730.87 1300.65 1730.87 1305.31 Q1730.87 1309.96 1732.84 1312.64 Q1734.83 1315.31 1738.28 1315.31 Q1741.68 1315.31 1743.67 1312.62 Q1745.66 1309.94 1745.66 1305.31 Q1745.66 1300.7 1743.67 1298.02 Q1741.68 1295.31 1738.28 1295.31 M1738.28 1291.7 Q1743.83 1291.7 1747 1295.31 Q1750.18 1298.92 1750.18 1305.31 Q1750.18 1311.67 1747 1315.31 Q1743.83 1318.92 1738.28 1318.92 Q1732.7 1318.92 1729.53 1315.31 Q1726.38 1311.67 1726.38 1305.31 Q1726.38 1298.92 1729.53 1295.31 Q1732.7 1291.7 1738.28 1291.7 Z" fill="#000000" fill-rule="evenodd" fill-opacity="1" /><path clip-path="url(#clip160)" d="M 0 0 M1778.79 1302.6 L1778.79 1318.25 L1774.53 1318.25 L1774.53 1302.74 Q1774.53 1299.06 1773.09 1297.23 Q1771.66 1295.4 1768.79 1295.4 Q1765.34 1295.4 1763.35 1297.6 Q1761.36 1299.8 1761.36 1303.59 L1761.36 1318.25 L1757.07 1318.25 L1757.07 1292.32 L1761.36 1292.32 L1761.36 1296.35 Q1762.88 1294.01 1764.94 1292.85 Q1767.03 1291.7 1769.74 1291.7 Q1774.2 1291.7 1776.49 1294.47 Q1778.79 1297.23 1778.79 1302.6 Z" fill="#000000" fill-rule="evenodd" fill-opacity="1" /><path clip-path="url(#clip160)" d="M 0 0 M1791.49 1284.96 L1791.49 1292.32 L1800.27 1292.32 L1800.27 1295.63 L1791.49 1295.63 L1791.49 1309.7 Q1791.49 1312.88 1792.35 1313.78 Q1793.23 1314.68 1795.89 1314.68 L1800.27 1314.68 L1800.27 1318.25 L1795.89 1318.25 Q1790.96 1318.25 1789.09 1316.42 Q1787.21 1314.57 1787.21 1309.7 L1787.21 1295.63 L1784.09 1295.63 L1784.09 1292.32 L1787.21 1292.32 L1787.21 1284.96 L1791.49 1284.96 Z" fill="#000000" fill-rule="evenodd" fill-opacity="1" /><path clip-path="url(#clip160)" d="M 0 0 M1820.89 1296.3 Q1820.18 1295.89 1819.32 1295.7 Q1818.49 1295.49 1817.47 1295.49 Q1813.86 1295.49 1811.91 1297.85 Q1809.99 1300.19 1809.99 1304.59 L1809.99 1318.25 L1805.71 1318.25 L1805.71 1292.32 L1809.99 1292.32 L1809.99 1296.35 Q1811.33 1293.99 1813.49 1292.85 Q1815.64 1291.7 1818.72 1291.7 Q1819.16 1291.7 1819.69 1291.77 Q1820.22 1291.81 1820.87 1291.93 L1820.89 1296.3 Z" fill="#000000" fill-rule="evenodd" fill-opacity="1" /><path clip-path="url(#clip160)" d="M 0 0 M1834.36 1295.31 Q1830.94 1295.31 1828.95 1297.99 Q1826.96 1300.65 1826.96 1305.31 Q1826.96 1309.96 1828.92 1312.64 Q1830.92 1315.31 1834.36 1315.31 Q1837.77 1315.31 1839.76 1312.62 Q1841.75 1309.94 1841.75 1305.31 Q1841.75 1300.7 1839.76 1298.02 Q1837.77 1295.31 1834.36 1295.31 M1834.36 1291.7 Q1839.92 1291.7 1843.09 1295.31 Q1846.26 1298.92 1846.26 1305.31 Q1846.26 1311.67 1843.09 1315.31 Q1839.92 1318.92 1834.36 1318.92 Q1828.79 1318.92 1825.61 1315.31 Q1822.47 1311.67 1822.47 1305.31 Q1822.47 1298.92 1825.61 1295.31 Q1828.79 1291.7 1834.36 1291.7 Z" fill="#000000" fill-rule="evenodd" fill-opacity="1" /><path clip-path="url(#clip160)" d="M 0 0 M1853.32 1282.23 L1857.58 1282.23 L1857.58 1318.25 L1853.32 1318.25 L1853.32 1282.23 Z" fill="#000000" fill-rule="evenodd" fill-opacity="1" /></svg>
