<?xml version="1.0" encoding="utf-8"?>
<svg xmlns="http://www.w3.org/2000/svg" xmlns:xlink="http://www.w3.org/1999/xlink" width="600" height="400" viewBox="0 0 2400 1600">
<defs>
  <clipPath id="clip190">
    <rect x="0" y="0" width="2400" height="1600"/>
  </clipPath>
</defs>
<path clip-path="url(#clip190)" d="
M0 1600 L2400 1600 L2400 0 L0 0  Z
  " fill="#ffffff" fill-rule="evenodd" fill-opacity="1"/>
<defs>
  <clipPath id="clip191">
    <rect x="480" y="0" width="1681" height="1600"/>
  </clipPath>
</defs>
<path clip-path="url(#clip190)" d="
M234.125 1423.18 L2352.76 1423.18 L2352.76 47.2441 L234.125 47.2441  Z
  " fill="#ffffff" fill-rule="evenodd" fill-opacity="1"/>
<defs>
  <clipPath id="clip192">
    <rect x="234" y="47" width="2120" height="1377"/>
  </clipPath>
</defs>
<polyline clip-path="url(#clip192)" style="stroke:#000000; stroke-linecap:butt; stroke-linejoin:round; stroke-width:2; stroke-opacity:0.1; fill:none" points="
  234.125,1423.18 234.125,47.2441 
  "/>
<polyline clip-path="url(#clip192)" style="stroke:#000000; stroke-linecap:butt; stroke-linejoin:round; stroke-width:2; stroke-opacity:0.1; fill:none" points="
  657.852,1423.18 657.852,47.2441 
  "/>
<polyline clip-path="url(#clip192)" style="stroke:#000000; stroke-linecap:butt; stroke-linejoin:round; stroke-width:2; stroke-opacity:0.1; fill:none" points="
  1081.58,1423.18 1081.58,47.2441 
  "/>
<polyline clip-path="url(#clip192)" style="stroke:#000000; stroke-linecap:butt; stroke-linejoin:round; stroke-width:2; stroke-opacity:0.1; fill:none" points="
  1505.3,1423.18 1505.3,47.2441 
  "/>
<polyline clip-path="url(#clip192)" style="stroke:#000000; stroke-linecap:butt; stroke-linejoin:round; stroke-width:2; stroke-opacity:0.1; fill:none" points="
  1929.03,1423.18 1929.03,47.2441 
  "/>
<polyline clip-path="url(#clip192)" style="stroke:#000000; stroke-linecap:butt; stroke-linejoin:round; stroke-width:2; stroke-opacity:0.1; fill:none" points="
  2352.76,1423.18 2352.76,47.2441 
  "/>
<polyline clip-path="url(#clip190)" style="stroke:#000000; stroke-linecap:butt; stroke-linejoin:round; stroke-width:4; stroke-opacity:1; fill:none" points="
  234.125,1423.18 2352.76,1423.18 
  "/>
<polyline clip-path="url(#clip190)" style="stroke:#000000; stroke-linecap:butt; stroke-linejoin:round; stroke-width:4; stroke-opacity:1; fill:none" points="
  234.125,1423.18 234.125,1404.28 
  "/>
<polyline clip-path="url(#clip190)" style="stroke:#000000; stroke-linecap:butt; stroke-linejoin:round; stroke-width:4; stroke-opacity:1; fill:none" points="
  657.852,1423.18 657.852,1404.28 
  "/>
<polyline clip-path="url(#clip190)" style="stroke:#000000; stroke-linecap:butt; stroke-linejoin:round; stroke-width:4; stroke-opacity:1; fill:none" points="
  1081.58,1423.18 1081.58,1404.28 
  "/>
<polyline clip-path="url(#clip190)" style="stroke:#000000; stroke-linecap:butt; stroke-linejoin:round; stroke-width:4; stroke-opacity:1; fill:none" points="
  1505.3,1423.18 1505.3,1404.28 
  "/>
<polyline clip-path="url(#clip190)" style="stroke:#000000; stroke-linecap:butt; stroke-linejoin:round; stroke-width:4; stroke-opacity:1; fill:none" points="
  1929.03,1423.18 1929.03,1404.28 
  "/>
<polyline clip-path="url(#clip190)" style="stroke:#000000; stroke-linecap:butt; stroke-linejoin:round; stroke-width:4; stroke-opacity:1; fill:none" points="
  2352.76,1423.18 2352.76,1404.28 
  "/>
<path clip-path="url(#clip190)" d="M234.125 1454.1 Q230.514 1454.1 228.686 1457.66 Q226.88 1461.2 226.88 1468.33 Q226.88 1475.44 228.686 1479.01 Q230.514 1482.55 234.125 1482.55 Q237.76 1482.55 239.565 1479.01 Q241.394 1475.44 241.394 1468.33 Q241.394 1461.2 239.565 1457.66 Q237.76 1454.1 234.125 1454.1 M234.125 1450.39 Q239.936 1450.39 242.991 1455 Q246.07 1459.58 246.07 1468.33 Q246.07 1477.06 242.991 1481.67 Q239.936 1486.25 234.125 1486.25 Q228.315 1486.25 225.237 1481.67 Q222.181 1477.06 222.181 1468.33 Q222.181 1459.58 225.237 1455 Q228.315 1450.39 234.125 1450.39 Z" fill="#000000" fill-rule="evenodd" fill-opacity="1" /><path clip-path="url(#clip190)" d="M632.539 1481.64 L640.178 1481.64 L640.178 1455.28 L631.868 1456.95 L631.868 1452.69 L640.132 1451.02 L644.808 1451.02 L644.808 1481.64 L652.446 1481.64 L652.446 1485.58 L632.539 1485.58 L632.539 1481.64 Z" fill="#000000" fill-rule="evenodd" fill-opacity="1" /><path clip-path="url(#clip190)" d="M671.891 1454.1 Q668.28 1454.1 666.451 1457.66 Q664.645 1461.2 664.645 1468.33 Q664.645 1475.44 666.451 1479.01 Q668.28 1482.55 671.891 1482.55 Q675.525 1482.55 677.331 1479.01 Q679.159 1475.44 679.159 1468.33 Q679.159 1461.2 677.331 1457.66 Q675.525 1454.1 671.891 1454.1 M671.891 1450.39 Q677.701 1450.39 680.757 1455 Q683.835 1459.58 683.835 1468.33 Q683.835 1477.06 680.757 1481.67 Q677.701 1486.25 671.891 1486.25 Q666.081 1486.25 663.002 1481.67 Q659.946 1477.06 659.946 1468.33 Q659.946 1459.58 663.002 1455 Q666.081 1450.39 671.891 1450.39 Z" fill="#000000" fill-rule="evenodd" fill-opacity="1" /><path clip-path="url(#clip190)" d="M1060.35 1481.64 L1076.67 1481.64 L1076.67 1485.58 L1054.73 1485.58 L1054.73 1481.64 Q1057.39 1478.89 1061.97 1474.26 Q1066.58 1469.61 1067.76 1468.27 Q1070 1465.74 1070.88 1464.01 Q1071.79 1462.25 1071.79 1460.56 Q1071.79 1457.8 1069.84 1456.07 Q1067.92 1454.33 1064.82 1454.33 Q1062.62 1454.33 1060.17 1455.09 Q1057.74 1455.86 1054.96 1457.41 L1054.96 1452.69 Q1057.78 1451.55 1060.24 1450.97 Q1062.69 1450.39 1064.73 1450.39 Q1070.1 1450.39 1073.29 1453.08 Q1076.49 1455.77 1076.49 1460.26 Q1076.49 1462.39 1075.67 1464.31 Q1074.89 1466.2 1072.78 1468.8 Q1072.2 1469.47 1069.1 1472.69 Q1066 1475.88 1060.35 1481.64 Z" fill="#000000" fill-rule="evenodd" fill-opacity="1" /><path clip-path="url(#clip190)" d="M1096.48 1454.1 Q1092.87 1454.1 1091.05 1457.66 Q1089.24 1461.2 1089.24 1468.33 Q1089.24 1475.44 1091.05 1479.01 Q1092.87 1482.55 1096.48 1482.55 Q1100.12 1482.55 1101.92 1479.01 Q1103.75 1475.44 1103.75 1468.33 Q1103.75 1461.2 1101.92 1457.66 Q1100.12 1454.1 1096.48 1454.1 M1096.48 1450.39 Q1102.3 1450.39 1105.35 1455 Q1108.43 1459.58 1108.43 1468.33 Q1108.43 1477.06 1105.35 1481.67 Q1102.3 1486.25 1096.48 1486.25 Q1090.67 1486.25 1087.6 1481.67 Q1084.54 1477.06 1084.54 1468.33 Q1084.54 1459.58 1087.6 1455 Q1090.67 1450.39 1096.48 1450.39 Z" fill="#000000" fill-rule="evenodd" fill-opacity="1" /><path clip-path="url(#clip190)" d="M1494.15 1466.95 Q1497.5 1467.66 1499.38 1469.93 Q1501.28 1472.2 1501.28 1475.53 Q1501.28 1480.65 1497.76 1483.45 Q1494.24 1486.25 1487.76 1486.25 Q1485.58 1486.25 1483.27 1485.81 Q1480.98 1485.39 1478.52 1484.54 L1478.52 1480.02 Q1480.47 1481.16 1482.78 1481.74 Q1485.1 1482.32 1487.62 1482.32 Q1492.02 1482.32 1494.31 1480.58 Q1496.62 1478.84 1496.62 1475.53 Q1496.62 1472.48 1494.47 1470.77 Q1492.34 1469.03 1488.52 1469.03 L1484.49 1469.03 L1484.49 1465.19 L1488.71 1465.19 Q1492.16 1465.19 1493.98 1463.82 Q1495.81 1462.43 1495.81 1459.84 Q1495.81 1457.18 1493.91 1455.77 Q1492.04 1454.33 1488.52 1454.33 Q1486.6 1454.33 1484.4 1454.75 Q1482.2 1455.16 1479.56 1456.04 L1479.56 1451.88 Q1482.23 1451.14 1484.54 1450.77 Q1486.88 1450.39 1488.94 1450.39 Q1494.26 1450.39 1497.36 1452.83 Q1500.47 1455.23 1500.47 1459.35 Q1500.47 1462.22 1498.82 1464.21 Q1497.18 1466.18 1494.15 1466.95 Z" fill="#000000" fill-rule="evenodd" fill-opacity="1" /><path clip-path="url(#clip190)" d="M1520.14 1454.1 Q1516.53 1454.1 1514.7 1457.66 Q1512.9 1461.2 1512.9 1468.33 Q1512.9 1475.44 1514.7 1479.01 Q1516.53 1482.55 1520.14 1482.55 Q1523.78 1482.55 1525.58 1479.01 Q1527.41 1475.44 1527.41 1468.33 Q1527.41 1461.2 1525.58 1457.66 Q1523.78 1454.1 1520.14 1454.1 M1520.14 1450.39 Q1525.95 1450.39 1529.01 1455 Q1532.09 1459.58 1532.09 1468.33 Q1532.09 1477.06 1529.01 1481.67 Q1525.95 1486.25 1520.14 1486.25 Q1514.33 1486.25 1511.25 1481.67 Q1508.2 1477.06 1508.2 1468.33 Q1508.2 1459.58 1511.25 1455 Q1514.33 1450.39 1520.14 1450.39 Z" fill="#000000" fill-rule="evenodd" fill-opacity="1" /><path clip-path="url(#clip190)" d="M1917.2 1455.09 L1905.4 1473.54 L1917.2 1473.54 L1917.2 1455.09 M1915.97 1451.02 L1921.85 1451.02 L1921.85 1473.54 L1926.78 1473.54 L1926.78 1477.43 L1921.85 1477.43 L1921.85 1485.58 L1917.2 1485.58 L1917.2 1477.43 L1901.6 1477.43 L1901.6 1472.92 L1915.97 1451.02 Z" fill="#000000" fill-rule="evenodd" fill-opacity="1" /><path clip-path="url(#clip190)" d="M1944.52 1454.1 Q1940.9 1454.1 1939.08 1457.66 Q1937.27 1461.2 1937.27 1468.33 Q1937.27 1475.44 1939.08 1479.01 Q1940.9 1482.55 1944.52 1482.55 Q1948.15 1482.55 1949.96 1479.01 Q1951.78 1475.44 1951.78 1468.33 Q1951.78 1461.2 1949.96 1457.66 Q1948.15 1454.1 1944.52 1454.1 M1944.52 1450.39 Q1950.33 1450.39 1953.38 1455 Q1956.46 1459.58 1956.46 1468.33 Q1956.46 1477.06 1953.38 1481.67 Q1950.33 1486.25 1944.52 1486.25 Q1938.71 1486.25 1935.63 1481.67 Q1932.57 1477.06 1932.57 1468.33 Q1932.57 1459.58 1935.63 1455 Q1938.71 1450.39 1944.52 1450.39 Z" fill="#000000" fill-rule="evenodd" fill-opacity="1" /><path clip-path="url(#clip190)" d="M2327.46 1451.02 L2345.81 1451.02 L2345.81 1454.96 L2331.74 1454.96 L2331.74 1463.43 Q2332.76 1463.08 2333.77 1462.92 Q2334.79 1462.73 2335.81 1462.73 Q2341.6 1462.73 2344.98 1465.9 Q2348.36 1469.08 2348.36 1474.49 Q2348.36 1480.07 2344.89 1483.17 Q2341.41 1486.25 2335.09 1486.25 Q2332.92 1486.25 2330.65 1485.88 Q2328.4 1485.51 2326 1484.77 L2326 1480.07 Q2328.08 1481.2 2330.3 1481.76 Q2332.52 1482.32 2335 1482.32 Q2339.01 1482.32 2341.34 1480.21 Q2343.68 1478.1 2343.68 1474.49 Q2343.68 1470.88 2341.34 1468.77 Q2339.01 1466.67 2335 1466.67 Q2333.13 1466.67 2331.25 1467.08 Q2329.4 1467.5 2327.46 1468.38 L2327.46 1451.02 Z" fill="#000000" fill-rule="evenodd" fill-opacity="1" /><path clip-path="url(#clip190)" d="M2367.57 1454.1 Q2363.96 1454.1 2362.13 1457.66 Q2360.33 1461.2 2360.33 1468.33 Q2360.33 1475.44 2362.13 1479.01 Q2363.96 1482.55 2367.57 1482.55 Q2371.2 1482.55 2373.01 1479.01 Q2374.84 1475.44 2374.84 1468.33 Q2374.84 1461.2 2373.01 1457.66 Q2371.2 1454.1 2367.57 1454.1 M2367.57 1450.39 Q2373.38 1450.39 2376.44 1455 Q2379.52 1459.58 2379.52 1468.33 Q2379.52 1477.06 2376.44 1481.67 Q2373.38 1486.25 2367.57 1486.25 Q2361.76 1486.25 2358.68 1481.67 Q2355.63 1477.06 2355.63 1468.33 Q2355.63 1459.58 2358.68 1455 Q2361.76 1450.39 2367.57 1450.39 Z" fill="#000000" fill-rule="evenodd" fill-opacity="1" /><path clip-path="url(#clip190)" d="M1146.54 1520.52 L1186.74 1520.52 L1186.74 1525.93 L1169.87 1525.93 L1169.87 1568.04 L1163.41 1568.04 L1163.41 1525.93 L1146.54 1525.93 L1146.54 1520.52 Z" fill="#000000" fill-rule="evenodd" fill-opacity="1" /><path clip-path="url(#clip190)" d="M1190.68 1532.4 L1196.54 1532.4 L1196.54 1568.04 L1190.68 1568.04 L1190.68 1532.4 M1190.68 1518.52 L1196.54 1518.52 L1196.54 1525.93 L1190.68 1525.93 L1190.68 1518.52 Z" fill="#000000" fill-rule="evenodd" fill-opacity="1" /><path clip-path="url(#clip190)" d="M1236.55 1539.24 Q1238.74 1535.29 1241.8 1533.41 Q1244.85 1531.54 1248.99 1531.54 Q1254.56 1531.54 1257.59 1535.45 Q1260.61 1539.33 1260.61 1546.53 L1260.61 1568.04 L1254.72 1568.04 L1254.72 1546.72 Q1254.72 1541.59 1252.91 1539.11 Q1251.09 1536.63 1247.37 1536.63 Q1242.82 1536.63 1240.18 1539.65 Q1237.53 1542.68 1237.53 1547.9 L1237.53 1568.04 L1231.65 1568.04 L1231.65 1546.72 Q1231.65 1541.56 1229.83 1539.11 Q1228.02 1536.63 1224.23 1536.63 Q1219.74 1536.63 1217.1 1539.68 Q1214.46 1542.71 1214.46 1547.9 L1214.46 1568.04 L1208.57 1568.04 L1208.57 1532.4 L1214.46 1532.4 L1214.46 1537.93 Q1216.46 1534.66 1219.26 1533.1 Q1222.07 1531.54 1225.92 1531.54 Q1229.8 1531.54 1232.5 1533.51 Q1235.24 1535.48 1236.55 1539.24 Z" fill="#000000" fill-rule="evenodd" fill-opacity="1" /><path clip-path="url(#clip190)" d="M1302.78 1548.76 L1302.78 1551.62 L1275.86 1551.62 Q1276.24 1557.67 1279.48 1560.85 Q1282.76 1564 1288.59 1564 Q1291.96 1564 1295.11 1563.17 Q1298.29 1562.35 1301.41 1560.69 L1301.41 1566.23 Q1298.26 1567.57 1294.95 1568.27 Q1291.64 1568.97 1288.24 1568.97 Q1279.71 1568.97 1274.71 1564 Q1269.74 1559.04 1269.74 1550.57 Q1269.74 1541.82 1274.45 1536.69 Q1279.2 1531.54 1287.22 1531.54 Q1294.41 1531.54 1298.58 1536.18 Q1302.78 1540.8 1302.78 1548.76 M1296.93 1547.04 Q1296.86 1542.23 1294.22 1539.37 Q1291.61 1536.5 1287.28 1536.5 Q1282.38 1536.5 1279.42 1539.27 Q1276.49 1542.04 1276.05 1547.07 L1296.93 1547.04 Z" fill="#000000" fill-rule="evenodd" fill-opacity="1" /><path clip-path="url(#clip190)" d="M1332.57 1518.52 L1346.07 1518.52 L1346.07 1523.07 L1338.43 1523.07 L1338.43 1572.09 L1346.07 1572.09 L1346.07 1576.64 L1332.57 1576.64 L1332.57 1518.52 Z" fill="#000000" fill-rule="evenodd" fill-opacity="1" /><path clip-path="url(#clip190)" d="M1388.18 1546.53 L1388.18 1568.04 L1382.32 1568.04 L1382.32 1546.72 Q1382.32 1541.66 1380.35 1539.14 Q1378.38 1536.63 1374.43 1536.63 Q1369.69 1536.63 1366.95 1539.65 Q1364.21 1542.68 1364.21 1547.9 L1364.21 1568.04 L1358.32 1568.04 L1358.32 1518.52 L1364.21 1518.52 L1364.21 1537.93 Q1366.31 1534.72 1369.14 1533.13 Q1372.01 1531.54 1375.73 1531.54 Q1381.88 1531.54 1385.03 1535.36 Q1388.18 1539.14 1388.18 1546.53 Z" fill="#000000" fill-rule="evenodd" fill-opacity="1" /><path clip-path="url(#clip190)" d="M1420.52 1537.87 Q1419.53 1537.3 1418.35 1537.04 Q1417.21 1536.76 1415.81 1536.76 Q1410.84 1536.76 1408.17 1540 Q1405.52 1543.22 1405.52 1549.27 L1405.52 1568.04 L1399.64 1568.04 L1399.64 1532.4 L1405.52 1532.4 L1405.52 1537.93 Q1407.37 1534.69 1410.33 1533.13 Q1413.29 1531.54 1417.52 1531.54 Q1418.13 1531.54 1418.86 1531.63 Q1419.59 1531.7 1420.48 1531.85 L1420.52 1537.87 Z" fill="#000000" fill-rule="evenodd" fill-opacity="1" /><path clip-path="url(#clip190)" d="M1440.35 1518.52 L1440.35 1576.64 L1426.85 1576.64 L1426.85 1572.09 L1434.46 1572.09 L1434.46 1523.07 L1426.85 1523.07 L1426.85 1518.52 L1440.35 1518.52 Z" fill="#000000" fill-rule="evenodd" fill-opacity="1" /><polyline clip-path="url(#clip192)" style="stroke:#000000; stroke-linecap:butt; stroke-linejoin:round; stroke-width:2; stroke-opacity:0.1; fill:none" points="
  234.125,1416.95 2352.76,1416.95 
  "/>
<polyline clip-path="url(#clip192)" style="stroke:#000000; stroke-linecap:butt; stroke-linejoin:round; stroke-width:2; stroke-opacity:0.1; fill:none" points="
  234.125,1105.66 2352.76,1105.66 
  "/>
<polyline clip-path="url(#clip192)" style="stroke:#000000; stroke-linecap:butt; stroke-linejoin:round; stroke-width:2; stroke-opacity:0.1; fill:none" points="
  234.125,794.359 2352.76,794.359 
  "/>
<polyline clip-path="url(#clip192)" style="stroke:#000000; stroke-linecap:butt; stroke-linejoin:round; stroke-width:2; stroke-opacity:0.1; fill:none" points="
  234.125,483.061 2352.76,483.061 
  "/>
<polyline clip-path="url(#clip192)" style="stroke:#000000; stroke-linecap:butt; stroke-linejoin:round; stroke-width:2; stroke-opacity:0.1; fill:none" points="
  234.125,171.763 2352.76,171.763 
  "/>
<polyline clip-path="url(#clip190)" style="stroke:#000000; stroke-linecap:butt; stroke-linejoin:round; stroke-width:4; stroke-opacity:1; fill:none" points="
  234.125,1423.18 234.125,47.2441 
  "/>
<polyline clip-path="url(#clip190)" style="stroke:#000000; stroke-linecap:butt; stroke-linejoin:round; stroke-width:4; stroke-opacity:1; fill:none" points="
  234.125,1416.95 253.023,1416.95 
  "/>
<polyline clip-path="url(#clip190)" style="stroke:#000000; stroke-linecap:butt; stroke-linejoin:round; stroke-width:4; stroke-opacity:1; fill:none" points="
  234.125,1105.66 253.023,1105.66 
  "/>
<polyline clip-path="url(#clip190)" style="stroke:#000000; stroke-linecap:butt; stroke-linejoin:round; stroke-width:4; stroke-opacity:1; fill:none" points="
  234.125,794.359 253.023,794.359 
  "/>
<polyline clip-path="url(#clip190)" style="stroke:#000000; stroke-linecap:butt; stroke-linejoin:round; stroke-width:4; stroke-opacity:1; fill:none" points="
  234.125,483.061 253.023,483.061 
  "/>
<polyline clip-path="url(#clip190)" style="stroke:#000000; stroke-linecap:butt; stroke-linejoin:round; stroke-width:4; stroke-opacity:1; fill:none" points="
  234.125,171.763 253.023,171.763 
  "/>
<path clip-path="url(#clip190)" d="M186.181 1402.75 Q182.57 1402.75 180.741 1406.32 Q178.936 1409.86 178.936 1416.99 Q178.936 1424.1 180.741 1427.66 Q182.57 1431.2 186.181 1431.2 Q189.815 1431.2 191.621 1427.66 Q193.45 1424.1 193.45 1416.99 Q193.45 1409.86 191.621 1406.32 Q189.815 1402.75 186.181 1402.75 M186.181 1399.05 Q191.991 1399.05 195.047 1403.66 Q198.125 1408.24 198.125 1416.99 Q198.125 1425.72 195.047 1430.32 Q191.991 1434.91 186.181 1434.91 Q180.371 1434.91 177.292 1430.32 Q174.237 1425.72 174.237 1416.99 Q174.237 1408.24 177.292 1403.66 Q180.371 1399.05 186.181 1399.05 Z" fill="#000000" fill-rule="evenodd" fill-opacity="1" /><path clip-path="url(#clip190)" d="M146.066 1088.38 L164.422 1088.38 L164.422 1092.31 L150.348 1092.31 L150.348 1100.78 Q151.366 1100.44 152.385 1100.27 Q153.403 1100.09 154.422 1100.09 Q160.209 1100.09 163.589 1103.26 Q166.968 1106.43 166.968 1111.85 Q166.968 1117.43 163.496 1120.53 Q160.024 1123.61 153.704 1123.61 Q151.528 1123.61 149.26 1123.24 Q147.015 1122.87 144.607 1122.13 L144.607 1117.43 Q146.691 1118.56 148.913 1119.12 Q151.135 1119.67 153.612 1119.67 Q157.616 1119.67 159.954 1117.57 Q162.292 1115.46 162.292 1111.85 Q162.292 1108.24 159.954 1106.13 Q157.616 1104.02 153.612 1104.02 Q151.737 1104.02 149.862 1104.44 Q148.01 1104.86 146.066 1105.74 L146.066 1088.38 Z" fill="#000000" fill-rule="evenodd" fill-opacity="1" /><path clip-path="url(#clip190)" d="M186.181 1091.45 Q182.57 1091.45 180.741 1095.02 Q178.936 1098.56 178.936 1105.69 Q178.936 1112.8 180.741 1116.36 Q182.57 1119.9 186.181 1119.9 Q189.815 1119.9 191.621 1116.36 Q193.45 1112.8 193.45 1105.69 Q193.45 1098.56 191.621 1095.02 Q189.815 1091.45 186.181 1091.45 M186.181 1087.75 Q191.991 1087.75 195.047 1092.36 Q198.125 1096.94 198.125 1105.69 Q198.125 1114.42 195.047 1119.02 Q191.991 1123.61 186.181 1123.61 Q180.371 1123.61 177.292 1119.02 Q174.237 1114.42 174.237 1105.69 Q174.237 1096.94 177.292 1092.36 Q180.371 1087.75 186.181 1087.75 Z" fill="#000000" fill-rule="evenodd" fill-opacity="1" /><path clip-path="url(#clip190)" d="M116.668 807.703 L124.306 807.703 L124.306 781.338 L115.996 783.004 L115.996 778.745 L124.26 777.079 L128.936 777.079 L128.936 807.703 L136.575 807.703 L136.575 811.639 L116.668 811.639 L116.668 807.703 Z" fill="#000000" fill-rule="evenodd" fill-opacity="1" /><path clip-path="url(#clip190)" d="M156.019 780.157 Q152.408 780.157 150.579 783.722 Q148.774 787.264 148.774 794.393 Q148.774 801.5 150.579 805.064 Q152.408 808.606 156.019 808.606 Q159.653 808.606 161.459 805.064 Q163.288 801.5 163.288 794.393 Q163.288 787.264 161.459 783.722 Q159.653 780.157 156.019 780.157 M156.019 776.454 Q161.829 776.454 164.885 781.06 Q167.964 785.643 167.964 794.393 Q167.964 803.12 164.885 807.727 Q161.829 812.31 156.019 812.31 Q150.209 812.31 147.13 807.727 Q144.075 803.12 144.075 794.393 Q144.075 785.643 147.13 781.06 Q150.209 776.454 156.019 776.454 Z" fill="#000000" fill-rule="evenodd" fill-opacity="1" /><path clip-path="url(#clip190)" d="M186.181 780.157 Q182.57 780.157 180.741 783.722 Q178.936 787.264 178.936 794.393 Q178.936 801.5 180.741 805.064 Q182.57 808.606 186.181 808.606 Q189.815 808.606 191.621 805.064 Q193.45 801.5 193.45 794.393 Q193.45 787.264 191.621 783.722 Q189.815 780.157 186.181 780.157 M186.181 776.454 Q191.991 776.454 195.047 781.06 Q198.125 785.643 198.125 794.393 Q198.125 803.12 195.047 807.727 Q191.991 812.31 186.181 812.31 Q180.371 812.31 177.292 807.727 Q174.237 803.12 174.237 794.393 Q174.237 785.643 177.292 781.06 Q180.371 776.454 186.181 776.454 Z" fill="#000000" fill-rule="evenodd" fill-opacity="1" /><path clip-path="url(#clip190)" d="M116.668 496.406 L124.306 496.406 L124.306 470.04 L115.996 471.707 L115.996 467.448 L124.26 465.781 L128.936 465.781 L128.936 496.406 L136.575 496.406 L136.575 500.341 L116.668 500.341 L116.668 496.406 Z" fill="#000000" fill-rule="evenodd" fill-opacity="1" /><path clip-path="url(#clip190)" d="M146.066 465.781 L164.422 465.781 L164.422 469.716 L150.348 469.716 L150.348 478.188 Q151.366 477.841 152.385 477.679 Q153.403 477.494 154.422 477.494 Q160.209 477.494 163.589 480.665 Q166.968 483.836 166.968 489.253 Q166.968 494.832 163.496 497.933 Q160.024 501.012 153.704 501.012 Q151.528 501.012 149.26 500.642 Q147.015 500.271 144.607 499.531 L144.607 494.832 Q146.691 495.966 148.913 496.521 Q151.135 497.077 153.612 497.077 Q157.616 497.077 159.954 494.971 Q162.292 492.864 162.292 489.253 Q162.292 485.642 159.954 483.535 Q157.616 481.429 153.612 481.429 Q151.737 481.429 149.862 481.846 Q148.01 482.262 146.066 483.142 L146.066 465.781 Z" fill="#000000" fill-rule="evenodd" fill-opacity="1" /><path clip-path="url(#clip190)" d="M186.181 468.86 Q182.57 468.86 180.741 472.424 Q178.936 475.966 178.936 483.096 Q178.936 490.202 180.741 493.767 Q182.57 497.308 186.181 497.308 Q189.815 497.308 191.621 493.767 Q193.45 490.202 193.45 483.096 Q193.45 475.966 191.621 472.424 Q189.815 468.86 186.181 468.86 M186.181 465.156 Q191.991 465.156 195.047 469.762 Q198.125 474.346 198.125 483.096 Q198.125 491.822 195.047 496.429 Q191.991 501.012 186.181 501.012 Q180.371 501.012 177.292 496.429 Q174.237 491.822 174.237 483.096 Q174.237 474.346 177.292 469.762 Q180.371 465.156 186.181 465.156 Z" fill="#000000" fill-rule="evenodd" fill-opacity="1" /><path clip-path="url(#clip190)" d="M119.885 185.108 L136.204 185.108 L136.204 189.043 L114.26 189.043 L114.26 185.108 Q116.922 182.353 121.505 177.724 Q126.112 173.071 127.292 171.728 Q129.538 169.205 130.417 167.469 Q131.32 165.71 131.32 164.02 Q131.32 161.266 129.376 159.529 Q127.455 157.793 124.353 157.793 Q122.154 157.793 119.7 158.557 Q117.269 159.321 114.492 160.872 L114.492 156.15 Q117.316 155.016 119.769 154.437 Q122.223 153.858 124.26 153.858 Q129.63 153.858 132.825 156.543 Q136.019 159.229 136.019 163.719 Q136.019 165.849 135.209 167.77 Q134.422 169.668 132.316 172.261 Q131.737 172.932 128.635 176.15 Q125.533 179.344 119.885 185.108 Z" fill="#000000" fill-rule="evenodd" fill-opacity="1" /><path clip-path="url(#clip190)" d="M156.019 157.562 Q152.408 157.562 150.579 161.127 Q148.774 164.668 148.774 171.798 Q148.774 178.904 150.579 182.469 Q152.408 186.011 156.019 186.011 Q159.653 186.011 161.459 182.469 Q163.288 178.904 163.288 171.798 Q163.288 164.668 161.459 161.127 Q159.653 157.562 156.019 157.562 M156.019 153.858 Q161.829 153.858 164.885 158.465 Q167.964 163.048 167.964 171.798 Q167.964 180.525 164.885 185.131 Q161.829 189.714 156.019 189.714 Q150.209 189.714 147.13 185.131 Q144.075 180.525 144.075 171.798 Q144.075 163.048 147.13 158.465 Q150.209 153.858 156.019 153.858 Z" fill="#000000" fill-rule="evenodd" fill-opacity="1" /><path clip-path="url(#clip190)" d="M186.181 157.562 Q182.57 157.562 180.741 161.127 Q178.936 164.668 178.936 171.798 Q178.936 178.904 180.741 182.469 Q182.57 186.011 186.181 186.011 Q189.815 186.011 191.621 182.469 Q193.45 178.904 193.45 171.798 Q193.45 164.668 191.621 161.127 Q189.815 157.562 186.181 157.562 M186.181 153.858 Q191.991 153.858 195.047 158.465 Q198.125 163.048 198.125 171.798 Q198.125 180.525 195.047 185.131 Q191.991 189.714 186.181 189.714 Q180.371 189.714 177.292 185.131 Q174.237 180.525 174.237 171.798 Q174.237 163.048 177.292 158.465 Q180.371 153.858 186.181 153.858 Z" fill="#000000" fill-rule="evenodd" fill-opacity="1" /><path clip-path="url(#clip190)" d="M16.4842 925.228 L16.4842 918.799 L35.9632 918.799 L35.9632 895.437 L16.4842 895.437 L16.4842 889.007 L64.0042 889.007 L64.0042 895.437 L41.3741 895.437 L41.3741 918.799 L64.0042 918.799 L64.0042 925.228 L16.4842 925.228 Z" fill="#000000" fill-rule="evenodd" fill-opacity="1" /><path clip-path="url(#clip190)" d="M44.7161 845.975 L47.5806 845.975 L47.5806 872.902 Q53.6281 872.52 56.8109 869.274 Q59.9619 865.995 59.9619 860.171 Q59.9619 856.797 59.1344 853.646 Q58.3069 850.463 56.6518 847.344 L62.1899 847.344 Q63.5267 850.495 64.227 853.805 Q64.9272 857.115 64.9272 860.521 Q64.9272 869.051 59.9619 874.048 Q54.9967 879.013 46.5303 879.013 Q37.7774 879.013 32.6531 874.303 Q27.4968 869.56 27.4968 861.539 Q27.4968 854.346 32.1438 850.177 Q36.7589 845.975 44.7161 845.975 M42.9973 851.832 Q38.1912 851.895 35.3266 854.537 Q32.4621 857.147 32.4621 861.476 Q32.4621 866.377 35.2312 869.337 Q38.0002 872.266 43.0292 872.711 L42.9973 851.832 Z" fill="#000000" fill-rule="evenodd" fill-opacity="1" /><path clip-path="url(#clip190)" d="M28.3562 836.363 L28.3562 830.507 L64.0042 830.507 L64.0042 836.363 L28.3562 836.363 M14.479 836.363 L14.479 830.507 L21.895 830.507 L21.895 836.363 L14.479 836.363 Z" fill="#000000" fill-rule="evenodd" fill-opacity="1" /><path clip-path="url(#clip190)" d="M45.7664 794.795 Q39.4007 794.795 35.8996 797.437 Q32.3984 800.047 32.3984 804.789 Q32.3984 809.5 35.8996 812.142 Q39.4007 814.751 45.7664 814.751 Q52.1003 814.751 55.6014 812.142 Q59.1026 809.5 59.1026 804.789 Q59.1026 800.047 55.6014 797.437 Q52.1003 794.795 45.7664 794.795 M59.58 788.939 Q68.683 788.939 73.1071 792.981 Q77.5631 797.023 77.5631 805.362 Q77.5631 808.449 77.0857 811.187 Q76.6401 813.924 75.6852 816.502 L69.9879 816.502 Q71.3884 813.924 72.0568 811.409 Q72.7252 808.895 72.7252 806.285 Q72.7252 800.524 69.7015 797.66 Q66.7096 794.795 60.6303 794.795 L57.7339 794.795 Q60.885 796.609 62.4446 799.442 Q64.0042 802.275 64.0042 806.221 Q64.0042 812.778 59.0071 816.788 Q54.01 820.799 45.7664 820.799 Q37.491 820.799 32.4939 816.788 Q27.4968 812.778 27.4968 806.221 Q27.4968 802.275 29.0564 799.442 Q30.616 796.609 33.7671 794.795 L28.3562 794.795 L28.3562 788.939 L59.58 788.939 Z" fill="#000000" fill-rule="evenodd" fill-opacity="1" /><path clip-path="url(#clip190)" d="M42.4881 747.243 L64.0042 747.243 L64.0042 753.1 L42.679 753.1 Q37.6183 753.1 35.1038 755.073 Q32.5894 757.046 32.5894 760.993 Q32.5894 765.736 35.6131 768.473 Q38.6368 771.21 43.8567 771.21 L64.0042 771.21 L64.0042 777.098 L14.479 777.098 L14.479 771.21 L33.8944 771.21 Q30.6797 769.109 29.0883 766.277 Q27.4968 763.412 27.4968 759.688 Q27.4968 753.545 31.3163 750.394 Q35.1038 747.243 42.4881 747.243 Z" fill="#000000" fill-rule="evenodd" fill-opacity="1" /><path clip-path="url(#clip190)" d="M18.2347 729.769 L28.3562 729.769 L28.3562 717.706 L32.9077 717.706 L32.9077 729.769 L52.2594 729.769 Q56.6199 729.769 57.8613 728.592 Q59.1026 727.382 59.1026 723.722 L59.1026 717.706 L64.0042 717.706 L64.0042 723.722 Q64.0042 730.501 61.4897 733.079 Q58.9434 735.658 52.2594 735.658 L32.9077 735.658 L32.9077 739.954 L28.3562 739.954 L28.3562 735.658 L18.2347 735.658 L18.2347 729.769 Z" fill="#000000" fill-rule="evenodd" fill-opacity="1" /><path clip-path="url(#clip190)" d="M14.479 689.824 L14.479 676.329 L19.0304 676.329 L19.0304 683.968 L68.0464 683.968 L68.0464 676.329 L72.5979 676.329 L72.5979 689.824 L14.479 689.824 Z" fill="#000000" fill-rule="evenodd" fill-opacity="1" /><path clip-path="url(#clip190)" d="M77.5631 664.457 L28.3562 664.457 L28.3562 658.601 L50.5089 658.601 Q55.124 658.601 57.4793 656.405 Q59.8346 654.208 59.8346 649.911 Q59.8346 645.201 57.161 642.846 Q54.4874 640.458 49.1402 640.458 L28.3562 640.458 L28.3562 634.602 L55.7924 634.602 Q57.7021 634.602 58.6251 634.061 Q59.5163 633.488 59.5163 632.31 Q59.5163 632.024 59.3572 631.515 Q59.1662 631.005 58.7843 630.114 L63.4949 630.114 Q64.227 631.419 64.5771 632.597 Q64.9272 633.743 64.9272 634.857 Q64.9272 637.053 63.6859 638.358 Q62.4446 639.663 59.8983 640.14 Q62.4127 641.732 63.6859 644.055 Q64.9272 646.347 64.9272 649.466 Q64.9272 652.712 63.6859 655.004 Q62.4446 657.264 59.9619 658.601 L77.5631 658.601 L77.5631 664.457 Z" fill="#000000" fill-rule="evenodd" fill-opacity="1" /><path clip-path="url(#clip190)" d="M35.1993 594.625 Q31.2526 592.429 29.3747 589.374 Q27.4968 586.318 27.4968 582.18 Q27.4968 576.61 31.4117 573.587 Q35.2948 570.563 42.4881 570.563 L64.0042 570.563 L64.0042 576.451 L42.679 576.451 Q37.5546 576.451 35.072 578.265 Q32.5894 580.08 32.5894 583.804 Q32.5894 588.355 35.6131 590.997 Q38.6368 593.639 43.8567 593.639 L64.0042 593.639 L64.0042 599.527 L42.679 599.527 Q37.5228 599.527 35.072 601.341 Q32.5894 603.155 32.5894 606.943 Q32.5894 611.431 35.6449 614.073 Q38.6686 616.714 43.8567 616.714 L64.0042 616.714 L64.0042 622.603 L28.3562 622.603 L28.3562 616.714 L33.8944 616.714 Q30.616 614.709 29.0564 611.908 Q27.4968 609.107 27.4968 605.256 Q27.4968 601.373 29.4702 598.668 Q31.4436 595.93 35.1993 594.625 Z" fill="#000000" fill-rule="evenodd" fill-opacity="1" /><path clip-path="url(#clip190)" d="M14.479 545.196 L72.5979 545.196 L72.5979 558.691 L68.0464 558.691 L68.0464 551.084 L19.0304 551.084 L19.0304 558.691 L14.479 558.691 L14.479 545.196 Z" fill="#000000" fill-rule="evenodd" fill-opacity="1" /><circle clip-path="url(#clip192)" cx="251.781" cy="1414.95" r="14" fill="#000000" fill-rule="evenodd" fill-opacity="0.25" stroke="none"/>
<circle clip-path="url(#clip192)" cx="265.505" cy="1415.31" r="14" fill="#000000" fill-rule="evenodd" fill-opacity="0.25" stroke="none"/>
<circle clip-path="url(#clip192)" cx="279.205" cy="1414.17" r="14" fill="#000000" fill-rule="evenodd" fill-opacity="0.25" stroke="none"/>
<circle clip-path="url(#clip192)" cx="292.929" cy="1412.29" r="14" fill="#000000" fill-rule="evenodd" fill-opacity="0.25" stroke="none"/>
<circle clip-path="url(#clip192)" cx="306.653" cy="1414.67" r="14" fill="#000000" fill-rule="evenodd" fill-opacity="0.25" stroke="none"/>
<circle clip-path="url(#clip192)" cx="320.401" cy="1415.16" r="14" fill="#000000" fill-rule="evenodd" fill-opacity="0.25" stroke="none"/>
<circle clip-path="url(#clip192)" cx="334.125" cy="1417.51" r="14" fill="#000000" fill-rule="evenodd" fill-opacity="0.25" stroke="none"/>
<circle clip-path="url(#clip192)" cx="347.849" cy="1416.77" r="14" fill="#000000" fill-rule="evenodd" fill-opacity="0.25" stroke="none"/>
<circle clip-path="url(#clip192)" cx="361.596" cy="1411.65" r="14" fill="#000000" fill-rule="evenodd" fill-opacity="0.25" stroke="none"/>
<circle clip-path="url(#clip192)" cx="375.32" cy="1409.23" r="14" fill="#000000" fill-rule="evenodd" fill-opacity="0.25" stroke="none"/>
<circle clip-path="url(#clip192)" cx="389.115" cy="1406.66" r="14" fill="#000000" fill-rule="evenodd" fill-opacity="0.25" stroke="none"/>
<circle clip-path="url(#clip192)" cx="402.839" cy="1395.58" r="14" fill="#000000" fill-rule="evenodd" fill-opacity="0.25" stroke="none"/>
<circle clip-path="url(#clip192)" cx="416.563" cy="1399.02" r="14" fill="#000000" fill-rule="evenodd" fill-opacity="0.25" stroke="none"/>
<circle clip-path="url(#clip192)" cx="430.287" cy="1392.55" r="14" fill="#000000" fill-rule="evenodd" fill-opacity="0.25" stroke="none"/>
<circle clip-path="url(#clip192)" cx="444.035" cy="1382.32" r="14" fill="#000000" fill-rule="evenodd" fill-opacity="0.25" stroke="none"/>
<circle clip-path="url(#clip192)" cx="457.759" cy="1375.62" r="14" fill="#000000" fill-rule="evenodd" fill-opacity="0.25" stroke="none"/>
<circle clip-path="url(#clip192)" cx="476.614" cy="1362.4" r="14" fill="#000000" fill-rule="evenodd" fill-opacity="0.25" stroke="none"/>
<circle clip-path="url(#clip192)" cx="490.174" cy="1342.78" r="14" fill="#000000" fill-rule="evenodd" fill-opacity="0.25" stroke="none"/>
<circle clip-path="url(#clip192)" cx="503.756" cy="1321.65" r="14" fill="#000000" fill-rule="evenodd" fill-opacity="0.25" stroke="none"/>
<circle clip-path="url(#clip192)" cx="517.339" cy="1302.62" r="14" fill="#000000" fill-rule="evenodd" fill-opacity="0.25" stroke="none"/>
<circle clip-path="url(#clip192)" cx="530.898" cy="1280.42" r="14" fill="#000000" fill-rule="evenodd" fill-opacity="0.25" stroke="none"/>
<circle clip-path="url(#clip192)" cx="544.505" cy="1254.07" r="14" fill="#000000" fill-rule="evenodd" fill-opacity="0.25" stroke="none"/>
<circle clip-path="url(#clip192)" cx="558.088" cy="1224.05" r="14" fill="#000000" fill-rule="evenodd" fill-opacity="0.25" stroke="none"/>
<circle clip-path="url(#clip192)" cx="571.67" cy="1197.58" r="14" fill="#000000" fill-rule="evenodd" fill-opacity="0.25" stroke="none"/>
<circle clip-path="url(#clip192)" cx="585.277" cy="1169.37" r="14" fill="#000000" fill-rule="evenodd" fill-opacity="0.25" stroke="none"/>
<circle clip-path="url(#clip192)" cx="598.859" cy="1153.36" r="14" fill="#000000" fill-rule="evenodd" fill-opacity="0.25" stroke="none"/>
<circle clip-path="url(#clip192)" cx="612.489" cy="1132.45" r="14" fill="#000000" fill-rule="evenodd" fill-opacity="0.25" stroke="none"/>
<circle clip-path="url(#clip192)" cx="626.072" cy="1106.84" r="14" fill="#000000" fill-rule="evenodd" fill-opacity="0.25" stroke="none"/>
<circle clip-path="url(#clip192)" cx="639.655" cy="1091.38" r="14" fill="#000000" fill-rule="evenodd" fill-opacity="0.25" stroke="none"/>
<circle clip-path="url(#clip192)" cx="655.309" cy="1071.77" r="14" fill="#000000" fill-rule="evenodd" fill-opacity="0.25" stroke="none"/>
<circle clip-path="url(#clip192)" cx="675.931" cy="1042.42" r="14" fill="#000000" fill-rule="evenodd" fill-opacity="0.25" stroke="none"/>
<circle clip-path="url(#clip192)" cx="696.575" cy="1016.39" r="14" fill="#000000" fill-rule="evenodd" fill-opacity="0.25" stroke="none"/>
<circle clip-path="url(#clip192)" cx="717.22" cy="990.466" r="14" fill="#000000" fill-rule="evenodd" fill-opacity="0.25" stroke="none"/>
<circle clip-path="url(#clip192)" cx="737.865" cy="967.355" r="14" fill="#000000" fill-rule="evenodd" fill-opacity="0.25" stroke="none"/>
<circle clip-path="url(#clip192)" cx="758.534" cy="943.703" r="14" fill="#000000" fill-rule="evenodd" fill-opacity="0.25" stroke="none"/>
<circle clip-path="url(#clip192)" cx="779.178" cy="923.324" r="14" fill="#000000" fill-rule="evenodd" fill-opacity="0.25" stroke="none"/>
<circle clip-path="url(#clip192)" cx="799.894" cy="901.072" r="14" fill="#000000" fill-rule="evenodd" fill-opacity="0.25" stroke="none"/>
<circle clip-path="url(#clip192)" cx="820.539" cy="880.453" r="14" fill="#000000" fill-rule="evenodd" fill-opacity="0.25" stroke="none"/>
<circle clip-path="url(#clip192)" cx="841.16" cy="860.286" r="14" fill="#000000" fill-rule="evenodd" fill-opacity="0.25" stroke="none"/>
<circle clip-path="url(#clip192)" cx="861.805" cy="841.35" r="14" fill="#000000" fill-rule="evenodd" fill-opacity="0.25" stroke="none"/>
<circle clip-path="url(#clip192)" cx="882.426" cy="825.944" r="14" fill="#000000" fill-rule="evenodd" fill-opacity="0.25" stroke="none"/>
<circle clip-path="url(#clip192)" cx="903.071" cy="803.379" r="14" fill="#000000" fill-rule="evenodd" fill-opacity="0.25" stroke="none"/>
<circle clip-path="url(#clip192)" cx="923.693" cy="783.707" r="14" fill="#000000" fill-rule="evenodd" fill-opacity="0.25" stroke="none"/>
<circle clip-path="url(#clip192)" cx="944.385" cy="768.65" r="14" fill="#000000" fill-rule="evenodd" fill-opacity="0.25" stroke="none"/>
<circle clip-path="url(#clip192)" cx="965.006" cy="742.85" r="14" fill="#000000" fill-rule="evenodd" fill-opacity="0.25" stroke="none"/>
<circle clip-path="url(#clip192)" cx="985.627" cy="734.993" r="14" fill="#000000" fill-rule="evenodd" fill-opacity="0.25" stroke="none"/>
<circle clip-path="url(#clip192)" cx="1006.2" cy="713.099" r="14" fill="#000000" fill-rule="evenodd" fill-opacity="0.25" stroke="none"/>
<circle clip-path="url(#clip192)" cx="1026.82" cy="697.283" r="14" fill="#000000" fill-rule="evenodd" fill-opacity="0.25" stroke="none"/>
<circle clip-path="url(#clip192)" cx="1047.47" cy="684.241" r="14" fill="#000000" fill-rule="evenodd" fill-opacity="0.25" stroke="none"/>
<circle clip-path="url(#clip192)" cx="1068.09" cy="667.847" r="14" fill="#000000" fill-rule="evenodd" fill-opacity="0.25" stroke="none"/>
<circle clip-path="url(#clip192)" cx="1088.71" cy="652.125" r="14" fill="#000000" fill-rule="evenodd" fill-opacity="0.25" stroke="none"/>
<circle clip-path="url(#clip192)" cx="1109.36" cy="631.757" r="14" fill="#000000" fill-rule="evenodd" fill-opacity="0.25" stroke="none"/>
<circle clip-path="url(#clip192)" cx="1130.05" cy="616.342" r="14" fill="#000000" fill-rule="evenodd" fill-opacity="0.25" stroke="none"/>
<circle clip-path="url(#clip192)" cx="1150.74" cy="606.166" r="14" fill="#000000" fill-rule="evenodd" fill-opacity="0.25" stroke="none"/>
<circle clip-path="url(#clip192)" cx="1171.38" cy="593.082" r="14" fill="#000000" fill-rule="evenodd" fill-opacity="0.25" stroke="none"/>
<circle clip-path="url(#clip192)" cx="1192.01" cy="575.858" r="14" fill="#000000" fill-rule="evenodd" fill-opacity="0.25" stroke="none"/>
<circle clip-path="url(#clip192)" cx="1212.65" cy="563.935" r="14" fill="#000000" fill-rule="evenodd" fill-opacity="0.25" stroke="none"/>
<circle clip-path="url(#clip192)" cx="1232.8" cy="544.684" r="14" fill="#000000" fill-rule="evenodd" fill-opacity="0.25" stroke="none"/>
<circle clip-path="url(#clip192)" cx="1253.45" cy="533.108" r="14" fill="#000000" fill-rule="evenodd" fill-opacity="0.25" stroke="none"/>
<circle clip-path="url(#clip192)" cx="1274.09" cy="521.996" r="14" fill="#000000" fill-rule="evenodd" fill-opacity="0.25" stroke="none"/>
<circle clip-path="url(#clip192)" cx="1294.76" cy="505.404" r="14" fill="#000000" fill-rule="evenodd" fill-opacity="0.25" stroke="none"/>
<circle clip-path="url(#clip192)" cx="1315.47" cy="491.866" r="14" fill="#000000" fill-rule="evenodd" fill-opacity="0.25" stroke="none"/>
<circle clip-path="url(#clip192)" cx="1336.14" cy="484.268" r="14" fill="#000000" fill-rule="evenodd" fill-opacity="0.25" stroke="none"/>
<circle clip-path="url(#clip192)" cx="1356.81" cy="470.887" r="14" fill="#000000" fill-rule="evenodd" fill-opacity="0.25" stroke="none"/>
<circle clip-path="url(#clip192)" cx="1377.48" cy="458.907" r="14" fill="#000000" fill-rule="evenodd" fill-opacity="0.25" stroke="none"/>
<circle clip-path="url(#clip192)" cx="1398.15" cy="443.365" r="14" fill="#000000" fill-rule="evenodd" fill-opacity="0.25" stroke="none"/>
<circle clip-path="url(#clip192)" cx="1418.84" cy="428.926" r="14" fill="#000000" fill-rule="evenodd" fill-opacity="0.25" stroke="none"/>
<circle clip-path="url(#clip192)" cx="1439.48" cy="417.08" r="14" fill="#000000" fill-rule="evenodd" fill-opacity="0.25" stroke="none"/>
<circle clip-path="url(#clip192)" cx="1460.18" cy="415.154" r="14" fill="#000000" fill-rule="evenodd" fill-opacity="0.25" stroke="none"/>
<circle clip-path="url(#clip192)" cx="1480.87" cy="400.775" r="14" fill="#000000" fill-rule="evenodd" fill-opacity="0.25" stroke="none"/>
<circle clip-path="url(#clip192)" cx="1501.56" cy="390.718" r="14" fill="#000000" fill-rule="evenodd" fill-opacity="0.25" stroke="none"/>
<circle clip-path="url(#clip192)" cx="1522.3" cy="371.869" r="14" fill="#000000" fill-rule="evenodd" fill-opacity="0.25" stroke="none"/>
<circle clip-path="url(#clip192)" cx="1542.99" cy="367.041" r="14" fill="#000000" fill-rule="evenodd" fill-opacity="0.25" stroke="none"/>
<circle clip-path="url(#clip192)" cx="1563.66" cy="358.432" r="14" fill="#000000" fill-rule="evenodd" fill-opacity="0.25" stroke="none"/>
<circle clip-path="url(#clip192)" cx="1584.35" cy="341.997" r="14" fill="#000000" fill-rule="evenodd" fill-opacity="0.25" stroke="none"/>
<circle clip-path="url(#clip192)" cx="1605.02" cy="334.512" r="14" fill="#000000" fill-rule="evenodd" fill-opacity="0.25" stroke="none"/>
<circle clip-path="url(#clip192)" cx="1625.69" cy="326.762" r="14" fill="#000000" fill-rule="evenodd" fill-opacity="0.25" stroke="none"/>
<circle clip-path="url(#clip192)" cx="1646.36" cy="322.307" r="14" fill="#000000" fill-rule="evenodd" fill-opacity="0.25" stroke="none"/>
<circle clip-path="url(#clip192)" cx="1671.31" cy="326.317" r="14" fill="#000000" fill-rule="evenodd" fill-opacity="0.25" stroke="none"/>
<circle clip-path="url(#clip192)" cx="1698.31" cy="317.271" r="14" fill="#000000" fill-rule="evenodd" fill-opacity="0.25" stroke="none"/>
<circle clip-path="url(#clip192)" cx="1727.12" cy="309.679" r="14" fill="#000000" fill-rule="evenodd" fill-opacity="0.25" stroke="none"/>
<circle clip-path="url(#clip192)" cx="1755.91" cy="301.128" r="14" fill="#000000" fill-rule="evenodd" fill-opacity="0.25" stroke="none"/>
<circle clip-path="url(#clip192)" cx="1784.68" cy="279.404" r="14" fill="#000000" fill-rule="evenodd" fill-opacity="0.25" stroke="none"/>
<circle clip-path="url(#clip192)" cx="1813.45" cy="271.439" r="14" fill="#000000" fill-rule="evenodd" fill-opacity="0.25" stroke="none"/>
<circle clip-path="url(#clip192)" cx="1842.24" cy="260.673" r="14" fill="#000000" fill-rule="evenodd" fill-opacity="0.25" stroke="none"/>
<circle clip-path="url(#clip192)" cx="1871" cy="248.382" r="14" fill="#000000" fill-rule="evenodd" fill-opacity="0.25" stroke="none"/>
<circle clip-path="url(#clip192)" cx="1899.84" cy="235.023" r="14" fill="#000000" fill-rule="evenodd" fill-opacity="0.25" stroke="none"/>
<circle clip-path="url(#clip192)" cx="1928.61" cy="235.392" r="14" fill="#000000" fill-rule="evenodd" fill-opacity="0.25" stroke="none"/>
<circle clip-path="url(#clip192)" cx="1957.37" cy="212.637" r="14" fill="#000000" fill-rule="evenodd" fill-opacity="0.25" stroke="none"/>
<circle clip-path="url(#clip192)" cx="1986.16" cy="200.389" r="14" fill="#000000" fill-rule="evenodd" fill-opacity="0.25" stroke="none"/>
<circle clip-path="url(#clip192)" cx="2014.9" cy="181.705" r="14" fill="#000000" fill-rule="evenodd" fill-opacity="0.25" stroke="none"/>
<circle clip-path="url(#clip192)" cx="2043.67" cy="180.075" r="14" fill="#000000" fill-rule="evenodd" fill-opacity="0.25" stroke="none"/>
<circle clip-path="url(#clip192)" cx="2072.44" cy="176.455" r="14" fill="#000000" fill-rule="evenodd" fill-opacity="0.25" stroke="none"/>
<circle clip-path="url(#clip192)" cx="2101.2" cy="172.572" r="14" fill="#000000" fill-rule="evenodd" fill-opacity="0.25" stroke="none"/>
<circle clip-path="url(#clip192)" cx="2129.95" cy="167.173" r="14" fill="#000000" fill-rule="evenodd" fill-opacity="0.25" stroke="none"/>
<circle clip-path="url(#clip192)" cx="2158.76" cy="165.786" r="14" fill="#000000" fill-rule="evenodd" fill-opacity="0.25" stroke="none"/>
<circle clip-path="url(#clip192)" cx="2187.5" cy="139.372" r="14" fill="#000000" fill-rule="evenodd" fill-opacity="0.25" stroke="none"/>
<circle clip-path="url(#clip192)" cx="2216.29" cy="113.304" r="14" fill="#000000" fill-rule="evenodd" fill-opacity="0.25" stroke="none"/>
<circle clip-path="url(#clip192)" cx="2245.06" cy="107.123" r="14" fill="#000000" fill-rule="evenodd" fill-opacity="0.25" stroke="none"/>
<circle clip-path="url(#clip192)" cx="2273.83" cy="119.279" r="14" fill="#000000" fill-rule="evenodd" fill-opacity="0.25" stroke="none"/>
</svg>
