<?xml version="1.0" encoding="utf-8"?>
<svg xmlns="http://www.w3.org/2000/svg" xmlns:xlink="http://www.w3.org/1999/xlink" width="600" height="400" viewBox="0 0 2400 1600">
<defs>
  <clipPath id="clip750">
    <rect x="0" y="0" width="2400" height="1600"/>
  </clipPath>
</defs>
<path clip-path="url(#clip750)" d="
M0 1600 L2400 1600 L2400 0 L0 0  Z
  " fill="#ffffff" fill-rule="evenodd" fill-opacity="1"/>
<defs>
  <clipPath id="clip751">
    <rect x="480" y="0" width="1681" height="1600"/>
  </clipPath>
</defs>
<path clip-path="url(#clip750)" d="
M234.125 1423.18 L2352.76 1423.18 L2352.76 47.2441 L234.125 47.2441  Z
  " fill="#ffffff" fill-rule="evenodd" fill-opacity="1"/>
<defs>
  <clipPath id="clip752">
    <rect x="234" y="47" width="2120" height="1377"/>
  </clipPath>
</defs>
<polyline clip-path="url(#clip752)" style="stroke:#000000; stroke-linecap:butt; stroke-linejoin:round; stroke-width:2; stroke-opacity:0.1; fill:none" points="
  234.125,1423.18 234.125,47.2441 
  "/>
<polyline clip-path="url(#clip752)" style="stroke:#000000; stroke-linecap:butt; stroke-linejoin:round; stroke-width:2; stroke-opacity:0.1; fill:none" points="
  657.852,1423.18 657.852,47.2441 
  "/>
<polyline clip-path="url(#clip752)" style="stroke:#000000; stroke-linecap:butt; stroke-linejoin:round; stroke-width:2; stroke-opacity:0.1; fill:none" points="
  1081.58,1423.18 1081.58,47.2441 
  "/>
<polyline clip-path="url(#clip752)" style="stroke:#000000; stroke-linecap:butt; stroke-linejoin:round; stroke-width:2; stroke-opacity:0.1; fill:none" points="
  1505.3,1423.18 1505.3,47.2441 
  "/>
<polyline clip-path="url(#clip752)" style="stroke:#000000; stroke-linecap:butt; stroke-linejoin:round; stroke-width:2; stroke-opacity:0.1; fill:none" points="
  1929.03,1423.18 1929.03,47.2441 
  "/>
<polyline clip-path="url(#clip752)" style="stroke:#000000; stroke-linecap:butt; stroke-linejoin:round; stroke-width:2; stroke-opacity:0.1; fill:none" points="
  2352.76,1423.18 2352.76,47.2441 
  "/>
<polyline clip-path="url(#clip750)" style="stroke:#000000; stroke-linecap:butt; stroke-linejoin:round; stroke-width:4; stroke-opacity:1; fill:none" points="
  234.125,1423.18 2352.76,1423.18 
  "/>
<polyline clip-path="url(#clip750)" style="stroke:#000000; stroke-linecap:butt; stroke-linejoin:round; stroke-width:4; stroke-opacity:1; fill:none" points="
  234.125,1423.18 234.125,1404.28 
  "/>
<polyline clip-path="url(#clip750)" style="stroke:#000000; stroke-linecap:butt; stroke-linejoin:round; stroke-width:4; stroke-opacity:1; fill:none" points="
  657.852,1423.18 657.852,1404.28 
  "/>
<polyline clip-path="url(#clip750)" style="stroke:#000000; stroke-linecap:butt; stroke-linejoin:round; stroke-width:4; stroke-opacity:1; fill:none" points="
  1081.58,1423.18 1081.58,1404.28 
  "/>
<polyline clip-path="url(#clip750)" style="stroke:#000000; stroke-linecap:butt; stroke-linejoin:round; stroke-width:4; stroke-opacity:1; fill:none" points="
  1505.3,1423.18 1505.3,1404.28 
  "/>
<polyline clip-path="url(#clip750)" style="stroke:#000000; stroke-linecap:butt; stroke-linejoin:round; stroke-width:4; stroke-opacity:1; fill:none" points="
  1929.03,1423.18 1929.03,1404.28 
  "/>
<polyline clip-path="url(#clip750)" style="stroke:#000000; stroke-linecap:butt; stroke-linejoin:round; stroke-width:4; stroke-opacity:1; fill:none" points="
  2352.76,1423.18 2352.76,1404.28 
  "/>
<path clip-path="url(#clip750)" d="M234.125 1454.1 Q230.514 1454.1 228.686 1457.66 Q226.88 1461.2 226.88 1468.33 Q226.88 1475.44 228.686 1479.01 Q230.514 1482.55 234.125 1482.55 Q237.76 1482.55 239.565 1479.01 Q241.394 1475.44 241.394 1468.33 Q241.394 1461.2 239.565 1457.66 Q237.76 1454.1 234.125 1454.1 M234.125 1450.39 Q239.936 1450.39 242.991 1455 Q246.07 1459.58 246.07 1468.33 Q246.07 1477.06 242.991 1481.67 Q239.936 1486.25 234.125 1486.25 Q228.315 1486.25 225.237 1481.67 Q222.181 1477.06 222.181 1468.33 Q222.181 1459.58 225.237 1455 Q228.315 1450.39 234.125 1450.39 Z" fill="#000000" fill-rule="evenodd" fill-opacity="1" /><path clip-path="url(#clip750)" d="M632.539 1481.64 L640.178 1481.64 L640.178 1455.28 L631.868 1456.95 L631.868 1452.69 L640.132 1451.02 L644.808 1451.02 L644.808 1481.64 L652.446 1481.64 L652.446 1485.58 L632.539 1485.58 L632.539 1481.64 Z" fill="#000000" fill-rule="evenodd" fill-opacity="1" /><path clip-path="url(#clip750)" d="M671.891 1454.1 Q668.28 1454.1 666.451 1457.66 Q664.645 1461.2 664.645 1468.33 Q664.645 1475.44 666.451 1479.01 Q668.28 1482.55 671.891 1482.55 Q675.525 1482.55 677.331 1479.01 Q679.159 1475.44 679.159 1468.33 Q679.159 1461.2 677.331 1457.66 Q675.525 1454.1 671.891 1454.1 M671.891 1450.39 Q677.701 1450.39 680.757 1455 Q683.835 1459.58 683.835 1468.33 Q683.835 1477.06 680.757 1481.67 Q677.701 1486.25 671.891 1486.25 Q666.081 1486.25 663.002 1481.67 Q659.946 1477.06 659.946 1468.33 Q659.946 1459.58 663.002 1455 Q666.081 1450.39 671.891 1450.39 Z" fill="#000000" fill-rule="evenodd" fill-opacity="1" /><path clip-path="url(#clip750)" d="M1060.35 1481.64 L1076.67 1481.64 L1076.67 1485.58 L1054.73 1485.58 L1054.73 1481.64 Q1057.39 1478.89 1061.97 1474.26 Q1066.58 1469.61 1067.76 1468.27 Q1070 1465.74 1070.88 1464.01 Q1071.79 1462.25 1071.79 1460.56 Q1071.79 1457.8 1069.84 1456.07 Q1067.92 1454.33 1064.82 1454.33 Q1062.62 1454.33 1060.17 1455.09 Q1057.74 1455.86 1054.96 1457.41 L1054.96 1452.69 Q1057.78 1451.55 1060.24 1450.97 Q1062.69 1450.39 1064.73 1450.39 Q1070.1 1450.39 1073.29 1453.08 Q1076.49 1455.77 1076.49 1460.26 Q1076.49 1462.39 1075.67 1464.31 Q1074.89 1466.2 1072.78 1468.8 Q1072.2 1469.47 1069.1 1472.69 Q1066 1475.88 1060.35 1481.64 Z" fill="#000000" fill-rule="evenodd" fill-opacity="1" /><path clip-path="url(#clip750)" d="M1096.48 1454.1 Q1092.87 1454.1 1091.05 1457.66 Q1089.24 1461.2 1089.24 1468.33 Q1089.24 1475.44 1091.05 1479.01 Q1092.87 1482.55 1096.48 1482.55 Q1100.12 1482.55 1101.92 1479.01 Q1103.75 1475.44 1103.75 1468.33 Q1103.75 1461.2 1101.92 1457.66 Q1100.12 1454.1 1096.48 1454.1 M1096.48 1450.39 Q1102.3 1450.39 1105.35 1455 Q1108.43 1459.58 1108.43 1468.33 Q1108.43 1477.06 1105.35 1481.67 Q1102.3 1486.25 1096.48 1486.25 Q1090.67 1486.25 1087.6 1481.67 Q1084.54 1477.06 1084.54 1468.33 Q1084.54 1459.58 1087.6 1455 Q1090.67 1450.39 1096.48 1450.39 Z" fill="#000000" fill-rule="evenodd" fill-opacity="1" /><path clip-path="url(#clip750)" d="M1494.15 1466.95 Q1497.5 1467.66 1499.38 1469.93 Q1501.28 1472.2 1501.28 1475.53 Q1501.28 1480.65 1497.76 1483.45 Q1494.24 1486.25 1487.76 1486.25 Q1485.58 1486.25 1483.27 1485.81 Q1480.98 1485.39 1478.52 1484.54 L1478.52 1480.02 Q1480.47 1481.16 1482.78 1481.74 Q1485.1 1482.32 1487.62 1482.32 Q1492.02 1482.32 1494.31 1480.58 Q1496.62 1478.84 1496.62 1475.53 Q1496.62 1472.48 1494.47 1470.77 Q1492.34 1469.03 1488.52 1469.03 L1484.49 1469.03 L1484.49 1465.19 L1488.71 1465.19 Q1492.16 1465.19 1493.98 1463.82 Q1495.81 1462.43 1495.81 1459.84 Q1495.81 1457.18 1493.91 1455.77 Q1492.04 1454.33 1488.52 1454.33 Q1486.6 1454.33 1484.4 1454.75 Q1482.2 1455.16 1479.56 1456.04 L1479.56 1451.88 Q1482.23 1451.14 1484.54 1450.77 Q1486.88 1450.39 1488.94 1450.39 Q1494.26 1450.39 1497.36 1452.83 Q1500.47 1455.23 1500.47 1459.35 Q1500.47 1462.22 1498.82 1464.21 Q1497.18 1466.18 1494.15 1466.95 Z" fill="#000000" fill-rule="evenodd" fill-opacity="1" /><path clip-path="url(#clip750)" d="M1520.14 1454.1 Q1516.53 1454.1 1514.7 1457.66 Q1512.9 1461.2 1512.9 1468.33 Q1512.9 1475.44 1514.7 1479.01 Q1516.53 1482.55 1520.14 1482.55 Q1523.78 1482.55 1525.58 1479.01 Q1527.41 1475.44 1527.41 1468.33 Q1527.41 1461.2 1525.58 1457.66 Q1523.78 1454.1 1520.14 1454.1 M1520.14 1450.39 Q1525.95 1450.39 1529.01 1455 Q1532.09 1459.58 1532.09 1468.33 Q1532.09 1477.06 1529.01 1481.67 Q1525.95 1486.25 1520.14 1486.25 Q1514.33 1486.25 1511.25 1481.67 Q1508.2 1477.06 1508.2 1468.33 Q1508.2 1459.58 1511.25 1455 Q1514.33 1450.39 1520.14 1450.39 Z" fill="#000000" fill-rule="evenodd" fill-opacity="1" /><path clip-path="url(#clip750)" d="M1917.2 1455.09 L1905.4 1473.54 L1917.2 1473.54 L1917.2 1455.09 M1915.97 1451.02 L1921.85 1451.02 L1921.85 1473.54 L1926.78 1473.54 L1926.78 1477.43 L1921.85 1477.43 L1921.85 1485.58 L1917.2 1485.58 L1917.2 1477.43 L1901.6 1477.43 L1901.6 1472.92 L1915.97 1451.02 Z" fill="#000000" fill-rule="evenodd" fill-opacity="1" /><path clip-path="url(#clip750)" d="M1944.52 1454.1 Q1940.9 1454.1 1939.08 1457.66 Q1937.27 1461.2 1937.27 1468.33 Q1937.27 1475.44 1939.08 1479.01 Q1940.9 1482.55 1944.52 1482.55 Q1948.15 1482.55 1949.96 1479.01 Q1951.78 1475.44 1951.78 1468.33 Q1951.78 1461.2 1949.96 1457.66 Q1948.15 1454.1 1944.52 1454.1 M1944.52 1450.39 Q1950.33 1450.39 1953.38 1455 Q1956.46 1459.58 1956.46 1468.33 Q1956.46 1477.06 1953.38 1481.67 Q1950.33 1486.25 1944.52 1486.25 Q1938.71 1486.25 1935.63 1481.67 Q1932.57 1477.06 1932.57 1468.33 Q1932.57 1459.58 1935.63 1455 Q1938.71 1450.39 1944.52 1450.39 Z" fill="#000000" fill-rule="evenodd" fill-opacity="1" /><path clip-path="url(#clip750)" d="M2327.46 1451.02 L2345.81 1451.02 L2345.81 1454.96 L2331.74 1454.96 L2331.74 1463.43 Q2332.76 1463.08 2333.77 1462.92 Q2334.79 1462.73 2335.81 1462.73 Q2341.6 1462.73 2344.98 1465.9 Q2348.36 1469.08 2348.36 1474.49 Q2348.36 1480.07 2344.89 1483.17 Q2341.41 1486.25 2335.09 1486.25 Q2332.92 1486.25 2330.65 1485.88 Q2328.4 1485.51 2326 1484.77 L2326 1480.07 Q2328.08 1481.2 2330.3 1481.76 Q2332.52 1482.32 2335 1482.32 Q2339.01 1482.32 2341.34 1480.21 Q2343.68 1478.1 2343.68 1474.49 Q2343.68 1470.88 2341.34 1468.77 Q2339.01 1466.67 2335 1466.67 Q2333.13 1466.67 2331.25 1467.08 Q2329.4 1467.5 2327.46 1468.38 L2327.46 1451.02 Z" fill="#000000" fill-rule="evenodd" fill-opacity="1" /><path clip-path="url(#clip750)" d="M2367.57 1454.1 Q2363.96 1454.1 2362.13 1457.66 Q2360.33 1461.2 2360.33 1468.33 Q2360.33 1475.44 2362.13 1479.01 Q2363.96 1482.55 2367.57 1482.55 Q2371.2 1482.55 2373.01 1479.01 Q2374.84 1475.44 2374.84 1468.33 Q2374.84 1461.2 2373.01 1457.66 Q2371.2 1454.1 2367.57 1454.1 M2367.57 1450.39 Q2373.38 1450.39 2376.44 1455 Q2379.52 1459.58 2379.52 1468.33 Q2379.52 1477.06 2376.44 1481.67 Q2373.38 1486.25 2367.57 1486.25 Q2361.76 1486.25 2358.68 1481.67 Q2355.63 1477.06 2355.63 1468.33 Q2355.63 1459.58 2358.68 1455 Q2361.76 1450.39 2367.57 1450.39 Z" fill="#000000" fill-rule="evenodd" fill-opacity="1" /><path clip-path="url(#clip750)" d="M1146.54 1520.52 L1186.74 1520.52 L1186.74 1525.93 L1169.87 1525.93 L1169.87 1568.04 L1163.41 1568.04 L1163.41 1525.93 L1146.54 1525.93 L1146.54 1520.52 Z" fill="#000000" fill-rule="evenodd" fill-opacity="1" /><path clip-path="url(#clip750)" d="M1190.68 1532.4 L1196.54 1532.4 L1196.54 1568.04 L1190.68 1568.04 L1190.68 1532.4 M1190.68 1518.52 L1196.54 1518.52 L1196.54 1525.93 L1190.68 1525.93 L1190.68 1518.52 Z" fill="#000000" fill-rule="evenodd" fill-opacity="1" /><path clip-path="url(#clip750)" d="M1236.55 1539.24 Q1238.74 1535.29 1241.8 1533.41 Q1244.85 1531.54 1248.99 1531.54 Q1254.56 1531.54 1257.59 1535.45 Q1260.61 1539.33 1260.61 1546.53 L1260.61 1568.04 L1254.72 1568.04 L1254.72 1546.72 Q1254.72 1541.59 1252.91 1539.11 Q1251.09 1536.63 1247.37 1536.63 Q1242.82 1536.63 1240.18 1539.65 Q1237.53 1542.68 1237.53 1547.9 L1237.53 1568.04 L1231.65 1568.04 L1231.65 1546.72 Q1231.65 1541.56 1229.83 1539.11 Q1228.02 1536.63 1224.23 1536.63 Q1219.74 1536.63 1217.1 1539.68 Q1214.46 1542.71 1214.46 1547.9 L1214.46 1568.04 L1208.57 1568.04 L1208.57 1532.4 L1214.46 1532.4 L1214.46 1537.93 Q1216.46 1534.66 1219.26 1533.1 Q1222.07 1531.54 1225.92 1531.54 Q1229.8 1531.54 1232.5 1533.51 Q1235.24 1535.48 1236.55 1539.24 Z" fill="#000000" fill-rule="evenodd" fill-opacity="1" /><path clip-path="url(#clip750)" d="M1302.78 1548.76 L1302.78 1551.62 L1275.86 1551.62 Q1276.24 1557.67 1279.48 1560.85 Q1282.76 1564 1288.59 1564 Q1291.96 1564 1295.11 1563.17 Q1298.29 1562.35 1301.41 1560.69 L1301.41 1566.23 Q1298.26 1567.57 1294.95 1568.27 Q1291.64 1568.97 1288.24 1568.97 Q1279.71 1568.97 1274.71 1564 Q1269.74 1559.04 1269.74 1550.57 Q1269.74 1541.82 1274.45 1536.69 Q1279.2 1531.54 1287.22 1531.54 Q1294.41 1531.54 1298.58 1536.18 Q1302.78 1540.8 1302.78 1548.76 M1296.93 1547.04 Q1296.86 1542.23 1294.22 1539.37 Q1291.61 1536.5 1287.28 1536.5 Q1282.38 1536.5 1279.42 1539.27 Q1276.49 1542.04 1276.05 1547.07 L1296.93 1547.04 Z" fill="#000000" fill-rule="evenodd" fill-opacity="1" /><path clip-path="url(#clip750)" d="M1332.57 1518.52 L1346.07 1518.52 L1346.07 1523.07 L1338.43 1523.07 L1338.43 1572.09 L1346.07 1572.09 L1346.07 1576.64 L1332.57 1576.64 L1332.57 1518.52 Z" fill="#000000" fill-rule="evenodd" fill-opacity="1" /><path clip-path="url(#clip750)" d="M1388.18 1546.53 L1388.18 1568.04 L1382.32 1568.04 L1382.32 1546.72 Q1382.32 1541.66 1380.35 1539.14 Q1378.38 1536.63 1374.43 1536.63 Q1369.69 1536.63 1366.95 1539.65 Q1364.21 1542.68 1364.21 1547.9 L1364.21 1568.04 L1358.32 1568.04 L1358.32 1518.52 L1364.21 1518.52 L1364.21 1537.93 Q1366.31 1534.72 1369.14 1533.13 Q1372.01 1531.54 1375.73 1531.54 Q1381.88 1531.54 1385.03 1535.36 Q1388.18 1539.14 1388.18 1546.53 Z" fill="#000000" fill-rule="evenodd" fill-opacity="1" /><path clip-path="url(#clip750)" d="M1420.52 1537.87 Q1419.53 1537.3 1418.35 1537.04 Q1417.21 1536.76 1415.81 1536.76 Q1410.84 1536.76 1408.17 1540 Q1405.52 1543.22 1405.52 1549.27 L1405.52 1568.04 L1399.64 1568.04 L1399.64 1532.4 L1405.52 1532.4 L1405.52 1537.93 Q1407.37 1534.69 1410.33 1533.13 Q1413.29 1531.54 1417.52 1531.54 Q1418.13 1531.54 1418.86 1531.63 Q1419.59 1531.7 1420.48 1531.85 L1420.52 1537.87 Z" fill="#000000" fill-rule="evenodd" fill-opacity="1" /><path clip-path="url(#clip750)" d="M1440.35 1518.52 L1440.35 1576.64 L1426.85 1576.64 L1426.85 1572.09 L1434.46 1572.09 L1434.46 1523.07 L1426.85 1523.07 L1426.85 1518.52 L1440.35 1518.52 Z" fill="#000000" fill-rule="evenodd" fill-opacity="1" /><polyline clip-path="url(#clip752)" style="stroke:#000000; stroke-linecap:butt; stroke-linejoin:round; stroke-width:2; stroke-opacity:0.1; fill:none" points="
  234.125,1416.95 2352.76,1416.95 
  "/>
<polyline clip-path="url(#clip752)" style="stroke:#000000; stroke-linecap:butt; stroke-linejoin:round; stroke-width:2; stroke-opacity:0.1; fill:none" points="
  234.125,1105.66 2352.76,1105.66 
  "/>
<polyline clip-path="url(#clip752)" style="stroke:#000000; stroke-linecap:butt; stroke-linejoin:round; stroke-width:2; stroke-opacity:0.1; fill:none" points="
  234.125,794.359 2352.76,794.359 
  "/>
<polyline clip-path="url(#clip752)" style="stroke:#000000; stroke-linecap:butt; stroke-linejoin:round; stroke-width:2; stroke-opacity:0.1; fill:none" points="
  234.125,483.061 2352.76,483.061 
  "/>
<polyline clip-path="url(#clip752)" style="stroke:#000000; stroke-linecap:butt; stroke-linejoin:round; stroke-width:2; stroke-opacity:0.1; fill:none" points="
  234.125,171.763 2352.76,171.763 
  "/>
<polyline clip-path="url(#clip750)" style="stroke:#000000; stroke-linecap:butt; stroke-linejoin:round; stroke-width:4; stroke-opacity:1; fill:none" points="
  234.125,1423.18 234.125,47.2441 
  "/>
<polyline clip-path="url(#clip750)" style="stroke:#000000; stroke-linecap:butt; stroke-linejoin:round; stroke-width:4; stroke-opacity:1; fill:none" points="
  234.125,1416.95 253.023,1416.95 
  "/>
<polyline clip-path="url(#clip750)" style="stroke:#000000; stroke-linecap:butt; stroke-linejoin:round; stroke-width:4; stroke-opacity:1; fill:none" points="
  234.125,1105.66 253.023,1105.66 
  "/>
<polyline clip-path="url(#clip750)" style="stroke:#000000; stroke-linecap:butt; stroke-linejoin:round; stroke-width:4; stroke-opacity:1; fill:none" points="
  234.125,794.359 253.023,794.359 
  "/>
<polyline clip-path="url(#clip750)" style="stroke:#000000; stroke-linecap:butt; stroke-linejoin:round; stroke-width:4; stroke-opacity:1; fill:none" points="
  234.125,483.061 253.023,483.061 
  "/>
<polyline clip-path="url(#clip750)" style="stroke:#000000; stroke-linecap:butt; stroke-linejoin:round; stroke-width:4; stroke-opacity:1; fill:none" points="
  234.125,171.763 253.023,171.763 
  "/>
<path clip-path="url(#clip750)" d="M186.181 1402.75 Q182.57 1402.75 180.741 1406.32 Q178.936 1409.86 178.936 1416.99 Q178.936 1424.1 180.741 1427.66 Q182.57 1431.2 186.181 1431.2 Q189.815 1431.2 191.621 1427.66 Q193.45 1424.1 193.45 1416.99 Q193.45 1409.86 191.621 1406.32 Q189.815 1402.75 186.181 1402.75 M186.181 1399.05 Q191.991 1399.05 195.047 1403.66 Q198.125 1408.24 198.125 1416.99 Q198.125 1425.72 195.047 1430.32 Q191.991 1434.91 186.181 1434.91 Q180.371 1434.91 177.292 1430.32 Q174.237 1425.72 174.237 1416.99 Q174.237 1408.24 177.292 1403.66 Q180.371 1399.05 186.181 1399.05 Z" fill="#000000" fill-rule="evenodd" fill-opacity="1" /><path clip-path="url(#clip750)" d="M146.066 1088.38 L164.422 1088.38 L164.422 1092.31 L150.348 1092.31 L150.348 1100.78 Q151.366 1100.44 152.385 1100.27 Q153.403 1100.09 154.422 1100.09 Q160.209 1100.09 163.589 1103.26 Q166.968 1106.43 166.968 1111.85 Q166.968 1117.43 163.496 1120.53 Q160.024 1123.61 153.704 1123.61 Q151.528 1123.61 149.26 1123.24 Q147.015 1122.87 144.607 1122.13 L144.607 1117.43 Q146.691 1118.56 148.913 1119.12 Q151.135 1119.67 153.612 1119.67 Q157.616 1119.67 159.954 1117.57 Q162.292 1115.46 162.292 1111.85 Q162.292 1108.24 159.954 1106.13 Q157.616 1104.02 153.612 1104.02 Q151.737 1104.02 149.862 1104.44 Q148.01 1104.86 146.066 1105.74 L146.066 1088.38 Z" fill="#000000" fill-rule="evenodd" fill-opacity="1" /><path clip-path="url(#clip750)" d="M186.181 1091.45 Q182.57 1091.45 180.741 1095.02 Q178.936 1098.56 178.936 1105.69 Q178.936 1112.8 180.741 1116.36 Q182.57 1119.9 186.181 1119.9 Q189.815 1119.9 191.621 1116.36 Q193.45 1112.8 193.45 1105.69 Q193.45 1098.56 191.621 1095.02 Q189.815 1091.45 186.181 1091.45 M186.181 1087.75 Q191.991 1087.75 195.047 1092.36 Q198.125 1096.94 198.125 1105.69 Q198.125 1114.42 195.047 1119.02 Q191.991 1123.61 186.181 1123.61 Q180.371 1123.61 177.292 1119.02 Q174.237 1114.42 174.237 1105.69 Q174.237 1096.94 177.292 1092.36 Q180.371 1087.75 186.181 1087.75 Z" fill="#000000" fill-rule="evenodd" fill-opacity="1" /><path clip-path="url(#clip750)" d="M116.668 807.703 L124.306 807.703 L124.306 781.338 L115.996 783.004 L115.996 778.745 L124.26 777.079 L128.936 777.079 L128.936 807.703 L136.575 807.703 L136.575 811.639 L116.668 811.639 L116.668 807.703 Z" fill="#000000" fill-rule="evenodd" fill-opacity="1" /><path clip-path="url(#clip750)" d="M156.019 780.157 Q152.408 780.157 150.579 783.722 Q148.774 787.264 148.774 794.393 Q148.774 801.5 150.579 805.064 Q152.408 808.606 156.019 808.606 Q159.653 808.606 161.459 805.064 Q163.288 801.5 163.288 794.393 Q163.288 787.264 161.459 783.722 Q159.653 780.157 156.019 780.157 M156.019 776.454 Q161.829 776.454 164.885 781.06 Q167.964 785.643 167.964 794.393 Q167.964 803.12 164.885 807.727 Q161.829 812.31 156.019 812.31 Q150.209 812.31 147.13 807.727 Q144.075 803.12 144.075 794.393 Q144.075 785.643 147.13 781.06 Q150.209 776.454 156.019 776.454 Z" fill="#000000" fill-rule="evenodd" fill-opacity="1" /><path clip-path="url(#clip750)" d="M186.181 780.157 Q182.57 780.157 180.741 783.722 Q178.936 787.264 178.936 794.393 Q178.936 801.5 180.741 805.064 Q182.57 808.606 186.181 808.606 Q189.815 808.606 191.621 805.064 Q193.45 801.5 193.45 794.393 Q193.45 787.264 191.621 783.722 Q189.815 780.157 186.181 780.157 M186.181 776.454 Q191.991 776.454 195.047 781.06 Q198.125 785.643 198.125 794.393 Q198.125 803.12 195.047 807.727 Q191.991 812.31 186.181 812.31 Q180.371 812.31 177.292 807.727 Q174.237 803.12 174.237 794.393 Q174.237 785.643 177.292 781.06 Q180.371 776.454 186.181 776.454 Z" fill="#000000" fill-rule="evenodd" fill-opacity="1" /><path clip-path="url(#clip750)" d="M116.668 496.406 L124.306 496.406 L124.306 470.04 L115.996 471.707 L115.996 467.448 L124.26 465.781 L128.936 465.781 L128.936 496.406 L136.575 496.406 L136.575 500.341 L116.668 500.341 L116.668 496.406 Z" fill="#000000" fill-rule="evenodd" fill-opacity="1" /><path clip-path="url(#clip750)" d="M146.066 465.781 L164.422 465.781 L164.422 469.716 L150.348 469.716 L150.348 478.188 Q151.366 477.841 152.385 477.679 Q153.403 477.494 154.422 477.494 Q160.209 477.494 163.589 480.665 Q166.968 483.836 166.968 489.253 Q166.968 494.832 163.496 497.933 Q160.024 501.012 153.704 501.012 Q151.528 501.012 149.26 500.642 Q147.015 500.271 144.607 499.531 L144.607 494.832 Q146.691 495.966 148.913 496.521 Q151.135 497.077 153.612 497.077 Q157.616 497.077 159.954 494.971 Q162.292 492.864 162.292 489.253 Q162.292 485.642 159.954 483.535 Q157.616 481.429 153.612 481.429 Q151.737 481.429 149.862 481.846 Q148.01 482.262 146.066 483.142 L146.066 465.781 Z" fill="#000000" fill-rule="evenodd" fill-opacity="1" /><path clip-path="url(#clip750)" d="M186.181 468.86 Q182.57 468.86 180.741 472.424 Q178.936 475.966 178.936 483.096 Q178.936 490.202 180.741 493.767 Q182.57 497.308 186.181 497.308 Q189.815 497.308 191.621 493.767 Q193.45 490.202 193.45 483.096 Q193.45 475.966 191.621 472.424 Q189.815 468.86 186.181 468.86 M186.181 465.156 Q191.991 465.156 195.047 469.762 Q198.125 474.346 198.125 483.096 Q198.125 491.822 195.047 496.429 Q191.991 501.012 186.181 501.012 Q180.371 501.012 177.292 496.429 Q174.237 491.822 174.237 483.096 Q174.237 474.346 177.292 469.762 Q180.371 465.156 186.181 465.156 Z" fill="#000000" fill-rule="evenodd" fill-opacity="1" /><path clip-path="url(#clip750)" d="M119.885 185.108 L136.204 185.108 L136.204 189.043 L114.26 189.043 L114.26 185.108 Q116.922 182.353 121.505 177.724 Q126.112 173.071 127.292 171.728 Q129.538 169.205 130.417 167.469 Q131.32 165.71 131.32 164.02 Q131.32 161.266 129.376 159.529 Q127.455 157.793 124.353 157.793 Q122.154 157.793 119.7 158.557 Q117.269 159.321 114.492 160.872 L114.492 156.15 Q117.316 155.016 119.769 154.437 Q122.223 153.858 124.26 153.858 Q129.63 153.858 132.825 156.543 Q136.019 159.229 136.019 163.719 Q136.019 165.849 135.209 167.77 Q134.422 169.668 132.316 172.261 Q131.737 172.932 128.635 176.15 Q125.533 179.344 119.885 185.108 Z" fill="#000000" fill-rule="evenodd" fill-opacity="1" /><path clip-path="url(#clip750)" d="M156.019 157.562 Q152.408 157.562 150.579 161.127 Q148.774 164.668 148.774 171.798 Q148.774 178.904 150.579 182.469 Q152.408 186.011 156.019 186.011 Q159.653 186.011 161.459 182.469 Q163.288 178.904 163.288 171.798 Q163.288 164.668 161.459 161.127 Q159.653 157.562 156.019 157.562 M156.019 153.858 Q161.829 153.858 164.885 158.465 Q167.964 163.048 167.964 171.798 Q167.964 180.525 164.885 185.131 Q161.829 189.714 156.019 189.714 Q150.209 189.714 147.13 185.131 Q144.075 180.525 144.075 171.798 Q144.075 163.048 147.13 158.465 Q150.209 153.858 156.019 153.858 Z" fill="#000000" fill-rule="evenodd" fill-opacity="1" /><path clip-path="url(#clip750)" d="M186.181 157.562 Q182.57 157.562 180.741 161.127 Q178.936 164.668 178.936 171.798 Q178.936 178.904 180.741 182.469 Q182.57 186.011 186.181 186.011 Q189.815 186.011 191.621 182.469 Q193.45 178.904 193.45 171.798 Q193.45 164.668 191.621 161.127 Q189.815 157.562 186.181 157.562 M186.181 153.858 Q191.991 153.858 195.047 158.465 Q198.125 163.048 198.125 171.798 Q198.125 180.525 195.047 185.131 Q191.991 189.714 186.181 189.714 Q180.371 189.714 177.292 185.131 Q174.237 180.525 174.237 171.798 Q174.237 163.048 177.292 158.465 Q180.371 153.858 186.181 153.858 Z" fill="#000000" fill-rule="evenodd" fill-opacity="1" /><path clip-path="url(#clip750)" d="M16.4842 925.228 L16.4842 918.799 L35.9632 918.799 L35.9632 895.437 L16.4842 895.437 L16.4842 889.007 L64.0042 889.007 L64.0042 895.437 L41.3741 895.437 L41.3741 918.799 L64.0042 918.799 L64.0042 925.228 L16.4842 925.228 Z" fill="#000000" fill-rule="evenodd" fill-opacity="1" /><path clip-path="url(#clip750)" d="M44.7161 845.975 L47.5806 845.975 L47.5806 872.902 Q53.6281 872.52 56.8109 869.274 Q59.9619 865.995 59.9619 860.171 Q59.9619 856.797 59.1344 853.646 Q58.3069 850.463 56.6518 847.344 L62.1899 847.344 Q63.5267 850.495 64.227 853.805 Q64.9272 857.115 64.9272 860.521 Q64.9272 869.051 59.9619 874.048 Q54.9967 879.013 46.5303 879.013 Q37.7774 879.013 32.6531 874.303 Q27.4968 869.56 27.4968 861.539 Q27.4968 854.346 32.1438 850.177 Q36.7589 845.975 44.7161 845.975 M42.9973 851.832 Q38.1912 851.895 35.3266 854.537 Q32.4621 857.147 32.4621 861.476 Q32.4621 866.377 35.2312 869.337 Q38.0002 872.266 43.0292 872.711 L42.9973 851.832 Z" fill="#000000" fill-rule="evenodd" fill-opacity="1" /><path clip-path="url(#clip750)" d="M28.3562 836.363 L28.3562 830.507 L64.0042 830.507 L64.0042 836.363 L28.3562 836.363 M14.479 836.363 L14.479 830.507 L21.895 830.507 L21.895 836.363 L14.479 836.363 Z" fill="#000000" fill-rule="evenodd" fill-opacity="1" /><path clip-path="url(#clip750)" d="M45.7664 794.795 Q39.4007 794.795 35.8996 797.437 Q32.3984 800.047 32.3984 804.789 Q32.3984 809.5 35.8996 812.142 Q39.4007 814.751 45.7664 814.751 Q52.1003 814.751 55.6014 812.142 Q59.1026 809.5 59.1026 804.789 Q59.1026 800.047 55.6014 797.437 Q52.1003 794.795 45.7664 794.795 M59.58 788.939 Q68.683 788.939 73.1071 792.981 Q77.5631 797.023 77.5631 805.362 Q77.5631 808.449 77.0857 811.187 Q76.6401 813.924 75.6852 816.502 L69.9879 816.502 Q71.3884 813.924 72.0568 811.409 Q72.7252 808.895 72.7252 806.285 Q72.7252 800.524 69.7015 797.66 Q66.7096 794.795 60.6303 794.795 L57.7339 794.795 Q60.885 796.609 62.4446 799.442 Q64.0042 802.275 64.0042 806.221 Q64.0042 812.778 59.0071 816.788 Q54.01 820.799 45.7664 820.799 Q37.491 820.799 32.4939 816.788 Q27.4968 812.778 27.4968 806.221 Q27.4968 802.275 29.0564 799.442 Q30.616 796.609 33.7671 794.795 L28.3562 794.795 L28.3562 788.939 L59.58 788.939 Z" fill="#000000" fill-rule="evenodd" fill-opacity="1" /><path clip-path="url(#clip750)" d="M42.4881 747.243 L64.0042 747.243 L64.0042 753.1 L42.679 753.1 Q37.6183 753.1 35.1038 755.073 Q32.5894 757.046 32.5894 760.993 Q32.5894 765.736 35.6131 768.473 Q38.6368 771.21 43.8567 771.21 L64.0042 771.21 L64.0042 777.098 L14.479 777.098 L14.479 771.21 L33.8944 771.21 Q30.6797 769.109 29.0883 766.277 Q27.4968 763.412 27.4968 759.688 Q27.4968 753.545 31.3163 750.394 Q35.1038 747.243 42.4881 747.243 Z" fill="#000000" fill-rule="evenodd" fill-opacity="1" /><path clip-path="url(#clip750)" d="M18.2347 729.769 L28.3562 729.769 L28.3562 717.706 L32.9077 717.706 L32.9077 729.769 L52.2594 729.769 Q56.6199 729.769 57.8613 728.592 Q59.1026 727.382 59.1026 723.722 L59.1026 717.706 L64.0042 717.706 L64.0042 723.722 Q64.0042 730.501 61.4897 733.079 Q58.9434 735.658 52.2594 735.658 L32.9077 735.658 L32.9077 739.954 L28.3562 739.954 L28.3562 735.658 L18.2347 735.658 L18.2347 729.769 Z" fill="#000000" fill-rule="evenodd" fill-opacity="1" /><path clip-path="url(#clip750)" d="M14.479 689.824 L14.479 676.329 L19.0304 676.329 L19.0304 683.968 L68.0464 683.968 L68.0464 676.329 L72.5979 676.329 L72.5979 689.824 L14.479 689.824 Z" fill="#000000" fill-rule="evenodd" fill-opacity="1" /><path clip-path="url(#clip750)" d="M77.5631 664.457 L28.3562 664.457 L28.3562 658.601 L50.5089 658.601 Q55.124 658.601 57.4793 656.405 Q59.8346 654.208 59.8346 649.911 Q59.8346 645.201 57.161 642.846 Q54.4874 640.458 49.1402 640.458 L28.3562 640.458 L28.3562 634.602 L55.7924 634.602 Q57.7021 634.602 58.6251 634.061 Q59.5163 633.488 59.5163 632.31 Q59.5163 632.024 59.3572 631.515 Q59.1662 631.005 58.7843 630.114 L63.4949 630.114 Q64.227 631.419 64.5771 632.597 Q64.9272 633.743 64.9272 634.857 Q64.9272 637.053 63.6859 638.358 Q62.4446 639.663 59.8983 640.14 Q62.4127 641.732 63.6859 644.055 Q64.9272 646.347 64.9272 649.466 Q64.9272 652.712 63.6859 655.004 Q62.4446 657.264 59.9619 658.601 L77.5631 658.601 L77.5631 664.457 Z" fill="#000000" fill-rule="evenodd" fill-opacity="1" /><path clip-path="url(#clip750)" d="M35.1993 594.625 Q31.2526 592.429 29.3747 589.374 Q27.4968 586.318 27.4968 582.18 Q27.4968 576.61 31.4117 573.587 Q35.2948 570.563 42.4881 570.563 L64.0042 570.563 L64.0042 576.451 L42.679 576.451 Q37.5546 576.451 35.072 578.265 Q32.5894 580.08 32.5894 583.804 Q32.5894 588.355 35.6131 590.997 Q38.6368 593.639 43.8567 593.639 L64.0042 593.639 L64.0042 599.527 L42.679 599.527 Q37.5228 599.527 35.072 601.341 Q32.5894 603.155 32.5894 606.943 Q32.5894 611.431 35.6449 614.073 Q38.6686 616.714 43.8567 616.714 L64.0042 616.714 L64.0042 622.603 L28.3562 622.603 L28.3562 616.714 L33.8944 616.714 Q30.616 614.709 29.0564 611.908 Q27.4968 609.107 27.4968 605.256 Q27.4968 601.373 29.4702 598.668 Q31.4436 595.93 35.1993 594.625 Z" fill="#000000" fill-rule="evenodd" fill-opacity="1" /><path clip-path="url(#clip750)" d="M14.479 545.196 L72.5979 545.196 L72.5979 558.691 L68.0464 558.691 L68.0464 551.084 L19.0304 551.084 L19.0304 558.691 L14.479 558.691 L14.479 545.196 Z" fill="#000000" fill-rule="evenodd" fill-opacity="1" /><circle clip-path="url(#clip752)" cx="251.781" cy="1414.95" r="14" fill="#000000" fill-rule="evenodd" fill-opacity="0.25" stroke="none"/>
<circle clip-path="url(#clip752)" cx="265.505" cy="1415.31" r="14" fill="#000000" fill-rule="evenodd" fill-opacity="0.25" stroke="none"/>
<circle clip-path="url(#clip752)" cx="279.205" cy="1414.17" r="14" fill="#000000" fill-rule="evenodd" fill-opacity="0.25" stroke="none"/>
<circle clip-path="url(#clip752)" cx="292.929" cy="1412.29" r="14" fill="#000000" fill-rule="evenodd" fill-opacity="0.25" stroke="none"/>
<circle clip-path="url(#clip752)" cx="306.653" cy="1414.67" r="14" fill="#000000" fill-rule="evenodd" fill-opacity="0.25" stroke="none"/>
<circle clip-path="url(#clip752)" cx="320.401" cy="1415.16" r="14" fill="#000000" fill-rule="evenodd" fill-opacity="0.25" stroke="none"/>
<circle clip-path="url(#clip752)" cx="334.125" cy="1417.51" r="14" fill="#000000" fill-rule="evenodd" fill-opacity="0.25" stroke="none"/>
<circle clip-path="url(#clip752)" cx="347.849" cy="1416.77" r="14" fill="#000000" fill-rule="evenodd" fill-opacity="0.25" stroke="none"/>
<circle clip-path="url(#clip752)" cx="361.596" cy="1411.65" r="14" fill="#000000" fill-rule="evenodd" fill-opacity="0.25" stroke="none"/>
<circle clip-path="url(#clip752)" cx="375.32" cy="1409.23" r="14" fill="#000000" fill-rule="evenodd" fill-opacity="0.25" stroke="none"/>
<circle clip-path="url(#clip752)" cx="389.115" cy="1406.66" r="14" fill="#000000" fill-rule="evenodd" fill-opacity="0.25" stroke="none"/>
<circle clip-path="url(#clip752)" cx="402.839" cy="1395.58" r="14" fill="#000000" fill-rule="evenodd" fill-opacity="0.25" stroke="none"/>
<circle clip-path="url(#clip752)" cx="416.563" cy="1399.02" r="14" fill="#000000" fill-rule="evenodd" fill-opacity="0.25" stroke="none"/>
<circle clip-path="url(#clip752)" cx="430.287" cy="1392.55" r="14" fill="#000000" fill-rule="evenodd" fill-opacity="0.25" stroke="none"/>
<circle clip-path="url(#clip752)" cx="444.035" cy="1382.32" r="14" fill="#000000" fill-rule="evenodd" fill-opacity="0.25" stroke="none"/>
<circle clip-path="url(#clip752)" cx="457.759" cy="1375.62" r="14" fill="#000000" fill-rule="evenodd" fill-opacity="0.25" stroke="none"/>
<circle clip-path="url(#clip752)" cx="476.614" cy="1362.4" r="14" fill="#000000" fill-rule="evenodd" fill-opacity="0.25" stroke="none"/>
<circle clip-path="url(#clip752)" cx="490.174" cy="1342.78" r="14" fill="#000000" fill-rule="evenodd" fill-opacity="0.25" stroke="none"/>
<circle clip-path="url(#clip752)" cx="503.756" cy="1321.65" r="14" fill="#000000" fill-rule="evenodd" fill-opacity="0.25" stroke="none"/>
<circle clip-path="url(#clip752)" cx="517.339" cy="1302.62" r="14" fill="#000000" fill-rule="evenodd" fill-opacity="0.25" stroke="none"/>
<circle clip-path="url(#clip752)" cx="530.898" cy="1280.42" r="14" fill="#000000" fill-rule="evenodd" fill-opacity="0.25" stroke="none"/>
<circle clip-path="url(#clip752)" cx="544.505" cy="1254.07" r="14" fill="#000000" fill-rule="evenodd" fill-opacity="0.25" stroke="none"/>
<circle clip-path="url(#clip752)" cx="558.088" cy="1224.05" r="14" fill="#000000" fill-rule="evenodd" fill-opacity="0.25" stroke="none"/>
<circle clip-path="url(#clip752)" cx="571.67" cy="1197.58" r="14" fill="#000000" fill-rule="evenodd" fill-opacity="0.25" stroke="none"/>
<circle clip-path="url(#clip752)" cx="585.277" cy="1169.37" r="14" fill="#000000" fill-rule="evenodd" fill-opacity="0.25" stroke="none"/>
<circle clip-path="url(#clip752)" cx="598.859" cy="1153.36" r="14" fill="#000000" fill-rule="evenodd" fill-opacity="0.25" stroke="none"/>
<circle clip-path="url(#clip752)" cx="612.489" cy="1132.45" r="14" fill="#000000" fill-rule="evenodd" fill-opacity="0.25" stroke="none"/>
<circle clip-path="url(#clip752)" cx="626.072" cy="1106.84" r="14" fill="#000000" fill-rule="evenodd" fill-opacity="0.25" stroke="none"/>
<circle clip-path="url(#clip752)" cx="639.655" cy="1091.38" r="14" fill="#000000" fill-rule="evenodd" fill-opacity="0.25" stroke="none"/>
<circle clip-path="url(#clip752)" cx="655.309" cy="1071.77" r="14" fill="#000000" fill-rule="evenodd" fill-opacity="0.25" stroke="none"/>
<circle clip-path="url(#clip752)" cx="675.931" cy="1042.42" r="14" fill="#000000" fill-rule="evenodd" fill-opacity="0.25" stroke="none"/>
<circle clip-path="url(#clip752)" cx="696.575" cy="1016.39" r="14" fill="#000000" fill-rule="evenodd" fill-opacity="0.25" stroke="none"/>
<circle clip-path="url(#clip752)" cx="717.22" cy="990.466" r="14" fill="#000000" fill-rule="evenodd" fill-opacity="0.25" stroke="none"/>
<circle clip-path="url(#clip752)" cx="737.865" cy="967.355" r="14" fill="#000000" fill-rule="evenodd" fill-opacity="0.25" stroke="none"/>
<circle clip-path="url(#clip752)" cx="758.534" cy="943.703" r="14" fill="#000000" fill-rule="evenodd" fill-opacity="0.25" stroke="none"/>
<circle clip-path="url(#clip752)" cx="779.178" cy="923.324" r="14" fill="#000000" fill-rule="evenodd" fill-opacity="0.25" stroke="none"/>
<circle clip-path="url(#clip752)" cx="799.894" cy="901.072" r="14" fill="#000000" fill-rule="evenodd" fill-opacity="0.25" stroke="none"/>
<circle clip-path="url(#clip752)" cx="820.539" cy="880.453" r="14" fill="#000000" fill-rule="evenodd" fill-opacity="0.25" stroke="none"/>
<circle clip-path="url(#clip752)" cx="841.16" cy="860.286" r="14" fill="#000000" fill-rule="evenodd" fill-opacity="0.25" stroke="none"/>
<circle clip-path="url(#clip752)" cx="861.805" cy="841.35" r="14" fill="#000000" fill-rule="evenodd" fill-opacity="0.25" stroke="none"/>
<circle clip-path="url(#clip752)" cx="882.426" cy="825.944" r="14" fill="#000000" fill-rule="evenodd" fill-opacity="0.25" stroke="none"/>
<circle clip-path="url(#clip752)" cx="903.071" cy="803.379" r="14" fill="#000000" fill-rule="evenodd" fill-opacity="0.25" stroke="none"/>
<circle clip-path="url(#clip752)" cx="923.693" cy="783.707" r="14" fill="#000000" fill-rule="evenodd" fill-opacity="0.25" stroke="none"/>
<circle clip-path="url(#clip752)" cx="944.385" cy="768.65" r="14" fill="#000000" fill-rule="evenodd" fill-opacity="0.25" stroke="none"/>
<circle clip-path="url(#clip752)" cx="965.006" cy="742.85" r="14" fill="#000000" fill-rule="evenodd" fill-opacity="0.25" stroke="none"/>
<circle clip-path="url(#clip752)" cx="985.627" cy="734.993" r="14" fill="#000000" fill-rule="evenodd" fill-opacity="0.25" stroke="none"/>
<circle clip-path="url(#clip752)" cx="1006.2" cy="713.099" r="14" fill="#000000" fill-rule="evenodd" fill-opacity="0.25" stroke="none"/>
<circle clip-path="url(#clip752)" cx="1026.82" cy="697.283" r="14" fill="#000000" fill-rule="evenodd" fill-opacity="0.25" stroke="none"/>
<circle clip-path="url(#clip752)" cx="1047.47" cy="684.241" r="14" fill="#000000" fill-rule="evenodd" fill-opacity="0.25" stroke="none"/>
<circle clip-path="url(#clip752)" cx="1068.09" cy="667.847" r="14" fill="#000000" fill-rule="evenodd" fill-opacity="0.25" stroke="none"/>
<circle clip-path="url(#clip752)" cx="1088.71" cy="652.125" r="14" fill="#000000" fill-rule="evenodd" fill-opacity="0.25" stroke="none"/>
<circle clip-path="url(#clip752)" cx="1109.36" cy="631.757" r="14" fill="#000000" fill-rule="evenodd" fill-opacity="0.25" stroke="none"/>
<circle clip-path="url(#clip752)" cx="1130.05" cy="616.342" r="14" fill="#000000" fill-rule="evenodd" fill-opacity="0.25" stroke="none"/>
<circle clip-path="url(#clip752)" cx="1150.74" cy="606.166" r="14" fill="#000000" fill-rule="evenodd" fill-opacity="0.25" stroke="none"/>
<circle clip-path="url(#clip752)" cx="1171.38" cy="593.082" r="14" fill="#000000" fill-rule="evenodd" fill-opacity="0.25" stroke="none"/>
<circle clip-path="url(#clip752)" cx="1192.01" cy="575.858" r="14" fill="#000000" fill-rule="evenodd" fill-opacity="0.25" stroke="none"/>
<circle clip-path="url(#clip752)" cx="1212.65" cy="563.935" r="14" fill="#000000" fill-rule="evenodd" fill-opacity="0.25" stroke="none"/>
<circle clip-path="url(#clip752)" cx="1232.8" cy="544.684" r="14" fill="#000000" fill-rule="evenodd" fill-opacity="0.25" stroke="none"/>
<circle clip-path="url(#clip752)" cx="1253.45" cy="533.108" r="14" fill="#000000" fill-rule="evenodd" fill-opacity="0.25" stroke="none"/>
<circle clip-path="url(#clip752)" cx="1274.09" cy="521.996" r="14" fill="#000000" fill-rule="evenodd" fill-opacity="0.25" stroke="none"/>
<circle clip-path="url(#clip752)" cx="1294.76" cy="505.404" r="14" fill="#000000" fill-rule="evenodd" fill-opacity="0.25" stroke="none"/>
<circle clip-path="url(#clip752)" cx="1315.47" cy="491.866" r="14" fill="#000000" fill-rule="evenodd" fill-opacity="0.25" stroke="none"/>
<circle clip-path="url(#clip752)" cx="1336.14" cy="484.268" r="14" fill="#000000" fill-rule="evenodd" fill-opacity="0.25" stroke="none"/>
<circle clip-path="url(#clip752)" cx="1356.81" cy="470.887" r="14" fill="#000000" fill-rule="evenodd" fill-opacity="0.25" stroke="none"/>
<circle clip-path="url(#clip752)" cx="1377.48" cy="458.907" r="14" fill="#000000" fill-rule="evenodd" fill-opacity="0.25" stroke="none"/>
<circle clip-path="url(#clip752)" cx="1398.15" cy="443.365" r="14" fill="#000000" fill-rule="evenodd" fill-opacity="0.25" stroke="none"/>
<circle clip-path="url(#clip752)" cx="1418.84" cy="428.926" r="14" fill="#000000" fill-rule="evenodd" fill-opacity="0.25" stroke="none"/>
<circle clip-path="url(#clip752)" cx="1439.48" cy="417.08" r="14" fill="#000000" fill-rule="evenodd" fill-opacity="0.25" stroke="none"/>
<circle clip-path="url(#clip752)" cx="1460.18" cy="415.154" r="14" fill="#000000" fill-rule="evenodd" fill-opacity="0.25" stroke="none"/>
<circle clip-path="url(#clip752)" cx="1480.87" cy="400.775" r="14" fill="#000000" fill-rule="evenodd" fill-opacity="0.25" stroke="none"/>
<circle clip-path="url(#clip752)" cx="1501.56" cy="390.718" r="14" fill="#000000" fill-rule="evenodd" fill-opacity="0.25" stroke="none"/>
<circle clip-path="url(#clip752)" cx="1522.3" cy="371.869" r="14" fill="#000000" fill-rule="evenodd" fill-opacity="0.25" stroke="none"/>
<circle clip-path="url(#clip752)" cx="1542.99" cy="367.041" r="14" fill="#000000" fill-rule="evenodd" fill-opacity="0.25" stroke="none"/>
<circle clip-path="url(#clip752)" cx="1563.66" cy="358.432" r="14" fill="#000000" fill-rule="evenodd" fill-opacity="0.25" stroke="none"/>
<circle clip-path="url(#clip752)" cx="1584.35" cy="341.997" r="14" fill="#000000" fill-rule="evenodd" fill-opacity="0.25" stroke="none"/>
<circle clip-path="url(#clip752)" cx="1605.02" cy="334.512" r="14" fill="#000000" fill-rule="evenodd" fill-opacity="0.25" stroke="none"/>
<circle clip-path="url(#clip752)" cx="1625.69" cy="326.762" r="14" fill="#000000" fill-rule="evenodd" fill-opacity="0.25" stroke="none"/>
<circle clip-path="url(#clip752)" cx="1646.36" cy="322.307" r="14" fill="#000000" fill-rule="evenodd" fill-opacity="0.25" stroke="none"/>
<circle clip-path="url(#clip752)" cx="1671.31" cy="326.317" r="14" fill="#000000" fill-rule="evenodd" fill-opacity="0.25" stroke="none"/>
<circle clip-path="url(#clip752)" cx="1698.31" cy="317.271" r="14" fill="#000000" fill-rule="evenodd" fill-opacity="0.25" stroke="none"/>
<circle clip-path="url(#clip752)" cx="1727.12" cy="309.679" r="14" fill="#000000" fill-rule="evenodd" fill-opacity="0.25" stroke="none"/>
<circle clip-path="url(#clip752)" cx="1755.91" cy="301.128" r="14" fill="#000000" fill-rule="evenodd" fill-opacity="0.25" stroke="none"/>
<circle clip-path="url(#clip752)" cx="1784.68" cy="279.404" r="14" fill="#000000" fill-rule="evenodd" fill-opacity="0.25" stroke="none"/>
<circle clip-path="url(#clip752)" cx="1813.45" cy="271.439" r="14" fill="#000000" fill-rule="evenodd" fill-opacity="0.25" stroke="none"/>
<circle clip-path="url(#clip752)" cx="1842.24" cy="260.673" r="14" fill="#000000" fill-rule="evenodd" fill-opacity="0.25" stroke="none"/>
<circle clip-path="url(#clip752)" cx="1871" cy="248.382" r="14" fill="#000000" fill-rule="evenodd" fill-opacity="0.25" stroke="none"/>
<circle clip-path="url(#clip752)" cx="1899.84" cy="235.023" r="14" fill="#000000" fill-rule="evenodd" fill-opacity="0.25" stroke="none"/>
<circle clip-path="url(#clip752)" cx="1928.61" cy="235.392" r="14" fill="#000000" fill-rule="evenodd" fill-opacity="0.25" stroke="none"/>
<circle clip-path="url(#clip752)" cx="1957.37" cy="212.637" r="14" fill="#000000" fill-rule="evenodd" fill-opacity="0.25" stroke="none"/>
<circle clip-path="url(#clip752)" cx="1986.16" cy="200.389" r="14" fill="#000000" fill-rule="evenodd" fill-opacity="0.25" stroke="none"/>
<circle clip-path="url(#clip752)" cx="2014.9" cy="181.705" r="14" fill="#000000" fill-rule="evenodd" fill-opacity="0.25" stroke="none"/>
<circle clip-path="url(#clip752)" cx="2043.67" cy="180.075" r="14" fill="#000000" fill-rule="evenodd" fill-opacity="0.25" stroke="none"/>
<circle clip-path="url(#clip752)" cx="2072.44" cy="176.455" r="14" fill="#000000" fill-rule="evenodd" fill-opacity="0.25" stroke="none"/>
<circle clip-path="url(#clip752)" cx="2101.2" cy="172.572" r="14" fill="#000000" fill-rule="evenodd" fill-opacity="0.25" stroke="none"/>
<circle clip-path="url(#clip752)" cx="2129.95" cy="167.173" r="14" fill="#000000" fill-rule="evenodd" fill-opacity="0.25" stroke="none"/>
<circle clip-path="url(#clip752)" cx="2158.76" cy="165.786" r="14" fill="#000000" fill-rule="evenodd" fill-opacity="0.25" stroke="none"/>
<circle clip-path="url(#clip752)" cx="2187.5" cy="139.372" r="14" fill="#000000" fill-rule="evenodd" fill-opacity="0.25" stroke="none"/>
<circle clip-path="url(#clip752)" cx="2216.29" cy="113.304" r="14" fill="#000000" fill-rule="evenodd" fill-opacity="0.25" stroke="none"/>
<circle clip-path="url(#clip752)" cx="2245.06" cy="107.123" r="14" fill="#000000" fill-rule="evenodd" fill-opacity="0.25" stroke="none"/>
<circle clip-path="url(#clip752)" cx="2273.83" cy="119.279" r="14" fill="#000000" fill-rule="evenodd" fill-opacity="0.25" stroke="none"/>
<polyline clip-path="url(#clip752)" style="stroke:#009af9; stroke-linecap:butt; stroke-linejoin:round; stroke-width:6; stroke-opacity:1; fill:none" points="
  234.125,1414.87 255.312,1413.45 276.498,1411.33 297.684,1408.29 318.871,1404.09 340.057,1398.51 361.243,1391.32 382.43,1382.31 403.616,1371.35 424.802,1358.33 
  445.988,1343.19 467.175,1325.95 488.361,1306.67 509.547,1285.49 530.734,1262.55 551.92,1238.05 573.106,1212.23 594.293,1185.31 615.479,1157.54 636.665,1129.15 
  657.852,1100.38 679.038,1071.44 700.224,1042.53 721.41,1013.82 742.597,985.481 763.783,957.629 784.969,930.379 806.156,903.816 827.342,878.011 848.528,853.015 
  869.715,828.864 890.901,805.575 912.087,783.155 933.273,761.602 954.46,740.906 975.646,721.049 996.832,702.007 1018.02,683.751 1039.21,666.244 1060.39,649.454 
  1081.58,633.347 1102.76,617.886 1123.95,603.035 1145.14,588.756 1166.32,575.009 1187.51,561.759 1208.7,548.973 1229.88,536.618 1251.07,524.663 1272.25,513.079 
  1293.44,501.834 1314.63,490.9 1335.81,480.25 1357,469.861 1378.19,459.712 1399.37,449.782 1420.56,440.05 1441.74,430.496 1462.93,421.104 1484.12,411.855 
  1505.3,402.734 1526.49,393.729 1547.68,384.827 1568.86,376.016 1590.05,367.284 1611.24,358.621 1632.42,350.016 1653.61,341.46 1674.79,332.945 1695.98,324.463 
  1717.17,316.008 1738.35,307.573 1759.54,299.153 1780.73,290.74 1801.91,282.33 1823.1,273.918 1844.28,265.499 1865.47,257.068 1886.66,248.624 1907.84,240.161 
  1929.03,231.676 1950.22,223.168 1971.4,214.631 1992.59,206.064 2013.78,197.464 2034.96,188.828 2056.15,180.155 2077.33,171.443 2098.52,162.69 2119.71,153.893 
  2140.89,145.052 2162.08,136.164 2183.27,127.229 2204.45,118.244 2225.64,109.208 2246.82,100.121 2268.01,90.9804 2289.2,81.7857 2310.38,72.536 2331.57,63.2301 
  2352.76,53.867 2373.94,44.4457 2395.13,34.9653 2416.31,25.4249 2437.5,15.8235 2458.69,6.16063 2479.87,-3.5646 2501.06,-13.3529 2522.25,-23.2049 2543.43,-33.1214 
  2564.62,-43.1031 2585.81,-53.1506 2606.99,-63.2648 2628.18,-73.4462 2649.36,-83.6955 2670.55,-94.0134 2691.74,-104.401 2712.92,-114.857 2734.11,-125.384 2755.3,-135.982 
  2776.48,-146.652 2797.67,-157.393 2818.85,-168.208 2840.04,-179.095 2861.23,-190.056 2882.41,-201.092 2903.6,-212.203 2924.79,-223.389 2945.97,-234.652 2967.16,-245.992 
  2988.35,-257.408 3009.53,-268.903 3030.72,-280.476 3051.9,-292.128 3073.09,-303.859 3094.28,-315.671 3115.46,-327.563 3136.65,-339.537 3157.84,-351.593 3179.02,-363.731 
  3200.21,-375.952 3221.39,-388.257 3242.58,-400.646 3263.77,-413.12 3284.95,-425.68 3306.14,-438.326 3327.33,-451.058 3348.51,-463.877 3369.7,-476.784 3390.88,-489.78 
  3412.07,-502.865 3433.26,-516.039 3454.44,-529.304 3475.63,-542.66 3496.82,-556.107 3518,-569.647 3539.19,-583.279 3560.38,-597.005 3581.56,-610.825 3602.75,-624.74 
  3623.93,-638.75 3645.12,-652.857 3666.31,-667.06 3687.49,-681.361 3708.68,-695.759 3729.87,-710.257 3751.05,-724.854 3772.24,-739.551 3793.42,-754.349 3814.61,-769.248 
  3835.8,-784.25 3856.98,-799.354 3878.17,-814.563 3899.36,-829.875 3920.54,-845.293 3941.73,-860.816 3962.92,-876.446 3984.1,-892.183 4005.29,-908.028 4026.47,-923.982 
  4047.66,-940.045 4068.85,-956.219 4090.03,-972.503 4111.22,-988.9 4132.41,-1005.41 4153.59,-1022.03 4174.78,-1038.77 4195.96,-1055.62 4217.15,-1072.58 4238.34,-1089.67 
  4259.52,-1106.87 4280.71,-1124.19 4301.9,-1141.62 4323.08,-1159.18 4344.27,-1176.86 4365.45,-1194.65 4386.64,-1212.57 4407.83,-1230.62 4429.01,-1248.79 4450.2,-1267.08 
  4471.39,-1285.5 4492.57,-1304.04 4513.76,-1322.71 4534.95,-1341.51 4556.13,-1360.44 4577.32,-1379.5 4598.5,-1398.68 4619.69,-1418.01 4640.88,-1437.46 4662.06,-1457.05 
  4683.25,-1476.77 4704.44,-1496.62 4725.62,-1516.62 4746.81,-1536.75 4767.99,-1557.01 4789.18,-1577.42 4810.37,-1597.97 4831.55,-1618.66 4852.74,-1639.49 4873.93,-1660.46 
  4895.11,-1681.58 4916.3,-1702.84 4937.49,-1724.24 4958.67,-1745.8 4979.86,-1767.5 5001.04,-1789.35 5022.23,-1811.35 5043.42,-1833.51 5064.6,-1855.81 5085.79,-1878.27 
  5106.98,-1900.88 5128.16,-1923.65 5149.35,-1946.57 5170.53,-1969.65 5191.72,-1992.89 5212.91,-2016.28 5234.09,-2039.84 5255.28,-2063.56 5276.47,-2087.45 5297.65,-2111.49 
  5318.84,-2135.71 5340.02,-2160.08 5361.21,-2184.63 5382.4,-2209.34 5403.58,-2234.23 5424.77,-2259.28 5445.96,-2284.51 5467.14,-2309.9 5488.33,-2335.48 5509.52,-2361.23 
  5530.7,-2387.15 5551.89,-2413.26 5573.07,-2439.54 5594.26,-2466 5615.45,-2492.65 5636.63,-2519.47 5657.82,-2546.48 5679.01,-2573.68 5700.19,-2601.06 5721.38,-2628.63 
  5742.56,-2656.39 5763.75,-2684.34 5784.94,-2712.49 5806.12,-2740.82 5827.31,-2769.35 5848.5,-2798.08 5869.68,-2827 5890.87,-2856.12 5912.06,-2885.44 5933.24,-2914.97 
  5954.43,-2944.69 5975.61,-2974.62 5996.8,-3004.76 6017.99,-3035.1 6039.17,-3065.65 6060.36,-3096.41 6081.55,-3127.38 6102.73,-3158.56 6123.92,-3189.95 6145.1,-3221.57 
  6166.29,-3253.4 6187.48,-3285.44 6208.66,-3317.71 6229.85,-3350.2 6251.04,-3382.91 6272.22,-3415.85 6293.41,-3449.01 6314.59,-3482.4 6335.78,-3516.02 6356.97,-3549.87 
  6378.15,-3583.95 6399.34,-3618.27 6420.53,-3652.82 6441.71,-3687.61 6462.9,-3722.64 6484.09,-3757.9 6505.27,-3793.41 6526.46,-3829.17 6547.64,-3865.16 6568.83,-3901.41 
  6590.02,-3937.9 6611.2,-3974.65 6632.39,-4011.64 6653.58,-4048.89 6674.76,-4086.4 6695.95,-4124.16 6717.13,-4162.18 6738.32,-4200.47 6759.51,-4239.01 6780.69,-4277.82 
  6801.88,-4316.9 6823.07,-4356.24 6844.25,-4395.86 6865.44,-4435.74 6886.63,-4475.9 6907.81,-4516.34 6929,-4557.05 6950.18,-4598.04 6971.37,-4639.32 6992.56,-4680.88 
  7013.74,-4722.72 7034.93,-4764.85 7056.12,-4807.27 7077.3,-4849.98 7098.49,-4892.98 7119.67,-4936.28 7140.86,-4979.87 7162.05,-5023.77 7183.23,-5067.96 7204.42,-5112.46 
  7225.61,-5157.26 7246.79,-5202.38 7267.98,-5247.8 7289.16,-5293.53 7310.35,-5339.58 7331.54,-5385.94 7352.72,-5432.63 7373.91,-5479.63 7395.1,-5526.95 7416.28,-5574.61 
  7437.47,-5622.58 7458.66,-5670.89 7479.84,-5719.53 7501.03,-5768.5 7522.21,-5817.81 7543.4,-5867.45 7564.59,-5917.44 7585.77,-5967.77 7606.96,-6018.44 7628.15,-6069.46 
  7649.33,-6120.83 7670.52,-6172.56 7691.7,-6224.63 7712.89,-6277.07 7734.08,-6329.86 7755.26,-6383.02 7776.45,-6436.54 7797.64,-6490.43 7818.82,-6544.68 7840.01,-6599.31 
  7861.2,-6654.32 7882.38,-6709.7 7903.57,-6765.46 7924.75,-6821.6 7945.94,-6878.13 7967.13,-6935.05 7988.31,-6992.36 8009.5,-7050.06 8030.69,-7108.16 8051.87,-7166.65 
  8073.06,-7225.55 8094.24,-7284.85 8115.43,-7344.56 8136.62,-7404.68 8157.8,-7465.21 8178.99,-7526.16 8200.18,-7587.52 8221.36,-7649.31 8242.55,-7711.53 8263.73,-7774.17 
  8284.92,-7837.24 8306.11,-7900.74 8327.29,-7964.68 8348.48,-8029.07 8369.67,-8093.89 8390.85,-8159.16 8412.04,-8224.88 8433.23,-8291.04 8454.41,-8357.67 8475.6,-8424.74 
  8496.78,-8492.28 8517.97,-8560.28 8539.16,-8628.75 8560.34,-8697.69 8581.53,-8767.09 8602.72,-8836.98 8623.9,-8907.34 8645.09,-8978.18 8666.27,-9049.51 8687.46,-9121.33 
  8708.65,-9193.64 8729.83,-9266.44 8751.02,-9339.75 8772.21,-9413.55 8793.39,-9487.86 8814.58,-9562.68 8835.77,-9638.02 8856.95,-9713.87 8878.14,-9790.24 8899.32,-9867.13 
  8920.51,-9944.55 8941.7,-10022.5 8962.88,-10101 8984.07,-10180 9005.26,-10259.6 9026.44,-10339.7 9047.63,-10420.4 9068.81,-10501.6 9090,-10583.4 9111.19,-10665.7 
  9132.37,-10748.6 9153.56,-10832.1 9174.75,-10916.2 9195.93,-11000.8 9217.12,-11086 9238.3,-11171.8 9259.49,-11258.2 9280.68,-11345.2 9301.86,-11432.8 9323.05,-11521 
  9344.24,-11609.8 9365.42,-11699.2 9386.61,-11789.2 9407.8,-11879.8 9428.98,-11971.1 9450.17,-12062.9 9471.35,-12155.4 9492.54,-12248.6 9513.73,-12342.3 9534.91,-12436.7 
  9556.1,-12531.8 9577.29,-12627.5 9598.47,-12723.9 9619.66,-12820.9 9640.84,-12918.6 9662.03,-13016.9 9683.22,-13116 9704.4,-13215.7 9725.59,-13316.1 9746.78,-13417.2 
  9767.96,-13519 9789.15,-13621.4 9810.34,-13724.6 9831.52,-13828.5 9852.71,-13933.1 9873.89,-14038.4 9895.08,-14144.5 9916.27,-14251.3 9937.45,-14358.8 9958.64,-14467 
  9979.83,-14576 10001,-14685.8 10022.2,-14796.3 10043.4,-14907.5 10064.6,-15019.6 10085.8,-15132.4 10106.9,-15245.9 10128.1,-15360.3 10149.3,-15475.4 10170.5,-15591.4 
  10191.7,-15708.1 10212.9,-15825.6 10234.1,-15943.9 10255.2,-16063 10276.4,-16183 10297.6,-16303.8 10318.8,-16425.4 10340,-16547.8 10361.2,-16671.1 10382.4,-16795.2 
  10403.6,-16920.1 10424.7,-17045.9 10445.9,-17172.6 10467.1,-17300.2 10488.3,-17428.6 10509.5,-17557.9 10530.7,-17688.1 10551.9,-17819.2 10573,-17951.2 10594.2,-18084.1 
  10615.4,-18217.9 10636.6,-18352.6 10657.8,-18488.2 10679,-18624.8 10700.2,-18762.4 10721.3,-18900.8 10742.5,-19040.2 10763.7,-19180.6 10784.9,-19322 10806.1,-19464.3 
  10827.3,-19607.6 10848.5,-19751.9 10869.7,-19897.1 10890.8,-20043.4 10912,-20190.7 10933.2,-20339 10954.4,-20488.3 10975.6,-20638.6 10996.8,-20789.9 11018,-20942.3 
  11039.1,-21095.7 11060.3,-21250.2 11081.5,-21405.7 11102.7,-21562.4 11123.9,-21720 11145.1,-21878.8 11166.3,-22038.6 11187.4,-22199.6 11208.6,-22361.6 11229.8,-22524.8 
  11251,-22689.1 11272.2,-22854.5 11293.4,-23021 11314.6,-23188.7 11335.7,-23357.5 11356.9,-23527.5 11378.1,-23698.7 11399.3,-23871 11420.5,-24044.5 11441.7,-24219.2 
  11462.9,-24395.1 11484.1,-24572.3 11505.2,-24750.6 11526.4,-24930.2 11547.6,-25111 11568.8,-25293 11590,-25476.3 11611.2,-25660.8 11632.4,-25846.7 11653.5,-26033.8 
  11674.7,-26222.1 11695.9,-26411.8 11717.1,-26602.8 11738.3,-26795 11759.5,-26988.6 11780.7,-27183.5 11801.8,-27379.8 11823,-27577.4 11844.2,-27776.3 11865.4,-27976.7 
  11886.6,-28178.4 11907.8,-28381.4 11929,-28585.9 11950.2,-28791.8 11971.3,-28999 11992.5,-29207.7 12013.7,-29417.9 12034.9,-29629.5 12056.1,-29842.5 12077.3,-30057 
  12098.5,-30272.9 12119.6,-30490.4 12140.8,-30709.3 12162,-30929.8 12183.2,-31151.7 12204.4,-31375.2 12225.6,-31600.2 12246.8,-31826.8 12267.9,-32054.9 12289.1,-32284.6 
  12310.3,-32515.8 12331.5,-32748.7 12352.7,-32983.1 12373.9,-33219.2 12395.1,-33456.9 12416.3,-33696.2 12437.4,-33937.2 12458.6,-34179.8 12479.8,-34424 12501,-34670 
  12522.2,-34917.6 12543.4,-35166.9 12564.6,-35418 12585.7,-35670.7 12606.9,-35925.2 12628.1,-36181.5 12649.3,-36439.4 12670.5,-36699.2 12691.7,-36960.8 12712.9,-37224.1 
  12734,-37489.2 12755.2,-37756.2 12776.4,-38025 12797.6,-38295.6 12818.8,-38568.1 12840,-38842.5 12861.2,-39118.7 12882.3,-39396.8 12903.5,-39676.9 12924.7,-39958.9 
  12945.9,-40242.8 12967.1,-40528.6 12988.3,-40816.4 13009.5,-41106.2 13030.7,-41398 13051.8,-41691.8 13073,-41987.7 13094.2,-42285.5 13115.4,-42585.4 13136.6,-42887.4 
  13157.8,-43191.4 13179,-43497.5 13200.1,-43805.7 13221.3,-44116 13242.5,-44428.5 13263.7,-44743.1 13284.9,-45059.8 13306.1,-45378.8 13327.3,-45699.9 13348.4,-46023.2 
  13369.6,-46348.7 13390.8,-46676.5 13412,-47006.5 13433.2,-47338.8 13454.4,-47673.3 13475.6,-48010.2 13496.8,-48349.3 13517.9,-48690.8 13539.1,-49034.6 13560.3,-49380.8 
  13581.5,-49729.4 13602.7,-50080.3 13623.9,-50433.7 13645.1,-50789.4 13666.2,-51147.6 13687.4,-51508.3 13708.6,-51871.5 13729.8,-52237.1 13751,-52605.3 13772.2,-52976 
  13793.4,-53349.2 13814.5,-53725 13835.7,-54103.4 13856.9,-54484.4 13878.1,-54868 13899.3,-55254.2 13920.5,-55643.1 13941.7,-56034.6 13962.9,-56428.9 13984,-56825.8 
  14005.2,-57225.5 14026.4,-57627.9 14047.6,-58033.1 14068.8,-58441.1 14090,-58851.8 14111.2,-59265.4 14132.3,-59681.8 14153.5,-60101.1 14174.7,-60523.2 14195.9,-60948.2 
  14217.1,-61376.2 14238.3,-61807 14259.5,-62240.9 14280.6,-62677.7 14301.8,-63117.5 14323,-63560.3 14344.2,-64006.1 14365.4,-64455 14386.6,-64907 14407.8,-65362.1 
  14428.9,-65820.3 14450.1,-66281.7 14471.3,-66746.2 14492.5,-67213.9 14513.7,-67684.8 14534.9,-68159 14556.1,-68636.4 14577.3,-69117 14598.4,-69601 14619.6,-70088.3 
  14640.8,-70579 14662,-71073 14683.2,-71570.5 14704.4,-72071.3 14725.6,-72575.6 14746.7,-73083.3 14767.9,-73594.5 14789.1,-74109.3 14810.3,-74627.5 14831.5,-75149.4 
  14852.7,-75674.7 14873.9,-76203.7 14895,-76736.4 14916.2,-77272.7 14937.4,-77812.6 14958.6,-78356.3 14979.8,-78903.7 15001,-79454.8 15022.2,-80009.8 15043.4,-80568.5 
  15064.5,-81131.1 
  "/>
<polyline clip-path="url(#clip752)" style="stroke:#e26f46; stroke-linecap:butt; stroke-linejoin:round; stroke-width:6; stroke-opacity:1; fill:none" points="
  234.125,1414.87 255.312,1413.81 276.498,1412.32 297.684,1410.29 318.871,1407.58 340.057,1404.05 361.243,1399.54 382.43,1393.88 403.616,1386.91 424.802,1378.49 
  445.988,1368.46 467.175,1356.73 488.361,1343.19 509.547,1327.78 530.734,1310.49 551.92,1291.33 573.106,1270.33 594.293,1247.6 615.479,1223.24 636.665,1197.4 
  657.852,1170.23 679.038,1141.94 700.224,1112.69 721.41,1082.71 742.597,1052.18 763.783,1021.3 784.969,990.258 806.156,959.227 827.342,928.37 848.528,897.833 
  869.715,867.745 890.901,838.22 912.087,809.357 933.273,781.235 954.46,753.921 975.646,727.466 996.832,701.912 1018.02,677.288 1039.21,653.61 1060.39,630.887 
  1081.58,609.119 1102.76,588.3 1123.95,568.418 1145.14,549.457 1166.32,531.399 1187.51,514.222 1208.7,497.898 1229.88,482.397 1251.07,467.691 1272.25,453.751 
  1293.44,440.547 1314.63,428.048 1335.81,416.224 1357,405.046 1378.19,394.483 1399.37,384.506 1420.56,375.085 1441.74,366.192 1462.93,357.802 1484.12,349.888 
  1505.3,342.427 1526.49,335.394 1547.68,328.768 1568.86,322.526 1590.05,316.647 1611.24,311.11 1632.42,305.896 1653.61,300.986 1674.79,296.365 1695.98,292.015 
  1717.17,287.923 1738.35,284.073 1759.54,280.452 1780.73,277.046 1801.91,273.843 1823.1,270.831 1844.28,267.998 1865.47,265.334 1886.66,262.828 1907.84,260.471 
  1929.03,258.256 1950.22,256.175 1971.4,254.218 1992.59,252.379 2013.78,250.652 2034.96,249.028 2056.15,247.502 2077.33,246.068 2098.52,244.72 2119.71,243.452 
  2140.89,242.261 2162.08,241.142 2183.27,240.09 2204.45,239.102 2225.64,238.175 2246.82,237.303 2268.01,236.485 2289.2,235.716 2310.38,234.993 2331.57,234.314 
  2352.76,233.676 2373.94,233.076 2395.13,232.513 2416.31,231.983 2437.5,231.486 2458.69,231.019 2479.87,230.581 2501.06,230.169 2522.25,229.782 2543.43,229.419 
  2564.62,229.078 2585.81,228.758 2606.99,228.456 2628.18,228.173 2649.36,227.907 2670.55,227.657 2691.74,227.423 2712.92,227.202 2734.11,226.995 2755.3,226.801 
  2776.48,226.619 2797.67,226.447 2818.85,226.287 2840.04,226.136 2861.23,225.994 2882.41,225.86 2903.6,225.735 2924.79,225.617 2945.97,225.506 2967.16,225.402 
  2988.35,225.305 3009.53,225.213 3030.72,225.127 3051.9,225.046 3073.09,224.97 3094.28,224.899 3115.46,224.832 3136.65,224.769 3157.84,224.71 3179.02,224.655 
  3200.21,224.603 3221.39,224.554 3242.58,224.508 3263.77,224.464 3284.95,224.424 3306.14,224.386 3327.33,224.35 3348.51,224.316 3369.7,224.285 3390.88,224.255 
  3412.07,224.228 3433.26,224.201 3454.44,224.177 3475.63,224.154 3496.82,224.132 3518,224.112 3539.19,224.093 3560.38,224.075 3581.56,224.058 3602.75,224.042 
  3623.93,224.027 3645.12,224.013 3666.31,224 3687.49,223.988 3708.68,223.976 3729.87,223.965 3751.05,223.955 3772.24,223.946 3793.42,223.937 3814.61,223.928 
  3835.8,223.92 3856.98,223.913 3878.17,223.906 3899.36,223.899 3920.54,223.893 3941.73,223.887 3962.92,223.882 3984.1,223.876 4005.29,223.872 4026.47,223.867 
  4047.66,223.863 4068.85,223.859 4090.03,223.855 4111.22,223.852 4132.41,223.848 4153.59,223.845 4174.78,223.842 4195.96,223.84 4217.15,223.837 4238.34,223.835 
  4259.52,223.832 4280.71,223.83 4301.9,223.828 4323.08,223.826 4344.27,223.825 4365.45,223.823 4386.64,223.821 4407.83,223.82 4429.01,223.819 4450.2,223.817 
  4471.39,223.816 4492.57,223.815 4513.76,223.814 4534.95,223.813 4556.13,223.812 4577.32,223.811 4598.5,223.81 4619.69,223.809 4640.88,223.809 4662.06,223.808 
  4683.25,223.807 4704.44,223.807 4725.62,223.806 4746.81,223.806 4767.99,223.805 4789.18,223.805 4810.37,223.804 4831.55,223.804 4852.74,223.803 4873.93,223.803 
  4895.11,223.803 4916.3,223.802 4937.49,223.802 4958.67,223.802 4979.86,223.801 5001.04,223.801 5022.23,223.801 5043.42,223.801 5064.6,223.801 5085.79,223.8 
  5106.98,223.8 5128.16,223.8 5149.35,223.8 5170.53,223.8 5191.72,223.8 5212.91,223.8 5234.09,223.799 5255.28,223.799 5276.47,223.799 5297.65,223.799 
  5318.84,223.799 5340.02,223.799 5361.21,223.799 5382.4,223.799 5403.58,223.799 5424.77,223.798 5445.96,223.798 5467.14,223.798 5488.33,223.798 5509.52,223.798 
  5530.7,223.798 5551.89,223.798 5573.07,223.798 5594.26,223.798 5615.45,223.798 5636.63,223.798 5657.82,223.798 5679.01,223.798 5700.19,223.798 5721.38,223.798 
  5742.56,223.798 5763.75,223.798 5784.94,223.798 5806.12,223.798 5827.31,223.798 5848.5,223.798 5869.68,223.798 5890.87,223.798 5912.06,223.798 5933.24,223.798 
  5954.43,223.798 5975.61,223.798 5996.8,223.798 6017.99,223.798 6039.17,223.798 6060.36,223.798 6081.55,223.798 6102.73,223.798 6123.92,223.798 6145.1,223.797 
  6166.29,223.797 6187.48,223.797 6208.66,223.797 6229.85,223.797 6251.04,223.797 6272.22,223.797 6293.41,223.797 6314.59,223.797 6335.78,223.797 6356.97,223.797 
  6378.15,223.797 6399.34,223.797 6420.53,223.797 6441.71,223.797 6462.9,223.797 6484.09,223.797 6505.27,223.797 6526.46,223.797 6547.64,223.797 6568.83,223.797 
  6590.02,223.797 6611.2,223.797 6632.39,223.797 6653.58,223.797 6674.76,223.797 6695.95,223.797 6717.13,223.797 6738.32,223.797 6759.51,223.797 6780.69,223.797 
  6801.88,223.797 6823.07,223.797 6844.25,223.797 6865.44,223.797 6886.63,223.797 6907.81,223.797 6929,223.797 6950.18,223.797 6971.37,223.797 6992.56,223.797 
  7013.74,223.797 7034.93,223.797 7056.12,223.797 7077.3,223.797 7098.49,223.797 7119.67,223.797 7140.86,223.797 7162.05,223.797 7183.23,223.797 7204.42,223.797 
  7225.61,223.797 7246.79,223.797 7267.98,223.797 7289.16,223.797 7310.35,223.797 7331.54,223.797 7352.72,223.797 7373.91,223.797 7395.1,223.797 7416.28,223.797 
  7437.47,223.797 7458.66,223.797 7479.84,223.797 7501.03,223.797 7522.21,223.797 7543.4,223.797 7564.59,223.797 7585.77,223.797 7606.96,223.797 7628.15,223.797 
  7649.33,223.797 7670.52,223.797 7691.7,223.797 7712.89,223.797 7734.08,223.797 7755.26,223.797 7776.45,223.797 7797.64,223.797 7818.82,223.797 7840.01,223.797 
  7861.2,223.797 7882.38,223.797 7903.57,223.797 7924.75,223.797 7945.94,223.797 7967.13,223.797 7988.31,223.797 8009.5,223.797 8030.69,223.797 8051.87,223.797 
  8073.06,223.797 8094.24,223.797 8115.43,223.797 8136.62,223.797 8157.8,223.797 8178.99,223.797 8200.18,223.797 8221.36,223.797 8242.55,223.797 8263.73,223.797 
  8284.92,223.797 8306.11,223.797 8327.29,223.797 8348.48,223.797 8369.67,223.797 8390.85,223.797 8412.04,223.797 8433.23,223.797 8454.41,223.797 8475.6,223.797 
  8496.78,223.797 8517.97,223.797 8539.16,223.797 8560.34,223.797 8581.53,223.797 8602.72,223.797 8623.9,223.797 8645.09,223.797 8666.27,223.797 8687.46,223.797 
  8708.65,223.797 8729.83,223.797 8751.02,223.797 8772.21,223.797 8793.39,223.797 8814.58,223.797 8835.77,223.797 8856.95,223.797 8878.14,223.797 8899.32,223.797 
  8920.51,223.797 8941.7,223.797 8962.88,223.797 8984.07,223.797 9005.26,223.797 9026.44,223.797 9047.63,223.797 9068.81,223.797 9090,223.797 9111.19,223.797 
  9132.37,223.797 9153.56,223.797 9174.75,223.797 9195.93,223.797 9217.12,223.797 9238.3,223.797 9259.49,223.797 9280.68,223.797 9301.86,223.797 9323.05,223.797 
  9344.24,223.797 9365.42,223.797 9386.61,223.797 9407.8,223.797 9428.98,223.797 9450.17,223.797 9471.35,223.797 9492.54,223.797 9513.73,223.797 9534.91,223.797 
  9556.1,223.797 9577.29,223.797 9598.47,223.797 9619.66,223.797 9640.84,223.797 9662.03,223.797 9683.22,223.797 9704.4,223.797 9725.59,223.797 9746.78,223.797 
  9767.96,223.797 9789.15,223.797 9810.34,223.797 9831.52,223.797 9852.71,223.797 9873.89,223.797 9895.08,223.797 9916.27,223.797 9937.45,223.797 9958.64,223.797 
  9979.83,223.797 10001,223.797 10022.2,223.797 10043.4,223.797 10064.6,223.797 10085.8,223.797 10106.9,223.797 10128.1,223.797 10149.3,223.797 10170.5,223.797 
  10191.7,223.797 10212.9,223.797 10234.1,223.797 10255.2,223.797 10276.4,223.797 10297.6,223.797 10318.8,223.797 10340,223.797 10361.2,223.797 10382.4,223.798 
  10403.6,223.798 10424.7,223.798 10445.9,223.798 10467.1,223.798 10488.3,223.798 10509.5,223.798 10530.7,223.798 10551.9,223.798 10573,223.798 10594.2,223.798 
  10615.4,223.798 10636.6,223.798 10657.8,223.798 10679,223.798 10700.2,223.798 10721.3,223.798 10742.5,223.798 10763.7,223.798 10784.9,223.798 10806.1,223.798 
  10827.3,223.798 10848.5,223.798 10869.7,223.798 10890.8,223.798 10912,223.798 10933.2,223.797 10954.4,223.797 10975.6,223.797 10996.8,223.797 11018,223.797 
  11039.1,223.797 11060.3,223.796 11081.5,223.796 11102.7,223.796 11123.9,223.796 11145.1,223.796 11166.3,223.796 11187.4,223.795 11208.6,223.795 11229.8,223.795 
  11251,223.795 11272.2,223.795 11293.4,223.795 11314.6,223.795 11335.7,223.795 11356.9,223.795 11378.1,223.795 11399.3,223.795 11420.5,223.795 11441.7,223.795 
  11462.9,223.795 11484.1,223.795 11505.2,223.795 11526.4,223.795 11547.6,223.795 11568.8,223.795 11590,223.795 11611.2,223.795 11632.4,223.796 11653.5,223.796 
  11674.7,223.796 11695.9,223.796 11717.1,223.796 11738.3,223.796 11759.5,223.797 11780.7,223.797 11801.8,223.797 11823,223.797 11844.2,223.798 11865.4,223.798 
  11886.6,223.798 11907.8,223.798 11929,223.799 11950.2,223.799 11971.3,223.799 11992.5,223.799 12013.7,223.799 12034.9,223.8 12056.1,223.8 12077.3,223.8 
  12098.5,223.8 12119.6,223.8 12140.8,223.8 12162,223.8 12183.2,223.8 12204.4,223.8 12225.6,223.8 12246.8,223.8 12267.9,223.8 12289.1,223.8 
  12310.3,223.799 12331.5,223.799 12352.7,223.799 12373.9,223.798 12395.1,223.798 12416.3,223.798 12437.4,223.797 12458.6,223.797 12479.8,223.797 12501,223.796 
  12522.2,223.796 12543.4,223.795 12564.6,223.795 12585.7,223.795 12606.9,223.794 12628.1,223.794 12649.3,223.794 12670.5,223.794 12691.7,223.793 12712.9,223.793 
  12734,223.793 12755.2,223.793 12776.4,223.793 12797.6,223.793 12818.8,223.793 12840,223.793 12861.2,223.793 12882.3,223.793 12903.5,223.793 12924.7,223.793 
  12945.9,223.793 12967.1,223.794 12988.3,223.794 13009.5,223.794 13030.7,223.795 13051.8,223.795 13073,223.795 13094.2,223.796 13115.4,223.796 13136.6,223.797 
  13157.8,223.797 13179,223.797 13200.1,223.798 13221.3,223.798 13242.5,223.799 13263.7,223.799 13284.9,223.8 13306.1,223.8 13327.3,223.801 13348.4,223.801 
  13369.6,223.801 13390.8,223.802 13412,223.802 13433.2,223.802 13454.4,223.802 13475.6,223.802 13496.8,223.802 13517.9,223.802 13539.1,223.802 13560.3,223.802 
  13581.5,223.801 13602.7,223.801 13623.9,223.801 13645.1,223.8 13666.2,223.8 13687.4,223.799 13708.6,223.799 13729.8,223.798 13751,223.798 13772.2,223.797 
  13793.4,223.797 13814.5,223.797 13835.7,223.796 13856.9,223.796 13878.1,223.795 13899.3,223.795 13920.5,223.795 13941.7,223.794 13962.9,223.794 13984,223.794 
  14005.2,223.794 14026.4,223.794 14047.6,223.794 14068.8,223.794 14090,223.794 14111.2,223.794 14132.3,223.794 14153.5,223.794 14174.7,223.794 14195.9,223.794 
  14217.1,223.794 14238.3,223.795 14259.5,223.795 14280.6,223.795 14301.8,223.796 14323,223.796 14344.2,223.797 14365.4,223.797 14386.6,223.797 14407.8,223.798 
  14428.9,223.798 14450.1,223.799 14471.3,223.799 14492.5,223.8 14513.7,223.8 14534.9,223.801 14556.1,223.801 14577.3,223.801 14598.4,223.801 14619.6,223.802 
  14640.8,223.802 14662,223.802 14683.2,223.802 14704.4,223.802 14725.6,223.802 14746.7,223.801 14767.9,223.801 14789.1,223.801 14810.3,223.801 14831.5,223.8 
  14852.7,223.8 14873.9,223.8 14895,223.8 14916.2,223.8 14937.4,223.8 14958.6,223.8 14979.8,223.799 15001,223.799 15022.2,223.799 15043.4,223.799 
  15064.5,223.799 
  "/>
<polyline clip-path="url(#clip752)" style="stroke:#3da44d; stroke-linecap:butt; stroke-linejoin:round; stroke-width:6; stroke-opacity:1; fill:none" points="
  234.125,1414.87 255.312,1414.2 276.498,1413.24 297.684,1411.89 318.871,1410.01 340.057,1407.39 361.243,1403.75 382.43,1398.68 403.616,1391.64 424.802,1381.84 
  445.988,1368.2 467.175,1349.21 488.361,1321.63 509.547,1289.49 530.734,1257.93 551.92,1227.09 573.106,1196.95 594.293,1167.51 615.479,1138.75 636.665,1110.65 
  657.852,1083.21 679.038,1056.42 700.224,1030.25 721.41,1004.69 742.597,979.731 763.783,955.361 784.969,931.565 806.156,908.33 827.342,885.644 848.528,863.494 
  869.715,841.869 890.901,820.755 912.087,800.142 933.273,780.018 954.46,760.371 975.646,741.191 996.832,722.466 1018.02,704.186 1039.21,686.341 1060.39,668.92 
  1081.58,651.914 1102.76,635.312 1123.95,619.106 1145.14,603.286 1166.32,587.843 1187.51,572.769 1208.7,558.054 1229.88,543.689 1251.07,529.668 1272.25,515.981 
  1293.44,502.62 1314.63,489.579 1335.81,476.848 1357,464.422 1378.19,452.291 1399.37,440.45 1420.56,428.892 1441.74,417.61 1462.93,406.597 1484.12,395.848 
  1505.3,385.355 1526.49,375.114 1547.68,365.117 1568.86,355.36 1590.05,345.836 1611.24,336.539 1632.42,327.465 1653.61,318.608 1674.79,309.962 1695.98,301.524 
  1717.17,293.286 1738.35,285.246 1759.54,277.398 1780.73,269.737 1801.91,262.259 1823.1,254.959 1844.28,247.834 1865.47,240.879 1886.66,234.09 1907.84,227.464 
  1929.03,220.997 1950.22,214.685 1971.4,208.523 1992.59,202.51 2013.78,196.64 2034.96,190.911 2056.15,185.319 2077.33,179.861 2098.52,174.534 2119.71,169.334 
  2140.89,164.258 2162.08,159.304 2183.27,154.469 2204.45,149.748 2225.64,145.141 2246.82,140.643 2268.01,136.253 2289.2,131.967 2310.38,127.783 2331.57,123.699 
  2352.76,119.713 2373.94,115.821 2395.13,112.023 2416.31,108.316 2437.5,104.697 2458.69,101.165 2479.87,97.7173 2501.06,94.3525 2522.25,91.0683 2543.43,87.8629 
  2564.62,84.7343 2585.81,81.6808 2606.99,78.7003 2628.18,75.7913 2649.36,72.9519 2670.55,70.1805 2691.74,67.4753 2712.92,64.8348 2734.11,62.2573 2755.3,59.7414 
  2776.48,57.2853 2797.67,54.8878 2818.85,52.5473 2840.04,50.2625 2861.23,48.0319 2882.41,45.8541 2903.6,43.7278 2924.79,41.6519 2945.97,39.6253 2967.16,37.6469 
  2988.35,35.7155 3009.53,33.8303 3030.72,31.99 3051.9,30.1938 3073.09,28.4405 3094.28,26.7292 3115.46,25.0589 3136.65,23.4287 3157.84,21.8375 3179.02,20.2846 
  3200.21,18.7689 3221.39,17.2895 3242.58,15.8457 3263.77,14.4364 3284.95,13.061 3306.14,11.7184 3327.33,10.408 3348.51,9.1289 3369.7,7.88033 3390.88,6.66152 
  3412.07,5.47171 3433.26,4.31018 3454.44,3.1762 3475.63,2.06907 3496.82,0.988099 3518,-0.0673869 3539.19,-1.09804 3560.38,-2.10451 3581.56,-3.08744 3602.75,-4.04743 
  3623.93,-4.98495 3645.12,-5.90048 3666.31,-6.79447 3687.49,-7.66738 3708.68,-8.51965 3729.87,-9.35174 3751.05,-10.1641 3772.24,-10.9571 3793.42,-11.7312 3814.61,-12.4868 
  3835.8,-13.2244 3856.98,-13.9444 3878.17,-14.6471 3899.36,-15.3329 3920.54,-16.0023 3941.73,-16.6557 3962.92,-17.2933 3984.1,-17.9157 4005.29,-18.5231 4026.47,-19.1159 
  4047.66,-19.6945 4068.85,-20.2593 4090.03,-20.8105 4111.22,-21.3486 4132.41,-21.8739 4153.59,-22.3866 4174.78,-22.8872 4195.96,-23.3759 4217.15,-23.8531 4238.34,-24.319 
  4259.52,-24.774 4280.71,-25.2183 4301.9,-25.6524 4323.08,-26.0763 4344.27,-26.4905 4365.45,-26.8952 4386.64,-27.2907 4407.83,-27.6771 4429.01,-28.0548 4450.2,-28.424 
  4471.39,-28.7846 4492.57,-29.137 4513.76,-29.4813 4534.95,-29.8176 4556.13,-30.1461 4577.32,-30.4669 4598.5,-30.7802 4619.69,-31.0862 4640.88,-31.385 4662.06,-31.6767 
  4683.25,-31.9615 4704.44,-32.2395 4725.62,-32.511 4746.81,-32.7759 4767.99,-33.0345 4789.18,-33.287 4810.37,-33.5334 4831.55,-33.7738 4852.74,-34.0085 4873.93,-34.2376 
  4895.11,-34.4612 4916.3,-34.6793 4937.49,-34.8923 4958.67,-35.1001 4979.86,-35.303 5001.04,-35.5009 5022.23,-35.6942 5043.42,-35.8828 5064.6,-36.067 5085.79,-36.2468 
  5106.98,-36.4224 5128.16,-36.5938 5149.35,-36.7613 5170.53,-36.9249 5191.72,-37.0847 5212.91,-37.2408 5234.09,-37.3934 5255.28,-37.5425 5276.47,-37.6884 5297.65,-37.831 
  5318.84,-37.9705 5340.02,-38.107 5361.21,-38.2407 5382.4,-38.3715 5403.58,-38.4996 5424.77,-38.6249 5445.96,-38.7476 5467.14,-38.8676 5488.33,-38.985 5509.52,-39.0998 
  5530.7,-39.2121 5551.89,-39.3219 5573.07,-39.4293 5594.26,-39.5342 5615.45,-39.6368 5636.63,-39.7371 5657.82,-39.8351 5679.01,-39.9308 5700.19,-40.0243 5721.38,-40.1157 
  5742.56,-40.2049 5763.75,-40.2921 5784.94,-40.3772 5806.12,-40.4603 5827.31,-40.5414 5848.5,-40.6207 5869.68,-40.698 5890.87,-40.7735 5912.06,-40.8472 5933.24,-40.9191 
  5954.43,-40.9893 5975.61,-41.0578 5996.8,-41.1246 6017.99,-41.1899 6039.17,-41.2536 6060.36,-41.3157 6081.55,-41.3764 6102.73,-41.4356 6123.92,-41.4934 6145.1,-41.5499 
  6166.29,-41.605 6187.48,-41.6588 6208.66,-41.7113 6229.85,-41.7627 6251.04,-41.8129 6272.22,-41.8619 6293.41,-41.9099 6314.59,-41.9568 6335.78,-42.0026 6356.97,-42.0475 
  6378.15,-42.0915 6399.34,-42.1346 6420.53,-42.1768 6441.71,-42.2181 6462.9,-42.2587 6484.09,-42.2986 6505.27,-42.3377 6526.46,-42.3762 6547.64,-42.414 6568.83,-42.4512 
  6590.02,-42.4878 6611.2,-42.5237 6632.39,-42.559 6653.58,-42.5936 6674.76,-42.6276 6695.95,-42.6609 6717.13,-42.6936 6738.32,-42.7257 6759.51,-42.7571 6780.69,-42.7879 
  6801.88,-42.8181 6823.07,-42.8477 6844.25,-42.8767 6865.44,-42.9051 6886.63,-42.9329 6907.81,-42.9601 6929,-42.9868 6950.18,-43.0129 6971.37,-43.0384 6992.56,-43.0633 
  7013.74,-43.0878 7034.93,-43.1116 7056.12,-43.135 7077.3,-43.1578 7098.49,-43.1801 7119.67,-43.2019 7140.86,-43.2232 7162.05,-43.244 7183.23,-43.2643 7204.42,-43.2842 
  7225.61,-43.3035 7246.79,-43.3225 7267.98,-43.3409 7289.16,-43.359 7310.35,-43.3766 7331.54,-43.3938 7352.72,-43.4106 7373.91,-43.427 7395.1,-43.443 7416.28,-43.4586 
  7437.47,-43.4739 7458.66,-43.4888 7479.84,-43.5033 7501.03,-43.5176 7522.21,-43.5315 7543.4,-43.5451 7564.59,-43.5584 7585.77,-43.5714 7606.96,-43.5841 7628.15,-43.5966 
  7649.33,-43.6088 7670.52,-43.6208 7691.7,-43.6325 7712.89,-43.644 7734.08,-43.6554 7755.26,-43.6665 7776.45,-43.6775 7797.64,-43.6883 7818.82,-43.6989 7840.01,-43.7094 
  7861.2,-43.7198 7882.38,-43.7301 7903.57,-43.7403 7924.75,-43.7504 7945.94,-43.7604 7967.13,-43.7704 7988.31,-43.7804 8009.5,-43.7903 8030.69,-43.8001 8051.87,-43.8099 
  8073.06,-43.8195 8094.24,-43.829 8115.43,-43.8384 8136.62,-43.8477 8157.8,-43.8569 8178.99,-43.8659 8200.18,-43.8749 8221.36,-43.8837 8242.55,-43.8924 8263.73,-43.901 
  8284.92,-43.9094 8306.11,-43.9178 8327.29,-43.926 8348.48,-43.9341 8369.67,-43.9421 8390.85,-43.9499 8412.04,-43.9576 8433.23,-43.9652 8454.41,-43.9727 8475.6,-43.9801 
  8496.78,-43.9873 8517.97,-43.9944 8539.16,-44.0013 8560.34,-44.0082 8581.53,-44.0149 8602.72,-44.0215 8623.9,-44.0279 8645.09,-44.0343 8666.27,-44.0405 8687.46,-44.0466 
  8708.65,-44.0526 8729.83,-44.0584 8751.02,-44.0641 8772.21,-44.0698 8793.39,-44.0753 8814.58,-44.0806 8835.77,-44.0859 8856.95,-44.0911 8878.14,-44.0961 8899.32,-44.1011 
  8920.51,-44.1059 8941.7,-44.1106 8962.88,-44.1152 8984.07,-44.1198 9005.26,-44.1242 9026.44,-44.1285 9047.63,-44.1328 9068.81,-44.1369 9090,-44.141 9111.19,-44.1449 
  9132.37,-44.1488 9153.56,-44.1526 9174.75,-44.1564 9195.93,-44.16 9217.12,-44.1636 9238.3,-44.1671 9259.49,-44.1706 9280.68,-44.174 9301.86,-44.1773 9323.05,-44.1806 
  9344.24,-44.1839 9365.42,-44.1871 9386.61,-44.1902 9407.8,-44.1933 9428.98,-44.1964 9450.17,-44.1995 9471.35,-44.2025 9492.54,-44.2055 9513.73,-44.2086 9534.91,-44.2115 
  9556.1,-44.2145 9577.29,-44.2175 9598.47,-44.2205 9619.66,-44.2235 9640.84,-44.2265 9662.03,-44.2296 9683.22,-44.2326 9704.4,-44.2357 9725.59,-44.2389 9746.78,-44.2421 
  9767.96,-44.2453 9789.15,-44.2486 9810.34,-44.2519 9831.52,-44.2552 9852.71,-44.2585 9873.89,-44.2619 9895.08,-44.2652 9916.27,-44.2685 9937.45,-44.2718 9958.64,-44.2751 
  9979.83,-44.2784 10001,-44.2817 10022.2,-44.285 10043.4,-44.2882 10064.6,-44.2915 10085.8,-44.2947 10106.9,-44.2979 10128.1,-44.3011 10149.3,-44.3043 10170.5,-44.3074 
  10191.7,-44.3106 10212.9,-44.3137 10234.1,-44.3168 10255.2,-44.3198 10276.4,-44.3228 10297.6,-44.3258 10318.8,-44.3288 10340,-44.3317 10361.2,-44.3346 10382.4,-44.3375 
  10403.6,-44.3404 10424.7,-44.3432 10445.9,-44.346 10467.1,-44.3487 10488.3,-44.3514 10509.5,-44.3541 10530.7,-44.3567 10551.9,-44.3593 10573,-44.3619 10594.2,-44.3644 
  10615.4,-44.3669 10636.6,-44.3693 10657.8,-44.3717 10679,-44.3741 10700.2,-44.3765 10721.3,-44.3788 10742.5,-44.381 10763.7,-44.3832 10784.9,-44.3854 10806.1,-44.3876 
  10827.3,-44.3897 10848.5,-44.3917 10869.7,-44.3938 10890.8,-44.3958 10912,-44.3977 10933.2,-44.3996 10954.4,-44.4015 10975.6,-44.4034 10996.8,-44.4052 11018,-44.4069 
  11039.1,-44.4087 11060.3,-44.4104 11081.5,-44.4121 11102.7,-44.4137 11123.9,-44.4153 11145.1,-44.4169 11166.3,-44.4184 11187.4,-44.4199 11208.6,-44.4214 11229.8,-44.4229 
  11251,-44.4243 11272.2,-44.4257 11293.4,-44.4271 11314.6,-44.4285 11335.7,-44.4298 11356.9,-44.4312 11378.1,-44.4325 11399.3,-44.4337 11420.5,-44.435 11441.7,-44.4363 
  11462.9,-44.4375 11484.1,-44.4387 11505.2,-44.4399 11526.4,-44.4411 11547.6,-44.4423 11568.8,-44.4435 11590,-44.4447 11611.2,-44.4459 11632.4,-44.4471 11653.5,-44.4483 
  11674.7,-44.4495 11695.9,-44.4507 11717.1,-44.4519 11738.3,-44.4531 11759.5,-44.4543 11780.7,-44.4555 11801.8,-44.4568 11823,-44.4581 11844.2,-44.4594 11865.4,-44.4607 
  11886.6,-44.462 11907.8,-44.4634 11929,-44.4648 11950.2,-44.4662 11971.3,-44.4676 11992.5,-44.4691 12013.7,-44.4707 12034.9,-44.4723 12056.1,-44.4739 12077.3,-44.4755 
  12098.5,-44.4773 12119.6,-44.479 12140.8,-44.4808 12162,-44.4826 12183.2,-44.4844 12204.4,-44.4863 12225.6,-44.4881 12246.8,-44.49 12267.9,-44.4919 12289.1,-44.4938 
  12310.3,-44.4957 12331.5,-44.4977 12352.7,-44.4996 12373.9,-44.5016 12395.1,-44.5035 12416.3,-44.5055 12437.4,-44.5075 12458.6,-44.5095 12479.8,-44.5114 12501,-44.5134 
  12522.2,-44.5154 12543.4,-44.5174 12564.6,-44.5193 12585.7,-44.5213 12606.9,-44.5232 12628.1,-44.5252 12649.3,-44.5271 12670.5,-44.529 12691.7,-44.531 12712.9,-44.5329 
  12734,-44.5347 12755.2,-44.5366 12776.4,-44.5385 12797.6,-44.5403 12818.8,-44.5421 12840,-44.544 12861.2,-44.5457 12882.3,-44.5475 12903.5,-44.5493 12924.7,-44.551 
  12945.9,-44.5527 12967.1,-44.5544 12988.3,-44.556 13009.5,-44.5577 13030.7,-44.5593 13051.8,-44.5609 13073,-44.5624 13094.2,-44.564 13115.4,-44.5655 13136.6,-44.567 
  13157.8,-44.5684 13179,-44.5698 13200.1,-44.5712 13221.3,-44.5726 13242.5,-44.574 13263.7,-44.5753 13284.9,-44.5766 13306.1,-44.5778 13327.3,-44.579 13348.4,-44.5802 
  13369.6,-44.5814 13390.8,-44.5825 13412,-44.5837 13433.2,-44.5847 13454.4,-44.5858 13475.6,-44.5868 13496.8,-44.5878 13517.9,-44.5888 13539.1,-44.5897 13560.3,-44.5906 
  13581.5,-44.5915 13602.7,-44.5923 13623.9,-44.5931 13645.1,-44.5939 13666.2,-44.5947 13687.4,-44.5954 13708.6,-44.5962 13729.8,-44.5968 13751,-44.5975 13772.2,-44.5981 
  13793.4,-44.5988 13814.5,-44.5993 13835.7,-44.5999 13856.9,-44.6005 13878.1,-44.601 13899.3,-44.6015 13920.5,-44.602 13941.7,-44.6024 13962.9,-44.6029 13984,-44.6033 
  14005.2,-44.6037 14026.4,-44.6041 14047.6,-44.6044 14068.8,-44.6048 14090,-44.6052 14111.2,-44.6055 14132.3,-44.6058 14153.5,-44.6061 14174.7,-44.6064 14195.9,-44.6067 
  14217.1,-44.607 14238.3,-44.6073 14259.5,-44.6076 14280.6,-44.6078 14301.8,-44.6081 14323,-44.6084 14344.2,-44.6087 14365.4,-44.6089 14386.6,-44.6092 14407.8,-44.6095 
  14428.9,-44.6098 14450.1,-44.6101 14471.3,-44.6104 14492.5,-44.6107 14513.7,-44.6111 14534.9,-44.6114 14556.1,-44.6118 14577.3,-44.6122 14598.4,-44.6126 14619.6,-44.613 
  14640.8,-44.6134 14662,-44.6139 14683.2,-44.6144 14704.4,-44.615 14725.6,-44.6155 14746.7,-44.6161 14767.9,-44.6167 14789.1,-44.6174 14810.3,-44.6181 14831.5,-44.6189 
  14852.7,-44.6196 14873.9,-44.6205 14895,-44.6214 14916.2,-44.6223 14937.4,-44.6233 14958.6,-44.6243 14979.8,-44.6254 15001,-44.6266 15022.2,-44.6278 15043.4,-44.629 
  15064.5,-44.6303 
  "/>
<path clip-path="url(#clip750)" d="
M1782.95 1377.32 L2282.13 1377.32 L2282.13 1169.96 L1782.95 1169.96  Z
  " fill="#ffffff" fill-rule="evenodd" fill-opacity="1"/>
<polyline clip-path="url(#clip750)" style="stroke:#000000; stroke-linecap:butt; stroke-linejoin:round; stroke-width:4; stroke-opacity:1; fill:none" points="
  1782.95,1377.32 2282.13,1377.32 2282.13,1169.96 1782.95,1169.96 1782.95,1377.32 
  "/>
<polyline clip-path="url(#clip750)" style="stroke:#009af9; stroke-linecap:butt; stroke-linejoin:round; stroke-width:4; stroke-opacity:1; fill:none" points="
  1806.95,1221.8 1950.95,1221.8 
  "/>
<path clip-path="url(#clip750)" d="M1979.62 1222.57 L1979.62 1235.23 L1987.12 1235.23 Q1990.9 1235.23 1992.7 1233.68 Q1994.53 1232.11 1994.53 1228.89 Q1994.53 1225.65 1992.7 1224.12 Q1990.9 1222.57 1987.12 1222.57 L1979.62 1222.57 M1979.62 1208.36 L1979.62 1218.77 L1986.54 1218.77 Q1989.97 1218.77 1991.64 1217.5 Q1993.33 1216.21 1993.33 1213.57 Q1993.33 1210.95 1991.64 1209.65 Q1989.97 1208.36 1986.54 1208.36 L1979.62 1208.36 M1974.95 1204.52 L1986.89 1204.52 Q1992.24 1204.52 1995.13 1206.74 Q1998.03 1208.96 1998.03 1213.06 Q1998.03 1216.23 1996.54 1218.1 Q1995.06 1219.98 1992.19 1220.44 Q1995.64 1221.18 1997.54 1223.54 Q1999.46 1225.88 1999.46 1229.4 Q1999.46 1234.03 1996.31 1236.55 Q1993.16 1239.08 1987.35 1239.08 L1974.95 1239.08 L1974.95 1204.52 Z" fill="#000000" fill-rule="evenodd" fill-opacity="1" /><path clip-path="url(#clip750)" d="M2007.28 1213.15 L2011.54 1213.15 L2011.54 1239.08 L2007.28 1239.08 L2007.28 1213.15 M2007.28 1203.06 L2011.54 1203.06 L2011.54 1208.45 L2007.28 1208.45 L2007.28 1203.06 Z" fill="#000000" fill-rule="evenodd" fill-opacity="1" /><path clip-path="url(#clip750)" d="M2035.48 1217.13 Q2034.76 1216.71 2033.9 1216.53 Q2033.07 1216.32 2032.05 1216.32 Q2028.44 1216.32 2026.5 1218.68 Q2024.58 1221.02 2024.58 1225.42 L2024.58 1239.08 L2020.29 1239.08 L2020.29 1213.15 L2024.58 1213.15 L2024.58 1217.18 Q2025.92 1214.82 2028.07 1213.68 Q2030.22 1212.52 2033.3 1212.52 Q2033.74 1212.52 2034.27 1212.59 Q2034.81 1212.64 2035.46 1212.76 L2035.48 1217.13 Z" fill="#000000" fill-rule="evenodd" fill-opacity="1" /><path clip-path="url(#clip750)" d="M2044.16 1205.79 L2044.16 1213.15 L2052.93 1213.15 L2052.93 1216.46 L2044.16 1216.46 L2044.16 1230.53 Q2044.16 1233.7 2045.02 1234.61 Q2045.9 1235.51 2048.56 1235.51 L2052.93 1235.51 L2052.93 1239.08 L2048.56 1239.08 Q2043.63 1239.08 2041.75 1237.25 Q2039.88 1235.39 2039.88 1230.53 L2039.88 1216.46 L2036.75 1216.46 L2036.75 1213.15 L2039.88 1213.15 L2039.88 1205.79 L2044.16 1205.79 Z" fill="#000000" fill-rule="evenodd" fill-opacity="1" /><path clip-path="url(#clip750)" d="M2080.08 1223.43 L2080.08 1239.08 L2075.83 1239.08 L2075.83 1223.57 Q2075.83 1219.89 2074.39 1218.06 Q2072.96 1216.23 2070.08 1216.23 Q2066.64 1216.23 2064.65 1218.43 Q2062.65 1220.63 2062.65 1224.42 L2062.65 1239.08 L2058.37 1239.08 L2058.37 1203.06 L2062.65 1203.06 L2062.65 1217.18 Q2064.18 1214.84 2066.24 1213.68 Q2068.33 1212.52 2071.03 1212.52 Q2075.5 1212.52 2077.79 1215.3 Q2080.08 1218.06 2080.08 1223.43 Z" fill="#000000" fill-rule="evenodd" fill-opacity="1" /><path clip-path="url(#clip750)" d="M2086.43 1224.19 L2098.9 1224.19 L2098.9 1227.99 L2086.43 1227.99 L2086.43 1224.19 Z" fill="#000000" fill-rule="evenodd" fill-opacity="1" /><path clip-path="url(#clip750)" d="M2122.75 1217.08 L2122.75 1203.06 L2127.01 1203.06 L2127.01 1239.08 L2122.75 1239.08 L2122.75 1235.19 Q2121.4 1237.5 2119.34 1238.64 Q2117.31 1239.75 2114.44 1239.75 Q2109.74 1239.75 2106.77 1236 Q2103.83 1232.25 2103.83 1226.14 Q2103.83 1220.02 2106.77 1216.27 Q2109.74 1212.52 2114.44 1212.52 Q2117.31 1212.52 2119.34 1213.66 Q2121.4 1214.77 2122.75 1217.08 M2108.23 1226.14 Q2108.23 1230.83 2110.15 1233.52 Q2112.1 1236.18 2115.48 1236.18 Q2118.86 1236.18 2120.8 1233.52 Q2122.75 1230.83 2122.75 1226.14 Q2122.75 1221.44 2120.8 1218.77 Q2118.86 1216.09 2115.48 1216.09 Q2112.1 1216.09 2110.15 1218.77 Q2108.23 1221.44 2108.23 1226.14 Z" fill="#000000" fill-rule="evenodd" fill-opacity="1" /><path clip-path="url(#clip750)" d="M2157.95 1225.05 L2157.95 1227.13 L2138.37 1227.13 Q2138.65 1231.53 2141.01 1233.84 Q2143.39 1236.14 2147.63 1236.14 Q2150.08 1236.14 2152.38 1235.53 Q2154.69 1234.93 2156.96 1233.73 L2156.96 1237.76 Q2154.67 1238.73 2152.26 1239.24 Q2149.85 1239.75 2147.38 1239.75 Q2141.17 1239.75 2137.54 1236.14 Q2133.93 1232.52 2133.93 1226.37 Q2133.93 1220 2137.35 1216.27 Q2140.8 1212.52 2146.64 1212.52 Q2151.87 1212.52 2154.9 1215.9 Q2157.95 1219.26 2157.95 1225.05 M2153.7 1223.8 Q2153.65 1220.3 2151.73 1218.22 Q2149.83 1216.14 2146.68 1216.14 Q2143.12 1216.14 2140.96 1218.15 Q2138.83 1220.16 2138.51 1223.82 L2153.7 1223.8 Z" fill="#000000" fill-rule="evenodd" fill-opacity="1" /><path clip-path="url(#clip750)" d="M2176.73 1226.04 Q2171.57 1226.04 2169.58 1227.22 Q2167.58 1228.4 2167.58 1231.25 Q2167.58 1233.52 2169.07 1234.86 Q2170.57 1236.18 2173.14 1236.18 Q2176.68 1236.18 2178.81 1233.68 Q2180.96 1231.16 2180.96 1226.99 L2180.96 1226.04 L2176.73 1226.04 M2185.22 1224.28 L2185.22 1239.08 L2180.96 1239.08 L2180.96 1235.14 Q2179.51 1237.5 2177.33 1238.64 Q2175.15 1239.75 2172.01 1239.75 Q2168.02 1239.75 2165.66 1237.52 Q2163.33 1235.28 2163.33 1231.53 Q2163.33 1227.15 2166.24 1224.93 Q2169.18 1222.71 2174.99 1222.71 L2180.96 1222.71 L2180.96 1222.29 Q2180.96 1219.35 2179.02 1217.76 Q2177.1 1216.14 2173.6 1216.14 Q2171.38 1216.14 2169.27 1216.67 Q2167.17 1217.2 2165.22 1218.27 L2165.22 1214.33 Q2167.56 1213.43 2169.76 1212.99 Q2171.96 1212.52 2174.04 1212.52 Q2179.67 1212.52 2182.45 1215.44 Q2185.22 1218.36 2185.22 1224.28 Z" fill="#000000" fill-rule="evenodd" fill-opacity="1" /><path clip-path="url(#clip750)" d="M2198.21 1205.79 L2198.21 1213.15 L2206.98 1213.15 L2206.98 1216.46 L2198.21 1216.46 L2198.21 1230.53 Q2198.21 1233.7 2199.07 1234.61 Q2199.95 1235.51 2202.61 1235.51 L2206.98 1235.51 L2206.98 1239.08 L2202.61 1239.08 Q2197.68 1239.08 2195.8 1237.25 Q2193.93 1235.39 2193.93 1230.53 L2193.93 1216.46 L2190.8 1216.46 L2190.8 1213.15 L2193.93 1213.15 L2193.93 1205.79 L2198.21 1205.79 Z" fill="#000000" fill-rule="evenodd" fill-opacity="1" /><path clip-path="url(#clip750)" d="M2234.13 1223.43 L2234.13 1239.08 L2229.88 1239.08 L2229.88 1223.57 Q2229.88 1219.89 2228.44 1218.06 Q2227.01 1216.23 2224.13 1216.23 Q2220.69 1216.23 2218.7 1218.43 Q2216.7 1220.63 2216.7 1224.42 L2216.7 1239.08 L2212.42 1239.08 L2212.42 1203.06 L2216.7 1203.06 L2216.7 1217.18 Q2218.23 1214.84 2220.29 1213.68 Q2222.38 1212.52 2225.08 1212.52 Q2229.55 1212.52 2231.84 1215.3 Q2234.13 1218.06 2234.13 1223.43 Z" fill="#000000" fill-rule="evenodd" fill-opacity="1" /><polyline clip-path="url(#clip750)" style="stroke:#e26f46; stroke-linecap:butt; stroke-linejoin:round; stroke-width:4; stroke-opacity:1; fill:none" points="
  1806.95,1273.64 1950.95,1273.64 
  "/>
<path clip-path="url(#clip750)" d="M1974.95 1256.36 L1979.62 1256.36 L1979.62 1286.98 L1996.45 1286.98 L1996.45 1290.92 L1974.95 1290.92 L1974.95 1256.36 Z" fill="#000000" fill-rule="evenodd" fill-opacity="1" /><path clip-path="url(#clip750)" d="M2010.39 1267.98 Q2006.96 1267.98 2004.97 1270.66 Q2002.98 1273.32 2002.98 1277.98 Q2002.98 1282.63 2004.95 1285.31 Q2006.94 1287.98 2010.39 1287.98 Q2013.79 1287.98 2015.78 1285.29 Q2017.77 1282.61 2017.77 1277.98 Q2017.77 1273.37 2015.78 1270.68 Q2013.79 1267.98 2010.39 1267.98 M2010.39 1264.36 Q2015.94 1264.36 2019.11 1267.98 Q2022.28 1271.59 2022.28 1277.98 Q2022.28 1284.34 2019.11 1287.98 Q2015.94 1291.59 2010.39 1291.59 Q2004.81 1291.59 2001.64 1287.98 Q1998.49 1284.34 1998.49 1277.98 Q1998.49 1271.59 2001.64 1267.98 Q2004.81 1264.36 2010.39 1264.36 Z" fill="#000000" fill-rule="evenodd" fill-opacity="1" /><path clip-path="url(#clip750)" d="M2046.4 1277.65 Q2046.4 1273.02 2044.48 1270.48 Q2042.58 1267.93 2039.14 1267.93 Q2035.71 1267.93 2033.79 1270.48 Q2031.89 1273.02 2031.89 1277.65 Q2031.89 1282.26 2033.79 1284.8 Q2035.71 1287.35 2039.14 1287.35 Q2042.58 1287.35 2044.48 1284.8 Q2046.4 1282.26 2046.4 1277.65 M2050.66 1287.7 Q2050.66 1294.32 2047.72 1297.54 Q2044.78 1300.78 2038.72 1300.78 Q2036.47 1300.78 2034.48 1300.43 Q2032.49 1300.11 2030.62 1299.41 L2030.62 1295.27 Q2032.49 1296.29 2034.32 1296.77 Q2036.15 1297.26 2038.05 1297.26 Q2042.24 1297.26 2044.32 1295.06 Q2046.4 1292.88 2046.4 1288.46 L2046.4 1286.36 Q2045.08 1288.65 2043.02 1289.78 Q2040.96 1290.92 2038.09 1290.92 Q2033.33 1290.92 2030.41 1287.28 Q2027.49 1283.65 2027.49 1277.65 Q2027.49 1271.63 2030.41 1268 Q2033.33 1264.36 2038.09 1264.36 Q2040.96 1264.36 2043.02 1265.5 Q2045.08 1266.63 2046.4 1268.92 L2046.4 1264.99 L2050.66 1264.99 L2050.66 1287.7 Z" fill="#000000" fill-rule="evenodd" fill-opacity="1" /><path clip-path="url(#clip750)" d="M2059.44 1264.99 L2063.7 1264.99 L2063.7 1290.92 L2059.44 1290.92 L2059.44 1264.99 M2059.44 1254.9 L2063.7 1254.9 L2063.7 1260.29 L2059.44 1260.29 L2059.44 1254.9 Z" fill="#000000" fill-rule="evenodd" fill-opacity="1" /><path clip-path="url(#clip750)" d="M2089.14 1265.75 L2089.14 1269.78 Q2087.33 1268.86 2085.39 1268.39 Q2083.44 1267.93 2081.36 1267.93 Q2078.19 1267.93 2076.59 1268.9 Q2075.02 1269.87 2075.02 1271.82 Q2075.02 1273.3 2076.15 1274.16 Q2077.28 1274.99 2080.71 1275.75 L2082.17 1276.08 Q2086.71 1277.05 2088.6 1278.83 Q2090.52 1280.59 2090.52 1283.76 Q2090.52 1287.37 2087.65 1289.48 Q2084.81 1291.59 2079.81 1291.59 Q2077.72 1291.59 2075.46 1291.17 Q2073.21 1290.78 2070.71 1289.97 L2070.71 1285.57 Q2073.07 1286.79 2075.36 1287.42 Q2077.65 1288.02 2079.9 1288.02 Q2082.91 1288.02 2084.53 1287 Q2086.15 1285.96 2086.15 1284.09 Q2086.15 1282.35 2084.97 1281.42 Q2083.81 1280.5 2079.85 1279.64 L2078.37 1279.3 Q2074.41 1278.46 2072.65 1276.75 Q2070.9 1275.01 2070.9 1272 Q2070.9 1268.35 2073.49 1266.36 Q2076.08 1264.36 2080.85 1264.36 Q2083.21 1264.36 2085.29 1264.71 Q2087.38 1265.06 2089.14 1265.75 Z" fill="#000000" fill-rule="evenodd" fill-opacity="1" /><path clip-path="url(#clip750)" d="M2101.52 1257.63 L2101.52 1264.99 L2110.29 1264.99 L2110.29 1268.3 L2101.52 1268.3 L2101.52 1282.37 Q2101.52 1285.54 2102.38 1286.45 Q2103.26 1287.35 2105.92 1287.35 L2110.29 1287.35 L2110.29 1290.92 L2105.92 1290.92 Q2100.99 1290.92 2099.11 1289.09 Q2097.24 1287.23 2097.24 1282.37 L2097.24 1268.3 L2094.11 1268.3 L2094.11 1264.99 L2097.24 1264.99 L2097.24 1257.63 L2101.52 1257.63 Z" fill="#000000" fill-rule="evenodd" fill-opacity="1" /><path clip-path="url(#clip750)" d="M2115.89 1264.99 L2120.15 1264.99 L2120.15 1290.92 L2115.89 1290.92 L2115.89 1264.99 M2115.89 1254.9 L2120.15 1254.9 L2120.15 1260.29 L2115.89 1260.29 L2115.89 1254.9 Z" fill="#000000" fill-rule="evenodd" fill-opacity="1" /><path clip-path="url(#clip750)" d="M2147.72 1265.98 L2147.72 1269.97 Q2145.92 1268.97 2144.09 1268.48 Q2142.28 1267.98 2140.43 1267.98 Q2136.29 1267.98 2134 1270.61 Q2131.7 1273.23 2131.7 1277.98 Q2131.7 1282.72 2134 1285.36 Q2136.29 1287.98 2140.43 1287.98 Q2142.28 1287.98 2144.09 1287.49 Q2145.92 1286.98 2147.72 1285.98 L2147.72 1289.92 Q2145.94 1290.75 2144.02 1291.17 Q2142.12 1291.59 2139.97 1291.59 Q2134.11 1291.59 2130.66 1287.91 Q2127.21 1284.23 2127.21 1277.98 Q2127.21 1271.63 2130.69 1268 Q2134.18 1264.36 2140.25 1264.36 Q2142.21 1264.36 2144.09 1264.78 Q2145.96 1265.17 2147.72 1265.98 Z" fill="#000000" fill-rule="evenodd" fill-opacity="1" /><polyline clip-path="url(#clip750)" style="stroke:#3da44d; stroke-linecap:butt; stroke-linejoin:round; stroke-width:4; stroke-opacity:1; fill:none" points="
  1806.95,1325.48 1950.95,1325.48 
  "/>
<path clip-path="url(#clip750)" d="M1974.95 1308.2 L1979.62 1308.2 L1979.62 1342.76 L1974.95 1342.76 L1974.95 1308.2 Z" fill="#000000" fill-rule="evenodd" fill-opacity="1" /><path clip-path="url(#clip750)" d="M2010.29 1327.11 L2010.29 1342.76 L2006.03 1342.76 L2006.03 1327.25 Q2006.03 1323.57 2004.6 1321.74 Q2003.16 1319.91 2000.29 1319.91 Q1996.84 1319.91 1994.85 1322.11 Q1992.86 1324.31 1992.86 1328.1 L1992.86 1342.76 L1988.58 1342.76 L1988.58 1316.83 L1992.86 1316.83 L1992.86 1320.86 Q1994.39 1318.52 1996.45 1317.36 Q1998.53 1316.2 2001.24 1316.2 Q2005.71 1316.2 2008 1318.98 Q2010.29 1321.74 2010.29 1327.11 Z" fill="#000000" fill-rule="evenodd" fill-opacity="1" /><path clip-path="url(#clip750)" d="M2023 1309.47 L2023 1316.83 L2031.77 1316.83 L2031.77 1320.14 L2023 1320.14 L2023 1334.21 Q2023 1337.38 2023.86 1338.29 Q2024.74 1339.19 2027.4 1339.19 L2031.77 1339.19 L2031.77 1342.76 L2027.4 1342.76 Q2022.47 1342.76 2020.59 1340.93 Q2018.72 1339.07 2018.72 1334.21 L2018.72 1320.14 L2015.59 1320.14 L2015.59 1316.83 L2018.72 1316.83 L2018.72 1309.47 L2023 1309.47 Z" fill="#000000" fill-rule="evenodd" fill-opacity="1" /><path clip-path="url(#clip750)" d="M2059.55 1328.73 L2059.55 1330.81 L2039.97 1330.81 Q2040.25 1335.21 2042.61 1337.52 Q2044.99 1339.82 2049.23 1339.82 Q2051.68 1339.82 2053.97 1339.21 Q2056.29 1338.61 2058.56 1337.41 L2058.56 1341.44 Q2056.27 1342.41 2053.86 1342.92 Q2051.45 1343.43 2048.97 1343.43 Q2042.77 1343.43 2039.14 1339.82 Q2035.52 1336.2 2035.52 1330.05 Q2035.52 1323.68 2038.95 1319.95 Q2042.4 1316.2 2048.23 1316.2 Q2053.46 1316.2 2056.5 1319.58 Q2059.55 1322.94 2059.55 1328.73 M2055.29 1327.48 Q2055.25 1323.98 2053.33 1321.9 Q2051.43 1319.82 2048.28 1319.82 Q2044.71 1319.82 2042.56 1321.83 Q2040.43 1323.84 2040.11 1327.5 L2055.29 1327.48 Z" fill="#000000" fill-rule="evenodd" fill-opacity="1" /><path clip-path="url(#clip750)" d="M2081.57 1320.81 Q2080.85 1320.39 2079.99 1320.21 Q2079.16 1320 2078.14 1320 Q2074.53 1320 2072.58 1322.36 Q2070.66 1324.7 2070.66 1329.1 L2070.66 1342.76 L2066.38 1342.76 L2066.38 1316.83 L2070.66 1316.83 L2070.66 1320.86 Q2072.01 1318.5 2074.16 1317.36 Q2076.31 1316.2 2079.39 1316.2 Q2079.83 1316.2 2080.36 1316.27 Q2080.89 1316.32 2081.54 1316.44 L2081.57 1320.81 Z" fill="#000000" fill-rule="evenodd" fill-opacity="1" /><path clip-path="url(#clip750)" d="M2099.16 1306.74 L2099.16 1310.28 L2095.08 1310.28 Q2092.79 1310.28 2091.89 1311.2 Q2091.01 1312.13 2091.01 1314.54 L2091.01 1316.83 L2098.02 1316.83 L2098.02 1320.14 L2091.01 1320.14 L2091.01 1342.76 L2086.73 1342.76 L2086.73 1320.14 L2082.65 1320.14 L2082.65 1316.83 L2086.73 1316.83 L2086.73 1315.02 Q2086.73 1310.7 2088.74 1308.73 Q2090.76 1306.74 2095.13 1306.74 L2099.16 1306.74 Z" fill="#000000" fill-rule="evenodd" fill-opacity="1" /><path clip-path="url(#clip750)" d="M2114.51 1329.72 Q2109.34 1329.72 2107.35 1330.9 Q2105.36 1332.08 2105.36 1334.93 Q2105.36 1337.2 2106.84 1338.54 Q2108.35 1339.86 2110.92 1339.86 Q2114.46 1339.86 2116.59 1337.36 Q2118.74 1334.84 2118.74 1330.67 L2118.74 1329.72 L2114.51 1329.72 M2123 1327.96 L2123 1342.76 L2118.74 1342.76 L2118.74 1338.82 Q2117.28 1341.18 2115.11 1342.32 Q2112.93 1343.43 2109.78 1343.43 Q2105.8 1343.43 2103.44 1341.2 Q2101.1 1338.96 2101.1 1335.21 Q2101.1 1330.83 2104.02 1328.61 Q2106.96 1326.39 2112.77 1326.39 L2118.74 1326.39 L2118.74 1325.97 Q2118.74 1323.03 2116.8 1321.44 Q2114.88 1319.82 2111.38 1319.82 Q2109.16 1319.82 2107.05 1320.35 Q2104.95 1320.88 2103 1321.95 L2103 1318.01 Q2105.34 1317.11 2107.54 1316.67 Q2109.74 1316.2 2111.82 1316.2 Q2117.45 1316.2 2120.22 1319.12 Q2123 1322.04 2123 1327.96 Z" fill="#000000" fill-rule="evenodd" fill-opacity="1" /><path clip-path="url(#clip750)" d="M2150.43 1317.82 L2150.43 1321.81 Q2148.63 1320.81 2146.8 1320.32 Q2144.99 1319.82 2143.14 1319.82 Q2139 1319.82 2136.7 1322.45 Q2134.41 1325.07 2134.41 1329.82 Q2134.41 1334.56 2136.7 1337.2 Q2139 1339.82 2143.14 1339.82 Q2144.99 1339.82 2146.8 1339.33 Q2148.63 1338.82 2150.43 1337.82 L2150.43 1341.76 Q2148.65 1342.59 2146.73 1343.01 Q2144.83 1343.43 2142.68 1343.43 Q2136.82 1343.43 2133.37 1339.75 Q2129.92 1336.07 2129.92 1329.82 Q2129.92 1323.47 2133.39 1319.84 Q2136.89 1316.2 2142.95 1316.2 Q2144.92 1316.2 2146.8 1316.62 Q2148.67 1317.01 2150.43 1317.82 Z" fill="#000000" fill-rule="evenodd" fill-opacity="1" /><path clip-path="url(#clip750)" d="M2180.01 1328.73 L2180.01 1330.81 L2160.43 1330.81 Q2160.71 1335.21 2163.07 1337.52 Q2165.45 1339.82 2169.69 1339.82 Q2172.14 1339.82 2174.44 1339.21 Q2176.75 1338.61 2179.02 1337.41 L2179.02 1341.44 Q2176.73 1342.41 2174.32 1342.92 Q2171.91 1343.43 2169.44 1343.43 Q2163.23 1343.43 2159.6 1339.82 Q2155.99 1336.2 2155.99 1330.05 Q2155.99 1323.68 2159.41 1319.95 Q2162.86 1316.2 2168.7 1316.2 Q2173.93 1316.2 2176.96 1319.58 Q2180.01 1322.94 2180.01 1328.73 M2175.76 1327.48 Q2175.71 1323.98 2173.79 1321.9 Q2171.89 1319.82 2168.74 1319.82 Q2165.18 1319.82 2163.02 1321.83 Q2160.89 1323.84 2160.57 1327.5 L2175.76 1327.48 Z" fill="#000000" fill-rule="evenodd" fill-opacity="1" /></svg>
