<?xml version="1.0" encoding="utf-8"?>
<svg xmlns="http://www.w3.org/2000/svg" xmlns:xlink="http://www.w3.org/1999/xlink" width="500" height="400" viewBox="0 0 2000 1600">
<defs>
  <clipPath id="clip350">
    <rect x="0" y="0" width="2000" height="1600"/>
  </clipPath>
</defs>
<path clip-path="url(#clip350)" d="
M0 1600 L2000 1600 L2000 0 L0 0  Z
  " fill="#ffffff" fill-rule="evenodd" fill-opacity="1"/>
<defs>
  <clipPath id="clip351">
    <rect x="400" y="0" width="1401" height="1401"/>
  </clipPath>
</defs>
<path clip-path="url(#clip350)" d="
M239.629 1406.76 L1952.76 1406.76 L1952.76 47.2441 L239.629 47.2441  Z
  " fill="#ffffff" fill-rule="evenodd" fill-opacity="1"/>
<defs>
  <clipPath id="clip352">
    <rect x="239" y="47" width="1714" height="1361"/>
  </clipPath>
</defs>
<polyline clip-path="url(#clip352)" style="stroke:#000000; stroke-width:2; stroke-opacity:0.1; fill:none" points="
  239.629,1406.76 239.629,47.2441 
  "/>
<polyline clip-path="url(#clip352)" style="stroke:#000000; stroke-width:2; stroke-opacity:0.1; fill:none" points="
  582.255,1406.76 582.255,47.2441 
  "/>
<polyline clip-path="url(#clip352)" style="stroke:#000000; stroke-width:2; stroke-opacity:0.1; fill:none" points="
  924.88,1406.76 924.88,47.2441 
  "/>
<polyline clip-path="url(#clip352)" style="stroke:#000000; stroke-width:2; stroke-opacity:0.1; fill:none" points="
  1267.51,1406.76 1267.51,47.2441 
  "/>
<polyline clip-path="url(#clip352)" style="stroke:#000000; stroke-width:2; stroke-opacity:0.1; fill:none" points="
  1610.13,1406.76 1610.13,47.2441 
  "/>
<polyline clip-path="url(#clip352)" style="stroke:#000000; stroke-width:2; stroke-opacity:0.1; fill:none" points="
  1952.76,1406.76 1952.76,47.2441 
  "/>
<polyline clip-path="url(#clip350)" style="stroke:#000000; stroke-width:4; stroke-opacity:1; fill:none" points="
  239.629,1406.76 1952.76,1406.76 
  "/>
<polyline clip-path="url(#clip350)" style="stroke:#000000; stroke-width:4; stroke-opacity:1; fill:none" points="
  239.629,1406.76 239.629,1390.45 
  "/>
<polyline clip-path="url(#clip350)" style="stroke:#000000; stroke-width:4; stroke-opacity:1; fill:none" points="
  582.255,1406.76 582.255,1390.45 
  "/>
<polyline clip-path="url(#clip350)" style="stroke:#000000; stroke-width:4; stroke-opacity:1; fill:none" points="
  924.88,1406.76 924.88,1390.45 
  "/>
<polyline clip-path="url(#clip350)" style="stroke:#000000; stroke-width:4; stroke-opacity:1; fill:none" points="
  1267.51,1406.76 1267.51,1390.45 
  "/>
<polyline clip-path="url(#clip350)" style="stroke:#000000; stroke-width:4; stroke-opacity:1; fill:none" points="
  1610.13,1406.76 1610.13,1390.45 
  "/>
<polyline clip-path="url(#clip350)" style="stroke:#000000; stroke-width:4; stroke-opacity:1; fill:none" points="
  1952.76,1406.76 1952.76,1390.45 
  "/>
<path clip-path="url(#clip350)" d="M 0 0 M239.629 1432.75 Q236.018 1432.75 234.19 1436.32 Q232.384 1439.86 232.384 1446.99 Q232.384 1454.1 234.19 1457.66 Q236.018 1461.2 239.629 1461.2 Q243.264 1461.2 245.069 1457.66 Q246.898 1454.1 246.898 1446.99 Q246.898 1439.86 245.069 1436.32 Q243.264 1432.75 239.629 1432.75 M239.629 1429.05 Q245.44 1429.05 248.495 1433.66 Q251.574 1438.24 251.574 1446.99 Q251.574 1455.72 248.495 1460.32 Q245.44 1464.91 239.629 1464.91 Q233.819 1464.91 230.741 1460.32 Q227.685 1455.72 227.685 1446.99 Q227.685 1438.24 230.741 1433.66 Q233.819 1429.05 239.629 1429.05 Z" fill="#000000" fill-rule="evenodd" fill-opacity="1" /><path clip-path="url(#clip350)" d="M 0 0 M556.942 1460.3 L564.581 1460.3 L564.581 1433.94 L556.271 1435.6 L556.271 1431.34 L564.535 1429.68 L569.211 1429.68 L569.211 1460.3 L576.85 1460.3 L576.85 1464.24 L556.942 1464.24 L556.942 1460.3 Z" fill="#000000" fill-rule="evenodd" fill-opacity="1" /><path clip-path="url(#clip350)" d="M 0 0 M596.294 1432.75 Q592.683 1432.75 590.854 1436.32 Q589.049 1439.86 589.049 1446.99 Q589.049 1454.1 590.854 1457.66 Q592.683 1461.2 596.294 1461.2 Q599.928 1461.2 601.734 1457.66 Q603.562 1454.1 603.562 1446.99 Q603.562 1439.86 601.734 1436.32 Q599.928 1432.75 596.294 1432.75 M596.294 1429.05 Q602.104 1429.05 605.16 1433.66 Q608.238 1438.24 608.238 1446.99 Q608.238 1455.72 605.16 1460.32 Q602.104 1464.91 596.294 1464.91 Q590.484 1464.91 587.405 1460.32 Q584.35 1455.72 584.35 1446.99 Q584.35 1438.24 587.405 1433.66 Q590.484 1429.05 596.294 1429.05 Z" fill="#000000" fill-rule="evenodd" fill-opacity="1" /><path clip-path="url(#clip350)" d="M 0 0 M903.653 1460.3 L919.973 1460.3 L919.973 1464.24 L898.028 1464.24 L898.028 1460.3 Q900.69 1457.55 905.274 1452.92 Q909.88 1448.26 911.061 1446.92 Q913.306 1444.4 914.186 1442.66 Q915.088 1440.9 915.088 1439.21 Q915.088 1436.46 913.144 1434.72 Q911.223 1432.99 908.121 1432.99 Q905.922 1432.99 903.468 1433.75 Q901.038 1434.51 898.26 1436.06 L898.26 1431.34 Q901.084 1430.21 903.538 1429.63 Q905.991 1429.05 908.028 1429.05 Q913.399 1429.05 916.593 1431.74 Q919.787 1434.42 919.787 1438.91 Q919.787 1441.04 918.977 1442.96 Q918.19 1444.86 916.084 1447.45 Q915.505 1448.12 912.403 1451.34 Q909.301 1454.54 903.653 1460.3 Z" fill="#000000" fill-rule="evenodd" fill-opacity="1" /><path clip-path="url(#clip350)" d="M 0 0 M939.787 1432.75 Q936.176 1432.75 934.348 1436.32 Q932.542 1439.86 932.542 1446.99 Q932.542 1454.1 934.348 1457.66 Q936.176 1461.2 939.787 1461.2 Q943.422 1461.2 945.227 1457.66 Q947.056 1454.1 947.056 1446.99 Q947.056 1439.86 945.227 1436.32 Q943.422 1432.75 939.787 1432.75 M939.787 1429.05 Q945.598 1429.05 948.653 1433.66 Q951.732 1438.24 951.732 1446.99 Q951.732 1455.72 948.653 1460.32 Q945.598 1464.91 939.787 1464.91 Q933.977 1464.91 930.899 1460.32 Q927.843 1455.72 927.843 1446.99 Q927.843 1438.24 930.899 1433.66 Q933.977 1429.05 939.787 1429.05 Z" fill="#000000" fill-rule="evenodd" fill-opacity="1" /><path clip-path="url(#clip350)" d="M 0 0 M1256.35 1445.6 Q1259.7 1446.32 1261.58 1448.59 Q1263.48 1450.86 1263.48 1454.19 Q1263.48 1459.31 1259.96 1462.11 Q1256.44 1464.91 1249.96 1464.91 Q1247.78 1464.91 1245.47 1464.47 Q1243.18 1464.05 1240.72 1463.19 L1240.72 1458.68 Q1242.67 1459.81 1244.98 1460.39 Q1247.3 1460.97 1249.82 1460.97 Q1254.22 1460.97 1256.51 1459.24 Q1258.82 1457.5 1258.82 1454.19 Q1258.82 1451.13 1256.67 1449.42 Q1254.54 1447.69 1250.72 1447.69 L1246.7 1447.69 L1246.7 1443.84 L1250.91 1443.84 Q1254.36 1443.84 1256.19 1442.48 Q1258.01 1441.09 1258.01 1438.5 Q1258.01 1435.83 1256.12 1434.42 Q1254.24 1432.99 1250.72 1432.99 Q1248.8 1432.99 1246.6 1433.4 Q1244.4 1433.82 1241.76 1434.7 L1241.76 1430.53 Q1244.43 1429.79 1246.74 1429.42 Q1249.08 1429.05 1251.14 1429.05 Q1256.46 1429.05 1259.57 1431.48 Q1262.67 1433.89 1262.67 1438.01 Q1262.67 1440.88 1261.02 1442.87 Q1259.38 1444.84 1256.35 1445.6 Z" fill="#000000" fill-rule="evenodd" fill-opacity="1" /><path clip-path="url(#clip350)" d="M 0 0 M1282.34 1432.75 Q1278.73 1432.75 1276.9 1436.32 Q1275.1 1439.86 1275.1 1446.99 Q1275.1 1454.1 1276.9 1457.66 Q1278.73 1461.2 1282.34 1461.2 Q1285.98 1461.2 1287.78 1457.66 Q1289.61 1454.1 1289.61 1446.99 Q1289.61 1439.86 1287.78 1436.32 Q1285.98 1432.75 1282.34 1432.75 M1282.34 1429.05 Q1288.15 1429.05 1291.21 1433.66 Q1294.29 1438.24 1294.29 1446.99 Q1294.29 1455.72 1291.21 1460.32 Q1288.15 1464.91 1282.34 1464.91 Q1276.53 1464.91 1273.45 1460.32 Q1270.4 1455.72 1270.4 1446.99 Q1270.4 1438.24 1273.45 1433.66 Q1276.53 1429.05 1282.34 1429.05 Z" fill="#000000" fill-rule="evenodd" fill-opacity="1" /><path clip-path="url(#clip350)" d="M 0 0 M1598.3 1433.75 L1586.5 1452.2 L1598.3 1452.2 L1598.3 1433.75 M1597.08 1429.68 L1602.95 1429.68 L1602.95 1452.2 L1607.89 1452.2 L1607.89 1456.09 L1602.95 1456.09 L1602.95 1464.24 L1598.3 1464.24 L1598.3 1456.09 L1582.7 1456.09 L1582.7 1451.57 L1597.08 1429.68 Z" fill="#000000" fill-rule="evenodd" fill-opacity="1" /><path clip-path="url(#clip350)" d="M 0 0 M1625.62 1432.75 Q1622.01 1432.75 1620.18 1436.32 Q1618.37 1439.86 1618.37 1446.99 Q1618.37 1454.1 1620.18 1457.66 Q1622.01 1461.2 1625.62 1461.2 Q1629.25 1461.2 1631.06 1457.66 Q1632.89 1454.1 1632.89 1446.99 Q1632.89 1439.86 1631.06 1436.32 Q1629.25 1432.75 1625.62 1432.75 M1625.62 1429.05 Q1631.43 1429.05 1634.48 1433.66 Q1637.56 1438.24 1637.56 1446.99 Q1637.56 1455.72 1634.48 1460.32 Q1631.43 1464.91 1625.62 1464.91 Q1619.81 1464.91 1616.73 1460.32 Q1613.67 1455.72 1613.67 1446.99 Q1613.67 1438.24 1616.73 1433.66 Q1619.81 1429.05 1625.62 1429.05 Z" fill="#000000" fill-rule="evenodd" fill-opacity="1" /><path clip-path="url(#clip350)" d="M 0 0 M1927.46 1429.68 L1945.81 1429.68 L1945.81 1433.61 L1931.74 1433.61 L1931.74 1442.08 Q1932.76 1441.74 1933.77 1441.57 Q1934.79 1441.39 1935.81 1441.39 Q1941.6 1441.39 1944.98 1444.56 Q1948.36 1447.73 1948.36 1453.15 Q1948.36 1458.73 1944.89 1461.83 Q1941.41 1464.91 1935.09 1464.91 Q1932.92 1464.91 1930.65 1464.54 Q1928.4 1464.17 1926 1463.43 L1926 1458.73 Q1928.08 1459.86 1930.3 1460.42 Q1932.52 1460.97 1935 1460.97 Q1939.01 1460.97 1941.34 1458.87 Q1943.68 1456.76 1943.68 1453.15 Q1943.68 1449.54 1941.34 1447.43 Q1939.01 1445.32 1935 1445.32 Q1933.13 1445.32 1931.25 1445.74 Q1929.4 1446.16 1927.46 1447.04 L1927.46 1429.68 Z" fill="#000000" fill-rule="evenodd" fill-opacity="1" /><path clip-path="url(#clip350)" d="M 0 0 M1967.57 1432.75 Q1963.96 1432.75 1962.13 1436.32 Q1960.33 1439.86 1960.33 1446.99 Q1960.33 1454.1 1962.13 1457.66 Q1963.96 1461.2 1967.57 1461.2 Q1971.2 1461.2 1973.01 1457.66 Q1974.84 1454.1 1974.84 1446.99 Q1974.84 1439.86 1973.01 1436.32 Q1971.2 1432.75 1967.57 1432.75 M1967.57 1429.05 Q1973.38 1429.05 1976.44 1433.66 Q1979.52 1438.24 1979.52 1446.99 Q1979.52 1455.72 1976.44 1460.32 Q1973.38 1464.91 1967.57 1464.91 Q1961.76 1464.91 1958.68 1460.32 Q1955.63 1455.72 1955.63 1446.99 Q1955.63 1438.24 1958.68 1433.66 Q1961.76 1429.05 1967.57 1429.05 Z" fill="#000000" fill-rule="evenodd" fill-opacity="1" /><path clip-path="url(#clip350)" d="M 0 0 M949.288 1498.11 L989.488 1498.11 L989.488 1503.52 L972.618 1503.52 L972.618 1545.63 L966.157 1545.63 L966.157 1503.52 L949.288 1503.52 L949.288 1498.11 Z" fill="#000000" fill-rule="evenodd" fill-opacity="1" /><path clip-path="url(#clip350)" d="M 0 0 M993.434 1509.98 L999.291 1509.98 L999.291 1545.63 L993.434 1545.63 L993.434 1509.98 M993.434 1496.1 L999.291 1496.1 L999.291 1503.52 L993.434 1503.52 L993.434 1496.1 Z" fill="#000000" fill-rule="evenodd" fill-opacity="1" /><path clip-path="url(#clip350)" d="M 0 0 M1039.3 1516.82 Q1041.5 1512.88 1044.55 1511 Q1047.61 1509.12 1051.74 1509.12 Q1057.31 1509.12 1060.34 1513.04 Q1063.36 1516.92 1063.36 1524.11 L1063.36 1545.63 L1057.47 1545.63 L1057.47 1524.3 Q1057.47 1519.18 1055.66 1516.7 Q1053.84 1514.21 1050.12 1514.21 Q1045.57 1514.21 1042.93 1517.24 Q1040.29 1520.26 1040.29 1525.48 L1040.29 1545.63 L1034.4 1545.63 L1034.4 1524.3 Q1034.4 1519.15 1032.58 1516.7 Q1030.77 1514.21 1026.98 1514.21 Q1022.49 1514.21 1019.85 1517.27 Q1017.21 1520.29 1017.21 1525.48 L1017.21 1545.63 L1011.32 1545.63 L1011.32 1509.98 L1017.21 1509.98 L1017.21 1515.52 Q1019.22 1512.24 1022.02 1510.68 Q1024.82 1509.12 1028.67 1509.12 Q1032.55 1509.12 1035.26 1511.09 Q1037.99 1513.07 1039.3 1516.82 Z" fill="#000000" fill-rule="evenodd" fill-opacity="1" /><path clip-path="url(#clip350)" d="M 0 0 M1105.53 1526.34 L1105.53 1529.2 L1078.61 1529.2 Q1078.99 1535.25 1082.24 1538.43 Q1085.51 1541.59 1091.34 1541.59 Q1094.71 1541.59 1097.86 1540.76 Q1101.05 1539.93 1104.17 1538.28 L1104.17 1543.81 Q1101.01 1545.15 1097.7 1545.85 Q1094.39 1546.55 1090.99 1546.55 Q1082.46 1546.55 1077.46 1541.59 Q1072.5 1536.62 1072.5 1528.15 Q1072.5 1519.4 1077.21 1514.28 Q1081.95 1509.12 1089.97 1509.12 Q1097.16 1509.12 1101.33 1513.77 Q1105.53 1518.38 1105.53 1526.34 M1099.68 1524.62 Q1099.61 1519.81 1096.97 1516.95 Q1094.36 1514.09 1090.03 1514.09 Q1085.13 1514.09 1082.17 1516.85 Q1079.24 1519.62 1078.8 1524.65 L1099.68 1524.62 Z" fill="#000000" fill-rule="evenodd" fill-opacity="1" /><path clip-path="url(#clip350)" d="M 0 0 M1149.94 1496.17 Q1145.67 1503.49 1143.6 1510.65 Q1141.53 1517.81 1141.53 1525.16 Q1141.53 1532.51 1143.6 1539.74 Q1145.7 1546.93 1149.94 1554.22 L1144.84 1554.22 Q1140.07 1546.74 1137.68 1539.52 Q1135.33 1532.29 1135.33 1525.16 Q1135.33 1518.06 1137.68 1510.87 Q1140.04 1503.68 1144.84 1496.17 L1149.94 1496.17 Z" fill="#000000" fill-rule="evenodd" fill-opacity="1" /><path clip-path="url(#clip350)" d="M 0 0 M1190.93 1524.11 L1190.93 1545.63 L1185.07 1545.63 L1185.07 1524.3 Q1185.07 1519.24 1183.1 1516.73 Q1181.13 1514.21 1177.18 1514.21 Q1172.44 1514.21 1169.7 1517.24 Q1166.96 1520.26 1166.96 1525.48 L1166.96 1545.63 L1161.08 1545.63 L1161.08 1496.1 L1166.96 1496.1 L1166.96 1515.52 Q1169.06 1512.3 1171.9 1510.71 Q1174.76 1509.12 1178.49 1509.12 Q1184.63 1509.12 1187.78 1512.94 Q1190.93 1516.73 1190.93 1524.11 Z" fill="#000000" fill-rule="evenodd" fill-opacity="1" /><path clip-path="url(#clip350)" d="M 0 0 M1223.27 1515.45 Q1222.28 1514.88 1221.1 1514.63 Q1219.96 1514.34 1218.56 1514.34 Q1213.59 1514.34 1210.92 1517.59 Q1208.28 1520.8 1208.28 1526.85 L1208.28 1545.63 L1202.39 1545.63 L1202.39 1509.98 L1208.28 1509.98 L1208.28 1515.52 Q1210.12 1512.27 1213.08 1510.71 Q1216.04 1509.12 1220.28 1509.12 Q1220.88 1509.12 1221.61 1509.22 Q1222.35 1509.28 1223.24 1509.44 L1223.27 1515.45 Z" fill="#000000" fill-rule="evenodd" fill-opacity="1" /><path clip-path="url(#clip350)" d="M 0 0 M1228.49 1496.17 L1233.58 1496.17 Q1238.35 1503.68 1240.71 1510.87 Q1243.1 1518.06 1243.1 1525.16 Q1243.1 1532.29 1240.71 1539.52 Q1238.35 1546.74 1233.58 1554.22 L1228.49 1554.22 Q1232.72 1546.93 1234.79 1539.74 Q1236.89 1532.51 1236.89 1525.16 Q1236.89 1517.81 1234.79 1510.65 Q1232.72 1503.49 1228.49 1496.17 Z" fill="#000000" fill-rule="evenodd" fill-opacity="1" /><polyline clip-path="url(#clip352)" style="stroke:#000000; stroke-width:2; stroke-opacity:0.1; fill:none" points="
  239.629,1406.76 1952.76,1406.76 
  "/>
<polyline clip-path="url(#clip352)" style="stroke:#000000; stroke-width:2; stroke-opacity:0.1; fill:none" points="
  239.629,1212.55 1952.76,1212.55 
  "/>
<polyline clip-path="url(#clip352)" style="stroke:#000000; stroke-width:2; stroke-opacity:0.1; fill:none" points="
  239.629,1018.33 1952.76,1018.33 
  "/>
<polyline clip-path="url(#clip352)" style="stroke:#000000; stroke-width:2; stroke-opacity:0.1; fill:none" points="
  239.629,824.113 1952.76,824.113 
  "/>
<polyline clip-path="url(#clip352)" style="stroke:#000000; stroke-width:2; stroke-opacity:0.1; fill:none" points="
  239.629,629.895 1952.76,629.895 
  "/>
<polyline clip-path="url(#clip352)" style="stroke:#000000; stroke-width:2; stroke-opacity:0.1; fill:none" points="
  239.629,435.678 1952.76,435.678 
  "/>
<polyline clip-path="url(#clip352)" style="stroke:#000000; stroke-width:2; stroke-opacity:0.1; fill:none" points="
  239.629,241.461 1952.76,241.461 
  "/>
<polyline clip-path="url(#clip352)" style="stroke:#000000; stroke-width:2; stroke-opacity:0.1; fill:none" points="
  239.629,47.2441 1952.76,47.2441 
  "/>
<polyline clip-path="url(#clip350)" style="stroke:#000000; stroke-width:4; stroke-opacity:1; fill:none" points="
  239.629,1406.76 239.629,47.2441 
  "/>
<polyline clip-path="url(#clip350)" style="stroke:#000000; stroke-width:4; stroke-opacity:1; fill:none" points="
  239.629,1406.76 260.187,1406.76 
  "/>
<polyline clip-path="url(#clip350)" style="stroke:#000000; stroke-width:4; stroke-opacity:1; fill:none" points="
  239.629,1212.55 260.187,1212.55 
  "/>
<polyline clip-path="url(#clip350)" style="stroke:#000000; stroke-width:4; stroke-opacity:1; fill:none" points="
  239.629,1018.33 260.187,1018.33 
  "/>
<polyline clip-path="url(#clip350)" style="stroke:#000000; stroke-width:4; stroke-opacity:1; fill:none" points="
  239.629,824.113 260.187,824.113 
  "/>
<polyline clip-path="url(#clip350)" style="stroke:#000000; stroke-width:4; stroke-opacity:1; fill:none" points="
  239.629,629.895 260.187,629.895 
  "/>
<polyline clip-path="url(#clip350)" style="stroke:#000000; stroke-width:4; stroke-opacity:1; fill:none" points="
  239.629,435.678 260.187,435.678 
  "/>
<polyline clip-path="url(#clip350)" style="stroke:#000000; stroke-width:4; stroke-opacity:1; fill:none" points="
  239.629,241.461 260.187,241.461 
  "/>
<polyline clip-path="url(#clip350)" style="stroke:#000000; stroke-width:4; stroke-opacity:1; fill:none" points="
  239.629,47.2441 260.187,47.2441 
  "/>
<path clip-path="url(#clip350)" d="M 0 0 M197.685 1392.56 Q194.074 1392.56 192.245 1396.13 Q190.44 1399.67 190.44 1406.8 Q190.44 1413.91 192.245 1417.47 Q194.074 1421.01 197.685 1421.01 Q201.319 1421.01 203.125 1417.47 Q204.954 1413.91 204.954 1406.8 Q204.954 1399.67 203.125 1396.13 Q201.319 1392.56 197.685 1392.56 M197.685 1388.86 Q203.495 1388.86 206.551 1393.47 Q209.629 1398.05 209.629 1406.8 Q209.629 1415.53 206.551 1420.13 Q203.495 1424.72 197.685 1424.72 Q191.875 1424.72 188.796 1420.13 Q185.741 1415.53 185.741 1406.8 Q185.741 1398.05 188.796 1393.47 Q191.875 1388.86 197.685 1388.86 Z" fill="#000000" fill-rule="evenodd" fill-opacity="1" /><path clip-path="url(#clip350)" d="M 0 0 M171.69 1211.19 Q175.046 1211.91 176.921 1214.18 Q178.819 1216.45 178.819 1219.78 Q178.819 1224.9 175.301 1227.7 Q171.782 1230.5 165.301 1230.5 Q163.125 1230.5 160.81 1230.06 Q158.519 1229.64 156.065 1228.79 L156.065 1224.27 Q158.009 1225.41 160.324 1225.98 Q162.639 1226.56 165.162 1226.56 Q169.56 1226.56 171.852 1224.83 Q174.167 1223.09 174.167 1219.78 Q174.167 1216.72 172.014 1215.01 Q169.884 1213.28 166.065 1213.28 L162.037 1213.28 L162.037 1209.43 L166.25 1209.43 Q169.699 1209.43 171.528 1208.07 Q173.356 1206.68 173.356 1204.09 Q173.356 1201.42 171.458 1200.01 Q169.583 1198.58 166.065 1198.58 Q164.144 1198.58 161.945 1198.99 Q159.745 1199.41 157.107 1200.29 L157.107 1196.12 Q159.769 1195.38 162.083 1195.01 Q164.421 1194.64 166.482 1194.64 Q171.806 1194.64 174.907 1197.07 Q178.009 1199.48 178.009 1203.6 Q178.009 1206.47 176.366 1208.46 Q174.722 1210.43 171.69 1211.19 Z" fill="#000000" fill-rule="evenodd" fill-opacity="1" /><path clip-path="url(#clip350)" d="M 0 0 M197.685 1198.35 Q194.074 1198.35 192.245 1201.91 Q190.44 1205.45 190.44 1212.58 Q190.44 1219.69 192.245 1223.25 Q194.074 1226.79 197.685 1226.79 Q201.319 1226.79 203.125 1223.25 Q204.954 1219.69 204.954 1212.58 Q204.954 1205.45 203.125 1201.91 Q201.319 1198.35 197.685 1198.35 M197.685 1194.64 Q203.495 1194.64 206.551 1199.25 Q209.629 1203.83 209.629 1212.58 Q209.629 1221.31 206.551 1225.91 Q203.495 1230.5 197.685 1230.5 Q191.875 1230.5 188.796 1225.91 Q185.741 1221.31 185.741 1212.58 Q185.741 1203.83 188.796 1199.25 Q191.875 1194.64 197.685 1194.64 Z" fill="#000000" fill-rule="evenodd" fill-opacity="1" /><path clip-path="url(#clip350)" d="M 0 0 M168.102 1016.47 Q164.954 1016.47 163.102 1018.62 Q161.273 1020.77 161.273 1024.52 Q161.273 1028.25 163.102 1030.42 Q164.954 1032.58 168.102 1032.58 Q171.25 1032.58 173.079 1030.42 Q174.931 1028.25 174.931 1024.52 Q174.931 1020.77 173.079 1018.62 Q171.25 1016.47 168.102 1016.47 M177.384 1001.81 L177.384 1006.07 Q175.625 1005.24 173.819 1004.8 Q172.037 1004.36 170.278 1004.36 Q165.648 1004.36 163.195 1007.48 Q160.764 1010.61 160.417 1016.93 Q161.782 1014.92 163.843 1013.85 Q165.903 1012.76 168.38 1012.76 Q173.588 1012.76 176.597 1015.93 Q179.63 1019.08 179.63 1024.52 Q179.63 1029.85 176.481 1033.06 Q173.333 1036.28 168.102 1036.28 Q162.107 1036.28 158.935 1031.7 Q155.764 1027.09 155.764 1018.36 Q155.764 1010.17 159.653 1005.31 Q163.542 1000.42 170.093 1000.42 Q171.852 1000.42 173.634 1000.77 Q175.44 1001.12 177.384 1001.81 Z" fill="#000000" fill-rule="evenodd" fill-opacity="1" /><path clip-path="url(#clip350)" d="M 0 0 M197.685 1004.13 Q194.074 1004.13 192.245 1007.69 Q190.44 1011.23 190.44 1018.36 Q190.44 1025.47 192.245 1029.04 Q194.074 1032.58 197.685 1032.58 Q201.319 1032.58 203.125 1029.04 Q204.954 1025.47 204.954 1018.36 Q204.954 1011.23 203.125 1007.69 Q201.319 1004.13 197.685 1004.13 M197.685 1000.42 Q203.495 1000.42 206.551 1005.03 Q209.629 1009.61 209.629 1018.36 Q209.629 1027.09 206.551 1031.7 Q203.495 1036.28 197.685 1036.28 Q191.875 1036.28 188.796 1031.7 Q185.741 1027.09 185.741 1018.36 Q185.741 1009.61 188.796 1005.03 Q191.875 1000.42 197.685 1000.42 Z" fill="#000000" fill-rule="evenodd" fill-opacity="1" /><path clip-path="url(#clip350)" d="M 0 0 M157.662 840.675 L157.662 836.416 Q159.421 837.249 161.227 837.689 Q163.032 838.129 164.769 838.129 Q169.398 838.129 171.829 835.027 Q174.282 831.902 174.63 825.559 Q173.287 827.55 171.227 828.615 Q169.167 829.68 166.667 829.68 Q161.482 829.68 158.449 826.555 Q155.44 823.407 155.44 817.967 Q155.44 812.643 158.588 809.425 Q161.736 806.208 166.968 806.208 Q172.963 806.208 176.111 810.814 Q179.282 815.397 179.282 824.147 Q179.282 832.318 175.394 837.203 Q171.528 842.064 164.977 842.064 Q163.218 842.064 161.412 841.717 Q159.607 841.369 157.662 840.675 M166.968 826.022 Q170.116 826.022 171.944 823.869 Q173.796 821.717 173.796 817.967 Q173.796 814.24 171.944 812.087 Q170.116 809.911 166.968 809.911 Q163.82 809.911 161.968 812.087 Q160.139 814.24 160.139 817.967 Q160.139 821.717 161.968 823.869 Q163.82 826.022 166.968 826.022 Z" fill="#000000" fill-rule="evenodd" fill-opacity="1" /><path clip-path="url(#clip350)" d="M 0 0 M197.685 809.911 Q194.074 809.911 192.245 813.476 Q190.44 817.018 190.44 824.147 Q190.44 831.254 192.245 834.818 Q194.074 838.36 197.685 838.36 Q201.319 838.36 203.125 834.818 Q204.954 831.254 204.954 824.147 Q204.954 817.018 203.125 813.476 Q201.319 809.911 197.685 809.911 M197.685 806.208 Q203.495 806.208 206.551 810.814 Q209.629 815.397 209.629 824.147 Q209.629 832.874 206.551 837.481 Q203.495 842.064 197.685 842.064 Q191.875 842.064 188.796 837.481 Q185.741 832.874 185.741 824.147 Q185.741 815.397 188.796 810.814 Q191.875 806.208 197.685 806.208 Z" fill="#000000" fill-rule="evenodd" fill-opacity="1" /><path clip-path="url(#clip350)" d="M 0 0 M128.172 643.24 L135.81 643.24 L135.81 616.875 L127.5 618.541 L127.5 614.282 L135.764 612.615 L140.44 612.615 L140.44 643.24 L148.079 643.24 L148.079 647.175 L128.172 647.175 L128.172 643.24 Z" fill="#000000" fill-rule="evenodd" fill-opacity="1" /><path clip-path="url(#clip350)" d="M 0 0 M161.551 643.24 L177.87 643.24 L177.87 647.175 L155.926 647.175 L155.926 643.24 Q158.588 640.486 163.171 635.856 Q167.778 631.203 168.958 629.861 Q171.204 627.338 172.083 625.601 Q172.986 623.842 172.986 622.152 Q172.986 619.398 171.042 617.662 Q169.12 615.926 166.019 615.926 Q163.82 615.926 161.366 616.689 Q158.935 617.453 156.158 619.004 L156.158 614.282 Q158.982 613.148 161.435 612.569 Q163.889 611.99 165.926 611.99 Q171.296 611.99 174.491 614.676 Q177.685 617.361 177.685 621.851 Q177.685 623.981 176.875 625.902 Q176.088 627.801 173.981 630.393 Q173.403 631.064 170.301 634.282 Q167.199 637.476 161.551 643.24 Z" fill="#000000" fill-rule="evenodd" fill-opacity="1" /><path clip-path="url(#clip350)" d="M 0 0 M197.685 615.694 Q194.074 615.694 192.245 619.259 Q190.44 622.801 190.44 629.93 Q190.44 637.037 192.245 640.601 Q194.074 644.143 197.685 644.143 Q201.319 644.143 203.125 640.601 Q204.954 637.037 204.954 629.93 Q204.954 622.801 203.125 619.259 Q201.319 615.694 197.685 615.694 M197.685 611.99 Q203.495 611.99 206.551 616.597 Q209.629 621.18 209.629 629.93 Q209.629 638.657 206.551 643.263 Q203.495 647.847 197.685 647.847 Q191.875 647.847 188.796 643.263 Q185.741 638.657 185.741 629.93 Q185.741 621.18 188.796 616.597 Q191.875 611.99 197.685 611.99 Z" fill="#000000" fill-rule="evenodd" fill-opacity="1" /><path clip-path="url(#clip350)" d="M 0 0 M128.172 449.023 L135.81 449.023 L135.81 422.658 L127.5 424.324 L127.5 420.065 L135.764 418.398 L140.44 418.398 L140.44 449.023 L148.079 449.023 L148.079 452.958 L128.172 452.958 L128.172 449.023 Z" fill="#000000" fill-rule="evenodd" fill-opacity="1" /><path clip-path="url(#clip350)" d="M 0 0 M157.57 418.398 L175.926 418.398 L175.926 422.333 L161.852 422.333 L161.852 430.806 Q162.87 430.458 163.889 430.296 Q164.907 430.111 165.926 430.111 Q171.713 430.111 175.093 433.282 Q178.472 436.454 178.472 441.87 Q178.472 447.449 175 450.551 Q171.528 453.63 165.208 453.63 Q163.032 453.63 160.764 453.259 Q158.519 452.889 156.111 452.148 L156.111 447.449 Q158.195 448.583 160.417 449.139 Q162.639 449.694 165.116 449.694 Q169.12 449.694 171.458 447.588 Q173.796 445.481 173.796 441.87 Q173.796 438.259 171.458 436.153 Q169.12 434.046 165.116 434.046 Q163.241 434.046 161.366 434.463 Q159.514 434.88 157.57 435.759 L157.57 418.398 Z" fill="#000000" fill-rule="evenodd" fill-opacity="1" /><path clip-path="url(#clip350)" d="M 0 0 M197.685 421.477 Q194.074 421.477 192.245 425.042 Q190.44 428.583 190.44 435.713 Q190.44 442.819 192.245 446.384 Q194.074 449.926 197.685 449.926 Q201.319 449.926 203.125 446.384 Q204.954 442.819 204.954 435.713 Q204.954 428.583 203.125 425.042 Q201.319 421.477 197.685 421.477 M197.685 417.773 Q203.495 417.773 206.551 422.38 Q209.629 426.963 209.629 435.713 Q209.629 444.44 206.551 449.046 Q203.495 453.63 197.685 453.63 Q191.875 453.63 188.796 449.046 Q185.741 444.44 185.741 435.713 Q185.741 426.963 188.796 422.38 Q191.875 417.773 197.685 417.773 Z" fill="#000000" fill-rule="evenodd" fill-opacity="1" /><path clip-path="url(#clip350)" d="M 0 0 M128.172 254.806 L135.81 254.806 L135.81 228.44 L127.5 230.107 L127.5 225.848 L135.764 224.181 L140.44 224.181 L140.44 254.806 L148.079 254.806 L148.079 258.741 L128.172 258.741 L128.172 254.806 Z" fill="#000000" fill-rule="evenodd" fill-opacity="1" /><path clip-path="url(#clip350)" d="M 0 0 M167.523 242.329 Q164.19 242.329 162.269 244.112 Q160.37 245.894 160.37 249.019 Q160.37 252.144 162.269 253.926 Q164.19 255.709 167.523 255.709 Q170.857 255.709 172.778 253.926 Q174.699 252.121 174.699 249.019 Q174.699 245.894 172.778 244.112 Q170.88 242.329 167.523 242.329 M162.847 240.339 Q159.838 239.598 158.148 237.538 Q156.482 235.477 156.482 232.514 Q156.482 228.371 159.421 225.964 Q162.384 223.556 167.523 223.556 Q172.685 223.556 175.625 225.964 Q178.565 228.371 178.565 232.514 Q178.565 235.477 176.875 237.538 Q175.208 239.598 172.222 240.339 Q175.602 241.126 177.477 243.417 Q179.375 245.709 179.375 249.019 Q179.375 254.042 176.296 256.727 Q173.241 259.412 167.523 259.412 Q161.806 259.412 158.727 256.727 Q155.671 254.042 155.671 249.019 Q155.671 245.709 157.57 243.417 Q159.468 241.126 162.847 240.339 M161.134 232.954 Q161.134 235.639 162.801 237.144 Q164.491 238.649 167.523 238.649 Q170.532 238.649 172.222 237.144 Q173.935 235.639 173.935 232.954 Q173.935 230.269 172.222 228.765 Q170.532 227.26 167.523 227.26 Q164.491 227.26 162.801 228.765 Q161.134 230.269 161.134 232.954 Z" fill="#000000" fill-rule="evenodd" fill-opacity="1" /><path clip-path="url(#clip350)" d="M 0 0 M197.685 227.26 Q194.074 227.26 192.245 230.825 Q190.44 234.366 190.44 241.496 Q190.44 248.602 192.245 252.167 Q194.074 255.709 197.685 255.709 Q201.319 255.709 203.125 252.167 Q204.954 248.602 204.954 241.496 Q204.954 234.366 203.125 230.825 Q201.319 227.26 197.685 227.26 M197.685 223.556 Q203.495 223.556 206.551 228.163 Q209.629 232.746 209.629 241.496 Q209.629 250.223 206.551 254.829 Q203.495 259.412 197.685 259.412 Q191.875 259.412 188.796 254.829 Q185.741 250.223 185.741 241.496 Q185.741 232.746 188.796 228.163 Q191.875 223.556 197.685 223.556 Z" fill="#000000" fill-rule="evenodd" fill-opacity="1" /><path clip-path="url(#clip350)" d="M 0 0 M131.389 60.5889 L147.708 60.5889 L147.708 64.5241 L125.764 64.5241 L125.764 60.5889 Q128.426 57.8343 133.009 53.2047 Q137.616 48.552 138.796 47.2094 Q141.042 44.6862 141.921 42.9501 Q142.824 41.1909 142.824 39.5011 Q142.824 36.7465 140.88 35.0104 Q138.959 33.2743 135.857 33.2743 Q133.658 33.2743 131.204 34.0381 Q128.773 34.802 125.996 36.3529 L125.996 31.6308 Q128.82 30.4965 131.273 29.9178 Q133.727 29.3391 135.764 29.3391 Q141.134 29.3391 144.329 32.0243 Q147.523 34.7094 147.523 39.2002 Q147.523 41.3298 146.713 43.2511 Q145.926 45.1492 143.82 47.7418 Q143.241 48.4131 140.139 51.6306 Q137.037 54.8251 131.389 60.5889 Z" fill="#000000" fill-rule="evenodd" fill-opacity="1" /><path clip-path="url(#clip350)" d="M 0 0 M158.333 60.5889 L165.972 60.5889 L165.972 34.2233 L157.662 35.89 L157.662 31.6308 L165.926 29.9641 L170.602 29.9641 L170.602 60.5889 L178.241 60.5889 L178.241 64.5241 L158.333 64.5241 L158.333 60.5889 Z" fill="#000000" fill-rule="evenodd" fill-opacity="1" /><path clip-path="url(#clip350)" d="M 0 0 M197.685 33.0428 Q194.074 33.0428 192.245 36.6076 Q190.44 40.1492 190.44 47.2788 Q190.44 54.3853 192.245 57.9501 Q194.074 61.4917 197.685 61.4917 Q201.319 61.4917 203.125 57.9501 Q204.954 54.3853 204.954 47.2788 Q204.954 40.1492 203.125 36.6076 Q201.319 33.0428 197.685 33.0428 M197.685 29.3391 Q203.495 29.3391 206.551 33.9456 Q209.629 38.5289 209.629 47.2788 Q209.629 56.0056 206.551 60.6121 Q203.495 65.1954 197.685 65.1954 Q191.875 65.1954 188.796 60.6121 Q185.741 56.0056 185.741 47.2788 Q185.741 38.5289 188.796 33.9456 Q191.875 29.3391 197.685 29.3391 Z" fill="#000000" fill-rule="evenodd" fill-opacity="1" /><path clip-path="url(#clip350)" d="M 0 0 M33.9882 917.02 L33.9882 910.591 L53.4672 910.591 L53.4672 887.229 L33.9882 887.229 L33.9882 880.799 L81.5082 880.799 L81.5082 887.229 L58.8781 887.229 L58.8781 910.591 L81.5082 910.591 L81.5082 917.02 L33.9882 917.02 Z" fill="#000000" fill-rule="evenodd" fill-opacity="1" /><path clip-path="url(#clip350)" d="M 0 0 M62.2201 837.767 L65.0846 837.767 L65.0846 864.694 Q71.1321 864.312 74.3149 861.066 Q77.4659 857.787 77.4659 851.963 Q77.4659 848.589 76.6384 845.438 Q75.8109 842.255 74.1558 839.136 L79.6939 839.136 Q81.0307 842.287 81.731 845.597 Q82.4312 848.907 82.4312 852.313 Q82.4312 860.843 77.4659 865.84 Q72.5007 870.805 64.0343 870.805 Q55.2814 870.805 50.1571 866.095 Q45.0008 861.352 45.0008 853.331 Q45.0008 846.138 49.6478 841.969 Q54.2629 837.767 62.2201 837.767 M60.5013 843.624 Q55.6952 843.687 52.8306 846.329 Q49.9661 848.939 49.9661 853.268 Q49.9661 858.169 52.7352 861.129 Q55.5042 864.058 60.5332 864.503 L60.5013 843.624 Z" fill="#000000" fill-rule="evenodd" fill-opacity="1" /><path clip-path="url(#clip350)" d="M 0 0 M45.8602 828.155 L45.8602 822.299 L81.5082 822.299 L81.5082 828.155 L45.8602 828.155 M31.983 828.155 L31.983 822.299 L39.399 822.299 L39.399 828.155 L31.983 828.155 Z" fill="#000000" fill-rule="evenodd" fill-opacity="1" /><path clip-path="url(#clip350)" d="M 0 0 M63.2704 786.587 Q56.9047 786.587 53.4036 789.229 Q49.9024 791.839 49.9024 796.581 Q49.9024 801.292 53.4036 803.934 Q56.9047 806.543 63.2704 806.543 Q69.6043 806.543 73.1054 803.934 Q76.6066 801.292 76.6066 796.581 Q76.6066 791.839 73.1054 789.229 Q69.6043 786.587 63.2704 786.587 M77.084 780.731 Q86.187 780.731 90.6111 784.773 Q95.0671 788.815 95.0671 797.154 Q95.0671 800.241 94.5897 802.979 Q94.1441 805.716 93.1892 808.294 L87.4919 808.294 Q88.8924 805.716 89.5608 803.201 Q90.2292 800.687 90.2292 798.077 Q90.2292 792.316 87.2055 789.452 Q84.2136 786.587 78.1343 786.587 L75.2379 786.587 Q78.389 788.401 79.9486 791.234 Q81.5082 794.067 81.5082 798.013 Q81.5082 804.57 76.5111 808.58 Q71.514 812.591 63.2704 812.591 Q54.995 812.591 49.9979 808.58 Q45.0008 804.57 45.0008 798.013 Q45.0008 794.067 46.5604 791.234 Q48.12 788.401 51.2711 786.587 L45.8602 786.587 L45.8602 780.731 L77.084 780.731 Z" fill="#000000" fill-rule="evenodd" fill-opacity="1" /><path clip-path="url(#clip350)" d="M 0 0 M59.9921 739.035 L81.5082 739.035 L81.5082 744.892 L60.183 744.892 Q55.1223 744.892 52.6078 746.865 Q50.0934 748.838 50.0934 752.785 Q50.0934 757.528 53.1171 760.265 Q56.1408 763.002 61.3607 763.002 L81.5082 763.002 L81.5082 768.89 L31.983 768.89 L31.983 763.002 L51.3984 763.002 Q48.1837 760.901 46.5923 758.069 Q45.0008 755.204 45.0008 751.48 Q45.0008 745.337 48.8203 742.186 Q52.6078 739.035 59.9921 739.035 Z" fill="#000000" fill-rule="evenodd" fill-opacity="1" /><path clip-path="url(#clip350)" d="M 0 0 M35.7387 721.561 L45.8602 721.561 L45.8602 709.498 L50.4117 709.498 L50.4117 721.561 L69.7634 721.561 Q74.1239 721.561 75.3653 720.384 Q76.6066 719.174 76.6066 715.514 L76.6066 709.498 L81.5082 709.498 L81.5082 715.514 Q81.5082 722.293 78.9937 724.871 Q76.4474 727.45 69.7634 727.45 L50.4117 727.45 L50.4117 731.746 L45.8602 731.746 L45.8602 727.45 L35.7387 727.45 L35.7387 721.561 Z" fill="#000000" fill-rule="evenodd" fill-opacity="1" /><path clip-path="url(#clip350)" d="M 0 0 M32.0466 667.007 Q39.3672 671.272 46.5286 673.341 Q53.69 675.41 61.0424 675.41 Q68.3948 675.41 75.6199 673.341 Q82.8131 671.24 90.1019 667.007 L90.1019 672.1 Q82.6222 676.874 75.3971 679.261 Q68.172 681.616 61.0424 681.616 Q53.9446 681.616 46.7514 679.261 Q39.5582 676.906 32.0466 672.1 L32.0466 667.007 Z" fill="#000000" fill-rule="evenodd" fill-opacity="1" /><path clip-path="url(#clip350)" d="M 0 0 M95.0671 656.249 L45.8602 656.249 L45.8602 650.393 L68.0129 650.393 Q72.628 650.393 74.9833 648.197 Q77.3386 646 77.3386 641.703 Q77.3386 636.993 74.665 634.638 Q71.9914 632.25 66.6442 632.25 L45.8602 632.25 L45.8602 626.394 L73.2964 626.394 Q75.2061 626.394 76.1291 625.853 Q77.0203 625.28 77.0203 624.102 Q77.0203 623.816 76.8612 623.307 Q76.6702 622.797 76.2883 621.906 L80.9989 621.906 Q81.731 623.211 82.0811 624.389 Q82.4312 625.535 82.4312 626.649 Q82.4312 628.845 81.1899 630.15 Q79.9486 631.455 77.4023 631.932 Q79.9167 633.524 81.1899 635.847 Q82.4312 638.139 82.4312 641.258 Q82.4312 644.504 81.1899 646.796 Q79.9486 649.056 77.4659 650.393 L95.0671 650.393 L95.0671 656.249 Z" fill="#000000" fill-rule="evenodd" fill-opacity="1" /><path clip-path="url(#clip350)" d="M 0 0 M52.7033 586.417 Q48.7566 584.221 46.8787 581.166 Q45.0008 578.11 45.0008 573.972 Q45.0008 568.402 48.9157 565.379 Q52.7988 562.355 59.9921 562.355 L81.5082 562.355 L81.5082 568.243 L60.183 568.243 Q55.0586 568.243 52.576 570.057 Q50.0934 571.872 50.0934 575.596 Q50.0934 580.147 53.1171 582.789 Q56.1408 585.431 61.3607 585.431 L81.5082 585.431 L81.5082 591.319 L60.183 591.319 Q55.0268 591.319 52.576 593.133 Q50.0934 594.947 50.0934 598.735 Q50.0934 603.223 53.1489 605.865 Q56.1726 608.506 61.3607 608.506 L81.5082 608.506 L81.5082 614.395 L45.8602 614.395 L45.8602 608.506 L51.3984 608.506 Q48.12 606.501 46.5604 603.7 Q45.0008 600.899 45.0008 597.048 Q45.0008 593.165 46.9742 590.46 Q48.9476 587.722 52.7033 586.417 Z" fill="#000000" fill-rule="evenodd" fill-opacity="1" /><path clip-path="url(#clip350)" d="M 0 0 M32.0466 551.597 L32.0466 546.504 Q39.5582 541.73 46.7514 539.375 Q53.9446 536.988 61.0424 536.988 Q68.172 536.988 75.3971 539.375 Q82.6222 541.73 90.1019 546.504 L90.1019 551.597 Q82.8131 547.364 75.6199 545.295 Q68.3948 543.194 61.0424 543.194 Q53.69 543.194 46.5286 545.295 Q39.3672 547.364 32.0466 551.597 Z" fill="#000000" fill-rule="evenodd" fill-opacity="1" /><polyline clip-path="url(#clip352)" style="stroke:#009af9; stroke-width:8; stroke-opacity:1; fill:none" points="
  239.629,1406.12 253.348,1405.87 267.067,1405.54 280.786,1405.08 294.504,1404.44 308.223,1403.57 321.942,1402.37 335.661,1400.72 349.379,1398.45 363.098,1395.32 
  376.817,1391.02 390.535,1385.09 404.254,1376.95 417.973,1365.76 431.692,1350.85 445.41,1327.32 459.129,1300.63 472.848,1274.57 486.567,1249 500.285,1223.9 
  514.004,1199.26 527.723,1175.08 541.442,1151.34 555.16,1128.05 568.879,1105.18 582.598,1082.74 596.316,1060.71 610.035,1039.1 623.754,1017.88 637.473,997.051 
  651.191,976.61 664.91,956.547 678.629,936.855 692.348,917.528 706.066,898.558 719.785,879.939 733.504,861.664 747.222,843.728 760.941,826.123 774.66,808.844 
  788.379,791.885 802.097,775.239 815.816,758.902 829.535,742.866 843.254,727.128 856.972,711.68 870.691,696.518 884.41,681.637 898.129,667.031 911.847,652.695 
  925.566,638.624 939.285,624.813 953.003,611.258 966.722,597.954 980.441,584.896 994.16,572.08 1007.88,559.5 1021.6,547.154 1035.32,535.036 1049.03,523.143 
  1062.75,511.469 1076.47,500.011 1090.19,488.765 1103.91,477.728 1117.63,466.894 1131.35,456.261 1145.07,445.824 1158.78,435.58 1172.5,425.526 1186.22,415.658 
  1199.94,405.972 1213.66,396.465 1227.38,387.134 1241.1,377.976 1254.82,368.987 1268.53,360.165 1282.25,351.506 1295.97,343.007 1309.69,334.666 1323.41,326.479 
  1337.13,318.444 1350.85,310.557 1364.57,302.816 1378.28,295.218 1392,287.761 1405.72,280.442 1419.44,273.258 1433.16,266.207 1446.88,259.287 1460.6,252.494 
  1474.32,245.827 1488.03,239.283 1501.75,232.86 1515.47,226.556 1529.19,220.368 1542.91,214.295 1556.63,208.333 1570.35,202.483 1584.07,196.74 1597.78,191.104 
  1611.5,185.572 1625.22,180.143 1638.94,174.814 1652.66,169.584 1666.38,164.451 1680.1,159.413 1693.81,154.468 1707.53,149.615 1721.25,144.852 1734.97,140.176 
  1748.69,135.588 1762.41,131.084 1776.13,126.664 1789.85,122.325 1803.56,118.067 1817.28,113.887 1831,109.785 1844.72,105.758 1858.44,101.806 1872.16,97.9265 
  1885.88,94.1188 1899.6,90.3813 1913.31,86.7127 1927.03,83.1119 1940.75,79.5775 1954.47,76.1085 1968.19,72.7036 1981.91,69.3618 1995.63,66.0818 2009.35,62.8625 
  2023.06,59.703 2036.78,56.6019 2050.5,53.5584 2064.22,50.5713 2077.94,47.6396 2091.66,44.7623 2105.38,41.9383 2119.1,39.1667 2132.81,36.4465 2146.53,33.7767 
  2160.25,31.1564 2173.97,28.5847 2187.69,26.0605 2201.41,23.5832 2215.13,21.1516 2228.85,18.7651 2242.56,16.4227 2256.28,14.1236 2270,11.867 2283.72,9.65204 
  2297.44,7.47798 2311.16,5.34404 2324.88,3.24945 2338.6,1.19348 2352.31,-0.824626 2366.03,-2.80568 2379.75,-4.75032 2393.47,-6.65918 2407.19,-8.53287 2420.91,-10.372 
  2434.63,-12.1772 2448.35,-13.949 2462.06,-15.688 2475.78,-17.3948 2489.5,-19.07 2503.22,-20.7141 2516.94,-22.3277 2530.66,-23.9114 2544.38,-25.4656 2558.09,-26.991 
  2571.81,-28.488 2585.53,-29.9572 2599.25,-31.3991 2612.97,-32.8141 2626.69,-34.2029 2640.41,-35.5658 2654.13,-36.9034 2667.84,-38.2162 2681.56,-39.5046 2695.28,-40.769 
  2709,-42.01 2722.72,-43.228 2736.44,-44.4234 2750.16,-45.5966 2763.88,-46.7482 2777.59,-47.8784 2791.31,-48.9877 2805.03,-50.0766 2818.75,-51.1454 2832.47,-52.1945 
  2846.19,-53.2243 2859.91,-54.2351 2873.63,-55.2274 2887.34,-56.2015 2901.06,-57.1577 2914.78,-58.0965 2928.5,-59.0181 2942.22,-59.9228 2955.94,-60.811 2969.66,-61.6829 
  2983.38,-62.5387 2997.09,-63.3788 3010.81,-64.2033 3024.53,-65.0127 3038.25,-65.807 3051.97,-66.5866 3065.69,-67.3518 3079.41,-68.1028 3093.13,-68.8398 3106.84,-69.5631 
  3120.56,-70.2729 3134.28,-70.9695 3148,-71.6531 3161.72,-72.3239 3175.44,-72.9823 3189.16,-73.6283 3202.88,-74.2623 3216.59,-74.8844 3230.31,-75.4949 3244.03,-76.094 
  3257.75,-76.6819 3271.47,-77.2588 3285.19,-77.825 3298.91,-78.3806 3312.63,-78.9258 3326.34,-79.4609 3340.06,-79.9861 3353.78,-80.5014 3367.5,-81.0073 3381.22,-81.5037 
  3394.94,-81.9909 3408.66,-82.4691 3422.37,-82.9385 3436.09,-83.3993 3449.81,-83.8515 3463.53,-84.2955 3477.25,-84.7313 3490.97,-85.1592 3504.69,-85.5793 3518.41,-85.9917 
  3532.12,-86.3966 3545.84,-86.7942 3559.56,-87.1847 3573.28,-87.5681 3587,-87.9445 3600.72,-88.3142 3614.44,-88.6771 3628.16,-89.0334 3641.87,-89.3831 3655.59,-89.7265 
  3669.31,-90.0636 3683.03,-90.3944 3696.75,-90.7191 3710.47,-91.0379 3724.19,-91.3507 3737.91,-91.6577 3751.62,-91.959 3765.34,-92.2547 3779.06,-92.5449 3792.78,-92.8296 
  3806.5,-93.109 3820.22,-93.3831 3833.94,-93.6521 3847.66,-93.9161 3861.37,-94.175 3875.09,-94.4291 3888.81,-94.6784 3902.53,-94.923 3916.25,-95.163 3929.97,-95.3985 
  3943.69,-95.6295 3957.41,-95.8561 3971.12,-96.0784 3984.84,-96.2966 3998.56,-96.5106 4012.28,-96.7207 4026,-96.9267 4039.72,-97.1289 4053.44,-97.3273 4067.16,-97.5219 
  4080.87,-97.7129 4094.59,-97.9004 4108.31,-98.0843 4122.03,-98.2648 4135.75,-98.442 4149.47,-98.6159 4163.19,-98.7866 4176.91,-98.9541 4190.62,-99.1186 4204.34,-99.2801 
  4218.06,-99.4387 4231.78,-99.5944 4245.5,-99.7473 4259.22,-99.8974 4272.94,-100.045 4286.65,-100.19 4300.37,-100.332 4314.09,-100.472 4327.81,-100.609 4341.53,-100.744 
  4355.25,-100.877 4368.97,-101.007 4382.69,-101.135 4396.4,-101.261 4410.12,-101.384 4423.84,-101.505 4437.56,-101.624 4451.28,-101.741 4465,-101.856 4478.72,-101.968 
  4492.44,-102.079 4506.15,-102.187 4519.87,-102.294 4533.59,-102.398 4547.31,-102.5 4561.03,-102.601 4574.75,-102.7 4588.47,-102.796 4602.19,-102.891 4615.9,-102.985 
  4629.62,-103.076 4643.34,-103.166 4657.06,-103.254 4670.78,-103.34 4684.5,-103.424 4698.22,-103.507 4711.94,-103.589 4725.65,-103.669 4739.37,-103.747 4753.09,-103.824 
  4766.81,-103.899 4780.53,-103.973 4794.25,-104.045 4807.97,-104.116 4821.69,-104.186 4835.4,-104.254 4849.12,-104.321 4862.84,-104.386 4876.56,-104.451 4890.28,-104.514 
  4904,-104.576 4917.72,-104.636 4931.44,-104.696 4945.15,-104.754 4958.87,-104.812 4972.59,-104.868 4986.31,-104.923 5000.03,-104.977 5013.75,-105.03 5027.47,-105.082 
  5041.19,-105.134 5054.9,-105.184 5068.62,-105.233 5082.34,-105.282 5096.06,-105.329 5109.78,-105.376 5123.5,-105.422 5137.22,-105.467 5150.93,-105.511 5164.65,-105.555 
  5178.37,-105.598 5192.09,-105.64 5205.81,-105.682 5219.53,-105.723 5233.25,-105.763 5246.97,-105.803 5260.68,-105.841 5274.4,-105.88 5288.12,-105.917 5301.84,-105.954 
  5315.56,-105.991 5329.28,-106.026 5343,-106.061 5356.72,-106.096 5370.43,-106.13 5384.15,-106.163 5397.87,-106.196 5411.59,-106.228 5425.31,-106.259 5439.03,-106.29 
  5452.75,-106.32 5466.47,-106.35 5480.18,-106.379 5493.9,-106.408 5507.62,-106.436 5521.34,-106.464 5535.06,-106.491 5548.78,-106.517 5562.5,-106.543 5576.22,-106.569 
  5589.93,-106.594 5603.65,-106.618 5617.37,-106.642 5631.09,-106.666 5644.81,-106.689 5658.53,-106.711 5672.25,-106.734 5685.97,-106.755 5699.68,-106.777 5713.4,-106.797 
  5727.12,-106.818 5740.84,-106.838 5754.56,-106.857 5768.28,-106.876 5782,-106.895 5795.72,-106.914 5809.43,-106.932 5823.15,-106.949 5836.87,-106.966 5850.59,-106.983 
  5864.31,-107 5878.03,-107.016 5891.75,-107.032 5905.47,-107.047 5919.18,-107.063 5932.9,-107.077 5946.62,-107.092 5960.34,-107.106 5974.06,-107.12 5987.78,-107.134 
  6001.5,-107.147 6015.21,-107.161 6028.93,-107.174 6042.65,-107.186 6056.37,-107.199 6070.09,-107.211 6083.81,-107.223 6097.53,-107.235 6111.25,-107.246 6124.96,-107.257 
  6138.68,-107.268 6152.4,-107.279 6166.12,-107.29 6179.84,-107.301 6193.56,-107.311 6207.28,-107.322 6221,-107.332 6234.71,-107.342 6248.43,-107.352 6262.15,-107.361 
  6275.87,-107.371 6289.59,-107.381 6303.31,-107.39 6317.03,-107.399 6330.75,-107.409 6344.46,-107.418 6358.18,-107.427 6371.9,-107.435 6385.62,-107.444 6399.34,-107.453 
  6413.06,-107.461 6426.78,-107.469 6440.5,-107.477 6454.21,-107.486 6467.93,-107.493 6481.65,-107.501 6495.37,-107.509 6509.09,-107.516 6522.81,-107.524 6536.53,-107.531 
  6550.25,-107.538 6563.96,-107.545 6577.68,-107.552 6591.4,-107.559 6605.12,-107.565 6618.84,-107.572 6632.56,-107.578 6646.28,-107.585 6660,-107.591 6673.71,-107.597 
  6687.43,-107.603 6701.15,-107.609 6714.87,-107.614 6728.59,-107.62 6742.31,-107.625 6756.03,-107.631 6769.75,-107.636 6783.46,-107.641 6797.18,-107.646 6810.9,-107.651 
  6824.62,-107.655 6838.34,-107.66 6852.06,-107.665 6865.78,-107.669 6879.49,-107.673 6893.21,-107.678 6906.93,-107.682 6920.65,-107.686 6934.37,-107.69 6948.09,-107.694 
  6961.81,-107.697 6975.53,-107.701 6989.24,-107.705 7002.96,-107.708 7016.68,-107.712 7030.4,-107.715 7044.12,-107.718 7057.84,-107.721 7071.56,-107.724 7085.28,-107.727 
  7098.99,-107.73 7112.71,-107.733 7126.43,-107.736 7140.15,-107.738 7153.87,-107.741 7167.59,-107.743 7181.31,-107.746 7195.03,-107.748 7208.74,-107.751 7222.46,-107.753 
  7236.18,-107.755 7249.9,-107.757 7263.62,-107.759 7277.34,-107.761 7291.06,-107.763 7304.78,-107.765 7318.49,-107.767 7332.21,-107.769 7345.93,-107.771 7359.65,-107.773 
  7373.37,-107.774 7387.09,-107.776 7400.81,-107.778 7414.53,-107.779 7428.24,-107.781 7441.96,-107.783 7455.68,-107.784 7469.4,-107.786 7483.12,-107.787 7496.84,-107.789 
  7510.56,-107.791 7524.28,-107.792 7537.99,-107.794 7551.71,-107.795 7565.43,-107.797 7579.15,-107.798 7592.87,-107.8 7606.59,-107.801 7620.31,-107.803 7634.03,-107.805 
  7647.74,-107.806 7661.46,-107.808 7675.18,-107.81 7688.9,-107.811 7702.62,-107.813 7716.34,-107.814 7730.06,-107.816 7743.77,-107.817 7757.49,-107.819 7771.21,-107.821 
  7784.93,-107.822 7798.65,-107.824 7812.37,-107.825 7826.09,-107.826 7839.81,-107.828 7853.52,-107.829 7867.24,-107.831 7880.96,-107.832 7894.68,-107.834 7908.4,-107.835 
  7922.12,-107.836 7935.84,-107.838 7949.56,-107.839 7963.27,-107.84 7976.99,-107.841 7990.71,-107.843 8004.43,-107.844 8018.15,-107.845 8031.87,-107.846 8045.59,-107.847 
  8059.31,-107.849 8073.02,-107.85 8086.74,-107.851 8100.46,-107.852 8114.18,-107.853 8127.9,-107.854 8141.62,-107.855 8155.34,-107.856 8169.06,-107.857 8182.77,-107.858 
  8196.49,-107.859 8210.21,-107.859 8223.93,-107.86 8237.65,-107.861 8251.37,-107.862 8265.09,-107.863 8278.81,-107.864 8292.52,-107.864 8306.24,-107.865 8319.96,-107.866 
  8333.68,-107.866 8347.4,-107.867 8361.12,-107.868 8374.84,-107.868 8388.56,-107.869 8402.27,-107.869 8415.99,-107.87 8429.71,-107.871 8443.43,-107.871 8457.15,-107.872 
  8470.87,-107.872 8484.59,-107.872 8498.31,-107.873 8512.02,-107.873 8525.74,-107.874 8539.46,-107.874 8553.18,-107.874 8566.9,-107.875 8580.62,-107.875 8594.34,-107.875 
  8608.05,-107.875 8621.77,-107.876 8635.49,-107.876 8649.21,-107.876 8662.93,-107.876 8676.65,-107.877 8690.37,-107.877 8704.09,-107.877 8717.8,-107.877 8731.52,-107.877 
  8745.24,-107.877 8758.96,-107.877 8772.68,-107.877 8786.4,-107.877 8800.12,-107.878 8813.84,-107.878 8827.55,-107.878 8841.27,-107.878 8854.99,-107.878 8868.71,-107.878 
  8882.43,-107.878 8896.15,-107.878 8909.87,-107.878 8923.59,-107.878 8937.3,-107.878 8951.02,-107.878 8964.74,-107.878 8978.46,-107.878 8992.18,-107.878 9005.9,-107.878 
  9019.62,-107.878 9033.34,-107.877 9047.05,-107.877 9060.77,-107.877 9074.49,-107.877 9088.21,-107.877 9101.93,-107.877 9115.65,-107.877 9129.37,-107.877 9143.09,-107.877 
  9156.8,-107.877 9170.52,-107.878 9184.24,-107.878 9197.96,-107.878 9211.68,-107.878 9225.4,-107.878 9239.12,-107.878 9252.84,-107.878 9266.55,-107.878 9280.27,-107.878 
  9293.99,-107.879 9307.71,-107.879 9321.43,-107.879 9335.15,-107.879 9348.87,-107.879 9362.59,-107.88 9376.3,-107.88 9390.02,-107.88 9403.74,-107.881 9417.46,-107.881 
  9431.18,-107.881 9444.9,-107.881 9458.62,-107.882 9472.33,-107.882 9486.05,-107.882 9499.77,-107.883 9513.49,-107.883 9527.21,-107.883 9540.93,-107.884 9554.65,-107.884 
  9568.37,-107.884 9582.08,-107.884 9595.8,-107.885 9609.52,-107.885 9623.24,-107.885 9636.96,-107.886 9650.68,-107.886 9664.4,-107.886 9678.12,-107.887 9691.83,-107.887 
  9705.55,-107.887 9719.27,-107.888 9732.99,-107.888 9746.71,-107.888 9760.43,-107.888 9774.15,-107.889 9787.87,-107.889 9801.58,-107.889 9815.3,-107.89 9829.02,-107.89 
  9842.74,-107.89 9856.46,-107.89 9870.18,-107.891 9883.9,-107.891 9897.62,-107.891 9911.33,-107.891 9925.05,-107.892 9938.77,-107.892 9952.49,-107.892 9966.21,-107.892 
  9979.93,-107.892 9993.65,-107.893 10007.4,-107.893 10021.1,-107.893 10034.8,-107.893 10048.5,-107.893 10062.2,-107.894 10076,-107.894 10089.7,-107.894 10103.4,-107.894 
  10117.1,-107.894 10130.8,-107.894 10144.6,-107.895 10158.3,-107.895 10172,-107.895 10185.7,-107.895 10199.4,-107.895 10213.1,-107.895 10226.9,-107.895 10240.6,-107.895 
  10254.3,-107.896 10268,-107.896 10281.7,-107.896 10295.5,-107.896 10309.2,-107.896 10322.9,-107.896 10336.6,-107.896 10350.3,-107.896 10364.1,-107.896 10377.8,-107.896 
  10391.5,-107.896 10405.2,-107.896 10418.9,-107.896 10432.6,-107.896 10446.4,-107.896 10460.1,-107.896 10473.8,-107.896 10487.5,-107.896 10501.2,-107.896 10515,-107.896 
  10528.7,-107.896 10542.4,-107.896 10556.1,-107.896 10569.8,-107.896 10583.6,-107.896 10597.3,-107.895 10611,-107.895 10624.7,-107.895 10638.4,-107.895 10652.1,-107.895 
  10665.9,-107.895 10679.6,-107.895 10693.3,-107.895 10707,-107.895 10720.7,-107.894 10734.5,-107.894 10748.2,-107.894 10761.9,-107.894 10775.6,-107.894 10789.3,-107.894 
  10803.1,-107.894 10816.8,-107.893 10830.5,-107.893 10844.2,-107.893 10857.9,-107.893 10871.6,-107.893 10885.4,-107.893 10899.1,-107.892 10912.8,-107.892 10926.5,-107.892 
  10940.2,-107.892 10954,-107.892 10967.7,-107.892 10981.4,-107.891 10995.1,-107.891 11008.8,-107.891 11022.6,-107.891 11036.3,-107.891 11050,-107.89 11063.7,-107.89 
  11077.4,-107.89 11091.1,-107.89 11104.9,-107.89 11118.6,-107.89 11132.3,-107.889 11146,-107.889 11159.7,-107.889 11173.5,-107.889 11187.2,-107.889 11200.9,-107.889 
  11214.6,-107.888 11228.3,-107.888 11242.1,-107.888 11255.8,-107.888 11269.5,-107.888 11283.2,-107.888 11296.9,-107.888 11310.6,-107.888 11324.4,-107.888 11338.1,-107.887 
  11351.8,-107.887 11365.5,-107.887 11379.2,-107.887 11393,-107.887 11406.7,-107.887 11420.4,-107.887 11434.1,-107.887 11447.8,-107.887 11461.6,-107.887 11475.3,-107.887 
  11489,-107.887 11502.7,-107.887 11516.4,-107.887 11530.1,-107.887 11543.9,-107.887 11557.6,-107.887 11571.3,-107.888 11585,-107.888 11598.7,-107.888 11612.5,-107.888 
  11626.2,-107.888 11639.9,-107.888 11653.6,-107.888 11667.3,-107.888 11681.1,-107.889 11694.8,-107.889 11708.5,-107.889 11722.2,-107.889 11735.9,-107.889 11749.6,-107.889 
  11763.4,-107.889 11777.1,-107.89 11790.8,-107.89 11804.5,-107.89 11818.2,-107.89 11832,-107.89 11845.7,-107.89 11859.4,-107.89 11873.1,-107.891 11886.8,-107.891 
  11900.6,-107.891 11914.3,-107.891 11928,-107.891 11941.7,-107.891 11955.4,-107.891 11969.1,-107.892 11982.9,-107.892 11996.6,-107.892 12010.3,-107.892 12024,-107.892 
  12037.7,-107.892 12051.5,-107.893 12065.2,-107.893 12078.9,-107.893 12092.6,-107.893 12106.3,-107.893 12120,-107.893 12133.8,-107.893 12147.5,-107.893 12161.2,-107.894 
  12174.9,-107.894 12188.6,-107.894 12202.4,-107.894 12216.1,-107.894 12229.8,-107.894 12243.5,-107.894 12257.2,-107.894 12271,-107.894 12284.7,-107.895 12298.4,-107.895 
  12312.1,-107.895 12325.8,-107.895 12339.5,-107.895 12353.3,-107.895 12367,-107.895 12380.7,-107.895 12394.4,-107.895 12408.1,-107.895 12421.9,-107.895 12435.6,-107.895 
  12449.3,-107.895 12463,-107.896 12476.7,-107.896 12490.5,-107.896 12504.2,-107.896 12517.9,-107.896 12531.6,-107.896 12545.3,-107.896 12559,-107.896 12572.8,-107.896 
  12586.5,-107.896 12600.2,-107.896 12613.9,-107.896 12627.6,-107.896 12641.4,-107.896 12655.1,-107.896 12668.8,-107.896 12682.5,-107.896 12696.2,-107.896 12710,-107.896 
  12723.7,-107.896 12737.4,-107.896 12751.1,-107.896 12764.8,-107.896 12778.5,-107.896 12792.3,-107.896 12806,-107.896 12819.7,-107.896 12833.4,-107.896 12847.1,-107.896 
  12860.9,-107.896 12874.6,-107.895 12888.3,-107.895 12902,-107.895 12915.7,-107.895 12929.5,-107.895 12943.2,-107.895 12956.9,-107.895 12970.6,-107.895 12984.3,-107.895 
  12998,-107.895 13011.8,-107.895 13025.5,-107.895 13039.2,-107.895 13052.9,-107.894 13066.6,-107.894 13080.4,-107.894 13094.1,-107.894 13107.8,-107.894 13121.5,-107.894 
  13135.2,-107.894 13149,-107.894 13162.7,-107.894 13176.4,-107.894 13190.1,-107.893 13203.8,-107.893 13217.5,-107.893 13231.3,-107.893 13245,-107.893 13258.7,-107.893 
  13272.4,-107.893 13286.1,-107.893 13299.9,-107.893 13313.6,-107.892 13327.3,-107.892 13341,-107.892 13354.7,-107.892 13368.5,-107.892 13382.2,-107.892 13395.9,-107.892 
  13409.6,-107.892 13423.3,-107.892 13437,-107.891 13450.8,-107.891 13464.5,-107.891 13478.2,-107.891 13491.9,-107.891 13505.6,-107.891 13519.4,-107.891 13533.1,-107.891 
  13546.8,-107.891 13560.5,-107.89 13574.2,-107.89 13588,-107.89 13601.7,-107.89 13615.4,-107.89 13629.1,-107.89 13642.8,-107.89 13656.5,-107.89 13670.3,-107.89 
  13684,-107.89 13697.7,-107.89 13711.4,-107.89 13725.1,-107.89 13738.9,-107.89 13752.6,-107.889 13766.3,-107.889 13780,-107.889 13793.7,-107.889 13807.5,-107.889 
  13821.2,-107.889 13834.9,-107.889 13848.6,-107.889 13862.3,-107.889 13876,-107.889 13889.8,-107.889 13903.5,-107.889 13917.2,-107.89 13930.9,-107.89 13944.6,-107.89 
  
  "/>
<circle clip-path="url(#clip352)" cx="253.906" cy="1404.57" r="14" fill="#009af9" fill-rule="evenodd" fill-opacity="0.3" stroke="#000000" stroke-opacity="0.3" stroke-width="3.2"/>
<circle clip-path="url(#clip352)" cx="265.003" cy="1405.04" r="14" fill="#009af9" fill-rule="evenodd" fill-opacity="0.3" stroke="#000000" stroke-opacity="0.3" stroke-width="3.2"/>
<circle clip-path="url(#clip352)" cx="276.081" cy="1403.73" r="14" fill="#009af9" fill-rule="evenodd" fill-opacity="0.3" stroke="#000000" stroke-opacity="0.3" stroke-width="3.2"/>
<circle clip-path="url(#clip352)" cx="287.178" cy="1401.47" r="14" fill="#009af9" fill-rule="evenodd" fill-opacity="0.3" stroke="#000000" stroke-opacity="0.3" stroke-width="3.2"/>
<circle clip-path="url(#clip352)" cx="298.275" cy="1404.7" r="14" fill="#009af9" fill-rule="evenodd" fill-opacity="0.3" stroke="#000000" stroke-opacity="0.3" stroke-width="3.2"/>
<circle clip-path="url(#clip352)" cx="309.392" cy="1405.93" r="14" fill="#009af9" fill-rule="evenodd" fill-opacity="0.3" stroke="#000000" stroke-opacity="0.3" stroke-width="3.2"/>
<circle clip-path="url(#clip352)" cx="342.703" cy="1402.7" r="14" fill="#009af9" fill-rule="evenodd" fill-opacity="0.3" stroke="#000000" stroke-opacity="0.3" stroke-width="3.2"/>
<circle clip-path="url(#clip352)" cx="353.8" cy="1399.65" r="14" fill="#009af9" fill-rule="evenodd" fill-opacity="0.3" stroke="#000000" stroke-opacity="0.3" stroke-width="3.2"/>
<circle clip-path="url(#clip352)" cx="364.954" cy="1398.43" r="14" fill="#009af9" fill-rule="evenodd" fill-opacity="0.3" stroke="#000000" stroke-opacity="0.3" stroke-width="3.2"/>
<circle clip-path="url(#clip352)" cx="376.051" cy="1385.59" r="14" fill="#009af9" fill-rule="evenodd" fill-opacity="0.3" stroke="#000000" stroke-opacity="0.3" stroke-width="3.2"/>
<circle clip-path="url(#clip352)" cx="387.149" cy="1391.55" r="14" fill="#009af9" fill-rule="evenodd" fill-opacity="0.3" stroke="#000000" stroke-opacity="0.3" stroke-width="3.2"/>
<circle clip-path="url(#clip352)" cx="398.246" cy="1386.33" r="14" fill="#009af9" fill-rule="evenodd" fill-opacity="0.3" stroke="#000000" stroke-opacity="0.3" stroke-width="3.2"/>
<circle clip-path="url(#clip352)" cx="409.362" cy="1376.56" r="14" fill="#009af9" fill-rule="evenodd" fill-opacity="0.3" stroke="#000000" stroke-opacity="0.3" stroke-width="3.2"/>
<circle clip-path="url(#clip352)" cx="420.459" cy="1371.67" r="14" fill="#009af9" fill-rule="evenodd" fill-opacity="0.3" stroke="#000000" stroke-opacity="0.3" stroke-width="3.2"/>
<circle clip-path="url(#clip352)" cx="435.706" cy="1359.86" r="14" fill="#009af9" fill-rule="evenodd" fill-opacity="0.3" stroke="#000000" stroke-opacity="0.3" stroke-width="3.2"/>
<circle clip-path="url(#clip352)" cx="446.67" cy="1342.57" r="14" fill="#009af9" fill-rule="evenodd" fill-opacity="0.3" stroke="#000000" stroke-opacity="0.3" stroke-width="3.2"/>
<circle clip-path="url(#clip352)" cx="457.653" cy="1324.13" r="14" fill="#009af9" fill-rule="evenodd" fill-opacity="0.3" stroke="#000000" stroke-opacity="0.3" stroke-width="3.2"/>
<circle clip-path="url(#clip352)" cx="468.636" cy="1307.02" r="14" fill="#009af9" fill-rule="evenodd" fill-opacity="0.3" stroke="#000000" stroke-opacity="0.3" stroke-width="3.2"/>
<circle clip-path="url(#clip352)" cx="479.6" cy="1286.05" r="14" fill="#009af9" fill-rule="evenodd" fill-opacity="0.3" stroke="#000000" stroke-opacity="0.3" stroke-width="3.2"/>
<circle clip-path="url(#clip352)" cx="490.602" cy="1259.68" r="14" fill="#009af9" fill-rule="evenodd" fill-opacity="0.3" stroke="#000000" stroke-opacity="0.3" stroke-width="3.2"/>
<circle clip-path="url(#clip352)" cx="501.586" cy="1228.97" r="14" fill="#009af9" fill-rule="evenodd" fill-opacity="0.3" stroke="#000000" stroke-opacity="0.3" stroke-width="3.2"/>
<circle clip-path="url(#clip352)" cx="512.569" cy="1202.73" r="14" fill="#009af9" fill-rule="evenodd" fill-opacity="0.3" stroke="#000000" stroke-opacity="0.3" stroke-width="3.2"/>
<circle clip-path="url(#clip352)" cx="523.571" cy="1173.4" r="14" fill="#009af9" fill-rule="evenodd" fill-opacity="0.3" stroke="#000000" stroke-opacity="0.3" stroke-width="3.2"/>
<circle clip-path="url(#clip352)" cx="534.554" cy="1158.06" r="14" fill="#009af9" fill-rule="evenodd" fill-opacity="0.3" stroke="#000000" stroke-opacity="0.3" stroke-width="3.2"/>
<circle clip-path="url(#clip352)" cx="545.575" cy="1136.7" r="14" fill="#009af9" fill-rule="evenodd" fill-opacity="0.3" stroke="#000000" stroke-opacity="0.3" stroke-width="3.2"/>
<circle clip-path="url(#clip352)" cx="556.558" cy="1108.92" r="14" fill="#009af9" fill-rule="evenodd" fill-opacity="0.3" stroke="#000000" stroke-opacity="0.3" stroke-width="3.2"/>
<circle clip-path="url(#clip352)" cx="567.541" cy="1093.85" r="14" fill="#009af9" fill-rule="evenodd" fill-opacity="0.3" stroke="#000000" stroke-opacity="0.3" stroke-width="3.2"/>
<circle clip-path="url(#clip352)" cx="580.199" cy="1073.87" r="14" fill="#009af9" fill-rule="evenodd" fill-opacity="0.3" stroke="#000000" stroke-opacity="0.3" stroke-width="3.2"/>
<circle clip-path="url(#clip352)" cx="596.873" cy="1042.73" r="14" fill="#009af9" fill-rule="evenodd" fill-opacity="0.3" stroke="#000000" stroke-opacity="0.3" stroke-width="3.2"/>
<circle clip-path="url(#clip352)" cx="613.567" cy="1016.57" r="14" fill="#009af9" fill-rule="evenodd" fill-opacity="0.3" stroke="#000000" stroke-opacity="0.3" stroke-width="3.2"/>
<circle clip-path="url(#clip352)" cx="630.26" cy="989.113" r="14" fill="#009af9" fill-rule="evenodd" fill-opacity="0.3" stroke="#000000" stroke-opacity="0.3" stroke-width="3.2"/>
<circle clip-path="url(#clip352)" cx="646.954" cy="964.781" r="14" fill="#009af9" fill-rule="evenodd" fill-opacity="0.3" stroke="#000000" stroke-opacity="0.3" stroke-width="3.2"/>
<circle clip-path="url(#clip352)" cx="663.666" cy="940" r="14" fill="#009af9" fill-rule="evenodd" fill-opacity="0.3" stroke="#000000" stroke-opacity="0.3" stroke-width="3.2"/>
<circle clip-path="url(#clip352)" cx="680.36" cy="919.773" r="14" fill="#009af9" fill-rule="evenodd" fill-opacity="0.3" stroke="#000000" stroke-opacity="0.3" stroke-width="3.2"/>
<circle clip-path="url(#clip352)" cx="697.11" cy="896.633" r="14" fill="#009af9" fill-rule="evenodd" fill-opacity="0.3" stroke="#000000" stroke-opacity="0.3" stroke-width="3.2"/>
<circle clip-path="url(#clip352)" cx="713.804" cy="875.471" r="14" fill="#009af9" fill-rule="evenodd" fill-opacity="0.3" stroke="#000000" stroke-opacity="0.3" stroke-width="3.2"/>
<circle clip-path="url(#clip352)" cx="730.478" cy="855.248" r="14" fill="#009af9" fill-rule="evenodd" fill-opacity="0.3" stroke="#000000" stroke-opacity="0.3" stroke-width="3.2"/>
<circle clip-path="url(#clip352)" cx="747.172" cy="836.061" r="14" fill="#009af9" fill-rule="evenodd" fill-opacity="0.3" stroke="#000000" stroke-opacity="0.3" stroke-width="3.2"/>
<circle clip-path="url(#clip352)" cx="763.846" cy="820.841" r="14" fill="#009af9" fill-rule="evenodd" fill-opacity="0.3" stroke="#000000" stroke-opacity="0.3" stroke-width="3.2"/>
<circle clip-path="url(#clip352)" cx="780.54" cy="797.372" r="14" fill="#009af9" fill-rule="evenodd" fill-opacity="0.3" stroke="#000000" stroke-opacity="0.3" stroke-width="3.2"/>
<circle clip-path="url(#clip352)" cx="797.214" cy="776.522" r="14" fill="#009af9" fill-rule="evenodd" fill-opacity="0.3" stroke="#000000" stroke-opacity="0.3" stroke-width="3.2"/>
<circle clip-path="url(#clip352)" cx="813.946" cy="761.201" r="14" fill="#009af9" fill-rule="evenodd" fill-opacity="0.3" stroke="#000000" stroke-opacity="0.3" stroke-width="3.2"/>
<circle clip-path="url(#clip352)" cx="830.62" cy="734.177" r="14" fill="#009af9" fill-rule="evenodd" fill-opacity="0.3" stroke="#000000" stroke-opacity="0.3" stroke-width="3.2"/>
<circle clip-path="url(#clip352)" cx="847.294" cy="726.61" r="14" fill="#009af9" fill-rule="evenodd" fill-opacity="0.3" stroke="#000000" stroke-opacity="0.3" stroke-width="3.2"/>
<circle clip-path="url(#clip352)" cx="863.931" cy="703.775" r="14" fill="#009af9" fill-rule="evenodd" fill-opacity="0.3" stroke="#000000" stroke-opacity="0.3" stroke-width="3.2"/>
<circle clip-path="url(#clip352)" cx="880.605" cy="687.647" r="14" fill="#009af9" fill-rule="evenodd" fill-opacity="0.3" stroke="#000000" stroke-opacity="0.3" stroke-width="3.2"/>
<circle clip-path="url(#clip352)" cx="897.299" cy="674.425" r="14" fill="#009af9" fill-rule="evenodd" fill-opacity="0.3" stroke="#000000" stroke-opacity="0.3" stroke-width="3.2"/>
<circle clip-path="url(#clip352)" cx="913.973" cy="657.52" r="14" fill="#009af9" fill-rule="evenodd" fill-opacity="0.3" stroke="#000000" stroke-opacity="0.3" stroke-width="3.2"/>
<circle clip-path="url(#clip352)" cx="930.648" cy="641.242" r="14" fill="#009af9" fill-rule="evenodd" fill-opacity="0.3" stroke="#000000" stroke-opacity="0.3" stroke-width="3.2"/>
<circle clip-path="url(#clip352)" cx="947.341" cy="619.504" r="14" fill="#009af9" fill-rule="evenodd" fill-opacity="0.3" stroke="#000000" stroke-opacity="0.3" stroke-width="3.2"/>
<circle clip-path="url(#clip352)" cx="964.073" cy="604.125" r="14" fill="#009af9" fill-rule="evenodd" fill-opacity="0.3" stroke="#000000" stroke-opacity="0.3" stroke-width="3.2"/>
<circle clip-path="url(#clip352)" cx="980.804" cy="593.481" r="14" fill="#009af9" fill-rule="evenodd" fill-opacity="0.3" stroke="#000000" stroke-opacity="0.3" stroke-width="3.2"/>
<circle clip-path="url(#clip352)" cx="997.498" cy="579.947" r="14" fill="#009af9" fill-rule="evenodd" fill-opacity="0.3" stroke="#000000" stroke-opacity="0.3" stroke-width="3.2"/>
<circle clip-path="url(#clip352)" cx="1014.17" cy="562.239" r="14" fill="#009af9" fill-rule="evenodd" fill-opacity="0.3" stroke="#000000" stroke-opacity="0.3" stroke-width="3.2"/>
<circle clip-path="url(#clip352)" cx="1030.87" cy="549.809" r="14" fill="#009af9" fill-rule="evenodd" fill-opacity="0.3" stroke="#000000" stroke-opacity="0.3" stroke-width="3.2"/>
<circle clip-path="url(#clip352)" cx="1047.16" cy="529.764" r="14" fill="#009af9" fill-rule="evenodd" fill-opacity="0.3" stroke="#000000" stroke-opacity="0.3" stroke-width="3.2"/>
<circle clip-path="url(#clip352)" cx="1063.85" cy="517.172" r="14" fill="#009af9" fill-rule="evenodd" fill-opacity="0.3" stroke="#000000" stroke-opacity="0.3" stroke-width="3.2"/>
<circle clip-path="url(#clip352)" cx="1080.55" cy="505.968" r="14" fill="#009af9" fill-rule="evenodd" fill-opacity="0.3" stroke="#000000" stroke-opacity="0.3" stroke-width="3.2"/>
<circle clip-path="url(#clip352)" cx="1097.26" cy="488.18" r="14" fill="#009af9" fill-rule="evenodd" fill-opacity="0.3" stroke="#000000" stroke-opacity="0.3" stroke-width="3.2"/>
<circle clip-path="url(#clip352)" cx="1114.01" cy="474.113" r="14" fill="#009af9" fill-rule="evenodd" fill-opacity="0.3" stroke="#000000" stroke-opacity="0.3" stroke-width="3.2"/>
<circle clip-path="url(#clip352)" cx="1130.72" cy="465.577" r="14" fill="#009af9" fill-rule="evenodd" fill-opacity="0.3" stroke="#000000" stroke-opacity="0.3" stroke-width="3.2"/>
<circle clip-path="url(#clip352)" cx="1147.43" cy="451.442" r="14" fill="#009af9" fill-rule="evenodd" fill-opacity="0.3" stroke="#000000" stroke-opacity="0.3" stroke-width="3.2"/>
<circle clip-path="url(#clip352)" cx="1164.15" cy="438.1" r="14" fill="#009af9" fill-rule="evenodd" fill-opacity="0.3" stroke="#000000" stroke-opacity="0.3" stroke-width="3.2"/>
<circle clip-path="url(#clip352)" cx="1180.86" cy="421.706" r="14" fill="#009af9" fill-rule="evenodd" fill-opacity="0.3" stroke="#000000" stroke-opacity="0.3" stroke-width="3.2"/>
<circle clip-path="url(#clip352)" cx="1197.59" cy="407.074" r="14" fill="#009af9" fill-rule="evenodd" fill-opacity="0.3" stroke="#000000" stroke-opacity="0.3" stroke-width="3.2"/>
<circle clip-path="url(#clip352)" cx="1214.28" cy="393.964" r="14" fill="#009af9" fill-rule="evenodd" fill-opacity="0.3" stroke="#000000" stroke-opacity="0.3" stroke-width="3.2"/>
<circle clip-path="url(#clip352)" cx="1231.02" cy="391.987" r="14" fill="#009af9" fill-rule="evenodd" fill-opacity="0.3" stroke="#000000" stroke-opacity="0.3" stroke-width="3.2"/>
<circle clip-path="url(#clip352)" cx="1247.75" cy="376.421" r="14" fill="#009af9" fill-rule="evenodd" fill-opacity="0.3" stroke="#000000" stroke-opacity="0.3" stroke-width="3.2"/>
<circle clip-path="url(#clip352)" cx="1264.48" cy="366.352" r="14" fill="#009af9" fill-rule="evenodd" fill-opacity="0.3" stroke="#000000" stroke-opacity="0.3" stroke-width="3.2"/>
<circle clip-path="url(#clip352)" cx="1281.25" cy="346.084" r="14" fill="#009af9" fill-rule="evenodd" fill-opacity="0.3" stroke="#000000" stroke-opacity="0.3" stroke-width="3.2"/>
<circle clip-path="url(#clip352)" cx="1297.98" cy="340.128" r="14" fill="#009af9" fill-rule="evenodd" fill-opacity="0.3" stroke="#000000" stroke-opacity="0.3" stroke-width="3.2"/>
<circle clip-path="url(#clip352)" cx="1314.69" cy="331.208" r="14" fill="#009af9" fill-rule="evenodd" fill-opacity="0.3" stroke="#000000" stroke-opacity="0.3" stroke-width="3.2"/>
<circle clip-path="url(#clip352)" cx="1331.42" cy="313.604" r="14" fill="#009af9" fill-rule="evenodd" fill-opacity="0.3" stroke="#000000" stroke-opacity="0.3" stroke-width="3.2"/>
<circle clip-path="url(#clip352)" cx="1348.14" cy="305.36" r="14" fill="#009af9" fill-rule="evenodd" fill-opacity="0.3" stroke="#000000" stroke-opacity="0.3" stroke-width="3.2"/>
<circle clip-path="url(#clip352)" cx="1364.85" cy="297.089" r="14" fill="#009af9" fill-rule="evenodd" fill-opacity="0.3" stroke="#000000" stroke-opacity="0.3" stroke-width="3.2"/>
<circle clip-path="url(#clip352)" cx="1381.56" cy="292.574" r="14" fill="#009af9" fill-rule="evenodd" fill-opacity="0.3" stroke="#000000" stroke-opacity="0.3" stroke-width="3.2"/>
<circle clip-path="url(#clip352)" cx="1401.74" cy="297.359" r="14" fill="#009af9" fill-rule="evenodd" fill-opacity="0.3" stroke="#000000" stroke-opacity="0.3" stroke-width="3.2"/>
<circle clip-path="url(#clip352)" cx="1423.57" cy="287.702" r="14" fill="#009af9" fill-rule="evenodd" fill-opacity="0.3" stroke="#000000" stroke-opacity="0.3" stroke-width="3.2"/>
<circle clip-path="url(#clip352)" cx="1446.87" cy="279.132" r="14" fill="#009af9" fill-rule="evenodd" fill-opacity="0.3" stroke="#000000" stroke-opacity="0.3" stroke-width="3.2"/>
<circle clip-path="url(#clip352)" cx="1470.15" cy="270.036" r="14" fill="#009af9" fill-rule="evenodd" fill-opacity="0.3" stroke="#000000" stroke-opacity="0.3" stroke-width="3.2"/>
<circle clip-path="url(#clip352)" cx="1493.41" cy="246.513" r="14" fill="#009af9" fill-rule="evenodd" fill-opacity="0.3" stroke="#000000" stroke-opacity="0.3" stroke-width="3.2"/>
<circle clip-path="url(#clip352)" cx="1516.67" cy="238.514" r="14" fill="#009af9" fill-rule="evenodd" fill-opacity="0.3" stroke="#000000" stroke-opacity="0.3" stroke-width="3.2"/>
<circle clip-path="url(#clip352)" cx="1539.95" cy="226.528" r="14" fill="#009af9" fill-rule="evenodd" fill-opacity="0.3" stroke="#000000" stroke-opacity="0.3" stroke-width="3.2"/>
<circle clip-path="url(#clip352)" cx="1563.21" cy="213.883" r="14" fill="#009af9" fill-rule="evenodd" fill-opacity="0.3" stroke="#000000" stroke-opacity="0.3" stroke-width="3.2"/>
<circle clip-path="url(#clip352)" cx="1586.53" cy="199.048" r="14" fill="#009af9" fill-rule="evenodd" fill-opacity="0.3" stroke="#000000" stroke-opacity="0.3" stroke-width="3.2"/>
<circle clip-path="url(#clip352)" cx="1609.79" cy="199.814" r="14" fill="#009af9" fill-rule="evenodd" fill-opacity="0.3" stroke="#000000" stroke-opacity="0.3" stroke-width="3.2"/>
<circle clip-path="url(#clip352)" cx="1633.05" cy="175.891" r="14" fill="#009af9" fill-rule="evenodd" fill-opacity="0.3" stroke="#000000" stroke-opacity="0.3" stroke-width="3.2"/>
<circle clip-path="url(#clip352)" cx="1656.33" cy="163.123" r="14" fill="#009af9" fill-rule="evenodd" fill-opacity="0.3" stroke="#000000" stroke-opacity="0.3" stroke-width="3.2"/>
<circle clip-path="url(#clip352)" cx="1679.57" cy="142.956" r="14" fill="#009af9" fill-rule="evenodd" fill-opacity="0.3" stroke="#000000" stroke-opacity="0.3" stroke-width="3.2"/>
<circle clip-path="url(#clip352)" cx="1702.83" cy="142.194" r="14" fill="#009af9" fill-rule="evenodd" fill-opacity="0.3" stroke="#000000" stroke-opacity="0.3" stroke-width="3.2"/>
<circle clip-path="url(#clip352)" cx="1726.09" cy="138.279" r="14" fill="#009af9" fill-rule="evenodd" fill-opacity="0.3" stroke="#000000" stroke-opacity="0.3" stroke-width="3.2"/>
<circle clip-path="url(#clip352)" cx="1749.35" cy="133.662" r="14" fill="#009af9" fill-rule="evenodd" fill-opacity="0.3" stroke="#000000" stroke-opacity="0.3" stroke-width="3.2"/>
<circle clip-path="url(#clip352)" cx="1772.59" cy="128.457" r="14" fill="#009af9" fill-rule="evenodd" fill-opacity="0.3" stroke="#000000" stroke-opacity="0.3" stroke-width="3.2"/>
<circle clip-path="url(#clip352)" cx="1795.89" cy="126.873" r="14" fill="#009af9" fill-rule="evenodd" fill-opacity="0.3" stroke="#000000" stroke-opacity="0.3" stroke-width="3.2"/>
<circle clip-path="url(#clip352)" cx="1819.13" cy="99.5267" r="14" fill="#009af9" fill-rule="evenodd" fill-opacity="0.3" stroke="#000000" stroke-opacity="0.3" stroke-width="3.2"/>
<circle clip-path="url(#clip352)" cx="1842.41" cy="71.199" r="14" fill="#009af9" fill-rule="evenodd" fill-opacity="0.3" stroke="#000000" stroke-opacity="0.3" stroke-width="3.2"/>
<circle clip-path="url(#clip352)" cx="1865.67" cy="64.301" r="14" fill="#009af9" fill-rule="evenodd" fill-opacity="0.3" stroke="#000000" stroke-opacity="0.3" stroke-width="3.2"/>
<circle clip-path="url(#clip352)" cx="1888.93" cy="77.9383" r="14" fill="#009af9" fill-rule="evenodd" fill-opacity="0.3" stroke="#000000" stroke-opacity="0.3" stroke-width="3.2"/>
<path clip-path="url(#clip350)" d="
M1673.64 1361.45 L1895.65 1361.45 L1895.65 1240.49 L1673.64 1240.49  Z
  " fill="#ffffff" fill-rule="evenodd" fill-opacity="1"/>
<polyline clip-path="url(#clip350)" style="stroke:#000000; stroke-width:4; stroke-opacity:1; fill:none" points="
  1673.64,1361.45 1895.65,1361.45 1895.65,1240.49 1673.64,1240.49 1673.64,1361.45 
  "/>
<polyline clip-path="url(#clip350)" style="stroke:#009af9; stroke-width:4; stroke-opacity:1; fill:none" points="
  1692.67,1300.97 1806.88,1300.97 
  "/>
<path clip-path="url(#clip350)" d="M 0 0 M1841.75 1288.29 L1835.41 1305.49 L1848.11 1305.49 L1841.75 1288.29 M1839.11 1283.69 L1844.41 1283.69 L1857.58 1318.25 L1852.72 1318.25 L1849.57 1309.38 L1833.99 1309.38 L1830.85 1318.25 L1825.92 1318.25 L1839.11 1283.69 Z" fill="#000000" fill-rule="evenodd" fill-opacity="1" /></svg>
