<?xml version="1.0" encoding="utf-8"?>
<svg xmlns="http://www.w3.org/2000/svg" xmlns:xlink="http://www.w3.org/1999/xlink" width="500" height="400" viewBox="0 0 2000 1600">
<defs>
  <clipPath id="clip670">
    <rect x="0" y="0" width="2000" height="1600"/>
  </clipPath>
</defs>
<path clip-path="url(#clip670)" d="
M0 1600 L2000 1600 L2000 0 L0 0  Z
  " fill="#ffffff" fill-rule="evenodd" fill-opacity="1"/>
<defs>
  <clipPath id="clip671">
    <rect x="400" y="0" width="1401" height="1401"/>
  </clipPath>
</defs>
<path clip-path="url(#clip670)" d="
M239.629 1406.76 L1952.76 1406.76 L1952.76 47.2441 L239.629 47.2441  Z
  " fill="#ffffff" fill-rule="evenodd" fill-opacity="1"/>
<defs>
  <clipPath id="clip672">
    <rect x="239" y="47" width="1714" height="1361"/>
  </clipPath>
</defs>
<polyline clip-path="url(#clip672)" style="stroke:#000000; stroke-width:2; stroke-opacity:0.1; fill:none" points="
  239.629,1406.76 239.629,47.2441 
  "/>
<polyline clip-path="url(#clip672)" style="stroke:#000000; stroke-width:2; stroke-opacity:0.1; fill:none" points="
  582.255,1406.76 582.255,47.2441 
  "/>
<polyline clip-path="url(#clip672)" style="stroke:#000000; stroke-width:2; stroke-opacity:0.1; fill:none" points="
  924.88,1406.76 924.88,47.2441 
  "/>
<polyline clip-path="url(#clip672)" style="stroke:#000000; stroke-width:2; stroke-opacity:0.1; fill:none" points="
  1267.51,1406.76 1267.51,47.2441 
  "/>
<polyline clip-path="url(#clip672)" style="stroke:#000000; stroke-width:2; stroke-opacity:0.1; fill:none" points="
  1610.13,1406.76 1610.13,47.2441 
  "/>
<polyline clip-path="url(#clip672)" style="stroke:#000000; stroke-width:2; stroke-opacity:0.1; fill:none" points="
  1952.76,1406.76 1952.76,47.2441 
  "/>
<polyline clip-path="url(#clip670)" style="stroke:#000000; stroke-width:4; stroke-opacity:1; fill:none" points="
  239.629,1406.76 1952.76,1406.76 
  "/>
<polyline clip-path="url(#clip670)" style="stroke:#000000; stroke-width:4; stroke-opacity:1; fill:none" points="
  239.629,1406.76 239.629,1390.45 
  "/>
<polyline clip-path="url(#clip670)" style="stroke:#000000; stroke-width:4; stroke-opacity:1; fill:none" points="
  582.255,1406.76 582.255,1390.45 
  "/>
<polyline clip-path="url(#clip670)" style="stroke:#000000; stroke-width:4; stroke-opacity:1; fill:none" points="
  924.88,1406.76 924.88,1390.45 
  "/>
<polyline clip-path="url(#clip670)" style="stroke:#000000; stroke-width:4; stroke-opacity:1; fill:none" points="
  1267.51,1406.76 1267.51,1390.45 
  "/>
<polyline clip-path="url(#clip670)" style="stroke:#000000; stroke-width:4; stroke-opacity:1; fill:none" points="
  1610.13,1406.76 1610.13,1390.45 
  "/>
<polyline clip-path="url(#clip670)" style="stroke:#000000; stroke-width:4; stroke-opacity:1; fill:none" points="
  1952.76,1406.76 1952.76,1390.45 
  "/>
<path clip-path="url(#clip670)" d="M 0 0 M239.629 1432.75 Q236.018 1432.75 234.19 1436.32 Q232.384 1439.86 232.384 1446.99 Q232.384 1454.1 234.19 1457.66 Q236.018 1461.2 239.629 1461.2 Q243.264 1461.2 245.069 1457.66 Q246.898 1454.1 246.898 1446.99 Q246.898 1439.86 245.069 1436.32 Q243.264 1432.75 239.629 1432.75 M239.629 1429.05 Q245.44 1429.05 248.495 1433.66 Q251.574 1438.24 251.574 1446.99 Q251.574 1455.72 248.495 1460.32 Q245.44 1464.91 239.629 1464.91 Q233.819 1464.91 230.741 1460.32 Q227.685 1455.72 227.685 1446.99 Q227.685 1438.24 230.741 1433.66 Q233.819 1429.05 239.629 1429.05 Z" fill="#000000" fill-rule="evenodd" fill-opacity="1" /><path clip-path="url(#clip670)" d="M 0 0 M556.942 1460.3 L564.581 1460.3 L564.581 1433.94 L556.271 1435.6 L556.271 1431.34 L564.535 1429.68 L569.211 1429.68 L569.211 1460.3 L576.85 1460.3 L576.85 1464.24 L556.942 1464.24 L556.942 1460.3 Z" fill="#000000" fill-rule="evenodd" fill-opacity="1" /><path clip-path="url(#clip670)" d="M 0 0 M596.294 1432.75 Q592.683 1432.75 590.854 1436.32 Q589.049 1439.86 589.049 1446.99 Q589.049 1454.1 590.854 1457.66 Q592.683 1461.2 596.294 1461.2 Q599.928 1461.2 601.734 1457.66 Q603.562 1454.1 603.562 1446.99 Q603.562 1439.86 601.734 1436.32 Q599.928 1432.75 596.294 1432.75 M596.294 1429.05 Q602.104 1429.05 605.16 1433.66 Q608.238 1438.24 608.238 1446.99 Q608.238 1455.72 605.16 1460.32 Q602.104 1464.91 596.294 1464.91 Q590.484 1464.91 587.405 1460.32 Q584.35 1455.72 584.35 1446.99 Q584.35 1438.24 587.405 1433.66 Q590.484 1429.05 596.294 1429.05 Z" fill="#000000" fill-rule="evenodd" fill-opacity="1" /><path clip-path="url(#clip670)" d="M 0 0 M903.653 1460.3 L919.973 1460.3 L919.973 1464.24 L898.028 1464.24 L898.028 1460.3 Q900.69 1457.55 905.274 1452.92 Q909.88 1448.26 911.061 1446.92 Q913.306 1444.4 914.186 1442.66 Q915.088 1440.9 915.088 1439.21 Q915.088 1436.46 913.144 1434.72 Q911.223 1432.99 908.121 1432.99 Q905.922 1432.99 903.468 1433.75 Q901.038 1434.51 898.26 1436.06 L898.26 1431.34 Q901.084 1430.21 903.538 1429.63 Q905.991 1429.05 908.028 1429.05 Q913.399 1429.05 916.593 1431.74 Q919.787 1434.42 919.787 1438.91 Q919.787 1441.04 918.977 1442.96 Q918.19 1444.86 916.084 1447.45 Q915.505 1448.12 912.403 1451.34 Q909.301 1454.54 903.653 1460.3 Z" fill="#000000" fill-rule="evenodd" fill-opacity="1" /><path clip-path="url(#clip670)" d="M 0 0 M939.787 1432.75 Q936.176 1432.75 934.348 1436.32 Q932.542 1439.86 932.542 1446.99 Q932.542 1454.1 934.348 1457.66 Q936.176 1461.2 939.787 1461.2 Q943.422 1461.2 945.227 1457.66 Q947.056 1454.1 947.056 1446.99 Q947.056 1439.86 945.227 1436.32 Q943.422 1432.75 939.787 1432.75 M939.787 1429.05 Q945.598 1429.05 948.653 1433.66 Q951.732 1438.24 951.732 1446.99 Q951.732 1455.72 948.653 1460.32 Q945.598 1464.91 939.787 1464.91 Q933.977 1464.91 930.899 1460.32 Q927.843 1455.72 927.843 1446.99 Q927.843 1438.24 930.899 1433.66 Q933.977 1429.05 939.787 1429.05 Z" fill="#000000" fill-rule="evenodd" fill-opacity="1" /><path clip-path="url(#clip670)" d="M 0 0 M1256.35 1445.6 Q1259.7 1446.32 1261.58 1448.59 Q1263.48 1450.86 1263.48 1454.19 Q1263.48 1459.31 1259.96 1462.11 Q1256.44 1464.91 1249.96 1464.91 Q1247.78 1464.91 1245.47 1464.47 Q1243.18 1464.05 1240.72 1463.19 L1240.72 1458.68 Q1242.67 1459.81 1244.98 1460.39 Q1247.3 1460.97 1249.82 1460.97 Q1254.22 1460.97 1256.51 1459.24 Q1258.82 1457.5 1258.82 1454.19 Q1258.82 1451.13 1256.67 1449.42 Q1254.54 1447.69 1250.72 1447.69 L1246.7 1447.69 L1246.7 1443.84 L1250.91 1443.84 Q1254.36 1443.84 1256.19 1442.48 Q1258.01 1441.09 1258.01 1438.5 Q1258.01 1435.83 1256.12 1434.42 Q1254.24 1432.99 1250.72 1432.99 Q1248.8 1432.99 1246.6 1433.4 Q1244.4 1433.82 1241.76 1434.7 L1241.76 1430.53 Q1244.43 1429.79 1246.74 1429.42 Q1249.08 1429.05 1251.14 1429.05 Q1256.46 1429.05 1259.57 1431.48 Q1262.67 1433.89 1262.67 1438.01 Q1262.67 1440.88 1261.02 1442.87 Q1259.38 1444.84 1256.35 1445.6 Z" fill="#000000" fill-rule="evenodd" fill-opacity="1" /><path clip-path="url(#clip670)" d="M 0 0 M1282.34 1432.75 Q1278.73 1432.75 1276.9 1436.32 Q1275.1 1439.86 1275.1 1446.99 Q1275.1 1454.1 1276.9 1457.66 Q1278.73 1461.2 1282.34 1461.2 Q1285.98 1461.2 1287.78 1457.66 Q1289.61 1454.1 1289.61 1446.99 Q1289.61 1439.86 1287.78 1436.32 Q1285.98 1432.75 1282.34 1432.75 M1282.34 1429.05 Q1288.15 1429.05 1291.21 1433.66 Q1294.29 1438.24 1294.29 1446.99 Q1294.29 1455.72 1291.21 1460.32 Q1288.15 1464.91 1282.34 1464.91 Q1276.53 1464.91 1273.45 1460.32 Q1270.4 1455.72 1270.4 1446.99 Q1270.4 1438.24 1273.45 1433.66 Q1276.53 1429.05 1282.34 1429.05 Z" fill="#000000" fill-rule="evenodd" fill-opacity="1" /><path clip-path="url(#clip670)" d="M 0 0 M1598.3 1433.75 L1586.5 1452.2 L1598.3 1452.2 L1598.3 1433.75 M1597.08 1429.68 L1602.95 1429.68 L1602.95 1452.2 L1607.89 1452.2 L1607.89 1456.09 L1602.95 1456.09 L1602.95 1464.24 L1598.3 1464.24 L1598.3 1456.09 L1582.7 1456.09 L1582.7 1451.57 L1597.08 1429.68 Z" fill="#000000" fill-rule="evenodd" fill-opacity="1" /><path clip-path="url(#clip670)" d="M 0 0 M1625.62 1432.75 Q1622.01 1432.75 1620.18 1436.32 Q1618.37 1439.86 1618.37 1446.99 Q1618.37 1454.1 1620.18 1457.66 Q1622.01 1461.2 1625.62 1461.2 Q1629.25 1461.2 1631.06 1457.66 Q1632.89 1454.1 1632.89 1446.99 Q1632.89 1439.86 1631.06 1436.32 Q1629.25 1432.75 1625.62 1432.75 M1625.62 1429.05 Q1631.43 1429.05 1634.48 1433.66 Q1637.56 1438.24 1637.56 1446.99 Q1637.56 1455.72 1634.48 1460.32 Q1631.43 1464.91 1625.62 1464.91 Q1619.81 1464.91 1616.73 1460.32 Q1613.67 1455.72 1613.67 1446.99 Q1613.67 1438.24 1616.73 1433.66 Q1619.81 1429.05 1625.62 1429.05 Z" fill="#000000" fill-rule="evenodd" fill-opacity="1" /><path clip-path="url(#clip670)" d="M 0 0 M1927.46 1429.68 L1945.81 1429.68 L1945.81 1433.61 L1931.74 1433.61 L1931.74 1442.08 Q1932.76 1441.74 1933.77 1441.57 Q1934.79 1441.39 1935.81 1441.39 Q1941.6 1441.39 1944.98 1444.56 Q1948.36 1447.73 1948.36 1453.15 Q1948.36 1458.73 1944.89 1461.83 Q1941.41 1464.91 1935.09 1464.91 Q1932.92 1464.91 1930.65 1464.54 Q1928.4 1464.17 1926 1463.43 L1926 1458.73 Q1928.08 1459.86 1930.3 1460.42 Q1932.52 1460.97 1935 1460.97 Q1939.01 1460.97 1941.34 1458.87 Q1943.68 1456.76 1943.68 1453.15 Q1943.68 1449.54 1941.34 1447.43 Q1939.01 1445.32 1935 1445.32 Q1933.13 1445.32 1931.25 1445.74 Q1929.4 1446.16 1927.46 1447.04 L1927.46 1429.68 Z" fill="#000000" fill-rule="evenodd" fill-opacity="1" /><path clip-path="url(#clip670)" d="M 0 0 M1967.57 1432.75 Q1963.96 1432.75 1962.13 1436.32 Q1960.33 1439.86 1960.33 1446.99 Q1960.33 1454.1 1962.13 1457.66 Q1963.96 1461.2 1967.57 1461.2 Q1971.2 1461.2 1973.01 1457.66 Q1974.84 1454.1 1974.84 1446.99 Q1974.84 1439.86 1973.01 1436.32 Q1971.2 1432.75 1967.57 1432.75 M1967.57 1429.05 Q1973.38 1429.05 1976.44 1433.66 Q1979.52 1438.24 1979.52 1446.99 Q1979.52 1455.72 1976.44 1460.32 Q1973.38 1464.91 1967.57 1464.91 Q1961.76 1464.91 1958.68 1460.32 Q1955.63 1455.72 1955.63 1446.99 Q1955.63 1438.24 1958.68 1433.66 Q1961.76 1429.05 1967.57 1429.05 Z" fill="#000000" fill-rule="evenodd" fill-opacity="1" /><path clip-path="url(#clip670)" d="M 0 0 M949.288 1498.11 L989.488 1498.11 L989.488 1503.52 L972.618 1503.52 L972.618 1545.63 L966.157 1545.63 L966.157 1503.52 L949.288 1503.52 L949.288 1498.11 Z" fill="#000000" fill-rule="evenodd" fill-opacity="1" /><path clip-path="url(#clip670)" d="M 0 0 M993.434 1509.98 L999.291 1509.98 L999.291 1545.63 L993.434 1545.63 L993.434 1509.98 M993.434 1496.1 L999.291 1496.1 L999.291 1503.52 L993.434 1503.52 L993.434 1496.1 Z" fill="#000000" fill-rule="evenodd" fill-opacity="1" /><path clip-path="url(#clip670)" d="M 0 0 M1039.3 1516.82 Q1041.5 1512.88 1044.55 1511 Q1047.61 1509.12 1051.74 1509.12 Q1057.31 1509.12 1060.34 1513.04 Q1063.36 1516.92 1063.36 1524.11 L1063.36 1545.63 L1057.47 1545.63 L1057.47 1524.3 Q1057.47 1519.18 1055.66 1516.7 Q1053.84 1514.21 1050.12 1514.21 Q1045.57 1514.21 1042.93 1517.24 Q1040.29 1520.26 1040.29 1525.48 L1040.29 1545.63 L1034.4 1545.63 L1034.4 1524.3 Q1034.4 1519.15 1032.58 1516.7 Q1030.77 1514.21 1026.98 1514.21 Q1022.49 1514.21 1019.85 1517.27 Q1017.21 1520.29 1017.21 1525.48 L1017.21 1545.63 L1011.32 1545.63 L1011.32 1509.98 L1017.21 1509.98 L1017.21 1515.52 Q1019.22 1512.24 1022.02 1510.68 Q1024.82 1509.12 1028.67 1509.12 Q1032.55 1509.12 1035.26 1511.09 Q1037.99 1513.07 1039.3 1516.82 Z" fill="#000000" fill-rule="evenodd" fill-opacity="1" /><path clip-path="url(#clip670)" d="M 0 0 M1105.53 1526.34 L1105.53 1529.2 L1078.61 1529.2 Q1078.99 1535.25 1082.24 1538.43 Q1085.51 1541.59 1091.34 1541.59 Q1094.71 1541.59 1097.86 1540.76 Q1101.05 1539.93 1104.17 1538.28 L1104.17 1543.81 Q1101.01 1545.15 1097.7 1545.85 Q1094.39 1546.55 1090.99 1546.55 Q1082.46 1546.55 1077.46 1541.59 Q1072.5 1536.62 1072.5 1528.15 Q1072.5 1519.4 1077.21 1514.28 Q1081.95 1509.12 1089.97 1509.12 Q1097.16 1509.12 1101.33 1513.77 Q1105.53 1518.38 1105.53 1526.34 M1099.68 1524.62 Q1099.61 1519.81 1096.97 1516.95 Q1094.36 1514.09 1090.03 1514.09 Q1085.13 1514.09 1082.17 1516.85 Q1079.24 1519.62 1078.8 1524.65 L1099.68 1524.62 Z" fill="#000000" fill-rule="evenodd" fill-opacity="1" /><path clip-path="url(#clip670)" d="M 0 0 M1149.94 1496.17 Q1145.67 1503.49 1143.6 1510.65 Q1141.53 1517.81 1141.53 1525.16 Q1141.53 1532.51 1143.6 1539.74 Q1145.7 1546.93 1149.94 1554.22 L1144.84 1554.22 Q1140.07 1546.74 1137.68 1539.52 Q1135.33 1532.29 1135.33 1525.16 Q1135.33 1518.06 1137.68 1510.87 Q1140.04 1503.68 1144.84 1496.17 L1149.94 1496.17 Z" fill="#000000" fill-rule="evenodd" fill-opacity="1" /><path clip-path="url(#clip670)" d="M 0 0 M1190.93 1524.11 L1190.93 1545.63 L1185.07 1545.63 L1185.07 1524.3 Q1185.07 1519.24 1183.1 1516.73 Q1181.13 1514.21 1177.18 1514.21 Q1172.44 1514.21 1169.7 1517.24 Q1166.96 1520.26 1166.96 1525.48 L1166.96 1545.63 L1161.08 1545.63 L1161.08 1496.1 L1166.96 1496.1 L1166.96 1515.52 Q1169.06 1512.3 1171.9 1510.71 Q1174.76 1509.12 1178.49 1509.12 Q1184.63 1509.12 1187.78 1512.94 Q1190.93 1516.73 1190.93 1524.11 Z" fill="#000000" fill-rule="evenodd" fill-opacity="1" /><path clip-path="url(#clip670)" d="M 0 0 M1223.27 1515.45 Q1222.28 1514.88 1221.1 1514.63 Q1219.96 1514.34 1218.56 1514.34 Q1213.59 1514.34 1210.92 1517.59 Q1208.28 1520.8 1208.28 1526.85 L1208.28 1545.63 L1202.39 1545.63 L1202.39 1509.98 L1208.28 1509.98 L1208.28 1515.52 Q1210.12 1512.27 1213.08 1510.71 Q1216.04 1509.12 1220.28 1509.12 Q1220.88 1509.12 1221.61 1509.22 Q1222.35 1509.28 1223.24 1509.44 L1223.27 1515.45 Z" fill="#000000" fill-rule="evenodd" fill-opacity="1" /><path clip-path="url(#clip670)" d="M 0 0 M1228.49 1496.17 L1233.58 1496.17 Q1238.35 1503.68 1240.71 1510.87 Q1243.1 1518.06 1243.1 1525.16 Q1243.1 1532.29 1240.71 1539.52 Q1238.35 1546.74 1233.58 1554.22 L1228.49 1554.22 Q1232.72 1546.93 1234.79 1539.74 Q1236.89 1532.51 1236.89 1525.16 Q1236.89 1517.81 1234.79 1510.65 Q1232.72 1503.49 1228.49 1496.17 Z" fill="#000000" fill-rule="evenodd" fill-opacity="1" /><polyline clip-path="url(#clip672)" style="stroke:#000000; stroke-width:2; stroke-opacity:0.1; fill:none" points="
  239.629,1406.76 1952.76,1406.76 
  "/>
<polyline clip-path="url(#clip672)" style="stroke:#000000; stroke-width:2; stroke-opacity:0.1; fill:none" points="
  239.629,1212.55 1952.76,1212.55 
  "/>
<polyline clip-path="url(#clip672)" style="stroke:#000000; stroke-width:2; stroke-opacity:0.1; fill:none" points="
  239.629,1018.33 1952.76,1018.33 
  "/>
<polyline clip-path="url(#clip672)" style="stroke:#000000; stroke-width:2; stroke-opacity:0.1; fill:none" points="
  239.629,824.113 1952.76,824.113 
  "/>
<polyline clip-path="url(#clip672)" style="stroke:#000000; stroke-width:2; stroke-opacity:0.1; fill:none" points="
  239.629,629.895 1952.76,629.895 
  "/>
<polyline clip-path="url(#clip672)" style="stroke:#000000; stroke-width:2; stroke-opacity:0.1; fill:none" points="
  239.629,435.678 1952.76,435.678 
  "/>
<polyline clip-path="url(#clip672)" style="stroke:#000000; stroke-width:2; stroke-opacity:0.1; fill:none" points="
  239.629,241.461 1952.76,241.461 
  "/>
<polyline clip-path="url(#clip672)" style="stroke:#000000; stroke-width:2; stroke-opacity:0.1; fill:none" points="
  239.629,47.2441 1952.76,47.2441 
  "/>
<polyline clip-path="url(#clip670)" style="stroke:#000000; stroke-width:4; stroke-opacity:1; fill:none" points="
  239.629,1406.76 239.629,47.2441 
  "/>
<polyline clip-path="url(#clip670)" style="stroke:#000000; stroke-width:4; stroke-opacity:1; fill:none" points="
  239.629,1406.76 260.187,1406.76 
  "/>
<polyline clip-path="url(#clip670)" style="stroke:#000000; stroke-width:4; stroke-opacity:1; fill:none" points="
  239.629,1212.55 260.187,1212.55 
  "/>
<polyline clip-path="url(#clip670)" style="stroke:#000000; stroke-width:4; stroke-opacity:1; fill:none" points="
  239.629,1018.33 260.187,1018.33 
  "/>
<polyline clip-path="url(#clip670)" style="stroke:#000000; stroke-width:4; stroke-opacity:1; fill:none" points="
  239.629,824.113 260.187,824.113 
  "/>
<polyline clip-path="url(#clip670)" style="stroke:#000000; stroke-width:4; stroke-opacity:1; fill:none" points="
  239.629,629.895 260.187,629.895 
  "/>
<polyline clip-path="url(#clip670)" style="stroke:#000000; stroke-width:4; stroke-opacity:1; fill:none" points="
  239.629,435.678 260.187,435.678 
  "/>
<polyline clip-path="url(#clip670)" style="stroke:#000000; stroke-width:4; stroke-opacity:1; fill:none" points="
  239.629,241.461 260.187,241.461 
  "/>
<polyline clip-path="url(#clip670)" style="stroke:#000000; stroke-width:4; stroke-opacity:1; fill:none" points="
  239.629,47.2441 260.187,47.2441 
  "/>
<path clip-path="url(#clip670)" d="M 0 0 M197.685 1392.56 Q194.074 1392.56 192.245 1396.13 Q190.44 1399.67 190.44 1406.8 Q190.44 1413.91 192.245 1417.47 Q194.074 1421.01 197.685 1421.01 Q201.319 1421.01 203.125 1417.47 Q204.954 1413.91 204.954 1406.8 Q204.954 1399.67 203.125 1396.13 Q201.319 1392.56 197.685 1392.56 M197.685 1388.86 Q203.495 1388.86 206.551 1393.47 Q209.629 1398.05 209.629 1406.8 Q209.629 1415.53 206.551 1420.13 Q203.495 1424.72 197.685 1424.72 Q191.875 1424.72 188.796 1420.13 Q185.741 1415.53 185.741 1406.8 Q185.741 1398.05 188.796 1393.47 Q191.875 1388.86 197.685 1388.86 Z" fill="#000000" fill-rule="evenodd" fill-opacity="1" /><path clip-path="url(#clip670)" d="M 0 0 M171.69 1211.19 Q175.046 1211.91 176.921 1214.18 Q178.819 1216.45 178.819 1219.78 Q178.819 1224.9 175.301 1227.7 Q171.782 1230.5 165.301 1230.5 Q163.125 1230.5 160.81 1230.06 Q158.519 1229.64 156.065 1228.79 L156.065 1224.27 Q158.009 1225.41 160.324 1225.98 Q162.639 1226.56 165.162 1226.56 Q169.56 1226.56 171.852 1224.83 Q174.167 1223.09 174.167 1219.78 Q174.167 1216.72 172.014 1215.01 Q169.884 1213.28 166.065 1213.28 L162.037 1213.28 L162.037 1209.43 L166.25 1209.43 Q169.699 1209.43 171.528 1208.07 Q173.356 1206.68 173.356 1204.09 Q173.356 1201.42 171.458 1200.01 Q169.583 1198.58 166.065 1198.58 Q164.144 1198.58 161.945 1198.99 Q159.745 1199.41 157.107 1200.29 L157.107 1196.12 Q159.769 1195.38 162.083 1195.01 Q164.421 1194.64 166.482 1194.64 Q171.806 1194.64 174.907 1197.07 Q178.009 1199.48 178.009 1203.6 Q178.009 1206.47 176.366 1208.46 Q174.722 1210.43 171.69 1211.19 Z" fill="#000000" fill-rule="evenodd" fill-opacity="1" /><path clip-path="url(#clip670)" d="M 0 0 M197.685 1198.35 Q194.074 1198.35 192.245 1201.91 Q190.44 1205.45 190.44 1212.58 Q190.44 1219.69 192.245 1223.25 Q194.074 1226.79 197.685 1226.79 Q201.319 1226.79 203.125 1223.25 Q204.954 1219.69 204.954 1212.58 Q204.954 1205.45 203.125 1201.91 Q201.319 1198.35 197.685 1198.35 M197.685 1194.64 Q203.495 1194.64 206.551 1199.25 Q209.629 1203.83 209.629 1212.58 Q209.629 1221.31 206.551 1225.91 Q203.495 1230.5 197.685 1230.5 Q191.875 1230.5 188.796 1225.91 Q185.741 1221.31 185.741 1212.58 Q185.741 1203.83 188.796 1199.25 Q191.875 1194.64 197.685 1194.64 Z" fill="#000000" fill-rule="evenodd" fill-opacity="1" /><path clip-path="url(#clip670)" d="M 0 0 M168.102 1016.47 Q164.954 1016.47 163.102 1018.62 Q161.273 1020.77 161.273 1024.52 Q161.273 1028.25 163.102 1030.42 Q164.954 1032.58 168.102 1032.58 Q171.25 1032.58 173.079 1030.42 Q174.931 1028.25 174.931 1024.52 Q174.931 1020.77 173.079 1018.62 Q171.25 1016.47 168.102 1016.47 M177.384 1001.81 L177.384 1006.07 Q175.625 1005.24 173.819 1004.8 Q172.037 1004.36 170.278 1004.36 Q165.648 1004.36 163.195 1007.48 Q160.764 1010.61 160.417 1016.93 Q161.782 1014.92 163.843 1013.85 Q165.903 1012.76 168.38 1012.76 Q173.588 1012.76 176.597 1015.93 Q179.63 1019.08 179.63 1024.52 Q179.63 1029.85 176.481 1033.06 Q173.333 1036.28 168.102 1036.28 Q162.107 1036.28 158.935 1031.7 Q155.764 1027.09 155.764 1018.36 Q155.764 1010.17 159.653 1005.31 Q163.542 1000.42 170.093 1000.42 Q171.852 1000.42 173.634 1000.77 Q175.44 1001.12 177.384 1001.81 Z" fill="#000000" fill-rule="evenodd" fill-opacity="1" /><path clip-path="url(#clip670)" d="M 0 0 M197.685 1004.13 Q194.074 1004.13 192.245 1007.69 Q190.44 1011.23 190.44 1018.36 Q190.44 1025.47 192.245 1029.04 Q194.074 1032.58 197.685 1032.58 Q201.319 1032.58 203.125 1029.04 Q204.954 1025.47 204.954 1018.36 Q204.954 1011.23 203.125 1007.69 Q201.319 1004.13 197.685 1004.13 M197.685 1000.42 Q203.495 1000.42 206.551 1005.03 Q209.629 1009.61 209.629 1018.36 Q209.629 1027.09 206.551 1031.7 Q203.495 1036.28 197.685 1036.28 Q191.875 1036.28 188.796 1031.7 Q185.741 1027.09 185.741 1018.36 Q185.741 1009.61 188.796 1005.03 Q191.875 1000.42 197.685 1000.42 Z" fill="#000000" fill-rule="evenodd" fill-opacity="1" /><path clip-path="url(#clip670)" d="M 0 0 M157.662 840.675 L157.662 836.416 Q159.421 837.249 161.227 837.689 Q163.032 838.129 164.769 838.129 Q169.398 838.129 171.829 835.027 Q174.282 831.902 174.63 825.559 Q173.287 827.55 171.227 828.615 Q169.167 829.68 166.667 829.68 Q161.482 829.68 158.449 826.555 Q155.44 823.407 155.44 817.967 Q155.44 812.643 158.588 809.425 Q161.736 806.208 166.968 806.208 Q172.963 806.208 176.111 810.814 Q179.282 815.397 179.282 824.147 Q179.282 832.318 175.394 837.203 Q171.528 842.064 164.977 842.064 Q163.218 842.064 161.412 841.717 Q159.607 841.369 157.662 840.675 M166.968 826.022 Q170.116 826.022 171.944 823.869 Q173.796 821.717 173.796 817.967 Q173.796 814.24 171.944 812.087 Q170.116 809.911 166.968 809.911 Q163.82 809.911 161.968 812.087 Q160.139 814.24 160.139 817.967 Q160.139 821.717 161.968 823.869 Q163.82 826.022 166.968 826.022 Z" fill="#000000" fill-rule="evenodd" fill-opacity="1" /><path clip-path="url(#clip670)" d="M 0 0 M197.685 809.911 Q194.074 809.911 192.245 813.476 Q190.44 817.018 190.44 824.147 Q190.44 831.254 192.245 834.818 Q194.074 838.36 197.685 838.36 Q201.319 838.36 203.125 834.818 Q204.954 831.254 204.954 824.147 Q204.954 817.018 203.125 813.476 Q201.319 809.911 197.685 809.911 M197.685 806.208 Q203.495 806.208 206.551 810.814 Q209.629 815.397 209.629 824.147 Q209.629 832.874 206.551 837.481 Q203.495 842.064 197.685 842.064 Q191.875 842.064 188.796 837.481 Q185.741 832.874 185.741 824.147 Q185.741 815.397 188.796 810.814 Q191.875 806.208 197.685 806.208 Z" fill="#000000" fill-rule="evenodd" fill-opacity="1" /><path clip-path="url(#clip670)" d="M 0 0 M128.172 643.24 L135.81 643.24 L135.81 616.875 L127.5 618.541 L127.5 614.282 L135.764 612.615 L140.44 612.615 L140.44 643.24 L148.079 643.24 L148.079 647.175 L128.172 647.175 L128.172 643.24 Z" fill="#000000" fill-rule="evenodd" fill-opacity="1" /><path clip-path="url(#clip670)" d="M 0 0 M161.551 643.24 L177.87 643.24 L177.87 647.175 L155.926 647.175 L155.926 643.24 Q158.588 640.486 163.171 635.856 Q167.778 631.203 168.958 629.861 Q171.204 627.338 172.083 625.601 Q172.986 623.842 172.986 622.152 Q172.986 619.398 171.042 617.662 Q169.12 615.926 166.019 615.926 Q163.82 615.926 161.366 616.689 Q158.935 617.453 156.158 619.004 L156.158 614.282 Q158.982 613.148 161.435 612.569 Q163.889 611.99 165.926 611.99 Q171.296 611.99 174.491 614.676 Q177.685 617.361 177.685 621.851 Q177.685 623.981 176.875 625.902 Q176.088 627.801 173.981 630.393 Q173.403 631.064 170.301 634.282 Q167.199 637.476 161.551 643.24 Z" fill="#000000" fill-rule="evenodd" fill-opacity="1" /><path clip-path="url(#clip670)" d="M 0 0 M197.685 615.694 Q194.074 615.694 192.245 619.259 Q190.44 622.801 190.44 629.93 Q190.44 637.037 192.245 640.601 Q194.074 644.143 197.685 644.143 Q201.319 644.143 203.125 640.601 Q204.954 637.037 204.954 629.93 Q204.954 622.801 203.125 619.259 Q201.319 615.694 197.685 615.694 M197.685 611.99 Q203.495 611.99 206.551 616.597 Q209.629 621.18 209.629 629.93 Q209.629 638.657 206.551 643.263 Q203.495 647.847 197.685 647.847 Q191.875 647.847 188.796 643.263 Q185.741 638.657 185.741 629.93 Q185.741 621.18 188.796 616.597 Q191.875 611.99 197.685 611.99 Z" fill="#000000" fill-rule="evenodd" fill-opacity="1" /><path clip-path="url(#clip670)" d="M 0 0 M128.172 449.023 L135.81 449.023 L135.81 422.658 L127.5 424.324 L127.5 420.065 L135.764 418.398 L140.44 418.398 L140.44 449.023 L148.079 449.023 L148.079 452.958 L128.172 452.958 L128.172 449.023 Z" fill="#000000" fill-rule="evenodd" fill-opacity="1" /><path clip-path="url(#clip670)" d="M 0 0 M157.57 418.398 L175.926 418.398 L175.926 422.333 L161.852 422.333 L161.852 430.806 Q162.87 430.458 163.889 430.296 Q164.907 430.111 165.926 430.111 Q171.713 430.111 175.093 433.282 Q178.472 436.454 178.472 441.87 Q178.472 447.449 175 450.551 Q171.528 453.63 165.208 453.63 Q163.032 453.63 160.764 453.259 Q158.519 452.889 156.111 452.148 L156.111 447.449 Q158.195 448.583 160.417 449.139 Q162.639 449.694 165.116 449.694 Q169.12 449.694 171.458 447.588 Q173.796 445.481 173.796 441.87 Q173.796 438.259 171.458 436.153 Q169.12 434.046 165.116 434.046 Q163.241 434.046 161.366 434.463 Q159.514 434.88 157.57 435.759 L157.57 418.398 Z" fill="#000000" fill-rule="evenodd" fill-opacity="1" /><path clip-path="url(#clip670)" d="M 0 0 M197.685 421.477 Q194.074 421.477 192.245 425.042 Q190.44 428.583 190.44 435.713 Q190.44 442.819 192.245 446.384 Q194.074 449.926 197.685 449.926 Q201.319 449.926 203.125 446.384 Q204.954 442.819 204.954 435.713 Q204.954 428.583 203.125 425.042 Q201.319 421.477 197.685 421.477 M197.685 417.773 Q203.495 417.773 206.551 422.38 Q209.629 426.963 209.629 435.713 Q209.629 444.44 206.551 449.046 Q203.495 453.63 197.685 453.63 Q191.875 453.63 188.796 449.046 Q185.741 444.44 185.741 435.713 Q185.741 426.963 188.796 422.38 Q191.875 417.773 197.685 417.773 Z" fill="#000000" fill-rule="evenodd" fill-opacity="1" /><path clip-path="url(#clip670)" d="M 0 0 M128.172 254.806 L135.81 254.806 L135.81 228.44 L127.5 230.107 L127.5 225.848 L135.764 224.181 L140.44 224.181 L140.44 254.806 L148.079 254.806 L148.079 258.741 L128.172 258.741 L128.172 254.806 Z" fill="#000000" fill-rule="evenodd" fill-opacity="1" /><path clip-path="url(#clip670)" d="M 0 0 M167.523 242.329 Q164.19 242.329 162.269 244.112 Q160.37 245.894 160.37 249.019 Q160.37 252.144 162.269 253.926 Q164.19 255.709 167.523 255.709 Q170.857 255.709 172.778 253.926 Q174.699 252.121 174.699 249.019 Q174.699 245.894 172.778 244.112 Q170.88 242.329 167.523 242.329 M162.847 240.339 Q159.838 239.598 158.148 237.538 Q156.482 235.477 156.482 232.514 Q156.482 228.371 159.421 225.964 Q162.384 223.556 167.523 223.556 Q172.685 223.556 175.625 225.964 Q178.565 228.371 178.565 232.514 Q178.565 235.477 176.875 237.538 Q175.208 239.598 172.222 240.339 Q175.602 241.126 177.477 243.417 Q179.375 245.709 179.375 249.019 Q179.375 254.042 176.296 256.727 Q173.241 259.412 167.523 259.412 Q161.806 259.412 158.727 256.727 Q155.671 254.042 155.671 249.019 Q155.671 245.709 157.57 243.417 Q159.468 241.126 162.847 240.339 M161.134 232.954 Q161.134 235.639 162.801 237.144 Q164.491 238.649 167.523 238.649 Q170.532 238.649 172.222 237.144 Q173.935 235.639 173.935 232.954 Q173.935 230.269 172.222 228.765 Q170.532 227.26 167.523 227.26 Q164.491 227.26 162.801 228.765 Q161.134 230.269 161.134 232.954 Z" fill="#000000" fill-rule="evenodd" fill-opacity="1" /><path clip-path="url(#clip670)" d="M 0 0 M197.685 227.26 Q194.074 227.26 192.245 230.825 Q190.44 234.366 190.44 241.496 Q190.44 248.602 192.245 252.167 Q194.074 255.709 197.685 255.709 Q201.319 255.709 203.125 252.167 Q204.954 248.602 204.954 241.496 Q204.954 234.366 203.125 230.825 Q201.319 227.26 197.685 227.26 M197.685 223.556 Q203.495 223.556 206.551 228.163 Q209.629 232.746 209.629 241.496 Q209.629 250.223 206.551 254.829 Q203.495 259.412 197.685 259.412 Q191.875 259.412 188.796 254.829 Q185.741 250.223 185.741 241.496 Q185.741 232.746 188.796 228.163 Q191.875 223.556 197.685 223.556 Z" fill="#000000" fill-rule="evenodd" fill-opacity="1" /><path clip-path="url(#clip670)" d="M 0 0 M131.389 60.5889 L147.708 60.5889 L147.708 64.5241 L125.764 64.5241 L125.764 60.5889 Q128.426 57.8343 133.009 53.2047 Q137.616 48.552 138.796 47.2094 Q141.042 44.6862 141.921 42.9501 Q142.824 41.1909 142.824 39.5011 Q142.824 36.7465 140.88 35.0104 Q138.959 33.2743 135.857 33.2743 Q133.658 33.2743 131.204 34.0381 Q128.773 34.802 125.996 36.3529 L125.996 31.6308 Q128.82 30.4965 131.273 29.9178 Q133.727 29.3391 135.764 29.3391 Q141.134 29.3391 144.329 32.0243 Q147.523 34.7094 147.523 39.2002 Q147.523 41.3298 146.713 43.2511 Q145.926 45.1492 143.82 47.7418 Q143.241 48.4131 140.139 51.6306 Q137.037 54.8251 131.389 60.5889 Z" fill="#000000" fill-rule="evenodd" fill-opacity="1" /><path clip-path="url(#clip670)" d="M 0 0 M158.333 60.5889 L165.972 60.5889 L165.972 34.2233 L157.662 35.89 L157.662 31.6308 L165.926 29.9641 L170.602 29.9641 L170.602 60.5889 L178.241 60.5889 L178.241 64.5241 L158.333 64.5241 L158.333 60.5889 Z" fill="#000000" fill-rule="evenodd" fill-opacity="1" /><path clip-path="url(#clip670)" d="M 0 0 M197.685 33.0428 Q194.074 33.0428 192.245 36.6076 Q190.44 40.1492 190.44 47.2788 Q190.44 54.3853 192.245 57.9501 Q194.074 61.4917 197.685 61.4917 Q201.319 61.4917 203.125 57.9501 Q204.954 54.3853 204.954 47.2788 Q204.954 40.1492 203.125 36.6076 Q201.319 33.0428 197.685 33.0428 M197.685 29.3391 Q203.495 29.3391 206.551 33.9456 Q209.629 38.5289 209.629 47.2788 Q209.629 56.0056 206.551 60.6121 Q203.495 65.1954 197.685 65.1954 Q191.875 65.1954 188.796 60.6121 Q185.741 56.0056 185.741 47.2788 Q185.741 38.5289 188.796 33.9456 Q191.875 29.3391 197.685 29.3391 Z" fill="#000000" fill-rule="evenodd" fill-opacity="1" /><path clip-path="url(#clip670)" d="M 0 0 M33.9882 917.02 L33.9882 910.591 L53.4672 910.591 L53.4672 887.229 L33.9882 887.229 L33.9882 880.799 L81.5082 880.799 L81.5082 887.229 L58.8781 887.229 L58.8781 910.591 L81.5082 910.591 L81.5082 917.02 L33.9882 917.02 Z" fill="#000000" fill-rule="evenodd" fill-opacity="1" /><path clip-path="url(#clip670)" d="M 0 0 M62.2201 837.767 L65.0846 837.767 L65.0846 864.694 Q71.1321 864.312 74.3149 861.066 Q77.4659 857.787 77.4659 851.963 Q77.4659 848.589 76.6384 845.438 Q75.8109 842.255 74.1558 839.136 L79.6939 839.136 Q81.0307 842.287 81.731 845.597 Q82.4312 848.907 82.4312 852.313 Q82.4312 860.843 77.4659 865.84 Q72.5007 870.805 64.0343 870.805 Q55.2814 870.805 50.1571 866.095 Q45.0008 861.352 45.0008 853.331 Q45.0008 846.138 49.6478 841.969 Q54.2629 837.767 62.2201 837.767 M60.5013 843.624 Q55.6952 843.687 52.8306 846.329 Q49.9661 848.939 49.9661 853.268 Q49.9661 858.169 52.7352 861.129 Q55.5042 864.058 60.5332 864.503 L60.5013 843.624 Z" fill="#000000" fill-rule="evenodd" fill-opacity="1" /><path clip-path="url(#clip670)" d="M 0 0 M45.8602 828.155 L45.8602 822.299 L81.5082 822.299 L81.5082 828.155 L45.8602 828.155 M31.983 828.155 L31.983 822.299 L39.399 822.299 L39.399 828.155 L31.983 828.155 Z" fill="#000000" fill-rule="evenodd" fill-opacity="1" /><path clip-path="url(#clip670)" d="M 0 0 M63.2704 786.587 Q56.9047 786.587 53.4036 789.229 Q49.9024 791.839 49.9024 796.581 Q49.9024 801.292 53.4036 803.934 Q56.9047 806.543 63.2704 806.543 Q69.6043 806.543 73.1054 803.934 Q76.6066 801.292 76.6066 796.581 Q76.6066 791.839 73.1054 789.229 Q69.6043 786.587 63.2704 786.587 M77.084 780.731 Q86.187 780.731 90.6111 784.773 Q95.0671 788.815 95.0671 797.154 Q95.0671 800.241 94.5897 802.979 Q94.1441 805.716 93.1892 808.294 L87.4919 808.294 Q88.8924 805.716 89.5608 803.201 Q90.2292 800.687 90.2292 798.077 Q90.2292 792.316 87.2055 789.452 Q84.2136 786.587 78.1343 786.587 L75.2379 786.587 Q78.389 788.401 79.9486 791.234 Q81.5082 794.067 81.5082 798.013 Q81.5082 804.57 76.5111 808.58 Q71.514 812.591 63.2704 812.591 Q54.995 812.591 49.9979 808.58 Q45.0008 804.57 45.0008 798.013 Q45.0008 794.067 46.5604 791.234 Q48.12 788.401 51.2711 786.587 L45.8602 786.587 L45.8602 780.731 L77.084 780.731 Z" fill="#000000" fill-rule="evenodd" fill-opacity="1" /><path clip-path="url(#clip670)" d="M 0 0 M59.9921 739.035 L81.5082 739.035 L81.5082 744.892 L60.183 744.892 Q55.1223 744.892 52.6078 746.865 Q50.0934 748.838 50.0934 752.785 Q50.0934 757.528 53.1171 760.265 Q56.1408 763.002 61.3607 763.002 L81.5082 763.002 L81.5082 768.89 L31.983 768.89 L31.983 763.002 L51.3984 763.002 Q48.1837 760.901 46.5923 758.069 Q45.0008 755.204 45.0008 751.48 Q45.0008 745.337 48.8203 742.186 Q52.6078 739.035 59.9921 739.035 Z" fill="#000000" fill-rule="evenodd" fill-opacity="1" /><path clip-path="url(#clip670)" d="M 0 0 M35.7387 721.561 L45.8602 721.561 L45.8602 709.498 L50.4117 709.498 L50.4117 721.561 L69.7634 721.561 Q74.1239 721.561 75.3653 720.384 Q76.6066 719.174 76.6066 715.514 L76.6066 709.498 L81.5082 709.498 L81.5082 715.514 Q81.5082 722.293 78.9937 724.871 Q76.4474 727.45 69.7634 727.45 L50.4117 727.45 L50.4117 731.746 L45.8602 731.746 L45.8602 727.45 L35.7387 727.45 L35.7387 721.561 Z" fill="#000000" fill-rule="evenodd" fill-opacity="1" /><path clip-path="url(#clip670)" d="M 0 0 M32.0466 667.007 Q39.3672 671.272 46.5286 673.341 Q53.69 675.41 61.0424 675.41 Q68.3948 675.41 75.6199 673.341 Q82.8131 671.24 90.1019 667.007 L90.1019 672.1 Q82.6222 676.874 75.3971 679.261 Q68.172 681.616 61.0424 681.616 Q53.9446 681.616 46.7514 679.261 Q39.5582 676.906 32.0466 672.1 L32.0466 667.007 Z" fill="#000000" fill-rule="evenodd" fill-opacity="1" /><path clip-path="url(#clip670)" d="M 0 0 M95.0671 656.249 L45.8602 656.249 L45.8602 650.393 L68.0129 650.393 Q72.628 650.393 74.9833 648.197 Q77.3386 646 77.3386 641.703 Q77.3386 636.993 74.665 634.638 Q71.9914 632.25 66.6442 632.25 L45.8602 632.25 L45.8602 626.394 L73.2964 626.394 Q75.2061 626.394 76.1291 625.853 Q77.0203 625.28 77.0203 624.102 Q77.0203 623.816 76.8612 623.307 Q76.6702 622.797 76.2883 621.906 L80.9989 621.906 Q81.731 623.211 82.0811 624.389 Q82.4312 625.535 82.4312 626.649 Q82.4312 628.845 81.1899 630.15 Q79.9486 631.455 77.4023 631.932 Q79.9167 633.524 81.1899 635.847 Q82.4312 638.139 82.4312 641.258 Q82.4312 644.504 81.1899 646.796 Q79.9486 649.056 77.4659 650.393 L95.0671 650.393 L95.0671 656.249 Z" fill="#000000" fill-rule="evenodd" fill-opacity="1" /><path clip-path="url(#clip670)" d="M 0 0 M52.7033 586.417 Q48.7566 584.221 46.8787 581.166 Q45.0008 578.11 45.0008 573.972 Q45.0008 568.402 48.9157 565.379 Q52.7988 562.355 59.9921 562.355 L81.5082 562.355 L81.5082 568.243 L60.183 568.243 Q55.0586 568.243 52.576 570.057 Q50.0934 571.872 50.0934 575.596 Q50.0934 580.147 53.1171 582.789 Q56.1408 585.431 61.3607 585.431 L81.5082 585.431 L81.5082 591.319 L60.183 591.319 Q55.0268 591.319 52.576 593.133 Q50.0934 594.947 50.0934 598.735 Q50.0934 603.223 53.1489 605.865 Q56.1726 608.506 61.3607 608.506 L81.5082 608.506 L81.5082 614.395 L45.8602 614.395 L45.8602 608.506 L51.3984 608.506 Q48.12 606.501 46.5604 603.7 Q45.0008 600.899 45.0008 597.048 Q45.0008 593.165 46.9742 590.46 Q48.9476 587.722 52.7033 586.417 Z" fill="#000000" fill-rule="evenodd" fill-opacity="1" /><path clip-path="url(#clip670)" d="M 0 0 M32.0466 551.597 L32.0466 546.504 Q39.5582 541.73 46.7514 539.375 Q53.9446 536.988 61.0424 536.988 Q68.172 536.988 75.3971 539.375 Q82.6222 541.73 90.1019 546.504 L90.1019 551.597 Q82.8131 547.364 75.6199 545.295 Q68.3948 543.194 61.0424 543.194 Q53.69 543.194 46.5286 545.295 Q39.3672 547.364 32.0466 551.597 Z" fill="#000000" fill-rule="evenodd" fill-opacity="1" /><polyline clip-path="url(#clip672)" style="stroke:#e26f46; stroke-width:8; stroke-opacity:1; fill:none" points="
  239.629,1406.12 253.348,1405.88 267.067,1405.55 280.786,1405.11 294.504,1404.5 308.223,1403.66 321.942,1402.52 335.661,1400.96 349.379,1398.83 363.098,1395.91 
  376.817,1391.92 390.535,1386.46 404.254,1378.99 417.973,1368.78 431.692,1354.81 445.41,1335.66 459.129,1309.53 472.848,1282.02 486.567,1255.11 500.285,1228.76 
  514.004,1202.98 527.723,1177.74 541.442,1153.04 555.16,1128.87 568.879,1105.21 582.598,1082.05 596.316,1059.39 610.035,1037.21 623.754,1015.5 637.473,994.255 
  651.191,973.462 664.91,953.111 678.629,933.194 692.348,913.7 706.066,894.622 719.785,875.95 733.504,857.675 747.222,839.789 760.941,822.285 774.66,805.153 
  788.379,788.385 802.097,771.975 815.816,755.914 829.535,740.195 843.254,724.81 856.972,709.753 870.691,695.017 884.41,680.594 898.129,666.478 911.847,652.663 
  925.566,639.142 939.285,625.909 953.003,612.957 966.722,600.282 980.441,587.876 994.16,575.735 1007.88,563.852 1021.6,552.222 1035.32,540.84 1049.03,529.7 
  1062.75,518.797 1076.47,508.126 1090.19,497.682 1103.91,487.461 1117.63,477.457 1131.35,467.665 1145.07,458.083 1158.78,448.704 1172.5,439.525 1186.22,430.542 
  1199.94,421.75 1213.66,413.145 1227.38,404.724 1241.1,396.482 1254.82,388.415 1268.53,380.52 1282.25,372.794 1295.97,365.231 1309.69,357.83 1323.41,350.587 
  1337.13,343.497 1350.85,336.558 1364.57,329.767 1378.28,323.121 1392,316.615 1405.72,310.248 1419.44,304.016 1433.16,297.917 1446.88,291.948 1460.6,286.106 
  1474.32,280.389 1488.03,274.793 1501.75,269.317 1515.47,263.957 1529.19,258.712 1542.91,253.579 1556.63,248.554 1570.35,243.637 1584.07,238.825 1597.78,234.115 
  1611.5,229.506 1625.22,224.995 1638.94,220.579 1652.66,216.258 1666.38,212.029 1680.1,207.889 1693.81,203.838 1707.53,199.872 1721.25,195.991 1734.97,192.192 
  1748.69,188.474 1762.41,184.835 1776.13,181.273 1789.85,177.787 1803.56,174.376 1817.28,171.037 1831,167.769 1844.72,164.571 1858.44,161.441 1872.16,158.377 
  1885.88,155.38 1899.6,152.446 1913.31,149.575 1927.03,146.765 1940.75,144.015 1954.47,141.324 1968.19,138.69 1981.91,136.112 1995.63,133.589 2009.35,131.12 
  2023.06,128.703 2036.78,126.338 2050.5,124.024 2064.22,121.758 2077.94,119.54 2091.66,117.37 2105.38,115.246 2119.1,113.167 2132.81,111.131 2146.53,109.139 
  2160.25,107.189 2173.97,105.28 2187.69,103.412 2201.41,101.584 2215.13,99.794 2228.85,98.0425 2242.56,96.3284 2256.28,94.6509 2270,93.0092 2283.72,91.4025 
  2297.44,89.8302 2311.16,88.2916 2324.88,86.7858 2338.6,85.3123 2352.31,83.8703 2366.03,82.4592 2379.75,81.0782 2393.47,79.7268 2407.19,78.4042 2420.91,77.11 
  2434.63,75.8434 2448.35,74.6038 2462.06,73.3906 2475.78,72.2034 2489.5,71.0414 2503.22,69.9041 2516.94,68.791 2530.66,67.7015 2544.38,66.6351 2558.09,65.5913 
  2571.81,64.5696 2585.53,63.5695 2599.25,62.5904 2612.97,61.632 2626.69,60.6937 2640.41,59.7752 2654.13,58.876 2667.84,57.9958 2681.56,57.1343 2695.28,56.2911 
  2709,55.4658 2722.72,54.6581 2736.44,53.8676 2750.16,53.094 2763.88,52.3369 2777.59,51.596 2791.31,50.871 2805.03,50.1615 2818.75,49.4673 2832.47,48.788 
  2846.19,48.1233 2859.91,47.4728 2873.63,46.8364 2887.34,46.2136 2901.06,45.6042 2914.78,45.008 2928.5,44.4245 2942.22,43.8536 2955.94,43.2949 2969.66,42.7482 
  2983.38,42.2132 2997.09,41.6897 3010.81,41.1773 3024.53,40.6759 3038.25,40.1851 3051.97,39.7048 3065.69,39.2347 3079.41,38.7746 3093.13,38.3241 3106.84,37.8832 
  3120.56,37.4515 3134.28,37.0289 3148,36.6151 3161.72,36.21 3175.44,35.8132 3189.16,35.4247 3202.88,35.0442 3216.59,34.6717 3230.31,34.3071 3244.03,33.95 
  3257.75,33.6005 3271.47,33.2584 3285.19,32.9235 3298.91,32.5958 3312.63,32.275 3326.34,31.9611 3340.06,31.6539 3353.78,31.3533 3367.5,31.0592 3381.22,30.7714 
  3394.94,30.4898 3408.66,30.2142 3422.37,29.9447 3436.09,29.681 3449.81,29.423 3463.53,29.1706 3477.25,28.9237 3490.97,28.6821 3504.69,28.4458 3518.41,28.2147 
  3532.12,27.9886 3545.84,27.7674 3559.56,27.5509 3573.28,27.3392 3587,27.1321 3600.72,26.9295 3614.44,26.7312 3628.16,26.5372 3641.87,26.3474 3655.59,26.1617 
  3669.31,25.98 3683.03,25.8021 3696.75,25.628 3710.47,25.4576 3724.19,25.2908 3737.91,25.1274 3751.62,24.9675 3765.34,24.8109 3779.06,24.6576 3792.78,24.5073 
  3806.5,24.3602 3820.22,24.216 3833.94,24.0747 3847.66,23.9362 3861.37,23.8006 3875.09,23.6677 3888.81,23.5376 3902.53,23.4101 3916.25,23.2852 3929.97,23.163 
  3943.69,23.0433 3957.41,22.9261 3971.12,22.8114 3984.84,22.6991 3998.56,22.5892 4012.28,22.4817 4026,22.3764 4039.72,22.2734 4053.44,22.1727 4067.16,22.0741 
  4080.87,21.9777 4094.59,21.8833 4108.31,21.7911 4122.03,21.7008 4135.75,21.6126 4149.47,21.5263 4163.19,21.4419 4176.91,21.3594 4190.62,21.2787 4204.34,21.1998 
  4218.06,21.1227 4231.78,21.0473 4245.5,20.9736 4259.22,20.9015 4272.94,20.831 4286.65,20.7621 4300.37,20.6948 4314.09,20.6289 4327.81,20.5645 4341.53,20.5016 
  4355.25,20.44 4368.97,20.3798 4382.69,20.3209 4396.4,20.2633 4410.12,20.207 4423.84,20.1519 4437.56,20.098 4451.28,20.0452 4465,19.9935 4478.72,19.943 
  4492.44,19.8934 4506.15,19.8449 4519.87,19.7974 4533.59,19.7509 4547.31,19.7053 4561.03,19.6605 4574.75,19.6166 4588.47,19.5736 4602.19,19.5313 4615.9,19.4898 
  4629.62,19.4491 4643.34,19.4091 4657.06,19.3699 4670.78,19.3315 4684.5,19.2938 4698.22,19.2569 4711.94,19.2206 4725.65,19.1851 4739.37,19.1504 4753.09,19.1163 
  4766.81,19.0829 4780.53,19.0503 4794.25,19.0183 4807.97,18.9869 4821.69,18.9563 4835.4,18.9263 4849.12,18.8969 4862.84,18.8682 4876.56,18.8401 4890.28,18.8126 
  4904,18.7857 4917.72,18.7594 4931.44,18.7337 4945.15,18.7086 4958.87,18.6841 4972.59,18.6601 4986.31,18.6366 5000.03,18.6138 5013.75,18.5914 5027.47,18.5696 
  5041.19,18.5482 5054.9,18.5274 5068.62,18.5071 5082.34,18.4873 5096.06,18.4679 5109.78,18.449 5123.5,18.4305 5137.22,18.4125 5150.93,18.395 5164.65,18.3778 
  5178.37,18.3611 5192.09,18.3448 5205.81,18.3288 5219.53,18.3133 5233.25,18.2981 5246.97,18.2833 5260.68,18.2688 5274.4,18.2547 5288.12,18.2409 5301.84,18.2274 
  5315.56,18.2142 5329.28,18.2014 5343,18.1888 5356.72,18.1765 5370.43,18.1645 5384.15,18.1527 5397.87,18.1411 5411.59,18.1298 5425.31,18.1188 5439.03,18.1079 
  5452.75,18.0972 5466.47,18.0868 5480.18,18.0765 5493.9,18.0663 5507.62,18.0564 5521.34,18.0465 5535.06,18.0368 5548.78,18.0273 5562.5,18.0178 5576.22,18.0085 
  5589.93,17.9992 5603.65,17.9902 5617.37,17.9813 5631.09,17.9725 5644.81,17.9639 5658.53,17.9554 5672.25,17.9471 5685.97,17.9389 5699.68,17.9309 5713.4,17.9231 
  5727.12,17.9153 5740.84,17.9077 5754.56,17.9003 5768.28,17.893 5782,17.8859 5795.72,17.8789 5809.43,17.872 5823.15,17.8653 5836.87,17.8587 5850.59,17.8523 
  5864.31,17.846 5878.03,17.8399 5891.75,17.8339 5905.47,17.828 5919.18,17.8222 5932.9,17.8166 5946.62,17.8112 5960.34,17.8058 5974.06,17.8006 5987.78,17.7955 
  6001.5,17.7906 6015.21,17.7858 6028.93,17.7811 6042.65,17.7765 6056.37,17.772 6070.09,17.7677 6083.81,17.7635 6097.53,17.7594 6111.25,17.7554 6124.96,17.7516 
  6138.68,17.7478 6152.4,17.7441 6166.12,17.7406 6179.84,17.7372 6193.56,17.7338 6207.28,17.7306 6221,17.7275 6234.71,17.7244 6248.43,17.7215 6262.15,17.7186 
  6275.87,17.7159 6289.59,17.7132 6303.31,17.7106 6317.03,17.7081 6330.75,17.7056 6344.46,17.7033 6358.18,17.701 6371.9,17.6988 6385.62,17.6966 6399.34,17.6945 
  6413.06,17.6925 6426.78,17.6905 6440.5,17.6886 6454.21,17.6867 6467.93,17.6849 6481.65,17.6831 6495.37,17.6814 6509.09,17.6797 6522.81,17.6781 6536.53,17.6764 
  6550.25,17.6748 6563.96,17.6733 6577.68,17.6717 6591.4,17.6702 6605.12,17.6687 6618.84,17.6671 6632.56,17.6656 6646.28,17.6641 6660,17.6626 6673.71,17.6611 
  6687.43,17.6596 6701.15,17.658 6714.87,17.6565 6728.59,17.6549 6742.31,17.6533 6756.03,17.6517 6769.75,17.6501 6783.46,17.6485 6797.18,17.6469 6810.9,17.6454 
  6824.62,17.6438 6838.34,17.6423 6852.06,17.6408 6865.78,17.6393 6879.49,17.6378 6893.21,17.6364 6906.93,17.6349 6920.65,17.6335 6934.37,17.6321 6948.09,17.6307 
  6961.81,17.6293 6975.53,17.628 6989.24,17.6267 7002.96,17.6254 7016.68,17.6241 7030.4,17.6228 7044.12,17.6216 7057.84,17.6204 7071.56,17.6192 7085.28,17.6181 
  7098.99,17.6169 7112.71,17.6158 7126.43,17.6147 7140.15,17.6137 7153.87,17.6127 7167.59,17.6116 7181.31,17.6107 7195.03,17.6097 7208.74,17.6088 7222.46,17.6079 
  7236.18,17.607 7249.9,17.6062 7263.62,17.6053 7277.34,17.6045 7291.06,17.6038 7304.78,17.603 7318.49,17.6023 7332.21,17.6016 7345.93,17.601 7359.65,17.6003 
  7373.37,17.5997 7387.09,17.5991 7400.81,17.5986 7414.53,17.598 7428.24,17.5975 7441.96,17.597 7455.68,17.5966 7469.4,17.5961 7483.12,17.5957 7496.84,17.5953 
  7510.56,17.595 7524.28,17.5946 7537.99,17.5943 7551.71,17.594 7565.43,17.5937 7579.15,17.5935 7592.87,17.5932 7606.59,17.593 7620.31,17.5928 7634.03,17.5927 
  7647.74,17.5925 7661.46,17.5923 7675.18,17.5922 7688.9,17.5921 7702.62,17.592 7716.34,17.5919 7730.06,17.5919 7743.77,17.5918 7757.49,17.5918 7771.21,17.5918 
  7784.93,17.5917 7798.65,17.5917 7812.37,17.5917 7826.09,17.5917 7839.81,17.5918 7853.52,17.5918 7867.24,17.5918 7880.96,17.5918 7894.68,17.5919 7908.4,17.5919 
  7922.12,17.592 7935.84,17.592 7949.56,17.592 7963.27,17.5921 7976.99,17.5921 7990.71,17.5921 8004.43,17.5922 8018.15,17.5922 8031.87,17.5922 8045.59,17.5922 
  8059.31,17.5922 8073.02,17.5922 8086.74,17.5921 8100.46,17.5921 8114.18,17.592 8127.9,17.5919 8141.62,17.5918 8155.34,17.5917 8169.06,17.5916 8182.77,17.5914 
  8196.49,17.5912 8210.21,17.591 8223.93,17.5907 8237.65,17.5905 8251.37,17.5902 8265.09,17.5899 8278.81,17.5896 8292.52,17.5894 8306.24,17.5891 8319.96,17.5888 
  8333.68,17.5885 8347.4,17.5882 8361.12,17.5879 8374.84,17.5876 8388.56,17.5872 8402.27,17.5869 8415.99,17.5866 8429.71,17.5863 8443.43,17.586 8457.15,17.5857 
  8470.87,17.5854 8484.59,17.5851 8498.31,17.5847 8512.02,17.5844 8525.74,17.5841 8539.46,17.5838 8553.18,17.5835 8566.9,17.5832 8580.62,17.5829 8594.34,17.5826 
  8608.05,17.5823 8621.77,17.582 8635.49,17.5817 8649.21,17.5815 8662.93,17.5812 8676.65,17.5809 8690.37,17.5807 8704.09,17.5804 8717.8,17.5801 8731.52,17.5799 
  8745.24,17.5797 8758.96,17.5794 8772.68,17.5792 8786.4,17.579 8800.12,17.5788 8813.84,17.5785 8827.55,17.5783 8841.27,17.5782 8854.99,17.578 8868.71,17.5778 
  8882.43,17.5776 8896.15,17.5774 8909.87,17.5773 8923.59,17.5771 8937.3,17.577 8951.02,17.5769 8964.74,17.5767 8978.46,17.5766 8992.18,17.5765 9005.9,17.5764 
  9019.62,17.5763 9033.34,17.5763 9047.05,17.5762 9060.77,17.5761 9074.49,17.5761 9088.21,17.576 9101.93,17.576 9115.65,17.5759 9129.37,17.5759 9143.09,17.5759 
  9156.8,17.5759 9170.52,17.5759 9184.24,17.5759 9197.96,17.5759 9211.68,17.5759 9225.4,17.576 9239.12,17.576 9252.84,17.5761 9266.55,17.5761 9280.27,17.5762 
  9293.99,17.5763 9307.71,17.5763 9321.43,17.5764 9335.15,17.5765 9348.87,17.5766 9362.59,17.5767 9376.3,17.5768 9390.02,17.577 9403.74,17.5771 9417.46,17.5772 
  9431.18,17.5773 9444.9,17.5775 9458.62,17.5776 9472.33,17.5778 9486.05,17.5779 9499.77,17.5781 9513.49,17.5783 9527.21,17.5784 9540.93,17.5786 9554.65,17.5788 
  9568.37,17.579 9582.08,17.5791 9595.8,17.5793 9609.52,17.5795 9623.24,17.5797 9636.96,17.5799 9650.68,17.5801 9664.4,17.5803 9678.12,17.5805 9691.83,17.5807 
  9705.55,17.5809 9719.27,17.581 9732.99,17.5812 9746.71,17.5814 9760.43,17.5816 9774.15,17.5818 9787.87,17.582 9801.58,17.5821 9815.3,17.5823 9829.02,17.5825 
  9842.74,17.5827 9856.46,17.5828 9870.18,17.583 9883.9,17.5831 9897.62,17.5833 9911.33,17.5834 9925.05,17.5835 9938.77,17.5836 9952.49,17.5838 9966.21,17.5839 
  9979.93,17.5839 9993.65,17.584 10007.4,17.5841 10021.1,17.5842 10034.8,17.5842 10048.5,17.5842 10062.2,17.5843 10076,17.5843 10089.7,17.5843 10103.4,17.5842 
  10117.1,17.5842 10130.8,17.5841 10144.6,17.5841 10158.3,17.584 10172,17.5839 10185.7,17.5838 10199.4,17.5836 10213.1,17.5835 10226.9,17.5833 10240.6,17.5831 
  10254.3,17.5829 10268,17.5827 10281.7,17.5825 10295.5,17.5823 10309.2,17.582 10322.9,17.5818 10336.6,17.5815 10350.3,17.5813 10364.1,17.581 10377.8,17.5807 
  10391.5,17.5804 10405.2,17.5801 10418.9,17.5798 10432.6,17.5795 10446.4,17.5792 10460.1,17.5789 10473.8,17.5785 10487.5,17.5782 10501.2,17.5779 10515,17.5775 
  10528.7,17.5772 10542.4,17.5769 10556.1,17.5765 10569.8,17.5762 10583.6,17.5758 10597.3,17.5755 10611,17.5752 10624.7,17.5748 10638.4,17.5745 10652.1,17.5741 
  10665.9,17.5738 10679.6,17.5735 10693.3,17.5731 10707,17.5728 10720.7,17.5725 10734.5,17.5722 10748.2,17.5719 10761.9,17.5715 10775.6,17.5712 10789.3,17.5709 
  10803.1,17.5706 10816.8,17.5704 10830.5,17.5701 10844.2,17.5698 10857.9,17.5695 10871.6,17.5692 10885.4,17.569 10899.1,17.5687 10912.8,17.5685 10926.5,17.5683 
  10940.2,17.568 10954,17.5678 10967.7,17.5676 10981.4,17.5674 10995.1,17.5672 11008.8,17.567 11022.6,17.5668 11036.3,17.5667 11050,17.5665 11063.7,17.5663 
  11077.4,17.5662 11091.1,17.5661 11104.9,17.566 11118.6,17.5658 11132.3,17.5657 11146,17.5657 11159.7,17.5656 11173.5,17.5655 11187.2,17.5654 11200.9,17.5654 
  11214.6,17.5654 11228.3,17.5653 11242.1,17.5653 11255.8,17.5653 11269.5,17.5653 11283.2,17.5653 11296.9,17.5654 11310.6,17.5654 11324.4,17.5655 11338.1,17.5655 
  11351.8,17.5656 11365.5,17.5657 11379.2,17.5658 11393,17.5659 11406.7,17.566 11420.4,17.5661 11434.1,17.5663 11447.8,17.5664 11461.6,17.5666 11475.3,17.5667 
  11489,17.5669 11502.7,17.5671 11516.4,17.5673 11530.1,17.5675 11543.9,17.5677 11557.6,17.568 11571.3,17.5682 11585,17.5684 11598.7,17.5687 11612.5,17.569 
  11626.2,17.5692 11639.9,17.5695 11653.6,17.5698 11667.3,17.5701 11681.1,17.5704 11694.8,17.5708 11708.5,17.5711 11722.2,17.5714 11735.9,17.5718 11749.6,17.5721 
  11763.4,17.5725 11777.1,17.5728 11790.8,17.5732 11804.5,17.5736 11818.2,17.574 11832,17.5743 11845.7,17.5747 11859.4,17.5751 11873.1,17.5755 11886.8,17.5759 
  11900.6,17.5763 11914.3,17.5768 11928,17.5772 11941.7,17.5776 11955.4,17.578 11969.1,17.5785 11982.9,17.5789 11996.6,17.5793 12010.3,17.5797 12024,17.5802 
  12037.7,17.5806 12051.5,17.581 12065.2,17.5815 12078.9,17.5819 12092.6,17.5823 12106.3,17.5828 12120,17.5832 12133.8,17.5836 12147.5,17.584 12161.2,17.5844 
  12174.9,17.5848 12188.6,17.5853 12202.4,17.5857 12216.1,17.5861 12229.8,17.5864 12243.5,17.5868 12257.2,17.5872 12271,17.5876 12284.7,17.5879 12298.4,17.5883 
  12312.1,17.5886 12325.8,17.589 12339.5,17.5893 12353.3,17.5896 12367,17.5899 12380.7,17.5902 12394.4,17.5905 12408.1,17.5907 12421.9,17.591 12435.6,17.5912 
  12449.3,17.5914 12463,17.5916 12476.7,17.5918 12490.5,17.592 12504.2,17.5921 12517.9,17.5922 12531.6,17.5924 12545.3,17.5924 12559,17.5925 12572.8,17.5926 
  12586.5,17.5926 12600.2,17.5926 12613.9,17.5926 12627.6,17.5925 12641.4,17.5925 12655.1,17.5924 12668.8,17.5922 12682.5,17.5921 12696.2,17.5919 12710,17.5917 
  12723.7,17.5915 12737.4,17.5912 12751.1,17.5909 12764.8,17.5907 12778.5,17.5904 12792.3,17.5902 12806,17.5899 12819.7,17.5897 12833.4,17.5894 12847.1,17.5892 
  12860.9,17.5889 12874.6,17.5887 12888.3,17.5885 12902,17.5882 12915.7,17.588 12929.5,17.5878 12943.2,17.5876 12956.9,17.5874 12970.6,17.5872 12984.3,17.587 
  12998,17.5868 13011.8,17.5866 13025.5,17.5864 13039.2,17.5862 13052.9,17.5861 13066.6,17.5859 13080.4,17.5857 13094.1,17.5856 13107.8,17.5854 13121.5,17.5852 
  13135.2,17.5851 13149,17.5849 13162.7,17.5848 13176.4,17.5846 13190.1,17.5845 13203.8,17.5844 13217.5,17.5842 13231.3,17.5841 13245,17.584 13258.7,17.5839 
  13272.4,17.5837 13286.1,17.5836 13299.9,17.5835 13313.6,17.5834 13327.3,17.5833 13341,17.5832 13354.7,17.5831 13368.5,17.583 13382.2,17.5829 13395.9,17.5828 
  13409.6,17.5828 13423.3,17.5827 13437,17.5826 13450.8,17.5825 13464.5,17.5824 13478.2,17.5824 13491.9,17.5823 13505.6,17.5822 13519.4,17.5822 13533.1,17.5821 
  13546.8,17.582 13560.5,17.582 13574.2,17.5819 13588,17.5819 13601.7,17.5818 13615.4,17.5818 13629.1,17.5817 13642.8,17.5817 13656.5,17.5816 13670.3,17.5816 
  13684,17.5815 13697.7,17.5815 13711.4,17.5814 13725.1,17.5814 13738.9,17.5814 13752.6,17.5813 13766.3,17.5813 13780,17.5812 13793.7,17.5812 13807.5,17.5812 
  13821.2,17.5811 13834.9,17.5811 13848.6,17.581 13862.3,17.581 13876,17.581 13889.8,17.5809 13903.5,17.5809 13917.2,17.5808 13930.9,17.5808 13944.6,17.5807 
  
  "/>
<circle clip-path="url(#clip672)" cx="279.755" cy="1405.38" r="14" fill="#e26f46" fill-rule="evenodd" fill-opacity="0.3" stroke="#000000" stroke-opacity="0.3" stroke-width="3.2"/>
<circle clip-path="url(#clip672)" cx="290.852" cy="1404.54" r="14" fill="#e26f46" fill-rule="evenodd" fill-opacity="0.3" stroke="#000000" stroke-opacity="0.3" stroke-width="3.2"/>
<circle clip-path="url(#clip672)" cx="301.949" cy="1404.27" r="14" fill="#e26f46" fill-rule="evenodd" fill-opacity="0.3" stroke="#000000" stroke-opacity="0.3" stroke-width="3.2"/>
<circle clip-path="url(#clip672)" cx="313.046" cy="1402.65" r="14" fill="#e26f46" fill-rule="evenodd" fill-opacity="0.3" stroke="#000000" stroke-opacity="0.3" stroke-width="3.2"/>
<circle clip-path="url(#clip672)" cx="324.163" cy="1401.94" r="14" fill="#e26f46" fill-rule="evenodd" fill-opacity="0.3" stroke="#000000" stroke-opacity="0.3" stroke-width="3.2"/>
<circle clip-path="url(#clip672)" cx="335.26" cy="1405.61" r="14" fill="#e26f46" fill-rule="evenodd" fill-opacity="0.3" stroke="#000000" stroke-opacity="0.3" stroke-width="3.2"/>
<circle clip-path="url(#clip672)" cx="346.376" cy="1398.96" r="14" fill="#e26f46" fill-rule="evenodd" fill-opacity="0.3" stroke="#000000" stroke-opacity="0.3" stroke-width="3.2"/>
<circle clip-path="url(#clip672)" cx="357.474" cy="1400.9" r="14" fill="#e26f46" fill-rule="evenodd" fill-opacity="0.3" stroke="#000000" stroke-opacity="0.3" stroke-width="3.2"/>
<circle clip-path="url(#clip672)" cx="368.628" cy="1399.02" r="14" fill="#e26f46" fill-rule="evenodd" fill-opacity="0.3" stroke="#000000" stroke-opacity="0.3" stroke-width="3.2"/>
<circle clip-path="url(#clip672)" cx="379.725" cy="1398.29" r="14" fill="#e26f46" fill-rule="evenodd" fill-opacity="0.3" stroke="#000000" stroke-opacity="0.3" stroke-width="3.2"/>
<circle clip-path="url(#clip672)" cx="390.822" cy="1396.44" r="14" fill="#e26f46" fill-rule="evenodd" fill-opacity="0.3" stroke="#000000" stroke-opacity="0.3" stroke-width="3.2"/>
<circle clip-path="url(#clip672)" cx="401.92" cy="1389.9" r="14" fill="#e26f46" fill-rule="evenodd" fill-opacity="0.3" stroke="#000000" stroke-opacity="0.3" stroke-width="3.2"/>
<circle clip-path="url(#clip672)" cx="413.017" cy="1369.27" r="14" fill="#e26f46" fill-rule="evenodd" fill-opacity="0.3" stroke="#000000" stroke-opacity="0.3" stroke-width="3.2"/>
<circle clip-path="url(#clip672)" cx="424.133" cy="1360.74" r="14" fill="#e26f46" fill-rule="evenodd" fill-opacity="0.3" stroke="#000000" stroke-opacity="0.3" stroke-width="3.2"/>
<circle clip-path="url(#clip672)" cx="439.323" cy="1342.8" r="14" fill="#e26f46" fill-rule="evenodd" fill-opacity="0.3" stroke="#000000" stroke-opacity="0.3" stroke-width="3.2"/>
<circle clip-path="url(#clip672)" cx="450.306" cy="1331.66" r="14" fill="#e26f46" fill-rule="evenodd" fill-opacity="0.3" stroke="#000000" stroke-opacity="0.3" stroke-width="3.2"/>
<circle clip-path="url(#clip672)" cx="461.289" cy="1316.5" r="14" fill="#e26f46" fill-rule="evenodd" fill-opacity="0.3" stroke="#000000" stroke-opacity="0.3" stroke-width="3.2"/>
<circle clip-path="url(#clip672)" cx="472.253" cy="1309.07" r="14" fill="#e26f46" fill-rule="evenodd" fill-opacity="0.3" stroke="#000000" stroke-opacity="0.3" stroke-width="3.2"/>
<circle clip-path="url(#clip672)" cx="483.236" cy="1273.8" r="14" fill="#e26f46" fill-rule="evenodd" fill-opacity="0.3" stroke="#000000" stroke-opacity="0.3" stroke-width="3.2"/>
<circle clip-path="url(#clip672)" cx="494.219" cy="1256.36" r="14" fill="#e26f46" fill-rule="evenodd" fill-opacity="0.3" stroke="#000000" stroke-opacity="0.3" stroke-width="3.2"/>
<circle clip-path="url(#clip672)" cx="505.221" cy="1224.68" r="14" fill="#e26f46" fill-rule="evenodd" fill-opacity="0.3" stroke="#000000" stroke-opacity="0.3" stroke-width="3.2"/>
<circle clip-path="url(#clip672)" cx="516.223" cy="1194.41" r="14" fill="#e26f46" fill-rule="evenodd" fill-opacity="0.3" stroke="#000000" stroke-opacity="0.3" stroke-width="3.2"/>
<circle clip-path="url(#clip672)" cx="527.206" cy="1180.77" r="14" fill="#e26f46" fill-rule="evenodd" fill-opacity="0.3" stroke="#000000" stroke-opacity="0.3" stroke-width="3.2"/>
<circle clip-path="url(#clip672)" cx="538.227" cy="1154.76" r="14" fill="#e26f46" fill-rule="evenodd" fill-opacity="0.3" stroke="#000000" stroke-opacity="0.3" stroke-width="3.2"/>
<circle clip-path="url(#clip672)" cx="549.191" cy="1135.62" r="14" fill="#e26f46" fill-rule="evenodd" fill-opacity="0.3" stroke="#000000" stroke-opacity="0.3" stroke-width="3.2"/>
<circle clip-path="url(#clip672)" cx="560.174" cy="1117.74" r="14" fill="#e26f46" fill-rule="evenodd" fill-opacity="0.3" stroke="#000000" stroke-opacity="0.3" stroke-width="3.2"/>
<circle clip-path="url(#clip672)" cx="571.157" cy="1099.6" r="14" fill="#e26f46" fill-rule="evenodd" fill-opacity="0.3" stroke="#000000" stroke-opacity="0.3" stroke-width="3.2"/>
<circle clip-path="url(#clip672)" cx="583.816" cy="1074.01" r="14" fill="#e26f46" fill-rule="evenodd" fill-opacity="0.3" stroke="#000000" stroke-opacity="0.3" stroke-width="3.2"/>
<circle clip-path="url(#clip672)" cx="600.509" cy="1038.86" r="14" fill="#e26f46" fill-rule="evenodd" fill-opacity="0.3" stroke="#000000" stroke-opacity="0.3" stroke-width="3.2"/>
<circle clip-path="url(#clip672)" cx="617.203" cy="1017.8" r="14" fill="#e26f46" fill-rule="evenodd" fill-opacity="0.3" stroke="#000000" stroke-opacity="0.3" stroke-width="3.2"/>
<circle clip-path="url(#clip672)" cx="633.877" cy="994.549" r="14" fill="#e26f46" fill-rule="evenodd" fill-opacity="0.3" stroke="#000000" stroke-opacity="0.3" stroke-width="3.2"/>
<circle clip-path="url(#clip672)" cx="650.57" cy="960.536" r="14" fill="#e26f46" fill-rule="evenodd" fill-opacity="0.3" stroke="#000000" stroke-opacity="0.3" stroke-width="3.2"/>
<circle clip-path="url(#clip672)" cx="667.302" cy="936.496" r="14" fill="#e26f46" fill-rule="evenodd" fill-opacity="0.3" stroke="#000000" stroke-opacity="0.3" stroke-width="3.2"/>
<circle clip-path="url(#clip672)" cx="683.995" cy="916.551" r="14" fill="#e26f46" fill-rule="evenodd" fill-opacity="0.3" stroke="#000000" stroke-opacity="0.3" stroke-width="3.2"/>
<circle clip-path="url(#clip672)" cx="700.727" cy="890.059" r="14" fill="#e26f46" fill-rule="evenodd" fill-opacity="0.3" stroke="#000000" stroke-opacity="0.3" stroke-width="3.2"/>
<circle clip-path="url(#clip672)" cx="717.42" cy="873.544" r="14" fill="#e26f46" fill-rule="evenodd" fill-opacity="0.3" stroke="#000000" stroke-opacity="0.3" stroke-width="3.2"/>
<circle clip-path="url(#clip672)" cx="734.114" cy="847.914" r="14" fill="#e26f46" fill-rule="evenodd" fill-opacity="0.3" stroke="#000000" stroke-opacity="0.3" stroke-width="3.2"/>
<circle clip-path="url(#clip672)" cx="750.788" cy="827.377" r="14" fill="#e26f46" fill-rule="evenodd" fill-opacity="0.3" stroke="#000000" stroke-opacity="0.3" stroke-width="3.2"/>
<circle clip-path="url(#clip672)" cx="767.463" cy="813.158" r="14" fill="#e26f46" fill-rule="evenodd" fill-opacity="0.3" stroke="#000000" stroke-opacity="0.3" stroke-width="3.2"/>
<circle clip-path="url(#clip672)" cx="784.156" cy="792.462" r="14" fill="#e26f46" fill-rule="evenodd" fill-opacity="0.3" stroke="#000000" stroke-opacity="0.3" stroke-width="3.2"/>
<circle clip-path="url(#clip672)" cx="800.831" cy="767.435" r="14" fill="#e26f46" fill-rule="evenodd" fill-opacity="0.3" stroke="#000000" stroke-opacity="0.3" stroke-width="3.2"/>
<circle clip-path="url(#clip672)" cx="817.562" cy="747.103" r="14" fill="#e26f46" fill-rule="evenodd" fill-opacity="0.3" stroke="#000000" stroke-opacity="0.3" stroke-width="3.2"/>
<circle clip-path="url(#clip672)" cx="834.237" cy="738.106" r="14" fill="#e26f46" fill-rule="evenodd" fill-opacity="0.3" stroke="#000000" stroke-opacity="0.3" stroke-width="3.2"/>
<circle clip-path="url(#clip672)" cx="850.93" cy="711.47" r="14" fill="#e26f46" fill-rule="evenodd" fill-opacity="0.3" stroke="#000000" stroke-opacity="0.3" stroke-width="3.2"/>
<circle clip-path="url(#clip672)" cx="867.547" cy="695.705" r="14" fill="#e26f46" fill-rule="evenodd" fill-opacity="0.3" stroke="#000000" stroke-opacity="0.3" stroke-width="3.2"/>
<circle clip-path="url(#clip672)" cx="884.241" cy="680.265" r="14" fill="#e26f46" fill-rule="evenodd" fill-opacity="0.3" stroke="#000000" stroke-opacity="0.3" stroke-width="3.2"/>
<circle clip-path="url(#clip672)" cx="900.915" cy="661.87" r="14" fill="#e26f46" fill-rule="evenodd" fill-opacity="0.3" stroke="#000000" stroke-opacity="0.3" stroke-width="3.2"/>
<circle clip-path="url(#clip672)" cx="917.609" cy="648.379" r="14" fill="#e26f46" fill-rule="evenodd" fill-opacity="0.3" stroke="#000000" stroke-opacity="0.3" stroke-width="3.2"/>
<circle clip-path="url(#clip672)" cx="934.283" cy="636.911" r="14" fill="#e26f46" fill-rule="evenodd" fill-opacity="0.3" stroke="#000000" stroke-opacity="0.3" stroke-width="3.2"/>
<circle clip-path="url(#clip672)" cx="950.958" cy="614.215" r="14" fill="#e26f46" fill-rule="evenodd" fill-opacity="0.3" stroke="#000000" stroke-opacity="0.3" stroke-width="3.2"/>
<circle clip-path="url(#clip672)" cx="967.689" cy="588.859" r="14" fill="#e26f46" fill-rule="evenodd" fill-opacity="0.3" stroke="#000000" stroke-opacity="0.3" stroke-width="3.2"/>
<circle clip-path="url(#clip672)" cx="984.44" cy="583.393" r="14" fill="#e26f46" fill-rule="evenodd" fill-opacity="0.3" stroke="#000000" stroke-opacity="0.3" stroke-width="3.2"/>
<circle clip-path="url(#clip672)" cx="1001.11" cy="574.089" r="14" fill="#e26f46" fill-rule="evenodd" fill-opacity="0.3" stroke="#000000" stroke-opacity="0.3" stroke-width="3.2"/>
<circle clip-path="url(#clip672)" cx="1017.81" cy="555.861" r="14" fill="#e26f46" fill-rule="evenodd" fill-opacity="0.3" stroke="#000000" stroke-opacity="0.3" stroke-width="3.2"/>
<circle clip-path="url(#clip672)" cx="1034.5" cy="543.775" r="14" fill="#e26f46" fill-rule="evenodd" fill-opacity="0.3" stroke="#000000" stroke-opacity="0.3" stroke-width="3.2"/>
<circle clip-path="url(#clip672)" cx="1050.79" cy="523.943" r="14" fill="#e26f46" fill-rule="evenodd" fill-opacity="0.3" stroke="#000000" stroke-opacity="0.3" stroke-width="3.2"/>
<circle clip-path="url(#clip672)" cx="1067.49" cy="520.882" r="14" fill="#e26f46" fill-rule="evenodd" fill-opacity="0.3" stroke="#000000" stroke-opacity="0.3" stroke-width="3.2"/>
<circle clip-path="url(#clip672)" cx="1084.18" cy="509.251" r="14" fill="#e26f46" fill-rule="evenodd" fill-opacity="0.3" stroke="#000000" stroke-opacity="0.3" stroke-width="3.2"/>
<circle clip-path="url(#clip672)" cx="1100.89" cy="502.028" r="14" fill="#e26f46" fill-rule="evenodd" fill-opacity="0.3" stroke="#000000" stroke-opacity="0.3" stroke-width="3.2"/>
<circle clip-path="url(#clip672)" cx="1117.63" cy="478.438" r="14" fill="#e26f46" fill-rule="evenodd" fill-opacity="0.3" stroke="#000000" stroke-opacity="0.3" stroke-width="3.2"/>
<circle clip-path="url(#clip672)" cx="1134.34" cy="466.977" r="14" fill="#e26f46" fill-rule="evenodd" fill-opacity="0.3" stroke="#000000" stroke-opacity="0.3" stroke-width="3.2"/>
<circle clip-path="url(#clip672)" cx="1151.05" cy="455.277" r="14" fill="#e26f46" fill-rule="evenodd" fill-opacity="0.3" stroke="#000000" stroke-opacity="0.3" stroke-width="3.2"/>
<circle clip-path="url(#clip672)" cx="1167.78" cy="444.688" r="14" fill="#e26f46" fill-rule="evenodd" fill-opacity="0.3" stroke="#000000" stroke-opacity="0.3" stroke-width="3.2"/>
<circle clip-path="url(#clip672)" cx="1184.49" cy="433.225" r="14" fill="#e26f46" fill-rule="evenodd" fill-opacity="0.3" stroke="#000000" stroke-opacity="0.3" stroke-width="3.2"/>
<circle clip-path="url(#clip672)" cx="1201.21" cy="418.977" r="14" fill="#e26f46" fill-rule="evenodd" fill-opacity="0.3" stroke="#000000" stroke-opacity="0.3" stroke-width="3.2"/>
<circle clip-path="url(#clip672)" cx="1217.92" cy="407.58" r="14" fill="#e26f46" fill-rule="evenodd" fill-opacity="0.3" stroke="#000000" stroke-opacity="0.3" stroke-width="3.2"/>
<circle clip-path="url(#clip672)" cx="1234.65" cy="400.602" r="14" fill="#e26f46" fill-rule="evenodd" fill-opacity="0.3" stroke="#000000" stroke-opacity="0.3" stroke-width="3.2"/>
<circle clip-path="url(#clip672)" cx="1251.38" cy="380.887" r="14" fill="#e26f46" fill-rule="evenodd" fill-opacity="0.3" stroke="#000000" stroke-opacity="0.3" stroke-width="3.2"/>
<circle clip-path="url(#clip672)" cx="1268.15" cy="378.512" r="14" fill="#e26f46" fill-rule="evenodd" fill-opacity="0.3" stroke="#000000" stroke-opacity="0.3" stroke-width="3.2"/>
<circle clip-path="url(#clip672)" cx="1284.88" cy="359.16" r="14" fill="#e26f46" fill-rule="evenodd" fill-opacity="0.3" stroke="#000000" stroke-opacity="0.3" stroke-width="3.2"/>
<circle clip-path="url(#clip672)" cx="1301.6" cy="350.84" r="14" fill="#e26f46" fill-rule="evenodd" fill-opacity="0.3" stroke="#000000" stroke-opacity="0.3" stroke-width="3.2"/>
<circle clip-path="url(#clip672)" cx="1318.33" cy="353.653" r="14" fill="#e26f46" fill-rule="evenodd" fill-opacity="0.3" stroke="#000000" stroke-opacity="0.3" stroke-width="3.2"/>
<circle clip-path="url(#clip672)" cx="1335.06" cy="340.767" r="14" fill="#e26f46" fill-rule="evenodd" fill-opacity="0.3" stroke="#000000" stroke-opacity="0.3" stroke-width="3.2"/>
<circle clip-path="url(#clip672)" cx="1351.77" cy="344.424" r="14" fill="#e26f46" fill-rule="evenodd" fill-opacity="0.3" stroke="#000000" stroke-opacity="0.3" stroke-width="3.2"/>
<circle clip-path="url(#clip672)" cx="1368.48" cy="325.755" r="14" fill="#e26f46" fill-rule="evenodd" fill-opacity="0.3" stroke="#000000" stroke-opacity="0.3" stroke-width="3.2"/>
<circle clip-path="url(#clip672)" cx="1385.2" cy="315.312" r="14" fill="#e26f46" fill-rule="evenodd" fill-opacity="0.3" stroke="#000000" stroke-opacity="0.3" stroke-width="3.2"/>
<circle clip-path="url(#clip672)" cx="1406.57" cy="326.131" r="14" fill="#e26f46" fill-rule="evenodd" fill-opacity="0.3" stroke="#000000" stroke-opacity="0.3" stroke-width="3.2"/>
<circle clip-path="url(#clip672)" cx="1428.39" cy="318.55" r="14" fill="#e26f46" fill-rule="evenodd" fill-opacity="0.3" stroke="#000000" stroke-opacity="0.3" stroke-width="3.2"/>
<circle clip-path="url(#clip672)" cx="1451.7" cy="304.459" r="14" fill="#e26f46" fill-rule="evenodd" fill-opacity="0.3" stroke="#000000" stroke-opacity="0.3" stroke-width="3.2"/>
<circle clip-path="url(#clip672)" cx="1474.96" cy="305.437" r="14" fill="#e26f46" fill-rule="evenodd" fill-opacity="0.3" stroke="#000000" stroke-opacity="0.3" stroke-width="3.2"/>
<circle clip-path="url(#clip672)" cx="1498.26" cy="291.237" r="14" fill="#e26f46" fill-rule="evenodd" fill-opacity="0.3" stroke="#000000" stroke-opacity="0.3" stroke-width="3.2"/>
<circle clip-path="url(#clip672)" cx="1521.52" cy="290.071" r="14" fill="#e26f46" fill-rule="evenodd" fill-opacity="0.3" stroke="#000000" stroke-opacity="0.3" stroke-width="3.2"/>
<circle clip-path="url(#clip672)" cx="1544.8" cy="273.458" r="14" fill="#e26f46" fill-rule="evenodd" fill-opacity="0.3" stroke="#000000" stroke-opacity="0.3" stroke-width="3.2"/>
<circle clip-path="url(#clip672)" cx="1568.08" cy="271.135" r="14" fill="#e26f46" fill-rule="evenodd" fill-opacity="0.3" stroke="#000000" stroke-opacity="0.3" stroke-width="3.2"/>
<circle clip-path="url(#clip672)" cx="1591.34" cy="257.233" r="14" fill="#e26f46" fill-rule="evenodd" fill-opacity="0.3" stroke="#000000" stroke-opacity="0.3" stroke-width="3.2"/>
<circle clip-path="url(#clip672)" cx="1614.6" cy="238.938" r="14" fill="#e26f46" fill-rule="evenodd" fill-opacity="0.3" stroke="#000000" stroke-opacity="0.3" stroke-width="3.2"/>
<circle clip-path="url(#clip672)" cx="1637.86" cy="233.373" r="14" fill="#e26f46" fill-rule="evenodd" fill-opacity="0.3" stroke="#000000" stroke-opacity="0.3" stroke-width="3.2"/>
<circle clip-path="url(#clip672)" cx="1661.14" cy="227.997" r="14" fill="#e26f46" fill-rule="evenodd" fill-opacity="0.3" stroke="#000000" stroke-opacity="0.3" stroke-width="3.2"/>
<circle clip-path="url(#clip672)" cx="1684.39" cy="218.446" r="14" fill="#e26f46" fill-rule="evenodd" fill-opacity="0.3" stroke="#000000" stroke-opacity="0.3" stroke-width="3.2"/>
<circle clip-path="url(#clip672)" cx="1707.65" cy="206.226" r="14" fill="#e26f46" fill-rule="evenodd" fill-opacity="0.3" stroke="#000000" stroke-opacity="0.3" stroke-width="3.2"/>
<circle clip-path="url(#clip672)" cx="1730.94" cy="183.998" r="14" fill="#e26f46" fill-rule="evenodd" fill-opacity="0.3" stroke="#000000" stroke-opacity="0.3" stroke-width="3.2"/>
<circle clip-path="url(#clip672)" cx="1754.2" cy="175.679" r="14" fill="#e26f46" fill-rule="evenodd" fill-opacity="0.3" stroke="#000000" stroke-opacity="0.3" stroke-width="3.2"/>
<circle clip-path="url(#clip672)" cx="1777.46" cy="167.711" r="14" fill="#e26f46" fill-rule="evenodd" fill-opacity="0.3" stroke="#000000" stroke-opacity="0.3" stroke-width="3.2"/>
<circle clip-path="url(#clip672)" cx="1800.71" cy="158.957" r="14" fill="#e26f46" fill-rule="evenodd" fill-opacity="0.3" stroke="#000000" stroke-opacity="0.3" stroke-width="3.2"/>
<circle clip-path="url(#clip672)" cx="1823.95" cy="145.339" r="14" fill="#e26f46" fill-rule="evenodd" fill-opacity="0.3" stroke="#000000" stroke-opacity="0.3" stroke-width="3.2"/>
<circle clip-path="url(#clip672)" cx="1847.23" cy="135.78" r="14" fill="#e26f46" fill-rule="evenodd" fill-opacity="0.3" stroke="#000000" stroke-opacity="0.3" stroke-width="3.2"/>
<circle clip-path="url(#clip672)" cx="1870.49" cy="123.394" r="14" fill="#e26f46" fill-rule="evenodd" fill-opacity="0.3" stroke="#000000" stroke-opacity="0.3" stroke-width="3.2"/>
<circle clip-path="url(#clip672)" cx="1893.73" cy="117.415" r="14" fill="#e26f46" fill-rule="evenodd" fill-opacity="0.3" stroke="#000000" stroke-opacity="0.3" stroke-width="3.2"/>
<path clip-path="url(#clip670)" d="
M1680.79 1361.45 L1895.65 1361.45 L1895.65 1240.49 L1680.79 1240.49  Z
  " fill="#ffffff" fill-rule="evenodd" fill-opacity="1"/>
<polyline clip-path="url(#clip670)" style="stroke:#000000; stroke-width:4; stroke-opacity:1; fill:none" points="
  1680.79,1361.45 1895.65,1361.45 1895.65,1240.49 1680.79,1240.49 1680.79,1361.45 
  "/>
<polyline clip-path="url(#clip670)" style="stroke:#e26f46; stroke-width:4; stroke-opacity:1; fill:none" points="
  1699.83,1300.97 1814.03,1300.97 
  "/>
<path clip-path="url(#clip670)" d="M 0 0 M1837.74 1301.74 L1837.74 1314.4 L1845.24 1314.4 Q1849.02 1314.4 1850.82 1312.85 Q1852.65 1311.28 1852.65 1308.06 Q1852.65 1304.82 1850.82 1303.29 Q1849.02 1301.74 1845.24 1301.74 L1837.74 1301.74 M1837.74 1287.53 L1837.74 1297.95 L1844.67 1297.95 Q1848.09 1297.95 1849.76 1296.67 Q1851.45 1295.38 1851.45 1292.74 Q1851.45 1290.12 1849.76 1288.83 Q1848.09 1287.53 1844.67 1287.53 L1837.74 1287.53 M1833.07 1283.69 L1845.01 1283.69 Q1850.36 1283.69 1853.25 1285.91 Q1856.15 1288.13 1856.15 1292.23 Q1856.15 1295.4 1854.67 1297.27 Q1853.18 1299.15 1850.31 1299.61 Q1853.76 1300.35 1855.66 1302.71 Q1857.58 1305.05 1857.58 1308.57 Q1857.58 1313.2 1854.43 1315.72 Q1851.29 1318.25 1845.48 1318.25 L1833.07 1318.25 L1833.07 1283.69 Z" fill="#000000" fill-rule="evenodd" fill-opacity="1" /></svg>
