<?xml version="1.0" encoding="utf-8"?>
<svg xmlns="http://www.w3.org/2000/svg" xmlns:xlink="http://www.w3.org/1999/xlink" width="500" height="400" viewBox="0 0 2000 1600">
<defs>
  <clipPath id="clip750">
    <rect x="0" y="0" width="2000" height="1600"/>
  </clipPath>
</defs>
<path clip-path="url(#clip750)" d="
M0 1600 L2000 1600 L2000 0 L0 0  Z
  " fill="#ffffff" fill-rule="evenodd" fill-opacity="1"/>
<defs>
  <clipPath id="clip751">
    <rect x="400" y="0" width="1401" height="1401"/>
  </clipPath>
</defs>
<path clip-path="url(#clip750)" d="
M239.629 1406.76 L1952.76 1406.76 L1952.76 47.2441 L239.629 47.2441  Z
  " fill="#ffffff" fill-rule="evenodd" fill-opacity="1"/>
<defs>
  <clipPath id="clip752">
    <rect x="239" y="47" width="1714" height="1361"/>
  </clipPath>
</defs>
<polyline clip-path="url(#clip752)" style="stroke:#000000; stroke-width:2; stroke-opacity:0.1; fill:none" points="
  239.629,1406.76 239.629,47.2441 
  "/>
<polyline clip-path="url(#clip752)" style="stroke:#000000; stroke-width:2; stroke-opacity:0.1; fill:none" points="
  582.255,1406.76 582.255,47.2441 
  "/>
<polyline clip-path="url(#clip752)" style="stroke:#000000; stroke-width:2; stroke-opacity:0.1; fill:none" points="
  924.88,1406.76 924.88,47.2441 
  "/>
<polyline clip-path="url(#clip752)" style="stroke:#000000; stroke-width:2; stroke-opacity:0.1; fill:none" points="
  1267.51,1406.76 1267.51,47.2441 
  "/>
<polyline clip-path="url(#clip752)" style="stroke:#000000; stroke-width:2; stroke-opacity:0.1; fill:none" points="
  1610.13,1406.76 1610.13,47.2441 
  "/>
<polyline clip-path="url(#clip752)" style="stroke:#000000; stroke-width:2; stroke-opacity:0.1; fill:none" points="
  1952.76,1406.76 1952.76,47.2441 
  "/>
<polyline clip-path="url(#clip750)" style="stroke:#000000; stroke-width:4; stroke-opacity:1; fill:none" points="
  239.629,1406.76 1952.76,1406.76 
  "/>
<polyline clip-path="url(#clip750)" style="stroke:#000000; stroke-width:4; stroke-opacity:1; fill:none" points="
  239.629,1406.76 239.629,1390.45 
  "/>
<polyline clip-path="url(#clip750)" style="stroke:#000000; stroke-width:4; stroke-opacity:1; fill:none" points="
  582.255,1406.76 582.255,1390.45 
  "/>
<polyline clip-path="url(#clip750)" style="stroke:#000000; stroke-width:4; stroke-opacity:1; fill:none" points="
  924.88,1406.76 924.88,1390.45 
  "/>
<polyline clip-path="url(#clip750)" style="stroke:#000000; stroke-width:4; stroke-opacity:1; fill:none" points="
  1267.51,1406.76 1267.51,1390.45 
  "/>
<polyline clip-path="url(#clip750)" style="stroke:#000000; stroke-width:4; stroke-opacity:1; fill:none" points="
  1610.13,1406.76 1610.13,1390.45 
  "/>
<polyline clip-path="url(#clip750)" style="stroke:#000000; stroke-width:4; stroke-opacity:1; fill:none" points="
  1952.76,1406.76 1952.76,1390.45 
  "/>
<path clip-path="url(#clip750)" d="M 0 0 M239.629 1432.75 Q236.018 1432.75 234.19 1436.32 Q232.384 1439.86 232.384 1446.99 Q232.384 1454.1 234.19 1457.66 Q236.018 1461.2 239.629 1461.2 Q243.264 1461.2 245.069 1457.66 Q246.898 1454.1 246.898 1446.99 Q246.898 1439.86 245.069 1436.32 Q243.264 1432.75 239.629 1432.75 M239.629 1429.05 Q245.44 1429.05 248.495 1433.66 Q251.574 1438.24 251.574 1446.99 Q251.574 1455.72 248.495 1460.32 Q245.44 1464.91 239.629 1464.91 Q233.819 1464.91 230.741 1460.32 Q227.685 1455.72 227.685 1446.99 Q227.685 1438.24 230.741 1433.66 Q233.819 1429.05 239.629 1429.05 Z" fill="#000000" fill-rule="evenodd" fill-opacity="1" /><path clip-path="url(#clip750)" d="M 0 0 M556.942 1460.3 L564.581 1460.3 L564.581 1433.94 L556.271 1435.6 L556.271 1431.34 L564.535 1429.68 L569.211 1429.68 L569.211 1460.3 L576.85 1460.3 L576.85 1464.24 L556.942 1464.24 L556.942 1460.3 Z" fill="#000000" fill-rule="evenodd" fill-opacity="1" /><path clip-path="url(#clip750)" d="M 0 0 M596.294 1432.75 Q592.683 1432.75 590.854 1436.32 Q589.049 1439.86 589.049 1446.99 Q589.049 1454.1 590.854 1457.66 Q592.683 1461.2 596.294 1461.2 Q599.928 1461.2 601.734 1457.66 Q603.562 1454.1 603.562 1446.99 Q603.562 1439.86 601.734 1436.32 Q599.928 1432.75 596.294 1432.75 M596.294 1429.05 Q602.104 1429.05 605.16 1433.66 Q608.238 1438.24 608.238 1446.99 Q608.238 1455.72 605.16 1460.32 Q602.104 1464.91 596.294 1464.91 Q590.484 1464.91 587.405 1460.32 Q584.35 1455.72 584.35 1446.99 Q584.35 1438.24 587.405 1433.66 Q590.484 1429.05 596.294 1429.05 Z" fill="#000000" fill-rule="evenodd" fill-opacity="1" /><path clip-path="url(#clip750)" d="M 0 0 M903.653 1460.3 L919.973 1460.3 L919.973 1464.24 L898.028 1464.24 L898.028 1460.3 Q900.69 1457.55 905.274 1452.92 Q909.88 1448.26 911.061 1446.92 Q913.306 1444.4 914.186 1442.66 Q915.088 1440.9 915.088 1439.21 Q915.088 1436.46 913.144 1434.72 Q911.223 1432.99 908.121 1432.99 Q905.922 1432.99 903.468 1433.75 Q901.038 1434.51 898.26 1436.06 L898.26 1431.34 Q901.084 1430.21 903.538 1429.63 Q905.991 1429.05 908.028 1429.05 Q913.399 1429.05 916.593 1431.74 Q919.787 1434.42 919.787 1438.91 Q919.787 1441.04 918.977 1442.96 Q918.19 1444.86 916.084 1447.45 Q915.505 1448.12 912.403 1451.34 Q909.301 1454.54 903.653 1460.3 Z" fill="#000000" fill-rule="evenodd" fill-opacity="1" /><path clip-path="url(#clip750)" d="M 0 0 M939.787 1432.75 Q936.176 1432.75 934.348 1436.32 Q932.542 1439.86 932.542 1446.99 Q932.542 1454.1 934.348 1457.66 Q936.176 1461.2 939.787 1461.2 Q943.422 1461.2 945.227 1457.66 Q947.056 1454.1 947.056 1446.99 Q947.056 1439.86 945.227 1436.32 Q943.422 1432.75 939.787 1432.75 M939.787 1429.05 Q945.598 1429.05 948.653 1433.66 Q951.732 1438.24 951.732 1446.99 Q951.732 1455.72 948.653 1460.32 Q945.598 1464.91 939.787 1464.91 Q933.977 1464.91 930.899 1460.32 Q927.843 1455.72 927.843 1446.99 Q927.843 1438.24 930.899 1433.66 Q933.977 1429.05 939.787 1429.05 Z" fill="#000000" fill-rule="evenodd" fill-opacity="1" /><path clip-path="url(#clip750)" d="M 0 0 M1256.35 1445.6 Q1259.7 1446.32 1261.58 1448.59 Q1263.48 1450.86 1263.48 1454.19 Q1263.48 1459.31 1259.96 1462.11 Q1256.44 1464.91 1249.96 1464.91 Q1247.78 1464.91 1245.47 1464.47 Q1243.18 1464.05 1240.72 1463.19 L1240.72 1458.68 Q1242.67 1459.81 1244.98 1460.39 Q1247.3 1460.97 1249.82 1460.97 Q1254.22 1460.97 1256.51 1459.24 Q1258.82 1457.5 1258.82 1454.19 Q1258.82 1451.13 1256.67 1449.42 Q1254.54 1447.69 1250.72 1447.69 L1246.7 1447.69 L1246.7 1443.84 L1250.91 1443.84 Q1254.36 1443.84 1256.19 1442.48 Q1258.01 1441.09 1258.01 1438.5 Q1258.01 1435.83 1256.12 1434.42 Q1254.24 1432.99 1250.72 1432.99 Q1248.8 1432.99 1246.6 1433.4 Q1244.4 1433.82 1241.76 1434.7 L1241.76 1430.53 Q1244.43 1429.79 1246.74 1429.42 Q1249.08 1429.05 1251.14 1429.05 Q1256.46 1429.05 1259.57 1431.48 Q1262.67 1433.89 1262.67 1438.01 Q1262.67 1440.88 1261.02 1442.87 Q1259.38 1444.84 1256.35 1445.6 Z" fill="#000000" fill-rule="evenodd" fill-opacity="1" /><path clip-path="url(#clip750)" d="M 0 0 M1282.34 1432.75 Q1278.73 1432.75 1276.9 1436.32 Q1275.1 1439.86 1275.1 1446.99 Q1275.1 1454.1 1276.9 1457.66 Q1278.73 1461.2 1282.34 1461.2 Q1285.98 1461.2 1287.78 1457.66 Q1289.61 1454.1 1289.61 1446.99 Q1289.61 1439.86 1287.78 1436.32 Q1285.98 1432.75 1282.34 1432.75 M1282.34 1429.05 Q1288.15 1429.05 1291.21 1433.66 Q1294.29 1438.24 1294.29 1446.99 Q1294.29 1455.72 1291.21 1460.32 Q1288.15 1464.91 1282.34 1464.91 Q1276.53 1464.91 1273.45 1460.32 Q1270.4 1455.72 1270.4 1446.99 Q1270.4 1438.24 1273.45 1433.66 Q1276.53 1429.05 1282.34 1429.05 Z" fill="#000000" fill-rule="evenodd" fill-opacity="1" /><path clip-path="url(#clip750)" d="M 0 0 M1598.3 1433.75 L1586.5 1452.2 L1598.3 1452.2 L1598.3 1433.75 M1597.08 1429.68 L1602.95 1429.68 L1602.95 1452.2 L1607.89 1452.2 L1607.89 1456.09 L1602.95 1456.09 L1602.95 1464.24 L1598.3 1464.24 L1598.3 1456.09 L1582.7 1456.09 L1582.7 1451.57 L1597.08 1429.68 Z" fill="#000000" fill-rule="evenodd" fill-opacity="1" /><path clip-path="url(#clip750)" d="M 0 0 M1625.62 1432.75 Q1622.01 1432.75 1620.18 1436.32 Q1618.37 1439.86 1618.37 1446.99 Q1618.37 1454.1 1620.18 1457.66 Q1622.01 1461.2 1625.62 1461.2 Q1629.25 1461.2 1631.06 1457.66 Q1632.89 1454.1 1632.89 1446.99 Q1632.89 1439.86 1631.06 1436.32 Q1629.25 1432.75 1625.62 1432.75 M1625.62 1429.05 Q1631.43 1429.05 1634.48 1433.66 Q1637.56 1438.24 1637.56 1446.99 Q1637.56 1455.72 1634.48 1460.32 Q1631.43 1464.91 1625.62 1464.91 Q1619.81 1464.91 1616.73 1460.32 Q1613.67 1455.72 1613.67 1446.99 Q1613.67 1438.24 1616.73 1433.66 Q1619.81 1429.05 1625.62 1429.05 Z" fill="#000000" fill-rule="evenodd" fill-opacity="1" /><path clip-path="url(#clip750)" d="M 0 0 M1927.46 1429.68 L1945.81 1429.68 L1945.81 1433.61 L1931.74 1433.61 L1931.74 1442.08 Q1932.76 1441.74 1933.77 1441.57 Q1934.79 1441.39 1935.81 1441.39 Q1941.6 1441.39 1944.98 1444.56 Q1948.36 1447.73 1948.36 1453.15 Q1948.36 1458.73 1944.89 1461.83 Q1941.41 1464.91 1935.09 1464.91 Q1932.92 1464.91 1930.65 1464.54 Q1928.4 1464.17 1926 1463.43 L1926 1458.73 Q1928.08 1459.86 1930.3 1460.42 Q1932.52 1460.97 1935 1460.97 Q1939.01 1460.97 1941.34 1458.87 Q1943.68 1456.76 1943.68 1453.15 Q1943.68 1449.54 1941.34 1447.43 Q1939.01 1445.32 1935 1445.32 Q1933.13 1445.32 1931.25 1445.74 Q1929.4 1446.16 1927.46 1447.04 L1927.46 1429.68 Z" fill="#000000" fill-rule="evenodd" fill-opacity="1" /><path clip-path="url(#clip750)" d="M 0 0 M1967.57 1432.75 Q1963.96 1432.75 1962.13 1436.32 Q1960.33 1439.86 1960.33 1446.99 Q1960.33 1454.1 1962.13 1457.66 Q1963.96 1461.2 1967.57 1461.2 Q1971.2 1461.2 1973.01 1457.66 Q1974.84 1454.1 1974.84 1446.99 Q1974.84 1439.86 1973.01 1436.32 Q1971.2 1432.75 1967.57 1432.75 M1967.57 1429.05 Q1973.38 1429.05 1976.44 1433.66 Q1979.52 1438.24 1979.52 1446.99 Q1979.52 1455.72 1976.44 1460.32 Q1973.38 1464.91 1967.57 1464.91 Q1961.76 1464.91 1958.68 1460.32 Q1955.63 1455.72 1955.63 1446.99 Q1955.63 1438.24 1958.68 1433.66 Q1961.76 1429.05 1967.57 1429.05 Z" fill="#000000" fill-rule="evenodd" fill-opacity="1" /><path clip-path="url(#clip750)" d="M 0 0 M949.288 1498.11 L989.488 1498.11 L989.488 1503.52 L972.618 1503.52 L972.618 1545.63 L966.157 1545.63 L966.157 1503.52 L949.288 1503.52 L949.288 1498.11 Z" fill="#000000" fill-rule="evenodd" fill-opacity="1" /><path clip-path="url(#clip750)" d="M 0 0 M993.434 1509.98 L999.291 1509.98 L999.291 1545.63 L993.434 1545.63 L993.434 1509.98 M993.434 1496.1 L999.291 1496.1 L999.291 1503.52 L993.434 1503.52 L993.434 1496.1 Z" fill="#000000" fill-rule="evenodd" fill-opacity="1" /><path clip-path="url(#clip750)" d="M 0 0 M1039.3 1516.82 Q1041.5 1512.88 1044.55 1511 Q1047.61 1509.12 1051.74 1509.12 Q1057.31 1509.12 1060.34 1513.04 Q1063.36 1516.92 1063.36 1524.11 L1063.36 1545.63 L1057.47 1545.63 L1057.47 1524.3 Q1057.47 1519.18 1055.66 1516.7 Q1053.84 1514.21 1050.12 1514.21 Q1045.57 1514.21 1042.93 1517.24 Q1040.29 1520.26 1040.29 1525.48 L1040.29 1545.63 L1034.4 1545.63 L1034.4 1524.3 Q1034.4 1519.15 1032.58 1516.7 Q1030.77 1514.21 1026.98 1514.21 Q1022.49 1514.21 1019.85 1517.27 Q1017.21 1520.29 1017.21 1525.48 L1017.21 1545.63 L1011.32 1545.63 L1011.32 1509.98 L1017.21 1509.98 L1017.21 1515.52 Q1019.22 1512.24 1022.02 1510.68 Q1024.82 1509.12 1028.67 1509.12 Q1032.55 1509.12 1035.26 1511.09 Q1037.99 1513.07 1039.3 1516.82 Z" fill="#000000" fill-rule="evenodd" fill-opacity="1" /><path clip-path="url(#clip750)" d="M 0 0 M1105.53 1526.34 L1105.53 1529.2 L1078.61 1529.2 Q1078.99 1535.25 1082.24 1538.43 Q1085.51 1541.59 1091.34 1541.59 Q1094.71 1541.59 1097.86 1540.76 Q1101.05 1539.93 1104.17 1538.28 L1104.17 1543.81 Q1101.01 1545.15 1097.7 1545.85 Q1094.39 1546.55 1090.99 1546.55 Q1082.46 1546.55 1077.46 1541.59 Q1072.5 1536.62 1072.5 1528.15 Q1072.5 1519.4 1077.21 1514.28 Q1081.95 1509.12 1089.97 1509.12 Q1097.16 1509.12 1101.33 1513.77 Q1105.53 1518.38 1105.53 1526.34 M1099.68 1524.62 Q1099.61 1519.81 1096.97 1516.95 Q1094.36 1514.09 1090.03 1514.09 Q1085.13 1514.09 1082.17 1516.85 Q1079.24 1519.62 1078.8 1524.65 L1099.68 1524.62 Z" fill="#000000" fill-rule="evenodd" fill-opacity="1" /><path clip-path="url(#clip750)" d="M 0 0 M1149.94 1496.17 Q1145.67 1503.49 1143.6 1510.65 Q1141.53 1517.81 1141.53 1525.16 Q1141.53 1532.51 1143.6 1539.74 Q1145.7 1546.93 1149.94 1554.22 L1144.84 1554.22 Q1140.07 1546.74 1137.68 1539.52 Q1135.33 1532.29 1135.33 1525.16 Q1135.33 1518.06 1137.68 1510.87 Q1140.04 1503.68 1144.84 1496.17 L1149.94 1496.17 Z" fill="#000000" fill-rule="evenodd" fill-opacity="1" /><path clip-path="url(#clip750)" d="M 0 0 M1190.93 1524.11 L1190.93 1545.63 L1185.07 1545.63 L1185.07 1524.3 Q1185.07 1519.24 1183.1 1516.73 Q1181.13 1514.21 1177.18 1514.21 Q1172.44 1514.21 1169.7 1517.24 Q1166.96 1520.26 1166.96 1525.48 L1166.96 1545.63 L1161.08 1545.63 L1161.08 1496.1 L1166.96 1496.1 L1166.96 1515.52 Q1169.06 1512.3 1171.9 1510.71 Q1174.76 1509.12 1178.49 1509.12 Q1184.63 1509.12 1187.78 1512.94 Q1190.93 1516.73 1190.93 1524.11 Z" fill="#000000" fill-rule="evenodd" fill-opacity="1" /><path clip-path="url(#clip750)" d="M 0 0 M1223.27 1515.45 Q1222.28 1514.88 1221.1 1514.63 Q1219.96 1514.34 1218.56 1514.34 Q1213.59 1514.34 1210.92 1517.59 Q1208.28 1520.8 1208.28 1526.85 L1208.28 1545.63 L1202.39 1545.63 L1202.39 1509.98 L1208.28 1509.98 L1208.28 1515.52 Q1210.12 1512.27 1213.08 1510.71 Q1216.04 1509.12 1220.28 1509.12 Q1220.88 1509.12 1221.61 1509.22 Q1222.35 1509.28 1223.24 1509.44 L1223.27 1515.45 Z" fill="#000000" fill-rule="evenodd" fill-opacity="1" /><path clip-path="url(#clip750)" d="M 0 0 M1228.49 1496.17 L1233.58 1496.17 Q1238.35 1503.68 1240.71 1510.87 Q1243.1 1518.06 1243.1 1525.16 Q1243.1 1532.29 1240.71 1539.52 Q1238.35 1546.74 1233.58 1554.22 L1228.49 1554.22 Q1232.72 1546.93 1234.79 1539.74 Q1236.89 1532.51 1236.89 1525.16 Q1236.89 1517.81 1234.79 1510.65 Q1232.72 1503.49 1228.49 1496.17 Z" fill="#000000" fill-rule="evenodd" fill-opacity="1" /><polyline clip-path="url(#clip752)" style="stroke:#000000; stroke-width:2; stroke-opacity:0.1; fill:none" points="
  239.629,1406.76 1952.76,1406.76 
  "/>
<polyline clip-path="url(#clip752)" style="stroke:#000000; stroke-width:2; stroke-opacity:0.1; fill:none" points="
  239.629,1212.55 1952.76,1212.55 
  "/>
<polyline clip-path="url(#clip752)" style="stroke:#000000; stroke-width:2; stroke-opacity:0.1; fill:none" points="
  239.629,1018.33 1952.76,1018.33 
  "/>
<polyline clip-path="url(#clip752)" style="stroke:#000000; stroke-width:2; stroke-opacity:0.1; fill:none" points="
  239.629,824.113 1952.76,824.113 
  "/>
<polyline clip-path="url(#clip752)" style="stroke:#000000; stroke-width:2; stroke-opacity:0.1; fill:none" points="
  239.629,629.895 1952.76,629.895 
  "/>
<polyline clip-path="url(#clip752)" style="stroke:#000000; stroke-width:2; stroke-opacity:0.1; fill:none" points="
  239.629,435.678 1952.76,435.678 
  "/>
<polyline clip-path="url(#clip752)" style="stroke:#000000; stroke-width:2; stroke-opacity:0.1; fill:none" points="
  239.629,241.461 1952.76,241.461 
  "/>
<polyline clip-path="url(#clip752)" style="stroke:#000000; stroke-width:2; stroke-opacity:0.1; fill:none" points="
  239.629,47.2441 1952.76,47.2441 
  "/>
<polyline clip-path="url(#clip750)" style="stroke:#000000; stroke-width:4; stroke-opacity:1; fill:none" points="
  239.629,1406.76 239.629,47.2441 
  "/>
<polyline clip-path="url(#clip750)" style="stroke:#000000; stroke-width:4; stroke-opacity:1; fill:none" points="
  239.629,1406.76 260.187,1406.76 
  "/>
<polyline clip-path="url(#clip750)" style="stroke:#000000; stroke-width:4; stroke-opacity:1; fill:none" points="
  239.629,1212.55 260.187,1212.55 
  "/>
<polyline clip-path="url(#clip750)" style="stroke:#000000; stroke-width:4; stroke-opacity:1; fill:none" points="
  239.629,1018.33 260.187,1018.33 
  "/>
<polyline clip-path="url(#clip750)" style="stroke:#000000; stroke-width:4; stroke-opacity:1; fill:none" points="
  239.629,824.113 260.187,824.113 
  "/>
<polyline clip-path="url(#clip750)" style="stroke:#000000; stroke-width:4; stroke-opacity:1; fill:none" points="
  239.629,629.895 260.187,629.895 
  "/>
<polyline clip-path="url(#clip750)" style="stroke:#000000; stroke-width:4; stroke-opacity:1; fill:none" points="
  239.629,435.678 260.187,435.678 
  "/>
<polyline clip-path="url(#clip750)" style="stroke:#000000; stroke-width:4; stroke-opacity:1; fill:none" points="
  239.629,241.461 260.187,241.461 
  "/>
<polyline clip-path="url(#clip750)" style="stroke:#000000; stroke-width:4; stroke-opacity:1; fill:none" points="
  239.629,47.2441 260.187,47.2441 
  "/>
<path clip-path="url(#clip750)" d="M 0 0 M197.685 1392.56 Q194.074 1392.56 192.245 1396.13 Q190.44 1399.67 190.44 1406.8 Q190.44 1413.91 192.245 1417.47 Q194.074 1421.01 197.685 1421.01 Q201.319 1421.01 203.125 1417.47 Q204.954 1413.91 204.954 1406.8 Q204.954 1399.67 203.125 1396.13 Q201.319 1392.56 197.685 1392.56 M197.685 1388.86 Q203.495 1388.86 206.551 1393.47 Q209.629 1398.05 209.629 1406.8 Q209.629 1415.53 206.551 1420.13 Q203.495 1424.72 197.685 1424.72 Q191.875 1424.72 188.796 1420.13 Q185.741 1415.53 185.741 1406.8 Q185.741 1398.05 188.796 1393.47 Q191.875 1388.86 197.685 1388.86 Z" fill="#000000" fill-rule="evenodd" fill-opacity="1" /><path clip-path="url(#clip750)" d="M 0 0 M171.69 1211.19 Q175.046 1211.91 176.921 1214.18 Q178.819 1216.45 178.819 1219.78 Q178.819 1224.9 175.301 1227.7 Q171.782 1230.5 165.301 1230.5 Q163.125 1230.5 160.81 1230.06 Q158.519 1229.64 156.065 1228.79 L156.065 1224.27 Q158.009 1225.41 160.324 1225.98 Q162.639 1226.56 165.162 1226.56 Q169.56 1226.56 171.852 1224.83 Q174.167 1223.09 174.167 1219.78 Q174.167 1216.72 172.014 1215.01 Q169.884 1213.28 166.065 1213.28 L162.037 1213.28 L162.037 1209.43 L166.25 1209.43 Q169.699 1209.43 171.528 1208.07 Q173.356 1206.68 173.356 1204.09 Q173.356 1201.42 171.458 1200.01 Q169.583 1198.58 166.065 1198.58 Q164.144 1198.58 161.945 1198.99 Q159.745 1199.41 157.107 1200.29 L157.107 1196.12 Q159.769 1195.38 162.083 1195.01 Q164.421 1194.64 166.482 1194.64 Q171.806 1194.64 174.907 1197.07 Q178.009 1199.48 178.009 1203.6 Q178.009 1206.47 176.366 1208.46 Q174.722 1210.43 171.69 1211.19 Z" fill="#000000" fill-rule="evenodd" fill-opacity="1" /><path clip-path="url(#clip750)" d="M 0 0 M197.685 1198.35 Q194.074 1198.35 192.245 1201.91 Q190.44 1205.45 190.44 1212.58 Q190.44 1219.69 192.245 1223.25 Q194.074 1226.79 197.685 1226.79 Q201.319 1226.79 203.125 1223.25 Q204.954 1219.69 204.954 1212.58 Q204.954 1205.45 203.125 1201.91 Q201.319 1198.35 197.685 1198.35 M197.685 1194.64 Q203.495 1194.64 206.551 1199.25 Q209.629 1203.83 209.629 1212.58 Q209.629 1221.31 206.551 1225.91 Q203.495 1230.5 197.685 1230.5 Q191.875 1230.5 188.796 1225.91 Q185.741 1221.31 185.741 1212.58 Q185.741 1203.83 188.796 1199.25 Q191.875 1194.64 197.685 1194.64 Z" fill="#000000" fill-rule="evenodd" fill-opacity="1" /><path clip-path="url(#clip750)" d="M 0 0 M168.102 1016.47 Q164.954 1016.47 163.102 1018.62 Q161.273 1020.77 161.273 1024.52 Q161.273 1028.25 163.102 1030.42 Q164.954 1032.58 168.102 1032.58 Q171.25 1032.58 173.079 1030.42 Q174.931 1028.25 174.931 1024.52 Q174.931 1020.77 173.079 1018.62 Q171.25 1016.47 168.102 1016.47 M177.384 1001.81 L177.384 1006.07 Q175.625 1005.24 173.819 1004.8 Q172.037 1004.36 170.278 1004.36 Q165.648 1004.36 163.195 1007.48 Q160.764 1010.61 160.417 1016.93 Q161.782 1014.92 163.843 1013.85 Q165.903 1012.76 168.38 1012.76 Q173.588 1012.76 176.597 1015.93 Q179.63 1019.08 179.63 1024.52 Q179.63 1029.85 176.481 1033.06 Q173.333 1036.28 168.102 1036.28 Q162.107 1036.28 158.935 1031.7 Q155.764 1027.09 155.764 1018.36 Q155.764 1010.17 159.653 1005.31 Q163.542 1000.42 170.093 1000.42 Q171.852 1000.42 173.634 1000.77 Q175.44 1001.12 177.384 1001.81 Z" fill="#000000" fill-rule="evenodd" fill-opacity="1" /><path clip-path="url(#clip750)" d="M 0 0 M197.685 1004.13 Q194.074 1004.13 192.245 1007.69 Q190.44 1011.23 190.44 1018.36 Q190.44 1025.47 192.245 1029.04 Q194.074 1032.58 197.685 1032.58 Q201.319 1032.58 203.125 1029.04 Q204.954 1025.47 204.954 1018.36 Q204.954 1011.23 203.125 1007.69 Q201.319 1004.13 197.685 1004.13 M197.685 1000.42 Q203.495 1000.42 206.551 1005.03 Q209.629 1009.61 209.629 1018.36 Q209.629 1027.09 206.551 1031.7 Q203.495 1036.28 197.685 1036.28 Q191.875 1036.28 188.796 1031.7 Q185.741 1027.09 185.741 1018.36 Q185.741 1009.61 188.796 1005.03 Q191.875 1000.42 197.685 1000.42 Z" fill="#000000" fill-rule="evenodd" fill-opacity="1" /><path clip-path="url(#clip750)" d="M 0 0 M157.662 840.675 L157.662 836.416 Q159.421 837.249 161.227 837.689 Q163.032 838.129 164.769 838.129 Q169.398 838.129 171.829 835.027 Q174.282 831.902 174.63 825.559 Q173.287 827.55 171.227 828.615 Q169.167 829.68 166.667 829.68 Q161.482 829.68 158.449 826.555 Q155.44 823.407 155.44 817.967 Q155.44 812.643 158.588 809.425 Q161.736 806.208 166.968 806.208 Q172.963 806.208 176.111 810.814 Q179.282 815.397 179.282 824.147 Q179.282 832.318 175.394 837.203 Q171.528 842.064 164.977 842.064 Q163.218 842.064 161.412 841.717 Q159.607 841.369 157.662 840.675 M166.968 826.022 Q170.116 826.022 171.944 823.869 Q173.796 821.717 173.796 817.967 Q173.796 814.24 171.944 812.087 Q170.116 809.911 166.968 809.911 Q163.82 809.911 161.968 812.087 Q160.139 814.24 160.139 817.967 Q160.139 821.717 161.968 823.869 Q163.82 826.022 166.968 826.022 Z" fill="#000000" fill-rule="evenodd" fill-opacity="1" /><path clip-path="url(#clip750)" d="M 0 0 M197.685 809.911 Q194.074 809.911 192.245 813.476 Q190.44 817.018 190.44 824.147 Q190.44 831.254 192.245 834.818 Q194.074 838.36 197.685 838.36 Q201.319 838.36 203.125 834.818 Q204.954 831.254 204.954 824.147 Q204.954 817.018 203.125 813.476 Q201.319 809.911 197.685 809.911 M197.685 806.208 Q203.495 806.208 206.551 810.814 Q209.629 815.397 209.629 824.147 Q209.629 832.874 206.551 837.481 Q203.495 842.064 197.685 842.064 Q191.875 842.064 188.796 837.481 Q185.741 832.874 185.741 824.147 Q185.741 815.397 188.796 810.814 Q191.875 806.208 197.685 806.208 Z" fill="#000000" fill-rule="evenodd" fill-opacity="1" /><path clip-path="url(#clip750)" d="M 0 0 M128.172 643.24 L135.81 643.24 L135.81 616.875 L127.5 618.541 L127.5 614.282 L135.764 612.615 L140.44 612.615 L140.44 643.24 L148.079 643.24 L148.079 647.175 L128.172 647.175 L128.172 643.24 Z" fill="#000000" fill-rule="evenodd" fill-opacity="1" /><path clip-path="url(#clip750)" d="M 0 0 M161.551 643.24 L177.87 643.24 L177.87 647.175 L155.926 647.175 L155.926 643.24 Q158.588 640.486 163.171 635.856 Q167.778 631.203 168.958 629.861 Q171.204 627.338 172.083 625.601 Q172.986 623.842 172.986 622.152 Q172.986 619.398 171.042 617.662 Q169.12 615.926 166.019 615.926 Q163.82 615.926 161.366 616.689 Q158.935 617.453 156.158 619.004 L156.158 614.282 Q158.982 613.148 161.435 612.569 Q163.889 611.99 165.926 611.99 Q171.296 611.99 174.491 614.676 Q177.685 617.361 177.685 621.851 Q177.685 623.981 176.875 625.902 Q176.088 627.801 173.981 630.393 Q173.403 631.064 170.301 634.282 Q167.199 637.476 161.551 643.24 Z" fill="#000000" fill-rule="evenodd" fill-opacity="1" /><path clip-path="url(#clip750)" d="M 0 0 M197.685 615.694 Q194.074 615.694 192.245 619.259 Q190.44 622.801 190.44 629.93 Q190.44 637.037 192.245 640.601 Q194.074 644.143 197.685 644.143 Q201.319 644.143 203.125 640.601 Q204.954 637.037 204.954 629.93 Q204.954 622.801 203.125 619.259 Q201.319 615.694 197.685 615.694 M197.685 611.99 Q203.495 611.99 206.551 616.597 Q209.629 621.18 209.629 629.93 Q209.629 638.657 206.551 643.263 Q203.495 647.847 197.685 647.847 Q191.875 647.847 188.796 643.263 Q185.741 638.657 185.741 629.93 Q185.741 621.18 188.796 616.597 Q191.875 611.99 197.685 611.99 Z" fill="#000000" fill-rule="evenodd" fill-opacity="1" /><path clip-path="url(#clip750)" d="M 0 0 M128.172 449.023 L135.81 449.023 L135.81 422.658 L127.5 424.324 L127.5 420.065 L135.764 418.398 L140.44 418.398 L140.44 449.023 L148.079 449.023 L148.079 452.958 L128.172 452.958 L128.172 449.023 Z" fill="#000000" fill-rule="evenodd" fill-opacity="1" /><path clip-path="url(#clip750)" d="M 0 0 M157.57 418.398 L175.926 418.398 L175.926 422.333 L161.852 422.333 L161.852 430.806 Q162.87 430.458 163.889 430.296 Q164.907 430.111 165.926 430.111 Q171.713 430.111 175.093 433.282 Q178.472 436.454 178.472 441.87 Q178.472 447.449 175 450.551 Q171.528 453.63 165.208 453.63 Q163.032 453.63 160.764 453.259 Q158.519 452.889 156.111 452.148 L156.111 447.449 Q158.195 448.583 160.417 449.139 Q162.639 449.694 165.116 449.694 Q169.12 449.694 171.458 447.588 Q173.796 445.481 173.796 441.87 Q173.796 438.259 171.458 436.153 Q169.12 434.046 165.116 434.046 Q163.241 434.046 161.366 434.463 Q159.514 434.88 157.57 435.759 L157.57 418.398 Z" fill="#000000" fill-rule="evenodd" fill-opacity="1" /><path clip-path="url(#clip750)" d="M 0 0 M197.685 421.477 Q194.074 421.477 192.245 425.042 Q190.44 428.583 190.44 435.713 Q190.44 442.819 192.245 446.384 Q194.074 449.926 197.685 449.926 Q201.319 449.926 203.125 446.384 Q204.954 442.819 204.954 435.713 Q204.954 428.583 203.125 425.042 Q201.319 421.477 197.685 421.477 M197.685 417.773 Q203.495 417.773 206.551 422.38 Q209.629 426.963 209.629 435.713 Q209.629 444.44 206.551 449.046 Q203.495 453.63 197.685 453.63 Q191.875 453.63 188.796 449.046 Q185.741 444.44 185.741 435.713 Q185.741 426.963 188.796 422.38 Q191.875 417.773 197.685 417.773 Z" fill="#000000" fill-rule="evenodd" fill-opacity="1" /><path clip-path="url(#clip750)" d="M 0 0 M128.172 254.806 L135.81 254.806 L135.81 228.44 L127.5 230.107 L127.5 225.848 L135.764 224.181 L140.44 224.181 L140.44 254.806 L148.079 254.806 L148.079 258.741 L128.172 258.741 L128.172 254.806 Z" fill="#000000" fill-rule="evenodd" fill-opacity="1" /><path clip-path="url(#clip750)" d="M 0 0 M167.523 242.329 Q164.19 242.329 162.269 244.112 Q160.37 245.894 160.37 249.019 Q160.37 252.144 162.269 253.926 Q164.19 255.709 167.523 255.709 Q170.857 255.709 172.778 253.926 Q174.699 252.121 174.699 249.019 Q174.699 245.894 172.778 244.112 Q170.88 242.329 167.523 242.329 M162.847 240.339 Q159.838 239.598 158.148 237.538 Q156.482 235.477 156.482 232.514 Q156.482 228.371 159.421 225.964 Q162.384 223.556 167.523 223.556 Q172.685 223.556 175.625 225.964 Q178.565 228.371 178.565 232.514 Q178.565 235.477 176.875 237.538 Q175.208 239.598 172.222 240.339 Q175.602 241.126 177.477 243.417 Q179.375 245.709 179.375 249.019 Q179.375 254.042 176.296 256.727 Q173.241 259.412 167.523 259.412 Q161.806 259.412 158.727 256.727 Q155.671 254.042 155.671 249.019 Q155.671 245.709 157.57 243.417 Q159.468 241.126 162.847 240.339 M161.134 232.954 Q161.134 235.639 162.801 237.144 Q164.491 238.649 167.523 238.649 Q170.532 238.649 172.222 237.144 Q173.935 235.639 173.935 232.954 Q173.935 230.269 172.222 228.765 Q170.532 227.26 167.523 227.26 Q164.491 227.26 162.801 228.765 Q161.134 230.269 161.134 232.954 Z" fill="#000000" fill-rule="evenodd" fill-opacity="1" /><path clip-path="url(#clip750)" d="M 0 0 M197.685 227.26 Q194.074 227.26 192.245 230.825 Q190.44 234.366 190.44 241.496 Q190.44 248.602 192.245 252.167 Q194.074 255.709 197.685 255.709 Q201.319 255.709 203.125 252.167 Q204.954 248.602 204.954 241.496 Q204.954 234.366 203.125 230.825 Q201.319 227.26 197.685 227.26 M197.685 223.556 Q203.495 223.556 206.551 228.163 Q209.629 232.746 209.629 241.496 Q209.629 250.223 206.551 254.829 Q203.495 259.412 197.685 259.412 Q191.875 259.412 188.796 254.829 Q185.741 250.223 185.741 241.496 Q185.741 232.746 188.796 228.163 Q191.875 223.556 197.685 223.556 Z" fill="#000000" fill-rule="evenodd" fill-opacity="1" /><path clip-path="url(#clip750)" d="M 0 0 M131.389 60.5889 L147.708 60.5889 L147.708 64.5241 L125.764 64.5241 L125.764 60.5889 Q128.426 57.8343 133.009 53.2047 Q137.616 48.552 138.796 47.2094 Q141.042 44.6862 141.921 42.9501 Q142.824 41.1909 142.824 39.5011 Q142.824 36.7465 140.88 35.0104 Q138.959 33.2743 135.857 33.2743 Q133.658 33.2743 131.204 34.0381 Q128.773 34.802 125.996 36.3529 L125.996 31.6308 Q128.82 30.4965 131.273 29.9178 Q133.727 29.3391 135.764 29.3391 Q141.134 29.3391 144.329 32.0243 Q147.523 34.7094 147.523 39.2002 Q147.523 41.3298 146.713 43.2511 Q145.926 45.1492 143.82 47.7418 Q143.241 48.4131 140.139 51.6306 Q137.037 54.8251 131.389 60.5889 Z" fill="#000000" fill-rule="evenodd" fill-opacity="1" /><path clip-path="url(#clip750)" d="M 0 0 M158.333 60.5889 L165.972 60.5889 L165.972 34.2233 L157.662 35.89 L157.662 31.6308 L165.926 29.9641 L170.602 29.9641 L170.602 60.5889 L178.241 60.5889 L178.241 64.5241 L158.333 64.5241 L158.333 60.5889 Z" fill="#000000" fill-rule="evenodd" fill-opacity="1" /><path clip-path="url(#clip750)" d="M 0 0 M197.685 33.0428 Q194.074 33.0428 192.245 36.6076 Q190.44 40.1492 190.44 47.2788 Q190.44 54.3853 192.245 57.9501 Q194.074 61.4917 197.685 61.4917 Q201.319 61.4917 203.125 57.9501 Q204.954 54.3853 204.954 47.2788 Q204.954 40.1492 203.125 36.6076 Q201.319 33.0428 197.685 33.0428 M197.685 29.3391 Q203.495 29.3391 206.551 33.9456 Q209.629 38.5289 209.629 47.2788 Q209.629 56.0056 206.551 60.6121 Q203.495 65.1954 197.685 65.1954 Q191.875 65.1954 188.796 60.6121 Q185.741 56.0056 185.741 47.2788 Q185.741 38.5289 188.796 33.9456 Q191.875 29.3391 197.685 29.3391 Z" fill="#000000" fill-rule="evenodd" fill-opacity="1" /><path clip-path="url(#clip750)" d="M 0 0 M33.9882 917.02 L33.9882 910.591 L53.4672 910.591 L53.4672 887.229 L33.9882 887.229 L33.9882 880.799 L81.5082 880.799 L81.5082 887.229 L58.8781 887.229 L58.8781 910.591 L81.5082 910.591 L81.5082 917.02 L33.9882 917.02 Z" fill="#000000" fill-rule="evenodd" fill-opacity="1" /><path clip-path="url(#clip750)" d="M 0 0 M62.2201 837.767 L65.0846 837.767 L65.0846 864.694 Q71.1321 864.312 74.3149 861.066 Q77.4659 857.787 77.4659 851.963 Q77.4659 848.589 76.6384 845.438 Q75.8109 842.255 74.1558 839.136 L79.6939 839.136 Q81.0307 842.287 81.731 845.597 Q82.4312 848.907 82.4312 852.313 Q82.4312 860.843 77.4659 865.84 Q72.5007 870.805 64.0343 870.805 Q55.2814 870.805 50.1571 866.095 Q45.0008 861.352 45.0008 853.331 Q45.0008 846.138 49.6478 841.969 Q54.2629 837.767 62.2201 837.767 M60.5013 843.624 Q55.6952 843.687 52.8306 846.329 Q49.9661 848.939 49.9661 853.268 Q49.9661 858.169 52.7352 861.129 Q55.5042 864.058 60.5332 864.503 L60.5013 843.624 Z" fill="#000000" fill-rule="evenodd" fill-opacity="1" /><path clip-path="url(#clip750)" d="M 0 0 M45.8602 828.155 L45.8602 822.299 L81.5082 822.299 L81.5082 828.155 L45.8602 828.155 M31.983 828.155 L31.983 822.299 L39.399 822.299 L39.399 828.155 L31.983 828.155 Z" fill="#000000" fill-rule="evenodd" fill-opacity="1" /><path clip-path="url(#clip750)" d="M 0 0 M63.2704 786.587 Q56.9047 786.587 53.4036 789.229 Q49.9024 791.839 49.9024 796.581 Q49.9024 801.292 53.4036 803.934 Q56.9047 806.543 63.2704 806.543 Q69.6043 806.543 73.1054 803.934 Q76.6066 801.292 76.6066 796.581 Q76.6066 791.839 73.1054 789.229 Q69.6043 786.587 63.2704 786.587 M77.084 780.731 Q86.187 780.731 90.6111 784.773 Q95.0671 788.815 95.0671 797.154 Q95.0671 800.241 94.5897 802.979 Q94.1441 805.716 93.1892 808.294 L87.4919 808.294 Q88.8924 805.716 89.5608 803.201 Q90.2292 800.687 90.2292 798.077 Q90.2292 792.316 87.2055 789.452 Q84.2136 786.587 78.1343 786.587 L75.2379 786.587 Q78.389 788.401 79.9486 791.234 Q81.5082 794.067 81.5082 798.013 Q81.5082 804.57 76.5111 808.58 Q71.514 812.591 63.2704 812.591 Q54.995 812.591 49.9979 808.58 Q45.0008 804.57 45.0008 798.013 Q45.0008 794.067 46.5604 791.234 Q48.12 788.401 51.2711 786.587 L45.8602 786.587 L45.8602 780.731 L77.084 780.731 Z" fill="#000000" fill-rule="evenodd" fill-opacity="1" /><path clip-path="url(#clip750)" d="M 0 0 M59.9921 739.035 L81.5082 739.035 L81.5082 744.892 L60.183 744.892 Q55.1223 744.892 52.6078 746.865 Q50.0934 748.838 50.0934 752.785 Q50.0934 757.528 53.1171 760.265 Q56.1408 763.002 61.3607 763.002 L81.5082 763.002 L81.5082 768.89 L31.983 768.89 L31.983 763.002 L51.3984 763.002 Q48.1837 760.901 46.5923 758.069 Q45.0008 755.204 45.0008 751.48 Q45.0008 745.337 48.8203 742.186 Q52.6078 739.035 59.9921 739.035 Z" fill="#000000" fill-rule="evenodd" fill-opacity="1" /><path clip-path="url(#clip750)" d="M 0 0 M35.7387 721.561 L45.8602 721.561 L45.8602 709.498 L50.4117 709.498 L50.4117 721.561 L69.7634 721.561 Q74.1239 721.561 75.3653 720.384 Q76.6066 719.174 76.6066 715.514 L76.6066 709.498 L81.5082 709.498 L81.5082 715.514 Q81.5082 722.293 78.9937 724.871 Q76.4474 727.45 69.7634 727.45 L50.4117 727.45 L50.4117 731.746 L45.8602 731.746 L45.8602 727.45 L35.7387 727.45 L35.7387 721.561 Z" fill="#000000" fill-rule="evenodd" fill-opacity="1" /><path clip-path="url(#clip750)" d="M 0 0 M32.0466 667.007 Q39.3672 671.272 46.5286 673.341 Q53.69 675.41 61.0424 675.41 Q68.3948 675.41 75.6199 673.341 Q82.8131 671.24 90.1019 667.007 L90.1019 672.1 Q82.6222 676.874 75.3971 679.261 Q68.172 681.616 61.0424 681.616 Q53.9446 681.616 46.7514 679.261 Q39.5582 676.906 32.0466 672.1 L32.0466 667.007 Z" fill="#000000" fill-rule="evenodd" fill-opacity="1" /><path clip-path="url(#clip750)" d="M 0 0 M95.0671 656.249 L45.8602 656.249 L45.8602 650.393 L68.0129 650.393 Q72.628 650.393 74.9833 648.197 Q77.3386 646 77.3386 641.703 Q77.3386 636.993 74.665 634.638 Q71.9914 632.25 66.6442 632.25 L45.8602 632.25 L45.8602 626.394 L73.2964 626.394 Q75.2061 626.394 76.1291 625.853 Q77.0203 625.28 77.0203 624.102 Q77.0203 623.816 76.8612 623.307 Q76.6702 622.797 76.2883 621.906 L80.9989 621.906 Q81.731 623.211 82.0811 624.389 Q82.4312 625.535 82.4312 626.649 Q82.4312 628.845 81.1899 630.15 Q79.9486 631.455 77.4023 631.932 Q79.9167 633.524 81.1899 635.847 Q82.4312 638.139 82.4312 641.258 Q82.4312 644.504 81.1899 646.796 Q79.9486 649.056 77.4659 650.393 L95.0671 650.393 L95.0671 656.249 Z" fill="#000000" fill-rule="evenodd" fill-opacity="1" /><path clip-path="url(#clip750)" d="M 0 0 M52.7033 586.417 Q48.7566 584.221 46.8787 581.166 Q45.0008 578.11 45.0008 573.972 Q45.0008 568.402 48.9157 565.379 Q52.7988 562.355 59.9921 562.355 L81.5082 562.355 L81.5082 568.243 L60.183 568.243 Q55.0586 568.243 52.576 570.057 Q50.0934 571.872 50.0934 575.596 Q50.0934 580.147 53.1171 582.789 Q56.1408 585.431 61.3607 585.431 L81.5082 585.431 L81.5082 591.319 L60.183 591.319 Q55.0268 591.319 52.576 593.133 Q50.0934 594.947 50.0934 598.735 Q50.0934 603.223 53.1489 605.865 Q56.1726 608.506 61.3607 608.506 L81.5082 608.506 L81.5082 614.395 L45.8602 614.395 L45.8602 608.506 L51.3984 608.506 Q48.12 606.501 46.5604 603.7 Q45.0008 600.899 45.0008 597.048 Q45.0008 593.165 46.9742 590.46 Q48.9476 587.722 52.7033 586.417 Z" fill="#000000" fill-rule="evenodd" fill-opacity="1" /><path clip-path="url(#clip750)" d="M 0 0 M32.0466 551.597 L32.0466 546.504 Q39.5582 541.73 46.7514 539.375 Q53.9446 536.988 61.0424 536.988 Q68.172 536.988 75.3971 539.375 Q82.6222 541.73 90.1019 546.504 L90.1019 551.597 Q82.8131 547.364 75.6199 545.295 Q68.3948 543.194 61.0424 543.194 Q53.69 543.194 46.5286 545.295 Q39.3672 547.364 32.0466 551.597 Z" fill="#000000" fill-rule="evenodd" fill-opacity="1" /><polyline clip-path="url(#clip752)" style="stroke:#3da44d; stroke-width:8; stroke-opacity:1; fill:none" points="
  239.629,1406.12 253.348,1405.88 267.067,1405.56 280.786,1405.12 294.504,1404.52 308.223,1403.71 321.942,1402.6 335.661,1401.08 349.379,1399.01 363.098,1396.19 
  376.817,1392.34 390.535,1387.09 404.254,1379.93 417.973,1370.17 431.692,1356.85 445.41,1338.69 459.129,1314.53 472.848,1288.22 486.567,1262.68 500.285,1237.6 
  514.004,1213 527.723,1188.87 541.442,1165.2 555.16,1141.99 568.879,1119.22 582.598,1096.89 596.316,1074.98 610.035,1053.5 623.754,1032.43 637.473,1011.76 
  651.191,991.483 664.91,971.598 678.629,952.094 692.348,932.964 706.066,914.2 719.785,895.795 733.504,877.744 747.222,860.038 760.941,842.671 774.66,825.637 
  788.379,808.93 802.097,792.542 815.816,776.469 829.535,760.703 843.254,745.24 856.972,730.073 870.691,715.196 884.41,700.605 898.129,686.293 911.847,672.255 
  925.566,658.486 939.285,644.98 953.003,631.734 966.722,618.741 980.441,605.997 994.16,593.498 1007.88,581.238 1021.6,569.213 1035.32,557.419 1049.03,545.85 
  1062.75,534.503 1076.47,523.374 1090.19,512.458 1103.91,501.751 1117.63,491.249 1131.35,480.948 1145.07,470.845 1158.78,460.935 1172.5,451.215 1186.22,441.681 
  1199.94,432.329 1213.66,423.157 1227.38,414.16 1241.1,405.336 1254.82,396.681 1268.53,388.191 1282.25,379.865 1295.97,371.698 1309.69,363.688 1323.41,355.831 
  1337.13,348.125 1350.85,340.567 1364.57,333.153 1378.28,325.882 1392,318.75 1405.72,311.754 1419.44,304.892 1433.16,298.162 1446.88,291.561 1460.6,285.086 
  1474.32,278.735 1488.03,272.506 1501.75,266.396 1515.47,260.402 1529.19,254.524 1542.91,248.757 1556.63,243.102 1570.35,237.555 1584.07,232.114 1597.78,226.777 
  1611.5,221.543 1625.22,216.41 1638.94,211.374 1652.66,206.436 1666.38,201.592 1680.1,196.841 1693.81,192.181 1707.53,187.611 1721.25,183.128 1734.97,178.731 
  1748.69,174.418 1762.41,170.188 1776.13,166.039 1789.85,161.97 1803.56,157.978 1817.28,154.063 1831,150.223 1844.72,146.456 1858.44,142.761 1872.16,139.137 
  1885.88,135.582 1899.6,132.095 1913.31,128.675 1927.03,125.32 1940.75,122.029 1954.47,118.801 1968.19,115.636 1981.91,112.53 1995.63,109.485 2009.35,106.498 
  2023.06,103.568 2036.78,100.695 2050.5,97.8764 2064.22,95.1122 2077.94,92.4011 2091.66,89.7422 2105.38,87.1342 2119.1,84.5764 2132.81,82.0676 2146.53,79.607 
  2160.25,77.1937 2173.97,74.8265 2187.69,72.5048 2201.41,70.2276 2215.13,67.994 2228.85,65.8031 2242.56,63.6542 2256.28,61.5464 2270,59.4788 2283.72,57.4508 
  2297.44,55.4615 2311.16,53.5102 2324.88,51.5961 2338.6,49.7184 2352.31,47.8764 2366.03,46.0695 2379.75,44.2972 2393.47,42.5587 2407.19,40.8534 2420.91,39.1808 
  2434.63,37.5403 2448.35,35.9312 2462.06,34.3531 2475.78,32.8052 2489.5,31.2872 2503.22,29.7983 2516.94,28.338 2530.66,26.9059 2544.38,25.5013 2558.09,24.1238 
  2571.81,22.7728 2585.53,21.4478 2599.25,20.1484 2612.97,18.8739 2626.69,17.624 2640.41,16.3981 2654.13,15.1958 2667.84,14.0166 2681.56,12.8601 2695.28,11.7257 
  2709,10.6132 2722.72,9.52191 2736.44,8.45156 2750.16,7.40169 2763.88,6.37189 2777.59,5.36176 2791.31,4.37089 2805.03,3.39891 2818.75,2.44543 2832.47,1.51008 
  2846.19,0.59249 2859.91,-0.307707 2873.63,-1.1909 2887.34,-2.05737 2901.06,-2.90741 2914.78,-3.7413 2928.5,-4.55933 2942.22,-5.36175 2955.94,-6.14885 2969.66,-6.9209 
  2983.38,-7.67816 2997.09,-8.42089 3010.81,-9.14936 3024.53,-9.86381 3038.25,-10.5645 3051.97,-11.2517 3065.69,-11.9257 3079.41,-12.5866 3093.13,-13.2348 3106.84,-13.8704 
  3120.56,-14.4938 3134.28,-15.1051 3148,-15.7046 3161.72,-16.2924 3175.44,-16.8689 3189.16,-17.4343 3202.88,-17.9887 3216.59,-18.5323 3230.31,-19.0655 3244.03,-19.5884 
  3257.75,-20.1012 3271.47,-20.604 3285.19,-21.0972 3298.91,-21.581 3312.63,-22.0554 3326.34,-22.5207 3340.06,-22.9771 3353.78,-23.4247 3367.5,-23.8638 3381.22,-24.2945 
  3394.94,-24.7171 3408.66,-25.1316 3422.37,-25.5383 3436.09,-25.9372 3449.81,-26.3287 3463.53,-26.7128 3477.25,-27.0897 3490.97,-27.4596 3504.69,-27.8225 3518.41,-28.1787 
  3532.12,-28.5282 3545.84,-28.8711 3559.56,-29.2075 3573.28,-29.5376 3587,-29.8614 3600.72,-30.179 3614.44,-30.4906 3628.16,-30.7962 3641.87,-31.096 3655.59,-31.39 
  3669.31,-31.6783 3683.03,-31.9611 3696.75,-32.2384 3710.47,-32.5103 3724.19,-32.777 3737.91,-33.0385 3751.62,-33.2949 3765.34,-33.5463 3779.06,-33.7928 3792.78,-34.0346 
  3806.5,-34.2715 3820.22,-34.5039 3833.94,-34.7317 3847.66,-34.955 3861.37,-35.174 3875.09,-35.3887 3888.81,-35.5992 3902.53,-35.8056 3916.25,-36.0079 3929.97,-36.2063 
  3943.69,-36.4008 3957.41,-36.5915 3971.12,-36.7785 3984.84,-36.9619 3998.56,-37.1417 4012.28,-37.318 4026,-37.4909 4039.72,-37.6605 4053.44,-37.8268 4067.16,-37.99 
  4080.87,-38.15 4094.59,-38.307 4108.31,-38.461 4122.03,-38.6121 4135.75,-38.7604 4149.47,-38.9059 4163.19,-39.0487 4176.91,-39.1889 4190.62,-39.3265 4204.34,-39.4616 
  4218.06,-39.5942 4231.78,-39.7245 4245.5,-39.8524 4259.22,-39.9779 4272.94,-40.1012 4286.65,-40.2222 4300.37,-40.3409 4314.09,-40.4575 4327.81,-40.5718 4341.53,-40.684 
  4355.25,-40.7941 4368.97,-40.9021 4382.69,-41.0081 4396.4,-41.112 4410.12,-41.214 4423.84,-41.314 4437.56,-41.4121 4451.28,-41.5082 4465,-41.6025 4478.72,-41.695 
  4492.44,-41.7857 4506.15,-41.8745 4519.87,-41.9617 4533.59,-42.0471 4547.31,-42.1308 4561.03,-42.2129 4574.75,-42.2933 4588.47,-42.3722 4602.19,-42.4494 4615.9,-42.5251 
  4629.62,-42.5993 4643.34,-42.672 4657.06,-42.7433 4670.78,-42.8131 4684.5,-42.8815 4698.22,-42.9486 4711.94,-43.0142 4725.65,-43.0786 4739.37,-43.1417 4753.09,-43.2035 
  4766.81,-43.2641 4780.53,-43.3234 4794.25,-43.3816 4807.97,-43.4386 4821.69,-43.4945 4835.4,-43.5493 4849.12,-43.6029 4862.84,-43.6556 4876.56,-43.7072 4890.28,-43.7578 
  4904,-43.8074 4917.72,-43.8561 4931.44,-43.9038 4945.15,-43.9507 4958.87,-43.9966 4972.59,-44.0418 4986.31,-44.086 5000.03,-44.1295 5013.75,-44.1722 5027.47,-44.2142 
  5041.19,-44.2554 5054.9,-44.2959 5068.62,-44.3357 5082.34,-44.3749 5096.06,-44.4134 5109.78,-44.4513 5123.5,-44.4886 5137.22,-44.5252 5150.93,-44.5612 5164.65,-44.5965 
  5178.37,-44.6313 5192.09,-44.6654 5205.81,-44.6989 5219.53,-44.7318 5233.25,-44.7641 5246.97,-44.7958 5260.68,-44.8269 5274.4,-44.8575 5288.12,-44.8875 5301.84,-44.9169 
  5315.56,-44.9458 5329.28,-44.9741 5343,-45.0018 5356.72,-45.0291 5370.43,-45.0558 5384.15,-45.082 5397.87,-45.1076 5411.59,-45.1328 5425.31,-45.1574 5439.03,-45.1816 
  5452.75,-45.2052 5466.47,-45.2284 5480.18,-45.2511 5493.9,-45.2734 5507.62,-45.2952 5521.34,-45.3165 5535.06,-45.3374 5548.78,-45.3578 5562.5,-45.3778 5576.22,-45.3974 
  5589.93,-45.4166 5603.65,-45.4353 5617.37,-45.4537 5631.09,-45.4717 5644.81,-45.4892 5658.53,-45.5064 5672.25,-45.5233 5685.97,-45.5397 5699.68,-45.5558 5713.4,-45.5716 
  5727.12,-45.587 5740.84,-45.6021 5754.56,-45.6168 5768.28,-45.6312 5782,-45.6453 5795.72,-45.6592 5809.43,-45.6727 5823.15,-45.6859 5836.87,-45.6988 5850.59,-45.7115 
  5864.31,-45.7239 5878.03,-45.7361 5891.75,-45.748 5905.47,-45.7597 5919.18,-45.7711 5932.9,-45.7823 5946.62,-45.7933 5960.34,-45.8041 5974.06,-45.8147 5987.78,-45.8251 
  6001.5,-45.8353 6015.21,-45.8453 6028.93,-45.8552 6042.65,-45.8649 6056.37,-45.8745 6070.09,-45.8839 6083.81,-45.8932 6097.53,-45.9023 6111.25,-45.9114 6124.96,-45.9203 
  6138.68,-45.9292 6152.4,-45.9379 6166.12,-45.9466 6179.84,-45.9551 6193.56,-45.9635 6207.28,-45.9718 6221,-45.98 6234.71,-45.9881 6248.43,-45.996 6262.15,-46.0038 
  6275.87,-46.0115 6289.59,-46.019 6303.31,-46.0265 6317.03,-46.0338 6330.75,-46.041 6344.46,-46.048 6358.18,-46.055 6371.9,-46.0618 6385.62,-46.0685 6399.34,-46.0751 
  6413.06,-46.0816 6426.78,-46.0879 6440.5,-46.0941 6454.21,-46.1003 6467.93,-46.1062 6481.65,-46.1121 6495.37,-46.1179 6509.09,-46.1235 6522.81,-46.129 6536.53,-46.1345 
  6550.25,-46.1398 6563.96,-46.1449 6577.68,-46.15 6591.4,-46.155 6605.12,-46.1598 6618.84,-46.1646 6632.56,-46.1692 6646.28,-46.1738 6660,-46.1782 6673.71,-46.1825 
  6687.43,-46.1868 6701.15,-46.1909 6714.87,-46.1949 6728.59,-46.1988 6742.31,-46.2026 6756.03,-46.2064 6769.75,-46.21 6783.46,-46.2135 6797.18,-46.217 6810.9,-46.2203 
  6824.62,-46.2236 6838.34,-46.2268 6852.06,-46.2299 6865.78,-46.2329 6879.49,-46.2358 6893.21,-46.2387 6906.93,-46.2415 6920.65,-46.2441 6934.37,-46.2468 6948.09,-46.2493 
  6961.81,-46.2518 6975.53,-46.2542 6989.24,-46.2565 7002.96,-46.2588 7016.68,-46.261 7030.4,-46.2631 7044.12,-46.2652 7057.84,-46.2672 7071.56,-46.2692 7085.28,-46.2711 
  7098.99,-46.273 7112.71,-46.2748 7126.43,-46.2766 7140.15,-46.2783 7153.87,-46.28 7167.59,-46.2817 7181.31,-46.2833 7195.03,-46.2849 7208.74,-46.2864 7222.46,-46.2879 
  7236.18,-46.2894 7249.9,-46.2909 7263.62,-46.2924 7277.34,-46.2938 7291.06,-46.2952 7304.78,-46.2966 7318.49,-46.298 7332.21,-46.2994 7345.93,-46.3008 7359.65,-46.3022 
  7373.37,-46.3036 7387.09,-46.305 7400.81,-46.3064 7414.53,-46.3078 7428.24,-46.3092 7441.96,-46.3107 7455.68,-46.3121 7469.4,-46.3136 7483.12,-46.3151 7496.84,-46.3166 
  7510.56,-46.318 7524.28,-46.3195 7537.99,-46.3209 7551.71,-46.3224 7565.43,-46.3238 7579.15,-46.3252 7592.87,-46.3266 7606.59,-46.328 7620.31,-46.3293 7634.03,-46.3307 
  7647.74,-46.332 7661.46,-46.3333 7675.18,-46.3346 7688.9,-46.3359 7702.62,-46.3372 7716.34,-46.3385 7730.06,-46.3397 7743.77,-46.3409 7757.49,-46.3421 7771.21,-46.3433 
  7784.93,-46.3445 7798.65,-46.3456 7812.37,-46.3467 7826.09,-46.3478 7839.81,-46.3489 7853.52,-46.35 7867.24,-46.351 7880.96,-46.352 7894.68,-46.353 7908.4,-46.354 
  7922.12,-46.355 7935.84,-46.3559 7949.56,-46.3568 7963.27,-46.3577 7976.99,-46.3586 7990.71,-46.3595 8004.43,-46.3603 8018.15,-46.3611 8031.87,-46.3619 8045.59,-46.3626 
  8059.31,-46.3634 8073.02,-46.3641 8086.74,-46.3648 8100.46,-46.3655 8114.18,-46.3661 8127.9,-46.3668 8141.62,-46.3674 8155.34,-46.368 8169.06,-46.3685 8182.77,-46.3691 
  8196.49,-46.3696 8210.21,-46.3701 8223.93,-46.3706 8237.65,-46.371 8251.37,-46.3715 8265.09,-46.3719 8278.81,-46.3723 8292.52,-46.3727 8306.24,-46.373 8319.96,-46.3734 
  8333.68,-46.3737 8347.4,-46.374 8361.12,-46.3743 8374.84,-46.3745 8388.56,-46.3748 8402.27,-46.375 8415.99,-46.3752 8429.71,-46.3754 8443.43,-46.3756 8457.15,-46.3758 
  8470.87,-46.3759 8484.59,-46.376 8498.31,-46.3762 8512.02,-46.3763 8525.74,-46.3764 8539.46,-46.3764 8553.18,-46.3765 8566.9,-46.3766 8580.62,-46.3766 8594.34,-46.3767 
  8608.05,-46.3767 8621.77,-46.3767 8635.49,-46.3767 8649.21,-46.3767 8662.93,-46.3767 8676.65,-46.3767 8690.37,-46.3767 8704.09,-46.3766 8717.8,-46.3766 8731.52,-46.3766 
  8745.24,-46.3765 8758.96,-46.3765 8772.68,-46.3764 8786.4,-46.3764 8800.12,-46.3764 8813.84,-46.3763 8827.55,-46.3763 8841.27,-46.3762 8854.99,-46.3762 8868.71,-46.3762 
  8882.43,-46.3762 8896.15,-46.3761 8909.87,-46.3761 8923.59,-46.3761 8937.3,-46.3761 8951.02,-46.3762 8964.74,-46.3762 8978.46,-46.3762 8992.18,-46.3763 9005.9,-46.3764 
  9019.62,-46.3764 9033.34,-46.3765 9047.05,-46.3767 9060.77,-46.3768 9074.49,-46.3769 9088.21,-46.3771 9101.93,-46.3773 9115.65,-46.3775 9129.37,-46.3778 9143.09,-46.378 
  9156.8,-46.3783 9170.52,-46.3785 9184.24,-46.3788 9197.96,-46.3791 9211.68,-46.3793 9225.4,-46.3796 9239.12,-46.3799 9252.84,-46.3802 9266.55,-46.3805 9280.27,-46.3807 
  9293.99,-46.381 9307.71,-46.3813 9321.43,-46.3816 9335.15,-46.3819 9348.87,-46.3822 9362.59,-46.3825 9376.3,-46.3828 9390.02,-46.3831 9403.74,-46.3834 9417.46,-46.3837 
  9431.18,-46.384 9444.9,-46.3842 9458.62,-46.3845 9472.33,-46.3848 9486.05,-46.3851 9499.77,-46.3854 9513.49,-46.3857 9527.21,-46.3859 9540.93,-46.3862 9554.65,-46.3865 
  9568.37,-46.3867 9582.08,-46.387 9595.8,-46.3873 9609.52,-46.3875 9623.24,-46.3878 9636.96,-46.388 9650.68,-46.3883 9664.4,-46.3885 9678.12,-46.3887 9691.83,-46.389 
  9705.55,-46.3892 9719.27,-46.3894 9732.99,-46.3896 9746.71,-46.3898 9760.43,-46.39 9774.15,-46.3902 9787.87,-46.3904 9801.58,-46.3906 9815.3,-46.3908 9829.02,-46.3909 
  9842.74,-46.3911 9856.46,-46.3913 9870.18,-46.3914 9883.9,-46.3916 9897.62,-46.3917 9911.33,-46.3918 9925.05,-46.392 9938.77,-46.3921 9952.49,-46.3922 9966.21,-46.3923 
  9979.93,-46.3924 9993.65,-46.3925 10007.4,-46.3926 10021.1,-46.3926 10034.8,-46.3927 10048.5,-46.3928 10062.2,-46.3928 10076,-46.3929 10089.7,-46.3929 10103.4,-46.393 
  10117.1,-46.393 10130.8,-46.393 10144.6,-46.393 10158.3,-46.393 10172,-46.393 10185.7,-46.393 10199.4,-46.393 10213.1,-46.393 10226.9,-46.3929 10240.6,-46.3929 
  10254.3,-46.3929 10268,-46.3928 10281.7,-46.3928 10295.5,-46.3927 10309.2,-46.3926 10322.9,-46.3926 10336.6,-46.3925 10350.3,-46.3924 10364.1,-46.3923 10377.8,-46.3922 
  10391.5,-46.3921 10405.2,-46.392 10418.9,-46.3919 10432.6,-46.3918 10446.4,-46.3917 10460.1,-46.3915 10473.8,-46.3914 10487.5,-46.3913 10501.2,-46.3911 10515,-46.391 
  10528.7,-46.3908 10542.4,-46.3907 10556.1,-46.3905 10569.8,-46.3904 10583.6,-46.3902 10597.3,-46.39 10611,-46.3899 10624.7,-46.3897 10638.4,-46.3895 10652.1,-46.3894 
  10665.9,-46.3892 10679.6,-46.389 10693.3,-46.3888 10707,-46.3886 10720.7,-46.3885 10734.5,-46.3883 10748.2,-46.3881 10761.9,-46.3879 10775.6,-46.3877 10789.3,-46.3876 
  10803.1,-46.3874 10816.8,-46.3872 10830.5,-46.387 10844.2,-46.3869 10857.9,-46.3867 10871.6,-46.3865 10885.4,-46.3863 10899.1,-46.3862 10912.8,-46.386 10926.5,-46.3859 
  10940.2,-46.3857 10954,-46.3856 10967.7,-46.3854 10981.4,-46.3853 10995.1,-46.3852 11008.8,-46.385 11022.6,-46.3849 11036.3,-46.3848 11050,-46.3847 11063.7,-46.3846 
  11077.4,-46.3845 11091.1,-46.3845 11104.9,-46.3844 11118.6,-46.3843 11132.3,-46.3843 11146,-46.3842 11159.7,-46.3842 11173.5,-46.3842 11187.2,-46.3842 11200.9,-46.3842 
  11214.6,-46.3842 11228.3,-46.3842 11242.1,-46.3843 11255.8,-46.3844 11269.5,-46.3844 11283.2,-46.3845 11296.9,-46.3846 11310.6,-46.3847 11324.4,-46.3849 11338.1,-46.385 
  11351.8,-46.3851 11365.5,-46.3853 11379.2,-46.3854 11393,-46.3856 11406.7,-46.3858 11420.4,-46.3859 11434.1,-46.3861 11447.8,-46.3863 11461.6,-46.3865 11475.3,-46.3867 
  11489,-46.3869 11502.7,-46.3871 11516.4,-46.3873 11530.1,-46.3875 11543.9,-46.3878 11557.6,-46.388 11571.3,-46.3882 11585,-46.3884 11598.7,-46.3887 11612.5,-46.3889 
  11626.2,-46.3891 11639.9,-46.3894 11653.6,-46.3896 11667.3,-46.3898 11681.1,-46.3901 11694.8,-46.3903 11708.5,-46.3905 11722.2,-46.3908 11735.9,-46.391 11749.6,-46.3913 
  11763.4,-46.3915 11777.1,-46.3917 11790.8,-46.392 11804.5,-46.3922 11818.2,-46.3924 11832,-46.3927 11845.7,-46.3929 11859.4,-46.3931 11873.1,-46.3933 11886.8,-46.3935 
  11900.6,-46.3938 11914.3,-46.394 11928,-46.3942 11941.7,-46.3944 11955.4,-46.3946 11969.1,-46.3948 11982.9,-46.395 11996.6,-46.3952 12010.3,-46.3954 12024,-46.3956 
  12037.7,-46.3957 12051.5,-46.3959 12065.2,-46.3961 12078.9,-46.3962 12092.6,-46.3964 12106.3,-46.3966 12120,-46.3967 12133.8,-46.3968 12147.5,-46.397 12161.2,-46.3971 
  12174.9,-46.3972 12188.6,-46.3974 12202.4,-46.3975 12216.1,-46.3976 12229.8,-46.3977 12243.5,-46.3978 12257.2,-46.3979 12271,-46.398 12284.7,-46.398 12298.4,-46.3981 
  12312.1,-46.3982 12325.8,-46.3982 12339.5,-46.3983 12353.3,-46.3983 12367,-46.3984 12380.7,-46.3984 12394.4,-46.3984 12408.1,-46.3984 12421.9,-46.3984 12435.6,-46.3984 
  12449.3,-46.3984 12463,-46.3984 12476.7,-46.3984 12490.5,-46.3984 12504.2,-46.3984 12517.9,-46.3983 12531.6,-46.3983 12545.3,-46.3982 12559,-46.3982 12572.8,-46.3981 
  12586.5,-46.398 12600.2,-46.398 12613.9,-46.3979 12627.6,-46.3978 12641.4,-46.3977 12655.1,-46.3976 12668.8,-46.3975 12682.5,-46.3974 12696.2,-46.3972 12710,-46.3971 
  12723.7,-46.397 12737.4,-46.3968 12751.1,-46.3967 12764.8,-46.3965 12778.5,-46.3964 12792.3,-46.3962 12806,-46.3961 12819.7,-46.3959 12833.4,-46.3957 12847.1,-46.3955 
  12860.9,-46.3953 12874.6,-46.3951 12888.3,-46.3949 12902,-46.3947 12915.7,-46.3945 12929.5,-46.3943 12943.2,-46.3941 12956.9,-46.3938 12970.6,-46.3936 12984.3,-46.3934 
  12998,-46.3932 13011.8,-46.3929 13025.5,-46.3927 13039.2,-46.3924 13052.9,-46.3922 13066.6,-46.3919 13080.4,-46.3917 13094.1,-46.3914 13107.8,-46.3912 13121.5,-46.3909 
  13135.2,-46.3906 13149,-46.3904 13162.7,-46.3901 13176.4,-46.3898 13190.1,-46.3896 13203.8,-46.3893 13217.5,-46.389 13231.3,-46.3888 13245,-46.3885 13258.7,-46.3882 
  13272.4,-46.388 13286.1,-46.3877 13299.9,-46.3874 13313.6,-46.3872 13327.3,-46.3869 13341,-46.3866 13354.7,-46.3864 13368.5,-46.3861 13382.2,-46.3859 13395.9,-46.3856 
  13409.6,-46.3854 13423.3,-46.3851 13437,-46.3849 13450.8,-46.3846 13464.5,-46.3844 13478.2,-46.3842 13491.9,-46.3839 13505.6,-46.3837 13519.4,-46.3835 13533.1,-46.3833 
  13546.8,-46.3831 13560.5,-46.3829 13574.2,-46.3827 13588,-46.3825 13601.7,-46.3824 13615.4,-46.3822 13629.1,-46.3821 13642.8,-46.3819 13656.5,-46.3818 13670.3,-46.3816 
  13684,-46.3815 13697.7,-46.3814 13711.4,-46.3813 13725.1,-46.3812 13738.9,-46.3812 13752.6,-46.3811 13766.3,-46.3811 13780,-46.381 13793.7,-46.381 13807.5,-46.381 
  13821.2,-46.381 13834.9,-46.381 13848.6,-46.381 13862.3,-46.3811 13876,-46.3812 13889.8,-46.3812 13903.5,-46.3813 13917.2,-46.3815 13930.9,-46.3816 13944.6,-46.3817 
  
  "/>
<circle clip-path="url(#clip752)" cx="272.407" cy="1404.07" r="14" fill="#3da44d" fill-rule="evenodd" fill-opacity="0.3" stroke="#000000" stroke-opacity="0.3" stroke-width="3.2"/>
<circle clip-path="url(#clip752)" cx="283.505" cy="1399.88" r="14" fill="#3da44d" fill-rule="evenodd" fill-opacity="0.3" stroke="#000000" stroke-opacity="0.3" stroke-width="3.2"/>
<circle clip-path="url(#clip752)" cx="305.718" cy="1405.77" r="14" fill="#3da44d" fill-rule="evenodd" fill-opacity="0.3" stroke="#000000" stroke-opacity="0.3" stroke-width="3.2"/>
<circle clip-path="url(#clip752)" cx="316.815" cy="1405.16" r="14" fill="#3da44d" fill-rule="evenodd" fill-opacity="0.3" stroke="#000000" stroke-opacity="0.3" stroke-width="3.2"/>
<circle clip-path="url(#clip752)" cx="372.378" cy="1404.73" r="14" fill="#3da44d" fill-rule="evenodd" fill-opacity="0.3" stroke="#000000" stroke-opacity="0.3" stroke-width="3.2"/>
<circle clip-path="url(#clip752)" cx="383.475" cy="1385.37" r="14" fill="#3da44d" fill-rule="evenodd" fill-opacity="0.3" stroke="#000000" stroke-opacity="0.3" stroke-width="3.2"/>
<circle clip-path="url(#clip752)" cx="394.572" cy="1389.57" r="14" fill="#3da44d" fill-rule="evenodd" fill-opacity="0.3" stroke="#000000" stroke-opacity="0.3" stroke-width="3.2"/>
<circle clip-path="url(#clip752)" cx="405.669" cy="1380.07" r="14" fill="#3da44d" fill-rule="evenodd" fill-opacity="0.3" stroke="#000000" stroke-opacity="0.3" stroke-width="3.2"/>
<circle clip-path="url(#clip752)" cx="416.786" cy="1374.96" r="14" fill="#3da44d" fill-rule="evenodd" fill-opacity="0.3" stroke="#000000" stroke-opacity="0.3" stroke-width="3.2"/>
<circle clip-path="url(#clip752)" cx="427.883" cy="1366.29" r="14" fill="#3da44d" fill-rule="evenodd" fill-opacity="0.3" stroke="#000000" stroke-opacity="0.3" stroke-width="3.2"/>
<circle clip-path="url(#clip752)" cx="443.035" cy="1360.81" r="14" fill="#3da44d" fill-rule="evenodd" fill-opacity="0.3" stroke="#000000" stroke-opacity="0.3" stroke-width="3.2"/>
<circle clip-path="url(#clip752)" cx="454.018" cy="1350.07" r="14" fill="#3da44d" fill-rule="evenodd" fill-opacity="0.3" stroke="#000000" stroke-opacity="0.3" stroke-width="3.2"/>
<circle clip-path="url(#clip752)" cx="465.001" cy="1323.3" r="14" fill="#3da44d" fill-rule="evenodd" fill-opacity="0.3" stroke="#000000" stroke-opacity="0.3" stroke-width="3.2"/>
<circle clip-path="url(#clip752)" cx="475.984" cy="1301.08" r="14" fill="#3da44d" fill-rule="evenodd" fill-opacity="0.3" stroke="#000000" stroke-opacity="0.3" stroke-width="3.2"/>
<circle clip-path="url(#clip752)" cx="486.967" cy="1273.76" r="14" fill="#3da44d" fill-rule="evenodd" fill-opacity="0.3" stroke="#000000" stroke-opacity="0.3" stroke-width="3.2"/>
<circle clip-path="url(#clip752)" cx="497.95" cy="1252.89" r="14" fill="#3da44d" fill-rule="evenodd" fill-opacity="0.3" stroke="#000000" stroke-opacity="0.3" stroke-width="3.2"/>
<circle clip-path="url(#clip752)" cx="508.933" cy="1225.98" r="14" fill="#3da44d" fill-rule="evenodd" fill-opacity="0.3" stroke="#000000" stroke-opacity="0.3" stroke-width="3.2"/>
<circle clip-path="url(#clip752)" cx="519.935" cy="1207.15" r="14" fill="#3da44d" fill-rule="evenodd" fill-opacity="0.3" stroke="#000000" stroke-opacity="0.3" stroke-width="3.2"/>
<circle clip-path="url(#clip752)" cx="530.918" cy="1173.58" r="14" fill="#3da44d" fill-rule="evenodd" fill-opacity="0.3" stroke="#000000" stroke-opacity="0.3" stroke-width="3.2"/>
<circle clip-path="url(#clip752)" cx="541.939" cy="1144.75" r="14" fill="#3da44d" fill-rule="evenodd" fill-opacity="0.3" stroke="#000000" stroke-opacity="0.3" stroke-width="3.2"/>
<circle clip-path="url(#clip752)" cx="552.922" cy="1131.08" r="14" fill="#3da44d" fill-rule="evenodd" fill-opacity="0.3" stroke="#000000" stroke-opacity="0.3" stroke-width="3.2"/>
<circle clip-path="url(#clip752)" cx="563.905" cy="1122.58" r="14" fill="#3da44d" fill-rule="evenodd" fill-opacity="0.3" stroke="#000000" stroke-opacity="0.3" stroke-width="3.2"/>
<circle clip-path="url(#clip752)" cx="574.869" cy="1113.63" r="14" fill="#3da44d" fill-rule="evenodd" fill-opacity="0.3" stroke="#000000" stroke-opacity="0.3" stroke-width="3.2"/>
<circle clip-path="url(#clip752)" cx="587.527" cy="1089.05" r="14" fill="#3da44d" fill-rule="evenodd" fill-opacity="0.3" stroke="#000000" stroke-opacity="0.3" stroke-width="3.2"/>
<circle clip-path="url(#clip752)" cx="604.221" cy="1052.47" r="14" fill="#3da44d" fill-rule="evenodd" fill-opacity="0.3" stroke="#000000" stroke-opacity="0.3" stroke-width="3.2"/>
<circle clip-path="url(#clip752)" cx="620.914" cy="1031.15" r="14" fill="#3da44d" fill-rule="evenodd" fill-opacity="0.3" stroke="#000000" stroke-opacity="0.3" stroke-width="3.2"/>
<circle clip-path="url(#clip752)" cx="637.589" cy="997.005" r="14" fill="#3da44d" fill-rule="evenodd" fill-opacity="0.3" stroke="#000000" stroke-opacity="0.3" stroke-width="3.2"/>
<circle clip-path="url(#clip752)" cx="654.282" cy="976.272" r="14" fill="#3da44d" fill-rule="evenodd" fill-opacity="0.3" stroke="#000000" stroke-opacity="0.3" stroke-width="3.2"/>
<circle clip-path="url(#clip752)" cx="671.014" cy="948.465" r="14" fill="#3da44d" fill-rule="evenodd" fill-opacity="0.3" stroke="#000000" stroke-opacity="0.3" stroke-width="3.2"/>
<circle clip-path="url(#clip752)" cx="687.707" cy="931.534" r="14" fill="#3da44d" fill-rule="evenodd" fill-opacity="0.3" stroke="#000000" stroke-opacity="0.3" stroke-width="3.2"/>
<circle clip-path="url(#clip752)" cx="704.439" cy="897.25" r="14" fill="#3da44d" fill-rule="evenodd" fill-opacity="0.3" stroke="#000000" stroke-opacity="0.3" stroke-width="3.2"/>
<circle clip-path="url(#clip752)" cx="721.132" cy="881.543" r="14" fill="#3da44d" fill-rule="evenodd" fill-opacity="0.3" stroke="#000000" stroke-opacity="0.3" stroke-width="3.2"/>
<circle clip-path="url(#clip752)" cx="737.826" cy="855.011" r="14" fill="#3da44d" fill-rule="evenodd" fill-opacity="0.3" stroke="#000000" stroke-opacity="0.3" stroke-width="3.2"/>
<circle clip-path="url(#clip752)" cx="754.5" cy="839.437" r="14" fill="#3da44d" fill-rule="evenodd" fill-opacity="0.3" stroke="#000000" stroke-opacity="0.3" stroke-width="3.2"/>
<circle clip-path="url(#clip752)" cx="771.194" cy="813.147" r="14" fill="#3da44d" fill-rule="evenodd" fill-opacity="0.3" stroke="#000000" stroke-opacity="0.3" stroke-width="3.2"/>
<circle clip-path="url(#clip752)" cx="787.868" cy="799.666" r="14" fill="#3da44d" fill-rule="evenodd" fill-opacity="0.3" stroke="#000000" stroke-opacity="0.3" stroke-width="3.2"/>
<circle clip-path="url(#clip752)" cx="804.6" cy="775.399" r="14" fill="#3da44d" fill-rule="evenodd" fill-opacity="0.3" stroke="#000000" stroke-opacity="0.3" stroke-width="3.2"/>
<circle clip-path="url(#clip752)" cx="821.274" cy="760.586" r="14" fill="#3da44d" fill-rule="evenodd" fill-opacity="0.3" stroke="#000000" stroke-opacity="0.3" stroke-width="3.2"/>
<circle clip-path="url(#clip752)" cx="837.948" cy="738.325" r="14" fill="#3da44d" fill-rule="evenodd" fill-opacity="0.3" stroke="#000000" stroke-opacity="0.3" stroke-width="3.2"/>
<circle clip-path="url(#clip752)" cx="854.642" cy="726.573" r="14" fill="#3da44d" fill-rule="evenodd" fill-opacity="0.3" stroke="#000000" stroke-opacity="0.3" stroke-width="3.2"/>
<circle clip-path="url(#clip752)" cx="871.259" cy="708.081" r="14" fill="#3da44d" fill-rule="evenodd" fill-opacity="0.3" stroke="#000000" stroke-opacity="0.3" stroke-width="3.2"/>
<circle clip-path="url(#clip752)" cx="887.953" cy="684.366" r="14" fill="#3da44d" fill-rule="evenodd" fill-opacity="0.3" stroke="#000000" stroke-opacity="0.3" stroke-width="3.2"/>
<circle clip-path="url(#clip752)" cx="904.627" cy="677.418" r="14" fill="#3da44d" fill-rule="evenodd" fill-opacity="0.3" stroke="#000000" stroke-opacity="0.3" stroke-width="3.2"/>
<circle clip-path="url(#clip752)" cx="921.321" cy="666.094" r="14" fill="#3da44d" fill-rule="evenodd" fill-opacity="0.3" stroke="#000000" stroke-opacity="0.3" stroke-width="3.2"/>
<circle clip-path="url(#clip752)" cx="937.995" cy="648.142" r="14" fill="#3da44d" fill-rule="evenodd" fill-opacity="0.3" stroke="#000000" stroke-opacity="0.3" stroke-width="3.2"/>
<circle clip-path="url(#clip752)" cx="954.707" cy="626.183" r="14" fill="#3da44d" fill-rule="evenodd" fill-opacity="0.3" stroke="#000000" stroke-opacity="0.3" stroke-width="3.2"/>
<circle clip-path="url(#clip752)" cx="971.458" cy="614.924" r="14" fill="#3da44d" fill-rule="evenodd" fill-opacity="0.3" stroke="#000000" stroke-opacity="0.3" stroke-width="3.2"/>
<circle clip-path="url(#clip752)" cx="988.151" cy="606.18" r="14" fill="#3da44d" fill-rule="evenodd" fill-opacity="0.3" stroke="#000000" stroke-opacity="0.3" stroke-width="3.2"/>
<circle clip-path="url(#clip752)" cx="1004.83" cy="587.694" r="14" fill="#3da44d" fill-rule="evenodd" fill-opacity="0.3" stroke="#000000" stroke-opacity="0.3" stroke-width="3.2"/>
<circle clip-path="url(#clip752)" cx="1021.52" cy="571.384" r="14" fill="#3da44d" fill-rule="evenodd" fill-opacity="0.3" stroke="#000000" stroke-opacity="0.3" stroke-width="3.2"/>
<circle clip-path="url(#clip752)" cx="1038.21" cy="557.731" r="14" fill="#3da44d" fill-rule="evenodd" fill-opacity="0.3" stroke="#000000" stroke-opacity="0.3" stroke-width="3.2"/>
<circle clip-path="url(#clip752)" cx="1054.51" cy="539.954" r="14" fill="#3da44d" fill-rule="evenodd" fill-opacity="0.3" stroke="#000000" stroke-opacity="0.3" stroke-width="3.2"/>
<circle clip-path="url(#clip752)" cx="1071.2" cy="534.109" r="14" fill="#3da44d" fill-rule="evenodd" fill-opacity="0.3" stroke="#000000" stroke-opacity="0.3" stroke-width="3.2"/>
<circle clip-path="url(#clip752)" cx="1087.89" cy="523.047" r="14" fill="#3da44d" fill-rule="evenodd" fill-opacity="0.3" stroke="#000000" stroke-opacity="0.3" stroke-width="3.2"/>
<circle clip-path="url(#clip752)" cx="1104.61" cy="504.812" r="14" fill="#3da44d" fill-rule="evenodd" fill-opacity="0.3" stroke="#000000" stroke-opacity="0.3" stroke-width="3.2"/>
<circle clip-path="url(#clip752)" cx="1121.34" cy="493.032" r="14" fill="#3da44d" fill-rule="evenodd" fill-opacity="0.3" stroke="#000000" stroke-opacity="0.3" stroke-width="3.2"/>
<circle clip-path="url(#clip752)" cx="1138.05" cy="480.33" r="14" fill="#3da44d" fill-rule="evenodd" fill-opacity="0.3" stroke="#000000" stroke-opacity="0.3" stroke-width="3.2"/>
<circle clip-path="url(#clip752)" cx="1154.76" cy="467.87" r="14" fill="#3da44d" fill-rule="evenodd" fill-opacity="0.3" stroke="#000000" stroke-opacity="0.3" stroke-width="3.2"/>
<circle clip-path="url(#clip752)" cx="1171.49" cy="457.926" r="14" fill="#3da44d" fill-rule="evenodd" fill-opacity="0.3" stroke="#000000" stroke-opacity="0.3" stroke-width="3.2"/>
<circle clip-path="url(#clip752)" cx="1188.21" cy="447.279" r="14" fill="#3da44d" fill-rule="evenodd" fill-opacity="0.3" stroke="#000000" stroke-opacity="0.3" stroke-width="3.2"/>
<circle clip-path="url(#clip752)" cx="1204.94" cy="437.43" r="14" fill="#3da44d" fill-rule="evenodd" fill-opacity="0.3" stroke="#000000" stroke-opacity="0.3" stroke-width="3.2"/>
<circle clip-path="url(#clip752)" cx="1221.65" cy="432.472" r="14" fill="#3da44d" fill-rule="evenodd" fill-opacity="0.3" stroke="#000000" stroke-opacity="0.3" stroke-width="3.2"/>
<circle clip-path="url(#clip752)" cx="1238.38" cy="418.773" r="14" fill="#3da44d" fill-rule="evenodd" fill-opacity="0.3" stroke="#000000" stroke-opacity="0.3" stroke-width="3.2"/>
<circle clip-path="url(#clip752)" cx="1255.11" cy="413.554" r="14" fill="#3da44d" fill-rule="evenodd" fill-opacity="0.3" stroke="#000000" stroke-opacity="0.3" stroke-width="3.2"/>
<circle clip-path="url(#clip752)" cx="1271.88" cy="398.497" r="14" fill="#3da44d" fill-rule="evenodd" fill-opacity="0.3" stroke="#000000" stroke-opacity="0.3" stroke-width="3.2"/>
<circle clip-path="url(#clip752)" cx="1288.61" cy="390.485" r="14" fill="#3da44d" fill-rule="evenodd" fill-opacity="0.3" stroke="#000000" stroke-opacity="0.3" stroke-width="3.2"/>
<circle clip-path="url(#clip752)" cx="1305.33" cy="384.502" r="14" fill="#3da44d" fill-rule="evenodd" fill-opacity="0.3" stroke="#000000" stroke-opacity="0.3" stroke-width="3.2"/>
<circle clip-path="url(#clip752)" cx="1322.06" cy="369.501" r="14" fill="#3da44d" fill-rule="evenodd" fill-opacity="0.3" stroke="#000000" stroke-opacity="0.3" stroke-width="3.2"/>
<circle clip-path="url(#clip752)" cx="1338.77" cy="360.943" r="14" fill="#3da44d" fill-rule="evenodd" fill-opacity="0.3" stroke="#000000" stroke-opacity="0.3" stroke-width="3.2"/>
<circle clip-path="url(#clip752)" cx="1355.48" cy="346.205" r="14" fill="#3da44d" fill-rule="evenodd" fill-opacity="0.3" stroke="#000000" stroke-opacity="0.3" stroke-width="3.2"/>
<circle clip-path="url(#clip752)" cx="1372.2" cy="333.553" r="14" fill="#3da44d" fill-rule="evenodd" fill-opacity="0.3" stroke="#000000" stroke-opacity="0.3" stroke-width="3.2"/>
<circle clip-path="url(#clip752)" cx="1388.91" cy="320.104" r="14" fill="#3da44d" fill-rule="evenodd" fill-opacity="0.3" stroke="#000000" stroke-opacity="0.3" stroke-width="3.2"/>
<circle clip-path="url(#clip752)" cx="1411.58" cy="310.422" r="14" fill="#3da44d" fill-rule="evenodd" fill-opacity="0.3" stroke="#000000" stroke-opacity="0.3" stroke-width="3.2"/>
<circle clip-path="url(#clip752)" cx="1433.47" cy="307.543" r="14" fill="#3da44d" fill-rule="evenodd" fill-opacity="0.3" stroke="#000000" stroke-opacity="0.3" stroke-width="3.2"/>
<circle clip-path="url(#clip752)" cx="1456.73" cy="301.934" r="14" fill="#3da44d" fill-rule="evenodd" fill-opacity="0.3" stroke="#000000" stroke-opacity="0.3" stroke-width="3.2"/>
<circle clip-path="url(#clip752)" cx="1480.01" cy="292.493" r="14" fill="#3da44d" fill-rule="evenodd" fill-opacity="0.3" stroke="#000000" stroke-opacity="0.3" stroke-width="3.2"/>
<circle clip-path="url(#clip752)" cx="1503.27" cy="280.891" r="14" fill="#3da44d" fill-rule="evenodd" fill-opacity="0.3" stroke="#000000" stroke-opacity="0.3" stroke-width="3.2"/>
<circle clip-path="url(#clip752)" cx="1526.53" cy="267.168" r="14" fill="#3da44d" fill-rule="evenodd" fill-opacity="0.3" stroke="#000000" stroke-opacity="0.3" stroke-width="3.2"/>
<circle clip-path="url(#clip752)" cx="1549.81" cy="256.02" r="14" fill="#3da44d" fill-rule="evenodd" fill-opacity="0.3" stroke="#000000" stroke-opacity="0.3" stroke-width="3.2"/>
<circle clip-path="url(#clip752)" cx="1573.09" cy="241.439" r="14" fill="#3da44d" fill-rule="evenodd" fill-opacity="0.3" stroke="#000000" stroke-opacity="0.3" stroke-width="3.2"/>
<circle clip-path="url(#clip752)" cx="1596.35" cy="233.044" r="14" fill="#3da44d" fill-rule="evenodd" fill-opacity="0.3" stroke="#000000" stroke-opacity="0.3" stroke-width="3.2"/>
<circle clip-path="url(#clip752)" cx="1619.61" cy="223.333" r="14" fill="#3da44d" fill-rule="evenodd" fill-opacity="0.3" stroke="#000000" stroke-opacity="0.3" stroke-width="3.2"/>
<circle clip-path="url(#clip752)" cx="1642.91" cy="211.903" r="14" fill="#3da44d" fill-rule="evenodd" fill-opacity="0.3" stroke="#000000" stroke-opacity="0.3" stroke-width="3.2"/>
<circle clip-path="url(#clip752)" cx="1666.17" cy="194.506" r="14" fill="#3da44d" fill-rule="evenodd" fill-opacity="0.3" stroke="#000000" stroke-opacity="0.3" stroke-width="3.2"/>
<circle clip-path="url(#clip752)" cx="1689.43" cy="180.043" r="14" fill="#3da44d" fill-rule="evenodd" fill-opacity="0.3" stroke="#000000" stroke-opacity="0.3" stroke-width="3.2"/>
<circle clip-path="url(#clip752)" cx="1712.69" cy="173.799" r="14" fill="#3da44d" fill-rule="evenodd" fill-opacity="0.3" stroke="#000000" stroke-opacity="0.3" stroke-width="3.2"/>
<circle clip-path="url(#clip752)" cx="1735.93" cy="161.147" r="14" fill="#3da44d" fill-rule="evenodd" fill-opacity="0.3" stroke="#000000" stroke-opacity="0.3" stroke-width="3.2"/>
<circle clip-path="url(#clip752)" cx="1759.19" cy="153.09" r="14" fill="#3da44d" fill-rule="evenodd" fill-opacity="0.3" stroke="#000000" stroke-opacity="0.3" stroke-width="3.2"/>
<circle clip-path="url(#clip752)" cx="1782.45" cy="146.296" r="14" fill="#3da44d" fill-rule="evenodd" fill-opacity="0.3" stroke="#000000" stroke-opacity="0.3" stroke-width="3.2"/>
<circle clip-path="url(#clip752)" cx="1805.69" cy="139.655" r="14" fill="#3da44d" fill-rule="evenodd" fill-opacity="0.3" stroke="#000000" stroke-opacity="0.3" stroke-width="3.2"/>
<circle clip-path="url(#clip752)" cx="1828.95" cy="132.15" r="14" fill="#3da44d" fill-rule="evenodd" fill-opacity="0.3" stroke="#000000" stroke-opacity="0.3" stroke-width="3.2"/>
<circle clip-path="url(#clip752)" cx="1852.23" cy="128.942" r="14" fill="#3da44d" fill-rule="evenodd" fill-opacity="0.3" stroke="#000000" stroke-opacity="0.3" stroke-width="3.2"/>
<circle clip-path="url(#clip752)" cx="1875.51" cy="124.166" r="14" fill="#3da44d" fill-rule="evenodd" fill-opacity="0.3" stroke="#000000" stroke-opacity="0.3" stroke-width="3.2"/>
<circle clip-path="url(#clip752)" cx="1898.77" cy="130.02" r="14" fill="#3da44d" fill-rule="evenodd" fill-opacity="0.3" stroke="#000000" stroke-opacity="0.3" stroke-width="3.2"/>
<path clip-path="url(#clip750)" d="
M1677.43 1361.45 L1895.65 1361.45 L1895.65 1240.49 L1677.43 1240.49  Z
  " fill="#ffffff" fill-rule="evenodd" fill-opacity="1"/>
<polyline clip-path="url(#clip750)" style="stroke:#000000; stroke-width:4; stroke-opacity:1; fill:none" points="
  1677.43,1361.45 1895.65,1361.45 1895.65,1240.49 1677.43,1240.49 1677.43,1361.45 
  "/>
<polyline clip-path="url(#clip750)" style="stroke:#3da44d; stroke-width:4; stroke-opacity:1; fill:none" points="
  1696.47,1300.97 1810.68,1300.97 
  "/>
<path clip-path="url(#clip750)" d="M 0 0 M1857.58 1286.35 L1857.58 1291.28 Q1855.22 1289.08 1852.54 1287.99 Q1849.87 1286.9 1846.86 1286.9 Q1840.94 1286.9 1837.79 1290.54 Q1834.64 1294.15 1834.64 1301 Q1834.64 1307.83 1837.79 1311.46 Q1840.94 1315.08 1846.86 1315.08 Q1849.87 1315.08 1852.54 1313.99 Q1855.22 1312.9 1857.58 1310.7 L1857.58 1315.58 Q1855.13 1317.25 1852.37 1318.08 Q1849.64 1318.92 1846.59 1318.92 Q1838.74 1318.92 1834.23 1314.13 Q1829.71 1309.31 1829.71 1301 Q1829.71 1292.67 1834.23 1287.88 Q1838.74 1283.06 1846.59 1283.06 Q1849.69 1283.06 1852.42 1283.89 Q1855.17 1284.71 1857.58 1286.35 Z" fill="#000000" fill-rule="evenodd" fill-opacity="1" /></svg>
