<?xml version="1.0" encoding="utf-8"?>
<svg xmlns="http://www.w3.org/2000/svg" xmlns:xlink="http://www.w3.org/1999/xlink" width="500" height="400" viewBox="0 0 2000 1600">
<defs>
  <clipPath id="clip150">
    <rect x="0" y="0" width="2000" height="1600"/>
  </clipPath>
</defs>
<path clip-path="url(#clip150)" d="
M0 1600 L2000 1600 L2000 0 L0 0  Z
  " fill="#ffffff" fill-rule="evenodd" fill-opacity="1"/>
<defs>
  <clipPath id="clip151">
    <rect x="400" y="0" width="1401" height="1401"/>
  </clipPath>
</defs>
<path clip-path="url(#clip150)" d="
M239.629 1406.76 L1952.76 1406.76 L1952.76 47.2441 L239.629 47.2441  Z
  " fill="#ffffff" fill-rule="evenodd" fill-opacity="1"/>
<defs>
  <clipPath id="clip152">
    <rect x="239" y="47" width="1714" height="1361"/>
  </clipPath>
</defs>
<polyline clip-path="url(#clip152)" style="stroke:#000000; stroke-width:2; stroke-opacity:0.1; fill:none" points="
  239.629,1406.76 239.629,47.2441 
  "/>
<polyline clip-path="url(#clip152)" style="stroke:#000000; stroke-width:2; stroke-opacity:0.1; fill:none" points="
  734.753,1406.76 734.753,47.2441 
  "/>
<polyline clip-path="url(#clip152)" style="stroke:#000000; stroke-width:2; stroke-opacity:0.1; fill:none" points="
  1229.88,1406.76 1229.88,47.2441 
  "/>
<polyline clip-path="url(#clip152)" style="stroke:#000000; stroke-width:2; stroke-opacity:0.1; fill:none" points="
  1725,1406.76 1725,47.2441 
  "/>
<polyline clip-path="url(#clip150)" style="stroke:#000000; stroke-width:4; stroke-opacity:1; fill:none" points="
  239.629,1406.76 1952.76,1406.76 
  "/>
<polyline clip-path="url(#clip150)" style="stroke:#000000; stroke-width:4; stroke-opacity:1; fill:none" points="
  239.629,1406.76 239.629,1390.45 
  "/>
<polyline clip-path="url(#clip150)" style="stroke:#000000; stroke-width:4; stroke-opacity:1; fill:none" points="
  734.753,1406.76 734.753,1390.45 
  "/>
<polyline clip-path="url(#clip150)" style="stroke:#000000; stroke-width:4; stroke-opacity:1; fill:none" points="
  1229.88,1406.76 1229.88,1390.45 
  "/>
<polyline clip-path="url(#clip150)" style="stroke:#000000; stroke-width:4; stroke-opacity:1; fill:none" points="
  1725,1406.76 1725,1390.45 
  "/>
<path clip-path="url(#clip150)" d="M 0 0 M239.629 1432.75 Q236.018 1432.75 234.19 1436.32 Q232.384 1439.86 232.384 1446.99 Q232.384 1454.1 234.19 1457.66 Q236.018 1461.2 239.629 1461.2 Q243.264 1461.2 245.069 1457.66 Q246.898 1454.1 246.898 1446.99 Q246.898 1439.86 245.069 1436.32 Q243.264 1432.75 239.629 1432.75 M239.629 1429.05 Q245.44 1429.05 248.495 1433.66 Q251.574 1438.24 251.574 1446.99 Q251.574 1455.72 248.495 1460.32 Q245.44 1464.91 239.629 1464.91 Q233.819 1464.91 230.741 1460.32 Q227.685 1455.72 227.685 1446.99 Q227.685 1438.24 230.741 1433.66 Q233.819 1429.05 239.629 1429.05 Z" fill="#000000" fill-rule="evenodd" fill-opacity="1" /><path clip-path="url(#clip150)" d="M 0 0 M694.359 1460.3 L701.998 1460.3 L701.998 1433.94 L693.688 1435.6 L693.688 1431.34 L701.952 1429.68 L706.628 1429.68 L706.628 1460.3 L714.267 1460.3 L714.267 1464.24 L694.359 1464.24 L694.359 1460.3 Z" fill="#000000" fill-rule="evenodd" fill-opacity="1" /><path clip-path="url(#clip150)" d="M 0 0 M733.711 1432.75 Q730.1 1432.75 728.271 1436.32 Q726.466 1439.86 726.466 1446.99 Q726.466 1454.1 728.271 1457.66 Q730.1 1461.2 733.711 1461.2 Q737.345 1461.2 739.151 1457.66 Q740.98 1454.1 740.98 1446.99 Q740.98 1439.86 739.151 1436.32 Q737.345 1432.75 733.711 1432.75 M733.711 1429.05 Q739.521 1429.05 742.577 1433.66 Q745.655 1438.24 745.655 1446.99 Q745.655 1455.72 742.577 1460.32 Q739.521 1464.91 733.711 1464.91 Q727.901 1464.91 724.822 1460.32 Q721.767 1455.72 721.767 1446.99 Q721.767 1438.24 724.822 1433.66 Q727.901 1429.05 733.711 1429.05 Z" fill="#000000" fill-rule="evenodd" fill-opacity="1" /><path clip-path="url(#clip150)" d="M 0 0 M763.873 1432.75 Q760.262 1432.75 758.433 1436.32 Q756.628 1439.86 756.628 1446.99 Q756.628 1454.1 758.433 1457.66 Q760.262 1461.2 763.873 1461.2 Q767.507 1461.2 769.313 1457.66 Q771.141 1454.1 771.141 1446.99 Q771.141 1439.86 769.313 1436.32 Q767.507 1432.75 763.873 1432.75 M763.873 1429.05 Q769.683 1429.05 772.739 1433.66 Q775.817 1438.24 775.817 1446.99 Q775.817 1455.72 772.739 1460.32 Q769.683 1464.91 763.873 1464.91 Q758.063 1464.91 754.984 1460.32 Q751.929 1455.72 751.929 1446.99 Q751.929 1438.24 754.984 1433.66 Q758.063 1429.05 763.873 1429.05 Z" fill="#000000" fill-rule="evenodd" fill-opacity="1" /><path clip-path="url(#clip150)" d="M 0 0 M1193.57 1460.3 L1209.89 1460.3 L1209.89 1464.24 L1187.94 1464.24 L1187.94 1460.3 Q1190.61 1457.55 1195.19 1452.92 Q1199.8 1448.26 1200.98 1446.92 Q1203.22 1444.4 1204.1 1442.66 Q1205 1440.9 1205 1439.21 Q1205 1436.46 1203.06 1434.72 Q1201.14 1432.99 1198.04 1432.99 Q1195.84 1432.99 1193.38 1433.75 Q1190.95 1434.51 1188.17 1436.06 L1188.17 1431.34 Q1191 1430.21 1193.45 1429.63 Q1195.91 1429.05 1197.94 1429.05 Q1203.31 1429.05 1206.51 1431.74 Q1209.7 1434.42 1209.7 1438.91 Q1209.7 1441.04 1208.89 1442.96 Q1208.11 1444.86 1206 1447.45 Q1205.42 1448.12 1202.32 1451.34 Q1199.22 1454.54 1193.57 1460.3 Z" fill="#000000" fill-rule="evenodd" fill-opacity="1" /><path clip-path="url(#clip150)" d="M 0 0 M1229.7 1432.75 Q1226.09 1432.75 1224.26 1436.32 Q1222.46 1439.86 1222.46 1446.99 Q1222.46 1454.1 1224.26 1457.66 Q1226.09 1461.2 1229.7 1461.2 Q1233.34 1461.2 1235.14 1457.66 Q1236.97 1454.1 1236.97 1446.99 Q1236.97 1439.86 1235.14 1436.32 Q1233.34 1432.75 1229.7 1432.75 M1229.7 1429.05 Q1235.51 1429.05 1238.57 1433.66 Q1241.65 1438.24 1241.65 1446.99 Q1241.65 1455.72 1238.57 1460.32 Q1235.51 1464.91 1229.7 1464.91 Q1223.89 1464.91 1220.81 1460.32 Q1217.76 1455.72 1217.76 1446.99 Q1217.76 1438.24 1220.81 1433.66 Q1223.89 1429.05 1229.7 1429.05 Z" fill="#000000" fill-rule="evenodd" fill-opacity="1" /><path clip-path="url(#clip150)" d="M 0 0 M1259.86 1432.75 Q1256.25 1432.75 1254.42 1436.32 Q1252.62 1439.86 1252.62 1446.99 Q1252.62 1454.1 1254.42 1457.66 Q1256.25 1461.2 1259.86 1461.2 Q1263.5 1461.2 1265.3 1457.66 Q1267.13 1454.1 1267.13 1446.99 Q1267.13 1439.86 1265.3 1436.32 Q1263.5 1432.75 1259.86 1432.75 M1259.86 1429.05 Q1265.67 1429.05 1268.73 1433.66 Q1271.81 1438.24 1271.81 1446.99 Q1271.81 1455.72 1268.73 1460.32 Q1265.67 1464.91 1259.86 1464.91 Q1254.05 1464.91 1250.98 1460.32 Q1247.92 1455.72 1247.92 1446.99 Q1247.92 1438.24 1250.98 1433.66 Q1254.05 1429.05 1259.86 1429.05 Z" fill="#000000" fill-rule="evenodd" fill-opacity="1" /><path clip-path="url(#clip150)" d="M 0 0 M1698.76 1445.6 Q1702.12 1446.32 1703.99 1448.59 Q1705.89 1450.86 1705.89 1454.19 Q1705.89 1459.31 1702.37 1462.11 Q1698.85 1464.91 1692.37 1464.91 Q1690.2 1464.91 1687.88 1464.47 Q1685.59 1464.05 1683.14 1463.19 L1683.14 1458.68 Q1685.08 1459.81 1687.4 1460.39 Q1689.71 1460.97 1692.23 1460.97 Q1696.63 1460.97 1698.92 1459.24 Q1701.24 1457.5 1701.24 1454.19 Q1701.24 1451.13 1699.08 1449.42 Q1696.96 1447.69 1693.14 1447.69 L1689.11 1447.69 L1689.11 1443.84 L1693.32 1443.84 Q1696.77 1443.84 1698.6 1442.48 Q1700.43 1441.09 1700.43 1438.5 Q1700.43 1435.83 1698.53 1434.42 Q1696.65 1432.99 1693.14 1432.99 Q1691.21 1432.99 1689.02 1433.4 Q1686.82 1433.82 1684.18 1434.7 L1684.18 1430.53 Q1686.84 1429.79 1689.15 1429.42 Q1691.49 1429.05 1693.55 1429.05 Q1698.88 1429.05 1701.98 1431.48 Q1705.08 1433.89 1705.08 1438.01 Q1705.08 1440.88 1703.44 1442.87 Q1701.79 1444.84 1698.76 1445.6 Z" fill="#000000" fill-rule="evenodd" fill-opacity="1" /><path clip-path="url(#clip150)" d="M 0 0 M1724.76 1432.75 Q1721.15 1432.75 1719.32 1436.32 Q1717.51 1439.86 1717.51 1446.99 Q1717.51 1454.1 1719.32 1457.66 Q1721.15 1461.2 1724.76 1461.2 Q1728.39 1461.2 1730.2 1457.66 Q1732.02 1454.1 1732.02 1446.99 Q1732.02 1439.86 1730.2 1436.32 Q1728.39 1432.75 1724.76 1432.75 M1724.76 1429.05 Q1730.57 1429.05 1733.62 1433.66 Q1736.7 1438.24 1736.7 1446.99 Q1736.7 1455.72 1733.62 1460.32 Q1730.57 1464.91 1724.76 1464.91 Q1718.95 1464.91 1715.87 1460.32 Q1712.81 1455.72 1712.81 1446.99 Q1712.81 1438.24 1715.87 1433.66 Q1718.95 1429.05 1724.76 1429.05 Z" fill="#000000" fill-rule="evenodd" fill-opacity="1" /><path clip-path="url(#clip150)" d="M 0 0 M1754.92 1432.75 Q1751.31 1432.75 1749.48 1436.32 Q1747.67 1439.86 1747.67 1446.99 Q1747.67 1454.1 1749.48 1457.66 Q1751.31 1461.2 1754.92 1461.2 Q1758.55 1461.2 1760.36 1457.66 Q1762.19 1454.1 1762.19 1446.99 Q1762.19 1439.86 1760.36 1436.32 Q1758.55 1432.75 1754.92 1432.75 M1754.92 1429.05 Q1760.73 1429.05 1763.78 1433.66 Q1766.86 1438.24 1766.86 1446.99 Q1766.86 1455.72 1763.78 1460.32 Q1760.73 1464.91 1754.92 1464.91 Q1749.11 1464.91 1746.03 1460.32 Q1742.97 1455.72 1742.97 1446.99 Q1742.97 1438.24 1746.03 1433.66 Q1749.11 1429.05 1754.92 1429.05 Z" fill="#000000" fill-rule="evenodd" fill-opacity="1" /><path clip-path="url(#clip150)" d="M 0 0 M949.288 1498.11 L989.488 1498.11 L989.488 1503.52 L972.618 1503.52 L972.618 1545.63 L966.157 1545.63 L966.157 1503.52 L949.288 1503.52 L949.288 1498.11 Z" fill="#000000" fill-rule="evenodd" fill-opacity="1" /><path clip-path="url(#clip150)" d="M 0 0 M993.434 1509.98 L999.291 1509.98 L999.291 1545.63 L993.434 1545.63 L993.434 1509.98 M993.434 1496.1 L999.291 1496.1 L999.291 1503.52 L993.434 1503.52 L993.434 1496.1 Z" fill="#000000" fill-rule="evenodd" fill-opacity="1" /><path clip-path="url(#clip150)" d="M 0 0 M1039.3 1516.82 Q1041.5 1512.88 1044.55 1511 Q1047.61 1509.12 1051.74 1509.12 Q1057.31 1509.12 1060.34 1513.04 Q1063.36 1516.92 1063.36 1524.11 L1063.36 1545.63 L1057.47 1545.63 L1057.47 1524.3 Q1057.47 1519.18 1055.66 1516.7 Q1053.84 1514.21 1050.12 1514.21 Q1045.57 1514.21 1042.93 1517.24 Q1040.29 1520.26 1040.29 1525.48 L1040.29 1545.63 L1034.4 1545.63 L1034.4 1524.3 Q1034.4 1519.15 1032.58 1516.7 Q1030.77 1514.21 1026.98 1514.21 Q1022.49 1514.21 1019.85 1517.27 Q1017.21 1520.29 1017.21 1525.48 L1017.21 1545.63 L1011.32 1545.63 L1011.32 1509.98 L1017.21 1509.98 L1017.21 1515.52 Q1019.22 1512.24 1022.02 1510.68 Q1024.82 1509.12 1028.67 1509.12 Q1032.55 1509.12 1035.26 1511.09 Q1037.99 1513.07 1039.3 1516.82 Z" fill="#000000" fill-rule="evenodd" fill-opacity="1" /><path clip-path="url(#clip150)" d="M 0 0 M1105.53 1526.34 L1105.53 1529.2 L1078.61 1529.2 Q1078.99 1535.25 1082.24 1538.43 Q1085.51 1541.59 1091.34 1541.59 Q1094.71 1541.59 1097.86 1540.76 Q1101.05 1539.93 1104.17 1538.28 L1104.17 1543.81 Q1101.01 1545.15 1097.7 1545.85 Q1094.39 1546.55 1090.99 1546.55 Q1082.46 1546.55 1077.46 1541.59 Q1072.5 1536.62 1072.5 1528.15 Q1072.5 1519.4 1077.21 1514.28 Q1081.95 1509.12 1089.97 1509.12 Q1097.16 1509.12 1101.33 1513.77 Q1105.53 1518.38 1105.53 1526.34 M1099.68 1524.62 Q1099.61 1519.81 1096.97 1516.95 Q1094.36 1514.09 1090.03 1514.09 Q1085.13 1514.09 1082.17 1516.85 Q1079.24 1519.62 1078.8 1524.65 L1099.68 1524.62 Z" fill="#000000" fill-rule="evenodd" fill-opacity="1" /><path clip-path="url(#clip150)" d="M 0 0 M1149.94 1496.17 Q1145.67 1503.49 1143.6 1510.65 Q1141.53 1517.81 1141.53 1525.16 Q1141.53 1532.51 1143.6 1539.74 Q1145.7 1546.93 1149.94 1554.22 L1144.84 1554.22 Q1140.07 1546.74 1137.68 1539.52 Q1135.33 1532.29 1135.33 1525.16 Q1135.33 1518.06 1137.68 1510.87 Q1140.04 1503.68 1144.84 1496.17 L1149.94 1496.17 Z" fill="#000000" fill-rule="evenodd" fill-opacity="1" /><path clip-path="url(#clip150)" d="M 0 0 M1190.93 1524.11 L1190.93 1545.63 L1185.07 1545.63 L1185.07 1524.3 Q1185.07 1519.24 1183.1 1516.73 Q1181.13 1514.21 1177.18 1514.21 Q1172.44 1514.21 1169.7 1517.24 Q1166.96 1520.26 1166.96 1525.48 L1166.96 1545.63 L1161.08 1545.63 L1161.08 1496.1 L1166.96 1496.1 L1166.96 1515.52 Q1169.06 1512.3 1171.9 1510.71 Q1174.76 1509.12 1178.49 1509.12 Q1184.63 1509.12 1187.78 1512.94 Q1190.93 1516.73 1190.93 1524.11 Z" fill="#000000" fill-rule="evenodd" fill-opacity="1" /><path clip-path="url(#clip150)" d="M 0 0 M1223.27 1515.45 Q1222.28 1514.88 1221.1 1514.63 Q1219.96 1514.34 1218.56 1514.34 Q1213.59 1514.34 1210.92 1517.59 Q1208.28 1520.8 1208.28 1526.85 L1208.28 1545.63 L1202.39 1545.63 L1202.39 1509.98 L1208.28 1509.98 L1208.28 1515.52 Q1210.12 1512.27 1213.08 1510.71 Q1216.04 1509.12 1220.28 1509.12 Q1220.88 1509.12 1221.61 1509.22 Q1222.35 1509.28 1223.24 1509.44 L1223.27 1515.45 Z" fill="#000000" fill-rule="evenodd" fill-opacity="1" /><path clip-path="url(#clip150)" d="M 0 0 M1228.49 1496.17 L1233.58 1496.17 Q1238.35 1503.68 1240.71 1510.87 Q1243.1 1518.06 1243.1 1525.16 Q1243.1 1532.29 1240.71 1539.52 Q1238.35 1546.74 1233.58 1554.22 L1228.49 1554.22 Q1232.72 1546.93 1234.79 1539.74 Q1236.89 1532.51 1236.89 1525.16 Q1236.89 1517.81 1234.79 1510.65 Q1232.72 1503.49 1228.49 1496.17 Z" fill="#000000" fill-rule="evenodd" fill-opacity="1" /><polyline clip-path="url(#clip152)" style="stroke:#000000; stroke-width:2; stroke-opacity:0.1; fill:none" points="
  239.629,1368.82 1952.76,1368.82 
  "/>
<polyline clip-path="url(#clip152)" style="stroke:#000000; stroke-width:2; stroke-opacity:0.1; fill:none" points="
  239.629,1103.68 1952.76,1103.68 
  "/>
<polyline clip-path="url(#clip152)" style="stroke:#000000; stroke-width:2; stroke-opacity:0.1; fill:none" points="
  239.629,838.536 1952.76,838.536 
  "/>
<polyline clip-path="url(#clip152)" style="stroke:#000000; stroke-width:2; stroke-opacity:0.1; fill:none" points="
  239.629,573.395 1952.76,573.395 
  "/>
<polyline clip-path="url(#clip152)" style="stroke:#000000; stroke-width:2; stroke-opacity:0.1; fill:none" points="
  239.629,308.254 1952.76,308.254 
  "/>
<polyline clip-path="url(#clip150)" style="stroke:#000000; stroke-width:4; stroke-opacity:1; fill:none" points="
  239.629,1406.76 239.629,47.2441 
  "/>
<polyline clip-path="url(#clip150)" style="stroke:#000000; stroke-width:4; stroke-opacity:1; fill:none" points="
  239.629,1368.82 260.187,1368.82 
  "/>
<polyline clip-path="url(#clip150)" style="stroke:#000000; stroke-width:4; stroke-opacity:1; fill:none" points="
  239.629,1103.68 260.187,1103.68 
  "/>
<polyline clip-path="url(#clip150)" style="stroke:#000000; stroke-width:4; stroke-opacity:1; fill:none" points="
  239.629,838.536 260.187,838.536 
  "/>
<polyline clip-path="url(#clip150)" style="stroke:#000000; stroke-width:4; stroke-opacity:1; fill:none" points="
  239.629,573.395 260.187,573.395 
  "/>
<polyline clip-path="url(#clip150)" style="stroke:#000000; stroke-width:4; stroke-opacity:1; fill:none" points="
  239.629,308.254 260.187,308.254 
  "/>
<path clip-path="url(#clip150)" d="M 0 0 M197.685 1354.62 Q194.074 1354.62 192.245 1358.18 Q190.44 1361.72 190.44 1368.85 Q190.44 1375.96 192.245 1379.52 Q194.074 1383.06 197.685 1383.06 Q201.319 1383.06 203.125 1379.52 Q204.954 1375.96 204.954 1368.85 Q204.954 1361.72 203.125 1358.18 Q201.319 1354.62 197.685 1354.62 M197.685 1350.91 Q203.495 1350.91 206.551 1355.52 Q209.629 1360.1 209.629 1368.85 Q209.629 1377.58 206.551 1382.19 Q203.495 1386.77 197.685 1386.77 Q191.875 1386.77 188.796 1382.19 Q185.741 1377.58 185.741 1368.85 Q185.741 1360.1 188.796 1355.52 Q191.875 1350.91 197.685 1350.91 Z" fill="#000000" fill-rule="evenodd" fill-opacity="1" /><path clip-path="url(#clip150)" d="M 0 0 M157.57 1086.4 L175.926 1086.4 L175.926 1090.33 L161.852 1090.33 L161.852 1098.8 Q162.87 1098.46 163.889 1098.29 Q164.907 1098.11 165.926 1098.11 Q171.713 1098.11 175.093 1101.28 Q178.472 1104.45 178.472 1109.87 Q178.472 1115.45 175 1118.55 Q171.528 1121.63 165.208 1121.63 Q163.032 1121.63 160.764 1121.26 Q158.519 1120.89 156.111 1120.15 L156.111 1115.45 Q158.195 1116.58 160.417 1117.14 Q162.639 1117.69 165.116 1117.69 Q169.12 1117.69 171.458 1115.59 Q173.796 1113.48 173.796 1109.87 Q173.796 1106.26 171.458 1104.15 Q169.12 1102.04 165.116 1102.04 Q163.241 1102.04 161.366 1102.46 Q159.514 1102.88 157.57 1103.76 L157.57 1086.4 Z" fill="#000000" fill-rule="evenodd" fill-opacity="1" /><path clip-path="url(#clip150)" d="M 0 0 M197.685 1089.48 Q194.074 1089.48 192.245 1093.04 Q190.44 1096.58 190.44 1103.71 Q190.44 1110.82 192.245 1114.38 Q194.074 1117.92 197.685 1117.92 Q201.319 1117.92 203.125 1114.38 Q204.954 1110.82 204.954 1103.71 Q204.954 1096.58 203.125 1093.04 Q201.319 1089.48 197.685 1089.48 M197.685 1085.77 Q203.495 1085.77 206.551 1090.38 Q209.629 1094.96 209.629 1103.71 Q209.629 1112.44 206.551 1117.04 Q203.495 1121.63 197.685 1121.63 Q191.875 1121.63 188.796 1117.04 Q185.741 1112.44 185.741 1103.71 Q185.741 1094.96 188.796 1090.38 Q191.875 1085.77 197.685 1085.77 Z" fill="#000000" fill-rule="evenodd" fill-opacity="1" /><path clip-path="url(#clip150)" d="M 0 0 M128.172 851.88 L135.81 851.88 L135.81 825.515 L127.5 827.181 L127.5 822.922 L135.764 821.256 L140.44 821.256 L140.44 851.88 L148.079 851.88 L148.079 855.816 L128.172 855.816 L128.172 851.88 Z" fill="#000000" fill-rule="evenodd" fill-opacity="1" /><path clip-path="url(#clip150)" d="M 0 0 M167.523 824.334 Q163.912 824.334 162.083 827.899 Q160.278 831.441 160.278 838.57 Q160.278 845.677 162.083 849.242 Q163.912 852.783 167.523 852.783 Q171.157 852.783 172.963 849.242 Q174.792 845.677 174.792 838.57 Q174.792 831.441 172.963 827.899 Q171.157 824.334 167.523 824.334 M167.523 820.631 Q173.333 820.631 176.389 825.237 Q179.468 829.82 179.468 838.57 Q179.468 847.297 176.389 851.904 Q173.333 856.487 167.523 856.487 Q161.713 856.487 158.634 851.904 Q155.579 847.297 155.579 838.57 Q155.579 829.82 158.634 825.237 Q161.713 820.631 167.523 820.631 Z" fill="#000000" fill-rule="evenodd" fill-opacity="1" /><path clip-path="url(#clip150)" d="M 0 0 M197.685 824.334 Q194.074 824.334 192.245 827.899 Q190.44 831.441 190.44 838.57 Q190.44 845.677 192.245 849.242 Q194.074 852.783 197.685 852.783 Q201.319 852.783 203.125 849.242 Q204.954 845.677 204.954 838.57 Q204.954 831.441 203.125 827.899 Q201.319 824.334 197.685 824.334 M197.685 820.631 Q203.495 820.631 206.551 825.237 Q209.629 829.82 209.629 838.57 Q209.629 847.297 206.551 851.904 Q203.495 856.487 197.685 856.487 Q191.875 856.487 188.796 851.904 Q185.741 847.297 185.741 838.57 Q185.741 829.82 188.796 825.237 Q191.875 820.631 197.685 820.631 Z" fill="#000000" fill-rule="evenodd" fill-opacity="1" /><path clip-path="url(#clip150)" d="M 0 0 M128.172 586.74 L135.81 586.74 L135.81 560.374 L127.5 562.041 L127.5 557.781 L135.764 556.115 L140.44 556.115 L140.44 586.74 L148.079 586.74 L148.079 590.675 L128.172 590.675 L128.172 586.74 Z" fill="#000000" fill-rule="evenodd" fill-opacity="1" /><path clip-path="url(#clip150)" d="M 0 0 M157.57 556.115 L175.926 556.115 L175.926 560.05 L161.852 560.05 L161.852 568.522 Q162.87 568.175 163.889 568.013 Q164.907 567.828 165.926 567.828 Q171.713 567.828 175.093 570.999 Q178.472 574.17 178.472 579.587 Q178.472 585.166 175 588.267 Q171.528 591.346 165.208 591.346 Q163.032 591.346 160.764 590.976 Q158.519 590.605 156.111 589.865 L156.111 585.166 Q158.195 586.3 160.417 586.855 Q162.639 587.411 165.116 587.411 Q169.12 587.411 171.458 585.304 Q173.796 583.198 173.796 579.587 Q173.796 575.976 171.458 573.869 Q169.12 571.763 165.116 571.763 Q163.241 571.763 161.366 572.18 Q159.514 572.596 157.57 573.476 L157.57 556.115 Z" fill="#000000" fill-rule="evenodd" fill-opacity="1" /><path clip-path="url(#clip150)" d="M 0 0 M197.685 559.193 Q194.074 559.193 192.245 562.758 Q190.44 566.3 190.44 573.43 Q190.44 580.536 192.245 584.101 Q194.074 587.642 197.685 587.642 Q201.319 587.642 203.125 584.101 Q204.954 580.536 204.954 573.43 Q204.954 566.3 203.125 562.758 Q201.319 559.193 197.685 559.193 M197.685 555.49 Q203.495 555.49 206.551 560.096 Q209.629 564.68 209.629 573.43 Q209.629 582.156 206.551 586.763 Q203.495 591.346 197.685 591.346 Q191.875 591.346 188.796 586.763 Q185.741 582.156 185.741 573.43 Q185.741 564.68 188.796 560.096 Q191.875 555.49 197.685 555.49 Z" fill="#000000" fill-rule="evenodd" fill-opacity="1" /><path clip-path="url(#clip150)" d="M 0 0 M131.389 321.599 L147.708 321.599 L147.708 325.534 L125.764 325.534 L125.764 321.599 Q128.426 318.844 133.009 314.215 Q137.616 309.562 138.796 308.219 Q141.042 305.696 141.921 303.96 Q142.824 302.201 142.824 300.511 Q142.824 297.756 140.88 296.02 Q138.959 294.284 135.857 294.284 Q133.658 294.284 131.204 295.048 Q128.773 295.812 125.996 297.363 L125.996 292.641 Q128.82 291.506 131.273 290.928 Q133.727 290.349 135.764 290.349 Q141.134 290.349 144.329 293.034 Q147.523 295.719 147.523 300.21 Q147.523 302.34 146.713 304.261 Q145.926 306.159 143.82 308.752 Q143.241 309.423 140.139 312.641 Q137.037 315.835 131.389 321.599 Z" fill="#000000" fill-rule="evenodd" fill-opacity="1" /><path clip-path="url(#clip150)" d="M 0 0 M167.523 294.053 Q163.912 294.053 162.083 297.617 Q160.278 301.159 160.278 308.289 Q160.278 315.395 162.083 318.96 Q163.912 322.502 167.523 322.502 Q171.157 322.502 172.963 318.96 Q174.792 315.395 174.792 308.289 Q174.792 301.159 172.963 297.617 Q171.157 294.053 167.523 294.053 M167.523 290.349 Q173.333 290.349 176.389 294.955 Q179.468 299.539 179.468 308.289 Q179.468 317.016 176.389 321.622 Q173.333 326.205 167.523 326.205 Q161.713 326.205 158.634 321.622 Q155.579 317.016 155.579 308.289 Q155.579 299.539 158.634 294.955 Q161.713 290.349 167.523 290.349 Z" fill="#000000" fill-rule="evenodd" fill-opacity="1" /><path clip-path="url(#clip150)" d="M 0 0 M197.685 294.053 Q194.074 294.053 192.245 297.617 Q190.44 301.159 190.44 308.289 Q190.44 315.395 192.245 318.96 Q194.074 322.502 197.685 322.502 Q201.319 322.502 203.125 318.96 Q204.954 315.395 204.954 308.289 Q204.954 301.159 203.125 297.617 Q201.319 294.053 197.685 294.053 M197.685 290.349 Q203.495 290.349 206.551 294.955 Q209.629 299.539 209.629 308.289 Q209.629 317.016 206.551 321.622 Q203.495 326.205 197.685 326.205 Q191.875 326.205 188.796 321.622 Q185.741 317.016 185.741 308.289 Q185.741 299.539 188.796 294.955 Q191.875 290.349 197.685 290.349 Z" fill="#000000" fill-rule="evenodd" fill-opacity="1" /><path clip-path="url(#clip150)" d="M 0 0 M33.9882 917.02 L33.9882 910.591 L53.4672 910.591 L53.4672 887.229 L33.9882 887.229 L33.9882 880.799 L81.5082 880.799 L81.5082 887.229 L58.8781 887.229 L58.8781 910.591 L81.5082 910.591 L81.5082 917.02 L33.9882 917.02 Z" fill="#000000" fill-rule="evenodd" fill-opacity="1" /><path clip-path="url(#clip150)" d="M 0 0 M62.2201 837.767 L65.0846 837.767 L65.0846 864.694 Q71.1321 864.312 74.3149 861.066 Q77.4659 857.787 77.4659 851.963 Q77.4659 848.589 76.6384 845.438 Q75.8109 842.255 74.1558 839.136 L79.6939 839.136 Q81.0307 842.287 81.731 845.597 Q82.4312 848.907 82.4312 852.313 Q82.4312 860.843 77.4659 865.84 Q72.5007 870.805 64.0343 870.805 Q55.2814 870.805 50.1571 866.095 Q45.0008 861.352 45.0008 853.331 Q45.0008 846.138 49.6478 841.969 Q54.2629 837.767 62.2201 837.767 M60.5013 843.624 Q55.6952 843.687 52.8306 846.329 Q49.9661 848.939 49.9661 853.268 Q49.9661 858.169 52.7352 861.129 Q55.5042 864.058 60.5332 864.503 L60.5013 843.624 Z" fill="#000000" fill-rule="evenodd" fill-opacity="1" /><path clip-path="url(#clip150)" d="M 0 0 M45.8602 828.155 L45.8602 822.299 L81.5082 822.299 L81.5082 828.155 L45.8602 828.155 M31.983 828.155 L31.983 822.299 L39.399 822.299 L39.399 828.155 L31.983 828.155 Z" fill="#000000" fill-rule="evenodd" fill-opacity="1" /><path clip-path="url(#clip150)" d="M 0 0 M63.2704 786.587 Q56.9047 786.587 53.4036 789.229 Q49.9024 791.839 49.9024 796.581 Q49.9024 801.292 53.4036 803.934 Q56.9047 806.543 63.2704 806.543 Q69.6043 806.543 73.1054 803.934 Q76.6066 801.292 76.6066 796.581 Q76.6066 791.839 73.1054 789.229 Q69.6043 786.587 63.2704 786.587 M77.084 780.731 Q86.187 780.731 90.6111 784.773 Q95.0671 788.815 95.0671 797.154 Q95.0671 800.241 94.5897 802.979 Q94.1441 805.716 93.1892 808.294 L87.4919 808.294 Q88.8924 805.716 89.5608 803.201 Q90.2292 800.687 90.2292 798.077 Q90.2292 792.316 87.2055 789.452 Q84.2136 786.587 78.1343 786.587 L75.2379 786.587 Q78.389 788.401 79.9486 791.234 Q81.5082 794.067 81.5082 798.013 Q81.5082 804.57 76.5111 808.58 Q71.514 812.591 63.2704 812.591 Q54.995 812.591 49.9979 808.58 Q45.0008 804.57 45.0008 798.013 Q45.0008 794.067 46.5604 791.234 Q48.12 788.401 51.2711 786.587 L45.8602 786.587 L45.8602 780.731 L77.084 780.731 Z" fill="#000000" fill-rule="evenodd" fill-opacity="1" /><path clip-path="url(#clip150)" d="M 0 0 M59.9921 739.035 L81.5082 739.035 L81.5082 744.892 L60.183 744.892 Q55.1223 744.892 52.6078 746.865 Q50.0934 748.838 50.0934 752.785 Q50.0934 757.528 53.1171 760.265 Q56.1408 763.002 61.3607 763.002 L81.5082 763.002 L81.5082 768.89 L31.983 768.89 L31.983 763.002 L51.3984 763.002 Q48.1837 760.901 46.5923 758.069 Q45.0008 755.204 45.0008 751.48 Q45.0008 745.337 48.8203 742.186 Q52.6078 739.035 59.9921 739.035 Z" fill="#000000" fill-rule="evenodd" fill-opacity="1" /><path clip-path="url(#clip150)" d="M 0 0 M35.7387 721.561 L45.8602 721.561 L45.8602 709.498 L50.4117 709.498 L50.4117 721.561 L69.7634 721.561 Q74.1239 721.561 75.3653 720.384 Q76.6066 719.174 76.6066 715.514 L76.6066 709.498 L81.5082 709.498 L81.5082 715.514 Q81.5082 722.293 78.9937 724.871 Q76.4474 727.45 69.7634 727.45 L50.4117 727.45 L50.4117 731.746 L45.8602 731.746 L45.8602 727.45 L35.7387 727.45 L35.7387 721.561 Z" fill="#000000" fill-rule="evenodd" fill-opacity="1" /><path clip-path="url(#clip150)" d="M 0 0 M32.0466 667.007 Q39.3672 671.272 46.5286 673.341 Q53.69 675.41 61.0424 675.41 Q68.3948 675.41 75.6199 673.341 Q82.8131 671.24 90.1019 667.007 L90.1019 672.1 Q82.6222 676.874 75.3971 679.261 Q68.172 681.616 61.0424 681.616 Q53.9446 681.616 46.7514 679.261 Q39.5582 676.906 32.0466 672.1 L32.0466 667.007 Z" fill="#000000" fill-rule="evenodd" fill-opacity="1" /><path clip-path="url(#clip150)" d="M 0 0 M95.0671 656.249 L45.8602 656.249 L45.8602 650.393 L68.0129 650.393 Q72.628 650.393 74.9833 648.197 Q77.3386 646 77.3386 641.703 Q77.3386 636.993 74.665 634.638 Q71.9914 632.25 66.6442 632.25 L45.8602 632.25 L45.8602 626.394 L73.2964 626.394 Q75.2061 626.394 76.1291 625.853 Q77.0203 625.28 77.0203 624.102 Q77.0203 623.816 76.8612 623.307 Q76.6702 622.797 76.2883 621.906 L80.9989 621.906 Q81.731 623.211 82.0811 624.389 Q82.4312 625.535 82.4312 626.649 Q82.4312 628.845 81.1899 630.15 Q79.9486 631.455 77.4023 631.932 Q79.9167 633.524 81.1899 635.847 Q82.4312 638.139 82.4312 641.258 Q82.4312 644.504 81.1899 646.796 Q79.9486 649.056 77.4659 650.393 L95.0671 650.393 L95.0671 656.249 Z" fill="#000000" fill-rule="evenodd" fill-opacity="1" /><path clip-path="url(#clip150)" d="M 0 0 M52.7033 586.417 Q48.7566 584.221 46.8787 581.166 Q45.0008 578.11 45.0008 573.972 Q45.0008 568.402 48.9157 565.379 Q52.7988 562.355 59.9921 562.355 L81.5082 562.355 L81.5082 568.243 L60.183 568.243 Q55.0586 568.243 52.576 570.057 Q50.0934 571.872 50.0934 575.596 Q50.0934 580.147 53.1171 582.789 Q56.1408 585.431 61.3607 585.431 L81.5082 585.431 L81.5082 591.319 L60.183 591.319 Q55.0268 591.319 52.576 593.133 Q50.0934 594.947 50.0934 598.735 Q50.0934 603.223 53.1489 605.865 Q56.1726 608.506 61.3607 608.506 L81.5082 608.506 L81.5082 614.395 L45.8602 614.395 L45.8602 608.506 L51.3984 608.506 Q48.12 606.501 46.5604 603.7 Q45.0008 600.899 45.0008 597.048 Q45.0008 593.165 46.9742 590.46 Q48.9476 587.722 52.7033 586.417 Z" fill="#000000" fill-rule="evenodd" fill-opacity="1" /><path clip-path="url(#clip150)" d="M 0 0 M32.0466 551.597 L32.0466 546.504 Q39.5582 541.73 46.7514 539.375 Q53.9446 536.988 61.0424 536.988 Q68.172 536.988 75.3971 539.375 Q82.6222 541.73 90.1019 546.504 L90.1019 551.597 Q82.8131 547.364 75.6199 545.295 Q68.3948 543.194 61.0424 543.194 Q53.69 543.194 46.5286 545.295 Q39.3672 547.364 32.0466 551.597 Z" fill="#000000" fill-rule="evenodd" fill-opacity="1" /><polyline clip-path="url(#clip152)" style="stroke:#009af9; stroke-width:8; stroke-opacity:1; fill:none" points="
  239.629,1368.29 241.612,1368.09 243.594,1367.81 245.577,1367.44 247.559,1366.92 249.542,1366.2 251.524,1365.22 253.507,1363.87 255.489,1362 257.472,1359.44 
  259.454,1355.92 261.437,1351.07 263.419,1344.4 265.402,1335.23 267.384,1323.02 269.367,1303.74 271.349,1281.88 273.332,1260.54 275.314,1239.59 277.296,1219.03 
  279.279,1198.85 281.261,1179.04 283.244,1159.6 285.226,1140.52 287.209,1121.79 289.191,1103.41 291.174,1085.37 293.156,1067.66 295.139,1050.28 297.121,1033.22 
  299.104,1016.48 301.086,1000.04 303.069,983.912 305.051,968.081 307.034,952.542 309.016,937.291 310.999,922.322 312.981,907.63 314.964,893.21 316.946,879.057 
  318.928,865.166 320.911,851.531 322.893,838.149 324.876,825.015 326.858,812.123 328.841,799.47 330.823,787.051 332.806,774.861 334.788,762.897 336.771,751.154 
  338.753,739.629 340.736,728.316 342.718,717.213 344.701,706.316 346.683,695.62 348.666,685.122 350.648,674.818 352.631,664.705 354.613,654.779 356.596,645.037 
  358.578,635.475 360.56,626.09 362.543,616.879 364.525,607.838 366.508,598.964 368.49,590.254 370.473,581.705 372.455,573.315 374.438,565.079 376.42,556.996 
  378.403,549.062 380.385,541.275 382.368,533.632 384.35,526.13 386.333,518.768 388.315,511.541 390.298,504.449 392.28,497.487 394.263,490.655 396.245,483.949 
  398.227,477.367 400.21,470.907 402.192,464.566 404.175,458.343 406.157,452.235 408.14,446.24 410.122,440.356 412.105,434.58 414.087,428.911 416.07,423.348 
  418.052,417.887 420.035,412.526 422.017,407.265 424,402.101 425.982,397.033 427.965,392.058 429.947,387.175 431.93,382.383 433.912,377.679 435.895,373.062 
  437.877,368.531 439.859,364.084 441.842,359.719 443.824,355.435 445.807,351.231 447.789,347.104 449.772,343.054 451.754,339.078 453.737,335.177 455.719,331.347 
  457.702,327.589 459.684,323.9 461.667,320.279 463.649,316.725 465.632,313.237 467.614,309.814 469.597,306.453 471.579,303.155 473.562,299.918 475.544,296.74 
  477.527,293.621 479.509,290.56 481.491,287.555 483.474,284.605 485.456,281.71 487.439,278.869 489.421,276.08 491.404,273.343 493.386,270.656 495.369,268.019 
  497.351,265.431 499.334,262.891 501.316,260.398 503.299,257.951 505.281,255.55 507.264,253.193 509.246,250.88 511.229,248.61 513.211,246.381 515.194,244.195 
  517.176,242.048 519.158,239.942 521.141,237.874 523.123,235.845 525.106,233.853 527.088,231.899 529.071,229.98 531.053,228.097 533.036,226.248 535.018,224.434 
  537.001,222.653 538.983,220.905 540.966,219.19 542.948,217.505 544.931,215.852 546.913,214.23 548.896,212.637 550.878,211.073 552.861,209.539 554.843,208.032 
  556.826,206.554 558.808,205.102 560.79,203.678 562.773,202.28 564.755,200.908 566.738,199.561 568.72,198.239 570.703,196.942 572.685,195.669 574.668,194.419 
  576.65,193.193 578.633,191.99 580.615,190.809 582.598,189.65 584.58,188.512 586.563,187.396 588.545,186.3 590.528,185.225 592.51,184.169 594.493,183.134 
  596.475,182.117 598.458,181.12 600.44,180.14 602.422,179.179 604.405,178.236 606.387,177.31 608.37,176.402 610.352,175.51 612.335,174.634 614.317,173.775 
  616.3,172.932 618.282,172.104 620.265,171.291 622.247,170.493 624.23,169.71 626.212,168.941 628.195,168.186 630.177,167.445 632.16,166.717 634.142,166.003 
  636.125,165.302 638.107,164.614 640.089,163.939 642.072,163.276 644.054,162.625 646.037,161.986 648.019,161.36 650.002,160.744 651.984,160.141 653.967,159.548 
  655.949,158.967 657.932,158.396 659.914,157.836 661.897,157.287 663.879,156.748 665.862,156.219 667.844,155.699 669.827,155.19 671.809,154.69 673.792,154.199 
  675.774,153.717 677.757,153.245 679.739,152.781 681.721,152.326 683.704,151.879 685.686,151.441 687.669,151.011 689.651,150.589 691.634,150.174 693.616,149.768 
  695.599,149.369 697.581,148.977 699.564,148.592 701.546,148.215 703.529,147.845 705.511,147.481 707.494,147.124 709.476,146.773 711.459,146.429 713.441,146.092 
  715.424,145.76 717.406,145.434 719.389,145.114 721.371,144.8 723.353,144.492 725.336,144.189 727.318,143.892 729.301,143.6 731.283,143.314 733.266,143.032 
  735.248,142.756 737.231,142.485 739.213,142.219 741.196,141.958 743.178,141.702 745.161,141.45 747.143,141.204 749.126,140.961 751.108,140.724 753.091,140.491 
  755.073,140.262 757.056,140.037 759.038,139.817 761.021,139.601 763.003,139.389 764.985,139.18 766.968,138.976 768.95,138.776 770.933,138.579 772.915,138.386 
  774.898,138.197 776.88,138.012 778.863,137.829 780.845,137.651 782.828,137.475 784.81,137.303 786.793,137.135 788.775,136.969 790.758,136.807 792.74,136.647 
  794.723,136.491 796.705,136.337 798.688,136.186 800.67,136.039 802.652,135.893 804.635,135.751 806.617,135.611 808.6,135.474 810.582,135.339 812.565,135.207 
  814.547,135.077 816.53,134.95 818.512,134.824 820.495,134.701 822.477,134.58 824.46,134.462 826.442,134.345 828.425,134.231 830.407,134.118 832.39,134.007 
  834.372,133.899 836.355,133.792 838.337,133.687 840.32,133.584 842.302,133.483 844.284,133.384 846.267,133.287 848.249,133.191 850.232,133.097 852.214,133.005 
  854.197,132.915 856.179,132.826 858.162,132.739 860.144,132.653 862.127,132.569 864.109,132.487 866.092,132.406 868.074,132.327 870.057,132.249 872.039,132.173 
  874.022,132.098 876.004,132.024 877.987,131.952 879.969,131.882 881.952,131.812 883.934,131.744 885.916,131.678 887.899,131.612 889.881,131.548 891.864,131.485 
  893.846,131.424 895.829,131.363 897.811,131.304 899.794,131.246 901.776,131.189 903.759,131.133 905.741,131.078 907.724,131.024 909.706,130.972 911.689,130.92 
  913.671,130.869 915.654,130.82 917.636,130.771 919.619,130.723 921.601,130.676 923.583,130.63 925.566,130.585 927.548,130.54 929.531,130.497 931.513,130.454 
  933.496,130.412 935.478,130.371 937.461,130.331 939.443,130.291 941.426,130.252 943.408,130.214 945.391,130.176 947.373,130.139 949.356,130.103 951.338,130.067 
  953.321,130.032 955.303,129.997 957.286,129.963 959.268,129.93 961.251,129.897 963.233,129.864 965.215,129.832 967.198,129.801 969.18,129.77 971.163,129.74 
  973.145,129.71 975.128,129.681 977.11,129.652 979.093,129.624 981.075,129.596 983.058,129.569 985.04,129.542 987.023,129.516 989.005,129.49 990.988,129.465 
  992.97,129.44 994.953,129.416 996.935,129.392 998.918,129.369 1000.9,129.345 1002.88,129.323 1004.86,129.301 1006.85,129.279 1008.83,129.258 1010.81,129.237 
  1012.79,129.216 1014.78,129.196 1016.76,129.177 1018.74,129.157 1020.72,129.138 1022.71,129.12 1024.69,129.102 1026.67,129.084 1028.65,129.067 1030.64,129.05 
  1032.62,129.033 1034.6,129.016 1036.58,129 1038.57,128.985 1040.55,128.969 1042.53,128.954 1044.51,128.94 1046.5,128.925 1048.48,128.911 1050.46,128.897 
  1052.44,128.884 1054.43,128.87 1056.41,128.857 1058.39,128.845 1060.37,128.832 1062.36,128.82 1064.34,128.808 1066.32,128.796 1068.3,128.785 1070.29,128.774 
  1072.27,128.763 1074.25,128.752 1076.23,128.741 1078.22,128.731 1080.2,128.721 1082.18,128.711 1084.16,128.701 1086.15,128.691 1088.13,128.682 1090.11,128.673 
  1092.09,128.664 1094.08,128.655 1096.06,128.646 1098.04,128.637 1100.02,128.629 1102.01,128.62 1103.99,128.612 1105.97,128.604 1107.95,128.596 1109.94,128.588 
  1111.92,128.58 1113.9,128.572 1115.88,128.564 1117.87,128.556 1119.85,128.549 1121.83,128.541 1123.81,128.534 1125.8,128.527 1127.78,128.52 1129.76,128.513 
  1131.74,128.506 1133.73,128.499 1135.71,128.492 1137.69,128.486 1139.67,128.479 1141.66,128.473 1143.64,128.467 1145.62,128.461 1147.6,128.455 1149.59,128.449 
  1151.57,128.443 1153.55,128.437 1155.53,128.431 1157.52,128.426 1159.5,128.42 1161.48,128.415 1163.46,128.41 1165.45,128.405 1167.43,128.4 1169.41,128.395 
  1171.39,128.39 1173.38,128.385 1175.36,128.38 1177.34,128.376 1179.32,128.371 1181.31,128.367 1183.29,128.363 1185.27,128.359 1187.25,128.355 1189.24,128.351 
  1191.22,128.347 1193.2,128.343 1195.18,128.339 1197.17,128.335 1199.15,128.332 1201.13,128.328 1203.11,128.325 1205.1,128.322 1207.08,128.318 1209.06,128.315 
  1211.04,128.312 1213.02,128.309 1215.01,128.306 1216.99,128.303 1218.97,128.301 1220.95,128.298 1222.94,128.295 1224.92,128.293 1226.9,128.29 1228.88,128.288 
  1230.87,128.286 1232.85,128.283 1234.83,128.281 1236.81,128.279 1238.8,128.277 1240.78,128.275 1242.76,128.273 1244.74,128.271 1246.73,128.269 1248.71,128.267 
  1250.69,128.265 1252.67,128.263 1254.66,128.262 1256.64,128.26 1258.62,128.258 1260.6,128.257 1262.59,128.255 1264.57,128.254 1266.55,128.252 1268.53,128.251 
  1270.52,128.249 1272.5,128.248 1274.48,128.246 1276.46,128.245 1278.45,128.244 1280.43,128.242 1282.41,128.241 1284.39,128.24 1286.38,128.239 1288.36,128.237 
  1290.34,128.236 1292.32,128.235 1294.31,128.233 1296.29,128.232 1298.27,128.231 1300.25,128.23 1302.24,128.228 1304.22,128.227 1306.2,128.226 1308.18,128.224 
  1310.17,128.223 1312.15,128.222 1314.13,128.22 1316.11,128.219 1318.1,128.218 1320.08,128.216 1322.06,128.215 1324.04,128.214 1326.03,128.213 1328.01,128.211 
  1329.99,128.21 1331.97,128.209 1333.96,128.208 1335.94,128.207 1337.92,128.205 1339.9,128.204 1341.89,128.203 1343.87,128.202 1345.85,128.201 1347.83,128.2 
  1349.82,128.199 1351.8,128.197 1353.78,128.196 1355.76,128.195 1357.75,128.194 1359.73,128.193 1361.71,128.192 1363.69,128.191 1365.68,128.19 1367.66,128.189 
  1369.64,128.188 1371.62,128.188 1373.61,128.187 1375.59,128.186 1377.57,128.185 1379.55,128.184 1381.54,128.183 1383.52,128.183 1385.5,128.182 1387.48,128.181 
  1389.47,128.18 1391.45,128.18 1393.43,128.179 1395.41,128.178 1397.4,128.177 1399.38,128.177 1401.36,128.176 1403.34,128.176 1405.33,128.175 1407.31,128.174 
  1409.29,128.174 1411.27,128.173 1413.25,128.173 1415.24,128.172 1417.22,128.172 1419.2,128.171 1421.18,128.171 1423.17,128.17 1425.15,128.17 1427.13,128.17 
  1429.11,128.169 1431.1,128.169 1433.08,128.169 1435.06,128.168 1437.04,128.168 1439.03,128.168 1441.01,128.167 1442.99,128.167 1444.97,128.167 1446.96,128.167 
  1448.94,128.166 1450.92,128.166 1452.9,128.166 1454.89,128.166 1456.87,128.166 1458.85,128.166 1460.83,128.165 1462.82,128.165 1464.8,128.165 1466.78,128.165 
  1468.76,128.165 1470.75,128.165 1472.73,128.165 1474.71,128.165 1476.69,128.165 1478.68,128.165 1480.66,128.165 1482.64,128.165 1484.62,128.165 1486.61,128.165 
  1488.59,128.165 1490.57,128.165 1492.55,128.165 1494.54,128.165 1496.52,128.165 1498.5,128.165 1500.48,128.165 1502.47,128.165 1504.45,128.165 1506.43,128.165 
  1508.41,128.165 1510.4,128.165 1512.38,128.165 1514.36,128.165 1516.34,128.165 1518.33,128.165 1520.31,128.165 1522.29,128.165 1524.27,128.165 1526.26,128.165 
  1528.24,128.165 1530.22,128.165 1532.2,128.165 1534.19,128.165 1536.17,128.165 1538.15,128.164 1540.13,128.164 1542.12,128.164 1544.1,128.164 1546.08,128.164 
  1548.06,128.164 1550.05,128.164 1552.03,128.164 1554.01,128.163 1555.99,128.163 1557.98,128.163 1559.96,128.163 1561.94,128.162 1563.92,128.162 1565.91,128.162 
  1567.89,128.162 1569.87,128.162 1571.85,128.161 1573.84,128.161 1575.82,128.161 1577.8,128.161 1579.78,128.16 1581.77,128.16 1583.75,128.16 1585.73,128.16 
  1587.71,128.159 1589.7,128.159 1591.68,128.159 1593.66,128.159 1595.64,128.158 1597.63,128.158 1599.61,128.158 1601.59,128.158 1603.57,128.157 1605.56,128.157 
  1607.54,128.157 1609.52,128.157 1611.5,128.156 1613.48,128.156 1615.47,128.156 1617.45,128.156 1619.43,128.155 1621.41,128.155 1623.4,128.155 1625.38,128.155 
  1627.36,128.154 1629.34,128.154 1631.33,128.154 1633.31,128.154 1635.29,128.154 1637.27,128.153 1639.26,128.153 1641.24,128.153 1643.22,128.153 1645.2,128.153 
  1647.19,128.152 1649.17,128.152 1651.15,128.152 1653.13,128.152 1655.12,128.152 1657.1,128.152 1659.08,128.152 1661.06,128.151 1663.05,128.151 1665.03,128.151 
  1667.01,128.151 1668.99,128.151 1670.98,128.151 1672.96,128.151 1674.94,128.151 1676.92,128.15 1678.91,128.15 1680.89,128.15 1682.87,128.15 1684.85,128.15 
  1686.84,128.15 1688.82,128.15 1690.8,128.15 1692.78,128.15 1694.77,128.15 1696.75,128.15 1698.73,128.15 1700.71,128.15 1702.7,128.15 1704.68,128.15 
  1706.66,128.15 1708.64,128.15 1710.63,128.15 1712.61,128.15 1714.59,128.15 1716.57,128.15 1718.56,128.15 1720.54,128.15 1722.52,128.15 1724.5,128.15 
  1726.49,128.15 1728.47,128.15 1730.45,128.15 1732.43,128.15 1734.42,128.15 1736.4,128.15 1738.38,128.15 1740.36,128.15 1742.35,128.15 1744.33,128.15 
  1746.31,128.15 1748.29,128.151 1750.28,128.151 1752.26,128.151 1754.24,128.151 1756.22,128.151 1758.21,128.151 1760.19,128.151 1762.17,128.151 1764.15,128.151 
  1766.14,128.152 1768.12,128.152 1770.1,128.152 1772.08,128.152 1774.07,128.152 1776.05,128.152 1778.03,128.152 1780.01,128.153 1782,128.153 1783.98,128.153 
  1785.96,128.153 1787.94,128.153 1789.93,128.153 1791.91,128.153 1793.89,128.154 1795.87,128.154 1797.86,128.154 1799.84,128.154 1801.82,128.154 1803.8,128.154 
  1805.79,128.154 1807.77,128.155 1809.75,128.155 1811.73,128.155 1813.71,128.155 1815.7,128.155 1817.68,128.155 1819.66,128.155 1821.64,128.156 1823.63,128.156 
  1825.61,128.156 1827.59,128.156 1829.57,128.156 1831.56,128.156 1833.54,128.156 1835.52,128.156 1837.5,128.156 1839.49,128.156 1841.47,128.157 1843.45,128.157 
  1845.43,128.157 1847.42,128.157 1849.4,128.157 1851.38,128.157 1853.36,128.157 1855.35,128.157 1857.33,128.157 1859.31,128.157 1861.29,128.157 1863.28,128.157 
  1865.26,128.157 1867.24,128.157 1869.22,128.157 1871.21,128.157 1873.19,128.157 1875.17,128.157 1877.15,128.156 1879.14,128.156 1881.12,128.156 1883.1,128.156 
  1885.08,128.156 1887.07,128.156 1889.05,128.156 1891.03,128.156 1893.01,128.156 1895,128.156 1896.98,128.155 1898.96,128.155 1900.94,128.155 1902.93,128.155 
  1904.91,128.155 1906.89,128.155 1908.87,128.155 1910.86,128.155 1912.84,128.155 1914.82,128.154 1916.8,128.154 1918.79,128.154 1920.77,128.154 1922.75,128.154 
  1924.73,128.154 1926.72,128.154 1928.7,128.154 1930.68,128.153 1932.66,128.153 1934.65,128.153 1936.63,128.153 1938.61,128.153 1940.59,128.153 1942.58,128.153 
  1944.56,128.153 1946.54,128.152 1948.52,128.152 1950.51,128.152 1952.49,128.152 1954.47,128.152 1956.45,128.152 1958.44,128.152 1960.42,128.152 1962.4,128.152 
  1964.38,128.152 1966.37,128.151 1968.35,128.151 1970.33,128.151 1972.31,128.151 1974.3,128.151 1976.28,128.151 1978.26,128.151 1980.24,128.151 1982.23,128.151 
  1984.21,128.151 1986.19,128.151 1988.17,128.15 1990.16,128.15 1992.14,128.15 1994.12,128.15 1996.1,128.15 1998.09,128.15 2000.07,128.15 2002.05,128.15 
  2004.03,128.15 2006.02,128.15 2008,128.15 2009.98,128.15 2011.96,128.15 2013.95,128.15 2015.93,128.15 2017.91,128.15 2019.89,128.15 2021.87,128.15 
  2023.86,128.15 2025.84,128.15 2027.82,128.15 2029.8,128.15 2031.79,128.15 2033.77,128.15 2035.75,128.15 2037.73,128.15 2039.72,128.15 2041.7,128.15 
  2043.68,128.15 2045.66,128.15 2047.65,128.15 2049.63,128.15 2051.61,128.15 2053.59,128.15 2055.58,128.15 2057.56,128.15 2059.54,128.15 2061.52,128.15 
  2063.51,128.15 2065.49,128.15 2067.47,128.15 2069.45,128.15 2071.44,128.15 2073.42,128.15 2075.4,128.15 2077.38,128.15 2079.37,128.15 2081.35,128.15 
  2083.33,128.151 2085.31,128.151 2087.3,128.151 2089.28,128.151 2091.26,128.151 2093.24,128.151 2095.23,128.151 2097.21,128.151 2099.19,128.151 2101.17,128.151 
  2103.16,128.151 2105.14,128.151 2107.12,128.151 2109.1,128.152 2111.09,128.152 2113.07,128.152 2115.05,128.152 2117.03,128.152 2119.02,128.152 2121,128.152 
  2122.98,128.152 2124.96,128.152 2126.95,128.152 2128.93,128.153 2130.91,128.153 2132.89,128.153 2134.88,128.153 2136.86,128.153 2138.84,128.153 2140.82,128.153 
  2142.81,128.153 2144.79,128.153 2146.77,128.153 2148.75,128.153 2150.74,128.154 2152.72,128.154 2154.7,128.154 2156.68,128.154 2158.67,128.154 2160.65,128.154 
  2162.63,128.154 2164.61,128.154 2166.6,128.154 2168.58,128.154 2170.56,128.154 2172.54,128.154 2174.53,128.155 2176.51,128.155 2178.49,128.155 2180.47,128.155 
  2182.46,128.155 2184.44,128.155 2186.42,128.155 2188.4,128.155 2190.39,128.155 2192.37,128.155 2194.35,128.155 2196.33,128.155 2198.32,128.155 2200.3,128.155 
  2202.28,128.155 2204.26,128.155 2206.25,128.155 2208.23,128.155 2210.21,128.155 2212.19,128.155 2214.18,128.155 2216.16,128.155 2218.14,128.155 2220.12,128.155 
  
  "/>
<polyline clip-path="url(#clip152)" style="stroke:#e26f46; stroke-width:8; stroke-opacity:1; fill:none" points="
  239.629,1368.29 241.612,1368.09 243.594,1367.83 245.577,1367.46 247.559,1366.96 249.542,1366.28 251.524,1365.34 253.507,1364.07 255.489,1362.32 257.472,1359.93 
  259.454,1356.66 261.437,1352.19 263.419,1346.07 265.402,1337.7 267.384,1326.26 269.367,1310.57 271.349,1289.17 273.332,1266.64 275.314,1244.6 277.296,1223.02 
  279.279,1201.89 281.261,1181.22 283.244,1160.99 285.226,1141.19 287.209,1121.81 289.191,1102.84 291.174,1084.28 293.156,1066.11 295.139,1048.33 297.121,1030.93 
  299.104,1013.9 301.086,997.227 303.069,980.913 305.051,964.946 307.034,949.318 309.016,934.024 310.999,919.055 312.981,904.405 314.964,890.067 316.946,876.034 
  318.928,862.299 320.911,848.858 322.893,835.702 324.876,822.826 326.858,810.225 328.841,797.891 330.823,785.821 332.806,774.007 334.788,762.444 336.771,751.128 
  338.753,740.053 340.736,729.214 342.718,718.605 344.701,708.223 346.683,698.061 348.666,688.116 350.648,678.383 352.631,668.857 354.613,659.533 356.596,650.409 
  358.578,641.478 360.56,632.737 362.543,624.183 364.525,615.81 366.508,607.616 368.49,599.596 370.473,591.746 372.455,584.064 374.438,576.546 376.42,569.187 
  378.403,561.986 380.385,554.938 382.368,548.04 384.35,541.288 386.333,534.681 388.315,528.215 390.298,521.886 392.28,515.691 394.263,509.629 396.245,503.696 
  398.227,497.889 400.21,492.205 402.192,486.642 404.175,481.198 406.157,475.869 408.14,470.654 410.122,465.55 412.105,460.554 414.087,455.665 416.07,450.879 
  418.052,446.196 420.035,441.613 422.017,437.127 424,432.737 425.982,428.441 427.965,424.236 429.947,420.12 431.93,416.093 433.912,412.151 435.895,408.293 
  437.877,404.518 439.859,400.823 441.842,397.206 443.824,393.666 445.807,390.202 447.789,386.811 449.772,383.493 451.754,380.245 453.737,377.066 455.719,373.954 
  457.702,370.908 459.684,367.928 461.667,365.01 463.649,362.155 465.632,359.36 467.614,356.625 469.597,353.948 471.579,351.329 473.562,348.765 475.544,346.256 
  477.527,343.8 479.509,341.397 481.491,339.045 483.474,336.744 485.456,334.491 487.439,332.287 489.421,330.129 491.404,328.018 493.386,325.952 495.369,323.929 
  497.351,321.95 499.334,320.012 501.316,318.116 503.299,316.261 505.281,314.444 507.264,312.666 509.246,310.926 511.229,309.223 513.211,307.556 515.194,305.924 
  517.176,304.327 519.158,302.764 521.141,301.233 523.123,299.736 525.106,298.27 527.088,296.835 529.071,295.431 531.053,294.057 533.036,292.712 535.018,291.396 
  537.001,290.108 538.983,288.848 540.966,287.615 542.948,286.408 544.931,285.227 546.913,284.071 548.896,282.94 550.878,281.833 552.861,280.749 554.843,279.689 
  556.826,278.652 558.808,277.636 560.79,276.643 562.773,275.67 564.755,274.718 566.738,273.787 568.72,272.875 570.703,271.983 572.685,271.109 574.668,270.254 
  576.65,269.417 578.633,268.598 580.615,267.796 582.598,267.011 584.58,266.243 586.563,265.49 588.545,264.754 590.528,264.033 592.51,263.327 594.493,262.636 
  596.475,261.96 598.458,261.299 600.44,260.651 602.422,260.018 604.405,259.397 606.387,258.791 608.37,258.197 610.352,257.616 612.335,257.047 614.317,256.49 
  616.3,255.946 618.282,255.413 620.265,254.892 622.247,254.382 624.23,253.883 626.212,253.394 628.195,252.916 630.177,252.449 632.16,251.991 634.142,251.543 
  636.125,251.105 638.107,250.676 640.089,250.257 642.072,249.846 644.054,249.444 646.037,249.05 648.019,248.665 650.002,248.288 651.984,247.919 653.967,247.558 
  655.949,247.205 657.932,246.859 659.914,246.52 661.897,246.188 663.879,245.863 665.862,245.544 667.844,245.233 669.827,244.928 671.809,244.629 673.792,244.337 
  675.774,244.05 677.757,243.77 679.739,243.496 681.721,243.227 683.704,242.965 685.686,242.707 687.669,242.456 689.651,242.21 691.634,241.969 693.616,241.733 
  695.599,241.502 697.581,241.277 699.564,241.056 701.546,240.84 703.529,240.628 705.511,240.422 707.494,240.219 709.476,240.022 711.459,239.828 713.441,239.639 
  715.424,239.454 717.406,239.272 719.389,239.095 721.371,238.922 723.353,238.752 725.336,238.586 727.318,238.424 729.301,238.265 731.283,238.109 733.266,237.957 
  735.248,237.808 737.231,237.663 739.213,237.52 741.196,237.38 743.178,237.244 745.161,237.11 747.143,236.979 749.126,236.851 751.108,236.725 753.091,236.602 
  755.073,236.481 757.056,236.363 759.038,236.248 761.021,236.134 763.003,236.023 764.985,235.914 766.968,235.808 768.95,235.703 770.933,235.601 772.915,235.501 
  774.898,235.403 776.88,235.307 778.863,235.213 780.845,235.121 782.828,235.031 784.81,234.943 786.793,234.857 788.775,234.772 790.758,234.69 792.74,234.609 
  794.723,234.53 796.705,234.453 798.688,234.377 800.67,234.303 802.652,234.231 804.635,234.16 806.617,234.091 808.6,234.024 810.582,233.957 812.565,233.893 
  814.547,233.83 816.53,233.768 818.512,233.707 820.495,233.648 822.477,233.591 824.46,233.534 826.442,233.479 828.425,233.425 830.407,233.372 832.39,233.321 
  834.372,233.27 836.355,233.221 838.337,233.173 840.32,233.126 842.302,233.08 844.284,233.034 846.267,232.99 848.249,232.947 850.232,232.905 852.214,232.863 
  854.197,232.823 856.179,232.783 858.162,232.744 860.144,232.706 862.127,232.669 864.109,232.632 866.092,232.596 868.074,232.561 870.057,232.526 872.039,232.492 
  874.022,232.459 876.004,232.426 877.987,232.394 879.969,232.362 881.952,232.332 883.934,232.301 885.916,232.272 887.899,232.243 889.881,232.214 891.864,232.186 
  893.846,232.159 895.829,232.132 897.811,232.106 899.794,232.08 901.776,232.055 903.759,232.031 905.741,232.006 907.724,231.983 909.706,231.96 911.689,231.937 
  913.671,231.915 915.654,231.894 917.636,231.873 919.619,231.852 921.601,231.832 923.583,231.812 925.566,231.793 927.548,231.775 929.531,231.756 931.513,231.738 
  933.496,231.721 935.478,231.704 937.461,231.687 939.443,231.671 941.426,231.655 943.408,231.64 945.391,231.624 947.373,231.61 949.356,231.595 951.338,231.581 
  953.321,231.568 955.303,231.554 957.286,231.541 959.268,231.528 961.251,231.516 963.233,231.504 965.215,231.492 967.198,231.48 969.18,231.469 971.163,231.458 
  973.145,231.447 975.128,231.437 977.11,231.426 979.093,231.416 981.075,231.407 983.058,231.397 985.04,231.387 987.023,231.378 989.005,231.369 990.988,231.36 
  992.97,231.351 994.953,231.343 996.935,231.334 998.918,231.326 1000.9,231.318 1002.88,231.31 1004.86,231.302 1006.85,231.294 1008.83,231.286 1010.81,231.279 
  1012.79,231.271 1014.78,231.264 1016.76,231.256 1018.74,231.249 1020.72,231.242 1022.71,231.235 1024.69,231.229 1026.67,231.222 1028.65,231.215 1030.64,231.209 
  1032.62,231.202 1034.6,231.196 1036.58,231.19 1038.57,231.184 1040.55,231.178 1042.53,231.173 1044.51,231.167 1046.5,231.161 1048.48,231.156 1050.46,231.151 
  1052.44,231.146 1054.43,231.141 1056.41,231.136 1058.39,231.131 1060.37,231.126 1062.36,231.122 1064.34,231.117 1066.32,231.113 1068.3,231.109 1070.29,231.104 
  1072.27,231.1 1074.25,231.096 1076.23,231.092 1078.22,231.089 1080.2,231.085 1082.18,231.082 1084.16,231.078 1086.15,231.075 1088.13,231.071 1090.11,231.068 
  1092.09,231.065 1094.08,231.062 1096.06,231.059 1098.04,231.057 1100.02,231.054 1102.01,231.051 1103.99,231.049 1105.97,231.046 1107.95,231.044 1109.94,231.041 
  1111.92,231.039 1113.9,231.037 1115.88,231.035 1117.87,231.033 1119.85,231.031 1121.83,231.029 1123.81,231.027 1125.8,231.025 1127.78,231.023 1129.76,231.022 
  1131.74,231.02 1133.73,231.018 1135.71,231.017 1137.69,231.015 1139.67,231.014 1141.66,231.012 1143.64,231.011 1145.62,231.009 1147.6,231.008 1149.59,231.007 
  1151.57,231.005 1153.55,231.004 1155.53,231.003 1157.52,231.002 1159.5,231 1161.48,230.999 1163.46,230.998 1165.45,230.997 1167.43,230.995 1169.41,230.994 
  1171.39,230.993 1173.38,230.992 1175.36,230.99 1177.34,230.989 1179.32,230.988 1181.31,230.987 1183.29,230.985 1185.27,230.984 1187.25,230.983 1189.24,230.981 
  1191.22,230.98 1193.2,230.979 1195.18,230.978 1197.17,230.976 1199.15,230.975 1201.13,230.974 1203.11,230.973 1205.1,230.972 1207.08,230.97 1209.06,230.969 
  1211.04,230.968 1213.02,230.967 1215.01,230.966 1216.99,230.965 1218.97,230.964 1220.95,230.963 1222.94,230.962 1224.92,230.961 1226.9,230.96 1228.88,230.959 
  1230.87,230.958 1232.85,230.957 1234.83,230.956 1236.81,230.955 1238.8,230.955 1240.78,230.954 1242.76,230.953 1244.74,230.952 1246.73,230.951 1248.71,230.951 
  1250.69,230.95 1252.67,230.949 1254.66,230.949 1256.64,230.948 1258.62,230.947 1260.6,230.947 1262.59,230.946 1264.57,230.946 1266.55,230.945 1268.53,230.944 
  1270.52,230.944 1272.5,230.943 1274.48,230.943 1276.46,230.943 1278.45,230.942 1280.43,230.942 1282.41,230.941 1284.39,230.941 1286.38,230.941 1288.36,230.94 
  1290.34,230.94 1292.32,230.94 1294.31,230.94 1296.29,230.939 1298.27,230.939 1300.25,230.939 1302.24,230.939 1304.22,230.938 1306.2,230.938 1308.18,230.938 
  1310.17,230.938 1312.15,230.938 1314.13,230.938 1316.11,230.938 1318.1,230.938 1320.08,230.938 1322.06,230.938 1324.04,230.937 1326.03,230.937 1328.01,230.937 
  1329.99,230.937 1331.97,230.937 1333.96,230.937 1335.94,230.937 1337.92,230.937 1339.9,230.937 1341.89,230.937 1343.87,230.938 1345.85,230.938 1347.83,230.938 
  1349.82,230.938 1351.8,230.938 1353.78,230.938 1355.76,230.938 1357.75,230.938 1359.73,230.938 1361.71,230.938 1363.69,230.938 1365.68,230.938 1367.66,230.938 
  1369.64,230.938 1371.62,230.938 1373.61,230.938 1375.59,230.938 1377.57,230.938 1379.55,230.938 1381.54,230.937 1383.52,230.937 1385.5,230.937 1387.48,230.937 
  1389.47,230.937 1391.45,230.937 1393.43,230.937 1395.41,230.936 1397.4,230.936 1399.38,230.936 1401.36,230.936 1403.34,230.935 1405.33,230.935 1407.31,230.935 
  1409.29,230.935 1411.27,230.934 1413.25,230.934 1415.24,230.934 1417.22,230.934 1419.2,230.933 1421.18,230.933 1423.17,230.933 1425.15,230.933 1427.13,230.932 
  1429.11,230.932 1431.1,230.932 1433.08,230.932 1435.06,230.931 1437.04,230.931 1439.03,230.931 1441.01,230.931 1442.99,230.93 1444.97,230.93 1446.96,230.93 
  1448.94,230.93 1450.92,230.929 1452.9,230.929 1454.89,230.929 1456.87,230.929 1458.85,230.929 1460.83,230.928 1462.82,230.928 1464.8,230.928 1466.78,230.928 
  1468.76,230.928 1470.75,230.927 1472.73,230.927 1474.71,230.927 1476.69,230.927 1478.68,230.927 1480.66,230.926 1482.64,230.926 1484.62,230.926 1486.61,230.926 
  1488.59,230.926 1490.57,230.926 1492.55,230.926 1494.54,230.925 1496.52,230.925 1498.5,230.925 1500.48,230.925 1502.47,230.925 1504.45,230.925 1506.43,230.925 
  1508.41,230.925 1510.4,230.925 1512.38,230.925 1514.36,230.925 1516.34,230.925 1518.33,230.925 1520.31,230.924 1522.29,230.924 1524.27,230.924 1526.26,230.924 
  1528.24,230.924 1530.22,230.924 1532.2,230.924 1534.19,230.924 1536.17,230.924 1538.15,230.924 1540.13,230.925 1542.12,230.925 1544.1,230.925 1546.08,230.925 
  1548.06,230.925 1550.05,230.925 1552.03,230.925 1554.01,230.925 1555.99,230.925 1557.98,230.925 1559.96,230.925 1561.94,230.925 1563.92,230.925 1565.91,230.926 
  1567.89,230.926 1569.87,230.926 1571.85,230.926 1573.84,230.926 1575.82,230.926 1577.8,230.926 1579.78,230.926 1581.77,230.927 1583.75,230.927 1585.73,230.927 
  1587.71,230.927 1589.7,230.927 1591.68,230.927 1593.66,230.927 1595.64,230.928 1597.63,230.928 1599.61,230.928 1601.59,230.928 1603.57,230.928 1605.56,230.928 
  1607.54,230.928 1609.52,230.929 1611.5,230.929 1613.48,230.929 1615.47,230.929 1617.45,230.929 1619.43,230.929 1621.41,230.93 1623.4,230.93 1625.38,230.93 
  1627.36,230.93 1629.34,230.93 1631.33,230.93 1633.31,230.93 1635.29,230.93 1637.27,230.931 1639.26,230.931 1641.24,230.931 1643.22,230.931 1645.2,230.931 
  1647.19,230.931 1649.17,230.931 1651.15,230.931 1653.13,230.931 1655.12,230.931 1657.1,230.931 1659.08,230.931 1661.06,230.931 1663.05,230.931 1665.03,230.931 
  1667.01,230.931 1668.99,230.931 1670.98,230.931 1672.96,230.931 1674.94,230.931 1676.92,230.931 1678.91,230.931 1680.89,230.931 1682.87,230.931 1684.85,230.93 
  1686.84,230.93 1688.82,230.93 1690.8,230.93 1692.78,230.93 1694.77,230.929 1696.75,230.929 1698.73,230.929 1700.71,230.929 1702.7,230.929 1704.68,230.928 
  1706.66,230.928 1708.64,230.928 1710.63,230.928 1712.61,230.927 1714.59,230.927 1716.57,230.927 1718.56,230.927 1720.54,230.926 1722.52,230.926 1724.5,230.926 
  1726.49,230.926 1728.47,230.925 1730.45,230.925 1732.43,230.925 1734.42,230.924 1736.4,230.924 1738.38,230.924 1740.36,230.924 1742.35,230.923 1744.33,230.923 
  1746.31,230.923 1748.29,230.922 1750.28,230.922 1752.26,230.922 1754.24,230.922 1756.22,230.921 1758.21,230.921 1760.19,230.921 1762.17,230.921 1764.15,230.92 
  1766.14,230.92 1768.12,230.92 1770.1,230.92 1772.08,230.919 1774.07,230.919 1776.05,230.919 1778.03,230.919 1780.01,230.919 1782,230.918 1783.98,230.918 
  1785.96,230.918 1787.94,230.918 1789.93,230.918 1791.91,230.917 1793.89,230.917 1795.87,230.917 1797.86,230.917 1799.84,230.917 1801.82,230.917 1803.8,230.917 
  1805.79,230.916 1807.77,230.916 1809.75,230.916 1811.73,230.916 1813.71,230.916 1815.7,230.916 1817.68,230.916 1819.66,230.916 1821.64,230.916 1823.63,230.916 
  1825.61,230.916 1827.59,230.916 1829.57,230.916 1831.56,230.916 1833.54,230.916 1835.52,230.916 1837.5,230.916 1839.49,230.916 1841.47,230.916 1843.45,230.916 
  1845.43,230.916 1847.42,230.916 1849.4,230.916 1851.38,230.916 1853.36,230.916 1855.35,230.916 1857.33,230.917 1859.31,230.917 1861.29,230.917 1863.28,230.917 
  1865.26,230.917 1867.24,230.917 1869.22,230.917 1871.21,230.918 1873.19,230.918 1875.17,230.918 1877.15,230.918 1879.14,230.918 1881.12,230.919 1883.1,230.919 
  1885.08,230.919 1887.07,230.919 1889.05,230.919 1891.03,230.92 1893.01,230.92 1895,230.92 1896.98,230.92 1898.96,230.921 1900.94,230.921 1902.93,230.921 
  1904.91,230.922 1906.89,230.922 1908.87,230.922 1910.86,230.923 1912.84,230.923 1914.82,230.923 1916.8,230.923 1918.79,230.924 1920.77,230.924 1922.75,230.924 
  1924.73,230.925 1926.72,230.925 1928.7,230.925 1930.68,230.926 1932.66,230.926 1934.65,230.927 1936.63,230.927 1938.61,230.927 1940.59,230.928 1942.58,230.928 
  1944.56,230.928 1946.54,230.929 1948.52,230.929 1950.51,230.929 1952.49,230.93 1954.47,230.93 1956.45,230.93 1958.44,230.931 1960.42,230.931 1962.4,230.931 
  1964.38,230.932 1966.37,230.932 1968.35,230.932 1970.33,230.933 1972.31,230.933 1974.3,230.933 1976.28,230.934 1978.26,230.934 1980.24,230.934 1982.23,230.935 
  1984.21,230.935 1986.19,230.935 1988.17,230.935 1990.16,230.936 1992.14,230.936 1994.12,230.936 1996.1,230.936 1998.09,230.937 2000.07,230.937 2002.05,230.937 
  2004.03,230.937 2006.02,230.937 2008,230.937 2009.98,230.938 2011.96,230.938 2013.95,230.938 2015.93,230.938 2017.91,230.938 2019.89,230.938 2021.87,230.938 
  2023.86,230.938 2025.84,230.938 2027.82,230.938 2029.8,230.938 2031.79,230.938 2033.77,230.938 2035.75,230.938 2037.73,230.938 2039.72,230.938 2041.7,230.937 
  2043.68,230.937 2045.66,230.937 2047.65,230.937 2049.63,230.937 2051.61,230.936 2053.59,230.936 2055.58,230.936 2057.56,230.936 2059.54,230.936 2061.52,230.935 
  2063.51,230.935 2065.49,230.935 2067.47,230.935 2069.45,230.935 2071.44,230.934 2073.42,230.934 2075.4,230.934 2077.38,230.934 2079.37,230.934 2081.35,230.934 
  2083.33,230.933 2085.31,230.933 2087.3,230.933 2089.28,230.933 2091.26,230.933 2093.24,230.933 2095.23,230.932 2097.21,230.932 2099.19,230.932 2101.17,230.932 
  2103.16,230.932 2105.14,230.932 2107.12,230.932 2109.1,230.932 2111.09,230.931 2113.07,230.931 2115.05,230.931 2117.03,230.931 2119.02,230.931 2121,230.931 
  2122.98,230.931 2124.96,230.931 2126.95,230.931 2128.93,230.931 2130.91,230.931 2132.89,230.93 2134.88,230.93 2136.86,230.93 2138.84,230.93 2140.82,230.93 
  2142.81,230.93 2144.79,230.93 2146.77,230.93 2148.75,230.93 2150.74,230.93 2152.72,230.93 2154.7,230.93 2156.68,230.93 2158.67,230.93 2160.65,230.93 
  2162.63,230.929 2164.61,230.929 2166.6,230.929 2168.58,230.929 2170.56,230.929 2172.54,230.929 2174.53,230.929 2176.51,230.929 2178.49,230.929 2180.47,230.929 
  2182.46,230.929 2184.44,230.929 2186.42,230.929 2188.4,230.929 2190.39,230.929 2192.37,230.929 2194.35,230.929 2196.33,230.929 2198.32,230.929 2200.3,230.929 
  2202.28,230.929 2204.26,230.929 2206.25,230.929 2208.23,230.929 2210.21,230.929 2212.19,230.929 2214.18,230.929 2216.16,230.928 2218.14,230.928 2220.12,230.928 
  
  "/>
<polyline clip-path="url(#clip152)" style="stroke:#3da44d; stroke-width:8; stroke-opacity:1; fill:none" points="
  239.629,1368.29 241.612,1368.09 243.594,1367.83 245.577,1367.47 247.559,1366.98 249.542,1366.31 251.524,1365.4 253.507,1364.16 255.489,1362.47 257.472,1360.16 
  259.454,1357 261.437,1352.7 263.419,1346.84 265.402,1338.84 267.384,1327.94 269.367,1313.06 271.349,1293.27 273.332,1271.72 275.314,1250.8 277.296,1230.25 
  279.279,1210.1 281.261,1190.34 283.244,1170.95 285.226,1151.94 287.209,1133.29 289.191,1115 291.174,1097.05 293.156,1079.46 295.139,1062.19 297.121,1045.26 
  299.104,1028.66 301.086,1012.37 303.069,996.394 305.051,980.724 307.034,965.355 309.016,950.28 310.999,935.493 312.981,920.99 314.964,906.765 316.946,892.813 
  318.928,879.127 320.911,865.704 322.893,852.538 324.876,839.625 326.858,826.959 328.841,814.535 330.823,802.35 332.806,790.398 334.788,778.675 336.771,767.176 
  338.753,755.898 340.736,744.835 342.718,733.985 344.701,723.343 346.683,712.904 348.666,702.666 350.648,692.624 352.631,682.774 354.613,673.113 356.596,663.637 
  358.578,654.343 360.56,645.227 362.543,636.286 364.525,627.515 366.508,618.913 368.49,610.476 370.473,602.2 372.455,594.083 374.438,586.121 376.42,578.311 
  378.403,570.651 380.385,563.138 382.368,555.769 384.35,548.541 386.333,541.452 388.315,534.498 390.298,527.678 392.28,520.988 394.263,514.427 396.245,507.992 
  398.227,501.679 400.21,495.488 402.192,489.416 404.175,483.46 406.157,477.618 408.14,471.888 410.122,466.267 412.105,460.755 414.087,455.347 416.07,450.044 
  418.052,444.842 420.035,439.739 422.017,434.734 424,429.825 425.982,425.01 427.965,420.287 429.947,415.654 431.93,411.11 433.912,406.654 435.895,402.283 
  437.877,397.995 439.859,393.79 441.842,389.666 443.824,385.621 445.807,381.653 447.789,377.762 449.772,373.945 451.754,370.201 453.737,366.529 455.719,362.928 
  457.702,359.395 459.684,355.93 461.667,352.532 463.649,349.199 465.632,345.929 467.614,342.722 469.597,339.576 471.579,336.491 473.562,333.465 475.544,330.496 
  477.527,327.584 479.509,324.728 481.491,321.926 483.474,319.178 485.456,316.483 487.439,313.839 489.421,311.246 491.404,308.702 493.386,306.208 495.369,303.761 
  497.351,301.361 499.334,299.008 501.316,296.699 503.299,294.435 505.281,292.214 507.264,290.036 509.246,287.9 511.229,285.805 513.211,283.75 515.194,281.735 
  517.176,279.758 519.158,277.819 521.141,275.917 523.123,274.052 525.106,272.222 527.088,270.428 529.071,268.667 531.053,266.941 533.036,265.247 535.018,263.586 
  537.001,261.957 538.983,260.358 540.966,258.791 542.948,257.253 544.931,255.744 546.913,254.264 548.896,252.812 550.878,251.388 552.861,249.991 554.843,248.621 
  556.826,247.277 558.808,245.959 560.79,244.667 562.773,243.399 564.755,242.155 566.738,240.936 568.72,239.74 570.703,238.567 572.685,237.416 574.668,236.288 
  576.65,235.181 578.633,234.096 580.615,233.032 582.598,231.988 584.58,230.964 586.563,229.96 588.545,228.975 590.528,228.009 592.51,227.062 594.493,226.133 
  596.475,225.221 598.458,224.327 600.44,223.451 602.422,222.591 604.405,221.747 606.387,220.92 608.37,220.108 610.352,219.312 612.335,218.531 614.317,217.765 
  616.3,217.013 618.282,216.276 620.265,215.552 622.247,214.843 624.23,214.146 626.212,213.463 628.195,212.793 630.177,212.136 632.16,211.491 634.142,210.859 
  636.125,210.239 638.107,209.63 640.089,209.034 642.072,208.448 644.054,207.874 646.037,207.312 648.019,206.76 650.002,206.218 651.984,205.687 653.967,205.167 
  655.949,204.656 657.932,204.155 659.914,203.664 661.897,203.183 663.879,202.71 665.862,202.247 667.844,201.793 669.827,201.348 671.809,200.911 673.792,200.483 
  675.774,200.063 677.757,199.651 679.739,199.247 681.721,198.851 683.704,198.462 685.686,198.081 687.669,197.707 689.651,197.341 691.634,196.981 693.616,196.628 
  695.599,196.282 697.581,195.942 699.564,195.609 701.546,195.283 703.529,194.962 705.511,194.647 707.494,194.339 709.476,194.036 711.459,193.738 713.441,193.447 
  715.424,193.16 717.406,192.879 719.389,192.604 721.371,192.333 723.353,192.068 725.336,191.808 727.318,191.553 729.301,191.303 731.283,191.057 733.266,190.816 
  735.248,190.58 737.231,190.348 739.213,190.121 741.196,189.898 743.178,189.68 745.161,189.466 747.143,189.256 749.126,189.05 751.108,188.848 753.091,188.65 
  755.073,188.456 757.056,188.266 759.038,188.079 761.021,187.896 763.003,187.717 764.985,187.541 766.968,187.368 768.95,187.199 770.933,187.034 772.915,186.871 
  774.898,186.712 776.88,186.556 778.863,186.402 780.845,186.252 782.828,186.105 784.81,185.961 786.793,185.819 788.775,185.68 790.758,185.544 792.74,185.41 
  794.723,185.279 796.705,185.15 798.688,185.024 800.67,184.9 802.652,184.779 804.635,184.66 806.617,184.543 808.6,184.428 810.582,184.315 812.565,184.205 
  814.547,184.096 816.53,183.989 818.512,183.885 820.495,183.782 822.477,183.681 824.46,183.582 826.442,183.484 828.425,183.389 830.407,183.295 832.39,183.203 
  834.372,183.113 836.355,183.025 838.337,182.938 840.32,182.853 842.302,182.769 844.284,182.687 846.267,182.607 848.249,182.528 850.232,182.451 852.214,182.375 
  854.197,182.301 856.179,182.228 858.162,182.157 860.144,182.087 862.127,182.018 864.109,181.951 866.092,181.885 868.074,181.821 870.057,181.757 872.039,181.695 
  874.022,181.635 876.004,181.575 877.987,181.517 879.969,181.459 881.952,181.403 883.934,181.348 885.916,181.295 887.899,181.242 889.881,181.19 891.864,181.14 
  893.846,181.09 895.829,181.041 897.811,180.994 899.794,180.947 901.776,180.901 903.759,180.856 905.741,180.812 907.724,180.769 909.706,180.727 911.689,180.686 
  913.671,180.645 915.654,180.605 917.636,180.566 919.619,180.528 921.601,180.49 923.583,180.453 925.566,180.417 927.548,180.381 929.531,180.346 931.513,180.312 
  933.496,180.278 935.478,180.245 937.461,180.212 939.443,180.18 941.426,180.149 943.408,180.118 945.391,180.087 947.373,180.057 949.356,180.028 951.338,179.999 
  953.321,179.97 955.303,179.942 957.286,179.915 959.268,179.888 961.251,179.861 963.233,179.835 965.215,179.81 967.198,179.785 969.18,179.76 971.163,179.736 
  973.145,179.713 975.128,179.689 977.11,179.667 979.093,179.644 981.075,179.622 983.058,179.601 985.04,179.58 987.023,179.559 989.005,179.539 990.988,179.519 
  992.97,179.5 994.953,179.481 996.935,179.462 998.918,179.444 1000.9,179.426 1002.88,179.409 1004.86,179.392 1006.85,179.375 1008.83,179.359 1010.81,179.343 
  1012.79,179.327 1014.78,179.312 1016.76,179.296 1018.74,179.282 1020.72,179.267 1022.71,179.253 1024.69,179.24 1026.67,179.226 1028.65,179.213 1030.64,179.2 
  1032.62,179.187 1034.6,179.175 1036.58,179.163 1038.57,179.151 1040.55,179.14 1042.53,179.128 1044.51,179.117 1046.5,179.106 1048.48,179.096 1050.46,179.085 
  1052.44,179.075 1054.43,179.065 1056.41,179.055 1058.39,179.046 1060.37,179.037 1062.36,179.027 1064.34,179.018 1066.32,179.009 1068.3,179.001 1070.29,178.992 
  1072.27,178.984 1074.25,178.976 1076.23,178.968 1078.22,178.96 1080.2,178.952 1082.18,178.944 1084.16,178.937 1086.15,178.929 1088.13,178.922 1090.11,178.914 
  1092.09,178.907 1094.08,178.9 1096.06,178.893 1098.04,178.886 1100.02,178.879 1102.01,178.872 1103.99,178.865 1105.97,178.859 1107.95,178.852 1109.94,178.846 
  1111.92,178.84 1113.9,178.833 1115.88,178.827 1117.87,178.821 1119.85,178.815 1121.83,178.81 1123.81,178.804 1125.8,178.798 1127.78,178.793 1129.76,178.787 
  1131.74,178.782 1133.73,178.777 1135.71,178.772 1137.69,178.767 1139.67,178.762 1141.66,178.757 1143.64,178.752 1145.62,178.748 1147.6,178.743 1149.59,178.739 
  1151.57,178.735 1153.55,178.73 1155.53,178.726 1157.52,178.722 1159.5,178.718 1161.48,178.714 1163.46,178.71 1165.45,178.707 1167.43,178.703 1169.41,178.7 
  1171.39,178.696 1173.38,178.693 1175.36,178.689 1177.34,178.686 1179.32,178.683 1181.31,178.68 1183.29,178.677 1185.27,178.674 1187.25,178.671 1189.24,178.669 
  1191.22,178.666 1193.2,178.663 1195.18,178.661 1197.17,178.658 1199.15,178.656 1201.13,178.654 1203.11,178.651 1205.1,178.649 1207.08,178.647 1209.06,178.645 
  1211.04,178.643 1213.02,178.641 1215.01,178.639 1216.99,178.637 1218.97,178.635 1220.95,178.633 1222.94,178.632 1224.92,178.63 1226.9,178.628 1228.88,178.627 
  1230.87,178.625 1232.85,178.624 1234.83,178.622 1236.81,178.621 1238.8,178.62 1240.78,178.618 1242.76,178.617 1244.74,178.616 1246.73,178.614 1248.71,178.613 
  1250.69,178.612 1252.67,178.611 1254.66,178.61 1256.64,178.608 1258.62,178.607 1260.6,178.606 1262.59,178.605 1264.57,178.604 1266.55,178.603 1268.53,178.601 
  1270.52,178.6 1272.5,178.599 1274.48,178.598 1276.46,178.597 1278.45,178.596 1280.43,178.595 1282.41,178.593 1284.39,178.592 1286.38,178.591 1288.36,178.59 
  1290.34,178.589 1292.32,178.587 1294.31,178.586 1296.29,178.585 1298.27,178.584 1300.25,178.583 1302.24,178.582 1304.22,178.58 1306.2,178.579 1308.18,178.578 
  1310.17,178.577 1312.15,178.576 1314.13,178.575 1316.11,178.574 1318.1,178.573 1320.08,178.572 1322.06,178.571 1324.04,178.57 1326.03,178.569 1328.01,178.568 
  1329.99,178.567 1331.97,178.566 1333.96,178.565 1335.94,178.564 1337.92,178.563 1339.9,178.562 1341.89,178.561 1343.87,178.561 1345.85,178.56 1347.83,178.559 
  1349.82,178.558 1351.8,178.557 1353.78,178.557 1355.76,178.556 1357.75,178.555 1359.73,178.555 1361.71,178.554 1363.69,178.553 1365.68,178.553 1367.66,178.552 
  1369.64,178.551 1371.62,178.551 1373.61,178.55 1375.59,178.55 1377.57,178.549 1379.55,178.549 1381.54,178.548 1383.52,178.548 1385.5,178.547 1387.48,178.547 
  1389.47,178.546 1391.45,178.546 1393.43,178.545 1395.41,178.545 1397.4,178.545 1399.38,178.544 1401.36,178.544 1403.34,178.544 1405.33,178.543 1407.31,178.543 
  1409.29,178.543 1411.27,178.543 1413.25,178.542 1415.24,178.542 1417.22,178.542 1419.2,178.542 1421.18,178.542 1423.17,178.542 1425.15,178.541 1427.13,178.541 
  1429.11,178.541 1431.1,178.541 1433.08,178.541 1435.06,178.541 1437.04,178.541 1439.03,178.541 1441.01,178.541 1442.99,178.541 1444.97,178.541 1446.96,178.54 
  1448.94,178.54 1450.92,178.54 1452.9,178.54 1454.89,178.54 1456.87,178.54 1458.85,178.54 1460.83,178.54 1462.82,178.541 1464.8,178.541 1466.78,178.541 
  1468.76,178.541 1470.75,178.541 1472.73,178.541 1474.71,178.541 1476.69,178.541 1478.68,178.541 1480.66,178.541 1482.64,178.541 1484.62,178.541 1486.61,178.541 
  1488.59,178.541 1490.57,178.541 1492.55,178.541 1494.54,178.541 1496.52,178.541 1498.5,178.541 1500.48,178.541 1502.47,178.541 1504.45,178.541 1506.43,178.541 
  1508.41,178.541 1510.4,178.541 1512.38,178.54 1514.36,178.54 1516.34,178.54 1518.33,178.54 1520.31,178.54 1522.29,178.54 1524.27,178.54 1526.26,178.539 
  1528.24,178.539 1530.22,178.539 1532.2,178.539 1534.19,178.539 1536.17,178.538 1538.15,178.538 1540.13,178.538 1542.12,178.538 1544.1,178.537 1546.08,178.537 
  1548.06,178.537 1550.05,178.537 1552.03,178.536 1554.01,178.536 1555.99,178.536 1557.98,178.536 1559.96,178.535 1561.94,178.535 1563.92,178.535 1565.91,178.535 
  1567.89,178.535 1569.87,178.534 1571.85,178.534 1573.84,178.534 1575.82,178.534 1577.8,178.533 1579.78,178.533 1581.77,178.533 1583.75,178.533 1585.73,178.532 
  1587.71,178.532 1589.7,178.532 1591.68,178.532 1593.66,178.532 1595.64,178.531 1597.63,178.531 1599.61,178.531 1601.59,178.531 1603.57,178.531 1605.56,178.53 
  1607.54,178.53 1609.52,178.53 1611.5,178.53 1613.48,178.53 1615.47,178.53 1617.45,178.529 1619.43,178.529 1621.41,178.529 1623.4,178.529 1625.38,178.529 
  1627.36,178.529 1629.34,178.529 1631.33,178.528 1633.31,178.528 1635.29,178.528 1637.27,178.528 1639.26,178.528 1641.24,178.528 1643.22,178.528 1645.2,178.528 
  1647.19,178.528 1649.17,178.528 1651.15,178.527 1653.13,178.527 1655.12,178.527 1657.1,178.527 1659.08,178.527 1661.06,178.527 1663.05,178.527 1665.03,178.527 
  1667.01,178.527 1668.99,178.527 1670.98,178.527 1672.96,178.527 1674.94,178.527 1676.92,178.527 1678.91,178.527 1680.89,178.527 1682.87,178.527 1684.85,178.527 
  1686.84,178.527 1688.82,178.527 1690.8,178.527 1692.78,178.527 1694.77,178.527 1696.75,178.527 1698.73,178.528 1700.71,178.528 1702.7,178.528 1704.68,178.528 
  1706.66,178.528 1708.64,178.528 1710.63,178.528 1712.61,178.528 1714.59,178.528 1716.57,178.528 1718.56,178.528 1720.54,178.529 1722.52,178.529 1724.5,178.529 
  1726.49,178.529 1728.47,178.529 1730.45,178.529 1732.43,178.529 1734.42,178.529 1736.4,178.53 1738.38,178.53 1740.36,178.53 1742.35,178.53 1744.33,178.53 
  1746.31,178.53 1748.29,178.53 1750.28,178.531 1752.26,178.531 1754.24,178.531 1756.22,178.531 1758.21,178.531 1760.19,178.531 1762.17,178.531 1764.15,178.532 
  1766.14,178.532 1768.12,178.532 1770.1,178.532 1772.08,178.532 1774.07,178.532 1776.05,178.532 1778.03,178.533 1780.01,178.533 1782,178.533 1783.98,178.533 
  1785.96,178.533 1787.94,178.533 1789.93,178.533 1791.91,178.533 1793.89,178.534 1795.87,178.534 1797.86,178.534 1799.84,178.534 1801.82,178.534 1803.8,178.534 
  1805.79,178.534 1807.77,178.534 1809.75,178.534 1811.73,178.534 1813.71,178.534 1815.7,178.534 1817.68,178.534 1819.66,178.534 1821.64,178.534 1823.63,178.534 
  1825.61,178.534 1827.59,178.534 1829.57,178.534 1831.56,178.534 1833.54,178.534 1835.52,178.534 1837.5,178.534 1839.49,178.534 1841.47,178.534 1843.45,178.534 
  1845.43,178.534 1847.42,178.533 1849.4,178.533 1851.38,178.533 1853.36,178.533 1855.35,178.533 1857.33,178.533 1859.31,178.533 1861.29,178.532 1863.28,178.532 
  1865.26,178.532 1867.24,178.532 1869.22,178.532 1871.21,178.532 1873.19,178.531 1875.17,178.531 1877.15,178.531 1879.14,178.531 1881.12,178.531 1883.1,178.53 
  1885.08,178.53 1887.07,178.53 1889.05,178.53 1891.03,178.53 1893.01,178.53 1895,178.529 1896.98,178.529 1898.96,178.529 1900.94,178.529 1902.93,178.529 
  1904.91,178.528 1906.89,178.528 1908.87,178.528 1910.86,178.528 1912.84,178.528 1914.82,178.527 1916.8,178.527 1918.79,178.527 1920.77,178.527 1922.75,178.527 
  1924.73,178.526 1926.72,178.526 1928.7,178.526 1930.68,178.526 1932.66,178.526 1934.65,178.526 1936.63,178.525 1938.61,178.525 1940.59,178.525 1942.58,178.525 
  1944.56,178.525 1946.54,178.525 1948.52,178.525 1950.51,178.524 1952.49,178.524 1954.47,178.524 1956.45,178.524 1958.44,178.524 1960.42,178.524 1962.4,178.524 
  1964.38,178.524 1966.37,178.524 1968.35,178.523 1970.33,178.523 1972.31,178.523 1974.3,178.523 1976.28,178.523 1978.26,178.523 1980.24,178.523 1982.23,178.523 
  1984.21,178.523 1986.19,178.523 1988.17,178.523 1990.16,178.523 1992.14,178.523 1994.12,178.523 1996.1,178.523 1998.09,178.523 2000.07,178.523 2002.05,178.523 
  2004.03,178.523 2006.02,178.523 2008,178.523 2009.98,178.523 2011.96,178.523 2013.95,178.523 2015.93,178.523 2017.91,178.523 2019.89,178.523 2021.87,178.523 
  2023.86,178.523 2025.84,178.523 2027.82,178.523 2029.8,178.523 2031.79,178.523 2033.77,178.523 2035.75,178.523 2037.73,178.524 2039.72,178.524 2041.7,178.524 
  2043.68,178.524 2045.66,178.524 2047.65,178.524 2049.63,178.524 2051.61,178.524 2053.59,178.524 2055.58,178.525 2057.56,178.525 2059.54,178.525 2061.52,178.525 
  2063.51,178.525 2065.49,178.525 2067.47,178.526 2069.45,178.526 2071.44,178.526 2073.42,178.526 2075.4,178.526 2077.38,178.526 2079.37,178.527 2081.35,178.527 
  2083.33,178.527 2085.31,178.527 2087.3,178.527 2089.28,178.528 2091.26,178.528 2093.24,178.528 2095.23,178.528 2097.21,178.528 2099.19,178.529 2101.17,178.529 
  2103.16,178.529 2105.14,178.529 2107.12,178.529 2109.1,178.53 2111.09,178.53 2113.07,178.53 2115.05,178.53 2117.03,178.531 2119.02,178.531 2121,178.531 
  2122.98,178.531 2124.96,178.531 2126.95,178.532 2128.93,178.532 2130.91,178.532 2132.89,178.532 2134.88,178.533 2136.86,178.533 2138.84,178.533 2140.82,178.533 
  2142.81,178.533 2144.79,178.534 2146.77,178.534 2148.75,178.534 2150.74,178.534 2152.72,178.534 2154.7,178.535 2156.68,178.535 2158.67,178.535 2160.65,178.535 
  2162.63,178.535 2164.61,178.535 2166.6,178.536 2168.58,178.536 2170.56,178.536 2172.54,178.536 2174.53,178.536 2176.51,178.536 2178.49,178.536 2180.47,178.536 
  2182.46,178.537 2184.44,178.537 2186.42,178.537 2188.4,178.537 2190.39,178.537 2192.37,178.537 2194.35,178.537 2196.33,178.537 2198.32,178.537 2200.3,178.537 
  2202.28,178.537 2204.26,178.537 2206.25,178.537 2208.23,178.537 2210.21,178.537 2212.19,178.537 2214.18,178.537 2216.16,178.537 2218.14,178.536 2220.12,178.536 
  
  "/>
<circle clip-path="url(#clip152)" cx="1907.18" cy="270.093" r="14" fill="#ff0000" fill-rule="evenodd" fill-opacity="0.7" stroke="#000000" stroke-opacity="0.7" stroke-width="3.2"/>
<circle clip-path="url(#clip152)" cx="1905.14" cy="85.7211" r="14" fill="#ff0000" fill-rule="evenodd" fill-opacity="0.7" stroke="#000000" stroke-opacity="0.7" stroke-width="3.2"/>
<circle clip-path="url(#clip152)" cx="1905.69" cy="241.824" r="14" fill="#ff0000" fill-rule="evenodd" fill-opacity="0.7" stroke="#000000" stroke-opacity="0.7" stroke-width="3.2"/>
<path clip-path="url(#clip150)" d="
M1541.05 1361.45 L1895.65 1361.45 L1895.65 1059.05 L1541.05 1059.05  Z
  " fill="#ffffff" fill-rule="evenodd" fill-opacity="1"/>
<polyline clip-path="url(#clip150)" style="stroke:#000000; stroke-width:4; stroke-opacity:1; fill:none" points="
  1541.05,1361.45 1895.65,1361.45 1895.65,1059.05 1541.05,1059.05 1541.05,1361.45 
  "/>
<polyline clip-path="url(#clip150)" style="stroke:#009af9; stroke-width:4; stroke-opacity:1; fill:none" points="
  1560.08,1119.53 1674.29,1119.53 
  "/>
<path clip-path="url(#clip150)" d="M 0 0 M1709.16 1106.85 L1702.81 1124.05 L1715.52 1124.05 L1709.16 1106.85 M1706.52 1102.25 L1711.82 1102.25 L1724.99 1136.81 L1720.13 1136.81 L1716.98 1127.94 L1701.4 1127.94 L1698.25 1136.81 L1693.32 1136.81 L1706.52 1102.25 Z" fill="#000000" fill-rule="evenodd" fill-opacity="1" /><polyline clip-path="url(#clip150)" style="stroke:#e26f46; stroke-width:4; stroke-opacity:1; fill:none" points="
  1560.08,1180.01 1674.29,1180.01 
  "/>
<path clip-path="url(#clip150)" d="M 0 0 M1698 1180.78 L1698 1193.44 L1705.5 1193.44 Q1709.27 1193.44 1711.08 1191.89 Q1712.91 1190.32 1712.91 1187.1 Q1712.91 1183.86 1711.08 1182.33 Q1709.27 1180.78 1705.5 1180.78 L1698 1180.78 M1698 1166.57 L1698 1176.99 L1704.92 1176.99 Q1708.35 1176.99 1710.01 1175.71 Q1711.7 1174.42 1711.7 1171.78 Q1711.7 1169.16 1710.01 1167.87 Q1708.35 1166.57 1704.92 1166.57 L1698 1166.57 M1693.32 1162.73 L1705.27 1162.73 Q1710.62 1162.73 1713.51 1164.95 Q1716.4 1167.17 1716.4 1171.27 Q1716.4 1174.44 1714.92 1176.31 Q1713.44 1178.19 1710.57 1178.65 Q1714.02 1179.39 1715.92 1181.75 Q1717.84 1184.09 1717.84 1187.61 Q1717.84 1192.24 1714.69 1194.76 Q1711.54 1197.29 1705.73 1197.29 L1693.32 1197.29 L1693.32 1162.73 Z" fill="#000000" fill-rule="evenodd" fill-opacity="1" /><polyline clip-path="url(#clip150)" style="stroke:#3da44d; stroke-width:4; stroke-opacity:1; fill:none" points="
  1560.08,1240.49 1674.29,1240.49 
  "/>
<path clip-path="url(#clip150)" d="M 0 0 M1721.19 1225.87 L1721.19 1230.8 Q1718.83 1228.6 1716.15 1227.51 Q1713.49 1226.42 1710.48 1226.42 Q1704.55 1226.42 1701.4 1230.06 Q1698.25 1233.67 1698.25 1240.52 Q1698.25 1247.35 1701.4 1250.98 Q1704.55 1254.6 1710.48 1254.6 Q1713.49 1254.6 1716.15 1253.51 Q1718.83 1252.42 1721.19 1250.22 L1721.19 1255.1 Q1718.74 1256.77 1715.99 1257.6 Q1713.25 1258.44 1710.2 1258.44 Q1702.35 1258.44 1697.84 1253.65 Q1693.32 1248.83 1693.32 1240.52 Q1693.32 1232.19 1697.84 1227.4 Q1702.35 1222.58 1710.2 1222.58 Q1713.3 1222.58 1716.03 1223.41 Q1718.79 1224.23 1721.19 1225.87 Z" fill="#000000" fill-rule="evenodd" fill-opacity="1" /><circle clip-path="url(#clip150)" cx="1617.18" cy="1300.97" r="23" fill="#ff0000" fill-rule="evenodd" fill-opacity="0.7" stroke="#000000" stroke-opacity="0.7" stroke-width="5.12"/>
<path clip-path="url(#clip150)" d="M 0 0 M1721.19 1286.35 L1721.19 1291.28 Q1718.83 1289.08 1716.15 1287.99 Q1713.49 1286.9 1710.48 1286.9 Q1704.55 1286.9 1701.4 1290.54 Q1698.25 1294.15 1698.25 1301 Q1698.25 1307.83 1701.4 1311.46 Q1704.55 1315.08 1710.48 1315.08 Q1713.49 1315.08 1716.15 1313.99 Q1718.83 1312.9 1721.19 1310.7 L1721.19 1315.58 Q1718.74 1317.25 1715.99 1318.08 Q1713.25 1318.92 1710.2 1318.92 Q1702.35 1318.92 1697.84 1314.13 Q1693.32 1309.31 1693.32 1301 Q1693.32 1292.67 1697.84 1287.88 Q1702.35 1283.06 1710.2 1283.06 Q1713.3 1283.06 1716.03 1283.89 Q1718.79 1284.71 1721.19 1286.35 Z" fill="#000000" fill-rule="evenodd" fill-opacity="1" /><path clip-path="url(#clip150)" d="M 0 0 M1738.28 1295.31 Q1734.85 1295.31 1732.86 1297.99 Q1730.87 1300.65 1730.87 1305.31 Q1730.87 1309.96 1732.84 1312.64 Q1734.83 1315.31 1738.28 1315.31 Q1741.68 1315.31 1743.67 1312.62 Q1745.66 1309.94 1745.66 1305.31 Q1745.66 1300.7 1743.67 1298.02 Q1741.68 1295.31 1738.28 1295.31 M1738.28 1291.7 Q1743.83 1291.7 1747 1295.31 Q1750.18 1298.92 1750.18 1305.31 Q1750.18 1311.67 1747 1315.31 Q1743.83 1318.92 1738.28 1318.92 Q1732.7 1318.92 1729.53 1315.31 Q1726.38 1311.67 1726.38 1305.31 Q1726.38 1298.92 1729.53 1295.31 Q1732.7 1291.7 1738.28 1291.7 Z" fill="#000000" fill-rule="evenodd" fill-opacity="1" /><path clip-path="url(#clip150)" d="M 0 0 M1778.79 1302.6 L1778.79 1318.25 L1774.53 1318.25 L1774.53 1302.74 Q1774.53 1299.06 1773.09 1297.23 Q1771.66 1295.4 1768.79 1295.4 Q1765.34 1295.4 1763.35 1297.6 Q1761.36 1299.8 1761.36 1303.59 L1761.36 1318.25 L1757.07 1318.25 L1757.07 1292.32 L1761.36 1292.32 L1761.36 1296.35 Q1762.88 1294.01 1764.94 1292.85 Q1767.03 1291.7 1769.74 1291.7 Q1774.2 1291.7 1776.49 1294.47 Q1778.79 1297.23 1778.79 1302.6 Z" fill="#000000" fill-rule="evenodd" fill-opacity="1" /><path clip-path="url(#clip150)" d="M 0 0 M1791.49 1284.96 L1791.49 1292.32 L1800.27 1292.32 L1800.27 1295.63 L1791.49 1295.63 L1791.49 1309.7 Q1791.49 1312.88 1792.35 1313.78 Q1793.23 1314.68 1795.89 1314.68 L1800.27 1314.68 L1800.27 1318.25 L1795.89 1318.25 Q1790.96 1318.25 1789.09 1316.42 Q1787.21 1314.57 1787.21 1309.7 L1787.21 1295.63 L1784.09 1295.63 L1784.09 1292.32 L1787.21 1292.32 L1787.21 1284.96 L1791.49 1284.96 Z" fill="#000000" fill-rule="evenodd" fill-opacity="1" /><path clip-path="url(#clip150)" d="M 0 0 M1820.89 1296.3 Q1820.18 1295.89 1819.32 1295.7 Q1818.49 1295.49 1817.47 1295.49 Q1813.86 1295.49 1811.91 1297.85 Q1809.99 1300.19 1809.99 1304.59 L1809.99 1318.25 L1805.71 1318.25 L1805.71 1292.32 L1809.99 1292.32 L1809.99 1296.35 Q1811.33 1293.99 1813.49 1292.85 Q1815.64 1291.7 1818.72 1291.7 Q1819.16 1291.7 1819.69 1291.77 Q1820.22 1291.81 1820.87 1291.93 L1820.89 1296.3 Z" fill="#000000" fill-rule="evenodd" fill-opacity="1" /><path clip-path="url(#clip150)" d="M 0 0 M1834.36 1295.31 Q1830.94 1295.31 1828.95 1297.99 Q1826.96 1300.65 1826.96 1305.31 Q1826.96 1309.96 1828.92 1312.64 Q1830.92 1315.31 1834.36 1315.31 Q1837.77 1315.31 1839.76 1312.62 Q1841.75 1309.94 1841.75 1305.31 Q1841.75 1300.7 1839.76 1298.02 Q1837.77 1295.31 1834.36 1295.31 M1834.36 1291.7 Q1839.92 1291.7 1843.09 1295.31 Q1846.26 1298.92 1846.26 1305.31 Q1846.26 1311.67 1843.09 1315.31 Q1839.92 1318.92 1834.36 1318.92 Q1828.79 1318.92 1825.61 1315.31 Q1822.47 1311.67 1822.47 1305.31 Q1822.47 1298.92 1825.61 1295.31 Q1828.79 1291.7 1834.36 1291.7 Z" fill="#000000" fill-rule="evenodd" fill-opacity="1" /><path clip-path="url(#clip150)" d="M 0 0 M1853.32 1282.23 L1857.58 1282.23 L1857.58 1318.25 L1853.32 1318.25 L1853.32 1282.23 Z" fill="#000000" fill-rule="evenodd" fill-opacity="1" /></svg>
