<?xml version="1.0" encoding="utf-8"?>
<svg xmlns="http://www.w3.org/2000/svg" xmlns:xlink="http://www.w3.org/1999/xlink" width="400" height="300" viewBox="0 0 1600 1200">
<defs>
  <clipPath id="clip700">
    <rect x="0" y="0" width="1600" height="1200"/>
  </clipPath>
</defs>
<path clip-path="url(#clip700)" d="
M0 1200 L1600 1200 L1600 0 L0 0  Z
  " fill="#ffffff" fill-rule="evenodd" fill-opacity="1"/>
<defs>
  <clipPath id="clip701">
    <rect x="320" y="0" width="1121" height="1121"/>
  </clipPath>
</defs>
<path clip-path="url(#clip700)" d="
M203.061 884.673 L1552.76 884.673 L1552.76 47.2441 L203.061 47.2441  Z
  " fill="#ffffff" fill-rule="evenodd" fill-opacity="1"/>
<defs>
  <clipPath id="clip702">
    <rect x="203" y="47" width="1351" height="838"/>
  </clipPath>
</defs>
<polyline clip-path="url(#clip700)" style="stroke:#000000; stroke-linecap:butt; stroke-linejoin:round; stroke-width:4; stroke-opacity:1; fill:none" points="
  203.061,884.673 1552.76,884.673 
  "/>
<polyline clip-path="url(#clip700)" style="stroke:#000000; stroke-linecap:butt; stroke-linejoin:round; stroke-width:4; stroke-opacity:1; fill:none" points="
  330.489,884.673 330.489,865.775 
  "/>
<polyline clip-path="url(#clip700)" style="stroke:#000000; stroke-linecap:butt; stroke-linejoin:round; stroke-width:4; stroke-opacity:1; fill:none" points="
  467.344,884.673 467.344,865.775 
  "/>
<polyline clip-path="url(#clip700)" style="stroke:#000000; stroke-linecap:butt; stroke-linejoin:round; stroke-width:4; stroke-opacity:1; fill:none" points="
  604.199,884.673 604.199,865.775 
  "/>
<polyline clip-path="url(#clip700)" style="stroke:#000000; stroke-linecap:butt; stroke-linejoin:round; stroke-width:4; stroke-opacity:1; fill:none" points="
  741.054,884.673 741.054,865.775 
  "/>
<polyline clip-path="url(#clip700)" style="stroke:#000000; stroke-linecap:butt; stroke-linejoin:round; stroke-width:4; stroke-opacity:1; fill:none" points="
  877.908,884.673 877.908,865.775 
  "/>
<polyline clip-path="url(#clip700)" style="stroke:#000000; stroke-linecap:butt; stroke-linejoin:round; stroke-width:4; stroke-opacity:1; fill:none" points="
  1014.76,884.673 1014.76,865.775 
  "/>
<polyline clip-path="url(#clip700)" style="stroke:#000000; stroke-linecap:butt; stroke-linejoin:round; stroke-width:4; stroke-opacity:1; fill:none" points="
  1151.62,884.673 1151.62,865.775 
  "/>
<polyline clip-path="url(#clip700)" style="stroke:#000000; stroke-linecap:butt; stroke-linejoin:round; stroke-width:4; stroke-opacity:1; fill:none" points="
  1288.47,884.673 1288.47,865.775 
  "/>
<polyline clip-path="url(#clip700)" style="stroke:#000000; stroke-linecap:butt; stroke-linejoin:round; stroke-width:4; stroke-opacity:1; fill:none" points="
  1425.33,884.673 1425.33,865.775 
  "/>
<path clip-path="url(#clip700)" d="M145.685 1082.68 L153.362 1099.33 L162.348 1090.34 L145.685 1082.68 M140.562 1081.29 L144.31 1077.54 L178.061 1092.67 L174.624 1096.1 L166.129 1092.06 L155.113 1103.08 L159.156 1111.57 L155.669 1115.06 L140.562 1081.29 Z" fill="#000000" fill-rule="evenodd" fill-opacity="1" /><path clip-path="url(#clip700)" d="M186.671 1064.22 L188.144 1065.69 L174.296 1079.54 Q177.603 1082.45 180.909 1082.42 Q184.215 1082.35 187.211 1079.36 Q188.946 1077.62 190.141 1075.58 Q191.352 1073.52 192.105 1071.06 L194.953 1073.91 Q194.02 1076.22 192.678 1078.28 Q191.336 1080.34 189.584 1082.09 Q185.198 1086.48 180.074 1086.5 Q174.967 1086.5 170.614 1082.14 Q166.112 1077.64 165.9 1072.58 Q165.687 1067.49 169.812 1063.37 Q173.511 1059.67 178.045 1059.91 Q182.579 1060.13 186.671 1064.22 M182.775 1066.35 Q180.271 1063.91 177.439 1063.79 Q174.624 1063.66 172.398 1065.89 Q169.877 1068.41 169.779 1071.36 Q169.697 1074.29 172.054 1077.1 L182.775 1066.35 Z" fill="#000000" fill-rule="evenodd" fill-opacity="1" /><path clip-path="url(#clip700)" d="M196.639 1043.05 Q195.837 1043.27 195.1 1043.74 Q194.364 1044.18 193.644 1044.9 Q191.09 1047.46 191.385 1050.5 Q191.679 1053.51 194.789 1056.62 L204.446 1066.28 L201.418 1069.31 L183.086 1050.98 L186.114 1047.95 L188.962 1050.8 Q188.242 1048.18 188.962 1045.85 Q189.666 1043.51 191.843 1041.34 Q192.154 1041.03 192.58 1040.7 Q192.989 1040.35 193.529 1039.98 L196.639 1043.05 Z" fill="#000000" fill-rule="evenodd" fill-opacity="1" /><path clip-path="url(#clip700)" d="M205.461 1032.82 Q203.039 1035.25 203.53 1038.55 Q204.005 1041.84 207.295 1045.13 Q210.585 1048.42 213.875 1048.93 Q217.165 1049.41 219.603 1046.97 Q222.009 1044.56 221.518 1041.25 Q221.027 1037.95 217.754 1034.67 Q214.497 1031.42 211.19 1030.93 Q207.867 1030.42 205.461 1032.82 M202.908 1030.27 Q206.836 1026.34 211.632 1026.65 Q216.428 1026.96 220.946 1031.48 Q225.447 1035.98 225.774 1040.8 Q226.085 1045.59 222.157 1049.52 Q218.212 1053.46 213.416 1053.15 Q208.62 1052.81 204.119 1048.31 Q199.602 1043.79 199.274 1039.01 Q198.963 1034.22 202.908 1030.27 Z" fill="#000000" fill-rule="evenodd" fill-opacity="1" /><path clip-path="url(#clip700)" d="M234.547 1006.55 Q233.647 1003.39 234.253 1000.86 Q234.858 998.321 236.986 996.193 Q239.851 993.328 243.419 993.787 Q246.971 994.229 250.67 997.928 L261.735 1008.99 L258.707 1012.02 L247.74 1001.05 Q245.105 998.419 242.895 998.075 Q240.686 997.732 238.77 999.647 Q236.43 1001.99 236.626 1004.9 Q236.823 1007.81 239.507 1010.5 L249.868 1020.86 L246.84 1023.89 L235.873 1012.92 Q233.222 1010.27 231.028 1009.94 Q228.819 1009.6 226.871 1011.55 Q224.563 1013.85 224.776 1016.78 Q224.972 1019.7 227.64 1022.37 L238.001 1032.73 L234.973 1035.75 L216.641 1017.42 L219.669 1014.39 L222.517 1017.24 Q221.862 1014.53 222.501 1012.28 Q223.139 1010.04 225.119 1008.06 Q227.116 1006.06 229.522 1005.69 Q231.945 1005.29 234.547 1006.55 Z" fill="#000000" fill-rule="evenodd" fill-opacity="1" /><path clip-path="url(#clip700)" d="M258.625 979.661 Q256.202 982.084 256.694 985.39 Q257.168 988.68 260.458 991.97 Q263.748 995.26 267.038 995.767 Q270.328 996.242 272.767 993.803 Q275.173 991.397 274.682 988.091 Q274.191 984.784 270.917 981.511 Q267.66 978.253 264.354 977.762 Q261.031 977.255 258.625 979.661 M256.072 977.108 Q260 973.179 264.796 973.49 Q269.592 973.801 274.109 978.319 Q278.61 982.82 278.938 987.632 Q279.249 992.428 275.32 996.357 Q271.376 1000.3 266.58 999.99 Q261.784 999.647 257.283 995.145 Q252.765 990.628 252.438 985.848 Q252.127 981.052 256.072 977.108 Z" fill="#000000" fill-rule="evenodd" fill-opacity="1" /><path clip-path="url(#clip700)" d="M292.425 956.173 L303.49 967.238 L300.478 970.249 L289.512 959.283 Q286.909 956.68 284.601 956.402 Q282.293 956.124 280.264 958.153 Q277.825 960.592 277.972 963.555 Q278.119 966.517 280.804 969.202 L291.165 979.563 L288.137 982.591 L269.804 964.259 L272.833 961.231 L275.681 964.079 Q275.108 961.345 275.746 959.07 Q276.401 956.778 278.316 954.863 Q281.475 951.704 285.059 952.048 Q288.628 952.375 292.425 956.173 Z" fill="#000000" fill-rule="evenodd" fill-opacity="1" /><path clip-path="url(#clip700)" d="M308.613 943.684 Q304.963 947.334 304.39 949.576 Q303.817 951.819 305.831 953.832 Q307.435 955.436 309.432 955.338 Q311.429 955.207 313.245 953.39 Q315.75 950.886 315.488 947.612 Q315.226 944.306 312.28 941.36 L311.609 940.689 L308.613 943.684 M313.376 936.433 L323.836 946.892 L320.824 949.904 L318.041 947.121 Q318.68 949.822 317.943 952.163 Q317.19 954.487 314.964 956.713 Q312.149 959.528 308.908 959.627 Q305.667 959.692 303.015 957.04 Q299.922 953.947 300.413 950.313 Q300.92 946.663 305.029 942.555 L309.252 938.332 L308.957 938.037 Q306.878 935.958 304.374 936.204 Q301.87 936.417 299.398 938.888 Q297.827 940.459 296.714 942.325 Q295.601 944.191 294.979 946.319 L292.196 943.537 Q293.211 941.245 294.455 939.379 Q295.682 937.497 297.156 936.024 Q301.133 932.046 305.16 932.144 Q309.186 932.243 313.376 936.433 Z" fill="#000000" fill-rule="evenodd" fill-opacity="1" /><path clip-path="url(#clip700)" d="M323.934 911.21 L326.782 914.058 Q324.85 914.68 323.148 915.727 Q321.446 916.775 319.973 918.248 Q317.73 920.49 317.288 922.307 Q316.863 924.108 318.238 925.483 Q319.285 926.53 320.693 926.334 Q322.084 926.121 325.047 924.239 L326.307 923.437 Q330.203 920.916 332.805 920.834 Q335.408 920.719 337.65 922.962 Q340.204 925.515 339.664 929.034 Q339.14 932.537 335.604 936.073 Q334.131 937.546 332.232 938.855 Q330.366 940.165 328.026 941.36 L324.916 938.25 Q327.453 937.448 329.515 936.269 Q331.561 935.074 333.149 933.487 Q335.277 931.359 335.702 929.493 Q336.112 927.61 334.786 926.285 Q333.558 925.057 332.069 925.237 Q330.596 925.401 327.191 927.594 L325.898 928.396 Q322.51 930.606 320.055 930.639 Q317.583 930.655 315.455 928.527 Q312.869 925.941 313.295 922.7 Q313.72 919.459 317.092 916.087 Q318.761 914.418 320.48 913.19 Q322.199 911.963 323.934 911.21 Z" fill="#000000" fill-rule="evenodd" fill-opacity="1" /><path clip-path="url(#clip700)" d="M372.155 986.552 L387.607 971.101 L390.389 973.883 L378.244 986.028 L385.479 993.263 L397.117 981.625 L399.899 984.408 L388.261 996.046 L397.117 1004.9 L409.556 992.461 L412.339 995.244 L396.593 1010.99 L372.155 986.552 Z" fill="#000000" fill-rule="evenodd" fill-opacity="1" /><path clip-path="url(#clip700)" d="M423.862 948.463 L426.677 951.279 Q424.697 951.852 423.06 952.801 Q421.423 953.718 420.114 955.027 Q417.184 957.957 417.429 961.443 Q417.659 964.913 421.014 968.269 Q424.37 971.624 427.856 971.87 Q431.326 972.099 434.256 969.169 Q435.565 967.86 436.498 966.239 Q437.431 964.586 438.004 962.606 L440.787 965.388 Q440.116 967.238 439.052 968.891 Q438.004 970.528 436.482 972.05 Q432.341 976.191 427.299 976.027 Q422.258 975.864 417.839 971.444 Q413.354 966.959 413.239 961.934 Q413.141 956.893 417.429 952.605 Q418.821 951.213 420.441 950.182 Q422.045 949.135 423.862 948.463 Z" fill="#000000" fill-rule="evenodd" fill-opacity="1" /><path clip-path="url(#clip700)" d="M437.611 937.53 Q435.189 939.952 435.68 943.258 Q436.155 946.548 439.445 949.838 Q442.735 953.128 446.025 953.636 Q449.315 954.11 451.753 951.672 Q454.16 949.265 453.668 945.959 Q453.177 942.653 449.904 939.379 Q446.647 936.122 443.34 935.631 Q440.017 935.123 437.611 937.53 M435.058 934.976 Q438.986 931.048 443.782 931.359 Q448.578 931.67 453.096 936.187 Q457.597 940.689 457.924 945.501 Q458.235 950.297 454.307 954.225 Q450.362 958.17 445.566 957.859 Q440.77 957.515 436.269 953.014 Q431.752 948.496 431.424 943.717 Q431.113 938.921 435.058 934.976 Z" fill="#000000" fill-rule="evenodd" fill-opacity="1" /><path clip-path="url(#clip700)" d="M441.769 914.876 L444.781 911.864 L470.249 937.333 L467.238 940.345 L441.769 914.876 Z" fill="#000000" fill-rule="evenodd" fill-opacity="1" /><path clip-path="url(#clip700)" d="M458.219 912.699 L461.231 909.687 L479.563 928.02 L476.551 931.031 L458.219 912.699 M451.082 905.563 L454.094 902.551 L457.908 906.365 L454.896 909.376 L451.082 905.563 Z" fill="#000000" fill-rule="evenodd" fill-opacity="1" /><path clip-path="url(#clip700)" d="M429.101 1066.46 L432.653 1062.91 L449.479 1066.18 L446.156 1049.41 L449.708 1045.85 L453.866 1067.3 L465.504 1078.93 L462.181 1082.26 L450.543 1070.62 L429.101 1066.46 Z" fill="#000000" fill-rule="evenodd" fill-opacity="1" /><path clip-path="url(#clip700)" d="M478.549 1046.05 L480.022 1047.52 L466.175 1061.37 Q469.481 1064.28 472.787 1064.25 Q476.094 1064.19 479.089 1061.19 Q480.824 1059.46 482.019 1057.41 Q483.23 1055.35 483.983 1052.89 L486.831 1055.74 Q485.898 1058.05 484.556 1060.11 Q483.214 1062.17 481.462 1063.92 Q477.076 1068.31 471.953 1068.33 Q466.846 1068.33 462.492 1063.97 Q457.991 1059.47 457.778 1054.41 Q457.565 1049.32 461.69 1045.2 Q465.389 1041.5 469.923 1041.75 Q474.457 1041.96 478.549 1046.05 M474.653 1048.18 Q472.149 1045.74 469.317 1045.62 Q466.502 1045.49 464.276 1047.72 Q461.755 1050.24 461.657 1053.19 Q461.575 1056.12 463.932 1058.93 L474.653 1048.18 Z" fill="#000000" fill-rule="evenodd" fill-opacity="1" /><path clip-path="url(#clip700)" d="M492.527 1033.48 Q488.877 1037.13 488.304 1039.37 Q487.731 1041.61 489.745 1043.63 Q491.349 1045.23 493.346 1045.13 Q495.343 1045 497.159 1043.19 Q499.664 1040.68 499.402 1037.41 Q499.14 1034.1 496.194 1031.16 L495.523 1030.48 L492.527 1033.48 M497.29 1026.23 L507.75 1036.69 L504.738 1039.7 L501.955 1036.92 Q502.594 1039.62 501.857 1041.96 Q501.104 1044.28 498.878 1046.51 Q496.063 1049.32 492.822 1049.42 Q489.581 1049.49 486.929 1046.84 Q483.836 1043.74 484.327 1040.11 Q484.834 1036.46 488.943 1032.35 L493.166 1028.13 L492.871 1027.83 Q490.792 1025.75 488.288 1026 Q485.784 1026.21 483.312 1028.68 Q481.741 1030.25 480.628 1032.12 Q479.515 1033.99 478.893 1036.11 L476.11 1033.33 Q477.125 1031.04 478.369 1029.17 Q479.596 1027.29 481.07 1025.82 Q485.047 1021.84 489.074 1021.94 Q493.1 1022.04 497.29 1026.23 Z" fill="#000000" fill-rule="evenodd" fill-opacity="1" /><path clip-path="url(#clip700)" d="M507.848 1001.01 L510.696 1003.85 Q508.764 1004.48 507.062 1005.52 Q505.36 1006.57 503.887 1008.04 Q501.644 1010.29 501.202 1012.1 Q500.777 1013.9 502.152 1015.28 Q503.199 1016.33 504.607 1016.13 Q505.998 1015.92 508.961 1014.03 L510.221 1013.23 Q514.117 1010.71 516.719 1010.63 Q519.322 1010.52 521.564 1012.76 Q524.118 1015.31 523.578 1018.83 Q523.054 1022.33 519.518 1025.87 Q518.045 1027.34 516.147 1028.65 Q514.281 1029.96 511.94 1031.16 L508.83 1028.05 Q511.367 1027.24 513.429 1026.06 Q515.475 1024.87 517.063 1023.28 Q519.191 1021.15 519.617 1019.29 Q520.026 1017.41 518.7 1016.08 Q517.472 1014.85 515.983 1015.03 Q514.51 1015.2 511.105 1017.39 L509.812 1018.19 Q506.424 1020.4 503.969 1020.43 Q501.497 1020.45 499.369 1018.32 Q496.783 1015.74 497.209 1012.5 Q497.634 1009.25 501.006 1005.88 Q502.676 1004.21 504.394 1002.99 Q506.113 1001.76 507.848 1001.01 Z" fill="#000000" fill-rule="evenodd" fill-opacity="1" /><path clip-path="url(#clip700)" d="M510.86 986.503 L516.065 991.708 L522.268 985.505 L524.609 987.845 L518.405 994.049 L528.357 1004 Q530.6 1006.24 531.844 1006.28 Q533.104 1006.29 534.986 1004.41 L538.08 1001.32 L540.6 1003.84 L537.507 1006.93 Q534.02 1010.42 531.402 1010.45 Q528.766 1010.47 525.329 1007.03 L515.377 997.077 L513.168 999.286 L510.827 996.946 L513.037 994.736 L507.831 989.531 L510.86 986.503 Z" fill="#000000" fill-rule="evenodd" fill-opacity="1" /><path clip-path="url(#clip700)" d="M537.016 956.549 Q538.587 962.507 541.206 967.254 Q543.825 972.001 547.606 975.782 Q551.387 979.563 556.167 982.215 Q560.946 984.833 566.871 986.405 L564.252 989.024 Q557.951 987.632 553.008 985.144 Q548.081 982.64 544.414 978.974 Q540.764 975.324 538.276 970.413 Q535.788 965.503 534.397 959.168 L537.016 956.549 Z" fill="#000000" fill-rule="evenodd" fill-opacity="1" /><path clip-path="url(#clip700)" d="M567.411 958.595 Q563.761 962.245 563.188 964.488 Q562.616 966.73 564.629 968.744 Q566.233 970.348 568.23 970.249 Q570.227 970.118 572.044 968.302 Q574.548 965.797 574.286 962.524 Q574.024 959.217 571.078 956.271 L570.407 955.6 L567.411 958.595 M572.175 951.344 L582.634 961.803 L579.622 964.815 L576.84 962.033 Q577.478 964.733 576.741 967.074 Q575.988 969.398 573.762 971.624 Q570.947 974.44 567.706 974.538 Q564.465 974.603 561.814 971.952 Q558.72 968.858 559.211 965.224 Q559.718 961.574 563.827 957.466 L568.05 953.243 L567.755 952.948 Q565.676 950.87 563.172 951.115 Q560.668 951.328 558.196 953.799 Q556.625 955.371 555.512 957.237 Q554.399 959.103 553.777 961.231 L550.994 958.448 Q552.009 956.156 553.253 954.291 Q554.481 952.408 555.954 950.935 Q559.931 946.958 563.958 947.056 Q567.984 947.154 572.175 951.344 Z" fill="#000000" fill-rule="evenodd" fill-opacity="1" /><path clip-path="url(#clip700)" d="M587.953 938.053 Q584.303 941.703 583.73 943.946 Q583.158 946.188 585.171 948.202 Q586.775 949.806 588.772 949.707 Q590.769 949.576 592.586 947.76 Q595.09 945.255 594.828 941.982 Q594.566 938.675 591.62 935.729 L590.949 935.058 L587.953 938.053 M592.717 930.802 L603.176 941.261 L600.164 944.273 L597.382 941.491 Q598.02 944.191 597.283 946.532 Q596.53 948.856 594.304 951.082 Q591.489 953.898 588.248 953.996 Q585.007 954.061 582.356 951.41 Q579.262 948.316 579.753 944.682 Q580.26 941.032 584.369 936.924 L588.592 932.701 L588.297 932.406 Q586.218 930.328 583.714 930.573 Q581.21 930.786 578.738 933.257 Q577.167 934.829 576.054 936.695 Q574.941 938.561 574.319 940.689 L571.536 937.906 Q572.551 935.614 573.795 933.749 Q575.023 931.866 576.496 930.393 Q580.473 926.416 584.5 926.514 Q588.526 926.612 592.717 930.802 Z" fill="#000000" fill-rule="evenodd" fill-opacity="1" /><path clip-path="url(#clip700)" d="M583.469 910.097 L586.088 907.478 Q592.406 908.885 597.316 911.373 Q602.243 913.845 605.893 917.495 Q609.559 921.161 612.047 926.105 Q614.552 931.031 615.943 937.333 L613.324 939.952 Q611.753 934.027 609.117 929.264 Q606.482 924.468 602.701 920.687 Q598.92 916.906 594.157 914.303 Q589.41 911.684 583.469 910.097 Z" fill="#000000" fill-rule="evenodd" fill-opacity="1" /><path clip-path="url(#clip700)" d="M641.773 990.644 L645.325 987.092 L662.151 990.366 L658.828 973.589 L662.38 970.037 L666.538 991.479 L678.175 1003.12 L674.853 1006.44 L663.215 994.802 L641.773 990.644 Z" fill="#000000" fill-rule="evenodd" fill-opacity="1" /><path clip-path="url(#clip700)" d="M691.221 970.233 L692.694 971.706 L678.847 985.554 Q682.153 988.467 685.459 988.434 Q688.766 988.369 691.761 985.374 Q693.496 983.639 694.691 981.593 Q695.902 979.53 696.655 977.075 L699.503 979.923 Q698.57 982.231 697.228 984.293 Q695.886 986.356 694.134 988.107 Q689.748 992.494 684.625 992.51 Q679.518 992.51 675.164 988.156 Q670.663 983.655 670.45 978.597 Q670.237 973.507 674.362 969.382 Q678.061 965.683 682.595 965.928 Q687.129 966.141 691.221 970.233 M687.325 972.361 Q684.821 969.922 681.989 969.807 Q679.174 969.677 676.948 971.903 Q674.427 974.423 674.329 977.37 Q674.247 980.299 676.604 983.115 L687.325 972.361 Z" fill="#000000" fill-rule="evenodd" fill-opacity="1" /><path clip-path="url(#clip700)" d="M705.199 957.662 Q701.549 961.312 700.976 963.555 Q700.403 965.797 702.417 967.811 Q704.021 969.415 706.018 969.316 Q708.015 969.185 709.831 967.369 Q712.336 964.864 712.074 961.591 Q711.812 958.284 708.866 955.338 L708.195 954.667 L705.199 957.662 M709.962 950.411 L720.422 960.87 L717.41 963.882 L714.627 961.1 Q715.266 963.8 714.529 966.141 Q713.776 968.465 711.55 970.691 Q708.735 973.507 705.494 973.605 Q702.253 973.67 699.601 971.019 Q696.508 967.925 696.999 964.291 Q697.506 960.641 701.615 956.533 L705.838 952.31 L705.543 952.015 Q703.464 949.937 700.96 950.182 Q698.456 950.395 695.984 952.866 Q694.413 954.438 693.3 956.304 Q692.187 958.17 691.565 960.298 L688.782 957.515 Q689.797 955.223 691.041 953.358 Q692.268 951.475 693.742 950.002 Q697.719 946.025 701.746 946.123 Q705.772 946.221 709.962 950.411 Z" fill="#000000" fill-rule="evenodd" fill-opacity="1" /><path clip-path="url(#clip700)" d="M720.52 925.188 L723.368 928.036 Q721.436 928.658 719.734 929.706 Q718.032 930.753 716.559 932.226 Q714.316 934.469 713.874 936.286 Q713.449 938.086 714.824 939.461 Q715.871 940.509 717.279 940.312 Q718.67 940.099 721.633 938.217 L722.893 937.415 Q726.789 934.894 729.391 934.812 Q731.994 934.698 734.236 936.94 Q736.79 939.494 736.25 943.013 Q735.726 946.516 732.19 950.051 Q730.717 951.524 728.818 952.834 Q726.952 954.143 724.612 955.338 L721.502 952.228 Q724.039 951.426 726.101 950.248 Q728.147 949.053 729.735 947.465 Q731.863 945.337 732.289 943.471 Q732.698 941.589 731.372 940.263 Q730.144 939.035 728.655 939.215 Q727.182 939.379 723.777 941.572 L722.484 942.375 Q719.096 944.584 716.641 944.617 Q714.169 944.633 712.041 942.505 Q709.455 939.919 709.881 936.678 Q710.306 933.438 713.678 930.066 Q715.347 928.396 717.066 927.169 Q718.785 925.941 720.52 925.188 Z" fill="#000000" fill-rule="evenodd" fill-opacity="1" /><path clip-path="url(#clip700)" d="M723.532 910.686 L728.737 915.891 L734.94 909.687 L737.281 912.028 L731.077 918.232 L741.029 928.183 Q743.272 930.426 744.515 930.459 Q745.776 930.475 747.658 928.593 L750.752 925.499 L753.272 928.02 L750.179 931.113 Q746.692 934.6 744.074 934.632 Q741.438 934.649 738.001 931.211 L728.049 921.26 L725.839 923.469 L723.499 921.129 L725.709 918.919 L720.503 913.714 L723.532 910.686 Z" fill="#000000" fill-rule="evenodd" fill-opacity="1" /><path clip-path="url(#clip700)" d="M646.57 1171.58 L612.802 1156.47 L616.256 1153.02 L644.573 1165.85 L631.756 1137.52 L635.194 1134.08 L650.318 1167.83 L646.57 1171.58 Z" fill="#000000" fill-rule="evenodd" fill-opacity="1" /><path clip-path="url(#clip700)" d="M669.289 1113.6 L672.104 1116.42 Q670.123 1116.99 668.486 1117.94 Q666.85 1118.86 665.54 1120.17 Q662.61 1123.09 662.856 1126.58 Q663.085 1130.05 666.44 1133.41 Q669.796 1136.76 673.282 1137.01 Q676.752 1137.24 679.682 1134.31 Q680.992 1133 681.925 1131.38 Q682.858 1129.72 683.431 1127.74 L686.213 1130.53 Q685.542 1132.38 684.478 1134.03 Q683.431 1135.67 681.908 1137.19 Q677.767 1141.33 672.726 1141.17 Q667.684 1141 663.265 1136.58 Q658.78 1132.1 658.666 1127.07 Q658.567 1122.03 662.856 1117.74 Q664.247 1116.35 665.868 1115.32 Q667.472 1114.27 669.289 1113.6 Z" fill="#000000" fill-rule="evenodd" fill-opacity="1" /><path clip-path="url(#clip700)" d="M696.329 1099.69 L707.393 1110.75 L704.382 1113.77 L693.415 1102.8 Q690.813 1100.2 688.505 1099.92 Q686.197 1099.64 684.167 1101.67 Q681.728 1104.11 681.876 1107.07 Q682.023 1110.03 684.707 1112.72 L695.068 1123.08 L692.04 1126.11 L666.571 1100.64 L669.599 1097.61 L679.584 1107.59 Q679.011 1104.86 679.65 1102.59 Q680.304 1100.29 682.219 1098.38 Q685.378 1095.22 688.963 1095.56 Q692.531 1095.89 696.329 1099.69 Z" fill="#000000" fill-rule="evenodd" fill-opacity="1" /><path clip-path="url(#clip700)" d="M704.284 1081.42 Q701.861 1083.84 702.352 1087.15 Q702.827 1090.44 706.117 1093.73 Q709.407 1097.02 712.697 1097.53 Q715.987 1098 718.426 1095.56 Q720.832 1093.16 720.341 1089.85 Q719.85 1086.54 716.576 1083.27 Q713.319 1080.01 710.012 1079.52 Q706.69 1079.02 704.284 1081.42 M701.73 1078.87 Q705.658 1074.94 710.454 1075.25 Q715.25 1075.56 719.768 1080.08 Q724.269 1084.58 724.596 1089.39 Q724.907 1094.19 720.979 1098.12 Q717.034 1102.06 712.238 1101.75 Q707.443 1101.41 702.941 1096.91 Q698.424 1092.39 698.096 1087.61 Q697.785 1082.81 701.73 1078.87 Z" fill="#000000" fill-rule="evenodd" fill-opacity="1" /><path clip-path="url(#clip700)" d="M708.441 1058.77 L711.453 1055.76 L736.922 1081.23 L733.91 1084.24 L708.441 1058.77 Z" fill="#000000" fill-rule="evenodd" fill-opacity="1" /><path clip-path="url(#clip700)" d="M748.985 1049.32 L750.458 1050.8 L736.611 1064.64 Q739.917 1067.56 743.223 1067.53 Q746.53 1067.46 749.525 1064.46 Q751.26 1062.73 752.455 1060.68 Q753.666 1058.62 754.419 1056.17 L757.267 1059.01 Q756.334 1061.32 754.992 1063.38 Q753.65 1065.45 751.898 1067.2 Q747.512 1071.58 742.389 1071.6 Q737.282 1071.6 732.928 1067.25 Q728.427 1062.75 728.214 1057.69 Q728.001 1052.6 732.126 1048.47 Q735.825 1044.77 740.359 1045.02 Q744.893 1045.23 748.985 1049.32 M745.089 1051.45 Q742.585 1049.01 739.753 1048.9 Q736.938 1048.77 734.712 1050.99 Q732.191 1053.51 732.093 1056.46 Q732.011 1059.39 734.368 1062.21 L745.089 1051.45 Z" fill="#000000" fill-rule="evenodd" fill-opacity="1" /><path clip-path="url(#clip700)" d="M758.953 1028.16 Q758.151 1028.37 757.414 1028.85 Q756.678 1029.29 755.958 1030.01 Q753.404 1032.56 753.699 1035.61 Q753.994 1038.62 757.103 1041.73 L766.761 1051.39 L763.733 1054.41 L745.4 1036.08 L748.428 1033.05 L751.276 1035.9 Q750.556 1033.28 751.276 1030.96 Q751.98 1028.62 754.157 1026.44 Q754.468 1026.13 754.894 1025.8 Q755.303 1025.46 755.843 1025.08 L758.953 1028.16 Z" fill="#000000" fill-rule="evenodd" fill-opacity="1" /><path clip-path="url(#clip700)" d="M776.745 1022.97 Q773.095 1026.62 772.522 1028.86 Q771.949 1031.11 773.963 1033.12 Q775.567 1034.72 777.564 1034.63 Q779.561 1034.49 781.377 1032.68 Q783.882 1030.17 783.62 1026.9 Q783.358 1023.59 780.412 1020.65 L779.741 1019.98 L776.745 1022.97 M781.508 1015.72 L791.968 1026.18 L788.956 1029.19 L786.173 1026.41 Q786.812 1029.11 786.075 1031.45 Q785.322 1033.77 783.096 1036 Q780.281 1038.82 777.04 1038.91 Q773.799 1038.98 771.147 1036.33 Q768.054 1033.23 768.545 1029.6 Q769.052 1025.95 773.161 1021.84 L777.384 1017.62 L777.089 1017.32 Q775.01 1015.25 772.506 1015.49 Q770.002 1015.7 767.53 1018.18 Q765.959 1019.75 764.846 1021.61 Q763.733 1023.48 763.111 1025.61 L760.328 1022.82 Q761.343 1020.53 762.587 1018.67 Q763.814 1016.78 765.288 1015.31 Q769.265 1011.33 773.292 1011.43 Q777.318 1011.53 781.508 1015.72 Z" fill="#000000" fill-rule="evenodd" fill-opacity="1" /><path clip-path="url(#clip700)" d="M803.933 994.376 L805.406 995.849 L791.558 1009.7 Q794.865 1012.61 798.171 1012.58 Q801.477 1012.51 804.473 1009.52 Q806.208 1007.78 807.403 1005.74 Q808.614 1003.67 809.367 1001.22 L812.215 1004.07 Q811.282 1006.37 809.94 1008.44 Q808.598 1010.5 806.846 1012.25 Q802.46 1016.64 797.336 1016.65 Q792.229 1016.65 787.876 1012.3 Q783.374 1007.8 783.162 1002.74 Q782.949 997.65 787.074 993.525 Q790.773 989.826 795.307 990.071 Q799.841 990.284 803.933 994.376 M800.037 996.504 Q797.533 994.065 794.701 993.95 Q791.886 993.82 789.66 996.046 Q787.139 998.566 787.041 1001.51 Q786.959 1004.44 789.316 1007.26 L800.037 996.504 Z" fill="#000000" fill-rule="evenodd" fill-opacity="1" /><path clip-path="url(#clip700)" d="M811.249 956.026 Q812.821 961.984 815.439 966.73 Q818.058 971.477 821.839 975.258 Q825.62 979.039 830.4 981.691 Q835.179 984.31 841.105 985.881 L838.486 988.5 Q832.184 987.109 827.241 984.621 Q822.314 982.116 818.648 978.45 Q814.998 974.8 812.51 969.889 Q810.022 964.979 808.63 958.644 L811.249 956.026 Z" fill="#000000" fill-rule="evenodd" fill-opacity="1" /><path clip-path="url(#clip700)" d="M822.445 959.037 L825.457 956.026 L843.527 966.567 L832.97 948.513 L836.522 944.961 L854.592 955.502 L844.035 937.448 L847.046 934.436 L860.583 957.564 L857.031 961.116 L838.06 950.035 L849.125 969.022 L845.573 972.574 L822.445 959.037 Z" fill="#000000" fill-rule="evenodd" fill-opacity="1" /><path clip-path="url(#clip700)" d="M849.387 921.685 L854.592 926.89 L860.796 920.687 L863.136 923.027 L856.933 929.231 L866.885 939.183 Q869.127 941.425 870.371 941.458 Q871.631 941.474 873.514 939.592 L876.607 936.498 L879.128 939.019 L876.034 942.113 Q872.548 945.599 869.929 945.632 Q867.294 945.648 863.856 942.211 L853.905 932.259 L851.695 934.469 L849.354 932.128 L851.564 929.918 L846.359 924.713 L849.387 921.685 Z" fill="#000000" fill-rule="evenodd" fill-opacity="1" /><path clip-path="url(#clip700)" d="M857.178 910.097 L859.797 907.478 Q866.115 908.885 871.026 911.373 Q875.952 913.845 879.603 917.495 Q883.269 921.161 885.757 926.105 Q888.261 931.031 889.653 937.333 L887.034 939.952 Q885.462 934.027 882.827 929.264 Q880.192 924.468 876.411 920.687 Q872.63 916.906 867.867 914.303 Q863.12 911.684 857.178 910.097 Z" fill="#000000" fill-rule="evenodd" fill-opacity="1" /><path clip-path="url(#clip700)" d="M752.521 1202.48 L718.754 1187.37 L722.208 1183.92 L750.524 1196.75 L737.708 1168.42 L741.145 1164.98 L756.27 1198.73 L752.521 1202.48 Z" fill="#000000" fill-rule="evenodd" fill-opacity="1" /><path clip-path="url(#clip700)" d="M775.24 1144.5 L778.056 1147.32 Q776.075 1147.89 774.438 1148.84 Q772.801 1149.76 771.492 1151.07 Q768.562 1154 768.808 1157.48 Q769.037 1160.95 772.392 1164.31 Q775.748 1167.67 779.234 1167.91 Q782.704 1168.14 785.634 1165.21 Q786.943 1163.9 787.876 1162.28 Q788.809 1160.63 789.382 1158.65 L792.165 1161.43 Q791.494 1163.28 790.43 1164.93 Q789.382 1166.57 787.86 1168.09 Q783.719 1172.23 778.678 1172.07 Q773.636 1171.9 769.217 1167.49 Q764.732 1163 764.617 1157.98 Q764.519 1152.93 768.808 1148.65 Q770.199 1147.25 771.819 1146.22 Q773.423 1145.18 775.24 1144.5 Z" fill="#000000" fill-rule="evenodd" fill-opacity="1" /><path clip-path="url(#clip700)" d="M802.28 1130.59 L813.345 1141.66 L810.334 1144.67 L799.367 1133.7 Q796.764 1131.1 794.456 1130.82 Q792.149 1130.54 790.119 1132.57 Q787.68 1135.01 787.827 1137.97 Q787.975 1140.94 790.659 1143.62 L801.02 1153.98 L797.992 1157.01 L772.523 1131.54 L775.551 1128.51 L785.536 1138.5 Q784.963 1135.76 785.601 1133.49 Q786.256 1131.2 788.171 1129.28 Q791.33 1126.12 794.915 1126.47 Q798.483 1126.79 802.28 1130.59 Z" fill="#000000" fill-rule="evenodd" fill-opacity="1" /><path clip-path="url(#clip700)" d="M810.235 1112.32 Q807.813 1114.75 808.304 1118.05 Q808.779 1121.34 812.069 1124.63 Q815.359 1127.92 818.649 1128.43 Q821.939 1128.91 824.377 1126.47 Q826.784 1124.06 826.292 1120.75 Q825.801 1117.45 822.528 1114.17 Q819.271 1110.92 815.964 1110.43 Q812.641 1109.92 810.235 1112.32 M807.682 1109.77 Q811.61 1105.84 816.406 1106.15 Q821.202 1106.46 825.72 1110.98 Q830.221 1115.48 830.548 1120.3 Q830.859 1125.09 826.931 1129.02 Q822.986 1132.96 818.19 1132.65 Q813.394 1132.31 808.893 1127.81 Q804.376 1123.29 804.048 1118.51 Q803.737 1113.72 807.682 1109.77 Z" fill="#000000" fill-rule="evenodd" fill-opacity="1" /><path clip-path="url(#clip700)" d="M814.393 1089.67 L817.405 1086.66 L842.873 1112.13 L839.862 1115.14 L814.393 1089.67 Z" fill="#000000" fill-rule="evenodd" fill-opacity="1" /><path clip-path="url(#clip700)" d="M854.937 1080.23 L856.41 1081.7 L842.562 1095.55 Q845.869 1098.46 849.175 1098.43 Q852.481 1098.36 855.477 1095.37 Q857.212 1093.63 858.407 1091.59 Q859.618 1089.52 860.371 1087.07 L863.219 1089.92 Q862.286 1092.22 860.944 1094.29 Q859.602 1096.35 857.85 1098.1 Q853.464 1102.49 848.34 1102.5 Q843.233 1102.5 838.88 1098.15 Q834.378 1093.65 834.166 1088.59 Q833.953 1083.5 838.078 1079.38 Q841.777 1075.68 846.311 1075.92 Q850.845 1076.13 854.937 1080.23 M851.041 1082.35 Q848.537 1079.92 845.705 1079.8 Q842.89 1079.67 840.664 1081.9 Q838.143 1084.42 838.045 1087.36 Q837.963 1090.29 840.32 1093.11 L851.041 1082.35 Z" fill="#000000" fill-rule="evenodd" fill-opacity="1" /><path clip-path="url(#clip700)" d="M864.905 1059.06 Q864.103 1059.28 863.366 1059.75 Q862.63 1060.19 861.91 1060.91 Q859.356 1063.47 859.651 1066.51 Q859.945 1069.52 863.055 1072.63 L872.712 1082.29 L869.684 1085.32 L851.352 1066.99 L854.38 1063.96 L857.228 1066.8 Q856.508 1064.19 857.228 1061.86 Q857.932 1059.52 860.109 1057.34 Q860.42 1057.03 860.846 1056.71 Q861.255 1056.36 861.795 1055.99 L864.905 1059.06 Z" fill="#000000" fill-rule="evenodd" fill-opacity="1" /><path clip-path="url(#clip700)" d="M882.697 1053.87 Q879.047 1057.52 878.474 1059.77 Q877.901 1062.01 879.914 1064.02 Q881.519 1065.63 883.515 1065.53 Q885.512 1065.4 887.329 1063.58 Q889.834 1061.08 889.572 1057.8 Q889.31 1054.5 886.363 1051.55 L885.692 1050.88 L882.697 1053.87 M887.46 1046.62 L897.919 1057.08 L894.908 1060.09 L892.125 1057.31 Q892.763 1060.01 892.027 1062.35 Q891.274 1064.68 889.048 1066.9 Q886.233 1069.72 882.992 1069.82 Q879.751 1069.88 877.099 1067.23 Q874.006 1064.14 874.497 1060.5 Q875.004 1056.85 879.112 1052.74 L883.335 1048.52 L883.041 1048.23 Q880.962 1046.15 878.458 1046.39 Q875.953 1046.61 873.482 1049.08 Q871.91 1050.65 870.797 1052.52 Q869.684 1054.38 869.062 1056.51 L866.28 1053.73 Q867.295 1051.44 868.539 1049.57 Q869.766 1047.69 871.239 1046.21 Q875.217 1042.24 879.243 1042.33 Q883.27 1042.43 887.46 1046.62 Z" fill="#000000" fill-rule="evenodd" fill-opacity="1" /><path clip-path="url(#clip700)" d="M909.884 1025.28 L911.358 1026.75 L897.51 1040.6 Q900.817 1043.51 904.123 1043.48 Q907.429 1043.41 910.425 1040.42 Q912.16 1038.68 913.355 1036.64 Q914.566 1034.58 915.319 1032.12 L918.167 1034.97 Q917.234 1037.28 915.892 1039.34 Q914.549 1041.4 912.798 1043.15 Q908.411 1047.54 903.288 1047.56 Q898.181 1047.56 893.827 1043.2 Q889.326 1038.7 889.113 1033.64 Q888.901 1028.55 893.025 1024.43 Q896.725 1020.73 901.258 1020.97 Q905.792 1021.19 909.884 1025.28 M905.989 1027.41 Q903.485 1024.97 900.653 1024.85 Q897.838 1024.72 895.611 1026.95 Q893.091 1029.47 892.993 1032.42 Q892.911 1035.35 895.268 1038.16 L905.989 1027.41 Z" fill="#000000" fill-rule="evenodd" fill-opacity="1" /><path clip-path="url(#clip700)" d="M917.201 986.929 Q918.772 992.887 921.391 997.633 Q924.01 1002.38 927.791 1006.16 Q931.572 1009.94 936.352 1012.59 Q941.131 1015.21 947.056 1016.78 L944.438 1019.4 Q938.136 1018.01 933.193 1015.52 Q928.266 1013.02 924.599 1009.35 Q920.949 1005.7 918.461 1000.79 Q915.973 995.882 914.582 989.547 L917.201 986.929 Z" fill="#000000" fill-rule="evenodd" fill-opacity="1" /><path clip-path="url(#clip700)" d="M954.242 980.921 L955.715 982.395 L941.868 996.242 Q945.174 999.156 948.481 999.123 Q951.787 999.057 954.782 996.062 Q956.517 994.327 957.712 992.281 Q958.923 990.219 959.676 987.763 L962.524 990.611 Q961.591 992.919 960.249 994.982 Q958.907 997.044 957.156 998.795 Q952.769 1003.18 947.646 1003.2 Q942.539 1003.2 938.185 998.845 Q933.684 994.343 933.471 989.286 Q933.258 984.195 937.383 980.07 Q941.082 976.371 945.616 976.617 Q950.15 976.829 954.242 980.921 M950.346 983.049 Q947.842 980.61 945.01 980.496 Q942.195 980.365 939.969 982.591 Q937.448 985.112 937.35 988.058 Q937.268 990.988 939.625 993.803 L950.346 983.049 Z" fill="#000000" fill-rule="evenodd" fill-opacity="1" /><path clip-path="url(#clip700)" d="M969.268 980.234 L978.991 989.957 L975.963 992.985 L950.657 967.68 L953.686 964.652 L956.468 967.434 Q955.781 964.848 956.435 962.622 Q957.09 960.363 959.103 958.35 Q962.443 955.011 967.173 955.584 Q971.92 956.14 976.241 960.461 Q980.562 964.782 981.119 969.529 Q981.691 974.26 978.352 977.599 Q976.339 979.612 974.097 980.283 Q971.854 980.921 969.268 980.234 M973.115 963.588 Q969.792 960.265 966.535 959.757 Q963.277 959.217 960.888 961.607 Q958.498 963.997 959.022 967.27 Q959.545 970.511 962.868 973.834 Q966.191 977.157 969.448 977.697 Q972.705 978.204 975.095 975.815 Q977.485 973.425 976.961 970.184 Q976.437 966.91 973.115 963.588 Z" fill="#000000" fill-rule="evenodd" fill-opacity="1" /><path clip-path="url(#clip700)" d="M984.278 935.14 L987.126 937.988 Q985.194 938.61 983.492 939.657 Q981.79 940.705 980.317 942.178 Q978.074 944.421 977.632 946.237 Q977.207 948.038 978.582 949.413 Q979.629 950.46 981.037 950.264 Q982.428 950.051 985.391 948.169 L986.651 947.367 Q990.547 944.846 993.149 944.764 Q995.752 944.65 997.994 946.892 Q1000.55 949.446 1000.01 952.965 Q999.484 956.467 995.948 960.003 Q994.475 961.476 992.576 962.786 Q990.71 964.095 988.37 965.29 L985.26 962.18 Q987.797 961.378 989.859 960.199 Q991.905 959.005 993.493 957.417 Q995.621 955.289 996.046 953.423 Q996.455 951.541 995.13 950.215 Q993.902 948.987 992.413 949.167 Q990.939 949.331 987.535 951.524 L986.242 952.326 Q982.854 954.536 980.398 954.569 Q977.927 954.585 975.799 952.457 Q973.213 949.871 973.638 946.63 Q974.064 943.389 977.436 940.017 Q979.105 938.348 980.824 937.12 Q982.543 935.893 984.278 935.14 Z" fill="#000000" fill-rule="evenodd" fill-opacity="1" /><path clip-path="url(#clip700)" d="M995.801 938.152 L1004.62 929.329 L1007.31 932.013 L998.485 940.836 L995.801 938.152 Z" fill="#000000" fill-rule="evenodd" fill-opacity="1" /><path clip-path="url(#clip700)" d="M994.033 910.097 L996.652 907.478 Q1002.97 908.885 1007.88 911.373 Q1012.81 913.845 1016.46 917.495 Q1020.12 921.161 1022.61 926.105 Q1025.12 931.031 1026.51 937.333 L1023.89 939.952 Q1022.32 934.027 1019.68 929.264 Q1017.05 924.468 1013.27 920.687 Q1009.48 916.906 1004.72 914.303 Q999.975 911.684 994.033 910.097 Z" fill="#000000" fill-rule="evenodd" fill-opacity="1" /><path clip-path="url(#clip700)" d="M985.964 1057.02 L989.271 1053.71 L999.599 1064.04 L1000.24 1042.74 L1004.49 1038.49 L1003.76 1062.01 L1029.8 1062.06 L1025.44 1066.41 L1001.94 1066.38 L1013.71 1078.15 L1010.4 1081.45 L985.964 1057.02 Z" fill="#000000" fill-rule="evenodd" fill-opacity="1" /><path clip-path="url(#clip700)" d="M1006.78 1034.13 L1009.8 1031.12 L1035.27 1056.59 L1032.25 1059.6 L1006.78 1034.13 Z" fill="#000000" fill-rule="evenodd" fill-opacity="1" /><path clip-path="url(#clip700)" d="M1047.33 1024.69 L1048.8 1026.16 L1034.95 1040.01 Q1038.26 1042.92 1041.57 1042.89 Q1044.87 1042.83 1047.87 1039.83 Q1049.6 1038.1 1050.8 1036.05 Q1052.01 1033.99 1052.76 1031.53 L1055.61 1034.38 Q1054.68 1036.69 1053.34 1038.75 Q1051.99 1040.81 1050.24 1042.56 Q1045.86 1046.95 1040.73 1046.97 Q1035.63 1046.97 1031.27 1042.61 Q1026.77 1038.11 1026.56 1033.05 Q1026.34 1027.96 1030.47 1023.84 Q1034.17 1020.14 1038.7 1020.38 Q1043.24 1020.6 1047.33 1024.69 M1043.43 1026.82 Q1040.93 1024.38 1038.1 1024.26 Q1035.28 1024.13 1033.06 1026.36 Q1030.53 1028.88 1030.44 1031.83 Q1030.35 1034.76 1032.71 1037.57 L1043.43 1026.82 Z" fill="#000000" fill-rule="evenodd" fill-opacity="1" /><path clip-path="url(#clip700)" d="M1066.2 1007.36 Q1062.88 1004.03 1059.62 1003.53 Q1056.36 1002.99 1053.97 1005.38 Q1051.58 1007.77 1052.11 1011.04 Q1052.63 1014.28 1055.95 1017.6 Q1059.28 1020.93 1062.53 1021.47 Q1065.79 1021.97 1068.18 1019.58 Q1070.57 1017.19 1070.05 1013.95 Q1069.52 1010.68 1066.2 1007.36 M1049.55 1011.2 Q1048.87 1008.62 1049.52 1006.39 Q1050.18 1004.13 1052.19 1002.12 Q1055.53 998.779 1060.26 999.352 Q1065.01 999.908 1069.33 1004.23 Q1073.65 1008.55 1074.21 1013.3 Q1074.78 1018.03 1071.44 1021.37 Q1069.43 1023.38 1067.18 1024.05 Q1064.94 1024.69 1062.35 1024 L1065.1 1026.75 L1062.08 1029.78 L1036.61 1004.31 L1039.64 1001.28 L1049.55 1011.2 Z" fill="#000000" fill-rule="evenodd" fill-opacity="1" /><path clip-path="url(#clip700)" d="M1077.36 978.908 L1080.21 981.756 Q1078.28 982.378 1076.58 983.426 Q1074.88 984.473 1073.4 985.946 Q1071.16 988.189 1070.72 990.006 Q1070.29 991.806 1071.67 993.181 Q1072.72 994.229 1074.12 994.032 Q1075.51 993.82 1078.48 991.937 L1079.74 991.135 Q1083.63 988.614 1086.24 988.533 Q1088.84 988.418 1091.08 990.66 Q1093.63 993.214 1093.09 996.733 Q1092.57 1000.24 1089.03 1003.77 Q1087.56 1005.24 1085.66 1006.55 Q1083.8 1007.86 1081.46 1009.06 L1078.35 1005.95 Q1080.88 1005.15 1082.95 1003.97 Q1084.99 1002.77 1086.58 1001.19 Q1088.71 999.057 1089.13 997.191 Q1089.54 995.309 1088.22 993.983 Q1086.99 992.756 1085.5 992.936 Q1084.03 993.099 1080.62 995.293 L1079.33 996.095 Q1075.94 998.304 1073.48 998.337 Q1071.01 998.353 1068.89 996.226 Q1066.3 993.639 1066.72 990.399 Q1067.15 987.158 1070.52 983.786 Q1072.19 982.116 1073.91 980.889 Q1075.63 979.661 1077.36 978.908 Z" fill="#000000" fill-rule="evenodd" fill-opacity="1" /><path clip-path="url(#clip700)" d="M1082.6 972.59 L1085.61 969.578 L1103.95 987.911 L1100.93 990.922 L1082.6 972.59 M1075.47 965.454 L1078.48 962.442 L1082.29 966.256 L1079.28 969.267 L1075.47 965.454 Z" fill="#000000" fill-rule="evenodd" fill-opacity="1" /><path clip-path="url(#clip700)" d="M1116.01 956.009 L1117.48 957.482 L1103.63 971.33 Q1106.94 974.243 1110.25 974.211 Q1113.55 974.145 1116.55 971.15 Q1118.28 969.415 1119.48 967.369 Q1120.69 965.306 1121.44 962.851 L1124.29 965.699 Q1123.36 968.007 1122.02 970.069 Q1120.67 972.132 1118.92 973.883 Q1114.54 978.27 1109.41 978.286 Q1104.31 978.286 1099.95 973.932 Q1095.45 969.431 1095.24 964.373 Q1095.03 959.283 1099.15 955.158 Q1102.85 951.459 1107.38 951.704 Q1111.92 951.917 1116.01 956.009 M1112.11 958.137 Q1109.61 955.698 1106.78 955.584 Q1103.96 955.453 1101.74 957.679 Q1099.22 960.199 1099.12 963.146 Q1099.04 966.076 1101.39 968.891 L1112.11 958.137 Z" fill="#000000" fill-rule="evenodd" fill-opacity="1" /><path clip-path="url(#clip700)" d="M1105.4 935.516 L1108.41 932.505 L1133.88 957.973 L1130.87 960.985 L1105.4 935.516 Z" fill="#000000" fill-rule="evenodd" fill-opacity="1" /><path clip-path="url(#clip700)" d="M1114.72 926.203 L1117.73 923.191 L1143.2 948.66 L1140.18 951.672 L1114.72 926.203 Z" fill="#000000" fill-rule="evenodd" fill-opacity="1" /><path clip-path="url(#clip700)" d="M1148.61 924.812 Q1144.96 928.462 1144.39 930.704 Q1143.82 932.946 1145.83 934.96 Q1147.44 936.564 1149.43 936.466 Q1151.43 936.335 1153.25 934.518 Q1155.75 932.013 1155.49 928.74 Q1155.23 925.434 1152.28 922.487 L1151.61 921.816 L1148.61 924.812 M1153.38 917.56 L1163.84 928.02 L1160.83 931.031 L1158.04 928.249 Q1158.68 930.95 1157.94 933.29 Q1157.19 935.614 1154.97 937.841 Q1152.15 940.656 1148.91 940.754 Q1145.67 940.82 1143.02 938.168 Q1139.92 935.074 1140.41 931.441 Q1140.92 927.791 1145.03 923.682 L1149.25 919.459 L1148.96 919.165 Q1146.88 917.086 1144.38 917.331 Q1141.87 917.544 1139.4 920.016 Q1137.83 921.587 1136.71 923.453 Q1135.6 925.319 1134.98 927.447 L1132.2 924.664 Q1133.21 922.373 1134.46 920.507 Q1135.68 918.624 1137.16 917.151 Q1141.13 913.174 1145.16 913.272 Q1149.19 913.37 1153.38 917.56 Z" fill="#000000" fill-rule="evenodd" fill-opacity="1" /><path clip-path="url(#clip700)" d="M1152.17 1053.2 L1161.12 1062.16 L1166.42 1056.85 Q1169.09 1054.19 1169.27 1051.81 Q1169.45 1049.41 1167.18 1047.13 Q1164.89 1044.84 1162.51 1045.05 Q1160.14 1045.23 1157.47 1047.9 L1152.17 1053.2 M1142.12 1043.15 L1149.48 1050.52 L1154.38 1045.62 Q1156.8 1043.2 1157.08 1041.12 Q1157.36 1039.01 1155.49 1037.15 Q1153.64 1035.3 1151.53 1035.57 Q1149.43 1035.84 1147.01 1038.26 L1142.12 1043.15 M1136.09 1043.74 L1144.54 1035.3 Q1148.32 1031.52 1151.94 1031.04 Q1155.56 1030.57 1158.45 1033.46 Q1160.7 1035.71 1160.97 1038.08 Q1161.25 1040.45 1159.55 1042.81 Q1162.51 1040.89 1165.52 1041.22 Q1168.54 1041.52 1171.02 1044 Q1174.3 1047.28 1173.86 1051.29 Q1173.41 1055.3 1169.3 1059.41 L1160.53 1068.18 L1136.09 1043.74 Z" fill="#000000" fill-rule="evenodd" fill-opacity="1" /><path clip-path="url(#clip700)" d="M1189.62 1003.84 L1192.43 1006.65 Q1190.45 1007.23 1188.82 1008.17 Q1187.18 1009.09 1185.87 1010.4 Q1182.94 1013.33 1183.18 1016.82 Q1183.41 1020.29 1186.77 1023.64 Q1190.12 1027 1193.61 1027.24 Q1197.08 1027.47 1200.01 1024.54 Q1201.32 1023.23 1202.25 1021.61 Q1203.19 1019.96 1203.76 1017.98 L1206.54 1020.76 Q1205.87 1022.61 1204.81 1024.26 Q1203.76 1025.9 1202.24 1027.42 Q1198.1 1031.56 1193.05 1031.4 Q1188.01 1031.24 1183.59 1026.82 Q1179.11 1022.33 1178.99 1017.31 Q1178.9 1012.27 1183.18 1007.98 Q1184.58 1006.59 1186.2 1005.56 Q1187.8 1004.51 1189.62 1003.84 Z" fill="#000000" fill-rule="evenodd" fill-opacity="1" /><path clip-path="url(#clip700)" d="M1218.25 990.628 L1219.72 992.101 L1205.87 1005.95 Q1209.18 1008.86 1212.48 1008.83 Q1215.79 1008.76 1218.79 1005.77 Q1220.52 1004.03 1221.72 1001.99 Q1222.93 999.925 1223.68 997.47 L1226.53 1000.32 Q1225.59 1002.63 1224.25 1004.69 Q1222.91 1006.75 1221.16 1008.5 Q1216.77 1012.89 1211.65 1012.9 Q1206.54 1012.9 1202.19 1008.55 Q1197.69 1004.05 1197.47 998.992 Q1197.26 993.901 1201.39 989.777 Q1205.09 986.077 1209.62 986.323 Q1214.15 986.536 1218.25 990.628 M1214.35 992.756 Q1211.85 990.317 1209.01 990.202 Q1206.2 990.071 1203.97 992.297 Q1201.45 994.818 1201.35 997.764 Q1201.27 1000.69 1203.63 1003.51 L1214.35 992.756 Z" fill="#000000" fill-rule="evenodd" fill-opacity="1" /><path clip-path="url(#clip700)" d="M1228.21 969.464 Q1227.41 969.677 1226.67 970.151 Q1225.94 970.593 1225.22 971.313 Q1222.66 973.867 1222.96 976.911 Q1223.25 979.923 1226.36 983.033 L1236.02 992.69 L1232.99 995.718 L1214.66 977.386 L1217.69 974.358 L1220.54 977.206 Q1219.82 974.587 1220.54 972.263 Q1221.24 969.922 1223.42 967.745 Q1223.73 967.434 1224.15 967.107 Q1224.56 966.763 1225.1 966.387 L1228.21 969.464 Z" fill="#000000" fill-rule="evenodd" fill-opacity="1" /><path clip-path="url(#clip700)" d="M1251.91 956.959 L1253.39 958.432 L1239.54 972.279 Q1242.85 975.193 1246.15 975.16 Q1249.46 975.094 1252.45 972.099 Q1254.19 970.364 1255.38 968.318 Q1256.6 966.256 1257.35 963.8 L1260.2 966.648 Q1259.26 968.956 1257.92 971.019 Q1256.58 973.081 1254.83 974.833 Q1250.44 979.219 1245.32 979.236 Q1240.21 979.236 1235.86 974.882 Q1231.36 970.38 1231.14 965.323 Q1230.93 960.232 1235.06 956.107 Q1238.75 952.408 1243.29 952.654 Q1247.82 952.866 1251.91 956.959 M1248.02 959.086 Q1245.51 956.648 1242.68 956.533 Q1239.87 956.402 1237.64 958.628 Q1235.12 961.149 1235.02 964.095 Q1234.94 967.025 1237.3 969.84 L1248.02 959.086 Z" fill="#000000" fill-rule="evenodd" fill-opacity="1" /><path clip-path="url(#clip700)" d="M1259.23 955.011 L1248.13 943.913 L1251.15 940.901 L1262.13 951.884 Q1264.73 954.487 1267.06 954.782 Q1269.36 955.06 1271.39 953.03 Q1273.83 950.591 1273.68 947.629 Q1273.55 944.65 1270.87 941.965 L1260.48 931.572 L1263.49 928.56 L1281.82 946.892 L1278.81 949.904 L1275.99 947.089 Q1276.57 949.855 1275.93 952.13 Q1275.29 954.372 1273.37 956.287 Q1270.21 959.446 1266.61 959.119 Q1263.01 958.792 1259.23 955.011 M1255.27 935.893 L1255.27 935.893 Z" fill="#000000" fill-rule="evenodd" fill-opacity="1" /><path clip-path="url(#clip700)" d="M1281.92 911.21 L1284.77 914.058 Q1282.83 914.68 1281.13 915.727 Q1279.43 916.775 1277.96 918.248 Q1275.71 920.49 1275.27 922.307 Q1274.85 924.108 1276.22 925.483 Q1277.27 926.53 1278.68 926.334 Q1280.07 926.121 1283.03 924.239 L1284.29 923.437 Q1288.19 920.916 1290.79 920.834 Q1293.39 920.719 1295.63 922.962 Q1298.19 925.515 1297.65 929.034 Q1297.12 932.537 1293.59 936.073 Q1292.11 937.546 1290.22 938.855 Q1288.35 940.165 1286.01 941.36 L1282.9 938.25 Q1285.44 937.448 1287.5 936.269 Q1289.54 935.074 1291.13 933.487 Q1293.26 931.359 1293.69 929.493 Q1294.1 927.61 1292.77 926.285 Q1291.54 925.057 1290.05 925.237 Q1288.58 925.401 1285.17 927.594 L1283.88 928.396 Q1280.49 930.606 1278.04 930.639 Q1275.57 930.655 1273.44 928.527 Q1270.85 925.941 1271.28 922.7 Q1271.7 919.459 1275.08 916.087 Q1276.75 914.418 1278.46 913.19 Q1280.18 911.963 1281.92 911.21 Z" fill="#000000" fill-rule="evenodd" fill-opacity="1" /><path clip-path="url(#clip700)" d="M1287.39 1030.91 L1290.61 1034.13 Q1287.83 1035.12 1285.72 1036.34 Q1283.6 1037.57 1282.05 1039.13 Q1279.35 1041.83 1278.92 1044.35 Q1278.51 1046.85 1280.45 1048.78 Q1282.07 1050.4 1283.87 1050.27 Q1285.67 1050.11 1288.89 1047.9 L1291.3 1046.31 Q1295.7 1043.32 1299.24 1043.35 Q1302.77 1043.35 1305.75 1046.33 Q1309.3 1049.88 1308.75 1054.1 Q1308.21 1058.31 1303.61 1062.91 Q1301.87 1064.64 1299.51 1066.22 Q1297.17 1067.77 1294.31 1069.1 L1290.9 1065.69 Q1294.05 1064.81 1296.55 1063.45 Q1299.06 1062.09 1300.92 1060.23 Q1303.75 1057.39 1304.18 1054.74 Q1304.6 1052.09 1302.54 1050.03 Q1300.74 1048.23 1298.61 1048.33 Q1296.5 1048.41 1293.47 1050.42 L1291.07 1052.04 Q1286.63 1055 1283.41 1055.09 Q1280.18 1055.17 1277.38 1052.37 Q1274.14 1049.13 1274.55 1044.99 Q1274.98 1040.83 1278.99 1036.82 Q1280.71 1035.1 1282.8 1033.63 Q1284.9 1032.15 1287.39 1030.91 Z" fill="#000000" fill-rule="evenodd" fill-opacity="1" /><path clip-path="url(#clip700)" d="M1327.29 1019.84 Q1323.64 1023.49 1323.07 1025.74 Q1322.49 1027.98 1324.51 1029.99 Q1326.11 1031.6 1328.11 1031.5 Q1330.11 1031.37 1331.92 1029.55 Q1334.43 1027.05 1334.17 1023.77 Q1333.9 1020.47 1330.96 1017.52 L1330.29 1016.85 L1327.29 1019.84 M1332.05 1012.59 L1342.51 1023.05 L1339.5 1026.06 L1336.72 1023.28 Q1337.36 1025.98 1336.62 1028.32 Q1335.87 1030.65 1333.64 1032.87 Q1330.83 1035.69 1327.59 1035.79 Q1324.34 1035.85 1321.69 1033.2 Q1318.6 1030.11 1319.09 1026.47 Q1319.6 1022.82 1323.71 1018.72 L1327.93 1014.49 L1327.63 1014.2 Q1325.56 1012.12 1323.05 1012.36 Q1320.55 1012.58 1318.08 1015.05 Q1316.5 1016.62 1315.39 1018.49 Q1314.28 1020.35 1313.66 1022.48 L1310.87 1019.7 Q1311.89 1017.41 1313.13 1015.54 Q1314.36 1013.66 1315.83 1012.18 Q1319.81 1008.21 1323.84 1008.31 Q1327.86 1008.4 1332.05 1012.59 Z" fill="#000000" fill-rule="evenodd" fill-opacity="1" /><path clip-path="url(#clip700)" d="M1341.17 1009.93 L1330.07 998.828 L1333.09 995.816 L1344.07 1006.8 Q1346.67 1009.4 1348.99 1009.7 Q1351.3 1009.97 1353.33 1007.95 Q1355.77 1005.51 1355.62 1002.54 Q1355.49 999.565 1352.81 996.88 L1342.41 986.487 L1345.43 983.475 L1363.76 1001.81 L1360.75 1004.82 L1357.93 1002 Q1358.5 1004.77 1357.87 1007.04 Q1357.23 1009.29 1355.31 1011.2 Q1352.15 1014.36 1348.55 1014.03 Q1344.95 1013.71 1341.17 1009.93 M1337.21 990.808 L1337.21 990.808 Z" fill="#000000" fill-rule="evenodd" fill-opacity="1" /><path clip-path="url(#clip700)" d="M1365.07 969.464 Q1364.27 969.677 1363.53 970.151 Q1362.79 970.593 1362.07 971.313 Q1359.52 973.867 1359.81 976.911 Q1360.11 979.923 1363.22 983.033 L1372.88 992.69 L1369.85 995.718 L1351.52 977.386 L1354.54 974.358 L1357.39 977.206 Q1356.67 974.587 1357.39 972.263 Q1358.1 969.922 1360.27 967.745 Q1360.58 967.434 1361.01 967.107 Q1361.42 966.763 1361.96 966.387 L1365.07 969.464 Z" fill="#000000" fill-rule="evenodd" fill-opacity="1" /><path clip-path="url(#clip700)" d="M1388.77 956.959 L1390.24 958.432 L1376.4 972.279 Q1379.7 975.193 1383.01 975.16 Q1386.31 975.094 1389.31 972.099 Q1391.04 970.364 1392.24 968.318 Q1393.45 966.256 1394.2 963.8 L1397.05 966.648 Q1396.12 968.956 1394.78 971.019 Q1393.43 973.081 1391.68 974.833 Q1387.3 979.219 1382.17 979.236 Q1377.07 979.236 1372.71 974.882 Q1368.21 970.38 1368 965.323 Q1367.79 960.232 1371.91 956.107 Q1375.61 952.408 1380.14 952.654 Q1384.68 952.866 1388.77 956.959 M1384.87 959.086 Q1382.37 956.648 1379.54 956.533 Q1376.72 956.402 1374.5 958.628 Q1371.98 961.149 1371.88 964.095 Q1371.8 967.025 1374.15 969.84 L1384.87 959.086 Z" fill="#000000" fill-rule="evenodd" fill-opacity="1" /><path clip-path="url(#clip700)" d="M1396.09 955.011 L1384.99 943.913 L1388 940.901 L1398.98 951.884 Q1401.59 954.487 1403.91 954.782 Q1406.22 955.06 1408.25 953.03 Q1410.69 950.591 1410.54 947.629 Q1410.41 944.65 1407.72 941.965 L1397.33 931.572 L1400.34 928.56 L1418.67 946.892 L1415.66 949.904 L1412.85 947.089 Q1413.42 949.855 1412.78 952.13 Q1412.14 954.372 1410.23 956.287 Q1407.07 959.446 1403.47 959.119 Q1399.87 958.792 1396.09 955.011 M1392.12 935.893 L1392.12 935.893 Z" fill="#000000" fill-rule="evenodd" fill-opacity="1" /><path clip-path="url(#clip700)" d="M1418.77 911.21 L1421.62 914.058 Q1419.69 914.68 1417.99 915.727 Q1416.28 916.775 1414.81 918.248 Q1412.57 920.49 1412.13 922.307 Q1411.7 924.108 1413.08 925.483 Q1414.12 926.53 1415.53 926.334 Q1416.92 926.121 1419.89 924.239 L1421.15 923.437 Q1425.04 920.916 1427.64 920.834 Q1430.25 920.719 1432.49 922.962 Q1435.04 925.515 1434.5 929.034 Q1433.98 932.537 1430.44 936.073 Q1428.97 937.546 1427.07 938.855 Q1425.2 940.165 1422.86 941.36 L1419.75 938.25 Q1422.29 937.448 1424.35 936.269 Q1426.4 935.074 1427.99 933.487 Q1430.12 931.359 1430.54 929.493 Q1430.95 927.61 1429.62 926.285 Q1428.4 925.057 1426.91 925.237 Q1425.43 925.401 1422.03 927.594 L1420.74 928.396 Q1417.35 930.606 1414.89 930.639 Q1412.42 930.655 1410.29 928.527 Q1407.71 925.941 1408.13 922.7 Q1408.56 919.459 1411.93 916.087 Q1413.6 914.418 1415.32 913.19 Q1417.04 911.963 1418.77 911.21 Z" fill="#000000" fill-rule="evenodd" fill-opacity="1" /><polyline clip-path="url(#clip700)" style="stroke:#000000; stroke-linecap:butt; stroke-linejoin:round; stroke-width:4; stroke-opacity:1; fill:none" points="
  203.061,884.673 203.061,47.2441 
  "/>
<polyline clip-path="url(#clip700)" style="stroke:#000000; stroke-linecap:butt; stroke-linejoin:round; stroke-width:4; stroke-opacity:1; fill:none" points="
  203.061,860.972 221.959,860.972 
  "/>
<polyline clip-path="url(#clip700)" style="stroke:#000000; stroke-linecap:butt; stroke-linejoin:round; stroke-width:4; stroke-opacity:1; fill:none" points="
  203.061,679.44 221.959,679.44 
  "/>
<polyline clip-path="url(#clip700)" style="stroke:#000000; stroke-linecap:butt; stroke-linejoin:round; stroke-width:4; stroke-opacity:1; fill:none" points="
  203.061,497.908 221.959,497.908 
  "/>
<polyline clip-path="url(#clip700)" style="stroke:#000000; stroke-linecap:butt; stroke-linejoin:round; stroke-width:4; stroke-opacity:1; fill:none" points="
  203.061,316.376 221.959,316.376 
  "/>
<polyline clip-path="url(#clip700)" style="stroke:#000000; stroke-linecap:butt; stroke-linejoin:round; stroke-width:4; stroke-opacity:1; fill:none" points="
  203.061,134.844 221.959,134.844 
  "/>
<path clip-path="url(#clip700)" d="M167.117 846.771 Q163.506 846.771 161.677 850.335 Q159.871 853.877 159.871 861.007 Q159.871 868.113 161.677 871.678 Q163.506 875.219 167.117 875.219 Q170.751 875.219 172.556 871.678 Q174.385 868.113 174.385 861.007 Q174.385 853.877 172.556 850.335 Q170.751 846.771 167.117 846.771 M167.117 843.067 Q172.927 843.067 175.982 847.673 Q179.061 852.257 179.061 861.007 Q179.061 869.733 175.982 874.34 Q172.927 878.923 167.117 878.923 Q161.306 878.923 158.228 874.34 Q155.172 869.733 155.172 861.007 Q155.172 852.257 158.228 847.673 Q161.306 843.067 167.117 843.067 Z" fill="#000000" fill-rule="evenodd" fill-opacity="1" /><path clip-path="url(#clip700)" d="M127.765 692.785 L135.404 692.785 L135.404 666.419 L127.094 668.086 L127.094 663.827 L135.358 662.16 L140.033 662.16 L140.033 692.785 L147.672 692.785 L147.672 696.72 L127.765 696.72 L127.765 692.785 Z" fill="#000000" fill-rule="evenodd" fill-opacity="1" /><path clip-path="url(#clip700)" d="M167.117 665.239 Q163.506 665.239 161.677 668.803 Q159.871 672.345 159.871 679.475 Q159.871 686.581 161.677 690.146 Q163.506 693.688 167.117 693.688 Q170.751 693.688 172.556 690.146 Q174.385 686.581 174.385 679.475 Q174.385 672.345 172.556 668.803 Q170.751 665.239 167.117 665.239 M167.117 661.535 Q172.927 661.535 175.982 666.141 Q179.061 670.725 179.061 679.475 Q179.061 688.201 175.982 692.808 Q172.927 697.391 167.117 697.391 Q161.306 697.391 158.228 692.808 Q155.172 688.201 155.172 679.475 Q155.172 670.725 158.228 666.141 Q161.306 661.535 167.117 661.535 Z" fill="#000000" fill-rule="evenodd" fill-opacity="1" /><path clip-path="url(#clip700)" d="M130.983 511.253 L147.302 511.253 L147.302 515.188 L125.358 515.188 L125.358 511.253 Q128.02 508.498 132.603 503.869 Q137.209 499.216 138.39 497.873 Q140.635 495.35 141.515 493.614 Q142.418 491.855 142.418 490.165 Q142.418 487.41 140.473 485.674 Q138.552 483.938 135.45 483.938 Q133.251 483.938 130.797 484.702 Q128.367 485.466 125.589 487.017 L125.589 482.295 Q128.413 481.16 130.867 480.582 Q133.32 480.003 135.358 480.003 Q140.728 480.003 143.922 482.688 Q147.117 485.373 147.117 489.864 Q147.117 491.994 146.307 493.915 Q145.519 495.813 143.413 498.406 Q142.834 499.077 139.732 502.295 Q136.631 505.489 130.983 511.253 Z" fill="#000000" fill-rule="evenodd" fill-opacity="1" /><path clip-path="url(#clip700)" d="M167.117 483.707 Q163.506 483.707 161.677 487.271 Q159.871 490.813 159.871 497.943 Q159.871 505.049 161.677 508.614 Q163.506 512.156 167.117 512.156 Q170.751 512.156 172.556 508.614 Q174.385 505.049 174.385 497.943 Q174.385 490.813 172.556 487.271 Q170.751 483.707 167.117 483.707 M167.117 480.003 Q172.927 480.003 175.982 484.609 Q179.061 489.193 179.061 497.943 Q179.061 506.67 175.982 511.276 Q172.927 515.859 167.117 515.859 Q161.306 515.859 158.228 511.276 Q155.172 506.67 155.172 497.943 Q155.172 489.193 158.228 484.609 Q161.306 480.003 167.117 480.003 Z" fill="#000000" fill-rule="evenodd" fill-opacity="1" /><path clip-path="url(#clip700)" d="M141.121 315.022 Q144.478 315.739 146.353 318.008 Q148.251 320.277 148.251 323.61 Q148.251 328.726 144.732 331.526 Q141.214 334.327 134.733 334.327 Q132.557 334.327 130.242 333.888 Q127.95 333.471 125.496 332.614 L125.496 328.101 Q127.441 329.235 129.756 329.813 Q132.07 330.392 134.594 330.392 Q138.992 330.392 141.283 328.656 Q143.598 326.92 143.598 323.61 Q143.598 320.554 141.445 318.841 Q139.316 317.105 135.496 317.105 L131.469 317.105 L131.469 313.263 L135.682 313.263 Q139.131 313.263 140.959 311.897 Q142.788 310.508 142.788 307.915 Q142.788 305.253 140.89 303.841 Q139.015 302.406 135.496 302.406 Q133.575 302.406 131.376 302.823 Q129.177 303.24 126.538 304.119 L126.538 299.953 Q129.2 299.212 131.515 298.841 Q133.853 298.471 135.913 298.471 Q141.237 298.471 144.339 300.902 Q147.441 303.309 147.441 307.429 Q147.441 310.3 145.797 312.29 Q144.154 314.258 141.121 315.022 Z" fill="#000000" fill-rule="evenodd" fill-opacity="1" /><path clip-path="url(#clip700)" d="M167.117 302.175 Q163.506 302.175 161.677 305.74 Q159.871 309.281 159.871 316.411 Q159.871 323.517 161.677 327.082 Q163.506 330.624 167.117 330.624 Q170.751 330.624 172.556 327.082 Q174.385 323.517 174.385 316.411 Q174.385 309.281 172.556 305.74 Q170.751 302.175 167.117 302.175 M167.117 298.471 Q172.927 298.471 175.982 303.078 Q179.061 307.661 179.061 316.411 Q179.061 325.138 175.982 329.744 Q172.927 334.327 167.117 334.327 Q161.306 334.327 158.228 329.744 Q155.172 325.138 155.172 316.411 Q155.172 307.661 158.228 303.078 Q161.306 298.471 167.117 298.471 Z" fill="#000000" fill-rule="evenodd" fill-opacity="1" /><path clip-path="url(#clip700)" d="M139.802 121.638 L127.996 140.087 L139.802 140.087 L139.802 121.638 M138.575 117.564 L144.455 117.564 L144.455 140.087 L149.385 140.087 L149.385 143.976 L144.455 143.976 L144.455 152.124 L139.802 152.124 L139.802 143.976 L124.2 143.976 L124.2 139.462 L138.575 117.564 Z" fill="#000000" fill-rule="evenodd" fill-opacity="1" /><path clip-path="url(#clip700)" d="M167.117 120.643 Q163.506 120.643 161.677 124.208 Q159.871 127.749 159.871 134.879 Q159.871 141.985 161.677 145.55 Q163.506 149.092 167.117 149.092 Q170.751 149.092 172.556 145.55 Q174.385 141.985 174.385 134.879 Q174.385 127.749 172.556 124.208 Q170.751 120.643 167.117 120.643 M167.117 116.939 Q172.927 116.939 175.982 121.546 Q179.061 126.129 179.061 134.879 Q179.061 143.606 175.982 148.212 Q172.927 152.795 167.117 152.795 Q161.306 152.795 158.228 148.212 Q155.172 143.606 155.172 134.879 Q155.172 126.129 158.228 121.546 Q161.306 116.939 167.117 116.939 Z" fill="#000000" fill-rule="evenodd" fill-opacity="1" /><path clip-path="url(#clip700)" d="M63.6642 617.749 Q64.3644 615.68 66.6561 613.738 Q68.9477 611.765 72.9581 609.792 L85.9442 603.267 L85.9442 610.173 L73.7538 616.253 Q68.9795 618.608 67.42 620.836 Q65.8604 623.032 65.8604 626.852 L65.8604 633.854 L85.9442 633.854 L85.9442 640.283 L38.4242 640.283 L38.4242 625.769 Q38.4242 617.621 41.8298 613.611 Q45.2355 609.601 52.1104 609.601 Q56.5982 609.601 59.5583 611.701 Q62.5184 613.77 63.6642 617.749 M43.7077 633.854 L60.5768 633.854 L60.5768 625.769 Q60.5768 621.122 58.4443 618.767 Q56.28 616.38 52.1104 616.38 Q47.9409 616.38 45.8402 618.767 Q43.7077 621.122 43.7077 625.769 L43.7077 633.854 Z" fill="#000000" fill-rule="evenodd" fill-opacity="1" /><path clip-path="url(#clip700)" d="M38.4242 594.991 L38.4242 585.411 L70.7619 573.284 L38.4242 561.094 L38.4242 551.513 L85.9442 551.513 L85.9442 557.784 L44.217 557.784 L76.8094 570.038 L76.8094 576.499 L44.217 588.753 L85.9442 588.753 L85.9442 594.991 L38.4242 594.991 Z" fill="#000000" fill-rule="evenodd" fill-opacity="1" /><path clip-path="url(#clip700)" d="M39.9838 510.264 L46.254 510.264 Q44.5034 513.924 43.644 517.17 Q42.7847 520.417 42.7847 523.441 Q42.7847 528.692 44.8217 531.557 Q46.8587 534.39 50.6145 534.39 Q53.7655 534.39 55.3888 532.512 Q56.9802 530.602 57.9669 525.319 L58.7626 521.436 Q60.1312 514.242 63.6005 510.837 Q67.038 507.399 72.8308 507.399 Q79.7376 507.399 83.3024 512.046 Q86.8672 516.661 86.8672 525.605 Q86.8672 528.979 86.1033 532.798 Q85.3394 536.586 83.8435 540.66 L77.2231 540.66 Q79.4193 536.745 80.5333 532.989 Q81.6473 529.233 81.6473 525.605 Q81.6473 520.099 79.483 517.107 Q77.3186 514.115 73.3082 514.115 Q69.8071 514.115 67.8337 516.279 Q65.8604 518.412 64.8737 523.313 L64.1098 527.228 Q62.6775 534.422 59.622 537.636 Q56.5664 540.851 51.1237 540.851 Q44.8217 540.851 41.1932 536.427 Q37.5648 531.971 37.5648 524.173 Q37.5648 520.831 38.1695 517.361 Q38.7743 513.892 39.9838 510.264 Z" fill="#000000" fill-rule="evenodd" fill-opacity="1" /><path clip-path="url(#clip700)" d="M38.4242 497.373 L38.4242 467.327 L43.835 467.327 L43.835 490.944 L57.9032 490.944 L57.9032 468.314 L63.3141 468.314 L63.3141 490.944 L80.5333 490.944 L80.5333 466.754 L85.9442 466.754 L85.9442 497.373 L38.4242 497.373 Z" fill="#000000" fill-rule="evenodd" fill-opacity="1" /><path clip-path="url(#clip700)" d="M36.419 436.262 L36.419 422.767 L40.9704 422.767 L40.9704 430.406 L89.9864 430.406 L89.9864 422.767 L94.5379 422.767 L94.5379 436.262 L36.419 436.262 Z" fill="#000000" fill-rule="evenodd" fill-opacity="1" /><path clip-path="url(#clip700)" d="M99.5031 410.895 L50.2962 410.895 L50.2962 405.039 L72.4489 405.039 Q77.064 405.039 79.4193 402.842 Q81.7746 400.646 81.7746 396.349 Q81.7746 391.639 79.101 389.283 Q76.4274 386.896 71.0802 386.896 L50.2962 386.896 L50.2962 381.04 L77.7324 381.04 Q79.6421 381.04 80.5651 380.499 Q81.4563 379.926 81.4563 378.748 Q81.4563 378.462 81.2972 377.952 Q81.1062 377.443 80.7243 376.552 L85.4349 376.552 Q86.167 377.857 86.5171 379.035 Q86.8672 380.18 86.8672 381.294 Q86.8672 383.491 85.6259 384.796 Q84.3846 386.101 81.8383 386.578 Q84.3527 388.169 85.6259 390.493 Q86.8672 392.785 86.8672 395.904 Q86.8672 399.15 85.6259 401.442 Q84.3846 403.702 81.9019 405.039 L99.5031 405.039 L99.5031 410.895 Z" fill="#000000" fill-rule="evenodd" fill-opacity="1" /><path clip-path="url(#clip700)" d="M57.1393 341.063 Q53.1926 338.867 51.3147 335.812 Q49.4368 332.756 49.4368 328.618 Q49.4368 323.048 53.3517 320.025 Q57.2348 317.001 64.4281 317.001 L85.9442 317.001 L85.9442 322.889 L64.619 322.889 Q59.4946 322.889 57.012 324.703 Q54.5294 326.518 54.5294 330.242 Q54.5294 334.793 57.5531 337.435 Q60.5768 340.077 65.7967 340.077 L85.9442 340.077 L85.9442 345.965 L64.619 345.965 Q59.4628 345.965 57.012 347.779 Q54.5294 349.593 54.5294 353.381 Q54.5294 357.869 57.5849 360.51 Q60.6086 363.152 65.7967 363.152 L85.9442 363.152 L85.9442 369.04 L50.2962 369.04 L50.2962 363.152 L55.8344 363.152 Q52.556 361.147 50.9964 358.346 Q49.4368 355.545 49.4368 351.694 Q49.4368 347.811 51.4102 345.105 Q53.3836 342.368 57.1393 341.063 Z" fill="#000000" fill-rule="evenodd" fill-opacity="1" /><path clip-path="url(#clip700)" d="M36.419 291.633 L94.5379 291.633 L94.5379 305.129 L89.9864 305.129 L89.9864 297.522 L40.9704 297.522 L40.9704 305.129 L36.419 305.129 L36.419 291.633 Z" fill="#000000" fill-rule="evenodd" fill-opacity="1" /><path clip-path="url(#clip702)" d="
M275.747 833.561 L275.747 860.972 L330.489 860.972 L330.489 833.561 L275.747 833.561 L275.747 833.561  Z
  " fill="#e69f00" fill-rule="evenodd" fill-opacity="1"/>
<polyline clip-path="url(#clip702)" style="stroke:#000000; stroke-linecap:butt; stroke-linejoin:round; stroke-width:4; stroke-opacity:1; fill:none" points="
  275.747,833.561 275.747,860.972 330.489,860.972 330.489,833.561 275.747,833.561 
  "/>
<path clip-path="url(#clip702)" d="
M412.602 830.111 L412.602 860.972 L467.344 860.972 L467.344 830.111 L412.602 830.111 L412.602 830.111  Z
  " fill="#e69f00" fill-rule="evenodd" fill-opacity="1"/>
<polyline clip-path="url(#clip702)" style="stroke:#000000; stroke-linecap:butt; stroke-linejoin:round; stroke-width:4; stroke-opacity:1; fill:none" points="
  412.602,830.111 412.602,860.972 467.344,860.972 467.344,830.111 412.602,830.111 
  "/>
<path clip-path="url(#clip702)" d="
M549.457 805.242 L549.457 860.972 L604.199 860.972 L604.199 805.242 L549.457 805.242 L549.457 805.242  Z
  " fill="#e69f00" fill-rule="evenodd" fill-opacity="1"/>
<polyline clip-path="url(#clip702)" style="stroke:#000000; stroke-linecap:butt; stroke-linejoin:round; stroke-width:4; stroke-opacity:1; fill:none" points="
  549.457,805.242 549.457,860.972 604.199,860.972 604.199,805.242 549.457,805.242 
  "/>
<path clip-path="url(#clip702)" d="
M686.312 780.553 L686.312 860.972 L741.054 860.972 L741.054 780.553 L686.312 780.553 L686.312 780.553  Z
  " fill="#e69f00" fill-rule="evenodd" fill-opacity="1"/>
<polyline clip-path="url(#clip702)" style="stroke:#000000; stroke-linecap:butt; stroke-linejoin:round; stroke-width:4; stroke-opacity:1; fill:none" points="
  686.312,780.553 686.312,860.972 741.054,860.972 741.054,780.553 686.312,780.553 
  "/>
<path clip-path="url(#clip702)" d="
M823.167 770.75 L823.167 860.972 L877.908 860.972 L877.908 770.75 L823.167 770.75 L823.167 770.75  Z
  " fill="#e69f00" fill-rule="evenodd" fill-opacity="1"/>
<polyline clip-path="url(#clip702)" style="stroke:#000000; stroke-linecap:butt; stroke-linejoin:round; stroke-width:4; stroke-opacity:1; fill:none" points="
  823.167,770.75 823.167,860.972 877.908,860.972 877.908,770.75 823.167,770.75 
  "/>
<path clip-path="url(#clip702)" d="
M960.021 791.445 L960.021 860.972 L1014.76 860.972 L1014.76 791.445 L960.021 791.445 L960.021 791.445  Z
  " fill="#e69f00" fill-rule="evenodd" fill-opacity="1"/>
<polyline clip-path="url(#clip702)" style="stroke:#000000; stroke-linecap:butt; stroke-linejoin:round; stroke-width:4; stroke-opacity:1; fill:none" points="
  960.021,791.445 960.021,860.972 1014.76,860.972 1014.76,791.445 960.021,791.445 
  "/>
<path clip-path="url(#clip702)" d="
M1096.88 769.117 L1096.88 860.972 L1151.62 860.972 L1151.62 769.117 L1096.88 769.117 L1096.88 769.117  Z
  " fill="#e69f00" fill-rule="evenodd" fill-opacity="1"/>
<polyline clip-path="url(#clip702)" style="stroke:#000000; stroke-linecap:butt; stroke-linejoin:round; stroke-width:4; stroke-opacity:1; fill:none" points="
  1096.88,769.117 1096.88,860.972 1151.62,860.972 1151.62,769.117 1096.88,769.117 
  "/>
<path clip-path="url(#clip702)" d="
M1233.73 730.813 L1233.73 860.972 L1288.47 860.972 L1288.47 730.813 L1233.73 730.813 L1233.73 730.813  Z
  " fill="#e69f00" fill-rule="evenodd" fill-opacity="1"/>
<polyline clip-path="url(#clip702)" style="stroke:#000000; stroke-linecap:butt; stroke-linejoin:round; stroke-width:4; stroke-opacity:1; fill:none" points="
  1233.73,730.813 1233.73,860.972 1288.47,860.972 1288.47,730.813 1233.73,730.813 
  "/>
<path clip-path="url(#clip702)" d="
M1370.59 835.739 L1370.59 860.972 L1425.33 860.972 L1425.33 835.739 L1370.59 835.739 L1370.59 835.739  Z
  " fill="#e69f00" fill-rule="evenodd" fill-opacity="1"/>
<polyline clip-path="url(#clip702)" style="stroke:#000000; stroke-linecap:butt; stroke-linejoin:round; stroke-width:4; stroke-opacity:1; fill:none" points="
  1370.59,835.739 1370.59,860.972 1425.33,860.972 1425.33,835.739 1370.59,835.739 
  "/>
<circle clip-path="url(#clip702)" style="fill:#e69f00; stroke:none; fill-opacity:0" cx="303.118" cy="833.561" r="2"/>
<circle clip-path="url(#clip702)" style="fill:#e69f00; stroke:none; fill-opacity:0" cx="439.973" cy="830.111" r="2"/>
<circle clip-path="url(#clip702)" style="fill:#e69f00; stroke:none; fill-opacity:0" cx="576.828" cy="805.242" r="2"/>
<circle clip-path="url(#clip702)" style="fill:#e69f00; stroke:none; fill-opacity:0" cx="713.683" cy="780.553" r="2"/>
<circle clip-path="url(#clip702)" style="fill:#e69f00; stroke:none; fill-opacity:0" cx="850.537" cy="770.75" r="2"/>
<circle clip-path="url(#clip702)" style="fill:#e69f00; stroke:none; fill-opacity:0" cx="987.392" cy="791.445" r="2"/>
<circle clip-path="url(#clip702)" style="fill:#e69f00; stroke:none; fill-opacity:0" cx="1124.25" cy="769.117" r="2"/>
<circle clip-path="url(#clip702)" style="fill:#e69f00; stroke:none; fill-opacity:0" cx="1261.1" cy="730.813" r="2"/>
<circle clip-path="url(#clip702)" style="fill:#e69f00; stroke:none; fill-opacity:0" cx="1397.96" cy="835.739" r="2"/>
<path clip-path="url(#clip702)" d="
M330.489 452.162 L330.489 860.972 L385.231 860.972 L385.231 452.162 L330.489 452.162 L330.489 452.162  Z
  " fill="#56b4e9" fill-rule="evenodd" fill-opacity="1"/>
<polyline clip-path="url(#clip702)" style="stroke:#000000; stroke-linecap:butt; stroke-linejoin:round; stroke-width:4; stroke-opacity:1; fill:none" points="
  330.489,452.162 330.489,860.972 385.231,860.972 385.231,452.162 330.489,452.162 
  "/>
<path clip-path="url(#clip702)" d="
M467.344 732.447 L467.344 860.972 L522.086 860.972 L522.086 732.447 L467.344 732.447 L467.344 732.447  Z
  " fill="#56b4e9" fill-rule="evenodd" fill-opacity="1"/>
<polyline clip-path="url(#clip702)" style="stroke:#000000; stroke-linecap:butt; stroke-linejoin:round; stroke-width:4; stroke-opacity:1; fill:none" points="
  467.344,732.447 467.344,860.972 522.086,860.972 522.086,732.447 467.344,732.447 
  "/>
<path clip-path="url(#clip702)" d="
M604.199 582.502 L604.199 860.972 L658.941 860.972 L658.941 582.502 L604.199 582.502 L604.199 582.502  Z
  " fill="#56b4e9" fill-rule="evenodd" fill-opacity="1"/>
<polyline clip-path="url(#clip702)" style="stroke:#000000; stroke-linecap:butt; stroke-linejoin:round; stroke-width:4; stroke-opacity:1; fill:none" points="
  604.199,582.502 604.199,860.972 658.941,860.972 658.941,582.502 604.199,582.502 
  "/>
<path clip-path="url(#clip702)" d="
M741.054 70.9449 L741.054 860.972 L795.796 860.972 L795.796 70.9449 L741.054 70.9449 L741.054 70.9449  Z
  " fill="#56b4e9" fill-rule="evenodd" fill-opacity="1"/>
<polyline clip-path="url(#clip702)" style="stroke:#000000; stroke-linecap:butt; stroke-linejoin:round; stroke-width:4; stroke-opacity:1; fill:none" points="
  741.054,70.9449 741.054,860.972 795.796,860.972 795.796,70.9449 741.054,70.9449 
  "/>
<path clip-path="url(#clip702)" d="
M877.908 495.911 L877.908 860.972 L932.65 860.972 L932.65 495.911 L877.908 495.911 L877.908 495.911  Z
  " fill="#56b4e9" fill-rule="evenodd" fill-opacity="1"/>
<polyline clip-path="url(#clip702)" style="stroke:#000000; stroke-linecap:butt; stroke-linejoin:round; stroke-width:4; stroke-opacity:1; fill:none" points="
  877.908,495.911 877.908,860.972 932.65,860.972 932.65,495.911 877.908,495.911 
  "/>
<path clip-path="url(#clip702)" d="
M1014.76 401.151 L1014.76 860.972 L1069.51 860.972 L1069.51 401.151 L1014.76 401.151 L1014.76 401.151  Z
  " fill="#56b4e9" fill-rule="evenodd" fill-opacity="1"/>
<polyline clip-path="url(#clip702)" style="stroke:#000000; stroke-linecap:butt; stroke-linejoin:round; stroke-width:4; stroke-opacity:1; fill:none" points="
  1014.76,401.151 1014.76,860.972 1069.51,860.972 1069.51,401.151 1014.76,401.151 
  "/>
<path clip-path="url(#clip702)" d="
M1151.62 146.099 L1151.62 860.972 L1206.36 860.972 L1206.36 146.099 L1151.62 146.099 L1151.62 146.099  Z
  " fill="#56b4e9" fill-rule="evenodd" fill-opacity="1"/>
<polyline clip-path="url(#clip702)" style="stroke:#000000; stroke-linecap:butt; stroke-linejoin:round; stroke-width:4; stroke-opacity:1; fill:none" points="
  1151.62,146.099 1151.62,860.972 1206.36,860.972 1206.36,146.099 1151.62,146.099 
  "/>
<path clip-path="url(#clip702)" d="
M1288.47 304.213 L1288.47 860.972 L1343.21 860.972 L1343.21 304.213 L1288.47 304.213 L1288.47 304.213  Z
  " fill="#56b4e9" fill-rule="evenodd" fill-opacity="1"/>
<polyline clip-path="url(#clip702)" style="stroke:#000000; stroke-linecap:butt; stroke-linejoin:round; stroke-width:4; stroke-opacity:1; fill:none" points="
  1288.47,304.213 1288.47,860.972 1343.21,860.972 1343.21,304.213 1288.47,304.213 
  "/>
<path clip-path="url(#clip702)" d="
M1425.33 692.692 L1425.33 860.972 L1480.07 860.972 L1480.07 692.692 L1425.33 692.692 L1425.33 692.692  Z
  " fill="#56b4e9" fill-rule="evenodd" fill-opacity="1"/>
<polyline clip-path="url(#clip702)" style="stroke:#000000; stroke-linecap:butt; stroke-linejoin:round; stroke-width:4; stroke-opacity:1; fill:none" points="
  1425.33,692.692 1425.33,860.972 1480.07,860.972 1480.07,692.692 1425.33,692.692 
  "/>
<circle clip-path="url(#clip702)" style="fill:#56b4e9; stroke:none; fill-opacity:0" cx="357.86" cy="452.162" r="2"/>
<circle clip-path="url(#clip702)" style="fill:#56b4e9; stroke:none; fill-opacity:0" cx="494.715" cy="732.447" r="2"/>
<circle clip-path="url(#clip702)" style="fill:#56b4e9; stroke:none; fill-opacity:0" cx="631.57" cy="582.502" r="2"/>
<circle clip-path="url(#clip702)" style="fill:#56b4e9; stroke:none; fill-opacity:0" cx="768.425" cy="70.9449" r="2"/>
<circle clip-path="url(#clip702)" style="fill:#56b4e9; stroke:none; fill-opacity:0" cx="905.279" cy="495.911" r="2"/>
<circle clip-path="url(#clip702)" style="fill:#56b4e9; stroke:none; fill-opacity:0" cx="1042.13" cy="401.151" r="2"/>
<circle clip-path="url(#clip702)" style="fill:#56b4e9; stroke:none; fill-opacity:0" cx="1178.99" cy="146.099" r="2"/>
<circle clip-path="url(#clip702)" style="fill:#56b4e9; stroke:none; fill-opacity:0" cx="1315.84" cy="304.213" r="2"/>
<circle clip-path="url(#clip702)" style="fill:#56b4e9; stroke:none; fill-opacity:0" cx="1452.7" cy="692.692" r="2"/>
<path clip-path="url(#clip700)" d="
M248.051 230.678 L603.085 230.678 L603.085 75.1584 L248.051 75.1584  Z
  " fill="#ffffff" fill-rule="evenodd" fill-opacity="1"/>
<polyline clip-path="url(#clip700)" style="stroke:#000000; stroke-linecap:butt; stroke-linejoin:round; stroke-width:4; stroke-opacity:1; fill:none" points="
  248.051,230.678 603.085,230.678 603.085,75.1584 248.051,75.1584 248.051,230.678 
  "/>
<path clip-path="url(#clip700)" d="
M263.047 147.734 L353.027 147.734 L353.027 106.262 L263.047 106.262 L263.047 147.734  Z
  " fill="#e69f00" fill-rule="evenodd" fill-opacity="1"/>
<polyline clip-path="url(#clip700)" style="stroke:#000000; stroke-linecap:butt; stroke-linejoin:round; stroke-width:4; stroke-opacity:1; fill:none" points="
  263.047,147.734 353.027,147.734 353.027,106.262 263.047,106.262 263.047,147.734 
  "/>
<path clip-path="url(#clip700)" d="M368.024 109.718 L372.7 109.718 L372.7 144.278 L368.024 144.278 L368.024 109.718 Z" fill="#000000" fill-rule="evenodd" fill-opacity="1" /><path clip-path="url(#clip700)" d="M403.371 128.63 L403.371 144.278 L399.111 144.278 L399.111 128.769 Q399.111 125.089 397.676 123.26 Q396.241 121.431 393.371 121.431 Q389.922 121.431 387.931 123.63 Q385.94 125.829 385.94 129.626 L385.94 144.278 L381.658 144.278 L381.658 118.353 L385.94 118.353 L385.94 122.38 Q387.468 120.042 389.528 118.885 Q391.612 117.728 394.32 117.728 Q398.787 117.728 401.079 120.505 Q403.371 123.26 403.371 128.63 Z" fill="#000000" fill-rule="evenodd" fill-opacity="1" /><path clip-path="url(#clip700)" d="M416.079 110.992 L416.079 118.353 L424.852 118.353 L424.852 121.663 L416.079 121.663 L416.079 135.737 Q416.079 138.908 416.935 139.811 Q417.815 140.714 420.477 140.714 L424.852 140.714 L424.852 144.278 L420.477 144.278 Q415.547 144.278 413.672 142.45 Q411.797 140.598 411.797 135.737 L411.797 121.663 L408.672 121.663 L408.672 118.353 L411.797 118.353 L411.797 110.992 L416.079 110.992 Z" fill="#000000" fill-rule="evenodd" fill-opacity="1" /><path clip-path="url(#clip700)" d="M452.63 130.251 L452.63 132.334 L433.046 132.334 Q433.324 136.732 435.685 139.047 Q438.07 141.339 442.306 141.339 Q444.759 141.339 447.051 140.737 Q449.366 140.135 451.634 138.931 L451.634 142.959 Q449.343 143.931 446.935 144.44 Q444.528 144.95 442.051 144.95 Q435.847 144.95 432.213 141.339 Q428.602 137.727 428.602 131.57 Q428.602 125.204 432.028 121.478 Q435.477 117.728 441.31 117.728 Q446.542 117.728 449.574 121.107 Q452.63 124.464 452.63 130.251 M448.37 129.001 Q448.324 125.505 446.403 123.422 Q444.505 121.339 441.357 121.339 Q437.792 121.339 435.639 123.353 Q433.509 125.366 433.185 129.024 L448.37 129.001 Z" fill="#000000" fill-rule="evenodd" fill-opacity="1" /><path clip-path="url(#clip700)" d="M474.643 122.334 Q473.926 121.917 473.069 121.732 Q472.236 121.524 471.218 121.524 Q467.606 121.524 465.662 123.885 Q463.741 126.223 463.741 130.621 L463.741 144.278 L459.458 144.278 L459.458 118.353 L463.741 118.353 L463.741 122.38 Q465.083 120.019 467.236 118.885 Q469.389 117.728 472.468 117.728 Q472.907 117.728 473.44 117.797 Q473.972 117.843 474.62 117.959 L474.643 122.334 Z" fill="#000000" fill-rule="evenodd" fill-opacity="1" /><path clip-path="url(#clip700)" d="M492.236 108.26 L492.236 111.802 L488.162 111.802 Q485.87 111.802 484.968 112.728 Q484.088 113.654 484.088 116.061 L484.088 118.353 L491.102 118.353 L491.102 121.663 L484.088 121.663 L484.088 144.278 L479.805 144.278 L479.805 121.663 L475.731 121.663 L475.731 118.353 L479.805 118.353 L479.805 116.547 Q479.805 112.218 481.819 110.251 Q483.833 108.26 488.208 108.26 L492.236 108.26 Z" fill="#000000" fill-rule="evenodd" fill-opacity="1" /><path clip-path="url(#clip700)" d="M507.583 131.246 Q502.421 131.246 500.43 132.427 Q498.44 133.607 498.44 136.454 Q498.44 138.723 499.921 140.065 Q501.426 141.385 503.995 141.385 Q507.537 141.385 509.666 138.885 Q511.819 136.362 511.819 132.195 L511.819 131.246 L507.583 131.246 M516.078 129.487 L516.078 144.278 L511.819 144.278 L511.819 140.343 Q510.361 142.704 508.185 143.839 Q506.009 144.95 502.861 144.95 Q498.879 144.95 496.518 142.727 Q494.18 140.482 494.18 136.732 Q494.18 132.357 497.097 130.135 Q500.037 127.913 505.847 127.913 L511.819 127.913 L511.819 127.496 Q511.819 124.556 509.875 122.959 Q507.953 121.339 504.458 121.339 Q502.236 121.339 500.129 121.871 Q498.023 122.403 496.079 123.468 L496.079 119.533 Q498.417 118.63 500.616 118.191 Q502.815 117.728 504.898 117.728 Q510.523 117.728 513.301 120.644 Q516.078 123.561 516.078 129.487 Z" fill="#000000" fill-rule="evenodd" fill-opacity="1" /><path clip-path="url(#clip700)" d="M543.509 119.348 L543.509 123.329 Q541.703 122.334 539.875 121.848 Q538.069 121.339 536.217 121.339 Q532.074 121.339 529.782 123.978 Q527.49 126.593 527.49 131.339 Q527.49 136.084 529.782 138.723 Q532.074 141.339 536.217 141.339 Q538.069 141.339 539.875 140.852 Q541.703 140.343 543.509 139.348 L543.509 143.283 Q541.726 144.116 539.805 144.533 Q537.907 144.95 535.754 144.95 Q529.898 144.95 526.449 141.269 Q523 137.589 523 131.339 Q523 124.996 526.472 121.362 Q529.967 117.728 536.032 117.728 Q538 117.728 539.875 118.144 Q541.75 118.538 543.509 119.348 Z" fill="#000000" fill-rule="evenodd" fill-opacity="1" /><path clip-path="url(#clip700)" d="M573.092 130.251 L573.092 132.334 L553.509 132.334 Q553.787 136.732 556.148 139.047 Q558.532 141.339 562.768 141.339 Q565.222 141.339 567.513 140.737 Q569.828 140.135 572.097 138.931 L572.097 142.959 Q569.805 143.931 567.398 144.44 Q564.99 144.95 562.513 144.95 Q556.31 144.95 552.675 141.339 Q549.064 137.727 549.064 131.57 Q549.064 125.204 552.49 121.478 Q555.939 117.728 561.773 117.728 Q567.004 117.728 570.036 121.107 Q573.092 124.464 573.092 130.251 M568.833 129.001 Q568.787 125.505 566.865 123.422 Q564.967 121.339 561.819 121.339 Q558.254 121.339 556.101 123.353 Q553.972 125.366 553.648 129.024 L568.833 129.001 Z" fill="#000000" fill-rule="evenodd" fill-opacity="1" /><path clip-path="url(#clip700)" d="
M263.047 199.574 L353.027 199.574 L353.027 158.102 L263.047 158.102 L263.047 199.574  Z
  " fill="#56b4e9" fill-rule="evenodd" fill-opacity="1"/>
<polyline clip-path="url(#clip700)" style="stroke:#000000; stroke-linecap:butt; stroke-linejoin:round; stroke-width:4; stroke-opacity:1; fill:none" points="
  263.047,199.574 353.027,199.574 353.027,158.102 263.047,158.102 263.047,199.574 
  "/>
<path clip-path="url(#clip700)" d="M368.024 161.558 L372.7 161.558 L372.7 192.183 L389.528 192.183 L389.528 196.118 L368.024 196.118 L368.024 161.558 Z" fill="#000000" fill-rule="evenodd" fill-opacity="1" /><path clip-path="url(#clip700)" d="M403.463 173.179 Q400.037 173.179 398.047 175.864 Q396.056 178.526 396.056 183.179 Q396.056 187.831 398.024 190.517 Q400.014 193.179 403.463 193.179 Q406.866 193.179 408.857 190.493 Q410.848 187.808 410.848 183.179 Q410.848 178.572 408.857 175.887 Q406.866 173.179 403.463 173.179 M403.463 169.568 Q409.019 169.568 412.19 173.179 Q415.361 176.79 415.361 183.179 Q415.361 189.544 412.19 193.179 Q409.019 196.79 403.463 196.79 Q397.885 196.79 394.713 193.179 Q391.565 189.544 391.565 183.179 Q391.565 176.79 394.713 173.179 Q397.885 169.568 403.463 169.568 Z" fill="#000000" fill-rule="evenodd" fill-opacity="1" /><path clip-path="url(#clip700)" d="M439.482 182.855 Q439.482 178.225 437.56 175.679 Q435.662 173.132 432.213 173.132 Q428.787 173.132 426.866 175.679 Q424.968 178.225 424.968 182.855 Q424.968 187.461 426.866 190.007 Q428.787 192.554 432.213 192.554 Q435.662 192.554 437.56 190.007 Q439.482 187.461 439.482 182.855 M443.741 192.901 Q443.741 199.521 440.801 202.739 Q437.861 205.979 431.796 205.979 Q429.551 205.979 427.56 205.632 Q425.57 205.308 423.695 204.614 L423.695 200.47 Q425.57 201.489 427.398 201.975 Q429.227 202.461 431.125 202.461 Q435.315 202.461 437.398 200.262 Q439.482 198.086 439.482 193.665 L439.482 191.558 Q438.162 193.85 436.102 194.984 Q434.042 196.118 431.171 196.118 Q426.403 196.118 423.486 192.484 Q420.57 188.85 420.57 182.855 Q420.57 176.836 423.486 173.202 Q426.403 169.568 431.171 169.568 Q434.042 169.568 436.102 170.702 Q438.162 171.836 439.482 174.128 L439.482 170.193 L443.741 170.193 L443.741 192.901 Z" fill="#000000" fill-rule="evenodd" fill-opacity="1" /><path clip-path="url(#clip700)" d="M452.514 170.193 L456.773 170.193 L456.773 196.118 L452.514 196.118 L452.514 170.193 M452.514 160.1 L456.773 160.1 L456.773 165.494 L452.514 165.494 L452.514 160.1 Z" fill="#000000" fill-rule="evenodd" fill-opacity="1" /><path clip-path="url(#clip700)" d="M482.213 170.956 L482.213 174.984 Q480.407 174.058 478.463 173.595 Q476.518 173.132 474.435 173.132 Q471.264 173.132 469.667 174.105 Q468.093 175.077 468.093 177.021 Q468.093 178.503 469.227 179.359 Q470.361 180.193 473.787 180.956 L475.245 181.28 Q479.782 182.253 481.68 184.035 Q483.602 185.794 483.602 188.966 Q483.602 192.577 480.731 194.683 Q477.884 196.79 472.884 196.79 Q470.801 196.79 468.532 196.373 Q466.287 195.979 463.787 195.169 L463.787 190.771 Q466.148 191.998 468.44 192.623 Q470.731 193.225 472.977 193.225 Q475.986 193.225 477.606 192.206 Q479.227 191.165 479.227 189.29 Q479.227 187.554 478.046 186.628 Q476.889 185.702 472.931 184.845 L471.449 184.498 Q467.491 183.665 465.731 181.952 Q463.972 180.216 463.972 177.206 Q463.972 173.549 466.565 171.558 Q469.157 169.568 473.926 169.568 Q476.287 169.568 478.37 169.915 Q480.454 170.262 482.213 170.956 Z" fill="#000000" fill-rule="evenodd" fill-opacity="1" /><path clip-path="url(#clip700)" d="M494.597 162.832 L494.597 170.193 L503.37 170.193 L503.37 173.503 L494.597 173.503 L494.597 187.577 Q494.597 190.748 495.454 191.651 Q496.333 192.554 498.995 192.554 L503.37 192.554 L503.37 196.118 L498.995 196.118 Q494.065 196.118 492.19 194.29 Q490.315 192.438 490.315 187.577 L490.315 173.503 L487.19 173.503 L487.19 170.193 L490.315 170.193 L490.315 162.832 L494.597 162.832 Z" fill="#000000" fill-rule="evenodd" fill-opacity="1" /><path clip-path="url(#clip700)" d="M508.972 170.193 L513.231 170.193 L513.231 196.118 L508.972 196.118 L508.972 170.193 M508.972 160.1 L513.231 160.1 L513.231 165.494 L508.972 165.494 L508.972 160.1 Z" fill="#000000" fill-rule="evenodd" fill-opacity="1" /><path clip-path="url(#clip700)" d="M540.801 171.188 L540.801 175.169 Q538.995 174.174 537.166 173.688 Q535.361 173.179 533.509 173.179 Q529.365 173.179 527.074 175.818 Q524.782 178.433 524.782 183.179 Q524.782 187.924 527.074 190.563 Q529.365 193.179 533.509 193.179 Q535.361 193.179 537.166 192.692 Q538.995 192.183 540.801 191.188 L540.801 195.123 Q539.018 195.956 537.097 196.373 Q535.199 196.79 533.046 196.79 Q527.19 196.79 523.74 193.109 Q520.291 189.429 520.291 183.179 Q520.291 176.836 523.764 173.202 Q527.259 169.568 533.324 169.568 Q535.291 169.568 537.166 169.984 Q539.041 170.378 540.801 171.188 Z" fill="#000000" fill-rule="evenodd" fill-opacity="1" /></svg>
