<?xml version="1.0" encoding="utf-8"?>
<svg xmlns="http://www.w3.org/2000/svg" xmlns:xlink="http://www.w3.org/1999/xlink" width="400" height="300" viewBox="0 0 1600 1200">
<defs>
  <clipPath id="clip360">
    <rect x="0" y="0" width="1600" height="1200"/>
  </clipPath>
</defs>
<path clip-path="url(#clip360)" d="
M0 1200 L1600 1200 L1600 0 L0 0  Z
  " fill="#ffffff" fill-rule="evenodd" fill-opacity="1"/>
<defs>
  <clipPath id="clip361">
    <rect x="320" y="0" width="1121" height="1121"/>
  </clipPath>
</defs>
<path clip-path="url(#clip360)" d="
M203.061 877.442 L1552.76 877.442 L1552.76 47.2441 L203.061 47.2441  Z
  " fill="#ffffff" fill-rule="evenodd" fill-opacity="1"/>
<defs>
  <clipPath id="clip362">
    <rect x="203" y="47" width="1351" height="831"/>
  </clipPath>
</defs>
<polyline clip-path="url(#clip360)" style="stroke:#000000; stroke-linecap:butt; stroke-linejoin:round; stroke-width:4; stroke-opacity:1; fill:none" points="
  203.061,877.442 1552.76,877.442 
  "/>
<polyline clip-path="url(#clip360)" style="stroke:#000000; stroke-linecap:butt; stroke-linejoin:round; stroke-width:4; stroke-opacity:1; fill:none" points="
  330.489,877.442 330.489,858.544 
  "/>
<polyline clip-path="url(#clip360)" style="stroke:#000000; stroke-linecap:butt; stroke-linejoin:round; stroke-width:4; stroke-opacity:1; fill:none" points="
  467.344,877.442 467.344,858.544 
  "/>
<polyline clip-path="url(#clip360)" style="stroke:#000000; stroke-linecap:butt; stroke-linejoin:round; stroke-width:4; stroke-opacity:1; fill:none" points="
  604.199,877.442 604.199,858.544 
  "/>
<polyline clip-path="url(#clip360)" style="stroke:#000000; stroke-linecap:butt; stroke-linejoin:round; stroke-width:4; stroke-opacity:1; fill:none" points="
  741.054,877.442 741.054,858.544 
  "/>
<polyline clip-path="url(#clip360)" style="stroke:#000000; stroke-linecap:butt; stroke-linejoin:round; stroke-width:4; stroke-opacity:1; fill:none" points="
  877.908,877.442 877.908,858.544 
  "/>
<polyline clip-path="url(#clip360)" style="stroke:#000000; stroke-linecap:butt; stroke-linejoin:round; stroke-width:4; stroke-opacity:1; fill:none" points="
  1014.76,877.442 1014.76,858.544 
  "/>
<polyline clip-path="url(#clip360)" style="stroke:#000000; stroke-linecap:butt; stroke-linejoin:round; stroke-width:4; stroke-opacity:1; fill:none" points="
  1151.62,877.442 1151.62,858.544 
  "/>
<polyline clip-path="url(#clip360)" style="stroke:#000000; stroke-linecap:butt; stroke-linejoin:round; stroke-width:4; stroke-opacity:1; fill:none" points="
  1288.47,877.442 1288.47,858.544 
  "/>
<polyline clip-path="url(#clip360)" style="stroke:#000000; stroke-linecap:butt; stroke-linejoin:round; stroke-width:4; stroke-opacity:1; fill:none" points="
  1425.33,877.442 1425.33,858.544 
  "/>
<path clip-path="url(#clip360)" d="M178.585 1042.55 L186.261 1059.2 L195.248 1050.21 L178.585 1042.55 M173.462 1041.16 L177.21 1037.41 L210.961 1052.54 L207.524 1055.97 L199.029 1051.93 L188.013 1062.95 L192.056 1071.44 L188.569 1074.93 L173.462 1041.16 Z" fill="#000000" fill-rule="evenodd" fill-opacity="1" /><path clip-path="url(#clip360)" d="M210.077 1045.1 L213.531 1041.65 L217.688 1045.81 L214.235 1049.26 L210.077 1045.1 Z" fill="#000000" fill-rule="evenodd" fill-opacity="1" /><path clip-path="url(#clip360)" d="M214.627 1012.21 L217.819 1009.01 L238.934 1018.67 L229.277 997.556 L232.469 994.364 L243.926 1019.57 L239.834 1023.66 L214.627 1012.21 Z" fill="#000000" fill-rule="evenodd" fill-opacity="1" /><path clip-path="url(#clip360)" d="M260.72 982.939 L262.193 984.412 L248.346 998.259 Q251.652 1001.17 254.959 1001.14 Q258.265 1001.07 261.26 998.079 Q262.995 996.344 264.19 994.298 Q265.401 992.236 266.154 989.781 L269.002 992.629 Q268.069 994.937 266.727 996.999 Q265.385 999.061 263.634 1000.81 Q259.247 1005.2 254.124 1005.22 Q249.017 1005.22 244.663 1000.86 Q240.162 996.361 239.949 991.303 Q239.736 986.212 243.861 982.088 Q247.56 978.388 252.094 978.634 Q256.628 978.847 260.72 982.939 M256.824 985.067 Q254.32 982.628 251.488 982.513 Q248.673 982.382 246.447 984.608 Q243.926 987.129 243.828 990.075 Q243.746 993.005 246.103 995.821 L256.824 985.067 Z" fill="#000000" fill-rule="evenodd" fill-opacity="1" /><path clip-path="url(#clip360)" d="M270.688 961.775 Q269.886 961.988 269.15 962.462 Q268.413 962.904 267.693 963.624 Q265.139 966.178 265.434 969.222 Q265.729 972.234 268.839 975.344 L278.496 985.001 L275.468 988.029 L257.135 969.697 L260.164 966.669 L263.012 969.517 Q262.291 966.898 263.012 964.574 Q263.715 962.233 265.892 960.056 Q266.203 959.745 266.629 959.418 Q267.038 959.074 267.578 958.698 L270.688 961.775 Z" fill="#000000" fill-rule="evenodd" fill-opacity="1" /><path clip-path="url(#clip360)" d="M279.511 951.545 Q277.088 953.967 277.579 957.274 Q278.054 960.564 281.344 963.854 Q284.634 967.144 287.924 967.651 Q291.214 968.126 293.653 965.687 Q296.059 963.281 295.568 959.974 Q295.077 956.668 291.803 953.394 Q288.546 950.137 285.24 949.646 Q281.917 949.139 279.511 951.545 M276.957 948.991 Q280.886 945.063 285.681 945.374 Q290.477 945.685 294.995 950.203 Q299.496 954.704 299.824 959.516 Q300.135 964.312 296.206 968.24 Q292.261 972.185 287.466 971.874 Q282.67 971.53 278.169 967.029 Q273.651 962.511 273.324 957.732 Q273.013 952.936 276.957 948.991 Z" fill="#000000" fill-rule="evenodd" fill-opacity="1" /><path clip-path="url(#clip360)" d="M313.311 928.056 L324.376 939.121 L321.364 942.133 L310.397 931.166 Q307.795 928.564 305.487 928.286 Q303.179 928.007 301.149 930.037 Q298.711 932.476 298.858 935.439 Q299.005 938.401 301.69 941.086 L312.051 951.447 L309.022 954.475 L290.69 936.142 L293.718 933.114 L296.566 935.962 Q295.993 933.229 296.632 930.954 Q297.286 928.662 299.202 926.747 Q302.361 923.588 305.945 923.932 Q309.513 924.259 313.311 928.056 Z" fill="#000000" fill-rule="evenodd" fill-opacity="1" /><path clip-path="url(#clip360)" d="M312.051 914.782 L315.062 911.77 L333.395 930.103 L330.383 933.114 L312.051 914.782 M304.914 907.645 L307.926 904.634 L311.74 908.447 L308.728 911.459 L304.914 907.645 Z" fill="#000000" fill-rule="evenodd" fill-opacity="1" /><path clip-path="url(#clip360)" d="M321.364 905.468 L324.376 902.457 L342.708 920.789 L339.696 923.801 L321.364 905.468 M314.227 898.332 L317.239 895.32 L321.053 899.134 L318.041 902.146 L314.227 898.332 Z" fill="#000000" fill-rule="evenodd" fill-opacity="1" /><path clip-path="url(#clip360)" d="M361.5 989.977 L376.951 974.526 L379.734 977.308 L367.588 989.453 L374.823 996.688 L386.461 985.05 L389.244 987.833 L377.606 999.471 L386.461 1008.33 L398.901 995.886 L401.683 998.669 L385.937 1014.41 L361.5 989.977 Z" fill="#000000" fill-rule="evenodd" fill-opacity="1" /><path clip-path="url(#clip360)" d="M403.255 988.782 L406.708 985.329 L410.866 989.486 L407.412 992.94 L403.255 988.782 Z" fill="#000000" fill-rule="evenodd" fill-opacity="1" /><path clip-path="url(#clip360)" d="M423.862 941.233 L426.677 944.048 Q424.697 944.621 423.06 945.57 Q421.423 946.487 420.114 947.796 Q417.184 950.726 417.429 954.213 Q417.659 957.683 421.014 961.038 Q424.37 964.394 427.856 964.639 Q431.326 964.868 434.256 961.939 Q435.565 960.629 436.498 959.009 Q437.431 957.355 438.004 955.375 L440.787 958.157 Q440.116 960.007 439.052 961.66 Q438.004 963.297 436.482 964.819 Q432.341 968.96 427.299 968.797 Q422.258 968.633 417.839 964.214 Q413.354 959.729 413.239 954.704 Q413.141 949.662 417.429 945.374 Q418.821 943.983 420.441 942.951 Q422.045 941.904 423.862 941.233 Z" fill="#000000" fill-rule="evenodd" fill-opacity="1" /><path clip-path="url(#clip360)" d="M437.611 930.299 Q435.189 932.721 435.68 936.028 Q436.155 939.318 439.445 942.608 Q442.735 945.898 446.025 946.405 Q449.315 946.88 451.753 944.441 Q454.16 942.035 453.668 938.729 Q453.177 935.422 449.904 932.149 Q446.647 928.891 443.34 928.4 Q440.017 927.893 437.611 930.299 M435.058 927.745 Q438.986 923.817 443.782 924.128 Q448.578 924.439 453.096 928.957 Q457.597 933.458 457.924 938.27 Q458.235 943.066 454.307 946.994 Q450.362 950.939 445.566 950.628 Q440.77 950.284 436.269 945.783 Q431.752 941.266 431.424 936.486 Q431.113 931.69 435.058 927.745 Z" fill="#000000" fill-rule="evenodd" fill-opacity="1" /><path clip-path="url(#clip360)" d="M441.769 907.645 L444.781 904.634 L470.249 930.103 L467.238 933.114 L441.769 907.645 Z" fill="#000000" fill-rule="evenodd" fill-opacity="1" /><path clip-path="url(#clip360)" d="M458.219 905.468 L461.231 902.457 L479.563 920.789 L476.551 923.801 L458.219 905.468 M451.082 898.332 L454.094 895.32 L457.908 899.134 L454.896 902.146 L451.082 898.332 Z" fill="#000000" fill-rule="evenodd" fill-opacity="1" /><path clip-path="url(#clip360)" d="M323.297 1166.64 L326.522 1169.86 Q323.739 1170.84 321.628 1172.07 Q319.516 1173.3 317.961 1174.86 Q315.261 1177.56 314.835 1180.08 Q314.426 1182.58 316.357 1184.51 Q317.978 1186.13 319.778 1186 Q321.579 1185.84 324.803 1183.63 L327.209 1182.04 Q331.612 1179.05 335.148 1179.08 Q338.683 1179.08 341.662 1182.06 Q345.214 1185.61 344.658 1189.83 Q344.118 1194.04 339.518 1198.64 Q337.783 1200.37 335.426 1201.94 Q333.085 1203.5 330.221 1204.83 L326.816 1201.42 Q329.959 1200.54 332.463 1199.18 Q334.968 1197.82 336.834 1195.95 Q339.665 1193.12 340.091 1190.47 Q340.517 1187.82 338.454 1185.76 Q336.654 1183.96 334.526 1184.05 Q332.414 1184.14 329.386 1186.15 L326.98 1187.77 Q322.544 1190.73 319.32 1190.81 Q316.095 1190.9 313.296 1188.1 Q310.055 1184.86 310.465 1180.71 Q310.89 1176.56 314.9 1172.55 Q316.619 1170.83 318.714 1169.36 Q320.809 1167.88 323.297 1166.64 Z" fill="#000000" fill-rule="evenodd" fill-opacity="1" /><path clip-path="url(#clip360)" d="M349.699 1179.19 L353.153 1175.74 L357.31 1179.9 L353.857 1183.35 L349.699 1179.19 Z" fill="#000000" fill-rule="evenodd" fill-opacity="1" /><path clip-path="url(#clip360)" d="M370.307 1131.64 L373.122 1134.46 Q371.141 1135.03 369.504 1135.98 Q367.868 1136.9 366.558 1138.21 Q363.628 1141.14 363.874 1144.62 Q364.103 1148.09 367.458 1151.45 Q370.814 1154.8 374.3 1155.05 Q377.77 1155.28 380.7 1152.35 Q382.01 1151.04 382.943 1149.42 Q383.876 1147.77 384.449 1145.79 L387.231 1148.57 Q386.56 1150.42 385.496 1152.07 Q384.449 1153.71 382.926 1155.23 Q378.785 1159.37 373.744 1159.21 Q368.702 1159.04 364.283 1154.62 Q359.798 1150.14 359.684 1145.11 Q359.585 1140.07 363.874 1135.78 Q365.265 1134.39 366.886 1133.36 Q368.49 1132.31 370.307 1131.64 Z" fill="#000000" fill-rule="evenodd" fill-opacity="1" /><path clip-path="url(#clip360)" d="M398.934 1118.43 L400.407 1119.91 L386.56 1133.75 Q389.866 1136.67 393.173 1136.64 Q396.479 1136.57 399.475 1133.57 Q401.21 1131.84 402.404 1129.79 Q403.616 1127.73 404.369 1125.28 L407.217 1128.12 Q406.284 1130.43 404.941 1132.49 Q403.599 1134.56 401.848 1136.31 Q397.461 1140.69 392.338 1140.71 Q387.231 1140.71 382.877 1136.36 Q378.376 1131.86 378.163 1126.8 Q377.95 1121.71 382.075 1117.58 Q385.774 1113.88 390.308 1114.13 Q394.842 1114.34 398.934 1118.43 M395.039 1120.56 Q392.534 1118.12 389.703 1118.01 Q386.887 1117.88 384.661 1120.1 Q382.141 1122.62 382.042 1125.57 Q381.961 1128.5 384.318 1131.32 L395.039 1120.56 Z" fill="#000000" fill-rule="evenodd" fill-opacity="1" /><path clip-path="url(#clip360)" d="M408.903 1097.27 Q408.101 1097.48 407.364 1097.96 Q406.627 1098.4 405.907 1099.12 Q403.354 1101.67 403.648 1104.72 Q403.943 1107.73 407.053 1110.84 L416.71 1120.5 L413.682 1123.52 L395.35 1105.19 L398.378 1102.16 L401.226 1105.01 Q400.506 1102.39 401.226 1100.07 Q401.93 1097.73 404.107 1095.55 Q404.418 1095.24 404.843 1094.91 Q405.252 1094.57 405.793 1094.19 L408.903 1097.27 Z" fill="#000000" fill-rule="evenodd" fill-opacity="1" /><path clip-path="url(#clip360)" d="M432.604 1084.76 L434.077 1086.24 L420.229 1100.09 Q423.536 1103 426.842 1102.97 Q430.148 1102.9 433.144 1099.91 Q434.879 1098.17 436.074 1096.12 Q437.285 1094.06 438.038 1091.61 L440.886 1094.45 Q439.953 1096.76 438.611 1098.83 Q437.269 1100.89 435.517 1102.64 Q431.13 1107.03 426.007 1107.04 Q420.9 1107.04 416.546 1102.69 Q412.045 1098.19 411.832 1093.13 Q411.62 1088.04 415.744 1083.91 Q419.444 1080.21 423.978 1080.46 Q428.512 1080.67 432.604 1084.76 M428.708 1086.89 Q426.204 1084.45 423.372 1084.34 Q420.557 1084.21 418.331 1086.43 Q415.81 1088.96 415.712 1091.9 Q415.63 1094.83 417.987 1097.65 L428.708 1086.89 Z" fill="#000000" fill-rule="evenodd" fill-opacity="1" /><path clip-path="url(#clip360)" d="M426.973 1073.57 L430.165 1070.38 L451.28 1080.03 L441.622 1058.92 L444.814 1055.73 L456.272 1080.93 L452.18 1085.03 L426.973 1073.57 Z" fill="#000000" fill-rule="evenodd" fill-opacity="1" /><path clip-path="url(#clip360)" d="M448.972 1051.57 L451.983 1048.56 L470.316 1066.89 L467.304 1069.9 L448.972 1051.57 M441.835 1044.43 L444.847 1041.42 L448.661 1045.24 L445.649 1048.25 L441.835 1044.43 Z" fill="#000000" fill-rule="evenodd" fill-opacity="1" /><path clip-path="url(#clip360)" d="M470.512 1031.11 L473.36 1033.96 Q471.429 1034.58 469.727 1035.63 Q468.024 1036.68 466.551 1038.15 Q464.309 1040.39 463.867 1042.21 Q463.441 1044.01 464.816 1045.38 Q465.864 1046.43 467.271 1046.23 Q468.663 1046.02 471.625 1044.14 L472.886 1043.34 Q476.781 1040.82 479.384 1040.73 Q481.986 1040.62 484.229 1042.86 Q486.782 1045.42 486.242 1048.94 Q485.718 1052.44 482.183 1055.97 Q480.71 1057.45 478.811 1058.76 Q476.945 1060.07 474.604 1061.26 L471.494 1058.15 Q474.031 1057.35 476.094 1056.17 Q478.14 1054.97 479.727 1053.39 Q481.855 1051.26 482.281 1049.39 Q482.69 1047.51 481.364 1046.19 Q480.137 1044.96 478.647 1045.14 Q477.174 1045.3 473.769 1047.49 L472.476 1048.3 Q469.088 1050.51 466.633 1050.54 Q464.161 1050.56 462.033 1048.43 Q459.447 1045.84 459.873 1042.6 Q460.298 1039.36 463.67 1035.99 Q465.34 1034.32 467.058 1033.09 Q468.777 1031.86 470.512 1031.11 Z" fill="#000000" fill-rule="evenodd" fill-opacity="1" /><path clip-path="url(#clip360)" d="M475.75 1024.79 L478.762 1021.78 L497.094 1040.11 L494.082 1043.12 L475.75 1024.79 M468.613 1017.66 L471.625 1014.64 L475.439 1018.46 L472.427 1021.47 L468.613 1017.66 Z" fill="#000000" fill-rule="evenodd" fill-opacity="1" /><path clip-path="url(#clip360)" d="M502.512 1016.26 Q498.862 1019.91 498.289 1022.16 Q497.716 1024.4 499.729 1026.41 Q501.333 1028.02 503.33 1027.92 Q505.327 1027.79 507.144 1025.97 Q509.648 1023.47 509.386 1020.19 Q509.125 1016.89 506.178 1013.94 L505.507 1013.27 L502.512 1016.26 M507.275 1009.01 L517.734 1019.47 L514.722 1022.48 L511.94 1019.7 Q512.578 1022.4 511.842 1024.74 Q511.089 1027.07 508.863 1029.29 Q506.047 1032.11 502.806 1032.21 Q499.566 1032.27 496.914 1029.62 Q493.82 1026.53 494.311 1022.89 Q494.819 1019.24 498.927 1015.13 L503.15 1010.91 L502.856 1010.62 Q500.777 1008.54 498.273 1008.78 Q495.768 1009 493.297 1011.47 Q491.725 1013.04 490.612 1014.91 Q489.499 1016.77 488.877 1018.9 L486.095 1016.12 Q487.109 1013.83 488.353 1011.96 Q489.581 1010.08 491.054 1008.6 Q495.032 1004.63 499.058 1004.72 Q503.085 1004.82 507.275 1009.01 Z" fill="#000000" fill-rule="evenodd" fill-opacity="1" /><path clip-path="url(#clip360)" d="M529.699 987.669 L531.172 989.142 L517.325 1002.99 Q520.631 1005.9 523.938 1005.87 Q527.244 1005.81 530.239 1002.81 Q531.974 1001.07 533.169 999.029 Q534.381 996.966 535.134 994.511 L537.982 997.359 Q537.049 999.667 535.706 1001.73 Q534.364 1003.79 532.613 1005.54 Q528.226 1009.93 523.103 1009.95 Q517.996 1009.95 513.642 1005.59 Q509.141 1001.09 508.928 996.033 Q508.715 990.943 512.84 986.818 Q516.539 983.119 521.073 983.364 Q525.607 983.577 529.699 987.669 M525.804 989.797 Q523.299 987.358 520.468 987.244 Q517.652 987.113 515.426 989.339 Q512.906 991.859 512.807 994.806 Q512.726 997.736 515.083 1000.55 L525.804 989.797 Z" fill="#000000" fill-rule="evenodd" fill-opacity="1" /><path clip-path="url(#clip360)" d="M537.016 949.319 Q538.587 955.277 541.206 960.023 Q543.825 964.77 547.606 968.551 Q551.387 972.332 556.167 974.984 Q560.946 977.603 566.871 979.174 L564.252 981.793 Q557.951 980.402 553.008 977.914 Q548.081 975.409 544.414 971.743 Q540.764 968.093 538.276 963.182 Q535.788 958.272 534.397 951.938 L537.016 949.319 Z" fill="#000000" fill-rule="evenodd" fill-opacity="1" /><path clip-path="url(#clip360)" d="M567.411 951.365 Q563.761 955.015 563.188 957.257 Q562.616 959.5 564.629 961.513 Q566.233 963.117 568.23 963.019 Q570.227 962.888 572.044 961.071 Q574.548 958.567 574.286 955.293 Q574.024 951.987 571.078 949.04 L570.407 948.369 L567.411 951.365 M572.175 944.114 L582.634 954.573 L579.622 957.585 L576.84 954.802 Q577.478 957.503 576.741 959.843 Q575.988 962.168 573.762 964.394 Q570.947 967.209 567.706 967.307 Q564.465 967.373 561.814 964.721 Q558.72 961.628 559.211 957.994 Q559.718 954.344 563.827 950.235 L568.05 946.012 L567.755 945.718 Q565.676 943.639 563.172 943.884 Q560.668 944.097 558.196 946.569 Q556.625 948.14 555.512 950.006 Q554.399 951.872 553.777 954 L550.994 951.217 Q552.009 948.926 553.253 947.06 Q554.481 945.178 555.954 943.704 Q559.931 939.727 563.958 939.825 Q567.984 939.923 572.175 944.114 Z" fill="#000000" fill-rule="evenodd" fill-opacity="1" /><path clip-path="url(#clip360)" d="M587.953 930.823 Q584.303 934.473 583.73 936.715 Q583.158 938.958 585.171 940.971 Q586.775 942.575 588.772 942.477 Q590.769 942.346 592.586 940.529 Q595.09 938.025 594.828 934.751 Q594.566 931.445 591.62 928.498 L590.949 927.827 L587.953 930.823 M592.717 923.572 L603.176 934.031 L600.164 937.043 L597.382 934.26 Q598.02 936.961 597.283 939.301 Q596.53 941.626 594.304 943.852 Q591.489 946.667 588.248 946.765 Q585.007 946.831 582.356 944.179 Q579.262 941.086 579.753 937.452 Q580.26 933.802 584.369 929.693 L588.592 925.47 L588.297 925.176 Q586.218 923.097 583.714 923.342 Q581.21 923.555 578.738 926.027 Q577.167 927.598 576.054 929.464 Q574.941 931.33 574.319 933.458 L571.536 930.675 Q572.551 928.384 573.795 926.518 Q575.023 924.636 576.496 923.162 Q580.473 919.185 584.5 919.283 Q588.526 919.381 592.717 923.572 Z" fill="#000000" fill-rule="evenodd" fill-opacity="1" /><path clip-path="url(#clip360)" d="M583.469 902.866 L586.088 900.247 Q592.406 901.655 597.316 904.143 Q602.243 906.614 605.893 910.264 Q609.559 913.931 612.047 918.874 Q614.552 923.801 615.943 930.103 L613.324 932.721 Q611.753 926.796 609.117 922.033 Q606.482 917.237 602.701 913.456 Q598.92 909.675 594.157 907.073 Q589.41 904.454 583.469 902.866 Z" fill="#000000" fill-rule="evenodd" fill-opacity="1" /><path clip-path="url(#clip360)" d="M536.951 1089.84 L540.176 1093.06 Q537.393 1094.05 535.282 1095.27 Q533.17 1096.5 531.615 1098.06 Q528.915 1100.76 528.489 1103.28 Q528.08 1105.78 530.011 1107.71 Q531.632 1109.33 533.432 1109.2 Q535.233 1109.04 538.457 1106.83 L540.863 1105.24 Q545.266 1102.25 548.802 1102.28 Q552.337 1102.28 555.316 1105.26 Q558.868 1108.81 558.312 1113.03 Q557.772 1117.24 553.172 1121.84 Q551.437 1123.57 549.08 1125.15 Q546.739 1126.7 543.875 1128.03 L540.47 1124.62 Q543.613 1123.74 546.117 1122.38 Q548.622 1121.02 550.488 1119.15 Q553.319 1116.32 553.745 1113.67 Q554.171 1111.02 552.108 1108.96 Q550.308 1107.16 548.18 1107.25 Q546.068 1107.34 543.04 1109.35 L540.634 1110.97 Q536.198 1113.93 532.974 1114.01 Q529.749 1114.1 526.95 1111.3 Q523.709 1108.06 524.119 1103.92 Q524.544 1099.76 528.554 1095.75 Q530.273 1094.03 532.368 1092.56 Q534.463 1091.08 536.951 1089.84 Z" fill="#000000" fill-rule="evenodd" fill-opacity="1" /><path clip-path="url(#clip360)" d="M563.353 1102.39 L566.807 1098.94 L570.964 1103.1 L567.511 1106.55 L563.353 1102.39 Z" fill="#000000" fill-rule="evenodd" fill-opacity="1" /><path clip-path="url(#clip360)" d="M583.961 1054.84 L586.776 1057.66 Q584.795 1058.23 583.159 1059.18 Q581.522 1060.1 580.212 1061.41 Q577.282 1064.34 577.528 1067.82 Q577.757 1071.29 581.113 1074.65 Q584.468 1078 587.954 1078.25 Q591.424 1078.48 594.354 1075.55 Q595.664 1074.24 596.597 1072.62 Q597.53 1070.97 598.103 1068.99 L600.885 1071.77 Q600.214 1073.62 599.15 1075.27 Q598.103 1076.91 596.58 1078.43 Q592.439 1082.57 587.398 1082.41 Q582.356 1082.24 577.937 1077.82 Q573.452 1073.34 573.338 1068.31 Q573.239 1063.27 577.528 1058.99 Q578.919 1057.59 580.54 1056.56 Q582.144 1055.52 583.961 1054.84 Z" fill="#000000" fill-rule="evenodd" fill-opacity="1" /><path clip-path="url(#clip360)" d="M612.588 1041.63 L614.062 1043.11 L600.214 1056.96 Q603.52 1059.87 606.827 1059.84 Q610.133 1059.77 613.129 1056.78 Q614.864 1055.04 616.058 1052.99 Q617.27 1050.93 618.023 1048.48 L620.871 1051.32 Q619.938 1053.63 618.596 1055.7 Q617.253 1057.76 615.502 1059.51 Q611.115 1063.9 605.992 1063.91 Q600.885 1063.91 596.531 1059.56 Q592.03 1055.06 591.817 1050 Q591.604 1044.91 595.729 1040.78 Q599.428 1037.08 603.962 1037.33 Q608.496 1037.54 612.588 1041.63 M608.693 1043.76 Q606.188 1041.32 603.357 1041.21 Q600.541 1041.08 598.315 1043.3 Q595.795 1045.83 595.697 1048.77 Q595.615 1051.7 597.972 1054.52 L608.693 1043.76 Z" fill="#000000" fill-rule="evenodd" fill-opacity="1" /><path clip-path="url(#clip360)" d="M622.557 1020.47 Q621.755 1020.68 621.018 1021.16 Q620.281 1021.6 619.561 1022.32 Q617.008 1024.87 617.302 1027.92 Q617.597 1030.93 620.707 1034.04 L630.364 1043.7 L627.336 1046.73 L609.004 1028.39 L612.032 1025.36 L614.88 1028.21 Q614.16 1025.59 614.88 1023.27 Q615.584 1020.93 617.761 1018.75 Q618.072 1018.44 618.497 1018.11 Q618.907 1017.77 619.447 1017.39 L622.557 1020.47 Z" fill="#000000" fill-rule="evenodd" fill-opacity="1" /><path clip-path="url(#clip360)" d="M646.258 1007.97 L647.731 1009.44 L633.883 1023.29 Q637.19 1026.2 640.496 1026.17 Q643.802 1026.1 646.798 1023.11 Q648.533 1021.37 649.728 1019.33 Q650.939 1017.26 651.692 1014.81 L654.54 1017.66 Q653.607 1019.96 652.265 1022.03 Q650.923 1024.09 649.171 1025.84 Q644.785 1030.23 639.661 1030.24 Q634.554 1030.24 630.201 1025.89 Q625.699 1021.39 625.486 1016.33 Q625.274 1011.24 629.398 1007.11 Q633.098 1003.42 637.632 1003.66 Q642.166 1003.87 646.258 1007.97 M642.362 1010.09 Q639.858 1007.65 637.026 1007.54 Q634.211 1007.41 631.985 1009.64 Q629.464 1012.16 629.366 1015.1 Q629.284 1018.03 631.641 1020.85 L642.362 1010.09 Z" fill="#000000" fill-rule="evenodd" fill-opacity="1" /><path clip-path="url(#clip360)" d="M640.627 996.77 L643.819 993.578 L664.934 1003.24 L655.276 982.12 L658.468 978.929 L669.926 1004.14 L665.834 1008.23 L640.627 996.77 Z" fill="#000000" fill-rule="evenodd" fill-opacity="1" /><path clip-path="url(#clip360)" d="M662.626 974.771 L665.638 971.759 L683.97 990.092 L680.958 993.103 L662.626 974.771 M655.489 967.635 L658.501 964.623 L662.315 968.437 L659.303 971.448 L655.489 967.635 Z" fill="#000000" fill-rule="evenodd" fill-opacity="1" /><path clip-path="url(#clip360)" d="M684.166 954.311 L687.014 957.159 Q685.083 957.781 683.381 958.829 Q681.678 959.876 680.205 961.349 Q677.963 963.592 677.521 965.409 Q677.095 967.209 678.47 968.584 Q679.518 969.632 680.925 969.435 Q682.317 969.222 685.279 967.34 L686.54 966.538 Q690.435 964.017 693.038 963.935 Q695.64 963.821 697.883 966.063 Q700.436 968.617 699.896 972.136 Q699.372 975.639 695.837 979.174 Q694.364 980.647 692.465 981.957 Q690.599 983.266 688.258 984.461 L685.148 981.351 Q687.685 980.549 689.748 979.371 Q691.794 978.176 693.381 976.588 Q695.509 974.46 695.935 972.594 Q696.344 970.712 695.018 969.386 Q693.791 968.158 692.301 968.338 Q690.828 968.502 687.423 970.695 L686.13 971.497 Q682.742 973.707 680.287 973.74 Q677.815 973.756 675.688 971.628 Q673.101 969.042 673.527 965.801 Q673.953 962.56 677.324 959.189 Q678.994 957.519 680.713 956.292 Q682.431 955.064 684.166 954.311 Z" fill="#000000" fill-rule="evenodd" fill-opacity="1" /><path clip-path="url(#clip360)" d="M689.404 947.993 L692.416 944.981 L710.748 963.313 L707.736 966.325 L689.404 947.993 M682.268 940.856 L685.279 937.845 L689.093 941.658 L686.081 944.67 L682.268 940.856 Z" fill="#000000" fill-rule="evenodd" fill-opacity="1" /><path clip-path="url(#clip360)" d="M716.166 939.465 Q712.516 943.115 711.943 945.358 Q711.37 947.6 713.383 949.613 Q714.987 951.217 716.984 951.119 Q718.981 950.988 720.798 949.171 Q723.302 946.667 723.041 943.393 Q722.779 940.087 719.832 937.141 L719.161 936.47 L716.166 939.465 M720.929 932.214 L731.388 942.673 L728.377 945.685 L725.594 942.902 Q726.232 945.603 725.496 947.944 Q724.743 950.268 722.517 952.494 Q719.701 955.309 716.461 955.408 Q713.22 955.473 710.568 952.821 Q707.474 949.728 707.965 946.094 Q708.473 942.444 712.581 938.336 L716.804 934.113 L716.51 933.818 Q714.431 931.739 711.927 931.985 Q709.422 932.198 706.951 934.669 Q705.379 936.241 704.266 938.107 Q703.153 939.972 702.531 942.1 L699.749 939.318 Q700.763 937.026 702.007 935.16 Q703.235 933.278 704.708 931.805 Q708.686 927.827 712.712 927.926 Q716.739 928.024 720.929 932.214 Z" fill="#000000" fill-rule="evenodd" fill-opacity="1" /><path clip-path="url(#clip360)" d="M743.353 910.87 L744.826 912.343 L730.979 926.191 Q734.285 929.104 737.592 929.071 Q740.898 929.006 743.894 926.01 Q745.629 924.275 746.823 922.229 Q748.035 920.167 748.788 917.712 L751.636 920.56 Q750.703 922.868 749.36 924.93 Q748.018 926.993 746.267 928.744 Q741.88 933.131 736.757 933.147 Q731.65 933.147 727.296 928.793 Q722.795 924.292 722.582 919.234 Q722.369 914.144 726.494 910.019 Q730.193 906.32 734.727 906.565 Q739.261 906.778 743.353 910.87 M739.458 912.998 Q736.953 910.559 734.122 910.444 Q731.306 910.313 729.08 912.54 Q726.56 915.06 726.461 918.006 Q726.38 920.936 728.737 923.752 L739.458 912.998 Z" fill="#000000" fill-rule="evenodd" fill-opacity="1" /><path clip-path="url(#clip360)" d="M640.235 1170.68 L606.468 1155.57 L609.921 1152.12 L638.238 1164.95 L625.422 1136.62 L628.859 1133.18 L643.983 1166.93 L640.235 1170.68 Z" fill="#000000" fill-rule="evenodd" fill-opacity="1" /><path clip-path="url(#clip360)" d="M648.681 1153.92 L652.135 1150.47 L656.292 1154.62 L652.839 1158.08 L648.681 1153.92 Z" fill="#000000" fill-rule="evenodd" fill-opacity="1" /><path clip-path="url(#clip360)" d="M669.289 1106.37 L672.104 1109.19 Q670.123 1109.76 668.486 1110.71 Q666.85 1111.63 665.54 1112.93 Q662.61 1115.86 662.856 1119.35 Q663.085 1122.82 666.44 1126.18 Q669.796 1129.53 673.282 1129.78 Q676.752 1130.01 679.682 1127.08 Q680.992 1125.77 681.925 1124.15 Q682.858 1122.49 683.431 1120.51 L686.213 1123.3 Q685.542 1125.15 684.478 1126.8 Q683.431 1128.44 681.908 1129.96 Q677.767 1134.1 672.726 1133.93 Q667.684 1133.77 663.265 1129.35 Q658.78 1124.87 658.666 1119.84 Q658.567 1114.8 662.856 1110.51 Q664.247 1109.12 665.868 1108.09 Q667.472 1107.04 669.289 1106.37 Z" fill="#000000" fill-rule="evenodd" fill-opacity="1" /><path clip-path="url(#clip360)" d="M696.329 1092.46 L707.393 1103.52 L704.382 1106.53 L693.415 1095.57 Q690.813 1092.97 688.505 1092.69 Q686.197 1092.41 684.167 1094.44 Q681.728 1096.88 681.876 1099.84 Q682.023 1102.8 684.707 1105.49 L695.068 1115.85 L692.04 1118.88 L666.571 1093.41 L669.599 1090.38 L679.584 1100.36 Q679.011 1097.63 679.65 1095.36 Q680.304 1093.06 682.219 1091.15 Q685.378 1087.99 688.963 1088.33 Q692.531 1088.66 696.329 1092.46 Z" fill="#000000" fill-rule="evenodd" fill-opacity="1" /><path clip-path="url(#clip360)" d="M704.284 1074.19 Q701.861 1076.61 702.352 1079.92 Q702.827 1083.21 706.117 1086.5 Q709.407 1089.79 712.697 1090.3 Q715.987 1090.77 718.426 1088.33 Q720.832 1085.93 720.341 1082.62 Q719.85 1079.31 716.576 1076.04 Q713.319 1072.78 710.012 1072.29 Q706.69 1071.78 704.284 1074.19 M701.73 1071.64 Q705.658 1067.71 710.454 1068.02 Q715.25 1068.33 719.768 1072.85 Q724.269 1077.35 724.596 1082.16 Q724.907 1086.96 720.979 1090.89 Q717.034 1094.83 712.238 1094.52 Q707.443 1094.18 702.941 1089.68 Q698.424 1085.16 698.096 1080.38 Q697.785 1075.58 701.73 1071.64 Z" fill="#000000" fill-rule="evenodd" fill-opacity="1" /><path clip-path="url(#clip360)" d="M708.441 1051.54 L711.453 1048.53 L736.922 1073.99 L733.91 1077.01 L708.441 1051.54 Z" fill="#000000" fill-rule="evenodd" fill-opacity="1" /><path clip-path="url(#clip360)" d="M748.985 1042.09 L750.458 1043.57 L736.611 1057.41 Q739.917 1060.33 743.223 1060.29 Q746.53 1060.23 749.525 1057.23 Q751.26 1055.5 752.455 1053.45 Q753.666 1051.39 754.419 1048.94 L757.267 1051.78 Q756.334 1054.09 754.992 1056.15 Q753.65 1058.22 751.898 1059.97 Q747.512 1064.35 742.389 1064.37 Q737.282 1064.37 732.928 1060.02 Q728.427 1055.52 728.214 1050.46 Q728.001 1045.37 732.126 1041.24 Q735.825 1037.54 740.359 1037.79 Q744.893 1038 748.985 1042.09 M745.089 1044.22 Q742.585 1041.78 739.753 1041.67 Q736.938 1041.54 734.712 1043.76 Q732.191 1046.28 732.093 1049.23 Q732.011 1052.16 734.368 1054.97 L745.089 1044.22 Z" fill="#000000" fill-rule="evenodd" fill-opacity="1" /><path clip-path="url(#clip360)" d="M758.953 1020.93 Q758.151 1021.14 757.414 1021.62 Q756.678 1022.06 755.958 1022.78 Q753.404 1025.33 753.699 1028.38 Q753.994 1031.39 757.103 1034.5 L766.761 1044.16 L763.733 1047.18 L745.4 1028.85 L748.428 1025.82 L751.276 1028.67 Q750.556 1026.05 751.276 1023.73 Q751.98 1021.39 754.157 1019.21 Q754.468 1018.9 754.894 1018.57 Q755.303 1018.23 755.843 1017.85 L758.953 1020.93 Z" fill="#000000" fill-rule="evenodd" fill-opacity="1" /><path clip-path="url(#clip360)" d="M776.745 1015.74 Q773.095 1019.39 772.522 1021.63 Q771.949 1023.88 773.963 1025.89 Q775.567 1027.49 777.564 1027.39 Q779.561 1027.26 781.377 1025.45 Q783.882 1022.94 783.62 1019.67 Q783.358 1016.36 780.412 1013.42 L779.741 1012.75 L776.745 1015.74 M781.508 1008.49 L791.968 1018.95 L788.956 1021.96 L786.173 1019.18 Q786.812 1021.88 786.075 1024.22 Q785.322 1026.54 783.096 1028.77 Q780.281 1031.58 777.04 1031.68 Q773.799 1031.75 771.147 1029.1 Q768.054 1026 768.545 1022.37 Q769.052 1018.72 773.161 1014.61 L777.384 1010.39 L777.089 1010.09 Q775.01 1008.01 772.506 1008.26 Q770.002 1008.47 767.53 1010.94 Q765.959 1012.52 764.846 1014.38 Q763.733 1016.25 763.111 1018.38 L760.328 1015.59 Q761.343 1013.3 762.587 1011.44 Q763.814 1009.55 765.288 1008.08 Q769.265 1004.1 773.292 1004.2 Q777.318 1004.3 781.508 1008.49 Z" fill="#000000" fill-rule="evenodd" fill-opacity="1" /><path clip-path="url(#clip360)" d="M803.933 987.145 L805.406 988.619 L791.558 1002.47 Q794.865 1005.38 798.171 1005.35 Q801.477 1005.28 804.473 1002.29 Q806.208 1000.55 807.403 998.505 Q808.614 996.443 809.367 993.987 L812.215 996.835 Q811.282 999.143 809.94 1001.21 Q808.598 1003.27 806.846 1005.02 Q802.46 1009.41 797.336 1009.42 Q792.229 1009.42 787.876 1005.07 Q783.374 1000.57 783.162 995.51 Q782.949 990.419 787.074 986.294 Q790.773 982.595 795.307 982.841 Q799.841 983.053 803.933 987.145 M800.037 989.273 Q797.533 986.834 794.701 986.72 Q791.886 986.589 789.66 988.815 Q787.139 991.336 787.041 994.282 Q786.959 997.212 789.316 1000.03 L800.037 989.273 Z" fill="#000000" fill-rule="evenodd" fill-opacity="1" /><path clip-path="url(#clip360)" d="M811.249 948.795 Q812.821 954.753 815.439 959.5 Q818.058 964.246 821.839 968.027 Q825.62 971.808 830.4 974.46 Q835.179 977.079 841.105 978.65 L838.486 981.269 Q832.184 979.878 827.241 977.39 Q822.314 974.886 818.648 971.219 Q814.998 967.569 812.51 962.659 Q810.022 957.748 808.63 951.414 L811.249 948.795 Z" fill="#000000" fill-rule="evenodd" fill-opacity="1" /><path clip-path="url(#clip360)" d="M822.445 951.807 L825.457 948.795 L843.527 959.336 L832.97 941.282 L836.522 937.73 L854.592 948.271 L844.035 930.217 L847.046 927.205 L860.583 950.334 L857.031 953.885 L838.06 942.804 L849.125 961.791 L845.573 965.343 L822.445 951.807 Z" fill="#000000" fill-rule="evenodd" fill-opacity="1" /><path clip-path="url(#clip360)" d="M849.387 914.455 L854.592 919.66 L860.796 913.456 L863.136 915.797 L856.933 922 L866.885 931.952 Q869.127 934.195 870.371 934.227 Q871.631 934.244 873.514 932.361 L876.607 929.268 L879.128 931.788 L876.034 934.882 Q872.548 938.368 869.929 938.401 Q867.294 938.418 863.856 934.98 L853.905 925.028 L851.695 927.238 L849.354 924.897 L851.564 922.688 L846.359 917.483 L849.387 914.455 Z" fill="#000000" fill-rule="evenodd" fill-opacity="1" /><path clip-path="url(#clip360)" d="M857.178 902.866 L859.797 900.247 Q866.115 901.655 871.026 904.143 Q875.952 906.614 879.603 910.264 Q883.269 913.931 885.757 918.874 Q888.261 923.801 889.653 930.103 L887.034 932.721 Q885.462 926.796 882.827 922.033 Q880.192 917.237 876.411 913.456 Q872.63 909.675 867.867 907.073 Q863.12 904.454 857.178 902.866 Z" fill="#000000" fill-rule="evenodd" fill-opacity="1" /><path clip-path="url(#clip360)" d="M742.881 1204.89 L709.113 1189.78 L712.567 1186.33 L740.884 1199.16 L728.067 1170.83 L731.505 1167.39 L746.629 1201.14 L742.881 1204.89 Z" fill="#000000" fill-rule="evenodd" fill-opacity="1" /><path clip-path="url(#clip360)" d="M751.326 1188.13 L754.78 1184.68 L758.938 1188.83 L755.484 1192.29 L751.326 1188.13 Z" fill="#000000" fill-rule="evenodd" fill-opacity="1" /><path clip-path="url(#clip360)" d="M771.934 1140.58 L774.749 1143.4 Q772.769 1143.97 771.132 1144.92 Q769.495 1145.83 768.186 1147.14 Q765.256 1150.07 765.501 1153.56 Q765.73 1157.03 769.086 1160.39 Q772.441 1163.74 775.928 1163.99 Q779.398 1164.22 782.328 1161.29 Q783.637 1159.98 784.57 1158.36 Q785.503 1156.7 786.076 1154.72 L788.859 1157.5 Q788.187 1159.35 787.124 1161.01 Q786.076 1162.64 784.554 1164.17 Q780.413 1168.31 775.371 1168.14 Q770.33 1167.98 765.91 1163.56 Q761.426 1159.08 761.311 1154.05 Q761.213 1149.01 765.501 1144.72 Q766.893 1143.33 768.513 1142.3 Q770.117 1141.25 771.934 1140.58 Z" fill="#000000" fill-rule="evenodd" fill-opacity="1" /><path clip-path="url(#clip360)" d="M798.974 1126.67 L810.039 1137.73 L807.027 1140.74 L796.061 1129.78 Q793.458 1127.17 791.15 1126.9 Q788.842 1126.62 786.813 1128.65 Q784.374 1131.09 784.521 1134.05 Q784.668 1137.01 787.353 1139.7 L797.714 1150.06 L794.686 1153.09 L769.217 1127.62 L772.245 1124.59 L782.229 1134.57 Q781.657 1131.84 782.295 1129.56 Q782.95 1127.27 784.865 1125.36 Q788.024 1122.2 791.608 1122.54 Q795.177 1122.87 798.974 1126.67 Z" fill="#000000" fill-rule="evenodd" fill-opacity="1" /><path clip-path="url(#clip360)" d="M806.929 1108.4 Q804.506 1110.82 804.998 1114.13 Q805.472 1117.42 808.762 1120.71 Q812.052 1124 815.342 1124.51 Q818.632 1124.98 821.071 1122.54 Q823.477 1120.14 822.986 1116.83 Q822.495 1113.52 819.221 1110.25 Q815.964 1106.99 812.658 1106.5 Q809.335 1105.99 806.929 1108.4 M804.376 1105.85 Q808.304 1101.92 813.1 1102.23 Q817.896 1102.54 822.413 1107.06 Q826.914 1111.56 827.242 1116.37 Q827.553 1121.17 823.624 1125.1 Q819.68 1129.04 814.884 1128.73 Q810.088 1128.39 805.587 1123.88 Q801.069 1119.37 800.742 1114.59 Q800.431 1109.79 804.376 1105.85 Z" fill="#000000" fill-rule="evenodd" fill-opacity="1" /><path clip-path="url(#clip360)" d="M811.086 1085.75 L814.098 1082.74 L839.567 1108.2 L836.555 1111.22 L811.086 1085.75 Z" fill="#000000" fill-rule="evenodd" fill-opacity="1" /><path clip-path="url(#clip360)" d="M851.63 1076.3 L853.103 1077.78 L839.256 1091.62 Q842.562 1094.54 845.869 1094.5 Q849.175 1094.44 852.17 1091.44 Q853.905 1089.71 855.1 1087.66 Q856.312 1085.6 857.065 1083.14 L859.913 1085.99 Q858.98 1088.3 857.637 1090.36 Q856.295 1092.43 854.544 1094.18 Q850.157 1098.56 845.034 1098.58 Q839.927 1098.58 835.573 1094.23 Q831.072 1089.72 830.859 1084.67 Q830.646 1079.58 834.771 1075.45 Q838.47 1071.75 843.004 1072 Q847.538 1072.21 851.63 1076.3 M847.735 1078.43 Q845.23 1075.99 842.399 1075.88 Q839.583 1075.75 837.357 1077.97 Q834.837 1080.49 834.738 1083.44 Q834.657 1086.37 837.014 1089.18 L847.735 1078.43 Z" fill="#000000" fill-rule="evenodd" fill-opacity="1" /><path clip-path="url(#clip360)" d="M861.599 1055.14 Q860.796 1055.35 860.06 1055.83 Q859.323 1056.27 858.603 1056.99 Q856.05 1059.54 856.344 1062.59 Q856.639 1065.6 859.749 1068.71 L869.406 1078.36 L866.378 1081.39 L848.046 1063.06 L851.074 1060.03 L853.922 1062.88 Q853.202 1060.26 853.922 1057.94 Q854.626 1055.6 856.803 1053.42 Q857.114 1053.11 857.539 1052.78 Q857.948 1052.44 858.489 1052.06 L861.599 1055.14 Z" fill="#000000" fill-rule="evenodd" fill-opacity="1" /><path clip-path="url(#clip360)" d="M879.391 1049.95 Q875.741 1053.6 875.168 1055.84 Q874.595 1058.08 876.608 1060.1 Q878.212 1061.7 880.209 1061.6 Q882.206 1061.47 884.023 1059.66 Q886.527 1057.15 886.265 1053.88 Q886.003 1050.57 883.057 1047.63 L882.386 1046.95 L879.391 1049.95 M884.154 1042.7 L894.613 1053.16 L891.601 1056.17 L888.819 1053.39 Q889.457 1056.09 888.72 1058.43 Q887.968 1060.75 885.742 1062.98 Q882.926 1065.79 879.685 1065.89 Q876.444 1065.96 873.793 1063.31 Q870.699 1060.21 871.19 1056.58 Q871.698 1052.93 875.806 1048.82 L880.029 1044.6 L879.734 1044.3 Q877.656 1042.22 875.151 1042.47 Q872.647 1042.68 870.175 1045.15 Q868.604 1046.73 867.491 1048.59 Q866.378 1050.46 865.756 1052.59 L862.973 1049.8 Q863.988 1047.51 865.232 1045.65 Q866.46 1043.76 867.933 1042.29 Q871.91 1038.31 875.937 1038.41 Q879.964 1038.51 884.154 1042.7 Z" fill="#000000" fill-rule="evenodd" fill-opacity="1" /><path clip-path="url(#clip360)" d="M906.578 1021.35 L908.051 1022.83 L894.204 1036.68 Q897.51 1039.59 900.817 1039.56 Q904.123 1039.49 907.118 1036.5 Q908.853 1034.76 910.048 1032.71 Q911.259 1030.65 912.012 1028.2 L914.86 1031.04 Q913.927 1033.35 912.585 1035.42 Q911.243 1037.48 909.492 1039.23 Q905.105 1043.62 899.982 1043.63 Q894.875 1043.63 890.521 1039.28 Q886.02 1034.78 885.807 1029.72 Q885.594 1024.63 889.719 1020.5 Q893.418 1016.8 897.952 1017.05 Q902.486 1017.26 906.578 1021.35 M902.683 1023.48 Q900.178 1021.04 897.347 1020.93 Q894.531 1020.8 892.305 1023.02 Q889.784 1025.55 889.686 1028.49 Q889.604 1031.42 891.961 1034.24 L902.683 1023.48 Z" fill="#000000" fill-rule="evenodd" fill-opacity="1" /><path clip-path="url(#clip360)" d="M913.895 983.004 Q915.466 988.962 918.085 993.709 Q920.704 998.456 924.485 1002.24 Q928.266 1006.02 933.045 1008.67 Q937.825 1011.29 943.75 1012.86 L941.131 1015.48 Q934.83 1014.09 929.886 1011.6 Q924.96 1009.1 921.293 1005.43 Q917.643 1001.78 915.155 996.868 Q912.667 991.958 911.276 985.623 L913.895 983.004 Z" fill="#000000" fill-rule="evenodd" fill-opacity="1" /><path clip-path="url(#clip360)" d="M920.867 978.028 L936.319 962.577 L939.102 965.359 L926.956 977.505 L934.191 984.739 L945.829 973.102 L948.611 975.884 L936.974 987.522 L945.829 996.377 L958.269 983.937 L961.051 986.72 L945.305 1002.47 L920.867 978.028 Z" fill="#000000" fill-rule="evenodd" fill-opacity="1" /><path clip-path="url(#clip360)" d="M948.071 956.259 L957.254 965.441 L961.411 961.284 Q963.719 958.976 963.785 956.521 Q963.85 954.065 961.64 951.856 Q959.447 949.662 956.992 949.728 Q954.537 949.793 952.229 952.101 L948.071 956.259 M942.048 956.848 L949.512 949.384 Q953.62 945.276 957.581 945.047 Q961.542 944.785 965.127 948.369 Q968.744 951.987 968.482 955.948 Q968.237 959.892 964.128 964.001 L959.971 968.158 L969.792 977.979 L966.485 981.286 L942.048 956.848 Z" fill="#000000" fill-rule="evenodd" fill-opacity="1" /><path clip-path="url(#clip360)" d="M977.714 922.786 L980.939 926.01 Q978.156 926.993 976.044 928.22 Q973.933 929.448 972.378 931.003 Q969.677 933.703 969.252 936.224 Q968.842 938.729 970.774 940.66 Q972.394 942.28 974.195 942.149 Q975.995 941.986 979.22 939.776 L981.626 938.188 Q986.029 935.193 989.565 935.226 Q993.1 935.226 996.079 938.205 Q999.631 941.757 999.074 945.98 Q998.534 950.186 993.935 954.786 Q992.2 956.521 989.843 958.092 Q987.502 959.647 984.638 960.973 L981.233 957.568 Q984.376 956.684 986.88 955.326 Q989.384 953.967 991.25 952.101 Q994.082 949.27 994.508 946.618 Q994.933 943.966 992.871 941.904 Q991.07 940.103 988.943 940.202 Q986.831 940.283 983.803 942.297 L981.397 943.917 Q976.961 946.88 973.737 946.962 Q970.512 947.044 967.713 944.245 Q964.472 941.004 964.881 936.863 Q965.307 932.705 969.317 928.695 Q971.036 926.976 973.131 925.503 Q975.226 924.03 977.714 922.786 Z" fill="#000000" fill-rule="evenodd" fill-opacity="1" /><path clip-path="url(#clip360)" d="M995.801 930.921 L1004.62 922.098 L1007.31 924.783 L998.485 933.605 L995.801 930.921 Z" fill="#000000" fill-rule="evenodd" fill-opacity="1" /><path clip-path="url(#clip360)" d="M994.033 902.866 L996.652 900.247 Q1002.97 901.655 1007.88 904.143 Q1012.81 906.614 1016.46 910.264 Q1020.12 913.931 1022.61 918.874 Q1025.12 923.801 1026.51 930.103 L1023.89 932.721 Q1022.32 926.796 1019.68 922.033 Q1017.05 917.237 1013.27 913.456 Q1009.48 909.675 1004.72 907.073 Q999.975 904.454 994.033 902.866 Z" fill="#000000" fill-rule="evenodd" fill-opacity="1" /><path clip-path="url(#clip360)" d="M891.897 1143.85 L895.203 1140.55 L905.531 1150.88 L906.17 1129.58 L910.426 1125.33 L909.689 1148.85 L935.731 1148.9 L931.377 1153.25 L907.872 1153.22 L919.641 1164.99 L916.334 1168.29 L891.897 1143.85 Z" fill="#000000" fill-rule="evenodd" fill-opacity="1" /><path clip-path="url(#clip360)" d="M934.454 1141.86 L937.908 1138.4 L942.065 1142.56 L938.611 1146.01 L934.454 1141.86 Z" fill="#000000" fill-rule="evenodd" fill-opacity="1" /><path clip-path="url(#clip360)" d="M959.661 1119.47 L969.384 1129.19 L966.355 1132.22 L941.05 1106.91 L944.078 1103.88 L946.861 1106.67 Q946.174 1104.08 946.828 1101.85 Q947.483 1099.59 949.496 1097.58 Q952.835 1094.24 957.566 1094.81 Q962.313 1095.37 966.634 1099.69 Q970.955 1104.01 971.511 1108.76 Q972.084 1113.49 968.745 1116.83 Q966.732 1118.84 964.489 1119.51 Q962.247 1120.15 959.661 1119.47 M963.507 1102.82 Q960.185 1099.5 956.927 1098.99 Q953.67 1098.45 951.28 1100.84 Q948.891 1103.23 949.414 1106.5 Q949.938 1109.74 953.261 1113.07 Q956.584 1116.39 959.841 1116.93 Q963.098 1117.44 965.488 1115.05 Q967.878 1112.66 967.354 1109.42 Q966.83 1106.14 963.507 1102.82 Z" fill="#000000" fill-rule="evenodd" fill-opacity="1" /><path clip-path="url(#clip360)" d="M984.95 1077.55 L996.014 1088.61 L993.003 1091.62 L982.036 1080.66 Q979.434 1078.05 977.126 1077.78 Q974.818 1077.5 972.788 1079.53 Q970.349 1081.97 970.497 1084.93 Q970.644 1087.89 973.328 1090.58 L983.689 1100.94 L980.661 1103.96 L962.329 1085.63 L965.357 1082.6 L968.205 1085.45 Q967.632 1082.72 968.27 1080.44 Q968.925 1078.15 970.84 1076.24 Q973.999 1073.08 977.584 1073.42 Q981.152 1073.75 984.95 1077.55 Z" fill="#000000" fill-rule="evenodd" fill-opacity="1" /><path clip-path="url(#clip360)" d="M1007.78 1057 L1009.26 1058.48 L995.409 1072.33 Q998.715 1075.24 1002.02 1075.21 Q1005.33 1075.14 1008.32 1072.15 Q1010.06 1070.41 1011.25 1068.36 Q1012.46 1066.3 1013.22 1063.85 L1016.07 1066.69 Q1015.13 1069 1013.79 1071.06 Q1012.45 1073.13 1010.7 1074.88 Q1006.31 1079.27 1001.19 1079.28 Q996.08 1079.28 991.726 1074.93 Q987.225 1070.43 987.012 1065.37 Q986.799 1060.28 990.924 1056.15 Q994.623 1052.45 999.157 1052.7 Q1003.69 1052.91 1007.78 1057 M1003.89 1059.13 Q1001.38 1056.69 998.552 1056.58 Q995.736 1056.45 993.51 1058.67 Q990.989 1061.19 990.891 1064.14 Q990.809 1067.07 993.166 1069.89 L1003.89 1059.13 Z" fill="#000000" fill-rule="evenodd" fill-opacity="1" /><path clip-path="url(#clip360)" d="M1015.1 1055.06 L1004 1043.96 L1007.01 1040.95 L1018 1051.93 Q1020.6 1054.53 1022.92 1054.83 Q1025.23 1055.11 1027.26 1053.08 Q1029.7 1050.64 1029.55 1047.67 Q1029.42 1044.7 1026.74 1042.01 L1016.34 1031.62 L1019.36 1028.61 L1037.69 1046.94 L1034.68 1049.95 L1031.86 1047.13 Q1032.43 1049.9 1031.8 1052.18 Q1031.16 1054.42 1029.24 1056.33 Q1026.08 1059.49 1022.48 1059.17 Q1018.88 1058.84 1015.1 1055.06 M1011.14 1035.94 L1011.14 1035.94 Z" fill="#000000" fill-rule="evenodd" fill-opacity="1" /><path clip-path="url(#clip360)" d="M1043.35 1011.65 Q1042.45 1008.49 1043.06 1005.95 Q1043.66 1003.42 1045.79 1001.29 Q1048.65 998.423 1052.22 998.881 Q1055.77 999.323 1059.47 1003.02 L1070.54 1014.09 L1067.51 1017.12 L1056.54 1006.15 Q1053.91 1003.51 1051.7 1003.17 Q1049.49 1002.83 1047.57 1004.74 Q1045.23 1007.08 1045.43 1010 Q1045.63 1012.91 1048.31 1015.59 L1058.67 1025.95 L1055.64 1028.98 L1044.68 1018.02 Q1042.03 1015.36 1039.83 1015.04 Q1037.62 1014.69 1035.67 1016.64 Q1033.37 1018.95 1033.58 1021.88 Q1033.78 1024.79 1036.44 1027.46 L1046.8 1037.82 L1043.78 1040.85 L1025.44 1022.52 L1028.47 1019.49 L1031.32 1022.34 Q1030.67 1019.62 1031.3 1017.38 Q1031.94 1015.13 1033.92 1013.15 Q1035.92 1011.16 1038.33 1010.78 Q1040.75 1010.39 1043.35 1011.65 Z" fill="#000000" fill-rule="evenodd" fill-opacity="1" /><path clip-path="url(#clip360)" d="M1067.43 984.756 Q1065.01 987.178 1065.5 990.485 Q1065.97 993.775 1069.26 997.065 Q1072.55 1000.35 1075.84 1000.86 Q1079.13 1001.34 1081.57 998.898 Q1083.98 996.492 1083.49 993.185 Q1082.99 989.879 1079.72 986.605 Q1076.46 983.348 1073.16 982.857 Q1069.83 982.35 1067.43 984.756 M1064.88 982.202 Q1068.8 978.274 1073.6 978.585 Q1078.4 978.896 1082.91 983.413 Q1087.41 987.915 1087.74 992.727 Q1088.05 997.523 1084.12 1001.45 Q1080.18 1005.4 1075.38 1005.08 Q1070.59 1004.74 1066.09 1000.24 Q1061.57 995.722 1061.24 990.943 Q1060.93 986.147 1064.88 982.202 Z" fill="#000000" fill-rule="evenodd" fill-opacity="1" /><path clip-path="url(#clip360)" d="M1101.23 961.267 L1112.29 972.332 L1109.28 975.344 L1098.32 964.377 Q1095.71 961.775 1093.4 961.497 Q1091.1 961.218 1089.07 963.248 Q1086.63 965.687 1086.78 968.649 Q1086.92 971.612 1089.61 974.296 L1099.97 984.657 L1096.94 987.686 L1078.61 969.353 L1081.64 966.325 L1084.48 969.173 Q1083.91 966.44 1084.55 964.165 Q1085.2 961.873 1087.12 959.958 Q1090.28 956.799 1093.86 957.143 Q1097.43 957.47 1101.23 961.267 Z" fill="#000000" fill-rule="evenodd" fill-opacity="1" /><path clip-path="url(#clip360)" d="M1099.97 947.993 L1102.98 944.981 L1121.31 963.313 L1118.3 966.325 L1099.97 947.993 M1092.83 940.856 L1095.84 937.845 L1099.66 941.658 L1096.65 944.67 L1092.83 940.856 Z" fill="#000000" fill-rule="evenodd" fill-opacity="1" /><path clip-path="url(#clip360)" d="M1126.73 939.465 Q1123.08 943.115 1122.51 945.358 Q1121.93 947.6 1123.95 949.613 Q1125.55 951.217 1127.55 951.119 Q1129.55 950.988 1131.36 949.171 Q1133.87 946.667 1133.6 943.393 Q1133.34 940.087 1130.4 937.141 L1129.73 936.47 L1126.73 939.465 M1131.49 932.214 L1141.95 942.673 L1138.94 945.685 L1136.16 942.902 Q1136.8 945.603 1136.06 947.944 Q1135.31 950.268 1133.08 952.494 Q1130.27 955.309 1127.02 955.408 Q1123.78 955.473 1121.13 952.821 Q1118.04 949.728 1118.53 946.094 Q1119.04 942.444 1123.15 938.336 L1127.37 934.113 L1127.07 933.818 Q1125 931.739 1122.49 931.985 Q1119.99 932.198 1117.52 934.669 Q1115.94 936.241 1114.83 938.107 Q1113.72 939.972 1113.1 942.1 L1110.31 939.318 Q1111.33 937.026 1112.57 935.16 Q1113.8 933.278 1115.27 931.805 Q1119.25 927.827 1123.28 927.926 Q1127.3 928.024 1131.49 932.214 Z" fill="#000000" fill-rule="evenodd" fill-opacity="1" /><path clip-path="url(#clip360)" d="M1153.92 910.87 L1155.39 912.343 L1141.54 926.191 Q1144.85 929.104 1148.16 929.071 Q1151.46 929.006 1154.46 926.01 Q1156.19 924.275 1157.39 922.229 Q1158.6 920.167 1159.35 917.712 L1162.2 920.56 Q1161.27 922.868 1159.92 924.93 Q1158.58 926.993 1156.83 928.744 Q1152.44 933.131 1147.32 933.147 Q1142.21 933.147 1137.86 928.793 Q1133.36 924.292 1133.15 919.234 Q1132.93 914.144 1137.06 910.019 Q1140.76 906.32 1145.29 906.565 Q1149.83 906.778 1153.92 910.87 M1150.02 912.998 Q1147.52 910.559 1144.69 910.444 Q1141.87 910.313 1139.64 912.54 Q1137.12 915.06 1137.03 918.006 Q1136.94 920.936 1139.3 923.752 L1150.02 912.998 Z" fill="#000000" fill-rule="evenodd" fill-opacity="1" /><path clip-path="url(#clip360)" d="M1141.51 1056.63 L1150.47 1065.58 L1155.77 1060.28 Q1158.44 1057.61 1158.62 1055.24 Q1158.8 1052.83 1156.52 1050.56 Q1154.23 1048.26 1151.86 1048.48 Q1149.48 1048.66 1146.81 1051.32 L1141.51 1056.63 M1131.46 1046.58 L1138.83 1053.94 L1143.72 1049.05 Q1146.14 1046.63 1146.42 1044.55 Q1146.7 1042.44 1144.83 1040.57 Q1142.98 1038.72 1140.87 1039 Q1138.78 1039.26 1136.36 1041.68 L1131.46 1046.58 M1125.44 1047.17 L1133.88 1038.72 Q1137.67 1034.94 1141.28 1034.47 Q1144.9 1033.99 1147.8 1036.89 Q1150.04 1039.13 1150.32 1041.5 Q1150.6 1043.88 1148.89 1046.23 Q1151.86 1044.32 1154.87 1044.65 Q1157.88 1044.94 1160.37 1047.43 Q1163.64 1050.7 1163.2 1054.71 Q1162.76 1058.72 1158.65 1062.83 L1149.88 1071.6 L1125.44 1047.17 Z" fill="#000000" fill-rule="evenodd" fill-opacity="1" /><path clip-path="url(#clip360)" d="M1169.01 1044.16 L1172.46 1040.7 L1176.62 1044.86 L1173.17 1048.31 L1169.01 1044.16 Z" fill="#000000" fill-rule="evenodd" fill-opacity="1" /><path clip-path="url(#clip360)" d="M1189.62 996.606 L1192.43 999.422 Q1190.45 999.994 1188.82 1000.94 Q1187.18 1001.86 1185.87 1003.17 Q1182.94 1006.1 1183.18 1009.59 Q1183.41 1013.06 1186.77 1016.41 Q1190.12 1019.77 1193.61 1020.01 Q1197.08 1020.24 1200.01 1017.31 Q1201.32 1016 1202.25 1014.38 Q1203.19 1012.73 1203.76 1010.75 L1206.54 1013.53 Q1205.87 1015.38 1204.81 1017.03 Q1203.76 1018.67 1202.24 1020.19 Q1198.1 1024.33 1193.05 1024.17 Q1188.01 1024.01 1183.59 1019.59 Q1179.11 1015.1 1178.99 1010.08 Q1178.9 1005.04 1183.18 1000.75 Q1184.58 999.356 1186.2 998.325 Q1187.8 997.277 1189.62 996.606 Z" fill="#000000" fill-rule="evenodd" fill-opacity="1" /><path clip-path="url(#clip360)" d="M1218.25 983.397 L1219.72 984.87 L1205.87 998.718 Q1209.18 1001.63 1212.48 1001.6 Q1215.79 1001.53 1218.79 998.538 Q1220.52 996.803 1221.72 994.757 Q1222.93 992.694 1223.68 990.239 L1226.53 993.087 Q1225.59 995.395 1224.25 997.457 Q1222.91 999.52 1221.16 1001.27 Q1216.77 1005.66 1211.65 1005.67 Q1206.54 1005.67 1202.19 1001.32 Q1197.69 996.819 1197.47 991.761 Q1197.26 986.671 1201.39 982.546 Q1205.09 978.847 1209.62 979.092 Q1214.15 979.305 1218.25 983.397 M1214.35 985.525 Q1211.85 983.086 1209.01 982.972 Q1206.2 982.841 1203.97 985.067 Q1201.45 987.587 1201.35 990.534 Q1201.27 993.464 1203.63 996.279 L1214.35 985.525 Z" fill="#000000" fill-rule="evenodd" fill-opacity="1" /><path clip-path="url(#clip360)" d="M1228.21 962.233 Q1227.41 962.446 1226.67 962.921 Q1225.94 963.363 1225.22 964.083 Q1222.66 966.636 1222.96 969.681 Q1223.25 972.692 1226.36 975.802 L1236.02 985.46 L1232.99 988.488 L1214.66 970.155 L1217.69 967.127 L1220.54 969.975 Q1219.82 967.356 1220.54 965.032 Q1221.24 962.691 1223.42 960.514 Q1223.73 960.203 1224.15 959.876 Q1224.56 959.532 1225.1 959.156 L1228.21 962.233 Z" fill="#000000" fill-rule="evenodd" fill-opacity="1" /><path clip-path="url(#clip360)" d="M1251.91 949.728 L1253.39 951.201 L1239.54 965.048 Q1242.85 967.962 1246.15 967.929 Q1249.46 967.864 1252.45 964.868 Q1254.19 963.133 1255.38 961.087 Q1256.6 959.025 1257.35 956.57 L1260.2 959.418 Q1259.26 961.726 1257.92 963.788 Q1256.58 965.85 1254.83 967.602 Q1250.44 971.989 1245.32 972.005 Q1240.21 972.005 1235.86 967.651 Q1231.36 963.15 1231.14 958.092 Q1230.93 953.002 1235.06 948.877 Q1238.75 945.178 1243.29 945.423 Q1247.82 945.636 1251.91 949.728 M1248.02 951.856 Q1245.51 949.417 1242.68 949.302 Q1239.87 949.171 1237.64 951.397 Q1235.12 953.918 1235.02 956.864 Q1234.94 959.794 1237.3 962.61 L1248.02 951.856 Z" fill="#000000" fill-rule="evenodd" fill-opacity="1" /><path clip-path="url(#clip360)" d="M1259.23 947.78 L1248.13 936.682 L1251.15 933.671 L1262.13 944.654 Q1264.73 947.256 1267.06 947.551 Q1269.36 947.829 1271.39 945.8 Q1273.83 943.361 1273.68 940.398 Q1273.55 937.419 1270.87 934.735 L1260.48 924.341 L1263.49 921.329 L1281.82 939.661 L1278.81 942.673 L1275.99 939.858 Q1276.57 942.624 1275.93 944.899 Q1275.29 947.142 1273.37 949.057 Q1270.21 952.216 1266.61 951.888 Q1263.01 951.561 1259.23 947.78 M1255.27 928.662 L1255.27 928.662 Z" fill="#000000" fill-rule="evenodd" fill-opacity="1" /><path clip-path="url(#clip360)" d="M1281.92 903.979 L1284.77 906.827 Q1282.83 907.449 1281.13 908.497 Q1279.43 909.544 1277.96 911.017 Q1275.71 913.26 1275.27 915.077 Q1274.85 916.877 1276.22 918.252 Q1277.27 919.3 1278.68 919.103 Q1280.07 918.89 1283.03 917.008 L1284.29 916.206 Q1288.19 913.685 1290.79 913.603 Q1293.39 913.489 1295.63 915.731 Q1298.19 918.285 1297.65 921.804 Q1297.12 925.307 1293.59 928.842 Q1292.11 930.315 1290.22 931.625 Q1288.35 932.934 1286.01 934.129 L1282.9 931.019 Q1285.44 930.217 1287.5 929.039 Q1289.54 927.844 1291.13 926.256 Q1293.26 924.128 1293.69 922.262 Q1294.1 920.38 1292.77 919.054 Q1291.54 917.826 1290.05 918.006 Q1288.58 918.17 1285.17 920.363 L1283.88 921.166 Q1280.49 923.375 1278.04 923.408 Q1275.57 923.424 1273.44 921.296 Q1270.85 918.71 1271.28 915.469 Q1271.7 912.229 1275.08 908.857 Q1276.75 907.187 1278.46 905.96 Q1280.18 904.732 1281.92 903.979 Z" fill="#000000" fill-rule="evenodd" fill-opacity="1" /><path clip-path="url(#clip360)" d="M1276.73 1034.33 L1279.95 1037.56 Q1277.17 1038.54 1275.06 1039.77 Q1272.95 1041 1271.39 1042.55 Q1268.69 1045.25 1268.27 1047.77 Q1267.86 1050.28 1269.79 1052.21 Q1271.41 1053.83 1273.21 1053.7 Q1275.01 1053.53 1278.24 1051.32 L1280.64 1049.74 Q1285.04 1046.74 1288.58 1046.77 Q1292.12 1046.77 1295.09 1049.75 Q1298.65 1053.31 1298.09 1057.53 Q1297.55 1061.73 1292.95 1066.33 Q1291.22 1068.07 1288.86 1069.64 Q1286.52 1071.2 1283.65 1072.52 L1280.25 1069.12 Q1283.39 1068.23 1285.9 1066.87 Q1288.4 1065.52 1290.27 1063.65 Q1293.1 1060.82 1293.52 1058.17 Q1293.95 1055.52 1291.89 1053.45 Q1290.09 1051.65 1287.96 1051.75 Q1285.85 1051.83 1282.82 1053.85 L1280.41 1055.47 Q1275.98 1058.43 1272.75 1058.51 Q1269.53 1058.59 1266.73 1055.79 Q1263.49 1052.55 1263.9 1048.41 Q1264.32 1044.25 1268.33 1040.24 Q1270.05 1038.52 1272.15 1037.05 Q1274.24 1035.58 1276.73 1034.33 Z" fill="#000000" fill-rule="evenodd" fill-opacity="1" /><path clip-path="url(#clip360)" d="M1303.13 1046.89 L1306.59 1043.44 L1310.74 1047.59 L1307.29 1051.05 L1303.13 1046.89 Z" fill="#000000" fill-rule="evenodd" fill-opacity="1" /><path clip-path="url(#clip360)" d="M1327.29 1012.61 Q1323.64 1016.26 1323.07 1018.51 Q1322.49 1020.75 1324.51 1022.76 Q1326.11 1024.37 1328.11 1024.27 Q1330.11 1024.14 1331.92 1022.32 Q1334.43 1019.82 1334.17 1016.54 Q1333.9 1013.24 1330.96 1010.29 L1330.29 1009.62 L1327.29 1012.61 M1332.05 1005.36 L1342.51 1015.82 L1339.5 1018.83 L1336.72 1016.05 Q1337.36 1018.75 1336.62 1021.09 Q1335.87 1023.42 1333.64 1025.64 Q1330.83 1028.46 1327.59 1028.56 Q1324.34 1028.62 1321.69 1025.97 Q1318.6 1022.88 1319.09 1019.24 Q1319.6 1015.59 1323.71 1011.48 L1327.93 1007.26 L1327.63 1006.97 Q1325.56 1004.89 1323.05 1005.13 Q1320.55 1005.35 1318.08 1007.82 Q1316.5 1009.39 1315.39 1011.26 Q1314.28 1013.12 1313.66 1015.25 L1310.87 1012.47 Q1311.89 1010.18 1313.13 1008.31 Q1314.36 1006.43 1315.83 1004.95 Q1319.81 1000.98 1323.84 1001.07 Q1327.86 1001.17 1332.05 1005.36 Z" fill="#000000" fill-rule="evenodd" fill-opacity="1" /><path clip-path="url(#clip360)" d="M1341.17 1002.7 L1330.07 991.598 L1333.09 988.586 L1344.07 999.569 Q1346.67 1002.17 1348.99 1002.47 Q1351.3 1002.74 1353.33 1000.71 Q1355.77 998.276 1355.62 995.313 Q1355.49 992.334 1352.81 989.65 L1342.41 979.256 L1345.43 976.244 L1363.76 994.577 L1360.75 997.588 L1357.93 994.773 Q1358.5 997.539 1357.87 999.814 Q1357.23 1002.06 1355.31 1003.97 Q1352.15 1007.13 1348.55 1006.8 Q1344.95 1006.48 1341.17 1002.7 M1337.21 983.577 L1337.21 983.577 Z" fill="#000000" fill-rule="evenodd" fill-opacity="1" /><path clip-path="url(#clip360)" d="M1365.07 962.233 Q1364.27 962.446 1363.53 962.921 Q1362.79 963.363 1362.07 964.083 Q1359.52 966.636 1359.81 969.681 Q1360.11 972.692 1363.22 975.802 L1372.88 985.46 L1369.85 988.488 L1351.52 970.155 L1354.54 967.127 L1357.39 969.975 Q1356.67 967.356 1357.39 965.032 Q1358.1 962.691 1360.27 960.514 Q1360.58 960.203 1361.01 959.876 Q1361.42 959.532 1361.96 959.156 L1365.07 962.233 Z" fill="#000000" fill-rule="evenodd" fill-opacity="1" /><path clip-path="url(#clip360)" d="M1388.77 949.728 L1390.24 951.201 L1376.4 965.048 Q1379.7 967.962 1383.01 967.929 Q1386.31 967.864 1389.31 964.868 Q1391.04 963.133 1392.24 961.087 Q1393.45 959.025 1394.2 956.57 L1397.05 959.418 Q1396.12 961.726 1394.78 963.788 Q1393.43 965.85 1391.68 967.602 Q1387.3 971.989 1382.17 972.005 Q1377.07 972.005 1372.71 967.651 Q1368.21 963.15 1368 958.092 Q1367.79 953.002 1371.91 948.877 Q1375.61 945.178 1380.14 945.423 Q1384.68 945.636 1388.77 949.728 M1384.87 951.856 Q1382.37 949.417 1379.54 949.302 Q1376.72 949.171 1374.5 951.397 Q1371.98 953.918 1371.88 956.864 Q1371.8 959.794 1374.15 962.61 L1384.87 951.856 Z" fill="#000000" fill-rule="evenodd" fill-opacity="1" /><path clip-path="url(#clip360)" d="M1396.09 947.78 L1384.99 936.682 L1388 933.671 L1398.98 944.654 Q1401.59 947.256 1403.91 947.551 Q1406.22 947.829 1408.25 945.8 Q1410.69 943.361 1410.54 940.398 Q1410.41 937.419 1407.72 934.735 L1397.33 924.341 L1400.34 921.329 L1418.67 939.661 L1415.66 942.673 L1412.85 939.858 Q1413.42 942.624 1412.78 944.899 Q1412.14 947.142 1410.23 949.057 Q1407.07 952.216 1403.47 951.888 Q1399.87 951.561 1396.09 947.78 M1392.12 928.662 L1392.12 928.662 Z" fill="#000000" fill-rule="evenodd" fill-opacity="1" /><path clip-path="url(#clip360)" d="M1418.77 903.979 L1421.62 906.827 Q1419.69 907.449 1417.99 908.497 Q1416.28 909.544 1414.81 911.017 Q1412.57 913.26 1412.13 915.077 Q1411.7 916.877 1413.08 918.252 Q1414.12 919.3 1415.53 919.103 Q1416.92 918.89 1419.89 917.008 L1421.15 916.206 Q1425.04 913.685 1427.64 913.603 Q1430.25 913.489 1432.49 915.731 Q1435.04 918.285 1434.5 921.804 Q1433.98 925.307 1430.44 928.842 Q1428.97 930.315 1427.07 931.625 Q1425.2 932.934 1422.86 934.129 L1419.75 931.019 Q1422.29 930.217 1424.35 929.039 Q1426.4 927.844 1427.99 926.256 Q1430.12 924.128 1430.54 922.262 Q1430.95 920.38 1429.62 919.054 Q1428.4 917.826 1426.91 918.006 Q1425.43 918.17 1422.03 920.363 L1420.74 921.166 Q1417.35 923.375 1414.89 923.408 Q1412.42 923.424 1410.29 921.296 Q1407.71 918.71 1408.13 915.469 Q1408.56 912.229 1411.93 908.857 Q1413.6 907.187 1415.32 905.96 Q1417.04 904.732 1418.77 903.979 Z" fill="#000000" fill-rule="evenodd" fill-opacity="1" /><polyline clip-path="url(#clip360)" style="stroke:#000000; stroke-linecap:butt; stroke-linejoin:round; stroke-width:4; stroke-opacity:1; fill:none" points="
  203.061,877.442 203.061,47.2441 
  "/>
<polyline clip-path="url(#clip360)" style="stroke:#000000; stroke-linecap:butt; stroke-linejoin:round; stroke-width:4; stroke-opacity:1; fill:none" points="
  203.061,877.442 221.959,877.442 
  "/>
<polyline clip-path="url(#clip360)" style="stroke:#000000; stroke-linecap:butt; stroke-linejoin:round; stroke-width:4; stroke-opacity:1; fill:none" points="
  203.061,692.954 221.959,692.954 
  "/>
<polyline clip-path="url(#clip360)" style="stroke:#000000; stroke-linecap:butt; stroke-linejoin:round; stroke-width:4; stroke-opacity:1; fill:none" points="
  203.061,508.465 221.959,508.465 
  "/>
<polyline clip-path="url(#clip360)" style="stroke:#000000; stroke-linecap:butt; stroke-linejoin:round; stroke-width:4; stroke-opacity:1; fill:none" points="
  203.061,323.977 221.959,323.977 
  "/>
<polyline clip-path="url(#clip360)" style="stroke:#000000; stroke-linecap:butt; stroke-linejoin:round; stroke-width:4; stroke-opacity:1; fill:none" points="
  203.061,139.488 221.959,139.488 
  "/>
<path clip-path="url(#clip360)" d="M167.117 863.241 Q163.506 863.241 161.677 866.806 Q159.871 870.347 159.871 877.477 Q159.871 884.583 161.677 888.148 Q163.506 891.69 167.117 891.69 Q170.751 891.69 172.556 888.148 Q174.385 884.583 174.385 877.477 Q174.385 870.347 172.556 866.806 Q170.751 863.241 167.117 863.241 M167.117 859.537 Q172.927 859.537 175.982 864.143 Q179.061 868.727 179.061 877.477 Q179.061 886.204 175.982 890.81 Q172.927 895.393 167.117 895.393 Q161.306 895.393 158.228 890.81 Q155.172 886.204 155.172 877.477 Q155.172 868.727 158.228 864.143 Q161.306 859.537 167.117 859.537 Z" fill="#000000" fill-rule="evenodd" fill-opacity="1" /><path clip-path="url(#clip360)" d="M127.765 706.298 L135.404 706.298 L135.404 679.933 L127.094 681.599 L127.094 677.34 L135.358 675.674 L140.033 675.674 L140.033 706.298 L147.672 706.298 L147.672 710.234 L127.765 710.234 L127.765 706.298 Z" fill="#000000" fill-rule="evenodd" fill-opacity="1" /><path clip-path="url(#clip360)" d="M167.117 678.752 Q163.506 678.752 161.677 682.317 Q159.871 685.859 159.871 692.988 Q159.871 700.095 161.677 703.66 Q163.506 707.201 167.117 707.201 Q170.751 707.201 172.556 703.66 Q174.385 700.095 174.385 692.988 Q174.385 685.859 172.556 682.317 Q170.751 678.752 167.117 678.752 M167.117 675.049 Q172.927 675.049 175.982 679.655 Q179.061 684.238 179.061 692.988 Q179.061 701.715 175.982 706.322 Q172.927 710.905 167.117 710.905 Q161.306 710.905 158.228 706.322 Q155.172 701.715 155.172 692.988 Q155.172 684.238 158.228 679.655 Q161.306 675.049 167.117 675.049 Z" fill="#000000" fill-rule="evenodd" fill-opacity="1" /><path clip-path="url(#clip360)" d="M130.983 521.81 L147.302 521.81 L147.302 525.745 L125.358 525.745 L125.358 521.81 Q128.02 519.055 132.603 514.426 Q137.209 509.773 138.39 508.43 Q140.635 505.907 141.515 504.171 Q142.418 502.412 142.418 500.722 Q142.418 497.968 140.473 496.231 Q138.552 494.495 135.45 494.495 Q133.251 494.495 130.797 495.259 Q128.367 496.023 125.589 497.574 L125.589 492.852 Q128.413 491.718 130.867 491.139 Q133.32 490.56 135.358 490.56 Q140.728 490.56 143.922 493.245 Q147.117 495.931 147.117 500.421 Q147.117 502.551 146.307 504.472 Q145.519 506.37 143.413 508.963 Q142.834 509.634 139.732 512.852 Q136.631 516.046 130.983 521.81 Z" fill="#000000" fill-rule="evenodd" fill-opacity="1" /><path clip-path="url(#clip360)" d="M167.117 494.264 Q163.506 494.264 161.677 497.829 Q159.871 501.37 159.871 508.5 Q159.871 515.606 161.677 519.171 Q163.506 522.713 167.117 522.713 Q170.751 522.713 172.556 519.171 Q174.385 515.606 174.385 508.5 Q174.385 501.37 172.556 497.829 Q170.751 494.264 167.117 494.264 M167.117 490.56 Q172.927 490.56 175.982 495.167 Q179.061 499.75 179.061 508.5 Q179.061 517.227 175.982 521.833 Q172.927 526.416 167.117 526.416 Q161.306 526.416 158.228 521.833 Q155.172 517.227 155.172 508.5 Q155.172 499.75 158.228 495.167 Q161.306 490.56 167.117 490.56 Z" fill="#000000" fill-rule="evenodd" fill-opacity="1" /><path clip-path="url(#clip360)" d="M141.121 322.623 Q144.478 323.34 146.353 325.609 Q148.251 327.877 148.251 331.21 Q148.251 336.326 144.732 339.127 Q141.214 341.928 134.733 341.928 Q132.557 341.928 130.242 341.488 Q127.95 341.072 125.496 340.215 L125.496 335.701 Q127.441 336.835 129.756 337.414 Q132.07 337.993 134.594 337.993 Q138.992 337.993 141.283 336.257 Q143.598 334.521 143.598 331.21 Q143.598 328.155 141.445 326.442 Q139.316 324.706 135.496 324.706 L131.469 324.706 L131.469 320.863 L135.682 320.863 Q139.131 320.863 140.959 319.498 Q142.788 318.109 142.788 315.516 Q142.788 312.854 140.89 311.442 Q139.015 310.007 135.496 310.007 Q133.575 310.007 131.376 310.424 Q129.177 310.84 126.538 311.72 L126.538 307.553 Q129.2 306.812 131.515 306.442 Q133.853 306.072 135.913 306.072 Q141.237 306.072 144.339 308.502 Q147.441 310.91 147.441 315.03 Q147.441 317.9 145.797 319.891 Q144.154 321.859 141.121 322.623 Z" fill="#000000" fill-rule="evenodd" fill-opacity="1" /><path clip-path="url(#clip360)" d="M167.117 309.775 Q163.506 309.775 161.677 313.34 Q159.871 316.882 159.871 324.011 Q159.871 331.118 161.677 334.683 Q163.506 338.224 167.117 338.224 Q170.751 338.224 172.556 334.683 Q174.385 331.118 174.385 324.011 Q174.385 316.882 172.556 313.34 Q170.751 309.775 167.117 309.775 M167.117 306.072 Q172.927 306.072 175.982 310.678 Q179.061 315.262 179.061 324.011 Q179.061 332.738 175.982 337.345 Q172.927 341.928 167.117 341.928 Q161.306 341.928 158.228 337.345 Q155.172 332.738 155.172 324.011 Q155.172 315.262 158.228 310.678 Q161.306 306.072 167.117 306.072 Z" fill="#000000" fill-rule="evenodd" fill-opacity="1" /><path clip-path="url(#clip360)" d="M139.802 126.282 L127.996 144.731 L139.802 144.731 L139.802 126.282 M138.575 122.208 L144.455 122.208 L144.455 144.731 L149.385 144.731 L149.385 148.62 L144.455 148.62 L144.455 156.768 L139.802 156.768 L139.802 148.62 L124.2 148.62 L124.2 144.106 L138.575 122.208 Z" fill="#000000" fill-rule="evenodd" fill-opacity="1" /><path clip-path="url(#clip360)" d="M167.117 125.287 Q163.506 125.287 161.677 128.852 Q159.871 132.393 159.871 139.523 Q159.871 146.629 161.677 150.194 Q163.506 153.736 167.117 153.736 Q170.751 153.736 172.556 150.194 Q174.385 146.629 174.385 139.523 Q174.385 132.393 172.556 128.852 Q170.751 125.287 167.117 125.287 M167.117 121.583 Q172.927 121.583 175.982 126.19 Q179.061 130.773 179.061 139.523 Q179.061 148.25 175.982 152.856 Q172.927 157.44 167.117 157.44 Q161.306 157.44 158.228 152.856 Q155.172 148.25 155.172 139.523 Q155.172 130.773 158.228 126.19 Q161.306 121.583 167.117 121.583 Z" fill="#000000" fill-rule="evenodd" fill-opacity="1" /><path clip-path="url(#clip360)" d="M63.6642 614.133 Q64.3644 612.064 66.6561 610.123 Q68.9477 608.15 72.9581 606.176 L85.9442 599.651 L85.9442 606.558 L73.7538 612.637 Q68.9795 614.993 67.42 617.221 Q65.8604 619.417 65.8604 623.236 L65.8604 630.239 L85.9442 630.239 L85.9442 636.668 L38.4242 636.668 L38.4242 622.154 Q38.4242 614.006 41.8298 609.996 Q45.2355 605.985 52.1104 605.985 Q56.5982 605.985 59.5583 608.086 Q62.5184 610.155 63.6642 614.133 M43.7077 630.239 L60.5768 630.239 L60.5768 622.154 Q60.5768 617.507 58.4443 615.152 Q56.28 612.765 52.1104 612.765 Q47.9409 612.765 45.8402 615.152 Q43.7077 617.507 43.7077 622.154 L43.7077 630.239 Z" fill="#000000" fill-rule="evenodd" fill-opacity="1" /><path clip-path="url(#clip360)" d="M38.4242 591.376 L38.4242 581.796 L70.7619 569.669 L38.4242 557.479 L38.4242 547.898 L85.9442 547.898 L85.9442 554.168 L44.217 554.168 L76.8094 566.422 L76.8094 572.884 L44.217 585.138 L85.9442 585.138 L85.9442 591.376 L38.4242 591.376 Z" fill="#000000" fill-rule="evenodd" fill-opacity="1" /><path clip-path="url(#clip360)" d="M39.9838 506.648 L46.254 506.648 Q44.5034 510.309 43.644 513.555 Q42.7847 516.802 42.7847 519.825 Q42.7847 525.077 44.8217 527.942 Q46.8587 530.774 50.6145 530.774 Q53.7655 530.774 55.3888 528.897 Q56.9802 526.987 57.9669 521.703 L58.7626 517.82 Q60.1312 510.627 63.6005 507.221 Q67.038 503.784 72.8308 503.784 Q79.7376 503.784 83.3024 508.431 Q86.8672 513.046 86.8672 521.99 Q86.8672 525.364 86.1033 529.183 Q85.3394 532.971 83.8435 537.045 L77.2231 537.045 Q79.4193 533.13 80.5333 529.374 Q81.6473 525.618 81.6473 521.99 Q81.6473 516.483 79.483 513.492 Q77.3186 510.5 73.3082 510.5 Q69.8071 510.5 67.8337 512.664 Q65.8604 514.796 64.8737 519.698 L64.1098 523.613 Q62.6775 530.806 59.622 534.021 Q56.5664 537.236 51.1237 537.236 Q44.8217 537.236 41.1932 532.811 Q37.5648 528.355 37.5648 520.557 Q37.5648 517.215 38.1695 513.746 Q38.7743 510.277 39.9838 506.648 Z" fill="#000000" fill-rule="evenodd" fill-opacity="1" /><path clip-path="url(#clip360)" d="M38.4242 493.758 L38.4242 463.712 L43.835 463.712 L43.835 487.328 L57.9032 487.328 L57.9032 464.698 L63.3141 464.698 L63.3141 487.328 L80.5333 487.328 L80.5333 463.139 L85.9442 463.139 L85.9442 493.758 L38.4242 493.758 Z" fill="#000000" fill-rule="evenodd" fill-opacity="1" /><path clip-path="url(#clip360)" d="M36.419 432.647 L36.419 419.152 L40.9704 419.152 L40.9704 426.791 L89.9864 426.791 L89.9864 419.152 L94.5379 419.152 L94.5379 432.647 L36.419 432.647 Z" fill="#000000" fill-rule="evenodd" fill-opacity="1" /><path clip-path="url(#clip360)" d="M99.5031 407.28 L50.2962 407.28 L50.2962 401.423 L72.4489 401.423 Q77.064 401.423 79.4193 399.227 Q81.7746 397.031 81.7746 392.734 Q81.7746 388.023 79.101 385.668 Q76.4274 383.281 71.0802 383.281 L50.2962 383.281 L50.2962 377.425 L77.7324 377.425 Q79.6421 377.425 80.5651 376.883 Q81.4563 376.311 81.4563 375.133 Q81.4563 374.846 81.2972 374.337 Q81.1062 373.828 80.7243 372.937 L85.4349 372.937 Q86.167 374.242 86.5171 375.419 Q86.8672 376.565 86.8672 377.679 Q86.8672 379.875 85.6259 381.18 Q84.3846 382.485 81.8383 382.963 Q84.3527 384.554 85.6259 386.878 Q86.8672 389.169 86.8672 392.288 Q86.8672 395.535 85.6259 397.827 Q84.3846 400.086 81.9019 401.423 L99.5031 401.423 L99.5031 407.28 Z" fill="#000000" fill-rule="evenodd" fill-opacity="1" /><path clip-path="url(#clip360)" d="M57.1393 337.448 Q53.1926 335.252 51.3147 332.196 Q49.4368 329.141 49.4368 325.003 Q49.4368 319.433 53.3517 316.409 Q57.2348 313.386 64.4281 313.386 L85.9442 313.386 L85.9442 319.274 L64.619 319.274 Q59.4946 319.274 57.012 321.088 Q54.5294 322.902 54.5294 326.626 Q54.5294 331.178 57.5531 333.819 Q60.5768 336.461 65.7967 336.461 L85.9442 336.461 L85.9442 342.349 L64.619 342.349 Q59.4628 342.349 57.012 344.164 Q54.5294 345.978 54.5294 349.766 Q54.5294 354.253 57.5849 356.895 Q60.6086 359.537 65.7967 359.537 L85.9442 359.537 L85.9442 365.425 L50.2962 365.425 L50.2962 359.537 L55.8344 359.537 Q52.556 357.532 50.9964 354.731 Q49.4368 351.93 49.4368 348.079 Q49.4368 344.196 51.4102 341.49 Q53.3836 338.753 57.1393 337.448 Z" fill="#000000" fill-rule="evenodd" fill-opacity="1" /><path clip-path="url(#clip360)" d="M36.419 288.018 L94.5379 288.018 L94.5379 301.513 L89.9864 301.513 L89.9864 293.906 L40.9704 293.906 L40.9704 301.513 L36.419 301.513 L36.419 288.018 Z" fill="#000000" fill-rule="evenodd" fill-opacity="1" /><path clip-path="url(#clip362)" d="
M275.747 849.4 L275.747 877.442 L330.489 877.442 L330.489 849.4 L275.747 849.4 L275.747 849.4  Z
  " fill="#e69f00" fill-rule="evenodd" fill-opacity="1"/>
<polyline clip-path="url(#clip362)" style="stroke:#000000; stroke-linecap:butt; stroke-linejoin:round; stroke-width:4; stroke-opacity:1; fill:none" points="
  275.747,849.4 275.747,877.442 330.489,877.442 330.489,849.4 275.747,849.4 
  "/>
<path clip-path="url(#clip362)" d="
M412.602 846.079 L412.602 877.442 L467.344 877.442 L467.344 846.079 L412.602 846.079 L412.602 846.079  Z
  " fill="#e69f00" fill-rule="evenodd" fill-opacity="1"/>
<polyline clip-path="url(#clip362)" style="stroke:#000000; stroke-linecap:butt; stroke-linejoin:round; stroke-width:4; stroke-opacity:1; fill:none" points="
  412.602,846.079 412.602,877.442 467.344,877.442 467.344,846.079 412.602,846.079 
  "/>
<path clip-path="url(#clip362)" d="
M549.457 822.464 L549.457 877.442 L604.199 877.442 L604.199 822.464 L549.457 822.464 L549.457 822.464  Z
  " fill="#e69f00" fill-rule="evenodd" fill-opacity="1"/>
<polyline clip-path="url(#clip362)" style="stroke:#000000; stroke-linecap:butt; stroke-linejoin:round; stroke-width:4; stroke-opacity:1; fill:none" points="
  549.457,822.464 549.457,877.442 604.199,877.442 604.199,822.464 549.457,822.464 
  "/>
<path clip-path="url(#clip362)" d="
M686.312 795.714 L686.312 877.442 L741.054 877.442 L741.054 795.714 L686.312 795.714 L686.312 795.714  Z
  " fill="#e69f00" fill-rule="evenodd" fill-opacity="1"/>
<polyline clip-path="url(#clip362)" style="stroke:#000000; stroke-linecap:butt; stroke-linejoin:round; stroke-width:4; stroke-opacity:1; fill:none" points="
  686.312,795.714 686.312,877.442 741.054,877.442 741.054,795.714 686.312,795.714 
  "/>
<path clip-path="url(#clip362)" d="
M823.167 785.751 L823.167 877.442 L877.908 877.442 L877.908 785.751 L823.167 785.751 L823.167 785.751  Z
  " fill="#e69f00" fill-rule="evenodd" fill-opacity="1"/>
<polyline clip-path="url(#clip362)" style="stroke:#000000; stroke-linecap:butt; stroke-linejoin:round; stroke-width:4; stroke-opacity:1; fill:none" points="
  823.167,785.751 823.167,877.442 877.908,877.442 877.908,785.751 823.167,785.751 
  "/>
<path clip-path="url(#clip362)" d="
M960.021 806.783 L960.021 877.442 L1014.76 877.442 L1014.76 806.783 L960.021 806.783 L960.021 806.783  Z
  " fill="#e69f00" fill-rule="evenodd" fill-opacity="1"/>
<polyline clip-path="url(#clip362)" style="stroke:#000000; stroke-linecap:butt; stroke-linejoin:round; stroke-width:4; stroke-opacity:1; fill:none" points="
  960.021,806.783 960.021,877.442 1014.76,877.442 1014.76,806.783 960.021,806.783 
  "/>
<path clip-path="url(#clip362)" d="
M1096.88 784.091 L1096.88 877.442 L1151.62 877.442 L1151.62 784.091 L1096.88 784.091 L1096.88 784.091  Z
  " fill="#e69f00" fill-rule="evenodd" fill-opacity="1"/>
<polyline clip-path="url(#clip362)" style="stroke:#000000; stroke-linecap:butt; stroke-linejoin:round; stroke-width:4; stroke-opacity:1; fill:none" points="
  1096.88,784.091 1096.88,877.442 1151.62,877.442 1151.62,784.091 1096.88,784.091 
  "/>
<path clip-path="url(#clip362)" d="
M1233.73 797.559 L1233.73 877.442 L1288.47 877.442 L1288.47 797.559 L1233.73 797.559 L1233.73 797.559  Z
  " fill="#e69f00" fill-rule="evenodd" fill-opacity="1"/>
<polyline clip-path="url(#clip362)" style="stroke:#000000; stroke-linecap:butt; stroke-linejoin:round; stroke-width:4; stroke-opacity:1; fill:none" points="
  1233.73,797.559 1233.73,877.442 1288.47,877.442 1288.47,797.559 1233.73,797.559 
  "/>
<path clip-path="url(#clip362)" d="
M1370.59 852.721 L1370.59 877.442 L1425.33 877.442 L1425.33 852.721 L1370.59 852.721 L1370.59 852.721  Z
  " fill="#e69f00" fill-rule="evenodd" fill-opacity="1"/>
<polyline clip-path="url(#clip362)" style="stroke:#000000; stroke-linecap:butt; stroke-linejoin:round; stroke-width:4; stroke-opacity:1; fill:none" points="
  1370.59,852.721 1370.59,877.442 1425.33,877.442 1425.33,852.721 1370.59,852.721 
  "/>
<circle clip-path="url(#clip362)" style="fill:#e69f00; stroke:none; fill-opacity:0" cx="303.118" cy="849.4" r="2"/>
<circle clip-path="url(#clip362)" style="fill:#e69f00; stroke:none; fill-opacity:0" cx="439.973" cy="846.079" r="2"/>
<circle clip-path="url(#clip362)" style="fill:#e69f00; stroke:none; fill-opacity:0" cx="576.828" cy="822.464" r="2"/>
<circle clip-path="url(#clip362)" style="fill:#e69f00; stroke:none; fill-opacity:0" cx="713.683" cy="795.714" r="2"/>
<circle clip-path="url(#clip362)" style="fill:#e69f00; stroke:none; fill-opacity:0" cx="850.537" cy="785.751" r="2"/>
<circle clip-path="url(#clip362)" style="fill:#e69f00; stroke:none; fill-opacity:0" cx="987.392" cy="806.783" r="2"/>
<circle clip-path="url(#clip362)" style="fill:#e69f00; stroke:none; fill-opacity:0" cx="1124.25" cy="784.091" r="2"/>
<circle clip-path="url(#clip362)" style="fill:#e69f00; stroke:none; fill-opacity:0" cx="1261.1" cy="797.559" r="2"/>
<circle clip-path="url(#clip362)" style="fill:#e69f00; stroke:none; fill-opacity:0" cx="1397.96" cy="852.721" r="2"/>
<path clip-path="url(#clip362)" d="
M330.489 461.974 L330.489 877.442 L385.231 877.442 L385.231 461.974 L330.489 461.974 L330.489 461.974  Z
  " fill="#56b4e9" fill-rule="evenodd" fill-opacity="1"/>
<polyline clip-path="url(#clip362)" style="stroke:#000000; stroke-linecap:butt; stroke-linejoin:round; stroke-width:4; stroke-opacity:1; fill:none" points="
  330.489,461.974 330.489,877.442 385.231,877.442 385.231,461.974 330.489,461.974 
  "/>
<path clip-path="url(#clip362)" d="
M467.344 746.824 L467.344 877.442 L522.086 877.442 L522.086 746.824 L467.344 746.824 L467.344 746.824  Z
  " fill="#56b4e9" fill-rule="evenodd" fill-opacity="1"/>
<polyline clip-path="url(#clip362)" style="stroke:#000000; stroke-linecap:butt; stroke-linejoin:round; stroke-width:4; stroke-opacity:1; fill:none" points="
  467.344,746.824 467.344,877.442 522.086,877.442 522.086,746.824 467.344,746.824 
  "/>
<path clip-path="url(#clip362)" d="
M604.199 594.437 L604.199 877.442 L658.941 877.442 L658.941 594.437 L604.199 594.437 L604.199 594.437  Z
  " fill="#56b4e9" fill-rule="evenodd" fill-opacity="1"/>
<polyline clip-path="url(#clip362)" style="stroke:#000000; stroke-linecap:butt; stroke-linejoin:round; stroke-width:4; stroke-opacity:1; fill:none" points="
  604.199,594.437 604.199,877.442 658.941,877.442 658.941,594.437 604.199,594.437 
  "/>
<path clip-path="url(#clip362)" d="
M741.054 74.5484 L741.054 877.442 L795.796 877.442 L795.796 74.5484 L741.054 74.5484 L741.054 74.5484  Z
  " fill="#56b4e9" fill-rule="evenodd" fill-opacity="1"/>
<polyline clip-path="url(#clip362)" style="stroke:#000000; stroke-linecap:butt; stroke-linejoin:round; stroke-width:4; stroke-opacity:1; fill:none" points="
  741.054,74.5484 741.054,877.442 795.796,877.442 795.796,74.5484 741.054,74.5484 
  "/>
<path clip-path="url(#clip362)" d="
M877.908 506.436 L877.908 877.442 L932.65 877.442 L932.65 506.436 L877.908 506.436 L877.908 506.436  Z
  " fill="#56b4e9" fill-rule="evenodd" fill-opacity="1"/>
<polyline clip-path="url(#clip362)" style="stroke:#000000; stroke-linecap:butt; stroke-linejoin:round; stroke-width:4; stroke-opacity:1; fill:none" points="
  877.908,506.436 877.908,877.442 932.65,877.442 932.65,506.436 877.908,506.436 
  "/>
<path clip-path="url(#clip362)" d="
M1014.76 410.133 L1014.76 877.442 L1069.51 877.442 L1069.51 410.133 L1014.76 410.133 L1014.76 410.133  Z
  " fill="#56b4e9" fill-rule="evenodd" fill-opacity="1"/>
<polyline clip-path="url(#clip362)" style="stroke:#000000; stroke-linecap:butt; stroke-linejoin:round; stroke-width:4; stroke-opacity:1; fill:none" points="
  1014.76,410.133 1014.76,877.442 1069.51,877.442 1069.51,410.133 1014.76,410.133 
  "/>
<path clip-path="url(#clip362)" d="
M1151.62 150.927 L1151.62 877.442 L1206.36 877.442 L1206.36 150.927 L1151.62 150.927 L1151.62 150.927  Z
  " fill="#56b4e9" fill-rule="evenodd" fill-opacity="1"/>
<polyline clip-path="url(#clip362)" style="stroke:#000000; stroke-linecap:butt; stroke-linejoin:round; stroke-width:4; stroke-opacity:1; fill:none" points="
  1151.62,150.927 1151.62,877.442 1206.36,877.442 1206.36,150.927 1151.62,150.927 
  "/>
<path clip-path="url(#clip362)" d="
M1288.47 398.141 L1288.47 877.442 L1343.21 877.442 L1343.21 398.141 L1288.47 398.141 L1288.47 398.141  Z
  " fill="#56b4e9" fill-rule="evenodd" fill-opacity="1"/>
<polyline clip-path="url(#clip362)" style="stroke:#000000; stroke-linecap:butt; stroke-linejoin:round; stroke-width:4; stroke-opacity:1; fill:none" points="
  1288.47,398.141 1288.47,877.442 1343.21,877.442 1343.21,398.141 1288.47,398.141 
  "/>
<path clip-path="url(#clip362)" d="
M1425.33 706.421 L1425.33 877.442 L1480.07 877.442 L1480.07 706.421 L1425.33 706.421 L1425.33 706.421  Z
  " fill="#56b4e9" fill-rule="evenodd" fill-opacity="1"/>
<polyline clip-path="url(#clip362)" style="stroke:#000000; stroke-linecap:butt; stroke-linejoin:round; stroke-width:4; stroke-opacity:1; fill:none" points="
  1425.33,706.421 1425.33,877.442 1480.07,877.442 1480.07,706.421 1425.33,706.421 
  "/>
<circle clip-path="url(#clip362)" style="fill:#56b4e9; stroke:none; fill-opacity:0" cx="357.86" cy="461.974" r="2"/>
<circle clip-path="url(#clip362)" style="fill:#56b4e9; stroke:none; fill-opacity:0" cx="494.715" cy="746.824" r="2"/>
<circle clip-path="url(#clip362)" style="fill:#56b4e9; stroke:none; fill-opacity:0" cx="631.57" cy="594.437" r="2"/>
<circle clip-path="url(#clip362)" style="fill:#56b4e9; stroke:none; fill-opacity:0" cx="768.425" cy="74.5484" r="2"/>
<circle clip-path="url(#clip362)" style="fill:#56b4e9; stroke:none; fill-opacity:0" cx="905.279" cy="506.436" r="2"/>
<circle clip-path="url(#clip362)" style="fill:#56b4e9; stroke:none; fill-opacity:0" cx="1042.13" cy="410.133" r="2"/>
<circle clip-path="url(#clip362)" style="fill:#56b4e9; stroke:none; fill-opacity:0" cx="1178.99" cy="150.927" r="2"/>
<circle clip-path="url(#clip362)" style="fill:#56b4e9; stroke:none; fill-opacity:0" cx="1315.84" cy="398.141" r="2"/>
<circle clip-path="url(#clip362)" style="fill:#56b4e9; stroke:none; fill-opacity:0" cx="1452.7" cy="706.421" r="2"/>
<path clip-path="url(#clip360)" d="
M248.051 230.437 L603.085 230.437 L603.085 74.9174 L248.051 74.9174  Z
  " fill="#ffffff" fill-rule="evenodd" fill-opacity="1"/>
<polyline clip-path="url(#clip360)" style="stroke:#000000; stroke-linecap:butt; stroke-linejoin:round; stroke-width:4; stroke-opacity:1; fill:none" points="
  248.051,230.437 603.085,230.437 603.085,74.9174 248.051,74.9174 248.051,230.437 
  "/>
<path clip-path="url(#clip360)" d="
M263.047 147.493 L353.027 147.493 L353.027 106.021 L263.047 106.021 L263.047 147.493  Z
  " fill="#e69f00" fill-rule="evenodd" fill-opacity="1"/>
<polyline clip-path="url(#clip360)" style="stroke:#000000; stroke-linecap:butt; stroke-linejoin:round; stroke-width:4; stroke-opacity:1; fill:none" points="
  263.047,147.493 353.027,147.493 353.027,106.021 263.047,106.021 263.047,147.493 
  "/>
<path clip-path="url(#clip360)" d="M368.024 109.477 L372.7 109.477 L372.7 144.037 L368.024 144.037 L368.024 109.477 Z" fill="#000000" fill-rule="evenodd" fill-opacity="1" /><path clip-path="url(#clip360)" d="M403.371 128.389 L403.371 144.037 L399.111 144.037 L399.111 128.528 Q399.111 124.848 397.676 123.019 Q396.241 121.19 393.371 121.19 Q389.922 121.19 387.931 123.389 Q385.94 125.588 385.94 129.385 L385.94 144.037 L381.658 144.037 L381.658 118.112 L385.94 118.112 L385.94 122.139 Q387.468 119.801 389.528 118.644 Q391.612 117.487 394.32 117.487 Q398.787 117.487 401.079 120.264 Q403.371 123.019 403.371 128.389 Z" fill="#000000" fill-rule="evenodd" fill-opacity="1" /><path clip-path="url(#clip360)" d="M416.079 110.751 L416.079 118.112 L424.852 118.112 L424.852 121.422 L416.079 121.422 L416.079 135.496 Q416.079 138.667 416.935 139.57 Q417.815 140.473 420.477 140.473 L424.852 140.473 L424.852 144.037 L420.477 144.037 Q415.547 144.037 413.672 142.209 Q411.797 140.357 411.797 135.496 L411.797 121.422 L408.672 121.422 L408.672 118.112 L411.797 118.112 L411.797 110.751 L416.079 110.751 Z" fill="#000000" fill-rule="evenodd" fill-opacity="1" /><path clip-path="url(#clip360)" d="M452.63 130.01 L452.63 132.093 L433.046 132.093 Q433.324 136.491 435.685 138.806 Q438.07 141.098 442.306 141.098 Q444.759 141.098 447.051 140.496 Q449.366 139.894 451.634 138.69 L451.634 142.718 Q449.343 143.69 446.935 144.199 Q444.528 144.709 442.051 144.709 Q435.847 144.709 432.213 141.098 Q428.602 137.486 428.602 131.329 Q428.602 124.963 432.028 121.237 Q435.477 117.487 441.31 117.487 Q446.542 117.487 449.574 120.866 Q452.63 124.223 452.63 130.01 M448.37 128.76 Q448.324 125.264 446.403 123.181 Q444.505 121.098 441.357 121.098 Q437.792 121.098 435.639 123.112 Q433.509 125.125 433.185 128.783 L448.37 128.76 Z" fill="#000000" fill-rule="evenodd" fill-opacity="1" /><path clip-path="url(#clip360)" d="M474.643 122.093 Q473.926 121.676 473.069 121.491 Q472.236 121.283 471.218 121.283 Q467.606 121.283 465.662 123.644 Q463.741 125.982 463.741 130.38 L463.741 144.037 L459.458 144.037 L459.458 118.112 L463.741 118.112 L463.741 122.139 Q465.083 119.778 467.236 118.644 Q469.389 117.487 472.468 117.487 Q472.907 117.487 473.44 117.556 Q473.972 117.602 474.62 117.718 L474.643 122.093 Z" fill="#000000" fill-rule="evenodd" fill-opacity="1" /><path clip-path="url(#clip360)" d="M492.236 108.019 L492.236 111.561 L488.162 111.561 Q485.87 111.561 484.968 112.487 Q484.088 113.413 484.088 115.82 L484.088 118.112 L491.102 118.112 L491.102 121.422 L484.088 121.422 L484.088 144.037 L479.805 144.037 L479.805 121.422 L475.731 121.422 L475.731 118.112 L479.805 118.112 L479.805 116.306 Q479.805 111.977 481.819 110.01 Q483.833 108.019 488.208 108.019 L492.236 108.019 Z" fill="#000000" fill-rule="evenodd" fill-opacity="1" /><path clip-path="url(#clip360)" d="M507.583 131.005 Q502.421 131.005 500.43 132.186 Q498.44 133.366 498.44 136.213 Q498.44 138.482 499.921 139.824 Q501.426 141.144 503.995 141.144 Q507.537 141.144 509.666 138.644 Q511.819 136.121 511.819 131.954 L511.819 131.005 L507.583 131.005 M516.078 129.246 L516.078 144.037 L511.819 144.037 L511.819 140.102 Q510.361 142.463 508.185 143.598 Q506.009 144.709 502.861 144.709 Q498.879 144.709 496.518 142.486 Q494.18 140.241 494.18 136.491 Q494.18 132.116 497.097 129.894 Q500.037 127.672 505.847 127.672 L511.819 127.672 L511.819 127.255 Q511.819 124.315 509.875 122.718 Q507.953 121.098 504.458 121.098 Q502.236 121.098 500.129 121.63 Q498.023 122.162 496.079 123.227 L496.079 119.292 Q498.417 118.389 500.616 117.95 Q502.815 117.487 504.898 117.487 Q510.523 117.487 513.301 120.403 Q516.078 123.32 516.078 129.246 Z" fill="#000000" fill-rule="evenodd" fill-opacity="1" /><path clip-path="url(#clip360)" d="M543.509 119.107 L543.509 123.088 Q541.703 122.093 539.875 121.607 Q538.069 121.098 536.217 121.098 Q532.074 121.098 529.782 123.737 Q527.49 126.352 527.49 131.098 Q527.49 135.843 529.782 138.482 Q532.074 141.098 536.217 141.098 Q538.069 141.098 539.875 140.611 Q541.703 140.102 543.509 139.107 L543.509 143.042 Q541.726 143.875 539.805 144.292 Q537.907 144.709 535.754 144.709 Q529.898 144.709 526.449 141.028 Q523 137.348 523 131.098 Q523 124.755 526.472 121.121 Q529.967 117.487 536.032 117.487 Q538 117.487 539.875 117.903 Q541.75 118.297 543.509 119.107 Z" fill="#000000" fill-rule="evenodd" fill-opacity="1" /><path clip-path="url(#clip360)" d="M573.092 130.01 L573.092 132.093 L553.509 132.093 Q553.787 136.491 556.148 138.806 Q558.532 141.098 562.768 141.098 Q565.222 141.098 567.513 140.496 Q569.828 139.894 572.097 138.69 L572.097 142.718 Q569.805 143.69 567.398 144.199 Q564.99 144.709 562.513 144.709 Q556.31 144.709 552.675 141.098 Q549.064 137.486 549.064 131.329 Q549.064 124.963 552.49 121.237 Q555.939 117.487 561.773 117.487 Q567.004 117.487 570.036 120.866 Q573.092 124.223 573.092 130.01 M568.833 128.76 Q568.787 125.264 566.865 123.181 Q564.967 121.098 561.819 121.098 Q558.254 121.098 556.101 123.112 Q553.972 125.125 553.648 128.783 L568.833 128.76 Z" fill="#000000" fill-rule="evenodd" fill-opacity="1" /><path clip-path="url(#clip360)" d="
M263.047 199.333 L353.027 199.333 L353.027 157.861 L263.047 157.861 L263.047 199.333  Z
  " fill="#56b4e9" fill-rule="evenodd" fill-opacity="1"/>
<polyline clip-path="url(#clip360)" style="stroke:#000000; stroke-linecap:butt; stroke-linejoin:round; stroke-width:4; stroke-opacity:1; fill:none" points="
  263.047,199.333 353.027,199.333 353.027,157.861 263.047,157.861 263.047,199.333 
  "/>
<path clip-path="url(#clip360)" d="M368.024 161.317 L372.7 161.317 L372.7 191.942 L389.528 191.942 L389.528 195.877 L368.024 195.877 L368.024 161.317 Z" fill="#000000" fill-rule="evenodd" fill-opacity="1" /><path clip-path="url(#clip360)" d="M403.463 172.938 Q400.037 172.938 398.047 175.623 Q396.056 178.285 396.056 182.938 Q396.056 187.59 398.024 190.276 Q400.014 192.938 403.463 192.938 Q406.866 192.938 408.857 190.252 Q410.848 187.567 410.848 182.938 Q410.848 178.331 408.857 175.646 Q406.866 172.938 403.463 172.938 M403.463 169.327 Q409.019 169.327 412.19 172.938 Q415.361 176.549 415.361 182.938 Q415.361 189.303 412.19 192.938 Q409.019 196.549 403.463 196.549 Q397.885 196.549 394.713 192.938 Q391.565 189.303 391.565 182.938 Q391.565 176.549 394.713 172.938 Q397.885 169.327 403.463 169.327 Z" fill="#000000" fill-rule="evenodd" fill-opacity="1" /><path clip-path="url(#clip360)" d="M439.482 182.614 Q439.482 177.984 437.56 175.438 Q435.662 172.891 432.213 172.891 Q428.787 172.891 426.866 175.438 Q424.968 177.984 424.968 182.614 Q424.968 187.22 426.866 189.766 Q428.787 192.313 432.213 192.313 Q435.662 192.313 437.56 189.766 Q439.482 187.22 439.482 182.614 M443.741 192.66 Q443.741 199.28 440.801 202.498 Q437.861 205.738 431.796 205.738 Q429.551 205.738 427.56 205.391 Q425.57 205.067 423.695 204.373 L423.695 200.229 Q425.57 201.248 427.398 201.734 Q429.227 202.22 431.125 202.22 Q435.315 202.22 437.398 200.021 Q439.482 197.845 439.482 193.424 L439.482 191.317 Q438.162 193.609 436.102 194.743 Q434.042 195.877 431.171 195.877 Q426.403 195.877 423.486 192.243 Q420.57 188.609 420.57 182.614 Q420.57 176.595 423.486 172.961 Q426.403 169.327 431.171 169.327 Q434.042 169.327 436.102 170.461 Q438.162 171.595 439.482 173.887 L439.482 169.952 L443.741 169.952 L443.741 192.66 Z" fill="#000000" fill-rule="evenodd" fill-opacity="1" /><path clip-path="url(#clip360)" d="M452.514 169.952 L456.773 169.952 L456.773 195.877 L452.514 195.877 L452.514 169.952 M452.514 159.859 L456.773 159.859 L456.773 165.253 L452.514 165.253 L452.514 159.859 Z" fill="#000000" fill-rule="evenodd" fill-opacity="1" /><path clip-path="url(#clip360)" d="M482.213 170.715 L482.213 174.743 Q480.407 173.817 478.463 173.354 Q476.518 172.891 474.435 172.891 Q471.264 172.891 469.667 173.864 Q468.093 174.836 468.093 176.78 Q468.093 178.262 469.227 179.118 Q470.361 179.952 473.787 180.715 L475.245 181.039 Q479.782 182.012 481.68 183.794 Q483.602 185.553 483.602 188.725 Q483.602 192.336 480.731 194.442 Q477.884 196.549 472.884 196.549 Q470.801 196.549 468.532 196.132 Q466.287 195.738 463.787 194.928 L463.787 190.53 Q466.148 191.757 468.44 192.382 Q470.731 192.984 472.977 192.984 Q475.986 192.984 477.606 191.965 Q479.227 190.924 479.227 189.049 Q479.227 187.313 478.046 186.387 Q476.889 185.461 472.931 184.604 L471.449 184.257 Q467.491 183.424 465.731 181.711 Q463.972 179.975 463.972 176.965 Q463.972 173.308 466.565 171.317 Q469.157 169.327 473.926 169.327 Q476.287 169.327 478.37 169.674 Q480.454 170.021 482.213 170.715 Z" fill="#000000" fill-rule="evenodd" fill-opacity="1" /><path clip-path="url(#clip360)" d="M494.597 162.591 L494.597 169.952 L503.37 169.952 L503.37 173.262 L494.597 173.262 L494.597 187.336 Q494.597 190.507 495.454 191.41 Q496.333 192.313 498.995 192.313 L503.37 192.313 L503.37 195.877 L498.995 195.877 Q494.065 195.877 492.19 194.049 Q490.315 192.197 490.315 187.336 L490.315 173.262 L487.19 173.262 L487.19 169.952 L490.315 169.952 L490.315 162.591 L494.597 162.591 Z" fill="#000000" fill-rule="evenodd" fill-opacity="1" /><path clip-path="url(#clip360)" d="M508.972 169.952 L513.231 169.952 L513.231 195.877 L508.972 195.877 L508.972 169.952 M508.972 159.859 L513.231 159.859 L513.231 165.253 L508.972 165.253 L508.972 159.859 Z" fill="#000000" fill-rule="evenodd" fill-opacity="1" /><path clip-path="url(#clip360)" d="M540.801 170.947 L540.801 174.928 Q538.995 173.933 537.166 173.447 Q535.361 172.938 533.509 172.938 Q529.365 172.938 527.074 175.577 Q524.782 178.192 524.782 182.938 Q524.782 187.683 527.074 190.322 Q529.365 192.938 533.509 192.938 Q535.361 192.938 537.166 192.451 Q538.995 191.942 540.801 190.947 L540.801 194.882 Q539.018 195.715 537.097 196.132 Q535.199 196.549 533.046 196.549 Q527.19 196.549 523.74 192.868 Q520.291 189.188 520.291 182.938 Q520.291 176.595 523.764 172.961 Q527.259 169.327 533.324 169.327 Q535.291 169.327 537.166 169.743 Q539.041 170.137 540.801 170.947 Z" fill="#000000" fill-rule="evenodd" fill-opacity="1" /></svg>
