<?xml version="1.0" encoding="utf-8"?>
<svg xmlns="http://www.w3.org/2000/svg" xmlns:xlink="http://www.w3.org/1999/xlink" width="700" height="400" viewBox="0 0 2800 1600">
<defs>
  <clipPath id="clip840">
    <rect x="0" y="0" width="2800" height="1600"/>
  </clipPath>
</defs>
<path clip-path="url(#clip840)" d="
M0 1600 L2800 1600 L2800 0 L0 0  Z
  " fill="#ffffff" fill-rule="evenodd" fill-opacity="1"/>
<defs>
  <clipPath id="clip841">
    <rect x="560" y="0" width="1961" height="1600"/>
  </clipPath>
</defs>
<path clip-path="url(#clip840)" d="
M248.242 1434.91 L2752.76 1434.91 L2752.76 47.2441 L248.242 47.2441  Z
  " fill="#ffffff" fill-rule="evenodd" fill-opacity="1"/>
<defs>
  <clipPath id="clip842">
    <rect x="248" y="47" width="2506" height="1389"/>
  </clipPath>
</defs>
<polyline clip-path="url(#clip842)" style="stroke:#000000; stroke-linecap:butt; stroke-linejoin:round; stroke-width:2; stroke-opacity:0.1; fill:none" points="
  251.815,1434.91 251.815,47.2441 
  "/>
<polyline clip-path="url(#clip842)" style="stroke:#000000; stroke-linecap:butt; stroke-linejoin:round; stroke-width:2; stroke-opacity:0.1; fill:none" points="
  966.37,1434.91 966.37,47.2441 
  "/>
<polyline clip-path="url(#clip842)" style="stroke:#000000; stroke-linecap:butt; stroke-linejoin:round; stroke-width:2; stroke-opacity:0.1; fill:none" points="
  1680.92,1434.91 1680.92,47.2441 
  "/>
<polyline clip-path="url(#clip842)" style="stroke:#000000; stroke-linecap:butt; stroke-linejoin:round; stroke-width:2; stroke-opacity:0.1; fill:none" points="
  2395.48,1434.91 2395.48,47.2441 
  "/>
<polyline clip-path="url(#clip840)" style="stroke:#000000; stroke-linecap:butt; stroke-linejoin:round; stroke-width:4; stroke-opacity:1; fill:none" points="
  248.242,1434.91 2752.76,1434.91 
  "/>
<polyline clip-path="url(#clip840)" style="stroke:#000000; stroke-linecap:butt; stroke-linejoin:round; stroke-width:4; stroke-opacity:1; fill:none" points="
  251.815,1434.91 251.815,1416.01 
  "/>
<polyline clip-path="url(#clip840)" style="stroke:#000000; stroke-linecap:butt; stroke-linejoin:round; stroke-width:4; stroke-opacity:1; fill:none" points="
  966.37,1434.91 966.37,1416.01 
  "/>
<polyline clip-path="url(#clip840)" style="stroke:#000000; stroke-linecap:butt; stroke-linejoin:round; stroke-width:4; stroke-opacity:1; fill:none" points="
  1680.92,1434.91 1680.92,1416.01 
  "/>
<polyline clip-path="url(#clip840)" style="stroke:#000000; stroke-linecap:butt; stroke-linejoin:round; stroke-width:4; stroke-opacity:1; fill:none" points="
  2395.48,1434.91 2395.48,1416.01 
  "/>
<path clip-path="url(#clip840)" d="M251.815 1469.02 Q248.204 1469.02 246.375 1472.59 Q244.57 1476.13 244.57 1483.26 Q244.57 1490.37 246.375 1493.93 Q248.204 1497.47 251.815 1497.47 Q255.449 1497.47 257.255 1493.93 Q259.084 1490.37 259.084 1483.26 Q259.084 1476.13 257.255 1472.59 Q255.449 1469.02 251.815 1469.02 M251.815 1465.32 Q257.625 1465.32 260.681 1469.93 Q263.759 1474.51 263.759 1483.26 Q263.759 1491.99 260.681 1496.59 Q257.625 1501.18 251.815 1501.18 Q246.005 1501.18 242.926 1496.59 Q239.871 1491.99 239.871 1483.26 Q239.871 1474.51 242.926 1469.93 Q246.005 1465.32 251.815 1465.32 Z" fill="#000000" fill-rule="evenodd" fill-opacity="1" /><path clip-path="url(#clip840)" d="M925.976 1496.57 L933.615 1496.57 L933.615 1470.2 L925.305 1471.87 L925.305 1467.61 L933.569 1465.95 L938.245 1465.95 L938.245 1496.57 L945.884 1496.57 L945.884 1500.51 L925.976 1500.51 L925.976 1496.57 Z" fill="#000000" fill-rule="evenodd" fill-opacity="1" /><path clip-path="url(#clip840)" d="M965.328 1469.02 Q961.717 1469.02 959.888 1472.59 Q958.083 1476.13 958.083 1483.26 Q958.083 1490.37 959.888 1493.93 Q961.717 1497.47 965.328 1497.47 Q968.962 1497.47 970.768 1493.93 Q972.596 1490.37 972.596 1483.26 Q972.596 1476.13 970.768 1472.59 Q968.962 1469.02 965.328 1469.02 M965.328 1465.32 Q971.138 1465.32 974.194 1469.93 Q977.272 1474.51 977.272 1483.26 Q977.272 1491.99 974.194 1496.59 Q971.138 1501.18 965.328 1501.18 Q959.518 1501.18 956.439 1496.59 Q953.384 1491.99 953.384 1483.26 Q953.384 1474.51 956.439 1469.93 Q959.518 1465.32 965.328 1465.32 Z" fill="#000000" fill-rule="evenodd" fill-opacity="1" /><path clip-path="url(#clip840)" d="M995.49 1469.02 Q991.879 1469.02 990.05 1472.59 Q988.244 1476.13 988.244 1483.26 Q988.244 1490.37 990.05 1493.93 Q991.879 1497.47 995.49 1497.47 Q999.124 1497.47 1000.93 1493.93 Q1002.76 1490.37 1002.76 1483.26 Q1002.76 1476.13 1000.93 1472.59 Q999.124 1469.02 995.49 1469.02 M995.49 1465.32 Q1001.3 1465.32 1004.36 1469.93 Q1007.43 1474.51 1007.43 1483.26 Q1007.43 1491.99 1004.36 1496.59 Q1001.3 1501.18 995.49 1501.18 Q989.68 1501.18 986.601 1496.59 Q983.545 1491.99 983.545 1483.26 Q983.545 1474.51 986.601 1469.93 Q989.68 1465.32 995.49 1465.32 Z" fill="#000000" fill-rule="evenodd" fill-opacity="1" /><path clip-path="url(#clip840)" d="M1644.62 1496.57 L1660.94 1496.57 L1660.94 1500.51 L1638.99 1500.51 L1638.99 1496.57 Q1641.65 1493.82 1646.24 1489.19 Q1650.84 1484.53 1652.02 1483.19 Q1654.27 1480.67 1655.15 1478.93 Q1656.05 1477.17 1656.05 1475.48 Q1656.05 1472.73 1654.11 1470.99 Q1652.19 1469.26 1649.08 1469.26 Q1646.88 1469.26 1644.43 1470.02 Q1642 1470.78 1639.22 1472.33 L1639.22 1467.61 Q1642.05 1466.48 1644.5 1465.9 Q1646.95 1465.32 1648.99 1465.32 Q1654.36 1465.32 1657.56 1468.01 Q1660.75 1470.69 1660.75 1475.18 Q1660.75 1477.31 1659.94 1479.23 Q1659.15 1481.13 1657.05 1483.72 Q1656.47 1484.39 1653.37 1487.61 Q1650.26 1490.81 1644.62 1496.57 Z" fill="#000000" fill-rule="evenodd" fill-opacity="1" /><path clip-path="url(#clip840)" d="M1680.75 1469.02 Q1677.14 1469.02 1675.31 1472.59 Q1673.51 1476.13 1673.51 1483.26 Q1673.51 1490.37 1675.31 1493.93 Q1677.14 1497.47 1680.75 1497.47 Q1684.38 1497.47 1686.19 1493.93 Q1688.02 1490.37 1688.02 1483.26 Q1688.02 1476.13 1686.19 1472.59 Q1684.38 1469.02 1680.75 1469.02 M1680.75 1465.32 Q1686.56 1465.32 1689.62 1469.93 Q1692.69 1474.51 1692.69 1483.26 Q1692.69 1491.99 1689.62 1496.59 Q1686.56 1501.18 1680.75 1501.18 Q1674.94 1501.18 1671.86 1496.59 Q1668.81 1491.99 1668.81 1483.26 Q1668.81 1474.51 1671.86 1469.93 Q1674.94 1465.32 1680.75 1465.32 Z" fill="#000000" fill-rule="evenodd" fill-opacity="1" /><path clip-path="url(#clip840)" d="M1710.91 1469.02 Q1707.3 1469.02 1705.47 1472.59 Q1703.67 1476.13 1703.67 1483.26 Q1703.67 1490.37 1705.47 1493.93 Q1707.3 1497.47 1710.91 1497.47 Q1714.55 1497.47 1716.35 1493.93 Q1718.18 1490.37 1718.18 1483.26 Q1718.18 1476.13 1716.35 1472.59 Q1714.55 1469.02 1710.91 1469.02 M1710.91 1465.32 Q1716.72 1465.32 1719.78 1469.93 Q1722.86 1474.51 1722.86 1483.26 Q1722.86 1491.99 1719.78 1496.59 Q1716.72 1501.18 1710.91 1501.18 Q1705.1 1501.18 1702.02 1496.59 Q1698.97 1491.99 1698.97 1483.26 Q1698.97 1474.51 1702.02 1469.93 Q1705.1 1465.32 1710.91 1465.32 Z" fill="#000000" fill-rule="evenodd" fill-opacity="1" /><path clip-path="url(#clip840)" d="M2369.24 1481.87 Q2372.6 1482.59 2374.47 1484.86 Q2376.37 1487.13 2376.37 1490.46 Q2376.37 1495.58 2372.85 1498.38 Q2369.33 1501.18 2362.85 1501.18 Q2360.68 1501.18 2358.36 1500.74 Q2356.07 1500.32 2353.62 1499.46 L2353.62 1494.95 Q2355.56 1496.08 2357.87 1496.66 Q2360.19 1497.24 2362.71 1497.24 Q2367.11 1497.24 2369.4 1495.51 Q2371.72 1493.77 2371.72 1490.46 Q2371.72 1487.4 2369.56 1485.69 Q2367.43 1483.95 2363.62 1483.95 L2359.59 1483.95 L2359.59 1480.11 L2363.8 1480.11 Q2367.25 1480.11 2369.08 1478.75 Q2370.91 1477.36 2370.91 1474.76 Q2370.91 1472.1 2369.01 1470.69 Q2367.13 1469.26 2363.62 1469.26 Q2361.69 1469.26 2359.5 1469.67 Q2357.3 1470.09 2354.66 1470.97 L2354.66 1466.8 Q2357.32 1466.06 2359.63 1465.69 Q2361.97 1465.32 2364.03 1465.32 Q2369.36 1465.32 2372.46 1467.75 Q2375.56 1470.16 2375.56 1474.28 Q2375.56 1477.15 2373.92 1479.14 Q2372.27 1481.11 2369.24 1481.87 Z" fill="#000000" fill-rule="evenodd" fill-opacity="1" /><path clip-path="url(#clip840)" d="M2395.24 1469.02 Q2391.62 1469.02 2389.8 1472.59 Q2387.99 1476.13 2387.99 1483.26 Q2387.99 1490.37 2389.8 1493.93 Q2391.62 1497.47 2395.24 1497.47 Q2398.87 1497.47 2400.68 1493.93 Q2402.5 1490.37 2402.5 1483.26 Q2402.5 1476.13 2400.68 1472.59 Q2398.87 1469.02 2395.24 1469.02 M2395.24 1465.32 Q2401.05 1465.32 2404.1 1469.93 Q2407.18 1474.51 2407.18 1483.26 Q2407.18 1491.99 2404.1 1496.59 Q2401.05 1501.18 2395.24 1501.18 Q2389.43 1501.18 2386.35 1496.59 Q2383.29 1491.99 2383.29 1483.26 Q2383.29 1474.51 2386.35 1469.93 Q2389.43 1465.32 2395.24 1465.32 Z" fill="#000000" fill-rule="evenodd" fill-opacity="1" /><path clip-path="url(#clip840)" d="M2425.4 1469.02 Q2421.79 1469.02 2419.96 1472.59 Q2418.15 1476.13 2418.15 1483.26 Q2418.15 1490.37 2419.96 1493.93 Q2421.79 1497.47 2425.4 1497.47 Q2429.03 1497.47 2430.84 1493.93 Q2432.67 1490.37 2432.67 1483.26 Q2432.67 1476.13 2430.84 1472.59 Q2429.03 1469.02 2425.4 1469.02 M2425.4 1465.32 Q2431.21 1465.32 2434.26 1469.93 Q2437.34 1474.51 2437.34 1483.26 Q2437.34 1491.99 2434.26 1496.59 Q2431.21 1501.18 2425.4 1501.18 Q2419.59 1501.18 2416.51 1496.59 Q2413.45 1491.99 2413.45 1483.26 Q2413.45 1474.51 2416.51 1469.93 Q2419.59 1465.32 2425.4 1465.32 Z" fill="#000000" fill-rule="evenodd" fill-opacity="1" /><path clip-path="url(#clip840)" d="M1353.59 1538.25 L1393.79 1538.25 L1393.79 1543.66 L1376.92 1543.66 L1376.92 1585.77 L1370.46 1585.77 L1370.46 1543.66 L1353.59 1543.66 L1353.59 1538.25 Z" fill="#000000" fill-rule="evenodd" fill-opacity="1" /><path clip-path="url(#clip840)" d="M1397.74 1550.12 L1403.6 1550.12 L1403.6 1585.77 L1397.74 1585.77 L1397.74 1550.12 M1397.74 1536.24 L1403.6 1536.24 L1403.6 1543.66 L1397.74 1543.66 L1397.74 1536.24 Z" fill="#000000" fill-rule="evenodd" fill-opacity="1" /><path clip-path="url(#clip840)" d="M1443.61 1556.96 Q1445.8 1553.02 1448.86 1551.14 Q1451.91 1549.26 1456.05 1549.26 Q1461.62 1549.26 1464.64 1553.18 Q1467.67 1557.06 1467.67 1564.25 L1467.67 1585.77 L1461.78 1585.77 L1461.78 1564.44 Q1461.78 1559.32 1459.97 1556.84 Q1458.15 1554.35 1454.43 1554.35 Q1449.88 1554.35 1447.23 1557.38 Q1444.59 1560.4 1444.59 1565.62 L1444.59 1585.77 L1438.7 1585.77 L1438.7 1564.44 Q1438.7 1559.29 1436.89 1556.84 Q1435.08 1554.35 1431.29 1554.35 Q1426.8 1554.35 1424.16 1557.41 Q1421.52 1560.43 1421.52 1565.62 L1421.52 1585.77 L1415.63 1585.77 L1415.63 1550.12 L1421.52 1550.12 L1421.52 1555.66 Q1423.52 1552.38 1426.32 1550.82 Q1429.12 1549.26 1432.97 1549.26 Q1436.86 1549.26 1439.56 1551.24 Q1442.3 1553.21 1443.61 1556.96 Z" fill="#000000" fill-rule="evenodd" fill-opacity="1" /><path clip-path="url(#clip840)" d="M1509.84 1566.48 L1509.84 1569.35 L1482.91 1569.35 Q1483.3 1575.39 1486.54 1578.58 Q1489.82 1581.73 1495.65 1581.73 Q1499.02 1581.73 1502.17 1580.9 Q1505.35 1580.07 1508.47 1578.42 L1508.47 1583.96 Q1505.32 1585.29 1502.01 1585.99 Q1498.7 1586.69 1495.3 1586.69 Q1486.77 1586.69 1481.77 1581.73 Q1476.8 1576.76 1476.8 1568.3 Q1476.8 1559.54 1481.51 1554.42 Q1486.26 1549.26 1494.28 1549.26 Q1501.47 1549.26 1505.64 1553.91 Q1509.84 1558.52 1509.84 1566.48 M1503.98 1564.76 Q1503.92 1559.96 1501.28 1557.09 Q1498.67 1554.23 1494.34 1554.23 Q1489.44 1554.23 1486.48 1557 Q1483.55 1559.77 1483.1 1564.79 L1503.98 1564.76 Z" fill="#000000" fill-rule="evenodd" fill-opacity="1" /><path clip-path="url(#clip840)" d="M1539.63 1536.24 L1553.13 1536.24 L1553.13 1540.8 L1545.49 1540.8 L1545.49 1589.81 L1553.13 1589.81 L1553.13 1594.36 L1539.63 1594.36 L1539.63 1536.24 Z" fill="#000000" fill-rule="evenodd" fill-opacity="1" /><path clip-path="url(#clip840)" d="M1595.24 1564.25 L1595.24 1585.77 L1589.38 1585.77 L1589.38 1564.44 Q1589.38 1559.38 1587.41 1556.87 Q1585.43 1554.35 1581.49 1554.35 Q1576.74 1554.35 1574.01 1557.38 Q1571.27 1560.4 1571.27 1565.62 L1571.27 1585.77 L1565.38 1585.77 L1565.38 1536.24 L1571.27 1536.24 L1571.27 1555.66 Q1573.37 1552.45 1576.2 1550.85 Q1579.07 1549.26 1582.79 1549.26 Q1588.93 1549.26 1592.09 1553.08 Q1595.24 1556.87 1595.24 1564.25 Z" fill="#000000" fill-rule="evenodd" fill-opacity="1" /><path clip-path="url(#clip840)" d="M1627.57 1555.6 Q1626.59 1555.02 1625.41 1554.77 Q1624.26 1554.48 1622.86 1554.48 Q1617.9 1554.48 1615.23 1557.73 Q1612.58 1560.94 1612.58 1566.99 L1612.58 1585.77 L1606.7 1585.77 L1606.7 1550.12 L1612.58 1550.12 L1612.58 1555.66 Q1614.43 1552.41 1617.39 1550.85 Q1620.35 1549.26 1624.58 1549.26 Q1625.19 1549.26 1625.92 1549.36 Q1626.65 1549.42 1627.54 1549.58 L1627.57 1555.6 Z" fill="#000000" fill-rule="evenodd" fill-opacity="1" /><path clip-path="url(#clip840)" d="M1647.4 1536.24 L1647.4 1594.36 L1633.91 1594.36 L1633.91 1589.81 L1641.52 1589.81 L1641.52 1540.8 L1633.91 1540.8 L1633.91 1536.24 L1647.4 1536.24 Z" fill="#000000" fill-rule="evenodd" fill-opacity="1" /><polyline clip-path="url(#clip842)" style="stroke:#000000; stroke-linecap:butt; stroke-linejoin:round; stroke-width:2; stroke-opacity:0.1; fill:none" points="
  248.242,1434.04 2752.76,1434.04 
  "/>
<polyline clip-path="url(#clip842)" style="stroke:#000000; stroke-linecap:butt; stroke-linejoin:round; stroke-width:2; stroke-opacity:0.1; fill:none" points="
  248.242,1087.34 2752.76,1087.34 
  "/>
<polyline clip-path="url(#clip842)" style="stroke:#000000; stroke-linecap:butt; stroke-linejoin:round; stroke-width:2; stroke-opacity:0.1; fill:none" points="
  248.242,740.641 2752.76,740.641 
  "/>
<polyline clip-path="url(#clip842)" style="stroke:#000000; stroke-linecap:butt; stroke-linejoin:round; stroke-width:2; stroke-opacity:0.1; fill:none" points="
  248.242,393.943 2752.76,393.943 
  "/>
<polyline clip-path="url(#clip842)" style="stroke:#000000; stroke-linecap:butt; stroke-linejoin:round; stroke-width:2; stroke-opacity:0.1; fill:none" points="
  248.242,47.2441 2752.76,47.2441 
  "/>
<polyline clip-path="url(#clip840)" style="stroke:#000000; stroke-linecap:butt; stroke-linejoin:round; stroke-width:4; stroke-opacity:1; fill:none" points="
  248.242,1434.91 248.242,47.2441 
  "/>
<polyline clip-path="url(#clip840)" style="stroke:#000000; stroke-linecap:butt; stroke-linejoin:round; stroke-width:4; stroke-opacity:1; fill:none" points="
  248.242,1434.04 267.14,1434.04 
  "/>
<polyline clip-path="url(#clip840)" style="stroke:#000000; stroke-linecap:butt; stroke-linejoin:round; stroke-width:4; stroke-opacity:1; fill:none" points="
  248.242,1087.34 267.14,1087.34 
  "/>
<polyline clip-path="url(#clip840)" style="stroke:#000000; stroke-linecap:butt; stroke-linejoin:round; stroke-width:4; stroke-opacity:1; fill:none" points="
  248.242,740.641 267.14,740.641 
  "/>
<polyline clip-path="url(#clip840)" style="stroke:#000000; stroke-linecap:butt; stroke-linejoin:round; stroke-width:4; stroke-opacity:1; fill:none" points="
  248.242,393.943 267.14,393.943 
  "/>
<polyline clip-path="url(#clip840)" style="stroke:#000000; stroke-linecap:butt; stroke-linejoin:round; stroke-width:4; stroke-opacity:1; fill:none" points="
  248.242,47.2441 267.14,47.2441 
  "/>
<path clip-path="url(#clip840)" d="M194.298 1419.84 Q190.687 1419.84 188.858 1423.4 Q187.053 1426.94 187.053 1434.07 Q187.053 1441.18 188.858 1444.74 Q190.687 1448.29 194.298 1448.29 Q197.932 1448.29 199.738 1444.74 Q201.566 1441.18 201.566 1434.07 Q201.566 1426.94 199.738 1423.4 Q197.932 1419.84 194.298 1419.84 M194.298 1416.13 Q200.108 1416.13 203.164 1420.74 Q206.242 1425.32 206.242 1434.07 Q206.242 1442.8 203.164 1447.41 Q200.108 1451.99 194.298 1451.99 Q188.488 1451.99 185.409 1447.41 Q182.354 1442.8 182.354 1434.07 Q182.354 1425.32 185.409 1420.74 Q188.488 1416.13 194.298 1416.13 Z" fill="#000000" fill-rule="evenodd" fill-opacity="1" /><path clip-path="url(#clip840)" d="M128.002 1100.68 L144.321 1100.68 L144.321 1104.62 L122.377 1104.62 L122.377 1100.68 Q125.039 1097.93 129.622 1093.3 Q134.229 1088.65 135.409 1087.31 Q137.655 1084.78 138.534 1083.05 Q139.437 1081.29 139.437 1079.6 Q139.437 1076.84 137.493 1075.11 Q135.571 1073.37 132.47 1073.37 Q130.27 1073.37 127.817 1074.13 Q125.386 1074.9 122.608 1076.45 L122.608 1071.73 Q125.433 1070.59 127.886 1070.01 Q130.34 1069.44 132.377 1069.44 Q137.747 1069.44 140.942 1072.12 Q144.136 1074.81 144.136 1079.3 Q144.136 1081.43 143.326 1083.35 Q142.539 1085.25 140.432 1087.84 Q139.854 1088.51 136.752 1091.73 Q133.65 1094.92 128.002 1100.68 Z" fill="#000000" fill-rule="evenodd" fill-opacity="1" /><path clip-path="url(#clip840)" d="M164.136 1073.14 Q160.525 1073.14 158.696 1076.7 Q156.891 1080.25 156.891 1087.37 Q156.891 1094.48 158.696 1098.05 Q160.525 1101.59 164.136 1101.59 Q167.77 1101.59 169.576 1098.05 Q171.405 1094.48 171.405 1087.37 Q171.405 1080.25 169.576 1076.7 Q167.77 1073.14 164.136 1073.14 M164.136 1069.44 Q169.946 1069.44 173.002 1074.04 Q176.08 1078.62 176.08 1087.37 Q176.08 1096.1 173.002 1100.71 Q169.946 1105.29 164.136 1105.29 Q158.326 1105.29 155.247 1100.71 Q152.192 1096.1 152.192 1087.37 Q152.192 1078.62 155.247 1074.04 Q158.326 1069.44 164.136 1069.44 Z" fill="#000000" fill-rule="evenodd" fill-opacity="1" /><path clip-path="url(#clip840)" d="M194.298 1073.14 Q190.687 1073.14 188.858 1076.7 Q187.053 1080.25 187.053 1087.37 Q187.053 1094.48 188.858 1098.05 Q190.687 1101.59 194.298 1101.59 Q197.932 1101.59 199.738 1098.05 Q201.566 1094.48 201.566 1087.37 Q201.566 1080.25 199.738 1076.7 Q197.932 1073.14 194.298 1073.14 M194.298 1069.44 Q200.108 1069.44 203.164 1074.04 Q206.242 1078.62 206.242 1087.37 Q206.242 1096.1 203.164 1100.71 Q200.108 1105.29 194.298 1105.29 Q188.488 1105.29 185.409 1100.71 Q182.354 1096.1 182.354 1087.37 Q182.354 1078.62 185.409 1074.04 Q188.488 1069.44 194.298 1069.44 Z" fill="#000000" fill-rule="evenodd" fill-opacity="1" /><path clip-path="url(#clip840)" d="M136.821 727.436 L125.016 745.884 L136.821 745.884 L136.821 727.436 M135.595 723.361 L141.474 723.361 L141.474 745.884 L146.405 745.884 L146.405 749.773 L141.474 749.773 L141.474 757.921 L136.821 757.921 L136.821 749.773 L121.22 749.773 L121.22 745.259 L135.595 723.361 Z" fill="#000000" fill-rule="evenodd" fill-opacity="1" /><path clip-path="url(#clip840)" d="M164.136 726.44 Q160.525 726.44 158.696 730.005 Q156.891 733.547 156.891 740.676 Q156.891 747.783 158.696 751.347 Q160.525 754.889 164.136 754.889 Q167.77 754.889 169.576 751.347 Q171.405 747.783 171.405 740.676 Q171.405 733.547 169.576 730.005 Q167.77 726.44 164.136 726.44 M164.136 722.736 Q169.946 722.736 173.002 727.343 Q176.08 731.926 176.08 740.676 Q176.08 749.403 173.002 754.009 Q169.946 758.593 164.136 758.593 Q158.326 758.593 155.247 754.009 Q152.192 749.403 152.192 740.676 Q152.192 731.926 155.247 727.343 Q158.326 722.736 164.136 722.736 Z" fill="#000000" fill-rule="evenodd" fill-opacity="1" /><path clip-path="url(#clip840)" d="M194.298 726.44 Q190.687 726.44 188.858 730.005 Q187.053 733.547 187.053 740.676 Q187.053 747.783 188.858 751.347 Q190.687 754.889 194.298 754.889 Q197.932 754.889 199.738 751.347 Q201.566 747.783 201.566 740.676 Q201.566 733.547 199.738 730.005 Q197.932 726.44 194.298 726.44 M194.298 722.736 Q200.108 722.736 203.164 727.343 Q206.242 731.926 206.242 740.676 Q206.242 749.403 203.164 754.009 Q200.108 758.593 194.298 758.593 Q188.488 758.593 185.409 754.009 Q182.354 749.403 182.354 740.676 Q182.354 731.926 185.409 727.343 Q188.488 722.736 194.298 722.736 Z" fill="#000000" fill-rule="evenodd" fill-opacity="1" /><path clip-path="url(#clip840)" d="M134.553 392.079 Q131.405 392.079 129.553 394.232 Q127.724 396.385 127.724 400.135 Q127.724 403.862 129.553 406.038 Q131.405 408.19 134.553 408.19 Q137.701 408.19 139.53 406.038 Q141.382 403.862 141.382 400.135 Q141.382 396.385 139.53 394.232 Q137.701 392.079 134.553 392.079 M143.835 377.427 L143.835 381.686 Q142.076 380.853 140.27 380.413 Q138.488 379.973 136.729 379.973 Q132.099 379.973 129.645 383.098 Q127.215 386.223 126.868 392.542 Q128.233 390.528 130.294 389.464 Q132.354 388.376 134.831 388.376 Q140.039 388.376 143.048 391.547 Q146.081 394.695 146.081 400.135 Q146.081 405.459 142.932 408.676 Q139.784 411.894 134.553 411.894 Q128.558 411.894 125.386 407.311 Q122.215 402.704 122.215 393.977 Q122.215 385.783 126.104 380.922 Q129.993 376.038 136.544 376.038 Q138.303 376.038 140.085 376.385 Q141.891 376.732 143.835 377.427 Z" fill="#000000" fill-rule="evenodd" fill-opacity="1" /><path clip-path="url(#clip840)" d="M164.136 379.741 Q160.525 379.741 158.696 383.306 Q156.891 386.848 156.891 393.977 Q156.891 401.084 158.696 404.649 Q160.525 408.19 164.136 408.19 Q167.77 408.19 169.576 404.649 Q171.405 401.084 171.405 393.977 Q171.405 386.848 169.576 383.306 Q167.77 379.741 164.136 379.741 M164.136 376.038 Q169.946 376.038 173.002 380.644 Q176.08 385.228 176.08 393.977 Q176.08 402.704 173.002 407.311 Q169.946 411.894 164.136 411.894 Q158.326 411.894 155.247 407.311 Q152.192 402.704 152.192 393.977 Q152.192 385.228 155.247 380.644 Q158.326 376.038 164.136 376.038 Z" fill="#000000" fill-rule="evenodd" fill-opacity="1" /><path clip-path="url(#clip840)" d="M194.298 379.741 Q190.687 379.741 188.858 383.306 Q187.053 386.848 187.053 393.977 Q187.053 401.084 188.858 404.649 Q190.687 408.19 194.298 408.19 Q197.932 408.19 199.738 404.649 Q201.566 401.084 201.566 393.977 Q201.566 386.848 199.738 383.306 Q197.932 379.741 194.298 379.741 M194.298 376.038 Q200.108 376.038 203.164 380.644 Q206.242 385.228 206.242 393.977 Q206.242 402.704 203.164 407.311 Q200.108 411.894 194.298 411.894 Q188.488 411.894 185.409 407.311 Q182.354 402.704 182.354 393.977 Q182.354 385.228 185.409 380.644 Q188.488 376.038 194.298 376.038 Z" fill="#000000" fill-rule="evenodd" fill-opacity="1" /><path clip-path="url(#clip840)" d="M133.974 48.1121 Q130.641 48.1121 128.72 49.8945 Q126.821 51.6769 126.821 54.8019 Q126.821 57.9269 128.72 59.7093 Q130.641 61.4917 133.974 61.4917 Q137.307 61.4917 139.229 59.7093 Q141.15 57.9038 141.15 54.8019 Q141.15 51.6769 139.229 49.8945 Q137.331 48.1121 133.974 48.1121 M129.298 46.1214 Q126.289 45.3807 124.599 43.3205 Q122.933 41.2603 122.933 38.2974 Q122.933 34.1539 125.872 31.7465 Q128.835 29.3391 133.974 29.3391 Q139.136 29.3391 142.076 31.7465 Q145.016 34.1539 145.016 38.2974 Q145.016 41.2603 143.326 43.3205 Q141.659 45.3807 138.673 46.1214 Q142.053 46.9084 143.928 49.2001 Q145.826 51.4918 145.826 54.8019 Q145.826 59.825 142.747 62.5102 Q139.692 65.1954 133.974 65.1954 Q128.257 65.1954 125.178 62.5102 Q122.122 59.825 122.122 54.8019 Q122.122 51.4918 124.021 49.2001 Q125.919 46.9084 129.298 46.1214 M127.585 38.7372 Q127.585 41.4224 129.252 42.927 Q130.942 44.4316 133.974 44.4316 Q136.983 44.4316 138.673 42.927 Q140.386 41.4224 140.386 38.7372 Q140.386 36.052 138.673 34.5474 Q136.983 33.0428 133.974 33.0428 Q130.942 33.0428 129.252 34.5474 Q127.585 36.052 127.585 38.7372 Z" fill="#000000" fill-rule="evenodd" fill-opacity="1" /><path clip-path="url(#clip840)" d="M164.136 33.0428 Q160.525 33.0428 158.696 36.6076 Q156.891 40.1492 156.891 47.2788 Q156.891 54.3853 158.696 57.9501 Q160.525 61.4917 164.136 61.4917 Q167.77 61.4917 169.576 57.9501 Q171.405 54.3853 171.405 47.2788 Q171.405 40.1492 169.576 36.6076 Q167.77 33.0428 164.136 33.0428 M164.136 29.3391 Q169.946 29.3391 173.002 33.9456 Q176.08 38.5289 176.08 47.2788 Q176.08 56.0056 173.002 60.6121 Q169.946 65.1954 164.136 65.1954 Q158.326 65.1954 155.247 60.6121 Q152.192 56.0056 152.192 47.2788 Q152.192 38.5289 155.247 33.9456 Q158.326 29.3391 164.136 29.3391 Z" fill="#000000" fill-rule="evenodd" fill-opacity="1" /><path clip-path="url(#clip840)" d="M194.298 33.0428 Q190.687 33.0428 188.858 36.6076 Q187.053 40.1492 187.053 47.2788 Q187.053 54.3853 188.858 57.9501 Q190.687 61.4917 194.298 61.4917 Q197.932 61.4917 199.738 57.9501 Q201.566 54.3853 201.566 47.2788 Q201.566 40.1492 199.738 36.6076 Q197.932 33.0428 194.298 33.0428 M194.298 29.3391 Q200.108 29.3391 203.164 33.9456 Q206.242 38.5289 206.242 47.2788 Q206.242 56.0056 203.164 60.6121 Q200.108 65.1954 194.298 65.1954 Q188.488 65.1954 185.409 60.6121 Q182.354 56.0056 182.354 47.2788 Q182.354 38.5289 185.409 33.9456 Q188.488 29.3391 194.298 29.3391 Z" fill="#000000" fill-rule="evenodd" fill-opacity="1" /><path clip-path="url(#clip840)" d="M17.4436 931.091 L17.4436 924.662 L36.9227 924.662 L36.9227 901.3 L17.4436 901.3 L17.4436 894.87 L64.9636 894.87 L64.9636 901.3 L42.3335 901.3 L42.3335 924.662 L64.9636 924.662 L64.9636 931.091 L17.4436 931.091 Z" fill="#000000" fill-rule="evenodd" fill-opacity="1" /><path clip-path="url(#clip840)" d="M45.6755 851.838 L48.5401 851.838 L48.5401 878.765 Q54.5875 878.383 57.7704 875.137 Q60.9214 871.858 60.9214 866.034 Q60.9214 862.66 60.0939 859.509 Q59.2663 856.326 57.6112 853.207 L63.1494 853.207 Q64.4862 856.358 65.1864 859.668 Q65.8866 862.978 65.8866 866.384 Q65.8866 874.914 60.9214 879.911 Q55.9561 884.876 47.4898 884.876 Q38.7369 884.876 33.6125 880.166 Q28.4563 875.423 28.4563 867.402 Q28.4563 860.209 33.1033 856.039 Q37.7184 851.838 45.6755 851.838 M43.9568 857.695 Q39.1507 857.758 36.2861 860.4 Q33.4215 863.01 33.4215 867.339 Q33.4215 872.24 36.1906 875.2 Q38.9597 878.128 43.9886 878.574 L43.9568 857.695 Z" fill="#000000" fill-rule="evenodd" fill-opacity="1" /><path clip-path="url(#clip840)" d="M29.3157 842.226 L29.3157 836.369 L64.9636 836.369 L64.9636 842.226 L29.3157 842.226 M15.4384 842.226 L15.4384 836.369 L22.8545 836.369 L22.8545 842.226 L15.4384 842.226 Z" fill="#000000" fill-rule="evenodd" fill-opacity="1" /><path clip-path="url(#clip840)" d="M46.7259 800.658 Q40.3602 800.658 36.859 803.3 Q33.3579 805.91 33.3579 810.652 Q33.3579 815.363 36.859 818.004 Q40.3602 820.614 46.7259 820.614 Q53.0597 820.614 56.5609 818.004 Q60.062 815.363 60.062 810.652 Q60.062 805.91 56.5609 803.3 Q53.0597 800.658 46.7259 800.658 M60.5395 794.801 Q69.6424 794.801 74.0666 798.844 Q78.5226 802.886 78.5226 811.225 Q78.5226 814.312 78.0451 817.05 Q77.5995 819.787 76.6447 822.365 L70.9474 822.365 Q72.3478 819.787 73.0162 817.272 Q73.6846 814.758 73.6846 812.148 Q73.6846 806.387 70.6609 803.522 Q67.669 800.658 61.5898 800.658 L58.6934 800.658 Q61.8444 802.472 63.404 805.305 Q64.9636 808.138 64.9636 812.084 Q64.9636 818.641 59.9665 822.651 Q54.9695 826.662 46.7259 826.662 Q38.4504 826.662 33.4534 822.651 Q28.4563 818.641 28.4563 812.084 Q28.4563 808.138 30.0159 805.305 Q31.5755 802.472 34.7265 800.658 L29.3157 800.658 L29.3157 794.801 L60.5395 794.801 Z" fill="#000000" fill-rule="evenodd" fill-opacity="1" /><path clip-path="url(#clip840)" d="M43.4475 753.106 L64.9636 753.106 L64.9636 758.962 L43.6385 758.962 Q38.5778 758.962 36.0633 760.936 Q33.5489 762.909 33.5489 766.856 Q33.5489 771.598 36.5726 774.336 Q39.5963 777.073 44.8162 777.073 L64.9636 777.073 L64.9636 782.961 L15.4384 782.961 L15.4384 777.073 L34.8538 777.073 Q31.6391 774.972 30.0477 772.139 Q28.4563 769.275 28.4563 765.551 Q28.4563 759.408 32.2757 756.257 Q36.0633 753.106 43.4475 753.106 Z" fill="#000000" fill-rule="evenodd" fill-opacity="1" /><path clip-path="url(#clip840)" d="M19.1942 735.632 L29.3157 735.632 L29.3157 723.569 L33.8671 723.569 L33.8671 735.632 L53.2189 735.632 Q57.5794 735.632 58.8207 734.454 Q60.062 733.245 60.062 729.585 L60.062 723.569 L64.9636 723.569 L64.9636 729.585 Q64.9636 736.364 62.4492 738.942 Q59.9029 741.52 53.2189 741.52 L33.8671 741.52 L33.8671 745.817 L29.3157 745.817 L29.3157 741.52 L19.1942 741.52 L19.1942 735.632 Z" fill="#000000" fill-rule="evenodd" fill-opacity="1" /><path clip-path="url(#clip840)" d="M15.4384 695.687 L15.4384 682.192 L19.9899 682.192 L19.9899 689.831 L69.0058 689.831 L69.0058 682.192 L73.5573 682.192 L73.5573 695.687 L15.4384 695.687 Z" fill="#000000" fill-rule="evenodd" fill-opacity="1" /><path clip-path="url(#clip840)" d="M78.5226 670.32 L29.3157 670.32 L29.3157 664.464 L51.4683 664.464 Q56.0835 664.464 58.4388 662.267 Q60.7941 660.071 60.7941 655.774 Q60.7941 651.064 58.1205 648.708 Q55.4469 646.321 50.0997 646.321 L29.3157 646.321 L29.3157 640.465 L56.7519 640.465 Q58.6616 640.465 59.5846 639.924 Q60.4758 639.351 60.4758 638.173 Q60.4758 637.887 60.3167 637.377 Q60.1257 636.868 59.7437 635.977 L64.4544 635.977 Q65.1864 637.282 65.5365 638.46 Q65.8866 639.605 65.8866 640.719 Q65.8866 642.916 64.6453 644.221 Q63.404 645.526 60.8577 646.003 Q63.3722 647.594 64.6453 649.918 Q65.8866 652.21 65.8866 655.329 Q65.8866 658.575 64.6453 660.867 Q63.404 663.127 60.9214 664.464 L78.5226 664.464 L78.5226 670.32 Z" fill="#000000" fill-rule="evenodd" fill-opacity="1" /><path clip-path="url(#clip840)" d="M36.1588 600.488 Q32.2121 598.292 30.3342 595.236 Q28.4563 592.181 28.4563 588.043 Q28.4563 582.473 32.3712 579.45 Q36.2543 576.426 43.4475 576.426 L64.9636 576.426 L64.9636 582.314 L43.6385 582.314 Q38.5141 582.314 36.0315 584.128 Q33.5489 585.943 33.5489 589.666 Q33.5489 594.218 36.5726 596.86 Q39.5963 599.502 44.8162 599.502 L64.9636 599.502 L64.9636 605.39 L43.6385 605.39 Q38.4823 605.39 36.0315 607.204 Q33.5489 609.018 33.5489 612.806 Q33.5489 617.294 36.6044 619.935 Q39.6281 622.577 44.8162 622.577 L64.9636 622.577 L64.9636 628.465 L29.3157 628.465 L29.3157 622.577 L34.8538 622.577 Q31.5755 620.572 30.0159 617.771 Q28.4563 614.97 28.4563 611.119 Q28.4563 607.236 30.4297 604.53 Q32.403 601.793 36.1588 600.488 Z" fill="#000000" fill-rule="evenodd" fill-opacity="1" /><path clip-path="url(#clip840)" d="M15.4384 551.058 L73.5573 551.058 L73.5573 564.554 L69.0058 564.554 L69.0058 556.947 L19.9899 556.947 L19.9899 564.554 L15.4384 564.554 L15.4384 551.058 Z" fill="#000000" fill-rule="evenodd" fill-opacity="1" /><polyline clip-path="url(#clip842)" style="stroke:#009af9; stroke-linecap:butt; stroke-linejoin:round; stroke-width:12; stroke-opacity:1; fill:none" points="
  251.815,1433.87 255.388,1433.78 258.961,1433.64 262.533,1433.44 266.106,1433.13 269.679,1432.67 273.252,1431.97 276.824,1430.91 280.397,1429.31 283.97,1426.89 
  287.543,1423.22 291.116,1417.74 294.688,1408.87 298.261,1399.62 301.834,1390.6 305.407,1381.81 308.979,1373.24 312.552,1364.9 316.125,1356.76 319.698,1348.83 
  323.271,1341.11 326.843,1333.58 330.416,1326.24 333.989,1319.09 337.562,1312.12 341.134,1305.32 344.707,1298.7 348.28,1292.25 351.853,1285.96 355.425,1279.84 
  358.998,1273.86 362.571,1268.04 366.144,1262.37 369.717,1256.84 373.289,1251.45 376.862,1246.2 380.435,1241.09 384.008,1236.1 387.58,1231.24 391.153,1226.5 
  394.726,1221.89 398.299,1217.39 401.872,1213 405.444,1208.73 409.017,1204.57 412.59,1200.51 416.163,1196.55 419.735,1192.7 423.308,1188.94 426.881,1185.28 
  430.454,1181.71 434.026,1178.23 437.599,1174.85 441.172,1171.54 444.745,1168.32 448.318,1165.19 451.89,1162.13 455.463,1159.15 459.036,1156.25 462.609,1153.42 
  466.181,1150.66 469.754,1147.97 473.327,1145.35 476.9,1142.8 480.473,1140.31 484.045,1137.89 487.618,1135.52 491.191,1133.22 494.764,1130.98 498.336,1128.79 
  501.909,1126.66 505.482,1124.58 509.055,1122.55 512.627,1120.58 516.2,1118.66 519.773,1116.78 523.346,1114.96 526.919,1113.18 530.491,1111.44 534.064,1109.75 
  537.637,1108.1 541.21,1106.5 544.782,1104.93 548.355,1103.41 551.928,1101.92 555.501,1100.47 559.074,1099.06 562.646,1097.69 566.219,1096.35 569.792,1095.04 
  573.365,1093.76 576.937,1092.52 580.51,1091.31 584.083,1090.13 587.656,1088.98 591.228,1087.86 594.801,1086.77 
  "/>
<polyline clip-path="url(#clip842)" style="stroke:#e26f46; stroke-linecap:butt; stroke-linejoin:round; stroke-width:12; stroke-opacity:1; fill:none" points="
  251.815,1433.87 255.388,1433.84 258.961,1433.8 262.533,1433.76 266.106,1433.71 269.679,1433.65 273.252,1433.58 276.824,1433.51 280.397,1433.41 283.97,1433.3 
  287.543,1433.17 291.116,1433.02 294.688,1432.85 298.261,1432.64 301.834,1432.4 305.407,1432.11 308.979,1431.77 312.552,1431.38 316.125,1430.91 319.698,1430.37 
  323.271,1429.73 326.843,1428.98 330.416,1428.1 333.989,1427.06 337.562,1425.85 341.134,1424.42 344.707,1422.74 348.28,1420.77 351.853,1418.46 355.425,1415.74 
  358.998,1412.55 362.571,1408.81 366.144,1404.42 369.717,1399.25 373.289,1393.18 376.862,1385.76 380.435,1377.34 384.008,1368.56 387.58,1359.78 391.153,1351.14 
  394.726,1342.59 398.299,1334.13 401.872,1325.76 405.444,1317.5 409.017,1309.33 412.59,1301.25 416.163,1293.27 419.735,1285.39 423.308,1277.59 426.881,1269.89 
  430.454,1262.27 434.026,1254.75 437.599,1247.31 441.172,1239.96 444.745,1232.69 448.318,1225.51 451.89,1218.41 455.463,1211.4 459.036,1204.46 462.609,1197.61 
  466.181,1190.84 469.754,1184.15 473.327,1177.53 476.9,1170.99 480.473,1164.53 484.045,1158.14 487.618,1151.83 491.191,1145.59 494.764,1139.43 498.336,1133.33 
  501.909,1127.31 505.482,1121.36 509.055,1115.47 512.627,1109.66 516.2,1103.91 519.773,1098.23 523.346,1092.62 526.919,1087.07 530.491,1081.59 534.064,1076.17 
  537.637,1070.81 541.21,1065.51 544.782,1060.28 548.355,1055.11 551.928,1050 555.501,1044.95 559.074,1039.95 562.646,1035.02 566.219,1030.14 569.792,1025.32 
  573.365,1020.56 576.937,1015.85 580.51,1011.19 584.083,1006.59 587.656,1002.05 591.228,997.555 594.801,993.114 
  "/>
<polyline clip-path="url(#clip842)" style="stroke:#3da44d; stroke-linecap:butt; stroke-linejoin:round; stroke-width:12; stroke-opacity:1; fill:none" points="
  251.815,1433.87 255.388,1433.84 258.961,1433.8 262.533,1433.76 266.106,1433.71 269.679,1433.66 273.252,1433.59 276.824,1433.51 280.397,1433.42 283.97,1433.32 
  287.543,1433.19 291.116,1433.05 294.688,1432.88 298.261,1432.68 301.834,1432.45 305.407,1432.18 308.979,1431.86 312.552,1431.48 316.125,1431.04 319.698,1430.53 
  323.271,1429.93 326.843,1429.22 330.416,1428.4 333.989,1427.43 337.562,1426.29 341.134,1424.97 344.707,1423.41 348.28,1421.59 351.853,1419.45 355.425,1416.95 
  358.998,1413.95 362.571,1410.46 366.144,1406.71 369.717,1402.87 373.289,1399.02 376.862,1395.23 380.435,1391.47 384.008,1387.75 387.58,1384.08 391.153,1380.45 
  394.726,1376.86 398.299,1373.31 401.872,1369.8 405.444,1366.34 409.017,1362.91 412.59,1359.52 416.163,1356.16 419.735,1352.85 423.308,1349.57 426.881,1346.33 
  430.454,1343.13 434.026,1339.96 437.599,1336.83 441.172,1333.74 444.745,1330.68 448.318,1327.65 451.89,1324.66 455.463,1321.7 459.036,1318.78 462.609,1315.89 
  466.181,1313.03 469.754,1310.21 473.327,1307.41 476.9,1304.65 480.473,1301.92 484.045,1299.22 487.618,1296.55 491.191,1293.91 494.764,1291.31 498.336,1288.73 
  501.909,1286.18 505.482,1283.66 509.055,1281.16 512.627,1278.7 516.2,1276.26 519.773,1273.85 523.346,1271.47 526.919,1269.12 530.491,1266.79 534.064,1264.49 
  537.637,1262.21 541.21,1259.96 544.782,1257.74 548.355,1255.54 551.928,1253.37 555.501,1251.22 559.074,1249.09 562.646,1246.99 566.219,1244.92 569.792,1242.86 
  573.365,1240.83 576.937,1238.82 580.51,1236.84 584.083,1234.88 587.656,1232.94 591.228,1231.02 594.801,1229.12 
  "/>
<polyline clip-path="url(#clip842)" style="stroke:#009af9; stroke-linecap:butt; stroke-linejoin:round; stroke-width:12; stroke-opacity:1; fill:none" stroke-dasharray="48, 30" points="
  251.815,1433.87 255.388,1433.81 258.961,1433.75 262.533,1433.66 266.106,1433.55 269.679,1433.41 273.252,1433.22 276.824,1432.98 280.397,1432.67 283.97,1432.27 
  287.543,1431.76 291.116,1431.09 294.688,1430.23 298.261,1429.13 301.834,1427.71 305.407,1425.89 308.979,1423.58 312.552,1420.64 316.125,1416.92 319.698,1412.25 
  323.271,1406.45 326.843,1399.3 330.416,1390.62 333.989,1380.22 337.562,1368.02 341.134,1354.02 344.707,1338.34 348.28,1321.29 351.853,1303.3 355.425,1284.93 
  358.998,1266.78 362.571,1249.44 366.144,1233.37 369.717,1218.89 373.289,1206.18 376.862,1195.31 380.435,1186.19 384.008,1178.64 387.58,1172.5 391.153,1167.56 
  394.726,1163.62 398.299,1160.48 401.872,1157.99 405.444,1156.05 409.017,1154.57 412.59,1153.41 416.163,1152.49 419.735,1151.76 423.308,1151.21 426.881,1150.79 
  430.454,1150.46 434.026,1150.2 437.599,1149.99 441.172,1149.84 444.745,1149.72 448.318,1149.64 451.89,1149.57 455.463,1149.51 459.036,1149.47 462.609,1149.43 
  466.181,1149.41 469.754,1149.39 473.327,1149.37 476.9,1149.36 480.473,1149.35 484.045,1149.34 487.618,1149.34 491.191,1149.33 494.764,1149.33 498.336,1149.33 
  501.909,1149.33 505.482,1149.33 509.055,1149.33 512.627,1149.32 516.2,1149.32 519.773,1149.32 523.346,1149.32 526.919,1149.32 530.491,1149.32 534.064,1149.32 
  537.637,1149.32 541.21,1149.32 544.782,1149.32 548.355,1149.32 551.928,1149.32 555.501,1149.32 559.074,1149.32 562.646,1149.32 566.219,1149.32 569.792,1149.32 
  573.365,1149.32 576.937,1149.32 580.51,1149.32 584.083,1149.32 587.656,1149.32 591.228,1149.32 594.801,1149.32 
  "/>
<polyline clip-path="url(#clip842)" style="stroke:#e26f46; stroke-linecap:butt; stroke-linejoin:round; stroke-width:12; stroke-opacity:1; fill:none" stroke-dasharray="48, 30" points="
  251.815,1433.87 255.388,1433.84 258.961,1433.81 262.533,1433.77 266.106,1433.73 269.679,1433.68 273.252,1433.63 276.824,1433.56 280.397,1433.49 283.97,1433.4 
  287.543,1433.3 291.116,1433.19 294.688,1433.06 298.261,1432.91 301.834,1432.73 305.407,1432.53 308.979,1432.3 312.552,1432.03 316.125,1431.72 319.698,1431.36 
  323.271,1430.95 326.843,1430.47 330.416,1429.92 333.989,1429.29 337.562,1428.56 341.134,1427.73 344.707,1426.77 348.28,1425.66 351.853,1424.39 355.425,1422.94 
  358.998,1421.27 362.571,1419.37 366.144,1417.19 369.717,1414.7 373.289,1411.88 376.862,1408.66 380.435,1405.03 384.008,1400.91 387.58,1396.28 391.153,1391.09 
  394.726,1385.28 398.299,1378.81 401.872,1371.65 405.444,1363.77 409.017,1355.14 412.59,1345.76 416.163,1335.63 419.735,1324.78 423.308,1313.25 426.881,1301.12 
  430.454,1288.46 434.026,1275.38 437.599,1262 441.172,1248.46 444.745,1234.9 448.318,1221.45 451.89,1208.26 455.463,1195.43 459.036,1183.09 462.609,1171.34 
  466.181,1160.24 469.754,1149.85 473.327,1140.2 476.9,1131.29 480.473,1123.14 484.045,1115.72 487.618,1109.02 491.191,1102.96 494.764,1097.48 498.336,1092.55 
  501.909,1088.16 505.482,1084.31 509.055,1080.95 512.627,1078.05 516.2,1075.55 519.773,1073.4 523.346,1071.53 526.919,1069.84 530.491,1068.3 534.064,1066.94 
  537.637,1065.76 541.21,1064.74 544.782,1063.85 548.355,1063.08 551.928,1062.41 555.501,1061.82 559.074,1061.3 562.646,1060.85 566.219,1060.46 569.792,1060.12 
  573.365,1059.84 576.937,1059.6 580.51,1059.39 584.083,1059.22 587.656,1059.07 591.228,1058.93 594.801,1058.81 
  "/>
<polyline clip-path="url(#clip842)" style="stroke:#3da44d; stroke-linecap:butt; stroke-linejoin:round; stroke-width:12; stroke-opacity:1; fill:none" stroke-dasharray="48, 30" points="
  251.815,1433.87 255.388,1433.84 258.961,1433.81 262.533,1433.78 266.106,1433.74 269.679,1433.69 273.252,1433.64 276.824,1433.58 280.397,1433.52 283.97,1433.44 
  287.543,1433.35 291.116,1433.25 294.688,1433.13 298.261,1433 301.834,1432.85 305.407,1432.67 308.979,1432.47 312.552,1432.24 316.125,1431.98 319.698,1431.68 
  323.271,1431.33 326.843,1430.94 330.416,1430.49 333.989,1429.98 337.562,1429.39 341.134,1428.72 344.707,1427.96 348.28,1427.1 351.853,1426.12 355.425,1425.01 
  358.998,1423.75 362.571,1422.33 366.144,1420.72 369.717,1418.92 373.289,1416.9 376.862,1414.65 380.435,1412.14 384.008,1409.35 387.58,1406.28 391.153,1402.9 
  394.726,1399.22 398.299,1395.21 401.872,1390.88 405.444,1386.25 409.017,1381.31 412.59,1376.1 416.163,1370.65 419.735,1364.98 423.308,1359.16 426.881,1353.22 
  430.454,1347.22 434.026,1341.22 437.599,1335.28 441.172,1329.44 444.745,1323.77 448.318,1318.3 451.89,1313.08 455.463,1308.13 459.036,1303.47 462.609,1299.13 
  466.181,1295.1 469.754,1291.39 473.327,1288 476.9,1284.91 480.473,1282.1 484.045,1279.56 487.618,1277.29 491.191,1275.25 494.764,1273.44 498.336,1271.83 
  501.909,1270.41 505.482,1269.16 509.055,1268.04 512.627,1267.05 516.2,1266.17 519.773,1265.4 523.346,1264.73 526.919,1264.14 530.491,1263.63 534.064,1263.18 
  537.637,1262.78 541.21,1262.43 544.782,1262.13 548.355,1261.86 551.928,1261.62 555.501,1261.42 559.074,1261.25 562.646,1261.1 566.219,1260.96 569.792,1260.85 
  573.365,1260.75 576.937,1260.66 580.51,1260.58 584.083,1260.51 587.656,1260.45 591.228,1260.4 594.801,1260.35 
  "/>
</svg>
