<?xml version="1.0" encoding="utf-8"?>
<svg xmlns="http://www.w3.org/2000/svg" xmlns:xlink="http://www.w3.org/1999/xlink" width="500" height="400" viewBox="0 0 2000 1600">
<defs>
  <clipPath id="clip330">
    <rect x="0" y="0" width="2000" height="1600"/>
  </clipPath>
</defs>
<path clip-path="url(#clip330)" d="
M0 1600 L2000 1600 L2000 0 L0 0  Z
  " fill="#ffffff" fill-rule="evenodd" fill-opacity="1"/>
<defs>
  <clipPath id="clip331">
    <rect x="400" y="0" width="1401" height="1401"/>
  </clipPath>
</defs>
<path clip-path="url(#clip330)" d="
M210.625 1406.76 L1952.76 1406.76 L1952.76 135.568 L210.625 135.568  Z
  " fill="#ffffff" fill-rule="evenodd" fill-opacity="1"/>
<defs>
  <clipPath id="clip332">
    <rect x="210" y="135" width="1743" height="1272"/>
  </clipPath>
</defs>
<polyline clip-path="url(#clip332)" style="stroke:#000000; stroke-linecap:butt; stroke-linejoin:round; stroke-width:2; stroke-opacity:0.1; fill:none" points="
  289.813,1406.76 289.813,135.568 
  "/>
<polyline clip-path="url(#clip332)" style="stroke:#000000; stroke-linecap:butt; stroke-linejoin:round; stroke-width:2; stroke-opacity:0.1; fill:none" points="
  685.752,1406.76 685.752,135.568 
  "/>
<polyline clip-path="url(#clip332)" style="stroke:#000000; stroke-linecap:butt; stroke-linejoin:round; stroke-width:2; stroke-opacity:0.1; fill:none" points="
  1081.69,1406.76 1081.69,135.568 
  "/>
<polyline clip-path="url(#clip332)" style="stroke:#000000; stroke-linecap:butt; stroke-linejoin:round; stroke-width:2; stroke-opacity:0.1; fill:none" points="
  1477.63,1406.76 1477.63,135.568 
  "/>
<polyline clip-path="url(#clip332)" style="stroke:#000000; stroke-linecap:butt; stroke-linejoin:round; stroke-width:2; stroke-opacity:0.1; fill:none" points="
  1873.57,1406.76 1873.57,135.568 
  "/>
<polyline clip-path="url(#clip330)" style="stroke:#000000; stroke-linecap:butt; stroke-linejoin:round; stroke-width:4; stroke-opacity:1; fill:none" points="
  210.625,1406.76 1952.76,1406.76 
  "/>
<polyline clip-path="url(#clip330)" style="stroke:#000000; stroke-linecap:butt; stroke-linejoin:round; stroke-width:4; stroke-opacity:1; fill:none" points="
  289.813,1406.76 289.813,1387.87 
  "/>
<polyline clip-path="url(#clip330)" style="stroke:#000000; stroke-linecap:butt; stroke-linejoin:round; stroke-width:4; stroke-opacity:1; fill:none" points="
  685.752,1406.76 685.752,1387.87 
  "/>
<polyline clip-path="url(#clip330)" style="stroke:#000000; stroke-linecap:butt; stroke-linejoin:round; stroke-width:4; stroke-opacity:1; fill:none" points="
  1081.69,1406.76 1081.69,1387.87 
  "/>
<polyline clip-path="url(#clip330)" style="stroke:#000000; stroke-linecap:butt; stroke-linejoin:round; stroke-width:4; stroke-opacity:1; fill:none" points="
  1477.63,1406.76 1477.63,1387.87 
  "/>
<polyline clip-path="url(#clip330)" style="stroke:#000000; stroke-linecap:butt; stroke-linejoin:round; stroke-width:4; stroke-opacity:1; fill:none" points="
  1873.57,1406.76 1873.57,1387.87 
  "/>
<path clip-path="url(#clip330)" d="M267.197 1434.48 Q263.586 1434.48 261.757 1438.05 Q259.952 1441.59 259.952 1448.72 Q259.952 1455.83 261.757 1459.39 Q263.586 1462.93 267.197 1462.93 Q270.831 1462.93 272.637 1459.39 Q274.466 1455.83 274.466 1448.72 Q274.466 1441.59 272.637 1438.05 Q270.831 1434.48 267.197 1434.48 M267.197 1430.78 Q273.007 1430.78 276.063 1435.39 Q279.142 1439.97 279.142 1448.72 Q279.142 1457.45 276.063 1462.05 Q273.007 1466.64 267.197 1466.64 Q261.387 1466.64 258.308 1462.05 Q255.253 1457.45 255.253 1448.72 Q255.253 1439.97 258.308 1435.39 Q261.387 1430.78 267.197 1430.78 Z" fill="#000000" fill-rule="evenodd" fill-opacity="1" /><path clip-path="url(#clip330)" d="M287.359 1460.08 L292.243 1460.08 L292.243 1465.96 L287.359 1465.96 L287.359 1460.08 Z" fill="#000000" fill-rule="evenodd" fill-opacity="1" /><path clip-path="url(#clip330)" d="M312.428 1434.48 Q308.817 1434.48 306.989 1438.05 Q305.183 1441.59 305.183 1448.72 Q305.183 1455.83 306.989 1459.39 Q308.817 1462.93 312.428 1462.93 Q316.063 1462.93 317.868 1459.39 Q319.697 1455.83 319.697 1448.72 Q319.697 1441.59 317.868 1438.05 Q316.063 1434.48 312.428 1434.48 M312.428 1430.78 Q318.239 1430.78 321.294 1435.39 Q324.373 1439.97 324.373 1448.72 Q324.373 1457.45 321.294 1462.05 Q318.239 1466.64 312.428 1466.64 Q306.618 1466.64 303.54 1462.05 Q300.484 1457.45 300.484 1448.72 Q300.484 1439.97 303.54 1435.39 Q306.618 1430.78 312.428 1430.78 Z" fill="#000000" fill-rule="evenodd" fill-opacity="1" /><path clip-path="url(#clip330)" d="M657.488 1462.03 L673.807 1462.03 L673.807 1465.96 L651.863 1465.96 L651.863 1462.03 Q654.525 1459.27 659.108 1454.64 Q663.715 1449.99 664.895 1448.65 Q667.141 1446.13 668.02 1444.39 Q668.923 1442.63 668.923 1440.94 Q668.923 1438.19 666.979 1436.45 Q665.057 1434.71 661.955 1434.71 Q659.756 1434.71 657.303 1435.48 Q654.872 1436.24 652.094 1437.79 L652.094 1433.07 Q654.918 1431.94 657.372 1431.36 Q659.826 1430.78 661.863 1430.78 Q667.233 1430.78 670.428 1433.46 Q673.622 1436.15 673.622 1440.64 Q673.622 1442.77 672.812 1444.69 Q672.025 1446.59 669.918 1449.18 Q669.34 1449.85 666.238 1453.07 Q663.136 1456.26 657.488 1462.03 Z" fill="#000000" fill-rule="evenodd" fill-opacity="1" /><path clip-path="url(#clip330)" d="M683.622 1460.08 L688.506 1460.08 L688.506 1465.96 L683.622 1465.96 L683.622 1460.08 Z" fill="#000000" fill-rule="evenodd" fill-opacity="1" /><path clip-path="url(#clip330)" d="M698.738 1431.4 L717.094 1431.4 L717.094 1435.34 L703.02 1435.34 L703.02 1443.81 Q704.039 1443.46 705.057 1443.3 Q706.076 1443.12 707.094 1443.12 Q712.881 1443.12 716.261 1446.29 Q719.64 1449.46 719.64 1454.88 Q719.64 1460.45 716.168 1463.56 Q712.696 1466.64 706.376 1466.64 Q704.201 1466.64 701.932 1466.26 Q699.687 1465.89 697.279 1465.15 L697.279 1460.45 Q699.363 1461.59 701.585 1462.14 Q703.807 1462.7 706.284 1462.7 Q710.288 1462.7 712.626 1460.59 Q714.964 1458.49 714.964 1454.88 Q714.964 1451.26 712.626 1449.16 Q710.288 1447.05 706.284 1447.05 Q704.409 1447.05 702.534 1447.47 Q700.682 1447.89 698.738 1448.76 L698.738 1431.4 Z" fill="#000000" fill-rule="evenodd" fill-opacity="1" /><path clip-path="url(#clip330)" d="M1048.85 1431.4 L1067.21 1431.4 L1067.21 1435.34 L1053.14 1435.34 L1053.14 1443.81 Q1054.16 1443.46 1055.17 1443.3 Q1056.19 1443.12 1057.21 1443.12 Q1063 1443.12 1066.38 1446.29 Q1069.76 1449.46 1069.76 1454.88 Q1069.76 1460.45 1066.29 1463.56 Q1062.81 1466.64 1056.49 1466.64 Q1054.32 1466.64 1052.05 1466.26 Q1049.8 1465.89 1047.4 1465.15 L1047.4 1460.45 Q1049.48 1461.59 1051.7 1462.14 Q1053.92 1462.7 1056.4 1462.7 Q1060.41 1462.7 1062.74 1460.59 Q1065.08 1458.49 1065.08 1454.88 Q1065.08 1451.26 1062.74 1449.16 Q1060.41 1447.05 1056.4 1447.05 Q1054.53 1447.05 1052.65 1447.47 Q1050.8 1447.89 1048.85 1448.76 L1048.85 1431.4 Z" fill="#000000" fill-rule="evenodd" fill-opacity="1" /><path clip-path="url(#clip330)" d="M1078.97 1460.08 L1083.85 1460.08 L1083.85 1465.96 L1078.97 1465.96 L1078.97 1460.08 Z" fill="#000000" fill-rule="evenodd" fill-opacity="1" /><path clip-path="url(#clip330)" d="M1104.04 1434.48 Q1100.43 1434.48 1098.6 1438.05 Q1096.79 1441.59 1096.79 1448.72 Q1096.79 1455.83 1098.6 1459.39 Q1100.43 1462.93 1104.04 1462.93 Q1107.67 1462.93 1109.48 1459.39 Q1111.31 1455.83 1111.31 1448.72 Q1111.31 1441.59 1109.48 1438.05 Q1107.67 1434.48 1104.04 1434.48 M1104.04 1430.78 Q1109.85 1430.78 1112.91 1435.39 Q1115.98 1439.97 1115.98 1448.72 Q1115.98 1457.45 1112.91 1462.05 Q1109.85 1466.64 1104.04 1466.64 Q1098.23 1466.64 1095.15 1462.05 Q1092.1 1457.45 1092.1 1448.72 Q1092.1 1439.97 1095.15 1435.39 Q1098.23 1430.78 1104.04 1430.78 Z" fill="#000000" fill-rule="evenodd" fill-opacity="1" /><path clip-path="url(#clip330)" d="M1443.95 1431.4 L1466.17 1431.4 L1466.17 1433.39 L1453.62 1465.96 L1448.74 1465.96 L1460.55 1435.34 L1443.95 1435.34 L1443.95 1431.4 Z" fill="#000000" fill-rule="evenodd" fill-opacity="1" /><path clip-path="url(#clip330)" d="M1475.29 1460.08 L1480.18 1460.08 L1480.18 1465.96 L1475.29 1465.96 L1475.29 1460.08 Z" fill="#000000" fill-rule="evenodd" fill-opacity="1" /><path clip-path="url(#clip330)" d="M1490.41 1431.4 L1508.76 1431.4 L1508.76 1435.34 L1494.69 1435.34 L1494.69 1443.81 Q1495.71 1443.46 1496.73 1443.3 Q1497.74 1443.12 1498.76 1443.12 Q1504.55 1443.12 1507.93 1446.29 Q1511.31 1449.46 1511.31 1454.88 Q1511.31 1460.45 1507.84 1463.56 Q1504.37 1466.64 1498.05 1466.64 Q1495.87 1466.64 1493.6 1466.26 Q1491.36 1465.89 1488.95 1465.15 L1488.95 1460.45 Q1491.03 1461.59 1493.25 1462.14 Q1495.48 1462.7 1497.95 1462.7 Q1501.96 1462.7 1504.3 1460.59 Q1506.63 1458.49 1506.63 1454.88 Q1506.63 1451.26 1504.3 1449.16 Q1501.96 1447.05 1497.95 1447.05 Q1496.08 1447.05 1494.2 1447.47 Q1492.35 1447.89 1490.41 1448.76 L1490.41 1431.4 Z" fill="#000000" fill-rule="evenodd" fill-opacity="1" /><path clip-path="url(#clip330)" d="M1825.64 1462.03 L1833.28 1462.03 L1833.28 1435.66 L1824.97 1437.33 L1824.97 1433.07 L1833.23 1431.4 L1837.91 1431.4 L1837.91 1462.03 L1845.55 1462.03 L1845.55 1465.96 L1825.64 1465.96 L1825.64 1462.03 Z" fill="#000000" fill-rule="evenodd" fill-opacity="1" /><path clip-path="url(#clip330)" d="M1864.99 1434.48 Q1861.38 1434.48 1859.55 1438.05 Q1857.75 1441.59 1857.75 1448.72 Q1857.75 1455.83 1859.55 1459.39 Q1861.38 1462.93 1864.99 1462.93 Q1868.63 1462.93 1870.43 1459.39 Q1872.26 1455.83 1872.26 1448.72 Q1872.26 1441.59 1870.43 1438.05 Q1868.63 1434.48 1864.99 1434.48 M1864.99 1430.78 Q1870.8 1430.78 1873.86 1435.39 Q1876.94 1439.97 1876.94 1448.72 Q1876.94 1457.45 1873.86 1462.05 Q1870.8 1466.64 1864.99 1466.64 Q1859.18 1466.64 1856.1 1462.05 Q1853.05 1457.45 1853.05 1448.72 Q1853.05 1439.97 1856.1 1435.39 Q1859.18 1430.78 1864.99 1430.78 Z" fill="#000000" fill-rule="evenodd" fill-opacity="1" /><path clip-path="url(#clip330)" d="M1885.15 1460.08 L1890.04 1460.08 L1890.04 1465.96 L1885.15 1465.96 L1885.15 1460.08 Z" fill="#000000" fill-rule="evenodd" fill-opacity="1" /><path clip-path="url(#clip330)" d="M1910.22 1434.48 Q1906.61 1434.48 1904.78 1438.05 Q1902.98 1441.59 1902.98 1448.72 Q1902.98 1455.83 1904.78 1459.39 Q1906.61 1462.93 1910.22 1462.93 Q1913.86 1462.93 1915.66 1459.39 Q1917.49 1455.83 1917.49 1448.72 Q1917.49 1441.59 1915.66 1438.05 Q1913.86 1434.48 1910.22 1434.48 M1910.22 1430.78 Q1916.03 1430.78 1919.09 1435.39 Q1922.17 1439.97 1922.17 1448.72 Q1922.17 1457.45 1919.09 1462.05 Q1916.03 1466.64 1910.22 1466.64 Q1904.41 1466.64 1901.33 1462.05 Q1898.28 1457.45 1898.28 1448.72 Q1898.28 1439.97 1901.33 1435.39 Q1904.41 1430.78 1910.22 1430.78 Z" fill="#000000" fill-rule="evenodd" fill-opacity="1" /><path clip-path="url(#clip330)" d="M934.786 1498.11 L974.985 1498.11 L974.985 1503.52 L958.116 1503.52 L958.116 1545.63 L951.655 1545.63 L951.655 1503.52 L934.786 1503.52 L934.786 1498.11 Z" fill="#000000" fill-rule="evenodd" fill-opacity="1" /><path clip-path="url(#clip330)" d="M978.932 1509.98 L984.788 1509.98 L984.788 1545.63 L978.932 1545.63 L978.932 1509.98 M978.932 1496.1 L984.788 1496.1 L984.788 1503.52 L978.932 1503.52 L978.932 1496.1 Z" fill="#000000" fill-rule="evenodd" fill-opacity="1" /><path clip-path="url(#clip330)" d="M1024.8 1516.82 Q1026.99 1512.88 1030.05 1511 Q1033.1 1509.12 1037.24 1509.12 Q1042.81 1509.12 1045.84 1513.04 Q1048.86 1516.92 1048.86 1524.11 L1048.86 1545.63 L1042.97 1545.63 L1042.97 1524.3 Q1042.97 1519.18 1041.16 1516.7 Q1039.34 1514.21 1035.62 1514.21 Q1031.07 1514.21 1028.43 1517.24 Q1025.78 1520.26 1025.78 1525.48 L1025.78 1545.63 L1019.9 1545.63 L1019.9 1524.3 Q1019.9 1519.15 1018.08 1516.7 Q1016.27 1514.21 1012.48 1514.21 Q1007.99 1514.21 1005.35 1517.27 Q1002.71 1520.29 1002.71 1525.48 L1002.71 1545.63 L996.82 1545.63 L996.82 1509.98 L1002.71 1509.98 L1002.71 1515.52 Q1004.71 1512.24 1007.51 1510.68 Q1010.31 1509.12 1014.17 1509.12 Q1018.05 1509.12 1020.75 1511.09 Q1023.49 1513.07 1024.8 1516.82 Z" fill="#000000" fill-rule="evenodd" fill-opacity="1" /><path clip-path="url(#clip330)" d="M1091.03 1526.34 L1091.03 1529.2 L1064.11 1529.2 Q1064.49 1535.25 1067.73 1538.43 Q1071.01 1541.59 1076.84 1541.59 Q1080.21 1541.59 1083.36 1540.76 Q1086.54 1539.93 1089.66 1538.28 L1089.66 1543.81 Q1086.51 1545.15 1083.2 1545.85 Q1079.89 1546.55 1076.49 1546.55 Q1067.96 1546.55 1062.96 1541.59 Q1057.99 1536.62 1057.99 1528.15 Q1057.99 1519.4 1062.7 1514.28 Q1067.45 1509.12 1075.47 1509.12 Q1082.66 1509.12 1086.83 1513.77 Q1091.03 1518.38 1091.03 1526.34 M1085.18 1524.62 Q1085.11 1519.81 1082.47 1516.95 Q1079.86 1514.09 1075.53 1514.09 Q1070.63 1514.09 1067.67 1516.85 Q1064.74 1519.62 1064.3 1524.65 L1085.18 1524.62 Z" fill="#000000" fill-rule="evenodd" fill-opacity="1" /><path clip-path="url(#clip330)" d="M1120.82 1496.1 L1134.32 1496.1 L1134.32 1500.65 L1126.68 1500.65 L1126.68 1549.67 L1134.32 1549.67 L1134.32 1554.22 L1120.82 1554.22 L1120.82 1496.1 Z" fill="#000000" fill-rule="evenodd" fill-opacity="1" /><path clip-path="url(#clip330)" d="M1176.43 1524.11 L1176.43 1545.63 L1170.57 1545.63 L1170.57 1524.3 Q1170.57 1519.24 1168.6 1516.73 Q1166.62 1514.21 1162.68 1514.21 Q1157.94 1514.21 1155.2 1517.24 Q1152.46 1520.26 1152.46 1525.48 L1152.46 1545.63 L1146.57 1545.63 L1146.57 1496.1 L1152.46 1496.1 L1152.46 1515.52 Q1154.56 1512.3 1157.39 1510.71 Q1160.26 1509.12 1163.98 1509.12 Q1170.13 1509.12 1173.28 1512.94 Q1176.43 1516.73 1176.43 1524.11 Z" fill="#000000" fill-rule="evenodd" fill-opacity="1" /><path clip-path="url(#clip330)" d="M1208.77 1515.45 Q1207.78 1514.88 1206.6 1514.63 Q1205.46 1514.34 1204.06 1514.34 Q1199.09 1514.34 1196.42 1517.59 Q1193.77 1520.8 1193.77 1526.85 L1193.77 1545.63 L1187.89 1545.63 L1187.89 1509.98 L1193.77 1509.98 L1193.77 1515.52 Q1195.62 1512.27 1198.58 1510.71 Q1201.54 1509.12 1205.77 1509.12 Q1206.38 1509.12 1207.11 1509.22 Q1207.84 1509.28 1208.73 1509.44 L1208.77 1515.45 Z" fill="#000000" fill-rule="evenodd" fill-opacity="1" /><path clip-path="url(#clip330)" d="M1228.6 1496.1 L1228.6 1554.22 L1215.1 1554.22 L1215.1 1549.67 L1222.71 1549.67 L1222.71 1500.65 L1215.1 1500.65 L1215.1 1496.1 L1228.6 1496.1 Z" fill="#000000" fill-rule="evenodd" fill-opacity="1" /><polyline clip-path="url(#clip332)" style="stroke:#000000; stroke-linecap:butt; stroke-linejoin:round; stroke-width:2; stroke-opacity:0.1; fill:none" points="
  210.625,1395.9 1952.76,1395.9 
  "/>
<polyline clip-path="url(#clip332)" style="stroke:#000000; stroke-linecap:butt; stroke-linejoin:round; stroke-width:2; stroke-opacity:0.1; fill:none" points="
  210.625,1178.6 1952.76,1178.6 
  "/>
<polyline clip-path="url(#clip332)" style="stroke:#000000; stroke-linecap:butt; stroke-linejoin:round; stroke-width:2; stroke-opacity:0.1; fill:none" points="
  210.625,961.302 1952.76,961.302 
  "/>
<polyline clip-path="url(#clip332)" style="stroke:#000000; stroke-linecap:butt; stroke-linejoin:round; stroke-width:2; stroke-opacity:0.1; fill:none" points="
  210.625,744.004 1952.76,744.004 
  "/>
<polyline clip-path="url(#clip332)" style="stroke:#000000; stroke-linecap:butt; stroke-linejoin:round; stroke-width:2; stroke-opacity:0.1; fill:none" points="
  210.625,526.705 1952.76,526.705 
  "/>
<polyline clip-path="url(#clip332)" style="stroke:#000000; stroke-linecap:butt; stroke-linejoin:round; stroke-width:2; stroke-opacity:0.1; fill:none" points="
  210.625,309.407 1952.76,309.407 
  "/>
<polyline clip-path="url(#clip330)" style="stroke:#000000; stroke-linecap:butt; stroke-linejoin:round; stroke-width:4; stroke-opacity:1; fill:none" points="
  210.625,1406.76 210.625,135.568 
  "/>
<polyline clip-path="url(#clip330)" style="stroke:#000000; stroke-linecap:butt; stroke-linejoin:round; stroke-width:4; stroke-opacity:1; fill:none" points="
  210.625,1395.9 229.523,1395.9 
  "/>
<polyline clip-path="url(#clip330)" style="stroke:#000000; stroke-linecap:butt; stroke-linejoin:round; stroke-width:4; stroke-opacity:1; fill:none" points="
  210.625,1178.6 229.523,1178.6 
  "/>
<polyline clip-path="url(#clip330)" style="stroke:#000000; stroke-linecap:butt; stroke-linejoin:round; stroke-width:4; stroke-opacity:1; fill:none" points="
  210.625,961.302 229.523,961.302 
  "/>
<polyline clip-path="url(#clip330)" style="stroke:#000000; stroke-linecap:butt; stroke-linejoin:round; stroke-width:4; stroke-opacity:1; fill:none" points="
  210.625,744.004 229.523,744.004 
  "/>
<polyline clip-path="url(#clip330)" style="stroke:#000000; stroke-linecap:butt; stroke-linejoin:round; stroke-width:4; stroke-opacity:1; fill:none" points="
  210.625,526.705 229.523,526.705 
  "/>
<polyline clip-path="url(#clip330)" style="stroke:#000000; stroke-linecap:butt; stroke-linejoin:round; stroke-width:4; stroke-opacity:1; fill:none" points="
  210.625,309.407 229.523,309.407 
  "/>
<path clip-path="url(#clip330)" d="M168.681 1381.7 Q165.07 1381.7 163.241 1385.26 Q161.435 1388.8 161.435 1395.93 Q161.435 1403.04 163.241 1406.6 Q165.07 1410.15 168.681 1410.15 Q172.315 1410.15 174.12 1406.6 Q175.949 1403.04 175.949 1395.93 Q175.949 1388.8 174.12 1385.26 Q172.315 1381.7 168.681 1381.7 M168.681 1377.99 Q174.491 1377.99 177.546 1382.6 Q180.625 1387.18 180.625 1395.93 Q180.625 1404.66 177.546 1409.27 Q174.491 1413.85 168.681 1413.85 Q162.87 1413.85 159.792 1409.27 Q156.736 1404.66 156.736 1395.93 Q156.736 1387.18 159.792 1382.6 Q162.87 1377.99 168.681 1377.99 Z" fill="#000000" fill-rule="evenodd" fill-opacity="1" /><path clip-path="url(#clip330)" d="M129.329 1191.95 L136.968 1191.95 L136.968 1165.58 L128.658 1167.25 L128.658 1162.99 L136.922 1161.32 L141.597 1161.32 L141.597 1191.95 L149.236 1191.95 L149.236 1195.88 L129.329 1195.88 L129.329 1191.95 Z" fill="#000000" fill-rule="evenodd" fill-opacity="1" /><path clip-path="url(#clip330)" d="M168.681 1164.4 Q165.07 1164.4 163.241 1167.96 Q161.435 1171.51 161.435 1178.64 Q161.435 1185.74 163.241 1189.31 Q165.07 1192.85 168.681 1192.85 Q172.315 1192.85 174.12 1189.31 Q175.949 1185.74 175.949 1178.64 Q175.949 1171.51 174.12 1167.96 Q172.315 1164.4 168.681 1164.4 M168.681 1160.7 Q174.491 1160.7 177.546 1165.3 Q180.625 1169.89 180.625 1178.64 Q180.625 1187.36 177.546 1191.97 Q174.491 1196.55 168.681 1196.55 Q162.87 1196.55 159.792 1191.97 Q156.736 1187.36 156.736 1178.64 Q156.736 1169.89 159.792 1165.3 Q162.87 1160.7 168.681 1160.7 Z" fill="#000000" fill-rule="evenodd" fill-opacity="1" /><path clip-path="url(#clip330)" d="M132.547 974.647 L148.866 974.647 L148.866 978.582 L126.922 978.582 L126.922 974.647 Q129.584 971.892 134.167 967.263 Q138.773 962.61 139.954 961.267 Q142.199 958.744 143.079 957.008 Q143.982 955.249 143.982 953.559 Q143.982 950.804 142.037 949.068 Q140.116 947.332 137.014 947.332 Q134.815 947.332 132.361 948.096 Q129.931 948.86 127.153 950.411 L127.153 945.689 Q129.977 944.555 132.431 943.976 Q134.884 943.397 136.922 943.397 Q142.292 943.397 145.486 946.082 Q148.681 948.767 148.681 953.258 Q148.681 955.388 147.871 957.309 Q147.083 959.207 144.977 961.8 Q144.398 962.471 141.296 965.689 Q138.195 968.883 132.547 974.647 Z" fill="#000000" fill-rule="evenodd" fill-opacity="1" /><path clip-path="url(#clip330)" d="M168.681 947.101 Q165.07 947.101 163.241 950.666 Q161.435 954.207 161.435 961.337 Q161.435 968.443 163.241 972.008 Q165.07 975.55 168.681 975.55 Q172.315 975.55 174.12 972.008 Q175.949 968.443 175.949 961.337 Q175.949 954.207 174.12 950.666 Q172.315 947.101 168.681 947.101 M168.681 943.397 Q174.491 943.397 177.546 948.004 Q180.625 952.587 180.625 961.337 Q180.625 970.064 177.546 974.67 Q174.491 979.253 168.681 979.253 Q162.87 979.253 159.792 974.67 Q156.736 970.064 156.736 961.337 Q156.736 952.587 159.792 948.004 Q162.87 943.397 168.681 943.397 Z" fill="#000000" fill-rule="evenodd" fill-opacity="1" /><path clip-path="url(#clip330)" d="M142.685 742.65 Q146.042 743.367 147.917 745.636 Q149.815 747.904 149.815 751.237 Q149.815 756.353 146.296 759.154 Q142.778 761.955 136.297 761.955 Q134.121 761.955 131.806 761.515 Q129.514 761.098 127.06 760.242 L127.06 755.728 Q129.005 756.862 131.32 757.441 Q133.634 758.02 136.158 758.02 Q140.556 758.02 142.847 756.284 Q145.162 754.548 145.162 751.237 Q145.162 748.182 143.009 746.469 Q140.88 744.733 137.06 744.733 L133.033 744.733 L133.033 740.89 L137.246 740.89 Q140.695 740.89 142.523 739.525 Q144.352 738.136 144.352 735.543 Q144.352 732.881 142.454 731.469 Q140.579 730.034 137.06 730.034 Q135.139 730.034 132.94 730.451 Q130.741 730.867 128.102 731.747 L128.102 727.58 Q130.764 726.839 133.079 726.469 Q135.417 726.099 137.477 726.099 Q142.801 726.099 145.903 728.529 Q149.005 730.937 149.005 735.057 Q149.005 737.927 147.361 739.918 Q145.718 741.886 142.685 742.65 Z" fill="#000000" fill-rule="evenodd" fill-opacity="1" /><path clip-path="url(#clip330)" d="M168.681 729.802 Q165.07 729.802 163.241 733.367 Q161.435 736.909 161.435 744.038 Q161.435 751.145 163.241 754.71 Q165.07 758.251 168.681 758.251 Q172.315 758.251 174.12 754.71 Q175.949 751.145 175.949 744.038 Q175.949 736.909 174.12 733.367 Q172.315 729.802 168.681 729.802 M168.681 726.099 Q174.491 726.099 177.546 730.705 Q180.625 735.288 180.625 744.038 Q180.625 752.765 177.546 757.372 Q174.491 761.955 168.681 761.955 Q162.87 761.955 159.792 757.372 Q156.736 752.765 156.736 744.038 Q156.736 735.288 159.792 730.705 Q162.87 726.099 168.681 726.099 Z" fill="#000000" fill-rule="evenodd" fill-opacity="1" /><path clip-path="url(#clip330)" d="M141.366 513.499 L129.56 531.948 L141.366 531.948 L141.366 513.499 M140.139 509.425 L146.019 509.425 L146.019 531.948 L150.949 531.948 L150.949 535.837 L146.019 535.837 L146.019 543.985 L141.366 543.985 L141.366 535.837 L125.764 535.837 L125.764 531.323 L140.139 509.425 Z" fill="#000000" fill-rule="evenodd" fill-opacity="1" /><path clip-path="url(#clip330)" d="M168.681 512.504 Q165.07 512.504 163.241 516.069 Q161.435 519.61 161.435 526.74 Q161.435 533.846 163.241 537.411 Q165.07 540.953 168.681 540.953 Q172.315 540.953 174.12 537.411 Q175.949 533.846 175.949 526.74 Q175.949 519.61 174.12 516.069 Q172.315 512.504 168.681 512.504 M168.681 508.8 Q174.491 508.8 177.546 513.407 Q180.625 517.99 180.625 526.74 Q180.625 535.467 177.546 540.073 Q174.491 544.657 168.681 544.657 Q162.87 544.657 159.792 540.073 Q156.736 535.467 156.736 526.74 Q156.736 517.99 159.792 513.407 Q162.87 508.8 168.681 508.8 Z" fill="#000000" fill-rule="evenodd" fill-opacity="1" /><path clip-path="url(#clip330)" d="M128.565 292.127 L146.921 292.127 L146.921 296.062 L132.847 296.062 L132.847 304.534 Q133.866 304.187 134.884 304.025 Q135.903 303.84 136.922 303.84 Q142.709 303.84 146.088 307.011 Q149.468 310.182 149.468 315.599 Q149.468 321.178 145.996 324.279 Q142.523 327.358 136.204 327.358 Q134.028 327.358 131.759 326.988 Q129.514 326.617 127.107 325.877 L127.107 321.178 Q129.19 322.312 131.412 322.867 Q133.634 323.423 136.111 323.423 Q140.116 323.423 142.454 321.317 Q144.792 319.21 144.792 315.599 Q144.792 311.988 142.454 309.881 Q140.116 307.775 136.111 307.775 Q134.236 307.775 132.361 308.192 Q130.51 308.608 128.565 309.488 L128.565 292.127 Z" fill="#000000" fill-rule="evenodd" fill-opacity="1" /><path clip-path="url(#clip330)" d="M168.681 295.206 Q165.07 295.206 163.241 298.77 Q161.435 302.312 161.435 309.442 Q161.435 316.548 163.241 320.113 Q165.07 323.654 168.681 323.654 Q172.315 323.654 174.12 320.113 Q175.949 316.548 175.949 309.442 Q175.949 302.312 174.12 298.77 Q172.315 295.206 168.681 295.206 M168.681 291.502 Q174.491 291.502 177.546 296.108 Q180.625 300.692 180.625 309.442 Q180.625 318.168 177.546 322.775 Q174.491 327.358 168.681 327.358 Q162.87 327.358 159.792 322.775 Q156.736 318.168 156.736 309.442 Q156.736 300.692 159.792 296.108 Q162.87 291.502 168.681 291.502 Z" fill="#000000" fill-rule="evenodd" fill-opacity="1" /><path clip-path="url(#clip330)" d="M33.9882 950.822 L33.9882 944.393 L53.4672 944.393 L53.4672 921.031 L33.9882 921.031 L33.9882 914.601 L81.5082 914.601 L81.5082 921.031 L58.8781 921.031 L58.8781 944.393 L81.5082 944.393 L81.5082 950.822 L33.9882 950.822 Z" fill="#000000" fill-rule="evenodd" fill-opacity="1" /><path clip-path="url(#clip330)" d="M62.2201 871.569 L65.0846 871.569 L65.0846 898.496 Q71.1321 898.114 74.3149 894.868 Q77.4659 891.589 77.4659 885.765 Q77.4659 882.391 76.6384 879.24 Q75.8109 876.057 74.1558 872.938 L79.6939 872.938 Q81.0307 876.089 81.731 879.399 Q82.4312 882.709 82.4312 886.115 Q82.4312 894.645 77.4659 899.642 Q72.5007 904.607 64.0343 904.607 Q55.2814 904.607 50.1571 899.896 Q45.0008 895.154 45.0008 887.133 Q45.0008 879.94 49.6478 875.77 Q54.2629 871.569 62.2201 871.569 M60.5013 877.426 Q55.6952 877.489 52.8306 880.131 Q49.9661 882.741 49.9661 887.07 Q49.9661 891.971 52.7352 894.931 Q55.5042 897.859 60.5332 898.305 L60.5013 877.426 Z" fill="#000000" fill-rule="evenodd" fill-opacity="1" /><path clip-path="url(#clip330)" d="M45.8602 861.957 L45.8602 856.1 L81.5082 856.1 L81.5082 861.957 L45.8602 861.957 M31.983 861.957 L31.983 856.1 L39.399 856.1 L39.399 861.957 L31.983 861.957 Z" fill="#000000" fill-rule="evenodd" fill-opacity="1" /><path clip-path="url(#clip330)" d="M63.2704 820.389 Q56.9047 820.389 53.4036 823.031 Q49.9024 825.641 49.9024 830.383 Q49.9024 835.094 53.4036 837.735 Q56.9047 840.345 63.2704 840.345 Q69.6043 840.345 73.1054 837.735 Q76.6066 835.094 76.6066 830.383 Q76.6066 825.641 73.1054 823.031 Q69.6043 820.389 63.2704 820.389 M77.084 814.532 Q86.187 814.532 90.6111 818.575 Q95.0671 822.617 95.0671 830.956 Q95.0671 834.043 94.5897 836.781 Q94.1441 839.518 93.1892 842.096 L87.4919 842.096 Q88.8924 839.518 89.5608 837.003 Q90.2292 834.489 90.2292 831.879 Q90.2292 826.118 87.2055 823.253 Q84.2136 820.389 78.1343 820.389 L75.2379 820.389 Q78.389 822.203 79.9486 825.036 Q81.5082 827.869 81.5082 831.815 Q81.5082 838.372 76.5111 842.382 Q71.514 846.393 63.2704 846.393 Q54.995 846.393 49.9979 842.382 Q45.0008 838.372 45.0008 831.815 Q45.0008 827.869 46.5604 825.036 Q48.12 822.203 51.2711 820.389 L45.8602 820.389 L45.8602 814.532 L77.084 814.532 Z" fill="#000000" fill-rule="evenodd" fill-opacity="1" /><path clip-path="url(#clip330)" d="M59.9921 772.837 L81.5082 772.837 L81.5082 778.693 L60.183 778.693 Q55.1223 778.693 52.6078 780.667 Q50.0934 782.64 50.0934 786.587 Q50.0934 791.329 53.1171 794.067 Q56.1408 796.804 61.3607 796.804 L81.5082 796.804 L81.5082 802.692 L31.983 802.692 L31.983 796.804 L51.3984 796.804 Q48.1837 794.703 46.5923 791.87 Q45.0008 789.006 45.0008 785.282 Q45.0008 779.139 48.8203 775.988 Q52.6078 772.837 59.9921 772.837 Z" fill="#000000" fill-rule="evenodd" fill-opacity="1" /><path clip-path="url(#clip330)" d="M35.7387 755.363 L45.8602 755.363 L45.8602 743.3 L50.4117 743.3 L50.4117 755.363 L69.7634 755.363 Q74.1239 755.363 75.3653 754.185 Q76.6066 752.976 76.6066 749.316 L76.6066 743.3 L81.5082 743.3 L81.5082 749.316 Q81.5082 756.095 78.9937 758.673 Q76.4474 761.251 69.7634 761.251 L50.4117 761.251 L50.4117 765.548 L45.8602 765.548 L45.8602 761.251 L35.7387 761.251 L35.7387 755.363 Z" fill="#000000" fill-rule="evenodd" fill-opacity="1" /><path clip-path="url(#clip330)" d="M31.983 736.139 L31.983 722.643 L36.5344 722.643 L36.5344 730.282 L85.5504 730.282 L85.5504 722.643 L90.1019 722.643 L90.1019 736.139 L31.983 736.139 Z" fill="#000000" fill-rule="evenodd" fill-opacity="1" /><path clip-path="url(#clip330)" d="M95.0671 710.771 L45.8602 710.771 L45.8602 704.915 L68.0129 704.915 Q72.628 704.915 74.9833 702.719 Q77.3386 700.523 77.3386 696.226 Q77.3386 691.515 74.665 689.16 Q71.9914 686.773 66.6442 686.773 L45.8602 686.773 L45.8602 680.916 L73.2964 680.916 Q75.2061 680.916 76.1291 680.375 Q77.0203 679.802 77.0203 678.625 Q77.0203 678.338 76.8612 677.829 Q76.6702 677.32 76.2883 676.428 L80.9989 676.428 Q81.731 677.733 82.0811 678.911 Q82.4312 680.057 82.4312 681.171 Q82.4312 683.367 81.1899 684.672 Q79.9486 685.977 77.4023 686.454 Q79.9167 688.046 81.1899 690.369 Q82.4312 692.661 82.4312 695.78 Q82.4312 699.027 81.1899 701.318 Q79.9486 703.578 77.4659 704.915 L95.0671 704.915 L95.0671 710.771 Z" fill="#000000" fill-rule="evenodd" fill-opacity="1" /><path clip-path="url(#clip330)" d="M52.7033 640.94 Q48.7566 638.743 46.8787 635.688 Q45.0008 632.632 45.0008 628.495 Q45.0008 622.925 48.9157 619.901 Q52.7988 616.877 59.9921 616.877 L81.5082 616.877 L81.5082 622.765 L60.183 622.765 Q55.0586 622.765 52.576 624.58 Q50.0934 626.394 50.0934 630.118 Q50.0934 634.669 53.1171 637.311 Q56.1408 639.953 61.3607 639.953 L81.5082 639.953 L81.5082 645.841 L60.183 645.841 Q55.0268 645.841 52.576 647.655 Q50.0934 649.47 50.0934 653.257 Q50.0934 657.745 53.1489 660.387 Q56.1726 663.029 61.3607 663.029 L81.5082 663.029 L81.5082 668.917 L45.8602 668.917 L45.8602 663.029 L51.3984 663.029 Q48.12 661.023 46.5604 658.222 Q45.0008 655.422 45.0008 651.57 Q45.0008 647.687 46.9742 644.982 Q48.9476 642.245 52.7033 640.94 Z" fill="#000000" fill-rule="evenodd" fill-opacity="1" /><path clip-path="url(#clip330)" d="M31.983 591.51 L90.1019 591.51 L90.1019 605.005 L85.5504 605.005 L85.5504 597.398 L36.5344 597.398 L36.5344 605.005 L31.983 605.005 L31.983 591.51 Z" fill="#000000" fill-rule="evenodd" fill-opacity="1" /><path clip-path="url(#clip330)" d="M854.516 12.096 L892.756 12.096 L892.756 18.9825 L862.699 18.9825 L862.699 36.8875 L891.5 36.8875 L891.5 43.7741 L862.699 43.7741 L862.699 65.6895 L893.485 65.6895 L893.485 72.576 L854.516 72.576 L854.516 12.096 Z" fill="#000000" fill-rule="evenodd" fill-opacity="1" /><path clip-path="url(#clip330)" d="M927.229 49.7694 Q918.196 49.7694 914.712 51.8354 Q911.228 53.9013 911.228 58.8839 Q911.228 62.8538 913.821 65.2034 Q916.454 67.5124 920.951 67.5124 Q927.148 67.5124 930.875 63.1374 Q934.643 58.7219 934.643 51.4303 L934.643 49.7694 L927.229 49.7694 M942.096 46.6907 L942.096 72.576 L934.643 72.576 L934.643 65.6895 Q932.091 69.8214 928.283 71.8063 Q924.475 73.7508 918.966 73.7508 Q911.998 73.7508 907.866 69.8619 Q903.775 65.9325 903.775 59.3701 Q903.775 51.7138 908.879 47.825 Q914.024 43.9361 924.191 43.9361 L934.643 43.9361 L934.643 43.2069 Q934.643 38.0623 931.24 35.2672 Q927.878 32.4315 921.761 32.4315 Q917.872 32.4315 914.186 33.3632 Q910.499 34.295 907.096 36.1584 L907.096 29.2718 Q911.188 27.692 915.036 26.9223 Q918.885 26.1121 922.53 26.1121 Q932.374 26.1121 937.235 31.2163 Q942.096 36.3204 942.096 46.6907 Z" fill="#000000" fill-rule="evenodd" fill-opacity="1" /><path clip-path="url(#clip330)" d="M983.74 34.1734 Q982.484 33.4443 980.985 33.1202 Q979.527 32.7556 977.744 32.7556 Q971.425 32.7556 968.022 36.8875 Q964.66 40.9789 964.66 48.6757 L964.66 72.576 L957.166 72.576 L957.166 27.2059 L964.66 27.2059 L964.66 34.2544 Q967.009 30.1225 970.777 28.1376 Q974.544 26.1121 979.932 26.1121 Q980.701 26.1121 981.633 26.2337 Q982.565 26.3147 983.699 26.5172 L983.74 34.1734 Z" fill="#000000" fill-rule="evenodd" fill-opacity="1" /><path clip-path="url(#clip330)" d="M991.558 9.54393 L999.011 9.54393 L999.011 72.576 L991.558 72.576 L991.558 9.54393 Z" fill="#000000" fill-rule="evenodd" fill-opacity="1" /><path clip-path="url(#clip330)" d="M1033.48 76.7889 Q1030.32 84.8907 1027.33 87.3618 Q1024.33 89.8329 1019.31 89.8329 L1013.35 89.8329 L1013.35 83.5945 L1017.73 83.5945 Q1020.81 83.5945 1022.51 82.1361 Q1024.21 80.6778 1026.27 75.2496 L1027.61 71.8468 L1009.26 27.2059 L1017.16 27.2059 L1031.34 62.6918 L1045.52 27.2059 L1053.42 27.2059 L1033.48 76.7889 Z" fill="#000000" fill-rule="evenodd" fill-opacity="1" /><path clip-path="url(#clip330)" d="M1097.45 14.324 L1097.45 27.2059 L1112.8 27.2059 L1112.8 32.9987 L1097.45 32.9987 L1097.45 57.6282 Q1097.45 63.1779 1098.95 64.7578 Q1100.49 66.3376 1105.15 66.3376 L1112.8 66.3376 L1112.8 72.576 L1105.15 72.576 Q1096.52 72.576 1093.24 69.3758 Q1089.95 66.1351 1089.95 57.6282 L1089.95 32.9987 L1084.49 32.9987 L1084.49 27.2059 L1089.95 27.2059 L1089.95 14.324 L1097.45 14.324 Z" fill="#000000" fill-rule="evenodd" fill-opacity="1" /><path clip-path="url(#clip330)" d="M1122.6 27.2059 L1130.06 27.2059 L1130.06 72.576 L1122.6 72.576 L1122.6 27.2059 M1122.6 9.54393 L1130.06 9.54393 L1130.06 18.9825 L1122.6 18.9825 L1122.6 9.54393 Z" fill="#000000" fill-rule="evenodd" fill-opacity="1" /><path clip-path="url(#clip330)" d="M1180.98 35.9153 Q1183.77 30.8922 1187.66 28.5022 Q1191.55 26.1121 1196.82 26.1121 Q1203.91 26.1121 1207.75 31.0947 Q1211.6 36.0368 1211.6 45.1919 L1211.6 72.576 L1204.11 72.576 L1204.11 45.4349 Q1204.11 38.913 1201.8 35.7533 Q1199.49 32.5936 1194.75 32.5936 Q1188.96 32.5936 1185.6 36.4419 Q1182.23 40.2903 1182.23 46.9338 L1182.23 72.576 L1174.74 72.576 L1174.74 45.4349 Q1174.74 38.8725 1172.43 35.7533 Q1170.12 32.5936 1165.3 32.5936 Q1159.59 32.5936 1156.23 36.4824 Q1152.86 40.3308 1152.86 46.9338 L1152.86 72.576 L1145.37 72.576 L1145.37 27.2059 L1152.86 27.2059 L1152.86 34.2544 Q1155.42 30.082 1158.98 28.0971 Q1162.55 26.1121 1167.45 26.1121 Q1172.39 26.1121 1175.83 28.6237 Q1179.32 31.1352 1180.98 35.9153 Z" fill="#000000" fill-rule="evenodd" fill-opacity="1" /><path clip-path="url(#clip330)" d="M1265.28 48.0275 L1265.28 51.6733 L1231.01 51.6733 Q1231.49 59.3701 1235.62 63.421 Q1239.8 67.4314 1247.21 67.4314 Q1251.5 67.4314 1255.51 66.3781 Q1259.57 65.3249 1263.54 63.2184 L1263.54 70.267 Q1259.53 71.9684 1255.31 72.8596 Q1251.1 73.7508 1246.76 73.7508 Q1235.91 73.7508 1229.55 67.4314 Q1223.23 61.1119 1223.23 50.3365 Q1223.23 39.1965 1229.22 32.6746 Q1235.26 26.1121 1245.47 26.1121 Q1254.62 26.1121 1259.93 32.0264 Q1265.28 37.9003 1265.28 48.0275 M1257.82 45.84 Q1257.74 39.7232 1254.38 36.0774 Q1251.06 32.4315 1245.55 32.4315 Q1239.31 32.4315 1235.54 35.9558 Q1231.82 39.4801 1231.25 45.8805 L1257.82 45.84 Z" fill="#000000" fill-rule="evenodd" fill-opacity="1" /><path clip-path="url(#clip330)" d="M1306.43 28.5427 L1306.43 35.5912 Q1303.27 33.9709 1299.87 33.1607 Q1296.47 32.3505 1292.82 32.3505 Q1287.27 32.3505 1284.48 34.0519 Q1281.72 35.7533 1281.72 39.156 Q1281.72 41.7486 1283.71 43.2475 Q1285.69 44.7058 1291.69 46.0426 L1294.24 46.6097 Q1302.18 48.3111 1305.5 51.4303 Q1308.87 54.509 1308.87 60.0587 Q1308.87 66.3781 1303.84 70.0644 Q1298.86 73.7508 1290.11 73.7508 Q1286.46 73.7508 1282.49 73.0216 Q1278.56 72.3329 1274.19 70.9151 L1274.19 63.2184 Q1278.32 65.3654 1282.33 66.4591 Q1286.34 67.5124 1290.27 67.5124 Q1295.54 67.5124 1298.37 65.73 Q1301.21 63.9071 1301.21 60.6258 Q1301.21 57.5877 1299.14 55.9673 Q1297.12 54.3469 1290.19 52.8481 L1287.6 52.2405 Q1280.67 50.7821 1277.59 47.7845 Q1274.51 44.7463 1274.51 39.4801 Q1274.51 33.0797 1279.05 29.5959 Q1283.59 26.1121 1291.93 26.1121 Q1296.06 26.1121 1299.71 26.7198 Q1303.36 27.3274 1306.43 28.5427 Z" fill="#000000" fill-rule="evenodd" fill-opacity="1" /><circle clip-path="url(#clip332)" cx="356.33" cy="1388.9" r="14" fill="#000000" fill-rule="evenodd" fill-opacity="0.2" stroke="none"/>
<circle clip-path="url(#clip332)" cx="407.011" cy="1390.16" r="14" fill="#000000" fill-rule="evenodd" fill-opacity="0.2" stroke="none"/>
<circle clip-path="url(#clip332)" cx="457.691" cy="1386.16" r="14" fill="#000000" fill-rule="evenodd" fill-opacity="0.2" stroke="none"/>
<circle clip-path="url(#clip332)" cx="509.955" cy="1379.6" r="14" fill="#000000" fill-rule="evenodd" fill-opacity="0.2" stroke="none"/>
<circle clip-path="url(#clip332)" cx="560.635" cy="1387.95" r="14" fill="#000000" fill-rule="evenodd" fill-opacity="0.2" stroke="none"/>
<circle clip-path="url(#clip332)" cx="612.899" cy="1389.64" r="14" fill="#000000" fill-rule="evenodd" fill-opacity="0.2" stroke="none"/>
<circle clip-path="url(#clip332)" cx="663.579" cy="1397.83" r="14" fill="#000000" fill-rule="evenodd" fill-opacity="0.2" stroke="none"/>
<circle clip-path="url(#clip332)" cx="714.259" cy="1395.27" r="14" fill="#000000" fill-rule="evenodd" fill-opacity="0.2" stroke="none"/>
<circle clip-path="url(#clip332)" cx="766.523" cy="1377.41" r="14" fill="#000000" fill-rule="evenodd" fill-opacity="0.2" stroke="none"/>
<circle clip-path="url(#clip332)" cx="817.203" cy="1368.93" r="14" fill="#000000" fill-rule="evenodd" fill-opacity="0.2" stroke="none"/>
<circle clip-path="url(#clip332)" cx="869.467" cy="1359.98" r="14" fill="#000000" fill-rule="evenodd" fill-opacity="0.2" stroke="none"/>
<circle clip-path="url(#clip332)" cx="920.147" cy="1321.32" r="14" fill="#000000" fill-rule="evenodd" fill-opacity="0.2" stroke="none"/>
<circle clip-path="url(#clip332)" cx="972.411" cy="1333.32" r="14" fill="#000000" fill-rule="evenodd" fill-opacity="0.2" stroke="none"/>
<circle clip-path="url(#clip332)" cx="1023.09" cy="1310.74" r="14" fill="#000000" fill-rule="evenodd" fill-opacity="0.2" stroke="none"/>
<circle clip-path="url(#clip332)" cx="1073.77" cy="1275.02" r="14" fill="#000000" fill-rule="evenodd" fill-opacity="0.2" stroke="none"/>
<circle clip-path="url(#clip332)" cx="1126.04" cy="1251.61" r="14" fill="#000000" fill-rule="evenodd" fill-opacity="0.2" stroke="none"/>
<circle clip-path="url(#clip332)" cx="1195.72" cy="1205.48" r="14" fill="#000000" fill-rule="evenodd" fill-opacity="0.2" stroke="none"/>
<circle clip-path="url(#clip332)" cx="1246.4" cy="1137.01" r="14" fill="#000000" fill-rule="evenodd" fill-opacity="0.2" stroke="none"/>
<circle clip-path="url(#clip332)" cx="1297.08" cy="1063.28" r="14" fill="#000000" fill-rule="evenodd" fill-opacity="0.2" stroke="none"/>
<circle clip-path="url(#clip332)" cx="1347.76" cy="996.852" r="14" fill="#000000" fill-rule="evenodd" fill-opacity="0.2" stroke="none"/>
<circle clip-path="url(#clip332)" cx="1398.44" cy="919.364" r="14" fill="#000000" fill-rule="evenodd" fill-opacity="0.2" stroke="none"/>
<circle clip-path="url(#clip332)" cx="1449.12" cy="827.425" r="14" fill="#000000" fill-rule="evenodd" fill-opacity="0.2" stroke="none"/>
<circle clip-path="url(#clip332)" cx="1501.39" cy="722.622" r="14" fill="#000000" fill-rule="evenodd" fill-opacity="0.2" stroke="none"/>
<circle clip-path="url(#clip332)" cx="1552.07" cy="630.248" r="14" fill="#000000" fill-rule="evenodd" fill-opacity="0.2" stroke="none"/>
<circle clip-path="url(#clip332)" cx="1602.75" cy="531.79" r="14" fill="#000000" fill-rule="evenodd" fill-opacity="0.2" stroke="none"/>
<circle clip-path="url(#clip332)" cx="1653.43" cy="475.901" r="14" fill="#000000" fill-rule="evenodd" fill-opacity="0.2" stroke="none"/>
<circle clip-path="url(#clip332)" cx="1704.11" cy="402.932" r="14" fill="#000000" fill-rule="evenodd" fill-opacity="0.2" stroke="none"/>
<circle clip-path="url(#clip332)" cx="1754.79" cy="313.536" r="14" fill="#000000" fill-rule="evenodd" fill-opacity="0.2" stroke="none"/>
<circle clip-path="url(#clip332)" cx="1805.47" cy="259.58" r="14" fill="#000000" fill-rule="evenodd" fill-opacity="0.2" stroke="none"/>
<circle clip-path="url(#clip332)" cx="1864.07" cy="191.153" r="14" fill="#000000" fill-rule="evenodd" fill-opacity="0.2" stroke="none"/>
<circle clip-path="url(#clip332)" cx="372.168" cy="1395.12" r="14" fill="#000000" fill-rule="evenodd" fill-opacity="0.2" stroke="none"/>
<circle clip-path="url(#clip332)" cx="424.432" cy="1391.92" r="14" fill="#000000" fill-rule="evenodd" fill-opacity="0.2" stroke="none"/>
<circle clip-path="url(#clip332)" cx="475.112" cy="1387.23" r="14" fill="#000000" fill-rule="evenodd" fill-opacity="0.2" stroke="none"/>
<circle clip-path="url(#clip332)" cx="527.376" cy="1385.92" r="14" fill="#000000" fill-rule="evenodd" fill-opacity="0.2" stroke="none"/>
<circle clip-path="url(#clip332)" cx="578.056" cy="1382.4" r="14" fill="#000000" fill-rule="evenodd" fill-opacity="0.2" stroke="none"/>
<circle clip-path="url(#clip332)" cx="628.736" cy="1376.86" r="14" fill="#000000" fill-rule="evenodd" fill-opacity="0.2" stroke="none"/>
<circle clip-path="url(#clip332)" cx="681" cy="1375.26" r="14" fill="#000000" fill-rule="evenodd" fill-opacity="0.2" stroke="none"/>
<circle clip-path="url(#clip332)" cx="731.68" cy="1378.8" r="14" fill="#000000" fill-rule="evenodd" fill-opacity="0.2" stroke="none"/>
<circle clip-path="url(#clip332)" cx="783.944" cy="1349.98" r="14" fill="#000000" fill-rule="evenodd" fill-opacity="0.2" stroke="none"/>
<circle clip-path="url(#clip332)" cx="834.625" cy="1351.09" r="14" fill="#000000" fill-rule="evenodd" fill-opacity="0.2" stroke="none"/>
<circle clip-path="url(#clip332)" cx="885.305" cy="1343.7" r="14" fill="#000000" fill-rule="evenodd" fill-opacity="0.2" stroke="none"/>
<circle clip-path="url(#clip332)" cx="937.569" cy="1335.82" r="14" fill="#000000" fill-rule="evenodd" fill-opacity="0.2" stroke="none"/>
<circle clip-path="url(#clip332)" cx="988.249" cy="1328.6" r="14" fill="#000000" fill-rule="evenodd" fill-opacity="0.2" stroke="none"/>
<circle clip-path="url(#clip332)" cx="1040.51" cy="1303.79" r="14" fill="#000000" fill-rule="evenodd" fill-opacity="0.2" stroke="none"/>
<circle clip-path="url(#clip332)" cx="1091.19" cy="1234.6" r="14" fill="#000000" fill-rule="evenodd" fill-opacity="0.2" stroke="none"/>
<circle clip-path="url(#clip332)" cx="1141.87" cy="1203.89" r="14" fill="#000000" fill-rule="evenodd" fill-opacity="0.2" stroke="none"/>
<circle clip-path="url(#clip332)" cx="1213.14" cy="1142.57" r="14" fill="#000000" fill-rule="evenodd" fill-opacity="0.2" stroke="none"/>
<circle clip-path="url(#clip332)" cx="1263.82" cy="1096.2" r="14" fill="#000000" fill-rule="evenodd" fill-opacity="0.2" stroke="none"/>
<circle clip-path="url(#clip332)" cx="1314.5" cy="1039.4" r="14" fill="#000000" fill-rule="evenodd" fill-opacity="0.2" stroke="none"/>
<circle clip-path="url(#clip332)" cx="1365.18" cy="1006.83" r="14" fill="#000000" fill-rule="evenodd" fill-opacity="0.2" stroke="none"/>
<circle clip-path="url(#clip332)" cx="1415.86" cy="883.357" r="14" fill="#000000" fill-rule="evenodd" fill-opacity="0.2" stroke="none"/>
<circle clip-path="url(#clip332)" cx="1466.54" cy="810.432" r="14" fill="#000000" fill-rule="evenodd" fill-opacity="0.2" stroke="none"/>
<circle clip-path="url(#clip332)" cx="1517.22" cy="702.152" r="14" fill="#000000" fill-rule="evenodd" fill-opacity="0.2" stroke="none"/>
<circle clip-path="url(#clip332)" cx="1567.9" cy="596.436" r="14" fill="#000000" fill-rule="evenodd" fill-opacity="0.2" stroke="none"/>
<circle clip-path="url(#clip332)" cx="1618.58" cy="549.609" r="14" fill="#000000" fill-rule="evenodd" fill-opacity="0.2" stroke="none"/>
<circle clip-path="url(#clip332)" cx="1670.85" cy="461.624" r="14" fill="#000000" fill-rule="evenodd" fill-opacity="0.2" stroke="none"/>
<circle clip-path="url(#clip332)" cx="1721.53" cy="394.631" r="14" fill="#000000" fill-rule="evenodd" fill-opacity="0.2" stroke="none"/>
<circle clip-path="url(#clip332)" cx="1772.21" cy="334.44" r="14" fill="#000000" fill-rule="evenodd" fill-opacity="0.2" stroke="none"/>
<circle clip-path="url(#clip332)" cx="1822.89" cy="273.314" r="14" fill="#000000" fill-rule="evenodd" fill-opacity="0.2" stroke="none"/>
<circle clip-path="url(#clip332)" cx="1881.49" cy="189.263" r="14" fill="#000000" fill-rule="evenodd" fill-opacity="0.2" stroke="none"/>
<circle clip-path="url(#clip332)" cx="441.853" cy="1386.9" r="14" fill="#000000" fill-rule="evenodd" fill-opacity="0.2" stroke="none"/>
<circle clip-path="url(#clip332)" cx="492.533" cy="1373.37" r="14" fill="#000000" fill-rule="evenodd" fill-opacity="0.2" stroke="none"/>
<circle clip-path="url(#clip332)" cx="543.214" cy="1399.14" r="14" fill="#000000" fill-rule="evenodd" fill-opacity="0.2" stroke="none"/>
<circle clip-path="url(#clip332)" cx="595.478" cy="1390.71" r="14" fill="#000000" fill-rule="evenodd" fill-opacity="0.2" stroke="none"/>
<circle clip-path="url(#clip332)" cx="646.158" cy="1385.47" r="14" fill="#000000" fill-rule="evenodd" fill-opacity="0.2" stroke="none"/>
<circle clip-path="url(#clip332)" cx="698.422" cy="1405.89" r="14" fill="#000000" fill-rule="evenodd" fill-opacity="0.2" stroke="none"/>
<circle clip-path="url(#clip332)" cx="749.102" cy="1404.18" r="14" fill="#000000" fill-rule="evenodd" fill-opacity="0.2" stroke="none"/>
<circle clip-path="url(#clip332)" cx="799.782" cy="1399.94" r="14" fill="#000000" fill-rule="evenodd" fill-opacity="0.2" stroke="none"/>
<circle clip-path="url(#clip332)" cx="852.046" cy="1384.64" r="14" fill="#000000" fill-rule="evenodd" fill-opacity="0.2" stroke="none"/>
<circle clip-path="url(#clip332)" cx="902.726" cy="1364.28" r="14" fill="#000000" fill-rule="evenodd" fill-opacity="0.2" stroke="none"/>
<circle clip-path="url(#clip332)" cx="954.99" cy="1301.14" r="14" fill="#000000" fill-rule="evenodd" fill-opacity="0.2" stroke="none"/>
<circle clip-path="url(#clip332)" cx="1005.67" cy="1306.11" r="14" fill="#000000" fill-rule="evenodd" fill-opacity="0.2" stroke="none"/>
<circle clip-path="url(#clip332)" cx="1057.93" cy="1277.01" r="14" fill="#000000" fill-rule="evenodd" fill-opacity="0.2" stroke="none"/>
<circle clip-path="url(#clip332)" cx="1108.61" cy="1255.85" r="14" fill="#000000" fill-rule="evenodd" fill-opacity="0.2" stroke="none"/>
<circle clip-path="url(#clip332)" cx="1159.29" cy="1220.52" r="14" fill="#000000" fill-rule="evenodd" fill-opacity="0.2" stroke="none"/>
<circle clip-path="url(#clip332)" cx="1230.56" cy="1187.73" r="14" fill="#000000" fill-rule="evenodd" fill-opacity="0.2" stroke="none"/>
<circle clip-path="url(#clip332)" cx="1281.24" cy="1129.71" r="14" fill="#000000" fill-rule="evenodd" fill-opacity="0.2" stroke="none"/>
<circle clip-path="url(#clip332)" cx="1331.92" cy="1035.29" r="14" fill="#000000" fill-rule="evenodd" fill-opacity="0.2" stroke="none"/>
<circle clip-path="url(#clip332)" cx="1382.6" cy="946.656" r="14" fill="#000000" fill-rule="evenodd" fill-opacity="0.2" stroke="none"/>
<circle clip-path="url(#clip332)" cx="1433.28" cy="845.569" r="14" fill="#000000" fill-rule="evenodd" fill-opacity="0.2" stroke="none"/>
<circle clip-path="url(#clip332)" cx="1483.96" cy="769.667" r="14" fill="#000000" fill-rule="evenodd" fill-opacity="0.2" stroke="none"/>
<circle clip-path="url(#clip332)" cx="1534.64" cy="684.051" r="14" fill="#000000" fill-rule="evenodd" fill-opacity="0.2" stroke="none"/>
<circle clip-path="url(#clip332)" cx="1585.32" cy="616.319" r="14" fill="#000000" fill-rule="evenodd" fill-opacity="0.2" stroke="none"/>
<circle clip-path="url(#clip332)" cx="1636" cy="511.994" r="14" fill="#000000" fill-rule="evenodd" fill-opacity="0.2" stroke="none"/>
<circle clip-path="url(#clip332)" cx="1686.68" cy="419.686" r="14" fill="#000000" fill-rule="evenodd" fill-opacity="0.2" stroke="none"/>
<circle clip-path="url(#clip332)" cx="1737.37" cy="369.316" r="14" fill="#000000" fill-rule="evenodd" fill-opacity="0.2" stroke="none"/>
<circle clip-path="url(#clip332)" cx="1788.05" cy="334.005" r="14" fill="#000000" fill-rule="evenodd" fill-opacity="0.2" stroke="none"/>
<circle clip-path="url(#clip332)" cx="1838.73" cy="297.89" r="14" fill="#000000" fill-rule="evenodd" fill-opacity="0.2" stroke="none"/>
<circle clip-path="url(#clip332)" cx="1897.32" cy="217.555" r="14" fill="#000000" fill-rule="evenodd" fill-opacity="0.2" stroke="none"/>
</svg>
