<?xml version="1.0" encoding="utf-8"?>
<svg xmlns="http://www.w3.org/2000/svg" xmlns:xlink="http://www.w3.org/1999/xlink" width="500" height="400" viewBox="0 0 2000 1600">
<defs>
  <clipPath id="clip330">
    <rect x="0" y="0" width="2000" height="1600"/>
  </clipPath>
</defs>
<path clip-path="url(#clip330)" d="
M0 1600 L2000 1600 L2000 0 L0 0  Z
  " fill="#ffffff" fill-rule="evenodd" fill-opacity="1"/>
<defs>
  <clipPath id="clip331">
    <rect x="400" y="0" width="1401" height="1401"/>
  </clipPath>
</defs>
<path clip-path="url(#clip330)" d="
M239.629 1406.76 L1952.76 1406.76 L1952.76 135.568 L239.629 135.568  Z
  " fill="#ffffff" fill-rule="evenodd" fill-opacity="1"/>
<defs>
  <clipPath id="clip332">
    <rect x="239" y="135" width="1714" height="1272"/>
  </clipPath>
</defs>
<polyline clip-path="url(#clip332)" style="stroke:#000000; stroke-linecap:butt; stroke-linejoin:round; stroke-width:2; stroke-opacity:0.1; fill:none" points="
  257.291,1406.76 257.291,135.568 
  "/>
<polyline clip-path="url(#clip332)" style="stroke:#000000; stroke-linecap:butt; stroke-linejoin:round; stroke-width:2; stroke-opacity:0.1; fill:none" points="
  610.512,1406.76 610.512,135.568 
  "/>
<polyline clip-path="url(#clip332)" style="stroke:#000000; stroke-linecap:butt; stroke-linejoin:round; stroke-width:2; stroke-opacity:0.1; fill:none" points="
  963.734,1406.76 963.734,135.568 
  "/>
<polyline clip-path="url(#clip332)" style="stroke:#000000; stroke-linecap:butt; stroke-linejoin:round; stroke-width:2; stroke-opacity:0.1; fill:none" points="
  1316.96,1406.76 1316.96,135.568 
  "/>
<polyline clip-path="url(#clip332)" style="stroke:#000000; stroke-linecap:butt; stroke-linejoin:round; stroke-width:2; stroke-opacity:0.1; fill:none" points="
  1670.18,1406.76 1670.18,135.568 
  "/>
<polyline clip-path="url(#clip330)" style="stroke:#000000; stroke-linecap:butt; stroke-linejoin:round; stroke-width:4; stroke-opacity:1; fill:none" points="
  239.629,1406.76 1952.76,1406.76 
  "/>
<polyline clip-path="url(#clip330)" style="stroke:#000000; stroke-linecap:butt; stroke-linejoin:round; stroke-width:4; stroke-opacity:1; fill:none" points="
  257.291,1406.76 257.291,1387.87 
  "/>
<polyline clip-path="url(#clip330)" style="stroke:#000000; stroke-linecap:butt; stroke-linejoin:round; stroke-width:4; stroke-opacity:1; fill:none" points="
  610.512,1406.76 610.512,1387.87 
  "/>
<polyline clip-path="url(#clip330)" style="stroke:#000000; stroke-linecap:butt; stroke-linejoin:round; stroke-width:4; stroke-opacity:1; fill:none" points="
  963.734,1406.76 963.734,1387.87 
  "/>
<polyline clip-path="url(#clip330)" style="stroke:#000000; stroke-linecap:butt; stroke-linejoin:round; stroke-width:4; stroke-opacity:1; fill:none" points="
  1316.96,1406.76 1316.96,1387.87 
  "/>
<polyline clip-path="url(#clip330)" style="stroke:#000000; stroke-linecap:butt; stroke-linejoin:round; stroke-width:4; stroke-opacity:1; fill:none" points="
  1670.18,1406.76 1670.18,1387.87 
  "/>
<path clip-path="url(#clip330)" d="M257.291 1434.48 Q253.679 1434.48 251.851 1438.05 Q250.045 1441.59 250.045 1448.72 Q250.045 1455.83 251.851 1459.39 Q253.679 1462.93 257.291 1462.93 Q260.925 1462.93 262.73 1459.39 Q264.559 1455.83 264.559 1448.72 Q264.559 1441.59 262.73 1438.05 Q260.925 1434.48 257.291 1434.48 M257.291 1430.78 Q263.101 1430.78 266.156 1435.39 Q269.235 1439.97 269.235 1448.72 Q269.235 1457.45 266.156 1462.05 Q263.101 1466.64 257.291 1466.64 Q251.48 1466.64 248.402 1462.05 Q245.346 1457.45 245.346 1448.72 Q245.346 1439.97 248.402 1435.39 Q251.48 1430.78 257.291 1430.78 Z" fill="#000000" fill-rule="evenodd" fill-opacity="1" /><path clip-path="url(#clip330)" d="M585.2 1462.03 L592.839 1462.03 L592.839 1435.66 L584.529 1437.33 L584.529 1433.07 L592.793 1431.4 L597.469 1431.4 L597.469 1462.03 L605.107 1462.03 L605.107 1465.96 L585.2 1465.96 L585.2 1462.03 Z" fill="#000000" fill-rule="evenodd" fill-opacity="1" /><path clip-path="url(#clip330)" d="M624.552 1434.48 Q620.941 1434.48 619.112 1438.05 Q617.306 1441.59 617.306 1448.72 Q617.306 1455.83 619.112 1459.39 Q620.941 1462.93 624.552 1462.93 Q628.186 1462.93 629.992 1459.39 Q631.82 1455.83 631.82 1448.72 Q631.82 1441.59 629.992 1438.05 Q628.186 1434.48 624.552 1434.48 M624.552 1430.78 Q630.362 1430.78 633.417 1435.39 Q636.496 1439.97 636.496 1448.72 Q636.496 1457.45 633.417 1462.05 Q630.362 1466.64 624.552 1466.64 Q618.742 1466.64 615.663 1462.05 Q612.607 1457.45 612.607 1448.72 Q612.607 1439.97 615.663 1435.39 Q618.742 1430.78 624.552 1430.78 Z" fill="#000000" fill-rule="evenodd" fill-opacity="1" /><path clip-path="url(#clip330)" d="M942.508 1462.03 L958.827 1462.03 L958.827 1465.96 L936.883 1465.96 L936.883 1462.03 Q939.545 1459.27 944.128 1454.64 Q948.735 1449.99 949.915 1448.65 Q952.16 1446.13 953.04 1444.39 Q953.943 1442.63 953.943 1440.94 Q953.943 1438.19 951.998 1436.45 Q950.077 1434.71 946.975 1434.71 Q944.776 1434.71 942.323 1435.48 Q939.892 1436.24 937.114 1437.79 L937.114 1433.07 Q939.938 1431.94 942.392 1431.36 Q944.846 1430.78 946.883 1430.78 Q952.253 1430.78 955.447 1433.46 Q958.642 1436.15 958.642 1440.64 Q958.642 1442.77 957.832 1444.69 Q957.045 1446.59 954.938 1449.18 Q954.359 1449.85 951.258 1453.07 Q948.156 1456.26 942.508 1462.03 Z" fill="#000000" fill-rule="evenodd" fill-opacity="1" /><path clip-path="url(#clip330)" d="M978.642 1434.48 Q975.031 1434.48 973.202 1438.05 Q971.396 1441.59 971.396 1448.72 Q971.396 1455.83 973.202 1459.39 Q975.031 1462.93 978.642 1462.93 Q982.276 1462.93 984.082 1459.39 Q985.91 1455.83 985.91 1448.72 Q985.91 1441.59 984.082 1438.05 Q982.276 1434.48 978.642 1434.48 M978.642 1430.78 Q984.452 1430.78 987.507 1435.39 Q990.586 1439.97 990.586 1448.72 Q990.586 1457.45 987.507 1462.05 Q984.452 1466.64 978.642 1466.64 Q972.832 1466.64 969.753 1462.05 Q966.697 1457.45 966.697 1448.72 Q966.697 1439.97 969.753 1435.39 Q972.832 1430.78 978.642 1430.78 Z" fill="#000000" fill-rule="evenodd" fill-opacity="1" /><path clip-path="url(#clip330)" d="M1305.8 1447.33 Q1309.16 1448.05 1311.03 1450.32 Q1312.93 1452.58 1312.93 1455.92 Q1312.93 1461.03 1309.41 1463.83 Q1305.89 1466.64 1299.41 1466.64 Q1297.23 1466.64 1294.92 1466.2 Q1292.63 1465.78 1290.17 1464.92 L1290.17 1460.41 Q1292.12 1461.54 1294.43 1462.12 Q1296.75 1462.7 1299.27 1462.7 Q1303.67 1462.7 1305.96 1460.96 Q1308.28 1459.23 1308.28 1455.92 Q1308.28 1452.86 1306.12 1451.15 Q1303.99 1449.41 1300.17 1449.41 L1296.15 1449.41 L1296.15 1445.57 L1300.36 1445.57 Q1303.81 1445.57 1305.64 1444.2 Q1307.47 1442.82 1307.47 1440.22 Q1307.47 1437.56 1305.57 1436.15 Q1303.69 1434.71 1300.17 1434.71 Q1298.25 1434.71 1296.05 1435.13 Q1293.85 1435.55 1291.22 1436.43 L1291.22 1432.26 Q1293.88 1431.52 1296.19 1431.15 Q1298.53 1430.78 1300.59 1430.78 Q1305.91 1430.78 1309.02 1433.21 Q1312.12 1435.62 1312.12 1439.74 Q1312.12 1442.61 1310.47 1444.6 Q1308.83 1446.57 1305.8 1447.33 Z" fill="#000000" fill-rule="evenodd" fill-opacity="1" /><path clip-path="url(#clip330)" d="M1331.79 1434.48 Q1328.18 1434.48 1326.35 1438.05 Q1324.55 1441.59 1324.55 1448.72 Q1324.55 1455.83 1326.35 1459.39 Q1328.18 1462.93 1331.79 1462.93 Q1335.43 1462.93 1337.23 1459.39 Q1339.06 1455.83 1339.06 1448.72 Q1339.06 1441.59 1337.23 1438.05 Q1335.43 1434.48 1331.79 1434.48 M1331.79 1430.78 Q1337.6 1430.78 1340.66 1435.39 Q1343.74 1439.97 1343.74 1448.72 Q1343.74 1457.45 1340.66 1462.05 Q1337.6 1466.64 1331.79 1466.64 Q1325.98 1466.64 1322.91 1462.05 Q1319.85 1457.45 1319.85 1448.72 Q1319.85 1439.97 1322.91 1435.39 Q1325.98 1430.78 1331.79 1430.78 Z" fill="#000000" fill-rule="evenodd" fill-opacity="1" /><path clip-path="url(#clip330)" d="M1658.35 1435.48 L1646.54 1453.93 L1658.35 1453.93 L1658.35 1435.48 M1657.12 1431.4 L1663 1431.4 L1663 1453.93 L1667.93 1453.93 L1667.93 1457.82 L1663 1457.82 L1663 1465.96 L1658.35 1465.96 L1658.35 1457.82 L1642.75 1457.82 L1642.75 1453.3 L1657.12 1431.4 Z" fill="#000000" fill-rule="evenodd" fill-opacity="1" /><path clip-path="url(#clip330)" d="M1685.66 1434.48 Q1682.05 1434.48 1680.22 1438.05 Q1678.42 1441.59 1678.42 1448.72 Q1678.42 1455.83 1680.22 1459.39 Q1682.05 1462.93 1685.66 1462.93 Q1689.3 1462.93 1691.1 1459.39 Q1692.93 1455.83 1692.93 1448.72 Q1692.93 1441.59 1691.1 1438.05 Q1689.3 1434.48 1685.66 1434.48 M1685.66 1430.78 Q1691.47 1430.78 1694.53 1435.39 Q1697.61 1439.97 1697.61 1448.72 Q1697.61 1457.45 1694.53 1462.05 Q1691.47 1466.64 1685.66 1466.64 Q1679.85 1466.64 1676.78 1462.05 Q1673.72 1457.45 1673.72 1448.72 Q1673.72 1439.97 1676.78 1435.39 Q1679.85 1430.78 1685.66 1430.78 Z" fill="#000000" fill-rule="evenodd" fill-opacity="1" /><path clip-path="url(#clip330)" d="M949.288 1498.11 L989.488 1498.11 L989.488 1503.52 L972.618 1503.52 L972.618 1545.63 L966.157 1545.63 L966.157 1503.52 L949.288 1503.52 L949.288 1498.11 Z" fill="#000000" fill-rule="evenodd" fill-opacity="1" /><path clip-path="url(#clip330)" d="M993.434 1509.98 L999.291 1509.98 L999.291 1545.63 L993.434 1545.63 L993.434 1509.98 M993.434 1496.1 L999.291 1496.1 L999.291 1503.52 L993.434 1503.52 L993.434 1496.1 Z" fill="#000000" fill-rule="evenodd" fill-opacity="1" /><path clip-path="url(#clip330)" d="M1039.3 1516.82 Q1041.5 1512.88 1044.55 1511 Q1047.61 1509.12 1051.74 1509.12 Q1057.31 1509.12 1060.34 1513.04 Q1063.36 1516.92 1063.36 1524.11 L1063.36 1545.63 L1057.47 1545.63 L1057.47 1524.3 Q1057.47 1519.18 1055.66 1516.7 Q1053.84 1514.21 1050.12 1514.21 Q1045.57 1514.21 1042.93 1517.24 Q1040.29 1520.26 1040.29 1525.48 L1040.29 1545.63 L1034.4 1545.63 L1034.4 1524.3 Q1034.4 1519.15 1032.58 1516.7 Q1030.77 1514.21 1026.98 1514.21 Q1022.49 1514.21 1019.85 1517.27 Q1017.21 1520.29 1017.21 1525.48 L1017.21 1545.63 L1011.32 1545.63 L1011.32 1509.98 L1017.21 1509.98 L1017.21 1515.52 Q1019.22 1512.24 1022.02 1510.68 Q1024.82 1509.12 1028.67 1509.12 Q1032.55 1509.12 1035.26 1511.09 Q1037.99 1513.07 1039.3 1516.82 Z" fill="#000000" fill-rule="evenodd" fill-opacity="1" /><path clip-path="url(#clip330)" d="M1105.53 1526.34 L1105.53 1529.2 L1078.61 1529.2 Q1078.99 1535.25 1082.24 1538.43 Q1085.51 1541.59 1091.34 1541.59 Q1094.71 1541.59 1097.86 1540.76 Q1101.05 1539.93 1104.17 1538.28 L1104.17 1543.81 Q1101.01 1545.15 1097.7 1545.85 Q1094.39 1546.55 1090.99 1546.55 Q1082.46 1546.55 1077.46 1541.59 Q1072.5 1536.62 1072.5 1528.15 Q1072.5 1519.4 1077.21 1514.28 Q1081.95 1509.12 1089.97 1509.12 Q1097.16 1509.12 1101.33 1513.77 Q1105.53 1518.38 1105.53 1526.34 M1099.68 1524.62 Q1099.61 1519.81 1096.97 1516.95 Q1094.36 1514.09 1090.03 1514.09 Q1085.13 1514.09 1082.17 1516.85 Q1079.24 1519.62 1078.8 1524.65 L1099.68 1524.62 Z" fill="#000000" fill-rule="evenodd" fill-opacity="1" /><path clip-path="url(#clip330)" d="M1135.33 1496.1 L1148.82 1496.1 L1148.82 1500.65 L1141.18 1500.65 L1141.18 1549.67 L1148.82 1549.67 L1148.82 1554.22 L1135.33 1554.22 L1135.33 1496.1 Z" fill="#000000" fill-rule="evenodd" fill-opacity="1" /><path clip-path="url(#clip330)" d="M1190.93 1524.11 L1190.93 1545.63 L1185.07 1545.63 L1185.07 1524.3 Q1185.07 1519.24 1183.1 1516.73 Q1181.13 1514.21 1177.18 1514.21 Q1172.44 1514.21 1169.7 1517.24 Q1166.96 1520.26 1166.96 1525.48 L1166.96 1545.63 L1161.08 1545.63 L1161.08 1496.1 L1166.96 1496.1 L1166.96 1515.52 Q1169.06 1512.3 1171.9 1510.71 Q1174.76 1509.12 1178.49 1509.12 Q1184.63 1509.12 1187.78 1512.94 Q1190.93 1516.73 1190.93 1524.11 Z" fill="#000000" fill-rule="evenodd" fill-opacity="1" /><path clip-path="url(#clip330)" d="M1223.27 1515.45 Q1222.28 1514.88 1221.1 1514.63 Q1219.96 1514.34 1218.56 1514.34 Q1213.59 1514.34 1210.92 1517.59 Q1208.28 1520.8 1208.28 1526.85 L1208.28 1545.63 L1202.39 1545.63 L1202.39 1509.98 L1208.28 1509.98 L1208.28 1515.52 Q1210.12 1512.27 1213.08 1510.71 Q1216.04 1509.12 1220.28 1509.12 Q1220.88 1509.12 1221.61 1509.22 Q1222.35 1509.28 1223.24 1509.44 L1223.27 1515.45 Z" fill="#000000" fill-rule="evenodd" fill-opacity="1" /><path clip-path="url(#clip330)" d="M1243.1 1496.1 L1243.1 1554.22 L1229.6 1554.22 L1229.6 1549.67 L1237.21 1549.67 L1237.21 1500.65 L1229.6 1500.65 L1229.6 1496.1 L1243.1 1496.1 Z" fill="#000000" fill-rule="evenodd" fill-opacity="1" /><polyline clip-path="url(#clip332)" style="stroke:#000000; stroke-linecap:butt; stroke-linejoin:round; stroke-width:2; stroke-opacity:0.1; fill:none" points="
  239.629,1406.76 1952.76,1406.76 
  "/>
<polyline clip-path="url(#clip332)" style="stroke:#000000; stroke-linecap:butt; stroke-linejoin:round; stroke-width:2; stroke-opacity:0.1; fill:none" points="
  239.629,1117.86 1952.76,1117.86 
  "/>
<polyline clip-path="url(#clip332)" style="stroke:#000000; stroke-linecap:butt; stroke-linejoin:round; stroke-width:2; stroke-opacity:0.1; fill:none" points="
  239.629,828.948 1952.76,828.948 
  "/>
<polyline clip-path="url(#clip332)" style="stroke:#000000; stroke-linecap:butt; stroke-linejoin:round; stroke-width:2; stroke-opacity:0.1; fill:none" points="
  239.629,540.039 1952.76,540.039 
  "/>
<polyline clip-path="url(#clip332)" style="stroke:#000000; stroke-linecap:butt; stroke-linejoin:round; stroke-width:2; stroke-opacity:0.1; fill:none" points="
  239.629,251.131 1952.76,251.131 
  "/>
<polyline clip-path="url(#clip330)" style="stroke:#000000; stroke-linecap:butt; stroke-linejoin:round; stroke-width:4; stroke-opacity:1; fill:none" points="
  239.629,1406.76 239.629,135.568 
  "/>
<polyline clip-path="url(#clip330)" style="stroke:#000000; stroke-linecap:butt; stroke-linejoin:round; stroke-width:4; stroke-opacity:1; fill:none" points="
  239.629,1406.76 258.527,1406.76 
  "/>
<polyline clip-path="url(#clip330)" style="stroke:#000000; stroke-linecap:butt; stroke-linejoin:round; stroke-width:4; stroke-opacity:1; fill:none" points="
  239.629,1117.86 258.527,1117.86 
  "/>
<polyline clip-path="url(#clip330)" style="stroke:#000000; stroke-linecap:butt; stroke-linejoin:round; stroke-width:4; stroke-opacity:1; fill:none" points="
  239.629,828.948 258.527,828.948 
  "/>
<polyline clip-path="url(#clip330)" style="stroke:#000000; stroke-linecap:butt; stroke-linejoin:round; stroke-width:4; stroke-opacity:1; fill:none" points="
  239.629,540.039 258.527,540.039 
  "/>
<polyline clip-path="url(#clip330)" style="stroke:#000000; stroke-linecap:butt; stroke-linejoin:round; stroke-width:4; stroke-opacity:1; fill:none" points="
  239.629,251.131 258.527,251.131 
  "/>
<path clip-path="url(#clip330)" d="M197.685 1392.56 Q194.074 1392.56 192.245 1396.13 Q190.44 1399.67 190.44 1406.8 Q190.44 1413.91 192.245 1417.47 Q194.074 1421.01 197.685 1421.01 Q201.319 1421.01 203.125 1417.47 Q204.954 1413.91 204.954 1406.8 Q204.954 1399.67 203.125 1396.13 Q201.319 1392.56 197.685 1392.56 M197.685 1388.86 Q203.495 1388.86 206.551 1393.47 Q209.629 1398.05 209.629 1406.8 Q209.629 1415.53 206.551 1420.13 Q203.495 1424.72 197.685 1424.72 Q191.875 1424.72 188.796 1420.13 Q185.741 1415.53 185.741 1406.8 Q185.741 1398.05 188.796 1393.47 Q191.875 1388.86 197.685 1388.86 Z" fill="#000000" fill-rule="evenodd" fill-opacity="1" /><path clip-path="url(#clip330)" d="M157.57 1100.58 L175.926 1100.58 L175.926 1104.51 L161.852 1104.51 L161.852 1112.98 Q162.87 1112.64 163.889 1112.47 Q164.907 1112.29 165.926 1112.29 Q171.713 1112.29 175.093 1115.46 Q178.472 1118.63 178.472 1124.05 Q178.472 1129.63 175 1132.73 Q171.528 1135.81 165.208 1135.81 Q163.032 1135.81 160.764 1135.44 Q158.519 1135.07 156.111 1134.33 L156.111 1129.63 Q158.195 1130.76 160.417 1131.32 Q162.639 1131.87 165.116 1131.87 Q169.12 1131.87 171.458 1129.77 Q173.796 1127.66 173.796 1124.05 Q173.796 1120.44 171.458 1118.33 Q169.12 1116.22 165.116 1116.22 Q163.241 1116.22 161.366 1116.64 Q159.514 1117.06 157.57 1117.94 L157.57 1100.58 Z" fill="#000000" fill-rule="evenodd" fill-opacity="1" /><path clip-path="url(#clip330)" d="M197.685 1103.65 Q194.074 1103.65 192.245 1107.22 Q190.44 1110.76 190.44 1117.89 Q190.44 1125 192.245 1128.56 Q194.074 1132.1 197.685 1132.1 Q201.319 1132.1 203.125 1128.56 Q204.954 1125 204.954 1117.89 Q204.954 1110.76 203.125 1107.22 Q201.319 1103.65 197.685 1103.65 M197.685 1099.95 Q203.495 1099.95 206.551 1104.56 Q209.629 1109.14 209.629 1117.89 Q209.629 1126.62 206.551 1131.22 Q203.495 1135.81 197.685 1135.81 Q191.875 1135.81 188.796 1131.22 Q185.741 1126.62 185.741 1117.89 Q185.741 1109.14 188.796 1104.56 Q191.875 1099.95 197.685 1099.95 Z" fill="#000000" fill-rule="evenodd" fill-opacity="1" /><path clip-path="url(#clip330)" d="M128.172 842.292 L135.81 842.292 L135.81 815.927 L127.5 817.594 L127.5 813.334 L135.764 811.668 L140.44 811.668 L140.44 842.292 L148.079 842.292 L148.079 846.228 L128.172 846.228 L128.172 842.292 Z" fill="#000000" fill-rule="evenodd" fill-opacity="1" /><path clip-path="url(#clip330)" d="M167.523 814.746 Q163.912 814.746 162.083 818.311 Q160.278 821.853 160.278 828.982 Q160.278 836.089 162.083 839.654 Q163.912 843.195 167.523 843.195 Q171.157 843.195 172.963 839.654 Q174.792 836.089 174.792 828.982 Q174.792 821.853 172.963 818.311 Q171.157 814.746 167.523 814.746 M167.523 811.043 Q173.333 811.043 176.389 815.649 Q179.468 820.232 179.468 828.982 Q179.468 837.709 176.389 842.316 Q173.333 846.899 167.523 846.899 Q161.713 846.899 158.634 842.316 Q155.579 837.709 155.579 828.982 Q155.579 820.232 158.634 815.649 Q161.713 811.043 167.523 811.043 Z" fill="#000000" fill-rule="evenodd" fill-opacity="1" /><path clip-path="url(#clip330)" d="M197.685 814.746 Q194.074 814.746 192.245 818.311 Q190.44 821.853 190.44 828.982 Q190.44 836.089 192.245 839.654 Q194.074 843.195 197.685 843.195 Q201.319 843.195 203.125 839.654 Q204.954 836.089 204.954 828.982 Q204.954 821.853 203.125 818.311 Q201.319 814.746 197.685 814.746 M197.685 811.043 Q203.495 811.043 206.551 815.649 Q209.629 820.232 209.629 828.982 Q209.629 837.709 206.551 842.316 Q203.495 846.899 197.685 846.899 Q191.875 846.899 188.796 842.316 Q185.741 837.709 185.741 828.982 Q185.741 820.232 188.796 815.649 Q191.875 811.043 197.685 811.043 Z" fill="#000000" fill-rule="evenodd" fill-opacity="1" /><path clip-path="url(#clip330)" d="M128.172 553.384 L135.81 553.384 L135.81 527.019 L127.5 528.685 L127.5 524.426 L135.764 522.759 L140.44 522.759 L140.44 553.384 L148.079 553.384 L148.079 557.319 L128.172 557.319 L128.172 553.384 Z" fill="#000000" fill-rule="evenodd" fill-opacity="1" /><path clip-path="url(#clip330)" d="M157.57 522.759 L175.926 522.759 L175.926 526.695 L161.852 526.695 L161.852 535.167 Q162.87 534.82 163.889 534.658 Q164.907 534.472 165.926 534.472 Q171.713 534.472 175.093 537.644 Q178.472 540.815 178.472 546.232 Q178.472 551.81 175 554.912 Q171.528 557.991 165.208 557.991 Q163.032 557.991 160.764 557.62 Q158.519 557.25 156.111 556.509 L156.111 551.81 Q158.195 552.945 160.417 553.5 Q162.639 554.056 165.116 554.056 Q169.12 554.056 171.458 551.949 Q173.796 549.843 173.796 546.232 Q173.796 542.62 171.458 540.514 Q169.12 538.408 165.116 538.408 Q163.241 538.408 161.366 538.824 Q159.514 539.241 157.57 540.121 L157.57 522.759 Z" fill="#000000" fill-rule="evenodd" fill-opacity="1" /><path clip-path="url(#clip330)" d="M197.685 525.838 Q194.074 525.838 192.245 529.403 Q190.44 532.945 190.44 540.074 Q190.44 547.181 192.245 550.745 Q194.074 554.287 197.685 554.287 Q201.319 554.287 203.125 550.745 Q204.954 547.181 204.954 540.074 Q204.954 532.945 203.125 529.403 Q201.319 525.838 197.685 525.838 M197.685 522.134 Q203.495 522.134 206.551 526.741 Q209.629 531.324 209.629 540.074 Q209.629 548.801 206.551 553.407 Q203.495 557.991 197.685 557.991 Q191.875 557.991 188.796 553.407 Q185.741 548.801 185.741 540.074 Q185.741 531.324 188.796 526.741 Q191.875 522.134 197.685 522.134 Z" fill="#000000" fill-rule="evenodd" fill-opacity="1" /><path clip-path="url(#clip330)" d="M131.389 264.476 L147.708 264.476 L147.708 268.411 L125.764 268.411 L125.764 264.476 Q128.426 261.722 133.009 257.092 Q137.616 252.439 138.796 251.097 Q141.042 248.574 141.921 246.837 Q142.824 245.078 142.824 243.388 Q142.824 240.634 140.88 238.898 Q138.959 237.162 135.857 237.162 Q133.658 237.162 131.204 237.925 Q128.773 238.689 125.996 240.24 L125.996 235.518 Q128.82 234.384 131.273 233.805 Q133.727 233.226 135.764 233.226 Q141.134 233.226 144.329 235.912 Q147.523 238.597 147.523 243.087 Q147.523 245.217 146.713 247.138 Q145.926 249.036 143.82 251.629 Q143.241 252.3 140.139 255.518 Q137.037 258.712 131.389 264.476 Z" fill="#000000" fill-rule="evenodd" fill-opacity="1" /><path clip-path="url(#clip330)" d="M167.523 236.93 Q163.912 236.93 162.083 240.495 Q160.278 244.037 160.278 251.166 Q160.278 258.273 162.083 261.837 Q163.912 265.379 167.523 265.379 Q171.157 265.379 172.963 261.837 Q174.792 258.273 174.792 251.166 Q174.792 244.037 172.963 240.495 Q171.157 236.93 167.523 236.93 M167.523 233.226 Q173.333 233.226 176.389 237.833 Q179.468 242.416 179.468 251.166 Q179.468 259.893 176.389 264.499 Q173.333 269.083 167.523 269.083 Q161.713 269.083 158.634 264.499 Q155.579 259.893 155.579 251.166 Q155.579 242.416 158.634 237.833 Q161.713 233.226 167.523 233.226 Z" fill="#000000" fill-rule="evenodd" fill-opacity="1" /><path clip-path="url(#clip330)" d="M197.685 236.93 Q194.074 236.93 192.245 240.495 Q190.44 244.037 190.44 251.166 Q190.44 258.273 192.245 261.837 Q194.074 265.379 197.685 265.379 Q201.319 265.379 203.125 261.837 Q204.954 258.273 204.954 251.166 Q204.954 244.037 203.125 240.495 Q201.319 236.93 197.685 236.93 M197.685 233.226 Q203.495 233.226 206.551 237.833 Q209.629 242.416 209.629 251.166 Q209.629 259.893 206.551 264.499 Q203.495 269.083 197.685 269.083 Q191.875 269.083 188.796 264.499 Q185.741 259.893 185.741 251.166 Q185.741 242.416 188.796 237.833 Q191.875 233.226 197.685 233.226 Z" fill="#000000" fill-rule="evenodd" fill-opacity="1" /><path clip-path="url(#clip330)" d="M33.9882 950.822 L33.9882 944.393 L53.4672 944.393 L53.4672 921.031 L33.9882 921.031 L33.9882 914.601 L81.5082 914.601 L81.5082 921.031 L58.8781 921.031 L58.8781 944.393 L81.5082 944.393 L81.5082 950.822 L33.9882 950.822 Z" fill="#000000" fill-rule="evenodd" fill-opacity="1" /><path clip-path="url(#clip330)" d="M62.2201 871.569 L65.0846 871.569 L65.0846 898.496 Q71.1321 898.114 74.3149 894.868 Q77.4659 891.589 77.4659 885.765 Q77.4659 882.391 76.6384 879.24 Q75.8109 876.057 74.1558 872.938 L79.6939 872.938 Q81.0307 876.089 81.731 879.399 Q82.4312 882.709 82.4312 886.115 Q82.4312 894.645 77.4659 899.642 Q72.5007 904.607 64.0343 904.607 Q55.2814 904.607 50.1571 899.896 Q45.0008 895.154 45.0008 887.133 Q45.0008 879.94 49.6478 875.77 Q54.2629 871.569 62.2201 871.569 M60.5013 877.426 Q55.6952 877.489 52.8306 880.131 Q49.9661 882.741 49.9661 887.07 Q49.9661 891.971 52.7352 894.931 Q55.5042 897.859 60.5332 898.305 L60.5013 877.426 Z" fill="#000000" fill-rule="evenodd" fill-opacity="1" /><path clip-path="url(#clip330)" d="M45.8602 861.957 L45.8602 856.1 L81.5082 856.1 L81.5082 861.957 L45.8602 861.957 M31.983 861.957 L31.983 856.1 L39.399 856.1 L39.399 861.957 L31.983 861.957 Z" fill="#000000" fill-rule="evenodd" fill-opacity="1" /><path clip-path="url(#clip330)" d="M63.2704 820.389 Q56.9047 820.389 53.4036 823.031 Q49.9024 825.641 49.9024 830.383 Q49.9024 835.094 53.4036 837.735 Q56.9047 840.345 63.2704 840.345 Q69.6043 840.345 73.1054 837.735 Q76.6066 835.094 76.6066 830.383 Q76.6066 825.641 73.1054 823.031 Q69.6043 820.389 63.2704 820.389 M77.084 814.532 Q86.187 814.532 90.6111 818.575 Q95.0671 822.617 95.0671 830.956 Q95.0671 834.043 94.5897 836.781 Q94.1441 839.518 93.1892 842.096 L87.4919 842.096 Q88.8924 839.518 89.5608 837.003 Q90.2292 834.489 90.2292 831.879 Q90.2292 826.118 87.2055 823.253 Q84.2136 820.389 78.1343 820.389 L75.2379 820.389 Q78.389 822.203 79.9486 825.036 Q81.5082 827.869 81.5082 831.815 Q81.5082 838.372 76.5111 842.382 Q71.514 846.393 63.2704 846.393 Q54.995 846.393 49.9979 842.382 Q45.0008 838.372 45.0008 831.815 Q45.0008 827.869 46.5604 825.036 Q48.12 822.203 51.2711 820.389 L45.8602 820.389 L45.8602 814.532 L77.084 814.532 Z" fill="#000000" fill-rule="evenodd" fill-opacity="1" /><path clip-path="url(#clip330)" d="M59.9921 772.837 L81.5082 772.837 L81.5082 778.693 L60.183 778.693 Q55.1223 778.693 52.6078 780.667 Q50.0934 782.64 50.0934 786.587 Q50.0934 791.329 53.1171 794.067 Q56.1408 796.804 61.3607 796.804 L81.5082 796.804 L81.5082 802.692 L31.983 802.692 L31.983 796.804 L51.3984 796.804 Q48.1837 794.703 46.5923 791.87 Q45.0008 789.006 45.0008 785.282 Q45.0008 779.139 48.8203 775.988 Q52.6078 772.837 59.9921 772.837 Z" fill="#000000" fill-rule="evenodd" fill-opacity="1" /><path clip-path="url(#clip330)" d="M35.7387 755.363 L45.8602 755.363 L45.8602 743.3 L50.4117 743.3 L50.4117 755.363 L69.7634 755.363 Q74.1239 755.363 75.3653 754.185 Q76.6066 752.976 76.6066 749.316 L76.6066 743.3 L81.5082 743.3 L81.5082 749.316 Q81.5082 756.095 78.9937 758.673 Q76.4474 761.251 69.7634 761.251 L50.4117 761.251 L50.4117 765.548 L45.8602 765.548 L45.8602 761.251 L35.7387 761.251 L35.7387 755.363 Z" fill="#000000" fill-rule="evenodd" fill-opacity="1" /><path clip-path="url(#clip330)" d="M31.983 736.139 L31.983 722.643 L36.5344 722.643 L36.5344 730.282 L85.5504 730.282 L85.5504 722.643 L90.1019 722.643 L90.1019 736.139 L31.983 736.139 Z" fill="#000000" fill-rule="evenodd" fill-opacity="1" /><path clip-path="url(#clip330)" d="M95.0671 710.771 L45.8602 710.771 L45.8602 704.915 L68.0129 704.915 Q72.628 704.915 74.9833 702.719 Q77.3386 700.523 77.3386 696.226 Q77.3386 691.515 74.665 689.16 Q71.9914 686.773 66.6442 686.773 L45.8602 686.773 L45.8602 680.916 L73.2964 680.916 Q75.2061 680.916 76.1291 680.375 Q77.0203 679.802 77.0203 678.625 Q77.0203 678.338 76.8612 677.829 Q76.6702 677.32 76.2883 676.428 L80.9989 676.428 Q81.731 677.733 82.0811 678.911 Q82.4312 680.057 82.4312 681.171 Q82.4312 683.367 81.1899 684.672 Q79.9486 685.977 77.4023 686.454 Q79.9167 688.046 81.1899 690.369 Q82.4312 692.661 82.4312 695.78 Q82.4312 699.027 81.1899 701.318 Q79.9486 703.578 77.4659 704.915 L95.0671 704.915 L95.0671 710.771 Z" fill="#000000" fill-rule="evenodd" fill-opacity="1" /><path clip-path="url(#clip330)" d="M52.7033 640.94 Q48.7566 638.743 46.8787 635.688 Q45.0008 632.632 45.0008 628.495 Q45.0008 622.925 48.9157 619.901 Q52.7988 616.877 59.9921 616.877 L81.5082 616.877 L81.5082 622.765 L60.183 622.765 Q55.0586 622.765 52.576 624.58 Q50.0934 626.394 50.0934 630.118 Q50.0934 634.669 53.1171 637.311 Q56.1408 639.953 61.3607 639.953 L81.5082 639.953 L81.5082 645.841 L60.183 645.841 Q55.0268 645.841 52.576 647.655 Q50.0934 649.47 50.0934 653.257 Q50.0934 657.745 53.1489 660.387 Q56.1726 663.029 61.3607 663.029 L81.5082 663.029 L81.5082 668.917 L45.8602 668.917 L45.8602 663.029 L51.3984 663.029 Q48.12 661.023 46.5604 658.222 Q45.0008 655.422 45.0008 651.57 Q45.0008 647.687 46.9742 644.982 Q48.9476 642.245 52.7033 640.94 Z" fill="#000000" fill-rule="evenodd" fill-opacity="1" /><path clip-path="url(#clip330)" d="M31.983 591.51 L90.1019 591.51 L90.1019 605.005 L85.5504 605.005 L85.5504 597.398 L36.5344 597.398 L36.5344 605.005 L31.983 605.005 L31.983 591.51 Z" fill="#000000" fill-rule="evenodd" fill-opacity="1" /><path clip-path="url(#clip330)" d="M869.018 12.096 L907.259 12.096 L907.259 18.9825 L877.201 18.9825 L877.201 36.8875 L906.003 36.8875 L906.003 43.7741 L877.201 43.7741 L877.201 65.6895 L907.988 65.6895 L907.988 72.576 L869.018 72.576 L869.018 12.096 Z" fill="#000000" fill-rule="evenodd" fill-opacity="1" /><path clip-path="url(#clip330)" d="M941.732 49.7694 Q932.698 49.7694 929.214 51.8354 Q925.731 53.9013 925.731 58.8839 Q925.731 62.8538 928.323 65.2034 Q930.956 67.5124 935.453 67.5124 Q941.651 67.5124 945.378 63.1374 Q949.145 58.7219 949.145 51.4303 L949.145 49.7694 L941.732 49.7694 M956.599 46.6907 L956.599 72.576 L949.145 72.576 L949.145 65.6895 Q946.593 69.8214 942.785 71.8063 Q938.977 73.7508 933.468 73.7508 Q926.5 73.7508 922.368 69.8619 Q918.277 65.9325 918.277 59.3701 Q918.277 51.7138 923.381 47.825 Q928.526 43.9361 938.694 43.9361 L949.145 43.9361 L949.145 43.2069 Q949.145 38.0623 945.742 35.2672 Q942.38 32.4315 936.263 32.4315 Q932.374 32.4315 928.688 33.3632 Q925.001 34.295 921.599 36.1584 L921.599 29.2718 Q925.69 27.692 929.538 26.9223 Q933.387 26.1121 937.033 26.1121 Q946.876 26.1121 951.737 31.2163 Q956.599 36.3204 956.599 46.6907 Z" fill="#000000" fill-rule="evenodd" fill-opacity="1" /><path clip-path="url(#clip330)" d="M998.242 34.1734 Q996.986 33.4443 995.487 33.1202 Q994.029 32.7556 992.246 32.7556 Q985.927 32.7556 982.524 36.8875 Q979.162 40.9789 979.162 48.6757 L979.162 72.576 L971.668 72.576 L971.668 27.2059 L979.162 27.2059 L979.162 34.2544 Q981.512 30.1225 985.279 28.1376 Q989.046 26.1121 994.434 26.1121 Q995.204 26.1121 996.135 26.2337 Q997.067 26.3147 998.201 26.5172 L998.242 34.1734 Z" fill="#000000" fill-rule="evenodd" fill-opacity="1" /><path clip-path="url(#clip330)" d="M1006.06 9.54393 L1013.51 9.54393 L1013.51 72.576 L1006.06 72.576 L1006.06 9.54393 Z" fill="#000000" fill-rule="evenodd" fill-opacity="1" /><path clip-path="url(#clip330)" d="M1047.99 76.7889 Q1044.83 84.8907 1041.83 87.3618 Q1038.83 89.8329 1033.81 89.8329 L1027.85 89.8329 L1027.85 83.5945 L1032.23 83.5945 Q1035.31 83.5945 1037.01 82.1361 Q1038.71 80.6778 1040.78 75.2496 L1042.11 71.8468 L1023.76 27.2059 L1031.66 27.2059 L1045.84 62.6918 L1060.02 27.2059 L1067.92 27.2059 L1047.99 76.7889 Z" fill="#000000" fill-rule="evenodd" fill-opacity="1" /><path clip-path="url(#clip330)" d="M1111.95 14.324 L1111.95 27.2059 L1127.3 27.2059 L1127.3 32.9987 L1111.95 32.9987 L1111.95 57.6282 Q1111.95 63.1779 1113.45 64.7578 Q1114.99 66.3376 1119.65 66.3376 L1127.3 66.3376 L1127.3 72.576 L1119.65 72.576 Q1111.02 72.576 1107.74 69.3758 Q1104.46 66.1351 1104.46 57.6282 L1104.46 32.9987 L1098.99 32.9987 L1098.99 27.2059 L1104.46 27.2059 L1104.46 14.324 L1111.95 14.324 Z" fill="#000000" fill-rule="evenodd" fill-opacity="1" /><path clip-path="url(#clip330)" d="M1137.11 27.2059 L1144.56 27.2059 L1144.56 72.576 L1137.11 72.576 L1137.11 27.2059 M1137.11 9.54393 L1144.56 9.54393 L1144.56 18.9825 L1137.11 18.9825 L1137.11 9.54393 Z" fill="#000000" fill-rule="evenodd" fill-opacity="1" /><path clip-path="url(#clip330)" d="M1195.48 35.9153 Q1198.28 30.8922 1202.16 28.5022 Q1206.05 26.1121 1211.32 26.1121 Q1218.41 26.1121 1222.26 31.0947 Q1226.11 36.0368 1226.11 45.1919 L1226.11 72.576 L1218.61 72.576 L1218.61 45.4349 Q1218.61 38.913 1216.3 35.7533 Q1213.99 32.5936 1209.25 32.5936 Q1203.46 32.5936 1200.1 36.4419 Q1196.74 40.2903 1196.74 46.9338 L1196.74 72.576 L1189.24 72.576 L1189.24 45.4349 Q1189.24 38.8725 1186.93 35.7533 Q1184.62 32.5936 1179.8 32.5936 Q1174.09 32.5936 1170.73 36.4824 Q1167.37 40.3308 1167.37 46.9338 L1167.37 72.576 L1159.87 72.576 L1159.87 27.2059 L1167.37 27.2059 L1167.37 34.2544 Q1169.92 30.082 1173.48 28.0971 Q1177.05 26.1121 1181.95 26.1121 Q1186.89 26.1121 1190.34 28.6237 Q1193.82 31.1352 1195.48 35.9153 Z" fill="#000000" fill-rule="evenodd" fill-opacity="1" /><path clip-path="url(#clip330)" d="M1279.78 48.0275 L1279.78 51.6733 L1245.51 51.6733 Q1246 59.3701 1250.13 63.421 Q1254.3 67.4314 1261.71 67.4314 Q1266.01 67.4314 1270.02 66.3781 Q1274.07 65.3249 1278.04 63.2184 L1278.04 70.267 Q1274.03 71.9684 1269.81 72.8596 Q1265.6 73.7508 1261.27 73.7508 Q1250.41 73.7508 1244.05 67.4314 Q1237.73 61.1119 1237.73 50.3365 Q1237.73 39.1965 1243.73 32.6746 Q1249.76 26.1121 1259.97 26.1121 Q1269.13 26.1121 1274.43 32.0264 Q1279.78 37.9003 1279.78 48.0275 M1272.33 45.84 Q1272.24 39.7232 1268.88 36.0774 Q1265.56 32.4315 1260.05 32.4315 Q1253.81 32.4315 1250.05 35.9558 Q1246.32 39.4801 1245.75 45.8805 L1272.33 45.84 Z" fill="#000000" fill-rule="evenodd" fill-opacity="1" /><path clip-path="url(#clip330)" d="M1320.94 28.5427 L1320.94 35.5912 Q1317.78 33.9709 1314.37 33.1607 Q1310.97 32.3505 1307.33 32.3505 Q1301.78 32.3505 1298.98 34.0519 Q1296.23 35.7533 1296.23 39.156 Q1296.23 41.7486 1298.21 43.2475 Q1300.2 44.7058 1306.19 46.0426 L1308.74 46.6097 Q1316.68 48.3111 1320.01 51.4303 Q1323.37 54.509 1323.37 60.0587 Q1323.37 66.3781 1318.34 70.0644 Q1313.36 73.7508 1304.61 73.7508 Q1300.97 73.7508 1297 73.0216 Q1293.07 72.3329 1288.69 70.9151 L1288.69 63.2184 Q1292.82 65.3654 1296.83 66.4591 Q1300.84 67.5124 1304.77 67.5124 Q1310.04 67.5124 1312.88 65.73 Q1315.71 63.9071 1315.71 60.6258 Q1315.71 57.5877 1313.65 55.9673 Q1311.62 54.3469 1304.69 52.8481 L1302.1 52.2405 Q1295.17 50.7821 1292.09 47.7845 Q1289.02 44.7463 1289.02 39.4801 Q1289.02 33.0797 1293.55 29.5959 Q1298.09 26.1121 1306.43 26.1121 Q1310.57 26.1121 1314.21 26.7198 Q1317.86 27.3274 1320.94 28.5427 Z" fill="#000000" fill-rule="evenodd" fill-opacity="1" /><circle clip-path="url(#clip332)" cx="272.126" cy="1404.9" r="14" fill="#000000" fill-rule="evenodd" fill-opacity="0.2" stroke="none"/>
<circle clip-path="url(#clip332)" cx="283.429" cy="1405.24" r="14" fill="#000000" fill-rule="evenodd" fill-opacity="0.2" stroke="none"/>
<circle clip-path="url(#clip332)" cx="294.732" cy="1404.18" r="14" fill="#000000" fill-rule="evenodd" fill-opacity="0.2" stroke="none"/>
<circle clip-path="url(#clip332)" cx="306.388" cy="1402.43" r="14" fill="#000000" fill-rule="evenodd" fill-opacity="0.2" stroke="none"/>
<circle clip-path="url(#clip332)" cx="317.691" cy="1404.65" r="14" fill="#000000" fill-rule="evenodd" fill-opacity="0.2" stroke="none"/>
<circle clip-path="url(#clip332)" cx="329.348" cy="1405.1" r="14" fill="#000000" fill-rule="evenodd" fill-opacity="0.2" stroke="none"/>
<circle clip-path="url(#clip332)" cx="351.954" cy="1406.6" r="14" fill="#000000" fill-rule="evenodd" fill-opacity="0.2" stroke="none"/>
<circle clip-path="url(#clip332)" cx="363.61" cy="1401.85" r="14" fill="#000000" fill-rule="evenodd" fill-opacity="0.2" stroke="none"/>
<circle clip-path="url(#clip332)" cx="374.913" cy="1399.59" r="14" fill="#000000" fill-rule="evenodd" fill-opacity="0.2" stroke="none"/>
<circle clip-path="url(#clip332)" cx="386.57" cy="1397.21" r="14" fill="#000000" fill-rule="evenodd" fill-opacity="0.2" stroke="none"/>
<circle clip-path="url(#clip332)" cx="397.873" cy="1386.93" r="14" fill="#000000" fill-rule="evenodd" fill-opacity="0.2" stroke="none"/>
<circle clip-path="url(#clip332)" cx="409.529" cy="1390.12" r="14" fill="#000000" fill-rule="evenodd" fill-opacity="0.2" stroke="none"/>
<circle clip-path="url(#clip332)" cx="420.832" cy="1384.12" r="14" fill="#000000" fill-rule="evenodd" fill-opacity="0.2" stroke="none"/>
<circle clip-path="url(#clip332)" cx="432.135" cy="1374.62" r="14" fill="#000000" fill-rule="evenodd" fill-opacity="0.2" stroke="none"/>
<circle clip-path="url(#clip332)" cx="443.792" cy="1368.4" r="14" fill="#000000" fill-rule="evenodd" fill-opacity="0.2" stroke="none"/>
<circle clip-path="url(#clip332)" cx="459.334" cy="1356.13" r="14" fill="#000000" fill-rule="evenodd" fill-opacity="0.2" stroke="none"/>
<circle clip-path="url(#clip332)" cx="470.637" cy="1337.92" r="14" fill="#000000" fill-rule="evenodd" fill-opacity="0.2" stroke="none"/>
<circle clip-path="url(#clip332)" cx="481.94" cy="1318.32" r="14" fill="#000000" fill-rule="evenodd" fill-opacity="0.2" stroke="none"/>
<circle clip-path="url(#clip332)" cx="493.243" cy="1300.65" r="14" fill="#000000" fill-rule="evenodd" fill-opacity="0.2" stroke="none"/>
<circle clip-path="url(#clip332)" cx="504.546" cy="1280.05" r="14" fill="#000000" fill-rule="evenodd" fill-opacity="0.2" stroke="none"/>
<circle clip-path="url(#clip332)" cx="515.849" cy="1255.6" r="14" fill="#000000" fill-rule="evenodd" fill-opacity="0.2" stroke="none"/>
<circle clip-path="url(#clip332)" cx="527.505" cy="1227.73" r="14" fill="#000000" fill-rule="evenodd" fill-opacity="0.2" stroke="none"/>
<circle clip-path="url(#clip332)" cx="538.808" cy="1203.17" r="14" fill="#000000" fill-rule="evenodd" fill-opacity="0.2" stroke="none"/>
<circle clip-path="url(#clip332)" cx="550.112" cy="1176.99" r="14" fill="#000000" fill-rule="evenodd" fill-opacity="0.2" stroke="none"/>
<circle clip-path="url(#clip332)" cx="561.415" cy="1162.13" r="14" fill="#000000" fill-rule="evenodd" fill-opacity="0.2" stroke="none"/>
<circle clip-path="url(#clip332)" cx="572.718" cy="1142.72" r="14" fill="#000000" fill-rule="evenodd" fill-opacity="0.2" stroke="none"/>
<circle clip-path="url(#clip332)" cx="584.021" cy="1118.95" r="14" fill="#000000" fill-rule="evenodd" fill-opacity="0.2" stroke="none"/>
<circle clip-path="url(#clip332)" cx="595.324" cy="1104.61" r="14" fill="#000000" fill-rule="evenodd" fill-opacity="0.2" stroke="none"/>
<circle clip-path="url(#clip332)" cx="608.393" cy="1086.41" r="14" fill="#000000" fill-rule="evenodd" fill-opacity="0.2" stroke="none"/>
<circle clip-path="url(#clip332)" cx="275.658" cy="1406.56" r="14" fill="#000000" fill-rule="evenodd" fill-opacity="0.2" stroke="none"/>
<circle clip-path="url(#clip332)" cx="287.314" cy="1405.71" r="14" fill="#000000" fill-rule="evenodd" fill-opacity="0.2" stroke="none"/>
<circle clip-path="url(#clip332)" cx="298.618" cy="1404.46" r="14" fill="#000000" fill-rule="evenodd" fill-opacity="0.2" stroke="none"/>
<circle clip-path="url(#clip332)" cx="310.274" cy="1404.11" r="14" fill="#000000" fill-rule="evenodd" fill-opacity="0.2" stroke="none"/>
<circle clip-path="url(#clip332)" cx="321.577" cy="1403.18" r="14" fill="#000000" fill-rule="evenodd" fill-opacity="0.2" stroke="none"/>
<circle clip-path="url(#clip332)" cx="332.88" cy="1401.7" r="14" fill="#000000" fill-rule="evenodd" fill-opacity="0.2" stroke="none"/>
<circle clip-path="url(#clip332)" cx="344.536" cy="1401.27" r="14" fill="#000000" fill-rule="evenodd" fill-opacity="0.2" stroke="none"/>
<circle clip-path="url(#clip332)" cx="355.839" cy="1402.22" r="14" fill="#000000" fill-rule="evenodd" fill-opacity="0.2" stroke="none"/>
<circle clip-path="url(#clip332)" cx="367.496" cy="1394.55" r="14" fill="#000000" fill-rule="evenodd" fill-opacity="0.2" stroke="none"/>
<circle clip-path="url(#clip332)" cx="378.799" cy="1394.85" r="14" fill="#000000" fill-rule="evenodd" fill-opacity="0.2" stroke="none"/>
<circle clip-path="url(#clip332)" cx="390.102" cy="1392.88" r="14" fill="#000000" fill-rule="evenodd" fill-opacity="0.2" stroke="none"/>
<circle clip-path="url(#clip332)" cx="401.758" cy="1390.79" r="14" fill="#000000" fill-rule="evenodd" fill-opacity="0.2" stroke="none"/>
<circle clip-path="url(#clip332)" cx="413.061" cy="1388.87" r="14" fill="#000000" fill-rule="evenodd" fill-opacity="0.2" stroke="none"/>
<circle clip-path="url(#clip332)" cx="424.718" cy="1382.27" r="14" fill="#000000" fill-rule="evenodd" fill-opacity="0.2" stroke="none"/>
<circle clip-path="url(#clip332)" cx="436.021" cy="1363.87" r="14" fill="#000000" fill-rule="evenodd" fill-opacity="0.2" stroke="none"/>
<circle clip-path="url(#clip332)" cx="447.324" cy="1355.71" r="14" fill="#000000" fill-rule="evenodd" fill-opacity="0.2" stroke="none"/>
<circle clip-path="url(#clip332)" cx="463.219" cy="1339.4" r="14" fill="#000000" fill-rule="evenodd" fill-opacity="0.2" stroke="none"/>
<circle clip-path="url(#clip332)" cx="474.522" cy="1327.07" r="14" fill="#000000" fill-rule="evenodd" fill-opacity="0.2" stroke="none"/>
<circle clip-path="url(#clip332)" cx="485.825" cy="1311.97" r="14" fill="#000000" fill-rule="evenodd" fill-opacity="0.2" stroke="none"/>
<circle clip-path="url(#clip332)" cx="497.128" cy="1303.31" r="14" fill="#000000" fill-rule="evenodd" fill-opacity="0.2" stroke="none"/>
<circle clip-path="url(#clip332)" cx="508.431" cy="1270.47" r="14" fill="#000000" fill-rule="evenodd" fill-opacity="0.2" stroke="none"/>
<circle clip-path="url(#clip332)" cx="519.734" cy="1251.08" r="14" fill="#000000" fill-rule="evenodd" fill-opacity="0.2" stroke="none"/>
<circle clip-path="url(#clip332)" cx="531.038" cy="1222.29" r="14" fill="#000000" fill-rule="evenodd" fill-opacity="0.2" stroke="none"/>
<circle clip-path="url(#clip332)" cx="542.341" cy="1194.18" r="14" fill="#000000" fill-rule="evenodd" fill-opacity="0.2" stroke="none"/>
<circle clip-path="url(#clip332)" cx="553.644" cy="1181.73" r="14" fill="#000000" fill-rule="evenodd" fill-opacity="0.2" stroke="none"/>
<circle clip-path="url(#clip332)" cx="565.3" cy="1158.33" r="14" fill="#000000" fill-rule="evenodd" fill-opacity="0.2" stroke="none"/>
<circle clip-path="url(#clip332)" cx="576.603" cy="1140.52" r="14" fill="#000000" fill-rule="evenodd" fill-opacity="0.2" stroke="none"/>
<circle clip-path="url(#clip332)" cx="587.906" cy="1124.51" r="14" fill="#000000" fill-rule="evenodd" fill-opacity="0.2" stroke="none"/>
<circle clip-path="url(#clip332)" cx="599.209" cy="1108.26" r="14" fill="#000000" fill-rule="evenodd" fill-opacity="0.2" stroke="none"/>
<circle clip-path="url(#clip332)" cx="612.279" cy="1085.91" r="14" fill="#000000" fill-rule="evenodd" fill-opacity="0.2" stroke="none"/>
<circle clip-path="url(#clip332)" cx="291.2" cy="1404.37" r="14" fill="#000000" fill-rule="evenodd" fill-opacity="0.2" stroke="none"/>
<circle clip-path="url(#clip332)" cx="302.503" cy="1400.77" r="14" fill="#000000" fill-rule="evenodd" fill-opacity="0.2" stroke="none"/>
<circle clip-path="url(#clip332)" cx="325.462" cy="1405.38" r="14" fill="#000000" fill-rule="evenodd" fill-opacity="0.2" stroke="none"/>
<circle clip-path="url(#clip332)" cx="336.765" cy="1403.99" r="14" fill="#000000" fill-rule="evenodd" fill-opacity="0.2" stroke="none"/>
<circle clip-path="url(#clip332)" cx="382.684" cy="1403.77" r="14" fill="#000000" fill-rule="evenodd" fill-opacity="0.2" stroke="none"/>
<circle clip-path="url(#clip332)" cx="393.987" cy="1398.36" r="14" fill="#000000" fill-rule="evenodd" fill-opacity="0.2" stroke="none"/>
<circle clip-path="url(#clip332)" cx="405.644" cy="1381.57" r="14" fill="#000000" fill-rule="evenodd" fill-opacity="0.2" stroke="none"/>
<circle clip-path="url(#clip332)" cx="416.947" cy="1382.89" r="14" fill="#000000" fill-rule="evenodd" fill-opacity="0.2" stroke="none"/>
<circle clip-path="url(#clip332)" cx="428.603" cy="1375.15" r="14" fill="#000000" fill-rule="evenodd" fill-opacity="0.2" stroke="none"/>
<circle clip-path="url(#clip332)" cx="439.906" cy="1369.52" r="14" fill="#000000" fill-rule="evenodd" fill-opacity="0.2" stroke="none"/>
<circle clip-path="url(#clip332)" cx="451.209" cy="1360.13" r="14" fill="#000000" fill-rule="evenodd" fill-opacity="0.2" stroke="none"/>
<circle clip-path="url(#clip332)" cx="467.104" cy="1351.41" r="14" fill="#000000" fill-rule="evenodd" fill-opacity="0.2" stroke="none"/>
<circle clip-path="url(#clip332)" cx="478.407" cy="1335.98" r="14" fill="#000000" fill-rule="evenodd" fill-opacity="0.2" stroke="none"/>
<circle clip-path="url(#clip332)" cx="489.711" cy="1310.88" r="14" fill="#000000" fill-rule="evenodd" fill-opacity="0.2" stroke="none"/>
<circle clip-path="url(#clip332)" cx="501.014" cy="1287.31" r="14" fill="#000000" fill-rule="evenodd" fill-opacity="0.2" stroke="none"/>
<circle clip-path="url(#clip332)" cx="512.317" cy="1260.43" r="14" fill="#000000" fill-rule="evenodd" fill-opacity="0.2" stroke="none"/>
<circle clip-path="url(#clip332)" cx="523.62" cy="1240.24" r="14" fill="#000000" fill-rule="evenodd" fill-opacity="0.2" stroke="none"/>
<circle clip-path="url(#clip332)" cx="534.923" cy="1217.48" r="14" fill="#000000" fill-rule="evenodd" fill-opacity="0.2" stroke="none"/>
<circle clip-path="url(#clip332)" cx="546.226" cy="1199.47" r="14" fill="#000000" fill-rule="evenodd" fill-opacity="0.2" stroke="none"/>
<circle clip-path="url(#clip332)" cx="557.529" cy="1171.73" r="14" fill="#000000" fill-rule="evenodd" fill-opacity="0.2" stroke="none"/>
<circle clip-path="url(#clip332)" cx="568.832" cy="1147.18" r="14" fill="#000000" fill-rule="evenodd" fill-opacity="0.2" stroke="none"/>
<circle clip-path="url(#clip332)" cx="580.135" cy="1133.79" r="14" fill="#000000" fill-rule="evenodd" fill-opacity="0.2" stroke="none"/>
<circle clip-path="url(#clip332)" cx="591.439" cy="1124.4" r="14" fill="#000000" fill-rule="evenodd" fill-opacity="0.2" stroke="none"/>
<circle clip-path="url(#clip332)" cx="602.742" cy="1114.79" r="14" fill="#000000" fill-rule="evenodd" fill-opacity="0.2" stroke="none"/>
<circle clip-path="url(#clip332)" cx="615.811" cy="1093.43" r="14" fill="#000000" fill-rule="evenodd" fill-opacity="0.2" stroke="none"/>
<polyline clip-path="url(#clip332)" style="stroke:#0000ff; stroke-linecap:butt; stroke-linejoin:round; stroke-width:8; stroke-opacity:1; fill:none" points="
  257.291,1406.19 260.823,1406.14 264.355,1406.08 267.887,1406.02 271.419,1405.96 274.952,1405.89 278.484,1405.81 282.016,1405.73 285.548,1405.64 289.081,1405.54 
  292.613,1405.44 296.145,1405.32 299.677,1405.2 303.209,1405.06 306.742,1404.91 310.274,1404.75 313.806,1404.58 317.338,1404.39 320.87,1404.19 324.403,1403.97 
  327.935,1403.72 331.467,1403.46 334.999,1403.18 338.532,1402.87 342.064,1402.54 345.596,1402.17 349.128,1401.78 352.66,1401.35 356.193,1400.89 359.725,1400.39 
  363.257,1399.85 366.789,1399.26 370.322,1398.62 373.854,1397.93 377.386,1397.18 380.918,1396.37 384.45,1395.5 387.983,1394.55 391.515,1393.53 395.047,1392.43 
  398.579,1391.24 402.112,1389.95 405.644,1388.56 409.176,1387.07 412.708,1385.46 416.24,1383.73 419.773,1381.86 423.305,1379.86 426.837,1377.71 430.369,1375.41 
  433.902,1372.94 437.434,1370.3 440.966,1367.48 444.498,1364.47 448.03,1361.27 451.563,1357.85 455.095,1354.22 458.627,1350.38 462.159,1346.31 465.691,1342.01 
  469.224,1337.47 472.756,1332.7 476.288,1327.68 479.82,1322.43 483.353,1316.94 486.885,1311.23 490.417,1305.28 493.949,1299.12 497.481,1292.75 501.014,1286.19 
  504.546,1279.44 508.078,1272.54 511.61,1265.48 515.143,1258.3 518.675,1251.02 522.207,1243.67 525.739,1236.26 529.271,1228.83 532.804,1221.4 536.336,1213.99 
  539.868,1206.62 543.4,1199.33 546.933,1192.13 550.465,1185.06 553.997,1178.13 557.529,1171.36 561.061,1164.76 564.594,1158.36 568.126,1152.17 571.658,1146.19 
  575.19,1140.43 578.723,1134.9 582.255,1129.61 585.787,1124.55 589.319,1119.74 592.851,1115.16 596.384,1110.82 599.916,1106.71 603.448,1102.82 606.98,1099.16 
  610.512,1095.7 614.045,1092.45 617.577,1089.4 621.109,1086.54 624.641,1083.86 628.174,1081.36 631.706,1079.04 635.238,1076.87 638.77,1074.86 642.302,1072.98 
  645.835,1071.24 649.367,1069.62 652.899,1068.12 656.431,1066.71 659.964,1065.4 663.496,1064.19 667.028,1063.07 670.56,1062.03 674.092,1061.07 677.625,1060.18 
  681.157,1059.36 684.689,1058.61 688.221,1057.91 691.754,1057.27 695.286,1056.68 698.818,1056.13 702.35,1055.63 705.882,1055.15 709.415,1054.72 712.947,1054.32 
  716.479,1053.94 720.011,1053.6 723.544,1053.29 727.076,1053 730.608,1052.73 734.14,1052.49 737.672,1052.27 741.205,1052.06 744.737,1051.88 748.269,1051.7 
  751.801,1051.55 755.333,1051.4 758.866,1051.26 762.398,1051.13 765.93,1051.01 769.462,1050.9 772.995,1050.8 776.527,1050.71 780.059,1050.63 783.591,1050.55 
  787.123,1050.48 790.656,1050.41 794.188,1050.35 797.72,1050.3 801.252,1050.25 804.785,1050.2 808.317,1050.16 811.849,1050.12 815.381,1050.09 818.913,1050.06 
  822.446,1050.02 825.978,1049.99 829.51,1049.97 833.042,1049.94 836.575,1049.92 840.107,1049.9 843.639,1049.88 847.171,1049.86 850.703,1049.84 854.236,1049.83 
  857.768,1049.81 861.3,1049.8 864.832,1049.79 868.365,1049.78 871.897,1049.77 875.429,1049.77 878.961,1049.76 882.493,1049.75 886.026,1049.75 889.558,1049.74 
  893.09,1049.73 896.622,1049.73 900.154,1049.72 903.687,1049.72 907.219,1049.71 910.751,1049.71 914.283,1049.7 917.816,1049.7 921.348,1049.7 924.88,1049.69 
  928.412,1049.69 931.944,1049.69 935.477,1049.69 939.009,1049.68 942.541,1049.68 946.073,1049.68 949.606,1049.68 953.138,1049.68 956.67,1049.68 960.202,1049.68 
  963.734,1049.68 967.267,1049.68 970.799,1049.68 974.331,1049.67 977.863,1049.67 981.396,1049.67 984.928,1049.67 988.46,1049.67 991.992,1049.67 995.524,1049.67 
  999.057,1049.67 1002.59,1049.67 1006.12,1049.67 1009.65,1049.67 1013.19,1049.67 1016.72,1049.66 1020.25,1049.66 1023.78,1049.66 1027.31,1049.66 1030.85,1049.66 
  1034.38,1049.66 1037.91,1049.66 1041.44,1049.66 1044.98,1049.66 1048.51,1049.66 1052.04,1049.66 1055.57,1049.66 1059.1,1049.66 1062.64,1049.66 1066.17,1049.66 
  1069.7,1049.66 1073.23,1049.66 1076.77,1049.66 1080.3,1049.66 1083.83,1049.66 1087.36,1049.66 1090.89,1049.66 1094.43,1049.66 1097.96,1049.66 1101.49,1049.66 
  1105.02,1049.66 1108.56,1049.66 1112.09,1049.66 1115.62,1049.66 1119.15,1049.66 1122.68,1049.66 1126.22,1049.66 1129.75,1049.66 1133.28,1049.66 1136.81,1049.66 
  1140.35,1049.66 1143.88,1049.66 1147.41,1049.66 1150.94,1049.66 1154.47,1049.66 1158.01,1049.66 1161.54,1049.66 1165.07,1049.66 1168.6,1049.66 1172.14,1049.66 
  1175.67,1049.66 1179.2,1049.66 1182.73,1049.66 1186.26,1049.66 1189.8,1049.66 1193.33,1049.66 1196.86,1049.66 1200.39,1049.66 1203.93,1049.66 1207.46,1049.66 
  1210.99,1049.66 1214.52,1049.66 1218.05,1049.66 1221.59,1049.66 1225.12,1049.66 1228.65,1049.66 1232.18,1049.66 1235.72,1049.66 1239.25,1049.66 1242.78,1049.66 
  1246.31,1049.66 1249.84,1049.66 1253.38,1049.66 1256.91,1049.66 1260.44,1049.66 1263.97,1049.66 1267.51,1049.66 1271.04,1049.66 1274.57,1049.66 1278.1,1049.66 
  1281.63,1049.66 1285.17,1049.66 1288.7,1049.66 1292.23,1049.65 1295.76,1049.65 1299.3,1049.65 1302.83,1049.65 1306.36,1049.65 1309.89,1049.65 1313.42,1049.65 
  1316.96,1049.65 1320.49,1049.65 1324.02,1049.65 1327.55,1049.65 1331.09,1049.65 1334.62,1049.65 1338.15,1049.65 1341.68,1049.65 1345.21,1049.65 1348.75,1049.66 
  1352.28,1049.66 1355.81,1049.66 1359.34,1049.66 1362.88,1049.66 1366.41,1049.66 1369.94,1049.66 1373.47,1049.66 1377,1049.66 1380.54,1049.67 1384.07,1049.67 
  1387.6,1049.67 1391.13,1049.67 1394.67,1049.67 1398.2,1049.67 1401.73,1049.67 1405.26,1049.67 1408.79,1049.67 1412.33,1049.67 1415.86,1049.67 1419.39,1049.67 
  1422.92,1049.67 1426.46,1049.67 1429.99,1049.67 1433.52,1049.67 1437.05,1049.66 1440.58,1049.66 1444.12,1049.66 1447.65,1049.65 1451.18,1049.65 1454.71,1049.65 
  1458.25,1049.64 1461.78,1049.64 1465.31,1049.63 1468.84,1049.63 1472.37,1049.63 1475.91,1049.62 1479.44,1049.62 1482.97,1049.62 1486.5,1049.61 1490.04,1049.61 
  1493.57,1049.61 1497.1,1049.61 1500.63,1049.61 1504.16,1049.61 1507.7,1049.61 1511.23,1049.61 1514.76,1049.61 1518.29,1049.61 1521.83,1049.62 1525.36,1049.62 
  1528.89,1049.62 1532.42,1049.62 1535.95,1049.63 1539.49,1049.63 1543.02,1049.64 1546.55,1049.64 1550.08,1049.65 1553.62,1049.65 1557.15,1049.66 1560.68,1049.67 
  1564.21,1049.67 1567.74,1049.68 1571.28,1049.68 1574.81,1049.69 1578.34,1049.69 1581.87,1049.7 1585.41,1049.7 1588.94,1049.71 1592.47,1049.71 1596,1049.71 
  1599.53,1049.72 1603.07,1049.72 1606.6,1049.72 1610.13,1049.72 1613.66,1049.71 1617.2,1049.71 1620.73,1049.7 1624.26,1049.7 1627.79,1049.69 1631.32,1049.67 
  1634.86,1049.66 1638.39,1049.65 1641.92,1049.63 1645.45,1049.62 1648.99,1049.6 1652.52,1049.59 1656.05,1049.57 1659.58,1049.56 1663.11,1049.55 1666.65,1049.54 
  1670.18,1049.53 1673.71,1049.52 1677.24,1049.51 1680.78,1049.51 1684.31,1049.5 1687.84,1049.5 1691.37,1049.5 1694.9,1049.5 1698.44,1049.5 1701.97,1049.51 
  1705.5,1049.52 1709.03,1049.52 1712.56,1049.53 1716.1,1049.55 1719.63,1049.56 1723.16,1049.58 1726.69,1049.59 1730.23,1049.61 1733.76,1049.63 1737.29,1049.65 
  1740.82,1049.66 1744.35,1049.68 1747.89,1049.7 1751.42,1049.72 1754.95,1049.74 1758.48,1049.76 1762.02,1049.78 1765.55,1049.79 1769.08,1049.81 1772.61,1049.82 
  1776.14,1049.82 1779.68,1049.83 1783.21,1049.83 1786.74,1049.83 1790.27,1049.82 1793.81,1049.81 1797.34,1049.79 1800.87,1049.77 1804.4,1049.75 1807.93,1049.72 
  1811.47,1049.7 1815,1049.67 1818.53,1049.64 1822.06,1049.61 1825.6,1049.58 1829.13,1049.56 1832.66,1049.53 1836.19,1049.51 1839.72,1049.49 1843.26,1049.47 
  1846.79,1049.45 1850.32,1049.44 1853.85,1049.43 1857.39,1049.43 1860.92,1049.43 1864.45,1049.43 1867.98,1049.44 1871.51,1049.45 1875.05,1049.46 1878.58,1049.47 
  1882.11,1049.49 1885.64,1049.52 1889.18,1049.54 1892.71,1049.57 1896.24,1049.6 1899.77,1049.63 1903.3,1049.66 1906.84,1049.69 1910.37,1049.73 1913.9,1049.76 
  1917.43,1049.79 1920.97,1049.82 1924.5,1049.85 1928.03,1049.87 1931.56,1049.89 1935.09,1049.91 1938.63,1049.92 1942.16,1049.92 1945.69,1049.91 1949.22,1049.9 
  1952.76,1049.88 
  "/>
</svg>
