<?xml version="1.0" encoding="utf-8"?>
<svg xmlns="http://www.w3.org/2000/svg" xmlns:xlink="http://www.w3.org/1999/xlink" width="400" height="500" viewBox="0 0 1600 2000">
<defs>
  <clipPath id="clip970">
    <rect x="0" y="0" width="1600" height="2000"/>
  </clipPath>
</defs>
<path clip-path="url(#clip970)" d="
M0 2000 L1600 2000 L1600 0 L0 0  Z
  " fill="#ffffff" fill-rule="evenodd" fill-opacity="1"/>
<defs>
  <clipPath id="clip971">
    <rect x="400" y="200" width="1401" height="1401"/>
  </clipPath>
</defs>
<path clip-path="url(#clip970)" d="
M152.492 531.835 L1552.76 531.835 L1552.76 47.2441 L152.492 47.2441  Z
  " fill="#ffffff" fill-rule="evenodd" fill-opacity="1"/>
<defs>
  <clipPath id="clip972">
    <rect x="152" y="47" width="1401" height="486"/>
  </clipPath>
</defs>
<polyline clip-path="url(#clip972)" style="stroke:#000000; stroke-linecap:butt; stroke-linejoin:round; stroke-width:2; stroke-opacity:0.1; fill:none" points="
  178.949,531.835 178.949,47.2441 
  "/>
<polyline clip-path="url(#clip972)" style="stroke:#000000; stroke-linecap:butt; stroke-linejoin:round; stroke-width:2; stroke-opacity:0.1; fill:none" points="
  459.219,531.835 459.219,47.2441 
  "/>
<polyline clip-path="url(#clip972)" style="stroke:#000000; stroke-linecap:butt; stroke-linejoin:round; stroke-width:2; stroke-opacity:0.1; fill:none" points="
  739.488,531.835 739.488,47.2441 
  "/>
<polyline clip-path="url(#clip972)" style="stroke:#000000; stroke-linecap:butt; stroke-linejoin:round; stroke-width:2; stroke-opacity:0.1; fill:none" points="
  1019.76,531.835 1019.76,47.2441 
  "/>
<polyline clip-path="url(#clip972)" style="stroke:#000000; stroke-linecap:butt; stroke-linejoin:round; stroke-width:2; stroke-opacity:0.1; fill:none" points="
  1300.03,531.835 1300.03,47.2441 
  "/>
<polyline clip-path="url(#clip970)" style="stroke:#000000; stroke-linecap:butt; stroke-linejoin:round; stroke-width:4; stroke-opacity:1; fill:none" points="
  152.492,531.835 1552.76,531.835 
  "/>
<polyline clip-path="url(#clip970)" style="stroke:#000000; stroke-linecap:butt; stroke-linejoin:round; stroke-width:4; stroke-opacity:1; fill:none" points="
  178.949,531.835 178.949,512.937 
  "/>
<polyline clip-path="url(#clip970)" style="stroke:#000000; stroke-linecap:butt; stroke-linejoin:round; stroke-width:4; stroke-opacity:1; fill:none" points="
  459.219,531.835 459.219,512.937 
  "/>
<polyline clip-path="url(#clip970)" style="stroke:#000000; stroke-linecap:butt; stroke-linejoin:round; stroke-width:4; stroke-opacity:1; fill:none" points="
  739.488,531.835 739.488,512.937 
  "/>
<polyline clip-path="url(#clip970)" style="stroke:#000000; stroke-linecap:butt; stroke-linejoin:round; stroke-width:4; stroke-opacity:1; fill:none" points="
  1019.76,531.835 1019.76,512.937 
  "/>
<polyline clip-path="url(#clip970)" style="stroke:#000000; stroke-linecap:butt; stroke-linejoin:round; stroke-width:4; stroke-opacity:1; fill:none" points="
  1300.03,531.835 1300.03,512.937 
  "/>
<path clip-path="url(#clip970)" d="M178.949 559.553 Q175.338 559.553 173.509 563.118 Q171.704 566.66 171.704 573.789 Q171.704 580.896 173.509 584.461 Q175.338 588.002 178.949 588.002 Q182.583 588.002 184.389 584.461 Q186.218 580.896 186.218 573.789 Q186.218 566.66 184.389 563.118 Q182.583 559.553 178.949 559.553 M178.949 555.85 Q184.759 555.85 187.815 560.456 Q190.894 565.039 190.894 573.789 Q190.894 582.516 187.815 587.123 Q184.759 591.706 178.949 591.706 Q173.139 591.706 170.06 587.123 Q167.005 582.516 167.005 573.789 Q167.005 565.039 170.06 560.456 Q173.139 555.85 178.949 555.85 Z" fill="#000000" fill-rule="evenodd" fill-opacity="1" /><path clip-path="url(#clip970)" d="M433.906 587.099 L441.545 587.099 L441.545 560.734 L433.235 562.4 L433.235 558.141 L441.499 556.475 L446.175 556.475 L446.175 587.099 L453.814 587.099 L453.814 591.035 L433.906 591.035 L433.906 587.099 Z" fill="#000000" fill-rule="evenodd" fill-opacity="1" /><path clip-path="url(#clip970)" d="M473.258 559.553 Q469.647 559.553 467.818 563.118 Q466.013 566.66 466.013 573.789 Q466.013 580.896 467.818 584.461 Q469.647 588.002 473.258 588.002 Q476.892 588.002 478.698 584.461 Q480.527 580.896 480.527 573.789 Q480.527 566.66 478.698 563.118 Q476.892 559.553 473.258 559.553 M473.258 555.85 Q479.068 555.85 482.124 560.456 Q485.202 565.039 485.202 573.789 Q485.202 582.516 482.124 587.123 Q479.068 591.706 473.258 591.706 Q467.448 591.706 464.369 587.123 Q461.314 582.516 461.314 573.789 Q461.314 565.039 464.369 560.456 Q467.448 555.85 473.258 555.85 Z" fill="#000000" fill-rule="evenodd" fill-opacity="1" /><path clip-path="url(#clip970)" d="M718.262 587.099 L734.581 587.099 L734.581 591.035 L712.637 591.035 L712.637 587.099 Q715.299 584.345 719.882 579.715 Q724.488 575.062 725.669 573.72 Q727.914 571.197 728.794 569.461 Q729.697 567.701 729.697 566.012 Q729.697 563.257 727.752 561.521 Q725.831 559.785 722.729 559.785 Q720.53 559.785 718.076 560.549 Q715.646 561.312 712.868 562.863 L712.868 558.141 Q715.692 557.007 718.146 556.428 Q720.6 555.85 722.637 555.85 Q728.007 555.85 731.201 558.535 Q734.396 561.22 734.396 565.711 Q734.396 567.84 733.586 569.762 Q732.799 571.66 730.692 574.252 Q730.113 574.924 727.012 578.141 Q723.91 581.336 718.262 587.099 Z" fill="#000000" fill-rule="evenodd" fill-opacity="1" /><path clip-path="url(#clip970)" d="M754.396 559.553 Q750.785 559.553 748.956 563.118 Q747.15 566.66 747.15 573.789 Q747.15 580.896 748.956 584.461 Q750.785 588.002 754.396 588.002 Q758.03 588.002 759.835 584.461 Q761.664 580.896 761.664 573.789 Q761.664 566.66 759.835 563.118 Q758.03 559.553 754.396 559.553 M754.396 555.85 Q760.206 555.85 763.261 560.456 Q766.34 565.039 766.34 573.789 Q766.34 582.516 763.261 587.123 Q760.206 591.706 754.396 591.706 Q748.586 591.706 745.507 587.123 Q742.451 582.516 742.451 573.789 Q742.451 565.039 745.507 560.456 Q748.586 555.85 754.396 555.85 Z" fill="#000000" fill-rule="evenodd" fill-opacity="1" /><path clip-path="url(#clip970)" d="M1008.6 572.4 Q1011.96 573.118 1013.83 575.386 Q1015.73 577.655 1015.73 580.988 Q1015.73 586.104 1012.21 588.905 Q1008.69 591.706 1002.21 591.706 Q1000.04 591.706 997.721 591.266 Q995.429 590.849 992.976 589.993 L992.976 585.479 Q994.92 586.613 997.235 587.192 Q999.55 587.771 1002.07 587.771 Q1006.47 587.771 1008.76 586.035 Q1011.08 584.298 1011.08 580.988 Q1011.08 577.933 1008.92 576.22 Q1006.8 574.484 1002.98 574.484 L998.948 574.484 L998.948 570.641 L1003.16 570.641 Q1006.61 570.641 1008.44 569.275 Q1010.27 567.887 1010.27 565.294 Q1010.27 562.632 1008.37 561.22 Q1006.49 559.785 1002.98 559.785 Q1001.05 559.785 998.855 560.201 Q996.656 560.618 994.017 561.498 L994.017 557.331 Q996.679 556.59 998.994 556.22 Q1001.33 555.85 1003.39 555.85 Q1008.72 555.85 1011.82 558.28 Q1014.92 560.687 1014.92 564.808 Q1014.92 567.678 1013.28 569.669 Q1011.63 571.636 1008.6 572.4 Z" fill="#000000" fill-rule="evenodd" fill-opacity="1" /><path clip-path="url(#clip970)" d="M1034.6 559.553 Q1030.98 559.553 1029.16 563.118 Q1027.35 566.66 1027.35 573.789 Q1027.35 580.896 1029.16 584.461 Q1030.98 588.002 1034.6 588.002 Q1038.23 588.002 1040.04 584.461 Q1041.86 580.896 1041.86 573.789 Q1041.86 566.66 1040.04 563.118 Q1038.23 559.553 1034.6 559.553 M1034.6 555.85 Q1040.41 555.85 1043.46 560.456 Q1046.54 565.039 1046.54 573.789 Q1046.54 582.516 1043.46 587.123 Q1040.41 591.706 1034.6 591.706 Q1028.79 591.706 1025.71 587.123 Q1022.65 582.516 1022.65 573.789 Q1022.65 565.039 1025.71 560.456 Q1028.79 555.85 1034.6 555.85 Z" fill="#000000" fill-rule="evenodd" fill-opacity="1" /><path clip-path="url(#clip970)" d="M1288.2 560.549 L1276.39 578.998 L1288.2 578.998 L1288.2 560.549 M1286.97 556.475 L1292.85 556.475 L1292.85 578.998 L1297.78 578.998 L1297.78 582.886 L1292.85 582.886 L1292.85 591.035 L1288.2 591.035 L1288.2 582.886 L1272.6 582.886 L1272.6 578.373 L1286.97 556.475 Z" fill="#000000" fill-rule="evenodd" fill-opacity="1" /><path clip-path="url(#clip970)" d="M1315.51 559.553 Q1311.9 559.553 1310.07 563.118 Q1308.27 566.66 1308.27 573.789 Q1308.27 580.896 1310.07 584.461 Q1311.9 588.002 1315.51 588.002 Q1319.15 588.002 1320.95 584.461 Q1322.78 580.896 1322.78 573.789 Q1322.78 566.66 1320.95 563.118 Q1319.15 559.553 1315.51 559.553 M1315.51 555.85 Q1321.32 555.85 1324.38 560.456 Q1327.46 565.039 1327.46 573.789 Q1327.46 582.516 1324.38 587.123 Q1321.32 591.706 1315.51 591.706 Q1309.7 591.706 1306.62 587.123 Q1303.57 582.516 1303.57 573.789 Q1303.57 565.039 1306.62 560.456 Q1309.7 555.85 1315.51 555.85 Z" fill="#000000" fill-rule="evenodd" fill-opacity="1" /><polyline clip-path="url(#clip972)" style="stroke:#000000; stroke-linecap:butt; stroke-linejoin:round; stroke-width:2; stroke-opacity:0.1; fill:none" points="
  152.492,462.697 1552.76,462.697 
  "/>
<polyline clip-path="url(#clip972)" style="stroke:#000000; stroke-linecap:butt; stroke-linejoin:round; stroke-width:2; stroke-opacity:0.1; fill:none" points="
  152.492,376.118 1552.76,376.118 
  "/>
<polyline clip-path="url(#clip972)" style="stroke:#000000; stroke-linecap:butt; stroke-linejoin:round; stroke-width:2; stroke-opacity:0.1; fill:none" points="
  152.492,289.539 1552.76,289.539 
  "/>
<polyline clip-path="url(#clip972)" style="stroke:#000000; stroke-linecap:butt; stroke-linejoin:round; stroke-width:2; stroke-opacity:0.1; fill:none" points="
  152.492,202.96 1552.76,202.96 
  "/>
<polyline clip-path="url(#clip972)" style="stroke:#000000; stroke-linecap:butt; stroke-linejoin:round; stroke-width:2; stroke-opacity:0.1; fill:none" points="
  152.492,116.382 1552.76,116.382 
  "/>
<polyline clip-path="url(#clip970)" style="stroke:#000000; stroke-linecap:butt; stroke-linejoin:round; stroke-width:4; stroke-opacity:1; fill:none" points="
  152.492,531.835 152.492,47.2441 
  "/>
<polyline clip-path="url(#clip970)" style="stroke:#000000; stroke-linecap:butt; stroke-linejoin:round; stroke-width:4; stroke-opacity:1; fill:none" points="
  152.492,462.697 171.389,462.697 
  "/>
<polyline clip-path="url(#clip970)" style="stroke:#000000; stroke-linecap:butt; stroke-linejoin:round; stroke-width:4; stroke-opacity:1; fill:none" points="
  152.492,376.118 171.389,376.118 
  "/>
<polyline clip-path="url(#clip970)" style="stroke:#000000; stroke-linecap:butt; stroke-linejoin:round; stroke-width:4; stroke-opacity:1; fill:none" points="
  152.492,289.539 171.389,289.539 
  "/>
<polyline clip-path="url(#clip970)" style="stroke:#000000; stroke-linecap:butt; stroke-linejoin:round; stroke-width:4; stroke-opacity:1; fill:none" points="
  152.492,202.96 171.389,202.96 
  "/>
<polyline clip-path="url(#clip970)" style="stroke:#000000; stroke-linecap:butt; stroke-linejoin:round; stroke-width:4; stroke-opacity:1; fill:none" points="
  152.492,116.382 171.389,116.382 
  "/>
<path clip-path="url(#clip970)" d="M60.293 463.148 L89.9688 463.148 L89.9688 467.084 L60.293 467.084 L60.293 463.148 Z" fill="#000000" fill-rule="evenodd" fill-opacity="1" /><path clip-path="url(#clip970)" d="M112.908 449.491 L101.103 467.94 L112.908 467.94 L112.908 449.491 M111.682 445.417 L117.561 445.417 L117.561 467.94 L122.492 467.94 L122.492 471.829 L117.561 471.829 L117.561 479.977 L112.908 479.977 L112.908 471.829 L97.3067 471.829 L97.3067 467.315 L111.682 445.417 Z" fill="#000000" fill-rule="evenodd" fill-opacity="1" /><path clip-path="url(#clip970)" d="M62.3763 376.57 L92.0521 376.57 L92.0521 380.505 L62.3763 380.505 L62.3763 376.57 Z" fill="#000000" fill-rule="evenodd" fill-opacity="1" /><path clip-path="url(#clip970)" d="M106.172 389.463 L122.492 389.463 L122.492 393.398 L100.547 393.398 L100.547 389.463 Q103.209 386.708 107.793 382.079 Q112.399 377.426 113.58 376.083 Q115.825 373.56 116.705 371.824 Q117.607 370.065 117.607 368.375 Q117.607 365.621 115.663 363.884 Q113.742 362.148 110.64 362.148 Q108.441 362.148 105.987 362.912 Q103.557 363.676 100.779 365.227 L100.779 360.505 Q103.603 359.371 106.057 358.792 Q108.51 358.213 110.547 358.213 Q115.918 358.213 119.112 360.898 Q122.307 363.583 122.307 368.074 Q122.307 370.204 121.496 372.125 Q120.709 374.023 118.603 376.616 Q118.024 377.287 114.922 380.505 Q111.82 383.699 106.172 389.463 Z" fill="#000000" fill-rule="evenodd" fill-opacity="1" /><path clip-path="url(#clip970)" d="M110.547 275.338 Q106.936 275.338 105.108 278.903 Q103.302 282.444 103.302 289.574 Q103.302 296.68 105.108 300.245 Q106.936 303.787 110.547 303.787 Q114.182 303.787 115.987 300.245 Q117.816 296.68 117.816 289.574 Q117.816 282.444 115.987 278.903 Q114.182 275.338 110.547 275.338 M110.547 271.634 Q116.358 271.634 119.413 276.241 Q122.492 280.824 122.492 289.574 Q122.492 298.301 119.413 302.907 Q116.358 307.491 110.547 307.491 Q104.737 307.491 101.659 302.907 Q98.603 298.301 98.603 289.574 Q98.603 280.824 101.659 276.241 Q104.737 271.634 110.547 271.634 Z" fill="#000000" fill-rule="evenodd" fill-opacity="1" /><path clip-path="url(#clip970)" d="M106.172 216.305 L122.492 216.305 L122.492 220.24 L100.547 220.24 L100.547 216.305 Q103.209 213.551 107.793 208.921 Q112.399 204.268 113.58 202.926 Q115.825 200.403 116.705 198.667 Q117.607 196.907 117.607 195.217 Q117.607 192.463 115.663 190.727 Q113.742 188.991 110.64 188.991 Q108.441 188.991 105.987 189.755 Q103.557 190.518 100.779 192.069 L100.779 187.347 Q103.603 186.213 106.057 185.634 Q108.51 185.055 110.547 185.055 Q115.918 185.055 119.112 187.741 Q122.307 190.426 122.307 194.917 Q122.307 197.046 121.496 198.967 Q120.709 200.866 118.603 203.458 Q118.024 204.129 114.922 207.347 Q111.82 210.541 106.172 216.305 Z" fill="#000000" fill-rule="evenodd" fill-opacity="1" /><path clip-path="url(#clip970)" d="M112.908 103.176 L101.103 121.625 L112.908 121.625 L112.908 103.176 M111.682 99.1017 L117.561 99.1017 L117.561 121.625 L122.492 121.625 L122.492 125.514 L117.561 125.514 L117.561 133.662 L112.908 133.662 L112.908 125.514 L97.3067 125.514 L97.3067 121 L111.682 99.1017 Z" fill="#000000" fill-rule="evenodd" fill-opacity="1" /><path clip-path="url(#clip972)" d="
M192.122 298.294 L202.772 294.613 L211.741 304.909 L219.448 298.447 L229.958 297.961 L239.02 302.519 L248.176 307.631 L255.603 312.742 L264.852 328.169 L275.362 322.981 
  L284.424 311.162 L293.579 324.239 L302.641 318.502 L311.797 325.013 L320.766 329.816 L329.828 337.794 L342.346 354.152 L351.315 332.892 L360.284 319.648 L369.252 353.782 
  L378.221 363.052 L387.189 348.673 L396.252 327.983 L405.22 323.392 L414.189 327.024 L423.251 347.75 L432.219 324.424 L441.188 313.337 L450.157 328.205 L460.527 321.05 
  L474.166 317.825 L487.806 321.543 L501.539 305.166 L515.086 326.974 L528.819 315.4 L542.459 328.007 L556.192 314.391 L569.738 306.601 L583.472 315.17 L597.111 325.262 
  L610.751 321.361 L624.391 313.363 L638.031 326.521 L651.764 346.836 L665.31 296.598 L679.044 351.971 L692.59 335.869 L706.23 323.806 L719.963 350.88 L733.603 353.151 
  L747.149 334.656 L760.882 339.536 L774.522 383.941 L788.255 373.299 L801.802 348.156 L815.535 353.217 L829.175 347.052 L842.534 352.21 L856.174 356.034 L869.814 358.571 
  L883.547 350.981 L897.187 367.398 L910.826 359.401 L924.56 357.829 L938.199 363.217 L951.933 378.428 L965.479 399.736 L979.212 425.362 L992.945 390.438 L1006.59 438.452 
  L1020.32 410.212 L1034.05 450.232 L1047.69 452.221 L1061.33 420.461 L1075.06 446.685 L1088.7 432.813 L1102.44 412.925 L1116.08 384.556 L1133.55 363.409 L1151.48 376.7 
  L1170.54 372.478 L1189.51 390.904 L1208.57 429.951 L1227.53 441.426 L1246.59 427.529 L1265.65 454.988 L1284.71 461.169 L1303.76 401.913 L1322.82 464.605 L1341.88 484.022 
  L1360.85 516.503 L1379.9 482.8 L1398.87 424.785 L1417.83 409.552 L1436.89 402.445 L1455.95 377.585 L1475.01 439.096 L1494.07 518.12 L1513.13 514.618 L1513.13 64.461 
  L1494.07 60.9589 L1475.01 139.982 L1455.95 201.494 L1436.89 176.633 L1417.83 169.527 L1398.87 154.293 L1379.9 96.2785 L1360.85 62.5757 L1341.88 95.057 L1322.82 114.474 
  L1303.76 177.165 L1284.71 117.91 L1265.65 124.09 L1246.59 151.55 L1227.53 137.652 L1208.57 149.128 L1189.51 188.175 L1170.54 206.6 L1151.48 202.379 L1133.55 215.67 
  L1116.08 194.523 L1102.44 166.153 L1088.7 146.265 L1075.06 132.393 L1061.33 158.618 L1047.69 126.857 L1034.05 128.847 L1020.32 168.866 L1006.59 140.627 L992.945 188.641 
  L979.212 153.717 L965.479 179.343 L951.933 200.65 L938.199 215.862 L924.56 221.249 L910.826 219.677 L897.187 211.681 L883.547 228.098 L869.814 220.507 L856.174 223.045 
  L842.534 226.869 L829.175 232.027 L815.535 225.862 L801.802 230.923 L788.255 205.779 L774.522 195.138 L760.882 239.542 L747.149 244.423 L733.603 225.928 L719.963 228.198 
  L706.23 255.273 L692.59 243.209 L679.044 227.108 L665.31 282.48 L651.764 232.242 L638.031 252.558 L624.391 265.715 L610.751 257.717 L597.111 253.817 L583.472 263.908 
  L569.738 272.478 L556.192 264.688 L542.459 251.072 L528.819 263.679 L515.086 252.105 L501.539 273.912 L487.806 257.535 L474.166 261.254 L460.527 258.029 L450.157 250.874 
  L441.188 265.742 L432.219 254.655 L423.251 231.329 L414.189 252.055 L405.22 255.687 L396.252 251.096 L387.189 230.406 L378.221 216.027 L369.252 225.296 L360.284 259.431 
  L351.315 246.187 L342.346 224.927 L329.828 241.284 L320.766 249.262 L311.797 254.066 L302.641 260.576 L293.579 254.84 L284.424 267.916 L275.362 256.097 L264.852 250.909 
  L255.603 266.337 L248.176 271.448 L239.02 276.559 L229.958 281.118 L219.448 280.632 L211.741 274.169 L202.772 284.466 L192.122 280.785  Z
  " fill="#000000" fill-rule="evenodd" fill-opacity="0.2"/>
<polyline clip-path="url(#clip972)" style="stroke:#000000; stroke-linecap:butt; stroke-linejoin:round; stroke-width:4; stroke-opacity:0; fill:none" points="
  192.122,289.539 202.772,289.539 211.741,289.539 219.448,289.539 229.958,289.539 239.02,289.539 248.176,289.539 255.603,289.539 264.852,289.539 275.362,289.539 
  284.424,289.539 293.579,289.539 302.641,289.539 311.797,289.539 320.766,289.539 329.828,289.539 342.346,289.539 351.315,289.539 360.284,289.539 369.252,289.539 
  378.221,289.539 387.189,289.539 396.252,289.539 405.22,289.539 414.189,289.539 423.251,289.539 432.219,289.539 441.188,289.539 450.157,289.539 460.527,289.539 
  474.166,289.539 487.806,289.539 501.539,289.539 515.086,289.539 528.819,289.539 542.459,289.539 556.192,289.539 569.738,289.539 583.472,289.539 597.111,289.539 
  610.751,289.539 624.391,289.539 638.031,289.539 651.764,289.539 665.31,289.539 679.044,289.539 692.59,289.539 706.23,289.539 719.963,289.539 733.603,289.539 
  747.149,289.539 760.882,289.539 774.522,289.539 788.255,289.539 801.802,289.539 815.535,289.539 829.175,289.539 842.534,289.539 856.174,289.539 869.814,289.539 
  883.547,289.539 897.187,289.539 910.826,289.539 924.56,289.539 938.199,289.539 951.933,289.539 965.479,289.539 979.212,289.539 992.945,289.539 1006.59,289.539 
  1020.32,289.539 1034.05,289.539 1047.69,289.539 1061.33,289.539 1075.06,289.539 1088.7,289.539 1102.44,289.539 1116.08,289.539 1133.55,289.539 1151.48,289.539 
  1170.54,289.539 1189.51,289.539 1208.57,289.539 1227.53,289.539 1246.59,289.539 1265.65,289.539 1284.71,289.539 1303.76,289.539 1322.82,289.539 1341.88,289.539 
  1360.85,289.539 1379.9,289.539 1398.87,289.539 1417.83,289.539 1436.89,289.539 1455.95,289.539 1475.01,289.539 1494.07,289.539 1513.13,289.539 
  "/>
<polyline clip-path="url(#clip972)" style="stroke:#009af9; stroke-linecap:butt; stroke-linejoin:round; stroke-width:12; stroke-opacity:1; fill:none" points="
  192.122,290.904 202.772,293.223 211.741,305.337 219.448,301.413 229.958,287.74 239.02,287.8 248.176,297.308 255.603,265.676 264.852,299.145 275.362,270.3 
  284.424,271.883 293.579,314.599 302.641,269.116 311.797,268.358 320.766,286.47 329.828,262.083 342.346,174.26 351.315,138.736 360.284,140.689 369.252,120.275 
  378.221,178.204 387.189,197.773 396.252,256.681 405.22,297.461 414.189,329.696 423.251,353.839 432.219,351.062 441.188,346.789 450.157,322.213 460.527,334.852 
  474.166,375.385 487.806,352.331 501.539,362.887 515.086,367.482 528.819,372.996 542.459,343.919 556.192,368.764 569.738,339.192 583.472,348.829 597.111,332.855 
  610.751,317.156 624.391,310.631 638.031,329.354 651.764,312.668 665.31,316.684 679.044,293.527 692.59,298.862 706.23,304.515 719.963,273.907 733.603,255.628 
  747.149,249.634 760.882,286.11 774.522,295.211 788.255,248.344 801.802,242.561 815.535,259.646 829.175,250.588 842.534,285.217 856.174,243.23 869.814,232.963 
  883.547,239.247 897.187,264.563 910.826,252.505 924.56,257.316 938.199,253.446 951.933,262.073 965.479,273.491 979.212,264.646 992.945,241.769 1006.59,260.071 
  1020.32,253.545 1034.05,293.36 1047.69,272.402 1061.33,254.78 1075.06,279.858 1088.7,262.683 1102.44,290.158 1116.08,294.825 1133.55,217.783 1151.48,191.829 
  1170.54,178.891 1189.51,148.538 1208.57,186.447 1227.53,173.539 1246.59,197.372 1265.65,204.065 1284.71,223.86 1303.76,227.51 1322.82,262.23 1341.88,287.003 
  1360.85,332.784 1379.9,329.12 1398.87,365.936 1417.83,365.027 1436.89,366.242 1455.95,361.084 1475.01,427.031 1494.07,477.975 1513.13,490.058 
  "/>
<polyline clip-path="url(#clip972)" style="stroke:#009af9; stroke-linecap:butt; stroke-linejoin:round; stroke-width:12; stroke-opacity:1; fill:none" stroke-dasharray="48, 30" points="
  192.122,290.919 202.772,293.26 211.741,305.404 219.448,301.516 229.958,287.918 239.02,288.072 248.176,297.719 255.603,266.242 264.852,299.977 275.362,271.573 
  284.424,273.701 293.579,317.185 302.641,272.759 311.797,273.48 320.766,293.219 329.828,268.414 342.346,201.512 351.315,169.809 360.284,169.787 369.252,147.734 
  378.221,204.229 387.189,222.368 396.252,279.879 405.22,319.324 414.189,350.268 423.251,373.151 432.219,369.17 441.188,363.736 450.157,338.038 460.527,349.431 
  474.166,388.404 487.806,363.877 501.539,373.033 515.086,376.326 528.819,380.598 542.459,350.361 556.192,374.108 569.738,343.519 583.472,352.192 597.111,335.323 
  610.751,318.788 624.391,311.486 638.031,329.488 651.764,312.129 665.31,315.531 679.044,291.803 692.59,296.621 706.23,301.797 719.963,270.749 733.603,252.074 
  747.149,245.726 760.882,281.879 774.522,290.695 788.255,243.577 801.802,237.579 815.535,254.478 829.175,245.265 842.534,279.771 856.174,237.686 869.814,227.346 
  883.547,233.583 897.187,258.876 910.826,246.817 924.56,251.647 938.199,247.814 951.933,256.497 965.479,267.988 979.212,259.234 992.945,236.466 1006.59,254.89 
  1020.32,248.503 1034.05,288.471 1047.69,267.679 1061.33,250.236 1075.06,275.505 1088.7,258.532 1102.44,286.221 1116.08,291.11 1133.55,214.368 1151.48,188.737 
  1170.54,176.152 1189.51,146.162 1208.57,184.446 1227.53,171.92 1246.59,196.146 1265.65,203.24 1284.71,223.445 1303.76,227.511 1322.82,262.653 1341.88,287.854 
  1360.85,334.065 1379.9,330.838 1398.87,368.091 1417.83,367.62 1436.89,369.276 1455.95,364.558 1475.01,430.945 1494.07,482.327 1513.13,494.847 
  "/>
<path clip-path="url(#clip970)" d="
M152.492 1198.5 L1552.76 1198.5 L1552.76 713.911 L152.492 713.911  Z
  " fill="#ffffff" fill-rule="evenodd" fill-opacity="1"/>
<defs>
  <clipPath id="clip973">
    <rect x="152" y="713" width="1401" height="486"/>
  </clipPath>
</defs>
<polyline clip-path="url(#clip973)" style="stroke:#000000; stroke-linecap:butt; stroke-linejoin:round; stroke-width:2; stroke-opacity:0.1; fill:none" points="
  179.672,1198.5 179.672,713.911 
  "/>
<polyline clip-path="url(#clip973)" style="stroke:#000000; stroke-linecap:butt; stroke-linejoin:round; stroke-width:2; stroke-opacity:0.1; fill:none" points="
  462.623,1198.5 462.623,713.911 
  "/>
<polyline clip-path="url(#clip973)" style="stroke:#000000; stroke-linecap:butt; stroke-linejoin:round; stroke-width:2; stroke-opacity:0.1; fill:none" points="
  745.574,1198.5 745.574,713.911 
  "/>
<polyline clip-path="url(#clip973)" style="stroke:#000000; stroke-linecap:butt; stroke-linejoin:round; stroke-width:2; stroke-opacity:0.1; fill:none" points="
  1028.53,1198.5 1028.53,713.911 
  "/>
<polyline clip-path="url(#clip973)" style="stroke:#000000; stroke-linecap:butt; stroke-linejoin:round; stroke-width:2; stroke-opacity:0.1; fill:none" points="
  1311.48,1198.5 1311.48,713.911 
  "/>
<polyline clip-path="url(#clip970)" style="stroke:#000000; stroke-linecap:butt; stroke-linejoin:round; stroke-width:4; stroke-opacity:1; fill:none" points="
  152.492,1198.5 1552.76,1198.5 
  "/>
<polyline clip-path="url(#clip970)" style="stroke:#000000; stroke-linecap:butt; stroke-linejoin:round; stroke-width:4; stroke-opacity:1; fill:none" points="
  179.672,1198.5 179.672,1179.6 
  "/>
<polyline clip-path="url(#clip970)" style="stroke:#000000; stroke-linecap:butt; stroke-linejoin:round; stroke-width:4; stroke-opacity:1; fill:none" points="
  462.623,1198.5 462.623,1179.6 
  "/>
<polyline clip-path="url(#clip970)" style="stroke:#000000; stroke-linecap:butt; stroke-linejoin:round; stroke-width:4; stroke-opacity:1; fill:none" points="
  745.574,1198.5 745.574,1179.6 
  "/>
<polyline clip-path="url(#clip970)" style="stroke:#000000; stroke-linecap:butt; stroke-linejoin:round; stroke-width:4; stroke-opacity:1; fill:none" points="
  1028.53,1198.5 1028.53,1179.6 
  "/>
<polyline clip-path="url(#clip970)" style="stroke:#000000; stroke-linecap:butt; stroke-linejoin:round; stroke-width:4; stroke-opacity:1; fill:none" points="
  1311.48,1198.5 1311.48,1179.6 
  "/>
<path clip-path="url(#clip970)" d="M179.672 1226.22 Q176.061 1226.22 174.232 1229.78 Q172.427 1233.33 172.427 1240.46 Q172.427 1247.56 174.232 1251.13 Q176.061 1254.67 179.672 1254.67 Q183.306 1254.67 185.112 1251.13 Q186.94 1247.56 186.94 1240.46 Q186.94 1233.33 185.112 1229.78 Q183.306 1226.22 179.672 1226.22 M179.672 1222.52 Q185.482 1222.52 188.538 1227.12 Q191.616 1231.71 191.616 1240.46 Q191.616 1249.18 188.538 1253.79 Q185.482 1258.37 179.672 1258.37 Q173.862 1258.37 170.783 1253.79 Q167.728 1249.18 167.728 1240.46 Q167.728 1231.71 170.783 1227.12 Q173.862 1222.52 179.672 1222.52 Z" fill="#000000" fill-rule="evenodd" fill-opacity="1" /><path clip-path="url(#clip970)" d="M437.311 1253.77 L444.949 1253.77 L444.949 1227.4 L436.639 1229.07 L436.639 1224.81 L444.903 1223.14 L449.579 1223.14 L449.579 1253.77 L457.218 1253.77 L457.218 1257.7 L437.311 1257.7 L437.311 1253.77 Z" fill="#000000" fill-rule="evenodd" fill-opacity="1" /><path clip-path="url(#clip970)" d="M476.662 1226.22 Q473.051 1226.22 471.223 1229.78 Q469.417 1233.33 469.417 1240.46 Q469.417 1247.56 471.223 1251.13 Q473.051 1254.67 476.662 1254.67 Q480.297 1254.67 482.102 1251.13 Q483.931 1247.56 483.931 1240.46 Q483.931 1233.33 482.102 1229.78 Q480.297 1226.22 476.662 1226.22 M476.662 1222.52 Q482.472 1222.52 485.528 1227.12 Q488.607 1231.71 488.607 1240.46 Q488.607 1249.18 485.528 1253.79 Q482.472 1258.37 476.662 1258.37 Q470.852 1258.37 467.773 1253.79 Q464.718 1249.18 464.718 1240.46 Q464.718 1231.71 467.773 1227.12 Q470.852 1222.52 476.662 1222.52 Z" fill="#000000" fill-rule="evenodd" fill-opacity="1" /><path clip-path="url(#clip970)" d="M724.347 1253.77 L740.667 1253.77 L740.667 1257.7 L718.722 1257.7 L718.722 1253.77 Q721.384 1251.01 725.968 1246.38 Q730.574 1241.73 731.755 1240.39 Q734 1237.86 734.88 1236.13 Q735.782 1234.37 735.782 1232.68 Q735.782 1229.92 733.838 1228.19 Q731.917 1226.45 728.815 1226.45 Q726.616 1226.45 724.162 1227.22 Q721.732 1227.98 718.954 1229.53 L718.954 1224.81 Q721.778 1223.67 724.232 1223.09 Q726.685 1222.52 728.722 1222.52 Q734.093 1222.52 737.287 1225.2 Q740.481 1227.89 740.481 1232.38 Q740.481 1234.51 739.671 1236.43 Q738.884 1238.33 736.778 1240.92 Q736.199 1241.59 733.097 1244.81 Q729.995 1248 724.347 1253.77 Z" fill="#000000" fill-rule="evenodd" fill-opacity="1" /><path clip-path="url(#clip970)" d="M760.481 1226.22 Q756.87 1226.22 755.042 1229.78 Q753.236 1233.33 753.236 1240.46 Q753.236 1247.56 755.042 1251.13 Q756.87 1254.67 760.481 1254.67 Q764.116 1254.67 765.921 1251.13 Q767.75 1247.56 767.75 1240.46 Q767.75 1233.33 765.921 1229.78 Q764.116 1226.22 760.481 1226.22 M760.481 1222.52 Q766.292 1222.52 769.347 1227.12 Q772.426 1231.71 772.426 1240.46 Q772.426 1249.18 769.347 1253.79 Q766.292 1258.37 760.481 1258.37 Q754.671 1258.37 751.593 1253.79 Q748.537 1249.18 748.537 1240.46 Q748.537 1231.71 751.593 1227.12 Q754.671 1222.52 760.481 1222.52 Z" fill="#000000" fill-rule="evenodd" fill-opacity="1" /><path clip-path="url(#clip970)" d="M1017.37 1239.07 Q1020.72 1239.78 1022.6 1242.05 Q1024.5 1244.32 1024.5 1247.65 Q1024.5 1252.77 1020.98 1255.57 Q1017.46 1258.37 1010.98 1258.37 Q1008.8 1258.37 1006.49 1257.93 Q1004.2 1257.52 1001.74 1256.66 L1001.74 1252.15 Q1003.69 1253.28 1006 1253.86 Q1008.32 1254.44 1010.84 1254.44 Q1015.24 1254.44 1017.53 1252.7 Q1019.84 1250.97 1019.84 1247.65 Q1019.84 1244.6 1017.69 1242.89 Q1015.56 1241.15 1011.74 1241.15 L1007.71 1241.15 L1007.71 1237.31 L1011.93 1237.31 Q1015.38 1237.31 1017.21 1235.94 Q1019.03 1234.55 1019.03 1231.96 Q1019.03 1229.3 1017.14 1227.89 Q1015.26 1226.45 1011.74 1226.45 Q1009.82 1226.45 1007.62 1226.87 Q1005.42 1227.28 1002.78 1228.16 L1002.78 1224 Q1005.45 1223.26 1007.76 1222.89 Q1010.1 1222.52 1012.16 1222.52 Q1017.48 1222.52 1020.59 1224.95 Q1023.69 1227.35 1023.69 1231.47 Q1023.69 1234.34 1022.04 1236.34 Q1020.4 1238.3 1017.37 1239.07 Z" fill="#000000" fill-rule="evenodd" fill-opacity="1" /><path clip-path="url(#clip970)" d="M1043.36 1226.22 Q1039.75 1226.22 1037.92 1229.78 Q1036.12 1233.33 1036.12 1240.46 Q1036.12 1247.56 1037.92 1251.13 Q1039.75 1254.67 1043.36 1254.67 Q1047 1254.67 1048.8 1251.13 Q1050.63 1247.56 1050.63 1240.46 Q1050.63 1233.33 1048.8 1229.78 Q1047 1226.22 1043.36 1226.22 M1043.36 1222.52 Q1049.17 1222.52 1052.23 1227.12 Q1055.31 1231.71 1055.31 1240.46 Q1055.31 1249.18 1052.23 1253.79 Q1049.17 1258.37 1043.36 1258.37 Q1037.55 1258.37 1034.47 1253.79 Q1031.42 1249.18 1031.42 1240.46 Q1031.42 1231.71 1034.47 1227.12 Q1037.55 1222.52 1043.36 1222.52 Z" fill="#000000" fill-rule="evenodd" fill-opacity="1" /><path clip-path="url(#clip970)" d="M1299.65 1227.22 L1287.84 1245.66 L1299.65 1245.66 L1299.65 1227.22 M1298.42 1223.14 L1304.3 1223.14 L1304.3 1245.66 L1309.23 1245.66 L1309.23 1249.55 L1304.3 1249.55 L1304.3 1257.7 L1299.65 1257.7 L1299.65 1249.55 L1284.05 1249.55 L1284.05 1245.04 L1298.42 1223.14 Z" fill="#000000" fill-rule="evenodd" fill-opacity="1" /><path clip-path="url(#clip970)" d="M1326.96 1226.22 Q1323.35 1226.22 1321.52 1229.78 Q1319.72 1233.33 1319.72 1240.46 Q1319.72 1247.56 1321.52 1251.13 Q1323.35 1254.67 1326.96 1254.67 Q1330.6 1254.67 1332.4 1251.13 Q1334.23 1247.56 1334.23 1240.46 Q1334.23 1233.33 1332.4 1229.78 Q1330.6 1226.22 1326.96 1226.22 M1326.96 1222.52 Q1332.77 1222.52 1335.83 1227.12 Q1338.91 1231.71 1338.91 1240.46 Q1338.91 1249.18 1335.83 1253.79 Q1332.77 1258.37 1326.96 1258.37 Q1321.15 1258.37 1318.07 1253.79 Q1315.02 1249.18 1315.02 1240.46 Q1315.02 1231.71 1318.07 1227.12 Q1321.15 1222.52 1326.96 1222.52 Z" fill="#000000" fill-rule="evenodd" fill-opacity="1" /><polyline clip-path="url(#clip973)" style="stroke:#000000; stroke-linecap:butt; stroke-linejoin:round; stroke-width:2; stroke-opacity:0.1; fill:none" points="
  152.492,1177.67 1552.76,1177.67 
  "/>
<polyline clip-path="url(#clip973)" style="stroke:#000000; stroke-linecap:butt; stroke-linejoin:round; stroke-width:2; stroke-opacity:0.1; fill:none" points="
  152.492,1103.85 1552.76,1103.85 
  "/>
<polyline clip-path="url(#clip973)" style="stroke:#000000; stroke-linecap:butt; stroke-linejoin:round; stroke-width:2; stroke-opacity:0.1; fill:none" points="
  152.492,1030.03 1552.76,1030.03 
  "/>
<polyline clip-path="url(#clip973)" style="stroke:#000000; stroke-linecap:butt; stroke-linejoin:round; stroke-width:2; stroke-opacity:0.1; fill:none" points="
  152.492,956.206 1552.76,956.206 
  "/>
<polyline clip-path="url(#clip973)" style="stroke:#000000; stroke-linecap:butt; stroke-linejoin:round; stroke-width:2; stroke-opacity:0.1; fill:none" points="
  152.492,882.385 1552.76,882.385 
  "/>
<polyline clip-path="url(#clip973)" style="stroke:#000000; stroke-linecap:butt; stroke-linejoin:round; stroke-width:2; stroke-opacity:0.1; fill:none" points="
  152.492,808.564 1552.76,808.564 
  "/>
<polyline clip-path="url(#clip973)" style="stroke:#000000; stroke-linecap:butt; stroke-linejoin:round; stroke-width:2; stroke-opacity:0.1; fill:none" points="
  152.492,734.743 1552.76,734.743 
  "/>
<polyline clip-path="url(#clip970)" style="stroke:#000000; stroke-linecap:butt; stroke-linejoin:round; stroke-width:4; stroke-opacity:1; fill:none" points="
  152.492,1198.5 152.492,713.911 
  "/>
<polyline clip-path="url(#clip970)" style="stroke:#000000; stroke-linecap:butt; stroke-linejoin:round; stroke-width:4; stroke-opacity:1; fill:none" points="
  152.492,1177.67 171.389,1177.67 
  "/>
<polyline clip-path="url(#clip970)" style="stroke:#000000; stroke-linecap:butt; stroke-linejoin:round; stroke-width:4; stroke-opacity:1; fill:none" points="
  152.492,1103.85 171.389,1103.85 
  "/>
<polyline clip-path="url(#clip970)" style="stroke:#000000; stroke-linecap:butt; stroke-linejoin:round; stroke-width:4; stroke-opacity:1; fill:none" points="
  152.492,1030.03 171.389,1030.03 
  "/>
<polyline clip-path="url(#clip970)" style="stroke:#000000; stroke-linecap:butt; stroke-linejoin:round; stroke-width:4; stroke-opacity:1; fill:none" points="
  152.492,956.206 171.389,956.206 
  "/>
<polyline clip-path="url(#clip970)" style="stroke:#000000; stroke-linecap:butt; stroke-linejoin:round; stroke-width:4; stroke-opacity:1; fill:none" points="
  152.492,882.385 171.389,882.385 
  "/>
<polyline clip-path="url(#clip970)" style="stroke:#000000; stroke-linecap:butt; stroke-linejoin:round; stroke-width:4; stroke-opacity:1; fill:none" points="
  152.492,808.564 171.389,808.564 
  "/>
<polyline clip-path="url(#clip970)" style="stroke:#000000; stroke-linecap:butt; stroke-linejoin:round; stroke-width:4; stroke-opacity:1; fill:none" points="
  152.492,734.743 171.389,734.743 
  "/>
<path clip-path="url(#clip970)" d="M31.6126 1178.12 L61.2884 1178.12 L61.2884 1182.06 L31.6126 1182.06 L31.6126 1178.12 Z" fill="#000000" fill-rule="evenodd" fill-opacity="1" /><path clip-path="url(#clip970)" d="M72.1911 1191.01 L79.8299 1191.01 L79.8299 1164.65 L71.5198 1166.31 L71.5198 1162.06 L79.7836 1160.39 L84.4595 1160.39 L84.4595 1191.01 L92.0984 1191.01 L92.0984 1194.95 L72.1911 1194.95 L72.1911 1191.01 Z" fill="#000000" fill-rule="evenodd" fill-opacity="1" /><path clip-path="url(#clip970)" d="M101.589 1160.39 L119.945 1160.39 L119.945 1164.32 L105.871 1164.32 L105.871 1172.8 Q106.89 1172.45 107.908 1172.29 Q108.927 1172.1 109.946 1172.1 Q115.733 1172.1 119.112 1175.27 Q122.492 1178.44 122.492 1183.86 Q122.492 1189.44 119.02 1192.54 Q115.547 1195.62 109.228 1195.62 Q107.052 1195.62 104.783 1195.25 Q102.538 1194.88 100.131 1194.14 L100.131 1189.44 Q102.214 1190.57 104.436 1191.13 Q106.658 1191.69 109.135 1191.69 Q113.14 1191.69 115.478 1189.58 Q117.816 1187.47 117.816 1183.86 Q117.816 1180.25 115.478 1178.14 Q113.14 1176.04 109.135 1176.04 Q107.26 1176.04 105.385 1176.45 Q103.534 1176.87 101.589 1177.75 L101.589 1160.39 Z" fill="#000000" fill-rule="evenodd" fill-opacity="1" /><path clip-path="url(#clip970)" d="M30.6172 1104.3 L60.293 1104.3 L60.293 1108.23 L30.6172 1108.23 L30.6172 1104.3 Z" fill="#000000" fill-rule="evenodd" fill-opacity="1" /><path clip-path="url(#clip970)" d="M71.1957 1117.19 L78.8346 1117.19 L78.8346 1090.83 L70.5244 1092.49 L70.5244 1088.23 L78.7883 1086.57 L83.4642 1086.57 L83.4642 1117.19 L91.103 1117.19 L91.103 1121.13 L71.1957 1121.13 L71.1957 1117.19 Z" fill="#000000" fill-rule="evenodd" fill-opacity="1" /><path clip-path="url(#clip970)" d="M110.547 1089.65 Q106.936 1089.65 105.108 1093.21 Q103.302 1096.75 103.302 1103.88 Q103.302 1110.99 105.108 1114.55 Q106.936 1118.1 110.547 1118.1 Q114.182 1118.1 115.987 1114.55 Q117.816 1110.99 117.816 1103.88 Q117.816 1096.75 115.987 1093.21 Q114.182 1089.65 110.547 1089.65 M110.547 1085.94 Q116.358 1085.94 119.413 1090.55 Q122.492 1095.13 122.492 1103.88 Q122.492 1112.61 119.413 1117.22 Q116.358 1121.8 110.547 1121.8 Q104.737 1121.8 101.659 1117.22 Q98.603 1112.61 98.603 1103.88 Q98.603 1095.13 101.659 1090.55 Q104.737 1085.94 110.547 1085.94 Z" fill="#000000" fill-rule="evenodd" fill-opacity="1" /><path clip-path="url(#clip970)" d="M61.7745 1030.48 L91.4502 1030.48 L91.4502 1034.41 L61.7745 1034.41 L61.7745 1030.48 Z" fill="#000000" fill-rule="evenodd" fill-opacity="1" /><path clip-path="url(#clip970)" d="M101.589 1012.75 L119.945 1012.75 L119.945 1016.68 L105.871 1016.68 L105.871 1025.15 Q106.89 1024.81 107.908 1024.65 Q108.927 1024.46 109.946 1024.46 Q115.733 1024.46 119.112 1027.63 Q122.492 1030.8 122.492 1036.22 Q122.492 1041.8 119.02 1044.9 Q115.547 1047.98 109.228 1047.98 Q107.052 1047.98 104.783 1047.61 Q102.538 1047.24 100.131 1046.5 L100.131 1041.8 Q102.214 1042.93 104.436 1043.49 Q106.658 1044.04 109.135 1044.04 Q113.14 1044.04 115.478 1041.94 Q117.816 1039.83 117.816 1036.22 Q117.816 1032.61 115.478 1030.5 Q113.14 1028.4 109.135 1028.4 Q107.26 1028.4 105.385 1028.81 Q103.534 1029.23 101.589 1030.11 L101.589 1012.75 Z" fill="#000000" fill-rule="evenodd" fill-opacity="1" /><path clip-path="url(#clip970)" d="M110.547 942.005 Q106.936 942.005 105.108 945.569 Q103.302 949.111 103.302 956.241 Q103.302 963.347 105.108 966.912 Q106.936 970.454 110.547 970.454 Q114.182 970.454 115.987 966.912 Q117.816 963.347 117.816 956.241 Q117.816 949.111 115.987 945.569 Q114.182 942.005 110.547 942.005 M110.547 938.301 Q116.358 938.301 119.413 942.907 Q122.492 947.491 122.492 956.241 Q122.492 964.968 119.413 969.574 Q116.358 974.157 110.547 974.157 Q104.737 974.157 101.659 969.574 Q98.603 964.968 98.603 956.241 Q98.603 947.491 101.659 942.907 Q104.737 938.301 110.547 938.301 Z" fill="#000000" fill-rule="evenodd" fill-opacity="1" /><path clip-path="url(#clip970)" d="M101.589 865.105 L119.945 865.105 L119.945 869.04 L105.871 869.04 L105.871 877.512 Q106.89 877.165 107.908 877.003 Q108.927 876.818 109.946 876.818 Q115.733 876.818 119.112 879.989 Q122.492 883.16 122.492 888.577 Q122.492 894.156 119.02 897.258 Q115.547 900.336 109.228 900.336 Q107.052 900.336 104.783 899.966 Q102.538 899.596 100.131 898.855 L100.131 894.156 Q102.214 895.29 104.436 895.846 Q106.658 896.401 109.135 896.401 Q113.14 896.401 115.478 894.295 Q117.816 892.188 117.816 888.577 Q117.816 884.966 115.478 882.86 Q113.14 880.753 109.135 880.753 Q107.26 880.753 105.385 881.17 Q103.534 881.586 101.589 882.466 L101.589 865.105 Z" fill="#000000" fill-rule="evenodd" fill-opacity="1" /><path clip-path="url(#clip970)" d="M71.1957 821.909 L78.8346 821.909 L78.8346 795.543 L70.5244 797.21 L70.5244 792.951 L78.7883 791.284 L83.4642 791.284 L83.4642 821.909 L91.103 821.909 L91.103 825.844 L71.1957 825.844 L71.1957 821.909 Z" fill="#000000" fill-rule="evenodd" fill-opacity="1" /><path clip-path="url(#clip970)" d="M110.547 794.363 Q106.936 794.363 105.108 797.928 Q103.302 801.469 103.302 808.599 Q103.302 815.705 105.108 819.27 Q106.936 822.812 110.547 822.812 Q114.182 822.812 115.987 819.27 Q117.816 815.705 117.816 808.599 Q117.816 801.469 115.987 797.928 Q114.182 794.363 110.547 794.363 M110.547 790.659 Q116.358 790.659 119.413 795.265 Q122.492 799.849 122.492 808.599 Q122.492 817.326 119.413 821.932 Q116.358 826.515 110.547 826.515 Q104.737 826.515 101.659 821.932 Q98.603 817.326 98.603 808.599 Q98.603 799.849 101.659 795.265 Q104.737 790.659 110.547 790.659 Z" fill="#000000" fill-rule="evenodd" fill-opacity="1" /><path clip-path="url(#clip970)" d="M72.1911 748.088 L79.8299 748.088 L79.8299 721.722 L71.5198 723.389 L71.5198 719.13 L79.7836 717.463 L84.4595 717.463 L84.4595 748.088 L92.0984 748.088 L92.0984 752.023 L72.1911 752.023 L72.1911 748.088 Z" fill="#000000" fill-rule="evenodd" fill-opacity="1" /><path clip-path="url(#clip970)" d="M101.589 717.463 L119.945 717.463 L119.945 721.398 L105.871 721.398 L105.871 729.87 Q106.89 729.523 107.908 729.361 Q108.927 729.176 109.946 729.176 Q115.733 729.176 119.112 732.347 Q122.492 735.518 122.492 740.935 Q122.492 746.514 119.02 749.616 Q115.547 752.694 109.228 752.694 Q107.052 752.694 104.783 752.324 Q102.538 751.954 100.131 751.213 L100.131 746.514 Q102.214 747.648 104.436 748.204 Q106.658 748.759 109.135 748.759 Q113.14 748.759 115.478 746.653 Q117.816 744.546 117.816 740.935 Q117.816 737.324 115.478 735.218 Q113.14 733.111 109.135 733.111 Q107.26 733.111 105.385 733.528 Q103.534 733.944 101.589 734.824 L101.589 717.463 Z" fill="#000000" fill-rule="evenodd" fill-opacity="1" /><path clip-path="url(#clip973)" d="
M192.122 963.274 L201.459 973.933 L210.985 963.687 L220.417 960.377 L229.754 966.802 L239.28 965.331 L248.712 961.083 L258.049 973.865 L267.67 963.939 L277.007 987.146 
  L286.345 985.194 L295.965 985.661 L305.868 983.574 L317.658 981.893 L329.353 976.523 L341.237 967.918 L353.027 970.683 L364.722 980.811 L376.606 998.821 L388.396 966.728 
  L400.091 970.827 L411.975 1003.17 L423.859 970.715 L435.46 980.345 L447.344 1003.25 L459.228 992.186 L471.017 1007.13 L482.713 1014.06 L494.596 998.423 L506.386 982.686 
  L518.081 991.45 L529.965 962.3 L541.755 985.189 L553.45 974.394 L565.334 972.25 L577.218 974.485 L588.913 964.085 L600.703 985.918 L612.587 993.5 L624.377 1009.95 
  L636.072 994.079 L647.956 1002.15 L659.84 1010.83 L671.629 986.582 L683.325 973.372 L695.209 975.709 L707.093 994.283 L719.543 973.078 L732.181 977.06 L744.914 980.889 
  L757.458 1021.82 L770.191 989.257 L782.924 990.22 L795.656 998.011 L808.389 994.792 L821.122 995.335 L833.855 1013.63 L846.493 985.461 L860.452 994.182 L874.883 1038.72 
  L889.407 1044.04 L903.932 1062.96 L918.363 1075.83 L932.888 1067.81 L947.318 1050.91 L961.843 1051.44 L976.368 1021.6 L990.893 1022.9 L1007.96 997.017 L1023.15 1028.65 
  L1038.43 1032.23 L1053.61 1035 L1068.8 1030.2 L1083.98 1021.42 L1099.26 1065.4 L1114.54 1098.94 L1129.82 1092.62 L1145.1 1021.1 L1160.38 1050.09 L1175.94 984.987 
  L1191.22 1008.73 L1206.5 1046.9 L1221.78 1046.72 L1237.06 1087.79 L1252.34 1065 L1267.62 1090.07 L1282.8 1018.25 L1298.08 980.869 L1313.46 1029.57 L1328.64 1042.73 
  L1344.02 1032.36 L1359.29 1074.24 L1374.57 1081.94 L1389.85 1100.36 L1405.13 1135.76 L1420.7 1116.34 L1435.97 1149.11 L1451.35 1163.63 L1466.82 1181.38 L1482.1 1184.79 
  L1497.66 1144.3 L1513.13 1174.11 L1513.13 738.306 L1497.66 768.111 L1482.1 727.626 L1466.82 731.036 L1451.35 748.783 L1435.97 763.304 L1420.7 796.076 L1405.13 776.652 
  L1389.85 812.055 L1374.57 830.468 L1359.29 838.169 L1344.02 880.048 L1328.64 869.682 L1313.46 882.838 L1298.08 931.543 L1282.8 894.162 L1267.62 822.344 L1252.34 847.413 
  L1237.06 824.62 L1221.78 865.696 L1206.5 865.511 L1191.22 903.683 L1175.94 927.425 L1160.38 862.326 L1145.1 891.313 L1129.82 819.787 L1114.54 813.467 L1099.26 847.008 
  L1083.98 890.989 L1068.8 882.207 L1053.61 877.412 L1038.43 880.184 L1023.15 883.765 L1007.96 915.395 L990.893 889.51 L976.368 890.81 L961.843 860.971 L947.318 861.507 
  L932.888 844.607 L918.363 836.579 L903.932 849.448 L889.407 868.376 L874.883 873.688 L860.452 918.23 L846.493 926.951 L833.855 898.784 L821.122 917.077 L808.389 917.62 
  L795.656 914.401 L782.924 922.192 L770.191 923.155 L757.458 890.589 L744.914 931.523 L732.181 935.352 L719.543 939.334 L707.093 918.129 L695.209 936.703 L683.325 939.04 
  L671.629 925.83 L659.84 901.578 L647.956 910.26 L636.072 918.333 L624.377 902.457 L612.587 918.912 L600.703 926.494 L588.913 948.327 L577.218 937.927 L565.334 940.162 
  L553.45 938.017 L541.755 927.223 L529.965 950.112 L518.081 920.962 L506.386 929.726 L494.596 913.989 L482.713 898.351 L471.017 905.286 L459.228 920.226 L447.344 909.16 
  L435.46 932.067 L423.859 941.697 L411.975 909.239 L400.091 941.585 L388.396 945.684 L376.606 913.591 L364.722 931.601 L353.027 941.729 L341.237 944.494 L329.353 935.889 
  L317.658 930.519 L305.868 928.838 L295.965 926.751 L286.345 927.218 L277.007 925.266 L267.67 948.473 L258.049 938.547 L248.712 951.329 L239.28 947.081 L229.754 945.61 
  L220.417 952.035 L210.985 948.725 L201.459 938.479 L192.122 949.138  Z
  " fill="#000000" fill-rule="evenodd" fill-opacity="0.2"/>
<polyline clip-path="url(#clip973)" style="stroke:#000000; stroke-linecap:butt; stroke-linejoin:round; stroke-width:4; stroke-opacity:0; fill:none" points="
  192.122,956.206 201.459,956.206 210.985,956.206 220.417,956.206 229.754,956.206 239.28,956.206 248.712,956.206 258.049,956.206 267.67,956.206 277.007,956.206 
  286.345,956.206 295.965,956.206 305.868,956.206 317.658,956.206 329.353,956.206 341.237,956.206 353.027,956.206 364.722,956.206 376.606,956.206 388.396,956.206 
  400.091,956.206 411.975,956.206 423.859,956.206 435.46,956.206 447.344,956.206 459.228,956.206 471.017,956.206 482.713,956.206 494.596,956.206 506.386,956.206 
  518.081,956.206 529.965,956.206 541.755,956.206 553.45,956.206 565.334,956.206 577.218,956.206 588.913,956.206 600.703,956.206 612.587,956.206 624.377,956.206 
  636.072,956.206 647.956,956.206 659.84,956.206 671.629,956.206 683.325,956.206 695.209,956.206 707.093,956.206 719.543,956.206 732.181,956.206 744.914,956.206 
  757.458,956.206 770.191,956.206 782.924,956.206 795.656,956.206 808.389,956.206 821.122,956.206 833.855,956.206 846.493,956.206 860.452,956.206 874.883,956.206 
  889.407,956.206 903.932,956.206 918.363,956.206 932.888,956.206 947.318,956.206 961.843,956.206 976.368,956.206 990.893,956.206 1007.96,956.206 1023.15,956.206 
  1038.43,956.206 1053.61,956.206 1068.8,956.206 1083.98,956.206 1099.26,956.206 1114.54,956.206 1129.82,956.206 1145.1,956.206 1160.38,956.206 1175.94,956.206 
  1191.22,956.206 1206.5,956.206 1221.78,956.206 1237.06,956.206 1252.34,956.206 1267.62,956.206 1282.8,956.206 1298.08,956.206 1313.46,956.206 1328.64,956.206 
  1344.02,956.206 1359.29,956.206 1374.57,956.206 1389.85,956.206 1405.13,956.206 1420.7,956.206 1435.97,956.206 1451.35,956.206 1466.82,956.206 1482.1,956.206 
  1497.66,956.206 1513.13,956.206 
  "/>
<polyline clip-path="url(#clip973)" style="stroke:#e26f46; stroke-linecap:butt; stroke-linejoin:round; stroke-width:12; stroke-opacity:1; fill:none" points="
  192.122,977.752 201.459,981.088 210.985,977.874 220.417,967.286 229.754,971.559 239.28,974.01 248.712,972.958 258.049,988.798 267.67,969.396 277.007,976.182 
  286.345,989.896 295.965,988.92 305.868,987.026 317.658,985.205 329.353,995.662 341.237,1009.82 353.027,1001.71 364.722,1013.81 376.606,996.543 388.396,996.798 
  400.091,996.335 411.975,996.883 423.859,1008.34 435.46,1011.9 447.344,995.541 459.228,1017.83 471.017,1007.8 482.713,991.265 494.596,1013.82 506.386,1026.39 
  518.081,1040.79 529.965,1015 541.755,1056.05 553.45,1034.73 565.334,1050.14 577.218,1041.11 588.913,1031.17 600.703,1014.11 612.587,996.578 624.377,1003.16 
  636.072,989.358 647.956,1004.81 659.84,967.841 671.629,974.941 683.325,950.273 695.209,947.962 707.093,930.434 719.543,905.092 732.181,892.457 744.914,907.124 
  757.458,925.008 770.191,951.676 782.924,953.309 795.656,970.261 808.389,941.784 821.122,944.129 833.855,935.456 846.493,938.07 860.452,932.283 874.883,969.851 
  889.407,969.079 903.932,973.841 918.363,954.782 932.888,967.809 947.318,913.687 961.843,906.467 976.368,923.83 990.893,1001.3 1007.96,956.452 1023.15,1014.52 
  1038.43,952.243 1053.61,964.281 1068.8,963.839 1083.98,943.554 1099.26,924.077 1114.54,903.956 1129.82,912.873 1145.1,886.467 1160.38,890.079 1175.94,899.974 
  1191.22,919.917 1206.5,975.655 1221.78,983.677 1237.06,982.097 1252.34,980.62 1267.62,894.812 1282.8,1002.91 1298.08,1013.3 1313.46,978.03 1328.64,956.129 
  1344.02,1020.14 1359.29,1051.65 1374.57,1038.62 1389.85,1039.53 1405.13,946.328 1420.7,985.7 1435.97,1034.48 1451.35,1042.98 1466.82,989.436 1482.1,942.711 
  1497.66,917.799 1513.13,919.989 
  "/>
<polyline clip-path="url(#clip973)" style="stroke:#e26f46; stroke-linecap:butt; stroke-linejoin:round; stroke-width:12; stroke-opacity:1; fill:none" stroke-dasharray="48, 30" points="
  192.122,977.743 201.459,981.071 210.985,977.848 220.417,967.249 229.754,971.507 239.28,973.941 248.712,972.869 258.049,988.685 267.67,969.254 277.007,976.007 
  286.345,989.683 295.965,988.66 305.868,986.711 317.658,984.809 329.353,995.171 341.237,1009.22 353.027,1000.96 364.722,1012.9 376.606,995.427 388.396,995.443 
  400.091,994.697 411.975,994.903 423.859,1005.95 435.46,1009.04 447.344,992.107 459.228,1013.72 471.017,1002.89 482.713,985.415 494.596,1006.84 506.386,1018.1 
  518.081,1030.95 529.965,1003.33 541.755,1042.23 553.45,1018.39 565.334,1030.79 577.218,1018.23 588.913,1004.21 600.703,982.326 612.587,959.092 624.377,959.022 
  636.072,937.49 647.956,943.755 659.84,897.365 671.629,900.326 683.325,877.557 695.209,881.15 707.093,871.486 719.543,854.402 732.181,849.347 744.914,871.498 
  757.458,896.456 770.191,929.979 782.924,938.142 795.656,961.304 808.389,938.723 821.122,946.654 833.855,943.263 846.493,950.823 860.452,950.16 874.883,992.66 
  889.407,996.48 903.932,1005.47 918.363,990.256 932.888,1006.8 947.318,955.835 961.843,951.452 976.368,971.318 990.893,1050.96 1007.96,1008.26 1023.15,1067.88 
  1038.43,1006.82 1053.61,1019.73 1068.8,1019.84 1083.98,999.79 1099.26,980.235 1114.54,959.727 1129.82,967.955 1145.1,940.562 1160.38,942.898 1175.94,951.199 
  1191.22,969.297 1206.5,1022.92 1221.78,1028.55 1237.06,1024.32 1252.34,1019.94 1267.62,930.975 1282.8,1035.69 1298.08,1042.44 1313.46,1003.27 1328.64,977.28 
  1344.02,1036.93 1359.29,1063.88 1374.57,1046.08 1389.85,1042 1405.13,943.606 1420.7,977.483 1435.97,1020.66 1451.35,1023.34 1466.82,963.744 1482.1,910.853 
  1497.66,879.476 1513.13,875.059 
  "/>
<path clip-path="url(#clip970)" d="
M152.492 1865.17 L1552.76 1865.17 L1552.76 1380.58 L152.492 1380.58  Z
  " fill="#ffffff" fill-rule="evenodd" fill-opacity="1"/>
<defs>
  <clipPath id="clip974">
    <rect x="152" y="1380" width="1401" height="486"/>
  </clipPath>
</defs>
<polyline clip-path="url(#clip974)" style="stroke:#000000; stroke-linecap:butt; stroke-linejoin:round; stroke-width:2; stroke-opacity:0.1; fill:none" points="
  183.567,1865.17 183.567,1380.58 
  "/>
<polyline clip-path="url(#clip974)" style="stroke:#000000; stroke-linecap:butt; stroke-linejoin:round; stroke-width:2; stroke-opacity:0.1; fill:none" points="
  462.534,1865.17 462.534,1380.58 
  "/>
<polyline clip-path="url(#clip974)" style="stroke:#000000; stroke-linecap:butt; stroke-linejoin:round; stroke-width:2; stroke-opacity:0.1; fill:none" points="
  741.502,1865.17 741.502,1380.58 
  "/>
<polyline clip-path="url(#clip974)" style="stroke:#000000; stroke-linecap:butt; stroke-linejoin:round; stroke-width:2; stroke-opacity:0.1; fill:none" points="
  1020.47,1865.17 1020.47,1380.58 
  "/>
<polyline clip-path="url(#clip974)" style="stroke:#000000; stroke-linecap:butt; stroke-linejoin:round; stroke-width:2; stroke-opacity:0.1; fill:none" points="
  1299.44,1865.17 1299.44,1380.58 
  "/>
<polyline clip-path="url(#clip970)" style="stroke:#000000; stroke-linecap:butt; stroke-linejoin:round; stroke-width:4; stroke-opacity:1; fill:none" points="
  152.492,1865.17 1552.76,1865.17 
  "/>
<polyline clip-path="url(#clip970)" style="stroke:#000000; stroke-linecap:butt; stroke-linejoin:round; stroke-width:4; stroke-opacity:1; fill:none" points="
  183.567,1865.17 183.567,1846.27 
  "/>
<polyline clip-path="url(#clip970)" style="stroke:#000000; stroke-linecap:butt; stroke-linejoin:round; stroke-width:4; stroke-opacity:1; fill:none" points="
  462.534,1865.17 462.534,1846.27 
  "/>
<polyline clip-path="url(#clip970)" style="stroke:#000000; stroke-linecap:butt; stroke-linejoin:round; stroke-width:4; stroke-opacity:1; fill:none" points="
  741.502,1865.17 741.502,1846.27 
  "/>
<polyline clip-path="url(#clip970)" style="stroke:#000000; stroke-linecap:butt; stroke-linejoin:round; stroke-width:4; stroke-opacity:1; fill:none" points="
  1020.47,1865.17 1020.47,1846.27 
  "/>
<polyline clip-path="url(#clip970)" style="stroke:#000000; stroke-linecap:butt; stroke-linejoin:round; stroke-width:4; stroke-opacity:1; fill:none" points="
  1299.44,1865.17 1299.44,1846.27 
  "/>
<path clip-path="url(#clip970)" d="M183.567 1892.89 Q179.956 1892.89 178.127 1896.45 Q176.322 1899.99 176.322 1907.12 Q176.322 1914.23 178.127 1917.79 Q179.956 1921.34 183.567 1921.34 Q187.201 1921.34 189.007 1917.79 Q190.835 1914.23 190.835 1907.12 Q190.835 1899.99 189.007 1896.45 Q187.201 1892.89 183.567 1892.89 M183.567 1889.18 Q189.377 1889.18 192.433 1893.79 Q195.511 1898.37 195.511 1907.12 Q195.511 1915.85 192.433 1920.46 Q189.377 1925.04 183.567 1925.04 Q177.757 1925.04 174.678 1920.46 Q171.622 1915.85 171.622 1907.12 Q171.622 1898.37 174.678 1893.79 Q177.757 1889.18 183.567 1889.18 Z" fill="#000000" fill-rule="evenodd" fill-opacity="1" /><path clip-path="url(#clip970)" d="M437.222 1920.43 L444.861 1920.43 L444.861 1894.07 L436.551 1895.73 L436.551 1891.47 L444.815 1889.81 L449.49 1889.81 L449.49 1920.43 L457.129 1920.43 L457.129 1924.37 L437.222 1924.37 L437.222 1920.43 Z" fill="#000000" fill-rule="evenodd" fill-opacity="1" /><path clip-path="url(#clip970)" d="M476.574 1892.89 Q472.962 1892.89 471.134 1896.45 Q469.328 1899.99 469.328 1907.12 Q469.328 1914.23 471.134 1917.79 Q472.962 1921.34 476.574 1921.34 Q480.208 1921.34 482.013 1917.79 Q483.842 1914.23 483.842 1907.12 Q483.842 1899.99 482.013 1896.45 Q480.208 1892.89 476.574 1892.89 M476.574 1889.18 Q482.384 1889.18 485.439 1893.79 Q488.518 1898.37 488.518 1907.12 Q488.518 1915.85 485.439 1920.46 Q482.384 1925.04 476.574 1925.04 Q470.763 1925.04 467.685 1920.46 Q464.629 1915.85 464.629 1907.12 Q464.629 1898.37 467.685 1893.79 Q470.763 1889.18 476.574 1889.18 Z" fill="#000000" fill-rule="evenodd" fill-opacity="1" /><path clip-path="url(#clip970)" d="M720.275 1920.43 L736.594 1920.43 L736.594 1924.37 L714.65 1924.37 L714.65 1920.43 Q717.312 1917.68 721.895 1913.05 Q726.502 1908.4 727.682 1907.05 Q729.928 1904.53 730.807 1902.79 Q731.71 1901.03 731.71 1899.34 Q731.71 1896.59 729.766 1894.85 Q727.844 1893.12 724.743 1893.12 Q722.544 1893.12 720.09 1893.88 Q717.659 1894.65 714.882 1896.2 L714.882 1891.47 Q717.706 1890.34 720.159 1889.76 Q722.613 1889.18 724.65 1889.18 Q730.02 1889.18 733.215 1891.87 Q736.409 1894.55 736.409 1899.04 Q736.409 1901.17 735.599 1903.09 Q734.812 1904.99 732.706 1907.59 Q732.127 1908.26 729.025 1911.47 Q725.923 1914.67 720.275 1920.43 Z" fill="#000000" fill-rule="evenodd" fill-opacity="1" /><path clip-path="url(#clip970)" d="M756.409 1892.89 Q752.798 1892.89 750.969 1896.45 Q749.164 1899.99 749.164 1907.12 Q749.164 1914.23 750.969 1917.79 Q752.798 1921.34 756.409 1921.34 Q760.043 1921.34 761.849 1917.79 Q763.678 1914.23 763.678 1907.12 Q763.678 1899.99 761.849 1896.45 Q760.043 1892.89 756.409 1892.89 M756.409 1889.18 Q762.219 1889.18 765.275 1893.79 Q768.353 1898.37 768.353 1907.12 Q768.353 1915.85 765.275 1920.46 Q762.219 1925.04 756.409 1925.04 Q750.599 1925.04 747.52 1920.46 Q744.465 1915.85 744.465 1907.12 Q744.465 1898.37 747.52 1893.79 Q750.599 1889.18 756.409 1889.18 Z" fill="#000000" fill-rule="evenodd" fill-opacity="1" /><path clip-path="url(#clip970)" d="M1009.31 1905.73 Q1012.67 1906.45 1014.54 1908.72 Q1016.44 1910.99 1016.44 1914.32 Q1016.44 1919.44 1012.92 1922.24 Q1009.4 1925.04 1002.92 1925.04 Q1000.75 1925.04 998.432 1924.6 Q996.141 1924.18 993.687 1923.33 L993.687 1918.81 Q995.631 1919.95 997.946 1920.53 Q1000.26 1921.1 1002.78 1921.1 Q1007.18 1921.1 1009.47 1919.37 Q1011.79 1917.63 1011.79 1914.32 Q1011.79 1911.27 1009.64 1909.55 Q1007.51 1907.82 1003.69 1907.82 L999.659 1907.82 L999.659 1903.97 L1003.87 1903.97 Q1007.32 1903.97 1009.15 1902.61 Q1010.98 1901.22 1010.98 1898.63 Q1010.98 1895.97 1009.08 1894.55 Q1007.21 1893.12 1003.69 1893.12 Q1001.77 1893.12 999.567 1893.53 Q997.368 1893.95 994.729 1894.83 L994.729 1890.66 Q997.391 1889.92 999.705 1889.55 Q1002.04 1889.18 1004.1 1889.18 Q1009.43 1889.18 1012.53 1891.61 Q1015.63 1894.02 1015.63 1898.14 Q1015.63 1901.01 1013.99 1903 Q1012.34 1904.97 1009.31 1905.73 Z" fill="#000000" fill-rule="evenodd" fill-opacity="1" /><path clip-path="url(#clip970)" d="M1035.31 1892.89 Q1031.7 1892.89 1029.87 1896.45 Q1028.06 1899.99 1028.06 1907.12 Q1028.06 1914.23 1029.87 1917.79 Q1031.7 1921.34 1035.31 1921.34 Q1038.94 1921.34 1040.75 1917.79 Q1042.58 1914.23 1042.58 1907.12 Q1042.58 1899.99 1040.75 1896.45 Q1038.94 1892.89 1035.31 1892.89 M1035.31 1889.18 Q1041.12 1889.18 1044.17 1893.79 Q1047.25 1898.37 1047.25 1907.12 Q1047.25 1915.85 1044.17 1920.46 Q1041.12 1925.04 1035.31 1925.04 Q1029.5 1925.04 1026.42 1920.46 Q1023.36 1915.85 1023.36 1907.12 Q1023.36 1898.37 1026.42 1893.79 Q1029.5 1889.18 1035.31 1889.18 Z" fill="#000000" fill-rule="evenodd" fill-opacity="1" /><path clip-path="url(#clip970)" d="M1287.61 1893.88 L1275.8 1912.33 L1287.61 1912.33 L1287.61 1893.88 M1286.38 1889.81 L1292.26 1889.81 L1292.26 1912.33 L1297.19 1912.33 L1297.19 1916.22 L1292.26 1916.22 L1292.26 1924.37 L1287.61 1924.37 L1287.61 1916.22 L1272.01 1916.22 L1272.01 1911.71 L1286.38 1889.81 Z" fill="#000000" fill-rule="evenodd" fill-opacity="1" /><path clip-path="url(#clip970)" d="M1314.92 1892.89 Q1311.31 1892.89 1309.48 1896.45 Q1307.68 1899.99 1307.68 1907.12 Q1307.68 1914.23 1309.48 1917.79 Q1311.31 1921.34 1314.92 1921.34 Q1318.56 1921.34 1320.36 1917.79 Q1322.19 1914.23 1322.19 1907.12 Q1322.19 1899.99 1320.36 1896.45 Q1318.56 1892.89 1314.92 1892.89 M1314.92 1889.18 Q1320.73 1889.18 1323.79 1893.79 Q1326.87 1898.37 1326.87 1907.12 Q1326.87 1915.85 1323.79 1920.46 Q1320.73 1925.04 1314.92 1925.04 Q1309.11 1925.04 1306.03 1920.46 Q1302.98 1915.85 1302.98 1907.12 Q1302.98 1898.37 1306.03 1893.79 Q1309.11 1889.18 1314.92 1889.18 Z" fill="#000000" fill-rule="evenodd" fill-opacity="1" /><polyline clip-path="url(#clip974)" style="stroke:#000000; stroke-linecap:butt; stroke-linejoin:round; stroke-width:2; stroke-opacity:0.1; fill:none" points="
  152.492,1798.41 1552.76,1798.41 
  "/>
<polyline clip-path="url(#clip974)" style="stroke:#000000; stroke-linecap:butt; stroke-linejoin:round; stroke-width:2; stroke-opacity:0.1; fill:none" points="
  152.492,1710.64 1552.76,1710.64 
  "/>
<polyline clip-path="url(#clip974)" style="stroke:#000000; stroke-linecap:butt; stroke-linejoin:round; stroke-width:2; stroke-opacity:0.1; fill:none" points="
  152.492,1622.87 1552.76,1622.87 
  "/>
<polyline clip-path="url(#clip974)" style="stroke:#000000; stroke-linecap:butt; stroke-linejoin:round; stroke-width:2; stroke-opacity:0.1; fill:none" points="
  152.492,1535.11 1552.76,1535.11 
  "/>
<polyline clip-path="url(#clip974)" style="stroke:#000000; stroke-linecap:butt; stroke-linejoin:round; stroke-width:2; stroke-opacity:0.1; fill:none" points="
  152.492,1447.34 1552.76,1447.34 
  "/>
<polyline clip-path="url(#clip970)" style="stroke:#000000; stroke-linecap:butt; stroke-linejoin:round; stroke-width:4; stroke-opacity:1; fill:none" points="
  152.492,1865.17 152.492,1380.58 
  "/>
<polyline clip-path="url(#clip970)" style="stroke:#000000; stroke-linecap:butt; stroke-linejoin:round; stroke-width:4; stroke-opacity:1; fill:none" points="
  152.492,1798.41 171.389,1798.41 
  "/>
<polyline clip-path="url(#clip970)" style="stroke:#000000; stroke-linecap:butt; stroke-linejoin:round; stroke-width:4; stroke-opacity:1; fill:none" points="
  152.492,1710.64 171.389,1710.64 
  "/>
<polyline clip-path="url(#clip970)" style="stroke:#000000; stroke-linecap:butt; stroke-linejoin:round; stroke-width:4; stroke-opacity:1; fill:none" points="
  152.492,1622.87 171.389,1622.87 
  "/>
<polyline clip-path="url(#clip970)" style="stroke:#000000; stroke-linecap:butt; stroke-linejoin:round; stroke-width:4; stroke-opacity:1; fill:none" points="
  152.492,1535.11 171.389,1535.11 
  "/>
<polyline clip-path="url(#clip970)" style="stroke:#000000; stroke-linecap:butt; stroke-linejoin:round; stroke-width:4; stroke-opacity:1; fill:none" points="
  152.492,1447.34 171.389,1447.34 
  "/>
<path clip-path="url(#clip970)" d="M60.6171 1798.86 L90.2928 1798.86 L90.2928 1802.79 L60.6171 1802.79 L60.6171 1798.86 Z" fill="#000000" fill-rule="evenodd" fill-opacity="1" /><path clip-path="url(#clip970)" d="M110.964 1796.54 Q107.816 1796.54 105.964 1798.7 Q104.135 1800.85 104.135 1804.6 Q104.135 1808.33 105.964 1810.5 Q107.816 1812.66 110.964 1812.66 Q114.112 1812.66 115.941 1810.5 Q117.793 1808.33 117.793 1804.6 Q117.793 1800.85 115.941 1798.7 Q114.112 1796.54 110.964 1796.54 M120.246 1781.89 L120.246 1786.15 Q118.487 1785.32 116.682 1784.88 Q114.899 1784.44 113.14 1784.44 Q108.51 1784.44 106.057 1787.56 Q103.626 1790.69 103.279 1797.01 Q104.645 1794.99 106.705 1793.93 Q108.765 1792.84 111.242 1792.84 Q116.45 1792.84 119.459 1796.01 Q122.492 1799.16 122.492 1804.6 Q122.492 1809.92 119.344 1813.14 Q116.195 1816.36 110.964 1816.36 Q104.969 1816.36 101.797 1811.78 Q98.6261 1807.17 98.6261 1798.44 Q98.6261 1790.25 102.515 1785.39 Q106.404 1780.5 112.955 1780.5 Q114.714 1780.5 116.496 1780.85 Q118.302 1781.2 120.246 1781.89 Z" fill="#000000" fill-rule="evenodd" fill-opacity="1" /><path clip-path="url(#clip970)" d="M61.4272 1711.09 L91.103 1711.09 L91.103 1715.03 L61.4272 1715.03 L61.4272 1711.09 Z" fill="#000000" fill-rule="evenodd" fill-opacity="1" /><path clip-path="url(#clip970)" d="M115.362 1709.29 Q118.719 1710 120.594 1712.27 Q122.492 1714.54 122.492 1717.87 Q122.492 1722.99 118.973 1725.79 Q115.455 1728.59 108.973 1728.59 Q106.797 1728.59 104.483 1728.15 Q102.191 1727.74 99.7372 1726.88 L99.7372 1722.36 Q101.682 1723.5 103.996 1724.08 Q106.311 1724.66 108.834 1724.66 Q113.233 1724.66 115.524 1722.92 Q117.839 1721.18 117.839 1717.87 Q117.839 1714.82 115.686 1713.11 Q113.557 1711.37 109.737 1711.37 L105.709 1711.37 L105.709 1707.53 L109.922 1707.53 Q113.371 1707.53 115.2 1706.16 Q117.029 1704.77 117.029 1702.18 Q117.029 1699.52 115.131 1698.11 Q113.256 1696.67 109.737 1696.67 Q107.816 1696.67 105.617 1697.09 Q103.418 1697.5 100.779 1698.38 L100.779 1694.22 Q103.441 1693.48 105.756 1693.11 Q108.094 1692.74 110.154 1692.74 Q115.478 1692.74 118.58 1695.17 Q121.682 1697.57 121.682 1701.69 Q121.682 1704.56 120.038 1706.55 Q118.395 1708.52 115.362 1709.29 Z" fill="#000000" fill-rule="evenodd" fill-opacity="1" /><path clip-path="url(#clip970)" d="M110.547 1608.67 Q106.936 1608.67 105.108 1612.24 Q103.302 1615.78 103.302 1622.91 Q103.302 1630.01 105.108 1633.58 Q106.936 1637.12 110.547 1637.12 Q114.182 1637.12 115.987 1633.58 Q117.816 1630.01 117.816 1622.91 Q117.816 1615.78 115.987 1612.24 Q114.182 1608.67 110.547 1608.67 M110.547 1604.97 Q116.358 1604.97 119.413 1609.57 Q122.492 1614.16 122.492 1622.91 Q122.492 1631.63 119.413 1636.24 Q116.358 1640.82 110.547 1640.82 Q104.737 1640.82 101.659 1636.24 Q98.603 1631.63 98.603 1622.91 Q98.603 1614.16 101.659 1609.57 Q104.737 1604.97 110.547 1604.97 Z" fill="#000000" fill-rule="evenodd" fill-opacity="1" /><path clip-path="url(#clip970)" d="M115.362 1533.75 Q118.719 1534.47 120.594 1536.74 Q122.492 1539.01 122.492 1542.34 Q122.492 1547.45 118.973 1550.26 Q115.455 1553.06 108.973 1553.06 Q106.797 1553.06 104.483 1552.62 Q102.191 1552.2 99.7372 1551.34 L99.7372 1546.83 Q101.682 1547.96 103.996 1548.54 Q106.311 1549.12 108.834 1549.12 Q113.233 1549.12 115.524 1547.39 Q117.839 1545.65 117.839 1542.34 Q117.839 1539.28 115.686 1537.57 Q113.557 1535.83 109.737 1535.83 L105.709 1535.83 L105.709 1531.99 L109.922 1531.99 Q113.371 1531.99 115.2 1530.63 Q117.029 1529.24 117.029 1526.64 Q117.029 1523.98 115.131 1522.57 Q113.256 1521.14 109.737 1521.14 Q107.816 1521.14 105.617 1521.55 Q103.418 1521.97 100.779 1522.85 L100.779 1518.68 Q103.441 1517.94 105.756 1517.57 Q108.094 1517.2 110.154 1517.2 Q115.478 1517.2 118.58 1519.63 Q121.682 1522.04 121.682 1526.16 Q121.682 1529.03 120.038 1531.02 Q118.395 1532.99 115.362 1533.75 Z" fill="#000000" fill-rule="evenodd" fill-opacity="1" /><path clip-path="url(#clip970)" d="M110.964 1445.47 Q107.816 1445.47 105.964 1447.63 Q104.135 1449.78 104.135 1453.53 Q104.135 1457.26 105.964 1459.43 Q107.816 1461.58 110.964 1461.58 Q114.112 1461.58 115.941 1459.43 Q117.793 1457.26 117.793 1453.53 Q117.793 1449.78 115.941 1447.63 Q114.112 1445.47 110.964 1445.47 M120.246 1430.82 L120.246 1435.08 Q118.487 1434.25 116.682 1433.81 Q114.899 1433.37 113.14 1433.37 Q108.51 1433.37 106.057 1436.49 Q103.626 1439.62 103.279 1445.94 Q104.645 1443.92 106.705 1442.86 Q108.765 1441.77 111.242 1441.77 Q116.45 1441.77 119.459 1444.94 Q122.492 1448.09 122.492 1453.53 Q122.492 1458.85 119.344 1462.07 Q116.195 1465.29 110.964 1465.29 Q104.969 1465.29 101.797 1460.71 Q98.6261 1456.1 98.6261 1447.37 Q98.6261 1439.18 102.515 1434.32 Q106.404 1429.43 112.955 1429.43 Q114.714 1429.43 116.496 1429.78 Q118.302 1430.13 120.246 1430.82 Z" fill="#000000" fill-rule="evenodd" fill-opacity="1" /><path clip-path="url(#clip974)" d="
M192.122 1625.38 L202.165 1625.78 L212.208 1627.49 L222.064 1626.72 L232.107 1626.43 L243.405 1632.29 L253.448 1627.47 L263.491 1625.15 L272.093 1630.43 L282.042 1634.28 
  L294.41 1629.16 L306.777 1631.81 L319.052 1631.35 L331.42 1630.63 L343.694 1643.17 L355.969 1626.24 L368.243 1640.19 L380.797 1644.5 L395.396 1628 L411.39 1625.61 
  L427.291 1626.85 L443.193 1641.26 L459.094 1641.84 L474.995 1639.22 L490.896 1649.68 L506.797 1657.92 L522.884 1670.73 L538.785 1678.73 L554.687 1679.14 L570.588 1694.33 
  L587.14 1699.2 L603.227 1722.17 L619.128 1741.9 L635.029 1754.13 L651.023 1771.52 L666.924 1783.9 L682.826 1794.41 L698.913 1795.11 L714.814 1816.43 L730.715 1823.11 
  L746.709 1834.35 L762.61 1845.99 L778.604 1836.19 L794.599 1832.58 L810.5 1822.68 L826.494 1816.83 L842.395 1821.63 L858.296 1822.06 L874.197 1815.82 L890.284 1829.36 
  L906.186 1819.95 L922.087 1851.45 L938.081 1787.48 L954.075 1756.62 L970.069 1768.62 L986.063 1786.34 L1001.96 1767.35 L1017.87 1772.98 L1033.95 1784.87 L1049.85 1761.43 
  L1067.52 1768.75 L1086.12 1740.51 L1104.53 1729.2 L1122.94 1726.08 L1141.45 1728.75 L1159.86 1710.21 L1178.27 1708.12 L1196.68 1767.42 L1215.19 1733.87 L1233.69 1736.64 
  L1252.11 1771.55 L1270.61 1779.01 L1289.02 1700.74 L1307.43 1674.87 L1325.94 1688.88 L1344.44 1705.21 L1362.86 1690.89 L1379.69 1701.73 L1399.4 1673.7 L1417.9 1668.3 
  L1436.32 1711.21 L1454.73 1742.87 L1474.07 1778.3 L1493.6 1752.3 L1513.13 1778.95 L1513.13 1466.8 L1493.6 1493.44 L1474.07 1467.45 L1454.73 1502.88 L1436.32 1534.54 
  L1417.9 1577.45 L1399.4 1572.05 L1379.69 1544.02 L1362.86 1554.85 L1344.44 1540.54 L1325.94 1556.87 L1307.43 1570.88 L1289.02 1545 L1270.61 1466.74 L1252.11 1474.19 
  L1233.69 1509.1 L1215.19 1511.88 L1196.68 1478.33 L1178.27 1537.63 L1159.86 1535.53 L1141.45 1516.99 L1122.94 1519.67 L1104.53 1516.55 L1086.12 1505.24 L1067.52 1476.99 
  L1049.85 1484.32 L1033.95 1460.88 L1017.87 1472.77 L1001.96 1478.39 L986.063 1459.41 L970.069 1477.12 L954.075 1489.12 L938.081 1458.26 L922.087 1394.29 L906.186 1425.8 
  L890.284 1416.38 L874.197 1429.93 L858.296 1423.69 L842.395 1424.11 L826.494 1428.91 L810.5 1423.07 L794.599 1413.16 L778.604 1409.56 L762.61 1399.75 L746.709 1411.4 
  L730.715 1422.64 L714.814 1429.32 L698.913 1450.64 L682.826 1451.33 L666.924 1461.85 L651.023 1474.22 L635.029 1491.61 L619.128 1503.84 L603.227 1523.58 L587.14 1546.55 
  L570.588 1551.41 L554.687 1566.6 L538.785 1567.01 L522.884 1575.02 L506.797 1587.82 L490.896 1596.07 L474.995 1606.53 L459.094 1603.91 L443.193 1604.49 L427.291 1618.89 
  L411.39 1620.13 L395.396 1617.75 L380.797 1601.24 L368.243 1605.56 L355.969 1619.51 L343.694 1602.58 L331.42 1615.12 L319.052 1614.4 L306.777 1613.94 L294.41 1616.59 
  L282.042 1611.46 L272.093 1615.31 L263.491 1620.6 L253.448 1618.28 L243.405 1613.46 L232.107 1619.32 L222.064 1619.03 L212.208 1618.26 L202.165 1619.97 L192.122 1620.37 
   Z
  " fill="#000000" fill-rule="evenodd" fill-opacity="0.2"/>
<polyline clip-path="url(#clip974)" style="stroke:#000000; stroke-linecap:butt; stroke-linejoin:round; stroke-width:4; stroke-opacity:0; fill:none" points="
  192.122,1622.87 202.165,1622.87 212.208,1622.87 222.064,1622.87 232.107,1622.87 243.405,1622.87 253.448,1622.87 263.491,1622.87 272.093,1622.87 282.042,1622.87 
  294.41,1622.87 306.777,1622.87 319.052,1622.87 331.42,1622.87 343.694,1622.87 355.969,1622.87 368.243,1622.87 380.797,1622.87 395.396,1622.87 411.39,1622.87 
  427.291,1622.87 443.193,1622.87 459.094,1622.87 474.995,1622.87 490.896,1622.87 506.797,1622.87 522.884,1622.87 538.785,1622.87 554.687,1622.87 570.588,1622.87 
  587.14,1622.87 603.227,1622.87 619.128,1622.87 635.029,1622.87 651.023,1622.87 666.924,1622.87 682.826,1622.87 698.913,1622.87 714.814,1622.87 730.715,1622.87 
  746.709,1622.87 762.61,1622.87 778.604,1622.87 794.599,1622.87 810.5,1622.87 826.494,1622.87 842.395,1622.87 858.296,1622.87 874.197,1622.87 890.284,1622.87 
  906.186,1622.87 922.087,1622.87 938.081,1622.87 954.075,1622.87 970.069,1622.87 986.063,1622.87 1001.96,1622.87 1017.87,1622.87 1033.95,1622.87 1049.85,1622.87 
  1067.52,1622.87 1086.12,1622.87 1104.53,1622.87 1122.94,1622.87 1141.45,1622.87 1159.86,1622.87 1178.27,1622.87 1196.68,1622.87 1215.19,1622.87 1233.69,1622.87 
  1252.11,1622.87 1270.61,1622.87 1289.02,1622.87 1307.43,1622.87 1325.94,1622.87 1344.44,1622.87 1362.86,1622.87 1379.69,1622.87 1399.4,1622.87 1417.9,1622.87 
  1436.32,1622.87 1454.73,1622.87 1474.07,1622.87 1493.6,1622.87 1513.13,1622.87 
  "/>
<polyline clip-path="url(#clip974)" style="stroke:#3da44d; stroke-linecap:butt; stroke-linejoin:round; stroke-width:12; stroke-opacity:1; fill:none" points="
  192.122,1627.76 202.165,1629.15 212.208,1627.79 222.064,1628.37 232.107,1630.17 243.405,1636.51 253.448,1635.16 263.491,1634.5 272.093,1629.74 282.042,1639.68 
  294.41,1647.8 306.777,1648.14 319.052,1650.97 331.42,1659.45 343.694,1658.63 355.969,1678.06 368.243,1682.67 380.797,1689.2 395.396,1690.17 411.39,1699.91 
  427.291,1710.49 443.193,1722.55 459.094,1724.2 474.995,1723.38 490.896,1725.37 506.797,1731.74 522.884,1726.97 538.785,1729.92 554.687,1721.26 570.588,1721.9 
  587.14,1701.26 603.227,1684.38 619.128,1660.75 635.029,1631.37 651.023,1608.29 666.924,1580.15 682.826,1567.81 698.913,1553.11 714.814,1551.85 730.715,1547.33 
  746.709,1554.51 762.61,1550.91 778.604,1563.22 794.599,1578.74 810.5,1585.65 826.494,1606.73 842.395,1597.87 858.296,1608.64 874.197,1616.84 890.284,1612.34 
  906.186,1627.58 922.087,1664.18 938.081,1659.54 954.075,1653.72 970.069,1651.96 986.063,1654.39 1001.96,1634.31 1017.87,1637.72 1033.95,1645.59 1049.85,1663.08 
  1067.52,1661.88 1086.12,1673.41 1104.53,1682.66 1122.94,1630.53 1141.45,1632.72 1159.86,1643.77 1178.27,1670.77 1196.68,1587.7 1215.19,1610.42 1233.69,1580.74 
  1252.11,1565.9 1270.61,1575.04 1289.02,1619.07 1307.43,1638.91 1325.94,1661.7 1344.44,1626.4 1362.86,1643.46 1379.69,1613.49 1399.4,1594.04 1417.9,1623.12 
  1436.32,1607.74 1454.73,1612.37 1474.07,1615.86 1493.6,1616.32 1513.13,1605.73 
  "/>
<polyline clip-path="url(#clip974)" style="stroke:#3da44d; stroke-linecap:butt; stroke-linejoin:round; stroke-width:12; stroke-opacity:1; fill:none" stroke-dasharray="48, 30" points="
  192.122,1627.77 202.165,1629.16 212.208,1627.8 222.064,1628.39 232.107,1630.21 243.405,1636.56 253.448,1635.22 263.491,1634.57 272.093,1629.84 282.042,1639.8 
  294.41,1647.96 306.777,1648.34 319.052,1651.22 331.42,1659.76 343.694,1659.02 355.969,1678.55 368.243,1683.27 380.797,1689.93 395.396,1691.1 411.39,1701.11 
  427.291,1712.03 443.193,1724.51 459.094,1726.69 474.995,1726.53 490.896,1729.35 506.797,1736.74 522.884,1733.26 538.785,1737.8 554.687,1731.11 570.588,1734.2 
  587.14,1716.72 603.227,1704.16 619.128,1683.57 635.029,1656.94 651.023,1637.18 666.924,1612.6 682.826,1603.29 698.913,1591.27 714.814,1592.32 730.715,1589.75 
  746.709,1598.56 762.61,1596.24 778.604,1609.51 794.599,1625.68 810.5,1632.92 826.494,1654.02 842.395,1644.89 858.296,1655.08 874.197,1662.43 890.284,1656.79 
  906.186,1670.61 922.087,1705.53 938.081,1698.94 954.075,1690.92 970.069,1686.69 986.063,1686.41 1001.96,1663.39 1017.87,1663.64 1033.95,1668.07 1049.85,1681.93 
  1067.52,1676.46 1086.12,1683.2 1104.53,1687.42 1122.94,1630.01 1141.45,1626.61 1159.86,1631.86 1178.27,1652.79 1196.68,1563.42 1215.19,1579.58 1233.69,1543.1 
  1252.11,1521.27 1270.61,1523.18 1289.02,1559.8 1307.43,1572.02 1325.94,1586.97 1344.44,1543.63 1362.86,1552.5 1379.69,1514.89 1399.4,1486.3 1417.9,1506.64 
  1436.32,1482.39 1454.73,1477.99 1474.07,1471.84 1493.6,1462.4 1513.13,1441.75 
  "/>
</svg>
