<?xml version="1.0" encoding="utf-8"?>
<svg xmlns="http://www.w3.org/2000/svg" xmlns:xlink="http://www.w3.org/1999/xlink" width="400" height="500" viewBox="0 0 1600 2000">
<defs>
  <clipPath id="clip760">
    <rect x="0" y="0" width="1600" height="2000"/>
  </clipPath>
</defs>
<path clip-path="url(#clip760)" d="
M0 2000 L1600 2000 L1600 0 L0 0  Z
  " fill="#ffffff" fill-rule="evenodd" fill-opacity="1"/>
<defs>
  <clipPath id="clip761">
    <rect x="400" y="200" width="1401" height="1401"/>
  </clipPath>
</defs>
<path clip-path="url(#clip760)" d="
M152.492 531.835 L1552.76 531.835 L1552.76 47.2441 L152.492 47.2441  Z
  " fill="#ffffff" fill-rule="evenodd" fill-opacity="1"/>
<defs>
  <clipPath id="clip762">
    <rect x="152" y="47" width="1401" height="486"/>
  </clipPath>
</defs>
<polyline clip-path="url(#clip762)" style="stroke:#000000; stroke-linecap:butt; stroke-linejoin:round; stroke-width:2; stroke-opacity:0.1; fill:none" points="
  178.949,531.835 178.949,47.2441 
  "/>
<polyline clip-path="url(#clip762)" style="stroke:#000000; stroke-linecap:butt; stroke-linejoin:round; stroke-width:2; stroke-opacity:0.1; fill:none" points="
  459.219,531.835 459.219,47.2441 
  "/>
<polyline clip-path="url(#clip762)" style="stroke:#000000; stroke-linecap:butt; stroke-linejoin:round; stroke-width:2; stroke-opacity:0.1; fill:none" points="
  739.488,531.835 739.488,47.2441 
  "/>
<polyline clip-path="url(#clip762)" style="stroke:#000000; stroke-linecap:butt; stroke-linejoin:round; stroke-width:2; stroke-opacity:0.1; fill:none" points="
  1019.76,531.835 1019.76,47.2441 
  "/>
<polyline clip-path="url(#clip762)" style="stroke:#000000; stroke-linecap:butt; stroke-linejoin:round; stroke-width:2; stroke-opacity:0.1; fill:none" points="
  1300.03,531.835 1300.03,47.2441 
  "/>
<polyline clip-path="url(#clip760)" style="stroke:#000000; stroke-linecap:butt; stroke-linejoin:round; stroke-width:4; stroke-opacity:1; fill:none" points="
  152.492,531.835 1552.76,531.835 
  "/>
<polyline clip-path="url(#clip760)" style="stroke:#000000; stroke-linecap:butt; stroke-linejoin:round; stroke-width:4; stroke-opacity:1; fill:none" points="
  178.949,531.835 178.949,512.937 
  "/>
<polyline clip-path="url(#clip760)" style="stroke:#000000; stroke-linecap:butt; stroke-linejoin:round; stroke-width:4; stroke-opacity:1; fill:none" points="
  459.219,531.835 459.219,512.937 
  "/>
<polyline clip-path="url(#clip760)" style="stroke:#000000; stroke-linecap:butt; stroke-linejoin:round; stroke-width:4; stroke-opacity:1; fill:none" points="
  739.488,531.835 739.488,512.937 
  "/>
<polyline clip-path="url(#clip760)" style="stroke:#000000; stroke-linecap:butt; stroke-linejoin:round; stroke-width:4; stroke-opacity:1; fill:none" points="
  1019.76,531.835 1019.76,512.937 
  "/>
<polyline clip-path="url(#clip760)" style="stroke:#000000; stroke-linecap:butt; stroke-linejoin:round; stroke-width:4; stroke-opacity:1; fill:none" points="
  1300.03,531.835 1300.03,512.937 
  "/>
<path clip-path="url(#clip760)" d="M178.949 559.553 Q175.338 559.553 173.509 563.118 Q171.704 566.66 171.704 573.789 Q171.704 580.896 173.509 584.461 Q175.338 588.002 178.949 588.002 Q182.583 588.002 184.389 584.461 Q186.218 580.896 186.218 573.789 Q186.218 566.66 184.389 563.118 Q182.583 559.553 178.949 559.553 M178.949 555.85 Q184.759 555.85 187.815 560.456 Q190.894 565.039 190.894 573.789 Q190.894 582.516 187.815 587.123 Q184.759 591.706 178.949 591.706 Q173.139 591.706 170.06 587.123 Q167.005 582.516 167.005 573.789 Q167.005 565.039 170.06 560.456 Q173.139 555.85 178.949 555.85 Z" fill="#000000" fill-rule="evenodd" fill-opacity="1" /><path clip-path="url(#clip760)" d="M433.906 587.099 L441.545 587.099 L441.545 560.734 L433.235 562.4 L433.235 558.141 L441.499 556.475 L446.175 556.475 L446.175 587.099 L453.814 587.099 L453.814 591.035 L433.906 591.035 L433.906 587.099 Z" fill="#000000" fill-rule="evenodd" fill-opacity="1" /><path clip-path="url(#clip760)" d="M473.258 559.553 Q469.647 559.553 467.818 563.118 Q466.013 566.66 466.013 573.789 Q466.013 580.896 467.818 584.461 Q469.647 588.002 473.258 588.002 Q476.892 588.002 478.698 584.461 Q480.527 580.896 480.527 573.789 Q480.527 566.66 478.698 563.118 Q476.892 559.553 473.258 559.553 M473.258 555.85 Q479.068 555.85 482.124 560.456 Q485.202 565.039 485.202 573.789 Q485.202 582.516 482.124 587.123 Q479.068 591.706 473.258 591.706 Q467.448 591.706 464.369 587.123 Q461.314 582.516 461.314 573.789 Q461.314 565.039 464.369 560.456 Q467.448 555.85 473.258 555.85 Z" fill="#000000" fill-rule="evenodd" fill-opacity="1" /><path clip-path="url(#clip760)" d="M718.262 587.099 L734.581 587.099 L734.581 591.035 L712.637 591.035 L712.637 587.099 Q715.299 584.345 719.882 579.715 Q724.488 575.062 725.669 573.72 Q727.914 571.197 728.794 569.461 Q729.697 567.701 729.697 566.012 Q729.697 563.257 727.752 561.521 Q725.831 559.785 722.729 559.785 Q720.53 559.785 718.076 560.549 Q715.646 561.312 712.868 562.863 L712.868 558.141 Q715.692 557.007 718.146 556.428 Q720.6 555.85 722.637 555.85 Q728.007 555.85 731.201 558.535 Q734.396 561.22 734.396 565.711 Q734.396 567.84 733.586 569.762 Q732.799 571.66 730.692 574.252 Q730.113 574.924 727.012 578.141 Q723.91 581.336 718.262 587.099 Z" fill="#000000" fill-rule="evenodd" fill-opacity="1" /><path clip-path="url(#clip760)" d="M754.396 559.553 Q750.785 559.553 748.956 563.118 Q747.15 566.66 747.15 573.789 Q747.15 580.896 748.956 584.461 Q750.785 588.002 754.396 588.002 Q758.03 588.002 759.835 584.461 Q761.664 580.896 761.664 573.789 Q761.664 566.66 759.835 563.118 Q758.03 559.553 754.396 559.553 M754.396 555.85 Q760.206 555.85 763.261 560.456 Q766.34 565.039 766.34 573.789 Q766.34 582.516 763.261 587.123 Q760.206 591.706 754.396 591.706 Q748.586 591.706 745.507 587.123 Q742.451 582.516 742.451 573.789 Q742.451 565.039 745.507 560.456 Q748.586 555.85 754.396 555.85 Z" fill="#000000" fill-rule="evenodd" fill-opacity="1" /><path clip-path="url(#clip760)" d="M1008.6 572.4 Q1011.96 573.118 1013.83 575.386 Q1015.73 577.655 1015.73 580.988 Q1015.73 586.104 1012.21 588.905 Q1008.69 591.706 1002.21 591.706 Q1000.04 591.706 997.721 591.266 Q995.429 590.849 992.976 589.993 L992.976 585.479 Q994.92 586.613 997.235 587.192 Q999.55 587.771 1002.07 587.771 Q1006.47 587.771 1008.76 586.035 Q1011.08 584.298 1011.08 580.988 Q1011.08 577.933 1008.92 576.22 Q1006.8 574.484 1002.98 574.484 L998.948 574.484 L998.948 570.641 L1003.16 570.641 Q1006.61 570.641 1008.44 569.275 Q1010.27 567.887 1010.27 565.294 Q1010.27 562.632 1008.37 561.22 Q1006.49 559.785 1002.98 559.785 Q1001.05 559.785 998.855 560.201 Q996.656 560.618 994.017 561.498 L994.017 557.331 Q996.679 556.59 998.994 556.22 Q1001.33 555.85 1003.39 555.85 Q1008.72 555.85 1011.82 558.28 Q1014.92 560.687 1014.92 564.808 Q1014.92 567.678 1013.28 569.669 Q1011.63 571.636 1008.6 572.4 Z" fill="#000000" fill-rule="evenodd" fill-opacity="1" /><path clip-path="url(#clip760)" d="M1034.6 559.553 Q1030.98 559.553 1029.16 563.118 Q1027.35 566.66 1027.35 573.789 Q1027.35 580.896 1029.16 584.461 Q1030.98 588.002 1034.6 588.002 Q1038.23 588.002 1040.04 584.461 Q1041.86 580.896 1041.86 573.789 Q1041.86 566.66 1040.04 563.118 Q1038.23 559.553 1034.6 559.553 M1034.6 555.85 Q1040.41 555.85 1043.46 560.456 Q1046.54 565.039 1046.54 573.789 Q1046.54 582.516 1043.46 587.123 Q1040.41 591.706 1034.6 591.706 Q1028.79 591.706 1025.71 587.123 Q1022.65 582.516 1022.65 573.789 Q1022.65 565.039 1025.71 560.456 Q1028.79 555.85 1034.6 555.85 Z" fill="#000000" fill-rule="evenodd" fill-opacity="1" /><path clip-path="url(#clip760)" d="M1288.2 560.549 L1276.39 578.998 L1288.2 578.998 L1288.2 560.549 M1286.97 556.475 L1292.85 556.475 L1292.85 578.998 L1297.78 578.998 L1297.78 582.886 L1292.85 582.886 L1292.85 591.035 L1288.2 591.035 L1288.2 582.886 L1272.6 582.886 L1272.6 578.373 L1286.97 556.475 Z" fill="#000000" fill-rule="evenodd" fill-opacity="1" /><path clip-path="url(#clip760)" d="M1315.51 559.553 Q1311.9 559.553 1310.07 563.118 Q1308.27 566.66 1308.27 573.789 Q1308.27 580.896 1310.07 584.461 Q1311.9 588.002 1315.51 588.002 Q1319.15 588.002 1320.95 584.461 Q1322.78 580.896 1322.78 573.789 Q1322.78 566.66 1320.95 563.118 Q1319.15 559.553 1315.51 559.553 M1315.51 555.85 Q1321.32 555.85 1324.38 560.456 Q1327.46 565.039 1327.46 573.789 Q1327.46 582.516 1324.38 587.123 Q1321.32 591.706 1315.51 591.706 Q1309.7 591.706 1306.62 587.123 Q1303.57 582.516 1303.57 573.789 Q1303.57 565.039 1306.62 560.456 Q1309.7 555.85 1315.51 555.85 Z" fill="#000000" fill-rule="evenodd" fill-opacity="1" /><polyline clip-path="url(#clip762)" style="stroke:#000000; stroke-linecap:butt; stroke-linejoin:round; stroke-width:2; stroke-opacity:0.1; fill:none" points="
  152.492,516.802 1552.76,516.802 
  "/>
<polyline clip-path="url(#clip762)" style="stroke:#000000; stroke-linecap:butt; stroke-linejoin:round; stroke-width:2; stroke-opacity:0.1; fill:none" points="
  152.492,394.613 1552.76,394.613 
  "/>
<polyline clip-path="url(#clip762)" style="stroke:#000000; stroke-linecap:butt; stroke-linejoin:round; stroke-width:2; stroke-opacity:0.1; fill:none" points="
  152.492,272.424 1552.76,272.424 
  "/>
<polyline clip-path="url(#clip762)" style="stroke:#000000; stroke-linecap:butt; stroke-linejoin:round; stroke-width:2; stroke-opacity:0.1; fill:none" points="
  152.492,150.235 1552.76,150.235 
  "/>
<polyline clip-path="url(#clip760)" style="stroke:#000000; stroke-linecap:butt; stroke-linejoin:round; stroke-width:4; stroke-opacity:1; fill:none" points="
  152.492,531.835 152.492,47.2441 
  "/>
<polyline clip-path="url(#clip760)" style="stroke:#000000; stroke-linecap:butt; stroke-linejoin:round; stroke-width:4; stroke-opacity:1; fill:none" points="
  152.492,516.802 171.389,516.802 
  "/>
<polyline clip-path="url(#clip760)" style="stroke:#000000; stroke-linecap:butt; stroke-linejoin:round; stroke-width:4; stroke-opacity:1; fill:none" points="
  152.492,394.613 171.389,394.613 
  "/>
<polyline clip-path="url(#clip760)" style="stroke:#000000; stroke-linecap:butt; stroke-linejoin:round; stroke-width:4; stroke-opacity:1; fill:none" points="
  152.492,272.424 171.389,272.424 
  "/>
<polyline clip-path="url(#clip760)" style="stroke:#000000; stroke-linecap:butt; stroke-linejoin:round; stroke-width:4; stroke-opacity:1; fill:none" points="
  152.492,150.235 171.389,150.235 
  "/>
<path clip-path="url(#clip760)" d="M30.6172 517.253 L60.293 517.253 L60.293 521.188 L30.6172 521.188 L30.6172 517.253 Z" fill="#000000" fill-rule="evenodd" fill-opacity="1" /><path clip-path="url(#clip760)" d="M83.2327 503.596 L71.4272 522.045 L83.2327 522.045 L83.2327 503.596 M82.0058 499.522 L87.8854 499.522 L87.8854 522.045 L92.816 522.045 L92.816 525.933 L87.8854 525.933 L87.8854 534.082 L83.2327 534.082 L83.2327 525.933 L67.6309 525.933 L67.6309 521.42 L82.0058 499.522 Z" fill="#000000" fill-rule="evenodd" fill-opacity="1" /><path clip-path="url(#clip760)" d="M110.547 502.6 Q106.936 502.6 105.108 506.165 Q103.302 509.707 103.302 516.836 Q103.302 523.943 105.108 527.508 Q106.936 531.049 110.547 531.049 Q114.182 531.049 115.987 527.508 Q117.816 523.943 117.816 516.836 Q117.816 509.707 115.987 506.165 Q114.182 502.6 110.547 502.6 M110.547 498.897 Q116.358 498.897 119.413 503.503 Q122.492 508.086 122.492 516.836 Q122.492 525.563 119.413 530.17 Q116.358 534.753 110.547 534.753 Q104.737 534.753 101.659 530.17 Q98.603 525.563 98.603 516.836 Q98.603 508.086 101.659 503.503 Q104.737 498.897 110.547 498.897 Z" fill="#000000" fill-rule="evenodd" fill-opacity="1" /><path clip-path="url(#clip760)" d="M30.6172 395.064 L60.293 395.064 L60.293 398.999 L30.6172 398.999 L30.6172 395.064 Z" fill="#000000" fill-rule="evenodd" fill-opacity="1" /><path clip-path="url(#clip760)" d="M74.4133 407.957 L90.7326 407.957 L90.7326 411.893 L68.7883 411.893 L68.7883 407.957 Q71.4503 405.203 76.0336 400.573 Q80.6401 395.921 81.8207 394.578 Q84.066 392.055 84.9456 390.319 Q85.8484 388.559 85.8484 386.87 Q85.8484 384.115 83.904 382.379 Q81.9827 380.643 78.8809 380.643 Q76.6818 380.643 74.2281 381.407 Q71.7976 382.171 69.0198 383.721 L69.0198 378.999 Q71.8439 377.865 74.2975 377.286 Q76.7512 376.708 78.7883 376.708 Q84.1586 376.708 87.353 379.393 Q90.5475 382.078 90.5475 386.569 Q90.5475 388.698 89.7373 390.62 Q88.9502 392.518 86.8438 395.11 Q86.2651 395.782 83.1632 398.999 Q80.0614 402.194 74.4133 407.957 Z" fill="#000000" fill-rule="evenodd" fill-opacity="1" /><path clip-path="url(#clip760)" d="M110.547 380.411 Q106.936 380.411 105.108 383.976 Q103.302 387.518 103.302 394.647 Q103.302 401.754 105.108 405.319 Q106.936 408.86 110.547 408.86 Q114.182 408.86 115.987 405.319 Q117.816 401.754 117.816 394.647 Q117.816 387.518 115.987 383.976 Q114.182 380.411 110.547 380.411 M110.547 376.708 Q116.358 376.708 119.413 381.314 Q122.492 385.897 122.492 394.647 Q122.492 403.374 119.413 407.981 Q116.358 412.564 110.547 412.564 Q104.737 412.564 101.659 407.981 Q98.603 403.374 98.603 394.647 Q98.603 385.897 101.659 381.314 Q104.737 376.708 110.547 376.708 Z" fill="#000000" fill-rule="evenodd" fill-opacity="1" /><path clip-path="url(#clip760)" d="M110.547 258.222 Q106.936 258.222 105.108 261.787 Q103.302 265.329 103.302 272.458 Q103.302 279.565 105.108 283.13 Q106.936 286.671 110.547 286.671 Q114.182 286.671 115.987 283.13 Q117.816 279.565 117.816 272.458 Q117.816 265.329 115.987 261.787 Q114.182 258.222 110.547 258.222 M110.547 254.519 Q116.358 254.519 119.413 259.125 Q122.492 263.708 122.492 272.458 Q122.492 281.185 119.413 285.792 Q116.358 290.375 110.547 290.375 Q104.737 290.375 101.659 285.792 Q98.603 281.185 98.603 272.458 Q98.603 263.708 101.659 259.125 Q104.737 254.519 110.547 254.519 Z" fill="#000000" fill-rule="evenodd" fill-opacity="1" /><path clip-path="url(#clip760)" d="M74.4133 163.58 L90.7326 163.58 L90.7326 167.515 L68.7883 167.515 L68.7883 163.58 Q71.4503 160.825 76.0336 156.195 Q80.6401 151.543 81.8207 150.2 Q84.066 147.677 84.9456 145.941 Q85.8484 144.182 85.8484 142.492 Q85.8484 139.737 83.904 138.001 Q81.9827 136.265 78.8809 136.265 Q76.6818 136.265 74.2281 137.029 Q71.7976 137.793 69.0198 139.344 L69.0198 134.621 Q71.8439 133.487 74.2975 132.908 Q76.7512 132.33 78.7883 132.33 Q84.1586 132.33 87.353 135.015 Q90.5475 137.7 90.5475 142.191 Q90.5475 144.32 89.7373 146.242 Q88.9502 148.14 86.8438 150.732 Q86.2651 151.404 83.1632 154.621 Q80.0614 157.816 74.4133 163.58 Z" fill="#000000" fill-rule="evenodd" fill-opacity="1" /><path clip-path="url(#clip760)" d="M110.547 136.033 Q106.936 136.033 105.108 139.598 Q103.302 143.14 103.302 150.27 Q103.302 157.376 105.108 160.941 Q106.936 164.482 110.547 164.482 Q114.182 164.482 115.987 160.941 Q117.816 157.376 117.816 150.27 Q117.816 143.14 115.987 139.598 Q114.182 136.033 110.547 136.033 M110.547 132.33 Q116.358 132.33 119.413 136.936 Q122.492 141.52 122.492 150.27 Q122.492 158.996 119.413 163.603 Q116.358 168.186 110.547 168.186 Q104.737 168.186 101.659 163.603 Q98.603 158.996 98.603 150.27 Q98.603 141.52 101.659 136.936 Q104.737 132.33 110.547 132.33 Z" fill="#000000" fill-rule="evenodd" fill-opacity="1" /><path clip-path="url(#clip762)" d="
M192.122 273.659 L202.772 273.14 L211.741 274.593 L219.448 273.681 L229.958 273.612 L239.02 274.256 L248.176 274.977 L255.603 275.698 L264.852 277.876 L275.362 277.143 
  L284.424 275.475 L293.579 277.321 L302.641 276.511 L311.797 277.43 L320.766 278.108 L329.828 279.234 L342.346 281.542 L351.315 278.542 L360.284 276.673 L369.252 281.49 
  L378.221 282.799 L387.189 280.769 L396.252 277.849 L405.22 277.201 L414.189 277.714 L423.251 280.639 L432.219 277.347 L441.188 275.782 L450.157 277.881 L460.527 276.871 
  L474.166 276.416 L487.806 276.94 L501.539 274.629 L515.086 277.707 L528.819 276.073 L542.459 277.853 L556.192 275.931 L569.738 274.832 L583.472 276.041 L597.111 277.465 
  L610.751 276.915 L624.391 275.786 L638.031 277.643 L651.764 280.51 L665.31 273.42 L679.044 281.235 L692.59 278.962 L706.23 277.26 L719.963 281.081 L733.603 281.401 
  L747.149 278.791 L760.882 279.48 L774.522 285.747 L788.255 284.245 L801.802 280.696 L815.535 281.411 L829.175 280.54 L842.534 281.268 L856.174 281.808 L869.814 282.166 
  L883.547 281.095 L897.187 283.412 L910.826 282.283 L924.56 282.061 L938.199 282.822 L951.933 284.969 L965.479 287.976 L979.212 291.592 L992.945 286.664 L1006.59 293.44 
  L1020.32 289.454 L1034.05 295.102 L1047.69 295.383 L1061.33 290.901 L1075.06 294.602 L1088.7 292.644 L1102.44 289.837 L1116.08 285.833 L1133.55 282.849 L1151.48 284.725 
  L1170.54 284.129 L1189.51 286.729 L1208.57 292.24 L1227.53 293.86 L1246.59 291.898 L1265.65 295.774 L1284.71 296.646 L1303.76 288.283 L1322.82 297.131 L1341.88 299.871 
  L1360.85 304.455 L1379.9 299.699 L1398.87 291.511 L1417.83 289.361 L1436.89 288.358 L1455.95 284.85 L1475.01 293.531 L1494.07 304.683 L1513.13 304.189 L1513.13 240.658 
  L1494.07 240.164 L1475.01 251.317 L1455.95 259.998 L1436.89 256.489 L1417.83 255.486 L1398.87 253.336 L1379.9 245.149 L1360.85 240.392 L1341.88 244.976 L1322.82 247.717 
  L1303.76 256.564 L1284.71 248.202 L1265.65 249.074 L1246.59 252.949 L1227.53 250.988 L1208.57 252.607 L1189.51 258.118 L1170.54 260.719 L1151.48 260.123 L1133.55 261.998 
  L1116.08 259.014 L1102.44 255.01 L1088.7 252.203 L1075.06 250.246 L1061.33 253.947 L1047.69 249.464 L1034.05 249.745 L1020.32 255.393 L1006.59 251.408 L992.945 258.184 
  L979.212 253.255 L965.479 256.872 L951.933 259.879 L938.199 262.026 L924.56 262.786 L910.826 262.564 L897.187 261.435 L883.547 263.752 L869.814 262.681 L856.174 263.039 
  L842.534 263.579 L829.175 264.307 L815.535 263.437 L801.802 264.151 L788.255 260.603 L774.522 259.101 L760.882 265.368 L747.149 266.056 L733.603 263.446 L719.963 263.767 
  L706.23 267.588 L692.59 265.885 L679.044 263.613 L665.31 271.427 L651.764 264.337 L638.031 267.204 L624.391 269.061 L610.751 267.933 L597.111 267.382 L583.472 268.806 
  L569.738 270.016 L556.192 268.916 L542.459 266.995 L528.819 268.774 L515.086 267.141 L501.539 270.218 L487.806 267.907 L474.166 268.432 L460.527 267.977 L450.157 266.967 
  L441.188 269.065 L432.219 267.5 L423.251 264.208 L414.189 267.134 L405.22 267.646 L396.252 266.998 L387.189 264.078 L378.221 262.049 L369.252 263.357 L360.284 268.174 
  L351.315 266.305 L342.346 263.305 L329.828 265.613 L320.766 266.739 L311.797 267.417 L302.641 268.336 L293.579 267.527 L284.424 269.372 L275.362 267.704 L264.852 266.972 
  L255.603 269.149 L248.176 269.87 L239.02 270.592 L229.958 271.235 L219.448 271.167 L211.741 270.255 L202.772 271.708 L192.122 271.188  Z
  " fill="#000000" fill-rule="evenodd" fill-opacity="0.2"/>
<polyline clip-path="url(#clip762)" style="stroke:#000000; stroke-linecap:butt; stroke-linejoin:round; stroke-width:4; stroke-opacity:0; fill:none" points="
  192.122,272.424 202.772,272.424 211.741,272.424 219.448,272.424 229.958,272.424 239.02,272.424 248.176,272.424 255.603,272.424 264.852,272.424 275.362,272.424 
  284.424,272.424 293.579,272.424 302.641,272.424 311.797,272.424 320.766,272.424 329.828,272.424 342.346,272.424 351.315,272.424 360.284,272.424 369.252,272.424 
  378.221,272.424 387.189,272.424 396.252,272.424 405.22,272.424 414.189,272.424 423.251,272.424 432.219,272.424 441.188,272.424 450.157,272.424 460.527,272.424 
  474.166,272.424 487.806,272.424 501.539,272.424 515.086,272.424 528.819,272.424 542.459,272.424 556.192,272.424 569.738,272.424 583.472,272.424 597.111,272.424 
  610.751,272.424 624.391,272.424 638.031,272.424 651.764,272.424 665.31,272.424 679.044,272.424 692.59,272.424 706.23,272.424 719.963,272.424 733.603,272.424 
  747.149,272.424 760.882,272.424 774.522,272.424 788.255,272.424 801.802,272.424 815.535,272.424 829.175,272.424 842.534,272.424 856.174,272.424 869.814,272.424 
  883.547,272.424 897.187,272.424 910.826,272.424 924.56,272.424 938.199,272.424 951.933,272.424 965.479,272.424 979.212,272.424 992.945,272.424 1006.59,272.424 
  1020.32,272.424 1034.05,272.424 1047.69,272.424 1061.33,272.424 1075.06,272.424 1088.7,272.424 1102.44,272.424 1116.08,272.424 1133.55,272.424 1151.48,272.424 
  1170.54,272.424 1189.51,272.424 1208.57,272.424 1227.53,272.424 1246.59,272.424 1265.65,272.424 1284.71,272.424 1303.76,272.424 1322.82,272.424 1341.88,272.424 
  1360.85,272.424 1379.9,272.424 1398.87,272.424 1417.83,272.424 1436.89,272.424 1455.95,272.424 1475.01,272.424 1494.07,272.424 1513.13,272.424 
  "/>
<polyline clip-path="url(#clip762)" style="stroke:#009af9; stroke-linecap:butt; stroke-linejoin:round; stroke-width:12; stroke-opacity:1; fill:none" points="
  192.122,272.616 202.772,272.944 211.741,274.653 219.448,274.099 229.958,272.17 239.02,272.178 248.176,273.52 255.603,269.056 264.852,273.779 275.362,269.708 
  284.424,269.932 293.579,275.96 302.641,269.541 311.797,269.434 320.766,271.991 329.828,268.549 342.346,256.154 351.315,251.141 360.284,251.416 369.252,248.535 
  378.221,256.711 387.189,259.473 396.252,267.786 405.22,273.542 414.189,278.091 423.251,281.498 432.219,281.106 441.188,280.503 450.157,277.035 460.527,278.819 
  474.166,284.539 487.806,281.286 501.539,282.775 515.086,283.424 528.819,284.202 542.459,280.098 556.192,283.605 569.738,279.431 583.472,280.791 597.111,278.537 
  610.751,276.321 624.391,275.4 638.031,278.043 651.764,275.688 665.31,276.255 679.044,272.987 692.59,273.739 706.23,274.537 719.963,270.217 733.603,267.638 
  747.149,266.792 760.882,271.94 774.522,273.224 788.255,266.61 801.802,265.794 815.535,268.205 829.175,266.926 842.534,271.814 856.174,265.888 869.814,264.439 
  883.547,265.326 897.187,268.899 910.826,267.197 924.56,267.876 938.199,267.33 951.933,268.547 965.479,270.159 979.212,268.91 992.945,265.682 1006.59,268.265 
  1020.32,267.344 1034.05,272.963 1047.69,270.005 1061.33,267.518 1075.06,271.057 1088.7,268.634 1102.44,272.511 1116.08,273.17 1133.55,262.297 1151.48,258.634 
  1170.54,256.808 1189.51,252.524 1208.57,257.874 1227.53,256.052 1246.59,259.416 1265.65,260.361 1284.71,263.154 1303.76,263.669 1322.82,268.57 1341.88,272.066 
  1360.85,278.527 1379.9,278.01 1398.87,283.206 1417.83,283.077 1436.89,283.249 1455.95,282.521 1475.01,291.828 1494.07,299.018 1513.13,300.723 
  "/>
<polyline clip-path="url(#clip762)" style="stroke:#009af9; stroke-linecap:butt; stroke-linejoin:round; stroke-width:12; stroke-opacity:1; fill:none" stroke-dasharray="48, 30" points="
  192.122,272.738 202.772,273.229 211.741,275.142 219.448,274.828 229.958,273.356 239.02,273.923 248.176,276.04 255.603,272.408 264.852,278.504 275.362,276.597 
  284.424,279.383 293.579,288.883 302.641,287.056 311.797,293.136 320.766,303.695 329.828,310.582 342.346,321.211 351.315,335.228 360.284,353.746 369.252,368.324 
  378.221,393.105 387.189,411.541 396.252,434.654 405.22,453.925 414.189,470.744 423.251,485.149 432.219,494.109 441.188,501.175 450.157,503.521 460.527,509.473 
  474.166,516.052 487.806,507.844 501.539,497.948 515.086,480.755 528.819,456.784 542.459,421.884 556.192,389.092 569.738,345.346 583.472,304.525 597.111,260.333 
  610.751,218.092 624.391,180.625 638.031,151.348 651.764,122.26 665.31,102.074 679.044,83.3367 692.59,73.8247 706.23,68.7144 719.963,62.3454 733.603,60.9589 
  747.149,63.7955 760.882,74.6615 774.522,83.2763 788.255,85.3648 801.802,94.0752 815.535,106.721 829.175,115.998 842.534,131.516 856.174,136.632 869.814,146.304 
  883.547,158.362 897.187,172.938 910.826,182.131 924.56,193.649 938.199,203.717 951.933,215.44 965.479,227.205 979.212,236.023 992.945,242.645 1006.59,254.801 
  1020.32,263.307 1034.05,278.141 1047.69,284.122 1061.33,290.358 1075.06,302.463 1088.7,308.341 1102.44,320.375 1116.08,328.94 1133.55,327.918 1151.48,334.053 
  1170.54,342.294 1189.51,347.678 1208.57,362.407 1227.53,369.599 1246.59,381.712 1265.65,391.107 1284.71,402.063 1303.76,410.461 1322.82,422.971 1341.88,433.812 
  1360.85,447.328 1379.9,453.658 1398.87,465.434 1417.83,471.662 1436.89,478.005 1455.95,483.237 1475.01,498.301 1494.07,511.049 1513.13,518.12 
  "/>
<path clip-path="url(#clip760)" d="
M152.492 1198.5 L1552.76 1198.5 L1552.76 713.911 L152.492 713.911  Z
  " fill="#ffffff" fill-rule="evenodd" fill-opacity="1"/>
<defs>
  <clipPath id="clip763">
    <rect x="152" y="713" width="1401" height="486"/>
  </clipPath>
</defs>
<polyline clip-path="url(#clip763)" style="stroke:#000000; stroke-linecap:butt; stroke-linejoin:round; stroke-width:2; stroke-opacity:0.1; fill:none" points="
  179.672,1198.5 179.672,713.911 
  "/>
<polyline clip-path="url(#clip763)" style="stroke:#000000; stroke-linecap:butt; stroke-linejoin:round; stroke-width:2; stroke-opacity:0.1; fill:none" points="
  462.623,1198.5 462.623,713.911 
  "/>
<polyline clip-path="url(#clip763)" style="stroke:#000000; stroke-linecap:butt; stroke-linejoin:round; stroke-width:2; stroke-opacity:0.1; fill:none" points="
  745.574,1198.5 745.574,713.911 
  "/>
<polyline clip-path="url(#clip763)" style="stroke:#000000; stroke-linecap:butt; stroke-linejoin:round; stroke-width:2; stroke-opacity:0.1; fill:none" points="
  1028.53,1198.5 1028.53,713.911 
  "/>
<polyline clip-path="url(#clip763)" style="stroke:#000000; stroke-linecap:butt; stroke-linejoin:round; stroke-width:2; stroke-opacity:0.1; fill:none" points="
  1311.48,1198.5 1311.48,713.911 
  "/>
<polyline clip-path="url(#clip760)" style="stroke:#000000; stroke-linecap:butt; stroke-linejoin:round; stroke-width:4; stroke-opacity:1; fill:none" points="
  152.492,1198.5 1552.76,1198.5 
  "/>
<polyline clip-path="url(#clip760)" style="stroke:#000000; stroke-linecap:butt; stroke-linejoin:round; stroke-width:4; stroke-opacity:1; fill:none" points="
  179.672,1198.5 179.672,1179.6 
  "/>
<polyline clip-path="url(#clip760)" style="stroke:#000000; stroke-linecap:butt; stroke-linejoin:round; stroke-width:4; stroke-opacity:1; fill:none" points="
  462.623,1198.5 462.623,1179.6 
  "/>
<polyline clip-path="url(#clip760)" style="stroke:#000000; stroke-linecap:butt; stroke-linejoin:round; stroke-width:4; stroke-opacity:1; fill:none" points="
  745.574,1198.5 745.574,1179.6 
  "/>
<polyline clip-path="url(#clip760)" style="stroke:#000000; stroke-linecap:butt; stroke-linejoin:round; stroke-width:4; stroke-opacity:1; fill:none" points="
  1028.53,1198.5 1028.53,1179.6 
  "/>
<polyline clip-path="url(#clip760)" style="stroke:#000000; stroke-linecap:butt; stroke-linejoin:round; stroke-width:4; stroke-opacity:1; fill:none" points="
  1311.48,1198.5 1311.48,1179.6 
  "/>
<path clip-path="url(#clip760)" d="M179.672 1226.22 Q176.061 1226.22 174.232 1229.78 Q172.427 1233.33 172.427 1240.46 Q172.427 1247.56 174.232 1251.13 Q176.061 1254.67 179.672 1254.67 Q183.306 1254.67 185.112 1251.13 Q186.94 1247.56 186.94 1240.46 Q186.94 1233.33 185.112 1229.78 Q183.306 1226.22 179.672 1226.22 M179.672 1222.52 Q185.482 1222.52 188.538 1227.12 Q191.616 1231.71 191.616 1240.46 Q191.616 1249.18 188.538 1253.79 Q185.482 1258.37 179.672 1258.37 Q173.862 1258.37 170.783 1253.79 Q167.728 1249.18 167.728 1240.46 Q167.728 1231.71 170.783 1227.12 Q173.862 1222.52 179.672 1222.52 Z" fill="#000000" fill-rule="evenodd" fill-opacity="1" /><path clip-path="url(#clip760)" d="M437.311 1253.77 L444.949 1253.77 L444.949 1227.4 L436.639 1229.07 L436.639 1224.81 L444.903 1223.14 L449.579 1223.14 L449.579 1253.77 L457.218 1253.77 L457.218 1257.7 L437.311 1257.7 L437.311 1253.77 Z" fill="#000000" fill-rule="evenodd" fill-opacity="1" /><path clip-path="url(#clip760)" d="M476.662 1226.22 Q473.051 1226.22 471.223 1229.78 Q469.417 1233.33 469.417 1240.46 Q469.417 1247.56 471.223 1251.13 Q473.051 1254.67 476.662 1254.67 Q480.297 1254.67 482.102 1251.13 Q483.931 1247.56 483.931 1240.46 Q483.931 1233.33 482.102 1229.78 Q480.297 1226.22 476.662 1226.22 M476.662 1222.52 Q482.472 1222.52 485.528 1227.12 Q488.607 1231.71 488.607 1240.46 Q488.607 1249.18 485.528 1253.79 Q482.472 1258.37 476.662 1258.37 Q470.852 1258.37 467.773 1253.79 Q464.718 1249.18 464.718 1240.46 Q464.718 1231.71 467.773 1227.12 Q470.852 1222.52 476.662 1222.52 Z" fill="#000000" fill-rule="evenodd" fill-opacity="1" /><path clip-path="url(#clip760)" d="M724.347 1253.77 L740.667 1253.77 L740.667 1257.7 L718.722 1257.7 L718.722 1253.77 Q721.384 1251.01 725.968 1246.38 Q730.574 1241.73 731.755 1240.39 Q734 1237.86 734.88 1236.13 Q735.782 1234.37 735.782 1232.68 Q735.782 1229.92 733.838 1228.19 Q731.917 1226.45 728.815 1226.45 Q726.616 1226.45 724.162 1227.22 Q721.732 1227.98 718.954 1229.53 L718.954 1224.81 Q721.778 1223.67 724.232 1223.09 Q726.685 1222.52 728.722 1222.52 Q734.093 1222.52 737.287 1225.2 Q740.481 1227.89 740.481 1232.38 Q740.481 1234.51 739.671 1236.43 Q738.884 1238.33 736.778 1240.92 Q736.199 1241.59 733.097 1244.81 Q729.995 1248 724.347 1253.77 Z" fill="#000000" fill-rule="evenodd" fill-opacity="1" /><path clip-path="url(#clip760)" d="M760.481 1226.22 Q756.87 1226.22 755.042 1229.78 Q753.236 1233.33 753.236 1240.46 Q753.236 1247.56 755.042 1251.13 Q756.87 1254.67 760.481 1254.67 Q764.116 1254.67 765.921 1251.13 Q767.75 1247.56 767.75 1240.46 Q767.75 1233.33 765.921 1229.78 Q764.116 1226.22 760.481 1226.22 M760.481 1222.52 Q766.292 1222.52 769.347 1227.12 Q772.426 1231.71 772.426 1240.46 Q772.426 1249.18 769.347 1253.79 Q766.292 1258.37 760.481 1258.37 Q754.671 1258.37 751.593 1253.79 Q748.537 1249.18 748.537 1240.46 Q748.537 1231.71 751.593 1227.12 Q754.671 1222.52 760.481 1222.52 Z" fill="#000000" fill-rule="evenodd" fill-opacity="1" /><path clip-path="url(#clip760)" d="M1017.37 1239.07 Q1020.72 1239.78 1022.6 1242.05 Q1024.5 1244.32 1024.5 1247.65 Q1024.5 1252.77 1020.98 1255.57 Q1017.46 1258.37 1010.98 1258.37 Q1008.8 1258.37 1006.49 1257.93 Q1004.2 1257.52 1001.74 1256.66 L1001.74 1252.15 Q1003.69 1253.28 1006 1253.86 Q1008.32 1254.44 1010.84 1254.44 Q1015.24 1254.44 1017.53 1252.7 Q1019.84 1250.97 1019.84 1247.65 Q1019.84 1244.6 1017.69 1242.89 Q1015.56 1241.15 1011.74 1241.15 L1007.71 1241.15 L1007.71 1237.31 L1011.93 1237.31 Q1015.38 1237.31 1017.21 1235.94 Q1019.03 1234.55 1019.03 1231.96 Q1019.03 1229.3 1017.14 1227.89 Q1015.26 1226.45 1011.74 1226.45 Q1009.82 1226.45 1007.62 1226.87 Q1005.42 1227.28 1002.78 1228.16 L1002.78 1224 Q1005.45 1223.26 1007.76 1222.89 Q1010.1 1222.52 1012.16 1222.52 Q1017.48 1222.52 1020.59 1224.95 Q1023.69 1227.35 1023.69 1231.47 Q1023.69 1234.34 1022.04 1236.34 Q1020.4 1238.3 1017.37 1239.07 Z" fill="#000000" fill-rule="evenodd" fill-opacity="1" /><path clip-path="url(#clip760)" d="M1043.36 1226.22 Q1039.75 1226.22 1037.92 1229.78 Q1036.12 1233.33 1036.12 1240.46 Q1036.12 1247.56 1037.92 1251.13 Q1039.75 1254.67 1043.36 1254.67 Q1047 1254.67 1048.8 1251.13 Q1050.63 1247.56 1050.63 1240.46 Q1050.63 1233.33 1048.8 1229.78 Q1047 1226.22 1043.36 1226.22 M1043.36 1222.52 Q1049.17 1222.52 1052.23 1227.12 Q1055.31 1231.71 1055.31 1240.46 Q1055.31 1249.18 1052.23 1253.79 Q1049.17 1258.37 1043.36 1258.37 Q1037.55 1258.37 1034.47 1253.79 Q1031.42 1249.18 1031.42 1240.46 Q1031.42 1231.71 1034.47 1227.12 Q1037.55 1222.52 1043.36 1222.52 Z" fill="#000000" fill-rule="evenodd" fill-opacity="1" /><path clip-path="url(#clip760)" d="M1299.65 1227.22 L1287.84 1245.66 L1299.65 1245.66 L1299.65 1227.22 M1298.42 1223.14 L1304.3 1223.14 L1304.3 1245.66 L1309.23 1245.66 L1309.23 1249.55 L1304.3 1249.55 L1304.3 1257.7 L1299.65 1257.7 L1299.65 1249.55 L1284.05 1249.55 L1284.05 1245.04 L1298.42 1223.14 Z" fill="#000000" fill-rule="evenodd" fill-opacity="1" /><path clip-path="url(#clip760)" d="M1326.96 1226.22 Q1323.35 1226.22 1321.52 1229.78 Q1319.72 1233.33 1319.72 1240.46 Q1319.72 1247.56 1321.52 1251.13 Q1323.35 1254.67 1326.96 1254.67 Q1330.6 1254.67 1332.4 1251.13 Q1334.23 1247.56 1334.23 1240.46 Q1334.23 1233.33 1332.4 1229.78 Q1330.6 1226.22 1326.96 1226.22 M1326.96 1222.52 Q1332.77 1222.52 1335.83 1227.12 Q1338.91 1231.71 1338.91 1240.46 Q1338.91 1249.18 1335.83 1253.79 Q1332.77 1258.37 1326.96 1258.37 Q1321.15 1258.37 1318.07 1253.79 Q1315.02 1249.18 1315.02 1240.46 Q1315.02 1231.71 1318.07 1227.12 Q1321.15 1222.52 1326.96 1222.52 Z" fill="#000000" fill-rule="evenodd" fill-opacity="1" /><polyline clip-path="url(#clip763)" style="stroke:#000000; stroke-linecap:butt; stroke-linejoin:round; stroke-width:2; stroke-opacity:0.1; fill:none" points="
  152.492,1176.54 1552.76,1176.54 
  "/>
<polyline clip-path="url(#clip763)" style="stroke:#000000; stroke-linecap:butt; stroke-linejoin:round; stroke-width:2; stroke-opacity:0.1; fill:none" points="
  152.492,1100.18 1552.76,1100.18 
  "/>
<polyline clip-path="url(#clip763)" style="stroke:#000000; stroke-linecap:butt; stroke-linejoin:round; stroke-width:2; stroke-opacity:0.1; fill:none" points="
  152.492,1023.82 1552.76,1023.82 
  "/>
<polyline clip-path="url(#clip763)" style="stroke:#000000; stroke-linecap:butt; stroke-linejoin:round; stroke-width:2; stroke-opacity:0.1; fill:none" points="
  152.492,947.453 1552.76,947.453 
  "/>
<polyline clip-path="url(#clip763)" style="stroke:#000000; stroke-linecap:butt; stroke-linejoin:round; stroke-width:2; stroke-opacity:0.1; fill:none" points="
  152.492,871.091 1552.76,871.091 
  "/>
<polyline clip-path="url(#clip763)" style="stroke:#000000; stroke-linecap:butt; stroke-linejoin:round; stroke-width:2; stroke-opacity:0.1; fill:none" points="
  152.492,794.729 1552.76,794.729 
  "/>
<polyline clip-path="url(#clip763)" style="stroke:#000000; stroke-linecap:butt; stroke-linejoin:round; stroke-width:2; stroke-opacity:0.1; fill:none" points="
  152.492,718.367 1552.76,718.367 
  "/>
<polyline clip-path="url(#clip760)" style="stroke:#000000; stroke-linecap:butt; stroke-linejoin:round; stroke-width:4; stroke-opacity:1; fill:none" points="
  152.492,1198.5 152.492,713.911 
  "/>
<polyline clip-path="url(#clip760)" style="stroke:#000000; stroke-linecap:butt; stroke-linejoin:round; stroke-width:4; stroke-opacity:1; fill:none" points="
  152.492,1176.54 171.389,1176.54 
  "/>
<polyline clip-path="url(#clip760)" style="stroke:#000000; stroke-linecap:butt; stroke-linejoin:round; stroke-width:4; stroke-opacity:1; fill:none" points="
  152.492,1100.18 171.389,1100.18 
  "/>
<polyline clip-path="url(#clip760)" style="stroke:#000000; stroke-linecap:butt; stroke-linejoin:round; stroke-width:4; stroke-opacity:1; fill:none" points="
  152.492,1023.82 171.389,1023.82 
  "/>
<polyline clip-path="url(#clip760)" style="stroke:#000000; stroke-linecap:butt; stroke-linejoin:round; stroke-width:4; stroke-opacity:1; fill:none" points="
  152.492,947.453 171.389,947.453 
  "/>
<polyline clip-path="url(#clip760)" style="stroke:#000000; stroke-linecap:butt; stroke-linejoin:round; stroke-width:4; stroke-opacity:1; fill:none" points="
  152.492,871.091 171.389,871.091 
  "/>
<polyline clip-path="url(#clip760)" style="stroke:#000000; stroke-linecap:butt; stroke-linejoin:round; stroke-width:4; stroke-opacity:1; fill:none" points="
  152.492,794.729 171.389,794.729 
  "/>
<polyline clip-path="url(#clip760)" style="stroke:#000000; stroke-linecap:butt; stroke-linejoin:round; stroke-width:4; stroke-opacity:1; fill:none" points="
  152.492,718.367 171.389,718.367 
  "/>
<path clip-path="url(#clip760)" d="M30.6172 1176.99 L60.293 1176.99 L60.293 1180.93 L30.6172 1180.93 L30.6172 1176.99 Z" fill="#000000" fill-rule="evenodd" fill-opacity="1" /><path clip-path="url(#clip760)" d="M84.5521 1175.19 Q87.9086 1175.9 89.7836 1178.17 Q91.6817 1180.44 91.6817 1183.77 Q91.6817 1188.89 88.1632 1191.69 Q84.6447 1194.49 78.1633 1194.49 Q75.9874 1194.49 73.6725 1194.05 Q71.3809 1193.63 68.9272 1192.78 L68.9272 1188.26 Q70.8716 1189.4 73.1864 1189.98 Q75.5012 1190.56 78.0244 1190.56 Q82.4225 1190.56 84.7142 1188.82 Q87.029 1187.08 87.029 1183.77 Q87.029 1180.72 84.8762 1179 Q82.7466 1177.27 78.9272 1177.27 L74.8994 1177.27 L74.8994 1173.43 L79.1123 1173.43 Q82.5614 1173.43 84.3901 1172.06 Q86.2188 1170.67 86.2188 1168.08 Q86.2188 1165.42 84.3206 1164.01 Q82.4457 1162.57 78.9272 1162.57 Q77.0059 1162.57 74.8068 1162.99 Q72.6077 1163.4 69.9689 1164.28 L69.9689 1160.12 Q72.6309 1159.38 74.9457 1159.01 Q77.2836 1158.63 79.3438 1158.63 Q84.6679 1158.63 87.7697 1161.07 Q90.8715 1163.47 90.8715 1167.59 Q90.8715 1170.46 89.228 1172.45 Q87.5845 1174.42 84.5521 1175.19 Z" fill="#000000" fill-rule="evenodd" fill-opacity="1" /><path clip-path="url(#clip760)" d="M110.547 1162.34 Q106.936 1162.34 105.108 1165.9 Q103.302 1169.44 103.302 1176.57 Q103.302 1183.68 105.108 1187.25 Q106.936 1190.79 110.547 1190.79 Q114.182 1190.79 115.987 1187.25 Q117.816 1183.68 117.816 1176.57 Q117.816 1169.44 115.987 1165.9 Q114.182 1162.34 110.547 1162.34 M110.547 1158.63 Q116.358 1158.63 119.413 1163.24 Q122.492 1167.82 122.492 1176.57 Q122.492 1185.3 119.413 1189.91 Q116.358 1194.49 110.547 1194.49 Q104.737 1194.49 101.659 1189.91 Q98.603 1185.3 98.603 1176.57 Q98.603 1167.82 101.659 1163.24 Q104.737 1158.63 110.547 1158.63 Z" fill="#000000" fill-rule="evenodd" fill-opacity="1" /><path clip-path="url(#clip760)" d="M30.6172 1100.63 L60.293 1100.63 L60.293 1104.56 L30.6172 1104.56 L30.6172 1100.63 Z" fill="#000000" fill-rule="evenodd" fill-opacity="1" /><path clip-path="url(#clip760)" d="M74.4133 1113.52 L90.7326 1113.52 L90.7326 1117.46 L68.7883 1117.46 L68.7883 1113.52 Q71.4503 1110.77 76.0336 1106.14 Q80.6401 1101.49 81.8207 1100.14 Q84.066 1097.62 84.9456 1095.88 Q85.8484 1094.12 85.8484 1092.43 Q85.8484 1089.68 83.904 1087.94 Q81.9827 1086.21 78.8809 1086.21 Q76.6818 1086.21 74.2281 1086.97 Q71.7976 1087.74 69.0198 1089.29 L69.0198 1084.56 Q71.8439 1083.43 74.2975 1082.85 Q76.7512 1082.27 78.7883 1082.27 Q84.1586 1082.27 87.353 1084.96 Q90.5475 1087.64 90.5475 1092.13 Q90.5475 1094.26 89.7373 1096.18 Q88.9502 1098.08 86.8438 1100.68 Q86.2651 1101.35 83.1632 1104.56 Q80.0614 1107.76 74.4133 1113.52 Z" fill="#000000" fill-rule="evenodd" fill-opacity="1" /><path clip-path="url(#clip760)" d="M110.547 1085.98 Q106.936 1085.98 105.108 1089.54 Q103.302 1093.08 103.302 1100.21 Q103.302 1107.32 105.108 1110.88 Q106.936 1114.43 110.547 1114.43 Q114.182 1114.43 115.987 1110.88 Q117.816 1107.32 117.816 1100.21 Q117.816 1093.08 115.987 1089.54 Q114.182 1085.98 110.547 1085.98 M110.547 1082.27 Q116.358 1082.27 119.413 1086.88 Q122.492 1091.46 122.492 1100.21 Q122.492 1108.94 119.413 1113.55 Q116.358 1118.13 110.547 1118.13 Q104.737 1118.13 101.659 1113.55 Q98.603 1108.94 98.603 1100.21 Q98.603 1091.46 101.659 1086.88 Q104.737 1082.27 110.547 1082.27 Z" fill="#000000" fill-rule="evenodd" fill-opacity="1" /><path clip-path="url(#clip760)" d="M30.6172 1024.27 L60.293 1024.27 L60.293 1028.2 L30.6172 1028.2 L30.6172 1024.27 Z" fill="#000000" fill-rule="evenodd" fill-opacity="1" /><path clip-path="url(#clip760)" d="M71.1957 1037.16 L78.8346 1037.16 L78.8346 1010.79 L70.5244 1012.46 L70.5244 1008.2 L78.7883 1006.54 L83.4642 1006.54 L83.4642 1037.16 L91.103 1037.16 L91.103 1041.1 L71.1957 1041.1 L71.1957 1037.16 Z" fill="#000000" fill-rule="evenodd" fill-opacity="1" /><path clip-path="url(#clip760)" d="M110.547 1009.61 Q106.936 1009.61 105.108 1013.18 Q103.302 1016.72 103.302 1023.85 Q103.302 1030.96 105.108 1034.52 Q106.936 1038.06 110.547 1038.06 Q114.182 1038.06 115.987 1034.52 Q117.816 1030.96 117.816 1023.85 Q117.816 1016.72 115.987 1013.18 Q114.182 1009.61 110.547 1009.61 M110.547 1005.91 Q116.358 1005.91 119.413 1010.52 Q122.492 1015.1 122.492 1023.85 Q122.492 1032.58 119.413 1037.18 Q116.358 1041.77 110.547 1041.77 Q104.737 1041.77 101.659 1037.18 Q98.603 1032.58 98.603 1023.85 Q98.603 1015.1 101.659 1010.52 Q104.737 1005.91 110.547 1005.91 Z" fill="#000000" fill-rule="evenodd" fill-opacity="1" /><path clip-path="url(#clip760)" d="M110.547 933.252 Q106.936 933.252 105.108 936.817 Q103.302 940.359 103.302 947.488 Q103.302 954.595 105.108 958.159 Q106.936 961.701 110.547 961.701 Q114.182 961.701 115.987 958.159 Q117.816 954.595 117.816 947.488 Q117.816 940.359 115.987 936.817 Q114.182 933.252 110.547 933.252 M110.547 929.548 Q116.358 929.548 119.413 934.155 Q122.492 938.738 122.492 947.488 Q122.492 956.215 119.413 960.821 Q116.358 965.405 110.547 965.405 Q104.737 965.405 101.659 960.821 Q98.603 956.215 98.603 947.488 Q98.603 938.738 101.659 934.155 Q104.737 929.548 110.547 929.548 Z" fill="#000000" fill-rule="evenodd" fill-opacity="1" /><path clip-path="url(#clip760)" d="M71.1957 884.436 L78.8346 884.436 L78.8346 858.071 L70.5244 859.737 L70.5244 855.478 L78.7883 853.811 L83.4642 853.811 L83.4642 884.436 L91.103 884.436 L91.103 888.371 L71.1957 888.371 L71.1957 884.436 Z" fill="#000000" fill-rule="evenodd" fill-opacity="1" /><path clip-path="url(#clip760)" d="M110.547 856.89 Q106.936 856.89 105.108 860.455 Q103.302 863.997 103.302 871.126 Q103.302 878.233 105.108 881.797 Q106.936 885.339 110.547 885.339 Q114.182 885.339 115.987 881.797 Q117.816 878.233 117.816 871.126 Q117.816 863.997 115.987 860.455 Q114.182 856.89 110.547 856.89 M110.547 853.186 Q116.358 853.186 119.413 857.793 Q122.492 862.376 122.492 871.126 Q122.492 879.853 119.413 884.459 Q116.358 889.043 110.547 889.043 Q104.737 889.043 101.659 884.459 Q98.603 879.853 98.603 871.126 Q98.603 862.376 101.659 857.793 Q104.737 853.186 110.547 853.186 Z" fill="#000000" fill-rule="evenodd" fill-opacity="1" /><path clip-path="url(#clip760)" d="M74.4133 808.074 L90.7326 808.074 L90.7326 812.009 L68.7883 812.009 L68.7883 808.074 Q71.4503 805.32 76.0336 800.69 Q80.6401 796.037 81.8207 794.695 Q84.066 792.171 84.9456 790.435 Q85.8484 788.676 85.8484 786.986 Q85.8484 784.232 83.904 782.496 Q81.9827 780.759 78.8809 780.759 Q76.6818 780.759 74.2281 781.523 Q71.7976 782.287 69.0198 783.838 L69.0198 779.116 Q71.8439 777.982 74.2975 777.403 Q76.7512 776.824 78.7883 776.824 Q84.1586 776.824 87.353 779.509 Q90.5475 782.195 90.5475 786.685 Q90.5475 788.815 89.7373 790.736 Q88.9502 792.634 86.8438 795.227 Q86.2651 795.898 83.1632 799.116 Q80.0614 802.31 74.4133 808.074 Z" fill="#000000" fill-rule="evenodd" fill-opacity="1" /><path clip-path="url(#clip760)" d="M110.547 780.528 Q106.936 780.528 105.108 784.093 Q103.302 787.634 103.302 794.764 Q103.302 801.87 105.108 805.435 Q106.936 808.977 110.547 808.977 Q114.182 808.977 115.987 805.435 Q117.816 801.87 117.816 794.764 Q117.816 787.634 115.987 784.093 Q114.182 780.528 110.547 780.528 M110.547 776.824 Q116.358 776.824 119.413 781.431 Q122.492 786.014 122.492 794.764 Q122.492 803.491 119.413 808.097 Q116.358 812.681 110.547 812.681 Q104.737 812.681 101.659 808.097 Q98.603 803.491 98.603 794.764 Q98.603 786.014 101.659 781.431 Q104.737 776.824 110.547 776.824 Z" fill="#000000" fill-rule="evenodd" fill-opacity="1" /><path clip-path="url(#clip760)" d="M84.5521 717.013 Q87.9086 717.731 89.7836 719.999 Q91.6817 722.268 91.6817 725.601 Q91.6817 730.717 88.1632 733.518 Q84.6447 736.319 78.1633 736.319 Q75.9874 736.319 73.6725 735.879 Q71.3809 735.462 68.9272 734.606 L68.9272 730.092 Q70.8716 731.226 73.1864 731.805 Q75.5012 732.383 78.0244 732.383 Q82.4225 732.383 84.7142 730.647 Q87.029 728.911 87.029 725.601 Q87.029 722.545 84.8762 720.832 Q82.7466 719.096 78.9272 719.096 L74.8994 719.096 L74.8994 715.254 L79.1123 715.254 Q82.5614 715.254 84.3901 713.888 Q86.2188 712.499 86.2188 709.907 Q86.2188 707.245 84.3206 705.833 Q82.4457 704.397 78.9272 704.397 Q77.0059 704.397 74.8068 704.814 Q72.6077 705.231 69.9689 706.11 L69.9689 701.944 Q72.6309 701.203 74.9457 700.833 Q77.2836 700.462 79.3438 700.462 Q84.6679 700.462 87.7697 702.893 Q90.8715 705.3 90.8715 709.421 Q90.8715 712.291 89.228 714.282 Q87.5845 716.249 84.5521 717.013 Z" fill="#000000" fill-rule="evenodd" fill-opacity="1" /><path clip-path="url(#clip760)" d="M110.547 704.166 Q106.936 704.166 105.108 707.731 Q103.302 711.272 103.302 718.402 Q103.302 725.508 105.108 729.073 Q106.936 732.615 110.547 732.615 Q114.182 732.615 115.987 729.073 Q117.816 725.508 117.816 718.402 Q117.816 711.272 115.987 707.731 Q114.182 704.166 110.547 704.166 M110.547 700.462 Q116.358 700.462 119.413 705.069 Q122.492 709.652 122.492 718.402 Q122.492 727.129 119.413 731.735 Q116.358 736.319 110.547 736.319 Q104.737 736.319 101.659 731.735 Q98.603 727.129 98.603 718.402 Q98.603 709.652 101.659 705.069 Q104.737 700.462 110.547 700.462 Z" fill="#000000" fill-rule="evenodd" fill-opacity="1" /><path clip-path="url(#clip763)" d="
M192.122 951.109 L201.459 956.622 L210.985 951.323 L220.417 949.611 L229.754 952.934 L239.28 952.173 L248.712 949.976 L258.049 956.587 L267.67 951.453 L277.007 963.456 
  L286.345 962.446 L295.965 962.688 L305.868 961.608 L317.658 960.739 L329.353 957.962 L341.237 953.511 L353.027 954.941 L364.722 960.18 L376.606 969.495 L388.396 952.895 
  L400.091 955.015 L411.975 971.745 L423.859 954.958 L435.46 959.938 L447.344 971.786 L459.228 966.063 L471.017 973.79 L482.713 977.377 L494.596 969.288 L506.386 961.149 
  L518.081 965.682 L529.965 950.605 L541.755 962.444 L553.45 956.861 L565.334 955.752 L577.218 956.908 L588.913 951.529 L600.703 962.821 L612.587 966.742 L624.377 975.253 
  L636.072 967.042 L647.956 971.217 L659.84 975.708 L671.629 963.164 L683.325 956.332 L695.209 957.541 L707.093 967.147 L719.543 956.18 L732.181 958.24 L744.914 960.22 
  L757.458 981.391 L770.191 964.548 L782.924 965.046 L795.656 969.075 L808.389 967.41 L821.122 967.691 L833.855 977.153 L846.493 962.584 L860.452 967.095 L874.883 990.133 
  L889.407 992.88 L903.932 1002.67 L918.363 1009.33 L932.888 1005.17 L947.318 996.433 L961.843 996.71 L976.368 981.277 L990.893 981.95 L1007.96 968.561 L1023.15 984.921 
  L1038.43 986.773 L1053.61 988.207 L1068.8 985.726 L1083.98 981.184 L1099.26 1003.93 L1114.54 1021.28 L1129.82 1018.01 L1145.1 981.017 L1160.38 996.009 L1175.94 962.339 
  L1191.22 974.619 L1206.5 994.362 L1221.78 994.266 L1237.06 1015.51 L1252.34 1003.72 L1267.62 1016.69 L1282.8 979.543 L1298.08 960.209 L1313.46 985.4 L1328.64 992.205 
  L1344.02 986.843 L1359.29 1008.5 L1374.57 1012.49 L1389.85 1022.01 L1405.13 1040.32 L1420.7 1030.27 L1435.97 1047.22 L1451.35 1054.74 L1466.82 1063.91 L1482.1 1065.68 
  L1497.66 1044.74 L1513.13 1060.15 L1513.13 834.753 L1497.66 850.168 L1482.1 829.229 L1466.82 830.993 L1451.35 840.172 L1435.97 847.682 L1420.7 864.633 L1405.13 854.586 
  L1389.85 872.897 L1374.57 882.421 L1359.29 886.404 L1344.02 908.064 L1328.64 902.702 L1313.46 909.507 L1298.08 934.698 L1282.8 915.364 L1267.62 878.218 L1252.34 891.185 
  L1237.06 879.396 L1221.78 900.641 L1206.5 900.545 L1191.22 920.288 L1175.94 932.568 L1160.38 898.898 L1145.1 913.89 L1129.82 876.896 L1114.54 873.627 L1099.26 890.975 
  L1083.98 913.723 L1068.8 909.181 L1053.61 906.7 L1038.43 908.134 L1023.15 909.986 L1007.96 926.346 L990.893 912.957 L976.368 913.63 L961.843 898.197 L947.318 898.474 
  L932.888 889.733 L918.363 885.581 L903.932 892.237 L889.407 902.027 L874.883 904.774 L860.452 927.812 L846.493 932.323 L833.855 917.754 L821.122 927.216 L808.389 927.497 
  L795.656 925.831 L782.924 929.861 L770.191 930.359 L757.458 913.516 L744.914 934.687 L732.181 936.667 L719.543 938.727 L707.093 927.759 L695.209 937.366 L683.325 938.575 
  L671.629 931.743 L659.84 919.199 L647.956 923.69 L636.072 927.865 L624.377 919.654 L612.587 928.165 L600.703 932.086 L588.913 943.378 L577.218 937.999 L565.334 939.155 
  L553.45 938.046 L541.755 932.463 L529.965 944.302 L518.081 929.225 L506.386 933.758 L494.596 925.618 L482.713 917.53 L471.017 921.117 L459.228 928.844 L447.344 923.121 
  L435.46 934.969 L423.859 939.949 L411.975 923.162 L400.091 939.892 L388.396 942.012 L376.606 925.412 L364.722 934.727 L353.027 939.966 L341.237 941.396 L329.353 936.945 
  L317.658 934.168 L305.868 933.298 L295.965 932.219 L286.345 932.461 L277.007 931.451 L267.67 943.454 L258.049 938.32 L248.712 944.931 L239.28 942.734 L229.754 941.973 
  L220.417 945.296 L210.985 943.584 L201.459 938.285 L192.122 943.798  Z
  " fill="#000000" fill-rule="evenodd" fill-opacity="0.2"/>
<polyline clip-path="url(#clip763)" style="stroke:#000000; stroke-linecap:butt; stroke-linejoin:round; stroke-width:4; stroke-opacity:0; fill:none" points="
  192.122,947.453 201.459,947.453 210.985,947.453 220.417,947.453 229.754,947.453 239.28,947.453 248.712,947.453 258.049,947.453 267.67,947.453 277.007,947.453 
  286.345,947.453 295.965,947.453 305.868,947.453 317.658,947.453 329.353,947.453 341.237,947.453 353.027,947.453 364.722,947.453 376.606,947.453 388.396,947.453 
  400.091,947.453 411.975,947.453 423.859,947.453 435.46,947.453 447.344,947.453 459.228,947.453 471.017,947.453 482.713,947.453 494.596,947.453 506.386,947.453 
  518.081,947.453 529.965,947.453 541.755,947.453 553.45,947.453 565.334,947.453 577.218,947.453 588.913,947.453 600.703,947.453 612.587,947.453 624.377,947.453 
  636.072,947.453 647.956,947.453 659.84,947.453 671.629,947.453 683.325,947.453 695.209,947.453 707.093,947.453 719.543,947.453 732.181,947.453 744.914,947.453 
  757.458,947.453 770.191,947.453 782.924,947.453 795.656,947.453 808.389,947.453 821.122,947.453 833.855,947.453 846.493,947.453 860.452,947.453 874.883,947.453 
  889.407,947.453 903.932,947.453 918.363,947.453 932.888,947.453 947.318,947.453 961.843,947.453 976.368,947.453 990.893,947.453 1007.96,947.453 1023.15,947.453 
  1038.43,947.453 1053.61,947.453 1068.8,947.453 1083.98,947.453 1099.26,947.453 1114.54,947.453 1129.82,947.453 1145.1,947.453 1160.38,947.453 1175.94,947.453 
  1191.22,947.453 1206.5,947.453 1221.78,947.453 1237.06,947.453 1252.34,947.453 1267.62,947.453 1282.8,947.453 1298.08,947.453 1313.46,947.453 1328.64,947.453 
  1344.02,947.453 1359.29,947.453 1374.57,947.453 1389.85,947.453 1405.13,947.453 1420.7,947.453 1435.97,947.453 1451.35,947.453 1466.82,947.453 1482.1,947.453 
  1497.66,947.453 1513.13,947.453 
  "/>
<polyline clip-path="url(#clip763)" style="stroke:#e26f46; stroke-linecap:butt; stroke-linejoin:round; stroke-width:12; stroke-opacity:1; fill:none" points="
  192.122,958.597 201.459,960.322 210.985,958.661 220.417,953.184 229.754,955.394 239.28,956.662 248.712,956.118 258.049,964.31 267.67,954.275 277.007,957.785 
  286.345,964.878 295.965,964.373 305.868,963.394 317.658,962.452 329.353,967.86 341.237,975.186 353.027,970.988 364.722,977.247 376.606,968.316 388.396,968.448 
  400.091,968.209 411.975,968.492 423.859,974.417 435.46,976.257 447.344,967.798 459.228,979.326 471.017,974.139 482.713,965.586 494.596,977.251 506.386,983.754 
  518.081,991.199 529.965,977.864 541.755,999.096 553.45,988.069 565.334,996.039 577.218,991.367 588.913,986.225 600.703,977.4 612.587,968.334 624.377,971.739 
  636.072,964.6 647.956,972.593 659.84,953.471 671.629,957.143 683.325,944.385 695.209,943.19 707.093,934.124 719.543,921.017 732.181,914.482 744.914,922.068 
  757.458,931.318 770.191,945.111 782.924,945.955 795.656,954.723 808.389,939.994 821.122,941.207 833.855,936.721 846.493,938.073 860.452,935.08 874.883,954.511 
  889.407,954.111 903.932,956.574 918.363,946.717 932.888,953.454 947.318,925.462 961.843,921.728 976.368,930.708 990.893,970.776 1007.96,947.581 1023.15,977.616 
  1038.43,945.404 1053.61,951.63 1068.8,951.401 1083.98,940.91 1099.26,930.836 1114.54,920.429 1129.82,925.041 1145.1,911.383 1160.38,913.252 1175.94,918.369 
  1191.22,928.684 1206.5,957.513 1221.78,961.662 1237.06,960.844 1252.34,960.081 1267.62,915.7 1282.8,971.609 1298.08,976.985 1313.46,958.741 1328.64,947.413 
  1344.02,980.521 1359.29,996.818 1374.57,990.081 1389.85,990.552 1405.13,942.344 1420.7,962.708 1435.97,987.935 1451.35,992.333 1466.82,964.64 1482.1,940.474 
  1497.66,927.589 1513.13,928.722 
  "/>
<polyline clip-path="url(#clip763)" style="stroke:#e26f46; stroke-linecap:butt; stroke-linejoin:round; stroke-width:12; stroke-opacity:1; fill:none" stroke-dasharray="48, 30" points="
  192.122,958.61 201.459,960.347 210.985,958.699 220.417,953.24 229.754,955.47 239.28,956.762 248.712,956.246 258.049,964.471 267.67,954.476 277.007,958.03 
  286.345,965.175 295.965,964.733 305.868,963.828 317.658,962.992 329.353,968.525 341.237,976.002 353.027,971.983 364.722,978.453 376.606,969.777 388.396,970.208 
  400.091,970.32 411.975,971.025 423.859,977.448 435.46,979.86 447.344,972.091 459.228,984.432 471.017,980.193 482.713,972.744 494.596,985.725 506.386,993.763 
  518.081,1002.99 529.965,991.779 541.755,1015.48 553.45,1007.31 565.334,1018.69 577.218,1018.02 588.913,1017.48 600.703,1014.07 612.587,1011.41 624.377,1022.24 
  636.072,1023.72 647.956,1041.97 659.84,1034.87 671.629,1053.51 683.325,1057.84 695.209,1074.38 707.093,1082.05 719.543,1084.45 732.181,1091.16 744.914,1109.63 
  757.458,1126.99 770.191,1146.22 782.924,1149.6 795.656,1157.93 808.389,1139.73 821.122,1134.45 833.855,1120.49 846.493,1109.6 860.452,1089.99 874.883,1089.14 
  889.407,1065.54 903.932,1042.53 918.363,1005.69 932.888,984.266 947.318,927.973 961.843,896.066 976.368,877.799 990.893,892.122 1007.96,841.321 1023.15,849.755 
  1038.43,798.926 1053.61,789.951 1068.8,777.924 1083.98,759.064 1099.26,743.968 1114.54,731.799 1129.82,737.589 1145.1,727.626 1160.38,735.671 1175.94,749.567 
  1191.22,770.814 1206.5,812.679 1221.78,831.717 1237.06,847.328 1252.34,864.158 1267.62,838.099 1282.8,912.609 1298.08,937.335 1313.46,939.131 1328.64,948.056 
  1344.02,1002.03 1359.29,1039.33 1374.57,1053.78 1389.85,1075.52 1405.13,1048.63 1420.7,1090.72 1435.97,1137.29 1451.35,1163.14 1466.82,1156.96 1482.1,1153.97 
  1497.66,1162.52 1513.13,1184.79 
  "/>
<path clip-path="url(#clip760)" d="
M152.492 1865.17 L1552.76 1865.17 L1552.76 1380.58 L152.492 1380.58  Z
  " fill="#ffffff" fill-rule="evenodd" fill-opacity="1"/>
<defs>
  <clipPath id="clip764">
    <rect x="152" y="1380" width="1401" height="486"/>
  </clipPath>
</defs>
<polyline clip-path="url(#clip764)" style="stroke:#000000; stroke-linecap:butt; stroke-linejoin:round; stroke-width:2; stroke-opacity:0.1; fill:none" points="
  183.567,1865.17 183.567,1380.58 
  "/>
<polyline clip-path="url(#clip764)" style="stroke:#000000; stroke-linecap:butt; stroke-linejoin:round; stroke-width:2; stroke-opacity:0.1; fill:none" points="
  462.534,1865.17 462.534,1380.58 
  "/>
<polyline clip-path="url(#clip764)" style="stroke:#000000; stroke-linecap:butt; stroke-linejoin:round; stroke-width:2; stroke-opacity:0.1; fill:none" points="
  741.502,1865.17 741.502,1380.58 
  "/>
<polyline clip-path="url(#clip764)" style="stroke:#000000; stroke-linecap:butt; stroke-linejoin:round; stroke-width:2; stroke-opacity:0.1; fill:none" points="
  1020.47,1865.17 1020.47,1380.58 
  "/>
<polyline clip-path="url(#clip764)" style="stroke:#000000; stroke-linecap:butt; stroke-linejoin:round; stroke-width:2; stroke-opacity:0.1; fill:none" points="
  1299.44,1865.17 1299.44,1380.58 
  "/>
<polyline clip-path="url(#clip760)" style="stroke:#000000; stroke-linecap:butt; stroke-linejoin:round; stroke-width:4; stroke-opacity:1; fill:none" points="
  152.492,1865.17 1552.76,1865.17 
  "/>
<polyline clip-path="url(#clip760)" style="stroke:#000000; stroke-linecap:butt; stroke-linejoin:round; stroke-width:4; stroke-opacity:1; fill:none" points="
  183.567,1865.17 183.567,1846.27 
  "/>
<polyline clip-path="url(#clip760)" style="stroke:#000000; stroke-linecap:butt; stroke-linejoin:round; stroke-width:4; stroke-opacity:1; fill:none" points="
  462.534,1865.17 462.534,1846.27 
  "/>
<polyline clip-path="url(#clip760)" style="stroke:#000000; stroke-linecap:butt; stroke-linejoin:round; stroke-width:4; stroke-opacity:1; fill:none" points="
  741.502,1865.17 741.502,1846.27 
  "/>
<polyline clip-path="url(#clip760)" style="stroke:#000000; stroke-linecap:butt; stroke-linejoin:round; stroke-width:4; stroke-opacity:1; fill:none" points="
  1020.47,1865.17 1020.47,1846.27 
  "/>
<polyline clip-path="url(#clip760)" style="stroke:#000000; stroke-linecap:butt; stroke-linejoin:round; stroke-width:4; stroke-opacity:1; fill:none" points="
  1299.44,1865.17 1299.44,1846.27 
  "/>
<path clip-path="url(#clip760)" d="M183.567 1892.89 Q179.956 1892.89 178.127 1896.45 Q176.322 1899.99 176.322 1907.12 Q176.322 1914.23 178.127 1917.79 Q179.956 1921.34 183.567 1921.34 Q187.201 1921.34 189.007 1917.79 Q190.835 1914.23 190.835 1907.12 Q190.835 1899.99 189.007 1896.45 Q187.201 1892.89 183.567 1892.89 M183.567 1889.18 Q189.377 1889.18 192.433 1893.79 Q195.511 1898.37 195.511 1907.12 Q195.511 1915.85 192.433 1920.46 Q189.377 1925.04 183.567 1925.04 Q177.757 1925.04 174.678 1920.46 Q171.622 1915.85 171.622 1907.12 Q171.622 1898.37 174.678 1893.79 Q177.757 1889.18 183.567 1889.18 Z" fill="#000000" fill-rule="evenodd" fill-opacity="1" /><path clip-path="url(#clip760)" d="M437.222 1920.43 L444.861 1920.43 L444.861 1894.07 L436.551 1895.73 L436.551 1891.47 L444.815 1889.81 L449.49 1889.81 L449.49 1920.43 L457.129 1920.43 L457.129 1924.37 L437.222 1924.37 L437.222 1920.43 Z" fill="#000000" fill-rule="evenodd" fill-opacity="1" /><path clip-path="url(#clip760)" d="M476.574 1892.89 Q472.962 1892.89 471.134 1896.45 Q469.328 1899.99 469.328 1907.12 Q469.328 1914.23 471.134 1917.79 Q472.962 1921.34 476.574 1921.34 Q480.208 1921.34 482.013 1917.79 Q483.842 1914.23 483.842 1907.12 Q483.842 1899.99 482.013 1896.45 Q480.208 1892.89 476.574 1892.89 M476.574 1889.18 Q482.384 1889.18 485.439 1893.79 Q488.518 1898.37 488.518 1907.12 Q488.518 1915.85 485.439 1920.46 Q482.384 1925.04 476.574 1925.04 Q470.763 1925.04 467.685 1920.46 Q464.629 1915.85 464.629 1907.12 Q464.629 1898.37 467.685 1893.79 Q470.763 1889.18 476.574 1889.18 Z" fill="#000000" fill-rule="evenodd" fill-opacity="1" /><path clip-path="url(#clip760)" d="M720.275 1920.43 L736.594 1920.43 L736.594 1924.37 L714.65 1924.37 L714.65 1920.43 Q717.312 1917.68 721.895 1913.05 Q726.502 1908.4 727.682 1907.05 Q729.928 1904.53 730.807 1902.79 Q731.71 1901.03 731.71 1899.34 Q731.71 1896.59 729.766 1894.85 Q727.844 1893.12 724.743 1893.12 Q722.544 1893.12 720.09 1893.88 Q717.659 1894.65 714.882 1896.2 L714.882 1891.47 Q717.706 1890.34 720.159 1889.76 Q722.613 1889.18 724.65 1889.18 Q730.02 1889.18 733.215 1891.87 Q736.409 1894.55 736.409 1899.04 Q736.409 1901.17 735.599 1903.09 Q734.812 1904.99 732.706 1907.59 Q732.127 1908.26 729.025 1911.47 Q725.923 1914.67 720.275 1920.43 Z" fill="#000000" fill-rule="evenodd" fill-opacity="1" /><path clip-path="url(#clip760)" d="M756.409 1892.89 Q752.798 1892.89 750.969 1896.45 Q749.164 1899.99 749.164 1907.12 Q749.164 1914.23 750.969 1917.79 Q752.798 1921.34 756.409 1921.34 Q760.043 1921.34 761.849 1917.79 Q763.678 1914.23 763.678 1907.12 Q763.678 1899.99 761.849 1896.45 Q760.043 1892.89 756.409 1892.89 M756.409 1889.18 Q762.219 1889.18 765.275 1893.79 Q768.353 1898.37 768.353 1907.12 Q768.353 1915.85 765.275 1920.46 Q762.219 1925.04 756.409 1925.04 Q750.599 1925.04 747.52 1920.46 Q744.465 1915.85 744.465 1907.12 Q744.465 1898.37 747.52 1893.79 Q750.599 1889.18 756.409 1889.18 Z" fill="#000000" fill-rule="evenodd" fill-opacity="1" /><path clip-path="url(#clip760)" d="M1009.31 1905.73 Q1012.67 1906.45 1014.54 1908.72 Q1016.44 1910.99 1016.44 1914.32 Q1016.44 1919.44 1012.92 1922.24 Q1009.4 1925.04 1002.92 1925.04 Q1000.75 1925.04 998.432 1924.6 Q996.141 1924.18 993.687 1923.33 L993.687 1918.81 Q995.631 1919.95 997.946 1920.53 Q1000.26 1921.1 1002.78 1921.1 Q1007.18 1921.1 1009.47 1919.37 Q1011.79 1917.63 1011.79 1914.32 Q1011.79 1911.27 1009.64 1909.55 Q1007.51 1907.82 1003.69 1907.82 L999.659 1907.82 L999.659 1903.97 L1003.87 1903.97 Q1007.32 1903.97 1009.15 1902.61 Q1010.98 1901.22 1010.98 1898.63 Q1010.98 1895.97 1009.08 1894.55 Q1007.21 1893.12 1003.69 1893.12 Q1001.77 1893.12 999.567 1893.53 Q997.368 1893.95 994.729 1894.83 L994.729 1890.66 Q997.391 1889.92 999.705 1889.55 Q1002.04 1889.18 1004.1 1889.18 Q1009.43 1889.18 1012.53 1891.61 Q1015.63 1894.02 1015.63 1898.14 Q1015.63 1901.01 1013.99 1903 Q1012.34 1904.97 1009.31 1905.73 Z" fill="#000000" fill-rule="evenodd" fill-opacity="1" /><path clip-path="url(#clip760)" d="M1035.31 1892.89 Q1031.7 1892.89 1029.87 1896.45 Q1028.06 1899.99 1028.06 1907.12 Q1028.06 1914.23 1029.87 1917.79 Q1031.7 1921.34 1035.31 1921.34 Q1038.94 1921.34 1040.75 1917.79 Q1042.58 1914.23 1042.58 1907.12 Q1042.58 1899.99 1040.75 1896.45 Q1038.94 1892.89 1035.31 1892.89 M1035.31 1889.18 Q1041.12 1889.18 1044.17 1893.79 Q1047.25 1898.37 1047.25 1907.12 Q1047.25 1915.85 1044.17 1920.46 Q1041.12 1925.04 1035.31 1925.04 Q1029.5 1925.04 1026.42 1920.46 Q1023.36 1915.85 1023.36 1907.12 Q1023.36 1898.37 1026.42 1893.79 Q1029.5 1889.18 1035.31 1889.18 Z" fill="#000000" fill-rule="evenodd" fill-opacity="1" /><path clip-path="url(#clip760)" d="M1287.61 1893.88 L1275.8 1912.33 L1287.61 1912.33 L1287.61 1893.88 M1286.38 1889.81 L1292.26 1889.81 L1292.26 1912.33 L1297.19 1912.33 L1297.19 1916.22 L1292.26 1916.22 L1292.26 1924.37 L1287.61 1924.37 L1287.61 1916.22 L1272.01 1916.22 L1272.01 1911.71 L1286.38 1889.81 Z" fill="#000000" fill-rule="evenodd" fill-opacity="1" /><path clip-path="url(#clip760)" d="M1314.92 1892.89 Q1311.31 1892.89 1309.48 1896.45 Q1307.68 1899.99 1307.68 1907.12 Q1307.68 1914.23 1309.48 1917.79 Q1311.31 1921.34 1314.92 1921.34 Q1318.56 1921.34 1320.36 1917.79 Q1322.19 1914.23 1322.19 1907.12 Q1322.19 1899.99 1320.36 1896.45 Q1318.56 1892.89 1314.92 1892.89 M1314.92 1889.18 Q1320.73 1889.18 1323.79 1893.79 Q1326.87 1898.37 1326.87 1907.12 Q1326.87 1915.85 1323.79 1920.46 Q1320.73 1925.04 1314.92 1925.04 Q1309.11 1925.04 1306.03 1920.46 Q1302.98 1915.85 1302.98 1907.12 Q1302.98 1898.37 1306.03 1893.79 Q1309.11 1889.18 1314.92 1889.18 Z" fill="#000000" fill-rule="evenodd" fill-opacity="1" /><polyline clip-path="url(#clip764)" style="stroke:#000000; stroke-linecap:butt; stroke-linejoin:round; stroke-width:2; stroke-opacity:0.1; fill:none" points="
  152.492,1822.66 1552.76,1822.66 
  "/>
<polyline clip-path="url(#clip764)" style="stroke:#000000; stroke-linecap:butt; stroke-linejoin:round; stroke-width:2; stroke-opacity:0.1; fill:none" points="
  152.492,1738.19 1552.76,1738.19 
  "/>
<polyline clip-path="url(#clip764)" style="stroke:#000000; stroke-linecap:butt; stroke-linejoin:round; stroke-width:2; stroke-opacity:0.1; fill:none" points="
  152.492,1653.73 1552.76,1653.73 
  "/>
<polyline clip-path="url(#clip764)" style="stroke:#000000; stroke-linecap:butt; stroke-linejoin:round; stroke-width:2; stroke-opacity:0.1; fill:none" points="
  152.492,1569.27 1552.76,1569.27 
  "/>
<polyline clip-path="url(#clip764)" style="stroke:#000000; stroke-linecap:butt; stroke-linejoin:round; stroke-width:2; stroke-opacity:0.1; fill:none" points="
  152.492,1484.81 1552.76,1484.81 
  "/>
<polyline clip-path="url(#clip764)" style="stroke:#000000; stroke-linecap:butt; stroke-linejoin:round; stroke-width:2; stroke-opacity:0.1; fill:none" points="
  152.492,1400.34 1552.76,1400.34 
  "/>
<polyline clip-path="url(#clip760)" style="stroke:#000000; stroke-linecap:butt; stroke-linejoin:round; stroke-width:4; stroke-opacity:1; fill:none" points="
  152.492,1865.17 152.492,1380.58 
  "/>
<polyline clip-path="url(#clip760)" style="stroke:#000000; stroke-linecap:butt; stroke-linejoin:round; stroke-width:4; stroke-opacity:1; fill:none" points="
  152.492,1822.66 171.389,1822.66 
  "/>
<polyline clip-path="url(#clip760)" style="stroke:#000000; stroke-linecap:butt; stroke-linejoin:round; stroke-width:4; stroke-opacity:1; fill:none" points="
  152.492,1738.19 171.389,1738.19 
  "/>
<polyline clip-path="url(#clip760)" style="stroke:#000000; stroke-linecap:butt; stroke-linejoin:round; stroke-width:4; stroke-opacity:1; fill:none" points="
  152.492,1653.73 171.389,1653.73 
  "/>
<polyline clip-path="url(#clip760)" style="stroke:#000000; stroke-linecap:butt; stroke-linejoin:round; stroke-width:4; stroke-opacity:1; fill:none" points="
  152.492,1569.27 171.389,1569.27 
  "/>
<polyline clip-path="url(#clip760)" style="stroke:#000000; stroke-linecap:butt; stroke-linejoin:round; stroke-width:4; stroke-opacity:1; fill:none" points="
  152.492,1484.81 171.389,1484.81 
  "/>
<polyline clip-path="url(#clip760)" style="stroke:#000000; stroke-linecap:butt; stroke-linejoin:round; stroke-width:4; stroke-opacity:1; fill:none" points="
  152.492,1400.34 171.389,1400.34 
  "/>
<path clip-path="url(#clip760)" d="M31.6126 1823.11 L61.2884 1823.11 L61.2884 1827.04 L31.6126 1827.04 L31.6126 1823.11 Z" fill="#000000" fill-rule="evenodd" fill-opacity="1" /><path clip-path="url(#clip760)" d="M72.1911 1836 L79.8299 1836 L79.8299 1809.64 L71.5198 1811.3 L71.5198 1807.04 L79.7836 1805.38 L84.4595 1805.38 L84.4595 1836 L92.0984 1836 L92.0984 1839.94 L72.1911 1839.94 L72.1911 1836 Z" fill="#000000" fill-rule="evenodd" fill-opacity="1" /><path clip-path="url(#clip760)" d="M101.589 1805.38 L119.945 1805.38 L119.945 1809.31 L105.871 1809.31 L105.871 1817.78 Q106.89 1817.44 107.908 1817.28 Q108.927 1817.09 109.946 1817.09 Q115.733 1817.09 119.112 1820.26 Q122.492 1823.43 122.492 1828.85 Q122.492 1834.43 119.02 1837.53 Q115.547 1840.61 109.228 1840.61 Q107.052 1840.61 104.783 1840.24 Q102.538 1839.87 100.131 1839.13 L100.131 1834.43 Q102.214 1835.56 104.436 1836.12 Q106.658 1836.67 109.135 1836.67 Q113.14 1836.67 115.478 1834.57 Q117.816 1832.46 117.816 1828.85 Q117.816 1825.24 115.478 1823.13 Q113.14 1821.03 109.135 1821.03 Q107.26 1821.03 105.385 1821.44 Q103.534 1821.86 101.589 1822.74 L101.589 1805.38 Z" fill="#000000" fill-rule="evenodd" fill-opacity="1" /><path clip-path="url(#clip760)" d="M30.6172 1738.65 L60.293 1738.65 L60.293 1742.58 L30.6172 1742.58 L30.6172 1738.65 Z" fill="#000000" fill-rule="evenodd" fill-opacity="1" /><path clip-path="url(#clip760)" d="M71.1957 1751.54 L78.8346 1751.54 L78.8346 1725.17 L70.5244 1726.84 L70.5244 1722.58 L78.7883 1720.91 L83.4642 1720.91 L83.4642 1751.54 L91.103 1751.54 L91.103 1755.47 L71.1957 1755.47 L71.1957 1751.54 Z" fill="#000000" fill-rule="evenodd" fill-opacity="1" /><path clip-path="url(#clip760)" d="M110.547 1723.99 Q106.936 1723.99 105.108 1727.56 Q103.302 1731.1 103.302 1738.23 Q103.302 1745.34 105.108 1748.9 Q106.936 1752.44 110.547 1752.44 Q114.182 1752.44 115.987 1748.9 Q117.816 1745.34 117.816 1738.23 Q117.816 1731.1 115.987 1727.56 Q114.182 1723.99 110.547 1723.99 M110.547 1720.29 Q116.358 1720.29 119.413 1724.9 Q122.492 1729.48 122.492 1738.23 Q122.492 1746.96 119.413 1751.56 Q116.358 1756.15 110.547 1756.15 Q104.737 1756.15 101.659 1751.56 Q98.603 1746.96 98.603 1738.23 Q98.603 1729.48 101.659 1724.9 Q104.737 1720.29 110.547 1720.29 Z" fill="#000000" fill-rule="evenodd" fill-opacity="1" /><path clip-path="url(#clip760)" d="M61.7745 1654.18 L91.4502 1654.18 L91.4502 1658.12 L61.7745 1658.12 L61.7745 1654.18 Z" fill="#000000" fill-rule="evenodd" fill-opacity="1" /><path clip-path="url(#clip760)" d="M101.589 1636.45 L119.945 1636.45 L119.945 1640.39 L105.871 1640.39 L105.871 1648.86 Q106.89 1648.51 107.908 1648.35 Q108.927 1648.16 109.946 1648.16 Q115.733 1648.16 119.112 1651.34 Q122.492 1654.51 122.492 1659.92 Q122.492 1665.5 119.02 1668.6 Q115.547 1671.68 109.228 1671.68 Q107.052 1671.68 104.783 1671.31 Q102.538 1670.94 100.131 1670.2 L100.131 1665.5 Q102.214 1666.64 104.436 1667.19 Q106.658 1667.75 109.135 1667.75 Q113.14 1667.75 115.478 1665.64 Q117.816 1663.53 117.816 1659.92 Q117.816 1656.31 115.478 1654.21 Q113.14 1652.1 109.135 1652.1 Q107.26 1652.1 105.385 1652.52 Q103.534 1652.93 101.589 1653.81 L101.589 1636.45 Z" fill="#000000" fill-rule="evenodd" fill-opacity="1" /><path clip-path="url(#clip760)" d="M110.547 1555.07 Q106.936 1555.07 105.108 1558.63 Q103.302 1562.17 103.302 1569.3 Q103.302 1576.41 105.108 1579.97 Q106.936 1583.52 110.547 1583.52 Q114.182 1583.52 115.987 1579.97 Q117.816 1576.41 117.816 1569.3 Q117.816 1562.17 115.987 1558.63 Q114.182 1555.07 110.547 1555.07 M110.547 1551.36 Q116.358 1551.36 119.413 1555.97 Q122.492 1560.55 122.492 1569.3 Q122.492 1578.03 119.413 1582.64 Q116.358 1587.22 110.547 1587.22 Q104.737 1587.22 101.659 1582.64 Q98.603 1578.03 98.603 1569.3 Q98.603 1560.55 101.659 1555.97 Q104.737 1551.36 110.547 1551.36 Z" fill="#000000" fill-rule="evenodd" fill-opacity="1" /><path clip-path="url(#clip760)" d="M101.589 1467.53 L119.945 1467.53 L119.945 1471.46 L105.871 1471.46 L105.871 1479.93 Q106.89 1479.59 107.908 1479.42 Q108.927 1479.24 109.946 1479.24 Q115.733 1479.24 119.112 1482.41 Q122.492 1485.58 122.492 1491 Q122.492 1496.58 119.02 1499.68 Q115.547 1502.76 109.228 1502.76 Q107.052 1502.76 104.783 1502.39 Q102.538 1502.02 100.131 1501.27 L100.131 1496.58 Q102.214 1497.71 104.436 1498.27 Q106.658 1498.82 109.135 1498.82 Q113.14 1498.82 115.478 1496.71 Q117.816 1494.61 117.816 1491 Q117.816 1487.39 115.478 1485.28 Q113.14 1483.17 109.135 1483.17 Q107.26 1483.17 105.385 1483.59 Q103.534 1484.01 101.589 1484.89 L101.589 1467.53 Z" fill="#000000" fill-rule="evenodd" fill-opacity="1" /><path clip-path="url(#clip760)" d="M71.1957 1413.69 L78.8346 1413.69 L78.8346 1387.32 L70.5244 1388.99 L70.5244 1384.73 L78.7883 1383.06 L83.4642 1383.06 L83.4642 1413.69 L91.103 1413.69 L91.103 1417.62 L71.1957 1417.62 L71.1957 1413.69 Z" fill="#000000" fill-rule="evenodd" fill-opacity="1" /><path clip-path="url(#clip760)" d="M110.547 1386.14 Q106.936 1386.14 105.108 1389.71 Q103.302 1393.25 103.302 1400.38 Q103.302 1407.48 105.108 1411.05 Q106.936 1414.59 110.547 1414.59 Q114.182 1414.59 115.987 1411.05 Q117.816 1407.48 117.816 1400.38 Q117.816 1393.25 115.987 1389.71 Q114.182 1386.14 110.547 1386.14 M110.547 1382.44 Q116.358 1382.44 119.413 1387.04 Q122.492 1391.63 122.492 1400.38 Q122.492 1409.1 119.413 1413.71 Q116.358 1418.29 110.547 1418.29 Q104.737 1418.29 101.659 1413.71 Q98.603 1409.1 98.603 1400.38 Q98.603 1391.63 101.659 1387.04 Q104.737 1382.44 110.547 1382.44 Z" fill="#000000" fill-rule="evenodd" fill-opacity="1" /><path clip-path="url(#clip764)" d="
M192.122 1570.71 L202.165 1570.94 L212.208 1571.93 L222.064 1571.49 L232.107 1571.32 L243.405 1574.7 L253.448 1571.92 L263.491 1570.58 L272.093 1573.63 L282.042 1575.86 
  L294.41 1572.9 L306.777 1574.43 L319.052 1574.16 L331.42 1573.75 L343.694 1580.99 L355.969 1571.21 L368.243 1579.26 L380.797 1581.76 L395.396 1572.23 L411.39 1570.85 
  L427.291 1571.56 L443.193 1579.88 L459.094 1580.22 L474.995 1578.7 L490.896 1584.74 L506.797 1589.51 L522.884 1596.9 L538.785 1601.52 L554.687 1601.76 L570.588 1610.53 
  L587.14 1613.34 L603.227 1626.6 L619.128 1638 L635.029 1645.06 L651.023 1655.1 L666.924 1662.25 L682.826 1668.32 L698.913 1668.72 L714.814 1681.03 L730.715 1684.89 
  L746.709 1691.37 L762.61 1698.1 L778.604 1692.44 L794.599 1690.36 L810.5 1684.64 L826.494 1681.26 L842.395 1684.03 L858.296 1684.28 L874.197 1680.68 L890.284 1688.5 
  L906.186 1683.06 L922.087 1701.25 L938.081 1664.32 L954.075 1646.5 L970.069 1653.43 L986.063 1663.65 L1001.96 1652.69 L1017.87 1655.94 L1033.95 1662.8 L1049.85 1649.27 
  L1067.52 1653.5 L1086.12 1637.19 L1104.53 1630.66 L1122.94 1628.86 L1141.45 1630.4 L1159.86 1619.7 L1178.27 1618.49 L1196.68 1652.73 L1215.19 1633.36 L1233.69 1634.96 
  L1252.11 1655.12 L1270.61 1659.42 L1289.02 1614.23 L1307.43 1599.29 L1325.94 1607.38 L1344.44 1616.81 L1362.86 1608.54 L1379.69 1614.8 L1399.4 1598.61 L1417.9 1595.5 
  L1436.32 1620.27 L1454.73 1638.55 L1474.07 1659.01 L1493.6 1644 L1513.13 1659.39 L1513.13 1479.15 L1493.6 1494.53 L1474.07 1479.52 L1454.73 1499.98 L1436.32 1518.26 
  L1417.9 1543.04 L1399.4 1539.92 L1379.69 1523.74 L1362.86 1529.99 L1344.44 1521.73 L1325.94 1531.16 L1307.43 1539.25 L1289.02 1524.31 L1270.61 1479.11 L1252.11 1483.42 
  L1233.69 1503.58 L1215.19 1505.18 L1196.68 1485.81 L1178.27 1520.05 L1159.86 1518.84 L1141.45 1508.13 L1122.94 1509.68 L1104.53 1507.88 L1086.12 1501.35 L1067.52 1485.04 
  L1049.85 1489.26 L1033.95 1475.73 L1017.87 1482.6 L1001.96 1485.84 L986.063 1474.88 L970.069 1485.11 L954.075 1492.04 L938.081 1474.22 L922.087 1437.28 L906.186 1455.48 
  L890.284 1450.04 L874.197 1457.86 L858.296 1454.26 L842.395 1454.5 L826.494 1457.27 L810.5 1453.9 L794.599 1448.18 L778.604 1446.1 L762.61 1440.44 L746.709 1447.16 
  L730.715 1453.65 L714.814 1457.51 L698.913 1469.82 L682.826 1470.22 L666.924 1476.29 L651.023 1483.44 L635.029 1493.48 L619.128 1500.54 L603.227 1511.94 L587.14 1525.2 
  L570.588 1528.01 L554.687 1536.78 L538.785 1537.02 L522.884 1541.64 L506.797 1549.03 L490.896 1553.79 L474.995 1559.83 L459.094 1558.32 L443.193 1558.65 L427.291 1566.97 
  L411.39 1567.68 L395.396 1566.31 L380.797 1556.78 L368.243 1559.27 L355.969 1567.33 L343.694 1557.55 L331.42 1564.79 L319.052 1564.38 L306.777 1564.11 L294.41 1565.64 
  L282.042 1562.68 L272.093 1564.9 L263.491 1567.95 L253.448 1566.62 L243.405 1563.83 L232.107 1567.21 L222.064 1567.05 L212.208 1566.6 L202.165 1567.59 L192.122 1567.82 
   Z
  " fill="#000000" fill-rule="evenodd" fill-opacity="0.2"/>
<polyline clip-path="url(#clip764)" style="stroke:#000000; stroke-linecap:butt; stroke-linejoin:round; stroke-width:4; stroke-opacity:0; fill:none" points="
  192.122,1569.27 202.165,1569.27 212.208,1569.27 222.064,1569.27 232.107,1569.27 243.405,1569.27 253.448,1569.27 263.491,1569.27 272.093,1569.27 282.042,1569.27 
  294.41,1569.27 306.777,1569.27 319.052,1569.27 331.42,1569.27 343.694,1569.27 355.969,1569.27 368.243,1569.27 380.797,1569.27 395.396,1569.27 411.39,1569.27 
  427.291,1569.27 443.193,1569.27 459.094,1569.27 474.995,1569.27 490.896,1569.27 506.797,1569.27 522.884,1569.27 538.785,1569.27 554.687,1569.27 570.588,1569.27 
  587.14,1569.27 603.227,1569.27 619.128,1569.27 635.029,1569.27 651.023,1569.27 666.924,1569.27 682.826,1569.27 698.913,1569.27 714.814,1569.27 730.715,1569.27 
  746.709,1569.27 762.61,1569.27 778.604,1569.27 794.599,1569.27 810.5,1569.27 826.494,1569.27 842.395,1569.27 858.296,1569.27 874.197,1569.27 890.284,1569.27 
  906.186,1569.27 922.087,1569.27 938.081,1569.27 954.075,1569.27 970.069,1569.27 986.063,1569.27 1001.96,1569.27 1017.87,1569.27 1033.95,1569.27 1049.85,1569.27 
  1067.52,1569.27 1086.12,1569.27 1104.53,1569.27 1122.94,1569.27 1141.45,1569.27 1159.86,1569.27 1178.27,1569.27 1196.68,1569.27 1215.19,1569.27 1233.69,1569.27 
  1252.11,1569.27 1270.61,1569.27 1289.02,1569.27 1307.43,1569.27 1325.94,1569.27 1344.44,1569.27 1362.86,1569.27 1379.69,1569.27 1399.4,1569.27 1417.9,1569.27 
  1436.32,1569.27 1454.73,1569.27 1474.07,1569.27 1493.6,1569.27 1513.13,1569.27 
  "/>
<polyline clip-path="url(#clip764)" style="stroke:#3da44d; stroke-linecap:butt; stroke-linejoin:round; stroke-width:12; stroke-opacity:1; fill:none" points="
  192.122,1572.09 202.165,1572.89 212.208,1572.1 222.064,1572.44 232.107,1573.48 243.405,1577.14 253.448,1576.36 263.491,1575.98 272.093,1573.24 282.042,1578.97 
  294.41,1583.66 306.777,1583.86 319.052,1585.49 331.42,1590.39 343.694,1589.91 355.969,1601.13 368.243,1603.8 380.797,1607.56 395.396,1608.13 411.39,1613.75 
  427.291,1619.86 443.193,1626.82 459.094,1627.77 474.995,1627.3 490.896,1628.45 506.797,1632.13 522.884,1629.37 538.785,1631.08 554.687,1626.08 570.588,1626.45 
  587.14,1614.53 603.227,1604.78 619.128,1591.14 635.029,1574.17 651.023,1560.85 666.924,1544.6 682.826,1537.47 698.913,1528.98 714.814,1528.26 730.715,1525.65 
  746.709,1529.79 762.61,1527.72 778.604,1534.82 794.599,1543.78 810.5,1547.78 826.494,1559.95 842.395,1554.83 858.296,1561.05 874.197,1565.78 890.284,1563.19 
  906.186,1571.98 922.087,1593.12 938.081,1590.44 954.075,1587.08 970.069,1586.06 986.063,1587.47 1001.96,1575.87 1017.87,1577.84 1033.95,1582.39 1049.85,1592.48 
  1067.52,1591.79 1086.12,1598.45 1104.53,1603.79 1122.94,1573.69 1141.45,1574.95 1159.86,1581.34 1178.27,1596.92 1196.68,1548.96 1215.19,1562.08 1233.69,1544.94 
  1252.11,1536.37 1270.61,1541.65 1289.02,1567.07 1307.43,1578.53 1325.94,1591.69 1344.44,1571.31 1362.86,1581.15 1379.69,1563.85 1399.4,1552.62 1417.9,1569.41 
  1436.32,1560.53 1454.73,1563.2 1474.07,1565.22 1493.6,1565.49 1513.13,1559.37 
  "/>
<polyline clip-path="url(#clip764)" style="stroke:#3da44d; stroke-linecap:butt; stroke-linejoin:round; stroke-width:12; stroke-opacity:1; fill:none" stroke-dasharray="48, 30" points="
  192.122,1572.11 202.165,1572.95 212.208,1572.2 222.064,1572.58 232.107,1573.68 243.405,1577.42 253.448,1576.72 263.491,1576.44 272.093,1573.8 282.042,1579.67 
  294.41,1584.55 306.777,1584.99 319.052,1586.91 331.42,1592.15 343.694,1592.09 355.969,1603.81 368.243,1607.07 380.797,1611.57 395.396,1613.16 411.39,1620.19 
  427.291,1628.03 443.193,1637.16 459.094,1640.81 474.995,1643.69 490.896,1648.99 506.797,1657.81 522.884,1661.52 538.785,1671.14 554.687,1675.91 570.588,1688.37 
  587.14,1692.07 603.227,1701.96 619.128,1711.53 635.029,1718.22 651.023,1726.74 666.924,1728.98 682.826,1736.63 698.913,1739.06 714.814,1744.92 730.715,1744.53 
  746.709,1746.37 762.61,1737.43 778.604,1733.09 794.599,1726.22 810.5,1710.43 826.494,1699.06 842.395,1667.44 858.296,1644.75 874.197,1618.96 890.284,1584.67 
  906.186,1562.12 922.087,1552.68 938.081,1520.81 954.075,1490.54 970.069,1465.4 986.063,1445.86 1001.96,1416.86 1017.87,1405.02 1033.95,1399.27 1049.85,1402.81 
  1067.52,1398.82 1086.12,1406.18 1104.53,1416.16 1122.94,1394.29 1141.45,1407.05 1159.86,1427.65 1178.27,1459.73 1196.68,1430.05 1215.19,1463.13 1233.69,1467.31 
  1252.11,1481.05 1270.61,1509.64 1289.02,1558.92 1307.43,1594.66 1325.94,1632.55 1344.44,1637.13 1362.86,1671.97 1379.69,1677.59 1399.4,1693.22 1417.9,1735.14 
  1436.32,1751.11 1454.73,1778.44 1474.07,1806.17 1493.6,1832.14 1513.13,1851.45 
  "/>
</svg>
