<?xml version="1.0" encoding="utf-8"?>
<svg xmlns="http://www.w3.org/2000/svg" xmlns:xlink="http://www.w3.org/1999/xlink" width="500" height="480" viewBox="0 0 2000 1920">
<defs>
  <clipPath id="clip660">
    <rect x="0" y="0" width="2000" height="1920"/>
  </clipPath>
</defs>
<path clip-path="url(#clip660)" d="
M0 1920 L2000 1920 L2000 0 L0 0  Z
  " fill="#ffffff" fill-rule="evenodd" fill-opacity="1"/>
<defs>
  <clipPath id="clip661">
    <rect x="400" y="120" width="1401" height="1401"/>
  </clipPath>
</defs>
<path clip-path="url(#clip660)" d="
M174.867 508.041 L1952.76 508.041 L1952.76 47.2441 L174.867 47.2441  Z
  " fill="#ffffff" fill-rule="evenodd" fill-opacity="1"/>
<defs>
  <clipPath id="clip662">
    <rect x="174" y="47" width="1779" height="462"/>
  </clipPath>
</defs>
<polyline clip-path="url(#clip662)" style="stroke:#000000; stroke-linecap:butt; stroke-linejoin:round; stroke-width:2; stroke-opacity:0.1; fill:none" points="
  206.659,508.041 206.659,47.2441 
  "/>
<polyline clip-path="url(#clip662)" style="stroke:#000000; stroke-linecap:butt; stroke-linejoin:round; stroke-width:2; stroke-opacity:0.1; fill:none" points="
  562.915,508.041 562.915,47.2441 
  "/>
<polyline clip-path="url(#clip662)" style="stroke:#000000; stroke-linecap:butt; stroke-linejoin:round; stroke-width:2; stroke-opacity:0.1; fill:none" points="
  919.171,508.041 919.171,47.2441 
  "/>
<polyline clip-path="url(#clip662)" style="stroke:#000000; stroke-linecap:butt; stroke-linejoin:round; stroke-width:2; stroke-opacity:0.1; fill:none" points="
  1275.43,508.041 1275.43,47.2441 
  "/>
<polyline clip-path="url(#clip662)" style="stroke:#000000; stroke-linecap:butt; stroke-linejoin:round; stroke-width:2; stroke-opacity:0.1; fill:none" points="
  1631.68,508.041 1631.68,47.2441 
  "/>
<polyline clip-path="url(#clip660)" style="stroke:#000000; stroke-linecap:butt; stroke-linejoin:round; stroke-width:4; stroke-opacity:1; fill:none" points="
  174.867,508.041 1952.76,508.041 
  "/>
<polyline clip-path="url(#clip660)" style="stroke:#000000; stroke-linecap:butt; stroke-linejoin:round; stroke-width:4; stroke-opacity:1; fill:none" points="
  206.659,508.041 206.659,489.144 
  "/>
<polyline clip-path="url(#clip660)" style="stroke:#000000; stroke-linecap:butt; stroke-linejoin:round; stroke-width:4; stroke-opacity:1; fill:none" points="
  562.915,508.041 562.915,489.144 
  "/>
<polyline clip-path="url(#clip660)" style="stroke:#000000; stroke-linecap:butt; stroke-linejoin:round; stroke-width:4; stroke-opacity:1; fill:none" points="
  919.171,508.041 919.171,489.144 
  "/>
<polyline clip-path="url(#clip660)" style="stroke:#000000; stroke-linecap:butt; stroke-linejoin:round; stroke-width:4; stroke-opacity:1; fill:none" points="
  1275.43,508.041 1275.43,489.144 
  "/>
<polyline clip-path="url(#clip660)" style="stroke:#000000; stroke-linecap:butt; stroke-linejoin:round; stroke-width:4; stroke-opacity:1; fill:none" points="
  1631.68,508.041 1631.68,489.144 
  "/>
<path clip-path="url(#clip660)" d="M206.659 535.76 Q203.048 535.76 201.219 539.325 Q199.414 542.867 199.414 549.996 Q199.414 557.103 201.219 560.667 Q203.048 564.209 206.659 564.209 Q210.293 564.209 212.099 560.667 Q213.927 557.103 213.927 549.996 Q213.927 542.867 212.099 539.325 Q210.293 535.76 206.659 535.76 M206.659 532.056 Q212.469 532.056 215.525 536.663 Q218.603 541.246 218.603 549.996 Q218.603 558.723 215.525 563.329 Q212.469 567.913 206.659 567.913 Q200.849 567.913 197.77 563.329 Q194.715 558.723 194.715 549.996 Q194.715 541.246 197.77 536.663 Q200.849 532.056 206.659 532.056 Z" fill="#000000" fill-rule="evenodd" fill-opacity="1" /><path clip-path="url(#clip660)" d="M537.603 563.306 L545.242 563.306 L545.242 536.941 L536.931 538.607 L536.931 534.348 L545.195 532.681 L549.871 532.681 L549.871 563.306 L557.51 563.306 L557.51 567.241 L537.603 567.241 L537.603 563.306 Z" fill="#000000" fill-rule="evenodd" fill-opacity="1" /><path clip-path="url(#clip660)" d="M576.954 535.76 Q573.343 535.76 571.515 539.325 Q569.709 542.867 569.709 549.996 Q569.709 557.103 571.515 560.667 Q573.343 564.209 576.954 564.209 Q580.589 564.209 582.394 560.667 Q584.223 557.103 584.223 549.996 Q584.223 542.867 582.394 539.325 Q580.589 535.76 576.954 535.76 M576.954 532.056 Q582.765 532.056 585.82 536.663 Q588.899 541.246 588.899 549.996 Q588.899 558.723 585.82 563.329 Q582.765 567.913 576.954 567.913 Q571.144 567.913 568.066 563.329 Q565.01 558.723 565.01 549.996 Q565.01 541.246 568.066 536.663 Q571.144 532.056 576.954 532.056 Z" fill="#000000" fill-rule="evenodd" fill-opacity="1" /><path clip-path="url(#clip660)" d="M897.945 563.306 L914.264 563.306 L914.264 567.241 L892.32 567.241 L892.32 563.306 Q894.982 560.552 899.565 555.922 Q904.171 551.269 905.352 549.927 Q907.597 547.404 908.477 545.668 Q909.38 543.908 909.38 542.218 Q909.38 539.464 907.435 537.728 Q905.514 535.992 902.412 535.992 Q900.213 535.992 897.759 536.756 Q895.329 537.519 892.551 539.07 L892.551 534.348 Q895.375 533.214 897.829 532.635 Q900.282 532.056 902.32 532.056 Q907.69 532.056 910.884 534.742 Q914.079 537.427 914.079 541.918 Q914.079 544.047 913.269 545.968 Q912.481 547.867 910.375 550.459 Q909.796 551.13 906.694 554.348 Q903.593 557.542 897.945 563.306 Z" fill="#000000" fill-rule="evenodd" fill-opacity="1" /><path clip-path="url(#clip660)" d="M934.079 535.76 Q930.468 535.76 928.639 539.325 Q926.833 542.867 926.833 549.996 Q926.833 557.103 928.639 560.667 Q930.468 564.209 934.079 564.209 Q937.713 564.209 939.518 560.667 Q941.347 557.103 941.347 549.996 Q941.347 542.867 939.518 539.325 Q937.713 535.76 934.079 535.76 M934.079 532.056 Q939.889 532.056 942.944 536.663 Q946.023 541.246 946.023 549.996 Q946.023 558.723 942.944 563.329 Q939.889 567.913 934.079 567.913 Q928.268 567.913 925.19 563.329 Q922.134 558.723 922.134 549.996 Q922.134 541.246 925.19 536.663 Q928.268 532.056 934.079 532.056 Z" fill="#000000" fill-rule="evenodd" fill-opacity="1" /><path clip-path="url(#clip660)" d="M1264.27 548.607 Q1267.63 549.325 1269.5 551.593 Q1271.4 553.862 1271.4 557.195 Q1271.4 562.311 1267.88 565.112 Q1264.36 567.913 1257.88 567.913 Q1255.71 567.913 1253.39 567.473 Q1251.1 567.056 1248.65 566.2 L1248.65 561.686 Q1250.59 562.82 1252.9 563.399 Q1255.22 563.978 1257.74 563.978 Q1262.14 563.978 1264.43 562.242 Q1266.75 560.505 1266.75 557.195 Q1266.75 554.14 1264.59 552.427 Q1262.46 550.691 1258.65 550.691 L1254.62 550.691 L1254.62 546.848 L1258.83 546.848 Q1262.28 546.848 1264.11 545.482 Q1265.94 544.093 1265.94 541.501 Q1265.94 538.839 1264.04 537.427 Q1262.16 535.992 1258.65 535.992 Q1256.72 535.992 1254.52 536.408 Q1252.33 536.825 1249.69 537.705 L1249.69 533.538 Q1252.35 532.797 1254.66 532.427 Q1257 532.056 1259.06 532.056 Q1264.39 532.056 1267.49 534.487 Q1270.59 536.894 1270.59 541.015 Q1270.59 543.885 1268.95 545.876 Q1267.3 547.843 1264.27 548.607 Z" fill="#000000" fill-rule="evenodd" fill-opacity="1" /><path clip-path="url(#clip660)" d="M1290.27 535.76 Q1286.65 535.76 1284.83 539.325 Q1283.02 542.867 1283.02 549.996 Q1283.02 557.103 1284.83 560.667 Q1286.65 564.209 1290.27 564.209 Q1293.9 564.209 1295.71 560.667 Q1297.53 557.103 1297.53 549.996 Q1297.53 542.867 1295.71 539.325 Q1293.9 535.76 1290.27 535.76 M1290.27 532.056 Q1296.08 532.056 1299.13 536.663 Q1302.21 541.246 1302.21 549.996 Q1302.21 558.723 1299.13 563.329 Q1296.08 567.913 1290.27 567.913 Q1284.46 567.913 1281.38 563.329 Q1278.32 558.723 1278.32 549.996 Q1278.32 541.246 1281.38 536.663 Q1284.46 532.056 1290.27 532.056 Z" fill="#000000" fill-rule="evenodd" fill-opacity="1" /><path clip-path="url(#clip660)" d="M1619.85 536.756 L1608.05 555.205 L1619.85 555.205 L1619.85 536.756 M1618.63 532.681 L1624.51 532.681 L1624.51 555.205 L1629.44 555.205 L1629.44 559.093 L1624.51 559.093 L1624.51 567.241 L1619.85 567.241 L1619.85 559.093 L1604.25 559.093 L1604.25 554.58 L1618.63 532.681 Z" fill="#000000" fill-rule="evenodd" fill-opacity="1" /><path clip-path="url(#clip660)" d="M1647.17 535.76 Q1643.56 535.76 1641.73 539.325 Q1639.92 542.867 1639.92 549.996 Q1639.92 557.103 1641.73 560.667 Q1643.56 564.209 1647.17 564.209 Q1650.8 564.209 1652.61 560.667 Q1654.44 557.103 1654.44 549.996 Q1654.44 542.867 1652.61 539.325 Q1650.8 535.76 1647.17 535.76 M1647.17 532.056 Q1652.98 532.056 1656.04 536.663 Q1659.11 541.246 1659.11 549.996 Q1659.11 558.723 1656.04 563.329 Q1652.98 567.913 1647.17 567.913 Q1641.36 567.913 1638.28 563.329 Q1635.23 558.723 1635.23 549.996 Q1635.23 541.246 1638.28 536.663 Q1641.36 532.056 1647.17 532.056 Z" fill="#000000" fill-rule="evenodd" fill-opacity="1" /><polyline clip-path="url(#clip662)" style="stroke:#000000; stroke-linecap:butt; stroke-linejoin:round; stroke-width:2; stroke-opacity:0.1; fill:none" points="
  174.867,502.33 1952.76,502.33 
  "/>
<polyline clip-path="url(#clip662)" style="stroke:#000000; stroke-linecap:butt; stroke-linejoin:round; stroke-width:2; stroke-opacity:0.1; fill:none" points="
  174.867,379.922 1952.76,379.922 
  "/>
<polyline clip-path="url(#clip662)" style="stroke:#000000; stroke-linecap:butt; stroke-linejoin:round; stroke-width:2; stroke-opacity:0.1; fill:none" points="
  174.867,257.514 1952.76,257.514 
  "/>
<polyline clip-path="url(#clip662)" style="stroke:#000000; stroke-linecap:butt; stroke-linejoin:round; stroke-width:2; stroke-opacity:0.1; fill:none" points="
  174.867,135.106 1952.76,135.106 
  "/>
<polyline clip-path="url(#clip660)" style="stroke:#000000; stroke-linecap:butt; stroke-linejoin:round; stroke-width:4; stroke-opacity:1; fill:none" points="
  174.867,508.041 174.867,47.2441 
  "/>
<polyline clip-path="url(#clip660)" style="stroke:#000000; stroke-linecap:butt; stroke-linejoin:round; stroke-width:4; stroke-opacity:1; fill:none" points="
  174.867,502.33 193.764,502.33 
  "/>
<polyline clip-path="url(#clip660)" style="stroke:#000000; stroke-linecap:butt; stroke-linejoin:round; stroke-width:4; stroke-opacity:1; fill:none" points="
  174.867,379.922 193.764,379.922 
  "/>
<polyline clip-path="url(#clip660)" style="stroke:#000000; stroke-linecap:butt; stroke-linejoin:round; stroke-width:4; stroke-opacity:1; fill:none" points="
  174.867,257.514 193.764,257.514 
  "/>
<polyline clip-path="url(#clip660)" style="stroke:#000000; stroke-linecap:butt; stroke-linejoin:round; stroke-width:4; stroke-opacity:1; fill:none" points="
  174.867,135.106 193.764,135.106 
  "/>
<path clip-path="url(#clip660)" d="M52.9921 502.781 L82.6679 502.781 L82.6679 506.717 L52.9921 506.717 L52.9921 502.781 Z" fill="#000000" fill-rule="evenodd" fill-opacity="1" /><path clip-path="url(#clip660)" d="M105.608 489.124 L93.8021 507.573 L105.608 507.573 L105.608 489.124 M104.381 485.05 L110.26 485.05 L110.26 507.573 L115.191 507.573 L115.191 511.462 L110.26 511.462 L110.26 519.61 L105.608 519.61 L105.608 511.462 L90.0058 511.462 L90.0058 506.948 L104.381 485.05 Z" fill="#000000" fill-rule="evenodd" fill-opacity="1" /><path clip-path="url(#clip660)" d="M132.922 488.129 Q129.311 488.129 127.482 491.694 Q125.677 495.235 125.677 502.365 Q125.677 509.471 127.482 513.036 Q129.311 516.578 132.922 516.578 Q136.556 516.578 138.362 513.036 Q140.191 509.471 140.191 502.365 Q140.191 495.235 138.362 491.694 Q136.556 488.129 132.922 488.129 M132.922 484.425 Q138.732 484.425 141.788 489.031 Q144.867 493.615 144.867 502.365 Q144.867 511.092 141.788 515.698 Q138.732 520.281 132.922 520.281 Q127.112 520.281 124.033 515.698 Q120.978 511.092 120.978 502.365 Q120.978 493.615 124.033 489.031 Q127.112 484.425 132.922 484.425 Z" fill="#000000" fill-rule="evenodd" fill-opacity="1" /><path clip-path="url(#clip660)" d="M52.9921 380.373 L82.6679 380.373 L82.6679 384.309 L52.9921 384.309 L52.9921 380.373 Z" fill="#000000" fill-rule="evenodd" fill-opacity="1" /><path clip-path="url(#clip660)" d="M96.7882 393.267 L113.108 393.267 L113.108 397.202 L91.1632 397.202 L91.1632 393.267 Q93.8252 390.512 98.4085 385.883 Q103.015 381.23 104.196 379.887 Q106.441 377.364 107.321 375.628 Q108.223 373.869 108.223 372.179 Q108.223 369.424 106.279 367.688 Q104.358 365.952 101.256 365.952 Q99.0567 365.952 96.603 366.716 Q94.1725 367.48 91.3947 369.031 L91.3947 364.309 Q94.2188 363.174 96.6724 362.596 Q99.1261 362.017 101.163 362.017 Q106.534 362.017 109.728 364.702 Q112.922 367.387 112.922 371.878 Q112.922 374.008 112.112 375.929 Q111.325 377.827 109.219 380.42 Q108.64 381.091 105.538 384.309 Q102.436 387.503 96.7882 393.267 Z" fill="#000000" fill-rule="evenodd" fill-opacity="1" /><path clip-path="url(#clip660)" d="M132.922 365.721 Q129.311 365.721 127.482 369.286 Q125.677 372.827 125.677 379.957 Q125.677 387.063 127.482 390.628 Q129.311 394.17 132.922 394.17 Q136.556 394.17 138.362 390.628 Q140.191 387.063 140.191 379.957 Q140.191 372.827 138.362 369.286 Q136.556 365.721 132.922 365.721 M132.922 362.017 Q138.732 362.017 141.788 366.624 Q144.867 371.207 144.867 379.957 Q144.867 388.684 141.788 393.29 Q138.732 397.873 132.922 397.873 Q127.112 397.873 124.033 393.29 Q120.978 388.684 120.978 379.957 Q120.978 371.207 124.033 366.624 Q127.112 362.017 132.922 362.017 Z" fill="#000000" fill-rule="evenodd" fill-opacity="1" /><path clip-path="url(#clip660)" d="M132.922 243.313 Q129.311 243.313 127.482 246.878 Q125.677 250.419 125.677 257.549 Q125.677 264.655 127.482 268.22 Q129.311 271.762 132.922 271.762 Q136.556 271.762 138.362 268.22 Q140.191 264.655 140.191 257.549 Q140.191 250.419 138.362 246.878 Q136.556 243.313 132.922 243.313 M132.922 239.609 Q138.732 239.609 141.788 244.216 Q144.867 248.799 144.867 257.549 Q144.867 266.276 141.788 270.882 Q138.732 275.465 132.922 275.465 Q127.112 275.465 124.033 270.882 Q120.978 266.276 120.978 257.549 Q120.978 248.799 124.033 244.216 Q127.112 239.609 132.922 239.609 Z" fill="#000000" fill-rule="evenodd" fill-opacity="1" /><path clip-path="url(#clip660)" d="M96.7882 148.451 L113.108 148.451 L113.108 152.386 L91.1632 152.386 L91.1632 148.451 Q93.8252 145.696 98.4085 141.067 Q103.015 136.414 104.196 135.071 Q106.441 132.548 107.321 130.812 Q108.223 129.053 108.223 127.363 Q108.223 124.608 106.279 122.872 Q104.358 121.136 101.256 121.136 Q99.0567 121.136 96.603 121.9 Q94.1725 122.664 91.3947 124.215 L91.3947 119.493 Q94.2188 118.359 96.6724 117.78 Q99.1261 117.201 101.163 117.201 Q106.534 117.201 109.728 119.886 Q112.922 122.571 112.922 127.062 Q112.922 129.192 112.112 131.113 Q111.325 133.011 109.219 135.604 Q108.64 136.275 105.538 139.493 Q102.436 142.687 96.7882 148.451 Z" fill="#000000" fill-rule="evenodd" fill-opacity="1" /><path clip-path="url(#clip660)" d="M132.922 120.905 Q129.311 120.905 127.482 124.47 Q125.677 128.011 125.677 135.141 Q125.677 142.247 127.482 145.812 Q129.311 149.354 132.922 149.354 Q136.556 149.354 138.362 145.812 Q140.191 142.247 140.191 135.141 Q140.191 128.011 138.362 124.47 Q136.556 120.905 132.922 120.905 M132.922 117.201 Q138.732 117.201 141.788 121.808 Q144.867 126.391 144.867 135.141 Q144.867 143.868 141.788 148.474 Q138.732 153.057 132.922 153.057 Q127.112 153.057 124.033 148.474 Q120.978 143.868 120.978 135.141 Q120.978 126.391 124.033 121.808 Q127.112 117.201 132.922 117.201 Z" fill="#000000" fill-rule="evenodd" fill-opacity="1" /><path clip-path="url(#clip662)" d="
M225.184 260.195 L236.941 258.231 L248.341 259.687 L260.097 260.322 L271.498 258.705 L282.898 259.349 L294.654 261.987 L306.054 261.141 L317.811 264.561 L329.211 262.242 
  L340.611 260.571 L352.368 262.42 L363.768 261.609 L375.524 262.529 L386.925 263.209 L398.325 264.337 L414.356 266.649 L425.756 263.643 L437.157 261.771 L448.557 266.597 
  L459.957 267.908 L471.357 265.875 L482.757 262.949 L494.158 262.3 L505.558 262.814 L517.314 265.744 L528.715 262.446 L540.115 260.879 L551.515 262.981 L564.696 261.969 
  L581.797 261.513 L599.253 262.039 L616.71 259.723 L633.81 262.807 L651.267 261.17 L668.723 262.953 L686.18 261.028 L703.28 259.926 L720.737 261.138 L738.193 262.565 
  L755.65 262.013 L772.75 260.882 L790.207 262.743 L807.663 265.615 L824.763 258.512 L842.22 266.341 L859.676 264.064 L876.777 262.359 L894.233 266.187 L911.69 266.508 
  L928.79 263.893 L946.247 264.583 L963.703 270.861 L981.16 269.356 L998.26 265.801 L1015.72 266.517 L1033.17 265.645 L1050.27 266.375 L1067.37 266.915 L1084.83 267.274 
  L1102.29 266.201 L1119.74 268.522 L1136.84 267.391 L1154.3 267.169 L1171.76 267.931 L1189.21 270.082 L1206.31 273.094 L1223.77 276.717 L1241.23 271.779 L1258.68 278.568 
  L1276.14 274.575 L1293.6 280.233 L1311.05 280.515 L1328.15 276.024 L1345.61 279.732 L1363.07 277.771 L1380.52 274.959 L1397.98 270.948 L1420.07 267.958 L1442.87 269.837 
  L1467.09 269.24 L1491.32 271.845 L1515.54 277.366 L1539.41 278.988 L1563.64 277.023 L1587.86 280.906 L1612.09 281.78 L1636.31 273.402 L1660.54 282.265 L1684.77 285.011 
  L1708.99 289.603 L1733.22 284.838 L1757.44 276.636 L1781.31 274.482 L1805.54 273.477 L1829.76 269.962 L1853.99 278.659 L1878.21 289.832 L1902.44 289.336 L1902.44 225.692 
  L1878.21 225.197 L1853.99 236.369 L1829.76 245.066 L1805.54 241.551 L1781.31 240.546 L1757.44 238.393 L1733.22 230.19 L1708.99 225.425 L1684.77 230.018 L1660.54 232.763 
  L1636.31 241.626 L1612.09 233.249 L1587.86 234.122 L1563.64 238.005 L1539.41 236.04 L1515.54 237.662 L1491.32 243.183 L1467.09 245.788 L1442.87 245.191 L1420.07 247.07 
  L1397.98 244.08 L1380.52 240.069 L1363.07 237.258 L1345.61 235.296 L1328.15 239.004 L1311.05 234.514 L1293.6 234.795 L1276.14 240.453 L1258.68 236.46 L1241.23 243.249 
  L1223.77 238.311 L1206.31 241.934 L1189.21 244.947 L1171.76 247.097 L1154.3 247.859 L1136.84 247.637 L1119.74 246.506 L1102.29 248.827 L1084.83 247.754 L1067.37 248.113 
  L1050.27 248.653 L1033.17 249.383 L1015.72 248.511 L998.26 249.227 L981.16 245.672 L963.703 244.167 L946.247 250.445 L928.79 251.135 L911.69 248.52 L894.233 248.841 
  L876.777 252.669 L859.676 250.964 L842.22 248.687 L824.763 256.516 L807.663 249.413 L790.207 252.286 L772.75 254.146 L755.65 253.015 L738.193 252.463 L720.737 253.89 
  L703.28 255.102 L686.18 254 L668.723 252.075 L651.267 253.858 L633.81 252.222 L616.71 255.305 L599.253 252.989 L581.797 253.515 L564.696 253.059 L551.515 252.047 
  L540.115 254.15 L528.715 252.582 L517.314 249.284 L505.558 252.214 L494.158 252.728 L482.757 252.079 L471.357 249.154 L459.957 247.121 L448.557 248.431 L437.157 253.257 
  L425.756 251.385 L414.356 248.379 L398.325 250.692 L386.925 251.82 L375.524 252.499 L363.768 253.419 L352.368 252.608 L340.611 254.457 L329.211 252.786 L317.811 250.467 
  L306.054 253.887 L294.654 253.041 L282.898 255.679 L271.498 256.323 L260.097 254.707 L248.341 255.341 L236.941 256.797 L225.184 254.834  Z
  " fill="#000000" fill-rule="evenodd" fill-opacity="0.25"/>
<polyline clip-path="url(#clip662)" style="stroke:#000000; stroke-linecap:butt; stroke-linejoin:round; stroke-width:4; stroke-opacity:0; fill:none" points="
  225.184,257.514 236.941,257.514 248.341,257.514 260.097,257.514 271.498,257.514 282.898,257.514 294.654,257.514 306.054,257.514 317.811,257.514 329.211,257.514 
  340.611,257.514 352.368,257.514 363.768,257.514 375.524,257.514 386.925,257.514 398.325,257.514 414.356,257.514 425.756,257.514 437.157,257.514 448.557,257.514 
  459.957,257.514 471.357,257.514 482.757,257.514 494.158,257.514 505.558,257.514 517.314,257.514 528.715,257.514 540.115,257.514 551.515,257.514 564.696,257.514 
  581.797,257.514 599.253,257.514 616.71,257.514 633.81,257.514 651.267,257.514 668.723,257.514 686.18,257.514 703.28,257.514 720.737,257.514 738.193,257.514 
  755.65,257.514 772.75,257.514 790.207,257.514 807.663,257.514 824.763,257.514 842.22,257.514 859.676,257.514 876.777,257.514 894.233,257.514 911.69,257.514 
  928.79,257.514 946.247,257.514 963.703,257.514 981.16,257.514 998.26,257.514 1015.72,257.514 1033.17,257.514 1050.27,257.514 1067.37,257.514 1084.83,257.514 
  1102.29,257.514 1119.74,257.514 1136.84,257.514 1154.3,257.514 1171.76,257.514 1189.21,257.514 1206.31,257.514 1223.77,257.514 1241.23,257.514 1258.68,257.514 
  1276.14,257.514 1293.6,257.514 1311.05,257.514 1328.15,257.514 1345.61,257.514 1363.07,257.514 1380.52,257.514 1397.98,257.514 1420.07,257.514 1442.87,257.514 
  1467.09,257.514 1491.32,257.514 1515.54,257.514 1539.41,257.514 1563.64,257.514 1587.86,257.514 1612.09,257.514 1636.31,257.514 1660.54,257.514 1684.77,257.514 
  1708.99,257.514 1733.22,257.514 1757.44,257.514 1781.31,257.514 1805.54,257.514 1829.76,257.514 1853.99,257.514 1878.21,257.514 1902.44,257.514 
  "/>
<polyline clip-path="url(#clip662)" style="stroke:#009af9; stroke-linecap:butt; stroke-linejoin:round; stroke-width:8; stroke-opacity:1; fill:none" points="
  225.184,255.381 236.941,257.043 248.341,258.566 260.097,256.155 271.498,255.603 282.898,255.339 294.654,251.357 306.054,249.662 317.811,252.154 329.211,251.493 
  340.611,251.445 352.368,257.213 363.768,250.774 375.524,250.792 386.925,253.897 398.325,251.356 414.356,244.259 425.756,240.984 437.157,240.868 448.557,237.722 
  459.957,245.728 471.357,248.286 482.757,256.614 494.158,262.182 505.558,266.548 517.314,269.387 528.715,268.821 540.115,268.05 551.515,264.415 564.696,266.023 
  581.797,271.882 599.253,268.231 616.71,269.518 633.81,270.14 651.267,270.733 668.723,266.292 686.18,269.643 703.28,265.459 720.737,266.676 738.193,264.141 
  755.65,261.66 772.75,260.892 790.207,263.299 807.663,260.839 824.763,261.439 842.22,258.076 859.676,258.515 876.777,259.474 894.233,255.077 911.69,252.321 
  928.79,251.525 946.247,256.629 963.703,257.768 981.16,251.102 998.26,250.346 1015.72,252.729 1033.17,251.33 1050.27,256.116 1067.37,250.338 1084.83,248.787 
  1102.29,249.666 1119.74,253.159 1136.84,251.61 1154.3,252.288 1171.76,251.668 1189.21,252.893 1206.31,254.586 1223.77,253.343 1241.23,250.12 1258.68,252.655 
  1276.14,251.749 1293.6,257.397 1311.05,254.394 1328.15,252.046 1345.61,255.615 1363.07,253.156 1380.52,257.069 1397.98,257.705 1420.07,246.907 1442.87,243.281 
  1467.09,241.501 1491.32,237.213 1515.54,242.626 1539.41,240.941 1563.64,244.362 1587.86,245.361 1612.09,248.213 1636.31,248.784 1660.54,253.749 1684.77,257.308 
  1708.99,263.805 1733.22,263.348 1757.44,268.582 1781.31,268.577 1805.54,268.81 1829.76,268.142 1853.99,277.526 1878.21,284.789 1902.44,286.556 
  "/>
<polyline clip-path="url(#clip662)" style="stroke:#009af9; stroke-linecap:butt; stroke-linejoin:round; stroke-width:8; stroke-opacity:1; fill:none" stroke-dasharray="32, 20" points="
  225.184,255.589 236.941,257.456 248.341,259.253 260.097,257.225 271.498,257.173 282.898,257.572 294.654,254.493 306.054,253.951 317.811,257.999 329.211,259.302 
  340.611,261.794 352.368,270.95 363.768,268.75 375.524,274.395 386.925,284.506 398.325,290.908 414.356,300.736 425.756,314.148 437.157,332.018 448.557,345.892 
  459.957,369.943 471.357,387.6 482.757,409.967 494.158,428.419 505.558,444.417 517.314,457.825 528.715,466.003 540.115,472.363 551.515,474.117 564.696,479.613 
  581.797,486.461 599.253,478.707 616.71,470.401 633.81,456.17 651.267,436.093 668.723,405.802 686.18,378.846 703.28,341.632 720.737,306.988 738.193,267.892 
  755.65,229.651 772.75,195.875 790.207,167.705 807.663,138.653 824.763,117.504 842.22,96.4271 859.676,83.5986 876.777,75.6097 894.233,65.7439 911.69,60.6431 
  928.79,60.2855 946.247,68.3001 963.703,74.4273 981.16,74.3364 998.26,81.0314 1015.72,91.8635 1033.17,99.6367 1050.27,113.935 1067.37,118.028 1084.83,126.771 
  1102.29,138.055 1119.74,152.02 1136.84,160.748 1154.3,171.886 1171.76,181.638 1189.21,193.087 1206.31,204.62 1223.77,213.254 1241.23,219.731 1258.68,231.784 
  1276.14,240.205 1293.6,254.979 1311.05,260.892 1328.15,267.074 1345.61,279.15 1363.07,285 1380.52,297.029 1397.98,305.591 1420.07,304.55 1442.87,310.68 
  1467.09,318.912 1491.32,324.289 1515.54,339.036 1539.41,346.236 1563.64,358.37 1587.86,367.782 1612.09,378.756 1636.31,387.163 1660.54,399.688 1684.77,410.545 
  1708.99,424.085 1733.22,430.428 1757.44,442.228 1781.31,448.471 1805.54,454.827 1829.76,460.069 1853.99,475.157 1878.21,487.923 1902.44,495 
  "/>
<path clip-path="url(#clip660)" d="
M174.867 1148.04 L1952.76 1148.04 L1952.76 687.244 L174.867 687.244  Z
  " fill="#ffffff" fill-rule="evenodd" fill-opacity="1"/>
<defs>
  <clipPath id="clip663">
    <rect x="174" y="687" width="1779" height="462"/>
  </clipPath>
</defs>
<polyline clip-path="url(#clip663)" style="stroke:#000000; stroke-linecap:butt; stroke-linejoin:round; stroke-width:2; stroke-opacity:0.1; fill:none" points="
  214.203,1148.04 214.203,687.244 
  "/>
<polyline clip-path="url(#clip663)" style="stroke:#000000; stroke-linecap:butt; stroke-linejoin:round; stroke-width:2; stroke-opacity:0.1; fill:none" points="
  568.428,1148.04 568.428,687.244 
  "/>
<polyline clip-path="url(#clip663)" style="stroke:#000000; stroke-linecap:butt; stroke-linejoin:round; stroke-width:2; stroke-opacity:0.1; fill:none" points="
  922.653,1148.04 922.653,687.244 
  "/>
<polyline clip-path="url(#clip663)" style="stroke:#000000; stroke-linecap:butt; stroke-linejoin:round; stroke-width:2; stroke-opacity:0.1; fill:none" points="
  1276.88,1148.04 1276.88,687.244 
  "/>
<polyline clip-path="url(#clip663)" style="stroke:#000000; stroke-linecap:butt; stroke-linejoin:round; stroke-width:2; stroke-opacity:0.1; fill:none" points="
  1631.1,1148.04 1631.1,687.244 
  "/>
<polyline clip-path="url(#clip660)" style="stroke:#000000; stroke-linecap:butt; stroke-linejoin:round; stroke-width:4; stroke-opacity:1; fill:none" points="
  174.867,1148.04 1952.76,1148.04 
  "/>
<polyline clip-path="url(#clip660)" style="stroke:#000000; stroke-linecap:butt; stroke-linejoin:round; stroke-width:4; stroke-opacity:1; fill:none" points="
  214.203,1148.04 214.203,1129.14 
  "/>
<polyline clip-path="url(#clip660)" style="stroke:#000000; stroke-linecap:butt; stroke-linejoin:round; stroke-width:4; stroke-opacity:1; fill:none" points="
  568.428,1148.04 568.428,1129.14 
  "/>
<polyline clip-path="url(#clip660)" style="stroke:#000000; stroke-linecap:butt; stroke-linejoin:round; stroke-width:4; stroke-opacity:1; fill:none" points="
  922.653,1148.04 922.653,1129.14 
  "/>
<polyline clip-path="url(#clip660)" style="stroke:#000000; stroke-linecap:butt; stroke-linejoin:round; stroke-width:4; stroke-opacity:1; fill:none" points="
  1276.88,1148.04 1276.88,1129.14 
  "/>
<polyline clip-path="url(#clip660)" style="stroke:#000000; stroke-linecap:butt; stroke-linejoin:round; stroke-width:4; stroke-opacity:1; fill:none" points="
  1631.1,1148.04 1631.1,1129.14 
  "/>
<path clip-path="url(#clip660)" d="M214.203 1175.76 Q210.592 1175.76 208.764 1179.32 Q206.958 1182.87 206.958 1190 Q206.958 1197.1 208.764 1200.67 Q210.592 1204.21 214.203 1204.21 Q217.838 1204.21 219.643 1200.67 Q221.472 1197.1 221.472 1190 Q221.472 1182.87 219.643 1179.32 Q217.838 1175.76 214.203 1175.76 M214.203 1172.06 Q220.013 1172.06 223.069 1176.66 Q226.148 1181.25 226.148 1190 Q226.148 1198.72 223.069 1203.33 Q220.013 1207.91 214.203 1207.91 Q208.393 1207.91 205.314 1203.33 Q202.259 1198.72 202.259 1190 Q202.259 1181.25 205.314 1176.66 Q208.393 1172.06 214.203 1172.06 Z" fill="#000000" fill-rule="evenodd" fill-opacity="1" /><path clip-path="url(#clip660)" d="M543.116 1203.31 L550.754 1203.31 L550.754 1176.94 L542.444 1178.61 L542.444 1174.35 L550.708 1172.68 L555.384 1172.68 L555.384 1203.31 L563.023 1203.31 L563.023 1207.24 L543.116 1207.24 L543.116 1203.31 Z" fill="#000000" fill-rule="evenodd" fill-opacity="1" /><path clip-path="url(#clip660)" d="M582.467 1175.76 Q578.856 1175.76 577.027 1179.32 Q575.222 1182.87 575.222 1190 Q575.222 1197.1 577.027 1200.67 Q578.856 1204.21 582.467 1204.21 Q586.102 1204.21 587.907 1200.67 Q589.736 1197.1 589.736 1190 Q589.736 1182.87 587.907 1179.32 Q586.102 1175.76 582.467 1175.76 M582.467 1172.06 Q588.277 1172.06 591.333 1176.66 Q594.412 1181.25 594.412 1190 Q594.412 1198.72 591.333 1203.33 Q588.277 1207.91 582.467 1207.91 Q576.657 1207.91 573.578 1203.33 Q570.523 1198.72 570.523 1190 Q570.523 1181.25 573.578 1176.66 Q576.657 1172.06 582.467 1172.06 Z" fill="#000000" fill-rule="evenodd" fill-opacity="1" /><path clip-path="url(#clip660)" d="M901.426 1203.31 L917.745 1203.31 L917.745 1207.24 L895.801 1207.24 L895.801 1203.31 Q898.463 1200.55 903.046 1195.92 Q907.653 1191.27 908.833 1189.93 Q911.079 1187.4 911.958 1185.67 Q912.861 1183.91 912.861 1182.22 Q912.861 1179.46 910.917 1177.73 Q908.995 1175.99 905.894 1175.99 Q903.694 1175.99 901.241 1176.76 Q898.81 1177.52 896.032 1179.07 L896.032 1174.35 Q898.857 1173.21 901.31 1172.64 Q903.764 1172.06 905.801 1172.06 Q911.171 1172.06 914.366 1174.74 Q917.56 1177.43 917.56 1181.92 Q917.56 1184.05 916.75 1185.97 Q915.963 1187.87 913.856 1190.46 Q913.278 1191.13 910.176 1194.35 Q907.074 1197.54 901.426 1203.31 Z" fill="#000000" fill-rule="evenodd" fill-opacity="1" /><path clip-path="url(#clip660)" d="M937.56 1175.76 Q933.949 1175.76 932.12 1179.32 Q930.315 1182.87 930.315 1190 Q930.315 1197.1 932.12 1200.67 Q933.949 1204.21 937.56 1204.21 Q941.194 1204.21 943 1200.67 Q944.829 1197.1 944.829 1190 Q944.829 1182.87 943 1179.32 Q941.194 1175.76 937.56 1175.76 M937.56 1172.06 Q943.37 1172.06 946.426 1176.66 Q949.504 1181.25 949.504 1190 Q949.504 1198.72 946.426 1203.33 Q943.37 1207.91 937.56 1207.91 Q931.75 1207.91 928.671 1203.33 Q925.616 1198.72 925.616 1190 Q925.616 1181.25 928.671 1176.66 Q931.75 1172.06 937.56 1172.06 Z" fill="#000000" fill-rule="evenodd" fill-opacity="1" /><path clip-path="url(#clip660)" d="M1265.72 1188.61 Q1269.08 1189.32 1270.95 1191.59 Q1272.85 1193.86 1272.85 1197.2 Q1272.85 1202.31 1269.33 1205.11 Q1265.81 1207.91 1259.33 1207.91 Q1257.16 1207.91 1254.84 1207.47 Q1252.55 1207.06 1250.1 1206.2 L1250.1 1201.69 Q1252.04 1202.82 1254.35 1203.4 Q1256.67 1203.98 1259.19 1203.98 Q1263.59 1203.98 1265.88 1202.24 Q1268.2 1200.51 1268.2 1197.2 Q1268.2 1194.14 1266.04 1192.43 Q1263.91 1190.69 1260.1 1190.69 L1256.07 1190.69 L1256.07 1186.85 L1260.28 1186.85 Q1263.73 1186.85 1265.56 1185.48 Q1267.39 1184.09 1267.39 1181.5 Q1267.39 1178.84 1265.49 1177.43 Q1263.61 1175.99 1260.1 1175.99 Q1258.17 1175.99 1255.97 1176.41 Q1253.78 1176.82 1251.14 1177.7 L1251.14 1173.54 Q1253.8 1172.8 1256.11 1172.43 Q1258.45 1172.06 1260.51 1172.06 Q1265.84 1172.06 1268.94 1174.49 Q1272.04 1176.89 1272.04 1181.01 Q1272.04 1183.89 1270.4 1185.88 Q1268.75 1187.84 1265.72 1188.61 Z" fill="#000000" fill-rule="evenodd" fill-opacity="1" /><path clip-path="url(#clip660)" d="M1291.72 1175.76 Q1288.1 1175.76 1286.28 1179.32 Q1284.47 1182.87 1284.47 1190 Q1284.47 1197.1 1286.28 1200.67 Q1288.1 1204.21 1291.72 1204.21 Q1295.35 1204.21 1297.16 1200.67 Q1298.98 1197.1 1298.98 1190 Q1298.98 1182.87 1297.16 1179.32 Q1295.35 1175.76 1291.72 1175.76 M1291.72 1172.06 Q1297.53 1172.06 1300.58 1176.66 Q1303.66 1181.25 1303.66 1190 Q1303.66 1198.72 1300.58 1203.33 Q1297.53 1207.91 1291.72 1207.91 Q1285.91 1207.91 1282.83 1203.33 Q1279.77 1198.72 1279.77 1190 Q1279.77 1181.25 1282.83 1176.66 Q1285.91 1172.06 1291.72 1172.06 Z" fill="#000000" fill-rule="evenodd" fill-opacity="1" /><path clip-path="url(#clip660)" d="M1619.27 1176.76 L1607.47 1195.2 L1619.27 1195.2 L1619.27 1176.76 M1618.05 1172.68 L1623.93 1172.68 L1623.93 1195.2 L1628.86 1195.2 L1628.86 1199.09 L1623.93 1199.09 L1623.93 1207.24 L1619.27 1207.24 L1619.27 1199.09 L1603.67 1199.09 L1603.67 1194.58 L1618.05 1172.68 Z" fill="#000000" fill-rule="evenodd" fill-opacity="1" /><path clip-path="url(#clip660)" d="M1646.59 1175.76 Q1642.98 1175.76 1641.15 1179.32 Q1639.34 1182.87 1639.34 1190 Q1639.34 1197.1 1641.15 1200.67 Q1642.98 1204.21 1646.59 1204.21 Q1650.22 1204.21 1652.03 1200.67 Q1653.86 1197.1 1653.86 1190 Q1653.86 1182.87 1652.03 1179.32 Q1650.22 1175.76 1646.59 1175.76 M1646.59 1172.06 Q1652.4 1172.06 1655.45 1176.66 Q1658.53 1181.25 1658.53 1190 Q1658.53 1198.72 1655.45 1203.33 Q1652.4 1207.91 1646.59 1207.91 Q1640.78 1207.91 1637.7 1203.33 Q1634.64 1198.72 1634.64 1190 Q1634.64 1181.25 1637.7 1176.66 Q1640.78 1172.06 1646.59 1172.06 Z" fill="#000000" fill-rule="evenodd" fill-opacity="1" /><polyline clip-path="url(#clip663)" style="stroke:#000000; stroke-linecap:butt; stroke-linejoin:round; stroke-width:2; stroke-opacity:0.1; fill:none" points="
  174.867,1054.39 1952.76,1054.39 
  "/>
<polyline clip-path="url(#clip663)" style="stroke:#000000; stroke-linecap:butt; stroke-linejoin:round; stroke-width:2; stroke-opacity:0.1; fill:none" points="
  174.867,932.967 1952.76,932.967 
  "/>
<polyline clip-path="url(#clip663)" style="stroke:#000000; stroke-linecap:butt; stroke-linejoin:round; stroke-width:2; stroke-opacity:0.1; fill:none" points="
  174.867,811.542 1952.76,811.542 
  "/>
<polyline clip-path="url(#clip663)" style="stroke:#000000; stroke-linecap:butt; stroke-linejoin:round; stroke-width:2; stroke-opacity:0.1; fill:none" points="
  174.867,690.116 1952.76,690.116 
  "/>
<polyline clip-path="url(#clip660)" style="stroke:#000000; stroke-linecap:butt; stroke-linejoin:round; stroke-width:4; stroke-opacity:1; fill:none" points="
  174.867,1148.04 174.867,687.244 
  "/>
<polyline clip-path="url(#clip660)" style="stroke:#000000; stroke-linecap:butt; stroke-linejoin:round; stroke-width:4; stroke-opacity:1; fill:none" points="
  174.867,1054.39 193.764,1054.39 
  "/>
<polyline clip-path="url(#clip660)" style="stroke:#000000; stroke-linecap:butt; stroke-linejoin:round; stroke-width:4; stroke-opacity:1; fill:none" points="
  174.867,932.967 193.764,932.967 
  "/>
<polyline clip-path="url(#clip660)" style="stroke:#000000; stroke-linecap:butt; stroke-linejoin:round; stroke-width:4; stroke-opacity:1; fill:none" points="
  174.867,811.542 193.764,811.542 
  "/>
<polyline clip-path="url(#clip660)" style="stroke:#000000; stroke-linecap:butt; stroke-linejoin:round; stroke-width:4; stroke-opacity:1; fill:none" points="
  174.867,690.116 193.764,690.116 
  "/>
<path clip-path="url(#clip660)" d="M52.9921 1054.84 L82.6679 1054.84 L82.6679 1058.78 L52.9921 1058.78 L52.9921 1054.84 Z" fill="#000000" fill-rule="evenodd" fill-opacity="1" /><path clip-path="url(#clip660)" d="M93.5706 1067.74 L101.209 1067.74 L101.209 1041.37 L92.8993 1043.04 L92.8993 1038.78 L101.163 1037.11 L105.839 1037.11 L105.839 1067.74 L113.478 1067.74 L113.478 1071.67 L93.5706 1071.67 L93.5706 1067.74 Z" fill="#000000" fill-rule="evenodd" fill-opacity="1" /><path clip-path="url(#clip660)" d="M132.922 1040.19 Q129.311 1040.19 127.482 1043.76 Q125.677 1047.3 125.677 1054.43 Q125.677 1061.53 127.482 1065.1 Q129.311 1068.64 132.922 1068.64 Q136.556 1068.64 138.362 1065.1 Q140.191 1061.53 140.191 1054.43 Q140.191 1047.3 138.362 1043.76 Q136.556 1040.19 132.922 1040.19 M132.922 1036.49 Q138.732 1036.49 141.788 1041.09 Q144.867 1045.68 144.867 1054.43 Q144.867 1063.15 141.788 1067.76 Q138.732 1072.34 132.922 1072.34 Q127.112 1072.34 124.033 1067.76 Q120.978 1063.15 120.978 1054.43 Q120.978 1045.68 124.033 1041.09 Q127.112 1036.49 132.922 1036.49 Z" fill="#000000" fill-rule="evenodd" fill-opacity="1" /><path clip-path="url(#clip660)" d="M132.922 918.766 Q129.311 918.766 127.482 922.331 Q125.677 925.873 125.677 933.002 Q125.677 940.109 127.482 943.673 Q129.311 947.215 132.922 947.215 Q136.556 947.215 138.362 943.673 Q140.191 940.109 140.191 933.002 Q140.191 925.873 138.362 922.331 Q136.556 918.766 132.922 918.766 M132.922 915.062 Q138.732 915.062 141.788 919.669 Q144.867 924.252 144.867 933.002 Q144.867 941.729 141.788 946.335 Q138.732 950.919 132.922 950.919 Q127.112 950.919 124.033 946.335 Q120.978 941.729 120.978 933.002 Q120.978 924.252 124.033 919.669 Q127.112 915.062 132.922 915.062 Z" fill="#000000" fill-rule="evenodd" fill-opacity="1" /><path clip-path="url(#clip660)" d="M93.5706 824.887 L101.209 824.887 L101.209 798.521 L92.8993 800.188 L92.8993 795.928 L101.163 794.262 L105.839 794.262 L105.839 824.887 L113.478 824.887 L113.478 828.822 L93.5706 828.822 L93.5706 824.887 Z" fill="#000000" fill-rule="evenodd" fill-opacity="1" /><path clip-path="url(#clip660)" d="M132.922 797.341 Q129.311 797.341 127.482 800.905 Q125.677 804.447 125.677 811.577 Q125.677 818.683 127.482 822.248 Q129.311 825.789 132.922 825.789 Q136.556 825.789 138.362 822.248 Q140.191 818.683 140.191 811.577 Q140.191 804.447 138.362 800.905 Q136.556 797.341 132.922 797.341 M132.922 793.637 Q138.732 793.637 141.788 798.243 Q144.867 802.827 144.867 811.577 Q144.867 820.303 141.788 824.91 Q138.732 829.493 132.922 829.493 Q127.112 829.493 124.033 824.91 Q120.978 820.303 120.978 811.577 Q120.978 802.827 124.033 798.243 Q127.112 793.637 132.922 793.637 Z" fill="#000000" fill-rule="evenodd" fill-opacity="1" /><path clip-path="url(#clip660)" d="M96.7882 703.461 L113.108 703.461 L113.108 707.396 L91.1632 707.396 L91.1632 703.461 Q93.8252 700.706 98.4085 696.077 Q103.015 691.424 104.196 690.081 Q106.441 687.558 107.321 685.822 Q108.223 684.063 108.223 682.373 Q108.223 679.619 106.279 677.882 Q104.358 676.146 101.256 676.146 Q99.0567 676.146 96.603 676.91 Q94.1725 677.674 91.3947 679.225 L91.3947 674.503 Q94.2188 673.369 96.6724 672.79 Q99.1261 672.211 101.163 672.211 Q106.534 672.211 109.728 674.896 Q112.922 677.582 112.922 682.072 Q112.922 684.202 112.112 686.123 Q111.325 688.021 109.219 690.614 Q108.64 691.285 105.538 694.503 Q102.436 697.697 96.7882 703.461 Z" fill="#000000" fill-rule="evenodd" fill-opacity="1" /><path clip-path="url(#clip660)" d="M132.922 675.915 Q129.311 675.915 127.482 679.48 Q125.677 683.021 125.677 690.151 Q125.677 697.257 127.482 700.822 Q129.311 704.364 132.922 704.364 Q136.556 704.364 138.362 700.822 Q140.191 697.257 140.191 690.151 Q140.191 683.021 138.362 679.48 Q136.556 675.915 132.922 675.915 M132.922 672.211 Q138.732 672.211 141.788 676.818 Q144.867 681.401 144.867 690.151 Q144.867 698.878 141.788 703.484 Q138.732 708.067 132.922 708.067 Q127.112 708.067 124.033 703.484 Q120.978 698.878 120.978 690.151 Q120.978 681.401 124.033 676.818 Q127.112 672.211 132.922 672.211 Z" fill="#000000" fill-rule="evenodd" fill-opacity="1" /><path clip-path="url(#clip663)" d="
M225.184 934.007 L237.936 934.173 L250.688 934.882 L263.086 934.563 L275.838 934.443 L288.59 939.615 L301.343 939.502 L314.095 937.996 L326.493 936.104 L339.245 937.703 
  L354.831 935.576 L370.771 936.676 L386.357 936.484 L401.942 936.187 L417.528 941.39 L433.114 934.364 L448.7 940.153 L464.64 941.945 L483.06 935.095 L503.605 934.105 
  L523.796 934.619 L543.986 940.599 L564.177 940.838 L584.368 939.751 L604.559 944.092 L624.75 947.514 L644.941 952.829 L665.131 956.151 L685.322 956.323 L705.513 962.626 
  L726.766 964.645 L746.957 974.179 L767.148 982.371 L787.339 987.446 L807.884 994.665 L828.075 999.801 L848.266 1004.16 L868.456 1004.45 L888.647 1013.3 L908.838 1016.08 
  L929.383 1020.74 L949.574 1025.57 L969.765 1021.5 L989.955 1020.01 L1010.15 1015.9 L1030.69 1013.47 L1050.88 1015.46 L1071.07 1015.64 L1091.26 1013.05 L1111.45 1018.67 
  L1131.65 1014.76 L1151.84 1027.84 L1172.38 1001.29 L1192.57 988.48 L1212.76 993.461 L1233.31 1000.81 L1253.5 992.934 L1273.69 995.269 L1293.88 1000.2 L1314.07 990.475 
  L1336.74 993.515 L1360.12 981.791 L1383.5 977.097 L1406.88 975.802 L1430.61 976.913 L1453.99 969.217 L1477.37 968.348 L1500.75 992.96 L1524.13 979.035 L1547.51 980.187 
  L1570.88 994.677 L1594.62 997.771 L1618 965.287 L1641.37 954.548 L1664.75 960.362 L1688.13 967.141 L1711.51 961.199 L1733.12 965.696 L1757.91 954.062 L1781.65 951.821 
  L1805.03 969.631 L1828.41 982.771 L1852.85 997.477 L1877.64 986.687 L1902.44 997.745 L1902.44 868.19 L1877.64 879.248 L1852.85 868.458 L1828.41 883.164 L1805.03 896.304 
  L1781.65 914.114 L1757.91 911.873 L1733.12 900.239 L1711.51 904.736 L1688.13 898.794 L1664.75 905.573 L1641.37 911.387 L1618 900.648 L1594.62 868.164 L1570.88 871.258 
  L1547.51 885.748 L1524.13 886.9 L1500.75 872.975 L1477.37 897.587 L1453.99 896.718 L1430.61 889.022 L1406.88 890.133 L1383.5 888.838 L1360.12 884.144 L1336.74 872.42 
  L1314.07 875.46 L1293.88 865.733 L1273.69 870.666 L1253.5 873.001 L1233.31 865.121 L1212.76 872.474 L1192.57 877.455 L1172.38 864.646 L1151.84 838.096 L1131.65 851.172 
  L1111.45 847.264 L1091.26 852.885 L1071.07 850.296 L1050.88 850.473 L1030.69 852.465 L1010.15 850.039 L989.955 845.927 L969.765 844.431 L949.574 840.362 L929.383 845.196 
  L908.838 849.86 L888.647 852.634 L868.456 861.482 L848.266 861.771 L828.075 866.134 L807.884 871.27 L787.339 878.489 L767.148 883.564 L746.957 891.756 L726.766 901.29 
  L705.513 903.309 L685.322 909.612 L665.131 909.784 L644.941 913.106 L624.75 918.421 L604.559 921.843 L584.368 926.184 L564.177 925.097 L543.986 925.336 L523.796 931.316 
  L503.605 931.83 L483.06 930.84 L464.64 923.99 L448.7 925.782 L433.114 931.571 L417.528 924.545 L401.942 929.748 L386.357 929.451 L370.771 929.259 L354.831 930.359 
  L339.245 928.232 L326.493 929.831 L314.095 927.938 L301.343 926.433 L288.59 926.32 L275.838 931.492 L263.086 931.372 L250.688 931.053 L237.936 931.762 L225.184 931.928 
   Z
  " fill="#000000" fill-rule="evenodd" fill-opacity="0.25"/>
<polyline clip-path="url(#clip663)" style="stroke:#000000; stroke-linecap:butt; stroke-linejoin:round; stroke-width:4; stroke-opacity:0; fill:none" points="
  225.184,932.967 237.936,932.967 250.688,932.967 263.086,932.967 275.838,932.967 288.59,932.967 301.343,932.967 314.095,932.967 326.493,932.967 339.245,932.967 
  354.831,932.967 370.771,932.967 386.357,932.967 401.942,932.967 417.528,932.967 433.114,932.967 448.7,932.967 464.64,932.967 483.06,932.967 503.605,932.967 
  523.796,932.967 543.986,932.967 564.177,932.967 584.368,932.967 604.559,932.967 624.75,932.967 644.941,932.967 665.131,932.967 685.322,932.967 705.513,932.967 
  726.766,932.967 746.957,932.967 767.148,932.967 787.339,932.967 807.884,932.967 828.075,932.967 848.266,932.967 868.456,932.967 888.647,932.967 908.838,932.967 
  929.383,932.967 949.574,932.967 969.765,932.967 989.955,932.967 1010.15,932.967 1030.69,932.967 1050.88,932.967 1071.07,932.967 1091.26,932.967 1111.45,932.967 
  1131.65,932.967 1151.84,932.967 1172.38,932.967 1192.57,932.967 1212.76,932.967 1233.31,932.967 1253.5,932.967 1273.69,932.967 1293.88,932.967 1314.07,932.967 
  1336.74,932.967 1360.12,932.967 1383.5,932.967 1406.88,932.967 1430.61,932.967 1453.99,932.967 1477.37,932.967 1500.75,932.967 1524.13,932.967 1547.51,932.967 
  1570.88,932.967 1594.62,932.967 1618,932.967 1641.37,932.967 1664.75,932.967 1688.13,932.967 1711.51,932.967 1733.12,932.967 1757.91,932.967 1781.65,932.967 
  1805.03,932.967 1828.41,932.967 1852.85,932.967 1877.64,932.967 1902.44,932.967 
  "/>
<polyline clip-path="url(#clip663)" style="stroke:#e26f46; stroke-linecap:butt; stroke-linejoin:round; stroke-width:8; stroke-opacity:1; fill:none" points="
  225.184,933.695 237.936,934.163 250.688,933.482 263.086,933.607 275.838,934.224 288.59,933.258 301.343,932.349 314.095,932.732 326.493,933.433 339.245,937.374 
  354.831,940.513 370.771,940.387 386.357,941.289 401.942,944.53 417.528,943.888 433.114,951.638 448.7,953.222 464.64,955.583 483.06,955.59 503.605,959.139 
  523.796,963.079 543.986,967.662 564.177,967.977 584.368,967.354 604.559,968.02 624.75,970.684 644.941,969.105 665.131,970.979 685.322,968.499 705.513,970.497 
  726.766,964.59 746.957,962.513 767.148,957.762 787.339,948.791 807.884,940.226 828.075,929.806 848.266,925.925 868.456,921.259 888.647,921.679 908.838,920.599 
  929.383,923.914 949.574,922.942 969.765,928.598 989.955,935.453 1010.15,938.446 1030.69,946.878 1050.88,943.075 1071.07,947.296 1091.26,950.335 1111.45,948.283 
  1131.65,954.008 1151.84,968.489 1172.38,965.445 1192.57,962.25 1212.76,960.631 1233.31,960.216 1253.5,950.652 1273.69,950.745 1293.88,952.853 1314.07,958.596 
  1336.74,956.035 1360.12,959.094 1383.5,960.833 1406.88,936.991 1430.61,935.304 1453.99,937.472 1477.37,946.151 1500.75,909.049 1524.13,915.872 1547.51,900.847 
  1570.88,891.774 1594.62,892.306 1618,907.497 1641.37,912.561 1664.75,918.875 1688.13,900.995 1711.51,904.665 1733.12,888.813 1757.91,877.17 1781.65,885.371 
  1805.03,875.299 1828.41,873.465 1852.85,871.016 1877.64,867.089 1902.44,858.508 
  "/>
<polyline clip-path="url(#clip663)" style="stroke:#e26f46; stroke-linecap:butt; stroke-linejoin:round; stroke-width:8; stroke-opacity:1; fill:none" stroke-dasharray="32, 20" points="
  225.184,933.69 237.936,934.151 250.688,933.461 263.086,933.576 275.838,934.181 288.59,933.202 301.343,932.277 314.095,932.641 326.493,933.322 339.245,937.239 
  354.831,940.344 370.771,940.177 386.357,941.032 401.942,944.219 417.528,943.515 433.114,951.194 448.7,952.698 464.64,954.966 483.06,954.851 503.605,958.246 
  523.796,962.017 543.986,966.417 564.177,966.538 584.368,965.722 604.559,966.211 624.75,968.74 644.941,967.104 665.131,969.048 685.322,966.846 705.513,969.439 
  726.766,964.453 746.957,963.661 767.148,961.692 787.339,956.808 807.884,952.049 828.075,942.37 848.266,935.972 868.456,925.649 888.647,917.341 908.838,904.615 
  929.383,893.331 949.574,875.639 969.765,862.684 989.955,849.545 1010.15,831.698 1030.69,818.646 1050.88,794.065 1071.07,778.437 1091.26,763.054 1111.45,744.425 
  1131.65,735.753 1151.84,738.271 1172.38,725.728 1192.57,715.913 1212.76,710.37 1233.31,708.643 1253.5,700.286 1273.69,703.92 1293.88,711.745 1314.07,725.199 
  1336.74,733.426 1360.12,749.64 1383.5,766.266 1406.88,758.826 1430.61,775.141 1453.99,796.172 1477.37,824.635 1500.75,808.033 1524.13,835.872 1547.51,842.282 
  1570.88,854.99 1594.62,877.909 1618,915.349 1641.37,942.783 1664.75,971.518 1688.13,976.048 1711.51,1002.09 1733.12,1006.87 1757.91,1018.84 1781.65,1049.54 
  1805.03,1061.52 1828.41,1081.61 1852.85,1101.91 1877.64,1120.88 1902.44,1135 
  "/>
<path clip-path="url(#clip660)" d="
M174.867 1788.04 L1952.76 1788.04 L1952.76 1327.24 L174.867 1327.24  Z
  " fill="#ffffff" fill-rule="evenodd" fill-opacity="1"/>
<defs>
  <clipPath id="clip664">
    <rect x="174" y="1327" width="1779" height="462"/>
  </clipPath>
</defs>
<polyline clip-path="url(#clip664)" style="stroke:#000000; stroke-linecap:butt; stroke-linejoin:round; stroke-width:2; stroke-opacity:0.1; fill:none" points="
  209.378,1788.04 209.378,1327.24 
  "/>
<polyline clip-path="url(#clip664)" style="stroke:#000000; stroke-linecap:butt; stroke-linejoin:round; stroke-width:2; stroke-opacity:0.1; fill:none" points="
  568.61,1788.04 568.61,1327.24 
  "/>
<polyline clip-path="url(#clip664)" style="stroke:#000000; stroke-linecap:butt; stroke-linejoin:round; stroke-width:2; stroke-opacity:0.1; fill:none" points="
  927.842,1788.04 927.842,1327.24 
  "/>
<polyline clip-path="url(#clip664)" style="stroke:#000000; stroke-linecap:butt; stroke-linejoin:round; stroke-width:2; stroke-opacity:0.1; fill:none" points="
  1287.07,1788.04 1287.07,1327.24 
  "/>
<polyline clip-path="url(#clip664)" style="stroke:#000000; stroke-linecap:butt; stroke-linejoin:round; stroke-width:2; stroke-opacity:0.1; fill:none" points="
  1646.31,1788.04 1646.31,1327.24 
  "/>
<polyline clip-path="url(#clip660)" style="stroke:#000000; stroke-linecap:butt; stroke-linejoin:round; stroke-width:4; stroke-opacity:1; fill:none" points="
  174.867,1788.04 1952.76,1788.04 
  "/>
<polyline clip-path="url(#clip660)" style="stroke:#000000; stroke-linecap:butt; stroke-linejoin:round; stroke-width:4; stroke-opacity:1; fill:none" points="
  209.378,1788.04 209.378,1769.14 
  "/>
<polyline clip-path="url(#clip660)" style="stroke:#000000; stroke-linecap:butt; stroke-linejoin:round; stroke-width:4; stroke-opacity:1; fill:none" points="
  568.61,1788.04 568.61,1769.14 
  "/>
<polyline clip-path="url(#clip660)" style="stroke:#000000; stroke-linecap:butt; stroke-linejoin:round; stroke-width:4; stroke-opacity:1; fill:none" points="
  927.842,1788.04 927.842,1769.14 
  "/>
<polyline clip-path="url(#clip660)" style="stroke:#000000; stroke-linecap:butt; stroke-linejoin:round; stroke-width:4; stroke-opacity:1; fill:none" points="
  1287.07,1788.04 1287.07,1769.14 
  "/>
<polyline clip-path="url(#clip660)" style="stroke:#000000; stroke-linecap:butt; stroke-linejoin:round; stroke-width:4; stroke-opacity:1; fill:none" points="
  1646.31,1788.04 1646.31,1769.14 
  "/>
<path clip-path="url(#clip660)" d="M209.378 1815.76 Q205.767 1815.76 203.938 1819.32 Q202.133 1822.87 202.133 1830 Q202.133 1837.1 203.938 1840.67 Q205.767 1844.21 209.378 1844.21 Q213.012 1844.21 214.818 1840.67 Q216.647 1837.1 216.647 1830 Q216.647 1822.87 214.818 1819.32 Q213.012 1815.76 209.378 1815.76 M209.378 1812.06 Q215.188 1812.06 218.244 1816.66 Q221.322 1821.25 221.322 1830 Q221.322 1838.72 218.244 1843.33 Q215.188 1847.91 209.378 1847.91 Q203.568 1847.91 200.489 1843.33 Q197.434 1838.72 197.434 1830 Q197.434 1821.25 200.489 1816.66 Q203.568 1812.06 209.378 1812.06 Z" fill="#000000" fill-rule="evenodd" fill-opacity="1" /><path clip-path="url(#clip660)" d="M543.298 1843.31 L550.936 1843.31 L550.936 1816.94 L542.626 1818.61 L542.626 1814.35 L550.89 1812.68 L555.566 1812.68 L555.566 1843.31 L563.205 1843.31 L563.205 1847.24 L543.298 1847.24 L543.298 1843.31 Z" fill="#000000" fill-rule="evenodd" fill-opacity="1" /><path clip-path="url(#clip660)" d="M582.649 1815.76 Q579.038 1815.76 577.21 1819.32 Q575.404 1822.87 575.404 1830 Q575.404 1837.1 577.21 1840.67 Q579.038 1844.21 582.649 1844.21 Q586.284 1844.21 588.089 1840.67 Q589.918 1837.1 589.918 1830 Q589.918 1822.87 588.089 1819.32 Q586.284 1815.76 582.649 1815.76 M582.649 1812.06 Q588.459 1812.06 591.515 1816.66 Q594.594 1821.25 594.594 1830 Q594.594 1838.72 591.515 1843.33 Q588.459 1847.91 582.649 1847.91 Q576.839 1847.91 573.76 1843.33 Q570.705 1838.72 570.705 1830 Q570.705 1821.25 573.76 1816.66 Q576.839 1812.06 582.649 1812.06 Z" fill="#000000" fill-rule="evenodd" fill-opacity="1" /><path clip-path="url(#clip660)" d="M906.615 1843.31 L922.935 1843.31 L922.935 1847.24 L900.99 1847.24 L900.99 1843.31 Q903.652 1840.55 908.236 1835.92 Q912.842 1831.27 914.023 1829.93 Q916.268 1827.4 917.148 1825.67 Q918.05 1823.91 918.05 1822.22 Q918.05 1819.46 916.106 1817.73 Q914.185 1815.99 911.083 1815.99 Q908.884 1815.99 906.43 1816.76 Q904 1817.52 901.222 1819.07 L901.222 1814.35 Q904.046 1813.21 906.499 1812.64 Q908.953 1812.06 910.99 1812.06 Q916.361 1812.06 919.555 1814.74 Q922.749 1817.43 922.749 1821.92 Q922.749 1824.05 921.939 1825.97 Q921.152 1827.87 919.046 1830.46 Q918.467 1831.13 915.365 1834.35 Q912.263 1837.54 906.615 1843.31 Z" fill="#000000" fill-rule="evenodd" fill-opacity="1" /><path clip-path="url(#clip660)" d="M942.749 1815.76 Q939.138 1815.76 937.31 1819.32 Q935.504 1822.87 935.504 1830 Q935.504 1837.1 937.31 1840.67 Q939.138 1844.21 942.749 1844.21 Q946.384 1844.21 948.189 1840.67 Q950.018 1837.1 950.018 1830 Q950.018 1822.87 948.189 1819.32 Q946.384 1815.76 942.749 1815.76 M942.749 1812.06 Q948.559 1812.06 951.615 1816.66 Q954.694 1821.25 954.694 1830 Q954.694 1838.72 951.615 1843.33 Q948.559 1847.91 942.749 1847.91 Q936.939 1847.91 933.86 1843.33 Q930.805 1838.72 930.805 1830 Q930.805 1821.25 933.86 1816.66 Q936.939 1812.06 942.749 1812.06 Z" fill="#000000" fill-rule="evenodd" fill-opacity="1" /><path clip-path="url(#clip660)" d="M1275.92 1828.61 Q1279.27 1829.32 1281.15 1831.59 Q1283.05 1833.86 1283.05 1837.2 Q1283.05 1842.31 1279.53 1845.11 Q1276.01 1847.91 1269.53 1847.91 Q1267.35 1847.91 1265.04 1847.47 Q1262.75 1847.06 1260.29 1846.2 L1260.29 1841.69 Q1262.24 1842.82 1264.55 1843.4 Q1266.87 1843.98 1269.39 1843.98 Q1273.79 1843.98 1276.08 1842.24 Q1278.39 1840.51 1278.39 1837.2 Q1278.39 1834.14 1276.24 1832.43 Q1274.11 1830.69 1270.29 1830.69 L1266.26 1830.69 L1266.26 1826.85 L1270.48 1826.85 Q1273.93 1826.85 1275.75 1825.48 Q1277.58 1824.09 1277.58 1821.5 Q1277.58 1818.84 1275.69 1817.43 Q1273.81 1815.99 1270.29 1815.99 Q1268.37 1815.99 1266.17 1816.41 Q1263.97 1816.82 1261.33 1817.7 L1261.33 1813.54 Q1264 1812.8 1266.31 1812.43 Q1268.65 1812.06 1270.71 1812.06 Q1276.03 1812.06 1279.13 1814.49 Q1282.24 1816.89 1282.24 1821.01 Q1282.24 1823.89 1280.59 1825.88 Q1278.95 1827.84 1275.92 1828.61 Z" fill="#000000" fill-rule="evenodd" fill-opacity="1" /><path clip-path="url(#clip660)" d="M1301.91 1815.76 Q1298.3 1815.76 1296.47 1819.32 Q1294.67 1822.87 1294.67 1830 Q1294.67 1837.1 1296.47 1840.67 Q1298.3 1844.21 1301.91 1844.21 Q1305.55 1844.21 1307.35 1840.67 Q1309.18 1837.1 1309.18 1830 Q1309.18 1822.87 1307.35 1819.32 Q1305.55 1815.76 1301.91 1815.76 M1301.91 1812.06 Q1307.72 1812.06 1310.78 1816.66 Q1313.86 1821.25 1313.86 1830 Q1313.86 1838.72 1310.78 1843.33 Q1307.72 1847.91 1301.91 1847.91 Q1296.1 1847.91 1293.02 1843.33 Q1289.97 1838.72 1289.97 1830 Q1289.97 1821.25 1293.02 1816.66 Q1296.1 1812.06 1301.91 1812.06 Z" fill="#000000" fill-rule="evenodd" fill-opacity="1" /><path clip-path="url(#clip660)" d="M1634.48 1816.76 L1622.67 1835.2 L1634.48 1835.2 L1634.48 1816.76 M1633.25 1812.68 L1639.13 1812.68 L1639.13 1835.2 L1644.06 1835.2 L1644.06 1839.09 L1639.13 1839.09 L1639.13 1847.24 L1634.48 1847.24 L1634.48 1839.09 L1618.88 1839.09 L1618.88 1834.58 L1633.25 1812.68 Z" fill="#000000" fill-rule="evenodd" fill-opacity="1" /><path clip-path="url(#clip660)" d="M1661.79 1815.76 Q1658.18 1815.76 1656.35 1819.32 Q1654.55 1822.87 1654.55 1830 Q1654.55 1837.1 1656.35 1840.67 Q1658.18 1844.21 1661.79 1844.21 Q1665.43 1844.21 1667.23 1840.67 Q1669.06 1837.1 1669.06 1830 Q1669.06 1822.87 1667.23 1819.32 Q1665.43 1815.76 1661.79 1815.76 M1661.79 1812.06 Q1667.6 1812.06 1670.66 1816.66 Q1673.74 1821.25 1673.74 1830 Q1673.74 1838.72 1670.66 1843.33 Q1667.6 1847.91 1661.79 1847.91 Q1655.98 1847.91 1652.9 1843.33 Q1649.85 1838.72 1649.85 1830 Q1649.85 1821.25 1652.9 1816.66 Q1655.98 1812.06 1661.79 1812.06 Z" fill="#000000" fill-rule="evenodd" fill-opacity="1" /><polyline clip-path="url(#clip664)" style="stroke:#000000; stroke-linecap:butt; stroke-linejoin:round; stroke-width:2; stroke-opacity:0.1; fill:none" points="
  174.867,1783.01 1952.76,1783.01 
  "/>
<polyline clip-path="url(#clip664)" style="stroke:#000000; stroke-linecap:butt; stroke-linejoin:round; stroke-width:2; stroke-opacity:0.1; fill:none" points="
  174.867,1703.48 1952.76,1703.48 
  "/>
<polyline clip-path="url(#clip664)" style="stroke:#000000; stroke-linecap:butt; stroke-linejoin:round; stroke-width:2; stroke-opacity:0.1; fill:none" points="
  174.867,1623.95 1952.76,1623.95 
  "/>
<polyline clip-path="url(#clip664)" style="stroke:#000000; stroke-linecap:butt; stroke-linejoin:round; stroke-width:2; stroke-opacity:0.1; fill:none" points="
  174.867,1544.43 1952.76,1544.43 
  "/>
<polyline clip-path="url(#clip664)" style="stroke:#000000; stroke-linecap:butt; stroke-linejoin:round; stroke-width:2; stroke-opacity:0.1; fill:none" points="
  174.867,1464.9 1952.76,1464.9 
  "/>
<polyline clip-path="url(#clip664)" style="stroke:#000000; stroke-linecap:butt; stroke-linejoin:round; stroke-width:2; stroke-opacity:0.1; fill:none" points="
  174.867,1385.37 1952.76,1385.37 
  "/>
<polyline clip-path="url(#clip660)" style="stroke:#000000; stroke-linecap:butt; stroke-linejoin:round; stroke-width:4; stroke-opacity:1; fill:none" points="
  174.867,1788.04 174.867,1327.24 
  "/>
<polyline clip-path="url(#clip660)" style="stroke:#000000; stroke-linecap:butt; stroke-linejoin:round; stroke-width:4; stroke-opacity:1; fill:none" points="
  174.867,1783.01 193.764,1783.01 
  "/>
<polyline clip-path="url(#clip660)" style="stroke:#000000; stroke-linecap:butt; stroke-linejoin:round; stroke-width:4; stroke-opacity:1; fill:none" points="
  174.867,1703.48 193.764,1703.48 
  "/>
<polyline clip-path="url(#clip660)" style="stroke:#000000; stroke-linecap:butt; stroke-linejoin:round; stroke-width:4; stroke-opacity:1; fill:none" points="
  174.867,1623.95 193.764,1623.95 
  "/>
<polyline clip-path="url(#clip660)" style="stroke:#000000; stroke-linecap:butt; stroke-linejoin:round; stroke-width:4; stroke-opacity:1; fill:none" points="
  174.867,1544.43 193.764,1544.43 
  "/>
<polyline clip-path="url(#clip660)" style="stroke:#000000; stroke-linecap:butt; stroke-linejoin:round; stroke-width:4; stroke-opacity:1; fill:none" points="
  174.867,1464.9 193.764,1464.9 
  "/>
<polyline clip-path="url(#clip660)" style="stroke:#000000; stroke-linecap:butt; stroke-linejoin:round; stroke-width:4; stroke-opacity:1; fill:none" points="
  174.867,1385.37 193.764,1385.37 
  "/>
<path clip-path="url(#clip660)" d="M52.9921 1783.46 L82.6679 1783.46 L82.6679 1787.4 L52.9921 1787.4 L52.9921 1783.46 Z" fill="#000000" fill-rule="evenodd" fill-opacity="1" /><path clip-path="url(#clip660)" d="M106.927 1781.66 Q110.283 1782.38 112.158 1784.64 Q114.057 1786.91 114.057 1790.25 Q114.057 1795.36 110.538 1798.16 Q107.02 1800.96 100.538 1800.96 Q98.3623 1800.96 96.0475 1800.52 Q93.7558 1800.11 91.3021 1799.25 L91.3021 1794.74 Q93.2465 1795.87 95.5613 1796.45 Q97.8761 1797.03 100.399 1797.03 Q104.797 1797.03 107.089 1795.29 Q109.404 1793.56 109.404 1790.25 Q109.404 1787.19 107.251 1785.48 Q105.121 1783.74 101.302 1783.74 L97.2743 1783.74 L97.2743 1779.9 L101.487 1779.9 Q104.936 1779.9 106.765 1778.53 Q108.594 1777.14 108.594 1774.55 Q108.594 1771.89 106.696 1770.48 Q104.821 1769.04 101.302 1769.04 Q99.3808 1769.04 97.1817 1769.46 Q94.9826 1769.88 92.3438 1770.75 L92.3438 1766.59 Q95.0058 1765.85 97.3206 1765.48 Q99.6585 1765.11 101.719 1765.11 Q107.043 1765.11 110.145 1767.54 Q113.246 1769.94 113.246 1774.06 Q113.246 1776.94 111.603 1778.93 Q109.959 1780.89 106.927 1781.66 Z" fill="#000000" fill-rule="evenodd" fill-opacity="1" /><path clip-path="url(#clip660)" d="M132.922 1768.81 Q129.311 1768.81 127.482 1772.38 Q125.677 1775.92 125.677 1783.05 Q125.677 1790.15 127.482 1793.72 Q129.311 1797.26 132.922 1797.26 Q136.556 1797.26 138.362 1793.72 Q140.191 1790.15 140.191 1783.05 Q140.191 1775.92 138.362 1772.38 Q136.556 1768.81 132.922 1768.81 M132.922 1765.11 Q138.732 1765.11 141.788 1769.71 Q144.867 1774.3 144.867 1783.05 Q144.867 1791.77 141.788 1796.38 Q138.732 1800.96 132.922 1800.96 Q127.112 1800.96 124.033 1796.38 Q120.978 1791.77 120.978 1783.05 Q120.978 1774.3 124.033 1769.71 Q127.112 1765.11 132.922 1765.11 Z" fill="#000000" fill-rule="evenodd" fill-opacity="1" /><path clip-path="url(#clip660)" d="M52.9921 1703.93 L82.6679 1703.93 L82.6679 1707.87 L52.9921 1707.87 L52.9921 1703.93 Z" fill="#000000" fill-rule="evenodd" fill-opacity="1" /><path clip-path="url(#clip660)" d="M96.7882 1716.83 L113.108 1716.83 L113.108 1720.76 L91.1632 1720.76 L91.1632 1716.83 Q93.8252 1714.07 98.4085 1709.44 Q103.015 1704.79 104.196 1703.45 Q106.441 1700.92 107.321 1699.19 Q108.223 1697.43 108.223 1695.74 Q108.223 1692.99 106.279 1691.25 Q104.358 1689.51 101.256 1689.51 Q99.0567 1689.51 96.603 1690.28 Q94.1725 1691.04 91.3947 1692.59 L91.3947 1687.87 Q94.2188 1686.74 96.6724 1686.16 Q99.1261 1685.58 101.163 1685.58 Q106.534 1685.58 109.728 1688.26 Q112.922 1690.95 112.922 1695.44 Q112.922 1697.57 112.112 1699.49 Q111.325 1701.39 109.219 1703.98 Q108.64 1704.65 105.538 1707.87 Q102.436 1711.06 96.7882 1716.83 Z" fill="#000000" fill-rule="evenodd" fill-opacity="1" /><path clip-path="url(#clip660)" d="M132.922 1689.28 Q129.311 1689.28 127.482 1692.85 Q125.677 1696.39 125.677 1703.52 Q125.677 1710.62 127.482 1714.19 Q129.311 1717.73 132.922 1717.73 Q136.556 1717.73 138.362 1714.19 Q140.191 1710.62 140.191 1703.52 Q140.191 1696.39 138.362 1692.85 Q136.556 1689.28 132.922 1689.28 M132.922 1685.58 Q138.732 1685.58 141.788 1690.18 Q144.867 1694.77 144.867 1703.52 Q144.867 1712.24 141.788 1716.85 Q138.732 1721.43 132.922 1721.43 Q127.112 1721.43 124.033 1716.85 Q120.978 1712.24 120.978 1703.52 Q120.978 1694.77 124.033 1690.18 Q127.112 1685.58 132.922 1685.58 Z" fill="#000000" fill-rule="evenodd" fill-opacity="1" /><path clip-path="url(#clip660)" d="M52.9921 1624.41 L82.6679 1624.41 L82.6679 1628.34 L52.9921 1628.34 L52.9921 1624.41 Z" fill="#000000" fill-rule="evenodd" fill-opacity="1" /><path clip-path="url(#clip660)" d="M93.5706 1637.3 L101.209 1637.3 L101.209 1610.93 L92.8993 1612.6 L92.8993 1608.34 L101.163 1606.67 L105.839 1606.67 L105.839 1637.3 L113.478 1637.3 L113.478 1641.23 L93.5706 1641.23 L93.5706 1637.3 Z" fill="#000000" fill-rule="evenodd" fill-opacity="1" /><path clip-path="url(#clip660)" d="M132.922 1609.75 Q129.311 1609.75 127.482 1613.32 Q125.677 1616.86 125.677 1623.99 Q125.677 1631.1 127.482 1634.66 Q129.311 1638.2 132.922 1638.2 Q136.556 1638.2 138.362 1634.66 Q140.191 1631.1 140.191 1623.99 Q140.191 1616.86 138.362 1613.32 Q136.556 1609.75 132.922 1609.75 M132.922 1606.05 Q138.732 1606.05 141.788 1610.66 Q144.867 1615.24 144.867 1623.99 Q144.867 1632.72 141.788 1637.32 Q138.732 1641.91 132.922 1641.91 Q127.112 1641.91 124.033 1637.32 Q120.978 1632.72 120.978 1623.99 Q120.978 1615.24 124.033 1610.66 Q127.112 1606.05 132.922 1606.05 Z" fill="#000000" fill-rule="evenodd" fill-opacity="1" /><path clip-path="url(#clip660)" d="M132.922 1530.22 Q129.311 1530.22 127.482 1533.79 Q125.677 1537.33 125.677 1544.46 Q125.677 1551.57 127.482 1555.13 Q129.311 1558.67 132.922 1558.67 Q136.556 1558.67 138.362 1555.13 Q140.191 1551.57 140.191 1544.46 Q140.191 1537.33 138.362 1533.79 Q136.556 1530.22 132.922 1530.22 M132.922 1526.52 Q138.732 1526.52 141.788 1531.13 Q144.867 1535.71 144.867 1544.46 Q144.867 1553.19 141.788 1557.79 Q138.732 1562.38 132.922 1562.38 Q127.112 1562.38 124.033 1557.79 Q120.978 1553.19 120.978 1544.46 Q120.978 1535.71 124.033 1531.13 Q127.112 1526.52 132.922 1526.52 Z" fill="#000000" fill-rule="evenodd" fill-opacity="1" /><path clip-path="url(#clip660)" d="M93.5706 1478.24 L101.209 1478.24 L101.209 1451.88 L92.8993 1453.54 L92.8993 1449.28 L101.163 1447.62 L105.839 1447.62 L105.839 1478.24 L113.478 1478.24 L113.478 1482.18 L93.5706 1482.18 L93.5706 1478.24 Z" fill="#000000" fill-rule="evenodd" fill-opacity="1" /><path clip-path="url(#clip660)" d="M132.922 1450.69 Q129.311 1450.69 127.482 1454.26 Q125.677 1457.8 125.677 1464.93 Q125.677 1472.04 127.482 1475.6 Q129.311 1479.14 132.922 1479.14 Q136.556 1479.14 138.362 1475.6 Q140.191 1472.04 140.191 1464.93 Q140.191 1457.8 138.362 1454.26 Q136.556 1450.69 132.922 1450.69 M132.922 1446.99 Q138.732 1446.99 141.788 1451.6 Q144.867 1456.18 144.867 1464.93 Q144.867 1473.66 141.788 1478.26 Q138.732 1482.85 132.922 1482.85 Q127.112 1482.85 124.033 1478.26 Q120.978 1473.66 120.978 1464.93 Q120.978 1456.18 124.033 1451.6 Q127.112 1446.99 132.922 1446.99 Z" fill="#000000" fill-rule="evenodd" fill-opacity="1" /><path clip-path="url(#clip660)" d="M96.7882 1398.71 L113.108 1398.71 L113.108 1402.65 L91.1632 1402.65 L91.1632 1398.71 Q93.8252 1395.96 98.4085 1391.33 Q103.015 1386.68 104.196 1385.33 Q106.441 1382.81 107.321 1381.07 Q108.223 1379.31 108.223 1377.62 Q108.223 1374.87 106.279 1373.13 Q104.358 1371.4 101.256 1371.4 Q99.0567 1371.4 96.603 1372.16 Q94.1725 1372.93 91.3947 1374.48 L91.3947 1369.75 Q94.2188 1368.62 96.6724 1368.04 Q99.1261 1367.46 101.163 1367.46 Q106.534 1367.46 109.728 1370.15 Q112.922 1372.83 112.922 1377.32 Q112.922 1379.45 112.112 1381.37 Q111.325 1383.27 109.219 1385.86 Q108.64 1386.54 105.538 1389.75 Q102.436 1392.95 96.7882 1398.71 Z" fill="#000000" fill-rule="evenodd" fill-opacity="1" /><path clip-path="url(#clip660)" d="M132.922 1371.17 Q129.311 1371.17 127.482 1374.73 Q125.677 1378.27 125.677 1385.4 Q125.677 1392.51 127.482 1396.07 Q129.311 1399.61 132.922 1399.61 Q136.556 1399.61 138.362 1396.07 Q140.191 1392.51 140.191 1385.4 Q140.191 1378.27 138.362 1374.73 Q136.556 1371.17 132.922 1371.17 M132.922 1367.46 Q138.732 1367.46 141.788 1372.07 Q144.867 1376.65 144.867 1385.4 Q144.867 1394.13 141.788 1398.74 Q138.732 1403.32 132.922 1403.32 Q127.112 1403.32 124.033 1398.74 Q120.978 1394.13 120.978 1385.4 Q120.978 1376.65 124.033 1372.07 Q127.112 1367.46 132.922 1367.46 Z" fill="#000000" fill-rule="evenodd" fill-opacity="1" /><path clip-path="url(#clip664)" d="
M225.184 1552.23 L237.039 1553.97 L249.253 1548.45 L261.107 1546.67 L272.962 1551.6 L285.176 1549.34 L297.031 1547.05 L308.885 1553.94 L321.099 1548.59 L332.954 1561.09 
  L344.808 1560.04 L357.022 1560.29 L369.596 1559.17 L384.683 1558.26 L399.412 1555.37 L414.499 1550.73 L429.587 1552.22 L444.316 1557.68 L459.403 1567.38 L474.491 1550.09 
  L489.22 1552.3 L504.307 1569.72 L519.395 1552.24 L534.124 1557.43 L549.211 1569.77 L564.299 1563.81 L579.387 1571.85 L594.115 1575.59 L609.203 1567.17 L624.291 1558.69 
  L639.019 1563.41 L654.107 1547.71 L669.195 1560.04 L683.923 1554.22 L699.011 1553.07 L714.099 1554.27 L728.827 1548.67 L743.915 1560.43 L759.003 1564.51 L774.091 1573.38 
  L788.819 1564.83 L803.907 1569.17 L818.995 1573.85 L834.082 1560.79 L848.811 1553.67 L863.899 1554.93 L878.986 1564.94 L894.793 1553.51 L910.958 1555.66 L927.124 1557.72 
  L942.93 1579.77 L959.095 1562.23 L975.261 1562.75 L991.426 1566.94 L1007.59 1565.21 L1023.76 1565.5 L1039.92 1575.36 L1056.09 1560.18 L1073.69 1564.88 L1092.01 1588.87 
  L1110.33 1591.74 L1129.01 1601.93 L1147.33 1608.86 L1165.65 1604.54 L1183.97 1595.44 L1202.3 1595.72 L1220.98 1579.65 L1239.3 1580.35 L1260.85 1566.41 L1280.25 1583.45 
  L1299.65 1585.38 L1319.05 1586.87 L1338.08 1584.29 L1357.48 1579.55 L1376.88 1603.25 L1396.28 1621.31 L1415.68 1617.91 L1435.08 1579.38 L1454.48 1594.99 L1474.23 1559.93 
  L1493.63 1572.72 L1513.03 1593.28 L1532.43 1593.18 L1551.83 1615.31 L1571.23 1603.03 L1590.62 1616.53 L1610.02 1577.85 L1629.42 1557.71 L1648.82 1583.95 L1668.22 1591.03 
  L1687.62 1585.45 L1707.02 1608.01 L1726.41 1612.15 L1745.81 1622.07 L1765.21 1641.14 L1784.97 1630.68 L1804.37 1648.33 L1824.13 1656.16 L1843.52 1665.72 L1862.92 1667.55 
  L1882.68 1645.74 L1902.44 1661.8 L1902.44 1427.05 L1882.68 1443.11 L1862.92 1421.3 L1843.52 1423.13 L1824.13 1432.69 L1804.37 1440.52 L1784.97 1458.17 L1765.21 1447.71 
  L1745.81 1466.78 L1726.41 1476.7 L1707.02 1480.84 L1687.62 1503.4 L1668.22 1497.82 L1648.82 1504.9 L1629.42 1531.14 L1610.02 1511 L1590.62 1472.32 L1571.23 1485.82 
  L1551.83 1473.54 L1532.43 1495.67 L1513.03 1495.57 L1493.63 1516.13 L1474.23 1528.92 L1454.48 1493.86 L1435.08 1509.47 L1415.68 1470.94 L1396.28 1467.54 L1376.88 1485.6 
  L1357.48 1509.3 L1338.08 1504.56 L1319.05 1501.98 L1299.65 1503.47 L1280.25 1505.4 L1260.85 1522.44 L1239.3 1508.5 L1220.98 1509.2 L1202.3 1493.13 L1183.97 1493.41 
  L1165.65 1484.31 L1147.33 1479.99 L1129.01 1486.92 L1110.33 1497.11 L1092.01 1499.98 L1073.69 1523.97 L1056.09 1528.67 L1039.92 1513.49 L1023.76 1523.35 L1007.59 1523.64 
  L991.426 1521.91 L975.261 1526.1 L959.095 1526.62 L942.93 1509.08 L927.124 1531.13 L910.958 1533.19 L894.793 1535.34 L878.986 1523.91 L863.899 1533.92 L848.811 1535.18 
  L834.082 1528.06 L818.995 1515 L803.907 1519.68 L788.819 1524.02 L774.091 1515.47 L759.003 1524.34 L743.915 1528.42 L728.827 1540.18 L714.099 1534.58 L699.011 1535.78 
  L683.923 1534.63 L669.195 1528.81 L654.107 1541.14 L639.019 1525.44 L624.291 1530.16 L609.203 1521.68 L594.115 1513.26 L579.387 1517 L564.299 1525.04 L549.211 1519.08 
  L534.124 1531.42 L519.395 1536.61 L504.307 1519.13 L489.22 1536.55 L474.491 1538.76 L459.403 1521.47 L444.316 1531.17 L429.587 1536.63 L414.499 1538.12 L399.412 1533.48 
  L384.683 1530.59 L369.596 1529.68 L357.022 1528.56 L344.808 1528.81 L332.954 1527.76 L321.099 1540.26 L308.885 1534.91 L297.031 1541.8 L285.176 1539.51 L272.962 1537.25 
  L261.107 1542.18 L249.253 1540.4 L237.039 1534.88 L225.184 1536.62  Z
  " fill="#000000" fill-rule="evenodd" fill-opacity="0.25"/>
<polyline clip-path="url(#clip664)" style="stroke:#000000; stroke-linecap:butt; stroke-linejoin:round; stroke-width:4; stroke-opacity:0; fill:none" points="
  225.184,1544.43 237.039,1544.43 249.253,1544.43 261.107,1544.43 272.962,1544.43 285.176,1544.43 297.031,1544.43 308.885,1544.43 321.099,1544.43 332.954,1544.43 
  344.808,1544.43 357.022,1544.43 369.596,1544.43 384.683,1544.43 399.412,1544.43 414.499,1544.43 429.587,1544.43 444.316,1544.43 459.403,1544.43 474.491,1544.43 
  489.22,1544.43 504.307,1544.43 519.395,1544.43 534.124,1544.43 549.211,1544.43 564.299,1544.43 579.387,1544.43 594.115,1544.43 609.203,1544.43 624.291,1544.43 
  639.019,1544.43 654.107,1544.43 669.195,1544.43 683.923,1544.43 699.011,1544.43 714.099,1544.43 728.827,1544.43 743.915,1544.43 759.003,1544.43 774.091,1544.43 
  788.819,1544.43 803.907,1544.43 818.995,1544.43 834.082,1544.43 848.811,1544.43 863.899,1544.43 878.986,1544.43 894.793,1544.43 910.958,1544.43 927.124,1544.43 
  942.93,1544.43 959.095,1544.43 975.261,1544.43 991.426,1544.43 1007.59,1544.43 1023.76,1544.43 1039.92,1544.43 1056.09,1544.43 1073.69,1544.43 1092.01,1544.43 
  1110.33,1544.43 1129.01,1544.43 1147.33,1544.43 1165.65,1544.43 1183.97,1544.43 1202.3,1544.43 1220.98,1544.43 1239.3,1544.43 1260.85,1544.43 1280.25,1544.43 
  1299.65,1544.43 1319.05,1544.43 1338.08,1544.43 1357.48,1544.43 1376.88,1544.43 1396.28,1544.43 1415.68,1544.43 1435.08,1544.43 1454.48,1544.43 1474.23,1544.43 
  1493.63,1544.43 1513.03,1544.43 1532.43,1544.43 1551.83,1544.43 1571.23,1544.43 1590.62,1544.43 1610.02,1544.43 1629.42,1544.43 1648.82,1544.43 1668.22,1544.43 
  1687.62,1544.43 1707.02,1544.43 1726.41,1544.43 1745.81,1544.43 1765.21,1544.43 1784.97,1544.43 1804.37,1544.43 1824.13,1544.43 1843.52,1544.43 1862.92,1544.43 
  1882.68,1544.43 1902.44,1544.43 
  "/>
<polyline clip-path="url(#clip664)" style="stroke:#3da44d; stroke-linecap:butt; stroke-linejoin:round; stroke-width:8; stroke-opacity:1; fill:none" points="
  225.184,1550.91 237.039,1556.86 249.253,1555.03 261.107,1549.24 272.962,1548.01 285.176,1552.64 297.031,1551.95 308.885,1560.35 321.099,1549.75 332.954,1553.25 
  344.808,1560.47 357.022,1559.75 369.596,1558.52 384.683,1557.25 399.412,1562.59 414.499,1569.88 429.587,1565.12 444.316,1571.24 459.403,1561.48 474.491,1561.11 
  489.22,1560.33 504.307,1560.01 519.395,1565.52 534.124,1566.72 549.211,1557.11 564.299,1568.25 579.387,1561.87 594.115,1551.97 609.203,1562.99 624.291,1568.51 
  639.019,1575 654.107,1559.69 669.195,1580.21 683.923,1567.16 699.011,1573.7 714.099,1566.95 728.827,1559.74 743.915,1548.35 759.003,1536.7 774.091,1537.79 
  788.819,1528.03 803.907,1533.73 818.995,1511.71 834.082,1515.55 848.811,1504.89 863.899,1507.11 878.986,1501.68 894.793,1492.3 910.958,1489.26 927.124,1501.12 
  942.93,1514.72 959.095,1532.7 975.261,1537.03 991.426,1549.43 1007.59,1537.19 1023.76,1541.39 1039.92,1539.5 1056.09,1543.28 1073.69,1543.07 1092.01,1565.88 
  1110.33,1568.08 1129.01,1572.42 1147.33,1564.15 1165.65,1573.2 1183.97,1545.68 1202.3,1543.45 1220.98,1553.67 1239.3,1596.71 1260.85,1573.83 1280.25,1605.67 
  1299.65,1572.71 1319.05,1579.4 1338.08,1579.79 1357.48,1568.72 1376.88,1558.13 1396.28,1547.02 1415.68,1551.39 1435.08,1536.57 1454.48,1537.77 1474.23,1542.18 
  1493.63,1551.87 1513.03,1580.69 1532.43,1583.67 1551.83,1581.34 1571.23,1578.92 1590.62,1530.95 1610.02,1587.12 1629.42,1590.71 1648.82,1569.73 1668.22,1555.51 
  1687.62,1587.76 1707.02,1602.23 1726.41,1592.6 1745.81,1590.35 1765.21,1537.31 1784.97,1555.51 1804.37,1578.72 1824.13,1579.79 1843.52,1547.98 1862.92,1519.44 
  1882.68,1502.5 1902.44,1499.92 
  "/>
<polyline clip-path="url(#clip664)" style="stroke:#3da44d; stroke-linecap:butt; stroke-linejoin:round; stroke-width:8; stroke-opacity:1; fill:none" stroke-dasharray="32, 20" points="
  225.184,1550.94 237.039,1556.9 249.253,1555.11 261.107,1549.34 272.962,1548.15 285.176,1552.82 297.031,1552.18 308.885,1560.64 321.099,1550.1 332.954,1553.68 
  344.808,1560.98 357.022,1560.37 369.596,1559.26 384.683,1558.16 399.412,1563.69 414.499,1571.22 429.587,1566.74 444.316,1573.18 459.403,1563.8 474.491,1563.88 
  489.22,1563.61 504.307,1563.9 519.395,1570.12 534.124,1572.13 549.211,1563.49 564.299,1575.74 579.387,1570.67 594.115,1562.25 609.203,1575.03 624.291,1582.58 
  639.019,1591.38 654.107,1578.8 669.195,1602.49 683.923,1593.02 699.011,1603.8 714.099,1601.97 728.827,1600.31 743.915,1595.5 759.003,1591.46 774.091,1601.38 
  788.819,1601.71 803.907,1619.4 818.995,1610.7 834.082,1628.73 848.811,1632.14 863.899,1648.22 878.986,1655.16 894.793,1656.7 910.958,1662.73 927.124,1681.41 
  942.93,1699.45 959.095,1719.59 975.261,1723.6 991.426,1733.18 1007.59,1715.61 1023.76,1711.97 1039.92,1699.81 1056.09,1691.01 1073.69,1674.6 1092.01,1678.07 
  1110.33,1658.68 1129.01,1639.16 1147.33,1606.16 1165.65,1589.63 1183.97,1536.17 1202.3,1508.17 1220.98,1492.78 1239.3,1511.91 1260.85,1462.99 1280.25,1473.75 
  1299.65,1422.29 1319.05,1413.3 1338.08,1401.23 1357.48,1380.54 1376.88,1363.44 1396.28,1348.9 1415.68,1352.8 1435.08,1340.29 1454.48,1346.43 1474.23,1358.43 
  1493.63,1377.89 1513.03,1418.59 1532.43,1435.32 1551.83,1448.39 1571.23,1462.77 1590.62,1432.85 1610.02,1508.21 1629.42,1531.99 1648.82,1532.1 1668.22,1539.72 
  1687.62,1594.47 1707.02,1631.95 1726.41,1645.73 1745.81,1667.23 1765.21,1638.2 1784.97,1681.11 1804.37,1728.77 1824.13,1754.9 1843.52,1747.8 1862.92,1744.04 
  1882.68,1752.35 1902.44,1775 
  "/>
</svg>
