<?xml version="1.0" encoding="utf-8"?>
<svg xmlns="http://www.w3.org/2000/svg" xmlns:xlink="http://www.w3.org/1999/xlink" width="600" height="300" viewBox="0 0 2400 1200">
<defs>
  <clipPath id="clip740">
    <rect x="0" y="0" width="2400" height="1200"/>
  </clipPath>
</defs>
<path clip-path="url(#clip740)" d="
M0 1200 L2400 1200 L2400 0 L0 0  Z
  " fill="#ffffff" fill-rule="evenodd" fill-opacity="1"/>
<defs>
  <clipPath id="clip741">
    <rect x="480" y="0" width="1681" height="1200"/>
  </clipPath>
</defs>
<path clip-path="url(#clip740)" d="
M223.403 1047.7 L2352.76 1047.7 L2352.76 47.2441 L223.403 47.2441  Z
  " fill="#ffffff" fill-rule="evenodd" fill-opacity="1"/>
<defs>
  <clipPath id="clip742">
    <rect x="223" y="47" width="2130" height="1001"/>
  </clipPath>
</defs>
<polyline clip-path="url(#clip742)" style="stroke:#000000; stroke-linecap:butt; stroke-linejoin:round; stroke-width:2; stroke-opacity:0.1; fill:none" points="
  223.403,1047.7 223.403,47.2441 
  "/>
<polyline clip-path="url(#clip742)" style="stroke:#000000; stroke-linecap:butt; stroke-linejoin:round; stroke-width:2; stroke-opacity:0.1; fill:none" points="
  527.596,1047.7 527.596,47.2441 
  "/>
<polyline clip-path="url(#clip742)" style="stroke:#000000; stroke-linecap:butt; stroke-linejoin:round; stroke-width:2; stroke-opacity:0.1; fill:none" points="
  831.789,1047.7 831.789,47.2441 
  "/>
<polyline clip-path="url(#clip742)" style="stroke:#000000; stroke-linecap:butt; stroke-linejoin:round; stroke-width:2; stroke-opacity:0.1; fill:none" points="
  1135.98,1047.7 1135.98,47.2441 
  "/>
<polyline clip-path="url(#clip742)" style="stroke:#000000; stroke-linecap:butt; stroke-linejoin:round; stroke-width:2; stroke-opacity:0.1; fill:none" points="
  1440.18,1047.7 1440.18,47.2441 
  "/>
<polyline clip-path="url(#clip742)" style="stroke:#000000; stroke-linecap:butt; stroke-linejoin:round; stroke-width:2; stroke-opacity:0.1; fill:none" points="
  1744.37,1047.7 1744.37,47.2441 
  "/>
<polyline clip-path="url(#clip742)" style="stroke:#000000; stroke-linecap:butt; stroke-linejoin:round; stroke-width:2; stroke-opacity:0.1; fill:none" points="
  2048.56,1047.7 2048.56,47.2441 
  "/>
<polyline clip-path="url(#clip742)" style="stroke:#000000; stroke-linecap:butt; stroke-linejoin:round; stroke-width:2; stroke-opacity:0.1; fill:none" points="
  2352.76,1047.7 2352.76,47.2441 
  "/>
<polyline clip-path="url(#clip740)" style="stroke:#000000; stroke-linecap:butt; stroke-linejoin:round; stroke-width:4; stroke-opacity:1; fill:none" points="
  223.403,1047.7 2352.76,1047.7 
  "/>
<polyline clip-path="url(#clip740)" style="stroke:#000000; stroke-linecap:butt; stroke-linejoin:round; stroke-width:4; stroke-opacity:1; fill:none" points="
  223.403,1047.7 223.403,1028.8 
  "/>
<polyline clip-path="url(#clip740)" style="stroke:#000000; stroke-linecap:butt; stroke-linejoin:round; stroke-width:4; stroke-opacity:1; fill:none" points="
  527.596,1047.7 527.596,1028.8 
  "/>
<polyline clip-path="url(#clip740)" style="stroke:#000000; stroke-linecap:butt; stroke-linejoin:round; stroke-width:4; stroke-opacity:1; fill:none" points="
  831.789,1047.7 831.789,1028.8 
  "/>
<polyline clip-path="url(#clip740)" style="stroke:#000000; stroke-linecap:butt; stroke-linejoin:round; stroke-width:4; stroke-opacity:1; fill:none" points="
  1135.98,1047.7 1135.98,1028.8 
  "/>
<polyline clip-path="url(#clip740)" style="stroke:#000000; stroke-linecap:butt; stroke-linejoin:round; stroke-width:4; stroke-opacity:1; fill:none" points="
  1440.18,1047.7 1440.18,1028.8 
  "/>
<polyline clip-path="url(#clip740)" style="stroke:#000000; stroke-linecap:butt; stroke-linejoin:round; stroke-width:4; stroke-opacity:1; fill:none" points="
  1744.37,1047.7 1744.37,1028.8 
  "/>
<polyline clip-path="url(#clip740)" style="stroke:#000000; stroke-linecap:butt; stroke-linejoin:round; stroke-width:4; stroke-opacity:1; fill:none" points="
  2048.56,1047.7 2048.56,1028.8 
  "/>
<polyline clip-path="url(#clip740)" style="stroke:#000000; stroke-linecap:butt; stroke-linejoin:round; stroke-width:4; stroke-opacity:1; fill:none" points="
  2352.76,1047.7 2352.76,1028.8 
  "/>
<path clip-path="url(#clip740)" d="M223.403 1078.62 Q219.792 1078.62 217.963 1082.18 Q216.158 1085.72 216.158 1092.85 Q216.158 1099.96 217.963 1103.53 Q219.792 1107.07 223.403 1107.07 Q227.037 1107.07 228.843 1103.53 Q230.671 1099.96 230.671 1092.85 Q230.671 1085.72 228.843 1082.18 Q227.037 1078.62 223.403 1078.62 M223.403 1074.91 Q229.213 1074.91 232.269 1079.52 Q235.347 1084.1 235.347 1092.85 Q235.347 1101.58 232.269 1106.19 Q229.213 1110.77 223.403 1110.77 Q217.593 1110.77 214.514 1106.19 Q211.458 1101.58 211.458 1092.85 Q211.458 1084.1 214.514 1079.52 Q217.593 1074.91 223.403 1074.91 Z" fill="#000000" fill-rule="evenodd" fill-opacity="1" /><path clip-path="url(#clip740)" d="M502.295 1075.54 L520.652 1075.54 L520.652 1079.48 L506.578 1079.48 L506.578 1087.95 Q507.596 1087.6 508.615 1087.44 Q509.633 1087.25 510.652 1087.25 Q516.439 1087.25 519.818 1090.42 Q523.198 1093.6 523.198 1099.01 Q523.198 1104.59 519.726 1107.69 Q516.254 1110.77 509.934 1110.77 Q507.758 1110.77 505.49 1110.4 Q503.244 1110.03 500.837 1109.29 L500.837 1104.59 Q502.92 1105.72 505.143 1106.28 Q507.365 1106.84 509.842 1106.84 Q513.846 1106.84 516.184 1104.73 Q518.522 1102.62 518.522 1099.01 Q518.522 1095.4 516.184 1093.29 Q513.846 1091.19 509.842 1091.19 Q507.967 1091.19 506.092 1091.6 Q504.24 1092.02 502.295 1092.9 L502.295 1075.54 Z" fill="#000000" fill-rule="evenodd" fill-opacity="1" /><path clip-path="url(#clip740)" d="M542.411 1078.62 Q538.8 1078.62 536.971 1082.18 Q535.166 1085.72 535.166 1092.85 Q535.166 1099.96 536.971 1103.53 Q538.8 1107.07 542.411 1107.07 Q546.045 1107.07 547.851 1103.53 Q549.679 1099.96 549.679 1092.85 Q549.679 1085.72 547.851 1082.18 Q546.045 1078.62 542.411 1078.62 M542.411 1074.91 Q548.221 1074.91 551.277 1079.52 Q554.355 1084.1 554.355 1092.85 Q554.355 1101.58 551.277 1106.19 Q548.221 1110.77 542.411 1110.77 Q536.601 1110.77 533.522 1106.19 Q530.466 1101.58 530.466 1092.85 Q530.466 1084.1 533.522 1079.52 Q536.601 1074.91 542.411 1074.91 Z" fill="#000000" fill-rule="evenodd" fill-opacity="1" /><path clip-path="url(#clip740)" d="M791.396 1106.16 L799.035 1106.16 L799.035 1079.8 L790.725 1081.47 L790.725 1077.21 L798.989 1075.54 L803.665 1075.54 L803.665 1106.16 L811.303 1106.16 L811.303 1110.1 L791.396 1110.1 L791.396 1106.16 Z" fill="#000000" fill-rule="evenodd" fill-opacity="1" /><path clip-path="url(#clip740)" d="M830.748 1078.62 Q827.137 1078.62 825.308 1082.18 Q823.502 1085.72 823.502 1092.85 Q823.502 1099.96 825.308 1103.53 Q827.137 1107.07 830.748 1107.07 Q834.382 1107.07 836.188 1103.53 Q838.016 1099.96 838.016 1092.85 Q838.016 1085.72 836.188 1082.18 Q834.382 1078.62 830.748 1078.62 M830.748 1074.91 Q836.558 1074.91 839.613 1079.52 Q842.692 1084.1 842.692 1092.85 Q842.692 1101.58 839.613 1106.19 Q836.558 1110.77 830.748 1110.77 Q824.938 1110.77 821.859 1106.19 Q818.803 1101.58 818.803 1092.85 Q818.803 1084.1 821.859 1079.52 Q824.938 1074.91 830.748 1074.91 Z" fill="#000000" fill-rule="evenodd" fill-opacity="1" /><path clip-path="url(#clip740)" d="M860.91 1078.62 Q857.299 1078.62 855.47 1082.18 Q853.664 1085.72 853.664 1092.85 Q853.664 1099.96 855.47 1103.53 Q857.299 1107.07 860.91 1107.07 Q864.544 1107.07 866.349 1103.53 Q868.178 1099.96 868.178 1092.85 Q868.178 1085.72 866.349 1082.18 Q864.544 1078.62 860.91 1078.62 M860.91 1074.91 Q866.72 1074.91 869.775 1079.52 Q872.854 1084.1 872.854 1092.85 Q872.854 1101.58 869.775 1106.19 Q866.72 1110.77 860.91 1110.77 Q855.099 1110.77 852.021 1106.19 Q848.965 1101.58 848.965 1092.85 Q848.965 1084.1 852.021 1079.52 Q855.099 1074.91 860.91 1074.91 Z" fill="#000000" fill-rule="evenodd" fill-opacity="1" /><path clip-path="url(#clip740)" d="M1095.59 1106.16 L1103.23 1106.16 L1103.23 1079.8 L1094.92 1081.47 L1094.92 1077.21 L1103.18 1075.54 L1107.86 1075.54 L1107.86 1106.16 L1115.5 1106.16 L1115.5 1110.1 L1095.59 1110.1 L1095.59 1106.16 Z" fill="#000000" fill-rule="evenodd" fill-opacity="1" /><path clip-path="url(#clip740)" d="M1124.99 1075.54 L1143.34 1075.54 L1143.34 1079.48 L1129.27 1079.48 L1129.27 1087.95 Q1130.29 1087.6 1131.31 1087.44 Q1132.33 1087.25 1133.34 1087.25 Q1139.13 1087.25 1142.51 1090.42 Q1145.89 1093.6 1145.89 1099.01 Q1145.89 1104.59 1142.42 1107.69 Q1138.95 1110.77 1132.63 1110.77 Q1130.45 1110.77 1128.18 1110.4 Q1125.94 1110.03 1123.53 1109.29 L1123.53 1104.59 Q1125.61 1105.72 1127.83 1106.28 Q1130.06 1106.84 1132.53 1106.84 Q1136.54 1106.84 1138.88 1104.73 Q1141.21 1102.62 1141.21 1099.01 Q1141.21 1095.4 1138.88 1093.29 Q1136.54 1091.19 1132.53 1091.19 Q1130.66 1091.19 1128.78 1091.6 Q1126.93 1092.02 1124.99 1092.9 L1124.99 1075.54 Z" fill="#000000" fill-rule="evenodd" fill-opacity="1" /><path clip-path="url(#clip740)" d="M1165.1 1078.62 Q1161.49 1078.62 1159.66 1082.18 Q1157.86 1085.72 1157.86 1092.85 Q1157.86 1099.96 1159.66 1103.53 Q1161.49 1107.07 1165.1 1107.07 Q1168.74 1107.07 1170.54 1103.53 Q1172.37 1099.96 1172.37 1092.85 Q1172.37 1085.72 1170.54 1082.18 Q1168.74 1078.62 1165.1 1078.62 M1165.1 1074.91 Q1170.91 1074.91 1173.97 1079.52 Q1177.05 1084.1 1177.05 1092.85 Q1177.05 1101.58 1173.97 1106.19 Q1170.91 1110.77 1165.1 1110.77 Q1159.29 1110.77 1156.21 1106.19 Q1153.16 1101.58 1153.16 1092.85 Q1153.16 1084.1 1156.21 1079.52 Q1159.29 1074.91 1165.1 1074.91 Z" fill="#000000" fill-rule="evenodd" fill-opacity="1" /><path clip-path="url(#clip740)" d="M1403.87 1106.16 L1420.19 1106.16 L1420.19 1110.1 L1398.24 1110.1 L1398.24 1106.16 Q1400.91 1103.41 1405.49 1098.78 Q1410.1 1094.13 1411.28 1092.79 Q1413.52 1090.26 1414.4 1088.53 Q1415.3 1086.77 1415.3 1085.08 Q1415.3 1082.32 1413.36 1080.59 Q1411.44 1078.85 1408.34 1078.85 Q1406.14 1078.85 1403.68 1079.61 Q1401.25 1080.38 1398.47 1081.93 L1398.47 1077.21 Q1401.3 1076.07 1403.75 1075.49 Q1406.21 1074.91 1408.24 1074.91 Q1413.61 1074.91 1416.81 1077.6 Q1420 1080.29 1420 1084.78 Q1420 1086.91 1419.19 1088.83 Q1418.41 1090.72 1416.3 1093.32 Q1415.72 1093.99 1412.62 1097.21 Q1409.52 1100.4 1403.87 1106.16 Z" fill="#000000" fill-rule="evenodd" fill-opacity="1" /><path clip-path="url(#clip740)" d="M1440 1078.62 Q1436.39 1078.62 1434.56 1082.18 Q1432.76 1085.72 1432.76 1092.85 Q1432.76 1099.96 1434.56 1103.53 Q1436.39 1107.07 1440 1107.07 Q1443.64 1107.07 1445.44 1103.53 Q1447.27 1099.96 1447.27 1092.85 Q1447.27 1085.72 1445.44 1082.18 Q1443.64 1078.62 1440 1078.62 M1440 1074.91 Q1445.81 1074.91 1448.87 1079.52 Q1451.95 1084.1 1451.95 1092.85 Q1451.95 1101.58 1448.87 1106.19 Q1445.81 1110.77 1440 1110.77 Q1434.19 1110.77 1431.11 1106.19 Q1428.06 1101.58 1428.06 1092.85 Q1428.06 1084.1 1431.11 1079.52 Q1434.19 1074.91 1440 1074.91 Z" fill="#000000" fill-rule="evenodd" fill-opacity="1" /><path clip-path="url(#clip740)" d="M1470.16 1078.62 Q1466.55 1078.62 1464.72 1082.18 Q1462.92 1085.72 1462.92 1092.85 Q1462.92 1099.96 1464.72 1103.53 Q1466.55 1107.07 1470.16 1107.07 Q1473.8 1107.07 1475.6 1103.53 Q1477.43 1099.96 1477.43 1092.85 Q1477.43 1085.72 1475.6 1082.18 Q1473.8 1078.62 1470.16 1078.62 M1470.16 1074.91 Q1475.97 1074.91 1479.03 1079.52 Q1482.11 1084.1 1482.11 1092.85 Q1482.11 1101.58 1479.03 1106.19 Q1475.97 1110.77 1470.16 1110.77 Q1464.35 1110.77 1461.28 1106.19 Q1458.22 1101.58 1458.22 1092.85 Q1458.22 1084.1 1461.28 1079.52 Q1464.35 1074.91 1470.16 1074.91 Z" fill="#000000" fill-rule="evenodd" fill-opacity="1" /><path clip-path="url(#clip740)" d="M1708.06 1106.16 L1724.38 1106.16 L1724.38 1110.1 L1702.44 1110.1 L1702.44 1106.16 Q1705.1 1103.41 1709.68 1098.78 Q1714.29 1094.13 1715.47 1092.79 Q1717.71 1090.26 1718.59 1088.53 Q1719.5 1086.77 1719.5 1085.08 Q1719.5 1082.32 1717.55 1080.59 Q1715.63 1078.85 1712.53 1078.85 Q1710.33 1078.85 1707.88 1079.61 Q1705.45 1080.38 1702.67 1081.93 L1702.67 1077.21 Q1705.49 1076.07 1707.95 1075.49 Q1710.4 1074.91 1712.44 1074.91 Q1717.81 1074.91 1721 1077.6 Q1724.2 1080.29 1724.2 1084.78 Q1724.2 1086.91 1723.39 1088.83 Q1722.6 1090.72 1720.49 1093.32 Q1719.91 1093.99 1716.81 1097.21 Q1713.71 1100.4 1708.06 1106.16 Z" fill="#000000" fill-rule="evenodd" fill-opacity="1" /><path clip-path="url(#clip740)" d="M1734.24 1075.54 L1752.6 1075.54 L1752.6 1079.48 L1738.52 1079.48 L1738.52 1087.95 Q1739.54 1087.6 1740.56 1087.44 Q1741.58 1087.25 1742.6 1087.25 Q1748.39 1087.25 1751.77 1090.42 Q1755.14 1093.6 1755.14 1099.01 Q1755.14 1104.59 1751.67 1107.69 Q1748.2 1110.77 1741.88 1110.77 Q1739.7 1110.77 1737.44 1110.4 Q1735.19 1110.03 1732.78 1109.29 L1732.78 1104.59 Q1734.87 1105.72 1737.09 1106.28 Q1739.31 1106.84 1741.79 1106.84 Q1745.79 1106.84 1748.13 1104.73 Q1750.47 1102.62 1750.47 1099.01 Q1750.47 1095.4 1748.13 1093.29 Q1745.79 1091.19 1741.79 1091.19 Q1739.91 1091.19 1738.04 1091.6 Q1736.19 1092.02 1734.24 1092.9 L1734.24 1075.54 Z" fill="#000000" fill-rule="evenodd" fill-opacity="1" /><path clip-path="url(#clip740)" d="M1774.36 1078.62 Q1770.75 1078.62 1768.92 1082.18 Q1767.11 1085.72 1767.11 1092.85 Q1767.11 1099.96 1768.92 1103.53 Q1770.75 1107.07 1774.36 1107.07 Q1777.99 1107.07 1779.8 1103.53 Q1781.63 1099.96 1781.63 1092.85 Q1781.63 1085.72 1779.8 1082.18 Q1777.99 1078.62 1774.36 1078.62 M1774.36 1074.91 Q1780.17 1074.91 1783.22 1079.52 Q1786.3 1084.1 1786.3 1092.85 Q1786.3 1101.58 1783.22 1106.19 Q1780.17 1110.77 1774.36 1110.77 Q1768.55 1110.77 1765.47 1106.19 Q1762.41 1101.58 1762.41 1092.85 Q1762.41 1084.1 1765.47 1079.52 Q1768.55 1074.91 1774.36 1074.91 Z" fill="#000000" fill-rule="evenodd" fill-opacity="1" /><path clip-path="url(#clip740)" d="M2022.32 1091.47 Q2025.68 1092.18 2027.56 1094.45 Q2029.45 1096.72 2029.45 1100.05 Q2029.45 1105.17 2025.94 1107.97 Q2022.42 1110.77 2015.94 1110.77 Q2013.76 1110.77 2011.44 1110.33 Q2009.15 1109.91 2006.7 1109.06 L2006.7 1104.54 Q2008.64 1105.68 2010.96 1106.26 Q2013.27 1106.84 2015.8 1106.84 Q2020.19 1106.84 2022.49 1105.1 Q2024.8 1103.36 2024.8 1100.05 Q2024.8 1097 2022.65 1095.29 Q2020.52 1093.55 2016.7 1093.55 L2012.67 1093.55 L2012.67 1089.71 L2016.88 1089.71 Q2020.33 1089.71 2022.16 1088.34 Q2023.99 1086.95 2023.99 1084.36 Q2023.99 1081.7 2022.09 1080.29 Q2020.22 1078.85 2016.7 1078.85 Q2014.78 1078.85 2012.58 1079.27 Q2010.38 1079.68 2007.74 1080.56 L2007.74 1076.4 Q2010.4 1075.66 2012.72 1075.29 Q2015.06 1074.91 2017.12 1074.91 Q2022.44 1074.91 2025.54 1077.35 Q2028.64 1079.75 2028.64 1083.87 Q2028.64 1086.74 2027 1088.73 Q2025.36 1090.7 2022.32 1091.47 Z" fill="#000000" fill-rule="evenodd" fill-opacity="1" /><path clip-path="url(#clip740)" d="M2048.32 1078.62 Q2044.71 1078.62 2042.88 1082.18 Q2041.07 1085.72 2041.07 1092.85 Q2041.07 1099.96 2042.88 1103.53 Q2044.71 1107.07 2048.32 1107.07 Q2051.95 1107.07 2053.76 1103.53 Q2055.59 1099.96 2055.59 1092.85 Q2055.59 1085.72 2053.76 1082.18 Q2051.95 1078.62 2048.32 1078.62 M2048.32 1074.91 Q2054.13 1074.91 2057.19 1079.52 Q2060.26 1084.1 2060.26 1092.85 Q2060.26 1101.58 2057.19 1106.19 Q2054.13 1110.77 2048.32 1110.77 Q2042.51 1110.77 2039.43 1106.19 Q2036.38 1101.58 2036.38 1092.85 Q2036.38 1084.1 2039.43 1079.52 Q2042.51 1074.91 2048.32 1074.91 Z" fill="#000000" fill-rule="evenodd" fill-opacity="1" /><path clip-path="url(#clip740)" d="M2078.48 1078.62 Q2074.87 1078.62 2073.04 1082.18 Q2071.24 1085.72 2071.24 1092.85 Q2071.24 1099.96 2073.04 1103.53 Q2074.87 1107.07 2078.48 1107.07 Q2082.12 1107.07 2083.92 1103.53 Q2085.75 1099.96 2085.75 1092.85 Q2085.75 1085.72 2083.92 1082.18 Q2082.12 1078.62 2078.48 1078.62 M2078.48 1074.91 Q2084.29 1074.91 2087.35 1079.52 Q2090.43 1084.1 2090.43 1092.85 Q2090.43 1101.58 2087.35 1106.19 Q2084.29 1110.77 2078.48 1110.77 Q2072.67 1110.77 2069.59 1106.19 Q2066.54 1101.58 2066.54 1092.85 Q2066.54 1084.1 2069.59 1079.52 Q2072.67 1074.91 2078.48 1074.91 Z" fill="#000000" fill-rule="evenodd" fill-opacity="1" /><path clip-path="url(#clip740)" d="M2326.52 1091.47 Q2329.87 1092.18 2331.75 1094.45 Q2333.65 1096.72 2333.65 1100.05 Q2333.65 1105.17 2330.13 1107.97 Q2326.61 1110.77 2320.13 1110.77 Q2317.95 1110.77 2315.64 1110.33 Q2313.35 1109.91 2310.89 1109.06 L2310.89 1104.54 Q2312.84 1105.68 2315.15 1106.26 Q2317.47 1106.84 2319.99 1106.84 Q2324.39 1106.84 2326.68 1105.1 Q2328.99 1103.36 2328.99 1100.05 Q2328.99 1097 2326.84 1095.29 Q2324.71 1093.55 2320.89 1093.55 L2316.86 1093.55 L2316.86 1089.71 L2321.08 1089.71 Q2324.53 1089.71 2326.36 1088.34 Q2328.18 1086.95 2328.18 1084.36 Q2328.18 1081.7 2326.29 1080.29 Q2324.41 1078.85 2320.89 1078.85 Q2318.97 1078.85 2316.77 1079.27 Q2314.57 1079.68 2311.93 1080.56 L2311.93 1076.4 Q2314.6 1075.66 2316.91 1075.29 Q2319.25 1074.91 2321.31 1074.91 Q2326.63 1074.91 2329.74 1077.35 Q2332.84 1079.75 2332.84 1083.87 Q2332.84 1086.74 2331.19 1088.73 Q2329.55 1090.7 2326.52 1091.47 Z" fill="#000000" fill-rule="evenodd" fill-opacity="1" /><path clip-path="url(#clip740)" d="M2342.56 1075.54 L2360.92 1075.54 L2360.92 1079.48 L2346.84 1079.48 L2346.84 1087.95 Q2347.86 1087.6 2348.88 1087.44 Q2349.9 1087.25 2350.92 1087.25 Q2356.7 1087.25 2360.08 1090.42 Q2363.46 1093.6 2363.46 1099.01 Q2363.46 1104.59 2359.99 1107.69 Q2356.52 1110.77 2350.2 1110.77 Q2348.02 1110.77 2345.75 1110.4 Q2343.51 1110.03 2341.1 1109.29 L2341.1 1104.59 Q2343.18 1105.72 2345.41 1106.28 Q2347.63 1106.84 2350.11 1106.84 Q2354.11 1106.84 2356.45 1104.73 Q2358.79 1102.62 2358.79 1099.01 Q2358.79 1095.4 2356.45 1093.29 Q2354.11 1091.19 2350.11 1091.19 Q2348.23 1091.19 2346.36 1091.6 Q2344.5 1092.02 2342.56 1092.9 L2342.56 1075.54 Z" fill="#000000" fill-rule="evenodd" fill-opacity="1" /><path clip-path="url(#clip740)" d="M2382.67 1078.62 Q2379.06 1078.62 2377.23 1082.18 Q2375.43 1085.72 2375.43 1092.85 Q2375.43 1099.96 2377.23 1103.53 Q2379.06 1107.07 2382.67 1107.07 Q2386.31 1107.07 2388.11 1103.53 Q2389.94 1099.96 2389.94 1092.85 Q2389.94 1085.72 2388.11 1082.18 Q2386.31 1078.62 2382.67 1078.62 M2382.67 1074.91 Q2388.48 1074.91 2391.54 1079.52 Q2394.62 1084.1 2394.62 1092.85 Q2394.62 1101.58 2391.54 1106.19 Q2388.48 1110.77 2382.67 1110.77 Q2376.86 1110.77 2373.79 1106.19 Q2370.73 1101.58 2370.73 1092.85 Q2370.73 1084.1 2373.79 1079.52 Q2376.86 1074.91 2382.67 1074.91 Z" fill="#000000" fill-rule="evenodd" fill-opacity="1" /><path clip-path="url(#clip740)" d="M1141.17 1145.04 L1181.37 1145.04 L1181.37 1150.45 L1164.51 1150.45 L1164.51 1192.56 L1158.04 1192.56 L1158.04 1150.45 L1141.17 1150.45 L1141.17 1145.04 Z" fill="#000000" fill-rule="evenodd" fill-opacity="1" /><path clip-path="url(#clip740)" d="M1185.32 1156.92 L1191.18 1156.92 L1191.18 1192.56 L1185.32 1192.56 L1185.32 1156.92 M1185.32 1143.04 L1191.18 1143.04 L1191.18 1150.45 L1185.32 1150.45 L1185.32 1143.04 Z" fill="#000000" fill-rule="evenodd" fill-opacity="1" /><path clip-path="url(#clip740)" d="M1231.19 1163.76 Q1233.38 1159.81 1236.44 1157.93 Q1239.49 1156.06 1243.63 1156.06 Q1249.2 1156.06 1252.22 1159.97 Q1255.25 1163.85 1255.25 1171.05 L1255.25 1192.56 L1249.36 1192.56 L1249.36 1171.24 Q1249.36 1166.11 1247.55 1163.63 Q1245.73 1161.15 1242.01 1161.15 Q1237.46 1161.15 1234.81 1164.17 Q1232.17 1167.2 1232.17 1172.42 L1232.17 1192.56 L1226.28 1192.56 L1226.28 1171.24 Q1226.28 1166.08 1224.47 1163.63 Q1222.66 1161.15 1218.87 1161.15 Q1214.38 1161.15 1211.74 1164.2 Q1209.1 1167.23 1209.1 1172.42 L1209.1 1192.56 L1203.21 1192.56 L1203.21 1156.92 L1209.1 1156.92 L1209.1 1162.45 Q1211.1 1159.18 1213.9 1157.62 Q1216.7 1156.06 1220.56 1156.06 Q1224.44 1156.06 1227.14 1158.03 Q1229.88 1160 1231.19 1163.76 Z" fill="#000000" fill-rule="evenodd" fill-opacity="1" /><path clip-path="url(#clip740)" d="M1297.42 1173.28 L1297.42 1176.14 L1270.49 1176.14 Q1270.88 1182.19 1274.12 1185.37 Q1277.4 1188.52 1283.23 1188.52 Q1286.6 1188.52 1289.75 1187.69 Q1292.93 1186.87 1296.05 1185.21 L1296.05 1190.75 Q1292.9 1192.09 1289.59 1192.79 Q1286.28 1193.49 1282.88 1193.49 Q1274.35 1193.49 1269.35 1188.52 Q1264.38 1183.56 1264.38 1175.09 Q1264.38 1166.34 1269.09 1161.21 Q1273.84 1156.06 1281.86 1156.06 Q1289.05 1156.06 1293.22 1160.7 Q1297.42 1165.32 1297.42 1173.28 M1291.56 1171.56 Q1291.5 1166.75 1288.86 1163.89 Q1286.25 1161.02 1281.92 1161.02 Q1277.02 1161.02 1274.06 1163.79 Q1271.13 1166.56 1270.69 1171.59 L1291.56 1171.56 Z" fill="#000000" fill-rule="evenodd" fill-opacity="1" /><path clip-path="url(#clip740)" d="M1327.21 1143.04 L1340.71 1143.04 L1340.71 1147.59 L1333.07 1147.59 L1333.07 1196.61 L1340.71 1196.61 L1340.71 1201.16 L1327.21 1201.16 L1327.21 1143.04 Z" fill="#000000" fill-rule="evenodd" fill-opacity="1" /><path clip-path="url(#clip740)" d="M1382.82 1171.05 L1382.82 1192.56 L1376.96 1192.56 L1376.96 1171.24 Q1376.96 1166.18 1374.99 1163.66 Q1373.01 1161.15 1369.07 1161.15 Q1364.32 1161.15 1361.59 1164.17 Q1358.85 1167.2 1358.85 1172.42 L1358.85 1192.56 L1352.96 1192.56 L1352.96 1143.04 L1358.85 1143.04 L1358.85 1162.45 Q1360.95 1159.24 1363.78 1157.65 Q1366.65 1156.06 1370.37 1156.06 Q1376.51 1156.06 1379.67 1159.88 Q1382.82 1163.66 1382.82 1171.05 Z" fill="#000000" fill-rule="evenodd" fill-opacity="1" /><path clip-path="url(#clip740)" d="M1415.15 1162.39 Q1414.17 1161.82 1412.99 1161.56 Q1411.84 1161.28 1410.44 1161.28 Q1405.48 1161.28 1402.81 1164.52 Q1400.16 1167.74 1400.16 1173.79 L1400.16 1192.56 L1394.28 1192.56 L1394.28 1156.92 L1400.16 1156.92 L1400.16 1162.45 Q1402.01 1159.21 1404.97 1157.65 Q1407.93 1156.06 1412.16 1156.06 Q1412.77 1156.06 1413.5 1156.15 Q1414.23 1156.22 1415.12 1156.37 L1415.15 1162.39 Z" fill="#000000" fill-rule="evenodd" fill-opacity="1" /><path clip-path="url(#clip740)" d="M1434.98 1143.04 L1434.98 1201.16 L1421.49 1201.16 L1421.49 1196.61 L1429.1 1196.61 L1429.1 1147.59 L1421.49 1147.59 L1421.49 1143.04 L1434.98 1143.04 Z" fill="#000000" fill-rule="evenodd" fill-opacity="1" /><polyline clip-path="url(#clip742)" style="stroke:#000000; stroke-linecap:butt; stroke-linejoin:round; stroke-width:2; stroke-opacity:0.1; fill:none" points="
  223.403,1041.49 2352.76,1041.49 
  "/>
<polyline clip-path="url(#clip742)" style="stroke:#000000; stroke-linecap:butt; stroke-linejoin:round; stroke-width:2; stroke-opacity:0.1; fill:none" points="
  223.403,792.925 2352.76,792.925 
  "/>
<polyline clip-path="url(#clip742)" style="stroke:#000000; stroke-linecap:butt; stroke-linejoin:round; stroke-width:2; stroke-opacity:0.1; fill:none" points="
  223.403,544.365 2352.76,544.365 
  "/>
<polyline clip-path="url(#clip742)" style="stroke:#000000; stroke-linecap:butt; stroke-linejoin:round; stroke-width:2; stroke-opacity:0.1; fill:none" points="
  223.403,295.805 2352.76,295.805 
  "/>
<polyline clip-path="url(#clip742)" style="stroke:#000000; stroke-linecap:butt; stroke-linejoin:round; stroke-width:2; stroke-opacity:0.1; fill:none" points="
  223.403,47.2441 2352.76,47.2441 
  "/>
<polyline clip-path="url(#clip740)" style="stroke:#000000; stroke-linecap:butt; stroke-linejoin:round; stroke-width:4; stroke-opacity:1; fill:none" points="
  223.403,1047.7 223.403,47.2441 
  "/>
<polyline clip-path="url(#clip740)" style="stroke:#000000; stroke-linecap:butt; stroke-linejoin:round; stroke-width:4; stroke-opacity:1; fill:none" points="
  223.403,1041.49 242.3,1041.49 
  "/>
<polyline clip-path="url(#clip740)" style="stroke:#000000; stroke-linecap:butt; stroke-linejoin:round; stroke-width:4; stroke-opacity:1; fill:none" points="
  223.403,792.925 242.3,792.925 
  "/>
<polyline clip-path="url(#clip740)" style="stroke:#000000; stroke-linecap:butt; stroke-linejoin:round; stroke-width:4; stroke-opacity:1; fill:none" points="
  223.403,544.365 242.3,544.365 
  "/>
<polyline clip-path="url(#clip740)" style="stroke:#000000; stroke-linecap:butt; stroke-linejoin:round; stroke-width:4; stroke-opacity:1; fill:none" points="
  223.403,295.805 242.3,295.805 
  "/>
<polyline clip-path="url(#clip740)" style="stroke:#000000; stroke-linecap:butt; stroke-linejoin:round; stroke-width:4; stroke-opacity:1; fill:none" points="
  223.403,47.2441 242.3,47.2441 
  "/>
<path clip-path="url(#clip740)" d="M175.458 1027.28 Q171.847 1027.28 170.019 1030.85 Q168.213 1034.39 168.213 1041.52 Q168.213 1048.63 170.019 1052.19 Q171.847 1055.73 175.458 1055.73 Q179.093 1055.73 180.898 1052.19 Q182.727 1048.63 182.727 1041.52 Q182.727 1034.39 180.898 1030.85 Q179.093 1027.28 175.458 1027.28 M175.458 1023.58 Q181.269 1023.58 184.324 1028.19 Q187.403 1032.77 187.403 1041.52 Q187.403 1050.25 184.324 1054.85 Q181.269 1059.44 175.458 1059.44 Q169.648 1059.44 166.57 1054.85 Q163.514 1050.25 163.514 1041.52 Q163.514 1032.77 166.57 1028.19 Q169.648 1023.58 175.458 1023.58 Z" fill="#000000" fill-rule="evenodd" fill-opacity="1" /><path clip-path="url(#clip740)" d="M109.163 806.27 L125.482 806.27 L125.482 810.205 L103.538 810.205 L103.538 806.27 Q106.2 803.516 110.783 798.886 Q115.389 794.233 116.57 792.891 Q118.815 790.368 119.695 788.631 Q120.598 786.872 120.598 785.182 Q120.598 782.428 118.653 780.692 Q116.732 778.956 113.63 778.956 Q111.431 778.956 108.977 779.719 Q106.547 780.483 103.769 782.034 L103.769 777.312 Q106.593 776.178 109.047 775.599 Q111.5 775.02 113.538 775.02 Q118.908 775.02 122.102 777.706 Q125.297 780.391 125.297 784.881 Q125.297 787.011 124.487 788.932 Q123.699 790.831 121.593 793.423 Q121.014 794.094 117.912 797.312 Q114.811 800.506 109.163 806.27 Z" fill="#000000" fill-rule="evenodd" fill-opacity="1" /><path clip-path="url(#clip740)" d="M145.297 778.724 Q141.686 778.724 139.857 782.289 Q138.051 785.831 138.051 792.96 Q138.051 800.067 139.857 803.631 Q141.686 807.173 145.297 807.173 Q148.931 807.173 150.736 803.631 Q152.565 800.067 152.565 792.96 Q152.565 785.831 150.736 782.289 Q148.931 778.724 145.297 778.724 M145.297 775.02 Q151.107 775.02 154.162 779.627 Q157.241 784.21 157.241 792.96 Q157.241 801.687 154.162 806.293 Q151.107 810.877 145.297 810.877 Q139.486 810.877 136.408 806.293 Q133.352 801.687 133.352 792.96 Q133.352 784.21 136.408 779.627 Q139.486 775.02 145.297 775.02 Z" fill="#000000" fill-rule="evenodd" fill-opacity="1" /><path clip-path="url(#clip740)" d="M175.458 778.724 Q171.847 778.724 170.019 782.289 Q168.213 785.831 168.213 792.96 Q168.213 800.067 170.019 803.631 Q171.847 807.173 175.458 807.173 Q179.093 807.173 180.898 803.631 Q182.727 800.067 182.727 792.96 Q182.727 785.831 180.898 782.289 Q179.093 778.724 175.458 778.724 M175.458 775.02 Q181.269 775.02 184.324 779.627 Q187.403 784.21 187.403 792.96 Q187.403 801.687 184.324 806.293 Q181.269 810.877 175.458 810.877 Q169.648 810.877 166.57 806.293 Q163.514 801.687 163.514 792.96 Q163.514 784.21 166.57 779.627 Q169.648 775.02 175.458 775.02 Z" fill="#000000" fill-rule="evenodd" fill-opacity="1" /><path clip-path="url(#clip740)" d="M117.982 531.159 L106.176 549.608 L117.982 549.608 L117.982 531.159 M116.755 527.085 L122.635 527.085 L122.635 549.608 L127.565 549.608 L127.565 553.497 L122.635 553.497 L122.635 561.645 L117.982 561.645 L117.982 553.497 L102.38 553.497 L102.38 548.983 L116.755 527.085 Z" fill="#000000" fill-rule="evenodd" fill-opacity="1" /><path clip-path="url(#clip740)" d="M145.297 530.164 Q141.686 530.164 139.857 533.728 Q138.051 537.27 138.051 544.4 Q138.051 551.506 139.857 555.071 Q141.686 558.613 145.297 558.613 Q148.931 558.613 150.736 555.071 Q152.565 551.506 152.565 544.4 Q152.565 537.27 150.736 533.728 Q148.931 530.164 145.297 530.164 M145.297 526.46 Q151.107 526.46 154.162 531.066 Q157.241 535.65 157.241 544.4 Q157.241 553.126 154.162 557.733 Q151.107 562.316 145.297 562.316 Q139.486 562.316 136.408 557.733 Q133.352 553.126 133.352 544.4 Q133.352 535.65 136.408 531.066 Q139.486 526.46 145.297 526.46 Z" fill="#000000" fill-rule="evenodd" fill-opacity="1" /><path clip-path="url(#clip740)" d="M175.458 530.164 Q171.847 530.164 170.019 533.728 Q168.213 537.27 168.213 544.4 Q168.213 551.506 170.019 555.071 Q171.847 558.613 175.458 558.613 Q179.093 558.613 180.898 555.071 Q182.727 551.506 182.727 544.4 Q182.727 537.27 180.898 533.728 Q179.093 530.164 175.458 530.164 M175.458 526.46 Q181.269 526.46 184.324 531.066 Q187.403 535.65 187.403 544.4 Q187.403 553.126 184.324 557.733 Q181.269 562.316 175.458 562.316 Q169.648 562.316 166.57 557.733 Q163.514 553.126 163.514 544.4 Q163.514 535.65 166.57 531.066 Q169.648 526.46 175.458 526.46 Z" fill="#000000" fill-rule="evenodd" fill-opacity="1" /><path clip-path="url(#clip740)" d="M115.713 293.941 Q112.565 293.941 110.713 296.094 Q108.885 298.247 108.885 301.997 Q108.885 305.723 110.713 307.899 Q112.565 310.052 115.713 310.052 Q118.862 310.052 120.69 307.899 Q122.542 305.723 122.542 301.997 Q122.542 298.247 120.69 296.094 Q118.862 293.941 115.713 293.941 M124.996 279.288 L124.996 283.548 Q123.237 282.714 121.431 282.275 Q119.649 281.835 117.889 281.835 Q113.26 281.835 110.806 284.96 Q108.375 288.085 108.028 294.404 Q109.394 292.39 111.454 291.325 Q113.514 290.237 115.991 290.237 Q121.2 290.237 124.209 293.409 Q127.241 296.557 127.241 301.997 Q127.241 307.321 124.093 310.538 Q120.945 313.756 115.713 313.756 Q109.718 313.756 106.547 309.173 Q103.376 304.566 103.376 295.839 Q103.376 287.645 107.264 282.784 Q111.153 277.9 117.704 277.9 Q119.463 277.9 121.246 278.247 Q123.051 278.594 124.996 279.288 Z" fill="#000000" fill-rule="evenodd" fill-opacity="1" /><path clip-path="url(#clip740)" d="M145.297 281.603 Q141.686 281.603 139.857 285.168 Q138.051 288.71 138.051 295.839 Q138.051 302.946 139.857 306.51 Q141.686 310.052 145.297 310.052 Q148.931 310.052 150.736 306.51 Q152.565 302.946 152.565 295.839 Q152.565 288.71 150.736 285.168 Q148.931 281.603 145.297 281.603 M145.297 277.9 Q151.107 277.9 154.162 282.506 Q157.241 287.089 157.241 295.839 Q157.241 304.566 154.162 309.173 Q151.107 313.756 145.297 313.756 Q139.486 313.756 136.408 309.173 Q133.352 304.566 133.352 295.839 Q133.352 287.089 136.408 282.506 Q139.486 277.9 145.297 277.9 Z" fill="#000000" fill-rule="evenodd" fill-opacity="1" /><path clip-path="url(#clip740)" d="M175.458 281.603 Q171.847 281.603 170.019 285.168 Q168.213 288.71 168.213 295.839 Q168.213 302.946 170.019 306.51 Q171.847 310.052 175.458 310.052 Q179.093 310.052 180.898 306.51 Q182.727 302.946 182.727 295.839 Q182.727 288.71 180.898 285.168 Q179.093 281.603 175.458 281.603 M175.458 277.9 Q181.269 277.9 184.324 282.506 Q187.403 287.089 187.403 295.839 Q187.403 304.566 184.324 309.173 Q181.269 313.756 175.458 313.756 Q169.648 313.756 166.57 309.173 Q163.514 304.566 163.514 295.839 Q163.514 287.089 166.57 282.506 Q169.648 277.9 175.458 277.9 Z" fill="#000000" fill-rule="evenodd" fill-opacity="1" /><path clip-path="url(#clip740)" d="M115.135 48.1121 Q111.801 48.1121 109.88 49.8945 Q107.982 51.6769 107.982 54.8019 Q107.982 57.9269 109.88 59.7093 Q111.801 61.4917 115.135 61.4917 Q118.468 61.4917 120.389 59.7093 Q122.311 57.9038 122.311 54.8019 Q122.311 51.6769 120.389 49.8945 Q118.491 48.1121 115.135 48.1121 M110.459 46.1214 Q107.45 45.3807 105.76 43.3205 Q104.093 41.2603 104.093 38.2974 Q104.093 34.1539 107.033 31.7465 Q109.996 29.3391 115.135 29.3391 Q120.297 29.3391 123.237 31.7465 Q126.176 34.1539 126.176 38.2974 Q126.176 41.2603 124.487 43.3205 Q122.82 45.3807 119.834 46.1214 Q123.213 46.9084 125.088 49.2001 Q126.987 51.4918 126.987 54.8019 Q126.987 59.825 123.908 62.5102 Q120.852 65.1954 115.135 65.1954 Q109.417 65.1954 106.338 62.5102 Q103.283 59.825 103.283 54.8019 Q103.283 51.4918 105.181 49.2001 Q107.079 46.9084 110.459 46.1214 M108.746 38.7372 Q108.746 41.4224 110.413 42.927 Q112.102 44.4316 115.135 44.4316 Q118.144 44.4316 119.834 42.927 Q121.547 41.4224 121.547 38.7372 Q121.547 36.052 119.834 34.5474 Q118.144 33.0428 115.135 33.0428 Q112.102 33.0428 110.413 34.5474 Q108.746 36.052 108.746 38.7372 Z" fill="#000000" fill-rule="evenodd" fill-opacity="1" /><path clip-path="url(#clip740)" d="M145.297 33.0428 Q141.686 33.0428 139.857 36.6076 Q138.051 40.1492 138.051 47.2788 Q138.051 54.3853 139.857 57.9501 Q141.686 61.4917 145.297 61.4917 Q148.931 61.4917 150.736 57.9501 Q152.565 54.3853 152.565 47.2788 Q152.565 40.1492 150.736 36.6076 Q148.931 33.0428 145.297 33.0428 M145.297 29.3391 Q151.107 29.3391 154.162 33.9456 Q157.241 38.5289 157.241 47.2788 Q157.241 56.0056 154.162 60.6121 Q151.107 65.1954 145.297 65.1954 Q139.486 65.1954 136.408 60.6121 Q133.352 56.0056 133.352 47.2788 Q133.352 38.5289 136.408 33.9456 Q139.486 29.3391 145.297 29.3391 Z" fill="#000000" fill-rule="evenodd" fill-opacity="1" /><path clip-path="url(#clip740)" d="M175.458 33.0428 Q171.847 33.0428 170.019 36.6076 Q168.213 40.1492 168.213 47.2788 Q168.213 54.3853 170.019 57.9501 Q171.847 61.4917 175.458 61.4917 Q179.093 61.4917 180.898 57.9501 Q182.727 54.3853 182.727 47.2788 Q182.727 40.1492 180.898 36.6076 Q179.093 33.0428 175.458 33.0428 M175.458 29.3391 Q181.269 29.3391 184.324 33.9456 Q187.403 38.5289 187.403 47.2788 Q187.403 56.0056 184.324 60.6121 Q181.269 65.1954 175.458 65.1954 Q169.648 65.1954 166.57 60.6121 Q163.514 56.0056 163.514 47.2788 Q163.514 38.5289 166.57 33.9456 Q169.648 29.3391 175.458 29.3391 Z" fill="#000000" fill-rule="evenodd" fill-opacity="1" /><path clip-path="url(#clip740)" d="M4.60416 737.488 L4.60416 731.059 L24.0832 731.059 L24.0832 707.697 L4.60416 707.697 L4.60416 701.267 L52.1242 701.267 L52.1242 707.697 L29.4941 707.697 L29.4941 731.059 L52.1242 731.059 L52.1242 737.488 L4.60416 737.488 Z" fill="#000000" fill-rule="evenodd" fill-opacity="1" /><path clip-path="url(#clip740)" d="M32.8361 658.235 L35.7006 658.235 L35.7006 685.162 Q41.7481 684.78 44.9309 681.534 Q48.0819 678.255 48.0819 672.431 Q48.0819 669.057 47.2544 665.906 Q46.4269 662.723 44.7718 659.604 L50.3099 659.604 Q51.6467 662.755 52.347 666.065 Q53.0472 669.375 53.0472 672.781 Q53.0472 681.311 48.0819 686.308 Q43.1167 691.273 34.6503 691.273 Q25.8974 691.273 20.7731 686.563 Q15.6168 681.82 15.6168 673.799 Q15.6168 666.606 20.2638 662.437 Q24.8789 658.235 32.8361 658.235 M31.1173 664.092 Q26.3112 664.155 23.4466 666.797 Q20.5821 669.407 20.5821 673.736 Q20.5821 678.637 23.3512 681.597 Q26.1202 684.526 31.1492 684.971 L31.1173 664.092 Z" fill="#000000" fill-rule="evenodd" fill-opacity="1" /><path clip-path="url(#clip740)" d="M16.4762 648.623 L16.4762 642.767 L52.1242 642.767 L52.1242 648.623 L16.4762 648.623 M2.59896 648.623 L2.59896 642.767 L10.015 642.767 L10.015 648.623 L2.59896 648.623 Z" fill="#000000" fill-rule="evenodd" fill-opacity="1" /><path clip-path="url(#clip740)" d="M33.8864 607.055 Q27.5207 607.055 24.0196 609.697 Q20.5184 612.307 20.5184 617.049 Q20.5184 621.76 24.0196 624.402 Q27.5207 627.011 33.8864 627.011 Q40.2203 627.011 43.7214 624.402 Q47.2226 621.76 47.2226 617.049 Q47.2226 612.307 43.7214 609.697 Q40.2203 607.055 33.8864 607.055 M47.7 601.199 Q56.803 601.199 61.2271 605.241 Q65.6831 609.283 65.6831 617.622 Q65.6831 620.709 65.2057 623.447 Q64.7601 626.184 63.8052 628.762 L58.1079 628.762 Q59.5084 626.184 60.1768 623.669 Q60.8452 621.155 60.8452 618.545 Q60.8452 612.784 57.8215 609.92 Q54.8296 607.055 48.7503 607.055 L45.8539 607.055 Q49.005 608.869 50.5646 611.702 Q52.1242 614.535 52.1242 618.481 Q52.1242 625.038 47.1271 629.048 Q42.13 633.059 33.8864 633.059 Q25.611 633.059 20.6139 629.048 Q15.6168 625.038 15.6168 618.481 Q15.6168 614.535 17.1764 611.702 Q18.736 608.869 21.8871 607.055 L16.4762 607.055 L16.4762 601.199 L47.7 601.199 Z" fill="#000000" fill-rule="evenodd" fill-opacity="1" /><path clip-path="url(#clip740)" d="M30.6081 559.503 L52.1242 559.503 L52.1242 565.36 L30.799 565.36 Q25.7383 565.36 23.2238 567.333 Q20.7094 569.306 20.7094 573.253 Q20.7094 577.996 23.7331 580.733 Q26.7568 583.47 31.9767 583.47 L52.1242 583.47 L52.1242 589.358 L2.59896 589.358 L2.59896 583.47 L22.0144 583.47 Q18.7997 581.369 17.2083 578.537 Q15.6168 575.672 15.6168 571.948 Q15.6168 565.805 19.4363 562.654 Q23.2238 559.503 30.6081 559.503 Z" fill="#000000" fill-rule="evenodd" fill-opacity="1" /><path clip-path="url(#clip740)" d="M6.35473 542.029 L16.4762 542.029 L16.4762 529.966 L21.0277 529.966 L21.0277 542.029 L40.3794 542.029 Q44.7399 542.029 45.9813 540.852 Q47.2226 539.642 47.2226 535.982 L47.2226 529.966 L52.1242 529.966 L52.1242 535.982 Q52.1242 542.761 49.6097 545.339 Q47.0634 547.918 40.3794 547.918 L21.0277 547.918 L21.0277 552.214 L16.4762 552.214 L16.4762 547.918 L6.35473 547.918 L6.35473 542.029 Z" fill="#000000" fill-rule="evenodd" fill-opacity="1" /><path clip-path="url(#clip740)" d="M2.59896 502.084 L2.59896 488.589 L7.15044 488.589 L7.15044 496.228 L56.1664 496.228 L56.1664 488.589 L60.7179 488.589 L60.7179 502.084 L2.59896 502.084 Z" fill="#000000" fill-rule="evenodd" fill-opacity="1" /><path clip-path="url(#clip740)" d="M65.6831 476.717 L16.4762 476.717 L16.4762 470.861 L38.6289 470.861 Q43.244 470.861 45.5993 468.665 Q47.9546 466.468 47.9546 462.171 Q47.9546 457.461 45.281 455.106 Q42.6074 452.718 37.2602 452.718 L16.4762 452.718 L16.4762 446.862 L43.9124 446.862 Q45.8221 446.862 46.7451 446.321 Q47.6363 445.748 47.6363 444.57 Q47.6363 444.284 47.4772 443.775 Q47.2862 443.265 46.9043 442.374 L51.6149 442.374 Q52.347 443.679 52.6971 444.857 Q53.0472 446.003 53.0472 447.117 Q53.0472 449.313 51.8059 450.618 Q50.5646 451.923 48.0183 452.4 Q50.5327 453.992 51.8059 456.315 Q53.0472 458.607 53.0472 461.726 Q53.0472 464.972 51.8059 467.264 Q50.5646 469.524 48.0819 470.861 L65.6831 470.861 L65.6831 476.717 Z" fill="#000000" fill-rule="evenodd" fill-opacity="1" /><path clip-path="url(#clip740)" d="M23.3193 406.885 Q19.3726 404.689 17.4947 401.634 Q15.6168 398.578 15.6168 394.44 Q15.6168 388.87 19.5317 385.847 Q23.4148 382.823 30.6081 382.823 L52.1242 382.823 L52.1242 388.711 L30.799 388.711 Q25.6746 388.711 23.192 390.525 Q20.7094 392.34 20.7094 396.064 Q20.7094 400.615 23.7331 403.257 Q26.7568 405.899 31.9767 405.899 L52.1242 405.899 L52.1242 411.787 L30.799 411.787 Q25.6428 411.787 23.192 413.601 Q20.7094 415.415 20.7094 419.203 Q20.7094 423.691 23.7649 426.333 Q26.7886 428.974 31.9767 428.974 L52.1242 428.974 L52.1242 434.863 L16.4762 434.863 L16.4762 428.974 L22.0144 428.974 Q18.736 426.969 17.1764 424.168 Q15.6168 421.367 15.6168 417.516 Q15.6168 413.633 17.5902 410.928 Q19.5636 408.19 23.3193 406.885 Z" fill="#000000" fill-rule="evenodd" fill-opacity="1" /><path clip-path="url(#clip740)" d="M2.59896 357.456 L60.7179 357.456 L60.7179 370.951 L56.1664 370.951 L56.1664 363.344 L7.15044 363.344 L7.15044 370.951 L2.59896 370.951 L2.59896 357.456 Z" fill="#000000" fill-rule="evenodd" fill-opacity="1" /><polyline clip-path="url(#clip742)" style="stroke:#009af9; stroke-linecap:butt; stroke-linejoin:round; stroke-width:8; stroke-opacity:1; fill:none" points="
  223.403,1041.24 229.487,1040.98 235.571,1040.47 241.654,1039.43 247.738,1037.32 253.822,1033.07 259.906,1024.35 265.99,1011.16 272.074,998.589 278.158,986.656 
  284.242,975.329 290.325,964.576 296.409,954.368 302.493,944.678 308.577,935.48 314.661,926.748 320.745,918.459 326.829,910.591 332.912,903.122 338.996,896.032 
  345.08,889.301 351.164,882.911 357.248,876.846 363.332,871.088 369.416,865.623 375.499,860.435 381.583,855.51 387.667,850.834 393.751,846.396 399.835,842.183 
  405.919,838.183 412.003,834.387 418.087,830.783 424.17,827.362 430.254,824.115 436.338,821.032 442.422,818.106 448.506,815.327 454.59,812.69 460.674,810.186 
  466.757,807.81 472.841,805.554 478.925,803.413 485.009,801.38 491.093,799.451 497.177,797.619 503.261,795.881 509.345,794.23 515.428,792.663 521.512,791.175 
  527.596,789.762 533.68,788.422 539.764,787.149 545.848,785.941 551.932,784.795 558.015,783.707 564.099,782.674 570.183,781.693 576.267,780.763 582.351,779.879 
  588.435,779.04 594.519,778.243 600.603,777.487 606.686,776.768 612.77,776.087 618.854,775.44 624.938,774.826 631.022,774.243 637.106,773.69 643.19,773.165 
  649.273,772.667 655.357,772.194 661.441,771.745 667.525,771.319 673.609,770.915 679.693,770.53 685.777,770.165 691.861,769.819 697.944,769.489 704.028,769.177 
  710.112,768.88 716.196,768.599 722.28,768.332 728.364,768.078 734.448,767.838 740.531,767.61 746.615,767.393 752.699,767.188 758.783,766.993 764.867,766.808 
  770.951,766.633 777.035,766.466 783.119,766.307 789.202,766.157 795.286,766.013 801.37,765.877 807.454,765.748 813.538,765.625 819.622,765.509 825.706,765.398 
  831.789,765.293 837.873,765.194 843.957,765.1 850.041,765.01 856.125,764.926 862.209,764.845 868.293,764.769 874.376,764.697 880.46,764.628 886.544,764.563 
  892.628,764.502 898.712,764.443 904.796,764.387 910.88,764.334 916.964,764.284 923.047,764.235 929.131,764.19 935.215,764.146 941.299,764.105 947.383,764.065 
  953.467,764.028 959.551,763.993 965.634,763.959 971.718,763.927 977.802,763.897 983.886,763.869 989.97,763.842 996.054,763.816 1002.14,763.792 1008.22,763.769 
  1014.31,763.748 1020.39,763.727 1026.47,763.708 1032.56,763.689 1038.64,763.672 1044.72,763.655 1050.81,763.64 1056.89,763.625 1062.98,763.61 1069.06,763.596 
  1075.14,763.583 1081.23,763.57 1087.31,763.558 1093.4,763.547 1099.48,763.536 1105.56,763.526 1111.65,763.516 1117.73,763.506 1123.81,763.498 1129.9,763.489 
  1135.98,763.481 1142.07,763.474 1148.15,763.467 1154.23,763.46 1160.32,763.454 1166.4,763.448 1172.49,763.443 1178.57,763.438 1184.65,763.433 1190.74,763.428 
  1196.82,763.424 1202.91,763.42 1208.99,763.416 1215.07,763.412 1221.16,763.409 1227.24,763.405 1233.32,763.402 1239.41,763.399 1245.49,763.396 1251.58,763.393 
  1257.66,763.39 1263.74,763.387 1269.83,763.385 1275.91,763.382 1282,763.38 1288.08,763.378 1294.16,763.375 1300.25,763.373 1306.33,763.371 1312.41,763.369 
  1318.5,763.368 1324.58,763.366 1330.67,763.364 1336.75,763.363 1342.83,763.361 1348.92,763.36 1355,763.359 1361.09,763.358 1367.17,763.357 1373.25,763.356 
  1379.34,763.355 1385.42,763.354 1391.51,763.353 1397.59,763.353 1403.67,763.352 1409.76,763.352 1415.84,763.351 1421.92,763.351 1428.01,763.35 1434.09,763.35 
  1440.18,763.349 1446.26,763.349 1452.34,763.349 1458.43,763.348 1464.51,763.348 1470.6,763.347 1476.68,763.347 1482.76,763.346 1488.85,763.346 1494.93,763.345 
  1501.01,763.345 1507.1,763.344 1513.18,763.344 1519.27,763.344 1525.35,763.343 1531.43,763.343 1537.52,763.342 1543.6,763.342 1549.69,763.342 1555.77,763.341 
  1561.85,763.341 1567.94,763.341 1574.02,763.341 1580.1,763.34 1586.19,763.34 1592.27,763.34 1598.36,763.34 1604.44,763.339 1610.52,763.339 1616.61,763.339 
  1622.69,763.339 1628.78,763.339 1634.86,763.339 1640.94,763.339 1647.03,763.339 1653.11,763.339 1659.2,763.339 1665.28,763.339 1671.36,763.339 1677.45,763.339 
  1683.53,763.339 1689.61,763.339 1695.7,763.339 1701.78,763.339 1707.87,763.339 1713.95,763.339 1720.03,763.339 1726.12,763.339 1732.2,763.339 1738.29,763.339 
  1744.37,763.339 1750.45,763.339 1756.54,763.339 1762.62,763.339 1768.7,763.339 1774.79,763.339 1780.87,763.339 1786.96,763.339 1793.04,763.339 1799.12,763.339 
  1805.21,763.339 1811.29,763.339 1817.38,763.338 1823.46,763.338 1829.54,763.338 1835.63,763.338 1841.71,763.338 1847.8,763.338 1853.88,763.338 1859.96,763.338 
  1866.05,763.337 1872.13,763.337 1878.21,763.337 1884.3,763.337 1890.38,763.337 1896.47,763.337 1902.55,763.337 1908.63,763.337 1914.72,763.337 1920.8,763.337 
  1926.89,763.337 1932.97,763.337 1939.05,763.337 1945.14,763.337 1951.22,763.337 1957.3,763.337 1963.39,763.337 1969.47,763.337 1975.56,763.337 1981.64,763.337 
  1987.72,763.337 1993.81,763.337 1999.89,763.337 2005.98,763.337 2012.06,763.337 2018.14,763.337 2024.23,763.337 2030.31,763.338 2036.39,763.338 2042.48,763.338 
  2048.56,763.338 2054.65,763.338 2060.73,763.338 2066.81,763.338 2072.9,763.338 2078.98,763.338 2085.07,763.338 2091.15,763.339 2097.23,763.339 2103.32,763.339 
  2109.4,763.339 2115.49,763.339 2121.57,763.339 2127.65,763.339 2133.74,763.339 2139.82,763.339 2145.9,763.339 2151.99,763.339 2158.07,763.339 2164.16,763.339 
  2170.24,763.339 2176.32,763.339 2182.41,763.339 2188.49,763.338 2194.58,763.338 2200.66,763.338 2206.74,763.338 2212.83,763.338 2218.91,763.338 2224.99,763.338 
  2231.08,763.338 2237.16,763.338 2243.25,763.338 2249.33,763.338 2255.41,763.338 2261.5,763.338 2267.58,763.338 2273.67,763.338 2279.75,763.338 2285.83,763.338 
  2291.92,763.338 2298,763.338 2304.08,763.338 2310.17,763.338 2316.25,763.338 2322.34,763.338 2328.42,763.338 2334.5,763.338 2340.59,763.338 2346.67,763.338 
  2352.76,763.338 
  "/>
<polyline clip-path="url(#clip742)" style="stroke:#e26f46; stroke-linecap:butt; stroke-linejoin:round; stroke-width:8; stroke-opacity:1; fill:none" points="
  223.403,1041.24 229.487,1041.16 235.571,1041.06 241.654,1040.93 247.738,1040.76 253.822,1040.53 259.906,1040.24 265.99,1039.85 272.074,1039.34 278.158,1038.68 
  284.242,1037.81 290.325,1036.68 296.409,1035.19 302.493,1033.25 308.577,1030.7 314.661,1027.44 320.745,1023.05 326.829,1017.81 332.912,1012.62 338.996,1007.51 
  345.08,1002.47 351.164,997.5 357.248,992.604 363.332,987.78 369.416,983.026 375.499,978.34 381.583,973.722 387.667,969.172 393.751,964.687 399.835,960.268 
  405.919,955.912 412.003,951.62 418.087,947.389 424.17,943.221 430.254,939.112 436.338,935.063 442.422,931.073 448.506,927.141 454.59,923.266 460.674,919.447 
  466.757,915.683 472.841,911.974 478.925,908.318 485.009,904.716 491.093,901.166 497.177,897.667 503.261,894.219 509.345,890.821 515.428,887.473 521.512,884.172 
  527.596,880.92 533.68,877.715 539.764,874.556 545.848,871.444 551.932,868.376 558.015,865.353 564.099,862.373 570.183,859.437 576.267,856.543 582.351,853.691 
  588.435,850.881 594.519,848.111 600.603,845.382 606.686,842.692 612.77,840.041 618.854,837.429 624.938,834.854 631.022,832.317 637.106,829.816 643.19,827.352 
  649.273,824.924 655.357,822.531 661.441,820.172 667.525,817.848 673.609,815.557 679.693,813.3 685.777,811.075 691.861,808.883 697.944,806.722 704.028,804.592 
  710.112,802.494 716.196,800.426 722.28,798.388 728.364,796.379 734.448,794.4 740.531,792.449 746.615,790.526 752.699,788.632 758.783,786.765 764.867,784.925 
  770.951,783.111 777.035,781.324 783.119,779.563 789.202,777.827 795.286,776.117 801.37,774.431 807.454,772.77 813.538,771.133 819.622,769.52 825.706,767.93 
  831.789,766.363 837.873,764.819 843.957,763.297 850.041,761.797 856.125,760.319 862.209,758.863 868.293,757.427 874.376,756.013 880.46,754.619 886.544,753.245 
  892.628,751.891 898.712,750.556 904.796,749.241 910.88,747.945 916.964,746.668 923.047,745.409 929.131,744.169 935.215,742.946 941.299,741.741 947.383,740.554 
  953.467,739.384 959.551,738.23 965.634,737.094 971.718,735.974 977.802,734.87 983.886,733.783 989.97,732.711 996.054,731.655 1002.14,730.614 1008.22,729.588 
  1014.31,728.577 1020.39,727.581 1026.47,726.599 1032.56,725.631 1038.64,724.678 1044.72,723.738 1050.81,722.812 1056.89,721.899 1062.98,721 1069.06,720.113 
  1075.14,719.24 1081.23,718.379 1087.31,717.53 1093.4,716.694 1099.48,715.87 1105.56,715.058 1111.65,714.258 1117.73,713.469 1123.81,712.692 1129.9,711.926 
  1135.98,711.17 1142.07,710.426 1148.15,709.693 1154.23,708.97 1160.32,708.258 1166.4,707.556 1172.49,706.864 1178.57,706.183 1184.65,705.511 1190.74,704.849 
  1196.82,704.196 1202.91,703.553 1208.99,702.919 1215.07,702.295 1221.16,701.68 1227.24,701.073 1233.32,700.476 1239.41,699.887 1245.49,699.306 1251.58,698.734 
  1257.66,698.171 1263.74,697.615 1269.83,697.068 1275.91,696.529 1282,695.997 1288.08,695.473 1294.16,694.957 1300.25,694.448 1306.33,693.947 1312.41,693.452 
  1318.5,692.965 1324.58,692.486 1330.67,692.013 1336.75,691.546 1342.83,691.087 1348.92,690.634 1355,690.188 1361.09,689.749 1367.17,689.315 1373.25,688.888 
  1379.34,688.467 1385.42,688.052 1391.51,687.643 1397.59,687.24 1403.67,686.843 1409.76,686.452 1415.84,686.066 1421.92,685.686 1428.01,685.311 1434.09,684.942 
  1440.18,684.578 1446.26,684.219 1452.34,683.866 1458.43,683.517 1464.51,683.174 1470.6,682.836 1476.68,682.503 1482.76,682.174 1488.85,681.85 1494.93,681.531 
  1501.01,681.217 1507.1,680.907 1513.18,680.602 1519.27,680.301 1525.35,680.005 1531.43,679.713 1537.52,679.425 1543.6,679.141 1549.69,678.862 1555.77,678.586 
  1561.85,678.315 1567.94,678.047 1574.02,677.783 1580.1,677.524 1586.19,677.268 1592.27,677.015 1598.36,676.767 1604.44,676.522 1610.52,676.28 1616.61,676.042 
  1622.69,675.808 1628.78,675.577 1634.86,675.349 1640.94,675.124 1647.03,674.903 1653.11,674.685 1659.2,674.47 1665.28,674.258 1671.36,674.05 1677.45,673.844 
  1683.53,673.641 1689.61,673.441 1695.7,673.244 1701.78,673.05 1707.87,672.859 1713.95,672.67 1720.03,672.484 1726.12,672.301 1732.2,672.12 1738.29,671.942 
  1744.37,671.767 1750.45,671.594 1756.54,671.423 1762.62,671.255 1768.7,671.09 1774.79,670.927 1780.87,670.766 1786.96,670.608 1793.04,670.452 1799.12,670.298 
  1805.21,670.146 1811.29,669.997 1817.38,669.85 1823.46,669.705 1829.54,669.562 1835.63,669.421 1841.71,669.282 1847.8,669.146 1853.88,669.011 1859.96,668.878 
  1866.05,668.747 1872.13,668.618 1878.21,668.491 1884.3,668.366 1890.38,668.243 1896.47,668.121 1902.55,668.002 1908.63,667.884 1914.72,667.768 1920.8,667.653 
  1926.89,667.54 1932.97,667.429 1939.05,667.319 1945.14,667.211 1951.22,667.105 1957.3,667 1963.39,666.896 1969.47,666.794 1975.56,666.694 1981.64,666.595 
  1987.72,666.498 1993.81,666.401 1999.89,666.307 2005.98,666.213 2012.06,666.121 2018.14,666.03 2024.23,665.941 2030.31,665.853 2036.39,665.766 2042.48,665.68 
  2048.56,665.596 2054.65,665.513 2060.73,665.431 2066.81,665.35 2072.9,665.27 2078.98,665.192 2085.07,665.114 2091.15,665.038 2097.23,664.963 2103.32,664.889 
  2109.4,664.816 2115.49,664.744 2121.57,664.673 2127.65,664.603 2133.74,664.534 2139.82,664.466 2145.9,664.399 2151.99,664.333 2158.07,664.268 2164.16,664.204 
  2170.24,664.141 2176.32,664.079 2182.41,664.018 2188.49,663.958 2194.58,663.898 2200.66,663.839 2206.74,663.782 2212.83,663.725 2218.91,663.669 2224.99,663.613 
  2231.08,663.559 2237.16,663.505 2243.25,663.452 2249.33,663.4 2255.41,663.349 2261.5,663.298 2267.58,663.248 2273.67,663.199 2279.75,663.151 2285.83,663.103 
  2291.92,663.056 2298,663.01 2304.08,662.964 2310.17,662.919 2316.25,662.874 2322.34,662.831 2328.42,662.788 2334.5,662.745 2340.59,662.703 2346.67,662.662 
  2352.76,662.621 
  "/>
<polyline clip-path="url(#clip742)" style="stroke:#3da44d; stroke-linecap:butt; stroke-linejoin:round; stroke-width:8; stroke-opacity:1; fill:none" points="
  223.403,1041.24 229.487,1041.15 235.571,1041.04 241.654,1040.89 247.738,1040.69 253.822,1040.42 259.906,1040.06 265.99,1039.57 272.074,1038.92 278.158,1038.05 
  284.242,1036.89 290.325,1035.33 296.409,1033.25 302.493,1030.46 308.577,1026.73 314.661,1021.73 320.745,1015.02 326.829,1006.09 332.912,995.404 338.996,984.288 
  345.08,973.353 351.164,962.566 357.248,951.926 363.332,941.429 369.416,931.075 375.499,920.86 381.583,910.784 387.667,900.844 393.751,891.039 399.835,881.367 
  405.919,871.826 412.003,862.413 418.087,853.129 424.17,843.97 430.254,834.934 436.338,826.022 442.422,817.229 448.506,808.556 454.59,800.001 460.674,791.561 
  466.757,783.235 472.841,775.022 478.925,766.92 485.009,758.928 491.093,751.044 497.177,743.267 503.261,735.595 509.345,728.027 515.428,720.562 521.512,713.197 
  527.596,705.932 533.68,698.766 539.764,691.696 545.848,684.723 551.932,677.843 558.015,671.057 564.099,664.363 570.183,657.759 576.267,651.245 582.351,644.819 
  588.435,638.479 594.519,632.226 600.603,626.057 606.686,619.972 612.77,613.969 618.854,608.047 624.938,602.206 631.022,596.444 637.106,590.759 643.19,585.152 
  649.273,579.621 655.357,574.164 661.441,568.782 667.525,563.472 673.609,558.234 679.693,553.067 685.777,547.97 691.861,542.942 697.944,537.982 704.028,533.09 
  710.112,528.263 716.196,523.502 722.28,518.805 728.364,514.172 734.448,509.601 740.531,505.093 746.615,500.645 752.699,496.258 758.783,491.929 764.867,487.66 
  770.951,483.448 777.035,479.293 783.119,475.195 789.202,471.152 795.286,467.164 801.37,463.229 807.454,459.348 813.538,455.52 819.622,451.744 825.706,448.018 
  831.789,444.343 837.873,440.718 843.957,437.142 850.041,433.615 856.125,430.135 862.209,426.702 868.293,423.316 874.376,419.975 880.46,416.68 886.544,413.43 
  892.628,410.223 898.712,407.06 904.796,403.939 910.88,400.861 916.964,397.825 923.047,394.829 929.131,391.874 935.215,388.959 941.299,386.084 947.383,383.247 
  953.467,380.449 959.551,377.688 965.634,374.965 971.718,372.279 977.802,369.629 983.886,367.015 989.97,364.436 996.054,361.893 1002.14,359.383 1008.22,356.908 
  1014.31,354.466 1020.39,352.058 1026.47,349.682 1032.56,347.338 1038.64,345.026 1044.72,342.746 1050.81,340.496 1056.89,338.277 1062.98,336.088 1069.06,333.928 
  1075.14,331.798 1081.23,329.696 1087.31,327.623 1093.4,325.579 1099.48,323.561 1105.56,321.571 1111.65,319.608 1117.73,317.672 1123.81,315.762 1129.9,313.878 
  1135.98,312.019 1142.07,310.185 1148.15,308.376 1154.23,306.591 1160.32,304.831 1166.4,303.095 1172.49,301.381 1178.57,299.691 1184.65,298.024 1190.74,296.379 
  1196.82,294.757 1202.91,293.156 1208.99,291.578 1215.07,290.02 1221.16,288.484 1227.24,286.968 1233.32,285.473 1239.41,283.998 1245.49,282.543 1251.58,281.108 
  1257.66,279.693 1263.74,278.296 1269.83,276.919 1275.91,275.56 1282,274.22 1288.08,272.898 1294.16,271.593 1300.25,270.307 1306.33,269.038 1312.41,267.786 
  1318.5,266.551 1324.58,265.333 1330.67,264.131 1336.75,262.946 1342.83,261.777 1348.92,260.623 1355,259.485 1361.09,258.363 1367.17,257.256 1373.25,256.164 
  1379.34,255.086 1385.42,254.023 1391.51,252.975 1397.59,251.941 1403.67,250.92 1409.76,249.914 1415.84,248.921 1421.92,247.941 1428.01,246.975 1434.09,246.022 
  1440.18,245.081 1446.26,244.153 1452.34,243.238 1458.43,242.335 1464.51,241.444 1470.6,240.566 1476.68,239.699 1482.76,238.843 1488.85,238 1494.93,237.167 
  1501.01,236.346 1507.1,235.537 1513.18,234.738 1519.27,233.95 1525.35,233.172 1531.43,232.405 1537.52,231.649 1543.6,230.903 1549.69,230.167 1555.77,229.441 
  1561.85,228.725 1567.94,228.018 1574.02,227.321 1580.1,226.634 1586.19,225.956 1592.27,225.287 1598.36,224.628 1604.44,223.977 1610.52,223.335 1616.61,222.702 
  1622.69,222.077 1628.78,221.461 1634.86,220.854 1640.94,220.254 1647.03,219.663 1653.11,219.08 1659.2,218.504 1665.28,217.937 1671.36,217.377 1677.45,216.825 
  1683.53,216.28 1689.61,215.742 1695.7,215.212 1701.78,214.689 1707.87,214.173 1713.95,213.664 1720.03,213.162 1726.12,212.667 1732.2,212.178 1738.29,211.696 
  1744.37,211.221 1750.45,210.752 1756.54,210.289 1762.62,209.832 1768.7,209.382 1774.79,208.937 1780.87,208.498 1786.96,208.066 1793.04,207.639 1799.12,207.218 
  1805.21,206.802 1811.29,206.392 1817.38,205.988 1823.46,205.589 1829.54,205.196 1835.63,204.808 1841.71,204.425 1847.8,204.047 1853.88,203.674 1859.96,203.307 
  1866.05,202.944 1872.13,202.586 1878.21,202.234 1884.3,201.886 1890.38,201.542 1896.47,201.204 1902.55,200.87 1908.63,200.541 1914.72,200.216 1920.8,199.895 
  1926.89,199.579 1932.97,199.267 1939.05,198.96 1945.14,198.656 1951.22,198.357 1957.3,198.062 1963.39,197.771 1969.47,197.484 1975.56,197.201 1981.64,196.921 
  1987.72,196.646 1993.81,196.374 1999.89,196.106 2005.98,195.842 2012.06,195.581 2018.14,195.324 2024.23,195.07 2030.31,194.82 2036.39,194.573 2042.48,194.329 
  2048.56,194.089 2054.65,193.852 2060.73,193.618 2066.81,193.388 2072.9,193.16 2078.98,192.936 2085.07,192.714 2091.15,192.496 2097.23,192.28 2103.32,192.068 
  2109.4,191.858 2115.49,191.651 2121.57,191.447 2127.65,191.245 2133.74,191.047 2139.82,190.851 2145.9,190.657 2151.99,190.466 2158.07,190.278 2164.16,190.092 
  2170.24,189.909 2176.32,189.728 2182.41,189.55 2188.49,189.374 2194.58,189.2 2200.66,189.029 2206.74,188.86 2212.83,188.693 2218.91,188.529 2224.99,188.367 
  2231.08,188.207 2237.16,188.049 2243.25,187.894 2249.33,187.74 2255.41,187.589 2261.5,187.439 2267.58,187.292 2273.67,187.147 2279.75,187.003 2285.83,186.862 
  2291.92,186.722 2298,186.585 2304.08,186.449 2310.17,186.315 2316.25,186.183 2322.34,186.052 2328.42,185.924 2334.5,185.797 2340.59,185.672 2346.67,185.548 
  2352.76,185.427 
  "/>
<polyline clip-path="url(#clip742)" style="stroke:#009af9; stroke-linecap:butt; stroke-linejoin:round; stroke-width:8; stroke-opacity:1; fill:none" stroke-dasharray="32, 20" points="
  223.403,1041.24 229.487,1041.09 235.571,1040.86 241.654,1040.49 247.738,1039.91 253.822,1038.99 259.906,1037.54 265.99,1035.28 272.074,1031.79 278.158,1026.49 
  284.242,1018.62 290.325,1007.37 296.409,992.069 302.493,972.654 308.577,950.074 314.661,926.306 320.745,903.801 326.829,884.497 332.912,869.321 338.996,858.183 
  345.08,850.354 351.164,845.118 357.248,841.752 363.332,839.51 369.416,838.082 375.499,837.166 381.583,836.581 387.667,836.229 393.751,836.002 399.835,835.853 
  405.919,835.763 412.003,835.706 418.087,835.667 424.17,835.643 430.254,835.631 436.338,835.624 442.422,835.617 448.506,835.612 454.59,835.609 460.674,835.609 
  466.757,835.609 472.841,835.607 478.925,835.606 485.009,835.605 491.093,835.606 497.177,835.606 503.261,835.607 509.345,835.607 515.428,835.606 521.512,835.604 
  527.596,835.603 533.68,835.604 539.764,835.605 545.848,835.607 551.932,835.608 558.015,835.609 564.099,835.605 570.183,835.6 576.267,835.595 582.351,835.593 
  588.435,835.595 594.519,835.6 600.603,835.608 606.686,835.615 612.77,835.62 618.854,835.616 624.938,835.595 631.022,835.57 637.106,835.553 643.19,835.55 
  649.273,835.565 655.357,835.594 661.441,835.63 667.525,835.658 673.609,835.662 679.693,835.619 685.777,835.551 691.861,835.498 697.944,835.486 704.028,835.522 
  710.112,835.595 716.196,835.68 722.28,835.733 728.364,835.697 734.448,835.6 740.531,835.513 746.615,835.481 752.699,835.517 758.783,835.608 764.867,835.709 
  770.951,835.749 777.035,835.677 783.119,835.587 789.202,835.531 795.286,835.534 801.37,835.59 807.454,835.669 813.538,835.713 819.622,835.668 825.706,835.604 
  831.789,835.562 837.873,835.559 843.957,835.595 850.041,835.647 856.125,835.677 862.209,835.647 868.293,835.602 874.376,835.572 880.46,835.569 886.544,835.593 
  892.628,835.632 898.712,835.658 904.796,835.64 910.88,835.604 916.964,835.576 923.047,835.569 929.131,835.586 935.215,835.618 941.299,835.647 947.383,835.645 
  953.467,835.613 959.551,835.581 965.634,835.566 971.718,835.573 977.802,835.6 983.886,835.635 989.97,835.653 996.054,835.643 1002.14,835.633 1008.22,835.624 
  1014.31,835.616 1020.39,835.609 1026.47,835.603 1032.56,835.598 1038.64,835.594 1044.72,835.591 1050.81,835.589 1056.89,835.588 1062.98,835.588 1069.06,835.589 
  1075.14,835.591 1081.23,835.594 1087.31,835.598 1093.4,835.599 1099.48,835.601 1105.56,835.603 1111.65,835.604 1117.73,835.605 1123.81,835.606 1129.9,835.607 
  1135.98,835.608 1142.07,835.609 1148.15,835.61 1154.23,835.61 1160.32,835.61 1166.4,835.61 1172.49,835.611 1178.57,835.61 1184.65,835.61 1190.74,835.61 
  1196.82,835.609 1202.91,835.609 1208.99,835.608 1215.07,835.608 1221.16,835.607 1227.24,835.607 1233.32,835.607 1239.41,835.607 1245.49,835.607 1251.58,835.606 
  1257.66,835.606 1263.74,835.606 1269.83,835.606 1275.91,835.606 1282,835.606 1288.08,835.605 1294.16,835.605 1300.25,835.605 1306.33,835.605 1312.41,835.605 
  1318.5,835.605 1324.58,835.605 1330.67,835.605 1336.75,835.605 1342.83,835.605 1348.92,835.605 1355,835.605 1361.09,835.605 1367.17,835.605 1373.25,835.605 
  1379.34,835.605 1385.42,835.605 1391.51,835.605 1397.59,835.605 1403.67,835.605 1409.76,835.605 1415.84,835.605 1421.92,835.605 1428.01,835.605 1434.09,835.605 
  1440.18,835.605 1446.26,835.605 1452.34,835.606 1458.43,835.606 1464.51,835.606 1470.6,835.606 1476.68,835.606 1482.76,835.606 1488.85,835.606 1494.93,835.606 
  1501.01,835.606 1507.1,835.606 1513.18,835.606 1519.27,835.606 1525.35,835.606 1531.43,835.606 1537.52,835.606 1543.6,835.606 1549.69,835.606 1555.77,835.606 
  1561.85,835.606 1567.94,835.606 1574.02,835.606 1580.1,835.606 1586.19,835.606 1592.27,835.606 1598.36,835.606 1604.44,835.606 1610.52,835.606 1616.61,835.606 
  1622.69,835.606 1628.78,835.606 1634.86,835.606 1640.94,835.606 1647.03,835.606 1653.11,835.606 1659.2,835.606 1665.28,835.606 1671.36,835.606 1677.45,835.606 
  1683.53,835.606 1689.61,835.606 1695.7,835.606 1701.78,835.606 1707.87,835.606 1713.95,835.606 1720.03,835.606 1726.12,835.606 1732.2,835.606 1738.29,835.606 
  1744.37,835.606 1750.45,835.606 1756.54,835.606 1762.62,835.606 1768.7,835.606 1774.79,835.606 1780.87,835.606 1786.96,835.606 1793.04,835.606 1799.12,835.606 
  1805.21,835.606 1811.29,835.606 1817.38,835.606 1823.46,835.606 1829.54,835.606 1835.63,835.606 1841.71,835.606 1847.8,835.606 1853.88,835.606 1859.96,835.606 
  1866.05,835.606 1872.13,835.606 1878.21,835.606 1884.3,835.606 1890.38,835.606 1896.47,835.606 1902.55,835.606 1908.63,835.606 1914.72,835.606 1920.8,835.606 
  1926.89,835.606 1932.97,835.606 1939.05,835.606 1945.14,835.606 1951.22,835.606 1957.3,835.606 1963.39,835.606 1969.47,835.606 1975.56,835.606 1981.64,835.606 
  1987.72,835.606 1993.81,835.606 1999.89,835.606 2005.98,835.606 2012.06,835.606 2018.14,835.606 2024.23,835.606 2030.31,835.606 2036.39,835.606 2042.48,835.606 
  2048.56,835.606 2054.65,835.606 2060.73,835.606 2066.81,835.606 2072.9,835.606 2078.98,835.606 2085.07,835.606 2091.15,835.606 2097.23,835.606 2103.32,835.606 
  2109.4,835.606 2115.49,835.606 2121.57,835.606 2127.65,835.606 2133.74,835.606 2139.82,835.606 2145.9,835.606 2151.99,835.606 2158.07,835.606 2164.16,835.606 
  2170.24,835.606 2176.32,835.606 2182.41,835.606 2188.49,835.606 2194.58,835.606 2200.66,835.606 2206.74,835.606 2212.83,835.606 2218.91,835.606 2224.99,835.606 
  2231.08,835.606 2237.16,835.606 2243.25,835.606 2249.33,835.606 2255.41,835.606 2261.5,835.606 2267.58,835.606 2273.67,835.606 2279.75,835.606 2285.83,835.606 
  2291.92,835.606 2298,835.606 2304.08,835.606 2310.17,835.606 2316.25,835.606 2322.34,835.606 2328.42,835.606 2334.5,835.606 2340.59,835.606 2346.67,835.606 
  2352.76,835.606 
  "/>
<polyline clip-path="url(#clip742)" style="stroke:#e26f46; stroke-linecap:butt; stroke-linejoin:round; stroke-width:8; stroke-opacity:1; fill:none" stroke-dasharray="32, 20" points="
  223.403,1041.24 229.487,1041.16 235.571,1041.05 241.654,1040.92 247.738,1040.74 253.822,1040.5 259.906,1040.19 265.99,1039.79 272.074,1039.26 278.158,1038.56 
  284.242,1037.66 290.325,1036.49 296.409,1034.99 302.493,1033.06 308.577,1030.61 314.661,1027.54 320.745,1023.73 326.829,1019.1 332.912,1013.57 338.996,1007.14 
  345.08,999.856 351.164,991.877 357.248,983.442 363.332,974.844 369.416,966.406 375.499,958.432 381.583,951.15 387.667,944.709 393.751,939.176 399.835,934.539 
  405.919,930.727 412.003,927.654 418.087,925.214 424.17,923.282 430.254,921.768 436.338,920.601 442.422,919.709 448.506,919.019 454.59,918.484 460.674,918.076 
  466.757,917.769 472.841,917.536 478.925,917.354 485.009,917.214 491.093,917.11 497.177,917.034 503.261,916.976 509.345,916.93 515.428,916.894 521.512,916.867 
  527.596,916.847 533.68,916.833 539.764,916.822 545.848,916.813 551.932,916.806 558.015,916.8 564.099,916.796 570.183,916.793 576.267,916.792 582.351,916.791 
  588.435,916.79 594.519,916.788 600.603,916.787 606.686,916.786 612.77,916.786 618.854,916.785 624.938,916.785 631.022,916.786 637.106,916.786 643.19,916.786 
  649.273,916.785 655.357,916.785 661.441,916.785 667.525,916.784 673.609,916.784 679.693,916.784 685.777,916.784 691.861,916.784 697.944,916.785 704.028,916.785 
  710.112,916.785 716.196,916.785 722.28,916.785 728.364,916.784 734.448,916.784 740.531,916.783 746.615,916.782 752.699,916.782 758.783,916.782 764.867,916.782 
  770.951,916.783 777.035,916.784 783.119,916.785 789.202,916.786 795.286,916.787 801.37,916.787 807.454,916.787 813.538,916.786 819.622,916.784 825.706,916.78 
  831.789,916.777 837.873,916.773 843.957,916.771 850.041,916.77 856.125,916.771 862.209,916.773 868.293,916.776 874.376,916.78 880.46,916.785 886.544,916.791 
  892.628,916.795 898.712,916.799 904.796,916.8 910.88,916.797 916.964,916.789 923.047,916.775 929.131,916.761 935.215,916.748 941.299,916.739 947.383,916.735 
  953.467,916.736 959.551,916.744 965.634,916.756 971.718,916.773 977.802,916.793 983.886,916.812 989.97,916.828 996.054,916.836 1002.14,916.834 1008.22,916.815 
  1014.31,916.787 1020.39,916.755 1026.47,916.728 1032.56,916.71 1038.64,916.704 1044.72,916.71 1050.81,916.729 1056.89,916.758 1062.98,916.793 1069.06,916.829 
  1075.14,916.859 1081.23,916.872 1087.31,916.86 1093.4,916.828 1099.48,916.79 1105.56,916.756 1111.65,916.73 1117.73,916.718 1123.81,916.721 1129.9,916.739 
  1135.98,916.768 1142.07,916.804 1148.15,916.838 1154.23,916.862 1160.32,916.863 1166.4,916.839 1172.49,916.809 1178.57,916.78 1184.65,916.758 1190.74,916.746 
  1196.82,916.745 1202.91,916.756 1208.99,916.776 1215.07,916.8 1221.16,916.824 1227.24,916.839 1233.32,916.836 1239.41,916.818 1245.49,916.797 1251.58,916.779 
  1257.66,916.765 1263.74,916.758 1269.83,916.759 1275.91,916.768 1282,916.782 1288.08,916.799 1294.16,916.814 1300.25,916.822 1306.33,916.817 1312.41,916.804 
  1318.5,916.789 1324.58,916.776 1330.67,916.766 1336.75,916.762 1342.83,916.763 1348.92,916.77 1355,916.782 1361.09,916.795 1367.17,916.807 1373.25,916.814 
  1379.34,916.811 1385.42,916.8 1391.51,916.788 1397.59,916.776 1403.67,916.767 1409.76,916.762 1415.84,916.762 1421.92,916.768 1428.01,916.777 1434.09,916.789 
  1440.18,916.801 1446.26,916.81 1452.34,916.812 1458.43,916.808 1464.51,916.804 1470.6,916.801 1476.68,916.798 1482.76,916.795 1488.85,916.792 1494.93,916.789 
  1501.01,916.787 1507.1,916.785 1513.18,916.783 1519.27,916.781 1525.35,916.779 1531.43,916.778 1537.52,916.777 1543.6,916.776 1549.69,916.775 1555.77,916.775 
  1561.85,916.774 1567.94,916.774 1574.02,916.775 1580.1,916.775 1586.19,916.775 1592.27,916.776 1598.36,916.777 1604.44,916.778 1610.52,916.78 1616.61,916.78 
  1622.69,916.781 1628.78,916.781 1634.86,916.782 1640.94,916.782 1647.03,916.783 1653.11,916.783 1659.2,916.784 1665.28,916.784 1671.36,916.785 1677.45,916.785 
  1683.53,916.785 1689.61,916.786 1695.7,916.786 1701.78,916.786 1707.87,916.787 1713.95,916.787 1720.03,916.787 1726.12,916.787 1732.2,916.787 1738.29,916.787 
  1744.37,916.787 1750.45,916.787 1756.54,916.787 1762.62,916.787 1768.7,916.787 1774.79,916.787 1780.87,916.787 1786.96,916.787 1793.04,916.787 1799.12,916.787 
  1805.21,916.786 1811.29,916.786 1817.38,916.786 1823.46,916.786 1829.54,916.786 1835.63,916.786 1841.71,916.785 1847.8,916.785 1853.88,916.785 1859.96,916.785 
  1866.05,916.785 1872.13,916.785 1878.21,916.785 1884.3,916.785 1890.38,916.785 1896.47,916.785 1902.55,916.785 1908.63,916.785 1914.72,916.785 1920.8,916.785 
  1926.89,916.785 1932.97,916.785 1939.05,916.784 1945.14,916.784 1951.22,916.784 1957.3,916.784 1963.39,916.784 1969.47,916.784 1975.56,916.784 1981.64,916.784 
  1987.72,916.784 1993.81,916.784 1999.89,916.784 2005.98,916.784 2012.06,916.784 2018.14,916.784 2024.23,916.784 2030.31,916.784 2036.39,916.784 2042.48,916.784 
  2048.56,916.784 2054.65,916.784 2060.73,916.784 2066.81,916.784 2072.9,916.784 2078.98,916.784 2085.07,916.784 2091.15,916.784 2097.23,916.784 2103.32,916.784 
  2109.4,916.784 2115.49,916.784 2121.57,916.784 2127.65,916.784 2133.74,916.784 2139.82,916.784 2145.9,916.784 2151.99,916.784 2158.07,916.784 2164.16,916.784 
  2170.24,916.784 2176.32,916.784 2182.41,916.784 2188.49,916.784 2194.58,916.784 2200.66,916.784 2206.74,916.784 2212.83,916.784 2218.91,916.784 2224.99,916.784 
  2231.08,916.784 2237.16,916.784 2243.25,916.785 2249.33,916.785 2255.41,916.785 2261.5,916.785 2267.58,916.785 2273.67,916.785 2279.75,916.785 2285.83,916.785 
  2291.92,916.785 2298,916.785 2304.08,916.785 2310.17,916.785 2316.25,916.785 2322.34,916.785 2328.42,916.785 2334.5,916.785 2340.59,916.785 2346.67,916.785 
  2352.76,916.785 
  "/>
<polyline clip-path="url(#clip742)" style="stroke:#3da44d; stroke-linecap:butt; stroke-linejoin:round; stroke-width:8; stroke-opacity:1; fill:none" stroke-dasharray="32, 20" points="
  223.403,1041.24 229.487,1041.16 235.571,1041.07 241.654,1040.94 247.738,1040.78 253.822,1040.57 259.906,1040.29 265.99,1039.94 272.074,1039.48 278.158,1038.89 
  284.242,1038.12 290.325,1037.13 296.409,1035.85 302.493,1034.2 308.577,1032.1 314.661,1029.42 320.745,1026.01 326.829,1021.71 332.912,1016.34 338.996,1009.69 
  345.08,1001.57 351.164,991.797 357.248,980.264 363.332,966.946 369.416,951.96 375.499,935.567 381.583,918.196 387.667,900.394 393.751,882.739 399.835,865.829 
  405.919,850.145 412.003,836.016 418.087,823.628 424.17,813.034 430.254,804.145 436.338,796.809 442.422,790.862 448.506,786.105 454.59,782.307 460.674,779.286 
  466.757,776.92 472.841,775.085 478.925,773.659 485.009,772.535 491.093,771.659 497.177,770.989 503.261,770.478 509.345,770.083 515.428,769.769 521.512,769.525 
  527.596,769.34 533.68,769.202 539.764,769.098 545.848,769.014 551.932,768.946 558.015,768.893 564.099,768.854 570.183,768.826 576.267,768.806 582.351,768.79 
  588.435,768.775 594.519,768.763 600.603,768.754 606.686,768.747 612.77,768.743 618.854,768.74 624.938,768.739 631.022,768.737 637.106,768.735 643.19,768.733 
  649.273,768.731 655.357,768.729 661.441,768.728 667.525,768.728 673.609,768.729 679.693,768.729 685.777,768.73 691.861,768.73 697.944,768.729 704.028,768.728 
  710.112,768.728 716.196,768.727 722.28,768.726 728.364,768.726 734.448,768.726 740.531,768.726 746.615,768.727 752.699,768.728 758.783,768.729 764.867,768.729 
  770.951,768.73 777.035,768.729 783.119,768.728 789.202,768.726 795.286,768.724 801.37,768.722 807.454,768.721 813.538,768.72 819.622,768.72 825.706,768.721 
  831.789,768.723 837.873,768.725 843.957,768.727 850.041,768.73 856.125,768.733 862.209,768.734 868.293,768.735 874.376,768.735 880.46,768.73 886.544,768.723 
  892.628,768.713 898.712,768.704 904.796,768.696 910.88,768.691 916.964,768.689 923.047,768.69 929.131,768.695 935.215,768.703 941.299,768.714 947.383,768.727 
  953.467,768.74 959.551,768.753 965.634,768.763 971.718,768.768 977.802,768.766 983.886,768.752 989.97,768.725 996.054,768.691 1002.14,768.657 1008.22,768.629 
  1014.31,768.611 1020.39,768.605 1026.47,768.613 1032.56,768.633 1038.64,768.665 1044.72,768.707 1050.81,768.752 1056.89,768.797 1062.98,768.834 1069.06,768.854 
  1075.14,768.848 1081.23,768.809 1087.31,768.747 1093.4,768.678 1099.48,768.617 1105.56,768.572 1111.65,768.551 1117.73,768.556 1123.81,768.587 1129.9,768.642 
  1135.98,768.713 1142.07,768.791 1148.15,768.863 1154.23,768.912 1160.32,768.919 1166.4,768.871 1172.49,768.798 1178.57,768.721 1184.65,768.655 1190.74,768.609 
  1196.82,768.59 1202.91,768.6 1208.99,768.638 1215.07,768.697 1221.16,768.768 1227.24,768.837 1233.32,768.887 1239.41,768.895 1245.49,768.852 1251.58,768.793 
  1257.66,768.735 1263.74,768.686 1269.83,768.655 1275.91,768.645 1282,768.656 1288.08,768.686 1294.16,768.73 1300.25,768.779 1306.33,768.822 1312.41,768.843 
  1318.5,768.826 1324.58,768.789 1330.67,768.748 1336.75,768.712 1342.83,768.685 1348.92,768.672 1355,768.673 1361.09,768.688 1367.17,768.714 1373.25,768.747 
  1379.34,768.779 1385.42,768.802 1391.51,768.804 1397.59,768.782 1403.67,768.753 1409.76,768.723 1415.84,768.699 1421.92,768.683 1428.01,768.678 1434.09,768.683 
  1440.18,768.699 1446.26,768.722 1452.34,768.749 1458.43,768.774 1464.51,768.789 1470.6,768.787 1476.68,768.767 1482.76,768.741 1488.85,768.715 1494.93,768.694 
  1501.01,768.681 1507.1,768.677 1513.18,768.682 1519.27,768.697 1525.35,768.719 1531.43,768.744 1537.52,768.768 1543.6,768.785 1549.69,768.787 1555.77,768.778 
  1561.85,768.771 1567.94,768.763 1574.02,768.757 1580.1,768.75 1586.19,768.745 1592.27,768.739 1598.36,768.734 1604.44,768.729 1610.52,768.725 1616.61,768.721 
  1622.69,768.718 1628.78,768.715 1634.86,768.712 1640.94,768.71 1647.03,768.708 1653.11,768.707 1659.2,768.706 1665.28,768.705 1671.36,768.705 1677.45,768.705 
  1683.53,768.706 1689.61,768.707 1695.7,768.709 1701.78,768.71 1707.87,768.713 1713.95,768.715 1720.03,768.717 1726.12,768.719 1732.2,768.72 1738.29,768.721 
  1744.37,768.722 1750.45,768.723 1756.54,768.724 1762.62,768.725 1768.7,768.726 1774.79,768.727 1780.87,768.728 1786.96,768.729 1793.04,768.729 1799.12,768.73 
  1805.21,768.731 1811.29,768.731 1817.38,768.732 1823.46,768.732 1829.54,768.732 1835.63,768.733 1841.71,768.733 1847.8,768.733 1853.88,768.733 1859.96,768.733 
  1866.05,768.733 1872.13,768.733 1878.21,768.733 1884.3,768.733 1890.38,768.733 1896.47,768.733 1902.55,768.733 1908.63,768.732 1914.72,768.732 1920.8,768.731 
  1926.89,768.731 1932.97,768.73 1939.05,768.73 1945.14,768.73 1951.22,768.73 1957.3,768.729 1963.39,768.729 1969.47,768.729 1975.56,768.729 1981.64,768.729 
  1987.72,768.729 1993.81,768.728 1999.89,768.728 2005.98,768.728 2012.06,768.728 2018.14,768.728 2024.23,768.728 2030.31,768.728 2036.39,768.728 2042.48,768.727 
  2048.56,768.727 2054.65,768.727 2060.73,768.727 2066.81,768.727 2072.9,768.727 2078.98,768.727 2085.07,768.727 2091.15,768.727 2097.23,768.727 2103.32,768.727 
  2109.4,768.726 2115.49,768.726 2121.57,768.726 2127.65,768.726 2133.74,768.726 2139.82,768.726 2145.9,768.726 2151.99,768.726 2158.07,768.726 2164.16,768.726 
  2170.24,768.726 2176.32,768.726 2182.41,768.726 2188.49,768.726 2194.58,768.726 2200.66,768.726 2206.74,768.726 2212.83,768.726 2218.91,768.726 2224.99,768.726 
  2231.08,768.726 2237.16,768.726 2243.25,768.726 2249.33,768.726 2255.41,768.726 2261.5,768.726 2267.58,768.726 2273.67,768.726 2279.75,768.726 2285.83,768.726 
  2291.92,768.726 2298,768.727 2304.08,768.727 2310.17,768.727 2316.25,768.727 2322.34,768.727 2328.42,768.727 2334.5,768.727 2340.59,768.727 2346.67,768.727 
  2352.76,768.727 
  "/>
</svg>
