<?xml version="1.0" encoding="utf-8"?>
<svg xmlns="http://www.w3.org/2000/svg" xmlns:xlink="http://www.w3.org/1999/xlink" width="600" height="400" viewBox="0 0 2400 1600">
<defs>
  <clipPath id="clip010">
    <rect x="0" y="0" width="2400" height="1600"/>
  </clipPath>
</defs>
<path clip-path="url(#clip010)" d="
M0 1600 L2400 1600 L2400 0 L0 0  Z
  " fill="#ffffff" fill-rule="evenodd" fill-opacity="1"/>
<defs>
  <clipPath id="clip011">
    <rect x="480" y="0" width="1681" height="1600"/>
  </clipPath>
</defs>
<path clip-path="url(#clip010)" d="
M234.125 1423.18 L2352.76 1423.18 L2352.76 47.2441 L234.125 47.2441  Z
  " fill="#ffffff" fill-rule="evenodd" fill-opacity="1"/>
<defs>
  <clipPath id="clip012">
    <rect x="234" y="47" width="2120" height="1377"/>
  </clipPath>
</defs>
<polyline clip-path="url(#clip012)" style="stroke:#000000; stroke-linecap:butt; stroke-linejoin:round; stroke-width:2; stroke-opacity:0.1; fill:none" points="
  234.125,1423.18 234.125,47.2441 
  "/>
<polyline clip-path="url(#clip012)" style="stroke:#000000; stroke-linecap:butt; stroke-linejoin:round; stroke-width:2; stroke-opacity:0.1; fill:none" points="
  657.852,1423.18 657.852,47.2441 
  "/>
<polyline clip-path="url(#clip012)" style="stroke:#000000; stroke-linecap:butt; stroke-linejoin:round; stroke-width:2; stroke-opacity:0.1; fill:none" points="
  1081.58,1423.18 1081.58,47.2441 
  "/>
<polyline clip-path="url(#clip012)" style="stroke:#000000; stroke-linecap:butt; stroke-linejoin:round; stroke-width:2; stroke-opacity:0.1; fill:none" points="
  1505.3,1423.18 1505.3,47.2441 
  "/>
<polyline clip-path="url(#clip012)" style="stroke:#000000; stroke-linecap:butt; stroke-linejoin:round; stroke-width:2; stroke-opacity:0.1; fill:none" points="
  1929.03,1423.18 1929.03,47.2441 
  "/>
<polyline clip-path="url(#clip012)" style="stroke:#000000; stroke-linecap:butt; stroke-linejoin:round; stroke-width:2; stroke-opacity:0.1; fill:none" points="
  2352.76,1423.18 2352.76,47.2441 
  "/>
<polyline clip-path="url(#clip010)" style="stroke:#000000; stroke-linecap:butt; stroke-linejoin:round; stroke-width:4; stroke-opacity:1; fill:none" points="
  234.125,1423.18 2352.76,1423.18 
  "/>
<polyline clip-path="url(#clip010)" style="stroke:#000000; stroke-linecap:butt; stroke-linejoin:round; stroke-width:4; stroke-opacity:1; fill:none" points="
  234.125,1423.18 234.125,1404.28 
  "/>
<polyline clip-path="url(#clip010)" style="stroke:#000000; stroke-linecap:butt; stroke-linejoin:round; stroke-width:4; stroke-opacity:1; fill:none" points="
  657.852,1423.18 657.852,1404.28 
  "/>
<polyline clip-path="url(#clip010)" style="stroke:#000000; stroke-linecap:butt; stroke-linejoin:round; stroke-width:4; stroke-opacity:1; fill:none" points="
  1081.58,1423.18 1081.58,1404.28 
  "/>
<polyline clip-path="url(#clip010)" style="stroke:#000000; stroke-linecap:butt; stroke-linejoin:round; stroke-width:4; stroke-opacity:1; fill:none" points="
  1505.3,1423.18 1505.3,1404.28 
  "/>
<polyline clip-path="url(#clip010)" style="stroke:#000000; stroke-linecap:butt; stroke-linejoin:round; stroke-width:4; stroke-opacity:1; fill:none" points="
  1929.03,1423.18 1929.03,1404.28 
  "/>
<polyline clip-path="url(#clip010)" style="stroke:#000000; stroke-linecap:butt; stroke-linejoin:round; stroke-width:4; stroke-opacity:1; fill:none" points="
  2352.76,1423.18 2352.76,1404.28 
  "/>
<path clip-path="url(#clip010)" d="M234.125 1454.1 Q230.514 1454.1 228.686 1457.66 Q226.88 1461.2 226.88 1468.33 Q226.88 1475.44 228.686 1479.01 Q230.514 1482.55 234.125 1482.55 Q237.76 1482.55 239.565 1479.01 Q241.394 1475.44 241.394 1468.33 Q241.394 1461.2 239.565 1457.66 Q237.76 1454.1 234.125 1454.1 M234.125 1450.39 Q239.936 1450.39 242.991 1455 Q246.07 1459.58 246.07 1468.33 Q246.07 1477.06 242.991 1481.67 Q239.936 1486.25 234.125 1486.25 Q228.315 1486.25 225.237 1481.67 Q222.181 1477.06 222.181 1468.33 Q222.181 1459.58 225.237 1455 Q228.315 1450.39 234.125 1450.39 Z" fill="#000000" fill-rule="evenodd" fill-opacity="1" /><path clip-path="url(#clip010)" d="M632.539 1481.64 L640.178 1481.64 L640.178 1455.28 L631.868 1456.95 L631.868 1452.69 L640.132 1451.02 L644.808 1451.02 L644.808 1481.64 L652.446 1481.64 L652.446 1485.58 L632.539 1485.58 L632.539 1481.64 Z" fill="#000000" fill-rule="evenodd" fill-opacity="1" /><path clip-path="url(#clip010)" d="M671.891 1454.1 Q668.28 1454.1 666.451 1457.66 Q664.645 1461.2 664.645 1468.33 Q664.645 1475.44 666.451 1479.01 Q668.28 1482.55 671.891 1482.55 Q675.525 1482.55 677.331 1479.01 Q679.159 1475.44 679.159 1468.33 Q679.159 1461.2 677.331 1457.66 Q675.525 1454.1 671.891 1454.1 M671.891 1450.39 Q677.701 1450.39 680.757 1455 Q683.835 1459.58 683.835 1468.33 Q683.835 1477.06 680.757 1481.67 Q677.701 1486.25 671.891 1486.25 Q666.081 1486.25 663.002 1481.67 Q659.946 1477.06 659.946 1468.33 Q659.946 1459.58 663.002 1455 Q666.081 1450.39 671.891 1450.39 Z" fill="#000000" fill-rule="evenodd" fill-opacity="1" /><path clip-path="url(#clip010)" d="M1060.35 1481.64 L1076.67 1481.64 L1076.67 1485.58 L1054.73 1485.58 L1054.73 1481.64 Q1057.39 1478.89 1061.97 1474.26 Q1066.58 1469.61 1067.76 1468.27 Q1070 1465.74 1070.88 1464.01 Q1071.79 1462.25 1071.79 1460.56 Q1071.79 1457.8 1069.84 1456.07 Q1067.92 1454.33 1064.82 1454.33 Q1062.62 1454.33 1060.17 1455.09 Q1057.74 1455.86 1054.96 1457.41 L1054.96 1452.69 Q1057.78 1451.55 1060.24 1450.97 Q1062.69 1450.39 1064.73 1450.39 Q1070.1 1450.39 1073.29 1453.08 Q1076.49 1455.77 1076.49 1460.26 Q1076.49 1462.39 1075.67 1464.31 Q1074.89 1466.2 1072.78 1468.8 Q1072.2 1469.47 1069.1 1472.69 Q1066 1475.88 1060.35 1481.64 Z" fill="#000000" fill-rule="evenodd" fill-opacity="1" /><path clip-path="url(#clip010)" d="M1096.48 1454.1 Q1092.87 1454.1 1091.05 1457.66 Q1089.24 1461.2 1089.24 1468.33 Q1089.24 1475.44 1091.05 1479.01 Q1092.87 1482.55 1096.48 1482.55 Q1100.12 1482.55 1101.92 1479.01 Q1103.75 1475.44 1103.75 1468.33 Q1103.75 1461.2 1101.92 1457.66 Q1100.12 1454.1 1096.48 1454.1 M1096.48 1450.39 Q1102.3 1450.39 1105.35 1455 Q1108.43 1459.58 1108.43 1468.33 Q1108.43 1477.06 1105.35 1481.67 Q1102.3 1486.25 1096.48 1486.25 Q1090.67 1486.25 1087.6 1481.67 Q1084.54 1477.06 1084.54 1468.33 Q1084.54 1459.58 1087.6 1455 Q1090.67 1450.39 1096.48 1450.39 Z" fill="#000000" fill-rule="evenodd" fill-opacity="1" /><path clip-path="url(#clip010)" d="M1494.15 1466.95 Q1497.5 1467.66 1499.38 1469.93 Q1501.28 1472.2 1501.28 1475.53 Q1501.28 1480.65 1497.76 1483.45 Q1494.24 1486.25 1487.76 1486.25 Q1485.58 1486.25 1483.27 1485.81 Q1480.98 1485.39 1478.52 1484.54 L1478.52 1480.02 Q1480.47 1481.16 1482.78 1481.74 Q1485.1 1482.32 1487.62 1482.32 Q1492.02 1482.32 1494.31 1480.58 Q1496.62 1478.84 1496.62 1475.53 Q1496.62 1472.48 1494.47 1470.77 Q1492.34 1469.03 1488.52 1469.03 L1484.49 1469.03 L1484.49 1465.19 L1488.71 1465.19 Q1492.16 1465.19 1493.98 1463.82 Q1495.81 1462.43 1495.81 1459.84 Q1495.81 1457.18 1493.91 1455.77 Q1492.04 1454.33 1488.52 1454.33 Q1486.6 1454.33 1484.4 1454.75 Q1482.2 1455.16 1479.56 1456.04 L1479.56 1451.88 Q1482.23 1451.14 1484.54 1450.77 Q1486.88 1450.39 1488.94 1450.39 Q1494.26 1450.39 1497.36 1452.83 Q1500.47 1455.23 1500.47 1459.35 Q1500.47 1462.22 1498.82 1464.21 Q1497.18 1466.18 1494.15 1466.95 Z" fill="#000000" fill-rule="evenodd" fill-opacity="1" /><path clip-path="url(#clip010)" d="M1520.14 1454.1 Q1516.53 1454.1 1514.7 1457.66 Q1512.9 1461.2 1512.9 1468.33 Q1512.9 1475.44 1514.7 1479.01 Q1516.53 1482.55 1520.14 1482.55 Q1523.78 1482.55 1525.58 1479.01 Q1527.41 1475.44 1527.41 1468.33 Q1527.41 1461.2 1525.58 1457.66 Q1523.78 1454.1 1520.14 1454.1 M1520.14 1450.39 Q1525.95 1450.39 1529.01 1455 Q1532.09 1459.58 1532.09 1468.33 Q1532.09 1477.06 1529.01 1481.67 Q1525.95 1486.25 1520.14 1486.25 Q1514.33 1486.25 1511.25 1481.67 Q1508.2 1477.06 1508.2 1468.33 Q1508.2 1459.58 1511.25 1455 Q1514.33 1450.39 1520.14 1450.39 Z" fill="#000000" fill-rule="evenodd" fill-opacity="1" /><path clip-path="url(#clip010)" d="M1917.2 1455.09 L1905.4 1473.54 L1917.2 1473.54 L1917.2 1455.09 M1915.97 1451.02 L1921.85 1451.02 L1921.85 1473.54 L1926.78 1473.54 L1926.78 1477.43 L1921.85 1477.43 L1921.85 1485.58 L1917.2 1485.58 L1917.2 1477.43 L1901.6 1477.43 L1901.6 1472.92 L1915.97 1451.02 Z" fill="#000000" fill-rule="evenodd" fill-opacity="1" /><path clip-path="url(#clip010)" d="M1944.52 1454.1 Q1940.9 1454.1 1939.08 1457.66 Q1937.27 1461.2 1937.27 1468.33 Q1937.27 1475.44 1939.08 1479.01 Q1940.9 1482.55 1944.52 1482.55 Q1948.15 1482.55 1949.96 1479.01 Q1951.78 1475.44 1951.78 1468.33 Q1951.78 1461.2 1949.96 1457.66 Q1948.15 1454.1 1944.52 1454.1 M1944.52 1450.39 Q1950.33 1450.39 1953.38 1455 Q1956.46 1459.58 1956.46 1468.33 Q1956.46 1477.06 1953.38 1481.67 Q1950.33 1486.25 1944.52 1486.25 Q1938.71 1486.25 1935.63 1481.67 Q1932.57 1477.06 1932.57 1468.33 Q1932.57 1459.58 1935.63 1455 Q1938.71 1450.39 1944.52 1450.39 Z" fill="#000000" fill-rule="evenodd" fill-opacity="1" /><path clip-path="url(#clip010)" d="M2327.46 1451.02 L2345.81 1451.02 L2345.81 1454.96 L2331.74 1454.96 L2331.74 1463.43 Q2332.76 1463.08 2333.77 1462.92 Q2334.79 1462.73 2335.81 1462.73 Q2341.6 1462.73 2344.98 1465.9 Q2348.36 1469.08 2348.36 1474.49 Q2348.36 1480.07 2344.89 1483.17 Q2341.41 1486.25 2335.09 1486.25 Q2332.92 1486.25 2330.65 1485.88 Q2328.4 1485.51 2326 1484.77 L2326 1480.07 Q2328.08 1481.2 2330.3 1481.76 Q2332.52 1482.32 2335 1482.32 Q2339.01 1482.32 2341.34 1480.21 Q2343.68 1478.1 2343.68 1474.49 Q2343.68 1470.88 2341.34 1468.77 Q2339.01 1466.67 2335 1466.67 Q2333.13 1466.67 2331.25 1467.08 Q2329.4 1467.5 2327.46 1468.38 L2327.46 1451.02 Z" fill="#000000" fill-rule="evenodd" fill-opacity="1" /><path clip-path="url(#clip010)" d="M2367.57 1454.1 Q2363.96 1454.1 2362.13 1457.66 Q2360.33 1461.2 2360.33 1468.33 Q2360.33 1475.44 2362.13 1479.01 Q2363.96 1482.55 2367.57 1482.55 Q2371.2 1482.55 2373.01 1479.01 Q2374.84 1475.44 2374.84 1468.33 Q2374.84 1461.2 2373.01 1457.66 Q2371.2 1454.1 2367.57 1454.1 M2367.57 1450.39 Q2373.38 1450.39 2376.44 1455 Q2379.52 1459.58 2379.52 1468.33 Q2379.52 1477.06 2376.44 1481.67 Q2373.38 1486.25 2367.57 1486.25 Q2361.76 1486.25 2358.68 1481.67 Q2355.63 1477.06 2355.63 1468.33 Q2355.63 1459.58 2358.68 1455 Q2361.76 1450.39 2367.57 1450.39 Z" fill="#000000" fill-rule="evenodd" fill-opacity="1" /><path clip-path="url(#clip010)" d="M1146.54 1520.52 L1186.74 1520.52 L1186.74 1525.93 L1169.87 1525.93 L1169.87 1568.04 L1163.41 1568.04 L1163.41 1525.93 L1146.54 1525.93 L1146.54 1520.52 Z" fill="#000000" fill-rule="evenodd" fill-opacity="1" /><path clip-path="url(#clip010)" d="M1190.68 1532.4 L1196.54 1532.4 L1196.54 1568.04 L1190.68 1568.04 L1190.68 1532.4 M1190.68 1518.52 L1196.54 1518.52 L1196.54 1525.93 L1190.68 1525.93 L1190.68 1518.52 Z" fill="#000000" fill-rule="evenodd" fill-opacity="1" /><path clip-path="url(#clip010)" d="M1236.55 1539.24 Q1238.74 1535.29 1241.8 1533.41 Q1244.85 1531.54 1248.99 1531.54 Q1254.56 1531.54 1257.59 1535.45 Q1260.61 1539.33 1260.61 1546.53 L1260.61 1568.04 L1254.72 1568.04 L1254.72 1546.72 Q1254.72 1541.59 1252.91 1539.11 Q1251.09 1536.63 1247.37 1536.63 Q1242.82 1536.63 1240.18 1539.65 Q1237.53 1542.68 1237.53 1547.9 L1237.53 1568.04 L1231.65 1568.04 L1231.65 1546.72 Q1231.65 1541.56 1229.83 1539.11 Q1228.02 1536.63 1224.23 1536.63 Q1219.74 1536.63 1217.1 1539.68 Q1214.46 1542.71 1214.46 1547.9 L1214.46 1568.04 L1208.57 1568.04 L1208.57 1532.4 L1214.46 1532.4 L1214.46 1537.93 Q1216.46 1534.66 1219.26 1533.1 Q1222.07 1531.54 1225.92 1531.54 Q1229.8 1531.54 1232.5 1533.51 Q1235.24 1535.48 1236.55 1539.24 Z" fill="#000000" fill-rule="evenodd" fill-opacity="1" /><path clip-path="url(#clip010)" d="M1302.78 1548.76 L1302.78 1551.62 L1275.86 1551.62 Q1276.24 1557.67 1279.48 1560.85 Q1282.76 1564 1288.59 1564 Q1291.96 1564 1295.11 1563.17 Q1298.29 1562.35 1301.41 1560.69 L1301.41 1566.23 Q1298.26 1567.57 1294.95 1568.27 Q1291.64 1568.97 1288.24 1568.97 Q1279.71 1568.97 1274.71 1564 Q1269.74 1559.04 1269.74 1550.57 Q1269.74 1541.82 1274.45 1536.69 Q1279.2 1531.54 1287.22 1531.54 Q1294.41 1531.54 1298.58 1536.18 Q1302.78 1540.8 1302.78 1548.76 M1296.93 1547.04 Q1296.86 1542.23 1294.22 1539.37 Q1291.61 1536.5 1287.28 1536.5 Q1282.38 1536.5 1279.42 1539.27 Q1276.49 1542.04 1276.05 1547.07 L1296.93 1547.04 Z" fill="#000000" fill-rule="evenodd" fill-opacity="1" /><path clip-path="url(#clip010)" d="M1332.57 1518.52 L1346.07 1518.52 L1346.07 1523.07 L1338.43 1523.07 L1338.43 1572.09 L1346.07 1572.09 L1346.07 1576.64 L1332.57 1576.64 L1332.57 1518.52 Z" fill="#000000" fill-rule="evenodd" fill-opacity="1" /><path clip-path="url(#clip010)" d="M1388.18 1546.53 L1388.18 1568.04 L1382.32 1568.04 L1382.32 1546.72 Q1382.32 1541.66 1380.35 1539.14 Q1378.38 1536.63 1374.43 1536.63 Q1369.69 1536.63 1366.95 1539.65 Q1364.21 1542.68 1364.21 1547.9 L1364.21 1568.04 L1358.32 1568.04 L1358.32 1518.52 L1364.21 1518.52 L1364.21 1537.93 Q1366.31 1534.72 1369.14 1533.13 Q1372.01 1531.54 1375.73 1531.54 Q1381.88 1531.54 1385.03 1535.36 Q1388.18 1539.14 1388.18 1546.53 Z" fill="#000000" fill-rule="evenodd" fill-opacity="1" /><path clip-path="url(#clip010)" d="M1420.52 1537.87 Q1419.53 1537.3 1418.35 1537.04 Q1417.21 1536.76 1415.81 1536.76 Q1410.84 1536.76 1408.17 1540 Q1405.52 1543.22 1405.52 1549.27 L1405.52 1568.04 L1399.64 1568.04 L1399.64 1532.4 L1405.52 1532.4 L1405.52 1537.93 Q1407.37 1534.69 1410.33 1533.13 Q1413.29 1531.54 1417.52 1531.54 Q1418.13 1531.54 1418.86 1531.63 Q1419.59 1531.7 1420.48 1531.85 L1420.52 1537.87 Z" fill="#000000" fill-rule="evenodd" fill-opacity="1" /><path clip-path="url(#clip010)" d="M1440.35 1518.52 L1440.35 1576.64 L1426.85 1576.64 L1426.85 1572.09 L1434.46 1572.09 L1434.46 1523.07 L1426.85 1523.07 L1426.85 1518.52 L1440.35 1518.52 Z" fill="#000000" fill-rule="evenodd" fill-opacity="1" /><polyline clip-path="url(#clip012)" style="stroke:#000000; stroke-linecap:butt; stroke-linejoin:round; stroke-width:2; stroke-opacity:0.1; fill:none" points="
  234.125,1383.69 2352.76,1383.69 
  "/>
<polyline clip-path="url(#clip012)" style="stroke:#000000; stroke-linecap:butt; stroke-linejoin:round; stroke-width:2; stroke-opacity:0.1; fill:none" points="
  234.125,1075.32 2352.76,1075.32 
  "/>
<polyline clip-path="url(#clip012)" style="stroke:#000000; stroke-linecap:butt; stroke-linejoin:round; stroke-width:2; stroke-opacity:0.1; fill:none" points="
  234.125,766.954 2352.76,766.954 
  "/>
<polyline clip-path="url(#clip012)" style="stroke:#000000; stroke-linecap:butt; stroke-linejoin:round; stroke-width:2; stroke-opacity:0.1; fill:none" points="
  234.125,458.586 2352.76,458.586 
  "/>
<polyline clip-path="url(#clip012)" style="stroke:#000000; stroke-linecap:butt; stroke-linejoin:round; stroke-width:2; stroke-opacity:0.1; fill:none" points="
  234.125,150.217 2352.76,150.217 
  "/>
<polyline clip-path="url(#clip010)" style="stroke:#000000; stroke-linecap:butt; stroke-linejoin:round; stroke-width:4; stroke-opacity:1; fill:none" points="
  234.125,1423.18 234.125,47.2441 
  "/>
<polyline clip-path="url(#clip010)" style="stroke:#000000; stroke-linecap:butt; stroke-linejoin:round; stroke-width:4; stroke-opacity:1; fill:none" points="
  234.125,1383.69 253.023,1383.69 
  "/>
<polyline clip-path="url(#clip010)" style="stroke:#000000; stroke-linecap:butt; stroke-linejoin:round; stroke-width:4; stroke-opacity:1; fill:none" points="
  234.125,1075.32 253.023,1075.32 
  "/>
<polyline clip-path="url(#clip010)" style="stroke:#000000; stroke-linecap:butt; stroke-linejoin:round; stroke-width:4; stroke-opacity:1; fill:none" points="
  234.125,766.954 253.023,766.954 
  "/>
<polyline clip-path="url(#clip010)" style="stroke:#000000; stroke-linecap:butt; stroke-linejoin:round; stroke-width:4; stroke-opacity:1; fill:none" points="
  234.125,458.586 253.023,458.586 
  "/>
<polyline clip-path="url(#clip010)" style="stroke:#000000; stroke-linecap:butt; stroke-linejoin:round; stroke-width:4; stroke-opacity:1; fill:none" points="
  234.125,150.217 253.023,150.217 
  "/>
<path clip-path="url(#clip010)" d="M186.181 1369.49 Q182.57 1369.49 180.741 1373.05 Q178.936 1376.6 178.936 1383.73 Q178.936 1390.83 180.741 1394.4 Q182.57 1397.94 186.181 1397.94 Q189.815 1397.94 191.621 1394.4 Q193.45 1390.83 193.45 1383.73 Q193.45 1376.6 191.621 1373.05 Q189.815 1369.49 186.181 1369.49 M186.181 1365.79 Q191.991 1365.79 195.047 1370.39 Q198.125 1374.98 198.125 1383.73 Q198.125 1392.45 195.047 1397.06 Q191.991 1401.64 186.181 1401.64 Q180.371 1401.64 177.292 1397.06 Q174.237 1392.45 174.237 1383.73 Q174.237 1374.98 177.292 1370.39 Q180.371 1365.79 186.181 1365.79 Z" fill="#000000" fill-rule="evenodd" fill-opacity="1" /><path clip-path="url(#clip010)" d="M146.066 1058.04 L164.422 1058.04 L164.422 1061.98 L150.348 1061.98 L150.348 1070.45 Q151.366 1070.1 152.385 1069.94 Q153.403 1069.76 154.422 1069.76 Q160.209 1069.76 163.589 1072.93 Q166.968 1076.1 166.968 1081.51 Q166.968 1087.09 163.496 1090.2 Q160.024 1093.27 153.704 1093.27 Q151.528 1093.27 149.26 1092.9 Q147.015 1092.53 144.607 1091.79 L144.607 1087.09 Q146.691 1088.23 148.913 1088.78 Q151.135 1089.34 153.612 1089.34 Q157.616 1089.34 159.954 1087.23 Q162.292 1085.13 162.292 1081.51 Q162.292 1077.9 159.954 1075.8 Q157.616 1073.69 153.612 1073.69 Q151.737 1073.69 149.862 1074.11 Q148.01 1074.52 146.066 1075.4 L146.066 1058.04 Z" fill="#000000" fill-rule="evenodd" fill-opacity="1" /><path clip-path="url(#clip010)" d="M186.181 1061.12 Q182.57 1061.12 180.741 1064.69 Q178.936 1068.23 178.936 1075.36 Q178.936 1082.46 180.741 1086.03 Q182.57 1089.57 186.181 1089.57 Q189.815 1089.57 191.621 1086.03 Q193.45 1082.46 193.45 1075.36 Q193.45 1068.23 191.621 1064.69 Q189.815 1061.12 186.181 1061.12 M186.181 1057.42 Q191.991 1057.42 195.047 1062.02 Q198.125 1066.61 198.125 1075.36 Q198.125 1084.08 195.047 1088.69 Q191.991 1093.27 186.181 1093.27 Q180.371 1093.27 177.292 1088.69 Q174.237 1084.08 174.237 1075.36 Q174.237 1066.61 177.292 1062.02 Q180.371 1057.42 186.181 1057.42 Z" fill="#000000" fill-rule="evenodd" fill-opacity="1" /><path clip-path="url(#clip010)" d="M116.668 780.299 L124.306 780.299 L124.306 753.933 L115.996 755.6 L115.996 751.341 L124.26 749.674 L128.936 749.674 L128.936 780.299 L136.575 780.299 L136.575 784.234 L116.668 784.234 L116.668 780.299 Z" fill="#000000" fill-rule="evenodd" fill-opacity="1" /><path clip-path="url(#clip010)" d="M156.019 752.753 Q152.408 752.753 150.579 756.318 Q148.774 759.859 148.774 766.989 Q148.774 774.095 150.579 777.66 Q152.408 781.202 156.019 781.202 Q159.653 781.202 161.459 777.66 Q163.288 774.095 163.288 766.989 Q163.288 759.859 161.459 756.318 Q159.653 752.753 156.019 752.753 M156.019 749.049 Q161.829 749.049 164.885 753.656 Q167.964 758.239 167.964 766.989 Q167.964 775.716 164.885 780.322 Q161.829 784.906 156.019 784.906 Q150.209 784.906 147.13 780.322 Q144.075 775.716 144.075 766.989 Q144.075 758.239 147.13 753.656 Q150.209 749.049 156.019 749.049 Z" fill="#000000" fill-rule="evenodd" fill-opacity="1" /><path clip-path="url(#clip010)" d="M186.181 752.753 Q182.57 752.753 180.741 756.318 Q178.936 759.859 178.936 766.989 Q178.936 774.095 180.741 777.66 Q182.57 781.202 186.181 781.202 Q189.815 781.202 191.621 777.66 Q193.45 774.095 193.45 766.989 Q193.45 759.859 191.621 756.318 Q189.815 752.753 186.181 752.753 M186.181 749.049 Q191.991 749.049 195.047 753.656 Q198.125 758.239 198.125 766.989 Q198.125 775.716 195.047 780.322 Q191.991 784.906 186.181 784.906 Q180.371 784.906 177.292 780.322 Q174.237 775.716 174.237 766.989 Q174.237 758.239 177.292 753.656 Q180.371 749.049 186.181 749.049 Z" fill="#000000" fill-rule="evenodd" fill-opacity="1" /><path clip-path="url(#clip010)" d="M116.668 471.931 L124.306 471.931 L124.306 445.565 L115.996 447.232 L115.996 442.972 L124.26 441.306 L128.936 441.306 L128.936 471.931 L136.575 471.931 L136.575 475.866 L116.668 475.866 L116.668 471.931 Z" fill="#000000" fill-rule="evenodd" fill-opacity="1" /><path clip-path="url(#clip010)" d="M146.066 441.306 L164.422 441.306 L164.422 445.241 L150.348 445.241 L150.348 453.713 Q151.366 453.366 152.385 453.204 Q153.403 453.019 154.422 453.019 Q160.209 453.019 163.589 456.19 Q166.968 459.361 166.968 464.778 Q166.968 470.356 163.496 473.458 Q160.024 476.537 153.704 476.537 Q151.528 476.537 149.26 476.167 Q147.015 475.796 144.607 475.056 L144.607 470.356 Q146.691 471.491 148.913 472.046 Q151.135 472.602 153.612 472.602 Q157.616 472.602 159.954 470.495 Q162.292 468.389 162.292 464.778 Q162.292 461.167 159.954 459.06 Q157.616 456.954 153.612 456.954 Q151.737 456.954 149.862 457.37 Q148.01 457.787 146.066 458.667 L146.066 441.306 Z" fill="#000000" fill-rule="evenodd" fill-opacity="1" /><path clip-path="url(#clip010)" d="M186.181 444.384 Q182.57 444.384 180.741 447.949 Q178.936 451.491 178.936 458.62 Q178.936 465.727 180.741 469.292 Q182.57 472.833 186.181 472.833 Q189.815 472.833 191.621 469.292 Q193.45 465.727 193.45 458.62 Q193.45 451.491 191.621 447.949 Q189.815 444.384 186.181 444.384 M186.181 440.681 Q191.991 440.681 195.047 445.287 Q198.125 449.87 198.125 458.62 Q198.125 467.347 195.047 471.954 Q191.991 476.537 186.181 476.537 Q180.371 476.537 177.292 471.954 Q174.237 467.347 174.237 458.62 Q174.237 449.87 177.292 445.287 Q180.371 440.681 186.181 440.681 Z" fill="#000000" fill-rule="evenodd" fill-opacity="1" /><path clip-path="url(#clip010)" d="M119.885 163.562 L136.204 163.562 L136.204 167.497 L114.26 167.497 L114.26 163.562 Q116.922 160.807 121.505 156.178 Q126.112 151.525 127.292 150.182 Q129.538 147.659 130.417 145.923 Q131.32 144.164 131.32 142.474 Q131.32 139.72 129.376 137.983 Q127.455 136.247 124.353 136.247 Q122.154 136.247 119.7 137.011 Q117.269 137.775 114.492 139.326 L114.492 134.604 Q117.316 133.47 119.769 132.891 Q122.223 132.312 124.26 132.312 Q129.63 132.312 132.825 134.997 Q136.019 137.683 136.019 142.173 Q136.019 144.303 135.209 146.224 Q134.422 148.122 132.316 150.715 Q131.737 151.386 128.635 154.604 Q125.533 157.798 119.885 163.562 Z" fill="#000000" fill-rule="evenodd" fill-opacity="1" /><path clip-path="url(#clip010)" d="M156.019 136.016 Q152.408 136.016 150.579 139.581 Q148.774 143.122 148.774 150.252 Q148.774 157.358 150.579 160.923 Q152.408 164.465 156.019 164.465 Q159.653 164.465 161.459 160.923 Q163.288 157.358 163.288 150.252 Q163.288 143.122 161.459 139.581 Q159.653 136.016 156.019 136.016 M156.019 132.312 Q161.829 132.312 164.885 136.919 Q167.964 141.502 167.964 150.252 Q167.964 158.979 164.885 163.585 Q161.829 168.168 156.019 168.168 Q150.209 168.168 147.13 163.585 Q144.075 158.979 144.075 150.252 Q144.075 141.502 147.13 136.919 Q150.209 132.312 156.019 132.312 Z" fill="#000000" fill-rule="evenodd" fill-opacity="1" /><path clip-path="url(#clip010)" d="M186.181 136.016 Q182.57 136.016 180.741 139.581 Q178.936 143.122 178.936 150.252 Q178.936 157.358 180.741 160.923 Q182.57 164.465 186.181 164.465 Q189.815 164.465 191.621 160.923 Q193.45 157.358 193.45 150.252 Q193.45 143.122 191.621 139.581 Q189.815 136.016 186.181 136.016 M186.181 132.312 Q191.991 132.312 195.047 136.919 Q198.125 141.502 198.125 150.252 Q198.125 158.979 195.047 163.585 Q191.991 168.168 186.181 168.168 Q180.371 168.168 177.292 163.585 Q174.237 158.979 174.237 150.252 Q174.237 141.502 177.292 136.919 Q180.371 132.312 186.181 132.312 Z" fill="#000000" fill-rule="evenodd" fill-opacity="1" /><path clip-path="url(#clip010)" d="M16.4842 925.228 L16.4842 918.799 L35.9632 918.799 L35.9632 895.437 L16.4842 895.437 L16.4842 889.007 L64.0042 889.007 L64.0042 895.437 L41.3741 895.437 L41.3741 918.799 L64.0042 918.799 L64.0042 925.228 L16.4842 925.228 Z" fill="#000000" fill-rule="evenodd" fill-opacity="1" /><path clip-path="url(#clip010)" d="M44.7161 845.975 L47.5806 845.975 L47.5806 872.902 Q53.6281 872.52 56.8109 869.274 Q59.9619 865.995 59.9619 860.171 Q59.9619 856.797 59.1344 853.646 Q58.3069 850.463 56.6518 847.344 L62.1899 847.344 Q63.5267 850.495 64.227 853.805 Q64.9272 857.115 64.9272 860.521 Q64.9272 869.051 59.9619 874.048 Q54.9967 879.013 46.5303 879.013 Q37.7774 879.013 32.6531 874.303 Q27.4968 869.56 27.4968 861.539 Q27.4968 854.346 32.1438 850.177 Q36.7589 845.975 44.7161 845.975 M42.9973 851.832 Q38.1912 851.895 35.3266 854.537 Q32.4621 857.147 32.4621 861.476 Q32.4621 866.377 35.2312 869.337 Q38.0002 872.266 43.0292 872.711 L42.9973 851.832 Z" fill="#000000" fill-rule="evenodd" fill-opacity="1" /><path clip-path="url(#clip010)" d="M28.3562 836.363 L28.3562 830.507 L64.0042 830.507 L64.0042 836.363 L28.3562 836.363 M14.479 836.363 L14.479 830.507 L21.895 830.507 L21.895 836.363 L14.479 836.363 Z" fill="#000000" fill-rule="evenodd" fill-opacity="1" /><path clip-path="url(#clip010)" d="M45.7664 794.795 Q39.4007 794.795 35.8996 797.437 Q32.3984 800.047 32.3984 804.789 Q32.3984 809.5 35.8996 812.142 Q39.4007 814.751 45.7664 814.751 Q52.1003 814.751 55.6014 812.142 Q59.1026 809.5 59.1026 804.789 Q59.1026 800.047 55.6014 797.437 Q52.1003 794.795 45.7664 794.795 M59.58 788.939 Q68.683 788.939 73.1071 792.981 Q77.5631 797.023 77.5631 805.362 Q77.5631 808.449 77.0857 811.187 Q76.6401 813.924 75.6852 816.502 L69.9879 816.502 Q71.3884 813.924 72.0568 811.409 Q72.7252 808.895 72.7252 806.285 Q72.7252 800.524 69.7015 797.66 Q66.7096 794.795 60.6303 794.795 L57.7339 794.795 Q60.885 796.609 62.4446 799.442 Q64.0042 802.275 64.0042 806.221 Q64.0042 812.778 59.0071 816.788 Q54.01 820.799 45.7664 820.799 Q37.491 820.799 32.4939 816.788 Q27.4968 812.778 27.4968 806.221 Q27.4968 802.275 29.0564 799.442 Q30.616 796.609 33.7671 794.795 L28.3562 794.795 L28.3562 788.939 L59.58 788.939 Z" fill="#000000" fill-rule="evenodd" fill-opacity="1" /><path clip-path="url(#clip010)" d="M42.4881 747.243 L64.0042 747.243 L64.0042 753.1 L42.679 753.1 Q37.6183 753.1 35.1038 755.073 Q32.5894 757.046 32.5894 760.993 Q32.5894 765.736 35.6131 768.473 Q38.6368 771.21 43.8567 771.21 L64.0042 771.21 L64.0042 777.098 L14.479 777.098 L14.479 771.21 L33.8944 771.21 Q30.6797 769.109 29.0883 766.277 Q27.4968 763.412 27.4968 759.688 Q27.4968 753.545 31.3163 750.394 Q35.1038 747.243 42.4881 747.243 Z" fill="#000000" fill-rule="evenodd" fill-opacity="1" /><path clip-path="url(#clip010)" d="M18.2347 729.769 L28.3562 729.769 L28.3562 717.706 L32.9077 717.706 L32.9077 729.769 L52.2594 729.769 Q56.6199 729.769 57.8613 728.592 Q59.1026 727.382 59.1026 723.722 L59.1026 717.706 L64.0042 717.706 L64.0042 723.722 Q64.0042 730.501 61.4897 733.079 Q58.9434 735.658 52.2594 735.658 L32.9077 735.658 L32.9077 739.954 L28.3562 739.954 L28.3562 735.658 L18.2347 735.658 L18.2347 729.769 Z" fill="#000000" fill-rule="evenodd" fill-opacity="1" /><path clip-path="url(#clip010)" d="M14.479 689.824 L14.479 676.329 L19.0304 676.329 L19.0304 683.968 L68.0464 683.968 L68.0464 676.329 L72.5979 676.329 L72.5979 689.824 L14.479 689.824 Z" fill="#000000" fill-rule="evenodd" fill-opacity="1" /><path clip-path="url(#clip010)" d="M77.5631 664.457 L28.3562 664.457 L28.3562 658.601 L50.5089 658.601 Q55.124 658.601 57.4793 656.405 Q59.8346 654.208 59.8346 649.911 Q59.8346 645.201 57.161 642.846 Q54.4874 640.458 49.1402 640.458 L28.3562 640.458 L28.3562 634.602 L55.7924 634.602 Q57.7021 634.602 58.6251 634.061 Q59.5163 633.488 59.5163 632.31 Q59.5163 632.024 59.3572 631.515 Q59.1662 631.005 58.7843 630.114 L63.4949 630.114 Q64.227 631.419 64.5771 632.597 Q64.9272 633.743 64.9272 634.857 Q64.9272 637.053 63.6859 638.358 Q62.4446 639.663 59.8983 640.14 Q62.4127 641.732 63.6859 644.055 Q64.9272 646.347 64.9272 649.466 Q64.9272 652.712 63.6859 655.004 Q62.4446 657.264 59.9619 658.601 L77.5631 658.601 L77.5631 664.457 Z" fill="#000000" fill-rule="evenodd" fill-opacity="1" /><path clip-path="url(#clip010)" d="M35.1993 594.625 Q31.2526 592.429 29.3747 589.374 Q27.4968 586.318 27.4968 582.18 Q27.4968 576.61 31.4117 573.587 Q35.2948 570.563 42.4881 570.563 L64.0042 570.563 L64.0042 576.451 L42.679 576.451 Q37.5546 576.451 35.072 578.265 Q32.5894 580.08 32.5894 583.804 Q32.5894 588.355 35.6131 590.997 Q38.6368 593.639 43.8567 593.639 L64.0042 593.639 L64.0042 599.527 L42.679 599.527 Q37.5228 599.527 35.072 601.341 Q32.5894 603.155 32.5894 606.943 Q32.5894 611.431 35.6449 614.073 Q38.6686 616.714 43.8567 616.714 L64.0042 616.714 L64.0042 622.603 L28.3562 622.603 L28.3562 616.714 L33.8944 616.714 Q30.616 614.709 29.0564 611.908 Q27.4968 609.107 27.4968 605.256 Q27.4968 601.373 29.4702 598.668 Q31.4436 595.93 35.1993 594.625 Z" fill="#000000" fill-rule="evenodd" fill-opacity="1" /><path clip-path="url(#clip010)" d="M14.479 545.196 L72.5979 545.196 L72.5979 558.691 L68.0464 558.691 L68.0464 551.084 L19.0304 551.084 L19.0304 558.691 L14.479 558.691 L14.479 545.196 Z" fill="#000000" fill-rule="evenodd" fill-opacity="1" /><polyline clip-path="url(#clip012)" style="stroke:#009af9; stroke-linecap:butt; stroke-linejoin:round; stroke-width:6; stroke-opacity:1; fill:none" points="
  234.125,1381.63 255.312,1380.87 276.498,1379.88 297.684,1378.57 318.871,1376.87 340.057,1374.69 361.243,1371.91 382.43,1368.41 403.616,1364.05 424.802,1358.68 
  445.988,1352.12 467.175,1344.22 488.361,1334.8 509.547,1323.69 530.734,1310.75 551.92,1295.82 573.106,1278.81 594.293,1259.65 615.479,1238.28 636.665,1214.74 
  657.852,1189.06 679.038,1161.35 700.224,1131.77 721.41,1100.49 742.597,1067.74 763.783,1033.77 784.969,998.868 806.156,963.307 827.342,927.375 848.528,891.352 
  869.715,855.51 890.901,820.1 912.087,785.356 933.273,751.479 954.46,718.642 975.646,686.986 996.832,656.625 1018.02,627.645 1039.21,600.109 1060.39,574.057 
  1081.58,549.505 1102.76,526.448 1123.95,504.86 1145.14,484.706 1166.32,465.945 1187.51,448.529 1208.7,432.401 1229.88,417.5 1251.07,403.758 1272.25,391.1 
  1293.44,379.461 1314.63,368.779 1335.81,358.989 1357,350.031 1378.19,341.844 1399.37,334.367 1420.56,327.543 1441.74,321.32 1462.93,315.651 1484.12,310.493 
  1505.3,305.804 1526.49,301.545 1547.68,297.678 1568.86,294.167 1590.05,290.981 1611.24,288.09 1632.42,285.472 1653.61,283.101 1674.79,280.957 1695.98,279.018 
  1717.17,277.265 1738.35,275.68 1759.54,274.247 1780.73,272.953 1801.91,271.786 1823.1,270.734 1844.28,269.788 1865.47,268.936 1886.66,268.169 1907.84,267.48 
  1929.03,266.861 1950.22,266.305 1971.4,265.807 1992.59,265.362 2013.78,264.964 2034.96,264.61 2056.15,264.295 2077.33,264.015 2098.52,263.766 2119.71,263.546 
  2140.89,263.352 2162.08,263.182 2183.27,263.034 2204.45,262.905 2225.64,262.794 2246.82,262.699 2268.01,262.618 2289.2,262.55 2310.38,262.494 2331.57,262.448 
  2352.76,262.412 
  "/>
<polyline clip-path="url(#clip012)" style="stroke:#e26f46; stroke-linecap:butt; stroke-linejoin:round; stroke-width:6; stroke-opacity:1; fill:none" points="
  234.125,1381.63 255.312,1380.9 276.498,1379.94 297.684,1378.68 318.871,1377.05 340.057,1374.96 361.243,1372.3 382.43,1368.94 403.616,1364.73 424.802,1359.53 
  445.988,1353.16 467.175,1345.43 488.361,1336.15 509.547,1325.13 530.734,1312.19 551.92,1297.17 573.106,1279.94 594.293,1260.39 615.479,1238.48 636.665,1214.22 
  657.852,1187.65 679.038,1158.92 700.224,1128.2 721.41,1095.72 742.597,1061.76 763.783,1026.62 784.969,990.646 806.156,954.166 827.342,917.508 848.528,880.981 
  869.715,844.877 890.901,809.461 912.087,774.95 933.273,741.53 954.46,709.353 975.646,678.535 996.832,649.156 1018.02,621.263 1039.21,594.883 1060.39,570.014 
  1081.58,546.641 1102.76,524.734 1123.95,504.255 1145.14,485.153 1166.32,467.368 1187.51,450.83 1208.7,435.478 1229.88,421.246 1251.07,408.069 1272.25,395.884 
  1293.44,384.626 1314.63,374.235 1335.81,364.647 1357,355.804 1378.19,347.654 1399.37,340.149 1420.56,333.241 1441.74,326.886 1462.93,321.043 1484.12,315.671 
  1505.3,310.733 1526.49,306.193 1547.68,302.02 1568.86,298.187 1590.05,294.668 1611.24,291.438 1632.42,288.473 1653.61,285.753 1674.79,283.256 1695.98,280.964 
  1717.17,278.86 1738.35,276.929 1759.54,275.157 1780.73,273.533 1801.91,272.043 1823.1,270.678 1844.28,269.425 1865.47,268.277 1886.66,267.223 1907.84,266.256 
  1929.03,265.369 1950.22,264.556 1971.4,263.81 1992.59,263.127 2013.78,262.501 2034.96,261.928 2056.15,261.402 2077.33,260.919 2098.52,260.476 2119.71,260.07 
  2140.89,259.698 2162.08,259.357 2183.27,259.045 2204.45,258.758 2225.64,258.496 2246.82,258.255 2268.01,258.035 2289.2,257.833 2310.38,257.647 2331.57,257.477 
  2352.76,257.321 
  "/>
<polyline clip-path="url(#clip012)" style="stroke:#3da44d; stroke-linecap:butt; stroke-linejoin:round; stroke-width:6; stroke-opacity:1; fill:none" points="
  234.125,1381.63 255.312,1380.86 276.498,1379.8 297.684,1378.35 318.871,1376.35 340.057,1373.61 361.243,1369.85 382.43,1364.69 403.616,1357.59 424.802,1347.85 
  445.988,1334.48 467.175,1316.12 488.361,1290.43 509.547,1259.43 530.734,1227.94 551.92,1197.18 573.106,1167.15 594.293,1137.83 615.479,1109.21 636.665,1081.28 
  657.852,1054.01 679.038,1027.38 700.224,1001.39 721.41,976.02 742.597,951.253 763.783,927.074 784.969,903.471 806.156,880.429 827.342,857.936 848.528,835.977 
  869.715,814.541 890.901,793.615 912.087,773.187 933.273,753.245 954.46,733.778 975.646,714.773 996.832,696.221 1018.02,678.111 1039.21,660.431 1060.39,643.172 
  1081.58,626.323 1102.76,609.875 1123.95,593.819 1145.14,578.144 1166.32,562.842 1187.51,547.904 1208.7,533.322 1229.88,519.087 1251.07,505.19 1272.25,491.625 
  1293.44,478.382 1314.63,465.455 1335.81,452.835 1357,440.515 1378.19,428.488 1399.37,416.748 1420.56,405.287 1441.74,394.098 1462.93,383.175 1484.12,372.512 
  1505.3,362.103 1526.49,351.941 1547.68,342.021 1568.86,332.337 1590.05,322.883 1611.24,313.655 1632.42,304.646 1653.61,295.852 1674.79,287.267 1695.98,278.886 
  1717.17,270.705 1738.35,262.719 1759.54,254.923 1780.73,247.312 1801.91,239.883 1823.1,232.63 1844.28,225.549 1865.47,218.637 1886.66,211.889 1907.84,205.301 
  1929.03,198.87 1950.22,192.592 1971.4,186.463 1992.59,180.48 2013.78,174.639 2034.96,168.938 2056.15,163.372 2077.33,157.939 2098.52,152.635 2119.71,147.458 
  2140.89,142.403 2162.08,137.47 2183.27,132.653 2204.45,127.952 2225.64,123.362 2246.82,118.882 2268.01,114.508 2289.2,110.238 2310.38,106.069 2331.57,102 
  2352.76,98.027 
  "/>
<polyline clip-path="url(#clip012)" style="stroke:#e26f46; stroke-linecap:butt; stroke-linejoin:round; stroke-width:6; stroke-opacity:1; fill:none" stroke-dasharray="24, 15" points="
  234.125,1381.63 255.312,1381.15 276.498,1380.56 297.684,1379.84 318.871,1378.95 340.057,1377.86 361.243,1376.51 382.43,1374.86 403.616,1372.84 424.802,1370.35 
  445.988,1367.31 467.175,1363.59 488.361,1359.03 509.547,1353.48 530.734,1346.72 551.92,1338.52 573.106,1328.6 594.293,1316.64 615.479,1302.29 636.665,1285.19 
  657.852,1264.92 679.038,1241.11 700.224,1213.39 721.41,1181.48 742.597,1145.2 763.783,1104.54 784.969,1059.7 806.156,1011.12 827.342,959.468 848.528,905.691 
  869.715,850.875 890.901,796.152 912.087,742.696 933.273,691.608 954.46,643.726 975.646,599.668 996.832,559.832 1018.02,524.396 1039.21,493.318 1060.39,466.353 
  1081.58,443.223 1102.76,423.603 1123.95,407.113 1145.14,393.315 1166.32,381.758 1187.51,372.147 1208.7,364.23 1229.88,357.753 1251.07,352.462 1272.25,348.104 
  1293.44,344.498 1314.63,341.548 1335.81,339.157 1357,337.228 1378.19,335.669 1399.37,334.386 1420.56,333.32 1441.74,332.449 1462.93,331.747 1484.12,331.187 
  1505.3,330.743 1526.49,330.385 1547.68,330.084 1568.86,329.829 1590.05,329.619 1611.24,329.45 1632.42,329.318 1653.61,329.216 1674.79,329.137 1695.98,329.074 
  1717.17,329.017 1738.35,328.966 1759.54,328.922 1780.73,328.886 1801.91,328.859 1823.1,328.838 1844.28,328.825 1865.47,328.816 1886.66,328.81 1907.84,328.804 
  1929.03,328.796 1950.22,328.787 1971.4,328.779 1992.59,328.773 2013.78,328.767 2034.96,328.764 2056.15,328.761 2077.33,328.761 2098.52,328.762 2119.71,328.763 
  2140.89,328.765 2162.08,328.766 2183.27,328.765 2204.45,328.764 2225.64,328.762 2246.82,328.761 2268.01,328.76 2289.2,328.76 2310.38,328.759 2331.57,328.759 
  2352.76,328.758 
  "/>
<polyline clip-path="url(#clip012)" style="stroke:#3da44d; stroke-linecap:butt; stroke-linejoin:round; stroke-width:6; stroke-opacity:1; fill:none" stroke-dasharray="24, 15" points="
  234.125,1381.63 255.312,1380.86 276.498,1379.8 297.684,1378.34 318.871,1376.34 340.057,1373.6 361.243,1369.83 382.43,1364.65 403.616,1357.53 424.802,1347.76 
  445.988,1334.34 467.175,1316.38 488.361,1290.22 509.547,1257.9 530.734,1226.43 551.92,1195.7 573.106,1165.7 594.293,1136.41 615.479,1107.83 636.665,1079.92 
  657.852,1052.68 679.038,1026.08 700.224,1000.12 721.41,974.781 742.597,950.041 763.783,925.889 784.969,902.313 806.156,879.297 827.342,856.829 848.528,834.896 
  869.715,813.485 890.901,792.584 912.087,772.18 933.273,752.261 954.46,732.817 975.646,713.835 996.832,695.306 1018.02,677.217 1039.21,659.558 1060.39,642.32 
  1081.58,625.492 1102.76,609.064 1123.95,593.027 1145.14,577.372 1166.32,562.09 1187.51,547.171 1208.7,532.608 1229.88,518.391 1251.07,504.513 1272.25,490.965 
  1293.44,477.74 1314.63,464.829 1335.81,452.226 1357,439.922 1378.19,427.911 1399.37,416.186 1420.56,404.74 1441.74,393.565 1462.93,382.657 1484.12,372.008 
  1505.3,361.613 1526.49,351.466 1547.68,341.56 1568.86,331.89 1590.05,322.45 1611.24,313.235 1632.42,304.239 1653.61,295.458 1674.79,286.885 1695.98,278.517 
  1717.17,270.348 1738.35,262.373 1759.54,254.588 1780.73,246.988 1801.91,239.568 1823.1,232.325 1844.28,225.254 1865.47,218.351 1886.66,211.612 1907.84,205.034 
  1929.03,198.612 1950.22,192.343 1971.4,186.224 1992.59,180.25 2013.78,174.419 2034.96,168.727 2056.15,163.171 2077.33,157.747 2098.52,152.452 2119.71,147.283 
  2140.89,142.238 2162.08,137.312 2183.27,132.504 2204.45,127.81 2225.64,123.227 2246.82,118.754 2268.01,114.387 2289.2,110.124 2310.38,105.961 2331.57,101.899 
  2352.76,97.9322 
  "/>
<circle clip-path="url(#clip012)" cx="251.781" cy="1381.7" r="14" fill="#000000" fill-rule="evenodd" fill-opacity="0.25" stroke="none"/>
<circle clip-path="url(#clip012)" cx="265.505" cy="1382.06" r="14" fill="#000000" fill-rule="evenodd" fill-opacity="0.25" stroke="none"/>
<circle clip-path="url(#clip012)" cx="279.205" cy="1380.93" r="14" fill="#000000" fill-rule="evenodd" fill-opacity="0.25" stroke="none"/>
<circle clip-path="url(#clip012)" cx="292.929" cy="1379.07" r="14" fill="#000000" fill-rule="evenodd" fill-opacity="0.25" stroke="none"/>
<circle clip-path="url(#clip012)" cx="306.653" cy="1381.43" r="14" fill="#000000" fill-rule="evenodd" fill-opacity="0.25" stroke="none"/>
<circle clip-path="url(#clip012)" cx="320.401" cy="1381.91" r="14" fill="#000000" fill-rule="evenodd" fill-opacity="0.25" stroke="none"/>
<circle clip-path="url(#clip012)" cx="334.125" cy="1384.24" r="14" fill="#000000" fill-rule="evenodd" fill-opacity="0.25" stroke="none"/>
<circle clip-path="url(#clip012)" cx="347.849" cy="1383.51" r="14" fill="#000000" fill-rule="evenodd" fill-opacity="0.25" stroke="none"/>
<circle clip-path="url(#clip012)" cx="361.596" cy="1378.44" r="14" fill="#000000" fill-rule="evenodd" fill-opacity="0.25" stroke="none"/>
<circle clip-path="url(#clip012)" cx="375.32" cy="1376.04" r="14" fill="#000000" fill-rule="evenodd" fill-opacity="0.25" stroke="none"/>
<circle clip-path="url(#clip012)" cx="389.115" cy="1373.5" r="14" fill="#000000" fill-rule="evenodd" fill-opacity="0.25" stroke="none"/>
<circle clip-path="url(#clip012)" cx="402.839" cy="1362.52" r="14" fill="#000000" fill-rule="evenodd" fill-opacity="0.25" stroke="none"/>
<circle clip-path="url(#clip012)" cx="416.563" cy="1365.93" r="14" fill="#000000" fill-rule="evenodd" fill-opacity="0.25" stroke="none"/>
<circle clip-path="url(#clip012)" cx="430.287" cy="1359.52" r="14" fill="#000000" fill-rule="evenodd" fill-opacity="0.25" stroke="none"/>
<circle clip-path="url(#clip012)" cx="444.035" cy="1349.38" r="14" fill="#000000" fill-rule="evenodd" fill-opacity="0.25" stroke="none"/>
<circle clip-path="url(#clip012)" cx="457.759" cy="1342.74" r="14" fill="#000000" fill-rule="evenodd" fill-opacity="0.25" stroke="none"/>
<circle clip-path="url(#clip012)" cx="476.614" cy="1329.65" r="14" fill="#000000" fill-rule="evenodd" fill-opacity="0.25" stroke="none"/>
<circle clip-path="url(#clip012)" cx="490.174" cy="1310.21" r="14" fill="#000000" fill-rule="evenodd" fill-opacity="0.25" stroke="none"/>
<circle clip-path="url(#clip012)" cx="503.756" cy="1289.29" r="14" fill="#000000" fill-rule="evenodd" fill-opacity="0.25" stroke="none"/>
<circle clip-path="url(#clip012)" cx="517.339" cy="1270.43" r="14" fill="#000000" fill-rule="evenodd" fill-opacity="0.25" stroke="none"/>
<circle clip-path="url(#clip012)" cx="530.898" cy="1248.44" r="14" fill="#000000" fill-rule="evenodd" fill-opacity="0.25" stroke="none"/>
<circle clip-path="url(#clip012)" cx="544.505" cy="1222.34" r="14" fill="#000000" fill-rule="evenodd" fill-opacity="0.25" stroke="none"/>
<circle clip-path="url(#clip012)" cx="558.088" cy="1192.6" r="14" fill="#000000" fill-rule="evenodd" fill-opacity="0.25" stroke="none"/>
<circle clip-path="url(#clip012)" cx="571.67" cy="1166.38" r="14" fill="#000000" fill-rule="evenodd" fill-opacity="0.25" stroke="none"/>
<circle clip-path="url(#clip012)" cx="585.277" cy="1138.44" r="14" fill="#000000" fill-rule="evenodd" fill-opacity="0.25" stroke="none"/>
<circle clip-path="url(#clip012)" cx="598.859" cy="1122.57" r="14" fill="#000000" fill-rule="evenodd" fill-opacity="0.25" stroke="none"/>
<circle clip-path="url(#clip012)" cx="612.489" cy="1101.87" r="14" fill="#000000" fill-rule="evenodd" fill-opacity="0.25" stroke="none"/>
<circle clip-path="url(#clip012)" cx="626.072" cy="1076.49" r="14" fill="#000000" fill-rule="evenodd" fill-opacity="0.25" stroke="none"/>
<circle clip-path="url(#clip012)" cx="639.655" cy="1061.18" r="14" fill="#000000" fill-rule="evenodd" fill-opacity="0.25" stroke="none"/>
<circle clip-path="url(#clip012)" cx="655.309" cy="1041.76" r="14" fill="#000000" fill-rule="evenodd" fill-opacity="0.25" stroke="none"/>
<circle clip-path="url(#clip012)" cx="675.931" cy="1012.68" r="14" fill="#000000" fill-rule="evenodd" fill-opacity="0.25" stroke="none"/>
<circle clip-path="url(#clip012)" cx="696.575" cy="986.9" r="14" fill="#000000" fill-rule="evenodd" fill-opacity="0.25" stroke="none"/>
<circle clip-path="url(#clip012)" cx="717.22" cy="961.216" r="14" fill="#000000" fill-rule="evenodd" fill-opacity="0.25" stroke="none"/>
<circle clip-path="url(#clip012)" cx="737.865" cy="938.323" r="14" fill="#000000" fill-rule="evenodd" fill-opacity="0.25" stroke="none"/>
<circle clip-path="url(#clip012)" cx="758.534" cy="914.893" r="14" fill="#000000" fill-rule="evenodd" fill-opacity="0.25" stroke="none"/>
<circle clip-path="url(#clip012)" cx="779.178" cy="894.707" r="14" fill="#000000" fill-rule="evenodd" fill-opacity="0.25" stroke="none"/>
<circle clip-path="url(#clip012)" cx="799.894" cy="872.663" r="14" fill="#000000" fill-rule="evenodd" fill-opacity="0.25" stroke="none"/>
<circle clip-path="url(#clip012)" cx="820.539" cy="852.238" r="14" fill="#000000" fill-rule="evenodd" fill-opacity="0.25" stroke="none"/>
<circle clip-path="url(#clip012)" cx="841.16" cy="832.261" r="14" fill="#000000" fill-rule="evenodd" fill-opacity="0.25" stroke="none"/>
<circle clip-path="url(#clip012)" cx="861.805" cy="813.504" r="14" fill="#000000" fill-rule="evenodd" fill-opacity="0.25" stroke="none"/>
<circle clip-path="url(#clip012)" cx="882.426" cy="798.243" r="14" fill="#000000" fill-rule="evenodd" fill-opacity="0.25" stroke="none"/>
<circle clip-path="url(#clip012)" cx="903.071" cy="775.89" r="14" fill="#000000" fill-rule="evenodd" fill-opacity="0.25" stroke="none"/>
<circle clip-path="url(#clip012)" cx="923.693" cy="756.403" r="14" fill="#000000" fill-rule="evenodd" fill-opacity="0.25" stroke="none"/>
<circle clip-path="url(#clip012)" cx="944.385" cy="741.488" r="14" fill="#000000" fill-rule="evenodd" fill-opacity="0.25" stroke="none"/>
<circle clip-path="url(#clip012)" cx="965.006" cy="715.931" r="14" fill="#000000" fill-rule="evenodd" fill-opacity="0.25" stroke="none"/>
<circle clip-path="url(#clip012)" cx="985.627" cy="708.147" r="14" fill="#000000" fill-rule="evenodd" fill-opacity="0.25" stroke="none"/>
<circle clip-path="url(#clip012)" cx="1006.2" cy="686.46" r="14" fill="#000000" fill-rule="evenodd" fill-opacity="0.25" stroke="none"/>
<circle clip-path="url(#clip012)" cx="1026.82" cy="670.792" r="14" fill="#000000" fill-rule="evenodd" fill-opacity="0.25" stroke="none"/>
<circle clip-path="url(#clip012)" cx="1047.47" cy="657.873" r="14" fill="#000000" fill-rule="evenodd" fill-opacity="0.25" stroke="none"/>
<circle clip-path="url(#clip012)" cx="1068.09" cy="641.633" r="14" fill="#000000" fill-rule="evenodd" fill-opacity="0.25" stroke="none"/>
<circle clip-path="url(#clip012)" cx="1088.71" cy="626.06" r="14" fill="#000000" fill-rule="evenodd" fill-opacity="0.25" stroke="none"/>
<circle clip-path="url(#clip012)" cx="1109.36" cy="605.883" r="14" fill="#000000" fill-rule="evenodd" fill-opacity="0.25" stroke="none"/>
<circle clip-path="url(#clip012)" cx="1130.05" cy="590.613" r="14" fill="#000000" fill-rule="evenodd" fill-opacity="0.25" stroke="none"/>
<circle clip-path="url(#clip012)" cx="1150.74" cy="580.533" r="14" fill="#000000" fill-rule="evenodd" fill-opacity="0.25" stroke="none"/>
<circle clip-path="url(#clip012)" cx="1171.38" cy="567.572" r="14" fill="#000000" fill-rule="evenodd" fill-opacity="0.25" stroke="none"/>
<circle clip-path="url(#clip012)" cx="1192.01" cy="550.51" r="14" fill="#000000" fill-rule="evenodd" fill-opacity="0.25" stroke="none"/>
<circle clip-path="url(#clip012)" cx="1212.65" cy="538.699" r="14" fill="#000000" fill-rule="evenodd" fill-opacity="0.25" stroke="none"/>
<circle clip-path="url(#clip012)" cx="1232.8" cy="519.629" r="14" fill="#000000" fill-rule="evenodd" fill-opacity="0.25" stroke="none"/>
<circle clip-path="url(#clip012)" cx="1253.45" cy="508.162" r="14" fill="#000000" fill-rule="evenodd" fill-opacity="0.25" stroke="none"/>
<circle clip-path="url(#clip012)" cx="1274.09" cy="497.155" r="14" fill="#000000" fill-rule="evenodd" fill-opacity="0.25" stroke="none"/>
<circle clip-path="url(#clip012)" cx="1294.76" cy="480.719" r="14" fill="#000000" fill-rule="evenodd" fill-opacity="0.25" stroke="none"/>
<circle clip-path="url(#clip012)" cx="1315.47" cy="467.308" r="14" fill="#000000" fill-rule="evenodd" fill-opacity="0.25" stroke="none"/>
<circle clip-path="url(#clip012)" cx="1336.14" cy="459.782" r="14" fill="#000000" fill-rule="evenodd" fill-opacity="0.25" stroke="none"/>
<circle clip-path="url(#clip012)" cx="1356.81" cy="446.527" r="14" fill="#000000" fill-rule="evenodd" fill-opacity="0.25" stroke="none"/>
<circle clip-path="url(#clip012)" cx="1377.48" cy="434.66" r="14" fill="#000000" fill-rule="evenodd" fill-opacity="0.25" stroke="none"/>
<circle clip-path="url(#clip012)" cx="1398.15" cy="419.263" r="14" fill="#000000" fill-rule="evenodd" fill-opacity="0.25" stroke="none"/>
<circle clip-path="url(#clip012)" cx="1418.84" cy="404.96" r="14" fill="#000000" fill-rule="evenodd" fill-opacity="0.25" stroke="none"/>
<circle clip-path="url(#clip012)" cx="1439.48" cy="393.226" r="14" fill="#000000" fill-rule="evenodd" fill-opacity="0.25" stroke="none"/>
<circle clip-path="url(#clip012)" cx="1460.18" cy="391.318" r="14" fill="#000000" fill-rule="evenodd" fill-opacity="0.25" stroke="none"/>
<circle clip-path="url(#clip012)" cx="1480.87" cy="377.074" r="14" fill="#000000" fill-rule="evenodd" fill-opacity="0.25" stroke="none"/>
<circle clip-path="url(#clip012)" cx="1501.56" cy="367.112" r="14" fill="#000000" fill-rule="evenodd" fill-opacity="0.25" stroke="none"/>
<circle clip-path="url(#clip012)" cx="1522.3" cy="348.44" r="14" fill="#000000" fill-rule="evenodd" fill-opacity="0.25" stroke="none"/>
<circle clip-path="url(#clip012)" cx="1542.99" cy="343.657" r="14" fill="#000000" fill-rule="evenodd" fill-opacity="0.25" stroke="none"/>
<circle clip-path="url(#clip012)" cx="1563.66" cy="335.129" r="14" fill="#000000" fill-rule="evenodd" fill-opacity="0.25" stroke="none"/>
<circle clip-path="url(#clip012)" cx="1584.35" cy="318.849" r="14" fill="#000000" fill-rule="evenodd" fill-opacity="0.25" stroke="none"/>
<circle clip-path="url(#clip012)" cx="1605.02" cy="311.435" r="14" fill="#000000" fill-rule="evenodd" fill-opacity="0.25" stroke="none"/>
<circle clip-path="url(#clip012)" cx="1625.69" cy="303.758" r="14" fill="#000000" fill-rule="evenodd" fill-opacity="0.25" stroke="none"/>
<circle clip-path="url(#clip012)" cx="1646.36" cy="299.345" r="14" fill="#000000" fill-rule="evenodd" fill-opacity="0.25" stroke="none"/>
<circle clip-path="url(#clip012)" cx="1671.31" cy="303.316" r="14" fill="#000000" fill-rule="evenodd" fill-opacity="0.25" stroke="none"/>
<circle clip-path="url(#clip012)" cx="1698.31" cy="294.356" r="14" fill="#000000" fill-rule="evenodd" fill-opacity="0.25" stroke="none"/>
<circle clip-path="url(#clip012)" cx="1727.12" cy="286.835" r="14" fill="#000000" fill-rule="evenodd" fill-opacity="0.25" stroke="none"/>
<circle clip-path="url(#clip012)" cx="1755.91" cy="278.365" r="14" fill="#000000" fill-rule="evenodd" fill-opacity="0.25" stroke="none"/>
<circle clip-path="url(#clip012)" cx="1784.68" cy="256.845" r="14" fill="#000000" fill-rule="evenodd" fill-opacity="0.25" stroke="none"/>
<circle clip-path="url(#clip012)" cx="1813.45" cy="248.955" r="14" fill="#000000" fill-rule="evenodd" fill-opacity="0.25" stroke="none"/>
<circle clip-path="url(#clip012)" cx="1842.24" cy="238.29" r="14" fill="#000000" fill-rule="evenodd" fill-opacity="0.25" stroke="none"/>
<circle clip-path="url(#clip012)" cx="1871" cy="226.115" r="14" fill="#000000" fill-rule="evenodd" fill-opacity="0.25" stroke="none"/>
<circle clip-path="url(#clip012)" cx="1899.84" cy="212.882" r="14" fill="#000000" fill-rule="evenodd" fill-opacity="0.25" stroke="none"/>
<circle clip-path="url(#clip012)" cx="1928.61" cy="213.247" r="14" fill="#000000" fill-rule="evenodd" fill-opacity="0.25" stroke="none"/>
<circle clip-path="url(#clip012)" cx="1957.37" cy="190.707" r="14" fill="#000000" fill-rule="evenodd" fill-opacity="0.25" stroke="none"/>
<circle clip-path="url(#clip012)" cx="1986.16" cy="178.573" r="14" fill="#000000" fill-rule="evenodd" fill-opacity="0.25" stroke="none"/>
<circle clip-path="url(#clip012)" cx="2014.9" cy="160.066" r="14" fill="#000000" fill-rule="evenodd" fill-opacity="0.25" stroke="none"/>
<circle clip-path="url(#clip012)" cx="2043.67" cy="158.45" r="14" fill="#000000" fill-rule="evenodd" fill-opacity="0.25" stroke="none"/>
<circle clip-path="url(#clip012)" cx="2072.44" cy="154.865" r="14" fill="#000000" fill-rule="evenodd" fill-opacity="0.25" stroke="none"/>
<circle clip-path="url(#clip012)" cx="2101.2" cy="151.018" r="14" fill="#000000" fill-rule="evenodd" fill-opacity="0.25" stroke="none"/>
<circle clip-path="url(#clip012)" cx="2129.95" cy="145.67" r="14" fill="#000000" fill-rule="evenodd" fill-opacity="0.25" stroke="none"/>
<circle clip-path="url(#clip012)" cx="2158.76" cy="144.296" r="14" fill="#000000" fill-rule="evenodd" fill-opacity="0.25" stroke="none"/>
<circle clip-path="url(#clip012)" cx="2187.5" cy="118.131" r="14" fill="#000000" fill-rule="evenodd" fill-opacity="0.25" stroke="none"/>
<circle clip-path="url(#clip012)" cx="2216.29" cy="92.3084" r="14" fill="#000000" fill-rule="evenodd" fill-opacity="0.25" stroke="none"/>
<circle clip-path="url(#clip012)" cx="2245.06" cy="86.1857" r="14" fill="#000000" fill-rule="evenodd" fill-opacity="0.25" stroke="none"/>
<circle clip-path="url(#clip012)" cx="2273.83" cy="98.2273" r="14" fill="#000000" fill-rule="evenodd" fill-opacity="0.25" stroke="none"/>
<path clip-path="url(#clip010)" d="
M304.746 404.149 L801.435 404.149 L801.435 93.1086 L304.746 93.1086  Z
  " fill="#ffffff" fill-rule="evenodd" fill-opacity="1"/>
<polyline clip-path="url(#clip010)" style="stroke:#000000; stroke-linecap:butt; stroke-linejoin:round; stroke-width:4; stroke-opacity:1; fill:none" points="
  304.746,404.149 801.435,404.149 801.435,93.1086 304.746,93.1086 304.746,404.149 
  "/>
<polyline clip-path="url(#clip010)" style="stroke:#009af9; stroke-linecap:butt; stroke-linejoin:round; stroke-width:4; stroke-opacity:1; fill:none" points="
  328.746,144.949 472.746,144.949 
  "/>
<path clip-path="url(#clip010)" d="M518.459 146.581 L518.459 162.229 L514.2 162.229 L514.2 146.719 Q514.2 143.039 512.765 141.21 Q511.33 139.382 508.459 139.382 Q505.01 139.382 503.02 141.581 Q501.029 143.78 501.029 147.576 L501.029 162.229 L496.746 162.229 L496.746 136.303 L501.029 136.303 L501.029 140.331 Q502.557 137.993 504.617 136.835 Q506.7 135.678 509.408 135.678 Q513.876 135.678 516.168 138.456 Q518.459 141.21 518.459 146.581 Z" fill="#000000" fill-rule="evenodd" fill-opacity="1" /><path clip-path="url(#clip010)" d="M526.515 151.997 L526.515 136.303 L530.774 136.303 L530.774 151.835 Q530.774 155.516 532.209 157.368 Q533.644 159.196 536.515 159.196 Q539.964 159.196 541.955 156.997 Q543.968 154.798 543.968 151.002 L543.968 136.303 L548.228 136.303 L548.228 162.229 L543.968 162.229 L543.968 158.247 Q542.418 160.608 540.357 161.766 Q538.32 162.9 535.612 162.9 Q531.144 162.9 528.83 160.122 Q526.515 157.344 526.515 151.997 M537.232 135.678 L537.232 135.678 Z" fill="#000000" fill-rule="evenodd" fill-opacity="1" /><path clip-path="url(#clip010)" d="M561.214 128.942 L561.214 136.303 L569.987 136.303 L569.987 139.613 L561.214 139.613 L561.214 153.687 Q561.214 156.858 562.07 157.761 Q562.95 158.664 565.612 158.664 L569.987 158.664 L569.987 162.229 L565.612 162.229 Q560.681 162.229 558.806 160.4 Q556.931 158.548 556.931 153.687 L556.931 139.613 L553.806 139.613 L553.806 136.303 L556.931 136.303 L556.931 128.942 L561.214 128.942 Z" fill="#000000" fill-rule="evenodd" fill-opacity="1" /><path clip-path="url(#clip010)" d="M590.612 140.284 Q589.894 139.868 589.038 139.682 Q588.204 139.474 587.186 139.474 Q583.575 139.474 581.63 141.835 Q579.709 144.173 579.709 148.571 L579.709 162.229 L575.427 162.229 L575.427 136.303 L579.709 136.303 L579.709 140.331 Q581.052 137.969 583.204 136.835 Q585.357 135.678 588.436 135.678 Q588.876 135.678 589.408 135.747 Q589.94 135.794 590.589 135.909 L590.612 140.284 Z" fill="#000000" fill-rule="evenodd" fill-opacity="1" /><path clip-path="url(#clip010)" d="M595.079 136.303 L599.339 136.303 L599.339 162.229 L595.079 162.229 L595.079 136.303 M595.079 126.21 L599.339 126.21 L599.339 131.604 L595.079 131.604 L595.079 126.21 Z" fill="#000000" fill-rule="evenodd" fill-opacity="1" /><path clip-path="url(#clip010)" d="M630.426 148.201 L630.426 150.284 L610.843 150.284 Q611.121 154.682 613.482 156.997 Q615.866 159.289 620.102 159.289 Q622.556 159.289 624.848 158.687 Q627.162 158.085 629.431 156.881 L629.431 160.909 Q627.139 161.881 624.732 162.391 Q622.324 162.9 619.848 162.9 Q613.644 162.9 610.01 159.289 Q606.399 155.678 606.399 149.52 Q606.399 143.155 609.825 139.428 Q613.274 135.678 619.107 135.678 Q624.338 135.678 627.371 139.057 Q630.426 142.414 630.426 148.201 M626.167 146.951 Q626.121 143.456 624.199 141.372 Q622.301 139.289 619.153 139.289 Q615.588 139.289 613.436 141.303 Q611.306 143.317 610.982 146.974 L626.167 146.951 Z" fill="#000000" fill-rule="evenodd" fill-opacity="1" /><path clip-path="url(#clip010)" d="M658.968 146.581 L658.968 162.229 L654.709 162.229 L654.709 146.719 Q654.709 143.039 653.273 141.21 Q651.838 139.382 648.968 139.382 Q645.519 139.382 643.528 141.581 Q641.537 143.78 641.537 147.576 L641.537 162.229 L637.255 162.229 L637.255 136.303 L641.537 136.303 L641.537 140.331 Q643.065 137.993 645.125 136.835 Q647.209 135.678 649.917 135.678 Q654.385 135.678 656.676 138.456 Q658.968 141.21 658.968 146.581 Z" fill="#000000" fill-rule="evenodd" fill-opacity="1" /><path clip-path="url(#clip010)" d="M671.676 128.942 L671.676 136.303 L680.449 136.303 L680.449 139.613 L671.676 139.613 L671.676 153.687 Q671.676 156.858 672.533 157.761 Q673.412 158.664 676.074 158.664 L680.449 158.664 L680.449 162.229 L676.074 162.229 Q671.144 162.229 669.269 160.4 Q667.394 158.548 667.394 153.687 L667.394 139.613 L664.269 139.613 L664.269 136.303 L667.394 136.303 L667.394 128.942 L671.676 128.942 Z" fill="#000000" fill-rule="evenodd" fill-opacity="1" /><path clip-path="url(#clip010)" d="M705.75 170.099 L705.75 173.409 L681.12 173.409 L681.12 170.099 L705.75 170.099 Z" fill="#000000" fill-rule="evenodd" fill-opacity="1" /><path clip-path="url(#clip010)" d="M731.305 146.581 L731.305 162.229 L727.046 162.229 L727.046 146.719 Q727.046 143.039 725.611 141.21 Q724.176 139.382 721.305 139.382 Q717.856 139.382 715.866 141.581 Q713.875 143.78 713.875 147.576 L713.875 162.229 L709.593 162.229 L709.593 136.303 L713.875 136.303 L713.875 140.331 Q715.403 137.993 717.463 136.835 Q719.546 135.678 722.255 135.678 Q726.722 135.678 729.014 138.456 Q731.305 141.21 731.305 146.581 Z" fill="#000000" fill-rule="evenodd" fill-opacity="1" /><polyline clip-path="url(#clip010)" style="stroke:#e26f46; stroke-linecap:butt; stroke-linejoin:round; stroke-width:4; stroke-opacity:1; fill:none" points="
  328.746,196.789 472.746,196.789 
  "/>
<path clip-path="url(#clip010)" d="M496.746 178.05 L501.006 178.05 L501.006 214.069 L496.746 214.069 L496.746 178.05 Z" fill="#000000" fill-rule="evenodd" fill-opacity="1" /><path clip-path="url(#clip010)" d="M519.964 191.129 Q516.538 191.129 514.547 193.814 Q512.557 196.476 512.557 201.129 Q512.557 205.782 514.524 208.467 Q516.515 211.129 519.964 211.129 Q523.367 211.129 525.357 208.444 Q527.348 205.758 527.348 201.129 Q527.348 196.522 525.357 193.837 Q523.367 191.129 519.964 191.129 M519.964 187.518 Q525.519 187.518 528.691 191.129 Q531.862 194.74 531.862 201.129 Q531.862 207.495 528.691 211.129 Q525.519 214.74 519.964 214.74 Q514.385 214.74 511.214 211.129 Q508.066 207.495 508.066 201.129 Q508.066 194.74 511.214 191.129 Q514.385 187.518 519.964 187.518 Z" fill="#000000" fill-rule="evenodd" fill-opacity="1" /><path clip-path="url(#clip010)" d="M555.982 200.805 Q555.982 196.175 554.061 193.629 Q552.163 191.083 548.714 191.083 Q545.288 191.083 543.367 193.629 Q541.468 196.175 541.468 200.805 Q541.468 205.411 543.367 207.958 Q545.288 210.504 548.714 210.504 Q552.163 210.504 554.061 207.958 Q555.982 205.411 555.982 200.805 M560.241 210.851 Q560.241 217.471 557.302 220.689 Q554.362 223.93 548.297 223.93 Q546.052 223.93 544.061 223.582 Q542.07 223.258 540.195 222.564 L540.195 218.42 Q542.07 219.439 543.899 219.925 Q545.728 220.411 547.626 220.411 Q551.816 220.411 553.899 218.212 Q555.982 216.036 555.982 211.615 L555.982 209.508 Q554.663 211.8 552.603 212.934 Q550.542 214.069 547.672 214.069 Q542.904 214.069 539.987 210.434 Q537.07 206.8 537.07 200.805 Q537.07 194.786 539.987 191.152 Q542.904 187.518 547.672 187.518 Q550.542 187.518 552.603 188.652 Q554.663 189.786 555.982 192.078 L555.982 188.143 L560.241 188.143 L560.241 210.851 Z" fill="#000000" fill-rule="evenodd" fill-opacity="1" /><path clip-path="url(#clip010)" d="M569.015 188.143 L573.274 188.143 L573.274 214.069 L569.015 214.069 L569.015 188.143 M569.015 178.05 L573.274 178.05 L573.274 183.444 L569.015 183.444 L569.015 178.05 Z" fill="#000000" fill-rule="evenodd" fill-opacity="1" /><path clip-path="url(#clip010)" d="M598.714 188.907 L598.714 192.934 Q596.908 192.009 594.964 191.546 Q593.019 191.083 590.936 191.083 Q587.764 191.083 586.167 192.055 Q584.593 193.027 584.593 194.971 Q584.593 196.453 585.727 197.309 Q586.862 198.143 590.288 198.907 L591.746 199.231 Q596.283 200.203 598.181 201.985 Q600.102 203.745 600.102 206.916 Q600.102 210.527 597.232 212.633 Q594.385 214.74 589.385 214.74 Q587.302 214.74 585.033 214.323 Q582.788 213.93 580.288 213.12 L580.288 208.721 Q582.649 209.948 584.94 210.573 Q587.232 211.175 589.477 211.175 Q592.487 211.175 594.107 210.157 Q595.727 209.115 595.727 207.24 Q595.727 205.504 594.547 204.578 Q593.389 203.652 589.431 202.796 L587.95 202.448 Q583.991 201.615 582.232 199.902 Q580.473 198.166 580.473 195.157 Q580.473 191.499 583.065 189.509 Q585.658 187.518 590.427 187.518 Q592.788 187.518 594.871 187.865 Q596.954 188.212 598.714 188.907 Z" fill="#000000" fill-rule="evenodd" fill-opacity="1" /><path clip-path="url(#clip010)" d="M611.098 180.782 L611.098 188.143 L619.871 188.143 L619.871 191.453 L611.098 191.453 L611.098 205.527 Q611.098 208.698 611.954 209.601 Q612.834 210.504 615.496 210.504 L619.871 210.504 L619.871 214.069 L615.496 214.069 Q610.565 214.069 608.69 212.24 Q606.815 210.388 606.815 205.527 L606.815 191.453 L603.69 191.453 L603.69 188.143 L606.815 188.143 L606.815 180.782 L611.098 180.782 Z" fill="#000000" fill-rule="evenodd" fill-opacity="1" /><path clip-path="url(#clip010)" d="M625.473 188.143 L629.732 188.143 L629.732 214.069 L625.473 214.069 L625.473 188.143 M625.473 178.05 L629.732 178.05 L629.732 183.444 L625.473 183.444 L625.473 178.05 Z" fill="#000000" fill-rule="evenodd" fill-opacity="1" /><path clip-path="url(#clip010)" d="M657.301 189.138 L657.301 193.12 Q655.496 192.124 653.667 191.638 Q651.861 191.129 650.01 191.129 Q645.866 191.129 643.574 193.768 Q641.283 196.384 641.283 201.129 Q641.283 205.874 643.574 208.513 Q645.866 211.129 650.01 211.129 Q651.861 211.129 653.667 210.643 Q655.496 210.133 657.301 209.138 L657.301 213.073 Q655.519 213.907 653.597 214.323 Q651.699 214.74 649.547 214.74 Q643.69 214.74 640.241 211.059 Q636.792 207.379 636.792 201.129 Q636.792 194.786 640.264 191.152 Q643.76 187.518 649.824 187.518 Q651.792 187.518 653.667 187.935 Q655.542 188.328 657.301 189.138 Z" fill="#000000" fill-rule="evenodd" fill-opacity="1" /><path clip-path="url(#clip010)" d="M684.407 221.939 L684.407 225.249 L659.778 225.249 L659.778 221.939 L684.407 221.939 Z" fill="#000000" fill-rule="evenodd" fill-opacity="1" /><path clip-path="url(#clip010)" d="M709.963 198.421 L709.963 214.069 L705.704 214.069 L705.704 198.559 Q705.704 194.879 704.269 193.05 Q702.833 191.222 699.963 191.222 Q696.514 191.222 694.523 193.421 Q692.532 195.62 692.532 199.416 L692.532 214.069 L688.25 214.069 L688.25 188.143 L692.532 188.143 L692.532 192.171 Q694.06 189.833 696.12 188.675 Q698.204 187.518 700.912 187.518 Q705.38 187.518 707.671 190.296 Q709.963 193.05 709.963 198.421 Z" fill="#000000" fill-rule="evenodd" fill-opacity="1" /><polyline clip-path="url(#clip010)" style="stroke:#3da44d; stroke-linecap:butt; stroke-linejoin:round; stroke-width:4; stroke-opacity:1; fill:none" points="
  328.746,248.629 472.746,248.629 
  "/>
<path clip-path="url(#clip010)" d="M496.746 239.983 L501.006 239.983 L501.006 265.909 L496.746 265.909 L496.746 239.983 M496.746 229.89 L501.006 229.89 L501.006 235.284 L496.746 235.284 L496.746 229.89 Z" fill="#000000" fill-rule="evenodd" fill-opacity="1" /><path clip-path="url(#clip010)" d="M531.469 250.261 L531.469 265.909 L527.209 265.909 L527.209 250.399 Q527.209 246.719 525.774 244.89 Q524.339 243.062 521.469 243.062 Q518.019 243.062 516.029 245.261 Q514.038 247.46 514.038 251.256 L514.038 265.909 L509.756 265.909 L509.756 239.983 L514.038 239.983 L514.038 244.011 Q515.566 241.673 517.626 240.515 Q519.709 239.358 522.418 239.358 Q526.885 239.358 529.177 242.136 Q531.469 244.89 531.469 250.261 Z" fill="#000000" fill-rule="evenodd" fill-opacity="1" /><path clip-path="url(#clip010)" d="M544.177 232.622 L544.177 239.983 L552.95 239.983 L552.95 243.293 L544.177 243.293 L544.177 257.367 Q544.177 260.538 545.033 261.441 Q545.913 262.344 548.575 262.344 L552.95 262.344 L552.95 265.909 L548.575 265.909 Q543.644 265.909 541.769 264.08 Q539.894 262.228 539.894 257.367 L539.894 243.293 L536.769 243.293 L536.769 239.983 L539.894 239.983 L539.894 232.622 L544.177 232.622 Z" fill="#000000" fill-rule="evenodd" fill-opacity="1" /><path clip-path="url(#clip010)" d="M580.727 251.881 L580.727 253.964 L561.144 253.964 Q561.422 258.362 563.783 260.677 Q566.167 262.969 570.403 262.969 Q572.857 262.969 575.149 262.367 Q577.464 261.765 579.732 260.561 L579.732 264.589 Q577.44 265.561 575.033 266.071 Q572.626 266.58 570.149 266.58 Q563.945 266.58 560.311 262.969 Q556.7 259.358 556.7 253.2 Q556.7 246.835 560.126 243.108 Q563.575 239.358 569.408 239.358 Q574.64 239.358 577.672 242.737 Q580.727 246.094 580.727 251.881 M576.468 250.631 Q576.422 247.136 574.501 245.052 Q572.603 242.969 569.454 242.969 Q565.89 242.969 563.737 244.983 Q561.607 246.997 561.283 250.654 L576.468 250.631 Z" fill="#000000" fill-rule="evenodd" fill-opacity="1" /><path clip-path="url(#clip010)" d="M602.741 243.964 Q602.024 243.548 601.167 243.362 Q600.334 243.154 599.315 243.154 Q595.704 243.154 593.76 245.515 Q591.839 247.853 591.839 252.251 L591.839 265.909 L587.556 265.909 L587.556 239.983 L591.839 239.983 L591.839 244.011 Q593.181 241.649 595.334 240.515 Q597.487 239.358 600.565 239.358 Q601.005 239.358 601.538 239.427 Q602.07 239.474 602.718 239.589 L602.741 243.964 Z" fill="#000000" fill-rule="evenodd" fill-opacity="1" /><path clip-path="url(#clip010)" d="M620.334 229.89 L620.334 233.432 L616.26 233.432 Q613.968 233.432 613.065 234.358 Q612.186 235.284 612.186 237.691 L612.186 239.983 L619.2 239.983 L619.2 243.293 L612.186 243.293 L612.186 265.909 L607.903 265.909 L607.903 243.293 L603.829 243.293 L603.829 239.983 L607.903 239.983 L607.903 238.177 Q607.903 233.849 609.917 231.881 Q611.931 229.89 616.306 229.89 L620.334 229.89 Z" fill="#000000" fill-rule="evenodd" fill-opacity="1" /><path clip-path="url(#clip010)" d="M635.681 252.876 Q630.519 252.876 628.528 254.057 Q626.537 255.237 626.537 258.085 Q626.537 260.353 628.019 261.696 Q629.524 263.015 632.093 263.015 Q635.635 263.015 637.764 260.515 Q639.917 257.992 639.917 253.825 L639.917 252.876 L635.681 252.876 M644.176 251.117 L644.176 265.909 L639.917 265.909 L639.917 261.973 Q638.459 264.335 636.283 265.469 Q634.107 266.58 630.959 266.58 Q626.977 266.58 624.616 264.358 Q622.278 262.112 622.278 258.362 Q622.278 253.987 625.195 251.765 Q628.135 249.543 633.945 249.543 L639.917 249.543 L639.917 249.126 Q639.917 246.187 637.973 244.589 Q636.051 242.969 632.556 242.969 Q630.334 242.969 628.227 243.501 Q626.121 244.034 624.176 245.099 L624.176 241.163 Q626.514 240.261 628.713 239.821 Q630.912 239.358 632.996 239.358 Q638.621 239.358 641.398 242.274 Q644.176 245.191 644.176 251.117 Z" fill="#000000" fill-rule="evenodd" fill-opacity="1" /><path clip-path="url(#clip010)" d="M671.607 240.978 L671.607 244.96 Q669.801 243.964 667.972 243.478 Q666.167 242.969 664.315 242.969 Q660.172 242.969 657.88 245.608 Q655.588 248.224 655.588 252.969 Q655.588 257.714 657.88 260.353 Q660.172 262.969 664.315 262.969 Q666.167 262.969 667.972 262.483 Q669.801 261.973 671.607 260.978 L671.607 264.913 Q669.824 265.747 667.903 266.163 Q666.005 266.58 663.852 266.58 Q657.996 266.58 654.547 262.899 Q651.097 259.219 651.097 252.969 Q651.097 246.626 654.57 242.992 Q658.065 239.358 664.13 239.358 Q666.097 239.358 667.972 239.775 Q669.847 240.168 671.607 240.978 Z" fill="#000000" fill-rule="evenodd" fill-opacity="1" /><path clip-path="url(#clip010)" d="M701.19 251.881 L701.19 253.964 L681.607 253.964 Q681.884 258.362 684.245 260.677 Q686.63 262.969 690.866 262.969 Q693.319 262.969 695.611 262.367 Q697.926 261.765 700.194 260.561 L700.194 264.589 Q697.903 265.561 695.495 266.071 Q693.088 266.58 690.611 266.58 Q684.407 266.58 680.773 262.969 Q677.162 259.358 677.162 253.2 Q677.162 246.835 680.588 243.108 Q684.037 239.358 689.87 239.358 Q695.102 239.358 698.134 242.737 Q701.19 246.094 701.19 251.881 M696.931 250.631 Q696.884 247.136 694.963 245.052 Q693.065 242.969 689.917 242.969 Q686.352 242.969 684.199 244.983 Q682.07 246.997 681.745 250.654 L696.931 250.631 Z" fill="#000000" fill-rule="evenodd" fill-opacity="1" /><path clip-path="url(#clip010)" d="M727.879 273.779 L727.879 277.089 L703.25 277.089 L703.25 273.779 L727.879 273.779 Z" fill="#000000" fill-rule="evenodd" fill-opacity="1" /><path clip-path="url(#clip010)" d="M753.435 250.261 L753.435 265.909 L749.176 265.909 L749.176 250.399 Q749.176 246.719 747.74 244.89 Q746.305 243.062 743.435 243.062 Q739.986 243.062 737.995 245.261 Q736.004 247.46 736.004 251.256 L736.004 265.909 L731.722 265.909 L731.722 239.983 L736.004 239.983 L736.004 244.011 Q737.532 241.673 739.592 240.515 Q741.676 239.358 744.384 239.358 Q748.852 239.358 751.143 242.136 Q753.435 244.89 753.435 250.261 Z" fill="#000000" fill-rule="evenodd" fill-opacity="1" /><polyline clip-path="url(#clip010)" style="stroke:#e26f46; stroke-linecap:butt; stroke-linejoin:round; stroke-width:4; stroke-opacity:1; fill:none" stroke-dasharray="16, 10" points="
  328.746,300.469 472.746,300.469 
  "/>
<path clip-path="url(#clip010)" d="M496.746 281.73 L501.006 281.73 L501.006 317.749 L496.746 317.749 L496.746 281.73 Z" fill="#000000" fill-rule="evenodd" fill-opacity="1" /><path clip-path="url(#clip010)" d="M519.964 294.809 Q516.538 294.809 514.547 297.494 Q512.557 300.156 512.557 304.809 Q512.557 309.462 514.524 312.147 Q516.515 314.809 519.964 314.809 Q523.367 314.809 525.357 312.124 Q527.348 309.438 527.348 304.809 Q527.348 300.202 525.357 297.517 Q523.367 294.809 519.964 294.809 M519.964 291.198 Q525.519 291.198 528.691 294.809 Q531.862 298.42 531.862 304.809 Q531.862 311.175 528.691 314.809 Q525.519 318.42 519.964 318.42 Q514.385 318.42 511.214 314.809 Q508.066 311.175 508.066 304.809 Q508.066 298.42 511.214 294.809 Q514.385 291.198 519.964 291.198 Z" fill="#000000" fill-rule="evenodd" fill-opacity="1" /><path clip-path="url(#clip010)" d="M555.982 304.485 Q555.982 299.855 554.061 297.309 Q552.163 294.763 548.714 294.763 Q545.288 294.763 543.367 297.309 Q541.468 299.855 541.468 304.485 Q541.468 309.091 543.367 311.638 Q545.288 314.184 548.714 314.184 Q552.163 314.184 554.061 311.638 Q555.982 309.091 555.982 304.485 M560.241 314.531 Q560.241 321.151 557.302 324.369 Q554.362 327.61 548.297 327.61 Q546.052 327.61 544.061 327.262 Q542.07 326.938 540.195 326.244 L540.195 322.1 Q542.07 323.119 543.899 323.605 Q545.728 324.091 547.626 324.091 Q551.816 324.091 553.899 321.892 Q555.982 319.716 555.982 315.295 L555.982 313.188 Q554.663 315.48 552.603 316.614 Q550.542 317.749 547.672 317.749 Q542.904 317.749 539.987 314.114 Q537.07 310.48 537.07 304.485 Q537.07 298.466 539.987 294.832 Q542.904 291.198 547.672 291.198 Q550.542 291.198 552.603 292.332 Q554.663 293.466 555.982 295.758 L555.982 291.823 L560.241 291.823 L560.241 314.531 Z" fill="#000000" fill-rule="evenodd" fill-opacity="1" /><path clip-path="url(#clip010)" d="M569.015 291.823 L573.274 291.823 L573.274 317.749 L569.015 317.749 L569.015 291.823 M569.015 281.73 L573.274 281.73 L573.274 287.124 L569.015 287.124 L569.015 281.73 Z" fill="#000000" fill-rule="evenodd" fill-opacity="1" /><path clip-path="url(#clip010)" d="M598.714 292.587 L598.714 296.614 Q596.908 295.689 594.964 295.226 Q593.019 294.763 590.936 294.763 Q587.764 294.763 586.167 295.735 Q584.593 296.707 584.593 298.651 Q584.593 300.133 585.727 300.989 Q586.862 301.823 590.288 302.587 L591.746 302.911 Q596.283 303.883 598.181 305.665 Q600.102 307.425 600.102 310.596 Q600.102 314.207 597.232 316.313 Q594.385 318.42 589.385 318.42 Q587.302 318.42 585.033 318.003 Q582.788 317.61 580.288 316.8 L580.288 312.401 Q582.649 313.628 584.94 314.253 Q587.232 314.855 589.477 314.855 Q592.487 314.855 594.107 313.837 Q595.727 312.795 595.727 310.92 Q595.727 309.184 594.547 308.258 Q593.389 307.332 589.431 306.476 L587.95 306.128 Q583.991 305.295 582.232 303.582 Q580.473 301.846 580.473 298.837 Q580.473 295.179 583.065 293.189 Q585.658 291.198 590.427 291.198 Q592.788 291.198 594.871 291.545 Q596.954 291.892 598.714 292.587 Z" fill="#000000" fill-rule="evenodd" fill-opacity="1" /><path clip-path="url(#clip010)" d="M611.098 284.462 L611.098 291.823 L619.871 291.823 L619.871 295.133 L611.098 295.133 L611.098 309.207 Q611.098 312.378 611.954 313.281 Q612.834 314.184 615.496 314.184 L619.871 314.184 L619.871 317.749 L615.496 317.749 Q610.565 317.749 608.69 315.92 Q606.815 314.068 606.815 309.207 L606.815 295.133 L603.69 295.133 L603.69 291.823 L606.815 291.823 L606.815 284.462 L611.098 284.462 Z" fill="#000000" fill-rule="evenodd" fill-opacity="1" /><path clip-path="url(#clip010)" d="M625.473 291.823 L629.732 291.823 L629.732 317.749 L625.473 317.749 L625.473 291.823 M625.473 281.73 L629.732 281.73 L629.732 287.124 L625.473 287.124 L625.473 281.73 Z" fill="#000000" fill-rule="evenodd" fill-opacity="1" /><path clip-path="url(#clip010)" d="M657.301 292.818 L657.301 296.8 Q655.496 295.804 653.667 295.318 Q651.861 294.809 650.01 294.809 Q645.866 294.809 643.574 297.448 Q641.283 300.064 641.283 304.809 Q641.283 309.554 643.574 312.193 Q645.866 314.809 650.01 314.809 Q651.861 314.809 653.667 314.323 Q655.496 313.813 657.301 312.818 L657.301 316.753 Q655.519 317.587 653.597 318.003 Q651.699 318.42 649.547 318.42 Q643.69 318.42 640.241 314.739 Q636.792 311.059 636.792 304.809 Q636.792 298.466 640.264 294.832 Q643.76 291.198 649.824 291.198 Q651.792 291.198 653.667 291.615 Q655.542 292.008 657.301 292.818 Z" fill="#000000" fill-rule="evenodd" fill-opacity="1" /><polyline clip-path="url(#clip010)" style="stroke:#3da44d; stroke-linecap:butt; stroke-linejoin:round; stroke-width:4; stroke-opacity:1; fill:none" stroke-dasharray="16, 10" points="
  328.746,352.309 472.746,352.309 
  "/>
<path clip-path="url(#clip010)" d="M496.746 343.663 L501.006 343.663 L501.006 369.589 L496.746 369.589 L496.746 343.663 M496.746 333.57 L501.006 333.57 L501.006 338.964 L496.746 338.964 L496.746 333.57 Z" fill="#000000" fill-rule="evenodd" fill-opacity="1" /><path clip-path="url(#clip010)" d="M531.469 353.941 L531.469 369.589 L527.209 369.589 L527.209 354.079 Q527.209 350.399 525.774 348.57 Q524.339 346.742 521.469 346.742 Q518.019 346.742 516.029 348.941 Q514.038 351.14 514.038 354.936 L514.038 369.589 L509.756 369.589 L509.756 343.663 L514.038 343.663 L514.038 347.691 Q515.566 345.353 517.626 344.195 Q519.709 343.038 522.418 343.038 Q526.885 343.038 529.177 345.816 Q531.469 348.57 531.469 353.941 Z" fill="#000000" fill-rule="evenodd" fill-opacity="1" /><path clip-path="url(#clip010)" d="M544.177 336.302 L544.177 343.663 L552.95 343.663 L552.95 346.973 L544.177 346.973 L544.177 361.047 Q544.177 364.218 545.033 365.121 Q545.913 366.024 548.575 366.024 L552.95 366.024 L552.95 369.589 L548.575 369.589 Q543.644 369.589 541.769 367.76 Q539.894 365.908 539.894 361.047 L539.894 346.973 L536.769 346.973 L536.769 343.663 L539.894 343.663 L539.894 336.302 L544.177 336.302 Z" fill="#000000" fill-rule="evenodd" fill-opacity="1" /><path clip-path="url(#clip010)" d="M580.727 355.561 L580.727 357.644 L561.144 357.644 Q561.422 362.042 563.783 364.357 Q566.167 366.649 570.403 366.649 Q572.857 366.649 575.149 366.047 Q577.464 365.445 579.732 364.241 L579.732 368.269 Q577.44 369.241 575.033 369.751 Q572.626 370.26 570.149 370.26 Q563.945 370.26 560.311 366.649 Q556.7 363.038 556.7 356.88 Q556.7 350.515 560.126 346.788 Q563.575 343.038 569.408 343.038 Q574.64 343.038 577.672 346.417 Q580.727 349.774 580.727 355.561 M576.468 354.311 Q576.422 350.816 574.501 348.732 Q572.603 346.649 569.454 346.649 Q565.89 346.649 563.737 348.663 Q561.607 350.677 561.283 354.334 L576.468 354.311 Z" fill="#000000" fill-rule="evenodd" fill-opacity="1" /><path clip-path="url(#clip010)" d="M602.741 347.644 Q602.024 347.228 601.167 347.042 Q600.334 346.834 599.315 346.834 Q595.704 346.834 593.76 349.195 Q591.839 351.533 591.839 355.931 L591.839 369.589 L587.556 369.589 L587.556 343.663 L591.839 343.663 L591.839 347.691 Q593.181 345.329 595.334 344.195 Q597.487 343.038 600.565 343.038 Q601.005 343.038 601.538 343.107 Q602.07 343.154 602.718 343.269 L602.741 347.644 Z" fill="#000000" fill-rule="evenodd" fill-opacity="1" /><path clip-path="url(#clip010)" d="M620.334 333.57 L620.334 337.112 L616.26 337.112 Q613.968 337.112 613.065 338.038 Q612.186 338.964 612.186 341.371 L612.186 343.663 L619.2 343.663 L619.2 346.973 L612.186 346.973 L612.186 369.589 L607.903 369.589 L607.903 346.973 L603.829 346.973 L603.829 343.663 L607.903 343.663 L607.903 341.857 Q607.903 337.529 609.917 335.561 Q611.931 333.57 616.306 333.57 L620.334 333.57 Z" fill="#000000" fill-rule="evenodd" fill-opacity="1" /><path clip-path="url(#clip010)" d="M635.681 356.556 Q630.519 356.556 628.528 357.737 Q626.537 358.917 626.537 361.765 Q626.537 364.033 628.019 365.376 Q629.524 366.695 632.093 366.695 Q635.635 366.695 637.764 364.195 Q639.917 361.672 639.917 357.505 L639.917 356.556 L635.681 356.556 M644.176 354.797 L644.176 369.589 L639.917 369.589 L639.917 365.653 Q638.459 368.015 636.283 369.149 Q634.107 370.26 630.959 370.26 Q626.977 370.26 624.616 368.038 Q622.278 365.792 622.278 362.042 Q622.278 357.667 625.195 355.445 Q628.135 353.223 633.945 353.223 L639.917 353.223 L639.917 352.806 Q639.917 349.867 637.973 348.269 Q636.051 346.649 632.556 346.649 Q630.334 346.649 628.227 347.181 Q626.121 347.714 624.176 348.779 L624.176 344.843 Q626.514 343.941 628.713 343.501 Q630.912 343.038 632.996 343.038 Q638.621 343.038 641.398 345.954 Q644.176 348.871 644.176 354.797 Z" fill="#000000" fill-rule="evenodd" fill-opacity="1" /><path clip-path="url(#clip010)" d="M671.607 344.658 L671.607 348.64 Q669.801 347.644 667.972 347.158 Q666.167 346.649 664.315 346.649 Q660.172 346.649 657.88 349.288 Q655.588 351.904 655.588 356.649 Q655.588 361.394 657.88 364.033 Q660.172 366.649 664.315 366.649 Q666.167 366.649 667.972 366.163 Q669.801 365.653 671.607 364.658 L671.607 368.593 Q669.824 369.427 667.903 369.843 Q666.005 370.26 663.852 370.26 Q657.996 370.26 654.547 366.579 Q651.097 362.899 651.097 356.649 Q651.097 350.306 654.57 346.672 Q658.065 343.038 664.13 343.038 Q666.097 343.038 667.972 343.455 Q669.847 343.848 671.607 344.658 Z" fill="#000000" fill-rule="evenodd" fill-opacity="1" /><path clip-path="url(#clip010)" d="M701.19 355.561 L701.19 357.644 L681.607 357.644 Q681.884 362.042 684.245 364.357 Q686.63 366.649 690.866 366.649 Q693.319 366.649 695.611 366.047 Q697.926 365.445 700.194 364.241 L700.194 368.269 Q697.903 369.241 695.495 369.751 Q693.088 370.26 690.611 370.26 Q684.407 370.26 680.773 366.649 Q677.162 363.038 677.162 356.88 Q677.162 350.515 680.588 346.788 Q684.037 343.038 689.87 343.038 Q695.102 343.038 698.134 346.417 Q701.19 349.774 701.19 355.561 M696.931 354.311 Q696.884 350.816 694.963 348.732 Q693.065 346.649 689.917 346.649 Q686.352 346.649 684.199 348.663 Q682.07 350.677 681.745 354.334 L696.931 354.311 Z" fill="#000000" fill-rule="evenodd" fill-opacity="1" /></svg>
