<?xml version="1.0" encoding="utf-8" standalone="no"?>
<!DOCTYPE svg PUBLIC "-//W3C//DTD SVG 1.1//EN"
  "http://www.w3.org/Graphics/SVG/1.1/DTD/svg11.dtd">
<svg xmlns:xlink="http://www.w3.org/1999/xlink" width="576pt" height="288pt" viewBox="0 0 576 288" xmlns="http://www.w3.org/2000/svg" version="1.1">
 <metadata>
  <rdf:RDF xmlns:dc="http://purl.org/dc/elements/1.1/" xmlns:cc="http://creativecommons.org/ns#" xmlns:rdf="http://www.w3.org/1999/02/22-rdf-syntax-ns#">
   <cc:Work>
    <dc:type rdf:resource="http://purl.org/dc/dcmitype/StillImage"/>
    <dc:date>2022-01-03T12:24:51.051057</dc:date>
    <dc:format>image/svg+xml</dc:format>
    <dc:creator>
     <cc:Agent>
      <dc:title>Matplotlib v3.5.1, https://matplotlib.org/</dc:title>
     </cc:Agent>
    </dc:creator>
   </cc:Work>
  </rdf:RDF>
 </metadata>
 <defs>
  <style type="text/css">*{stroke-linejoin: round; stroke-linecap: butt}</style>
 </defs>
 <g id="figure_1">
  <g id="patch_1">
   <path d="M 0 288 
L 576 288 
L 576 0 
L 0 0 
L 0 288 
z
" style="fill: none"/>
  </g>
  <g id="axes_1">
   <g id="patch_2">
    <path d="M 66.425 238.2 
L 565.2 238.2 
L 565.2 16.3 
L 66.425 16.3 
z
" style="fill: #ffffff"/>
   </g>
   <g id="matplotlib.axis_1">
    <g id="xtick_1">
     <g id="line2d_1">
      <defs>
       <path id="mcf17392892" d="M 0 0 
L 0 3.5 
" style="stroke: #000000; stroke-width: 0.8"/>
      </defs>
      <g>
       <use xlink:href="#mcf17392892" x="79.239377" y="238.2" style="stroke: #000000; stroke-width: 0.8"/>
      </g>
     </g>
     <g id="text_1">
      <!-- 0 -->
      <g transform="translate(74.785627 255.837813)scale(0.14 -0.14)">
       <defs>
        <path id="DejaVuSans-30" d="M 2034 4250 
Q 1547 4250 1301 3770 
Q 1056 3291 1056 2328 
Q 1056 1369 1301 889 
Q 1547 409 2034 409 
Q 2525 409 2770 889 
Q 3016 1369 3016 2328 
Q 3016 3291 2770 3770 
Q 2525 4250 2034 4250 
z
M 2034 4750 
Q 2819 4750 3233 4129 
Q 3647 3509 3647 2328 
Q 3647 1150 3233 529 
Q 2819 -91 2034 -91 
Q 1250 -91 836 529 
Q 422 1150 422 2328 
Q 422 3509 836 4129 
Q 1250 4750 2034 4750 
z
" transform="scale(0.015625)"/>
       </defs>
       <use xlink:href="#DejaVuSans-30"/>
      </g>
     </g>
    </g>
    <g id="xtick_2">
     <g id="line2d_2">
      <g>
       <use xlink:href="#mcf17392892" x="177.811512" y="238.2" style="stroke: #000000; stroke-width: 0.8"/>
      </g>
     </g>
     <g id="text_2">
      <!-- 10 -->
      <g transform="translate(168.904012 255.837813)scale(0.14 -0.14)">
       <defs>
        <path id="DejaVuSans-31" d="M 794 531 
L 1825 531 
L 1825 4091 
L 703 3866 
L 703 4441 
L 1819 4666 
L 2450 4666 
L 2450 531 
L 3481 531 
L 3481 0 
L 794 0 
L 794 531 
z
" transform="scale(0.015625)"/>
       </defs>
       <use xlink:href="#DejaVuSans-31"/>
       <use xlink:href="#DejaVuSans-30" x="63.623047"/>
      </g>
     </g>
    </g>
    <g id="xtick_3">
     <g id="line2d_3">
      <g>
       <use xlink:href="#mcf17392892" x="276.383646" y="238.2" style="stroke: #000000; stroke-width: 0.8"/>
      </g>
     </g>
     <g id="text_3">
      <!-- 20 -->
      <g transform="translate(267.476146 255.837813)scale(0.14 -0.14)">
       <defs>
        <path id="DejaVuSans-32" d="M 1228 531 
L 3431 531 
L 3431 0 
L 469 0 
L 469 531 
Q 828 903 1448 1529 
Q 2069 2156 2228 2338 
Q 2531 2678 2651 2914 
Q 2772 3150 2772 3378 
Q 2772 3750 2511 3984 
Q 2250 4219 1831 4219 
Q 1534 4219 1204 4116 
Q 875 4013 500 3803 
L 500 4441 
Q 881 4594 1212 4672 
Q 1544 4750 1819 4750 
Q 2544 4750 2975 4387 
Q 3406 4025 3406 3419 
Q 3406 3131 3298 2873 
Q 3191 2616 2906 2266 
Q 2828 2175 2409 1742 
Q 1991 1309 1228 531 
z
" transform="scale(0.015625)"/>
       </defs>
       <use xlink:href="#DejaVuSans-32"/>
       <use xlink:href="#DejaVuSans-30" x="63.623047"/>
      </g>
     </g>
    </g>
    <g id="xtick_4">
     <g id="line2d_4">
      <g>
       <use xlink:href="#mcf17392892" x="374.955781" y="238.2" style="stroke: #000000; stroke-width: 0.8"/>
      </g>
     </g>
     <g id="text_4">
      <!-- 30 -->
      <g transform="translate(366.048281 255.837813)scale(0.14 -0.14)">
       <defs>
        <path id="DejaVuSans-33" d="M 2597 2516 
Q 3050 2419 3304 2112 
Q 3559 1806 3559 1356 
Q 3559 666 3084 287 
Q 2609 -91 1734 -91 
Q 1441 -91 1130 -33 
Q 819 25 488 141 
L 488 750 
Q 750 597 1062 519 
Q 1375 441 1716 441 
Q 2309 441 2620 675 
Q 2931 909 2931 1356 
Q 2931 1769 2642 2001 
Q 2353 2234 1838 2234 
L 1294 2234 
L 1294 2753 
L 1863 2753 
Q 2328 2753 2575 2939 
Q 2822 3125 2822 3475 
Q 2822 3834 2567 4026 
Q 2313 4219 1838 4219 
Q 1578 4219 1281 4162 
Q 984 4106 628 3988 
L 628 4550 
Q 988 4650 1302 4700 
Q 1616 4750 1894 4750 
Q 2613 4750 3031 4423 
Q 3450 4097 3450 3541 
Q 3450 3153 3228 2886 
Q 3006 2619 2597 2516 
z
" transform="scale(0.015625)"/>
       </defs>
       <use xlink:href="#DejaVuSans-33"/>
       <use xlink:href="#DejaVuSans-30" x="63.623047"/>
      </g>
     </g>
    </g>
    <g id="xtick_5">
     <g id="line2d_5">
      <g>
       <use xlink:href="#mcf17392892" x="473.527915" y="238.2" style="stroke: #000000; stroke-width: 0.8"/>
      </g>
     </g>
     <g id="text_5">
      <!-- 40 -->
      <g transform="translate(464.620415 255.837813)scale(0.14 -0.14)">
       <defs>
        <path id="DejaVuSans-34" d="M 2419 4116 
L 825 1625 
L 2419 1625 
L 2419 4116 
z
M 2253 4666 
L 3047 4666 
L 3047 1625 
L 3713 1625 
L 3713 1100 
L 3047 1100 
L 3047 0 
L 2419 0 
L 2419 1100 
L 313 1100 
L 313 1709 
L 2253 4666 
z
" transform="scale(0.015625)"/>
       </defs>
       <use xlink:href="#DejaVuSans-34"/>
       <use xlink:href="#DejaVuSans-30" x="63.623047"/>
      </g>
     </g>
    </g>
    <g id="text_6">
     <!-- Sample (sorted) -->
     <g transform="translate(259.575156 273.387188)scale(0.14 -0.14)">
      <defs>
       <path id="DejaVuSans-53" d="M 3425 4513 
L 3425 3897 
Q 3066 4069 2747 4153 
Q 2428 4238 2131 4238 
Q 1616 4238 1336 4038 
Q 1056 3838 1056 3469 
Q 1056 3159 1242 3001 
Q 1428 2844 1947 2747 
L 2328 2669 
Q 3034 2534 3370 2195 
Q 3706 1856 3706 1288 
Q 3706 609 3251 259 
Q 2797 -91 1919 -91 
Q 1588 -91 1214 -16 
Q 841 59 441 206 
L 441 856 
Q 825 641 1194 531 
Q 1563 422 1919 422 
Q 2459 422 2753 634 
Q 3047 847 3047 1241 
Q 3047 1584 2836 1778 
Q 2625 1972 2144 2069 
L 1759 2144 
Q 1053 2284 737 2584 
Q 422 2884 422 3419 
Q 422 4038 858 4394 
Q 1294 4750 2059 4750 
Q 2388 4750 2728 4690 
Q 3069 4631 3425 4513 
z
" transform="scale(0.015625)"/>
       <path id="DejaVuSans-61" d="M 2194 1759 
Q 1497 1759 1228 1600 
Q 959 1441 959 1056 
Q 959 750 1161 570 
Q 1363 391 1709 391 
Q 2188 391 2477 730 
Q 2766 1069 2766 1631 
L 2766 1759 
L 2194 1759 
z
M 3341 1997 
L 3341 0 
L 2766 0 
L 2766 531 
Q 2569 213 2275 61 
Q 1981 -91 1556 -91 
Q 1019 -91 701 211 
Q 384 513 384 1019 
Q 384 1609 779 1909 
Q 1175 2209 1959 2209 
L 2766 2209 
L 2766 2266 
Q 2766 2663 2505 2880 
Q 2244 3097 1772 3097 
Q 1472 3097 1187 3025 
Q 903 2953 641 2809 
L 641 3341 
Q 956 3463 1253 3523 
Q 1550 3584 1831 3584 
Q 2591 3584 2966 3190 
Q 3341 2797 3341 1997 
z
" transform="scale(0.015625)"/>
       <path id="DejaVuSans-6d" d="M 3328 2828 
Q 3544 3216 3844 3400 
Q 4144 3584 4550 3584 
Q 5097 3584 5394 3201 
Q 5691 2819 5691 2113 
L 5691 0 
L 5113 0 
L 5113 2094 
Q 5113 2597 4934 2840 
Q 4756 3084 4391 3084 
Q 3944 3084 3684 2787 
Q 3425 2491 3425 1978 
L 3425 0 
L 2847 0 
L 2847 2094 
Q 2847 2600 2669 2842 
Q 2491 3084 2119 3084 
Q 1678 3084 1418 2786 
Q 1159 2488 1159 1978 
L 1159 0 
L 581 0 
L 581 3500 
L 1159 3500 
L 1159 2956 
Q 1356 3278 1631 3431 
Q 1906 3584 2284 3584 
Q 2666 3584 2933 3390 
Q 3200 3197 3328 2828 
z
" transform="scale(0.015625)"/>
       <path id="DejaVuSans-70" d="M 1159 525 
L 1159 -1331 
L 581 -1331 
L 581 3500 
L 1159 3500 
L 1159 2969 
Q 1341 3281 1617 3432 
Q 1894 3584 2278 3584 
Q 2916 3584 3314 3078 
Q 3713 2572 3713 1747 
Q 3713 922 3314 415 
Q 2916 -91 2278 -91 
Q 1894 -91 1617 61 
Q 1341 213 1159 525 
z
M 3116 1747 
Q 3116 2381 2855 2742 
Q 2594 3103 2138 3103 
Q 1681 3103 1420 2742 
Q 1159 2381 1159 1747 
Q 1159 1113 1420 752 
Q 1681 391 2138 391 
Q 2594 391 2855 752 
Q 3116 1113 3116 1747 
z
" transform="scale(0.015625)"/>
       <path id="DejaVuSans-6c" d="M 603 4863 
L 1178 4863 
L 1178 0 
L 603 0 
L 603 4863 
z
" transform="scale(0.015625)"/>
       <path id="DejaVuSans-65" d="M 3597 1894 
L 3597 1613 
L 953 1613 
Q 991 1019 1311 708 
Q 1631 397 2203 397 
Q 2534 397 2845 478 
Q 3156 559 3463 722 
L 3463 178 
Q 3153 47 2828 -22 
Q 2503 -91 2169 -91 
Q 1331 -91 842 396 
Q 353 884 353 1716 
Q 353 2575 817 3079 
Q 1281 3584 2069 3584 
Q 2775 3584 3186 3129 
Q 3597 2675 3597 1894 
z
M 3022 2063 
Q 3016 2534 2758 2815 
Q 2500 3097 2075 3097 
Q 1594 3097 1305 2825 
Q 1016 2553 972 2059 
L 3022 2063 
z
" transform="scale(0.015625)"/>
       <path id="DejaVuSans-20" transform="scale(0.015625)"/>
       <path id="DejaVuSans-28" d="M 1984 4856 
Q 1566 4138 1362 3434 
Q 1159 2731 1159 2009 
Q 1159 1288 1364 580 
Q 1569 -128 1984 -844 
L 1484 -844 
Q 1016 -109 783 600 
Q 550 1309 550 2009 
Q 550 2706 781 3412 
Q 1013 4119 1484 4856 
L 1984 4856 
z
" transform="scale(0.015625)"/>
       <path id="DejaVuSans-73" d="M 2834 3397 
L 2834 2853 
Q 2591 2978 2328 3040 
Q 2066 3103 1784 3103 
Q 1356 3103 1142 2972 
Q 928 2841 928 2578 
Q 928 2378 1081 2264 
Q 1234 2150 1697 2047 
L 1894 2003 
Q 2506 1872 2764 1633 
Q 3022 1394 3022 966 
Q 3022 478 2636 193 
Q 2250 -91 1575 -91 
Q 1294 -91 989 -36 
Q 684 19 347 128 
L 347 722 
Q 666 556 975 473 
Q 1284 391 1588 391 
Q 1994 391 2212 530 
Q 2431 669 2431 922 
Q 2431 1156 2273 1281 
Q 2116 1406 1581 1522 
L 1381 1569 
Q 847 1681 609 1914 
Q 372 2147 372 2553 
Q 372 3047 722 3315 
Q 1072 3584 1716 3584 
Q 2034 3584 2315 3537 
Q 2597 3491 2834 3397 
z
" transform="scale(0.015625)"/>
       <path id="DejaVuSans-6f" d="M 1959 3097 
Q 1497 3097 1228 2736 
Q 959 2375 959 1747 
Q 959 1119 1226 758 
Q 1494 397 1959 397 
Q 2419 397 2687 759 
Q 2956 1122 2956 1747 
Q 2956 2369 2687 2733 
Q 2419 3097 1959 3097 
z
M 1959 3584 
Q 2709 3584 3137 3096 
Q 3566 2609 3566 1747 
Q 3566 888 3137 398 
Q 2709 -91 1959 -91 
Q 1206 -91 779 398 
Q 353 888 353 1747 
Q 353 2609 779 3096 
Q 1206 3584 1959 3584 
z
" transform="scale(0.015625)"/>
       <path id="DejaVuSans-72" d="M 2631 2963 
Q 2534 3019 2420 3045 
Q 2306 3072 2169 3072 
Q 1681 3072 1420 2755 
Q 1159 2438 1159 1844 
L 1159 0 
L 581 0 
L 581 3500 
L 1159 3500 
L 1159 2956 
Q 1341 3275 1631 3429 
Q 1922 3584 2338 3584 
Q 2397 3584 2469 3576 
Q 2541 3569 2628 3553 
L 2631 2963 
z
" transform="scale(0.015625)"/>
       <path id="DejaVuSans-74" d="M 1172 4494 
L 1172 3500 
L 2356 3500 
L 2356 3053 
L 1172 3053 
L 1172 1153 
Q 1172 725 1289 603 
Q 1406 481 1766 481 
L 2356 481 
L 2356 0 
L 1766 0 
Q 1100 0 847 248 
Q 594 497 594 1153 
L 594 3053 
L 172 3053 
L 172 3500 
L 594 3500 
L 594 4494 
L 1172 4494 
z
" transform="scale(0.015625)"/>
       <path id="DejaVuSans-64" d="M 2906 2969 
L 2906 4863 
L 3481 4863 
L 3481 0 
L 2906 0 
L 2906 525 
Q 2725 213 2448 61 
Q 2172 -91 1784 -91 
Q 1150 -91 751 415 
Q 353 922 353 1747 
Q 353 2572 751 3078 
Q 1150 3584 1784 3584 
Q 2172 3584 2448 3432 
Q 2725 3281 2906 2969 
z
M 947 1747 
Q 947 1113 1208 752 
Q 1469 391 1925 391 
Q 2381 391 2643 752 
Q 2906 1113 2906 1747 
Q 2906 2381 2643 2742 
Q 2381 3103 1925 3103 
Q 1469 3103 1208 2742 
Q 947 2381 947 1747 
z
" transform="scale(0.015625)"/>
       <path id="DejaVuSans-29" d="M 513 4856 
L 1013 4856 
Q 1481 4119 1714 3412 
Q 1947 2706 1947 2009 
Q 1947 1309 1714 600 
Q 1481 -109 1013 -844 
L 513 -844 
Q 928 -128 1133 580 
Q 1338 1288 1338 2009 
Q 1338 2731 1133 3434 
Q 928 4138 513 4856 
z
" transform="scale(0.015625)"/>
      </defs>
      <use xlink:href="#DejaVuSans-53"/>
      <use xlink:href="#DejaVuSans-61" x="63.476562"/>
      <use xlink:href="#DejaVuSans-6d" x="124.755859"/>
      <use xlink:href="#DejaVuSans-70" x="222.167969"/>
      <use xlink:href="#DejaVuSans-6c" x="285.644531"/>
      <use xlink:href="#DejaVuSans-65" x="313.427734"/>
      <use xlink:href="#DejaVuSans-20" x="374.951172"/>
      <use xlink:href="#DejaVuSans-28" x="406.738281"/>
      <use xlink:href="#DejaVuSans-73" x="445.751953"/>
      <use xlink:href="#DejaVuSans-6f" x="497.851562"/>
      <use xlink:href="#DejaVuSans-72" x="559.033203"/>
      <use xlink:href="#DejaVuSans-74" x="600.146484"/>
      <use xlink:href="#DejaVuSans-65" x="639.355469"/>
      <use xlink:href="#DejaVuSans-64" x="700.878906"/>
      <use xlink:href="#DejaVuSans-29" x="764.355469"/>
     </g>
    </g>
   </g>
   <g id="matplotlib.axis_2">
    <g id="ytick_1">
     <g id="line2d_6">
      <defs>
       <path id="mc110a9c282" d="M 0 0 
L -3.5 0 
" style="stroke: #000000; stroke-width: 0.8"/>
      </defs>
      <g>
       <use xlink:href="#mc110a9c282" x="66.425" y="238.2" style="stroke: #000000; stroke-width: 0.8"/>
      </g>
     </g>
     <g id="text_7">
      <!-- 0 -->
      <g transform="translate(50.5175 243.518906)scale(0.14 -0.14)">
       <use xlink:href="#DejaVuSans-30"/>
      </g>
     </g>
    </g>
    <g id="ytick_2">
     <g id="line2d_7">
      <g>
       <use xlink:href="#mc110a9c282" x="66.425" y="201.216667" style="stroke: #000000; stroke-width: 0.8"/>
      </g>
     </g>
     <g id="text_8">
      <!-- 50 -->
      <g transform="translate(41.61 206.535573)scale(0.14 -0.14)">
       <defs>
        <path id="DejaVuSans-35" d="M 691 4666 
L 3169 4666 
L 3169 4134 
L 1269 4134 
L 1269 2991 
Q 1406 3038 1543 3061 
Q 1681 3084 1819 3084 
Q 2600 3084 3056 2656 
Q 3513 2228 3513 1497 
Q 3513 744 3044 326 
Q 2575 -91 1722 -91 
Q 1428 -91 1123 -41 
Q 819 9 494 109 
L 494 744 
Q 775 591 1075 516 
Q 1375 441 1709 441 
Q 2250 441 2565 725 
Q 2881 1009 2881 1497 
Q 2881 1984 2565 2268 
Q 2250 2553 1709 2553 
Q 1456 2553 1204 2497 
Q 953 2441 691 2322 
L 691 4666 
z
" transform="scale(0.015625)"/>
       </defs>
       <use xlink:href="#DejaVuSans-35"/>
       <use xlink:href="#DejaVuSans-30" x="63.623047"/>
      </g>
     </g>
    </g>
    <g id="ytick_3">
     <g id="line2d_8">
      <g>
       <use xlink:href="#mc110a9c282" x="66.425" y="164.233333" style="stroke: #000000; stroke-width: 0.8"/>
      </g>
     </g>
     <g id="text_9">
      <!-- 100 -->
      <g transform="translate(32.7025 169.55224)scale(0.14 -0.14)">
       <use xlink:href="#DejaVuSans-31"/>
       <use xlink:href="#DejaVuSans-30" x="63.623047"/>
       <use xlink:href="#DejaVuSans-30" x="127.246094"/>
      </g>
     </g>
    </g>
    <g id="ytick_4">
     <g id="line2d_9">
      <g>
       <use xlink:href="#mc110a9c282" x="66.425" y="127.25" style="stroke: #000000; stroke-width: 0.8"/>
      </g>
     </g>
     <g id="text_10">
      <!-- 150 -->
      <g transform="translate(32.7025 132.568906)scale(0.14 -0.14)">
       <use xlink:href="#DejaVuSans-31"/>
       <use xlink:href="#DejaVuSans-35" x="63.623047"/>
       <use xlink:href="#DejaVuSans-30" x="127.246094"/>
      </g>
     </g>
    </g>
    <g id="ytick_5">
     <g id="line2d_10">
      <g>
       <use xlink:href="#mc110a9c282" x="66.425" y="90.266667" style="stroke: #000000; stroke-width: 0.8"/>
      </g>
     </g>
     <g id="text_11">
      <!-- 200 -->
      <g transform="translate(32.7025 95.585573)scale(0.14 -0.14)">
       <use xlink:href="#DejaVuSans-32"/>
       <use xlink:href="#DejaVuSans-30" x="63.623047"/>
       <use xlink:href="#DejaVuSans-30" x="127.246094"/>
      </g>
     </g>
    </g>
    <g id="ytick_6">
     <g id="line2d_11">
      <g>
       <use xlink:href="#mc110a9c282" x="66.425" y="53.283333" style="stroke: #000000; stroke-width: 0.8"/>
      </g>
     </g>
     <g id="text_12">
      <!-- 250 -->
      <g transform="translate(32.7025 58.60224)scale(0.14 -0.14)">
       <use xlink:href="#DejaVuSans-32"/>
       <use xlink:href="#DejaVuSans-35" x="63.623047"/>
       <use xlink:href="#DejaVuSans-30" x="127.246094"/>
      </g>
     </g>
    </g>
    <g id="ytick_7">
     <g id="line2d_12">
      <g>
       <use xlink:href="#mc110a9c282" x="66.425" y="16.3" style="stroke: #000000; stroke-width: 0.8"/>
      </g>
     </g>
     <g id="text_13">
      <!-- 300 -->
      <g transform="translate(32.7025 21.618906)scale(0.14 -0.14)">
       <use xlink:href="#DejaVuSans-33"/>
       <use xlink:href="#DejaVuSans-30" x="63.623047"/>
       <use xlink:href="#DejaVuSans-30" x="127.246094"/>
      </g>
     </g>
    </g>
    <g id="text_14">
     <!-- Height ($\mu m$) -->
     <g transform="translate(25.7625 169.39)rotate(-90)scale(0.14 -0.14)">
      <defs>
       <path id="DejaVuSans-48" d="M 628 4666 
L 1259 4666 
L 1259 2753 
L 3553 2753 
L 3553 4666 
L 4184 4666 
L 4184 0 
L 3553 0 
L 3553 2222 
L 1259 2222 
L 1259 0 
L 628 0 
L 628 4666 
z
" transform="scale(0.015625)"/>
       <path id="DejaVuSans-69" d="M 603 3500 
L 1178 3500 
L 1178 0 
L 603 0 
L 603 3500 
z
M 603 4863 
L 1178 4863 
L 1178 4134 
L 603 4134 
L 603 4863 
z
" transform="scale(0.015625)"/>
       <path id="DejaVuSans-67" d="M 2906 1791 
Q 2906 2416 2648 2759 
Q 2391 3103 1925 3103 
Q 1463 3103 1205 2759 
Q 947 2416 947 1791 
Q 947 1169 1205 825 
Q 1463 481 1925 481 
Q 2391 481 2648 825 
Q 2906 1169 2906 1791 
z
M 3481 434 
Q 3481 -459 3084 -895 
Q 2688 -1331 1869 -1331 
Q 1566 -1331 1297 -1286 
Q 1028 -1241 775 -1147 
L 775 -588 
Q 1028 -725 1275 -790 
Q 1522 -856 1778 -856 
Q 2344 -856 2625 -561 
Q 2906 -266 2906 331 
L 2906 616 
Q 2728 306 2450 153 
Q 2172 0 1784 0 
Q 1141 0 747 490 
Q 353 981 353 1791 
Q 353 2603 747 3093 
Q 1141 3584 1784 3584 
Q 2172 3584 2450 3431 
Q 2728 3278 2906 2969 
L 2906 3500 
L 3481 3500 
L 3481 434 
z
" transform="scale(0.015625)"/>
       <path id="DejaVuSans-68" d="M 3513 2113 
L 3513 0 
L 2938 0 
L 2938 2094 
Q 2938 2591 2744 2837 
Q 2550 3084 2163 3084 
Q 1697 3084 1428 2787 
Q 1159 2491 1159 1978 
L 1159 0 
L 581 0 
L 581 4863 
L 1159 4863 
L 1159 2956 
Q 1366 3272 1645 3428 
Q 1925 3584 2291 3584 
Q 2894 3584 3203 3211 
Q 3513 2838 3513 2113 
z
" transform="scale(0.015625)"/>
       <path id="DejaVuSans-Oblique-3bc" d="M -84 -1331 
L 856 3500 
L 1434 3500 
L 1009 1322 
Q 997 1256 987 1175 
Q 978 1094 978 1013 
Q 978 722 1161 565 
Q 1344 409 1684 409 
Q 2147 409 2431 671 
Q 2716 934 2816 1459 
L 3213 3500 
L 3788 3500 
L 3266 809 
Q 3253 750 3248 706 
Q 3244 663 3244 628 
Q 3244 531 3283 486 
Q 3322 441 3406 441 
Q 3438 441 3492 456 
Q 3547 472 3647 513 
L 3559 50 
Q 3422 -19 3297 -55 
Q 3172 -91 3053 -91 
Q 2847 -91 2730 40 
Q 2613 172 2613 403 
Q 2438 153 2195 31 
Q 1953 -91 1625 -91 
Q 1334 -91 1117 43 
Q 900 178 831 397 
L 494 -1331 
L -84 -1331 
z
" transform="scale(0.015625)"/>
       <path id="DejaVuSans-Oblique-6d" d="M 5747 2113 
L 5338 0 
L 4763 0 
L 5166 2094 
Q 5191 2228 5203 2325 
Q 5216 2422 5216 2491 
Q 5216 2772 5059 2928 
Q 4903 3084 4622 3084 
Q 4203 3084 3875 2770 
Q 3547 2456 3450 1953 
L 3066 0 
L 2491 0 
L 2900 2094 
Q 2925 2209 2937 2307 
Q 2950 2406 2950 2484 
Q 2950 2769 2794 2926 
Q 2638 3084 2363 3084 
Q 1938 3084 1609 2770 
Q 1281 2456 1184 1953 
L 800 0 
L 225 0 
L 909 3500 
L 1484 3500 
L 1375 2956 
Q 1609 3263 1923 3423 
Q 2238 3584 2597 3584 
Q 2978 3584 3223 3384 
Q 3469 3184 3519 2828 
Q 3781 3197 4126 3390 
Q 4472 3584 4856 3584 
Q 5306 3584 5551 3325 
Q 5797 3066 5797 2591 
Q 5797 2488 5784 2364 
Q 5772 2241 5747 2113 
z
" transform="scale(0.015625)"/>
      </defs>
      <use xlink:href="#DejaVuSans-48" transform="translate(0 0.015625)"/>
      <use xlink:href="#DejaVuSans-65" transform="translate(75.195312 0.015625)"/>
      <use xlink:href="#DejaVuSans-69" transform="translate(136.71875 0.015625)"/>
      <use xlink:href="#DejaVuSans-67" transform="translate(164.501953 0.015625)"/>
      <use xlink:href="#DejaVuSans-68" transform="translate(227.978516 0.015625)"/>
      <use xlink:href="#DejaVuSans-74" transform="translate(291.357422 0.015625)"/>
      <use xlink:href="#DejaVuSans-20" transform="translate(330.566406 0.015625)"/>
      <use xlink:href="#DejaVuSans-28" transform="translate(362.353516 0.015625)"/>
      <use xlink:href="#DejaVuSans-Oblique-3bc" transform="translate(401.367188 0.015625)"/>
      <use xlink:href="#DejaVuSans-Oblique-6d" transform="translate(464.990234 0.015625)"/>
      <use xlink:href="#DejaVuSans-29" transform="translate(562.402344 0.015625)"/>
     </g>
    </g>
   </g>
   <g id="LineCollection_1">
    <path d="M 89.096591 135.893564 
L 89.096591 132.035699 
" clip-path="url(#pd20e22325d)" style="fill: none; stroke: #1f77b4; stroke-width: 1.5"/>
    <path d="M 98.953804 129.902247 
L 98.953804 127.746911 
" clip-path="url(#pd20e22325d)" style="fill: none; stroke: #1f77b4; stroke-width: 1.5"/>
    <path d="M 108.811018 130.619323 
L 108.811018 123.29568 
" clip-path="url(#pd20e22325d)" style="fill: none; stroke: #1f77b4; stroke-width: 1.5"/>
    <path d="M 118.668231 129.475222 
L 118.668231 120.009711 
" clip-path="url(#pd20e22325d)" style="fill: none; stroke: #1f77b4; stroke-width: 1.5"/>
    <path d="M 128.525445 126.382682 
L 128.525445 122.930912 
" clip-path="url(#pd20e22325d)" style="fill: none; stroke: #1f77b4; stroke-width: 1.5"/>
    <path d="M 138.382658 123.271036 
L 138.382658 119.81126 
" clip-path="url(#pd20e22325d)" style="fill: none; stroke: #1f77b4; stroke-width: 1.5"/>
    <path d="M 148.239872 123.183443 
L 148.239872 111.175208 
" clip-path="url(#pd20e22325d)" style="fill: none; stroke: #1f77b4; stroke-width: 1.5"/>
    <path d="M 158.097085 117.812473 
L 158.097085 114.04079 
" clip-path="url(#pd20e22325d)" style="fill: none; stroke: #1f77b4; stroke-width: 1.5"/>
    <path d="M 167.954298 116.834296 
L 167.954298 114.79569 
" clip-path="url(#pd20e22325d)" style="fill: none; stroke: #1f77b4; stroke-width: 1.5"/>
    <path d="M 177.811512 115.359968 
L 177.811512 113.373337 
" clip-path="url(#pd20e22325d)" style="fill: none; stroke: #1f77b4; stroke-width: 1.5"/>
    <path d="M 187.668725 116.025417 
L 187.668725 111.172334 
" clip-path="url(#pd20e22325d)" style="fill: none; stroke: #1f77b4; stroke-width: 1.5"/>
    <path d="M 197.525939 114.984127 
L 197.525939 110.992991 
" clip-path="url(#pd20e22325d)" style="fill: none; stroke: #1f77b4; stroke-width: 1.5"/>
    <path d="M 207.383152 113.582664 
L 207.383152 111.537249 
" clip-path="url(#pd20e22325d)" style="fill: none; stroke: #1f77b4; stroke-width: 1.5"/>
    <path d="M 217.240366 113.133189 
L 217.240366 108.108322 
" clip-path="url(#pd20e22325d)" style="fill: none; stroke: #1f77b4; stroke-width: 1.5"/>
    <path d="M 227.097579 111.54745 
L 227.097579 108.826621 
" clip-path="url(#pd20e22325d)" style="fill: none; stroke: #1f77b4; stroke-width: 1.5"/>
    <path d="M 236.954792 113.065661 
L 236.954792 106.256429 
" clip-path="url(#pd20e22325d)" style="fill: none; stroke: #1f77b4; stroke-width: 1.5"/>
    <path d="M 246.812006 110.488917 
L 246.812006 103.265675 
" clip-path="url(#pd20e22325d)" style="fill: none; stroke: #1f77b4; stroke-width: 1.5"/>
    <path d="M 256.669219 109.390469 
L 256.669219 103.834412 
" clip-path="url(#pd20e22325d)" style="fill: none; stroke: #1f77b4; stroke-width: 1.5"/>
    <path d="M 266.526433 107.766897 
L 266.526433 103.053568 
" clip-path="url(#pd20e22325d)" style="fill: none; stroke: #1f77b4; stroke-width: 1.5"/>
    <path d="M 276.383646 107.542677 
L 276.383646 101.603496 
" clip-path="url(#pd20e22325d)" style="fill: none; stroke: #1f77b4; stroke-width: 1.5"/>
    <path d="M 286.24086 107.636596 
L 286.24086 100.710189 
" clip-path="url(#pd20e22325d)" style="fill: none; stroke: #1f77b4; stroke-width: 1.5"/>
    <path d="M 296.098073 106.677899 
L 296.098073 100.222299 
" clip-path="url(#pd20e22325d)" style="fill: none; stroke: #1f77b4; stroke-width: 1.5"/>
    <path d="M 305.955287 105.365149 
L 305.955287 100.328923 
" clip-path="url(#pd20e22325d)" style="fill: none; stroke: #1f77b4; stroke-width: 1.5"/>
    <path d="M 315.8125 105.138067 
L 315.8125 99.860891 
" clip-path="url(#pd20e22325d)" style="fill: none; stroke: #1f77b4; stroke-width: 1.5"/>
    <path d="M 325.669713 103.155271 
L 325.669713 100.808554 
" clip-path="url(#pd20e22325d)" style="fill: none; stroke: #1f77b4; stroke-width: 1.5"/>
    <path d="M 335.526927 103.91583 
L 335.526927 98.009081 
" clip-path="url(#pd20e22325d)" style="fill: none; stroke: #1f77b4; stroke-width: 1.5"/>
    <path d="M 345.38414 98.706772 
L 345.38414 96.604677 
" clip-path="url(#pd20e22325d)" style="fill: none; stroke: #1f77b4; stroke-width: 1.5"/>
    <path d="M 355.241354 99.194225 
L 355.241354 95.805732 
" clip-path="url(#pd20e22325d)" style="fill: none; stroke: #1f77b4; stroke-width: 1.5"/>
    <path d="M 365.098567 98.61644 
L 365.098567 95.262519 
" clip-path="url(#pd20e22325d)" style="fill: none; stroke: #1f77b4; stroke-width: 1.5"/>
    <path d="M 374.955781 97.787385 
L 374.955781 95.303425 
" clip-path="url(#pd20e22325d)" style="fill: none; stroke: #1f77b4; stroke-width: 1.5"/>
    <path d="M 384.812994 95.546911 
L 384.812994 92.334529 
" clip-path="url(#pd20e22325d)" style="fill: none; stroke: #1f77b4; stroke-width: 1.5"/>
    <path d="M 394.670208 96.416392 
L 394.670208 90.526023 
" clip-path="url(#pd20e22325d)" style="fill: none; stroke: #1f77b4; stroke-width: 1.5"/>
    <path d="M 404.527421 96.438311 
L 404.527421 89.60657 
" clip-path="url(#pd20e22325d)" style="fill: none; stroke: #1f77b4; stroke-width: 1.5"/>
    <path d="M 414.384634 94.079837 
L 414.384634 90.00025 
" clip-path="url(#pd20e22325d)" style="fill: none; stroke: #1f77b4; stroke-width: 1.5"/>
    <path d="M 424.241848 93.048585 
L 424.241848 90.525298 
" clip-path="url(#pd20e22325d)" style="fill: none; stroke: #1f77b4; stroke-width: 1.5"/>
    <path d="M 434.099061 93.242508 
L 434.099061 89.596848 
" clip-path="url(#pd20e22325d)" style="fill: none; stroke: #1f77b4; stroke-width: 1.5"/>
    <path d="M 443.956275 92.735267 
L 443.956275 89.79474 
" clip-path="url(#pd20e22325d)" style="fill: none; stroke: #1f77b4; stroke-width: 1.5"/>
    <path d="M 453.813488 93.432438 
L 453.813488 86.258962 
" clip-path="url(#pd20e22325d)" style="fill: none; stroke: #1f77b4; stroke-width: 1.5"/>
    <path d="M 463.670702 92.558223 
L 463.670702 84.775628 
" clip-path="url(#pd20e22325d)" style="fill: none; stroke: #1f77b4; stroke-width: 1.5"/>
    <path d="M 473.527915 91.775631 
L 473.527915 83.915856 
" clip-path="url(#pd20e22325d)" style="fill: none; stroke: #1f77b4; stroke-width: 1.5"/>
    <path d="M 483.385128 91.875081 
L 483.385128 83.716356 
" clip-path="url(#pd20e22325d)" style="fill: none; stroke: #1f77b4; stroke-width: 1.5"/>
    <path d="M 493.242342 88.617859 
L 493.242342 82.322535 
" clip-path="url(#pd20e22325d)" style="fill: none; stroke: #1f77b4; stroke-width: 1.5"/>
    <path d="M 503.099555 86.863659 
L 503.099555 74.638734 
" clip-path="url(#pd20e22325d)" style="fill: none; stroke: #1f77b4; stroke-width: 1.5"/>
    <path d="M 512.956769 84.743969 
L 512.956769 73.765401 
" clip-path="url(#pd20e22325d)" style="fill: none; stroke: #1f77b4; stroke-width: 1.5"/>
    <path d="M 522.813982 71.98614 
L 522.813982 61.864227 
" clip-path="url(#pd20e22325d)" style="fill: none; stroke: #1f77b4; stroke-width: 1.5"/>
    <path d="M 532.671196 57.490238 
L 532.671196 52.816208 
" clip-path="url(#pd20e22325d)" style="fill: none; stroke: #1f77b4; stroke-width: 1.5"/>
    <path d="M 542.528409 35.873608 
L 542.528409 25.883111 
" clip-path="url(#pd20e22325d)" style="fill: none; stroke: #1f77b4; stroke-width: 1.5"/>
   </g>
   <g id="LineCollection_2">
    <path d="M 522.813982 71.98614 
L 522.813982 61.864227 
" clip-path="url(#pd20e22325d)" style="fill: none; stroke: #ff0000; stroke-width: 1.5"/>
    <path d="M 532.671196 57.490238 
L 532.671196 52.816208 
" clip-path="url(#pd20e22325d)" style="fill: none; stroke: #ff0000; stroke-width: 1.5"/>
    <path d="M 542.528409 35.873608 
L 542.528409 25.883111 
" clip-path="url(#pd20e22325d)" style="fill: none; stroke: #ff0000; stroke-width: 1.5"/>
   </g>
   <g id="line2d_13">
    <defs>
     <path id="mdc2e098be1" d="M 0 3 
C 0.795609 3 1.55874 2.683901 2.12132 2.12132 
C 2.683901 1.55874 3 0.795609 3 0 
C 3 -0.795609 2.683901 -1.55874 2.12132 -2.12132 
C 1.55874 -2.683901 0.795609 -3 0 -3 
C -0.795609 -3 -1.55874 -2.683901 -2.12132 -2.12132 
C -2.683901 -1.55874 -3 -0.795609 -3 0 
C -3 0.795609 -2.683901 1.55874 -2.12132 2.12132 
C -1.55874 2.683901 -0.795609 3 0 3 
z
" style="stroke: #1f77b4"/>
    </defs>
    <g clip-path="url(#pd20e22325d)">
     <use xlink:href="#mdc2e098be1" x="89.096591" y="133.964632" style="fill: #1f77b4; stroke: #1f77b4"/>
     <use xlink:href="#mdc2e098be1" x="98.953804" y="128.824579" style="fill: #1f77b4; stroke: #1f77b4"/>
     <use xlink:href="#mdc2e098be1" x="108.811018" y="126.957502" style="fill: #1f77b4; stroke: #1f77b4"/>
     <use xlink:href="#mdc2e098be1" x="118.668231" y="124.742466" style="fill: #1f77b4; stroke: #1f77b4"/>
     <use xlink:href="#mdc2e098be1" x="128.525445" y="124.656797" style="fill: #1f77b4; stroke: #1f77b4"/>
     <use xlink:href="#mdc2e098be1" x="138.382658" y="121.541148" style="fill: #1f77b4; stroke: #1f77b4"/>
     <use xlink:href="#mdc2e098be1" x="148.239872" y="117.179326" style="fill: #1f77b4; stroke: #1f77b4"/>
     <use xlink:href="#mdc2e098be1" x="158.097085" y="115.926631" style="fill: #1f77b4; stroke: #1f77b4"/>
     <use xlink:href="#mdc2e098be1" x="167.954298" y="115.814993" style="fill: #1f77b4; stroke: #1f77b4"/>
     <use xlink:href="#mdc2e098be1" x="177.811512" y="114.366652" style="fill: #1f77b4; stroke: #1f77b4"/>
     <use xlink:href="#mdc2e098be1" x="187.668725" y="113.598875" style="fill: #1f77b4; stroke: #1f77b4"/>
     <use xlink:href="#mdc2e098be1" x="197.525939" y="112.988559" style="fill: #1f77b4; stroke: #1f77b4"/>
     <use xlink:href="#mdc2e098be1" x="207.383152" y="112.559956" style="fill: #1f77b4; stroke: #1f77b4"/>
     <use xlink:href="#mdc2e098be1" x="217.240366" y="110.620755" style="fill: #1f77b4; stroke: #1f77b4"/>
     <use xlink:href="#mdc2e098be1" x="227.097579" y="110.187035" style="fill: #1f77b4; stroke: #1f77b4"/>
     <use xlink:href="#mdc2e098be1" x="236.954792" y="109.661045" style="fill: #1f77b4; stroke: #1f77b4"/>
     <use xlink:href="#mdc2e098be1" x="246.812006" y="106.877296" style="fill: #1f77b4; stroke: #1f77b4"/>
     <use xlink:href="#mdc2e098be1" x="256.669219" y="106.612441" style="fill: #1f77b4; stroke: #1f77b4"/>
     <use xlink:href="#mdc2e098be1" x="266.526433" y="105.410233" style="fill: #1f77b4; stroke: #1f77b4"/>
     <use xlink:href="#mdc2e098be1" x="276.383646" y="104.573086" style="fill: #1f77b4; stroke: #1f77b4"/>
     <use xlink:href="#mdc2e098be1" x="286.24086" y="104.173393" style="fill: #1f77b4; stroke: #1f77b4"/>
     <use xlink:href="#mdc2e098be1" x="296.098073" y="103.450099" style="fill: #1f77b4; stroke: #1f77b4"/>
     <use xlink:href="#mdc2e098be1" x="305.955287" y="102.847036" style="fill: #1f77b4; stroke: #1f77b4"/>
     <use xlink:href="#mdc2e098be1" x="315.8125" y="102.499479" style="fill: #1f77b4; stroke: #1f77b4"/>
     <use xlink:href="#mdc2e098be1" x="325.669713" y="101.981912" style="fill: #1f77b4; stroke: #1f77b4"/>
     <use xlink:href="#mdc2e098be1" x="335.526927" y="100.962455" style="fill: #1f77b4; stroke: #1f77b4"/>
     <use xlink:href="#mdc2e098be1" x="345.38414" y="97.655725" style="fill: #1f77b4; stroke: #1f77b4"/>
     <use xlink:href="#mdc2e098be1" x="355.241354" y="97.499978" style="fill: #1f77b4; stroke: #1f77b4"/>
     <use xlink:href="#mdc2e098be1" x="365.098567" y="96.93948" style="fill: #1f77b4; stroke: #1f77b4"/>
     <use xlink:href="#mdc2e098be1" x="374.955781" y="96.545405" style="fill: #1f77b4; stroke: #1f77b4"/>
     <use xlink:href="#mdc2e098be1" x="384.812994" y="93.94072" style="fill: #1f77b4; stroke: #1f77b4"/>
     <use xlink:href="#mdc2e098be1" x="394.670208" y="93.471207" style="fill: #1f77b4; stroke: #1f77b4"/>
     <use xlink:href="#mdc2e098be1" x="404.527421" y="93.022441" style="fill: #1f77b4; stroke: #1f77b4"/>
     <use xlink:href="#mdc2e098be1" x="414.384634" y="92.040044" style="fill: #1f77b4; stroke: #1f77b4"/>
     <use xlink:href="#mdc2e098be1" x="424.241848" y="91.786941" style="fill: #1f77b4; stroke: #1f77b4"/>
     <use xlink:href="#mdc2e098be1" x="434.099061" y="91.419678" style="fill: #1f77b4; stroke: #1f77b4"/>
     <use xlink:href="#mdc2e098be1" x="443.956275" y="91.265003" style="fill: #1f77b4; stroke: #1f77b4"/>
     <use xlink:href="#mdc2e098be1" x="453.813488" y="89.8457" style="fill: #1f77b4; stroke: #1f77b4"/>
     <use xlink:href="#mdc2e098be1" x="463.670702" y="88.666925" style="fill: #1f77b4; stroke: #1f77b4"/>
     <use xlink:href="#mdc2e098be1" x="473.527915" y="87.845744" style="fill: #1f77b4; stroke: #1f77b4"/>
     <use xlink:href="#mdc2e098be1" x="483.385128" y="87.795719" style="fill: #1f77b4; stroke: #1f77b4"/>
     <use xlink:href="#mdc2e098be1" x="493.242342" y="85.470197" style="fill: #1f77b4; stroke: #1f77b4"/>
     <use xlink:href="#mdc2e098be1" x="503.099555" y="80.751196" style="fill: #1f77b4; stroke: #1f77b4"/>
     <use xlink:href="#mdc2e098be1" x="512.956769" y="79.254685" style="fill: #1f77b4; stroke: #1f77b4"/>
     <use xlink:href="#mdc2e098be1" x="522.813982" y="66.925183" style="fill: #1f77b4; stroke: #1f77b4"/>
     <use xlink:href="#mdc2e098be1" x="532.671196" y="55.153223" style="fill: #1f77b4; stroke: #1f77b4"/>
     <use xlink:href="#mdc2e098be1" x="542.528409" y="30.878359" style="fill: #1f77b4; stroke: #1f77b4"/>
    </g>
   </g>
   <g id="line2d_14">
    <defs>
     <path id="m1eebbe5513" d="M 0 3 
C 0.795609 3 1.55874 2.683901 2.12132 2.12132 
C 2.683901 1.55874 3 0.795609 3 0 
C 3 -0.795609 2.683901 -1.55874 2.12132 -2.12132 
C 1.55874 -2.683901 0.795609 -3 0 -3 
C -0.795609 -3 -1.55874 -2.683901 -2.12132 -2.12132 
C -2.683901 -1.55874 -3 -0.795609 -3 0 
C -3 0.795609 -2.683901 1.55874 -2.12132 2.12132 
C -1.55874 2.683901 -0.795609 3 0 3 
z
" style="stroke: #ff0000"/>
    </defs>
    <g clip-path="url(#pd20e22325d)">
     <use xlink:href="#m1eebbe5513" x="522.813982" y="66.925183" style="fill: #ff0000; stroke: #ff0000"/>
     <use xlink:href="#m1eebbe5513" x="532.671196" y="55.153223" style="fill: #ff0000; stroke: #ff0000"/>
     <use xlink:href="#m1eebbe5513" x="542.528409" y="30.878359" style="fill: #ff0000; stroke: #ff0000"/>
    </g>
   </g>
   <g id="patch_3">
    <path d="M 66.425 238.2 
L 66.425 16.3 
" style="fill: none; stroke: #000000; stroke-width: 0.8; stroke-linejoin: miter; stroke-linecap: square"/>
   </g>
   <g id="patch_4">
    <path d="M 565.2 238.2 
L 565.2 16.3 
" style="fill: none; stroke: #000000; stroke-width: 0.8; stroke-linejoin: miter; stroke-linecap: square"/>
   </g>
   <g id="patch_5">
    <path d="M 66.425 238.2 
L 565.2 238.2 
" style="fill: none; stroke: #000000; stroke-width: 0.8; stroke-linejoin: miter; stroke-linecap: square"/>
   </g>
   <g id="patch_6">
    <path d="M 66.425 16.3 
L 565.2 16.3 
" style="fill: none; stroke: #000000; stroke-width: 0.8; stroke-linejoin: miter; stroke-linecap: square"/>
   </g>
  </g>
 </g>
 <defs>
  <clipPath id="pd20e22325d">
   <rect x="66.425" y="16.3" width="498.775" height="221.9"/>
  </clipPath>
 </defs>
</svg>
