<?xml version="1.0" encoding="utf-8"?>
<svg xmlns="http://www.w3.org/2000/svg" xmlns:xlink="http://www.w3.org/1999/xlink" width="400" height="200" viewBox="0 0 1600 800">
<defs>
  <clipPath id="clip700">
    <rect x="0" y="0" width="1600" height="800"/>
  </clipPath>
</defs>
<path clip-path="url(#clip700)" d="
M0 800 L1600 800 L1600 0 L0 0  Z
  " fill="#ffffff" fill-rule="evenodd" fill-opacity="1"/>
<defs>
  <clipPath id="clip701">
    <rect x="320" y="0" width="1121" height="800"/>
  </clipPath>
</defs>
<path clip-path="url(#clip700)" d="
M229.662 651.7 L1552.76 651.7 L1552.76 47.2441 L229.662 47.2441  Z
  " fill="#ffffff" fill-rule="evenodd" fill-opacity="1"/>
<defs>
  <clipPath id="clip702">
    <rect x="229" y="47" width="1324" height="605"/>
  </clipPath>
</defs>
<polyline clip-path="url(#clip700)" style="stroke:#000000; stroke-linecap:butt; stroke-linejoin:round; stroke-width:4; stroke-opacity:1; fill:none" points="
  229.662,651.7 1552.76,651.7 
  "/>
<polyline clip-path="url(#clip700)" style="stroke:#000000; stroke-linecap:butt; stroke-linejoin:round; stroke-width:4; stroke-opacity:1; fill:none" points="
  410.834,651.7 410.834,632.802 
  "/>
<polyline clip-path="url(#clip700)" style="stroke:#000000; stroke-linecap:butt; stroke-linejoin:round; stroke-width:4; stroke-opacity:1; fill:none" points="
  592.006,651.7 592.006,632.802 
  "/>
<polyline clip-path="url(#clip700)" style="stroke:#000000; stroke-linecap:butt; stroke-linejoin:round; stroke-width:4; stroke-opacity:1; fill:none" points="
  954.35,651.7 954.35,632.802 
  "/>
<polyline clip-path="url(#clip700)" style="stroke:#000000; stroke-linecap:butt; stroke-linejoin:round; stroke-width:4; stroke-opacity:1; fill:none" points="
  1316.69,651.7 1316.69,632.802 
  "/>
<path clip-path="url(#clip700)" d="M373.566 676.219 Q369.955 676.219 368.126 679.783 Q366.32 683.325 366.32 690.455 Q366.32 697.561 368.126 701.126 Q369.955 704.667 373.566 704.667 Q377.2 704.667 379.006 701.126 Q380.834 697.561 380.834 690.455 Q380.834 683.325 379.006 679.783 Q377.2 676.219 373.566 676.219 M373.566 672.515 Q379.376 672.515 382.431 677.121 Q385.51 681.705 385.51 690.455 Q385.51 699.181 382.431 703.788 Q379.376 708.371 373.566 708.371 Q367.756 708.371 364.677 703.788 Q361.621 699.181 361.621 690.455 Q361.621 681.705 364.677 677.121 Q367.756 672.515 373.566 672.515 Z" fill="#000000" fill-rule="evenodd" fill-opacity="1" /><path clip-path="url(#clip700)" d="M393.728 701.82 L398.612 701.82 L398.612 707.7 L393.728 707.7 L393.728 701.82 Z" fill="#000000" fill-rule="evenodd" fill-opacity="1" /><path clip-path="url(#clip700)" d="M408.843 673.14 L427.2 673.14 L427.2 677.075 L413.126 677.075 L413.126 685.547 Q414.144 685.2 415.163 685.038 Q416.181 684.853 417.2 684.853 Q422.987 684.853 426.366 688.024 Q429.746 691.195 429.746 696.612 Q429.746 702.191 426.274 705.292 Q422.802 708.371 416.482 708.371 Q414.306 708.371 412.038 708.001 Q409.792 707.63 407.385 706.89 L407.385 702.191 Q409.468 703.325 411.691 703.88 Q413.913 704.436 416.39 704.436 Q420.394 704.436 422.732 702.33 Q425.07 700.223 425.07 696.612 Q425.07 693.001 422.732 690.894 Q420.394 688.788 416.39 688.788 Q414.515 688.788 412.64 689.205 Q410.788 689.621 408.843 690.501 L408.843 673.14 Z" fill="#000000" fill-rule="evenodd" fill-opacity="1" /><path clip-path="url(#clip700)" d="M438.542 673.14 L443.218 673.14 L443.218 703.765 L460.047 703.765 L460.047 707.7 L438.542 707.7 L438.542 673.14 Z" fill="#000000" fill-rule="evenodd" fill-opacity="1" /><path clip-path="url(#clip700)" d="M581.254 673.14 L585.93 673.14 L585.93 703.765 L602.758 703.765 L602.758 707.7 L581.254 707.7 L581.254 673.14 Z" fill="#000000" fill-rule="evenodd" fill-opacity="1" /><path clip-path="url(#clip700)" d="M933.552 703.765 L949.871 703.765 L949.871 707.7 L927.927 707.7 L927.927 703.765 Q930.589 701.01 935.172 696.38 Q939.779 691.728 940.959 690.385 Q943.205 687.862 944.084 686.126 Q944.987 684.367 944.987 682.677 Q944.987 679.922 943.043 678.186 Q941.121 676.45 938.019 676.45 Q935.82 676.45 933.367 677.214 Q930.936 677.978 928.158 679.529 L928.158 674.807 Q930.982 673.672 933.436 673.094 Q935.89 672.515 937.927 672.515 Q943.297 672.515 946.492 675.2 Q949.686 677.885 949.686 682.376 Q949.686 684.506 948.876 686.427 Q948.089 688.325 945.982 690.918 Q945.404 691.589 942.302 694.806 Q939.2 698.001 933.552 703.765 Z" fill="#000000" fill-rule="evenodd" fill-opacity="1" /><path clip-path="url(#clip700)" d="M959.269 673.14 L963.945 673.14 L963.945 703.765 L980.774 703.765 L980.774 707.7 L959.269 707.7 L959.269 673.14 Z" fill="#000000" fill-rule="evenodd" fill-opacity="1" /><path clip-path="url(#clip700)" d="M1305.97 689.066 Q1309.32 689.783 1311.2 692.052 Q1313.1 694.32 1313.1 697.654 Q1313.1 702.769 1309.58 705.57 Q1306.06 708.371 1299.58 708.371 Q1297.4 708.371 1295.09 707.931 Q1292.79 707.515 1290.34 706.658 L1290.34 702.144 Q1292.28 703.279 1294.6 703.857 Q1296.91 704.436 1299.44 704.436 Q1303.84 704.436 1306.13 702.7 Q1308.44 700.964 1308.44 697.654 Q1308.44 694.598 1306.29 692.885 Q1304.16 691.149 1300.34 691.149 L1296.31 691.149 L1296.31 687.306 L1300.53 687.306 Q1303.97 687.306 1305.8 685.941 Q1307.63 684.552 1307.63 681.959 Q1307.63 679.297 1305.73 677.885 Q1303.86 676.45 1300.34 676.45 Q1298.42 676.45 1296.22 676.867 Q1294.02 677.283 1291.38 678.163 L1291.38 673.996 Q1294.04 673.256 1296.36 672.885 Q1298.7 672.515 1300.76 672.515 Q1306.08 672.515 1309.18 674.945 Q1312.28 677.353 1312.28 681.473 Q1312.28 684.343 1310.64 686.334 Q1309 688.302 1305.97 689.066 Z" fill="#000000" fill-rule="evenodd" fill-opacity="1" /><path clip-path="url(#clip700)" d="M1321.54 673.14 L1326.22 673.14 L1326.22 703.765 L1343.05 703.765 L1343.05 707.7 L1321.54 707.7 L1321.54 673.14 Z" fill="#000000" fill-rule="evenodd" fill-opacity="1" /><path clip-path="url(#clip700)" d="M518.131 742.327 L518.131 779.28 L525.897 779.28 Q535.732 779.28 540.283 774.824 Q544.867 770.368 544.867 760.756 Q544.867 751.208 540.283 746.783 Q535.732 742.327 525.897 742.327 L518.131 742.327 M511.701 737.044 L524.91 737.044 Q538.724 737.044 545.185 742.805 Q551.646 748.534 551.646 760.756 Q551.646 773.042 545.153 778.803 Q538.66 784.564 524.91 784.564 L511.701 784.564 L511.701 737.044 Z" fill="#000000" fill-rule="evenodd" fill-opacity="1" /><path clip-path="url(#clip700)" d="M561.64 748.916 L567.497 748.916 L567.497 784.564 L561.64 784.564 L561.64 748.916 M561.64 735.039 L567.497 735.039 L567.497 742.455 L561.64 742.455 L561.64 735.039 Z" fill="#000000" fill-rule="evenodd" fill-opacity="1" /><path clip-path="url(#clip700)" d="M602.476 749.966 L602.476 755.504 Q599.994 754.231 597.32 753.595 Q594.647 752.958 591.782 752.958 Q587.422 752.958 585.225 754.295 Q583.061 755.632 583.061 758.305 Q583.061 760.342 584.621 761.52 Q586.18 762.666 590.891 763.716 L592.896 764.162 Q599.134 765.499 601.744 767.949 Q604.386 770.368 604.386 774.729 Q604.386 779.694 600.439 782.59 Q596.524 785.487 589.65 785.487 Q586.785 785.487 583.666 784.914 Q580.578 784.373 577.141 783.259 L577.141 777.211 Q580.387 778.898 583.538 779.758 Q586.689 780.585 589.777 780.585 Q593.915 780.585 596.143 779.185 Q598.371 777.753 598.371 775.174 Q598.371 772.787 596.747 771.514 Q595.156 770.241 589.713 769.063 L587.676 768.586 Q582.233 767.44 579.815 765.085 Q577.396 762.698 577.396 758.56 Q577.396 753.531 580.96 750.794 Q584.525 748.057 591.082 748.057 Q594.328 748.057 597.193 748.534 Q600.057 749.011 602.476 749.966 Z" fill="#000000" fill-rule="evenodd" fill-opacity="1" /><path clip-path="url(#clip700)" d="M619.505 738.794 L619.505 748.916 L631.568 748.916 L631.568 753.467 L619.505 753.467 L619.505 772.819 Q619.505 777.18 620.682 778.421 Q621.892 779.662 625.552 779.662 L631.568 779.662 L631.568 784.564 L625.552 784.564 Q618.773 784.564 616.195 782.049 Q613.616 779.503 613.616 772.819 L613.616 753.467 L609.32 753.467 L609.32 748.916 L613.616 748.916 L613.616 738.794 L619.505 738.794 Z" fill="#000000" fill-rule="evenodd" fill-opacity="1" /><path clip-path="url(#clip700)" d="M655.471 766.644 Q648.373 766.644 645.636 768.268 Q642.899 769.891 642.899 773.806 Q642.899 776.925 644.936 778.771 Q647.005 780.585 650.538 780.585 Q655.407 780.585 658.336 777.148 Q661.296 773.678 661.296 767.949 L661.296 766.644 L655.471 766.644 M667.152 764.225 L667.152 784.564 L661.296 784.564 L661.296 779.153 Q659.29 782.4 656.298 783.959 Q653.307 785.487 648.978 785.487 Q643.503 785.487 640.257 782.431 Q637.042 779.344 637.042 774.188 Q637.042 768.172 641.053 765.117 Q645.095 762.061 653.084 762.061 L661.296 762.061 L661.296 761.488 Q661.296 757.446 658.622 755.25 Q655.98 753.022 651.174 753.022 Q648.119 753.022 645.222 753.754 Q642.326 754.486 639.652 755.95 L639.652 750.539 Q642.867 749.298 645.891 748.693 Q648.914 748.057 651.779 748.057 Q659.513 748.057 663.333 752.067 Q667.152 756.077 667.152 764.225 Z" fill="#000000" fill-rule="evenodd" fill-opacity="1" /><path clip-path="url(#clip700)" d="M708.847 763.048 L708.847 784.564 L702.991 784.564 L702.991 763.239 Q702.991 758.178 701.018 755.664 Q699.044 753.149 695.097 753.149 Q690.355 753.149 687.618 756.173 Q684.881 759.197 684.881 764.416 L684.881 784.564 L678.992 784.564 L678.992 748.916 L684.881 748.916 L684.881 754.454 Q686.981 751.239 689.814 749.648 Q692.678 748.057 696.402 748.057 Q702.545 748.057 705.696 751.876 Q708.847 755.664 708.847 763.048 Z" fill="#000000" fill-rule="evenodd" fill-opacity="1" /><path clip-path="url(#clip700)" d="M746.182 750.285 L746.182 755.759 Q743.7 754.39 741.185 753.722 Q738.703 753.022 736.156 753.022 Q730.459 753.022 727.308 756.65 Q724.157 760.247 724.157 766.772 Q724.157 773.297 727.308 776.925 Q730.459 780.522 736.156 780.522 Q738.703 780.522 741.185 779.853 Q743.7 779.153 746.182 777.784 L746.182 783.195 Q743.731 784.341 741.09 784.914 Q738.48 785.487 735.52 785.487 Q727.467 785.487 722.725 780.426 Q717.982 775.365 717.982 766.772 Q717.982 758.051 722.756 753.054 Q727.563 748.057 735.902 748.057 Q738.607 748.057 741.185 748.629 Q743.763 749.171 746.182 750.285 Z" fill="#000000" fill-rule="evenodd" fill-opacity="1" /><path clip-path="url(#clip700)" d="M786.859 765.276 L786.859 768.14 L759.932 768.14 Q760.314 774.188 763.561 777.371 Q766.839 780.522 772.664 780.522 Q776.037 780.522 779.188 779.694 Q782.371 778.867 785.49 777.211 L785.49 782.75 Q782.339 784.086 779.029 784.787 Q775.719 785.487 772.313 785.487 Q763.783 785.487 758.786 780.522 Q753.821 775.556 753.821 767.09 Q753.821 758.337 758.532 753.213 Q763.274 748.057 771.295 748.057 Q778.488 748.057 782.658 752.703 Q786.859 757.319 786.859 765.276 M781.003 763.557 Q780.939 758.751 778.297 755.886 Q775.687 753.022 771.359 753.022 Q766.457 753.022 763.497 755.791 Q760.569 758.56 760.123 763.589 L781.003 763.557 Z" fill="#000000" fill-rule="evenodd" fill-opacity="1" /><path clip-path="url(#clip700)" d="M835.238 735.039 L835.238 739.908 L829.637 739.908 Q826.486 739.908 825.244 741.182 Q824.035 742.455 824.035 745.765 L824.035 748.916 L833.679 748.916 L833.679 753.467 L824.035 753.467 L824.035 784.564 L818.147 784.564 L818.147 753.467 L812.545 753.467 L812.545 748.916 L818.147 748.916 L818.147 746.433 Q818.147 740.481 820.916 737.776 Q823.685 735.039 829.7 735.039 L835.238 735.039 Z" fill="#000000" fill-rule="evenodd" fill-opacity="1" /><path clip-path="url(#clip700)" d="M860.797 754.39 Q859.81 753.817 858.632 753.563 Q857.487 753.276 856.086 753.276 Q851.121 753.276 848.447 756.523 Q845.806 759.738 845.806 765.785 L845.806 784.564 L839.917 784.564 L839.917 748.916 L845.806 748.916 L845.806 754.454 Q847.652 751.208 850.612 749.648 Q853.572 748.057 857.805 748.057 Q858.41 748.057 859.142 748.152 Q859.874 748.216 860.765 748.375 L860.797 754.39 Z" fill="#000000" fill-rule="evenodd" fill-opacity="1" /><path clip-path="url(#clip700)" d="M879.321 753.022 Q874.61 753.022 871.873 756.714 Q869.136 760.374 869.136 766.772 Q869.136 773.169 871.841 776.861 Q874.579 780.522 879.321 780.522 Q884 780.522 886.737 776.83 Q889.474 773.137 889.474 766.772 Q889.474 760.438 886.737 756.746 Q884 753.022 879.321 753.022 M879.321 748.057 Q886.96 748.057 891.32 753.022 Q895.681 757.987 895.681 766.772 Q895.681 775.525 891.32 780.522 Q886.96 785.487 879.321 785.487 Q871.65 785.487 867.29 780.522 Q862.961 775.525 862.961 766.772 Q862.961 757.987 867.29 753.022 Q871.65 748.057 879.321 748.057 Z" fill="#000000" fill-rule="evenodd" fill-opacity="1" /><path clip-path="url(#clip700)" d="M933.143 755.759 Q935.339 751.812 938.395 749.934 Q941.45 748.057 945.588 748.057 Q951.158 748.057 954.182 751.971 Q957.205 755.855 957.205 763.048 L957.205 784.564 L951.317 784.564 L951.317 763.239 Q951.317 758.114 949.503 755.632 Q947.689 753.149 943.965 753.149 Q939.413 753.149 936.772 756.173 Q934.13 759.197 934.13 764.416 L934.13 784.564 L928.241 784.564 L928.241 763.239 Q928.241 758.083 926.427 755.632 Q924.613 753.149 920.825 753.149 Q916.338 753.149 913.696 756.205 Q911.054 759.228 911.054 764.416 L911.054 784.564 L905.166 784.564 L905.166 748.916 L911.054 748.916 L911.054 754.454 Q913.059 751.176 915.86 749.616 Q918.661 748.057 922.512 748.057 Q926.395 748.057 929.101 750.03 Q931.838 752.003 933.143 755.759 Z" fill="#000000" fill-rule="evenodd" fill-opacity="1" /><path clip-path="url(#clip700)" d="M989.607 748.916 L995.463 748.916 L995.463 784.564 L989.607 784.564 L989.607 748.916 M989.607 735.039 L995.463 735.039 L995.463 742.455 L989.607 742.455 L989.607 735.039 Z" fill="#000000" fill-rule="evenodd" fill-opacity="1" /><path clip-path="url(#clip700)" d="M1037.35 763.048 L1037.35 784.564 L1031.49 784.564 L1031.49 763.239 Q1031.49 758.178 1029.52 755.664 Q1027.55 753.149 1023.6 753.149 Q1018.86 753.149 1016.12 756.173 Q1013.38 759.197 1013.38 764.416 L1013.38 784.564 L1007.49 784.564 L1007.49 748.916 L1013.38 748.916 L1013.38 754.454 Q1015.48 751.239 1018.32 749.648 Q1021.18 748.057 1024.9 748.057 Q1031.05 748.057 1034.2 751.876 Q1037.35 755.664 1037.35 763.048 Z" fill="#000000" fill-rule="evenodd" fill-opacity="1" /><path clip-path="url(#clip700)" d="M1054.82 738.794 L1054.82 748.916 L1066.89 748.916 L1066.89 753.467 L1054.82 753.467 L1054.82 772.819 Q1054.82 777.18 1056 778.421 Q1057.21 779.662 1060.87 779.662 L1066.89 779.662 L1066.89 784.564 L1060.87 784.564 Q1054.09 784.564 1051.51 782.049 Q1048.94 779.503 1048.94 772.819 L1048.94 753.467 L1044.64 753.467 L1044.64 748.916 L1048.94 748.916 L1048.94 738.794 L1054.82 738.794 Z" fill="#000000" fill-rule="evenodd" fill-opacity="1" /><path clip-path="url(#clip700)" d="M1105.08 765.276 L1105.08 768.14 L1078.15 768.14 Q1078.54 774.188 1081.78 777.371 Q1085.06 780.522 1090.89 780.522 Q1094.26 780.522 1097.41 779.694 Q1100.59 778.867 1103.71 777.211 L1103.71 782.75 Q1100.56 784.086 1097.25 784.787 Q1093.94 785.487 1090.54 785.487 Q1082.01 785.487 1077.01 780.522 Q1072.04 775.556 1072.04 767.09 Q1072.04 758.337 1076.75 753.213 Q1081.5 748.057 1089.52 748.057 Q1096.71 748.057 1100.88 752.703 Q1105.08 757.319 1105.08 765.276 M1099.22 763.557 Q1099.16 758.751 1096.52 755.886 Q1093.91 753.022 1089.58 753.022 Q1084.68 753.022 1081.72 755.791 Q1078.79 758.56 1078.34 763.589 L1099.22 763.557 Z" fill="#000000" fill-rule="evenodd" fill-opacity="1" /><path clip-path="url(#clip700)" d="M1135.35 754.39 Q1134.36 753.817 1133.19 753.563 Q1132.04 753.276 1130.64 753.276 Q1125.67 753.276 1123 756.523 Q1120.36 759.738 1120.36 765.785 L1120.36 784.564 L1114.47 784.564 L1114.47 748.916 L1120.36 748.916 L1120.36 754.454 Q1122.2 751.208 1125.16 749.648 Q1128.12 748.057 1132.36 748.057 Q1132.96 748.057 1133.69 748.152 Q1134.43 748.216 1135.32 748.375 L1135.35 754.39 Z" fill="#000000" fill-rule="evenodd" fill-opacity="1" /><path clip-path="url(#clip700)" d="M1159.54 735.039 L1159.54 739.908 L1153.94 739.908 Q1150.79 739.908 1149.55 741.182 Q1148.34 742.455 1148.34 745.765 L1148.34 748.916 L1157.98 748.916 L1157.98 753.467 L1148.34 753.467 L1148.34 784.564 L1142.45 784.564 L1142.45 753.467 L1136.85 753.467 L1136.85 748.916 L1142.45 748.916 L1142.45 746.433 Q1142.45 740.481 1145.22 737.776 Q1147.99 735.039 1154 735.039 L1159.54 735.039 Z" fill="#000000" fill-rule="evenodd" fill-opacity="1" /><path clip-path="url(#clip700)" d="M1180.64 766.644 Q1173.54 766.644 1170.81 768.268 Q1168.07 769.891 1168.07 773.806 Q1168.07 776.925 1170.11 778.771 Q1172.18 780.585 1175.71 780.585 Q1180.58 780.585 1183.51 777.148 Q1186.47 773.678 1186.47 767.949 L1186.47 766.644 L1180.64 766.644 M1192.32 764.225 L1192.32 784.564 L1186.47 784.564 L1186.47 779.153 Q1184.46 782.4 1181.47 783.959 Q1178.48 785.487 1174.15 785.487 Q1168.67 785.487 1165.43 782.431 Q1162.21 779.344 1162.21 774.188 Q1162.21 768.172 1166.22 765.117 Q1170.27 762.061 1178.25 762.061 L1186.47 762.061 L1186.47 761.488 Q1186.47 757.446 1183.79 755.25 Q1181.15 753.022 1176.34 753.022 Q1173.29 753.022 1170.39 753.754 Q1167.5 754.486 1164.82 755.95 L1164.82 750.539 Q1168.04 749.298 1171.06 748.693 Q1174.09 748.057 1176.95 748.057 Q1184.68 748.057 1188.5 752.067 Q1192.32 756.077 1192.32 764.225 Z" fill="#000000" fill-rule="evenodd" fill-opacity="1" /><path clip-path="url(#clip700)" d="M1230.04 750.285 L1230.04 755.759 Q1227.56 754.39 1225.04 753.722 Q1222.56 753.022 1220.01 753.022 Q1214.32 753.022 1211.17 756.65 Q1208.01 760.247 1208.01 766.772 Q1208.01 773.297 1211.17 776.925 Q1214.32 780.522 1220.01 780.522 Q1222.56 780.522 1225.04 779.853 Q1227.56 779.153 1230.04 777.784 L1230.04 783.195 Q1227.59 784.341 1224.95 784.914 Q1222.34 785.487 1219.38 785.487 Q1211.32 785.487 1206.58 780.426 Q1201.84 775.365 1201.84 766.772 Q1201.84 758.051 1206.61 753.054 Q1211.42 748.057 1219.76 748.057 Q1222.46 748.057 1225.04 748.629 Q1227.62 749.171 1230.04 750.285 Z" fill="#000000" fill-rule="evenodd" fill-opacity="1" /><path clip-path="url(#clip700)" d="M1270.72 765.276 L1270.72 768.14 L1243.79 768.14 Q1244.17 774.188 1247.42 777.371 Q1250.7 780.522 1256.52 780.522 Q1259.89 780.522 1263.05 779.694 Q1266.23 778.867 1269.35 777.211 L1269.35 782.75 Q1266.2 784.086 1262.89 784.787 Q1259.58 785.487 1256.17 785.487 Q1247.64 785.487 1242.64 780.522 Q1237.68 775.556 1237.68 767.09 Q1237.68 758.337 1242.39 753.213 Q1247.13 748.057 1255.15 748.057 Q1262.35 748.057 1266.52 752.703 Q1270.72 757.319 1270.72 765.276 M1264.86 763.557 Q1264.8 758.751 1262.15 755.886 Q1259.54 753.022 1255.22 753.022 Q1250.31 753.022 1247.35 755.791 Q1244.43 758.56 1243.98 763.589 L1264.86 763.557 Z" fill="#000000" fill-rule="evenodd" fill-opacity="1" /><polyline clip-path="url(#clip700)" style="stroke:#000000; stroke-linecap:butt; stroke-linejoin:round; stroke-width:4; stroke-opacity:1; fill:none" points="
  229.662,651.7 229.662,47.2441 
  "/>
<polyline clip-path="url(#clip700)" style="stroke:#000000; stroke-linecap:butt; stroke-linejoin:round; stroke-width:4; stroke-opacity:1; fill:none" points="
  229.662,634.593 248.56,634.593 
  "/>
<polyline clip-path="url(#clip700)" style="stroke:#000000; stroke-linecap:butt; stroke-linejoin:round; stroke-width:4; stroke-opacity:1; fill:none" points="
  229.662,492.032 248.56,492.032 
  "/>
<polyline clip-path="url(#clip700)" style="stroke:#000000; stroke-linecap:butt; stroke-linejoin:round; stroke-width:4; stroke-opacity:1; fill:none" points="
  229.662,349.472 248.56,349.472 
  "/>
<polyline clip-path="url(#clip700)" style="stroke:#000000; stroke-linecap:butt; stroke-linejoin:round; stroke-width:4; stroke-opacity:1; fill:none" points="
  229.662,206.912 248.56,206.912 
  "/>
<polyline clip-path="url(#clip700)" style="stroke:#000000; stroke-linecap:butt; stroke-linejoin:round; stroke-width:4; stroke-opacity:1; fill:none" points="
  229.662,64.3513 248.56,64.3513 
  "/>
<path clip-path="url(#clip700)" d="M118.325 620.391 Q114.713 620.391 112.885 623.956 Q111.079 627.498 111.079 634.627 Q111.079 641.734 112.885 645.299 Q114.713 648.84 118.325 648.84 Q121.959 648.84 123.764 645.299 Q125.593 641.734 125.593 634.627 Q125.593 627.498 123.764 623.956 Q121.959 620.391 118.325 620.391 M118.325 616.688 Q124.135 616.688 127.19 621.294 Q130.269 625.877 130.269 634.627 Q130.269 643.354 127.19 647.961 Q124.135 652.544 118.325 652.544 Q112.514 652.544 109.436 647.961 Q106.38 643.354 106.38 634.627 Q106.38 625.877 109.436 621.294 Q112.514 616.688 118.325 616.688 Z" fill="#000000" fill-rule="evenodd" fill-opacity="1" /><path clip-path="url(#clip700)" d="M138.486 645.993 L143.371 645.993 L143.371 651.873 L138.486 651.873 L138.486 645.993 Z" fill="#000000" fill-rule="evenodd" fill-opacity="1" /><path clip-path="url(#clip700)" d="M163.556 620.391 Q159.945 620.391 158.116 623.956 Q156.31 627.498 156.31 634.627 Q156.31 641.734 158.116 645.299 Q159.945 648.84 163.556 648.84 Q167.19 648.84 168.996 645.299 Q170.824 641.734 170.824 634.627 Q170.824 627.498 168.996 623.956 Q167.19 620.391 163.556 620.391 M163.556 616.688 Q169.366 616.688 172.421 621.294 Q175.5 625.877 175.5 634.627 Q175.5 643.354 172.421 647.961 Q169.366 652.544 163.556 652.544 Q157.746 652.544 154.667 647.961 Q151.611 643.354 151.611 634.627 Q151.611 625.877 154.667 621.294 Q157.746 616.688 163.556 616.688 Z" fill="#000000" fill-rule="evenodd" fill-opacity="1" /><path clip-path="url(#clip700)" d="M193.718 620.391 Q190.107 620.391 188.278 623.956 Q186.472 627.498 186.472 634.627 Q186.472 641.734 188.278 645.299 Q190.107 648.84 193.718 648.84 Q197.352 648.84 199.157 645.299 Q200.986 641.734 200.986 634.627 Q200.986 627.498 199.157 623.956 Q197.352 620.391 193.718 620.391 M193.718 616.688 Q199.528 616.688 202.583 621.294 Q205.662 625.877 205.662 634.627 Q205.662 643.354 202.583 647.961 Q199.528 652.544 193.718 652.544 Q187.907 652.544 184.829 647.961 Q181.773 643.354 181.773 634.627 Q181.773 625.877 184.829 621.294 Q187.907 616.688 193.718 616.688 Z" fill="#000000" fill-rule="evenodd" fill-opacity="1" /><path clip-path="url(#clip700)" d="M119.32 477.831 Q115.709 477.831 113.88 481.396 Q112.075 484.937 112.075 492.067 Q112.075 499.173 113.88 502.738 Q115.709 506.28 119.32 506.28 Q122.954 506.28 124.76 502.738 Q126.588 499.173 126.588 492.067 Q126.588 484.937 124.76 481.396 Q122.954 477.831 119.32 477.831 M119.32 474.127 Q125.13 474.127 128.186 478.734 Q131.264 483.317 131.264 492.067 Q131.264 500.794 128.186 505.4 Q125.13 509.984 119.32 509.984 Q113.51 509.984 110.431 505.4 Q107.376 500.794 107.376 492.067 Q107.376 483.317 110.431 478.734 Q113.51 474.127 119.32 474.127 Z" fill="#000000" fill-rule="evenodd" fill-opacity="1" /><path clip-path="url(#clip700)" d="M139.482 503.433 L144.366 503.433 L144.366 509.312 L139.482 509.312 L139.482 503.433 Z" fill="#000000" fill-rule="evenodd" fill-opacity="1" /><path clip-path="url(#clip700)" d="M158.579 505.377 L174.898 505.377 L174.898 509.312 L152.954 509.312 L152.954 505.377 Q155.616 502.623 160.199 497.993 Q164.806 493.34 165.986 491.998 Q168.232 489.474 169.111 487.738 Q170.014 485.979 170.014 484.289 Q170.014 481.535 168.07 479.799 Q166.148 478.062 163.047 478.062 Q160.847 478.062 158.394 478.826 Q155.963 479.59 153.185 481.141 L153.185 476.419 Q156.01 475.285 158.463 474.706 Q160.917 474.127 162.954 474.127 Q168.324 474.127 171.519 476.812 Q174.713 479.498 174.713 483.988 Q174.713 486.118 173.903 488.039 Q173.116 489.937 171.009 492.53 Q170.431 493.201 167.329 496.419 Q164.227 499.613 158.579 505.377 Z" fill="#000000" fill-rule="evenodd" fill-opacity="1" /><path clip-path="url(#clip700)" d="M184.759 474.752 L203.116 474.752 L203.116 478.687 L189.042 478.687 L189.042 487.16 Q190.06 486.812 191.079 486.65 Q192.097 486.465 193.116 486.465 Q198.903 486.465 202.282 489.636 Q205.662 492.808 205.662 498.224 Q205.662 503.803 202.19 506.905 Q198.718 509.984 192.398 509.984 Q190.222 509.984 187.954 509.613 Q185.708 509.243 183.301 508.502 L183.301 503.803 Q185.384 504.937 187.607 505.493 Q189.829 506.048 192.306 506.048 Q196.31 506.048 198.648 503.942 Q200.986 501.835 200.986 498.224 Q200.986 494.613 198.648 492.507 Q196.31 490.4 192.306 490.4 Q190.431 490.4 188.556 490.817 Q186.704 491.234 184.759 492.113 L184.759 474.752 Z" fill="#000000" fill-rule="evenodd" fill-opacity="1" /><path clip-path="url(#clip700)" d="M118.325 335.271 Q114.713 335.271 112.885 338.835 Q111.079 342.377 111.079 349.507 Q111.079 356.613 112.885 360.178 Q114.713 363.72 118.325 363.72 Q121.959 363.72 123.764 360.178 Q125.593 356.613 125.593 349.507 Q125.593 342.377 123.764 338.835 Q121.959 335.271 118.325 335.271 M118.325 331.567 Q124.135 331.567 127.19 336.173 Q130.269 340.757 130.269 349.507 Q130.269 358.233 127.19 362.84 Q124.135 367.423 118.325 367.423 Q112.514 367.423 109.436 362.84 Q106.38 358.233 106.38 349.507 Q106.38 340.757 109.436 336.173 Q112.514 331.567 118.325 331.567 Z" fill="#000000" fill-rule="evenodd" fill-opacity="1" /><path clip-path="url(#clip700)" d="M138.486 360.872 L143.371 360.872 L143.371 366.752 L138.486 366.752 L138.486 360.872 Z" fill="#000000" fill-rule="evenodd" fill-opacity="1" /><path clip-path="url(#clip700)" d="M153.602 332.192 L171.959 332.192 L171.959 336.127 L157.885 336.127 L157.885 344.599 Q158.903 344.252 159.922 344.09 Q160.94 343.905 161.959 343.905 Q167.746 343.905 171.125 347.076 Q174.505 350.247 174.505 355.664 Q174.505 361.243 171.033 364.345 Q167.56 367.423 161.241 367.423 Q159.065 367.423 156.797 367.053 Q154.551 366.683 152.144 365.942 L152.144 361.243 Q154.227 362.377 156.449 362.933 Q158.672 363.488 161.148 363.488 Q165.153 363.488 167.491 361.382 Q169.829 359.275 169.829 355.664 Q169.829 352.053 167.491 349.947 Q165.153 347.84 161.148 347.84 Q159.273 347.84 157.398 348.257 Q155.547 348.673 153.602 349.553 L153.602 332.192 Z" fill="#000000" fill-rule="evenodd" fill-opacity="1" /><path clip-path="url(#clip700)" d="M193.718 335.271 Q190.107 335.271 188.278 338.835 Q186.472 342.377 186.472 349.507 Q186.472 356.613 188.278 360.178 Q190.107 363.72 193.718 363.72 Q197.352 363.72 199.157 360.178 Q200.986 356.613 200.986 349.507 Q200.986 342.377 199.157 338.835 Q197.352 335.271 193.718 335.271 M193.718 331.567 Q199.528 331.567 202.583 336.173 Q205.662 340.757 205.662 349.507 Q205.662 358.233 202.583 362.84 Q199.528 367.423 193.718 367.423 Q187.907 367.423 184.829 362.84 Q181.773 358.233 181.773 349.507 Q181.773 340.757 184.829 336.173 Q187.907 331.567 193.718 331.567 Z" fill="#000000" fill-rule="evenodd" fill-opacity="1" /><path clip-path="url(#clip700)" d="M119.32 192.71 Q115.709 192.71 113.88 196.275 Q112.075 199.817 112.075 206.946 Q112.075 214.053 113.88 217.618 Q115.709 221.159 119.32 221.159 Q122.954 221.159 124.76 217.618 Q126.588 214.053 126.588 206.946 Q126.588 199.817 124.76 196.275 Q122.954 192.71 119.32 192.71 M119.32 189.007 Q125.13 189.007 128.186 193.613 Q131.264 198.196 131.264 206.946 Q131.264 215.673 128.186 220.28 Q125.13 224.863 119.32 224.863 Q113.51 224.863 110.431 220.28 Q107.376 215.673 107.376 206.946 Q107.376 198.196 110.431 193.613 Q113.51 189.007 119.32 189.007 Z" fill="#000000" fill-rule="evenodd" fill-opacity="1" /><path clip-path="url(#clip700)" d="M139.482 218.312 L144.366 218.312 L144.366 224.192 L139.482 224.192 L139.482 218.312 Z" fill="#000000" fill-rule="evenodd" fill-opacity="1" /><path clip-path="url(#clip700)" d="M153.371 189.632 L175.593 189.632 L175.593 191.622 L163.047 224.192 L158.162 224.192 L169.968 193.567 L153.371 193.567 L153.371 189.632 Z" fill="#000000" fill-rule="evenodd" fill-opacity="1" /><path clip-path="url(#clip700)" d="M184.759 189.632 L203.116 189.632 L203.116 193.567 L189.042 193.567 L189.042 202.039 Q190.06 201.692 191.079 201.53 Q192.097 201.345 193.116 201.345 Q198.903 201.345 202.282 204.516 Q205.662 207.687 205.662 213.104 Q205.662 218.682 202.19 221.784 Q198.718 224.863 192.398 224.863 Q190.222 224.863 187.954 224.493 Q185.708 224.122 183.301 223.381 L183.301 218.682 Q185.384 219.817 187.607 220.372 Q189.829 220.928 192.306 220.928 Q196.31 220.928 198.648 218.821 Q200.986 216.715 200.986 213.104 Q200.986 209.493 198.648 207.386 Q196.31 205.28 192.306 205.28 Q190.431 205.28 188.556 205.696 Q186.704 206.113 184.759 206.993 L184.759 189.632 Z" fill="#000000" fill-rule="evenodd" fill-opacity="1" /><path clip-path="url(#clip700)" d="M109.135 77.6962 L116.774 77.6962 L116.774 51.3306 L108.463 52.9972 L108.463 48.738 L116.727 47.0713 L121.403 47.0713 L121.403 77.6962 L129.042 77.6962 L129.042 81.6313 L109.135 81.6313 L109.135 77.6962 Z" fill="#000000" fill-rule="evenodd" fill-opacity="1" /><path clip-path="url(#clip700)" d="M138.486 75.7517 L143.371 75.7517 L143.371 81.6313 L138.486 81.6313 L138.486 75.7517 Z" fill="#000000" fill-rule="evenodd" fill-opacity="1" /><path clip-path="url(#clip700)" d="M163.556 50.15 Q159.945 50.15 158.116 53.7148 Q156.31 57.2565 156.31 64.3861 Q156.31 71.4925 158.116 75.0573 Q159.945 78.5989 163.556 78.5989 Q167.19 78.5989 168.996 75.0573 Q170.824 71.4925 170.824 64.3861 Q170.824 57.2565 168.996 53.7148 Q167.19 50.15 163.556 50.15 M163.556 46.4463 Q169.366 46.4463 172.421 51.0528 Q175.5 55.6361 175.5 64.3861 Q175.5 73.1129 172.421 77.7193 Q169.366 82.3026 163.556 82.3026 Q157.746 82.3026 154.667 77.7193 Q151.611 73.1129 151.611 64.3861 Q151.611 55.6361 154.667 51.0528 Q157.746 46.4463 163.556 46.4463 Z" fill="#000000" fill-rule="evenodd" fill-opacity="1" /><path clip-path="url(#clip700)" d="M193.718 50.15 Q190.107 50.15 188.278 53.7148 Q186.472 57.2565 186.472 64.3861 Q186.472 71.4925 188.278 75.0573 Q190.107 78.5989 193.718 78.5989 Q197.352 78.5989 199.157 75.0573 Q200.986 71.4925 200.986 64.3861 Q200.986 57.2565 199.157 53.7148 Q197.352 50.15 193.718 50.15 M193.718 46.4463 Q199.528 46.4463 202.583 51.0528 Q205.662 55.6361 205.662 64.3861 Q205.662 73.1129 202.583 77.7193 Q199.528 82.3026 193.718 82.3026 Q187.907 82.3026 184.829 77.7193 Q181.773 73.1129 181.773 64.3861 Q181.773 55.6361 184.829 51.0528 Q187.907 46.4463 193.718 46.4463 Z" fill="#000000" fill-rule="evenodd" fill-opacity="1" /><path clip-path="url(#clip700)" d="M20.6042 650.331 L20.6042 643.902 L62.7133 643.902 L62.7133 620.762 L68.1242 620.762 L68.1242 650.331 L20.6042 650.331 Z" fill="#000000" fill-rule="evenodd" fill-opacity="1" /><path clip-path="url(#clip700)" d="M32.4762 614.269 L32.4762 608.413 L68.1242 608.413 L68.1242 614.269 L32.4762 614.269 M18.599 614.269 L18.599 608.413 L26.015 608.413 L26.015 614.269 L18.599 614.269 Z" fill="#000000" fill-rule="evenodd" fill-opacity="1" /><path clip-path="url(#clip700)" d="M39.3193 568.405 Q35.3726 566.208 33.4947 563.153 Q31.6168 560.097 31.6168 555.96 Q31.6168 550.39 35.5317 547.366 Q39.4148 544.342 46.6081 544.342 L68.1242 544.342 L68.1242 550.23 L46.799 550.23 Q41.6746 550.23 39.192 552.045 Q36.7094 553.859 36.7094 557.583 Q36.7094 562.134 39.7331 564.776 Q42.7568 567.418 47.9767 567.418 L68.1242 567.418 L68.1242 573.306 L46.799 573.306 Q41.6428 573.306 39.192 575.12 Q36.7094 576.935 36.7094 580.722 Q36.7094 585.21 39.7649 587.852 Q42.7886 590.494 47.9767 590.494 L68.1242 590.494 L68.1242 596.382 L32.4762 596.382 L32.4762 590.494 L38.0144 590.494 Q34.736 588.488 33.1764 585.687 Q31.6168 582.887 31.6168 579.035 Q31.6168 575.152 33.5902 572.447 Q35.5636 569.71 39.3193 568.405 Z" fill="#000000" fill-rule="evenodd" fill-opacity="1" /><path clip-path="url(#clip700)" d="M60.0397 531.834 L60.0397 525.118 L68.1242 525.118 L68.1242 531.834 L60.0397 531.834 Z" fill="#000000" fill-rule="evenodd" fill-opacity="1" /><path clip-path="url(#clip700)" d="M46.6081 461.588 L68.1242 461.588 L68.1242 467.444 L46.799 467.444 Q41.7383 467.444 39.2238 469.418 Q36.7094 471.391 36.7094 475.338 Q36.7094 480.08 39.7331 482.818 Q42.7568 485.555 47.9767 485.555 L68.1242 485.555 L68.1242 491.443 L32.4762 491.443 L32.4762 485.555 L38.0144 485.555 Q34.7997 483.454 33.2083 480.621 Q31.6168 477.757 31.6168 474.033 Q31.6168 467.89 35.4363 464.739 Q39.2238 461.588 46.6081 461.588 Z" fill="#000000" fill-rule="evenodd" fill-opacity="1" /><path clip-path="url(#clip700)" d="M54.0559 450.512 L32.4762 450.512 L32.4762 444.655 L53.8331 444.655 Q58.8939 444.655 61.4402 442.682 Q63.9546 440.708 63.9546 436.762 Q63.9546 432.019 60.9309 429.282 Q57.9072 426.513 52.6873 426.513 L32.4762 426.513 L32.4762 420.656 L68.1242 420.656 L68.1242 426.513 L62.6496 426.513 Q65.8962 428.645 67.4876 431.478 Q69.0472 434.279 69.0472 438.003 Q69.0472 444.146 65.2278 447.329 Q61.4083 450.512 54.0559 450.512 M31.6168 435.775 L31.6168 435.775 Z" fill="#000000" fill-rule="evenodd" fill-opacity="1" /><path clip-path="url(#clip700)" d="M22.3547 402.801 L32.4762 402.801 L32.4762 390.738 L37.0277 390.738 L37.0277 402.801 L56.3794 402.801 Q60.7399 402.801 61.9813 401.623 Q63.2226 400.414 63.2226 396.753 L63.2226 390.738 L68.1242 390.738 L68.1242 396.753 Q68.1242 403.533 65.6097 406.111 Q63.0634 408.689 56.3794 408.689 L37.0277 408.689 L37.0277 412.986 L32.4762 412.986 L32.4762 408.689 L22.3547 408.689 L22.3547 402.801 Z" fill="#000000" fill-rule="evenodd" fill-opacity="1" /><path clip-path="url(#clip700)" d="M37.9507 362.378 Q37.3778 363.365 37.1232 364.543 Q36.8367 365.689 36.8367 367.089 Q36.8367 372.054 40.0832 374.728 Q43.2979 377.37 49.3453 377.37 L68.1242 377.37 L68.1242 383.258 L32.4762 383.258 L32.4762 377.37 L38.0144 377.37 Q34.7679 375.524 33.2083 372.564 Q31.6168 369.604 31.6168 365.37 Q31.6168 364.766 31.7123 364.034 Q31.776 363.301 31.9351 362.41 L37.9507 362.378 Z" fill="#000000" fill-rule="evenodd" fill-opacity="1" /><path clip-path="url(#clip700)" d="M32.4762 356.236 L32.4762 350.379 L68.1242 350.379 L68.1242 356.236 L32.4762 356.236 M18.599 356.236 L18.599 350.379 L26.015 350.379 L26.015 356.236 L18.599 356.236 Z" fill="#000000" fill-rule="evenodd" fill-opacity="1" /><path clip-path="url(#clip700)" d="M48.8361 307.633 L51.7006 307.633 L51.7006 334.56 Q57.7481 334.178 60.9309 330.932 Q64.0819 327.654 64.0819 321.829 Q64.0819 318.455 63.2544 315.304 Q62.4269 312.121 60.7718 309.002 L66.3099 309.002 Q67.6467 312.153 68.347 315.463 Q69.0472 318.773 69.0472 322.179 Q69.0472 330.709 64.0819 335.706 Q59.1167 340.671 50.6503 340.671 Q41.8974 340.671 36.7731 335.961 Q31.6168 331.218 31.6168 323.198 Q31.6168 316.004 36.2638 311.835 Q40.8789 307.633 48.8361 307.633 M47.1173 313.49 Q42.3112 313.553 39.4466 316.195 Q36.5821 318.805 36.5821 323.134 Q36.5821 328.035 39.3512 330.996 Q42.1202 333.924 47.1492 334.369 L47.1173 313.49 Z" fill="#000000" fill-rule="evenodd" fill-opacity="1" /><path clip-path="url(#clip700)" d="M46.6081 268.389 L68.1242 268.389 L68.1242 274.245 L46.799 274.245 Q41.7383 274.245 39.2238 276.219 Q36.7094 278.192 36.7094 282.139 Q36.7094 286.881 39.7331 289.618 Q42.7568 292.356 47.9767 292.356 L68.1242 292.356 L68.1242 298.244 L32.4762 298.244 L32.4762 292.356 L38.0144 292.356 Q34.7997 290.255 33.2083 287.422 Q31.6168 284.558 31.6168 280.834 Q31.6168 274.691 35.4363 271.54 Q39.2238 268.389 46.6081 268.389 Z" fill="#000000" fill-rule="evenodd" fill-opacity="1" /><path clip-path="url(#clip700)" d="M22.3547 250.915 L32.4762 250.915 L32.4762 238.852 L37.0277 238.852 L37.0277 250.915 L56.3794 250.915 Q60.7399 250.915 61.9813 249.737 Q63.2226 248.528 63.2226 244.867 L63.2226 238.852 L68.1242 238.852 L68.1242 244.867 Q68.1242 251.647 65.6097 254.225 Q63.0634 256.803 56.3794 256.803 L37.0277 256.803 L37.0277 261.1 L32.4762 261.1 L32.4762 256.803 L22.3547 256.803 L22.3547 250.915 Z" fill="#000000" fill-rule="evenodd" fill-opacity="1" /><path clip-path="url(#clip700)" d="M18.6626 196.361 Q25.9832 200.626 33.1446 202.695 Q40.306 204.764 47.6584 204.764 Q55.0108 204.764 62.2359 202.695 Q69.4291 200.594 76.7179 196.361 L76.7179 201.453 Q69.2382 206.228 62.0131 208.615 Q54.788 210.97 47.6584 210.97 Q40.5606 210.97 33.3674 208.615 Q26.1742 206.259 18.6626 201.453 L18.6626 196.361 Z" fill="#000000" fill-rule="evenodd" fill-opacity="1" /><path clip-path="url(#clip700)" d="M50.2047 168.797 Q50.2047 175.895 51.8279 178.632 Q53.4512 181.37 57.3661 181.37 Q60.4853 181.37 62.3314 179.333 Q64.1456 177.264 64.1456 173.731 Q64.1456 168.861 60.7081 165.933 Q57.2388 162.973 51.5097 162.973 L50.2047 162.973 L50.2047 168.797 M47.7857 157.116 L68.1242 157.116 L68.1242 162.973 L62.7133 162.973 Q65.9598 164.978 67.5194 167.97 Q69.0472 170.962 69.0472 175.29 Q69.0472 180.765 65.9916 184.011 Q62.9043 187.226 57.7481 187.226 Q51.7325 187.226 48.6769 183.216 Q45.6214 179.173 45.6214 171.184 L45.6214 162.973 L45.0485 162.973 Q41.0062 162.973 38.8101 165.646 Q36.5821 168.288 36.5821 173.094 Q36.5821 176.15 37.3141 179.046 Q38.0462 181.942 39.5103 184.616 L34.0995 184.616 Q32.8581 181.401 32.2534 178.378 Q31.6168 175.354 31.6168 172.489 Q31.6168 164.755 35.6272 160.936 Q39.6376 157.116 47.7857 157.116 Z" fill="#000000" fill-rule="evenodd" fill-opacity="1" /><path clip-path="url(#clip700)" d="M60.0397 144.226 L60.0397 137.51 L68.1242 137.51 L68.1242 144.226 L60.0397 144.226 Z" fill="#000000" fill-rule="evenodd" fill-opacity="1" /><path clip-path="url(#clip700)" d="M54.0559 124.938 L32.4762 124.938 L32.4762 119.081 L53.8331 119.081 Q58.8939 119.081 61.4402 117.108 Q63.9546 115.134 63.9546 111.188 Q63.9546 106.445 60.9309 103.708 Q57.9072 100.939 52.6873 100.939 L32.4762 100.939 L32.4762 95.0824 L68.1242 95.0824 L68.1242 100.939 L62.6496 100.939 Q65.8962 103.071 67.4876 105.904 Q69.0472 108.705 69.0472 112.429 Q69.0472 118.572 65.2278 121.755 Q61.4083 124.938 54.0559 124.938 M31.6168 110.201 L31.6168 110.201 Z" fill="#000000" fill-rule="evenodd" fill-opacity="1" /><path clip-path="url(#clip700)" d="M60.0397 82.1919 L60.0397 75.476 L68.1242 75.476 L68.1242 82.1919 L60.0397 82.1919 Z" fill="#000000" fill-rule="evenodd" fill-opacity="1" /><path clip-path="url(#clip700)" d="M18.6626 63.2221 L18.6626 58.1295 Q26.1742 53.3552 33.3674 50.9999 Q40.5606 48.6128 47.6584 48.6128 Q54.788 48.6128 62.0131 50.9999 Q69.2382 53.3552 76.7179 58.1295 L76.7179 63.2221 Q69.4291 58.9889 62.2359 56.92 Q55.0108 54.8193 47.6584 54.8193 Q40.306 54.8193 33.1446 56.92 Q25.9832 58.9889 18.6626 63.2221 Z" fill="#000000" fill-rule="evenodd" fill-opacity="1" /><polyline clip-path="url(#clip702)" style="stroke:#009af9; stroke-linecap:butt; stroke-linejoin:round; stroke-width:8; stroke-opacity:1; fill:none" points="
  229.662,64.3513 262.739,122.927 295.817,180.536 328.894,236.259 361.971,289.268 395.049,338.863 428.126,384.497 461.203,425.795 494.281,462.551 527.358,494.725 
  560.436,522.423 593.513,545.874 626.59,565.402 659.668,581.395 692.745,594.276 725.822,604.48 758.9,612.429 791.977,618.52 825.054,623.11 858.132,626.511 
  891.209,628.991 924.286,630.768 957.364,632.022 990.441,632.89 1023.52,633.483 1056.6,633.88 1089.67,634.143 1122.75,634.313 1155.83,634.421 1188.91,634.489 
  1221.98,634.531 1255.06,634.557 1288.14,634.572 1321.21,634.581 1354.29,634.586 1387.37,634.589 1420.45,634.591 1453.52,634.592 1486.6,634.592 1519.68,634.592 
  1552.76,634.592 1585.83,634.593 1618.91,634.593 1651.99,634.593 1685.07,634.593 1718.14,634.593 1751.22,634.593 1784.3,634.593 1817.37,634.593 1850.45,634.593 
  1883.53,634.593 1916.61,634.593 1949.68,634.593 1982.76,634.593 2015.84,634.593 2048.92,634.593 2081.99,634.593 2115.07,634.593 2148.15,634.593 2181.23,634.593 
  2214.3,634.593 
  "/>
<polyline clip-path="url(#clip702)" style="stroke:#e26f46; stroke-linecap:butt; stroke-linejoin:round; stroke-width:8; stroke-opacity:1; fill:none" points="
  229.662,634.593 262.739,547.072 295.817,468.963 328.894,400.035 361.971,339.914 395.049,288.102 428.126,244.001 461.203,206.936 494.281,176.188 527.358,151.015 
  560.436,130.684 593.513,114.487 626.59,101.763 659.668,91.9064 692.745,84.38 725.822,78.7154 758.9,74.5138 791.977,71.443 825.054,69.2317 858.132,67.6631 
  891.209,66.567 924.286,65.8126 957.364,65.3012 990.441,64.9599 1023.52,64.7356 1056.6,64.5904 1089.67,64.4979 1122.75,64.4398 1155.83,64.404 1188.91,64.3822 
  1221.98,64.3691 1255.06,64.3615 1288.14,64.357 1321.21,64.3545 1354.29,64.353 1387.37,64.3522 1420.45,64.3518 1453.52,64.3516 1486.6,64.3515 1519.68,64.3514 
  1552.76,64.3514 1585.83,64.3513 1618.91,64.3513 1651.99,64.3513 1685.07,64.3513 1718.14,64.3513 1751.22,64.3513 1784.3,64.3513 1817.37,64.3513 1850.45,64.3513 
  1883.53,64.3513 1916.61,64.3513 1949.68,64.3513 1982.76,64.3513 2015.84,64.3513 2048.92,64.3513 2081.99,64.3513 2115.07,64.3513 2148.15,64.3513 2181.23,64.3513 
  2214.3,64.3513 
  "/>
<polyline clip-path="url(#clip702)" style="stroke:#e26f46; stroke-linecap:butt; stroke-linejoin:round; stroke-width:8; stroke-opacity:1; fill:none" stroke-dasharray="32, 20" points="
  229.662,634.593 262.739,582.537 295.817,530.481 328.894,478.426 361.971,426.37 395.049,374.314 428.126,322.259 461.203,270.203 494.281,218.147 527.358,166.092 
  560.436,114.036 593.513,64.3513 626.59,64.3513 659.668,64.3513 692.745,64.3513 725.822,64.3513 758.9,64.3513 791.977,64.3513 825.054,64.3513 858.132,64.3513 
  891.209,64.3513 924.286,64.3513 957.364,64.3513 990.441,64.3513 1023.52,64.3513 1056.6,64.3513 1089.67,64.3513 1122.75,64.3513 1155.83,64.3513 1188.91,64.3513 
  1221.98,64.3513 1255.06,64.3513 1288.14,64.3513 1321.21,64.3513 1354.29,64.3513 1387.37,64.3513 1420.45,64.3513 1453.52,64.3513 1486.6,64.3513 1519.68,64.3513 
  1552.76,64.3513 1585.83,64.3513 1618.91,64.3513 1651.99,64.3513 1685.07,64.3513 1718.14,64.3513 1751.22,64.3513 1784.3,64.3513 1817.37,64.3513 1850.45,64.3513 
  1883.53,64.3513 1916.61,64.3513 1949.68,64.3513 1982.76,64.3513 2015.84,64.3513 2048.92,64.3513 2081.99,64.3513 2115.07,64.3513 2148.15,64.3513 2181.23,64.3513 
  2214.3,64.3513 
  "/>
<polyline clip-path="url(#clip702)" style="stroke:#000000; stroke-linecap:butt; stroke-linejoin:round; stroke-width:6; stroke-opacity:0.6; fill:none" stroke-dasharray="24, 15" points="
  592.006,1256.16 592.006,-557.212 
  "/>
<path clip-path="url(#clip700)" d="
M1007.17 427.232 L1508.65 427.232 L1508.65 219.872 L1007.17 219.872  Z
  " fill="#ffffff" fill-rule="evenodd" fill-opacity="1"/>
<polyline clip-path="url(#clip700)" style="stroke:#000000; stroke-linecap:butt; stroke-linejoin:round; stroke-width:4; stroke-opacity:1; fill:none" points="
  1007.17,427.232 1508.65,427.232 1508.65,219.872 1007.17,219.872 1007.17,427.232 
  "/>
<polyline clip-path="url(#clip700)" style="stroke:#009af9; stroke-linecap:butt; stroke-linejoin:round; stroke-width:4; stroke-opacity:1; fill:none" points="
  1023.17,271.712 1119.17,271.712 
  "/>
<path clip-path="url(#clip700)" d="M1163.04 257.094 L1163.04 262.025 Q1160.68 259.825 1158 258.738 Q1155.34 257.65 1152.33 257.65 Q1146.4 257.65 1143.25 261.284 Q1140.1 264.895 1140.1 271.747 Q1140.1 278.575 1143.25 282.21 Q1146.4 285.821 1152.33 285.821 Q1155.34 285.821 1158 284.733 Q1160.68 283.645 1163.04 281.446 L1163.04 286.33 Q1160.59 287.997 1157.84 288.83 Q1155.1 289.663 1152.05 289.663 Q1144.2 289.663 1139.69 284.872 Q1135.17 280.057 1135.17 271.747 Q1135.17 263.413 1139.69 258.622 Q1144.2 253.807 1152.05 253.807 Q1155.15 253.807 1157.88 254.64 Q1160.64 255.45 1163.04 257.094 Z" fill="#000000" fill-rule="evenodd" fill-opacity="1" /><path clip-path="url(#clip700)" d="M1180.13 266.052 Q1176.7 266.052 1174.71 268.737 Q1172.72 271.399 1172.72 276.052 Q1172.72 280.705 1174.69 283.39 Q1176.68 286.052 1180.13 286.052 Q1183.53 286.052 1185.52 283.367 Q1187.51 280.682 1187.51 276.052 Q1187.51 271.446 1185.52 268.761 Q1183.53 266.052 1180.13 266.052 M1180.13 262.441 Q1185.68 262.441 1188.85 266.052 Q1192.02 269.663 1192.02 276.052 Q1192.02 282.418 1188.85 286.052 Q1185.68 289.663 1180.13 289.663 Q1174.55 289.663 1171.38 286.052 Q1168.23 282.418 1168.23 276.052 Q1168.23 269.663 1171.38 266.052 Q1174.55 262.441 1180.13 262.441 Z" fill="#000000" fill-rule="evenodd" fill-opacity="1" /><path clip-path="url(#clip700)" d="M1220.64 273.344 L1220.64 288.992 L1216.38 288.992 L1216.38 273.483 Q1216.38 269.802 1214.94 267.974 Q1213.51 266.145 1210.64 266.145 Q1207.19 266.145 1205.2 268.344 Q1203.21 270.543 1203.21 274.339 L1203.21 288.992 L1198.92 288.992 L1198.92 263.066 L1203.21 263.066 L1203.21 267.094 Q1204.73 264.756 1206.79 263.599 Q1208.88 262.441 1211.58 262.441 Q1216.05 262.441 1218.34 265.219 Q1220.64 267.974 1220.64 273.344 Z" fill="#000000" fill-rule="evenodd" fill-opacity="1" /><path clip-path="url(#clip700)" d="M1247.79 264.062 L1247.79 268.043 Q1245.98 267.048 1244.15 266.562 Q1242.35 266.052 1240.5 266.052 Q1236.35 266.052 1234.06 268.691 Q1231.77 271.307 1231.77 276.052 Q1231.77 280.798 1234.06 283.436 Q1236.35 286.052 1240.5 286.052 Q1242.35 286.052 1244.15 285.566 Q1245.98 285.057 1247.79 284.061 L1247.79 287.997 Q1246.01 288.83 1244.08 289.247 Q1242.19 289.663 1240.03 289.663 Q1234.18 289.663 1230.73 285.983 Q1227.28 282.302 1227.28 276.052 Q1227.28 269.71 1230.75 266.075 Q1234.25 262.441 1240.31 262.441 Q1242.28 262.441 1244.15 262.858 Q1246.03 263.251 1247.79 264.062 Z" fill="#000000" fill-rule="evenodd" fill-opacity="1" /><path clip-path="url(#clip700)" d="M1277.37 274.964 L1277.37 277.048 L1257.79 277.048 Q1258.07 281.446 1260.43 283.761 Q1262.81 286.052 1267.05 286.052 Q1269.5 286.052 1271.79 285.45 Q1274.11 284.848 1276.38 283.645 L1276.38 287.673 Q1274.08 288.645 1271.68 289.154 Q1269.27 289.663 1266.79 289.663 Q1260.59 289.663 1256.95 286.052 Q1253.34 282.441 1253.34 276.284 Q1253.34 269.918 1256.77 266.191 Q1260.22 262.441 1266.05 262.441 Q1271.28 262.441 1274.32 265.821 Q1277.37 269.177 1277.37 274.964 M1273.11 273.714 Q1273.07 270.219 1271.14 268.136 Q1269.25 266.052 1266.1 266.052 Q1262.53 266.052 1260.38 268.066 Q1258.25 270.08 1257.93 273.737 L1273.11 273.714 Z" fill="#000000" fill-rule="evenodd" fill-opacity="1" /><path clip-path="url(#clip700)" d="M1305.91 273.344 L1305.91 288.992 L1301.65 288.992 L1301.65 273.483 Q1301.65 269.802 1300.22 267.974 Q1298.78 266.145 1295.91 266.145 Q1292.46 266.145 1290.47 268.344 Q1288.48 270.543 1288.48 274.339 L1288.48 288.992 L1284.2 288.992 L1284.2 263.066 L1288.48 263.066 L1288.48 267.094 Q1290.01 264.756 1292.07 263.599 Q1294.15 262.441 1296.86 262.441 Q1301.33 262.441 1303.62 265.219 Q1305.91 267.974 1305.91 273.344 Z" fill="#000000" fill-rule="evenodd" fill-opacity="1" /><path clip-path="url(#clip700)" d="M1318.62 255.705 L1318.62 263.066 L1327.39 263.066 L1327.39 266.376 L1318.62 266.376 L1318.62 280.45 Q1318.62 283.622 1319.48 284.524 Q1320.36 285.427 1323.02 285.427 L1327.39 285.427 L1327.39 288.992 L1323.02 288.992 Q1318.09 288.992 1316.21 287.163 Q1314.34 285.311 1314.34 280.45 L1314.34 266.376 L1311.21 266.376 L1311.21 263.066 L1314.34 263.066 L1314.34 255.705 L1318.62 255.705 Z" fill="#000000" fill-rule="evenodd" fill-opacity="1" /><path clip-path="url(#clip700)" d="M1348.02 267.048 Q1347.3 266.631 1346.45 266.446 Q1345.61 266.237 1344.59 266.237 Q1340.98 266.237 1339.04 268.599 Q1337.12 270.937 1337.12 275.335 L1337.12 288.992 L1332.83 288.992 L1332.83 263.066 L1337.12 263.066 L1337.12 267.094 Q1338.46 264.733 1340.61 263.599 Q1342.76 262.441 1345.84 262.441 Q1346.28 262.441 1346.82 262.511 Q1347.35 262.557 1348 262.673 L1348.02 267.048 Z" fill="#000000" fill-rule="evenodd" fill-opacity="1" /><path clip-path="url(#clip700)" d="M1364.27 275.96 Q1359.11 275.96 1357.12 277.14 Q1355.13 278.321 1355.13 281.168 Q1355.13 283.436 1356.61 284.779 Q1358.11 286.098 1360.68 286.098 Q1364.22 286.098 1366.35 283.598 Q1368.51 281.075 1368.51 276.909 L1368.51 275.96 L1364.27 275.96 M1372.76 274.2 L1372.76 288.992 L1368.51 288.992 L1368.51 285.057 Q1367.05 287.418 1364.87 288.552 Q1362.7 289.663 1359.55 289.663 Q1355.57 289.663 1353.2 287.441 Q1350.87 285.196 1350.87 281.446 Q1350.87 277.071 1353.78 274.849 Q1356.72 272.626 1362.53 272.626 L1368.51 272.626 L1368.51 272.21 Q1368.51 269.27 1366.56 267.673 Q1364.64 266.052 1361.14 266.052 Q1358.92 266.052 1356.82 266.585 Q1354.71 267.117 1352.76 268.182 L1352.76 264.247 Q1355.1 263.344 1357.3 262.904 Q1359.5 262.441 1361.58 262.441 Q1367.21 262.441 1369.99 265.358 Q1372.76 268.274 1372.76 274.2 Z" fill="#000000" fill-rule="evenodd" fill-opacity="1" /><path clip-path="url(#clip700)" d="M1385.75 255.705 L1385.75 263.066 L1394.52 263.066 L1394.52 266.376 L1385.75 266.376 L1385.75 280.45 Q1385.75 283.622 1386.61 284.524 Q1387.49 285.427 1390.15 285.427 L1394.52 285.427 L1394.52 288.992 L1390.15 288.992 Q1385.22 288.992 1383.34 287.163 Q1381.47 285.311 1381.47 280.45 L1381.47 266.376 L1378.34 266.376 L1378.34 263.066 L1381.47 263.066 L1381.47 255.705 L1385.75 255.705 Z" fill="#000000" fill-rule="evenodd" fill-opacity="1" /><path clip-path="url(#clip700)" d="M1400.13 263.066 L1404.38 263.066 L1404.38 288.992 L1400.13 288.992 L1400.13 263.066 M1400.13 252.974 L1404.38 252.974 L1404.38 258.367 L1400.13 258.367 L1400.13 252.974 Z" fill="#000000" fill-rule="evenodd" fill-opacity="1" /><path clip-path="url(#clip700)" d="M1423.34 266.052 Q1419.92 266.052 1417.93 268.737 Q1415.94 271.399 1415.94 276.052 Q1415.94 280.705 1417.9 283.39 Q1419.89 286.052 1423.34 286.052 Q1426.75 286.052 1428.74 283.367 Q1430.73 280.682 1430.73 276.052 Q1430.73 271.446 1428.74 268.761 Q1426.75 266.052 1423.34 266.052 M1423.34 262.441 Q1428.9 262.441 1432.07 266.052 Q1435.24 269.663 1435.24 276.052 Q1435.24 282.418 1432.07 286.052 Q1428.9 289.663 1423.34 289.663 Q1417.76 289.663 1414.59 286.052 Q1411.44 282.418 1411.44 276.052 Q1411.44 269.663 1414.59 266.052 Q1417.76 262.441 1423.34 262.441 Z" fill="#000000" fill-rule="evenodd" fill-opacity="1" /><path clip-path="url(#clip700)" d="M1463.85 273.344 L1463.85 288.992 L1459.59 288.992 L1459.59 273.483 Q1459.59 269.802 1458.16 267.974 Q1456.72 266.145 1453.85 266.145 Q1450.4 266.145 1448.41 268.344 Q1446.42 270.543 1446.42 274.339 L1446.42 288.992 L1442.14 288.992 L1442.14 263.066 L1446.42 263.066 L1446.42 267.094 Q1447.95 264.756 1450.01 263.599 Q1452.09 262.441 1454.8 262.441 Q1459.27 262.441 1461.56 265.219 Q1463.85 267.974 1463.85 273.344 Z" fill="#000000" fill-rule="evenodd" fill-opacity="1" /><polyline clip-path="url(#clip700)" style="stroke:#e26f46; stroke-linecap:butt; stroke-linejoin:round; stroke-width:4; stroke-opacity:1; fill:none" points="
  1023.17,323.552 1119.17,323.552 
  "/>
<path clip-path="url(#clip700)" d="M1163.04 308.934 L1163.04 313.865 Q1160.68 311.665 1158 310.578 Q1155.34 309.49 1152.33 309.49 Q1146.4 309.49 1143.25 313.124 Q1140.1 316.735 1140.1 323.587 Q1140.1 330.415 1143.25 334.05 Q1146.4 337.661 1152.33 337.661 Q1155.34 337.661 1158 336.573 Q1160.68 335.485 1163.04 333.286 L1163.04 338.17 Q1160.59 339.837 1157.84 340.67 Q1155.1 341.503 1152.05 341.503 Q1144.2 341.503 1139.69 336.712 Q1135.17 331.897 1135.17 323.587 Q1135.17 315.253 1139.69 310.462 Q1144.2 305.647 1152.05 305.647 Q1155.15 305.647 1157.88 306.48 Q1160.64 307.29 1163.04 308.934 Z" fill="#000000" fill-rule="evenodd" fill-opacity="1" /><path clip-path="url(#clip700)" d="M1169.64 330.601 L1169.64 314.906 L1173.9 314.906 L1173.9 330.439 Q1173.9 334.119 1175.33 335.971 Q1176.77 337.8 1179.64 337.8 Q1183.09 337.8 1185.08 335.601 Q1187.09 333.401 1187.09 329.605 L1187.09 314.906 L1191.35 314.906 L1191.35 340.832 L1187.09 340.832 L1187.09 336.851 Q1185.54 339.212 1183.48 340.369 Q1181.45 341.503 1178.74 341.503 Q1174.27 341.503 1171.96 338.725 Q1169.64 335.948 1169.64 330.601 M1180.36 314.281 L1180.36 314.281 Z" fill="#000000" fill-rule="evenodd" fill-opacity="1" /><path clip-path="url(#clip700)" d="M1220.31 319.883 Q1221.91 317.013 1224.13 315.647 Q1226.35 314.281 1229.36 314.281 Q1233.41 314.281 1235.61 317.128 Q1237.81 319.952 1237.81 325.184 L1237.81 340.832 L1233.53 340.832 L1233.53 325.323 Q1233.53 321.596 1232.21 319.79 Q1230.89 317.985 1228.18 317.985 Q1224.87 317.985 1222.95 320.184 Q1221.03 322.383 1221.03 326.179 L1221.03 340.832 L1216.75 340.832 L1216.75 325.323 Q1216.75 321.573 1215.43 319.79 Q1214.11 317.985 1211.35 317.985 Q1208.09 317.985 1206.17 320.207 Q1204.25 322.406 1204.25 326.179 L1204.25 340.832 L1199.96 340.832 L1199.96 314.906 L1204.25 314.906 L1204.25 318.934 Q1205.71 316.55 1207.74 315.415 Q1209.78 314.281 1212.58 314.281 Q1215.4 314.281 1217.37 315.716 Q1219.36 317.152 1220.31 319.883 Z" fill="#000000" fill-rule="evenodd" fill-opacity="1" /><path clip-path="url(#clip700)" d="M1245.87 330.601 L1245.87 314.906 L1250.13 314.906 L1250.13 330.439 Q1250.13 334.119 1251.56 335.971 Q1253 337.8 1255.87 337.8 Q1259.32 337.8 1261.31 335.601 Q1263.32 333.401 1263.32 329.605 L1263.32 314.906 L1267.58 314.906 L1267.58 340.832 L1263.32 340.832 L1263.32 336.851 Q1261.77 339.212 1259.71 340.369 Q1257.67 341.503 1254.96 341.503 Q1250.5 341.503 1248.18 338.725 Q1245.87 335.948 1245.87 330.601 M1256.58 314.281 L1256.58 314.281 Z" fill="#000000" fill-rule="evenodd" fill-opacity="1" /><path clip-path="url(#clip700)" d="M1276.35 304.814 L1280.61 304.814 L1280.61 340.832 L1276.35 340.832 L1276.35 304.814 Z" fill="#000000" fill-rule="evenodd" fill-opacity="1" /><path clip-path="url(#clip700)" d="M1301.31 327.8 Q1296.14 327.8 1294.15 328.98 Q1292.16 330.161 1292.16 333.008 Q1292.16 335.276 1293.64 336.619 Q1295.15 337.938 1297.72 337.938 Q1301.26 337.938 1303.39 335.438 Q1305.54 332.915 1305.54 328.749 L1305.54 327.8 L1301.31 327.8 M1309.8 326.04 L1309.8 340.832 L1305.54 340.832 L1305.54 336.897 Q1304.08 339.258 1301.91 340.392 Q1299.73 341.503 1296.58 341.503 Q1292.6 341.503 1290.24 339.281 Q1287.9 337.036 1287.9 333.286 Q1287.9 328.911 1290.82 326.689 Q1293.76 324.466 1299.57 324.466 L1305.54 324.466 L1305.54 324.05 Q1305.54 321.11 1303.6 319.513 Q1301.68 317.892 1298.18 317.892 Q1295.96 317.892 1293.85 318.425 Q1291.75 318.957 1289.8 320.022 L1289.8 316.087 Q1292.14 315.184 1294.34 314.744 Q1296.54 314.281 1298.62 314.281 Q1304.25 314.281 1307.02 317.198 Q1309.8 320.114 1309.8 326.04 Z" fill="#000000" fill-rule="evenodd" fill-opacity="1" /><path clip-path="url(#clip700)" d="M1322.79 307.545 L1322.79 314.906 L1331.56 314.906 L1331.56 318.216 L1322.79 318.216 L1322.79 332.29 Q1322.79 335.462 1323.64 336.364 Q1324.52 337.267 1327.19 337.267 L1331.56 337.267 L1331.56 340.832 L1327.19 340.832 Q1322.26 340.832 1320.38 339.003 Q1318.51 337.151 1318.51 332.29 L1318.51 318.216 L1315.38 318.216 L1315.38 314.906 L1318.51 314.906 L1318.51 307.545 L1322.79 307.545 Z" fill="#000000" fill-rule="evenodd" fill-opacity="1" /><path clip-path="url(#clip700)" d="M1337.16 314.906 L1341.42 314.906 L1341.42 340.832 L1337.16 340.832 L1337.16 314.906 M1337.16 304.814 L1341.42 304.814 L1341.42 310.207 L1337.16 310.207 L1337.16 304.814 Z" fill="#000000" fill-rule="evenodd" fill-opacity="1" /><path clip-path="url(#clip700)" d="M1347.28 314.906 L1351.79 314.906 L1359.89 336.665 L1368 314.906 L1372.51 314.906 L1362.79 340.832 L1357 340.832 L1347.28 314.906 Z" fill="#000000" fill-rule="evenodd" fill-opacity="1" /><path clip-path="url(#clip700)" d="M1400.57 326.804 L1400.57 328.888 L1380.98 328.888 Q1381.26 333.286 1383.62 335.601 Q1386.01 337.892 1390.24 337.892 Q1392.69 337.892 1394.99 337.29 Q1397.3 336.688 1399.57 335.485 L1399.57 339.513 Q1397.28 340.485 1394.87 340.994 Q1392.46 341.503 1389.99 341.503 Q1383.78 341.503 1380.15 337.892 Q1376.54 334.281 1376.54 328.124 Q1376.54 321.758 1379.96 318.031 Q1383.41 314.281 1389.25 314.281 Q1394.48 314.281 1397.51 317.661 Q1400.57 321.017 1400.57 326.804 M1396.31 325.554 Q1396.26 322.059 1394.34 319.976 Q1392.44 317.892 1389.29 317.892 Q1385.73 317.892 1383.57 319.906 Q1381.44 321.92 1381.12 325.577 L1396.31 325.554 Z" fill="#000000" fill-rule="evenodd" fill-opacity="1" /><polyline clip-path="url(#clip700)" style="stroke:#e26f46; stroke-linecap:butt; stroke-linejoin:round; stroke-width:4; stroke-opacity:1; fill:none" stroke-dasharray="16, 10" points="
  1023.17,375.392 1119.17,375.392 
  "/>
<path clip-path="url(#clip700)" d="M1151.01 362.718 L1144.66 379.917 L1157.37 379.917 L1151.01 362.718 M1148.37 358.112 L1153.67 358.112 L1166.84 392.672 L1161.98 392.672 L1158.83 383.806 L1143.25 383.806 L1140.1 392.672 L1135.17 392.672 L1148.37 358.112 Z" fill="#000000" fill-rule="evenodd" fill-opacity="1" /><path clip-path="url(#clip700)" d="M1175.82 388.783 L1175.82 402.533 L1171.54 402.533 L1171.54 366.746 L1175.82 366.746 L1175.82 370.681 Q1177.16 368.367 1179.2 367.255 Q1181.26 366.121 1184.11 366.121 Q1188.83 366.121 1191.77 369.871 Q1194.73 373.621 1194.73 379.732 Q1194.73 385.843 1191.77 389.593 Q1188.83 393.343 1184.11 393.343 Q1181.26 393.343 1179.2 392.232 Q1177.16 391.098 1175.82 388.783 M1190.31 379.732 Q1190.31 375.033 1188.37 372.371 Q1186.45 369.686 1183.07 369.686 Q1179.69 369.686 1177.74 372.371 Q1175.82 375.033 1175.82 379.732 Q1175.82 384.431 1177.74 387.116 Q1179.69 389.778 1183.07 389.778 Q1186.45 389.778 1188.37 387.116 Q1190.31 384.431 1190.31 379.732 Z" fill="#000000" fill-rule="evenodd" fill-opacity="1" /><path clip-path="url(#clip700)" d="M1205.91 388.783 L1205.91 402.533 L1201.63 402.533 L1201.63 366.746 L1205.91 366.746 L1205.91 370.681 Q1207.26 368.367 1209.29 367.255 Q1211.35 366.121 1214.2 366.121 Q1218.92 366.121 1221.86 369.871 Q1224.83 373.621 1224.83 379.732 Q1224.83 385.843 1221.86 389.593 Q1218.92 393.343 1214.2 393.343 Q1211.35 393.343 1209.29 392.232 Q1207.26 391.098 1205.91 388.783 M1220.4 379.732 Q1220.4 375.033 1218.46 372.371 Q1216.54 369.686 1213.16 369.686 Q1209.78 369.686 1207.83 372.371 Q1205.91 375.033 1205.91 379.732 Q1205.91 384.431 1207.83 387.116 Q1209.78 389.778 1213.16 389.778 Q1216.54 389.778 1218.46 387.116 Q1220.4 384.431 1220.4 379.732 Z" fill="#000000" fill-rule="evenodd" fill-opacity="1" /><path clip-path="url(#clip700)" d="M1246.91 370.728 Q1246.19 370.311 1245.33 370.126 Q1244.5 369.917 1243.48 369.917 Q1239.87 369.917 1237.93 372.279 Q1236.01 374.617 1236.01 379.015 L1236.01 392.672 L1231.72 392.672 L1231.72 366.746 L1236.01 366.746 L1236.01 370.774 Q1237.35 368.413 1239.5 367.279 Q1241.65 366.121 1244.73 366.121 Q1245.17 366.121 1245.7 366.191 Q1246.24 366.237 1246.89 366.353 L1246.91 370.728 Z" fill="#000000" fill-rule="evenodd" fill-opacity="1" /><path clip-path="url(#clip700)" d="M1260.38 369.732 Q1256.95 369.732 1254.96 372.417 Q1252.97 375.079 1252.97 379.732 Q1252.97 384.385 1254.94 387.07 Q1256.93 389.732 1260.38 389.732 Q1263.78 389.732 1265.77 387.047 Q1267.77 384.362 1267.77 379.732 Q1267.77 375.126 1265.77 372.441 Q1263.78 369.732 1260.38 369.732 M1260.38 366.121 Q1265.94 366.121 1269.11 369.732 Q1272.28 373.343 1272.28 379.732 Q1272.28 386.098 1269.11 389.732 Q1265.94 393.343 1260.38 393.343 Q1254.8 393.343 1251.63 389.732 Q1248.48 386.098 1248.48 379.732 Q1248.48 373.343 1251.63 369.732 Q1254.8 366.121 1260.38 366.121 Z" fill="#000000" fill-rule="evenodd" fill-opacity="1" /><path clip-path="url(#clip700)" d="M1299.43 366.746 L1290.06 379.362 L1299.92 392.672 L1294.89 392.672 L1287.35 382.487 L1279.8 392.672 L1274.78 392.672 L1284.85 379.107 L1275.64 366.746 L1280.66 366.746 L1287.53 375.982 L1294.41 366.746 L1299.43 366.746 Z" fill="#000000" fill-rule="evenodd" fill-opacity="1" /><path clip-path="url(#clip700)" d="M1305.94 366.746 L1310.2 366.746 L1310.2 392.672 L1305.94 392.672 L1305.94 366.746 M1305.94 356.654 L1310.2 356.654 L1310.2 362.047 L1305.94 362.047 L1305.94 356.654 Z" fill="#000000" fill-rule="evenodd" fill-opacity="1" /><path clip-path="url(#clip700)" d="M1339.29 371.723 Q1340.89 368.853 1343.11 367.487 Q1345.33 366.121 1348.34 366.121 Q1352.39 366.121 1354.59 368.968 Q1356.79 371.792 1356.79 377.024 L1356.79 392.672 L1352.51 392.672 L1352.51 377.163 Q1352.51 373.436 1351.19 371.63 Q1349.87 369.825 1347.16 369.825 Q1343.85 369.825 1341.93 372.024 Q1340.01 374.223 1340.01 378.019 L1340.01 392.672 L1335.73 392.672 L1335.73 377.163 Q1335.73 373.413 1334.41 371.63 Q1333.09 369.825 1330.33 369.825 Q1327.07 369.825 1325.15 372.047 Q1323.23 374.246 1323.23 378.019 L1323.23 392.672 L1318.95 392.672 L1318.95 366.746 L1323.23 366.746 L1323.23 370.774 Q1324.69 368.39 1326.72 367.255 Q1328.76 366.121 1331.56 366.121 Q1334.39 366.121 1336.35 367.556 Q1338.34 368.992 1339.29 371.723 Z" fill="#000000" fill-rule="evenodd" fill-opacity="1" /><path clip-path="url(#clip700)" d="M1377.07 379.64 Q1371.91 379.64 1369.92 380.82 Q1367.93 382.001 1367.93 384.848 Q1367.93 387.116 1369.41 388.459 Q1370.91 389.778 1373.48 389.778 Q1377.02 389.778 1379.15 387.278 Q1381.31 384.755 1381.31 380.589 L1381.31 379.64 L1377.07 379.64 M1385.57 377.88 L1385.57 392.672 L1381.31 392.672 L1381.31 388.737 Q1379.85 391.098 1377.67 392.232 Q1375.5 393.343 1372.35 393.343 Q1368.37 393.343 1366.01 391.121 Q1363.67 388.876 1363.67 385.126 Q1363.67 380.751 1366.58 378.529 Q1369.52 376.306 1375.33 376.306 L1381.31 376.306 L1381.31 375.89 Q1381.31 372.95 1379.36 371.353 Q1377.44 369.732 1373.94 369.732 Q1371.72 369.732 1369.62 370.265 Q1367.51 370.797 1365.57 371.862 L1365.57 367.927 Q1367.9 367.024 1370.1 366.584 Q1372.3 366.121 1374.38 366.121 Q1380.01 366.121 1382.79 369.038 Q1385.57 371.954 1385.57 377.88 Z" fill="#000000" fill-rule="evenodd" fill-opacity="1" /><path clip-path="url(#clip700)" d="M1398.55 359.385 L1398.55 366.746 L1407.32 366.746 L1407.32 370.056 L1398.55 370.056 L1398.55 384.13 Q1398.55 387.302 1399.41 388.204 Q1400.29 389.107 1402.95 389.107 L1407.32 389.107 L1407.32 392.672 L1402.95 392.672 Q1398.02 392.672 1396.14 390.843 Q1394.27 388.991 1394.27 384.13 L1394.27 370.056 L1391.14 370.056 L1391.14 366.746 L1394.27 366.746 L1394.27 359.385 L1398.55 359.385 Z" fill="#000000" fill-rule="evenodd" fill-opacity="1" /><path clip-path="url(#clip700)" d="M1412.93 366.746 L1417.19 366.746 L1417.19 392.672 L1412.93 392.672 L1412.93 366.746 M1412.93 356.654 L1417.19 356.654 L1417.19 362.047 L1412.93 362.047 L1412.93 356.654 Z" fill="#000000" fill-rule="evenodd" fill-opacity="1" /><path clip-path="url(#clip700)" d="M1436.14 369.732 Q1432.72 369.732 1430.73 372.417 Q1428.74 375.079 1428.74 379.732 Q1428.74 384.385 1430.7 387.07 Q1432.69 389.732 1436.14 389.732 Q1439.55 389.732 1441.54 387.047 Q1443.53 384.362 1443.53 379.732 Q1443.53 375.126 1441.54 372.441 Q1439.55 369.732 1436.14 369.732 M1436.14 366.121 Q1441.7 366.121 1444.87 369.732 Q1448.04 373.343 1448.04 379.732 Q1448.04 386.098 1444.87 389.732 Q1441.7 393.343 1436.14 393.343 Q1430.57 393.343 1427.39 389.732 Q1424.25 386.098 1424.25 379.732 Q1424.25 373.343 1427.39 369.732 Q1430.57 366.121 1436.14 366.121 Z" fill="#000000" fill-rule="evenodd" fill-opacity="1" /><path clip-path="url(#clip700)" d="M1476.65 377.024 L1476.65 392.672 L1472.39 392.672 L1472.39 377.163 Q1472.39 373.482 1470.96 371.654 Q1469.52 369.825 1466.65 369.825 Q1463.2 369.825 1461.21 372.024 Q1459.22 374.223 1459.22 378.019 L1459.22 392.672 L1454.94 392.672 L1454.94 366.746 L1459.22 366.746 L1459.22 370.774 Q1460.75 368.436 1462.81 367.279 Q1464.89 366.121 1467.6 366.121 Q1472.07 366.121 1474.36 368.899 Q1476.65 371.654 1476.65 377.024 Z" fill="#000000" fill-rule="evenodd" fill-opacity="1" /></svg>
