<?xml version="1.0" encoding="utf-8"?>
<svg xmlns="http://www.w3.org/2000/svg" xmlns:xlink="http://www.w3.org/1999/xlink" width="400" height="200" viewBox="0 0 1600 800">
<defs>
  <clipPath id="clip860">
    <rect x="0" y="0" width="1600" height="800"/>
  </clipPath>
</defs>
<path clip-path="url(#clip860)" d="
M0 800 L1600 800 L1600 0 L0 0  Z
  " fill="#ffffff" fill-rule="evenodd" fill-opacity="1"/>
<defs>
  <clipPath id="clip861">
    <rect x="320" y="0" width="1121" height="800"/>
  </clipPath>
</defs>
<path clip-path="url(#clip860)" d="
M229.662 651.7 L1552.76 651.7 L1552.76 47.2441 L229.662 47.2441  Z
  " fill="#ffffff" fill-rule="evenodd" fill-opacity="1"/>
<defs>
  <clipPath id="clip862">
    <rect x="229" y="47" width="1324" height="605"/>
  </clipPath>
</defs>
<polyline clip-path="url(#clip860)" style="stroke:#000000; stroke-linecap:butt; stroke-linejoin:round; stroke-width:4; stroke-opacity:1; fill:none" points="
  229.662,651.7 1552.76,651.7 
  "/>
<polyline clip-path="url(#clip860)" style="stroke:#000000; stroke-linecap:butt; stroke-linejoin:round; stroke-width:4; stroke-opacity:1; fill:none" points="
  410.834,651.7 410.834,632.802 
  "/>
<polyline clip-path="url(#clip860)" style="stroke:#000000; stroke-linecap:butt; stroke-linejoin:round; stroke-width:4; stroke-opacity:1; fill:none" points="
  592.006,651.7 592.006,632.802 
  "/>
<polyline clip-path="url(#clip860)" style="stroke:#000000; stroke-linecap:butt; stroke-linejoin:round; stroke-width:4; stroke-opacity:1; fill:none" points="
  954.35,651.7 954.35,632.802 
  "/>
<polyline clip-path="url(#clip860)" style="stroke:#000000; stroke-linecap:butt; stroke-linejoin:round; stroke-width:4; stroke-opacity:1; fill:none" points="
  1316.69,651.7 1316.69,632.802 
  "/>
<path clip-path="url(#clip860)" d="M373.566 676.219 Q369.955 676.219 368.126 679.783 Q366.32 683.325 366.32 690.455 Q366.32 697.561 368.126 701.126 Q369.955 704.667 373.566 704.667 Q377.2 704.667 379.006 701.126 Q380.834 697.561 380.834 690.455 Q380.834 683.325 379.006 679.783 Q377.2 676.219 373.566 676.219 M373.566 672.515 Q379.376 672.515 382.431 677.121 Q385.51 681.705 385.51 690.455 Q385.51 699.181 382.431 703.788 Q379.376 708.371 373.566 708.371 Q367.756 708.371 364.677 703.788 Q361.621 699.181 361.621 690.455 Q361.621 681.705 364.677 677.121 Q367.756 672.515 373.566 672.515 Z" fill="#000000" fill-rule="evenodd" fill-opacity="1" /><path clip-path="url(#clip860)" d="M393.728 701.82 L398.612 701.82 L398.612 707.7 L393.728 707.7 L393.728 701.82 Z" fill="#000000" fill-rule="evenodd" fill-opacity="1" /><path clip-path="url(#clip860)" d="M408.843 673.14 L427.2 673.14 L427.2 677.075 L413.126 677.075 L413.126 685.547 Q414.144 685.2 415.163 685.038 Q416.181 684.853 417.2 684.853 Q422.987 684.853 426.366 688.024 Q429.746 691.195 429.746 696.612 Q429.746 702.191 426.274 705.292 Q422.802 708.371 416.482 708.371 Q414.306 708.371 412.038 708.001 Q409.792 707.63 407.385 706.89 L407.385 702.191 Q409.468 703.325 411.691 703.88 Q413.913 704.436 416.39 704.436 Q420.394 704.436 422.732 702.33 Q425.07 700.223 425.07 696.612 Q425.07 693.001 422.732 690.894 Q420.394 688.788 416.39 688.788 Q414.515 688.788 412.64 689.205 Q410.788 689.621 408.843 690.501 L408.843 673.14 Z" fill="#000000" fill-rule="evenodd" fill-opacity="1" /><path clip-path="url(#clip860)" d="M438.542 673.14 L443.218 673.14 L443.218 703.765 L460.047 703.765 L460.047 707.7 L438.542 707.7 L438.542 673.14 Z" fill="#000000" fill-rule="evenodd" fill-opacity="1" /><path clip-path="url(#clip860)" d="M581.254 673.14 L585.93 673.14 L585.93 703.765 L602.758 703.765 L602.758 707.7 L581.254 707.7 L581.254 673.14 Z" fill="#000000" fill-rule="evenodd" fill-opacity="1" /><path clip-path="url(#clip860)" d="M933.552 703.765 L949.871 703.765 L949.871 707.7 L927.927 707.7 L927.927 703.765 Q930.589 701.01 935.172 696.38 Q939.779 691.728 940.959 690.385 Q943.205 687.862 944.084 686.126 Q944.987 684.367 944.987 682.677 Q944.987 679.922 943.043 678.186 Q941.121 676.45 938.019 676.45 Q935.82 676.45 933.367 677.214 Q930.936 677.978 928.158 679.529 L928.158 674.807 Q930.982 673.672 933.436 673.094 Q935.89 672.515 937.927 672.515 Q943.297 672.515 946.492 675.2 Q949.686 677.885 949.686 682.376 Q949.686 684.506 948.876 686.427 Q948.089 688.325 945.982 690.918 Q945.404 691.589 942.302 694.806 Q939.2 698.001 933.552 703.765 Z" fill="#000000" fill-rule="evenodd" fill-opacity="1" /><path clip-path="url(#clip860)" d="M959.269 673.14 L963.945 673.14 L963.945 703.765 L980.774 703.765 L980.774 707.7 L959.269 707.7 L959.269 673.14 Z" fill="#000000" fill-rule="evenodd" fill-opacity="1" /><path clip-path="url(#clip860)" d="M1305.97 689.066 Q1309.32 689.783 1311.2 692.052 Q1313.1 694.32 1313.1 697.654 Q1313.1 702.769 1309.58 705.57 Q1306.06 708.371 1299.58 708.371 Q1297.4 708.371 1295.09 707.931 Q1292.79 707.515 1290.34 706.658 L1290.34 702.144 Q1292.28 703.279 1294.6 703.857 Q1296.91 704.436 1299.44 704.436 Q1303.84 704.436 1306.13 702.7 Q1308.44 700.964 1308.44 697.654 Q1308.44 694.598 1306.29 692.885 Q1304.16 691.149 1300.34 691.149 L1296.31 691.149 L1296.31 687.306 L1300.53 687.306 Q1303.97 687.306 1305.8 685.941 Q1307.63 684.552 1307.63 681.959 Q1307.63 679.297 1305.73 677.885 Q1303.86 676.45 1300.34 676.45 Q1298.42 676.45 1296.22 676.867 Q1294.02 677.283 1291.38 678.163 L1291.38 673.996 Q1294.04 673.256 1296.36 672.885 Q1298.7 672.515 1300.76 672.515 Q1306.08 672.515 1309.18 674.945 Q1312.28 677.353 1312.28 681.473 Q1312.28 684.343 1310.64 686.334 Q1309 688.302 1305.97 689.066 Z" fill="#000000" fill-rule="evenodd" fill-opacity="1" /><path clip-path="url(#clip860)" d="M1321.54 673.14 L1326.22 673.14 L1326.22 703.765 L1343.05 703.765 L1343.05 707.7 L1321.54 707.7 L1321.54 673.14 Z" fill="#000000" fill-rule="evenodd" fill-opacity="1" /><path clip-path="url(#clip860)" d="M518.131 742.327 L518.131 779.28 L525.897 779.28 Q535.732 779.28 540.283 774.824 Q544.867 770.368 544.867 760.756 Q544.867 751.208 540.283 746.783 Q535.732 742.327 525.897 742.327 L518.131 742.327 M511.701 737.044 L524.91 737.044 Q538.724 737.044 545.185 742.805 Q551.646 748.534 551.646 760.756 Q551.646 773.042 545.153 778.803 Q538.66 784.564 524.91 784.564 L511.701 784.564 L511.701 737.044 Z" fill="#000000" fill-rule="evenodd" fill-opacity="1" /><path clip-path="url(#clip860)" d="M561.64 748.916 L567.497 748.916 L567.497 784.564 L561.64 784.564 L561.64 748.916 M561.64 735.039 L567.497 735.039 L567.497 742.455 L561.64 742.455 L561.64 735.039 Z" fill="#000000" fill-rule="evenodd" fill-opacity="1" /><path clip-path="url(#clip860)" d="M602.476 749.966 L602.476 755.504 Q599.994 754.231 597.32 753.595 Q594.647 752.958 591.782 752.958 Q587.422 752.958 585.225 754.295 Q583.061 755.632 583.061 758.305 Q583.061 760.342 584.621 761.52 Q586.18 762.666 590.891 763.716 L592.896 764.162 Q599.134 765.499 601.744 767.949 Q604.386 770.368 604.386 774.729 Q604.386 779.694 600.439 782.59 Q596.524 785.487 589.65 785.487 Q586.785 785.487 583.666 784.914 Q580.578 784.373 577.141 783.259 L577.141 777.211 Q580.387 778.898 583.538 779.758 Q586.689 780.585 589.777 780.585 Q593.915 780.585 596.143 779.185 Q598.371 777.753 598.371 775.174 Q598.371 772.787 596.747 771.514 Q595.156 770.241 589.713 769.063 L587.676 768.586 Q582.233 767.44 579.815 765.085 Q577.396 762.698 577.396 758.56 Q577.396 753.531 580.96 750.794 Q584.525 748.057 591.082 748.057 Q594.328 748.057 597.193 748.534 Q600.057 749.011 602.476 749.966 Z" fill="#000000" fill-rule="evenodd" fill-opacity="1" /><path clip-path="url(#clip860)" d="M619.505 738.794 L619.505 748.916 L631.568 748.916 L631.568 753.467 L619.505 753.467 L619.505 772.819 Q619.505 777.18 620.682 778.421 Q621.892 779.662 625.552 779.662 L631.568 779.662 L631.568 784.564 L625.552 784.564 Q618.773 784.564 616.195 782.049 Q613.616 779.503 613.616 772.819 L613.616 753.467 L609.32 753.467 L609.32 748.916 L613.616 748.916 L613.616 738.794 L619.505 738.794 Z" fill="#000000" fill-rule="evenodd" fill-opacity="1" /><path clip-path="url(#clip860)" d="M655.471 766.644 Q648.373 766.644 645.636 768.268 Q642.899 769.891 642.899 773.806 Q642.899 776.925 644.936 778.771 Q647.005 780.585 650.538 780.585 Q655.407 780.585 658.336 777.148 Q661.296 773.678 661.296 767.949 L661.296 766.644 L655.471 766.644 M667.152 764.225 L667.152 784.564 L661.296 784.564 L661.296 779.153 Q659.29 782.4 656.298 783.959 Q653.307 785.487 648.978 785.487 Q643.503 785.487 640.257 782.431 Q637.042 779.344 637.042 774.188 Q637.042 768.172 641.053 765.117 Q645.095 762.061 653.084 762.061 L661.296 762.061 L661.296 761.488 Q661.296 757.446 658.622 755.25 Q655.98 753.022 651.174 753.022 Q648.119 753.022 645.222 753.754 Q642.326 754.486 639.652 755.95 L639.652 750.539 Q642.867 749.298 645.891 748.693 Q648.914 748.057 651.779 748.057 Q659.513 748.057 663.333 752.067 Q667.152 756.077 667.152 764.225 Z" fill="#000000" fill-rule="evenodd" fill-opacity="1" /><path clip-path="url(#clip860)" d="M708.847 763.048 L708.847 784.564 L702.991 784.564 L702.991 763.239 Q702.991 758.178 701.018 755.664 Q699.044 753.149 695.097 753.149 Q690.355 753.149 687.618 756.173 Q684.881 759.197 684.881 764.416 L684.881 784.564 L678.992 784.564 L678.992 748.916 L684.881 748.916 L684.881 754.454 Q686.981 751.239 689.814 749.648 Q692.678 748.057 696.402 748.057 Q702.545 748.057 705.696 751.876 Q708.847 755.664 708.847 763.048 Z" fill="#000000" fill-rule="evenodd" fill-opacity="1" /><path clip-path="url(#clip860)" d="M746.182 750.285 L746.182 755.759 Q743.7 754.39 741.185 753.722 Q738.703 753.022 736.156 753.022 Q730.459 753.022 727.308 756.65 Q724.157 760.247 724.157 766.772 Q724.157 773.297 727.308 776.925 Q730.459 780.522 736.156 780.522 Q738.703 780.522 741.185 779.853 Q743.7 779.153 746.182 777.784 L746.182 783.195 Q743.731 784.341 741.09 784.914 Q738.48 785.487 735.52 785.487 Q727.467 785.487 722.725 780.426 Q717.982 775.365 717.982 766.772 Q717.982 758.051 722.756 753.054 Q727.563 748.057 735.902 748.057 Q738.607 748.057 741.185 748.629 Q743.763 749.171 746.182 750.285 Z" fill="#000000" fill-rule="evenodd" fill-opacity="1" /><path clip-path="url(#clip860)" d="M786.859 765.276 L786.859 768.14 L759.932 768.14 Q760.314 774.188 763.561 777.371 Q766.839 780.522 772.664 780.522 Q776.037 780.522 779.188 779.694 Q782.371 778.867 785.49 777.211 L785.49 782.75 Q782.339 784.086 779.029 784.787 Q775.719 785.487 772.313 785.487 Q763.783 785.487 758.786 780.522 Q753.821 775.556 753.821 767.09 Q753.821 758.337 758.532 753.213 Q763.274 748.057 771.295 748.057 Q778.488 748.057 782.658 752.703 Q786.859 757.319 786.859 765.276 M781.003 763.557 Q780.939 758.751 778.297 755.886 Q775.687 753.022 771.359 753.022 Q766.457 753.022 763.497 755.791 Q760.569 758.56 760.123 763.589 L781.003 763.557 Z" fill="#000000" fill-rule="evenodd" fill-opacity="1" /><path clip-path="url(#clip860)" d="M835.238 735.039 L835.238 739.908 L829.637 739.908 Q826.486 739.908 825.244 741.182 Q824.035 742.455 824.035 745.765 L824.035 748.916 L833.679 748.916 L833.679 753.467 L824.035 753.467 L824.035 784.564 L818.147 784.564 L818.147 753.467 L812.545 753.467 L812.545 748.916 L818.147 748.916 L818.147 746.433 Q818.147 740.481 820.916 737.776 Q823.685 735.039 829.7 735.039 L835.238 735.039 Z" fill="#000000" fill-rule="evenodd" fill-opacity="1" /><path clip-path="url(#clip860)" d="M860.797 754.39 Q859.81 753.817 858.632 753.563 Q857.487 753.276 856.086 753.276 Q851.121 753.276 848.447 756.523 Q845.806 759.738 845.806 765.785 L845.806 784.564 L839.917 784.564 L839.917 748.916 L845.806 748.916 L845.806 754.454 Q847.652 751.208 850.612 749.648 Q853.572 748.057 857.805 748.057 Q858.41 748.057 859.142 748.152 Q859.874 748.216 860.765 748.375 L860.797 754.39 Z" fill="#000000" fill-rule="evenodd" fill-opacity="1" /><path clip-path="url(#clip860)" d="M879.321 753.022 Q874.61 753.022 871.873 756.714 Q869.136 760.374 869.136 766.772 Q869.136 773.169 871.841 776.861 Q874.579 780.522 879.321 780.522 Q884 780.522 886.737 776.83 Q889.474 773.137 889.474 766.772 Q889.474 760.438 886.737 756.746 Q884 753.022 879.321 753.022 M879.321 748.057 Q886.96 748.057 891.32 753.022 Q895.681 757.987 895.681 766.772 Q895.681 775.525 891.32 780.522 Q886.96 785.487 879.321 785.487 Q871.65 785.487 867.29 780.522 Q862.961 775.525 862.961 766.772 Q862.961 757.987 867.29 753.022 Q871.65 748.057 879.321 748.057 Z" fill="#000000" fill-rule="evenodd" fill-opacity="1" /><path clip-path="url(#clip860)" d="M933.143 755.759 Q935.339 751.812 938.395 749.934 Q941.45 748.057 945.588 748.057 Q951.158 748.057 954.182 751.971 Q957.205 755.855 957.205 763.048 L957.205 784.564 L951.317 784.564 L951.317 763.239 Q951.317 758.114 949.503 755.632 Q947.689 753.149 943.965 753.149 Q939.413 753.149 936.772 756.173 Q934.13 759.197 934.13 764.416 L934.13 784.564 L928.241 784.564 L928.241 763.239 Q928.241 758.083 926.427 755.632 Q924.613 753.149 920.825 753.149 Q916.338 753.149 913.696 756.205 Q911.054 759.228 911.054 764.416 L911.054 784.564 L905.166 784.564 L905.166 748.916 L911.054 748.916 L911.054 754.454 Q913.059 751.176 915.86 749.616 Q918.661 748.057 922.512 748.057 Q926.395 748.057 929.101 750.03 Q931.838 752.003 933.143 755.759 Z" fill="#000000" fill-rule="evenodd" fill-opacity="1" /><path clip-path="url(#clip860)" d="M989.607 748.916 L995.463 748.916 L995.463 784.564 L989.607 784.564 L989.607 748.916 M989.607 735.039 L995.463 735.039 L995.463 742.455 L989.607 742.455 L989.607 735.039 Z" fill="#000000" fill-rule="evenodd" fill-opacity="1" /><path clip-path="url(#clip860)" d="M1037.35 763.048 L1037.35 784.564 L1031.49 784.564 L1031.49 763.239 Q1031.49 758.178 1029.52 755.664 Q1027.55 753.149 1023.6 753.149 Q1018.86 753.149 1016.12 756.173 Q1013.38 759.197 1013.38 764.416 L1013.38 784.564 L1007.49 784.564 L1007.49 748.916 L1013.38 748.916 L1013.38 754.454 Q1015.48 751.239 1018.32 749.648 Q1021.18 748.057 1024.9 748.057 Q1031.05 748.057 1034.2 751.876 Q1037.35 755.664 1037.35 763.048 Z" fill="#000000" fill-rule="evenodd" fill-opacity="1" /><path clip-path="url(#clip860)" d="M1054.82 738.794 L1054.82 748.916 L1066.89 748.916 L1066.89 753.467 L1054.82 753.467 L1054.82 772.819 Q1054.82 777.18 1056 778.421 Q1057.21 779.662 1060.87 779.662 L1066.89 779.662 L1066.89 784.564 L1060.87 784.564 Q1054.09 784.564 1051.51 782.049 Q1048.94 779.503 1048.94 772.819 L1048.94 753.467 L1044.64 753.467 L1044.64 748.916 L1048.94 748.916 L1048.94 738.794 L1054.82 738.794 Z" fill="#000000" fill-rule="evenodd" fill-opacity="1" /><path clip-path="url(#clip860)" d="M1105.08 765.276 L1105.08 768.14 L1078.15 768.14 Q1078.54 774.188 1081.78 777.371 Q1085.06 780.522 1090.89 780.522 Q1094.26 780.522 1097.41 779.694 Q1100.59 778.867 1103.71 777.211 L1103.71 782.75 Q1100.56 784.086 1097.25 784.787 Q1093.94 785.487 1090.54 785.487 Q1082.01 785.487 1077.01 780.522 Q1072.04 775.556 1072.04 767.09 Q1072.04 758.337 1076.75 753.213 Q1081.5 748.057 1089.52 748.057 Q1096.71 748.057 1100.88 752.703 Q1105.08 757.319 1105.08 765.276 M1099.22 763.557 Q1099.16 758.751 1096.52 755.886 Q1093.91 753.022 1089.58 753.022 Q1084.68 753.022 1081.72 755.791 Q1078.79 758.56 1078.34 763.589 L1099.22 763.557 Z" fill="#000000" fill-rule="evenodd" fill-opacity="1" /><path clip-path="url(#clip860)" d="M1135.35 754.39 Q1134.36 753.817 1133.19 753.563 Q1132.04 753.276 1130.64 753.276 Q1125.67 753.276 1123 756.523 Q1120.36 759.738 1120.36 765.785 L1120.36 784.564 L1114.47 784.564 L1114.47 748.916 L1120.36 748.916 L1120.36 754.454 Q1122.2 751.208 1125.16 749.648 Q1128.12 748.057 1132.36 748.057 Q1132.96 748.057 1133.69 748.152 Q1134.43 748.216 1135.32 748.375 L1135.35 754.39 Z" fill="#000000" fill-rule="evenodd" fill-opacity="1" /><path clip-path="url(#clip860)" d="M1159.54 735.039 L1159.54 739.908 L1153.94 739.908 Q1150.79 739.908 1149.55 741.182 Q1148.34 742.455 1148.34 745.765 L1148.34 748.916 L1157.98 748.916 L1157.98 753.467 L1148.34 753.467 L1148.34 784.564 L1142.45 784.564 L1142.45 753.467 L1136.85 753.467 L1136.85 748.916 L1142.45 748.916 L1142.45 746.433 Q1142.45 740.481 1145.22 737.776 Q1147.99 735.039 1154 735.039 L1159.54 735.039 Z" fill="#000000" fill-rule="evenodd" fill-opacity="1" /><path clip-path="url(#clip860)" d="M1180.64 766.644 Q1173.54 766.644 1170.81 768.268 Q1168.07 769.891 1168.07 773.806 Q1168.07 776.925 1170.11 778.771 Q1172.18 780.585 1175.71 780.585 Q1180.58 780.585 1183.51 777.148 Q1186.47 773.678 1186.47 767.949 L1186.47 766.644 L1180.64 766.644 M1192.32 764.225 L1192.32 784.564 L1186.47 784.564 L1186.47 779.153 Q1184.46 782.4 1181.47 783.959 Q1178.48 785.487 1174.15 785.487 Q1168.67 785.487 1165.43 782.431 Q1162.21 779.344 1162.21 774.188 Q1162.21 768.172 1166.22 765.117 Q1170.27 762.061 1178.25 762.061 L1186.47 762.061 L1186.47 761.488 Q1186.47 757.446 1183.79 755.25 Q1181.15 753.022 1176.34 753.022 Q1173.29 753.022 1170.39 753.754 Q1167.5 754.486 1164.82 755.95 L1164.82 750.539 Q1168.04 749.298 1171.06 748.693 Q1174.09 748.057 1176.95 748.057 Q1184.68 748.057 1188.5 752.067 Q1192.32 756.077 1192.32 764.225 Z" fill="#000000" fill-rule="evenodd" fill-opacity="1" /><path clip-path="url(#clip860)" d="M1230.04 750.285 L1230.04 755.759 Q1227.56 754.39 1225.04 753.722 Q1222.56 753.022 1220.01 753.022 Q1214.32 753.022 1211.17 756.65 Q1208.01 760.247 1208.01 766.772 Q1208.01 773.297 1211.17 776.925 Q1214.32 780.522 1220.01 780.522 Q1222.56 780.522 1225.04 779.853 Q1227.56 779.153 1230.04 777.784 L1230.04 783.195 Q1227.59 784.341 1224.95 784.914 Q1222.34 785.487 1219.38 785.487 Q1211.32 785.487 1206.58 780.426 Q1201.84 775.365 1201.84 766.772 Q1201.84 758.051 1206.61 753.054 Q1211.42 748.057 1219.76 748.057 Q1222.46 748.057 1225.04 748.629 Q1227.62 749.171 1230.04 750.285 Z" fill="#000000" fill-rule="evenodd" fill-opacity="1" /><path clip-path="url(#clip860)" d="M1270.72 765.276 L1270.72 768.14 L1243.79 768.14 Q1244.17 774.188 1247.42 777.371 Q1250.7 780.522 1256.52 780.522 Q1259.89 780.522 1263.05 779.694 Q1266.23 778.867 1269.35 777.211 L1269.35 782.75 Q1266.2 784.086 1262.89 784.787 Q1259.58 785.487 1256.17 785.487 Q1247.64 785.487 1242.64 780.522 Q1237.68 775.556 1237.68 767.09 Q1237.68 758.337 1242.39 753.213 Q1247.13 748.057 1255.15 748.057 Q1262.35 748.057 1266.52 752.703 Q1270.72 757.319 1270.72 765.276 M1264.86 763.557 Q1264.8 758.751 1262.15 755.886 Q1259.54 753.022 1255.22 753.022 Q1250.31 753.022 1247.35 755.791 Q1244.43 758.56 1243.98 763.589 L1264.86 763.557 Z" fill="#000000" fill-rule="evenodd" fill-opacity="1" /><polyline clip-path="url(#clip860)" style="stroke:#000000; stroke-linecap:butt; stroke-linejoin:round; stroke-width:4; stroke-opacity:1; fill:none" points="
  229.662,651.7 229.662,47.2441 
  "/>
<polyline clip-path="url(#clip860)" style="stroke:#000000; stroke-linecap:butt; stroke-linejoin:round; stroke-width:4; stroke-opacity:1; fill:none" points="
  229.662,634.593 248.56,634.593 
  "/>
<polyline clip-path="url(#clip860)" style="stroke:#000000; stroke-linecap:butt; stroke-linejoin:round; stroke-width:4; stroke-opacity:1; fill:none" points="
  229.662,492.032 248.56,492.032 
  "/>
<polyline clip-path="url(#clip860)" style="stroke:#000000; stroke-linecap:butt; stroke-linejoin:round; stroke-width:4; stroke-opacity:1; fill:none" points="
  229.662,349.472 248.56,349.472 
  "/>
<polyline clip-path="url(#clip860)" style="stroke:#000000; stroke-linecap:butt; stroke-linejoin:round; stroke-width:4; stroke-opacity:1; fill:none" points="
  229.662,206.912 248.56,206.912 
  "/>
<polyline clip-path="url(#clip860)" style="stroke:#000000; stroke-linecap:butt; stroke-linejoin:round; stroke-width:4; stroke-opacity:1; fill:none" points="
  229.662,64.3513 248.56,64.3513 
  "/>
<path clip-path="url(#clip860)" d="M118.325 620.391 Q114.713 620.391 112.885 623.956 Q111.079 627.498 111.079 634.627 Q111.079 641.734 112.885 645.299 Q114.713 648.84 118.325 648.84 Q121.959 648.84 123.764 645.299 Q125.593 641.734 125.593 634.627 Q125.593 627.498 123.764 623.956 Q121.959 620.391 118.325 620.391 M118.325 616.688 Q124.135 616.688 127.19 621.294 Q130.269 625.877 130.269 634.627 Q130.269 643.354 127.19 647.961 Q124.135 652.544 118.325 652.544 Q112.514 652.544 109.436 647.961 Q106.38 643.354 106.38 634.627 Q106.38 625.877 109.436 621.294 Q112.514 616.688 118.325 616.688 Z" fill="#000000" fill-rule="evenodd" fill-opacity="1" /><path clip-path="url(#clip860)" d="M138.486 645.993 L143.371 645.993 L143.371 651.873 L138.486 651.873 L138.486 645.993 Z" fill="#000000" fill-rule="evenodd" fill-opacity="1" /><path clip-path="url(#clip860)" d="M163.556 620.391 Q159.945 620.391 158.116 623.956 Q156.31 627.498 156.31 634.627 Q156.31 641.734 158.116 645.299 Q159.945 648.84 163.556 648.84 Q167.19 648.84 168.996 645.299 Q170.824 641.734 170.824 634.627 Q170.824 627.498 168.996 623.956 Q167.19 620.391 163.556 620.391 M163.556 616.688 Q169.366 616.688 172.421 621.294 Q175.5 625.877 175.5 634.627 Q175.5 643.354 172.421 647.961 Q169.366 652.544 163.556 652.544 Q157.746 652.544 154.667 647.961 Q151.611 643.354 151.611 634.627 Q151.611 625.877 154.667 621.294 Q157.746 616.688 163.556 616.688 Z" fill="#000000" fill-rule="evenodd" fill-opacity="1" /><path clip-path="url(#clip860)" d="M193.718 620.391 Q190.107 620.391 188.278 623.956 Q186.472 627.498 186.472 634.627 Q186.472 641.734 188.278 645.299 Q190.107 648.84 193.718 648.84 Q197.352 648.84 199.157 645.299 Q200.986 641.734 200.986 634.627 Q200.986 627.498 199.157 623.956 Q197.352 620.391 193.718 620.391 M193.718 616.688 Q199.528 616.688 202.583 621.294 Q205.662 625.877 205.662 634.627 Q205.662 643.354 202.583 647.961 Q199.528 652.544 193.718 652.544 Q187.907 652.544 184.829 647.961 Q181.773 643.354 181.773 634.627 Q181.773 625.877 184.829 621.294 Q187.907 616.688 193.718 616.688 Z" fill="#000000" fill-rule="evenodd" fill-opacity="1" /><path clip-path="url(#clip860)" d="M119.32 477.831 Q115.709 477.831 113.88 481.396 Q112.075 484.937 112.075 492.067 Q112.075 499.173 113.88 502.738 Q115.709 506.28 119.32 506.28 Q122.954 506.28 124.76 502.738 Q126.588 499.173 126.588 492.067 Q126.588 484.937 124.76 481.396 Q122.954 477.831 119.32 477.831 M119.32 474.127 Q125.13 474.127 128.186 478.734 Q131.264 483.317 131.264 492.067 Q131.264 500.794 128.186 505.4 Q125.13 509.984 119.32 509.984 Q113.51 509.984 110.431 505.4 Q107.376 500.794 107.376 492.067 Q107.376 483.317 110.431 478.734 Q113.51 474.127 119.32 474.127 Z" fill="#000000" fill-rule="evenodd" fill-opacity="1" /><path clip-path="url(#clip860)" d="M139.482 503.433 L144.366 503.433 L144.366 509.312 L139.482 509.312 L139.482 503.433 Z" fill="#000000" fill-rule="evenodd" fill-opacity="1" /><path clip-path="url(#clip860)" d="M158.579 505.377 L174.898 505.377 L174.898 509.312 L152.954 509.312 L152.954 505.377 Q155.616 502.623 160.199 497.993 Q164.806 493.34 165.986 491.998 Q168.232 489.474 169.111 487.738 Q170.014 485.979 170.014 484.289 Q170.014 481.535 168.07 479.799 Q166.148 478.062 163.047 478.062 Q160.847 478.062 158.394 478.826 Q155.963 479.59 153.185 481.141 L153.185 476.419 Q156.01 475.285 158.463 474.706 Q160.917 474.127 162.954 474.127 Q168.324 474.127 171.519 476.812 Q174.713 479.498 174.713 483.988 Q174.713 486.118 173.903 488.039 Q173.116 489.937 171.009 492.53 Q170.431 493.201 167.329 496.419 Q164.227 499.613 158.579 505.377 Z" fill="#000000" fill-rule="evenodd" fill-opacity="1" /><path clip-path="url(#clip860)" d="M184.759 474.752 L203.116 474.752 L203.116 478.687 L189.042 478.687 L189.042 487.16 Q190.06 486.812 191.079 486.65 Q192.097 486.465 193.116 486.465 Q198.903 486.465 202.282 489.636 Q205.662 492.808 205.662 498.224 Q205.662 503.803 202.19 506.905 Q198.718 509.984 192.398 509.984 Q190.222 509.984 187.954 509.613 Q185.708 509.243 183.301 508.502 L183.301 503.803 Q185.384 504.937 187.607 505.493 Q189.829 506.048 192.306 506.048 Q196.31 506.048 198.648 503.942 Q200.986 501.835 200.986 498.224 Q200.986 494.613 198.648 492.507 Q196.31 490.4 192.306 490.4 Q190.431 490.4 188.556 490.817 Q186.704 491.234 184.759 492.113 L184.759 474.752 Z" fill="#000000" fill-rule="evenodd" fill-opacity="1" /><path clip-path="url(#clip860)" d="M118.325 335.271 Q114.713 335.271 112.885 338.835 Q111.079 342.377 111.079 349.507 Q111.079 356.613 112.885 360.178 Q114.713 363.72 118.325 363.72 Q121.959 363.72 123.764 360.178 Q125.593 356.613 125.593 349.507 Q125.593 342.377 123.764 338.835 Q121.959 335.271 118.325 335.271 M118.325 331.567 Q124.135 331.567 127.19 336.173 Q130.269 340.757 130.269 349.507 Q130.269 358.233 127.19 362.84 Q124.135 367.423 118.325 367.423 Q112.514 367.423 109.436 362.84 Q106.38 358.233 106.38 349.507 Q106.38 340.757 109.436 336.173 Q112.514 331.567 118.325 331.567 Z" fill="#000000" fill-rule="evenodd" fill-opacity="1" /><path clip-path="url(#clip860)" d="M138.486 360.872 L143.371 360.872 L143.371 366.752 L138.486 366.752 L138.486 360.872 Z" fill="#000000" fill-rule="evenodd" fill-opacity="1" /><path clip-path="url(#clip860)" d="M153.602 332.192 L171.959 332.192 L171.959 336.127 L157.885 336.127 L157.885 344.599 Q158.903 344.252 159.922 344.09 Q160.94 343.905 161.959 343.905 Q167.746 343.905 171.125 347.076 Q174.505 350.247 174.505 355.664 Q174.505 361.243 171.033 364.345 Q167.56 367.423 161.241 367.423 Q159.065 367.423 156.797 367.053 Q154.551 366.683 152.144 365.942 L152.144 361.243 Q154.227 362.377 156.449 362.933 Q158.672 363.488 161.148 363.488 Q165.153 363.488 167.491 361.382 Q169.829 359.275 169.829 355.664 Q169.829 352.053 167.491 349.947 Q165.153 347.84 161.148 347.84 Q159.273 347.84 157.398 348.257 Q155.547 348.673 153.602 349.553 L153.602 332.192 Z" fill="#000000" fill-rule="evenodd" fill-opacity="1" /><path clip-path="url(#clip860)" d="M193.718 335.271 Q190.107 335.271 188.278 338.835 Q186.472 342.377 186.472 349.507 Q186.472 356.613 188.278 360.178 Q190.107 363.72 193.718 363.72 Q197.352 363.72 199.157 360.178 Q200.986 356.613 200.986 349.507 Q200.986 342.377 199.157 338.835 Q197.352 335.271 193.718 335.271 M193.718 331.567 Q199.528 331.567 202.583 336.173 Q205.662 340.757 205.662 349.507 Q205.662 358.233 202.583 362.84 Q199.528 367.423 193.718 367.423 Q187.907 367.423 184.829 362.84 Q181.773 358.233 181.773 349.507 Q181.773 340.757 184.829 336.173 Q187.907 331.567 193.718 331.567 Z" fill="#000000" fill-rule="evenodd" fill-opacity="1" /><path clip-path="url(#clip860)" d="M119.32 192.71 Q115.709 192.71 113.88 196.275 Q112.075 199.817 112.075 206.946 Q112.075 214.053 113.88 217.618 Q115.709 221.159 119.32 221.159 Q122.954 221.159 124.76 217.618 Q126.588 214.053 126.588 206.946 Q126.588 199.817 124.76 196.275 Q122.954 192.71 119.32 192.71 M119.32 189.007 Q125.13 189.007 128.186 193.613 Q131.264 198.196 131.264 206.946 Q131.264 215.673 128.186 220.28 Q125.13 224.863 119.32 224.863 Q113.51 224.863 110.431 220.28 Q107.376 215.673 107.376 206.946 Q107.376 198.196 110.431 193.613 Q113.51 189.007 119.32 189.007 Z" fill="#000000" fill-rule="evenodd" fill-opacity="1" /><path clip-path="url(#clip860)" d="M139.482 218.312 L144.366 218.312 L144.366 224.192 L139.482 224.192 L139.482 218.312 Z" fill="#000000" fill-rule="evenodd" fill-opacity="1" /><path clip-path="url(#clip860)" d="M153.371 189.632 L175.593 189.632 L175.593 191.622 L163.047 224.192 L158.162 224.192 L169.968 193.567 L153.371 193.567 L153.371 189.632 Z" fill="#000000" fill-rule="evenodd" fill-opacity="1" /><path clip-path="url(#clip860)" d="M184.759 189.632 L203.116 189.632 L203.116 193.567 L189.042 193.567 L189.042 202.039 Q190.06 201.692 191.079 201.53 Q192.097 201.345 193.116 201.345 Q198.903 201.345 202.282 204.516 Q205.662 207.687 205.662 213.104 Q205.662 218.682 202.19 221.784 Q198.718 224.863 192.398 224.863 Q190.222 224.863 187.954 224.493 Q185.708 224.122 183.301 223.381 L183.301 218.682 Q185.384 219.817 187.607 220.372 Q189.829 220.928 192.306 220.928 Q196.31 220.928 198.648 218.821 Q200.986 216.715 200.986 213.104 Q200.986 209.493 198.648 207.386 Q196.31 205.28 192.306 205.28 Q190.431 205.28 188.556 205.696 Q186.704 206.113 184.759 206.993 L184.759 189.632 Z" fill="#000000" fill-rule="evenodd" fill-opacity="1" /><path clip-path="url(#clip860)" d="M109.135 77.6962 L116.774 77.6962 L116.774 51.3306 L108.463 52.9972 L108.463 48.738 L116.727 47.0713 L121.403 47.0713 L121.403 77.6962 L129.042 77.6962 L129.042 81.6313 L109.135 81.6313 L109.135 77.6962 Z" fill="#000000" fill-rule="evenodd" fill-opacity="1" /><path clip-path="url(#clip860)" d="M138.486 75.7517 L143.371 75.7517 L143.371 81.6313 L138.486 81.6313 L138.486 75.7517 Z" fill="#000000" fill-rule="evenodd" fill-opacity="1" /><path clip-path="url(#clip860)" d="M163.556 50.15 Q159.945 50.15 158.116 53.7148 Q156.31 57.2565 156.31 64.3861 Q156.31 71.4925 158.116 75.0573 Q159.945 78.5989 163.556 78.5989 Q167.19 78.5989 168.996 75.0573 Q170.824 71.4925 170.824 64.3861 Q170.824 57.2565 168.996 53.7148 Q167.19 50.15 163.556 50.15 M163.556 46.4463 Q169.366 46.4463 172.421 51.0528 Q175.5 55.6361 175.5 64.3861 Q175.5 73.1129 172.421 77.7193 Q169.366 82.3026 163.556 82.3026 Q157.746 82.3026 154.667 77.7193 Q151.611 73.1129 151.611 64.3861 Q151.611 55.6361 154.667 51.0528 Q157.746 46.4463 163.556 46.4463 Z" fill="#000000" fill-rule="evenodd" fill-opacity="1" /><path clip-path="url(#clip860)" d="M193.718 50.15 Q190.107 50.15 188.278 53.7148 Q186.472 57.2565 186.472 64.3861 Q186.472 71.4925 188.278 75.0573 Q190.107 78.5989 193.718 78.5989 Q197.352 78.5989 199.157 75.0573 Q200.986 71.4925 200.986 64.3861 Q200.986 57.2565 199.157 53.7148 Q197.352 50.15 193.718 50.15 M193.718 46.4463 Q199.528 46.4463 202.583 51.0528 Q205.662 55.6361 205.662 64.3861 Q205.662 73.1129 202.583 77.7193 Q199.528 82.3026 193.718 82.3026 Q187.907 82.3026 184.829 77.7193 Q181.773 73.1129 181.773 64.3861 Q181.773 55.6361 184.829 51.0528 Q187.907 46.4463 193.718 46.4463 Z" fill="#000000" fill-rule="evenodd" fill-opacity="1" /><path clip-path="url(#clip860)" d="M20.6042 650.331 L20.6042 643.902 L62.7133 643.902 L62.7133 620.762 L68.1242 620.762 L68.1242 650.331 L20.6042 650.331 Z" fill="#000000" fill-rule="evenodd" fill-opacity="1" /><path clip-path="url(#clip860)" d="M32.4762 614.269 L32.4762 608.413 L68.1242 608.413 L68.1242 614.269 L32.4762 614.269 M18.599 614.269 L18.599 608.413 L26.015 608.413 L26.015 614.269 L18.599 614.269 Z" fill="#000000" fill-rule="evenodd" fill-opacity="1" /><path clip-path="url(#clip860)" d="M39.3193 568.405 Q35.3726 566.208 33.4947 563.153 Q31.6168 560.097 31.6168 555.96 Q31.6168 550.39 35.5317 547.366 Q39.4148 544.342 46.6081 544.342 L68.1242 544.342 L68.1242 550.23 L46.799 550.23 Q41.6746 550.23 39.192 552.045 Q36.7094 553.859 36.7094 557.583 Q36.7094 562.134 39.7331 564.776 Q42.7568 567.418 47.9767 567.418 L68.1242 567.418 L68.1242 573.306 L46.799 573.306 Q41.6428 573.306 39.192 575.12 Q36.7094 576.935 36.7094 580.722 Q36.7094 585.21 39.7649 587.852 Q42.7886 590.494 47.9767 590.494 L68.1242 590.494 L68.1242 596.382 L32.4762 596.382 L32.4762 590.494 L38.0144 590.494 Q34.736 588.488 33.1764 585.687 Q31.6168 582.887 31.6168 579.035 Q31.6168 575.152 33.5902 572.447 Q35.5636 569.71 39.3193 568.405 Z" fill="#000000" fill-rule="evenodd" fill-opacity="1" /><path clip-path="url(#clip860)" d="M60.0397 531.834 L60.0397 525.118 L68.1242 525.118 L68.1242 531.834 L60.0397 531.834 Z" fill="#000000" fill-rule="evenodd" fill-opacity="1" /><path clip-path="url(#clip860)" d="M46.6081 461.588 L68.1242 461.588 L68.1242 467.444 L46.799 467.444 Q41.7383 467.444 39.2238 469.418 Q36.7094 471.391 36.7094 475.338 Q36.7094 480.08 39.7331 482.818 Q42.7568 485.555 47.9767 485.555 L68.1242 485.555 L68.1242 491.443 L32.4762 491.443 L32.4762 485.555 L38.0144 485.555 Q34.7997 483.454 33.2083 480.621 Q31.6168 477.757 31.6168 474.033 Q31.6168 467.89 35.4363 464.739 Q39.2238 461.588 46.6081 461.588 Z" fill="#000000" fill-rule="evenodd" fill-opacity="1" /><path clip-path="url(#clip860)" d="M54.0559 450.512 L32.4762 450.512 L32.4762 444.655 L53.8331 444.655 Q58.8939 444.655 61.4402 442.682 Q63.9546 440.708 63.9546 436.762 Q63.9546 432.019 60.9309 429.282 Q57.9072 426.513 52.6873 426.513 L32.4762 426.513 L32.4762 420.656 L68.1242 420.656 L68.1242 426.513 L62.6496 426.513 Q65.8962 428.645 67.4876 431.478 Q69.0472 434.279 69.0472 438.003 Q69.0472 444.146 65.2278 447.329 Q61.4083 450.512 54.0559 450.512 M31.6168 435.775 L31.6168 435.775 Z" fill="#000000" fill-rule="evenodd" fill-opacity="1" /><path clip-path="url(#clip860)" d="M22.3547 402.801 L32.4762 402.801 L32.4762 390.738 L37.0277 390.738 L37.0277 402.801 L56.3794 402.801 Q60.7399 402.801 61.9813 401.623 Q63.2226 400.414 63.2226 396.753 L63.2226 390.738 L68.1242 390.738 L68.1242 396.753 Q68.1242 403.533 65.6097 406.111 Q63.0634 408.689 56.3794 408.689 L37.0277 408.689 L37.0277 412.986 L32.4762 412.986 L32.4762 408.689 L22.3547 408.689 L22.3547 402.801 Z" fill="#000000" fill-rule="evenodd" fill-opacity="1" /><path clip-path="url(#clip860)" d="M37.9507 362.378 Q37.3778 363.365 37.1232 364.543 Q36.8367 365.689 36.8367 367.089 Q36.8367 372.054 40.0832 374.728 Q43.2979 377.37 49.3453 377.37 L68.1242 377.37 L68.1242 383.258 L32.4762 383.258 L32.4762 377.37 L38.0144 377.37 Q34.7679 375.524 33.2083 372.564 Q31.6168 369.604 31.6168 365.37 Q31.6168 364.766 31.7123 364.034 Q31.776 363.301 31.9351 362.41 L37.9507 362.378 Z" fill="#000000" fill-rule="evenodd" fill-opacity="1" /><path clip-path="url(#clip860)" d="M32.4762 356.236 L32.4762 350.379 L68.1242 350.379 L68.1242 356.236 L32.4762 356.236 M18.599 356.236 L18.599 350.379 L26.015 350.379 L26.015 356.236 L18.599 356.236 Z" fill="#000000" fill-rule="evenodd" fill-opacity="1" /><path clip-path="url(#clip860)" d="M48.8361 307.633 L51.7006 307.633 L51.7006 334.56 Q57.7481 334.178 60.9309 330.932 Q64.0819 327.654 64.0819 321.829 Q64.0819 318.455 63.2544 315.304 Q62.4269 312.121 60.7718 309.002 L66.3099 309.002 Q67.6467 312.153 68.347 315.463 Q69.0472 318.773 69.0472 322.179 Q69.0472 330.709 64.0819 335.706 Q59.1167 340.671 50.6503 340.671 Q41.8974 340.671 36.7731 335.961 Q31.6168 331.218 31.6168 323.198 Q31.6168 316.004 36.2638 311.835 Q40.8789 307.633 48.8361 307.633 M47.1173 313.49 Q42.3112 313.553 39.4466 316.195 Q36.5821 318.805 36.5821 323.134 Q36.5821 328.035 39.3512 330.996 Q42.1202 333.924 47.1492 334.369 L47.1173 313.49 Z" fill="#000000" fill-rule="evenodd" fill-opacity="1" /><path clip-path="url(#clip860)" d="M46.6081 268.389 L68.1242 268.389 L68.1242 274.245 L46.799 274.245 Q41.7383 274.245 39.2238 276.219 Q36.7094 278.192 36.7094 282.139 Q36.7094 286.881 39.7331 289.618 Q42.7568 292.356 47.9767 292.356 L68.1242 292.356 L68.1242 298.244 L32.4762 298.244 L32.4762 292.356 L38.0144 292.356 Q34.7997 290.255 33.2083 287.422 Q31.6168 284.558 31.6168 280.834 Q31.6168 274.691 35.4363 271.54 Q39.2238 268.389 46.6081 268.389 Z" fill="#000000" fill-rule="evenodd" fill-opacity="1" /><path clip-path="url(#clip860)" d="M22.3547 250.915 L32.4762 250.915 L32.4762 238.852 L37.0277 238.852 L37.0277 250.915 L56.3794 250.915 Q60.7399 250.915 61.9813 249.737 Q63.2226 248.528 63.2226 244.867 L63.2226 238.852 L68.1242 238.852 L68.1242 244.867 Q68.1242 251.647 65.6097 254.225 Q63.0634 256.803 56.3794 256.803 L37.0277 256.803 L37.0277 261.1 L32.4762 261.1 L32.4762 256.803 L22.3547 256.803 L22.3547 250.915 Z" fill="#000000" fill-rule="evenodd" fill-opacity="1" /><path clip-path="url(#clip860)" d="M18.6626 196.361 Q25.9832 200.626 33.1446 202.695 Q40.306 204.764 47.6584 204.764 Q55.0108 204.764 62.2359 202.695 Q69.4291 200.594 76.7179 196.361 L76.7179 201.453 Q69.2382 206.228 62.0131 208.615 Q54.788 210.97 47.6584 210.97 Q40.5606 210.97 33.3674 208.615 Q26.1742 206.259 18.6626 201.453 L18.6626 196.361 Z" fill="#000000" fill-rule="evenodd" fill-opacity="1" /><path clip-path="url(#clip860)" d="M50.2047 168.797 Q50.2047 175.895 51.8279 178.632 Q53.4512 181.37 57.3661 181.37 Q60.4853 181.37 62.3314 179.333 Q64.1456 177.264 64.1456 173.731 Q64.1456 168.861 60.7081 165.933 Q57.2388 162.973 51.5097 162.973 L50.2047 162.973 L50.2047 168.797 M47.7857 157.116 L68.1242 157.116 L68.1242 162.973 L62.7133 162.973 Q65.9598 164.978 67.5194 167.97 Q69.0472 170.962 69.0472 175.29 Q69.0472 180.765 65.9916 184.011 Q62.9043 187.226 57.7481 187.226 Q51.7325 187.226 48.6769 183.216 Q45.6214 179.173 45.6214 171.184 L45.6214 162.973 L45.0485 162.973 Q41.0062 162.973 38.8101 165.646 Q36.5821 168.288 36.5821 173.094 Q36.5821 176.15 37.3141 179.046 Q38.0462 181.942 39.5103 184.616 L34.0995 184.616 Q32.8581 181.401 32.2534 178.378 Q31.6168 175.354 31.6168 172.489 Q31.6168 164.755 35.6272 160.936 Q39.6376 157.116 47.7857 157.116 Z" fill="#000000" fill-rule="evenodd" fill-opacity="1" /><path clip-path="url(#clip860)" d="M60.0397 144.226 L60.0397 137.51 L68.1242 137.51 L68.1242 144.226 L60.0397 144.226 Z" fill="#000000" fill-rule="evenodd" fill-opacity="1" /><path clip-path="url(#clip860)" d="M54.0559 124.938 L32.4762 124.938 L32.4762 119.081 L53.8331 119.081 Q58.8939 119.081 61.4402 117.108 Q63.9546 115.134 63.9546 111.188 Q63.9546 106.445 60.9309 103.708 Q57.9072 100.939 52.6873 100.939 L32.4762 100.939 L32.4762 95.0824 L68.1242 95.0824 L68.1242 100.939 L62.6496 100.939 Q65.8962 103.071 67.4876 105.904 Q69.0472 108.705 69.0472 112.429 Q69.0472 118.572 65.2278 121.755 Q61.4083 124.938 54.0559 124.938 M31.6168 110.201 L31.6168 110.201 Z" fill="#000000" fill-rule="evenodd" fill-opacity="1" /><path clip-path="url(#clip860)" d="M60.0397 82.1919 L60.0397 75.476 L68.1242 75.476 L68.1242 82.1919 L60.0397 82.1919 Z" fill="#000000" fill-rule="evenodd" fill-opacity="1" /><path clip-path="url(#clip860)" d="M18.6626 63.2221 L18.6626 58.1295 Q26.1742 53.3552 33.3674 50.9999 Q40.5606 48.6128 47.6584 48.6128 Q54.788 48.6128 62.0131 50.9999 Q69.2382 53.3552 76.7179 58.1295 L76.7179 63.2221 Q69.4291 58.9889 62.2359 56.92 Q55.0108 54.8193 47.6584 54.8193 Q40.306 54.8193 33.1446 56.92 Q25.9832 58.9889 18.6626 63.2221 Z" fill="#000000" fill-rule="evenodd" fill-opacity="1" /><polyline clip-path="url(#clip862)" style="stroke:#009af9; stroke-linecap:butt; stroke-linejoin:round; stroke-width:8; stroke-opacity:1; fill:none" points="
  229.662,64.3513 262.739,122.927 295.817,180.536 328.894,236.259 361.971,289.268 395.049,338.863 428.126,384.497 461.203,425.795 494.281,462.551 527.358,494.725 
  560.436,522.423 593.513,545.874 626.59,565.402 659.668,581.395 692.745,594.276 725.822,604.48 758.9,612.429 791.977,618.52 825.054,623.11 858.132,626.511 
  891.209,628.991 924.286,630.768 957.364,632.022 990.441,632.89 1023.52,633.483 1056.6,633.88 1089.67,634.143 1122.75,634.313 1155.83,634.421 1188.91,634.489 
  1221.98,634.531 1255.06,634.557 1288.14,634.572 1321.21,634.581 1354.29,634.586 1387.37,634.589 1420.45,634.591 1453.52,634.592 1486.6,634.592 1519.68,634.592 
  1552.76,634.592 1585.83,634.593 1618.91,634.593 1651.99,634.593 1685.07,634.593 1718.14,634.593 1751.22,634.593 1784.3,634.593 1817.37,634.593 1850.45,634.593 
  1883.53,634.593 1916.61,634.593 1949.68,634.593 1982.76,634.593 2015.84,634.593 2048.92,634.593 2081.99,634.593 2115.07,634.593 2148.15,634.593 2181.23,634.593 
  2214.3,634.593 
  "/>
<polyline clip-path="url(#clip862)" style="stroke:#e26f46; stroke-linecap:butt; stroke-linejoin:round; stroke-width:8; stroke-opacity:1; fill:none" points="
  229.662,634.593 262.739,547.072 295.817,468.963 328.894,400.035 361.971,339.914 395.049,288.102 428.126,244.001 461.203,206.936 494.281,176.188 527.358,151.015 
  560.436,130.684 593.513,114.487 626.59,101.763 659.668,91.9064 692.745,84.38 725.822,78.7154 758.9,74.5138 791.977,71.443 825.054,69.2317 858.132,67.6631 
  891.209,66.567 924.286,65.8126 957.364,65.3012 990.441,64.9599 1023.52,64.7356 1056.6,64.5904 1089.67,64.4979 1122.75,64.4398 1155.83,64.404 1188.91,64.3822 
  1221.98,64.3691 1255.06,64.3615 1288.14,64.357 1321.21,64.3545 1354.29,64.353 1387.37,64.3522 1420.45,64.3518 1453.52,64.3516 1486.6,64.3515 1519.68,64.3514 
  1552.76,64.3514 1585.83,64.3513 1618.91,64.3513 1651.99,64.3513 1685.07,64.3513 1718.14,64.3513 1751.22,64.3513 1784.3,64.3513 1817.37,64.3513 1850.45,64.3513 
  1883.53,64.3513 1916.61,64.3513 1949.68,64.3513 1982.76,64.3513 2015.84,64.3513 2048.92,64.3513 2081.99,64.3513 2115.07,64.3513 2148.15,64.3513 2181.23,64.3513 
  2214.3,64.3513 
  "/>
<polyline clip-path="url(#clip862)" style="stroke:#000000; stroke-linecap:butt; stroke-linejoin:round; stroke-width:6; stroke-opacity:0.6; fill:none" stroke-dasharray="24, 15" points="
  592.006,1256.16 592.006,-557.212 
  "/>
<path clip-path="url(#clip860)" d="
M1019.97 401.312 L1508.65 401.312 L1508.65 245.792 L1019.97 245.792  Z
  " fill="#ffffff" fill-rule="evenodd" fill-opacity="1"/>
<polyline clip-path="url(#clip860)" style="stroke:#000000; stroke-linecap:butt; stroke-linejoin:round; stroke-width:4; stroke-opacity:1; fill:none" points="
  1019.97,401.312 1508.65,401.312 1508.65,245.792 1019.97,245.792 1019.97,401.312 
  "/>
<polyline clip-path="url(#clip860)" style="stroke:#009af9; stroke-linecap:butt; stroke-linejoin:round; stroke-width:4; stroke-opacity:1; fill:none" points="
  1035.97,297.632 1131.97,297.632 
  "/>
<path clip-path="url(#clip860)" d="M1175.84 283.014 L1175.84 287.945 Q1173.48 285.745 1170.8 284.658 Q1168.14 283.57 1165.13 283.57 Q1159.2 283.57 1156.05 287.204 Q1152.9 290.815 1152.9 297.667 Q1152.9 304.495 1156.05 308.13 Q1159.2 311.741 1165.13 311.741 Q1168.14 311.741 1170.8 310.653 Q1173.48 309.565 1175.84 307.366 L1175.84 312.25 Q1173.39 313.917 1170.64 314.75 Q1167.9 315.583 1164.85 315.583 Q1157 315.583 1152.49 310.792 Q1147.97 305.977 1147.97 297.667 Q1147.97 289.333 1152.49 284.542 Q1157 279.727 1164.85 279.727 Q1167.95 279.727 1170.68 280.56 Q1173.44 281.37 1175.84 283.014 Z" fill="#000000" fill-rule="evenodd" fill-opacity="1" /><path clip-path="url(#clip860)" d="M1192.93 291.972 Q1189.5 291.972 1187.51 294.657 Q1185.52 297.319 1185.52 301.972 Q1185.52 306.625 1187.49 309.31 Q1189.48 311.972 1192.93 311.972 Q1196.33 311.972 1198.32 309.287 Q1200.31 306.602 1200.31 301.972 Q1200.31 297.366 1198.32 294.681 Q1196.33 291.972 1192.93 291.972 M1192.93 288.361 Q1198.48 288.361 1201.65 291.972 Q1204.83 295.583 1204.83 301.972 Q1204.83 308.338 1201.65 311.972 Q1198.48 315.583 1192.93 315.583 Q1187.35 315.583 1184.18 311.972 Q1181.03 308.338 1181.03 301.972 Q1181.03 295.583 1184.18 291.972 Q1187.35 288.361 1192.93 288.361 Z" fill="#000000" fill-rule="evenodd" fill-opacity="1" /><path clip-path="url(#clip860)" d="M1233.44 299.264 L1233.44 314.912 L1229.18 314.912 L1229.18 299.403 Q1229.18 295.722 1227.74 293.894 Q1226.31 292.065 1223.44 292.065 Q1219.99 292.065 1218 294.264 Q1216.01 296.463 1216.01 300.259 L1216.01 314.912 L1211.72 314.912 L1211.72 288.986 L1216.01 288.986 L1216.01 293.014 Q1217.53 290.676 1219.59 289.519 Q1221.68 288.361 1224.39 288.361 Q1228.85 288.361 1231.14 291.139 Q1233.44 293.894 1233.44 299.264 Z" fill="#000000" fill-rule="evenodd" fill-opacity="1" /><path clip-path="url(#clip860)" d="M1260.59 289.982 L1260.59 293.963 Q1258.78 292.968 1256.95 292.482 Q1255.15 291.972 1253.3 291.972 Q1249.15 291.972 1246.86 294.611 Q1244.57 297.227 1244.57 301.972 Q1244.57 306.718 1246.86 309.356 Q1249.15 311.972 1253.3 311.972 Q1255.15 311.972 1256.95 311.486 Q1258.78 310.977 1260.59 309.981 L1260.59 313.917 Q1258.81 314.75 1256.89 315.167 Q1254.99 315.583 1252.83 315.583 Q1246.98 315.583 1243.53 311.903 Q1240.08 308.222 1240.08 301.972 Q1240.08 295.63 1243.55 291.995 Q1247.05 288.361 1253.11 288.361 Q1255.08 288.361 1256.95 288.778 Q1258.83 289.171 1260.59 289.982 Z" fill="#000000" fill-rule="evenodd" fill-opacity="1" /><path clip-path="url(#clip860)" d="M1290.17 300.884 L1290.17 302.968 L1270.59 302.968 Q1270.87 307.366 1273.23 309.681 Q1275.61 311.972 1279.85 311.972 Q1282.3 311.972 1284.59 311.37 Q1286.91 310.768 1289.18 309.565 L1289.18 313.593 Q1286.89 314.565 1284.48 315.074 Q1282.07 315.583 1279.59 315.583 Q1273.39 315.583 1269.76 311.972 Q1266.14 308.361 1266.14 302.204 Q1266.14 295.838 1269.57 292.111 Q1273.02 288.361 1278.85 288.361 Q1284.08 288.361 1287.12 291.741 Q1290.17 295.097 1290.17 300.884 M1285.91 299.634 Q1285.87 296.139 1283.95 294.056 Q1282.05 291.972 1278.9 291.972 Q1275.33 291.972 1273.18 293.986 Q1271.05 296 1270.73 299.657 L1285.91 299.634 Z" fill="#000000" fill-rule="evenodd" fill-opacity="1" /><path clip-path="url(#clip860)" d="M1318.71 299.264 L1318.71 314.912 L1314.45 314.912 L1314.45 299.403 Q1314.45 295.722 1313.02 293.894 Q1311.58 292.065 1308.71 292.065 Q1305.26 292.065 1303.27 294.264 Q1301.28 296.463 1301.28 300.259 L1301.28 314.912 L1297 314.912 L1297 288.986 L1301.28 288.986 L1301.28 293.014 Q1302.81 290.676 1304.87 289.519 Q1306.95 288.361 1309.66 288.361 Q1314.13 288.361 1316.42 291.139 Q1318.71 293.894 1318.71 299.264 Z" fill="#000000" fill-rule="evenodd" fill-opacity="1" /><path clip-path="url(#clip860)" d="M1331.42 281.625 L1331.42 288.986 L1340.2 288.986 L1340.2 292.296 L1331.42 292.296 L1331.42 306.37 Q1331.42 309.542 1332.28 310.444 Q1333.16 311.347 1335.82 311.347 L1340.2 311.347 L1340.2 314.912 L1335.82 314.912 Q1330.89 314.912 1329.01 313.083 Q1327.14 311.231 1327.14 306.37 L1327.14 292.296 L1324.01 292.296 L1324.01 288.986 L1327.14 288.986 L1327.14 281.625 L1331.42 281.625 Z" fill="#000000" fill-rule="evenodd" fill-opacity="1" /><path clip-path="url(#clip860)" d="M1360.82 292.968 Q1360.1 292.551 1359.25 292.366 Q1358.41 292.157 1357.39 292.157 Q1353.78 292.157 1351.84 294.519 Q1349.92 296.857 1349.92 301.255 L1349.92 314.912 L1345.63 314.912 L1345.63 288.986 L1349.92 288.986 L1349.92 293.014 Q1351.26 290.653 1353.41 289.519 Q1355.57 288.361 1358.64 288.361 Q1359.08 288.361 1359.62 288.431 Q1360.15 288.477 1360.8 288.593 L1360.82 292.968 Z" fill="#000000" fill-rule="evenodd" fill-opacity="1" /><path clip-path="url(#clip860)" d="M1377.07 301.88 Q1371.91 301.88 1369.92 303.06 Q1367.93 304.241 1367.93 307.088 Q1367.93 309.356 1369.41 310.699 Q1370.91 312.018 1373.48 312.018 Q1377.02 312.018 1379.15 309.518 Q1381.31 306.995 1381.31 302.829 L1381.31 301.88 L1377.07 301.88 M1385.57 300.12 L1385.57 314.912 L1381.31 314.912 L1381.31 310.977 Q1379.85 313.338 1377.67 314.472 Q1375.5 315.583 1372.35 315.583 Q1368.37 315.583 1366.01 313.361 Q1363.67 311.116 1363.67 307.366 Q1363.67 302.991 1366.58 300.769 Q1369.52 298.546 1375.33 298.546 L1381.31 298.546 L1381.31 298.13 Q1381.31 295.19 1379.36 293.593 Q1377.44 291.972 1373.94 291.972 Q1371.72 291.972 1369.62 292.505 Q1367.51 293.037 1365.57 294.102 L1365.57 290.167 Q1367.9 289.264 1370.1 288.824 Q1372.3 288.361 1374.38 288.361 Q1380.01 288.361 1382.79 291.278 Q1385.57 294.194 1385.57 300.12 Z" fill="#000000" fill-rule="evenodd" fill-opacity="1" /><path clip-path="url(#clip860)" d="M1398.55 281.625 L1398.55 288.986 L1407.32 288.986 L1407.32 292.296 L1398.55 292.296 L1398.55 306.37 Q1398.55 309.542 1399.41 310.444 Q1400.29 311.347 1402.95 311.347 L1407.32 311.347 L1407.32 314.912 L1402.95 314.912 Q1398.02 314.912 1396.14 313.083 Q1394.27 311.231 1394.27 306.37 L1394.27 292.296 L1391.14 292.296 L1391.14 288.986 L1394.27 288.986 L1394.27 281.625 L1398.55 281.625 Z" fill="#000000" fill-rule="evenodd" fill-opacity="1" /><path clip-path="url(#clip860)" d="M1412.93 288.986 L1417.19 288.986 L1417.19 314.912 L1412.93 314.912 L1412.93 288.986 M1412.93 278.894 L1417.19 278.894 L1417.19 284.287 L1412.93 284.287 L1412.93 278.894 Z" fill="#000000" fill-rule="evenodd" fill-opacity="1" /><path clip-path="url(#clip860)" d="M1436.14 291.972 Q1432.72 291.972 1430.73 294.657 Q1428.74 297.319 1428.74 301.972 Q1428.74 306.625 1430.7 309.31 Q1432.69 311.972 1436.14 311.972 Q1439.55 311.972 1441.54 309.287 Q1443.53 306.602 1443.53 301.972 Q1443.53 297.366 1441.54 294.681 Q1439.55 291.972 1436.14 291.972 M1436.14 288.361 Q1441.7 288.361 1444.87 291.972 Q1448.04 295.583 1448.04 301.972 Q1448.04 308.338 1444.87 311.972 Q1441.7 315.583 1436.14 315.583 Q1430.57 315.583 1427.39 311.972 Q1424.25 308.338 1424.25 301.972 Q1424.25 295.583 1427.39 291.972 Q1430.57 288.361 1436.14 288.361 Z" fill="#000000" fill-rule="evenodd" fill-opacity="1" /><path clip-path="url(#clip860)" d="M1476.65 299.264 L1476.65 314.912 L1472.39 314.912 L1472.39 299.403 Q1472.39 295.722 1470.96 293.894 Q1469.52 292.065 1466.65 292.065 Q1463.2 292.065 1461.21 294.264 Q1459.22 296.463 1459.22 300.259 L1459.22 314.912 L1454.94 314.912 L1454.94 288.986 L1459.22 288.986 L1459.22 293.014 Q1460.75 290.676 1462.81 289.519 Q1464.89 288.361 1467.6 288.361 Q1472.07 288.361 1474.36 291.139 Q1476.65 293.894 1476.65 299.264 Z" fill="#000000" fill-rule="evenodd" fill-opacity="1" /><polyline clip-path="url(#clip860)" style="stroke:#e26f46; stroke-linecap:butt; stroke-linejoin:round; stroke-width:4; stroke-opacity:1; fill:none" points="
  1035.97,349.472 1131.97,349.472 
  "/>
<path clip-path="url(#clip860)" d="M1175.84 334.854 L1175.84 339.785 Q1173.48 337.585 1170.8 336.498 Q1168.14 335.41 1165.13 335.41 Q1159.2 335.41 1156.05 339.044 Q1152.9 342.655 1152.9 349.507 Q1152.9 356.335 1156.05 359.97 Q1159.2 363.581 1165.13 363.581 Q1168.14 363.581 1170.8 362.493 Q1173.48 361.405 1175.84 359.206 L1175.84 364.09 Q1173.39 365.757 1170.64 366.59 Q1167.9 367.423 1164.85 367.423 Q1157 367.423 1152.49 362.632 Q1147.97 357.817 1147.97 349.507 Q1147.97 341.173 1152.49 336.382 Q1157 331.567 1164.85 331.567 Q1167.95 331.567 1170.68 332.4 Q1173.44 333.21 1175.84 334.854 Z" fill="#000000" fill-rule="evenodd" fill-opacity="1" /><path clip-path="url(#clip860)" d="M1182.44 356.521 L1182.44 340.826 L1186.7 340.826 L1186.7 356.359 Q1186.7 360.039 1188.14 361.891 Q1189.57 363.72 1192.44 363.72 Q1195.89 363.72 1197.88 361.521 Q1199.9 359.321 1199.9 355.525 L1199.9 340.826 L1204.15 340.826 L1204.15 366.752 L1199.9 366.752 L1199.9 362.771 Q1198.34 365.132 1196.28 366.289 Q1194.25 367.423 1191.54 367.423 Q1187.07 367.423 1184.76 364.645 Q1182.44 361.868 1182.44 356.521 M1193.16 340.201 L1193.16 340.201 Z" fill="#000000" fill-rule="evenodd" fill-opacity="1" /><path clip-path="url(#clip860)" d="M1233.11 345.803 Q1234.71 342.933 1236.93 341.567 Q1239.15 340.201 1242.16 340.201 Q1246.21 340.201 1248.41 343.048 Q1250.61 345.872 1250.61 351.104 L1250.61 366.752 L1246.33 366.752 L1246.33 351.243 Q1246.33 347.516 1245.01 345.71 Q1243.69 343.905 1240.98 343.905 Q1237.67 343.905 1235.75 346.104 Q1233.83 348.303 1233.83 352.099 L1233.83 366.752 L1229.55 366.752 L1229.55 351.243 Q1229.55 347.493 1228.23 345.71 Q1226.91 343.905 1224.15 343.905 Q1220.89 343.905 1218.97 346.127 Q1217.05 348.326 1217.05 352.099 L1217.05 366.752 L1212.77 366.752 L1212.77 340.826 L1217.05 340.826 L1217.05 344.854 Q1218.51 342.47 1220.54 341.335 Q1222.58 340.201 1225.38 340.201 Q1228.21 340.201 1230.17 341.636 Q1232.16 343.072 1233.11 345.803 Z" fill="#000000" fill-rule="evenodd" fill-opacity="1" /><path clip-path="url(#clip860)" d="M1258.67 356.521 L1258.67 340.826 L1262.93 340.826 L1262.93 356.359 Q1262.93 360.039 1264.36 361.891 Q1265.8 363.72 1268.67 363.72 Q1272.12 363.72 1274.11 361.521 Q1276.12 359.321 1276.12 355.525 L1276.12 340.826 L1280.38 340.826 L1280.38 366.752 L1276.12 366.752 L1276.12 362.771 Q1274.57 365.132 1272.51 366.289 Q1270.47 367.423 1267.77 367.423 Q1263.3 367.423 1260.98 364.645 Q1258.67 361.868 1258.67 356.521 M1269.39 340.201 L1269.39 340.201 Z" fill="#000000" fill-rule="evenodd" fill-opacity="1" /><path clip-path="url(#clip860)" d="M1289.15 330.734 L1293.41 330.734 L1293.41 366.752 L1289.15 366.752 L1289.15 330.734 Z" fill="#000000" fill-rule="evenodd" fill-opacity="1" /><path clip-path="url(#clip860)" d="M1314.11 353.72 Q1308.95 353.72 1306.95 354.9 Q1304.96 356.081 1304.96 358.928 Q1304.96 361.196 1306.45 362.539 Q1307.95 363.858 1310.52 363.858 Q1314.06 363.858 1316.19 361.358 Q1318.34 358.835 1318.34 354.669 L1318.34 353.72 L1314.11 353.72 M1322.6 351.96 L1322.6 366.752 L1318.34 366.752 L1318.34 362.817 Q1316.89 365.178 1314.71 366.312 Q1312.53 367.423 1309.39 367.423 Q1305.4 367.423 1303.04 365.201 Q1300.7 362.956 1300.7 359.206 Q1300.7 354.831 1303.62 352.609 Q1306.56 350.386 1312.37 350.386 L1318.34 350.386 L1318.34 349.97 Q1318.34 347.03 1316.4 345.433 Q1314.48 343.812 1310.98 343.812 Q1308.76 343.812 1306.65 344.345 Q1304.55 344.877 1302.6 345.942 L1302.6 342.007 Q1304.94 341.104 1307.14 340.664 Q1309.34 340.201 1311.42 340.201 Q1317.05 340.201 1319.82 343.118 Q1322.6 346.034 1322.6 351.96 Z" fill="#000000" fill-rule="evenodd" fill-opacity="1" /><path clip-path="url(#clip860)" d="M1335.59 333.465 L1335.59 340.826 L1344.36 340.826 L1344.36 344.136 L1335.59 344.136 L1335.59 358.21 Q1335.59 361.382 1336.45 362.284 Q1337.32 363.187 1339.99 363.187 L1344.36 363.187 L1344.36 366.752 L1339.99 366.752 Q1335.06 366.752 1333.18 364.923 Q1331.31 363.071 1331.31 358.21 L1331.31 344.136 L1328.18 344.136 L1328.18 340.826 L1331.31 340.826 L1331.31 333.465 L1335.59 333.465 Z" fill="#000000" fill-rule="evenodd" fill-opacity="1" /><path clip-path="url(#clip860)" d="M1349.96 340.826 L1354.22 340.826 L1354.22 366.752 L1349.96 366.752 L1349.96 340.826 M1349.96 330.734 L1354.22 330.734 L1354.22 336.127 L1349.96 336.127 L1349.96 330.734 Z" fill="#000000" fill-rule="evenodd" fill-opacity="1" /><path clip-path="url(#clip860)" d="M1360.08 340.826 L1364.59 340.826 L1372.7 362.585 L1380.8 340.826 L1385.31 340.826 L1375.59 366.752 L1369.8 366.752 L1360.08 340.826 Z" fill="#000000" fill-rule="evenodd" fill-opacity="1" /><path clip-path="url(#clip860)" d="M1413.37 352.724 L1413.37 354.808 L1393.78 354.808 Q1394.06 359.206 1396.42 361.521 Q1398.81 363.812 1403.04 363.812 Q1405.5 363.812 1407.79 363.21 Q1410.1 362.608 1412.37 361.405 L1412.37 365.433 Q1410.08 366.405 1407.67 366.914 Q1405.26 367.423 1402.79 367.423 Q1396.58 367.423 1392.95 363.812 Q1389.34 360.201 1389.34 354.044 Q1389.34 347.678 1392.76 343.951 Q1396.21 340.201 1402.05 340.201 Q1407.28 340.201 1410.31 343.581 Q1413.37 346.937 1413.37 352.724 M1409.11 351.474 Q1409.06 347.979 1407.14 345.896 Q1405.24 343.812 1402.09 343.812 Q1398.53 343.812 1396.38 345.826 Q1394.25 347.84 1393.92 351.497 L1409.11 351.474 Z" fill="#000000" fill-rule="evenodd" fill-opacity="1" /></svg>
