<?xml version="1.0" encoding="utf-8"?>
<svg xmlns="http://www.w3.org/2000/svg" xmlns:xlink="http://www.w3.org/1999/xlink" width="500" height="400" viewBox="0 0 2000 1600">
<defs>
  <clipPath id="clip170">
    <rect x="0" y="0" width="2000" height="1600"/>
  </clipPath>
</defs>
<path clip-path="url(#clip170)" d="
M0 1600 L2000 1600 L2000 0 L0 0  Z
  " fill="#ffffff" fill-rule="evenodd" fill-opacity="1"/>
<defs>
  <clipPath id="clip171">
    <rect x="400" y="0" width="1401" height="1401"/>
  </clipPath>
</defs>
<path clip-path="url(#clip170)" d="
M207.731 1406.76 L1952.76 1406.76 L1952.76 47.2441 L207.731 47.2441  Z
  " fill="#ffffff" fill-rule="evenodd" fill-opacity="1"/>
<defs>
  <clipPath id="clip172">
    <rect x="207" y="47" width="1746" height="1361"/>
  </clipPath>
</defs>
<polyline clip-path="url(#clip170)" style="stroke:#000000; stroke-linecap:butt; stroke-linejoin:round; stroke-width:4; stroke-opacity:1; fill:none" points="
  207.731,1406.76 1952.76,1406.76 
  "/>
<polyline clip-path="url(#clip170)" style="stroke:#000000; stroke-linecap:butt; stroke-linejoin:round; stroke-width:4; stroke-opacity:1; fill:none" points="
  242.51,1406.76 242.51,1387.87 
  "/>
<polyline clip-path="url(#clip170)" style="stroke:#000000; stroke-linecap:butt; stroke-linejoin:round; stroke-width:4; stroke-opacity:1; fill:none" points="
  590.334,1406.76 590.334,1387.87 
  "/>
<polyline clip-path="url(#clip170)" style="stroke:#000000; stroke-linecap:butt; stroke-linejoin:round; stroke-width:4; stroke-opacity:1; fill:none" points="
  938.158,1406.76 938.158,1387.87 
  "/>
<polyline clip-path="url(#clip170)" style="stroke:#000000; stroke-linecap:butt; stroke-linejoin:round; stroke-width:4; stroke-opacity:1; fill:none" points="
  1285.98,1406.76 1285.98,1387.87 
  "/>
<polyline clip-path="url(#clip170)" style="stroke:#000000; stroke-linecap:butt; stroke-linejoin:round; stroke-width:4; stroke-opacity:1; fill:none" points="
  1633.81,1406.76 1633.81,1387.87 
  "/>
<path clip-path="url(#clip170)" d="M242.51 1434.48 Q238.899 1434.48 237.071 1438.05 Q235.265 1441.59 235.265 1448.72 Q235.265 1455.83 237.071 1459.39 Q238.899 1462.93 242.51 1462.93 Q246.145 1462.93 247.95 1459.39 Q249.779 1455.83 249.779 1448.72 Q249.779 1441.59 247.95 1438.05 Q246.145 1434.48 242.51 1434.48 M242.51 1430.78 Q248.321 1430.78 251.376 1435.39 Q254.455 1439.97 254.455 1448.72 Q254.455 1457.45 251.376 1462.05 Q248.321 1466.64 242.51 1466.64 Q236.7 1466.64 233.622 1462.05 Q230.566 1457.45 230.566 1448.72 Q230.566 1439.97 233.622 1435.39 Q236.7 1430.78 242.51 1430.78 Z" fill="#000000" fill-rule="evenodd" fill-opacity="1" /><path clip-path="url(#clip170)" d="M565.022 1462.03 L572.661 1462.03 L572.661 1435.66 L564.35 1437.33 L564.35 1433.07 L572.614 1431.4 L577.29 1431.4 L577.29 1462.03 L584.929 1462.03 L584.929 1465.96 L565.022 1465.96 L565.022 1462.03 Z" fill="#000000" fill-rule="evenodd" fill-opacity="1" /><path clip-path="url(#clip170)" d="M604.373 1434.48 Q600.762 1434.48 598.934 1438.05 Q597.128 1441.59 597.128 1448.72 Q597.128 1455.83 598.934 1459.39 Q600.762 1462.93 604.373 1462.93 Q608.008 1462.93 609.813 1459.39 Q611.642 1455.83 611.642 1448.72 Q611.642 1441.59 609.813 1438.05 Q608.008 1434.48 604.373 1434.48 M604.373 1430.78 Q610.183 1430.78 613.239 1435.39 Q616.318 1439.97 616.318 1448.72 Q616.318 1457.45 613.239 1462.05 Q610.183 1466.64 604.373 1466.64 Q598.563 1466.64 595.484 1462.05 Q592.429 1457.45 592.429 1448.72 Q592.429 1439.97 595.484 1435.39 Q598.563 1430.78 604.373 1430.78 Z" fill="#000000" fill-rule="evenodd" fill-opacity="1" /><path clip-path="url(#clip170)" d="M916.931 1462.03 L933.25 1462.03 L933.25 1465.96 L911.306 1465.96 L911.306 1462.03 Q913.968 1459.27 918.551 1454.64 Q923.158 1449.99 924.338 1448.65 Q926.584 1446.13 927.463 1444.39 Q928.366 1442.63 928.366 1440.94 Q928.366 1438.19 926.422 1436.45 Q924.5 1434.71 921.399 1434.71 Q919.199 1434.71 916.746 1435.48 Q914.315 1436.24 911.537 1437.79 L911.537 1433.07 Q914.362 1431.94 916.815 1431.36 Q919.269 1430.78 921.306 1430.78 Q926.676 1430.78 929.871 1433.46 Q933.065 1436.15 933.065 1440.64 Q933.065 1442.77 932.255 1444.69 Q931.468 1446.59 929.361 1449.18 Q928.783 1449.85 925.681 1453.07 Q922.579 1456.26 916.931 1462.03 Z" fill="#000000" fill-rule="evenodd" fill-opacity="1" /><path clip-path="url(#clip170)" d="M953.065 1434.48 Q949.454 1434.48 947.625 1438.05 Q945.82 1441.59 945.82 1448.72 Q945.82 1455.83 947.625 1459.39 Q949.454 1462.93 953.065 1462.93 Q956.699 1462.93 958.505 1459.39 Q960.334 1455.83 960.334 1448.72 Q960.334 1441.59 958.505 1438.05 Q956.699 1434.48 953.065 1434.48 M953.065 1430.78 Q958.875 1430.78 961.931 1435.39 Q965.009 1439.97 965.009 1448.72 Q965.009 1457.45 961.931 1462.05 Q958.875 1466.64 953.065 1466.64 Q947.255 1466.64 944.176 1462.05 Q941.121 1457.45 941.121 1448.72 Q941.121 1439.97 944.176 1435.39 Q947.255 1430.78 953.065 1430.78 Z" fill="#000000" fill-rule="evenodd" fill-opacity="1" /><path clip-path="url(#clip170)" d="M1274.82 1447.33 Q1278.18 1448.05 1280.06 1450.32 Q1281.95 1452.58 1281.95 1455.92 Q1281.95 1461.03 1278.44 1463.83 Q1274.92 1466.64 1268.44 1466.64 Q1266.26 1466.64 1263.94 1466.2 Q1261.65 1465.78 1259.2 1464.92 L1259.2 1460.41 Q1261.14 1461.54 1263.46 1462.12 Q1265.77 1462.7 1268.3 1462.7 Q1272.69 1462.7 1274.99 1460.96 Q1277.3 1459.23 1277.3 1455.92 Q1277.3 1452.86 1275.15 1451.15 Q1273.02 1449.41 1269.2 1449.41 L1265.17 1449.41 L1265.17 1445.57 L1269.38 1445.57 Q1272.83 1445.57 1274.66 1444.2 Q1276.49 1442.82 1276.49 1440.22 Q1276.49 1437.56 1274.59 1436.15 Q1272.72 1434.71 1269.2 1434.71 Q1267.28 1434.71 1265.08 1435.13 Q1262.88 1435.55 1260.24 1436.43 L1260.24 1432.26 Q1262.9 1431.52 1265.22 1431.15 Q1267.56 1430.78 1269.62 1430.78 Q1274.94 1430.78 1278.04 1433.21 Q1281.14 1435.62 1281.14 1439.74 Q1281.14 1442.61 1279.5 1444.6 Q1277.86 1446.57 1274.82 1447.33 Z" fill="#000000" fill-rule="evenodd" fill-opacity="1" /><path clip-path="url(#clip170)" d="M1300.82 1434.48 Q1297.21 1434.48 1295.38 1438.05 Q1293.57 1441.59 1293.57 1448.72 Q1293.57 1455.83 1295.38 1459.39 Q1297.21 1462.93 1300.82 1462.93 Q1304.45 1462.93 1306.26 1459.39 Q1308.09 1455.83 1308.09 1448.72 Q1308.09 1441.59 1306.26 1438.05 Q1304.45 1434.48 1300.82 1434.48 M1300.82 1430.78 Q1306.63 1430.78 1309.68 1435.39 Q1312.76 1439.97 1312.76 1448.72 Q1312.76 1457.45 1309.68 1462.05 Q1306.63 1466.64 1300.82 1466.64 Q1295.01 1466.64 1291.93 1462.05 Q1288.87 1457.45 1288.87 1448.72 Q1288.87 1439.97 1291.93 1435.39 Q1295.01 1430.78 1300.82 1430.78 Z" fill="#000000" fill-rule="evenodd" fill-opacity="1" /><path clip-path="url(#clip170)" d="M1621.98 1435.48 L1610.17 1453.93 L1621.98 1453.93 L1621.98 1435.48 M1620.75 1431.4 L1626.63 1431.4 L1626.63 1453.93 L1631.56 1453.93 L1631.56 1457.82 L1626.63 1457.82 L1626.63 1465.96 L1621.98 1465.96 L1621.98 1457.82 L1606.37 1457.82 L1606.37 1453.3 L1620.75 1431.4 Z" fill="#000000" fill-rule="evenodd" fill-opacity="1" /><path clip-path="url(#clip170)" d="M1649.29 1434.48 Q1645.68 1434.48 1643.85 1438.05 Q1642.05 1441.59 1642.05 1448.72 Q1642.05 1455.83 1643.85 1459.39 Q1645.68 1462.93 1649.29 1462.93 Q1652.93 1462.93 1654.73 1459.39 Q1656.56 1455.83 1656.56 1448.72 Q1656.56 1441.59 1654.73 1438.05 Q1652.93 1434.48 1649.29 1434.48 M1649.29 1430.78 Q1655.1 1430.78 1658.16 1435.39 Q1661.24 1439.97 1661.24 1448.72 Q1661.24 1457.45 1658.16 1462.05 Q1655.1 1466.64 1649.29 1466.64 Q1643.48 1466.64 1640.4 1462.05 Q1637.35 1457.45 1637.35 1448.72 Q1637.35 1439.97 1640.4 1435.39 Q1643.48 1430.78 1649.29 1430.78 Z" fill="#000000" fill-rule="evenodd" fill-opacity="1" /><path clip-path="url(#clip170)" d="M933.339 1498.11 L973.539 1498.11 L973.539 1503.52 L956.669 1503.52 L956.669 1545.63 L950.208 1545.63 L950.208 1503.52 L933.339 1503.52 L933.339 1498.11 Z" fill="#000000" fill-rule="evenodd" fill-opacity="1" /><path clip-path="url(#clip170)" d="M977.485 1509.98 L983.342 1509.98 L983.342 1545.63 L977.485 1545.63 L977.485 1509.98 M977.485 1496.1 L983.342 1496.1 L983.342 1503.52 L977.485 1503.52 L977.485 1496.1 Z" fill="#000000" fill-rule="evenodd" fill-opacity="1" /><path clip-path="url(#clip170)" d="M1023.35 1516.82 Q1025.55 1512.88 1028.6 1511 Q1031.66 1509.12 1035.8 1509.12 Q1041.37 1509.12 1044.39 1513.04 Q1047.41 1516.92 1047.41 1524.11 L1047.41 1545.63 L1041.52 1545.63 L1041.52 1524.3 Q1041.52 1519.18 1039.71 1516.7 Q1037.9 1514.21 1034.17 1514.21 Q1029.62 1514.21 1026.98 1517.24 Q1024.34 1520.26 1024.34 1525.48 L1024.34 1545.63 L1018.45 1545.63 L1018.45 1524.3 Q1018.45 1519.15 1016.63 1516.7 Q1014.82 1514.21 1011.03 1514.21 Q1006.54 1514.21 1003.9 1517.27 Q1001.26 1520.29 1001.26 1525.48 L1001.26 1545.63 L995.373 1545.63 L995.373 1509.98 L1001.26 1509.98 L1001.26 1515.52 Q1003.27 1512.24 1006.07 1510.68 Q1008.87 1509.12 1012.72 1509.12 Q1016.6 1509.12 1019.31 1511.09 Q1022.05 1513.07 1023.35 1516.82 Z" fill="#000000" fill-rule="evenodd" fill-opacity="1" /><path clip-path="url(#clip170)" d="M1089.59 1526.34 L1089.59 1529.2 L1062.66 1529.2 Q1063.04 1535.25 1066.29 1538.43 Q1069.57 1541.59 1075.39 1541.59 Q1078.76 1541.59 1081.91 1540.76 Q1085.1 1539.93 1088.22 1538.28 L1088.22 1543.81 Q1085.07 1545.15 1081.76 1545.85 Q1078.45 1546.55 1075.04 1546.55 Q1066.51 1546.55 1061.51 1541.59 Q1056.55 1536.62 1056.55 1528.15 Q1056.55 1519.4 1061.26 1514.28 Q1066 1509.12 1074.02 1509.12 Q1081.21 1509.12 1085.38 1513.77 Q1089.59 1518.38 1089.59 1526.34 M1083.73 1524.62 Q1083.67 1519.81 1081.02 1516.95 Q1078.41 1514.09 1074.08 1514.09 Q1069.18 1514.09 1066.22 1516.85 Q1063.29 1519.62 1062.85 1524.65 L1083.73 1524.62 Z" fill="#000000" fill-rule="evenodd" fill-opacity="1" /><path clip-path="url(#clip170)" d="M1119.38 1496.1 L1132.87 1496.1 L1132.87 1500.65 L1125.23 1500.65 L1125.23 1549.67 L1132.87 1549.67 L1132.87 1554.22 L1119.38 1554.22 L1119.38 1496.1 Z" fill="#000000" fill-rule="evenodd" fill-opacity="1" /><path clip-path="url(#clip170)" d="M1174.98 1524.11 L1174.98 1545.63 L1169.12 1545.63 L1169.12 1524.3 Q1169.12 1519.24 1167.15 1516.73 Q1165.18 1514.21 1161.23 1514.21 Q1156.49 1514.21 1153.75 1517.24 Q1151.01 1520.26 1151.01 1525.48 L1151.01 1545.63 L1145.13 1545.63 L1145.13 1496.1 L1151.01 1496.1 L1151.01 1515.52 Q1153.12 1512.3 1155.95 1510.71 Q1158.81 1509.12 1162.54 1509.12 Q1168.68 1509.12 1171.83 1512.94 Q1174.98 1516.73 1174.98 1524.11 Z" fill="#000000" fill-rule="evenodd" fill-opacity="1" /><path clip-path="url(#clip170)" d="M1207.32 1515.45 Q1206.33 1514.88 1205.15 1514.63 Q1204.01 1514.34 1202.61 1514.34 Q1197.64 1514.34 1194.97 1517.59 Q1192.33 1520.8 1192.33 1526.85 L1192.33 1545.63 L1186.44 1545.63 L1186.44 1509.98 L1192.33 1509.98 L1192.33 1515.52 Q1194.17 1512.27 1197.13 1510.71 Q1200.09 1509.12 1204.33 1509.12 Q1204.93 1509.12 1205.66 1509.22 Q1206.4 1509.28 1207.29 1509.44 L1207.32 1515.45 Z" fill="#000000" fill-rule="evenodd" fill-opacity="1" /><path clip-path="url(#clip170)" d="M1227.15 1496.1 L1227.15 1554.22 L1213.65 1554.22 L1213.65 1549.67 L1221.26 1549.67 L1221.26 1500.65 L1213.65 1500.65 L1213.65 1496.1 L1227.15 1496.1 Z" fill="#000000" fill-rule="evenodd" fill-opacity="1" /><polyline clip-path="url(#clip170)" style="stroke:#000000; stroke-linecap:butt; stroke-linejoin:round; stroke-width:4; stroke-opacity:1; fill:none" points="
  207.731,1406.76 207.731,47.2441 
  "/>
<polyline clip-path="url(#clip170)" style="stroke:#000000; stroke-linecap:butt; stroke-linejoin:round; stroke-width:4; stroke-opacity:1; fill:none" points="
  207.731,1323.02 226.629,1323.02 
  "/>
<polyline clip-path="url(#clip170)" style="stroke:#000000; stroke-linecap:butt; stroke-linejoin:round; stroke-width:4; stroke-opacity:1; fill:none" points="
  207.731,1119.55 226.629,1119.55 
  "/>
<polyline clip-path="url(#clip170)" style="stroke:#000000; stroke-linecap:butt; stroke-linejoin:round; stroke-width:4; stroke-opacity:1; fill:none" points="
  207.731,916.077 226.629,916.077 
  "/>
<polyline clip-path="url(#clip170)" style="stroke:#000000; stroke-linecap:butt; stroke-linejoin:round; stroke-width:4; stroke-opacity:1; fill:none" points="
  207.731,712.609 226.629,712.609 
  "/>
<polyline clip-path="url(#clip170)" style="stroke:#000000; stroke-linecap:butt; stroke-linejoin:round; stroke-width:4; stroke-opacity:1; fill:none" points="
  207.731,509.14 226.629,509.14 
  "/>
<polyline clip-path="url(#clip170)" style="stroke:#000000; stroke-linecap:butt; stroke-linejoin:round; stroke-width:4; stroke-opacity:1; fill:none" points="
  207.731,305.671 226.629,305.671 
  "/>
<polyline clip-path="url(#clip170)" style="stroke:#000000; stroke-linecap:butt; stroke-linejoin:round; stroke-width:4; stroke-opacity:1; fill:none" points="
  207.731,102.202 226.629,102.202 
  "/>
<path clip-path="url(#clip170)" d="M165.787 1308.81 Q162.176 1308.81 160.347 1312.38 Q158.542 1315.92 158.542 1323.05 Q158.542 1330.16 160.347 1333.72 Q162.176 1337.26 165.787 1337.26 Q169.421 1337.26 171.227 1333.72 Q173.056 1330.16 173.056 1323.05 Q173.056 1315.92 171.227 1312.38 Q169.421 1308.81 165.787 1308.81 M165.787 1305.11 Q171.597 1305.11 174.653 1309.72 Q177.731 1314.3 177.731 1323.05 Q177.731 1331.78 174.653 1336.38 Q171.597 1340.97 165.787 1340.97 Q159.977 1340.97 156.898 1336.38 Q153.843 1331.78 153.843 1323.05 Q153.843 1314.3 156.898 1309.72 Q159.977 1305.11 165.787 1305.11 Z" fill="#000000" fill-rule="evenodd" fill-opacity="1" /><path clip-path="url(#clip170)" d="M161.412 1132.89 L177.731 1132.89 L177.731 1136.83 L155.787 1136.83 L155.787 1132.89 Q158.449 1130.14 163.032 1125.51 Q167.639 1120.85 168.819 1119.51 Q171.065 1116.99 171.944 1115.25 Q172.847 1113.49 172.847 1111.8 Q172.847 1109.05 170.903 1107.31 Q168.982 1105.58 165.88 1105.58 Q163.681 1105.58 161.227 1106.34 Q158.796 1107.1 156.019 1108.66 L156.019 1103.93 Q158.843 1102.8 161.296 1102.22 Q163.75 1101.64 165.787 1101.64 Q171.157 1101.64 174.352 1104.33 Q177.546 1107.01 177.546 1111.5 Q177.546 1113.63 176.736 1115.55 Q175.949 1117.45 173.843 1120.04 Q173.264 1120.72 170.162 1123.93 Q167.06 1127.13 161.412 1132.89 Z" fill="#000000" fill-rule="evenodd" fill-opacity="1" /><path clip-path="url(#clip170)" d="M168.148 902.871 L156.343 921.32 L168.148 921.32 L168.148 902.871 M166.921 898.797 L172.801 898.797 L172.801 921.32 L177.731 921.32 L177.731 925.209 L172.801 925.209 L172.801 933.357 L168.148 933.357 L168.148 925.209 L152.546 925.209 L152.546 920.695 L166.921 898.797 Z" fill="#000000" fill-rule="evenodd" fill-opacity="1" /><path clip-path="url(#clip170)" d="M166.204 710.745 Q163.056 710.745 161.204 712.898 Q159.375 715.051 159.375 718.801 Q159.375 722.527 161.204 724.703 Q163.056 726.856 166.204 726.856 Q169.352 726.856 171.181 724.703 Q173.032 722.527 173.032 718.801 Q173.032 715.051 171.181 712.898 Q169.352 710.745 166.204 710.745 M175.486 696.092 L175.486 700.352 Q173.727 699.518 171.921 699.079 Q170.139 698.639 168.38 698.639 Q163.75 698.639 161.296 701.764 Q158.866 704.889 158.519 711.208 Q159.884 709.194 161.945 708.129 Q164.005 707.041 166.482 707.041 Q171.69 707.041 174.699 710.213 Q177.731 713.361 177.731 718.801 Q177.731 724.125 174.583 727.342 Q171.435 730.56 166.204 730.56 Q160.208 730.56 157.037 725.977 Q153.866 721.37 153.866 712.643 Q153.866 704.449 157.755 699.588 Q161.644 694.704 168.194 694.704 Q169.954 694.704 171.736 695.051 Q173.542 695.398 175.486 696.092 Z" fill="#000000" fill-rule="evenodd" fill-opacity="1" /><path clip-path="url(#clip170)" d="M165.88 510.008 Q162.546 510.008 160.625 511.79 Q158.727 513.573 158.727 516.698 Q158.727 519.823 160.625 521.605 Q162.546 523.387 165.88 523.387 Q169.213 523.387 171.134 521.605 Q173.056 519.799 173.056 516.698 Q173.056 513.573 171.134 511.79 Q169.236 510.008 165.88 510.008 M161.204 508.017 Q158.195 507.276 156.505 505.216 Q154.838 503.156 154.838 500.193 Q154.838 496.05 157.778 493.642 Q160.741 491.235 165.88 491.235 Q171.042 491.235 173.981 493.642 Q176.921 496.05 176.921 500.193 Q176.921 503.156 175.231 505.216 Q173.565 507.276 170.579 508.017 Q173.958 508.804 175.833 511.096 Q177.731 513.387 177.731 516.698 Q177.731 521.721 174.653 524.406 Q171.597 527.091 165.88 527.091 Q160.162 527.091 157.083 524.406 Q154.028 521.721 154.028 516.698 Q154.028 513.387 155.926 511.096 Q157.824 508.804 161.204 508.017 M159.491 500.633 Q159.491 503.318 161.157 504.823 Q162.847 506.327 165.88 506.327 Q168.889 506.327 170.579 504.823 Q172.292 503.318 172.292 500.633 Q172.292 497.948 170.579 496.443 Q168.889 494.938 165.88 494.938 Q162.847 494.938 161.157 496.443 Q159.491 497.948 159.491 500.633 Z" fill="#000000" fill-rule="evenodd" fill-opacity="1" /><path clip-path="url(#clip170)" d="M126.435 319.016 L134.074 319.016 L134.074 292.65 L125.764 294.317 L125.764 290.058 L134.028 288.391 L138.704 288.391 L138.704 319.016 L146.343 319.016 L146.343 322.951 L126.435 322.951 L126.435 319.016 Z" fill="#000000" fill-rule="evenodd" fill-opacity="1" /><path clip-path="url(#clip170)" d="M165.787 291.47 Q162.176 291.47 160.347 295.034 Q158.542 298.576 158.542 305.706 Q158.542 312.812 160.347 316.377 Q162.176 319.918 165.787 319.918 Q169.421 319.918 171.227 316.377 Q173.056 312.812 173.056 305.706 Q173.056 298.576 171.227 295.034 Q169.421 291.47 165.787 291.47 M165.787 287.766 Q171.597 287.766 174.653 292.372 Q177.731 296.956 177.731 305.706 Q177.731 314.432 174.653 319.039 Q171.597 323.622 165.787 323.622 Q159.977 323.622 156.898 319.039 Q153.843 314.432 153.843 305.706 Q153.843 296.956 156.898 292.372 Q159.977 287.766 165.787 287.766 Z" fill="#000000" fill-rule="evenodd" fill-opacity="1" /><path clip-path="url(#clip170)" d="M128.033 115.547 L135.672 115.547 L135.672 89.1813 L127.361 90.8479 L127.361 86.5887 L135.625 84.922 L140.301 84.922 L140.301 115.547 L147.94 115.547 L147.94 119.482 L128.033 119.482 L128.033 115.547 Z" fill="#000000" fill-rule="evenodd" fill-opacity="1" /><path clip-path="url(#clip170)" d="M161.412 115.547 L177.731 115.547 L177.731 119.482 L155.787 119.482 L155.787 115.547 Q158.449 112.792 163.032 108.163 Q167.639 103.51 168.819 102.167 Q171.065 99.6442 171.944 97.9081 Q172.847 96.1488 172.847 94.459 Q172.847 91.7044 170.903 89.9683 Q168.982 88.2322 165.88 88.2322 Q163.681 88.2322 161.227 88.9961 Q158.796 89.76 156.019 91.3109 L156.019 86.5887 Q158.843 85.4544 161.296 84.8757 Q163.75 84.297 165.787 84.297 Q171.157 84.297 174.352 86.9822 Q177.546 89.6674 177.546 94.1581 Q177.546 96.2877 176.736 98.209 Q175.949 100.107 173.843 102.7 Q173.264 103.371 170.162 106.589 Q167.06 109.783 161.412 115.547 Z" fill="#000000" fill-rule="evenodd" fill-opacity="1" /><path clip-path="url(#clip170)" d="M40.322 975.887 L76.161 988.937 L76.161 962.806 L40.322 975.887 M81.5082 997.658 L33.9882 979.516 L33.9882 972.227 L81.5082 954.116 L81.5082 997.658 Z" fill="#000000" fill-rule="evenodd" fill-opacity="1" /><path clip-path="url(#clip170)" d="M33.9882 926.457 L33.9882 920.028 L53.4672 920.028 L53.4672 896.666 L33.9882 896.666 L33.9882 890.237 L81.5082 890.237 L81.5082 896.666 L58.8781 896.666 L58.8781 920.028 L81.5082 920.028 L81.5082 926.457 L33.9882 926.457 Z" fill="#000000" fill-rule="evenodd" fill-opacity="1" /><path clip-path="url(#clip170)" d="M62.2201 847.204 L65.0846 847.204 L65.0846 874.131 Q71.1321 873.749 74.3149 870.503 Q77.4659 867.225 77.4659 861.4 Q77.4659 858.026 76.6384 854.875 Q75.8109 851.692 74.1558 848.573 L79.6939 848.573 Q81.0307 851.724 81.731 855.034 Q82.4312 858.344 82.4312 861.75 Q82.4312 870.28 77.4659 875.277 Q72.5007 880.242 64.0343 880.242 Q55.2814 880.242 50.1571 875.532 Q45.0008 870.789 45.0008 862.769 Q45.0008 855.575 49.6478 851.406 Q54.2629 847.204 62.2201 847.204 M60.5013 853.061 Q55.6952 853.125 52.8306 855.766 Q49.9661 858.376 49.9661 862.705 Q49.9661 867.607 52.7352 870.567 Q55.5042 873.495 60.5332 873.94 L60.5013 853.061 Z" fill="#000000" fill-rule="evenodd" fill-opacity="1" /><path clip-path="url(#clip170)" d="M45.8602 837.592 L45.8602 831.736 L81.5082 831.736 L81.5082 837.592 L45.8602 837.592 M31.983 837.592 L31.983 831.736 L39.399 831.736 L39.399 837.592 L31.983 837.592 Z" fill="#000000" fill-rule="evenodd" fill-opacity="1" /><path clip-path="url(#clip170)" d="M63.2704 796.024 Q56.9047 796.024 53.4036 798.666 Q49.9024 801.276 49.9024 806.018 Q49.9024 810.729 53.4036 813.371 Q56.9047 815.981 63.2704 815.981 Q69.6043 815.981 73.1054 813.371 Q76.6066 810.729 76.6066 806.018 Q76.6066 801.276 73.1054 798.666 Q69.6043 796.024 63.2704 796.024 M77.084 790.168 Q86.187 790.168 90.6111 794.21 Q95.0671 798.252 95.0671 806.591 Q95.0671 809.679 94.5897 812.416 Q94.1441 815.153 93.1892 817.731 L87.4919 817.731 Q88.8924 815.153 89.5608 812.639 Q90.2292 810.124 90.2292 807.514 Q90.2292 801.753 87.2055 798.889 Q84.2136 796.024 78.1343 796.024 L75.2379 796.024 Q78.389 797.838 79.9486 800.671 Q81.5082 803.504 81.5082 807.451 Q81.5082 814.007 76.5111 818.018 Q71.514 822.028 63.2704 822.028 Q54.995 822.028 49.9979 818.018 Q45.0008 814.007 45.0008 807.451 Q45.0008 803.504 46.5604 800.671 Q48.12 797.838 51.2711 796.024 L45.8602 796.024 L45.8602 790.168 L77.084 790.168 Z" fill="#000000" fill-rule="evenodd" fill-opacity="1" /><path clip-path="url(#clip170)" d="M59.9921 748.472 L81.5082 748.472 L81.5082 754.329 L60.183 754.329 Q55.1223 754.329 52.6078 756.302 Q50.0934 758.276 50.0934 762.222 Q50.0934 766.965 53.1171 769.702 Q56.1408 772.439 61.3607 772.439 L81.5082 772.439 L81.5082 778.327 L31.983 778.327 L31.983 772.439 L51.3984 772.439 Q48.1837 770.339 46.5923 767.506 Q45.0008 764.641 45.0008 760.917 Q45.0008 754.774 48.8203 751.623 Q52.6078 748.472 59.9921 748.472 Z" fill="#000000" fill-rule="evenodd" fill-opacity="1" /><path clip-path="url(#clip170)" d="M35.7387 730.998 L45.8602 730.998 L45.8602 718.935 L50.4117 718.935 L50.4117 730.998 L69.7634 730.998 Q74.1239 730.998 75.3653 729.821 Q76.6066 728.611 76.6066 724.951 L76.6066 718.935 L81.5082 718.935 L81.5082 724.951 Q81.5082 731.731 78.9937 734.309 Q76.4474 736.887 69.7634 736.887 L50.4117 736.887 L50.4117 741.184 L45.8602 741.184 L45.8602 736.887 L35.7387 736.887 L35.7387 730.998 Z" fill="#000000" fill-rule="evenodd" fill-opacity="1" /><path clip-path="url(#clip170)" d="M31.983 691.054 L31.983 677.558 L36.5344 677.558 L36.5344 685.197 L85.5504 685.197 L85.5504 677.558 L90.1019 677.558 L90.1019 691.054 L31.983 691.054 Z" fill="#000000" fill-rule="evenodd" fill-opacity="1" /><path clip-path="url(#clip170)" d="M95.0671 665.686 L45.8602 665.686 L45.8602 659.83 L68.0129 659.83 Q72.628 659.83 74.9833 657.634 Q77.3386 655.438 77.3386 651.141 Q77.3386 646.43 74.665 644.075 Q71.9914 641.688 66.6442 641.688 L45.8602 641.688 L45.8602 635.831 L73.2964 635.831 Q75.2061 635.831 76.1291 635.29 Q77.0203 634.717 77.0203 633.539 Q77.0203 633.253 76.8612 632.744 Q76.6702 632.235 76.2883 631.343 L80.9989 631.343 Q81.731 632.648 82.0811 633.826 Q82.4312 634.972 82.4312 636.086 Q82.4312 638.282 81.1899 639.587 Q79.9486 640.892 77.4023 641.369 Q79.9167 642.961 81.1899 645.284 Q82.4312 647.576 82.4312 650.695 Q82.4312 653.942 81.1899 656.233 Q79.9486 658.493 77.4659 659.83 L95.0671 659.83 L95.0671 665.686 Z" fill="#000000" fill-rule="evenodd" fill-opacity="1" /><path clip-path="url(#clip170)" d="M52.7033 595.854 Q48.7566 593.658 46.8787 590.603 Q45.0008 587.547 45.0008 583.41 Q45.0008 577.84 48.9157 574.816 Q52.7988 571.792 59.9921 571.792 L81.5082 571.792 L81.5082 577.68 L60.183 577.68 Q55.0586 577.68 52.576 579.495 Q50.0934 581.309 50.0934 585.033 Q50.0934 589.584 53.1171 592.226 Q56.1408 594.868 61.3607 594.868 L81.5082 594.868 L81.5082 600.756 L60.183 600.756 Q55.0268 600.756 52.576 602.57 Q50.0934 604.385 50.0934 608.172 Q50.0934 612.66 53.1489 615.302 Q56.1726 617.943 61.3607 617.943 L81.5082 617.943 L81.5082 623.832 L45.8602 623.832 L45.8602 617.943 L51.3984 617.943 Q48.12 615.938 46.5604 613.137 Q45.0008 610.336 45.0008 606.485 Q45.0008 602.602 46.9742 599.897 Q48.9476 597.159 52.7033 595.854 Z" fill="#000000" fill-rule="evenodd" fill-opacity="1" /><path clip-path="url(#clip170)" d="M33.9882 549.703 L33.9882 544.292 L87.5556 560.843 L87.5556 566.254 L33.9882 549.703 Z" fill="#000000" fill-rule="evenodd" fill-opacity="1" /><path clip-path="url(#clip170)" d="M59.9921 508.517 L81.5082 508.517 L81.5082 514.373 L60.183 514.373 Q55.1223 514.373 52.6078 516.347 Q50.0934 518.32 50.0934 522.267 Q50.0934 527.009 53.1171 529.747 Q56.1408 532.484 61.3607 532.484 L81.5082 532.484 L81.5082 538.372 L31.983 538.372 L31.983 532.484 L51.3984 532.484 Q48.1837 530.383 46.5923 527.55 Q45.0008 524.686 45.0008 520.962 Q45.0008 514.819 48.8203 511.668 Q52.6078 508.517 59.9921 508.517 Z" fill="#000000" fill-rule="evenodd" fill-opacity="1" /><path clip-path="url(#clip170)" d="M51.3347 476.179 Q50.7618 477.166 50.5072 478.344 Q50.2207 479.489 50.2207 480.89 Q50.2207 485.855 53.4672 488.529 Q56.6819 491.17 62.7293 491.17 L81.5082 491.17 L81.5082 497.059 L45.8602 497.059 L45.8602 491.17 L51.3984 491.17 Q48.1519 489.324 46.5923 486.364 Q45.0008 483.404 45.0008 479.171 Q45.0008 478.566 45.0963 477.834 Q45.16 477.102 45.3191 476.211 L51.3347 476.179 Z" fill="#000000" fill-rule="evenodd" fill-opacity="1" /><path clip-path="url(#clip170)" d="M31.983 456.35 L90.1019 456.35 L90.1019 469.845 L85.5504 469.845 L85.5504 462.238 L36.5344 462.238 L36.5344 469.845 L31.983 469.845 L31.983 456.35 Z" fill="#000000" fill-rule="evenodd" fill-opacity="1" /><path clip-path="url(#clip172)" d="
M257.119 1352.21 L268.249 1351.81 L279.38 1336.65 L290.858 1322 L301.988 1308.47 L313.466 1286.39 L324.597 1274.69 L335.727 1252.82 L347.205 1223.11 L358.336 1187.2 
  L369.814 1162.17 L380.944 1112.73 L392.422 1052.2 L403.553 987.19 L414.683 915.772 L426.161 827.772 L441.466 620.437 L452.596 485.944 L463.726 371.493 L474.857 277.592 
  L485.987 192.949 L497.117 127.636 L508.595 142.184 L519.726 160.598 L530.856 162.937 L541.987 204.852 L553.117 262.434 L564.247 294.175 L575.378 348.399 L588.247 392.959 
  L605.29 437.824 L621.986 475.059 L639.029 514.837 L656.073 545.154 L673.116 576.793 L689.812 604.261 L706.855 639.97 L723.898 655.536 L740.942 666.625 L757.637 684.428 
  L774.681 684.326 L791.724 710.065 L808.419 717.187 L825.463 726.953 L842.506 747.503 L859.55 771.513 L876.245 786.976 L893.288 787.282 L910.332 794.2 L927.027 793.284 
  L944.071 817.904 L961.114 822.075 L977.81 833.062 L994.853 836.318 L1011.9 845.779 L1028.94 861.548 L1045.64 857.58 L1062.33 849.848 L1079.37 872.332 L1096.07 891.763 
  L1113.11 905.192 L1130.16 912.211 L1147.2 904.581 L1164.24 902.038 L1180.94 934.695 L1197.98 943.444 L1215.03 950.464 L1232.07 949.955 L1249.11 963.689 L1265.81 981.696 
  L1282.85 977.83 L1299.89 972.031 L1316.94 968.165 L1333.98 1002.76 L1351.02 1017.71 L1367.72 1104.18 L1384.76 1142.84 L1401.81 1176.52 L1422.33 1203.99 L1444.59 1214.06 
  L1468.24 1150.98 L1491.55 1072.24 L1515.2 1044.97 L1538.85 1054.03 L1562.5 1068.68 L1586.15 1121.48 L1609.81 1102.56 L1633.46 1082.92 L1657.11 1030.02 L1680.76 1030.33 
  L1704.41 1146.4 L1728.07 1218.23 L1751.37 1244.37 L1775.02 1239.59 L1798.67 1189.23 L1822.33 1054.03 L1845.98 971.217 L1869.63 1138.77 L1893.28 1308.57 L1893.28 1017.61 
  L1869.63 904.378 L1845.98 844.253 L1822.33 887.795 L1798.67 1067.15 L1775.02 1224.13 L1751.37 1225.66 L1728.07 1134.6 L1704.41 1053.42 L1680.76 934.288 L1657.11 934.186 
  L1633.46 993.599 L1609.81 1018.93 L1586.15 1054.54 L1562.5 1039.38 L1538.85 994.209 L1515.2 986.579 L1491.55 1023.41 L1468.24 1068.17 L1444.59 1164.41 L1422.33 1167.16 
  L1401.81 1121.17 L1384.76 1074.27 L1367.72 1039.48 L1351.02 975.999 L1333.98 967.758 L1316.94 938.052 L1299.89 940.087 L1282.85 944.665 L1265.81 950.158 L1249.11 929.71 
  L1232.07 915.365 L1215.03 916.077 L1197.98 910.685 L1180.94 903.564 L1164.24 882.912 L1147.2 885.659 L1130.16 895.12 L1113.11 880.572 L1096.07 867.143 L1079.37 846.491 
  L1062.33 832.553 L1045.64 837.437 L1028.94 841.404 L1011.9 822.787 L994.853 811.087 L977.81 806.204 L961.114 797.659 L944.071 793.894 L927.027 769.478 L910.332 769.783 
  L893.288 758.593 L876.245 758.084 L859.55 740.992 L842.506 712.507 L825.463 697.043 L808.419 688.701 L791.724 681.58 L774.681 665.2 L757.637 665.506 L740.942 649.94 
  L723.898 633.764 L706.855 613.926 L689.812 581.269 L673.116 550.749 L656.073 511.785 L639.029 481.875 L621.986 441.486 L605.29 402.624 L588.247 353.893 L575.378 299.16 
  L564.247 228.454 L553.117 194.068 L541.987 139.335 L530.856 106.78 L519.726 112.986 L508.595 102.304 L497.117 85.7211 L485.987 121.939 L474.857 175.247 L463.726 249.005 
  L452.596 359.387 L441.466 485.334 L426.161 717.492 L414.683 817.09 L403.553 905.599 L392.422 992.582 L380.944 1066.75 L369.814 1117.61 L358.336 1140.4 L347.205 1178.96 
  L335.727 1215.38 L324.597 1239.49 L313.466 1246.71 L301.988 1281.2 L290.858 1294.73 L279.38 1310.6 L268.249 1329.22 L257.119 1322.3  Z
  " fill="#b3b3b3" fill-rule="evenodd" fill-opacity="0.3"/>
<polyline clip-path="url(#clip172)" style="stroke:#b3b3b3; stroke-linecap:butt; stroke-linejoin:round; stroke-width:8; stroke-opacity:0.8; fill:none" points="
  257.119,1337.26 268.249,1340.51 279.38,1323.63 290.858,1308.37 301.988,1294.83 313.466,1266.55 324.597,1257.09 335.727,1234.1 347.205,1201.04 358.336,1163.8 
  369.814,1139.89 380.944,1089.74 392.422,1022.39 403.553,946.394 414.683,866.431 426.161,772.632 441.466,552.886 452.596,422.665 463.726,310.249 474.857,226.42 
  485.987,157.444 497.117,106.678 508.595,122.244 519.726,136.792 530.856,134.859 541.987,172.094 553.117,228.251 564.247,261.315 575.378,323.78 588.247,373.426 
  605.29,420.224 621.986,458.273 639.029,498.356 656.073,528.469 673.116,563.771 689.812,592.765 706.855,626.948 723.898,644.65 740.942,658.282 757.637,674.967 
  774.681,674.763 791.724,695.822 808.419,702.944 825.463,711.998 842.506,730.005 859.55,756.253 876.245,772.53 893.288,772.937 910.332,781.991 927.027,781.381 
  944.071,805.899 961.114,809.867 977.81,819.633 994.853,823.703 1011.9,834.283 1028.94,851.476 1045.64,847.508 1062.33,841.201 1079.37,859.411 1096.07,879.453 
  1113.11,892.882 1130.16,903.666 1147.2,895.12 1164.24,892.475 1180.94,919.129 1197.98,927.065 1215.03,933.27 1232.07,932.66 1249.11,946.699 1265.81,965.927 
  1282.85,961.247 1299.89,956.059 1316.94,953.109 1333.98,985.257 1351.02,996.855 1367.72,1071.83 1384.76,1108.56 1401.81,1148.85 1422.33,1185.57 1444.59,1189.23 
  1468.24,1109.58 1491.55,1047.82 1515.2,1015.78 1538.85,1024.12 1562.5,1054.03 1586.15,1088.01 1609.81,1060.74 1633.46,1038.26 1657.11,982.103 1680.76,982.306 
  1704.41,1099.91 1728.07,1176.42 1751.37,1235.01 1775.02,1231.86 1798.67,1128.19 1822.33,970.912 1845.98,907.735 1869.63,1021.58 1893.28,1163.09 
  "/>
<circle clip-path="url(#clip172)" cx="257.119" cy="1337.26" r="12" fill="#b3b3b3" fill-rule="evenodd" fill-opacity="0.8" stroke="#000000" stroke-opacity="0.8" stroke-width="3.2"/>
<circle clip-path="url(#clip172)" cx="268.249" cy="1340.51" r="12" fill="#b3b3b3" fill-rule="evenodd" fill-opacity="0.8" stroke="#000000" stroke-opacity="0.8" stroke-width="3.2"/>
<circle clip-path="url(#clip172)" cx="279.38" cy="1323.63" r="12" fill="#b3b3b3" fill-rule="evenodd" fill-opacity="0.8" stroke="#000000" stroke-opacity="0.8" stroke-width="3.2"/>
<circle clip-path="url(#clip172)" cx="290.858" cy="1308.37" r="12" fill="#b3b3b3" fill-rule="evenodd" fill-opacity="0.8" stroke="#000000" stroke-opacity="0.8" stroke-width="3.2"/>
<circle clip-path="url(#clip172)" cx="301.988" cy="1294.83" r="12" fill="#b3b3b3" fill-rule="evenodd" fill-opacity="0.8" stroke="#000000" stroke-opacity="0.8" stroke-width="3.2"/>
<circle clip-path="url(#clip172)" cx="313.466" cy="1266.55" r="12" fill="#b3b3b3" fill-rule="evenodd" fill-opacity="0.8" stroke="#000000" stroke-opacity="0.8" stroke-width="3.2"/>
<circle clip-path="url(#clip172)" cx="324.597" cy="1257.09" r="12" fill="#b3b3b3" fill-rule="evenodd" fill-opacity="0.8" stroke="#000000" stroke-opacity="0.8" stroke-width="3.2"/>
<circle clip-path="url(#clip172)" cx="335.727" cy="1234.1" r="12" fill="#b3b3b3" fill-rule="evenodd" fill-opacity="0.8" stroke="#000000" stroke-opacity="0.8" stroke-width="3.2"/>
<circle clip-path="url(#clip172)" cx="347.205" cy="1201.04" r="12" fill="#b3b3b3" fill-rule="evenodd" fill-opacity="0.8" stroke="#000000" stroke-opacity="0.8" stroke-width="3.2"/>
<circle clip-path="url(#clip172)" cx="358.336" cy="1163.8" r="12" fill="#b3b3b3" fill-rule="evenodd" fill-opacity="0.8" stroke="#000000" stroke-opacity="0.8" stroke-width="3.2"/>
<circle clip-path="url(#clip172)" cx="369.814" cy="1139.89" r="12" fill="#b3b3b3" fill-rule="evenodd" fill-opacity="0.8" stroke="#000000" stroke-opacity="0.8" stroke-width="3.2"/>
<circle clip-path="url(#clip172)" cx="380.944" cy="1089.74" r="12" fill="#b3b3b3" fill-rule="evenodd" fill-opacity="0.8" stroke="#000000" stroke-opacity="0.8" stroke-width="3.2"/>
<circle clip-path="url(#clip172)" cx="392.422" cy="1022.39" r="12" fill="#b3b3b3" fill-rule="evenodd" fill-opacity="0.8" stroke="#000000" stroke-opacity="0.8" stroke-width="3.2"/>
<circle clip-path="url(#clip172)" cx="403.553" cy="946.394" r="12" fill="#b3b3b3" fill-rule="evenodd" fill-opacity="0.8" stroke="#000000" stroke-opacity="0.8" stroke-width="3.2"/>
<circle clip-path="url(#clip172)" cx="414.683" cy="866.431" r="12" fill="#b3b3b3" fill-rule="evenodd" fill-opacity="0.8" stroke="#000000" stroke-opacity="0.8" stroke-width="3.2"/>
<circle clip-path="url(#clip172)" cx="426.161" cy="772.632" r="12" fill="#b3b3b3" fill-rule="evenodd" fill-opacity="0.8" stroke="#000000" stroke-opacity="0.8" stroke-width="3.2"/>
<circle clip-path="url(#clip172)" cx="441.466" cy="552.886" r="12" fill="#b3b3b3" fill-rule="evenodd" fill-opacity="0.8" stroke="#000000" stroke-opacity="0.8" stroke-width="3.2"/>
<circle clip-path="url(#clip172)" cx="452.596" cy="422.665" r="12" fill="#b3b3b3" fill-rule="evenodd" fill-opacity="0.8" stroke="#000000" stroke-opacity="0.8" stroke-width="3.2"/>
<circle clip-path="url(#clip172)" cx="463.726" cy="310.249" r="12" fill="#b3b3b3" fill-rule="evenodd" fill-opacity="0.8" stroke="#000000" stroke-opacity="0.8" stroke-width="3.2"/>
<circle clip-path="url(#clip172)" cx="474.857" cy="226.42" r="12" fill="#b3b3b3" fill-rule="evenodd" fill-opacity="0.8" stroke="#000000" stroke-opacity="0.8" stroke-width="3.2"/>
<circle clip-path="url(#clip172)" cx="485.987" cy="157.444" r="12" fill="#b3b3b3" fill-rule="evenodd" fill-opacity="0.8" stroke="#000000" stroke-opacity="0.8" stroke-width="3.2"/>
<circle clip-path="url(#clip172)" cx="497.117" cy="106.678" r="12" fill="#b3b3b3" fill-rule="evenodd" fill-opacity="0.8" stroke="#000000" stroke-opacity="0.8" stroke-width="3.2"/>
<circle clip-path="url(#clip172)" cx="508.595" cy="122.244" r="12" fill="#b3b3b3" fill-rule="evenodd" fill-opacity="0.8" stroke="#000000" stroke-opacity="0.8" stroke-width="3.2"/>
<circle clip-path="url(#clip172)" cx="519.726" cy="136.792" r="12" fill="#b3b3b3" fill-rule="evenodd" fill-opacity="0.8" stroke="#000000" stroke-opacity="0.8" stroke-width="3.2"/>
<circle clip-path="url(#clip172)" cx="530.856" cy="134.859" r="12" fill="#b3b3b3" fill-rule="evenodd" fill-opacity="0.8" stroke="#000000" stroke-opacity="0.8" stroke-width="3.2"/>
<circle clip-path="url(#clip172)" cx="541.987" cy="172.094" r="12" fill="#b3b3b3" fill-rule="evenodd" fill-opacity="0.8" stroke="#000000" stroke-opacity="0.8" stroke-width="3.2"/>
<circle clip-path="url(#clip172)" cx="553.117" cy="228.251" r="12" fill="#b3b3b3" fill-rule="evenodd" fill-opacity="0.8" stroke="#000000" stroke-opacity="0.8" stroke-width="3.2"/>
<circle clip-path="url(#clip172)" cx="564.247" cy="261.315" r="12" fill="#b3b3b3" fill-rule="evenodd" fill-opacity="0.8" stroke="#000000" stroke-opacity="0.8" stroke-width="3.2"/>
<circle clip-path="url(#clip172)" cx="575.378" cy="323.78" r="12" fill="#b3b3b3" fill-rule="evenodd" fill-opacity="0.8" stroke="#000000" stroke-opacity="0.8" stroke-width="3.2"/>
<circle clip-path="url(#clip172)" cx="588.247" cy="373.426" r="12" fill="#b3b3b3" fill-rule="evenodd" fill-opacity="0.8" stroke="#000000" stroke-opacity="0.8" stroke-width="3.2"/>
<circle clip-path="url(#clip172)" cx="605.29" cy="420.224" r="12" fill="#b3b3b3" fill-rule="evenodd" fill-opacity="0.8" stroke="#000000" stroke-opacity="0.8" stroke-width="3.2"/>
<circle clip-path="url(#clip172)" cx="621.986" cy="458.273" r="12" fill="#b3b3b3" fill-rule="evenodd" fill-opacity="0.8" stroke="#000000" stroke-opacity="0.8" stroke-width="3.2"/>
<circle clip-path="url(#clip172)" cx="639.029" cy="498.356" r="12" fill="#b3b3b3" fill-rule="evenodd" fill-opacity="0.8" stroke="#000000" stroke-opacity="0.8" stroke-width="3.2"/>
<circle clip-path="url(#clip172)" cx="656.073" cy="528.469" r="12" fill="#b3b3b3" fill-rule="evenodd" fill-opacity="0.8" stroke="#000000" stroke-opacity="0.8" stroke-width="3.2"/>
<circle clip-path="url(#clip172)" cx="673.116" cy="563.771" r="12" fill="#b3b3b3" fill-rule="evenodd" fill-opacity="0.8" stroke="#000000" stroke-opacity="0.8" stroke-width="3.2"/>
<circle clip-path="url(#clip172)" cx="689.812" cy="592.765" r="12" fill="#b3b3b3" fill-rule="evenodd" fill-opacity="0.8" stroke="#000000" stroke-opacity="0.8" stroke-width="3.2"/>
<circle clip-path="url(#clip172)" cx="706.855" cy="626.948" r="12" fill="#b3b3b3" fill-rule="evenodd" fill-opacity="0.8" stroke="#000000" stroke-opacity="0.8" stroke-width="3.2"/>
<circle clip-path="url(#clip172)" cx="723.898" cy="644.65" r="12" fill="#b3b3b3" fill-rule="evenodd" fill-opacity="0.8" stroke="#000000" stroke-opacity="0.8" stroke-width="3.2"/>
<circle clip-path="url(#clip172)" cx="740.942" cy="658.282" r="12" fill="#b3b3b3" fill-rule="evenodd" fill-opacity="0.8" stroke="#000000" stroke-opacity="0.8" stroke-width="3.2"/>
<circle clip-path="url(#clip172)" cx="757.637" cy="674.967" r="12" fill="#b3b3b3" fill-rule="evenodd" fill-opacity="0.8" stroke="#000000" stroke-opacity="0.8" stroke-width="3.2"/>
<circle clip-path="url(#clip172)" cx="774.681" cy="674.763" r="12" fill="#b3b3b3" fill-rule="evenodd" fill-opacity="0.8" stroke="#000000" stroke-opacity="0.8" stroke-width="3.2"/>
<circle clip-path="url(#clip172)" cx="791.724" cy="695.822" r="12" fill="#b3b3b3" fill-rule="evenodd" fill-opacity="0.8" stroke="#000000" stroke-opacity="0.8" stroke-width="3.2"/>
<circle clip-path="url(#clip172)" cx="808.419" cy="702.944" r="12" fill="#b3b3b3" fill-rule="evenodd" fill-opacity="0.8" stroke="#000000" stroke-opacity="0.8" stroke-width="3.2"/>
<circle clip-path="url(#clip172)" cx="825.463" cy="711.998" r="12" fill="#b3b3b3" fill-rule="evenodd" fill-opacity="0.8" stroke="#000000" stroke-opacity="0.8" stroke-width="3.2"/>
<circle clip-path="url(#clip172)" cx="842.506" cy="730.005" r="12" fill="#b3b3b3" fill-rule="evenodd" fill-opacity="0.8" stroke="#000000" stroke-opacity="0.8" stroke-width="3.2"/>
<circle clip-path="url(#clip172)" cx="859.55" cy="756.253" r="12" fill="#b3b3b3" fill-rule="evenodd" fill-opacity="0.8" stroke="#000000" stroke-opacity="0.8" stroke-width="3.2"/>
<circle clip-path="url(#clip172)" cx="876.245" cy="772.53" r="12" fill="#b3b3b3" fill-rule="evenodd" fill-opacity="0.8" stroke="#000000" stroke-opacity="0.8" stroke-width="3.2"/>
<circle clip-path="url(#clip172)" cx="893.288" cy="772.937" r="12" fill="#b3b3b3" fill-rule="evenodd" fill-opacity="0.8" stroke="#000000" stroke-opacity="0.8" stroke-width="3.2"/>
<circle clip-path="url(#clip172)" cx="910.332" cy="781.991" r="12" fill="#b3b3b3" fill-rule="evenodd" fill-opacity="0.8" stroke="#000000" stroke-opacity="0.8" stroke-width="3.2"/>
<circle clip-path="url(#clip172)" cx="927.027" cy="781.381" r="12" fill="#b3b3b3" fill-rule="evenodd" fill-opacity="0.8" stroke="#000000" stroke-opacity="0.8" stroke-width="3.2"/>
<circle clip-path="url(#clip172)" cx="944.071" cy="805.899" r="12" fill="#b3b3b3" fill-rule="evenodd" fill-opacity="0.8" stroke="#000000" stroke-opacity="0.8" stroke-width="3.2"/>
<circle clip-path="url(#clip172)" cx="961.114" cy="809.867" r="12" fill="#b3b3b3" fill-rule="evenodd" fill-opacity="0.8" stroke="#000000" stroke-opacity="0.8" stroke-width="3.2"/>
<circle clip-path="url(#clip172)" cx="977.81" cy="819.633" r="12" fill="#b3b3b3" fill-rule="evenodd" fill-opacity="0.8" stroke="#000000" stroke-opacity="0.8" stroke-width="3.2"/>
<circle clip-path="url(#clip172)" cx="994.853" cy="823.703" r="12" fill="#b3b3b3" fill-rule="evenodd" fill-opacity="0.8" stroke="#000000" stroke-opacity="0.8" stroke-width="3.2"/>
<circle clip-path="url(#clip172)" cx="1011.9" cy="834.283" r="12" fill="#b3b3b3" fill-rule="evenodd" fill-opacity="0.8" stroke="#000000" stroke-opacity="0.8" stroke-width="3.2"/>
<circle clip-path="url(#clip172)" cx="1028.94" cy="851.476" r="12" fill="#b3b3b3" fill-rule="evenodd" fill-opacity="0.8" stroke="#000000" stroke-opacity="0.8" stroke-width="3.2"/>
<circle clip-path="url(#clip172)" cx="1045.64" cy="847.508" r="12" fill="#b3b3b3" fill-rule="evenodd" fill-opacity="0.8" stroke="#000000" stroke-opacity="0.8" stroke-width="3.2"/>
<circle clip-path="url(#clip172)" cx="1062.33" cy="841.201" r="12" fill="#b3b3b3" fill-rule="evenodd" fill-opacity="0.8" stroke="#000000" stroke-opacity="0.8" stroke-width="3.2"/>
<circle clip-path="url(#clip172)" cx="1079.37" cy="859.411" r="12" fill="#b3b3b3" fill-rule="evenodd" fill-opacity="0.8" stroke="#000000" stroke-opacity="0.8" stroke-width="3.2"/>
<circle clip-path="url(#clip172)" cx="1096.07" cy="879.453" r="12" fill="#b3b3b3" fill-rule="evenodd" fill-opacity="0.8" stroke="#000000" stroke-opacity="0.8" stroke-width="3.2"/>
<circle clip-path="url(#clip172)" cx="1113.11" cy="892.882" r="12" fill="#b3b3b3" fill-rule="evenodd" fill-opacity="0.8" stroke="#000000" stroke-opacity="0.8" stroke-width="3.2"/>
<circle clip-path="url(#clip172)" cx="1130.16" cy="903.666" r="12" fill="#b3b3b3" fill-rule="evenodd" fill-opacity="0.8" stroke="#000000" stroke-opacity="0.8" stroke-width="3.2"/>
<circle clip-path="url(#clip172)" cx="1147.2" cy="895.12" r="12" fill="#b3b3b3" fill-rule="evenodd" fill-opacity="0.8" stroke="#000000" stroke-opacity="0.8" stroke-width="3.2"/>
<circle clip-path="url(#clip172)" cx="1164.24" cy="892.475" r="12" fill="#b3b3b3" fill-rule="evenodd" fill-opacity="0.8" stroke="#000000" stroke-opacity="0.8" stroke-width="3.2"/>
<circle clip-path="url(#clip172)" cx="1180.94" cy="919.129" r="12" fill="#b3b3b3" fill-rule="evenodd" fill-opacity="0.8" stroke="#000000" stroke-opacity="0.8" stroke-width="3.2"/>
<circle clip-path="url(#clip172)" cx="1197.98" cy="927.065" r="12" fill="#b3b3b3" fill-rule="evenodd" fill-opacity="0.8" stroke="#000000" stroke-opacity="0.8" stroke-width="3.2"/>
<circle clip-path="url(#clip172)" cx="1215.03" cy="933.27" r="12" fill="#b3b3b3" fill-rule="evenodd" fill-opacity="0.8" stroke="#000000" stroke-opacity="0.8" stroke-width="3.2"/>
<circle clip-path="url(#clip172)" cx="1232.07" cy="932.66" r="12" fill="#b3b3b3" fill-rule="evenodd" fill-opacity="0.8" stroke="#000000" stroke-opacity="0.8" stroke-width="3.2"/>
<circle clip-path="url(#clip172)" cx="1249.11" cy="946.699" r="12" fill="#b3b3b3" fill-rule="evenodd" fill-opacity="0.8" stroke="#000000" stroke-opacity="0.8" stroke-width="3.2"/>
<circle clip-path="url(#clip172)" cx="1265.81" cy="965.927" r="12" fill="#b3b3b3" fill-rule="evenodd" fill-opacity="0.8" stroke="#000000" stroke-opacity="0.8" stroke-width="3.2"/>
<circle clip-path="url(#clip172)" cx="1282.85" cy="961.247" r="12" fill="#b3b3b3" fill-rule="evenodd" fill-opacity="0.8" stroke="#000000" stroke-opacity="0.8" stroke-width="3.2"/>
<circle clip-path="url(#clip172)" cx="1299.89" cy="956.059" r="12" fill="#b3b3b3" fill-rule="evenodd" fill-opacity="0.8" stroke="#000000" stroke-opacity="0.8" stroke-width="3.2"/>
<circle clip-path="url(#clip172)" cx="1316.94" cy="953.109" r="12" fill="#b3b3b3" fill-rule="evenodd" fill-opacity="0.8" stroke="#000000" stroke-opacity="0.8" stroke-width="3.2"/>
<circle clip-path="url(#clip172)" cx="1333.98" cy="985.257" r="12" fill="#b3b3b3" fill-rule="evenodd" fill-opacity="0.8" stroke="#000000" stroke-opacity="0.8" stroke-width="3.2"/>
<circle clip-path="url(#clip172)" cx="1351.02" cy="996.855" r="12" fill="#b3b3b3" fill-rule="evenodd" fill-opacity="0.8" stroke="#000000" stroke-opacity="0.8" stroke-width="3.2"/>
<circle clip-path="url(#clip172)" cx="1367.72" cy="1071.83" r="12" fill="#b3b3b3" fill-rule="evenodd" fill-opacity="0.8" stroke="#000000" stroke-opacity="0.8" stroke-width="3.2"/>
<circle clip-path="url(#clip172)" cx="1384.76" cy="1108.56" r="12" fill="#b3b3b3" fill-rule="evenodd" fill-opacity="0.8" stroke="#000000" stroke-opacity="0.8" stroke-width="3.2"/>
<circle clip-path="url(#clip172)" cx="1401.81" cy="1148.85" r="12" fill="#b3b3b3" fill-rule="evenodd" fill-opacity="0.8" stroke="#000000" stroke-opacity="0.8" stroke-width="3.2"/>
<circle clip-path="url(#clip172)" cx="1422.33" cy="1185.57" r="12" fill="#b3b3b3" fill-rule="evenodd" fill-opacity="0.8" stroke="#000000" stroke-opacity="0.8" stroke-width="3.2"/>
<circle clip-path="url(#clip172)" cx="1444.59" cy="1189.23" r="12" fill="#b3b3b3" fill-rule="evenodd" fill-opacity="0.8" stroke="#000000" stroke-opacity="0.8" stroke-width="3.2"/>
<circle clip-path="url(#clip172)" cx="1468.24" cy="1109.58" r="12" fill="#b3b3b3" fill-rule="evenodd" fill-opacity="0.8" stroke="#000000" stroke-opacity="0.8" stroke-width="3.2"/>
<circle clip-path="url(#clip172)" cx="1491.55" cy="1047.82" r="12" fill="#b3b3b3" fill-rule="evenodd" fill-opacity="0.8" stroke="#000000" stroke-opacity="0.8" stroke-width="3.2"/>
<circle clip-path="url(#clip172)" cx="1515.2" cy="1015.78" r="12" fill="#b3b3b3" fill-rule="evenodd" fill-opacity="0.8" stroke="#000000" stroke-opacity="0.8" stroke-width="3.2"/>
<circle clip-path="url(#clip172)" cx="1538.85" cy="1024.12" r="12" fill="#b3b3b3" fill-rule="evenodd" fill-opacity="0.8" stroke="#000000" stroke-opacity="0.8" stroke-width="3.2"/>
<circle clip-path="url(#clip172)" cx="1562.5" cy="1054.03" r="12" fill="#b3b3b3" fill-rule="evenodd" fill-opacity="0.8" stroke="#000000" stroke-opacity="0.8" stroke-width="3.2"/>
<circle clip-path="url(#clip172)" cx="1586.15" cy="1088.01" r="12" fill="#b3b3b3" fill-rule="evenodd" fill-opacity="0.8" stroke="#000000" stroke-opacity="0.8" stroke-width="3.2"/>
<circle clip-path="url(#clip172)" cx="1609.81" cy="1060.74" r="12" fill="#b3b3b3" fill-rule="evenodd" fill-opacity="0.8" stroke="#000000" stroke-opacity="0.8" stroke-width="3.2"/>
<circle clip-path="url(#clip172)" cx="1633.46" cy="1038.26" r="12" fill="#b3b3b3" fill-rule="evenodd" fill-opacity="0.8" stroke="#000000" stroke-opacity="0.8" stroke-width="3.2"/>
<circle clip-path="url(#clip172)" cx="1657.11" cy="982.103" r="12" fill="#b3b3b3" fill-rule="evenodd" fill-opacity="0.8" stroke="#000000" stroke-opacity="0.8" stroke-width="3.2"/>
<circle clip-path="url(#clip172)" cx="1680.76" cy="982.306" r="12" fill="#b3b3b3" fill-rule="evenodd" fill-opacity="0.8" stroke="#000000" stroke-opacity="0.8" stroke-width="3.2"/>
<circle clip-path="url(#clip172)" cx="1704.41" cy="1099.91" r="12" fill="#b3b3b3" fill-rule="evenodd" fill-opacity="0.8" stroke="#000000" stroke-opacity="0.8" stroke-width="3.2"/>
<circle clip-path="url(#clip172)" cx="1728.07" cy="1176.42" r="12" fill="#b3b3b3" fill-rule="evenodd" fill-opacity="0.8" stroke="#000000" stroke-opacity="0.8" stroke-width="3.2"/>
<circle clip-path="url(#clip172)" cx="1751.37" cy="1235.01" r="12" fill="#b3b3b3" fill-rule="evenodd" fill-opacity="0.8" stroke="#000000" stroke-opacity="0.8" stroke-width="3.2"/>
<circle clip-path="url(#clip172)" cx="1775.02" cy="1231.86" r="12" fill="#b3b3b3" fill-rule="evenodd" fill-opacity="0.8" stroke="#000000" stroke-opacity="0.8" stroke-width="3.2"/>
<circle clip-path="url(#clip172)" cx="1798.67" cy="1128.19" r="12" fill="#b3b3b3" fill-rule="evenodd" fill-opacity="0.8" stroke="#000000" stroke-opacity="0.8" stroke-width="3.2"/>
<circle clip-path="url(#clip172)" cx="1822.33" cy="970.912" r="12" fill="#b3b3b3" fill-rule="evenodd" fill-opacity="0.8" stroke="#000000" stroke-opacity="0.8" stroke-width="3.2"/>
<circle clip-path="url(#clip172)" cx="1845.98" cy="907.735" r="12" fill="#b3b3b3" fill-rule="evenodd" fill-opacity="0.8" stroke="#000000" stroke-opacity="0.8" stroke-width="3.2"/>
<circle clip-path="url(#clip172)" cx="1869.63" cy="1021.58" r="12" fill="#b3b3b3" fill-rule="evenodd" fill-opacity="0.8" stroke="#000000" stroke-opacity="0.8" stroke-width="3.2"/>
<circle clip-path="url(#clip172)" cx="1893.28" cy="1163.09" r="12" fill="#b3b3b3" fill-rule="evenodd" fill-opacity="0.8" stroke="#000000" stroke-opacity="0.8" stroke-width="3.2"/>
<path clip-path="url(#clip172)" d="
M260.597 1276.83 L272.075 1288.53 L283.206 1274.89 L294.684 1266.45 L305.814 1259.63 L316.945 1253.94 L328.423 1249.26 L339.553 1236.03 L351.031 1206.83 L362.162 1165.84 
  L373.292 1152 L384.77 1090.65 L395.901 1022.08 L407.379 949.243 L418.509 891.152 L429.639 791.148 L445.292 588.086 L456.422 481.061 L467.552 404.76 L478.683 338.531 
  L489.813 259.89 L500.943 208.718 L512.074 220.824 L523.204 212.482 L534.334 207.802 L545.813 228.658 L556.943 294.277 L568.073 318.388 L579.204 375.257 L592.073 397.537 
  L608.769 425.107 L625.812 452.27 L642.855 485.029 L659.551 529.995 L676.594 556.548 L693.638 570.486 L710.681 610.365 L727.377 642.514 L744.42 648.414 L761.463 650.754 
  L778.507 684.937 L795.202 685.242 L812.246 702.842 L829.289 716.068 L845.984 726.343 L863.028 755.134 L880.071 789.825 L896.767 793.793 L913.81 777.006 L930.853 802.644 
  L947.549 824.211 L964.592 836.419 L981.636 854.426 L998.679 855.851 L1015.37 888.507 L1032.42 922.792 L1049.46 953.617 L1066.16 931.948 L1082.85 929.812 L1099.9 937.136 
  L1116.94 939.273 L1133.98 944.054 L1150.68 922.487 L1167.72 927.777 L1184.76 948.632 L1201.81 955.754 L1218.5 969.183 L1235.55 962.468 L1252.59 963.384 L1269.63 1007.74 
  L1286.68 1033.28 L1303.72 1082.92 L1320.76 1094.21 L1337.46 1106.93 L1354.5 1115.38 L1371.55 1175.3 L1388.59 1193 L1405.63 1178.25 L1427.2 1216.6 L1449.46 1254.24 
  L1473.11 1227.69 L1496.76 1178.15 L1520.41 1186.08 L1543.72 1153.53 L1567.37 1152 L1591.02 1085.26 L1614.67 1101.84 L1638.33 1114.36 L1661.98 1153.22 L1685.63 1161.56 
  L1709.28 1091.06 L1732.93 1034.29 L1756.59 1057.79 L1779.89 1106.42 L1803.54 1121.07 L1827.2 1100.32 L1850.85 1075.8 L1874.5 1101.23 L1898.15 1125.45 L1898.15 1089.43 
  L1874.5 1067.46 L1850.85 1057.69 L1827.2 1072.65 L1803.54 1090.35 L1779.89 1036.23 L1756.59 992.683 L1732.93 981.798 L1709.28 1010.69 L1685.63 1120.05 L1661.98 1093.4 
  L1638.33 1041.72 L1614.67 1036.73 L1591.02 1021.58 L1567.37 1093.6 L1543.72 1095.94 L1520.41 1112.22 L1496.76 1136.43 L1473.11 1155.25 L1449.46 1187.5 L1427.2 1145.59 
  L1405.63 1118.22 L1388.59 1128.7 L1371.55 1111.81 L1354.5 1053.52 L1337.46 1058.91 L1320.76 1037.24 L1303.72 1023.1 L1286.68 987.291 L1269.63 962.367 L1252.59 937.543 
  L1235.55 936.831 L1218.5 945.377 L1201.81 937.035 L1184.76 916.484 L1167.72 900.715 L1150.68 896.239 L1133.98 909.261 L1116.94 904.683 L1099.9 902.547 L1082.85 892.78 
  L1066.16 895.12 L1049.46 918.01 L1032.42 885.761 L1015.37 840.285 L998.679 812.512 L981.636 811.087 L964.592 794.912 L947.549 783.924 L930.853 769.885 L913.81 741.196 
  L896.767 763.883 L880.071 758.898 L863.028 722.579 L845.984 693.177 L829.289 684.733 L812.246 673.949 L795.202 653.704 L778.507 653.399 L761.463 628.169 L744.42 625.219 
  L727.377 616.47 L710.681 570.486 L693.638 534.879 L676.594 523.789 L659.551 490.726 L642.855 447.183 L625.812 418.087 L608.769 395.808 L592.073 366.813 L579.204 332.529 
  L568.073 261.009 L556.943 238.119 L545.813 160.903 L534.334 141.268 L523.204 155.104 L512.074 159.987 L500.943 139.946 L489.813 171.585 L478.683 228.861 L467.552 292.445 
  L456.422 364.27 L445.292 481.671 L429.639 696.128 L418.509 805.085 L407.379 859.92 L395.901 935.814 L384.77 1010.08 L373.292 1085.67 L362.162 1106.42 L351.031 1160.65 
  L339.553 1217.11 L328.423 1234.61 L316.945 1237.46 L305.814 1240.92 L294.684 1244.68 L283.206 1249.26 L272.075 1277.54 L260.597 1271.54  Z
  " fill="#808080" fill-rule="evenodd" fill-opacity="0.3"/>
<polyline clip-path="url(#clip172)" style="stroke:#808080; stroke-linecap:butt; stroke-linejoin:round; stroke-width:8; stroke-opacity:0.8; fill:none" points="
  260.597,1274.18 272.075,1283.03 283.206,1262.08 294.684,1255.57 305.814,1250.27 316.945,1245.7 328.423,1241.93 339.553,1226.57 351.031,1183.74 362.162,1136.13 
  373.292,1118.83 384.77,1050.37 395.901,978.949 407.379,904.581 418.509,848.119 429.639,743.638 445.292,534.879 456.422,422.665 467.552,348.603 478.683,283.696 
  489.813,215.738 500.943,174.332 512.074,190.406 523.204,183.793 534.334,174.535 545.813,194.78 556.943,266.198 568.073,289.699 579.204,353.893 592.073,382.175 
  608.769,410.457 625.812,435.179 642.855,466.106 659.551,510.361 676.594,540.169 693.638,552.682 710.681,590.426 727.377,629.492 744.42,636.816 761.463,639.462 
  778.507,669.168 795.202,669.473 812.246,688.396 829.289,700.4 845.984,709.76 863.028,738.856 880.071,774.361 896.767,778.838 913.81,759.101 930.853,786.264 
  947.549,804.068 964.592,815.666 981.636,832.757 998.679,834.181 1015.37,864.396 1032.42,904.276 1049.46,935.814 1066.16,913.534 1082.85,911.296 1099.9,919.842 
  1116.94,921.978 1133.98,926.658 1150.68,909.363 1167.72,914.246 1184.76,932.558 1201.81,946.394 1218.5,957.28 1235.55,949.65 1252.59,950.464 1269.63,985.053 
  1286.68,1010.28 1303.72,1053.01 1320.76,1065.73 1337.46,1082.92 1354.5,1084.45 1371.55,1143.56 1388.59,1160.85 1405.63,1148.24 1427.2,1181.1 1449.46,1220.87 
  1473.11,1191.47 1496.76,1157.29 1520.41,1149.15 1543.72,1124.73 1567.37,1122.8 1591.02,1053.42 1614.67,1069.29 1638.33,1078.04 1661.98,1123.31 1685.63,1140.81 
  1709.28,1050.88 1732.93,1008.05 1756.59,1025.24 1779.89,1071.32 1803.54,1105.71 1827.2,1086.48 1850.85,1066.75 1874.5,1084.35 1898.15,1107.44 
  "/>
<circle clip-path="url(#clip172)" cx="260.597" cy="1274.18" r="12" fill="#808080" fill-rule="evenodd" fill-opacity="0.8" stroke="#000000" stroke-opacity="0.8" stroke-width="3.2"/>
<circle clip-path="url(#clip172)" cx="272.075" cy="1283.03" r="12" fill="#808080" fill-rule="evenodd" fill-opacity="0.8" stroke="#000000" stroke-opacity="0.8" stroke-width="3.2"/>
<circle clip-path="url(#clip172)" cx="283.206" cy="1262.08" r="12" fill="#808080" fill-rule="evenodd" fill-opacity="0.8" stroke="#000000" stroke-opacity="0.8" stroke-width="3.2"/>
<circle clip-path="url(#clip172)" cx="294.684" cy="1255.57" r="12" fill="#808080" fill-rule="evenodd" fill-opacity="0.8" stroke="#000000" stroke-opacity="0.8" stroke-width="3.2"/>
<circle clip-path="url(#clip172)" cx="305.814" cy="1250.27" r="12" fill="#808080" fill-rule="evenodd" fill-opacity="0.8" stroke="#000000" stroke-opacity="0.8" stroke-width="3.2"/>
<circle clip-path="url(#clip172)" cx="316.945" cy="1245.7" r="12" fill="#808080" fill-rule="evenodd" fill-opacity="0.8" stroke="#000000" stroke-opacity="0.8" stroke-width="3.2"/>
<circle clip-path="url(#clip172)" cx="328.423" cy="1241.93" r="12" fill="#808080" fill-rule="evenodd" fill-opacity="0.8" stroke="#000000" stroke-opacity="0.8" stroke-width="3.2"/>
<circle clip-path="url(#clip172)" cx="339.553" cy="1226.57" r="12" fill="#808080" fill-rule="evenodd" fill-opacity="0.8" stroke="#000000" stroke-opacity="0.8" stroke-width="3.2"/>
<circle clip-path="url(#clip172)" cx="351.031" cy="1183.74" r="12" fill="#808080" fill-rule="evenodd" fill-opacity="0.8" stroke="#000000" stroke-opacity="0.8" stroke-width="3.2"/>
<circle clip-path="url(#clip172)" cx="362.162" cy="1136.13" r="12" fill="#808080" fill-rule="evenodd" fill-opacity="0.8" stroke="#000000" stroke-opacity="0.8" stroke-width="3.2"/>
<circle clip-path="url(#clip172)" cx="373.292" cy="1118.83" r="12" fill="#808080" fill-rule="evenodd" fill-opacity="0.8" stroke="#000000" stroke-opacity="0.8" stroke-width="3.2"/>
<circle clip-path="url(#clip172)" cx="384.77" cy="1050.37" r="12" fill="#808080" fill-rule="evenodd" fill-opacity="0.8" stroke="#000000" stroke-opacity="0.8" stroke-width="3.2"/>
<circle clip-path="url(#clip172)" cx="395.901" cy="978.949" r="12" fill="#808080" fill-rule="evenodd" fill-opacity="0.8" stroke="#000000" stroke-opacity="0.8" stroke-width="3.2"/>
<circle clip-path="url(#clip172)" cx="407.379" cy="904.581" r="12" fill="#808080" fill-rule="evenodd" fill-opacity="0.8" stroke="#000000" stroke-opacity="0.8" stroke-width="3.2"/>
<circle clip-path="url(#clip172)" cx="418.509" cy="848.119" r="12" fill="#808080" fill-rule="evenodd" fill-opacity="0.8" stroke="#000000" stroke-opacity="0.8" stroke-width="3.2"/>
<circle clip-path="url(#clip172)" cx="429.639" cy="743.638" r="12" fill="#808080" fill-rule="evenodd" fill-opacity="0.8" stroke="#000000" stroke-opacity="0.8" stroke-width="3.2"/>
<circle clip-path="url(#clip172)" cx="445.292" cy="534.879" r="12" fill="#808080" fill-rule="evenodd" fill-opacity="0.8" stroke="#000000" stroke-opacity="0.8" stroke-width="3.2"/>
<circle clip-path="url(#clip172)" cx="456.422" cy="422.665" r="12" fill="#808080" fill-rule="evenodd" fill-opacity="0.8" stroke="#000000" stroke-opacity="0.8" stroke-width="3.2"/>
<circle clip-path="url(#clip172)" cx="467.552" cy="348.603" r="12" fill="#808080" fill-rule="evenodd" fill-opacity="0.8" stroke="#000000" stroke-opacity="0.8" stroke-width="3.2"/>
<circle clip-path="url(#clip172)" cx="478.683" cy="283.696" r="12" fill="#808080" fill-rule="evenodd" fill-opacity="0.8" stroke="#000000" stroke-opacity="0.8" stroke-width="3.2"/>
<circle clip-path="url(#clip172)" cx="489.813" cy="215.738" r="12" fill="#808080" fill-rule="evenodd" fill-opacity="0.8" stroke="#000000" stroke-opacity="0.8" stroke-width="3.2"/>
<circle clip-path="url(#clip172)" cx="500.943" cy="174.332" r="12" fill="#808080" fill-rule="evenodd" fill-opacity="0.8" stroke="#000000" stroke-opacity="0.8" stroke-width="3.2"/>
<circle clip-path="url(#clip172)" cx="512.074" cy="190.406" r="12" fill="#808080" fill-rule="evenodd" fill-opacity="0.8" stroke="#000000" stroke-opacity="0.8" stroke-width="3.2"/>
<circle clip-path="url(#clip172)" cx="523.204" cy="183.793" r="12" fill="#808080" fill-rule="evenodd" fill-opacity="0.8" stroke="#000000" stroke-opacity="0.8" stroke-width="3.2"/>
<circle clip-path="url(#clip172)" cx="534.334" cy="174.535" r="12" fill="#808080" fill-rule="evenodd" fill-opacity="0.8" stroke="#000000" stroke-opacity="0.8" stroke-width="3.2"/>
<circle clip-path="url(#clip172)" cx="545.813" cy="194.78" r="12" fill="#808080" fill-rule="evenodd" fill-opacity="0.8" stroke="#000000" stroke-opacity="0.8" stroke-width="3.2"/>
<circle clip-path="url(#clip172)" cx="556.943" cy="266.198" r="12" fill="#808080" fill-rule="evenodd" fill-opacity="0.8" stroke="#000000" stroke-opacity="0.8" stroke-width="3.2"/>
<circle clip-path="url(#clip172)" cx="568.073" cy="289.699" r="12" fill="#808080" fill-rule="evenodd" fill-opacity="0.8" stroke="#000000" stroke-opacity="0.8" stroke-width="3.2"/>
<circle clip-path="url(#clip172)" cx="579.204" cy="353.893" r="12" fill="#808080" fill-rule="evenodd" fill-opacity="0.8" stroke="#000000" stroke-opacity="0.8" stroke-width="3.2"/>
<circle clip-path="url(#clip172)" cx="592.073" cy="382.175" r="12" fill="#808080" fill-rule="evenodd" fill-opacity="0.8" stroke="#000000" stroke-opacity="0.8" stroke-width="3.2"/>
<circle clip-path="url(#clip172)" cx="608.769" cy="410.457" r="12" fill="#808080" fill-rule="evenodd" fill-opacity="0.8" stroke="#000000" stroke-opacity="0.8" stroke-width="3.2"/>
<circle clip-path="url(#clip172)" cx="625.812" cy="435.179" r="12" fill="#808080" fill-rule="evenodd" fill-opacity="0.8" stroke="#000000" stroke-opacity="0.8" stroke-width="3.2"/>
<circle clip-path="url(#clip172)" cx="642.855" cy="466.106" r="12" fill="#808080" fill-rule="evenodd" fill-opacity="0.8" stroke="#000000" stroke-opacity="0.8" stroke-width="3.2"/>
<circle clip-path="url(#clip172)" cx="659.551" cy="510.361" r="12" fill="#808080" fill-rule="evenodd" fill-opacity="0.8" stroke="#000000" stroke-opacity="0.8" stroke-width="3.2"/>
<circle clip-path="url(#clip172)" cx="676.594" cy="540.169" r="12" fill="#808080" fill-rule="evenodd" fill-opacity="0.8" stroke="#000000" stroke-opacity="0.8" stroke-width="3.2"/>
<circle clip-path="url(#clip172)" cx="693.638" cy="552.682" r="12" fill="#808080" fill-rule="evenodd" fill-opacity="0.8" stroke="#000000" stroke-opacity="0.8" stroke-width="3.2"/>
<circle clip-path="url(#clip172)" cx="710.681" cy="590.426" r="12" fill="#808080" fill-rule="evenodd" fill-opacity="0.8" stroke="#000000" stroke-opacity="0.8" stroke-width="3.2"/>
<circle clip-path="url(#clip172)" cx="727.377" cy="629.492" r="12" fill="#808080" fill-rule="evenodd" fill-opacity="0.8" stroke="#000000" stroke-opacity="0.8" stroke-width="3.2"/>
<circle clip-path="url(#clip172)" cx="744.42" cy="636.816" r="12" fill="#808080" fill-rule="evenodd" fill-opacity="0.8" stroke="#000000" stroke-opacity="0.8" stroke-width="3.2"/>
<circle clip-path="url(#clip172)" cx="761.463" cy="639.462" r="12" fill="#808080" fill-rule="evenodd" fill-opacity="0.8" stroke="#000000" stroke-opacity="0.8" stroke-width="3.2"/>
<circle clip-path="url(#clip172)" cx="778.507" cy="669.168" r="12" fill="#808080" fill-rule="evenodd" fill-opacity="0.8" stroke="#000000" stroke-opacity="0.8" stroke-width="3.2"/>
<circle clip-path="url(#clip172)" cx="795.202" cy="669.473" r="12" fill="#808080" fill-rule="evenodd" fill-opacity="0.8" stroke="#000000" stroke-opacity="0.8" stroke-width="3.2"/>
<circle clip-path="url(#clip172)" cx="812.246" cy="688.396" r="12" fill="#808080" fill-rule="evenodd" fill-opacity="0.8" stroke="#000000" stroke-opacity="0.8" stroke-width="3.2"/>
<circle clip-path="url(#clip172)" cx="829.289" cy="700.4" r="12" fill="#808080" fill-rule="evenodd" fill-opacity="0.8" stroke="#000000" stroke-opacity="0.8" stroke-width="3.2"/>
<circle clip-path="url(#clip172)" cx="845.984" cy="709.76" r="12" fill="#808080" fill-rule="evenodd" fill-opacity="0.8" stroke="#000000" stroke-opacity="0.8" stroke-width="3.2"/>
<circle clip-path="url(#clip172)" cx="863.028" cy="738.856" r="12" fill="#808080" fill-rule="evenodd" fill-opacity="0.8" stroke="#000000" stroke-opacity="0.8" stroke-width="3.2"/>
<circle clip-path="url(#clip172)" cx="880.071" cy="774.361" r="12" fill="#808080" fill-rule="evenodd" fill-opacity="0.8" stroke="#000000" stroke-opacity="0.8" stroke-width="3.2"/>
<circle clip-path="url(#clip172)" cx="896.767" cy="778.838" r="12" fill="#808080" fill-rule="evenodd" fill-opacity="0.8" stroke="#000000" stroke-opacity="0.8" stroke-width="3.2"/>
<circle clip-path="url(#clip172)" cx="913.81" cy="759.101" r="12" fill="#808080" fill-rule="evenodd" fill-opacity="0.8" stroke="#000000" stroke-opacity="0.8" stroke-width="3.2"/>
<circle clip-path="url(#clip172)" cx="930.853" cy="786.264" r="12" fill="#808080" fill-rule="evenodd" fill-opacity="0.8" stroke="#000000" stroke-opacity="0.8" stroke-width="3.2"/>
<circle clip-path="url(#clip172)" cx="947.549" cy="804.068" r="12" fill="#808080" fill-rule="evenodd" fill-opacity="0.8" stroke="#000000" stroke-opacity="0.8" stroke-width="3.2"/>
<circle clip-path="url(#clip172)" cx="964.592" cy="815.666" r="12" fill="#808080" fill-rule="evenodd" fill-opacity="0.8" stroke="#000000" stroke-opacity="0.8" stroke-width="3.2"/>
<circle clip-path="url(#clip172)" cx="981.636" cy="832.757" r="12" fill="#808080" fill-rule="evenodd" fill-opacity="0.8" stroke="#000000" stroke-opacity="0.8" stroke-width="3.2"/>
<circle clip-path="url(#clip172)" cx="998.679" cy="834.181" r="12" fill="#808080" fill-rule="evenodd" fill-opacity="0.8" stroke="#000000" stroke-opacity="0.8" stroke-width="3.2"/>
<circle clip-path="url(#clip172)" cx="1015.37" cy="864.396" r="12" fill="#808080" fill-rule="evenodd" fill-opacity="0.8" stroke="#000000" stroke-opacity="0.8" stroke-width="3.2"/>
<circle clip-path="url(#clip172)" cx="1032.42" cy="904.276" r="12" fill="#808080" fill-rule="evenodd" fill-opacity="0.8" stroke="#000000" stroke-opacity="0.8" stroke-width="3.2"/>
<circle clip-path="url(#clip172)" cx="1049.46" cy="935.814" r="12" fill="#808080" fill-rule="evenodd" fill-opacity="0.8" stroke="#000000" stroke-opacity="0.8" stroke-width="3.2"/>
<circle clip-path="url(#clip172)" cx="1066.16" cy="913.534" r="12" fill="#808080" fill-rule="evenodd" fill-opacity="0.8" stroke="#000000" stroke-opacity="0.8" stroke-width="3.2"/>
<circle clip-path="url(#clip172)" cx="1082.85" cy="911.296" r="12" fill="#808080" fill-rule="evenodd" fill-opacity="0.8" stroke="#000000" stroke-opacity="0.8" stroke-width="3.2"/>
<circle clip-path="url(#clip172)" cx="1099.9" cy="919.842" r="12" fill="#808080" fill-rule="evenodd" fill-opacity="0.8" stroke="#000000" stroke-opacity="0.8" stroke-width="3.2"/>
<circle clip-path="url(#clip172)" cx="1116.94" cy="921.978" r="12" fill="#808080" fill-rule="evenodd" fill-opacity="0.8" stroke="#000000" stroke-opacity="0.8" stroke-width="3.2"/>
<circle clip-path="url(#clip172)" cx="1133.98" cy="926.658" r="12" fill="#808080" fill-rule="evenodd" fill-opacity="0.8" stroke="#000000" stroke-opacity="0.8" stroke-width="3.2"/>
<circle clip-path="url(#clip172)" cx="1150.68" cy="909.363" r="12" fill="#808080" fill-rule="evenodd" fill-opacity="0.8" stroke="#000000" stroke-opacity="0.8" stroke-width="3.2"/>
<circle clip-path="url(#clip172)" cx="1167.72" cy="914.246" r="12" fill="#808080" fill-rule="evenodd" fill-opacity="0.8" stroke="#000000" stroke-opacity="0.8" stroke-width="3.2"/>
<circle clip-path="url(#clip172)" cx="1184.76" cy="932.558" r="12" fill="#808080" fill-rule="evenodd" fill-opacity="0.8" stroke="#000000" stroke-opacity="0.8" stroke-width="3.2"/>
<circle clip-path="url(#clip172)" cx="1201.81" cy="946.394" r="12" fill="#808080" fill-rule="evenodd" fill-opacity="0.8" stroke="#000000" stroke-opacity="0.8" stroke-width="3.2"/>
<circle clip-path="url(#clip172)" cx="1218.5" cy="957.28" r="12" fill="#808080" fill-rule="evenodd" fill-opacity="0.8" stroke="#000000" stroke-opacity="0.8" stroke-width="3.2"/>
<circle clip-path="url(#clip172)" cx="1235.55" cy="949.65" r="12" fill="#808080" fill-rule="evenodd" fill-opacity="0.8" stroke="#000000" stroke-opacity="0.8" stroke-width="3.2"/>
<circle clip-path="url(#clip172)" cx="1252.59" cy="950.464" r="12" fill="#808080" fill-rule="evenodd" fill-opacity="0.8" stroke="#000000" stroke-opacity="0.8" stroke-width="3.2"/>
<circle clip-path="url(#clip172)" cx="1269.63" cy="985.053" r="12" fill="#808080" fill-rule="evenodd" fill-opacity="0.8" stroke="#000000" stroke-opacity="0.8" stroke-width="3.2"/>
<circle clip-path="url(#clip172)" cx="1286.68" cy="1010.28" r="12" fill="#808080" fill-rule="evenodd" fill-opacity="0.8" stroke="#000000" stroke-opacity="0.8" stroke-width="3.2"/>
<circle clip-path="url(#clip172)" cx="1303.72" cy="1053.01" r="12" fill="#808080" fill-rule="evenodd" fill-opacity="0.8" stroke="#000000" stroke-opacity="0.8" stroke-width="3.2"/>
<circle clip-path="url(#clip172)" cx="1320.76" cy="1065.73" r="12" fill="#808080" fill-rule="evenodd" fill-opacity="0.8" stroke="#000000" stroke-opacity="0.8" stroke-width="3.2"/>
<circle clip-path="url(#clip172)" cx="1337.46" cy="1082.92" r="12" fill="#808080" fill-rule="evenodd" fill-opacity="0.8" stroke="#000000" stroke-opacity="0.8" stroke-width="3.2"/>
<circle clip-path="url(#clip172)" cx="1354.5" cy="1084.45" r="12" fill="#808080" fill-rule="evenodd" fill-opacity="0.8" stroke="#000000" stroke-opacity="0.8" stroke-width="3.2"/>
<circle clip-path="url(#clip172)" cx="1371.55" cy="1143.56" r="12" fill="#808080" fill-rule="evenodd" fill-opacity="0.8" stroke="#000000" stroke-opacity="0.8" stroke-width="3.2"/>
<circle clip-path="url(#clip172)" cx="1388.59" cy="1160.85" r="12" fill="#808080" fill-rule="evenodd" fill-opacity="0.8" stroke="#000000" stroke-opacity="0.8" stroke-width="3.2"/>
<circle clip-path="url(#clip172)" cx="1405.63" cy="1148.24" r="12" fill="#808080" fill-rule="evenodd" fill-opacity="0.8" stroke="#000000" stroke-opacity="0.8" stroke-width="3.2"/>
<circle clip-path="url(#clip172)" cx="1427.2" cy="1181.1" r="12" fill="#808080" fill-rule="evenodd" fill-opacity="0.8" stroke="#000000" stroke-opacity="0.8" stroke-width="3.2"/>
<circle clip-path="url(#clip172)" cx="1449.46" cy="1220.87" r="12" fill="#808080" fill-rule="evenodd" fill-opacity="0.8" stroke="#000000" stroke-opacity="0.8" stroke-width="3.2"/>
<circle clip-path="url(#clip172)" cx="1473.11" cy="1191.47" r="12" fill="#808080" fill-rule="evenodd" fill-opacity="0.8" stroke="#000000" stroke-opacity="0.8" stroke-width="3.2"/>
<circle clip-path="url(#clip172)" cx="1496.76" cy="1157.29" r="12" fill="#808080" fill-rule="evenodd" fill-opacity="0.8" stroke="#000000" stroke-opacity="0.8" stroke-width="3.2"/>
<circle clip-path="url(#clip172)" cx="1520.41" cy="1149.15" r="12" fill="#808080" fill-rule="evenodd" fill-opacity="0.8" stroke="#000000" stroke-opacity="0.8" stroke-width="3.2"/>
<circle clip-path="url(#clip172)" cx="1543.72" cy="1124.73" r="12" fill="#808080" fill-rule="evenodd" fill-opacity="0.8" stroke="#000000" stroke-opacity="0.8" stroke-width="3.2"/>
<circle clip-path="url(#clip172)" cx="1567.37" cy="1122.8" r="12" fill="#808080" fill-rule="evenodd" fill-opacity="0.8" stroke="#000000" stroke-opacity="0.8" stroke-width="3.2"/>
<circle clip-path="url(#clip172)" cx="1591.02" cy="1053.42" r="12" fill="#808080" fill-rule="evenodd" fill-opacity="0.8" stroke="#000000" stroke-opacity="0.8" stroke-width="3.2"/>
<circle clip-path="url(#clip172)" cx="1614.67" cy="1069.29" r="12" fill="#808080" fill-rule="evenodd" fill-opacity="0.8" stroke="#000000" stroke-opacity="0.8" stroke-width="3.2"/>
<circle clip-path="url(#clip172)" cx="1638.33" cy="1078.04" r="12" fill="#808080" fill-rule="evenodd" fill-opacity="0.8" stroke="#000000" stroke-opacity="0.8" stroke-width="3.2"/>
<circle clip-path="url(#clip172)" cx="1661.98" cy="1123.31" r="12" fill="#808080" fill-rule="evenodd" fill-opacity="0.8" stroke="#000000" stroke-opacity="0.8" stroke-width="3.2"/>
<circle clip-path="url(#clip172)" cx="1685.63" cy="1140.81" r="12" fill="#808080" fill-rule="evenodd" fill-opacity="0.8" stroke="#000000" stroke-opacity="0.8" stroke-width="3.2"/>
<circle clip-path="url(#clip172)" cx="1709.28" cy="1050.88" r="12" fill="#808080" fill-rule="evenodd" fill-opacity="0.8" stroke="#000000" stroke-opacity="0.8" stroke-width="3.2"/>
<circle clip-path="url(#clip172)" cx="1732.93" cy="1008.05" r="12" fill="#808080" fill-rule="evenodd" fill-opacity="0.8" stroke="#000000" stroke-opacity="0.8" stroke-width="3.2"/>
<circle clip-path="url(#clip172)" cx="1756.59" cy="1025.24" r="12" fill="#808080" fill-rule="evenodd" fill-opacity="0.8" stroke="#000000" stroke-opacity="0.8" stroke-width="3.2"/>
<circle clip-path="url(#clip172)" cx="1779.89" cy="1071.32" r="12" fill="#808080" fill-rule="evenodd" fill-opacity="0.8" stroke="#000000" stroke-opacity="0.8" stroke-width="3.2"/>
<circle clip-path="url(#clip172)" cx="1803.54" cy="1105.71" r="12" fill="#808080" fill-rule="evenodd" fill-opacity="0.8" stroke="#000000" stroke-opacity="0.8" stroke-width="3.2"/>
<circle clip-path="url(#clip172)" cx="1827.2" cy="1086.48" r="12" fill="#808080" fill-rule="evenodd" fill-opacity="0.8" stroke="#000000" stroke-opacity="0.8" stroke-width="3.2"/>
<circle clip-path="url(#clip172)" cx="1850.85" cy="1066.75" r="12" fill="#808080" fill-rule="evenodd" fill-opacity="0.8" stroke="#000000" stroke-opacity="0.8" stroke-width="3.2"/>
<circle clip-path="url(#clip172)" cx="1874.5" cy="1084.35" r="12" fill="#808080" fill-rule="evenodd" fill-opacity="0.8" stroke="#000000" stroke-opacity="0.8" stroke-width="3.2"/>
<circle clip-path="url(#clip172)" cx="1898.15" cy="1107.44" r="12" fill="#808080" fill-rule="evenodd" fill-opacity="0.8" stroke="#000000" stroke-opacity="0.8" stroke-width="3.2"/>
<path clip-path="url(#clip172)" d="
M264.423 1364.52 L275.901 1368.29 L287.032 1362.28 L298.162 1346.62 L309.64 1326.58 L320.771 1292.09 L332.249 1266.96 L343.379 1239.69 L354.51 1197.98 L365.988 1138.88 
  L377.118 1117.1 L388.596 1062.68 L399.727 993.294 L411.205 928.184 L422.335 853.409 L433.466 767.85 L449.118 584.932 L460.248 463.461 L471.378 355.419 L482.509 246.767 
  L493.639 173.314 L504.769 150.729 L515.9 203.835 L527.03 253.583 L538.16 285.324 L549.291 332.122 L560.421 386.651 L571.552 413.916 L582.682 439.35 L595.551 468.344 
  L612.595 495.609 L629.638 498.152 L646.681 488.996 L663.377 526.74 L680.42 552.275 L697.464 578.014 L714.507 597.649 L731.203 623.184 L748.246 642.717 L765.289 665.607 
  L781.985 684.733 L799.028 707.217 L816.072 732.345 L833.115 734.481 L849.811 768.664 L866.854 799.693 L883.549 824.822 L900.593 825.534 L917.636 839.777 L934.679 856.664 
  L951.375 869.483 L968.418 873.552 L985.462 856.054 L1002.51 851.679 L1019.2 877.113 L1036.24 900.715 L1053.29 896.239 L1069.64 901.835 L1086.68 918.926 L1103.72 927.879 
  L1120.77 936.831 L1137.46 946.394 L1154.5 947.513 L1171.55 980.272 L1188.59 999.907 L1205.63 1024.12 L1222.33 1030.33 L1239.37 1035 L1256.42 1041.92 L1273.46 1035.82 
  L1290.5 1026.26 L1307.55 1007.74 L1324.24 998.584 L1341.29 975.592 L1358.33 977.932 L1375.37 971.116 L1392.42 1011.81 L1409.11 1073.66 L1432.07 1139.79 L1454.33 1166.45 
  L1477.98 1171.94 L1501.63 1151.39 L1525.28 1071.83 L1548.94 1046.09 L1572.59 1063.19 L1596.24 1091.26 L1619.89 1102.45 L1643.54 1093.6 L1667.2 1045.28 L1690.85 1052.91 
  L1714.15 1070.31 L1737.8 1108.86 L1761.46 1137.25 L1785.11 1153.22 L1808.76 1168.38 L1832.41 1190.46 L1856.06 1208.36 L1879.72 1289.24 L1903.37 1331.26 L1903.37 1254.95 
  L1879.72 1231.05 L1856.06 1191.47 L1832.41 1175.4 L1808.76 1164.11 L1785.11 1122.7 L1761.46 1112.22 L1737.8 1079.36 L1714.15 1023.71 L1690.85 1008.96 L1667.2 1006.42 
  L1643.54 1048.03 L1619.89 1077.43 L1596.24 1062.78 L1572.59 1037.75 L1548.94 1031.85 L1525.28 1053.11 L1501.63 1107.64 L1477.98 1143.86 L1454.33 1120.87 L1432.07 1089.53 
  L1409.11 1016.29 L1392.42 965.215 L1375.37 946.903 L1358.33 949.243 L1341.29 953.414 L1324.24 974.371 L1307.55 986.783 L1290.5 1006.52 L1273.46 1015.68 L1256.42 1024.22 
  L1239.37 1017.91 L1222.33 1009.98 L1205.63 999.703 L1188.59 977.728 L1171.55 949.751 L1154.5 926.556 L1137.46 926.047 L1120.77 916.891 L1103.72 907.328 L1086.68 894.713 
  L1069.64 870.704 L1053.29 865.922 L1036.24 869.585 L1019.2 848.017 L1002.51 824.822 L985.462 830.01 L968.418 841.811 L951.375 836.114 L934.679 819.837 L917.636 808.035 
  L900.593 790.334 L883.549 789.418 L866.854 758.593 L849.811 737.94 L833.115 707.624 L816.072 704.877 L799.028 677.307 L781.985 663.776 L765.289 628.983 L748.246 610.569 
  L731.203 587.373 L714.507 569.57 L697.464 541.593 L680.42 521.958 L663.377 486.656 L646.681 446.064 L629.638 458.069 L612.595 453.694 L595.551 416.053 L582.682 377.292 
  L571.552 337.819 L560.421 315.844 L549.291 253.176 L538.16 199.053 L527.03 173.213 L515.9 134.859 L504.769 97.4205 L493.639 107.187 L482.509 150.933 L471.378 236.797 
  L460.248 332.224 L449.118 434.161 L433.466 643.124 L422.335 758.389 L411.205 859.818 L399.727 946.903 L388.596 1004.69 L377.118 1049.55 L365.988 1075.39 L354.51 1129.01 
  L343.379 1172.35 L332.249 1207.55 L320.771 1229.62 L309.64 1287.71 L298.162 1308.77 L287.032 1318.74 L275.901 1311.93 L264.423 1291.27  Z
  " fill="#4d4d4d" fill-rule="evenodd" fill-opacity="0.3"/>
<polyline clip-path="url(#clip172)" style="stroke:#4d4d4d; stroke-linecap:butt; stroke-linejoin:round; stroke-width:8; stroke-opacity:0.8; fill:none" points="
  264.423,1327.9 275.901,1340.11 287.032,1340.51 298.162,1327.69 309.64,1307.14 320.771,1260.86 332.249,1237.25 343.379,1206.02 354.51,1163.5 365.988,1107.13 
  377.118,1083.33 388.596,1033.68 399.727,970.098 411.205,894.001 422.335,805.899 433.466,705.487 449.118,509.547 460.248,397.842 471.378,296.108 482.509,198.85 
  493.639,140.251 504.769,124.075 515.9,169.347 527.03,213.398 538.16,242.189 549.291,292.649 560.421,351.248 571.552,375.868 582.682,408.321 595.551,442.198 
  612.595,474.652 629.638,478.111 646.681,467.53 663.377,506.698 680.42,537.117 697.464,559.803 714.507,583.609 731.203,605.279 748.246,626.643 765.289,647.295 
  781.985,674.255 799.028,692.262 816.072,718.611 833.115,721.053 849.811,753.302 866.854,779.143 883.549,807.12 900.593,807.934 917.636,823.906 934.679,838.251 
  951.375,852.799 968.418,857.682 985.462,843.032 1002.51,838.251 1019.2,862.565 1036.24,885.15 1053.29,881.081 1069.64,886.269 1086.68,906.82 1103.72,917.603 
  1120.77,926.861 1137.46,936.221 1154.5,937.035 1171.55,965.012 1188.59,988.817 1205.63,1011.91 1222.33,1020.15 1239.37,1026.46 1256.42,1033.07 1273.46,1025.75 
  1290.5,1016.39 1307.55,997.261 1324.24,986.478 1341.29,964.503 1358.33,963.587 1375.37,959.009 1392.42,988.512 1409.11,1044.97 1432.07,1114.66 1454.33,1143.66 
  1477.98,1157.9 1501.63,1129.52 1525.28,1062.47 1548.94,1038.97 1572.59,1050.47 1596.24,1077.02 1619.89,1089.94 1643.54,1070.82 1667.2,1025.85 1690.85,1030.94 
  1714.15,1047.01 1737.8,1094.11 1761.46,1124.73 1785.11,1137.96 1808.76,1166.24 1832.41,1182.93 1856.06,1199.92 1879.72,1260.14 1903.37,1293.11 
  "/>
<circle clip-path="url(#clip172)" cx="264.423" cy="1327.9" r="12" fill="#4d4d4d" fill-rule="evenodd" fill-opacity="0.8" stroke="#000000" stroke-opacity="0.8" stroke-width="3.2"/>
<circle clip-path="url(#clip172)" cx="275.901" cy="1340.11" r="12" fill="#4d4d4d" fill-rule="evenodd" fill-opacity="0.8" stroke="#000000" stroke-opacity="0.8" stroke-width="3.2"/>
<circle clip-path="url(#clip172)" cx="287.032" cy="1340.51" r="12" fill="#4d4d4d" fill-rule="evenodd" fill-opacity="0.8" stroke="#000000" stroke-opacity="0.8" stroke-width="3.2"/>
<circle clip-path="url(#clip172)" cx="298.162" cy="1327.69" r="12" fill="#4d4d4d" fill-rule="evenodd" fill-opacity="0.8" stroke="#000000" stroke-opacity="0.8" stroke-width="3.2"/>
<circle clip-path="url(#clip172)" cx="309.64" cy="1307.14" r="12" fill="#4d4d4d" fill-rule="evenodd" fill-opacity="0.8" stroke="#000000" stroke-opacity="0.8" stroke-width="3.2"/>
<circle clip-path="url(#clip172)" cx="320.771" cy="1260.86" r="12" fill="#4d4d4d" fill-rule="evenodd" fill-opacity="0.8" stroke="#000000" stroke-opacity="0.8" stroke-width="3.2"/>
<circle clip-path="url(#clip172)" cx="332.249" cy="1237.25" r="12" fill="#4d4d4d" fill-rule="evenodd" fill-opacity="0.8" stroke="#000000" stroke-opacity="0.8" stroke-width="3.2"/>
<circle clip-path="url(#clip172)" cx="343.379" cy="1206.02" r="12" fill="#4d4d4d" fill-rule="evenodd" fill-opacity="0.8" stroke="#000000" stroke-opacity="0.8" stroke-width="3.2"/>
<circle clip-path="url(#clip172)" cx="354.51" cy="1163.5" r="12" fill="#4d4d4d" fill-rule="evenodd" fill-opacity="0.8" stroke="#000000" stroke-opacity="0.8" stroke-width="3.2"/>
<circle clip-path="url(#clip172)" cx="365.988" cy="1107.13" r="12" fill="#4d4d4d" fill-rule="evenodd" fill-opacity="0.8" stroke="#000000" stroke-opacity="0.8" stroke-width="3.2"/>
<circle clip-path="url(#clip172)" cx="377.118" cy="1083.33" r="12" fill="#4d4d4d" fill-rule="evenodd" fill-opacity="0.8" stroke="#000000" stroke-opacity="0.8" stroke-width="3.2"/>
<circle clip-path="url(#clip172)" cx="388.596" cy="1033.68" r="12" fill="#4d4d4d" fill-rule="evenodd" fill-opacity="0.8" stroke="#000000" stroke-opacity="0.8" stroke-width="3.2"/>
<circle clip-path="url(#clip172)" cx="399.727" cy="970.098" r="12" fill="#4d4d4d" fill-rule="evenodd" fill-opacity="0.8" stroke="#000000" stroke-opacity="0.8" stroke-width="3.2"/>
<circle clip-path="url(#clip172)" cx="411.205" cy="894.001" r="12" fill="#4d4d4d" fill-rule="evenodd" fill-opacity="0.8" stroke="#000000" stroke-opacity="0.8" stroke-width="3.2"/>
<circle clip-path="url(#clip172)" cx="422.335" cy="805.899" r="12" fill="#4d4d4d" fill-rule="evenodd" fill-opacity="0.8" stroke="#000000" stroke-opacity="0.8" stroke-width="3.2"/>
<circle clip-path="url(#clip172)" cx="433.466" cy="705.487" r="12" fill="#4d4d4d" fill-rule="evenodd" fill-opacity="0.8" stroke="#000000" stroke-opacity="0.8" stroke-width="3.2"/>
<circle clip-path="url(#clip172)" cx="449.118" cy="509.547" r="12" fill="#4d4d4d" fill-rule="evenodd" fill-opacity="0.8" stroke="#000000" stroke-opacity="0.8" stroke-width="3.2"/>
<circle clip-path="url(#clip172)" cx="460.248" cy="397.842" r="12" fill="#4d4d4d" fill-rule="evenodd" fill-opacity="0.8" stroke="#000000" stroke-opacity="0.8" stroke-width="3.2"/>
<circle clip-path="url(#clip172)" cx="471.378" cy="296.108" r="12" fill="#4d4d4d" fill-rule="evenodd" fill-opacity="0.8" stroke="#000000" stroke-opacity="0.8" stroke-width="3.2"/>
<circle clip-path="url(#clip172)" cx="482.509" cy="198.85" r="12" fill="#4d4d4d" fill-rule="evenodd" fill-opacity="0.8" stroke="#000000" stroke-opacity="0.8" stroke-width="3.2"/>
<circle clip-path="url(#clip172)" cx="493.639" cy="140.251" r="12" fill="#4d4d4d" fill-rule="evenodd" fill-opacity="0.8" stroke="#000000" stroke-opacity="0.8" stroke-width="3.2"/>
<circle clip-path="url(#clip172)" cx="504.769" cy="124.075" r="12" fill="#4d4d4d" fill-rule="evenodd" fill-opacity="0.8" stroke="#000000" stroke-opacity="0.8" stroke-width="3.2"/>
<circle clip-path="url(#clip172)" cx="515.9" cy="169.347" r="12" fill="#4d4d4d" fill-rule="evenodd" fill-opacity="0.8" stroke="#000000" stroke-opacity="0.8" stroke-width="3.2"/>
<circle clip-path="url(#clip172)" cx="527.03" cy="213.398" r="12" fill="#4d4d4d" fill-rule="evenodd" fill-opacity="0.8" stroke="#000000" stroke-opacity="0.8" stroke-width="3.2"/>
<circle clip-path="url(#clip172)" cx="538.16" cy="242.189" r="12" fill="#4d4d4d" fill-rule="evenodd" fill-opacity="0.8" stroke="#000000" stroke-opacity="0.8" stroke-width="3.2"/>
<circle clip-path="url(#clip172)" cx="549.291" cy="292.649" r="12" fill="#4d4d4d" fill-rule="evenodd" fill-opacity="0.8" stroke="#000000" stroke-opacity="0.8" stroke-width="3.2"/>
<circle clip-path="url(#clip172)" cx="560.421" cy="351.248" r="12" fill="#4d4d4d" fill-rule="evenodd" fill-opacity="0.8" stroke="#000000" stroke-opacity="0.8" stroke-width="3.2"/>
<circle clip-path="url(#clip172)" cx="571.552" cy="375.868" r="12" fill="#4d4d4d" fill-rule="evenodd" fill-opacity="0.8" stroke="#000000" stroke-opacity="0.8" stroke-width="3.2"/>
<circle clip-path="url(#clip172)" cx="582.682" cy="408.321" r="12" fill="#4d4d4d" fill-rule="evenodd" fill-opacity="0.8" stroke="#000000" stroke-opacity="0.8" stroke-width="3.2"/>
<circle clip-path="url(#clip172)" cx="595.551" cy="442.198" r="12" fill="#4d4d4d" fill-rule="evenodd" fill-opacity="0.8" stroke="#000000" stroke-opacity="0.8" stroke-width="3.2"/>
<circle clip-path="url(#clip172)" cx="612.595" cy="474.652" r="12" fill="#4d4d4d" fill-rule="evenodd" fill-opacity="0.8" stroke="#000000" stroke-opacity="0.8" stroke-width="3.2"/>
<circle clip-path="url(#clip172)" cx="629.638" cy="478.111" r="12" fill="#4d4d4d" fill-rule="evenodd" fill-opacity="0.8" stroke="#000000" stroke-opacity="0.8" stroke-width="3.2"/>
<circle clip-path="url(#clip172)" cx="646.681" cy="467.53" r="12" fill="#4d4d4d" fill-rule="evenodd" fill-opacity="0.8" stroke="#000000" stroke-opacity="0.8" stroke-width="3.2"/>
<circle clip-path="url(#clip172)" cx="663.377" cy="506.698" r="12" fill="#4d4d4d" fill-rule="evenodd" fill-opacity="0.8" stroke="#000000" stroke-opacity="0.8" stroke-width="3.2"/>
<circle clip-path="url(#clip172)" cx="680.42" cy="537.117" r="12" fill="#4d4d4d" fill-rule="evenodd" fill-opacity="0.8" stroke="#000000" stroke-opacity="0.8" stroke-width="3.2"/>
<circle clip-path="url(#clip172)" cx="697.464" cy="559.803" r="12" fill="#4d4d4d" fill-rule="evenodd" fill-opacity="0.8" stroke="#000000" stroke-opacity="0.8" stroke-width="3.2"/>
<circle clip-path="url(#clip172)" cx="714.507" cy="583.609" r="12" fill="#4d4d4d" fill-rule="evenodd" fill-opacity="0.8" stroke="#000000" stroke-opacity="0.8" stroke-width="3.2"/>
<circle clip-path="url(#clip172)" cx="731.203" cy="605.279" r="12" fill="#4d4d4d" fill-rule="evenodd" fill-opacity="0.8" stroke="#000000" stroke-opacity="0.8" stroke-width="3.2"/>
<circle clip-path="url(#clip172)" cx="748.246" cy="626.643" r="12" fill="#4d4d4d" fill-rule="evenodd" fill-opacity="0.8" stroke="#000000" stroke-opacity="0.8" stroke-width="3.2"/>
<circle clip-path="url(#clip172)" cx="765.289" cy="647.295" r="12" fill="#4d4d4d" fill-rule="evenodd" fill-opacity="0.8" stroke="#000000" stroke-opacity="0.8" stroke-width="3.2"/>
<circle clip-path="url(#clip172)" cx="781.985" cy="674.255" r="12" fill="#4d4d4d" fill-rule="evenodd" fill-opacity="0.8" stroke="#000000" stroke-opacity="0.8" stroke-width="3.2"/>
<circle clip-path="url(#clip172)" cx="799.028" cy="692.262" r="12" fill="#4d4d4d" fill-rule="evenodd" fill-opacity="0.8" stroke="#000000" stroke-opacity="0.8" stroke-width="3.2"/>
<circle clip-path="url(#clip172)" cx="816.072" cy="718.611" r="12" fill="#4d4d4d" fill-rule="evenodd" fill-opacity="0.8" stroke="#000000" stroke-opacity="0.8" stroke-width="3.2"/>
<circle clip-path="url(#clip172)" cx="833.115" cy="721.053" r="12" fill="#4d4d4d" fill-rule="evenodd" fill-opacity="0.8" stroke="#000000" stroke-opacity="0.8" stroke-width="3.2"/>
<circle clip-path="url(#clip172)" cx="849.811" cy="753.302" r="12" fill="#4d4d4d" fill-rule="evenodd" fill-opacity="0.8" stroke="#000000" stroke-opacity="0.8" stroke-width="3.2"/>
<circle clip-path="url(#clip172)" cx="866.854" cy="779.143" r="12" fill="#4d4d4d" fill-rule="evenodd" fill-opacity="0.8" stroke="#000000" stroke-opacity="0.8" stroke-width="3.2"/>
<circle clip-path="url(#clip172)" cx="883.549" cy="807.12" r="12" fill="#4d4d4d" fill-rule="evenodd" fill-opacity="0.8" stroke="#000000" stroke-opacity="0.8" stroke-width="3.2"/>
<circle clip-path="url(#clip172)" cx="900.593" cy="807.934" r="12" fill="#4d4d4d" fill-rule="evenodd" fill-opacity="0.8" stroke="#000000" stroke-opacity="0.8" stroke-width="3.2"/>
<circle clip-path="url(#clip172)" cx="917.636" cy="823.906" r="12" fill="#4d4d4d" fill-rule="evenodd" fill-opacity="0.8" stroke="#000000" stroke-opacity="0.8" stroke-width="3.2"/>
<circle clip-path="url(#clip172)" cx="934.679" cy="838.251" r="12" fill="#4d4d4d" fill-rule="evenodd" fill-opacity="0.8" stroke="#000000" stroke-opacity="0.8" stroke-width="3.2"/>
<circle clip-path="url(#clip172)" cx="951.375" cy="852.799" r="12" fill="#4d4d4d" fill-rule="evenodd" fill-opacity="0.8" stroke="#000000" stroke-opacity="0.8" stroke-width="3.2"/>
<circle clip-path="url(#clip172)" cx="968.418" cy="857.682" r="12" fill="#4d4d4d" fill-rule="evenodd" fill-opacity="0.8" stroke="#000000" stroke-opacity="0.8" stroke-width="3.2"/>
<circle clip-path="url(#clip172)" cx="985.462" cy="843.032" r="12" fill="#4d4d4d" fill-rule="evenodd" fill-opacity="0.8" stroke="#000000" stroke-opacity="0.8" stroke-width="3.2"/>
<circle clip-path="url(#clip172)" cx="1002.51" cy="838.251" r="12" fill="#4d4d4d" fill-rule="evenodd" fill-opacity="0.8" stroke="#000000" stroke-opacity="0.8" stroke-width="3.2"/>
<circle clip-path="url(#clip172)" cx="1019.2" cy="862.565" r="12" fill="#4d4d4d" fill-rule="evenodd" fill-opacity="0.8" stroke="#000000" stroke-opacity="0.8" stroke-width="3.2"/>
<circle clip-path="url(#clip172)" cx="1036.24" cy="885.15" r="12" fill="#4d4d4d" fill-rule="evenodd" fill-opacity="0.8" stroke="#000000" stroke-opacity="0.8" stroke-width="3.2"/>
<circle clip-path="url(#clip172)" cx="1053.29" cy="881.081" r="12" fill="#4d4d4d" fill-rule="evenodd" fill-opacity="0.8" stroke="#000000" stroke-opacity="0.8" stroke-width="3.2"/>
<circle clip-path="url(#clip172)" cx="1069.64" cy="886.269" r="12" fill="#4d4d4d" fill-rule="evenodd" fill-opacity="0.8" stroke="#000000" stroke-opacity="0.8" stroke-width="3.2"/>
<circle clip-path="url(#clip172)" cx="1086.68" cy="906.82" r="12" fill="#4d4d4d" fill-rule="evenodd" fill-opacity="0.8" stroke="#000000" stroke-opacity="0.8" stroke-width="3.2"/>
<circle clip-path="url(#clip172)" cx="1103.72" cy="917.603" r="12" fill="#4d4d4d" fill-rule="evenodd" fill-opacity="0.8" stroke="#000000" stroke-opacity="0.8" stroke-width="3.2"/>
<circle clip-path="url(#clip172)" cx="1120.77" cy="926.861" r="12" fill="#4d4d4d" fill-rule="evenodd" fill-opacity="0.8" stroke="#000000" stroke-opacity="0.8" stroke-width="3.2"/>
<circle clip-path="url(#clip172)" cx="1137.46" cy="936.221" r="12" fill="#4d4d4d" fill-rule="evenodd" fill-opacity="0.8" stroke="#000000" stroke-opacity="0.8" stroke-width="3.2"/>
<circle clip-path="url(#clip172)" cx="1154.5" cy="937.035" r="12" fill="#4d4d4d" fill-rule="evenodd" fill-opacity="0.8" stroke="#000000" stroke-opacity="0.8" stroke-width="3.2"/>
<circle clip-path="url(#clip172)" cx="1171.55" cy="965.012" r="12" fill="#4d4d4d" fill-rule="evenodd" fill-opacity="0.8" stroke="#000000" stroke-opacity="0.8" stroke-width="3.2"/>
<circle clip-path="url(#clip172)" cx="1188.59" cy="988.817" r="12" fill="#4d4d4d" fill-rule="evenodd" fill-opacity="0.8" stroke="#000000" stroke-opacity="0.8" stroke-width="3.2"/>
<circle clip-path="url(#clip172)" cx="1205.63" cy="1011.91" r="12" fill="#4d4d4d" fill-rule="evenodd" fill-opacity="0.8" stroke="#000000" stroke-opacity="0.8" stroke-width="3.2"/>
<circle clip-path="url(#clip172)" cx="1222.33" cy="1020.15" r="12" fill="#4d4d4d" fill-rule="evenodd" fill-opacity="0.8" stroke="#000000" stroke-opacity="0.8" stroke-width="3.2"/>
<circle clip-path="url(#clip172)" cx="1239.37" cy="1026.46" r="12" fill="#4d4d4d" fill-rule="evenodd" fill-opacity="0.8" stroke="#000000" stroke-opacity="0.8" stroke-width="3.2"/>
<circle clip-path="url(#clip172)" cx="1256.42" cy="1033.07" r="12" fill="#4d4d4d" fill-rule="evenodd" fill-opacity="0.8" stroke="#000000" stroke-opacity="0.8" stroke-width="3.2"/>
<circle clip-path="url(#clip172)" cx="1273.46" cy="1025.75" r="12" fill="#4d4d4d" fill-rule="evenodd" fill-opacity="0.8" stroke="#000000" stroke-opacity="0.8" stroke-width="3.2"/>
<circle clip-path="url(#clip172)" cx="1290.5" cy="1016.39" r="12" fill="#4d4d4d" fill-rule="evenodd" fill-opacity="0.8" stroke="#000000" stroke-opacity="0.8" stroke-width="3.2"/>
<circle clip-path="url(#clip172)" cx="1307.55" cy="997.261" r="12" fill="#4d4d4d" fill-rule="evenodd" fill-opacity="0.8" stroke="#000000" stroke-opacity="0.8" stroke-width="3.2"/>
<circle clip-path="url(#clip172)" cx="1324.24" cy="986.478" r="12" fill="#4d4d4d" fill-rule="evenodd" fill-opacity="0.8" stroke="#000000" stroke-opacity="0.8" stroke-width="3.2"/>
<circle clip-path="url(#clip172)" cx="1341.29" cy="964.503" r="12" fill="#4d4d4d" fill-rule="evenodd" fill-opacity="0.8" stroke="#000000" stroke-opacity="0.8" stroke-width="3.2"/>
<circle clip-path="url(#clip172)" cx="1358.33" cy="963.587" r="12" fill="#4d4d4d" fill-rule="evenodd" fill-opacity="0.8" stroke="#000000" stroke-opacity="0.8" stroke-width="3.2"/>
<circle clip-path="url(#clip172)" cx="1375.37" cy="959.009" r="12" fill="#4d4d4d" fill-rule="evenodd" fill-opacity="0.8" stroke="#000000" stroke-opacity="0.8" stroke-width="3.2"/>
<circle clip-path="url(#clip172)" cx="1392.42" cy="988.512" r="12" fill="#4d4d4d" fill-rule="evenodd" fill-opacity="0.8" stroke="#000000" stroke-opacity="0.8" stroke-width="3.2"/>
<circle clip-path="url(#clip172)" cx="1409.11" cy="1044.97" r="12" fill="#4d4d4d" fill-rule="evenodd" fill-opacity="0.8" stroke="#000000" stroke-opacity="0.8" stroke-width="3.2"/>
<circle clip-path="url(#clip172)" cx="1432.07" cy="1114.66" r="12" fill="#4d4d4d" fill-rule="evenodd" fill-opacity="0.8" stroke="#000000" stroke-opacity="0.8" stroke-width="3.2"/>
<circle clip-path="url(#clip172)" cx="1454.33" cy="1143.66" r="12" fill="#4d4d4d" fill-rule="evenodd" fill-opacity="0.8" stroke="#000000" stroke-opacity="0.8" stroke-width="3.2"/>
<circle clip-path="url(#clip172)" cx="1477.98" cy="1157.9" r="12" fill="#4d4d4d" fill-rule="evenodd" fill-opacity="0.8" stroke="#000000" stroke-opacity="0.8" stroke-width="3.2"/>
<circle clip-path="url(#clip172)" cx="1501.63" cy="1129.52" r="12" fill="#4d4d4d" fill-rule="evenodd" fill-opacity="0.8" stroke="#000000" stroke-opacity="0.8" stroke-width="3.2"/>
<circle clip-path="url(#clip172)" cx="1525.28" cy="1062.47" r="12" fill="#4d4d4d" fill-rule="evenodd" fill-opacity="0.8" stroke="#000000" stroke-opacity="0.8" stroke-width="3.2"/>
<circle clip-path="url(#clip172)" cx="1548.94" cy="1038.97" r="12" fill="#4d4d4d" fill-rule="evenodd" fill-opacity="0.8" stroke="#000000" stroke-opacity="0.8" stroke-width="3.2"/>
<circle clip-path="url(#clip172)" cx="1572.59" cy="1050.47" r="12" fill="#4d4d4d" fill-rule="evenodd" fill-opacity="0.8" stroke="#000000" stroke-opacity="0.8" stroke-width="3.2"/>
<circle clip-path="url(#clip172)" cx="1596.24" cy="1077.02" r="12" fill="#4d4d4d" fill-rule="evenodd" fill-opacity="0.8" stroke="#000000" stroke-opacity="0.8" stroke-width="3.2"/>
<circle clip-path="url(#clip172)" cx="1619.89" cy="1089.94" r="12" fill="#4d4d4d" fill-rule="evenodd" fill-opacity="0.8" stroke="#000000" stroke-opacity="0.8" stroke-width="3.2"/>
<circle clip-path="url(#clip172)" cx="1643.54" cy="1070.82" r="12" fill="#4d4d4d" fill-rule="evenodd" fill-opacity="0.8" stroke="#000000" stroke-opacity="0.8" stroke-width="3.2"/>
<circle clip-path="url(#clip172)" cx="1667.2" cy="1025.85" r="12" fill="#4d4d4d" fill-rule="evenodd" fill-opacity="0.8" stroke="#000000" stroke-opacity="0.8" stroke-width="3.2"/>
<circle clip-path="url(#clip172)" cx="1690.85" cy="1030.94" r="12" fill="#4d4d4d" fill-rule="evenodd" fill-opacity="0.8" stroke="#000000" stroke-opacity="0.8" stroke-width="3.2"/>
<circle clip-path="url(#clip172)" cx="1714.15" cy="1047.01" r="12" fill="#4d4d4d" fill-rule="evenodd" fill-opacity="0.8" stroke="#000000" stroke-opacity="0.8" stroke-width="3.2"/>
<circle clip-path="url(#clip172)" cx="1737.8" cy="1094.11" r="12" fill="#4d4d4d" fill-rule="evenodd" fill-opacity="0.8" stroke="#000000" stroke-opacity="0.8" stroke-width="3.2"/>
<circle clip-path="url(#clip172)" cx="1761.46" cy="1124.73" r="12" fill="#4d4d4d" fill-rule="evenodd" fill-opacity="0.8" stroke="#000000" stroke-opacity="0.8" stroke-width="3.2"/>
<circle clip-path="url(#clip172)" cx="1785.11" cy="1137.96" r="12" fill="#4d4d4d" fill-rule="evenodd" fill-opacity="0.8" stroke="#000000" stroke-opacity="0.8" stroke-width="3.2"/>
<circle clip-path="url(#clip172)" cx="1808.76" cy="1166.24" r="12" fill="#4d4d4d" fill-rule="evenodd" fill-opacity="0.8" stroke="#000000" stroke-opacity="0.8" stroke-width="3.2"/>
<circle clip-path="url(#clip172)" cx="1832.41" cy="1182.93" r="12" fill="#4d4d4d" fill-rule="evenodd" fill-opacity="0.8" stroke="#000000" stroke-opacity="0.8" stroke-width="3.2"/>
<circle clip-path="url(#clip172)" cx="1856.06" cy="1199.92" r="12" fill="#4d4d4d" fill-rule="evenodd" fill-opacity="0.8" stroke="#000000" stroke-opacity="0.8" stroke-width="3.2"/>
<circle clip-path="url(#clip172)" cx="1879.72" cy="1260.14" r="12" fill="#4d4d4d" fill-rule="evenodd" fill-opacity="0.8" stroke="#000000" stroke-opacity="0.8" stroke-width="3.2"/>
<circle clip-path="url(#clip172)" cx="1903.37" cy="1293.11" r="12" fill="#4d4d4d" fill-rule="evenodd" fill-opacity="0.8" stroke="#000000" stroke-opacity="0.8" stroke-width="3.2"/>
<polyline clip-path="url(#clip172)" style="stroke:#000000; stroke-linecap:butt; stroke-linejoin:round; stroke-width:4; stroke-opacity:1; fill:none" stroke-dasharray="16, 10" points="
  503.378,2766.28 503.378,-1312.28 
  "/>
<path clip-path="url(#clip170)" d="
M1669.03 299.921 L1894.59 299.921 L1894.59 92.5614 L1669.03 92.5614  Z
  " fill="#ffffff" fill-rule="evenodd" fill-opacity="1"/>
<polyline clip-path="url(#clip170)" style="stroke:#000000; stroke-linecap:butt; stroke-linejoin:round; stroke-width:4; stroke-opacity:1; fill:none" points="
  1669.03,299.921 1894.59,299.921 1894.59,92.5614 1669.03,92.5614 1669.03,299.921 
  "/>
<polyline clip-path="url(#clip170)" style="stroke:#b3b3b3; stroke-linecap:butt; stroke-linejoin:round; stroke-width:4; stroke-opacity:0.8; fill:none" points="
  1688.42,144.401 1804.75,144.401 
  "/>
<circle clip-path="url(#clip170)" cx="1746.59" cy="144.401" r="23" fill="#b3b3b3" fill-rule="evenodd" fill-opacity="0.8" stroke="#000000" stroke-opacity="0.8" stroke-width="5.85143"/>
<path clip-path="url(#clip170)" d="M1839.98 131.728 L1833.63 148.927 L1846.34 148.927 L1839.98 131.728 M1837.34 127.121 L1842.64 127.121 L1855.81 161.681 L1850.95 161.681 L1847.8 152.816 L1832.22 152.816 L1829.07 161.681 L1824.14 161.681 L1837.34 127.121 Z" fill="#000000" fill-rule="evenodd" fill-opacity="1" /><polyline clip-path="url(#clip170)" style="stroke:#808080; stroke-linecap:butt; stroke-linejoin:round; stroke-width:4; stroke-opacity:0.8; fill:none" points="
  1688.42,196.241 1804.75,196.241 
  "/>
<circle clip-path="url(#clip170)" cx="1746.59" cy="196.241" r="23" fill="#808080" fill-rule="evenodd" fill-opacity="0.8" stroke="#000000" stroke-opacity="0.8" stroke-width="5.85143"/>
<path clip-path="url(#clip170)" d="M1828.82 197.017 L1828.82 209.679 L1836.32 209.679 Q1840.09 209.679 1841.9 208.128 Q1843.73 206.554 1843.73 203.336 Q1843.73 200.096 1841.9 198.568 Q1840.09 197.017 1836.32 197.017 L1828.82 197.017 M1828.82 182.804 L1828.82 193.221 L1835.74 193.221 Q1839.17 193.221 1840.83 191.947 Q1842.52 190.651 1842.52 188.012 Q1842.52 185.397 1840.83 184.1 Q1839.17 182.804 1835.74 182.804 L1828.82 182.804 M1824.14 178.961 L1836.09 178.961 Q1841.44 178.961 1844.33 181.184 Q1847.22 183.406 1847.22 187.503 Q1847.22 190.674 1845.74 192.549 Q1844.26 194.424 1841.39 194.887 Q1844.84 195.628 1846.74 197.989 Q1848.66 200.327 1848.66 203.846 Q1848.66 208.475 1845.51 210.998 Q1842.36 213.521 1836.55 213.521 L1824.14 213.521 L1824.14 178.961 Z" fill="#000000" fill-rule="evenodd" fill-opacity="1" /><polyline clip-path="url(#clip170)" style="stroke:#4d4d4d; stroke-linecap:butt; stroke-linejoin:round; stroke-width:4; stroke-opacity:0.8; fill:none" points="
  1688.42,248.081 1804.75,248.081 
  "/>
<circle clip-path="url(#clip170)" cx="1746.59" cy="248.081" r="23" fill="#4d4d4d" fill-rule="evenodd" fill-opacity="0.8" stroke="#000000" stroke-opacity="0.8" stroke-width="5.85143"/>
<path clip-path="url(#clip170)" d="M1852.01 233.463 L1852.01 238.394 Q1849.65 236.195 1846.97 235.107 Q1844.31 234.019 1841.3 234.019 Q1835.37 234.019 1832.22 237.653 Q1829.07 241.264 1829.07 248.116 Q1829.07 254.945 1832.22 258.579 Q1835.37 262.19 1841.3 262.19 Q1844.31 262.19 1846.97 261.102 Q1849.65 260.014 1852.01 257.815 L1852.01 262.699 Q1849.56 264.366 1846.81 265.199 Q1844.07 266.033 1841.02 266.033 Q1833.17 266.033 1828.66 261.241 Q1824.14 256.426 1824.14 248.116 Q1824.14 239.783 1828.66 234.991 Q1833.17 230.176 1841.02 230.176 Q1844.12 230.176 1846.85 231.01 Q1849.61 231.82 1852.01 233.463 Z" fill="#000000" fill-rule="evenodd" fill-opacity="1" /><g clip-path="url(#clip170)">
<text style="fill:#000000; fill-opacity:1; font-family:Courier,Courier New,Lucida Sans Typewriter,Lucida Typewriter,monospace; font-size:60px; text-anchor:middle;" transform="rotate(0, 468.596, 1238.78)" x="468.596" y="1238.78">I</text>
</g>
<g clip-path="url(#clip170)">
<text style="fill:#000000; fill-opacity:1; font-family:Courier,Courier New,Lucida Sans Typewriter,Lucida Typewriter,monospace; font-size:60px; text-anchor:middle;" transform="rotate(0, 555.552, 1238.78)" x="555.552" y="1238.78">II</text>
</g>
</svg>
