<?xml version="1.0" encoding="UTF-8" standalone="no"?>
<svg
   width="500"
   height="250"
   viewBox="0 0 2000 1000"
   version="1.1"
   id="svg300"
   sodipodi:docname="fig2_volumes.svg"
   inkscape:version="1.2 (dc2aedaf03, 2022-05-15)"
   inkscape:export-filename="fig2_volumes.pdf"
   inkscape:export-xdpi="500"
   inkscape:export-ydpi="500"
   xmlns:inkscape="http://www.inkscape.org/namespaces/inkscape"
   xmlns:sodipodi="http://sodipodi.sourceforge.net/DTD/sodipodi-0.dtd"
   xmlns="http://www.w3.org/2000/svg"
   xmlns:svg="http://www.w3.org/2000/svg">
  <sodipodi:namedview
     id="namedview302"
     pagecolor="#ffffff"
     bordercolor="#666666"
     borderopacity="1.0"
     inkscape:showpageshadow="2"
     inkscape:pageopacity="0.0"
     inkscape:pagecheckerboard="0"
     inkscape:deskcolor="#d1d1d1"
     showgrid="false"
     inkscape:zoom="2.646"
     inkscape:cx="244.1421"
     inkscape:cy="125.28345"
     inkscape:window-width="1920"
     inkscape:window-height="1008"
     inkscape:window-x="1920"
     inkscape:window-y="40"
     inkscape:window-maximized="1"
     inkscape:current-layer="svg300" />
  <defs
     id="defs5">
    <clipPath
       id="clip490">
      <rect
         x="0"
         y="0"
         width="2000"
         height="1000"
         id="rect2" />
    </clipPath>
  </defs>
  <path
     clip-path="url(#clip490)"
     d=" M0 1000 L2000 1000 L2000 0 L0 0  Z   "
     fill="#ffffff"
     fill-rule="evenodd"
     fill-opacity="1"
     id="path7" />
  <defs
     id="defs12">
    <clipPath
       id="clip491">
      <rect
         x="400"
         y="0"
         width="1401"
         height="1000"
         id="rect9" />
    </clipPath>
  </defs>
  <path
     clip-path="url(#clip490)"
     d=" M355.243 818.204 L1349.34 818.204 L1349.34 47.2441 L355.243 47.2441  Z   "
     fill="#ffffff"
     fill-rule="evenodd"
     fill-opacity="1"
     id="path14" />
  <defs
     id="defs19">
    <clipPath
       id="clip492">
      <rect
         x="355"
         y="47"
         width="995"
         height="772"
         id="rect16" />
    </clipPath>
  </defs>
  <polyline
     clip-path="url(#clip490)"
     style="stroke:#000000; stroke-linecap:butt; stroke-linejoin:round; stroke-width:4; stroke-opacity:1; fill:none"
     points="   355.243,818.204 1349.34,818.204    "
     id="polyline21" />
  <polyline
     clip-path="url(#clip490)"
     style="stroke:#000000; stroke-linecap:butt; stroke-linejoin:round; stroke-width:4; stroke-opacity:1; fill:none"
     points="   383.378,818.204 383.378,799.306    "
     id="polyline23" />
  <polyline
     clip-path="url(#clip490)"
     style="stroke:#000000; stroke-linecap:butt; stroke-linejoin:round; stroke-width:4; stroke-opacity:1; fill:none"
     points="   852.292,818.204 852.292,799.306    "
     id="polyline25" />
  <polyline
     clip-path="url(#clip490)"
     style="stroke:#000000; stroke-linecap:butt; stroke-linejoin:round; stroke-width:4; stroke-opacity:1; fill:none"
     points="   1321.21,818.204 1321.21,799.306    "
     id="polyline27" />
  <path
     clip-path="url(#clip490)"
     d="M373.76 873.469 L381.399 873.469 L381.399 847.103 L373.089 848.77 L373.089 844.51 L381.352 842.844 L386.028 842.844 L386.028 873.469 L393.667 873.469 L393.667 877.404 L373.76 877.404 L373.76 873.469 Z"
     fill="#000000"
     fill-rule="evenodd"
     fill-opacity="1"
     id="path29" />
  <path
     clip-path="url(#clip490)"
     d="M846.945 873.469 L863.264 873.469 L863.264 877.404 L841.32 877.404 L841.32 873.469 Q843.982 870.714 848.565 866.084 Q853.172 861.432 854.352 860.089 Q856.598 857.566 857.477 855.83 Q858.38 854.071 858.38 852.381 Q858.38 849.626 856.436 847.89 Q854.514 846.154 851.413 846.154 Q849.214 846.154 846.76 846.918 Q844.329 847.682 841.552 849.233 L841.552 844.51 Q844.376 843.376 846.829 842.797 Q849.283 842.219 851.32 842.219 Q856.69 842.219 859.885 844.904 Q863.079 847.589 863.079 852.08 Q863.079 854.209 862.269 856.131 Q861.482 858.029 859.375 860.621 Q858.797 861.293 855.695 864.51 Q852.593 867.705 846.945 873.469 Z"
     fill="#000000"
     fill-rule="evenodd"
     fill-opacity="1"
     id="path31" />
  <path
     clip-path="url(#clip490)"
     d="M1325.45 858.77 Q1328.81 859.487 1330.69 861.756 Q1332.58 864.024 1332.58 867.358 Q1332.58 872.473 1329.07 875.274 Q1325.55 878.075 1319.07 878.075 Q1316.89 878.075 1314.57 877.635 Q1312.28 877.219 1309.83 876.362 L1309.83 871.848 Q1311.77 872.983 1314.09 873.561 Q1316.4 874.14 1318.93 874.14 Q1323.32 874.14 1325.62 872.404 Q1327.93 870.668 1327.93 867.358 Q1327.93 864.302 1325.78 862.589 Q1323.65 860.853 1319.83 860.853 L1315.8 860.853 L1315.8 857.01 L1320.01 857.01 Q1323.46 857.01 1325.29 855.645 Q1327.12 854.256 1327.12 851.663 Q1327.12 849.001 1325.22 847.589 Q1323.35 846.154 1319.83 846.154 Q1317.91 846.154 1315.71 846.571 Q1313.51 846.987 1310.87 847.867 L1310.87 843.7 Q1313.53 842.96 1315.85 842.589 Q1318.19 842.219 1320.25 842.219 Q1325.57 842.219 1328.67 844.649 Q1331.77 847.057 1331.77 851.177 Q1331.77 854.047 1330.13 856.038 Q1328.49 858.006 1325.45 858.77 Z"
     fill="#000000"
     fill-rule="evenodd"
     fill-opacity="1"
     id="path33" />
  <path
     clip-path="url(#clip490)"
     d="M720.013 909.548 L726.442 909.548 L726.442 957.068 L720.013 957.068 L720.013 909.548 Z"
     fill="#000000"
     fill-rule="evenodd"
     fill-opacity="1"
     id="path35" />
  <path
     clip-path="url(#clip490)"
     d="M744.775 911.298 L744.775 921.42 L756.838 921.42 L756.838 925.971 L744.775 925.971 L744.775 945.323 Q744.775 949.684 745.953 950.925 Q747.163 952.166 750.823 952.166 L756.838 952.166 L756.838 957.068 L750.823 957.068 Q744.043 957.068 741.465 954.553 Q738.887 952.007 738.887 945.323 L738.887 925.971 L734.59 925.971 L734.59 921.42 L738.887 921.42 L738.887 911.298 L744.775 911.298 Z"
     fill="#000000"
     fill-rule="evenodd"
     fill-opacity="1"
     id="path37" />
  <path
     clip-path="url(#clip490)"
     d="M795.033 937.78 L795.033 940.644 L768.106 940.644 Q768.488 946.692 771.734 949.875 Q775.013 953.026 780.837 953.026 Q784.211 953.026 787.362 952.198 Q790.545 951.37 793.664 949.715 L793.664 955.254 Q790.513 956.59 787.203 957.291 Q783.893 957.991 780.487 957.991 Q771.957 957.991 766.96 953.026 Q761.995 948.06 761.995 939.594 Q761.995 930.841 766.705 925.717 Q771.448 920.56 779.469 920.56 Q786.662 920.56 790.831 925.207 Q795.033 929.823 795.033 937.78 M789.176 936.061 Q789.113 931.255 786.471 928.39 Q783.861 925.526 779.532 925.526 Q774.631 925.526 771.671 928.295 Q768.742 931.064 768.297 936.093 L789.176 936.061 Z"
     fill="#000000"
     fill-rule="evenodd"
     fill-opacity="1"
     id="path39" />
  <path
     clip-path="url(#clip490)"
     d="M825.302 926.894 Q824.315 926.321 823.137 926.067 Q821.991 925.78 820.591 925.78 Q815.626 925.78 812.952 929.027 Q810.31 932.242 810.31 938.289 L810.31 957.068 L804.422 957.068 L804.422 921.42 L810.31 921.42 L810.31 926.958 Q812.156 923.711 815.116 922.152 Q818.077 920.56 822.31 920.56 Q822.914 920.56 823.647 920.656 Q824.379 920.72 825.27 920.879 L825.302 926.894 Z"
     fill="#000000"
     fill-rule="evenodd"
     fill-opacity="1"
     id="path41" />
  <path
     clip-path="url(#clip490)"
     d="M847.645 939.148 Q840.547 939.148 837.81 940.772 Q835.073 942.395 835.073 946.31 Q835.073 949.429 837.11 951.275 Q839.179 953.089 842.712 953.089 Q847.582 953.089 850.51 949.652 Q853.47 946.182 853.47 940.453 L853.47 939.148 L847.645 939.148 M859.326 936.729 L859.326 957.068 L853.47 957.068 L853.47 951.657 Q851.465 954.903 848.473 956.463 Q845.481 957.991 841.152 957.991 Q835.678 957.991 832.431 954.935 Q829.217 951.848 829.217 946.692 Q829.217 940.676 833.227 937.621 Q837.269 934.565 845.258 934.565 L853.47 934.565 L853.47 933.992 Q853.47 929.95 850.796 927.754 Q848.154 925.526 843.348 925.526 Q840.293 925.526 837.396 926.258 Q834.5 926.99 831.826 928.454 L831.826 923.043 Q835.041 921.802 838.065 921.197 Q841.089 920.56 843.953 920.56 Q851.687 920.56 855.507 924.571 Q859.326 928.581 859.326 936.729 Z"
     fill="#000000"
     fill-rule="evenodd"
     fill-opacity="1"
     id="path43" />
  <path
     clip-path="url(#clip490)"
     d="M877.182 911.298 L877.182 921.42 L889.245 921.42 L889.245 925.971 L877.182 925.971 L877.182 945.323 Q877.182 949.684 878.36 950.925 Q879.569 952.166 883.23 952.166 L889.245 952.166 L889.245 957.068 L883.23 957.068 Q876.45 957.068 873.872 954.553 Q871.294 952.007 871.294 945.323 L871.294 925.971 L866.997 925.971 L866.997 921.42 L871.294 921.42 L871.294 911.298 L877.182 911.298 Z"
     fill="#000000"
     fill-rule="evenodd"
     fill-opacity="1"
     id="path45" />
  <path
     clip-path="url(#clip490)"
     d="M896.948 921.42 L902.804 921.42 L902.804 957.068 L896.948 957.068 L896.948 921.42 M896.948 907.543 L902.804 907.543 L902.804 914.959 L896.948 914.959 L896.948 907.543 Z"
     fill="#000000"
     fill-rule="evenodd"
     fill-opacity="1"
     id="path47" />
  <path
     clip-path="url(#clip490)"
     d="M928.872 925.526 Q924.161 925.526 921.424 929.218 Q918.687 932.878 918.687 939.276 Q918.687 945.673 921.392 949.365 Q924.129 953.026 928.872 953.026 Q933.55 953.026 936.288 949.333 Q939.025 945.641 939.025 939.276 Q939.025 932.942 936.288 929.25 Q933.55 925.526 928.872 925.526 M928.872 920.56 Q936.51 920.56 940.871 925.526 Q945.232 930.491 945.232 939.276 Q945.232 948.028 940.871 953.026 Q936.51 957.991 928.872 957.991 Q921.201 957.991 916.84 953.026 Q912.512 948.028 912.512 939.276 Q912.512 930.491 916.84 925.526 Q921.201 920.56 928.872 920.56 Z"
     fill="#000000"
     fill-rule="evenodd"
     fill-opacity="1"
     id="path49" />
  <path
     clip-path="url(#clip490)"
     d="M984.572 935.552 L984.572 957.068 L978.715 957.068 L978.715 935.743 Q978.715 930.682 976.742 928.167 Q974.768 925.653 970.822 925.653 Q966.079 925.653 963.342 928.677 Q960.605 931.7 960.605 936.92 L960.605 957.068 L954.716 957.068 L954.716 921.42 L960.605 921.42 L960.605 926.958 Q962.705 923.743 965.538 922.152 Q968.403 920.56 972.127 920.56 Q978.27 920.56 981.421 924.38 Q984.572 928.167 984.572 935.552 Z"
     fill="#000000"
     fill-rule="evenodd"
     fill-opacity="1"
     id="path51" />
  <polyline
     clip-path="url(#clip490)"
     style="stroke:#000000; stroke-linecap:butt; stroke-linejoin:round; stroke-width:4; stroke-opacity:1; fill:none"
     points="   355.243,818.204 355.243,47.2441    "
     id="polyline53" />
  <polyline
     clip-path="url(#clip490)"
     style="stroke:#000000; stroke-linecap:butt; stroke-linejoin:round; stroke-width:4; stroke-opacity:1; fill:none"
     points="   355.243,818.204 374.141,818.204    "
     id="polyline55" />
  <polyline
     clip-path="url(#clip490)"
     style="stroke:#000000; stroke-linecap:butt; stroke-linejoin:round; stroke-width:4; stroke-opacity:1; fill:none"
     points="   355.243,625.464 374.141,625.464    "
     id="polyline57" />
  <polyline
     clip-path="url(#clip490)"
     style="stroke:#000000; stroke-linecap:butt; stroke-linejoin:round; stroke-width:4; stroke-opacity:1; fill:none"
     points="   355.243,432.724 374.141,432.724    "
     id="polyline59" />
  <polyline
     clip-path="url(#clip490)"
     style="stroke:#000000; stroke-linecap:butt; stroke-linejoin:round; stroke-width:4; stroke-opacity:1; fill:none"
     points="   355.243,239.984 374.141,239.984    "
     id="polyline61" />
  <polyline
     clip-path="url(#clip490)"
     style="stroke:#000000; stroke-linecap:butt; stroke-linejoin:round; stroke-width:4; stroke-opacity:1; fill:none"
     points="   355.243,47.2441 374.141,47.2441    "
     id="polyline63" />
  <path
     clip-path="url(#clip490)"
     d="M313.299 804.002 Q309.687 804.002 307.859 807.567 Q306.053 811.109 306.053 818.239 Q306.053 825.345 307.859 828.91 Q309.687 832.451 313.299 832.451 Q316.933 832.451 318.738 828.91 Q320.567 825.345 320.567 818.239 Q320.567 811.109 318.738 807.567 Q316.933 804.002 313.299 804.002 M313.299 800.299 Q319.109 800.299 322.164 804.905 Q325.243 809.489 325.243 818.239 Q325.243 826.965 322.164 831.572 Q319.109 836.155 313.299 836.155 Q307.488 836.155 304.41 831.572 Q301.354 826.965 301.354 818.239 Q301.354 809.489 304.41 804.905 Q307.488 800.299 313.299 800.299 Z"
     fill="#000000"
     fill-rule="evenodd"
     fill-opacity="1"
     id="path65" />
  <path
     clip-path="url(#clip490)"
     d="M142.659 645.256 L158.978 645.256 L158.978 649.191 L137.034 649.191 L137.034 645.256 Q139.696 642.502 144.279 637.872 Q148.885 633.219 150.066 631.877 Q152.311 629.354 153.191 627.617 Q154.094 625.858 154.094 624.168 Q154.094 621.414 152.149 619.678 Q150.228 617.942 147.126 617.942 Q144.927 617.942 142.473 618.706 Q140.043 619.469 137.265 621.02 L137.265 616.298 Q140.089 615.164 142.543 614.585 Q144.997 614.006 147.034 614.006 Q152.404 614.006 155.598 616.692 Q158.793 619.377 158.793 623.868 Q158.793 625.997 157.983 627.918 Q157.196 629.817 155.089 632.409 Q154.51 633.08 151.409 636.298 Q148.307 639.492 142.659 645.256 Z"
     fill="#000000"
     fill-rule="evenodd"
     fill-opacity="1"
     id="path67" />
  <path
     clip-path="url(#clip490)"
     d="M168.793 643.312 L173.677 643.312 L173.677 649.191 L168.793 649.191 L168.793 643.312 Z"
     fill="#000000"
     fill-rule="evenodd"
     fill-opacity="1"
     id="path69" />
  <path
     clip-path="url(#clip490)"
     d="M193.862 617.71 Q190.251 617.71 188.422 621.275 Q186.617 624.817 186.617 631.946 Q186.617 639.053 188.422 642.617 Q190.251 646.159 193.862 646.159 Q197.496 646.159 199.302 642.617 Q201.131 639.053 201.131 631.946 Q201.131 624.817 199.302 621.275 Q197.496 617.71 193.862 617.71 M193.862 614.006 Q199.672 614.006 202.728 618.613 Q205.806 623.196 205.806 631.946 Q205.806 640.673 202.728 645.279 Q199.672 649.863 193.862 649.863 Q188.052 649.863 184.973 645.279 Q181.918 640.673 181.918 631.946 Q181.918 623.196 184.973 618.613 Q188.052 614.006 193.862 614.006 Z"
     fill="#000000"
     fill-rule="evenodd"
     fill-opacity="1"
     id="path71" />
  <path
     clip-path="url(#clip490)"
     d="M242.195 623.729 L231.616 634.354 L242.195 644.932 L239.44 647.733 L228.816 637.108 L218.191 647.733 L215.459 644.932 L226.015 634.354 L215.459 623.729 L218.191 620.928 L228.816 631.553 L239.44 620.928 L242.195 623.729 Z"
     fill="#000000"
     fill-rule="evenodd"
     fill-opacity="1"
     id="path73" />
  <path
     clip-path="url(#clip490)"
     d="M254.556 645.256 L262.195 645.256 L262.195 618.891 L253.885 620.557 L253.885 616.298 L262.149 614.631 L266.825 614.631 L266.825 645.256 L274.463 645.256 L274.463 649.191 L254.556 649.191 L254.556 645.256 Z"
     fill="#000000"
     fill-rule="evenodd"
     fill-opacity="1"
     id="path75" />
  <path
     clip-path="url(#clip490)"
     d="M293.908 617.71 Q290.297 617.71 288.468 621.275 Q286.662 624.817 286.662 631.946 Q286.662 639.053 288.468 642.617 Q290.297 646.159 293.908 646.159 Q297.542 646.159 299.348 642.617 Q301.176 639.053 301.176 631.946 Q301.176 624.817 299.348 621.275 Q297.542 617.71 293.908 617.71 M293.908 614.006 Q299.718 614.006 302.773 618.613 Q305.852 623.196 305.852 631.946 Q305.852 640.673 302.773 645.279 Q299.718 649.863 293.908 649.863 Q288.098 649.863 285.019 645.279 Q281.963 640.673 281.963 631.946 Q281.963 623.196 285.019 618.613 Q288.098 614.006 293.908 614.006 Z"
     fill="#000000"
     fill-rule="evenodd"
     fill-opacity="1"
     id="path77" />
  <path
     clip-path="url(#clip490)"
     d="M315.877 606.227 Q313.319 606.227 311.814 607.976 Q310.328 609.725 310.328 612.772 Q310.328 615.8 311.814 617.568 Q313.319 619.317 315.877 619.317 Q318.435 619.317 319.92 617.568 Q321.425 615.8 321.425 612.772 Q321.425 609.725 319.92 607.976 Q318.435 606.227 315.877 606.227 M323.419 594.322 L323.419 597.782 Q321.989 597.105 320.522 596.748 Q319.074 596.391 317.645 596.391 Q313.883 596.391 311.889 598.93 Q309.915 601.469 309.633 606.603 Q310.742 604.967 312.416 604.102 Q314.09 603.218 316.102 603.218 Q320.334 603.218 322.779 605.794 Q325.243 608.352 325.243 612.772 Q325.243 617.098 322.685 619.712 Q320.127 622.326 315.877 622.326 Q311.005 622.326 308.429 618.603 Q305.852 614.86 305.852 607.769 Q305.852 601.111 309.012 597.162 Q312.172 593.193 317.494 593.193 Q318.924 593.193 320.372 593.475 Q321.839 593.757 323.419 594.322 Z"
     fill="#000000"
     fill-rule="evenodd"
     fill-opacity="1"
     id="path79" />
  <path
     clip-path="url(#clip490)"
     d="M151.478 425.966 L139.672 444.415 L151.478 444.415 L151.478 425.966 M150.251 421.892 L156.131 421.892 L156.131 444.415 L161.061 444.415 L161.061 448.303 L156.131 448.303 L156.131 456.452 L151.478 456.452 L151.478 448.303 L135.876 448.303 L135.876 443.79 L150.251 421.892 Z"
     fill="#000000"
     fill-rule="evenodd"
     fill-opacity="1"
     id="path81" />
  <path
     clip-path="url(#clip490)"
     d="M168.793 450.572 L173.677 450.572 L173.677 456.452 L168.793 456.452 L168.793 450.572 Z"
     fill="#000000"
     fill-rule="evenodd"
     fill-opacity="1"
     id="path83" />
  <path
     clip-path="url(#clip490)"
     d="M193.862 424.97 Q190.251 424.97 188.422 428.535 Q186.617 432.077 186.617 439.206 Q186.617 446.313 188.422 449.877 Q190.251 453.419 193.862 453.419 Q197.496 453.419 199.302 449.877 Q201.131 446.313 201.131 439.206 Q201.131 432.077 199.302 428.535 Q197.496 424.97 193.862 424.97 M193.862 421.267 Q199.672 421.267 202.728 425.873 Q205.806 430.456 205.806 439.206 Q205.806 447.933 202.728 452.54 Q199.672 457.123 193.862 457.123 Q188.052 457.123 184.973 452.54 Q181.918 447.933 181.918 439.206 Q181.918 430.456 184.973 425.873 Q188.052 421.267 193.862 421.267 Z"
     fill="#000000"
     fill-rule="evenodd"
     fill-opacity="1"
     id="path85" />
  <path
     clip-path="url(#clip490)"
     d="M242.195 430.989 L231.616 441.614 L242.195 452.192 L239.44 454.993 L228.816 444.368 L218.191 454.993 L215.459 452.192 L226.015 441.614 L215.459 430.989 L218.191 428.188 L228.816 438.813 L239.44 428.188 L242.195 430.989 Z"
     fill="#000000"
     fill-rule="evenodd"
     fill-opacity="1"
     id="path87" />
  <path
     clip-path="url(#clip490)"
     d="M254.556 452.516 L262.195 452.516 L262.195 426.151 L253.885 427.817 L253.885 423.558 L262.149 421.892 L266.825 421.892 L266.825 452.516 L274.463 452.516 L274.463 456.452 L254.556 456.452 L254.556 452.516 Z"
     fill="#000000"
     fill-rule="evenodd"
     fill-opacity="1"
     id="path89" />
  <path
     clip-path="url(#clip490)"
     d="M293.908 424.97 Q290.297 424.97 288.468 428.535 Q286.662 432.077 286.662 439.206 Q286.662 446.313 288.468 449.877 Q290.297 453.419 293.908 453.419 Q297.542 453.419 299.348 449.877 Q301.176 446.313 301.176 439.206 Q301.176 432.077 299.348 428.535 Q297.542 424.97 293.908 424.97 M293.908 421.267 Q299.718 421.267 302.773 425.873 Q305.852 430.456 305.852 439.206 Q305.852 447.933 302.773 452.54 Q299.718 457.123 293.908 457.123 Q288.098 457.123 285.019 452.54 Q281.963 447.933 281.963 439.206 Q281.963 430.456 285.019 425.873 Q288.098 421.267 293.908 421.267 Z"
     fill="#000000"
     fill-rule="evenodd"
     fill-opacity="1"
     id="path91" />
  <path
     clip-path="url(#clip490)"
     d="M315.877 413.487 Q313.319 413.487 311.814 415.236 Q310.328 416.985 310.328 420.032 Q310.328 423.06 311.814 424.828 Q313.319 426.577 315.877 426.577 Q318.435 426.577 319.92 424.828 Q321.425 423.06 321.425 420.032 Q321.425 416.985 319.92 415.236 Q318.435 413.487 315.877 413.487 M323.419 401.582 L323.419 405.042 Q321.989 404.365 320.522 404.008 Q319.074 403.651 317.645 403.651 Q313.883 403.651 311.889 406.19 Q309.915 408.729 309.633 413.863 Q310.742 412.227 312.416 411.362 Q314.09 410.478 316.102 410.478 Q320.334 410.478 322.779 413.055 Q325.243 415.612 325.243 420.032 Q325.243 424.358 322.685 426.972 Q320.127 429.587 315.877 429.587 Q311.005 429.587 308.429 425.863 Q305.852 422.12 305.852 415.029 Q305.852 408.371 309.012 404.422 Q312.172 400.453 317.494 400.453 Q318.924 400.453 320.372 400.735 Q321.839 401.018 323.419 401.582 Z"
     fill="#000000"
     fill-rule="evenodd"
     fill-opacity="1"
     id="path93" />
  <path
     clip-path="url(#clip490)"
     d="M149.209 244.568 Q146.061 244.568 144.21 246.721 Q142.381 248.874 142.381 252.624 Q142.381 256.351 144.21 258.526 Q146.061 260.679 149.209 260.679 Q152.358 260.679 154.186 258.526 Q156.038 256.351 156.038 252.624 Q156.038 248.874 154.186 246.721 Q152.358 244.568 149.209 244.568 M158.492 229.916 L158.492 234.175 Q156.733 233.341 154.927 232.902 Q153.145 232.462 151.385 232.462 Q146.756 232.462 144.302 235.587 Q141.872 238.712 141.524 245.031 Q142.89 243.017 144.95 241.952 Q147.01 240.865 149.487 240.865 Q154.696 240.865 157.705 244.036 Q160.737 247.184 160.737 252.624 Q160.737 257.948 157.589 261.165 Q154.441 264.383 149.209 264.383 Q143.214 264.383 140.043 259.8 Q136.872 255.193 136.872 246.466 Q136.872 238.272 140.76 233.411 Q144.649 228.527 151.2 228.527 Q152.959 228.527 154.742 228.874 Q156.547 229.221 158.492 229.916 Z"
     fill="#000000"
     fill-rule="evenodd"
     fill-opacity="1"
     id="path95" />
  <path
     clip-path="url(#clip490)"
     d="M168.793 257.832 L173.677 257.832 L173.677 263.712 L168.793 263.712 L168.793 257.832 Z"
     fill="#000000"
     fill-rule="evenodd"
     fill-opacity="1"
     id="path97" />
  <path
     clip-path="url(#clip490)"
     d="M193.862 232.23 Q190.251 232.23 188.422 235.795 Q186.617 239.337 186.617 246.466 Q186.617 253.573 188.422 257.138 Q190.251 260.679 193.862 260.679 Q197.496 260.679 199.302 257.138 Q201.131 253.573 201.131 246.466 Q201.131 239.337 199.302 235.795 Q197.496 232.23 193.862 232.23 M193.862 228.527 Q199.672 228.527 202.728 233.133 Q205.806 237.716 205.806 246.466 Q205.806 255.193 202.728 259.8 Q199.672 264.383 193.862 264.383 Q188.052 264.383 184.973 259.8 Q181.918 255.193 181.918 246.466 Q181.918 237.716 184.973 233.133 Q188.052 228.527 193.862 228.527 Z"
     fill="#000000"
     fill-rule="evenodd"
     fill-opacity="1"
     id="path99" />
  <path
     clip-path="url(#clip490)"
     d="M242.195 238.249 L231.616 248.874 L242.195 259.452 L239.44 262.253 L228.816 251.628 L218.191 262.253 L215.459 259.452 L226.015 248.874 L215.459 238.249 L218.191 235.448 L228.816 246.073 L239.44 235.448 L242.195 238.249 Z"
     fill="#000000"
     fill-rule="evenodd"
     fill-opacity="1"
     id="path101" />
  <path
     clip-path="url(#clip490)"
     d="M254.556 259.776 L262.195 259.776 L262.195 233.411 L253.885 235.078 L253.885 230.818 L262.149 229.152 L266.825 229.152 L266.825 259.776 L274.463 259.776 L274.463 263.712 L254.556 263.712 L254.556 259.776 Z"
     fill="#000000"
     fill-rule="evenodd"
     fill-opacity="1"
     id="path103" />
  <path
     clip-path="url(#clip490)"
     d="M293.908 232.23 Q290.297 232.23 288.468 235.795 Q286.662 239.337 286.662 246.466 Q286.662 253.573 288.468 257.138 Q290.297 260.679 293.908 260.679 Q297.542 260.679 299.348 257.138 Q301.176 253.573 301.176 246.466 Q301.176 239.337 299.348 235.795 Q297.542 232.23 293.908 232.23 M293.908 228.527 Q299.718 228.527 302.773 233.133 Q305.852 237.716 305.852 246.466 Q305.852 255.193 302.773 259.8 Q299.718 264.383 293.908 264.383 Q288.098 264.383 285.019 259.8 Q281.963 255.193 281.963 246.466 Q281.963 237.716 285.019 233.133 Q288.098 228.527 293.908 228.527 Z"
     fill="#000000"
     fill-rule="evenodd"
     fill-opacity="1"
     id="path105" />
  <path
     clip-path="url(#clip490)"
     d="M315.877 220.747 Q313.319 220.747 311.814 222.496 Q310.328 224.245 310.328 227.292 Q310.328 230.32 311.814 232.088 Q313.319 233.837 315.877 233.837 Q318.435 233.837 319.92 232.088 Q321.425 230.32 321.425 227.292 Q321.425 224.245 319.92 222.496 Q318.435 220.747 315.877 220.747 M323.419 208.842 L323.419 212.303 Q321.989 211.625 320.522 211.268 Q319.074 210.911 317.645 210.911 Q313.883 210.911 311.889 213.45 Q309.915 215.989 309.633 221.123 Q310.742 219.487 312.416 218.622 Q314.09 217.738 316.102 217.738 Q320.334 217.738 322.779 220.315 Q325.243 222.872 325.243 227.292 Q325.243 231.618 322.685 234.232 Q320.127 236.847 315.877 236.847 Q311.005 236.847 308.429 233.123 Q305.852 229.38 305.852 222.289 Q305.852 215.631 309.012 211.682 Q312.172 207.713 317.494 207.713 Q318.924 207.713 320.372 207.996 Q321.839 208.278 323.419 208.842 Z"
     fill="#000000"
     fill-rule="evenodd"
     fill-opacity="1"
     id="path107" />
  <path
     clip-path="url(#clip490)"
     d="M148.631 54.5597 Q145.297 54.5597 143.376 56.3421 Q141.478 58.1245 141.478 61.2495 Q141.478 64.3745 143.376 66.1569 Q145.297 67.9393 148.631 67.9393 Q151.964 67.9393 153.885 66.1569 Q155.807 64.3514 155.807 61.2495 Q155.807 58.1245 153.885 56.3421 Q151.987 54.5597 148.631 54.5597 M143.955 52.569 Q140.946 51.8283 139.256 49.7681 Q137.589 47.7079 137.589 44.745 Q137.589 40.6015 140.529 38.1941 Q143.492 35.7867 148.631 35.7867 Q153.793 35.7867 156.733 38.1941 Q159.672 40.6015 159.672 44.745 Q159.672 47.7079 157.983 49.7681 Q156.316 51.8283 153.33 52.569 Q156.709 53.356 158.584 55.6477 Q160.483 57.9394 160.483 61.2495 Q160.483 66.2726 157.404 68.9578 Q154.348 71.643 148.631 71.643 Q142.913 71.643 139.835 68.9578 Q136.779 66.2726 136.779 61.2495 Q136.779 57.9394 138.677 55.6477 Q140.575 53.356 143.955 52.569 M142.242 45.1848 Q142.242 47.87 143.909 49.3746 Q145.598 50.8792 148.631 50.8792 Q151.64 50.8792 153.33 49.3746 Q155.043 47.87 155.043 45.1848 Q155.043 42.4996 153.33 40.995 Q151.64 39.4904 148.631 39.4904 Q145.598 39.4904 143.909 40.995 Q142.242 42.4996 142.242 45.1848 Z"
     fill="#000000"
     fill-rule="evenodd"
     fill-opacity="1"
     id="path109" />
  <path
     clip-path="url(#clip490)"
     d="M168.793 65.0921 L173.677 65.0921 L173.677 70.9717 L168.793 70.9717 L168.793 65.0921 Z"
     fill="#000000"
     fill-rule="evenodd"
     fill-opacity="1"
     id="path111" />
  <path
     clip-path="url(#clip490)"
     d="M193.862 39.4904 Q190.251 39.4904 188.422 43.0552 Q186.617 46.5968 186.617 53.7264 Q186.617 60.8329 188.422 64.3977 Q190.251 67.9393 193.862 67.9393 Q197.496 67.9393 199.302 64.3977 Q201.131 60.8329 201.131 53.7264 Q201.131 46.5968 199.302 43.0552 Q197.496 39.4904 193.862 39.4904 M193.862 35.7867 Q199.672 35.7867 202.728 40.3932 Q205.806 44.9765 205.806 53.7264 Q205.806 62.4532 202.728 67.0597 Q199.672 71.643 193.862 71.643 Q188.052 71.643 184.973 67.0597 Q181.918 62.4532 181.918 53.7264 Q181.918 44.9765 184.973 40.3932 Q188.052 35.7867 193.862 35.7867 Z"
     fill="#000000"
     fill-rule="evenodd"
     fill-opacity="1"
     id="path113" />
  <path
     clip-path="url(#clip490)"
     d="M242.195 45.5089 L231.616 56.1338 L242.195 66.7125 L239.44 69.5134 L228.816 58.8884 L218.191 69.5134 L215.459 66.7125 L226.015 56.1338 L215.459 45.5089 L218.191 42.708 L228.816 53.3329 L239.44 42.708 L242.195 45.5089 Z"
     fill="#000000"
     fill-rule="evenodd"
     fill-opacity="1"
     id="path115" />
  <path
     clip-path="url(#clip490)"
     d="M254.556 67.0365 L262.195 67.0365 L262.195 40.6709 L253.885 42.3376 L253.885 38.0784 L262.149 36.4117 L266.825 36.4117 L266.825 67.0365 L274.463 67.0365 L274.463 70.9717 L254.556 70.9717 L254.556 67.0365 Z"
     fill="#000000"
     fill-rule="evenodd"
     fill-opacity="1"
     id="path117" />
  <path
     clip-path="url(#clip490)"
     d="M293.908 39.4904 Q290.297 39.4904 288.468 43.0552 Q286.662 46.5968 286.662 53.7264 Q286.662 60.8329 288.468 64.3977 Q290.297 67.9393 293.908 67.9393 Q297.542 67.9393 299.348 64.3977 Q301.176 60.8329 301.176 53.7264 Q301.176 46.5968 299.348 43.0552 Q297.542 39.4904 293.908 39.4904 M293.908 35.7867 Q299.718 35.7867 302.773 40.3932 Q305.852 44.9765 305.852 53.7264 Q305.852 62.4532 302.773 67.0597 Q299.718 71.643 293.908 71.643 Q288.098 71.643 285.019 67.0597 Q281.963 62.4532 281.963 53.7264 Q281.963 44.9765 285.019 40.3932 Q288.098 35.7867 293.908 35.7867 Z"
     fill="#000000"
     fill-rule="evenodd"
     fill-opacity="1"
     id="path119" />
  <path
     clip-path="url(#clip490)"
     d="M315.877 28.0073 Q313.319 28.0073 311.814 29.7564 Q310.328 31.5055 310.328 34.5524 Q310.328 37.5804 311.814 39.3484 Q313.319 41.0975 315.877 41.0975 Q318.435 41.0975 319.92 39.3484 Q321.425 37.5804 321.425 34.5524 Q321.425 31.5055 319.92 29.7564 Q318.435 28.0073 315.877 28.0073 M323.419 16.102 L323.419 19.5626 Q321.989 18.8855 320.522 18.5282 Q319.074 18.1708 317.645 18.1708 Q313.883 18.1708 311.889 20.7099 Q309.915 23.2489 309.633 28.3834 Q310.742 26.7471 312.416 25.882 Q314.09 24.998 316.102 24.998 Q320.334 24.998 322.779 27.5747 Q325.243 30.1325 325.243 34.5524 Q325.243 38.8782 322.685 41.4924 Q320.127 44.1067 315.877 44.1067 Q311.005 44.1067 308.429 40.3828 Q305.852 36.64 305.852 29.5495 Q305.852 22.8916 309.012 18.9419 Q312.172 14.9735 317.494 14.9735 Q318.924 14.9735 320.372 15.2556 Q321.839 15.5377 323.419 16.102 Z"
     fill="#000000"
     fill-rule="evenodd"
     fill-opacity="1"
     id="path121" />
  <path
     clip-path="url(#clip490)"
     d="M91.6202 634.087 L44.1002 652.229 L44.1002 645.514 L84.1087 630.459 L44.1002 615.372 L44.1002 608.688 L91.6202 626.798 L91.6202 634.087 Z"
     fill="#000000"
     fill-rule="evenodd"
     fill-opacity="1"
     id="path123" />
  <path
     clip-path="url(#clip490)"
     d="M60.0781 593.251 Q60.0781 597.962 63.7703 600.699 Q67.4305 603.436 73.8281 603.436 Q80.2256 603.436 83.9177 600.731 Q87.578 597.994 87.578 593.251 Q87.578 588.572 83.8859 585.835 Q80.1938 583.098 73.8281 583.098 Q67.4942 583.098 63.8021 585.835 Q60.0781 588.572 60.0781 593.251 M55.1129 593.251 Q55.1129 585.612 60.0781 581.252 Q65.0434 576.891 73.8281 576.891 Q82.5809 576.891 87.578 581.252 Q92.5432 585.612 92.5432 593.251 Q92.5432 600.922 87.578 605.282 Q82.5809 609.611 73.8281 609.611 Q65.0434 609.611 60.0781 605.282 Q55.1129 600.922 55.1129 593.251 Z"
     fill="#000000"
     fill-rule="evenodd"
     fill-opacity="1"
     id="path125" />
  <path
     clip-path="url(#clip490)"
     d="M42.095 567.184 L42.095 561.327 L91.6202 561.327 L91.6202 567.184 L42.095 567.184 Z"
     fill="#000000"
     fill-rule="evenodd"
     fill-opacity="1"
     id="path127" />
  <path
     clip-path="url(#clip490)"
     d="M77.552 549.678 L55.9723 549.678 L55.9723 543.821 L77.3292 543.821 Q82.3899 543.821 84.9362 541.848 Q87.4507 539.875 87.4507 535.928 Q87.4507 531.186 84.427 528.448 Q81.4033 525.679 76.1834 525.679 L55.9723 525.679 L55.9723 519.823 L91.6202 519.823 L91.6202 525.679 L86.1457 525.679 Q89.3922 527.812 90.9836 530.644 Q92.5432 533.445 92.5432 537.169 Q92.5432 543.312 88.7238 546.495 Q84.9044 549.678 77.552 549.678 M55.1129 534.941 L55.1129 534.941 Z"
     fill="#000000"
     fill-rule="evenodd"
     fill-opacity="1"
     id="path129" />
  <path
     clip-path="url(#clip490)"
     d="M62.8154 480.005 Q58.8687 477.809 56.9908 474.754 Q55.1129 471.698 55.1129 467.56 Q55.1129 461.99 59.0278 458.967 Q62.9109 455.943 70.1041 455.943 L91.6202 455.943 L91.6202 461.831 L70.2951 461.831 Q65.1707 461.831 62.6881 463.645 Q60.2055 465.46 60.2055 469.184 Q60.2055 473.735 63.2292 476.377 Q66.2529 479.019 71.4728 479.019 L91.6202 479.019 L91.6202 484.907 L70.2951 484.907 Q65.1389 484.907 62.6881 486.721 Q60.2055 488.535 60.2055 492.323 Q60.2055 496.811 63.261 499.452 Q66.2847 502.094 71.4728 502.094 L91.6202 502.094 L91.6202 507.983 L55.9723 507.983 L55.9723 502.094 L61.5104 502.094 Q58.2321 500.089 56.6725 497.288 Q55.1129 494.487 55.1129 490.636 Q55.1129 486.753 57.0863 484.047 Q59.0596 481.31 62.8154 480.005 Z"
     fill="#000000"
     fill-rule="evenodd"
     fill-opacity="1"
     id="path131" />
  <path
     clip-path="url(#clip490)"
     d="M72.3321 413.77 L75.1967 413.77 L75.1967 440.697 Q81.2441 440.315 84.427 437.069 Q87.578 433.79 87.578 427.966 Q87.578 424.592 86.7505 421.441 Q85.9229 418.258 84.2678 415.139 L89.806 415.139 Q91.1428 418.29 91.843 421.6 Q92.5432 424.91 92.5432 428.316 Q92.5432 436.846 87.578 441.843 Q82.6127 446.808 74.1464 446.808 Q65.3935 446.808 60.2691 442.097 Q55.1129 437.355 55.1129 429.334 Q55.1129 422.141 59.7599 417.971 Q64.375 413.77 72.3321 413.77 M70.6134 419.626 Q65.8073 419.69 62.9427 422.332 Q60.0781 424.942 60.0781 429.271 Q60.0781 434.172 62.8472 437.132 Q65.6163 440.06 70.6452 440.506 L70.6134 419.626 Z"
     fill="#000000"
     fill-rule="evenodd"
     fill-opacity="1"
     id="path133" />
  <path
     clip-path="url(#clip490)"
     d="M42.095 383.979 L42.095 370.483 L46.6465 370.483 L46.6465 378.122 L95.6624 378.122 L95.6624 370.483 L100.214 370.483 L100.214 383.979 L42.095 383.979 Z"
     fill="#000000"
     fill-rule="evenodd"
     fill-opacity="1"
     id="path135" />
  <path
     clip-path="url(#clip490)"
     d="M105.179 358.611 L55.9723 358.611 L55.9723 352.755 L78.1249 352.755 Q82.7401 352.755 85.0954 350.559 Q87.4507 348.362 87.4507 344.066 Q87.4507 339.355 84.7771 337 Q82.1035 334.612 76.7563 334.612 L55.9723 334.612 L55.9723 328.756 L83.4085 328.756 Q85.3182 328.756 86.2412 328.215 Q87.1324 327.642 87.1324 326.464 Q87.1324 326.178 86.9733 325.669 Q86.7823 325.159 86.4003 324.268 L91.111 324.268 Q91.843 325.573 92.1931 326.751 Q92.5432 327.897 92.5432 329.011 Q92.5432 331.207 91.3019 332.512 Q90.0606 333.817 87.5143 334.294 Q90.0288 335.886 91.3019 338.209 Q92.5432 340.501 92.5432 343.62 Q92.5432 346.866 91.3019 349.158 Q90.0606 351.418 87.578 352.755 L105.179 352.755 L105.179 358.611 Z"
     fill="#000000"
     fill-rule="evenodd"
     fill-opacity="1"
     id="path137" />
  <path
     clip-path="url(#clip490)"
     d="M62.8154 288.779 Q58.8687 286.583 56.9908 283.528 Q55.1129 280.472 55.1129 276.334 Q55.1129 270.764 59.0278 267.741 Q62.9109 264.717 70.1041 264.717 L91.6202 264.717 L91.6202 270.605 L70.2951 270.605 Q65.1707 270.605 62.6881 272.42 Q60.2055 274.234 60.2055 277.958 Q60.2055 282.509 63.2292 285.151 Q66.2529 287.793 71.4728 287.793 L91.6202 287.793 L91.6202 293.681 L70.2951 293.681 Q65.1389 293.681 62.6881 295.495 Q60.2055 297.309 60.2055 301.097 Q60.2055 305.585 63.261 308.227 Q66.2847 310.868 71.4728 310.868 L91.6202 310.868 L91.6202 316.757 L55.9723 316.757 L55.9723 310.868 L61.5104 310.868 Q58.2321 308.863 56.6725 306.062 Q55.1129 303.261 55.1129 299.41 Q55.1129 295.527 57.0863 292.822 Q59.0596 290.084 62.8154 288.779 Z"
     fill="#000000"
     fill-rule="evenodd"
     fill-opacity="1"
     id="path139" />
  <path
     clip-path="url(#clip490)"
     d="M55.9723 242.501 Q56.5452 239.572 58.2957 237.981 Q60.0145 236.358 62.6244 236.358 Q66.5712 236.358 68.7037 239.382 Q70.8362 242.405 70.8362 248.039 Q70.8362 249.853 70.5179 251.858 Q70.1678 253.832 69.5312 256.06 L65.68 256.06 Q66.5393 254.405 66.9531 252.527 Q67.3669 250.617 67.3669 248.484 Q67.3669 245.015 66.1256 243.105 Q64.8524 241.196 62.6244 241.196 Q60.2691 241.196 59.0596 242.978 Q57.8501 244.729 57.8501 248.166 L57.8501 250.903 L54.4127 250.903 L54.4127 247.912 Q54.4127 244.92 53.426 243.392 Q52.4075 241.832 50.4978 241.832 Q48.6517 241.832 47.6968 243.424 Q46.7102 245.015 46.7102 248.039 Q46.7102 249.312 46.9966 250.935 Q47.2831 252.559 48.0151 255.137 L44.3548 255.137 Q43.8138 252.813 43.5273 250.776 Q43.2409 248.739 43.2409 246.989 Q43.2409 242.405 45.1187 239.732 Q46.9966 237.026 50.1476 237.026 Q52.3438 237.026 53.8716 238.458 Q55.3993 239.891 55.9723 242.501 Z"
     fill="#000000"
     fill-rule="evenodd"
     fill-opacity="1"
     id="path141" />
  <path
     clip-path="url(#clip490)"
     d="M42.095 213.218 L100.214 213.218 L100.214 226.714 L95.6624 226.714 L95.6624 219.107 L46.6465 219.107 L46.6465 226.714 L42.095 226.714 L42.095 213.218 Z"
     fill="#000000"
     fill-rule="evenodd"
     fill-opacity="1"
     id="path143" />
  <polyline
     clip-path="url(#clip492)"
     style="stroke:#808080; stroke-linecap:butt; stroke-linejoin:round; stroke-width:12; stroke-opacity:1; fill:none"
     points="   383.378,444.196 852.292,211.446 1321.21,163.237    "
     id="polyline145" />
  <circle
     clip-path="url(#clip492)"
     cx="383.378"
     cy="444.196"
     r="18"
     fill="#808080"
     fill-rule="evenodd"
     fill-opacity="1"
     stroke="#000000"
     stroke-opacity="1"
     stroke-width="2"
     id="circle147" />
  <circle
     clip-path="url(#clip492)"
     cx="852.292"
     cy="211.446"
     r="18"
     fill="#808080"
     fill-rule="evenodd"
     fill-opacity="1"
     stroke="#000000"
     stroke-opacity="1"
     stroke-width="2"
     id="circle149" />
  <circle
     clip-path="url(#clip492)"
     cx="1321.21"
     cy="163.237"
     r="18"
     fill="#808080"
     fill-rule="evenodd"
     fill-opacity="1"
     stroke="#000000"
     stroke-opacity="1"
     stroke-width="2"
     id="circle151" />
  <polyline
     clip-path="url(#clip492)"
     style="stroke:#000000; stroke-linecap:butt; stroke-linejoin:round; stroke-width:4; stroke-opacity:1; fill:none"
     points="   383.378,464.899 383.378,423.493    "
     id="polyline153" />
  <polyline
     clip-path="url(#clip492)"
     style="stroke:#000000; stroke-linecap:butt; stroke-linejoin:round; stroke-width:4; stroke-opacity:1; fill:none"
     points="   852.292,256.828 852.292,166.063    "
     id="polyline155" />
  <polyline
     clip-path="url(#clip492)"
     style="stroke:#000000; stroke-linecap:butt; stroke-linejoin:round; stroke-width:4; stroke-opacity:1; fill:none"
     points="   1321.21,207.763 1321.21,118.712    "
     id="polyline157" />
  <line
     clip-path="url(#clip492)"
     x1="403.378"
     y1="464.899"
     x2="363.378"
     y2="464.899"
     style="stroke:#000000; stroke-width:2; stroke-opacity:1"
     id="line159" />
  <line
     clip-path="url(#clip492)"
     x1="403.378"
     y1="423.493"
     x2="363.378"
     y2="423.493"
     style="stroke:#000000; stroke-width:2; stroke-opacity:1"
     id="line161" />
  <line
     clip-path="url(#clip492)"
     x1="872.292"
     y1="256.828"
     x2="832.292"
     y2="256.828"
     style="stroke:#000000; stroke-width:2; stroke-opacity:1"
     id="line163" />
  <line
     clip-path="url(#clip492)"
     x1="872.292"
     y1="166.063"
     x2="832.292"
     y2="166.063"
     style="stroke:#000000; stroke-width:2; stroke-opacity:1"
     id="line165" />
  <line
     clip-path="url(#clip492)"
     x1="1341.21"
     y1="207.763"
     x2="1301.21"
     y2="207.763"
     style="stroke:#000000; stroke-width:2; stroke-opacity:1"
     id="line167" />
  <line
     clip-path="url(#clip492)"
     x1="1341.21"
     y1="118.712"
     x2="1301.21"
     y2="118.712"
     style="stroke:#000000; stroke-width:2; stroke-opacity:1"
     id="line169" />
  <polyline
     clip-path="url(#clip492)"
     style="stroke:#e69f00; stroke-linecap:butt; stroke-linejoin:round; stroke-width:12; stroke-opacity:1; fill:none"
     points="   383.378,458.732 852.292,585.269 1321.21,725.89    "
     id="polyline171" />
  <path
     clip-path="url(#clip492)"
     d="M383.378 438.732 L363.378 458.732 L383.378 478.732 L403.378 458.732 L383.378 438.732 Z"
     fill="#e69f00"
     fill-rule="evenodd"
     fill-opacity="1"
     stroke="#000000"
     stroke-opacity="1"
     stroke-width="2"
     id="path173" />
  <path
     clip-path="url(#clip492)"
     d="M852.292 565.269 L832.292 585.269 L852.292 605.269 L872.292 585.269 L852.292 565.269 Z"
     fill="#e69f00"
     fill-rule="evenodd"
     fill-opacity="1"
     stroke="#000000"
     stroke-opacity="1"
     stroke-width="2"
     id="path175" />
  <path
     clip-path="url(#clip492)"
     d="M1321.21 705.89 L1301.21 725.89 L1321.21 745.89 L1341.21 725.89 L1321.21 705.89 Z"
     fill="#e69f00"
     fill-rule="evenodd"
     fill-opacity="1"
     stroke="#000000"
     stroke-opacity="1"
     stroke-width="2"
     id="path177" />
  <polyline
     clip-path="url(#clip492)"
     style="stroke:#000000; stroke-linecap:butt; stroke-linejoin:round; stroke-width:4; stroke-opacity:1; fill:none"
     points="   383.378,498.148 383.378,419.316    "
     id="polyline179" />
  <polyline
     clip-path="url(#clip492)"
     style="stroke:#000000; stroke-linecap:butt; stroke-linejoin:round; stroke-width:4; stroke-opacity:1; fill:none"
     points="   852.292,642.039 852.292,528.499    "
     id="polyline181" />
  <polyline
     clip-path="url(#clip492)"
     style="stroke:#000000; stroke-linecap:butt; stroke-linejoin:round; stroke-width:4; stroke-opacity:1; fill:none"
     points="   1321.21,794.558 1321.21,657.223    "
     id="polyline183" />
  <line
     clip-path="url(#clip492)"
     x1="403.378"
     y1="498.148"
     x2="363.378"
     y2="498.148"
     style="stroke:#000000; stroke-width:2; stroke-opacity:1"
     id="line185" />
  <line
     clip-path="url(#clip492)"
     x1="403.378"
     y1="419.316"
     x2="363.378"
     y2="419.316"
     style="stroke:#000000; stroke-width:2; stroke-opacity:1"
     id="line187" />
  <line
     clip-path="url(#clip492)"
     x1="872.292"
     y1="642.039"
     x2="832.292"
     y2="642.039"
     style="stroke:#000000; stroke-width:2; stroke-opacity:1"
     id="line189" />
  <line
     clip-path="url(#clip492)"
     x1="872.292"
     y1="528.499"
     x2="832.292"
     y2="528.499"
     style="stroke:#000000; stroke-width:2; stroke-opacity:1"
     id="line191" />
  <line
     clip-path="url(#clip492)"
     x1="1341.21"
     y1="794.558"
     x2="1301.21"
     y2="794.558"
     style="stroke:#000000; stroke-width:2; stroke-opacity:1"
     id="line193" />
  <line
     clip-path="url(#clip492)"
     x1="1341.21"
     y1="657.223"
     x2="1301.21"
     y2="657.223"
     style="stroke:#000000; stroke-width:2; stroke-opacity:1"
     id="line195" />
  <path
     clip-path="url(#clip490)"
     d=" M415.993 729.144 L588.833 729.144 L588.833 573.624 L415.993 573.624  Z   "
     fill="#ffffff"
     fill-rule="evenodd"
     fill-opacity="1"
     id="path197" />
  <polyline
     clip-path="url(#clip490)"
     style="stroke:#000000; stroke-linecap:butt; stroke-linejoin:round; stroke-width:4; stroke-opacity:1; fill:none"
     points="   415.993,729.144 588.833,729.144 588.833,573.624 415.993,573.624 415.993,729.144    "
     id="polyline199" />
  <polyline
     clip-path="url(#clip490)"
     style="stroke:#808080; stroke-linecap:butt; stroke-linejoin:round; stroke-width:4; stroke-opacity:1; fill:none"
     points="   427.039,625.464 493.312,625.464    "
     id="polyline201" />
  <circle
     clip-path="url(#clip490)"
     cx="460.176"
     cy="625.464"
     r="23"
     fill="#808080"
     fill-rule="evenodd"
     fill-opacity="1"
     stroke="#000000"
     stroke-opacity="1"
     stroke-width="2.56"
     id="circle203" />
  <path
     clip-path="url(#clip490)"
     d="M504.358 608.184 L510.654 608.184 L525.978 637.096 L525.978 608.184 L530.515 608.184 L530.515 642.744 L524.219 642.744 L508.895 613.832 L508.895 642.744 L504.358 642.744 L504.358 608.184 Z"
     fill="#000000"
     fill-rule="evenodd"
     fill-opacity="1"
     id="path205" />
  <path
     clip-path="url(#clip490)"
     d="M556.209 626.54 Q557.714 627.049 559.126 628.716 Q560.561 630.383 561.996 633.299 L566.742 642.744 L561.719 642.744 L557.297 633.878 Q555.584 630.406 553.964 629.272 Q552.367 628.137 549.589 628.137 L544.496 628.137 L544.496 642.744 L539.821 642.744 L539.821 608.184 L550.376 608.184 Q556.302 608.184 559.219 610.661 Q562.135 613.138 562.135 618.138 Q562.135 621.401 560.607 623.554 Q559.103 625.707 556.209 626.54 M544.496 612.026 L544.496 624.295 L550.376 624.295 Q553.756 624.295 555.469 622.744 Q557.205 621.17 557.205 618.138 Q557.205 615.105 555.469 613.577 Q553.756 612.026 550.376 612.026 L544.496 612.026 Z"
     fill="#000000"
     fill-rule="evenodd"
     fill-opacity="1"
     id="path207" />
  <polyline
     clip-path="url(#clip490)"
     style="stroke:#e69f00; stroke-linecap:butt; stroke-linejoin:round; stroke-width:4; stroke-opacity:1; fill:none"
     points="   427.039,677.304 493.312,677.304    "
     id="polyline209" />
  <path
     clip-path="url(#clip490)"
     d="M460.176 651.704 L434.576 677.304 L460.176 702.904 L485.776 677.304 L460.176 651.704 Z"
     fill="#e69f00"
     fill-rule="evenodd"
     fill-opacity="1"
     stroke="#000000"
     stroke-opacity="1"
     stroke-width="2.56"
     id="path211" />
  <path
     clip-path="url(#clip490)"
     d="M520.747 678.38 Q522.251 678.889 523.663 680.556 Q525.098 682.223 526.534 685.139 L531.279 694.584 L526.256 694.584 L521.834 685.718 Q520.122 682.246 518.501 681.112 Q516.904 679.977 514.126 679.977 L509.034 679.977 L509.034 694.584 L504.358 694.584 L504.358 660.024 L514.913 660.024 Q520.839 660.024 523.756 662.501 Q526.672 664.978 526.672 669.978 Q526.672 673.241 525.145 675.394 Q523.64 677.547 520.747 678.38 M509.034 663.866 L509.034 676.135 L514.913 676.135 Q518.293 676.135 520.006 674.584 Q521.742 673.01 521.742 669.978 Q521.742 666.945 520.006 665.417 Q518.293 663.866 514.913 663.866 L509.034 663.866 Z"
     fill="#000000"
     fill-rule="evenodd"
     fill-opacity="1"
     id="path213" />
  <path
     clip-path="url(#clip490)"
     d=" M1526.71 818.204 L1952.76 818.204 L1952.76 47.2441 L1526.71 47.2441  Z   "
     fill="#ffffff"
     fill-rule="evenodd"
     fill-opacity="1"
     id="path215" />
  <defs
     id="defs220">
    <clipPath
       id="clip493">
      <rect
         x="1526"
         y="47"
         width="427"
         height="772"
         id="rect217" />
    </clipPath>
  </defs>
  <polyline
     clip-path="url(#clip490)"
     style="stroke:#000000; stroke-linecap:butt; stroke-linejoin:round; stroke-width:4; stroke-opacity:1; fill:none"
     points="   1526.71,818.204 1952.76,818.204    "
     id="polyline222" />
  <polyline
     clip-path="url(#clip490)"
     style="stroke:#000000; stroke-linecap:butt; stroke-linejoin:round; stroke-width:4; stroke-opacity:1; fill:none"
     points="   1634.41,818.204 1634.41,799.306    "
     id="polyline224" />
  <polyline
     clip-path="url(#clip490)"
     style="stroke:#000000; stroke-linecap:butt; stroke-linejoin:round; stroke-width:4; stroke-opacity:1; fill:none"
     points="   1845.06,818.204 1845.06,799.306    "
     id="polyline226" />
  <path
     clip-path="url(#clip490)"
     d="M1603.22 842.844 L1609.51 842.844 L1624.84 871.756 L1624.84 842.844 L1629.37 842.844 L1629.37 877.404 L1623.08 877.404 L1607.75 848.492 L1607.75 877.404 L1603.22 877.404 L1603.22 842.844 Z"
     fill="#000000"
     fill-rule="evenodd"
     fill-opacity="1"
     id="path228" />
  <path
     clip-path="url(#clip490)"
     d="M1655.07 861.2 Q1656.57 861.709 1657.98 863.376 Q1659.42 865.043 1660.85 867.959 L1665.6 877.404 L1660.58 877.404 L1656.16 868.538 Q1654.44 865.066 1652.82 863.932 Q1651.23 862.797 1648.45 862.797 L1643.35 862.797 L1643.35 877.404 L1638.68 877.404 L1638.68 842.844 L1649.23 842.844 Q1655.16 842.844 1658.08 845.321 Q1660.99 847.797 1660.99 852.797 Q1660.99 856.061 1659.47 858.214 Q1657.96 860.367 1655.07 861.2 M1643.35 846.686 L1643.35 858.955 L1649.23 858.955 Q1652.61 858.955 1654.33 857.404 Q1656.06 855.83 1656.06 852.797 Q1656.06 849.765 1654.33 848.237 Q1652.61 846.686 1649.23 846.686 L1643.35 846.686 Z"
     fill="#000000"
     fill-rule="evenodd"
     fill-opacity="1"
     id="path230" />
  <path
     clip-path="url(#clip490)"
     d="M1847.99 861.2 Q1849.49 861.709 1850.91 863.376 Q1852.34 865.043 1853.78 867.959 L1858.52 877.404 L1853.5 877.404 L1849.08 868.538 Q1847.36 865.066 1845.74 863.932 Q1844.15 862.797 1841.37 862.797 L1836.28 862.797 L1836.28 877.404 L1831.6 877.404 L1831.6 842.844 L1842.16 842.844 Q1848.08 842.844 1851 845.321 Q1853.92 847.797 1853.92 852.797 Q1853.92 856.061 1852.39 858.214 Q1850.88 860.367 1847.99 861.2 M1836.28 846.686 L1836.28 858.955 L1842.16 858.955 Q1845.54 858.955 1847.25 857.404 Q1848.99 855.83 1848.99 852.797 Q1848.99 849.765 1847.25 848.237 Q1845.54 846.686 1842.16 846.686 L1836.28 846.686 Z"
     fill="#000000"
     fill-rule="evenodd"
     fill-opacity="1"
     id="path232" />
  <polyline
     clip-path="url(#clip490)"
     style="stroke:#000000; stroke-linecap:butt; stroke-linejoin:round; stroke-width:4; stroke-opacity:1; fill:none"
     points="   1526.71,818.204 1526.71,47.2441    "
     id="polyline234" />
  <path
     clip-path="url(#clip490)"
     d="m 1404.94,739.058 v -40.2 h 5.41 v 16.869 h 42.11 v 6.462 h -42.11 v 16.869 z"
     fill="#000000"
     fill-rule="evenodd"
     fill-opacity="1"
     id="path236"
     transform="translate(32)" />
  <path
     clip-path="url(#clip490)"
     d="m 1420.92,690.169 q 0,4.711 3.69,7.448 3.66,2.737 10.06,2.737 6.39,0 10.09,-2.705 3.66,-2.738 3.66,-7.48 0,-4.679 -3.7,-7.416 -3.69,-2.737 -10.05,-2.737 -6.34,0 -10.03,2.737 -3.72,2.737 -3.72,7.416 m -4.97,0 q 0,-7.639 4.97,-11.999 4.96,-4.361 13.75,-4.361 8.75,0 13.75,4.361 4.96,4.36 4.96,11.999 0,7.671 -4.96,12.031 -5,4.329 -13.75,4.329 -8.79,0 -13.75,-4.329 -4.97,-4.36 -4.97,-12.031 z"
     fill="#000000"
     fill-rule="evenodd"
     fill-opacity="1"
     id="path238"
     transform="translate(32)" />
  <path
     clip-path="url(#clip490)"
     d="m 1406.69,658.309 h 10.12 v -12.063 h 4.55 v 12.063 h 19.35 q 4.36,0 5.6,-1.178 1.25,-1.209 1.25,-4.87 v -6.015 h 4.9 v 6.015 q 0,6.78 -2.52,9.358 -2.54,2.578 -9.23,2.578 h -19.35 v 4.297 h -4.55 v -4.297 h -10.12 z"
     fill="#000000"
     fill-rule="evenodd"
     fill-opacity="1"
     id="path240"
     transform="translate(32)" />
  <path
     clip-path="url(#clip490)"
     d="m 1434.54,622.342 q 0,7.098 1.62,9.835 1.62,2.738 5.54,2.738 3.12,0 4.96,-2.037 1.82,-2.069 1.82,-5.602 0,-4.87 -3.44,-7.798 -3.47,-2.96 -9.2,-2.96 h -1.3 v 5.824 m -2.42,-11.681 h 20.34 v 5.857 h -5.41 q 3.24,2.005 4.8,4.997 1.53,2.992 1.53,7.32 0,5.475 -3.05,8.721 -3.09,3.215 -8.25,3.215 -6.01,0 -9.07,-4.01 -3.06,-4.042 -3.06,-12.031 v -8.212 h -0.57 q -4.04,0 -6.24,2.673 -2.22,2.642 -2.22,7.448 0,3.056 0.73,5.952 0.73,2.897 2.19,5.57 h -5.41 q -1.24,-3.214 -1.84,-6.238 -0.64,-3.024 -0.64,-5.888 0,-7.735 4.01,-11.554 4.01,-3.82 12.16,-3.82 z"
     fill="#000000"
     fill-rule="evenodd"
     fill-opacity="1"
     id="path242"
     transform="translate(32)" />
  <path
     clip-path="url(#clip490)"
     d="m 1402.93,598.598 v -5.856 h 49.53 v 5.856 z"
     fill="#000000"
     fill-rule="evenodd"
     fill-opacity="1"
     id="path244"
     transform="translate(32)" />
  <path
     clip-path="url(#clip490)"
     d="m 1452.46,547.259 -47.52,18.142 v -6.716 l 40.01,-15.055 -40.01,-15.086 v -6.684 l 47.52,18.11 z"
     fill="#000000"
     fill-rule="evenodd"
     fill-opacity="1"
     id="path246"
     transform="translate(32)" />
  <path
     clip-path="url(#clip490)"
     d="m 1420.92,506.423 q 0,4.711 3.69,7.448 3.66,2.737 10.06,2.737 6.39,0 10.09,-2.705 3.66,-2.738 3.66,-7.48 0,-4.679 -3.7,-7.416 -3.69,-2.737 -10.05,-2.737 -6.34,0 -10.03,2.737 -3.72,2.737 -3.72,7.416 m -4.97,0 q 0,-7.639 4.97,-11.999 4.96,-4.361 13.75,-4.361 8.75,0 13.75,4.361 4.96,4.36 4.96,11.999 0,7.671 -4.96,12.031 -5,4.329 -13.75,4.329 -8.79,0 -13.75,-4.329 -4.97,-4.36 -4.97,-12.031 z"
     fill="#000000"
     fill-rule="evenodd"
     fill-opacity="1"
     id="path248"
     transform="translate(32)" />
  <path
     clip-path="url(#clip490)"
     d="m 1402.93,480.355 v -5.856 h 49.53 v 5.856 z"
     fill="#000000"
     fill-rule="evenodd"
     fill-opacity="1"
     id="path250"
     transform="translate(32)" />
  <path
     clip-path="url(#clip490)"
     d="m 1438.39,462.85 h -21.58 v -5.857 h 21.36 q 5.06,0 7.6,-1.973 2.52,-1.974 2.52,-5.92 0,-4.743 -3.03,-7.48 -3.02,-2.769 -8.24,-2.769 h -20.21 v -5.857 h 35.65 v 5.857 h -5.48 q 3.25,2.132 4.84,4.965 1.56,2.801 1.56,6.525 0,6.143 -3.82,9.326 -3.82,3.183 -11.17,3.183 m -22.44,-14.737 z"
     fill="#000000"
     fill-rule="evenodd"
     fill-opacity="1"
     id="path252"
     transform="translate(32)" />
  <path
     clip-path="url(#clip490)"
     d="m 1423.65,393.177 q -3.94,-2.196 -5.82,-5.252 -1.88,-3.055 -1.88,-7.193 0,-5.57 3.92,-8.594 3.88,-3.023 11.07,-3.023 h 21.52 v 5.888 h -21.33 q -5.12,0 -7.6,1.814 -2.49,1.814 -2.49,5.538 0,4.552 3.03,7.194 3.02,2.641 8.24,2.641 h 20.15 v 5.889 h -21.33 q -5.15,0 -7.6,1.814 -2.49,1.814 -2.49,5.602 0,4.487 3.06,7.129 3.02,2.642 8.21,2.642 h 20.15 v 5.888 h -35.65 v -5.888 h 5.54 q -3.28,-2.005 -4.84,-4.806 -1.56,-2.801 -1.56,-6.652 0,-3.883 1.97,-6.589 1.98,-2.737 5.73,-4.042 z"
     fill="#000000"
     fill-rule="evenodd"
     fill-opacity="1"
     id="path254"
     transform="translate(32)" />
  <path
     clip-path="url(#clip490)"
     d="m 1433.17,326.942 h 2.86 v 26.927 q 6.05,-0.382 9.23,-3.629 3.16,-3.278 3.16,-9.103 0,-3.373 -0.83,-6.525 -0.83,-3.182 -2.48,-6.302 h 5.53 q 1.34,3.151 2.04,6.462 0.7,3.31 0.7,6.715 0,8.53 -4.96,13.528 -4.97,4.965 -13.44,4.965 -8.75,0 -13.87,-4.711 -5.16,-4.742 -5.16,-12.763 0,-7.193 4.65,-11.363 4.61,-4.201 12.57,-4.201 m -1.72,5.856 q -4.81,0.064 -7.67,2.706 -2.86,2.61 -2.86,6.938 0,4.902 2.76,7.862 2.77,2.928 7.8,3.374 z"
     fill="#000000"
     fill-rule="evenodd"
     fill-opacity="1"
     id="path256"
     transform="translate(32)" />
  <path
     clip-path="url(#clip490)"
     d="m 1402.93,297.15 v -13.495 h 4.55 v 7.639 h 49.02 v -7.639 h 4.55 v 13.495 z"
     fill="#000000"
     fill-rule="evenodd"
     fill-opacity="1"
     id="path258"
     transform="translate(32)" />
  <path
     clip-path="url(#clip490)"
     d="m 1466.02,271.783 h -49.21 v -5.856 h 22.15 q 4.62,0 6.97,-2.197 2.36,-2.196 2.36,-6.493 0,-4.71 -2.68,-7.066 -2.67,-2.387 -8.02,-2.387 h -20.78 v -5.856 h 27.44 q 1.91,0 2.83,-0.541 0.89,-0.573 0.89,-1.751 0,-0.286 -0.16,-0.796 -0.19,-0.509 -0.57,-1.4 h 4.71 q 0.73,1.305 1.08,2.483 0.35,1.145 0.35,2.259 0,2.197 -1.24,3.502 -1.24,1.305 -3.79,1.782 2.52,1.591 3.79,3.915 1.24,2.292 1.24,5.411 0,3.246 -1.24,5.538 -1.24,2.26 -3.72,3.597 h 17.6 z"
     fill="#000000"
     fill-rule="evenodd"
     fill-opacity="1"
     id="path260"
     transform="translate(32)" />
  <path
     clip-path="url(#clip490)"
     d="m 1423.65,201.951 q -3.94,-2.196 -5.82,-5.252 -1.88,-3.055 -1.88,-7.193 0,-5.57 3.92,-8.594 3.88,-3.023 11.07,-3.023 h 21.52 v 5.888 h -21.33 q -5.12,0 -7.6,1.814 -2.49,1.815 -2.49,5.538 0,4.552 3.03,7.194 3.02,2.641 8.24,2.641 h 20.15 v 5.889 h -21.33 q -5.15,0 -7.6,1.814 -2.49,1.814 -2.49,5.602 0,4.488 3.06,7.129 3.02,2.642 8.21,2.642 h 20.15 v 5.888 h -35.65 v -5.888 h 5.54 q -3.28,-2.005 -4.84,-4.806 -1.56,-2.801 -1.56,-6.652 0,-3.883 1.97,-6.589 1.98,-2.737 5.73,-4.042 z"
     fill="#000000"
     fill-rule="evenodd"
     fill-opacity="1"
     id="path262"
     transform="translate(32)" />
  <path
     clip-path="url(#clip490)"
     d="m 1416.81,155.672 q 0.57,-2.928 2.32,-4.519 1.72,-1.623 4.33,-1.623 3.95,0 6.08,3.023 2.13,3.024 2.13,8.658 0,1.814 -0.31,3.819 -0.35,1.973 -0.99,4.201 h -3.85 q 0.86,-1.655 1.27,-3.533 0.41,-1.909 0.41,-4.042 0,-3.469 -1.24,-5.379 -1.27,-1.909 -3.5,-1.909 -2.35,0 -3.56,1.782 -1.21,1.75 -1.21,5.188 v 2.737 h -3.44 v -2.992 q 0,-2.992 -0.99,-4.519 -1.02,-1.56 -2.92,-1.56 -1.85,0 -2.81,1.591 -0.98,1.592 -0.98,4.616 0,1.273 0.28,2.896 0.29,1.623 1.02,4.201 h -3.66 q -0.54,-2.323 -0.83,-4.36 -0.28,-2.037 -0.28,-3.788 0,-4.583 1.88,-7.257 1.87,-2.705 5.03,-2.705 2.19,0 3.72,1.432 1.53,1.433 2.1,4.042 z"
     fill="#000000"
     fill-rule="evenodd"
     fill-opacity="1"
     id="path264"
     transform="translate(32)" />
  <path
     clip-path="url(#clip490)"
     d="m 1402.93,126.39 h 58.12 v 13.496 h -4.55 v -7.608 h -49.02 v 7.608 h -4.55 z"
     fill="#000000"
     fill-rule="evenodd"
     fill-opacity="1"
     id="path266"
     transform="translate(32)" />
  <path
     clip-path="url(#clip493)"
     d=" M1550.15 176.878 L1550.15 818.204 L1718.67 818.204 L1718.67 176.878 L1550.15 176.878 L1550.15 176.878  Z   "
     fill="#808080"
     fill-rule="evenodd"
     fill-opacity="1"
     id="path268" />
  <polyline
     clip-path="url(#clip493)"
     style="stroke:#000000; stroke-linecap:butt; stroke-linejoin:round; stroke-width:4; stroke-opacity:1; fill:none"
     points="   1550.15,176.878 1550.15,818.204 1718.67,818.204 1718.67,176.878 1550.15,176.878    "
     id="polyline270" />
  <path
     clip-path="url(#clip493)"
     d=" M1760.8 150.184 L1760.8 818.204 L1929.32 818.204 L1929.32 150.184 L1760.8 150.184 L1760.8 150.184  Z   "
     fill="#e69f00"
     fill-rule="evenodd"
     fill-opacity="1"
     id="path272" />
  <polyline
     clip-path="url(#clip493)"
     style="stroke:#000000; stroke-linecap:butt; stroke-linejoin:round; stroke-width:4; stroke-opacity:1; fill:none"
     points="   1760.8,150.184 1760.8,818.204 1929.32,818.204 1929.32,150.184 1760.8,150.184    "
     id="polyline274" />
  <circle
     clip-path="url(#clip493)"
     style="fill:#808080; stroke:none; fill-opacity:0"
     cx="1634.41"
     cy="176.878"
     r="2"
     id="circle276" />
  <circle
     clip-path="url(#clip493)"
     style="fill:#e69f00; stroke:none; fill-opacity:0"
     cx="1845.06"
     cy="150.184"
     r="2"
     id="circle278" />
  <polyline
     clip-path="url(#clip493)"
     style="stroke:#000000; stroke-linecap:butt; stroke-linejoin:round; stroke-width:4; stroke-opacity:1; fill:none"
     points="   1634.41,219.769 1634.41,133.987    "
     id="polyline280" />
  <polyline
     clip-path="url(#clip493)"
     style="stroke:#000000; stroke-linecap:butt; stroke-linejoin:round; stroke-width:4; stroke-opacity:1; fill:none"
     points="   1845.06,248.198 1845.06,52.1698    "
     id="polyline282" />
  <line
     clip-path="url(#clip493)"
     x1="1650.41"
     y1="219.769"
     x2="1618.41"
     y2="219.769"
     style="stroke:#000000; stroke-width:2; stroke-opacity:1"
     id="line284" />
  <line
     clip-path="url(#clip493)"
     x1="1650.41"
     y1="133.987"
     x2="1618.41"
     y2="133.987"
     style="stroke:#000000; stroke-width:2; stroke-opacity:1"
     id="line286" />
  <line
     clip-path="url(#clip493)"
     x1="1861.06"
     y1="248.198"
     x2="1829.06"
     y2="248.198"
     style="stroke:#000000; stroke-width:2; stroke-opacity:1"
     id="line288" />
  <line
     clip-path="url(#clip493)"
     x1="1861.06"
     y1="52.1698"
     x2="1829.06"
     y2="52.1698"
     style="stroke:#000000; stroke-width:2; stroke-opacity:1"
     id="line290" />
  <g
     clip-path="url(#clip490)"
     id="g294">
    <text
       style="fill:#000000; fill-opacity:1; font-family:Courier,Courier New,Lucida Sans Typewriter,Lucida Typewriter,monospace; font-size:60px; text-anchor:start;"
       transform="rotate(-90, 1651.91, 771.194)"
       x="1651.91"
       y="771.194"
       id="text292">6.82e6 m</text>
  </g>
  <g
     clip-path="url(#clip490)"
     id="g298">
    <text
       style="fill:#000000; fill-opacity:1; font-family:Courier,Courier New,Lucida Sans Typewriter,Lucida Typewriter,monospace; font-size:60px; text-anchor:start;"
       transform="rotate(-90, 1862.56, 771.194)"
       x="1862.56"
       y="771.194"
       id="text296">7.11e6 m</text>
  </g>
</svg>
