<?xml version="1.0" encoding="utf-8"?>
<svg xmlns="http://www.w3.org/2000/svg" xmlns:xlink="http://www.w3.org/1999/xlink" width="400" height="250" viewBox="0 0 1600 1000">
<defs>
  <clipPath id="clip490">
    <rect x="0" y="0" width="1600" height="1000"/>
  </clipPath>
</defs>
<path clip-path="url(#clip490)" d="
M0 1000 L1600 1000 L1600 0 L0 0  Z
  " fill="#ffffff" fill-rule="evenodd" fill-opacity="1"/>
<defs>
  <clipPath id="clip491">
    <rect x="320" y="0" width="1121" height="1000"/>
  </clipPath>
</defs>
<path clip-path="url(#clip490)" d="
M191.257 834.31 L1552.76 834.31 L1552.76 47.2441 L191.257 47.2441  Z
  " fill="#ffffff" fill-rule="evenodd" fill-opacity="1"/>
<defs>
  <clipPath id="clip492">
    <rect x="191" y="47" width="1362" height="788"/>
  </clipPath>
</defs>
<polyline clip-path="url(#clip490)" style="stroke:#000000; stroke-linecap:butt; stroke-linejoin:round; stroke-width:4; stroke-opacity:1; fill:none" points="
  191.257,834.31 1552.76,834.31 
  "/>
<polyline clip-path="url(#clip490)" style="stroke:#000000; stroke-linecap:butt; stroke-linejoin:round; stroke-width:4; stroke-opacity:1; fill:none" points="
  218.393,834.31 218.393,815.412 
  "/>
<polyline clip-path="url(#clip490)" style="stroke:#000000; stroke-linecap:butt; stroke-linejoin:round; stroke-width:4; stroke-opacity:1; fill:none" points="
  489.771,834.31 489.771,815.412 
  "/>
<polyline clip-path="url(#clip490)" style="stroke:#000000; stroke-linecap:butt; stroke-linejoin:round; stroke-width:4; stroke-opacity:1; fill:none" points="
  761.149,834.31 761.149,815.412 
  "/>
<polyline clip-path="url(#clip490)" style="stroke:#000000; stroke-linecap:butt; stroke-linejoin:round; stroke-width:4; stroke-opacity:1; fill:none" points="
  1032.53,834.31 1032.53,815.412 
  "/>
<polyline clip-path="url(#clip490)" style="stroke:#000000; stroke-linecap:butt; stroke-linejoin:round; stroke-width:4; stroke-opacity:1; fill:none" points="
  1303.9,834.31 1303.9,815.412 
  "/>
<path clip-path="url(#clip490)" d="M218.393 858.829 Q214.781 858.829 212.953 862.393 Q211.147 865.935 211.147 873.065 Q211.147 880.171 212.953 883.736 Q214.781 887.277 218.393 887.277 Q222.027 887.277 223.832 883.736 Q225.661 880.171 225.661 873.065 Q225.661 865.935 223.832 862.393 Q222.027 858.829 218.393 858.829 M218.393 855.125 Q224.203 855.125 227.258 859.731 Q230.337 864.315 230.337 873.065 Q230.337 881.791 227.258 886.398 Q224.203 890.981 218.393 890.981 Q212.582 890.981 209.504 886.398 Q206.448 881.791 206.448 873.065 Q206.448 864.315 209.504 859.731 Q212.582 855.125 218.393 855.125 Z" fill="#000000" fill-rule="evenodd" fill-opacity="1" /><path clip-path="url(#clip490)" d="M464.458 886.375 L472.097 886.375 L472.097 860.009 L463.787 861.676 L463.787 857.417 L472.051 855.75 L476.727 855.75 L476.727 886.375 L484.366 886.375 L484.366 890.31 L464.458 890.31 L464.458 886.375 Z" fill="#000000" fill-rule="evenodd" fill-opacity="1" /><path clip-path="url(#clip490)" d="M503.81 858.829 Q500.199 858.829 498.37 862.393 Q496.565 865.935 496.565 873.065 Q496.565 880.171 498.37 883.736 Q500.199 887.277 503.81 887.277 Q507.444 887.277 509.25 883.736 Q511.078 880.171 511.078 873.065 Q511.078 865.935 509.25 862.393 Q507.444 858.829 503.81 858.829 M503.81 855.125 Q509.62 855.125 512.676 859.731 Q515.754 864.315 515.754 873.065 Q515.754 881.791 512.676 886.398 Q509.62 890.981 503.81 890.981 Q498 890.981 494.921 886.398 Q491.866 881.791 491.866 873.065 Q491.866 864.315 494.921 859.731 Q498 855.125 503.81 855.125 Z" fill="#000000" fill-rule="evenodd" fill-opacity="1" /><path clip-path="url(#clip490)" d="M739.922 886.375 L756.241 886.375 L756.241 890.31 L734.297 890.31 L734.297 886.375 Q736.959 883.62 741.542 878.99 Q746.149 874.338 747.329 872.995 Q749.575 870.472 750.454 868.736 Q751.357 866.977 751.357 865.287 Q751.357 862.532 749.413 860.796 Q747.491 859.06 744.39 859.06 Q742.191 859.06 739.737 859.824 Q737.306 860.588 734.529 862.139 L734.529 857.417 Q737.353 856.282 739.806 855.704 Q742.26 855.125 744.297 855.125 Q749.667 855.125 752.862 857.81 Q756.056 860.495 756.056 864.986 Q756.056 867.116 755.246 869.037 Q754.459 870.935 752.352 873.528 Q751.774 874.199 748.672 877.416 Q745.57 880.611 739.922 886.375 Z" fill="#000000" fill-rule="evenodd" fill-opacity="1" /><path clip-path="url(#clip490)" d="M776.056 858.829 Q772.445 858.829 770.616 862.393 Q768.811 865.935 768.811 873.065 Q768.811 880.171 770.616 883.736 Q772.445 887.277 776.056 887.277 Q779.69 887.277 781.496 883.736 Q783.325 880.171 783.325 873.065 Q783.325 865.935 781.496 862.393 Q779.69 858.829 776.056 858.829 M776.056 855.125 Q781.866 855.125 784.922 859.731 Q788 864.315 788 873.065 Q788 881.791 784.922 886.398 Q781.866 890.981 776.056 890.981 Q770.246 890.981 767.167 886.398 Q764.112 881.791 764.112 873.065 Q764.112 864.315 767.167 859.731 Q770.246 855.125 776.056 855.125 Z" fill="#000000" fill-rule="evenodd" fill-opacity="1" /><path clip-path="url(#clip490)" d="M1021.37 871.676 Q1024.73 872.393 1026.6 874.662 Q1028.5 876.93 1028.5 880.264 Q1028.5 885.379 1024.98 888.18 Q1021.46 890.981 1014.98 890.981 Q1012.8 890.981 1010.49 890.541 Q1008.2 890.125 1005.74 889.268 L1005.74 884.754 Q1007.69 885.889 1010 886.467 Q1012.32 887.046 1014.84 887.046 Q1019.24 887.046 1021.53 885.31 Q1023.85 883.574 1023.85 880.264 Q1023.85 877.208 1021.69 875.495 Q1019.56 873.759 1015.74 873.759 L1011.72 873.759 L1011.72 869.916 L1015.93 869.916 Q1019.38 869.916 1021.21 868.551 Q1023.04 867.162 1023.04 864.569 Q1023.04 861.907 1021.14 860.495 Q1019.26 859.06 1015.74 859.06 Q1013.82 859.06 1011.62 859.477 Q1009.43 859.893 1006.79 860.773 L1006.79 856.606 Q1009.45 855.866 1011.76 855.495 Q1014.1 855.125 1016.16 855.125 Q1021.49 855.125 1024.59 857.555 Q1027.69 859.963 1027.69 864.083 Q1027.69 866.953 1026.05 868.944 Q1024.4 870.912 1021.37 871.676 Z" fill="#000000" fill-rule="evenodd" fill-opacity="1" /><path clip-path="url(#clip490)" d="M1047.36 858.829 Q1043.75 858.829 1041.92 862.393 Q1040.12 865.935 1040.12 873.065 Q1040.12 880.171 1041.92 883.736 Q1043.75 887.277 1047.36 887.277 Q1051 887.277 1052.8 883.736 Q1054.63 880.171 1054.63 873.065 Q1054.63 865.935 1052.8 862.393 Q1051 858.829 1047.36 858.829 M1047.36 855.125 Q1053.17 855.125 1056.23 859.731 Q1059.31 864.315 1059.31 873.065 Q1059.31 881.791 1056.23 886.398 Q1053.17 890.981 1047.36 890.981 Q1041.55 890.981 1038.48 886.398 Q1035.42 881.791 1035.42 873.065 Q1035.42 864.315 1038.48 859.731 Q1041.55 855.125 1047.36 855.125 Z" fill="#000000" fill-rule="evenodd" fill-opacity="1" /><path clip-path="url(#clip490)" d="M1292.08 859.824 L1280.27 878.273 L1292.08 878.273 L1292.08 859.824 M1290.85 855.75 L1296.73 855.75 L1296.73 878.273 L1301.66 878.273 L1301.66 882.162 L1296.73 882.162 L1296.73 890.31 L1292.08 890.31 L1292.08 882.162 L1276.47 882.162 L1276.47 877.648 L1290.85 855.75 Z" fill="#000000" fill-rule="evenodd" fill-opacity="1" /><path clip-path="url(#clip490)" d="M1319.39 858.829 Q1315.78 858.829 1313.95 862.393 Q1312.15 865.935 1312.15 873.065 Q1312.15 880.171 1313.95 883.736 Q1315.78 887.277 1319.39 887.277 Q1323.03 887.277 1324.83 883.736 Q1326.66 880.171 1326.66 873.065 Q1326.66 865.935 1324.83 862.393 Q1323.03 858.829 1319.39 858.829 M1319.39 855.125 Q1325.2 855.125 1328.26 859.731 Q1331.34 864.315 1331.34 873.065 Q1331.34 881.791 1328.26 886.398 Q1325.2 890.981 1319.39 890.981 Q1313.58 890.981 1310.5 886.398 Q1307.45 881.791 1307.45 873.065 Q1307.45 864.315 1310.5 859.731 Q1313.58 855.125 1319.39 855.125 Z" fill="#000000" fill-rule="evenodd" fill-opacity="1" /><path clip-path="url(#clip490)" d="M725.102 919.654 L765.302 919.654 L765.302 925.065 L748.432 925.065 L748.432 967.174 L741.971 967.174 L741.971 925.065 L725.102 925.065 L725.102 919.654 Z" fill="#000000" fill-rule="evenodd" fill-opacity="1" /><path clip-path="url(#clip490)" d="M769.248 931.526 L775.105 931.526 L775.105 967.174 L769.248 967.174 L769.248 931.526 M769.248 917.649 L775.105 917.649 L775.105 925.065 L769.248 925.065 L769.248 917.649 Z" fill="#000000" fill-rule="evenodd" fill-opacity="1" /><path clip-path="url(#clip490)" d="M815.113 938.369 Q817.309 934.422 820.365 932.544 Q823.42 930.667 827.558 930.667 Q833.128 930.667 836.152 934.581 Q839.176 938.465 839.176 945.658 L839.176 967.174 L833.287 967.174 L833.287 945.849 Q833.287 940.724 831.473 938.242 Q829.659 935.759 825.935 935.759 Q821.383 935.759 818.742 938.783 Q816.1 941.807 816.1 947.026 L816.1 967.174 L810.212 967.174 L810.212 945.849 Q810.212 940.693 808.397 938.242 Q806.583 935.759 802.796 935.759 Q798.308 935.759 795.666 938.815 Q793.024 941.838 793.024 947.026 L793.024 967.174 L787.136 967.174 L787.136 931.526 L793.024 931.526 L793.024 937.064 Q795.029 933.786 797.83 932.226 Q800.631 930.667 804.482 930.667 Q808.366 930.667 811.071 932.64 Q813.808 934.613 815.113 938.369 Z" fill="#000000" fill-rule="evenodd" fill-opacity="1" /><path clip-path="url(#clip490)" d="M881.348 947.886 L881.348 950.75 L854.421 950.75 Q854.803 956.798 858.05 959.981 Q861.328 963.132 867.153 963.132 Q870.527 963.132 873.678 962.304 Q876.861 961.477 879.98 959.821 L879.98 965.36 Q876.829 966.696 873.519 967.397 Q870.208 968.097 866.803 968.097 Q858.273 968.097 853.276 963.132 Q848.31 958.166 848.31 949.7 Q848.31 940.947 853.021 935.823 Q857.763 930.667 865.784 930.667 Q872.977 930.667 877.147 935.313 Q881.348 939.929 881.348 947.886 M875.492 946.167 Q875.428 941.361 872.786 938.496 Q870.177 935.632 865.848 935.632 Q860.946 935.632 857.986 938.401 Q855.058 941.17 854.612 946.199 L875.492 946.167 Z" fill="#000000" fill-rule="evenodd" fill-opacity="1" /><path clip-path="url(#clip490)" d="M911.14 917.649 L924.635 917.649 L924.635 922.2 L916.996 922.2 L916.996 971.216 L924.635 971.216 L924.635 975.768 L911.14 975.768 L911.14 917.649 Z" fill="#000000" fill-rule="evenodd" fill-opacity="1" /><path clip-path="url(#clip490)" d="M966.744 945.658 L966.744 967.174 L960.888 967.174 L960.888 945.849 Q960.888 940.788 958.914 938.274 Q956.941 935.759 952.994 935.759 Q948.252 935.759 945.515 938.783 Q942.777 941.807 942.777 947.026 L942.777 967.174 L936.889 967.174 L936.889 917.649 L942.777 917.649 L942.777 937.064 Q944.878 933.849 947.711 932.258 Q950.575 930.667 954.299 930.667 Q960.442 930.667 963.593 934.486 Q966.744 938.274 966.744 945.658 Z" fill="#000000" fill-rule="evenodd" fill-opacity="1" /><path clip-path="url(#clip490)" d="M999.082 937 Q998.095 936.427 996.918 936.173 Q995.772 935.886 994.371 935.886 Q989.406 935.886 986.733 939.133 Q984.091 942.348 984.091 948.395 L984.091 967.174 L978.203 967.174 L978.203 931.526 L984.091 931.526 L984.091 937.064 Q985.937 933.818 988.897 932.258 Q991.857 930.667 996.09 930.667 Q996.695 930.667 997.427 930.762 Q998.159 930.826 999.05 930.985 L999.082 937 Z" fill="#000000" fill-rule="evenodd" fill-opacity="1" /><path clip-path="url(#clip490)" d="M1018.91 917.649 L1018.91 975.768 L1005.42 975.768 L1005.42 971.216 L1013.02 971.216 L1013.02 922.2 L1005.42 922.2 L1005.42 917.649 L1018.91 917.649 Z" fill="#000000" fill-rule="evenodd" fill-opacity="1" /><polyline clip-path="url(#clip490)" style="stroke:#000000; stroke-linecap:butt; stroke-linejoin:round; stroke-width:4; stroke-opacity:1; fill:none" points="
  191.257,834.31 191.257,47.2441 
  "/>
<polyline clip-path="url(#clip490)" style="stroke:#000000; stroke-linecap:butt; stroke-linejoin:round; stroke-width:4; stroke-opacity:1; fill:none" points="
  191.257,785.825 210.155,785.825 
  "/>
<polyline clip-path="url(#clip490)" style="stroke:#000000; stroke-linecap:butt; stroke-linejoin:round; stroke-width:4; stroke-opacity:1; fill:none" points="
  191.257,668.031 210.155,668.031 
  "/>
<polyline clip-path="url(#clip490)" style="stroke:#000000; stroke-linecap:butt; stroke-linejoin:round; stroke-width:4; stroke-opacity:1; fill:none" points="
  191.257,550.237 210.155,550.237 
  "/>
<polyline clip-path="url(#clip490)" style="stroke:#000000; stroke-linecap:butt; stroke-linejoin:round; stroke-width:4; stroke-opacity:1; fill:none" points="
  191.257,432.443 210.155,432.443 
  "/>
<polyline clip-path="url(#clip490)" style="stroke:#000000; stroke-linecap:butt; stroke-linejoin:round; stroke-width:4; stroke-opacity:1; fill:none" points="
  191.257,314.649 210.155,314.649 
  "/>
<polyline clip-path="url(#clip490)" style="stroke:#000000; stroke-linecap:butt; stroke-linejoin:round; stroke-width:4; stroke-opacity:1; fill:none" points="
  191.257,196.855 210.155,196.855 
  "/>
<polyline clip-path="url(#clip490)" style="stroke:#000000; stroke-linecap:butt; stroke-linejoin:round; stroke-width:4; stroke-opacity:1; fill:none" points="
  191.257,79.0609 210.155,79.0609 
  "/>
<path clip-path="url(#clip490)" d="M155.313 771.624 Q151.702 771.624 149.873 775.189 Q148.068 778.73 148.068 785.86 Q148.068 792.966 149.873 796.531 Q151.702 800.073 155.313 800.073 Q158.947 800.073 160.753 796.531 Q162.582 792.966 162.582 785.86 Q162.582 778.73 160.753 775.189 Q158.947 771.624 155.313 771.624 M155.313 767.92 Q161.123 767.92 164.179 772.527 Q167.257 777.11 167.257 785.86 Q167.257 794.587 164.179 799.193 Q161.123 803.777 155.313 803.777 Q149.503 803.777 146.424 799.193 Q143.369 794.587 143.369 785.86 Q143.369 777.11 146.424 772.527 Q149.503 767.92 155.313 767.92 Z" fill="#000000" fill-rule="evenodd" fill-opacity="1" /><path clip-path="url(#clip490)" d="M150.938 681.376 L167.257 681.376 L167.257 685.311 L145.313 685.311 L145.313 681.376 Q147.975 678.621 152.558 673.992 Q157.165 669.339 158.345 667.996 Q160.591 665.473 161.47 663.737 Q162.373 661.978 162.373 660.288 Q162.373 657.534 160.429 655.797 Q158.508 654.061 155.406 654.061 Q153.207 654.061 150.753 654.825 Q148.322 655.589 145.545 657.14 L145.545 652.418 Q148.369 651.284 150.822 650.705 Q153.276 650.126 155.313 650.126 Q160.683 650.126 163.878 652.811 Q167.072 655.497 167.072 659.987 Q167.072 662.117 166.262 664.038 Q165.475 665.936 163.369 668.529 Q162.79 669.2 159.688 672.418 Q156.586 675.612 150.938 681.376 Z" fill="#000000" fill-rule="evenodd" fill-opacity="1" /><path clip-path="url(#clip490)" d="M157.674 537.031 L145.869 555.48 L157.674 555.48 L157.674 537.031 M156.447 532.957 L162.327 532.957 L162.327 555.48 L167.257 555.48 L167.257 559.369 L162.327 559.369 L162.327 567.517 L157.674 567.517 L157.674 559.369 L142.072 559.369 L142.072 554.855 L156.447 532.957 Z" fill="#000000" fill-rule="evenodd" fill-opacity="1" /><path clip-path="url(#clip490)" d="M155.73 430.58 Q152.582 430.58 150.73 432.732 Q148.901 434.885 148.901 438.635 Q148.901 442.362 150.73 444.538 Q152.582 446.691 155.73 446.691 Q158.878 446.691 160.707 444.538 Q162.558 442.362 162.558 438.635 Q162.558 434.885 160.707 432.732 Q158.878 430.58 155.73 430.58 M165.012 415.927 L165.012 420.186 Q163.253 419.353 161.447 418.913 Q159.665 418.473 157.906 418.473 Q153.276 418.473 150.822 421.598 Q148.392 424.723 148.045 431.043 Q149.41 429.029 151.471 427.964 Q153.531 426.876 156.008 426.876 Q161.216 426.876 164.225 430.047 Q167.257 433.195 167.257 438.635 Q167.257 443.959 164.109 447.177 Q160.961 450.394 155.73 450.394 Q149.734 450.394 146.563 445.811 Q143.392 441.205 143.392 432.478 Q143.392 424.283 147.281 419.422 Q151.17 414.538 157.72 414.538 Q159.48 414.538 161.262 414.885 Q163.068 415.232 165.012 415.927 Z" fill="#000000" fill-rule="evenodd" fill-opacity="1" /><path clip-path="url(#clip490)" d="M155.406 315.517 Q152.072 315.517 150.151 317.299 Q148.253 319.082 148.253 322.207 Q148.253 325.332 150.151 327.114 Q152.072 328.897 155.406 328.897 Q158.739 328.897 160.66 327.114 Q162.582 325.309 162.582 322.207 Q162.582 319.082 160.66 317.299 Q158.762 315.517 155.406 315.517 M150.73 313.526 Q147.721 312.786 146.031 310.725 Q144.364 308.665 144.364 305.702 Q144.364 301.559 147.304 299.151 Q150.267 296.744 155.406 296.744 Q160.568 296.744 163.507 299.151 Q166.447 301.559 166.447 305.702 Q166.447 308.665 164.757 310.725 Q163.091 312.786 160.105 313.526 Q163.484 314.313 165.359 316.605 Q167.257 318.897 167.257 322.207 Q167.257 327.23 164.179 329.915 Q161.123 332.6 155.406 332.6 Q149.688 332.6 146.609 329.915 Q143.554 327.23 143.554 322.207 Q143.554 318.897 145.452 316.605 Q147.35 314.313 150.73 313.526 M149.017 306.142 Q149.017 308.827 150.683 310.332 Q152.373 311.836 155.406 311.836 Q158.415 311.836 160.105 310.332 Q161.818 308.827 161.818 306.142 Q161.818 303.457 160.105 301.952 Q158.415 300.448 155.406 300.448 Q152.373 300.448 150.683 301.952 Q149.017 303.457 149.017 306.142 Z" fill="#000000" fill-rule="evenodd" fill-opacity="1" /><path clip-path="url(#clip490)" d="M115.961 210.2 L123.6 210.2 L123.6 183.834 L115.29 185.501 L115.29 181.242 L123.554 179.575 L128.23 179.575 L128.23 210.2 L135.869 210.2 L135.869 214.135 L115.961 214.135 L115.961 210.2 Z" fill="#000000" fill-rule="evenodd" fill-opacity="1" /><path clip-path="url(#clip490)" d="M155.313 182.654 Q151.702 182.654 149.873 186.218 Q148.068 189.76 148.068 196.89 Q148.068 203.996 149.873 207.561 Q151.702 211.103 155.313 211.103 Q158.947 211.103 160.753 207.561 Q162.582 203.996 162.582 196.89 Q162.582 189.76 160.753 186.218 Q158.947 182.654 155.313 182.654 M155.313 178.95 Q161.123 178.95 164.179 183.556 Q167.257 188.14 167.257 196.89 Q167.257 205.616 164.179 210.223 Q161.123 214.806 155.313 214.806 Q149.503 214.806 146.424 210.223 Q143.369 205.616 143.369 196.89 Q143.369 188.14 146.424 183.556 Q149.503 178.95 155.313 178.95 Z" fill="#000000" fill-rule="evenodd" fill-opacity="1" /><path clip-path="url(#clip490)" d="M117.559 92.4057 L125.198 92.4057 L125.198 66.0401 L116.887 67.7068 L116.887 63.4475 L125.151 61.7809 L129.827 61.7809 L129.827 92.4057 L137.466 92.4057 L137.466 96.3409 L117.559 96.3409 L117.559 92.4057 Z" fill="#000000" fill-rule="evenodd" fill-opacity="1" /><path clip-path="url(#clip490)" d="M150.938 92.4057 L167.257 92.4057 L167.257 96.3409 L145.313 96.3409 L145.313 92.4057 Q147.975 89.6511 152.558 85.0215 Q157.165 80.3687 158.345 79.0261 Q160.591 76.503 161.47 74.7669 Q162.373 73.0077 162.373 71.3178 Q162.373 68.5632 160.429 66.8271 Q158.508 65.091 155.406 65.091 Q153.207 65.091 150.753 65.8549 Q148.322 66.6188 145.545 68.1697 L145.545 63.4475 Q148.369 62.3133 150.822 61.7346 Q153.276 61.1559 155.313 61.1559 Q160.683 61.1559 163.878 63.841 Q167.072 66.5262 167.072 71.0169 Q167.072 73.1465 166.262 75.0678 Q165.475 76.966 163.369 79.5585 Q162.79 80.2298 159.688 83.4474 Q156.586 86.6418 150.938 92.4057 Z" fill="#000000" fill-rule="evenodd" fill-opacity="1" /><path clip-path="url(#clip490)" d="M35.848 689.66 L71.687 702.71 L71.687 676.579 L35.848 689.66 M77.0342 711.431 L29.5142 693.289 L29.5142 686 L77.0342 667.889 L77.0342 711.431 Z" fill="#000000" fill-rule="evenodd" fill-opacity="1" /><path clip-path="url(#clip490)" d="M29.5142 640.23 L29.5142 633.801 L48.9932 633.801 L48.9932 610.439 L29.5142 610.439 L29.5142 604.01 L77.0342 604.01 L77.0342 610.439 L54.4041 610.439 L54.4041 633.801 L77.0342 633.801 L77.0342 640.23 L29.5142 640.23 Z" fill="#000000" fill-rule="evenodd" fill-opacity="1" /><path clip-path="url(#clip490)" d="M57.7461 560.977 L60.6106 560.977 L60.6106 587.904 Q66.6581 587.522 69.8409 584.276 Q72.9919 580.998 72.9919 575.173 Q72.9919 571.799 72.1644 568.648 Q71.3369 565.465 69.6818 562.346 L75.2199 562.346 Q76.5567 565.497 77.257 568.807 Q77.9572 572.117 77.9572 575.523 Q77.9572 584.053 72.9919 589.05 Q68.0267 594.015 59.5603 594.015 Q50.8074 594.015 45.6831 589.305 Q40.5268 584.562 40.5268 576.542 Q40.5268 569.348 45.1738 565.179 Q49.7889 560.977 57.7461 560.977 M56.0273 566.834 Q51.2212 566.898 48.3566 569.539 Q45.4921 572.149 45.4921 576.478 Q45.4921 581.38 48.2612 584.34 Q51.0302 587.268 56.0592 587.713 L56.0273 566.834 Z" fill="#000000" fill-rule="evenodd" fill-opacity="1" /><path clip-path="url(#clip490)" d="M41.3862 551.365 L41.3862 545.509 L77.0342 545.509 L77.0342 551.365 L41.3862 551.365 M27.509 551.365 L27.509 545.509 L34.925 545.509 L34.925 551.365 L27.509 551.365 Z" fill="#000000" fill-rule="evenodd" fill-opacity="1" /><path clip-path="url(#clip490)" d="M58.7964 509.797 Q52.4307 509.797 48.9296 512.439 Q45.4284 515.049 45.4284 519.791 Q45.4284 524.502 48.9296 527.144 Q52.4307 529.754 58.7964 529.754 Q65.1303 529.754 68.6314 527.144 Q72.1326 524.502 72.1326 519.791 Q72.1326 515.049 68.6314 512.439 Q65.1303 509.797 58.7964 509.797 M72.61 503.941 Q81.713 503.941 86.1371 507.983 Q90.5931 512.025 90.5931 520.364 Q90.5931 523.452 90.1157 526.189 Q89.6701 528.926 88.7152 531.504 L83.0179 531.504 Q84.4184 528.926 85.0868 526.412 Q85.7552 523.897 85.7552 521.287 Q85.7552 515.526 82.7315 512.662 Q79.7396 509.797 73.6603 509.797 L70.7639 509.797 Q73.915 511.611 75.4746 514.444 Q77.0342 517.277 77.0342 521.224 Q77.0342 527.78 72.0371 531.791 Q67.04 535.801 58.7964 535.801 Q50.521 535.801 45.5239 531.791 Q40.5268 527.78 40.5268 521.224 Q40.5268 517.277 42.0864 514.444 Q43.646 511.611 46.7971 509.797 L41.3862 509.797 L41.3862 503.941 L72.61 503.941 Z" fill="#000000" fill-rule="evenodd" fill-opacity="1" /><path clip-path="url(#clip490)" d="M55.5181 462.245 L77.0342 462.245 L77.0342 468.102 L55.709 468.102 Q50.6483 468.102 48.1338 470.075 Q45.6194 472.049 45.6194 475.995 Q45.6194 480.738 48.6431 483.475 Q51.6668 486.212 56.8867 486.212 L77.0342 486.212 L77.0342 492.1 L27.509 492.1 L27.509 486.212 L46.9244 486.212 Q43.7097 484.112 42.1183 481.279 Q40.5268 478.414 40.5268 474.69 Q40.5268 468.547 44.3463 465.396 Q48.1338 462.245 55.5181 462.245 Z" fill="#000000" fill-rule="evenodd" fill-opacity="1" /><path clip-path="url(#clip490)" d="M31.2647 444.771 L41.3862 444.771 L41.3862 432.708 L45.9377 432.708 L45.9377 444.771 L65.2894 444.771 Q69.6499 444.771 70.8913 443.594 Q72.1326 442.384 72.1326 438.724 L72.1326 432.708 L77.0342 432.708 L77.0342 438.724 Q77.0342 445.504 74.5197 448.082 Q71.9734 450.66 65.2894 450.66 L45.9377 450.66 L45.9377 454.957 L41.3862 454.957 L41.3862 450.66 L31.2647 450.66 L31.2647 444.771 Z" fill="#000000" fill-rule="evenodd" fill-opacity="1" /><path clip-path="url(#clip490)" d="M27.509 404.827 L27.509 391.331 L32.0604 391.331 L32.0604 398.97 L81.0764 398.97 L81.0764 391.331 L85.6279 391.331 L85.6279 404.827 L27.509 404.827 Z" fill="#000000" fill-rule="evenodd" fill-opacity="1" /><path clip-path="url(#clip490)" d="M90.5931 379.459 L41.3862 379.459 L41.3862 373.603 L63.5389 373.603 Q68.154 373.603 70.5093 371.407 Q72.8646 369.211 72.8646 364.914 Q72.8646 360.203 70.191 357.848 Q67.5174 355.461 62.1702 355.461 L41.3862 355.461 L41.3862 349.604 L68.8224 349.604 Q70.7321 349.604 71.6551 349.063 Q72.5463 348.49 72.5463 347.312 Q72.5463 347.026 72.3872 346.517 Q72.1962 346.008 71.8143 345.116 L76.5249 345.116 Q77.257 346.421 77.6071 347.599 Q77.9572 348.745 77.9572 349.859 Q77.9572 352.055 76.7159 353.36 Q75.4746 354.665 72.9283 355.142 Q75.4427 356.734 76.7159 359.057 Q77.9572 361.349 77.9572 364.468 Q77.9572 367.715 76.7159 370.006 Q75.4746 372.266 72.9919 373.603 L90.5931 373.603 L90.5931 379.459 Z" fill="#000000" fill-rule="evenodd" fill-opacity="1" /><path clip-path="url(#clip490)" d="M48.2293 309.627 Q44.2826 307.431 42.4047 304.376 Q40.5268 301.32 40.5268 297.183 Q40.5268 291.613 44.4417 288.589 Q48.3248 285.565 55.5181 285.565 L77.0342 285.565 L77.0342 291.453 L55.709 291.453 Q50.5846 291.453 48.102 293.268 Q45.6194 295.082 45.6194 298.806 Q45.6194 303.357 48.6431 305.999 Q51.6668 308.641 56.8867 308.641 L77.0342 308.641 L77.0342 314.529 L55.709 314.529 Q50.5528 314.529 48.102 316.343 Q45.6194 318.158 45.6194 321.945 Q45.6194 326.433 48.6749 329.075 Q51.6986 331.716 56.8867 331.716 L77.0342 331.716 L77.0342 337.605 L41.3862 337.605 L41.3862 331.716 L46.9244 331.716 Q43.646 329.711 42.0864 326.91 Q40.5268 324.109 40.5268 320.258 Q40.5268 316.375 42.5002 313.67 Q44.4736 310.932 48.2293 309.627 Z" fill="#000000" fill-rule="evenodd" fill-opacity="1" /><path clip-path="url(#clip490)" d="M29.5142 263.476 L29.5142 258.065 L83.0816 274.616 L83.0816 280.027 L29.5142 263.476 Z" fill="#000000" fill-rule="evenodd" fill-opacity="1" /><path clip-path="url(#clip490)" d="M55.5181 222.29 L77.0342 222.29 L77.0342 228.146 L55.709 228.146 Q50.6483 228.146 48.1338 230.12 Q45.6194 232.093 45.6194 236.04 Q45.6194 240.782 48.6431 243.52 Q51.6668 246.257 56.8867 246.257 L77.0342 246.257 L77.0342 252.145 L27.509 252.145 L27.509 246.257 L46.9244 246.257 Q43.7097 244.156 42.1183 241.323 Q40.5268 238.459 40.5268 234.735 Q40.5268 228.592 44.3463 225.441 Q48.1338 222.29 55.5181 222.29 Z" fill="#000000" fill-rule="evenodd" fill-opacity="1" /><path clip-path="url(#clip490)" d="M46.8607 189.952 Q46.2878 190.939 46.0332 192.117 Q45.7467 193.262 45.7467 194.663 Q45.7467 199.628 48.9932 202.302 Q52.2079 204.943 58.2553 204.943 L77.0342 204.943 L77.0342 210.832 L41.3862 210.832 L41.3862 204.943 L46.9244 204.943 Q43.6779 203.097 42.1183 200.137 Q40.5268 197.177 40.5268 192.944 Q40.5268 192.339 40.6223 191.607 Q40.686 190.875 40.8451 189.984 L46.8607 189.952 Z" fill="#000000" fill-rule="evenodd" fill-opacity="1" /><path clip-path="url(#clip490)" d="M27.509 170.123 L85.6279 170.123 L85.6279 183.618 L81.0764 183.618 L81.0764 176.011 L32.0604 176.011 L32.0604 183.618 L27.509 183.618 L27.509 170.123 Z" fill="#000000" fill-rule="evenodd" fill-opacity="1" /><path clip-path="url(#clip492)" d="
M229.79 802.729 L238.475 802.493 L247.159 793.717 L256.114 785.236 L264.798 777.403 L273.754 764.622 L282.438 757.849 L291.122 745.186 L300.077 727.988 L308.761 707.198 
  L317.717 692.709 L326.401 664.085 L335.357 629.041 L344.041 591.406 L352.725 550.06 L361.68 499.114 L373.621 379.082 L382.305 301.22 L390.989 234.961 L399.673 180.599 
  L408.357 131.597 L417.041 93.7851 L425.997 102.207 L434.681 112.868 L443.365 114.222 L452.049 138.488 L460.733 171.824 L469.417 190.2 L478.101 221.592 L488.142 247.389 
  L501.44 273.362 L514.466 294.918 L527.764 317.947 L541.061 335.499 L554.359 353.816 L567.385 369.718 L580.682 390.391 L593.98 399.402 L607.277 405.822 L620.304 416.129 
  L633.601 416.07 L646.899 430.971 L659.925 435.093 L673.222 440.748 L686.52 452.645 L699.817 466.544 L712.843 475.497 L726.141 475.673 L739.438 479.678 L752.465 479.148 
  L765.762 493.401 L779.06 495.816 L792.086 502.177 L805.383 504.062 L818.681 509.539 L831.978 518.668 L845.005 516.371 L858.031 511.895 L871.328 524.911 L884.354 536.161 
  L897.652 543.935 L910.949 547.999 L924.247 543.582 L937.544 542.109 L950.571 561.015 L963.868 566.08 L977.166 570.144 L990.463 569.85 L1003.76 577.801 L1016.79 588.226 
  L1030.08 585.988 L1043.38 582.63 L1056.68 580.392 L1069.98 600.417 L1083.27 609.075 L1096.3 659.138 L1109.6 681.519 L1122.9 701.013 L1138.91 716.916 L1156.28 722.746 
  L1174.73 686.23 L1192.91 640.644 L1211.36 624.86 L1229.82 630.101 L1248.27 638.583 L1266.73 669.15 L1285.18 658.195 L1303.63 646.828 L1322.09 616.202 L1340.54 616.378 
  L1358.99 683.58 L1377.45 725.161 L1395.63 740.298 L1414.08 737.53 L1432.54 708.376 L1450.99 630.101 L1469.45 582.159 L1487.9 679.163 L1506.35 777.462 L1506.35 609.016 
  L1487.9 543.464 L1469.45 508.656 L1450.99 533.864 L1432.54 637.699 L1414.08 728.577 L1395.63 729.461 L1377.45 676.748 L1358.99 629.748 L1340.54 560.78 L1322.09 560.721 
  L1303.63 595.117 L1285.18 609.782 L1266.73 630.396 L1248.27 621.62 L1229.82 595.47 L1211.36 591.053 L1192.91 612.373 L1174.73 638.288 L1156.28 694.005 L1138.91 695.595 
  L1122.9 668.974 L1109.6 641.822 L1096.3 621.679 L1083.27 584.927 L1069.98 580.157 L1056.68 562.959 L1043.38 564.137 L1030.08 566.787 L1016.79 569.968 L1003.76 558.129 
  L990.463 549.825 L977.166 550.237 L963.868 547.116 L950.571 542.993 L937.544 531.037 L924.247 532.627 L910.949 538.104 L897.652 529.682 L884.354 521.908 L871.328 509.952 
  L858.031 501.883 L845.005 504.71 L831.978 507.007 L818.681 496.229 L805.383 489.455 L792.086 486.628 L779.06 481.681 L765.762 479.502 L752.465 465.366 L739.438 465.543 
  L726.141 459.064 L712.843 458.77 L699.817 448.875 L686.52 432.384 L673.222 423.432 L659.925 418.602 L646.899 414.479 L633.601 404.997 L620.304 405.174 L607.277 396.162 
  L593.98 386.798 L580.682 375.313 L567.385 356.407 L554.359 338.738 L541.061 316.18 L527.764 298.865 L514.466 275.482 L501.44 252.984 L488.142 224.772 L478.101 193.086 
  L469.417 152.152 L460.733 132.245 L452.049 100.558 L443.365 81.7112 L434.681 85.3039 L425.997 79.1198 L417.041 69.5195 L408.357 90.4869 L399.673 121.349 L390.989 164.049 
  L382.305 227.953 L373.621 300.867 L361.68 435.27 L352.725 492.93 L344.041 544.171 L335.357 594.528 L326.401 637.464 L317.717 666.912 L308.761 680.105 L300.077 702.427 
  L291.122 723.512 L282.438 737.471 L273.754 741.652 L264.798 761.619 L256.114 769.452 L247.159 778.64 L238.475 789.418 L229.79 785.413  Z
  " fill="#b3b3b3" fill-rule="evenodd" fill-opacity="0.3"/>
<polyline clip-path="url(#clip492)" style="stroke:#b3b3b3; stroke-linecap:butt; stroke-linejoin:round; stroke-width:8; stroke-opacity:0.8; fill:none" points="
  229.79,794.071 238.475,795.956 247.159,786.179 256.114,777.344 264.798,769.511 273.754,753.137 282.438,747.66 291.122,734.349 300.077,715.208 308.761,693.651 
  317.717,679.811 326.401,650.774 335.357,611.784 344.041,567.788 352.725,521.495 361.68,467.192 373.621,339.975 382.305,264.587 390.989,199.505 399.673,150.974 
  408.357,111.042 417.041,81.6523 425.997,90.6636 434.681,99.0858 443.365,97.9668 452.049,119.523 460.733,152.034 469.417,171.176 478.101,207.339 488.142,236.08 
  501.44,263.173 514.466,285.2 527.764,308.406 541.061,325.839 554.359,346.277 567.385,363.062 580.682,382.852 593.98,393.1 607.277,400.992 620.304,410.651 
  633.601,410.533 646.899,422.725 659.925,426.848 673.222,432.09 686.52,442.514 699.817,457.71 712.843,467.133 726.141,467.369 739.438,472.611 752.465,472.257 
  765.762,486.452 779.06,488.749 792.086,494.403 805.383,496.759 818.681,502.884 831.978,512.837 845.005,510.541 858.031,506.889 871.328,517.431 884.354,529.034 
  897.652,536.809 910.949,543.052 924.247,538.104 937.544,536.573 950.571,552.004 963.868,556.598 977.166,560.191 990.463,559.837 1003.76,567.965 1016.79,579.097 
  1030.08,576.387 1043.38,573.384 1056.68,571.676 1069.98,590.287 1083.27,597.001 1096.3,640.408 1109.6,661.67 1122.9,684.994 1138.91,706.255 1156.28,708.376 
  1174.73,662.259 1192.91,626.509 1211.36,607.956 1229.82,612.786 1248.27,630.101 1266.73,649.773 1285.18,633.989 1303.63,620.972 1322.09,588.461 1340.54,588.579 
  1358.99,656.664 1377.45,700.955 1395.63,734.879 1414.08,733.053 1432.54,673.037 1450.99,581.983 1469.45,545.408 1487.9,611.313 1506.35,693.239 
  "/>
<circle clip-path="url(#clip492)" cx="229.79" cy="794.071" r="12" fill="#b3b3b3" fill-rule="evenodd" fill-opacity="0.8" stroke="#000000" stroke-opacity="0.8" stroke-width="2"/>
<circle clip-path="url(#clip492)" cx="238.475" cy="795.956" r="12" fill="#b3b3b3" fill-rule="evenodd" fill-opacity="0.8" stroke="#000000" stroke-opacity="0.8" stroke-width="2"/>
<circle clip-path="url(#clip492)" cx="247.159" cy="786.179" r="12" fill="#b3b3b3" fill-rule="evenodd" fill-opacity="0.8" stroke="#000000" stroke-opacity="0.8" stroke-width="2"/>
<circle clip-path="url(#clip492)" cx="256.114" cy="777.344" r="12" fill="#b3b3b3" fill-rule="evenodd" fill-opacity="0.8" stroke="#000000" stroke-opacity="0.8" stroke-width="2"/>
<circle clip-path="url(#clip492)" cx="264.798" cy="769.511" r="12" fill="#b3b3b3" fill-rule="evenodd" fill-opacity="0.8" stroke="#000000" stroke-opacity="0.8" stroke-width="2"/>
<circle clip-path="url(#clip492)" cx="273.754" cy="753.137" r="12" fill="#b3b3b3" fill-rule="evenodd" fill-opacity="0.8" stroke="#000000" stroke-opacity="0.8" stroke-width="2"/>
<circle clip-path="url(#clip492)" cx="282.438" cy="747.66" r="12" fill="#b3b3b3" fill-rule="evenodd" fill-opacity="0.8" stroke="#000000" stroke-opacity="0.8" stroke-width="2"/>
<circle clip-path="url(#clip492)" cx="291.122" cy="734.349" r="12" fill="#b3b3b3" fill-rule="evenodd" fill-opacity="0.8" stroke="#000000" stroke-opacity="0.8" stroke-width="2"/>
<circle clip-path="url(#clip492)" cx="300.077" cy="715.208" r="12" fill="#b3b3b3" fill-rule="evenodd" fill-opacity="0.8" stroke="#000000" stroke-opacity="0.8" stroke-width="2"/>
<circle clip-path="url(#clip492)" cx="308.761" cy="693.651" r="12" fill="#b3b3b3" fill-rule="evenodd" fill-opacity="0.8" stroke="#000000" stroke-opacity="0.8" stroke-width="2"/>
<circle clip-path="url(#clip492)" cx="317.717" cy="679.811" r="12" fill="#b3b3b3" fill-rule="evenodd" fill-opacity="0.8" stroke="#000000" stroke-opacity="0.8" stroke-width="2"/>
<circle clip-path="url(#clip492)" cx="326.401" cy="650.774" r="12" fill="#b3b3b3" fill-rule="evenodd" fill-opacity="0.8" stroke="#000000" stroke-opacity="0.8" stroke-width="2"/>
<circle clip-path="url(#clip492)" cx="335.357" cy="611.784" r="12" fill="#b3b3b3" fill-rule="evenodd" fill-opacity="0.8" stroke="#000000" stroke-opacity="0.8" stroke-width="2"/>
<circle clip-path="url(#clip492)" cx="344.041" cy="567.788" r="12" fill="#b3b3b3" fill-rule="evenodd" fill-opacity="0.8" stroke="#000000" stroke-opacity="0.8" stroke-width="2"/>
<circle clip-path="url(#clip492)" cx="352.725" cy="521.495" r="12" fill="#b3b3b3" fill-rule="evenodd" fill-opacity="0.8" stroke="#000000" stroke-opacity="0.8" stroke-width="2"/>
<circle clip-path="url(#clip492)" cx="361.68" cy="467.192" r="12" fill="#b3b3b3" fill-rule="evenodd" fill-opacity="0.8" stroke="#000000" stroke-opacity="0.8" stroke-width="2"/>
<circle clip-path="url(#clip492)" cx="373.621" cy="339.975" r="12" fill="#b3b3b3" fill-rule="evenodd" fill-opacity="0.8" stroke="#000000" stroke-opacity="0.8" stroke-width="2"/>
<circle clip-path="url(#clip492)" cx="382.305" cy="264.587" r="12" fill="#b3b3b3" fill-rule="evenodd" fill-opacity="0.8" stroke="#000000" stroke-opacity="0.8" stroke-width="2"/>
<circle clip-path="url(#clip492)" cx="390.989" cy="199.505" r="12" fill="#b3b3b3" fill-rule="evenodd" fill-opacity="0.8" stroke="#000000" stroke-opacity="0.8" stroke-width="2"/>
<circle clip-path="url(#clip492)" cx="399.673" cy="150.974" r="12" fill="#b3b3b3" fill-rule="evenodd" fill-opacity="0.8" stroke="#000000" stroke-opacity="0.8" stroke-width="2"/>
<circle clip-path="url(#clip492)" cx="408.357" cy="111.042" r="12" fill="#b3b3b3" fill-rule="evenodd" fill-opacity="0.8" stroke="#000000" stroke-opacity="0.8" stroke-width="2"/>
<circle clip-path="url(#clip492)" cx="417.041" cy="81.6523" r="12" fill="#b3b3b3" fill-rule="evenodd" fill-opacity="0.8" stroke="#000000" stroke-opacity="0.8" stroke-width="2"/>
<circle clip-path="url(#clip492)" cx="425.997" cy="90.6636" r="12" fill="#b3b3b3" fill-rule="evenodd" fill-opacity="0.8" stroke="#000000" stroke-opacity="0.8" stroke-width="2"/>
<circle clip-path="url(#clip492)" cx="434.681" cy="99.0858" r="12" fill="#b3b3b3" fill-rule="evenodd" fill-opacity="0.8" stroke="#000000" stroke-opacity="0.8" stroke-width="2"/>
<circle clip-path="url(#clip492)" cx="443.365" cy="97.9668" r="12" fill="#b3b3b3" fill-rule="evenodd" fill-opacity="0.8" stroke="#000000" stroke-opacity="0.8" stroke-width="2"/>
<circle clip-path="url(#clip492)" cx="452.049" cy="119.523" r="12" fill="#b3b3b3" fill-rule="evenodd" fill-opacity="0.8" stroke="#000000" stroke-opacity="0.8" stroke-width="2"/>
<circle clip-path="url(#clip492)" cx="460.733" cy="152.034" r="12" fill="#b3b3b3" fill-rule="evenodd" fill-opacity="0.8" stroke="#000000" stroke-opacity="0.8" stroke-width="2"/>
<circle clip-path="url(#clip492)" cx="469.417" cy="171.176" r="12" fill="#b3b3b3" fill-rule="evenodd" fill-opacity="0.8" stroke="#000000" stroke-opacity="0.8" stroke-width="2"/>
<circle clip-path="url(#clip492)" cx="478.101" cy="207.339" r="12" fill="#b3b3b3" fill-rule="evenodd" fill-opacity="0.8" stroke="#000000" stroke-opacity="0.8" stroke-width="2"/>
<circle clip-path="url(#clip492)" cx="488.142" cy="236.08" r="12" fill="#b3b3b3" fill-rule="evenodd" fill-opacity="0.8" stroke="#000000" stroke-opacity="0.8" stroke-width="2"/>
<circle clip-path="url(#clip492)" cx="501.44" cy="263.173" r="12" fill="#b3b3b3" fill-rule="evenodd" fill-opacity="0.8" stroke="#000000" stroke-opacity="0.8" stroke-width="2"/>
<circle clip-path="url(#clip492)" cx="514.466" cy="285.2" r="12" fill="#b3b3b3" fill-rule="evenodd" fill-opacity="0.8" stroke="#000000" stroke-opacity="0.8" stroke-width="2"/>
<circle clip-path="url(#clip492)" cx="527.764" cy="308.406" r="12" fill="#b3b3b3" fill-rule="evenodd" fill-opacity="0.8" stroke="#000000" stroke-opacity="0.8" stroke-width="2"/>
<circle clip-path="url(#clip492)" cx="541.061" cy="325.839" r="12" fill="#b3b3b3" fill-rule="evenodd" fill-opacity="0.8" stroke="#000000" stroke-opacity="0.8" stroke-width="2"/>
<circle clip-path="url(#clip492)" cx="554.359" cy="346.277" r="12" fill="#b3b3b3" fill-rule="evenodd" fill-opacity="0.8" stroke="#000000" stroke-opacity="0.8" stroke-width="2"/>
<circle clip-path="url(#clip492)" cx="567.385" cy="363.062" r="12" fill="#b3b3b3" fill-rule="evenodd" fill-opacity="0.8" stroke="#000000" stroke-opacity="0.8" stroke-width="2"/>
<circle clip-path="url(#clip492)" cx="580.682" cy="382.852" r="12" fill="#b3b3b3" fill-rule="evenodd" fill-opacity="0.8" stroke="#000000" stroke-opacity="0.8" stroke-width="2"/>
<circle clip-path="url(#clip492)" cx="593.98" cy="393.1" r="12" fill="#b3b3b3" fill-rule="evenodd" fill-opacity="0.8" stroke="#000000" stroke-opacity="0.8" stroke-width="2"/>
<circle clip-path="url(#clip492)" cx="607.277" cy="400.992" r="12" fill="#b3b3b3" fill-rule="evenodd" fill-opacity="0.8" stroke="#000000" stroke-opacity="0.8" stroke-width="2"/>
<circle clip-path="url(#clip492)" cx="620.304" cy="410.651" r="12" fill="#b3b3b3" fill-rule="evenodd" fill-opacity="0.8" stroke="#000000" stroke-opacity="0.8" stroke-width="2"/>
<circle clip-path="url(#clip492)" cx="633.601" cy="410.533" r="12" fill="#b3b3b3" fill-rule="evenodd" fill-opacity="0.8" stroke="#000000" stroke-opacity="0.8" stroke-width="2"/>
<circle clip-path="url(#clip492)" cx="646.899" cy="422.725" r="12" fill="#b3b3b3" fill-rule="evenodd" fill-opacity="0.8" stroke="#000000" stroke-opacity="0.8" stroke-width="2"/>
<circle clip-path="url(#clip492)" cx="659.925" cy="426.848" r="12" fill="#b3b3b3" fill-rule="evenodd" fill-opacity="0.8" stroke="#000000" stroke-opacity="0.8" stroke-width="2"/>
<circle clip-path="url(#clip492)" cx="673.222" cy="432.09" r="12" fill="#b3b3b3" fill-rule="evenodd" fill-opacity="0.8" stroke="#000000" stroke-opacity="0.8" stroke-width="2"/>
<circle clip-path="url(#clip492)" cx="686.52" cy="442.514" r="12" fill="#b3b3b3" fill-rule="evenodd" fill-opacity="0.8" stroke="#000000" stroke-opacity="0.8" stroke-width="2"/>
<circle clip-path="url(#clip492)" cx="699.817" cy="457.71" r="12" fill="#b3b3b3" fill-rule="evenodd" fill-opacity="0.8" stroke="#000000" stroke-opacity="0.8" stroke-width="2"/>
<circle clip-path="url(#clip492)" cx="712.843" cy="467.133" r="12" fill="#b3b3b3" fill-rule="evenodd" fill-opacity="0.8" stroke="#000000" stroke-opacity="0.8" stroke-width="2"/>
<circle clip-path="url(#clip492)" cx="726.141" cy="467.369" r="12" fill="#b3b3b3" fill-rule="evenodd" fill-opacity="0.8" stroke="#000000" stroke-opacity="0.8" stroke-width="2"/>
<circle clip-path="url(#clip492)" cx="739.438" cy="472.611" r="12" fill="#b3b3b3" fill-rule="evenodd" fill-opacity="0.8" stroke="#000000" stroke-opacity="0.8" stroke-width="2"/>
<circle clip-path="url(#clip492)" cx="752.465" cy="472.257" r="12" fill="#b3b3b3" fill-rule="evenodd" fill-opacity="0.8" stroke="#000000" stroke-opacity="0.8" stroke-width="2"/>
<circle clip-path="url(#clip492)" cx="765.762" cy="486.452" r="12" fill="#b3b3b3" fill-rule="evenodd" fill-opacity="0.8" stroke="#000000" stroke-opacity="0.8" stroke-width="2"/>
<circle clip-path="url(#clip492)" cx="779.06" cy="488.749" r="12" fill="#b3b3b3" fill-rule="evenodd" fill-opacity="0.8" stroke="#000000" stroke-opacity="0.8" stroke-width="2"/>
<circle clip-path="url(#clip492)" cx="792.086" cy="494.403" r="12" fill="#b3b3b3" fill-rule="evenodd" fill-opacity="0.8" stroke="#000000" stroke-opacity="0.8" stroke-width="2"/>
<circle clip-path="url(#clip492)" cx="805.383" cy="496.759" r="12" fill="#b3b3b3" fill-rule="evenodd" fill-opacity="0.8" stroke="#000000" stroke-opacity="0.8" stroke-width="2"/>
<circle clip-path="url(#clip492)" cx="818.681" cy="502.884" r="12" fill="#b3b3b3" fill-rule="evenodd" fill-opacity="0.8" stroke="#000000" stroke-opacity="0.8" stroke-width="2"/>
<circle clip-path="url(#clip492)" cx="831.978" cy="512.837" r="12" fill="#b3b3b3" fill-rule="evenodd" fill-opacity="0.8" stroke="#000000" stroke-opacity="0.8" stroke-width="2"/>
<circle clip-path="url(#clip492)" cx="845.005" cy="510.541" r="12" fill="#b3b3b3" fill-rule="evenodd" fill-opacity="0.8" stroke="#000000" stroke-opacity="0.8" stroke-width="2"/>
<circle clip-path="url(#clip492)" cx="858.031" cy="506.889" r="12" fill="#b3b3b3" fill-rule="evenodd" fill-opacity="0.8" stroke="#000000" stroke-opacity="0.8" stroke-width="2"/>
<circle clip-path="url(#clip492)" cx="871.328" cy="517.431" r="12" fill="#b3b3b3" fill-rule="evenodd" fill-opacity="0.8" stroke="#000000" stroke-opacity="0.8" stroke-width="2"/>
<circle clip-path="url(#clip492)" cx="884.354" cy="529.034" r="12" fill="#b3b3b3" fill-rule="evenodd" fill-opacity="0.8" stroke="#000000" stroke-opacity="0.8" stroke-width="2"/>
<circle clip-path="url(#clip492)" cx="897.652" cy="536.809" r="12" fill="#b3b3b3" fill-rule="evenodd" fill-opacity="0.8" stroke="#000000" stroke-opacity="0.8" stroke-width="2"/>
<circle clip-path="url(#clip492)" cx="910.949" cy="543.052" r="12" fill="#b3b3b3" fill-rule="evenodd" fill-opacity="0.8" stroke="#000000" stroke-opacity="0.8" stroke-width="2"/>
<circle clip-path="url(#clip492)" cx="924.247" cy="538.104" r="12" fill="#b3b3b3" fill-rule="evenodd" fill-opacity="0.8" stroke="#000000" stroke-opacity="0.8" stroke-width="2"/>
<circle clip-path="url(#clip492)" cx="937.544" cy="536.573" r="12" fill="#b3b3b3" fill-rule="evenodd" fill-opacity="0.8" stroke="#000000" stroke-opacity="0.8" stroke-width="2"/>
<circle clip-path="url(#clip492)" cx="950.571" cy="552.004" r="12" fill="#b3b3b3" fill-rule="evenodd" fill-opacity="0.8" stroke="#000000" stroke-opacity="0.8" stroke-width="2"/>
<circle clip-path="url(#clip492)" cx="963.868" cy="556.598" r="12" fill="#b3b3b3" fill-rule="evenodd" fill-opacity="0.8" stroke="#000000" stroke-opacity="0.8" stroke-width="2"/>
<circle clip-path="url(#clip492)" cx="977.166" cy="560.191" r="12" fill="#b3b3b3" fill-rule="evenodd" fill-opacity="0.8" stroke="#000000" stroke-opacity="0.8" stroke-width="2"/>
<circle clip-path="url(#clip492)" cx="990.463" cy="559.837" r="12" fill="#b3b3b3" fill-rule="evenodd" fill-opacity="0.8" stroke="#000000" stroke-opacity="0.8" stroke-width="2"/>
<circle clip-path="url(#clip492)" cx="1003.76" cy="567.965" r="12" fill="#b3b3b3" fill-rule="evenodd" fill-opacity="0.8" stroke="#000000" stroke-opacity="0.8" stroke-width="2"/>
<circle clip-path="url(#clip492)" cx="1016.79" cy="579.097" r="12" fill="#b3b3b3" fill-rule="evenodd" fill-opacity="0.8" stroke="#000000" stroke-opacity="0.8" stroke-width="2"/>
<circle clip-path="url(#clip492)" cx="1030.08" cy="576.387" r="12" fill="#b3b3b3" fill-rule="evenodd" fill-opacity="0.8" stroke="#000000" stroke-opacity="0.8" stroke-width="2"/>
<circle clip-path="url(#clip492)" cx="1043.38" cy="573.384" r="12" fill="#b3b3b3" fill-rule="evenodd" fill-opacity="0.8" stroke="#000000" stroke-opacity="0.8" stroke-width="2"/>
<circle clip-path="url(#clip492)" cx="1056.68" cy="571.676" r="12" fill="#b3b3b3" fill-rule="evenodd" fill-opacity="0.8" stroke="#000000" stroke-opacity="0.8" stroke-width="2"/>
<circle clip-path="url(#clip492)" cx="1069.98" cy="590.287" r="12" fill="#b3b3b3" fill-rule="evenodd" fill-opacity="0.8" stroke="#000000" stroke-opacity="0.8" stroke-width="2"/>
<circle clip-path="url(#clip492)" cx="1083.27" cy="597.001" r="12" fill="#b3b3b3" fill-rule="evenodd" fill-opacity="0.8" stroke="#000000" stroke-opacity="0.8" stroke-width="2"/>
<circle clip-path="url(#clip492)" cx="1096.3" cy="640.408" r="12" fill="#b3b3b3" fill-rule="evenodd" fill-opacity="0.8" stroke="#000000" stroke-opacity="0.8" stroke-width="2"/>
<circle clip-path="url(#clip492)" cx="1109.6" cy="661.67" r="12" fill="#b3b3b3" fill-rule="evenodd" fill-opacity="0.8" stroke="#000000" stroke-opacity="0.8" stroke-width="2"/>
<circle clip-path="url(#clip492)" cx="1122.9" cy="684.994" r="12" fill="#b3b3b3" fill-rule="evenodd" fill-opacity="0.8" stroke="#000000" stroke-opacity="0.8" stroke-width="2"/>
<circle clip-path="url(#clip492)" cx="1138.91" cy="706.255" r="12" fill="#b3b3b3" fill-rule="evenodd" fill-opacity="0.8" stroke="#000000" stroke-opacity="0.8" stroke-width="2"/>
<circle clip-path="url(#clip492)" cx="1156.28" cy="708.376" r="12" fill="#b3b3b3" fill-rule="evenodd" fill-opacity="0.8" stroke="#000000" stroke-opacity="0.8" stroke-width="2"/>
<circle clip-path="url(#clip492)" cx="1174.73" cy="662.259" r="12" fill="#b3b3b3" fill-rule="evenodd" fill-opacity="0.8" stroke="#000000" stroke-opacity="0.8" stroke-width="2"/>
<circle clip-path="url(#clip492)" cx="1192.91" cy="626.509" r="12" fill="#b3b3b3" fill-rule="evenodd" fill-opacity="0.8" stroke="#000000" stroke-opacity="0.8" stroke-width="2"/>
<circle clip-path="url(#clip492)" cx="1211.36" cy="607.956" r="12" fill="#b3b3b3" fill-rule="evenodd" fill-opacity="0.8" stroke="#000000" stroke-opacity="0.8" stroke-width="2"/>
<circle clip-path="url(#clip492)" cx="1229.82" cy="612.786" r="12" fill="#b3b3b3" fill-rule="evenodd" fill-opacity="0.8" stroke="#000000" stroke-opacity="0.8" stroke-width="2"/>
<circle clip-path="url(#clip492)" cx="1248.27" cy="630.101" r="12" fill="#b3b3b3" fill-rule="evenodd" fill-opacity="0.8" stroke="#000000" stroke-opacity="0.8" stroke-width="2"/>
<circle clip-path="url(#clip492)" cx="1266.73" cy="649.773" r="12" fill="#b3b3b3" fill-rule="evenodd" fill-opacity="0.8" stroke="#000000" stroke-opacity="0.8" stroke-width="2"/>
<circle clip-path="url(#clip492)" cx="1285.18" cy="633.989" r="12" fill="#b3b3b3" fill-rule="evenodd" fill-opacity="0.8" stroke="#000000" stroke-opacity="0.8" stroke-width="2"/>
<circle clip-path="url(#clip492)" cx="1303.63" cy="620.972" r="12" fill="#b3b3b3" fill-rule="evenodd" fill-opacity="0.8" stroke="#000000" stroke-opacity="0.8" stroke-width="2"/>
<circle clip-path="url(#clip492)" cx="1322.09" cy="588.461" r="12" fill="#b3b3b3" fill-rule="evenodd" fill-opacity="0.8" stroke="#000000" stroke-opacity="0.8" stroke-width="2"/>
<circle clip-path="url(#clip492)" cx="1340.54" cy="588.579" r="12" fill="#b3b3b3" fill-rule="evenodd" fill-opacity="0.8" stroke="#000000" stroke-opacity="0.8" stroke-width="2"/>
<circle clip-path="url(#clip492)" cx="1358.99" cy="656.664" r="12" fill="#b3b3b3" fill-rule="evenodd" fill-opacity="0.8" stroke="#000000" stroke-opacity="0.8" stroke-width="2"/>
<circle clip-path="url(#clip492)" cx="1377.45" cy="700.955" r="12" fill="#b3b3b3" fill-rule="evenodd" fill-opacity="0.8" stroke="#000000" stroke-opacity="0.8" stroke-width="2"/>
<circle clip-path="url(#clip492)" cx="1395.63" cy="734.879" r="12" fill="#b3b3b3" fill-rule="evenodd" fill-opacity="0.8" stroke="#000000" stroke-opacity="0.8" stroke-width="2"/>
<circle clip-path="url(#clip492)" cx="1414.08" cy="733.053" r="12" fill="#b3b3b3" fill-rule="evenodd" fill-opacity="0.8" stroke="#000000" stroke-opacity="0.8" stroke-width="2"/>
<circle clip-path="url(#clip492)" cx="1432.54" cy="673.037" r="12" fill="#b3b3b3" fill-rule="evenodd" fill-opacity="0.8" stroke="#000000" stroke-opacity="0.8" stroke-width="2"/>
<circle clip-path="url(#clip492)" cx="1450.99" cy="581.983" r="12" fill="#b3b3b3" fill-rule="evenodd" fill-opacity="0.8" stroke="#000000" stroke-opacity="0.8" stroke-width="2"/>
<circle clip-path="url(#clip492)" cx="1469.45" cy="545.408" r="12" fill="#b3b3b3" fill-rule="evenodd" fill-opacity="0.8" stroke="#000000" stroke-opacity="0.8" stroke-width="2"/>
<circle clip-path="url(#clip492)" cx="1487.9" cy="611.313" r="12" fill="#b3b3b3" fill-rule="evenodd" fill-opacity="0.8" stroke="#000000" stroke-opacity="0.8" stroke-width="2"/>
<circle clip-path="url(#clip492)" cx="1506.35" cy="693.239" r="12" fill="#b3b3b3" fill-rule="evenodd" fill-opacity="0.8" stroke="#000000" stroke-opacity="0.8" stroke-width="2"/>
<path clip-path="url(#clip492)" d="
M232.504 759.086 L241.46 765.859 L250.144 757.967 L259.099 753.078 L267.783 749.132 L276.467 745.834 L285.423 743.125 L294.107 735.468 L303.063 718.565 L311.747 694.829 
  L320.431 686.819 L329.386 651.304 L338.07 611.608 L347.026 569.438 L355.71 535.807 L364.394 477.912 L376.606 360.353 L385.29 298.393 L393.974 254.221 L402.658 215.879 
  L411.342 170.351 L420.026 140.726 L428.711 147.735 L437.395 142.905 L446.079 140.196 L455.034 152.27 L463.718 190.258 L472.402 204.217 L481.087 237.14 L491.128 250.039 
  L504.154 266 L517.451 281.726 L530.749 300.69 L543.775 326.723 L557.072 342.095 L570.37 350.164 L583.667 373.252 L596.694 391.863 L609.991 395.279 L623.289 396.634 
  L636.586 416.423 L649.612 416.6 L662.91 426.789 L676.207 434.446 L689.234 440.394 L702.531 457.062 L715.829 477.146 L728.855 479.443 L742.152 469.725 L755.45 484.567 
  L768.476 497.053 L781.773 504.121 L795.071 514.545 L808.369 515.37 L821.395 534.276 L834.692 554.124 L847.99 571.97 L861.016 559.425 L874.042 558.188 L887.34 562.429 
  L900.637 563.666 L913.935 566.434 L926.961 553.948 L940.258 557.01 L953.556 569.084 L966.853 573.207 L979.879 580.981 L993.177 577.094 L1006.47 577.624 L1019.77 603.303 
  L1033.07 618.086 L1046.37 646.828 L1059.66 653.366 L1072.69 660.728 L1085.99 665.616 L1099.29 700.307 L1112.58 710.555 L1125.88 702.015 L1142.71 724.219 L1160.07 746.011 
  L1178.53 730.639 L1196.98 701.956 L1215.44 706.55 L1233.62 687.703 L1252.07 686.819 L1270.53 648.183 L1288.98 657.783 L1307.43 665.027 L1325.89 687.526 L1344.34 692.356 
  L1362.79 651.54 L1381.25 618.675 L1399.7 632.281 L1417.88 660.433 L1436.34 668.915 L1454.79 656.9 L1473.24 642.705 L1491.7 657.43 L1510.15 671.447 L1510.15 650.598 
  L1491.7 637.876 L1473.24 632.222 L1454.79 640.88 L1436.34 651.128 L1417.88 619.794 L1399.7 594.587 L1381.25 588.285 L1362.79 605.011 L1344.34 668.326 L1325.89 652.895 
  L1307.43 622.975 L1288.98 620.089 L1270.53 611.313 L1252.07 653.012 L1233.62 654.367 L1215.44 663.791 L1196.98 677.808 L1178.53 688.704 L1160.07 707.374 L1142.71 683.109 
  L1125.88 667.265 L1112.58 673.332 L1099.29 663.555 L1085.99 629.807 L1072.69 632.929 L1059.66 620.383 L1046.37 612.197 L1033.07 591.465 L1019.77 577.035 L1006.47 562.664 
  L993.177 562.252 L979.879 567.199 L966.853 562.37 L953.556 550.473 L940.258 541.344 L926.961 538.752 L913.935 546.291 L900.637 543.641 L887.34 542.404 L874.042 536.75 
  L861.016 538.104 L847.99 551.356 L834.692 532.686 L821.395 506.359 L808.369 490.28 L795.071 489.455 L781.773 480.091 L768.476 473.73 L755.45 465.602 L742.152 448.993 
  L728.855 462.127 L715.829 459.241 L702.531 438.215 L689.234 421.194 L676.207 416.305 L662.91 410.062 L649.612 398.342 L636.586 398.165 L623.289 383.559 L609.991 381.85 
  L596.694 376.785 L583.667 350.164 L570.37 329.55 L557.072 323.13 L543.775 303.989 L530.749 278.781 L517.451 261.936 L504.154 249.038 L491.128 232.252 L481.087 212.404 
  L472.402 170.999 L463.718 157.747 L455.034 113.044 L446.079 101.677 L437.395 109.687 L428.711 112.514 L420.026 100.912 L411.342 119.229 L402.658 152.388 L393.974 189.198 
  L385.29 230.78 L376.606 298.747 L364.394 422.902 L355.71 485.98 L347.026 517.726 L338.07 561.663 L329.386 604.658 L320.431 648.418 L311.747 660.433 L303.063 691.826 
  L294.107 724.513 L285.423 734.644 L276.467 736.293 L267.783 738.295 L259.099 740.475 L250.144 743.125 L241.46 759.498 L232.504 756.023  Z
  " fill="#808080" fill-rule="evenodd" fill-opacity="0.3"/>
<polyline clip-path="url(#clip492)" style="stroke:#808080; stroke-linecap:butt; stroke-linejoin:round; stroke-width:8; stroke-opacity:0.8; fill:none" points="
  232.504,757.555 241.46,762.679 250.144,750.546 259.099,746.776 267.783,743.714 276.467,741.063 285.423,738.884 294.107,729.991 303.063,705.195 311.747,677.631 
  320.431,667.619 329.386,627.981 338.07,586.635 347.026,543.582 355.71,510.894 364.394,450.407 376.606,329.55 385.29,264.587 393.974,221.709 402.658,184.133 
  411.342,144.79 420.026,120.819 428.711,130.125 437.395,126.296 446.079,120.937 455.034,132.657 463.718,174.003 472.402,187.608 481.087,224.772 491.128,241.145 
  504.154,257.519 517.451,271.831 530.749,289.736 543.775,315.356 557.072,332.613 570.37,339.857 583.667,361.708 596.694,384.324 609.991,388.565 623.289,390.096 
  636.586,407.294 649.612,407.471 662.91,418.426 676.207,425.375 689.234,430.794 702.531,447.638 715.829,468.194 728.855,470.785 742.152,459.359 755.45,475.084 
  768.476,485.391 781.773,492.106 795.071,502 808.369,502.825 821.395,520.317 834.692,543.405 847.99,561.663 861.016,548.765 874.042,547.469 887.34,552.416 
  900.637,553.653 913.935,556.362 926.961,546.35 940.258,549.177 953.556,559.778 966.853,567.788 979.879,574.09 993.177,569.673 1006.47,570.144 1019.77,590.169 
  1033.07,604.776 1046.37,629.513 1059.66,636.875 1072.69,646.828 1085.99,647.712 1099.29,681.931 1112.58,691.943 1125.88,684.64 1142.71,703.664 1160.07,726.693 
  1178.53,709.671 1196.98,689.882 1215.44,685.17 1233.62,671.035 1252.07,669.916 1270.53,629.748 1288.98,638.936 1307.43,644.001 1325.89,670.21 1344.34,680.341 
  1362.79,628.276 1381.25,603.48 1399.7,613.434 1417.88,640.114 1436.34,660.021 1454.79,648.89 1473.24,637.464 1491.7,647.653 1510.15,661.022 
  "/>
<circle clip-path="url(#clip492)" cx="232.504" cy="757.555" r="12" fill="#808080" fill-rule="evenodd" fill-opacity="0.8" stroke="#000000" stroke-opacity="0.8" stroke-width="2"/>
<circle clip-path="url(#clip492)" cx="241.46" cy="762.679" r="12" fill="#808080" fill-rule="evenodd" fill-opacity="0.8" stroke="#000000" stroke-opacity="0.8" stroke-width="2"/>
<circle clip-path="url(#clip492)" cx="250.144" cy="750.546" r="12" fill="#808080" fill-rule="evenodd" fill-opacity="0.8" stroke="#000000" stroke-opacity="0.8" stroke-width="2"/>
<circle clip-path="url(#clip492)" cx="259.099" cy="746.776" r="12" fill="#808080" fill-rule="evenodd" fill-opacity="0.8" stroke="#000000" stroke-opacity="0.8" stroke-width="2"/>
<circle clip-path="url(#clip492)" cx="267.783" cy="743.714" r="12" fill="#808080" fill-rule="evenodd" fill-opacity="0.8" stroke="#000000" stroke-opacity="0.8" stroke-width="2"/>
<circle clip-path="url(#clip492)" cx="276.467" cy="741.063" r="12" fill="#808080" fill-rule="evenodd" fill-opacity="0.8" stroke="#000000" stroke-opacity="0.8" stroke-width="2"/>
<circle clip-path="url(#clip492)" cx="285.423" cy="738.884" r="12" fill="#808080" fill-rule="evenodd" fill-opacity="0.8" stroke="#000000" stroke-opacity="0.8" stroke-width="2"/>
<circle clip-path="url(#clip492)" cx="294.107" cy="729.991" r="12" fill="#808080" fill-rule="evenodd" fill-opacity="0.8" stroke="#000000" stroke-opacity="0.8" stroke-width="2"/>
<circle clip-path="url(#clip492)" cx="303.063" cy="705.195" r="12" fill="#808080" fill-rule="evenodd" fill-opacity="0.8" stroke="#000000" stroke-opacity="0.8" stroke-width="2"/>
<circle clip-path="url(#clip492)" cx="311.747" cy="677.631" r="12" fill="#808080" fill-rule="evenodd" fill-opacity="0.8" stroke="#000000" stroke-opacity="0.8" stroke-width="2"/>
<circle clip-path="url(#clip492)" cx="320.431" cy="667.619" r="12" fill="#808080" fill-rule="evenodd" fill-opacity="0.8" stroke="#000000" stroke-opacity="0.8" stroke-width="2"/>
<circle clip-path="url(#clip492)" cx="329.386" cy="627.981" r="12" fill="#808080" fill-rule="evenodd" fill-opacity="0.8" stroke="#000000" stroke-opacity="0.8" stroke-width="2"/>
<circle clip-path="url(#clip492)" cx="338.07" cy="586.635" r="12" fill="#808080" fill-rule="evenodd" fill-opacity="0.8" stroke="#000000" stroke-opacity="0.8" stroke-width="2"/>
<circle clip-path="url(#clip492)" cx="347.026" cy="543.582" r="12" fill="#808080" fill-rule="evenodd" fill-opacity="0.8" stroke="#000000" stroke-opacity="0.8" stroke-width="2"/>
<circle clip-path="url(#clip492)" cx="355.71" cy="510.894" r="12" fill="#808080" fill-rule="evenodd" fill-opacity="0.8" stroke="#000000" stroke-opacity="0.8" stroke-width="2"/>
<circle clip-path="url(#clip492)" cx="364.394" cy="450.407" r="12" fill="#808080" fill-rule="evenodd" fill-opacity="0.8" stroke="#000000" stroke-opacity="0.8" stroke-width="2"/>
<circle clip-path="url(#clip492)" cx="376.606" cy="329.55" r="12" fill="#808080" fill-rule="evenodd" fill-opacity="0.8" stroke="#000000" stroke-opacity="0.8" stroke-width="2"/>
<circle clip-path="url(#clip492)" cx="385.29" cy="264.587" r="12" fill="#808080" fill-rule="evenodd" fill-opacity="0.8" stroke="#000000" stroke-opacity="0.8" stroke-width="2"/>
<circle clip-path="url(#clip492)" cx="393.974" cy="221.709" r="12" fill="#808080" fill-rule="evenodd" fill-opacity="0.8" stroke="#000000" stroke-opacity="0.8" stroke-width="2"/>
<circle clip-path="url(#clip492)" cx="402.658" cy="184.133" r="12" fill="#808080" fill-rule="evenodd" fill-opacity="0.8" stroke="#000000" stroke-opacity="0.8" stroke-width="2"/>
<circle clip-path="url(#clip492)" cx="411.342" cy="144.79" r="12" fill="#808080" fill-rule="evenodd" fill-opacity="0.8" stroke="#000000" stroke-opacity="0.8" stroke-width="2"/>
<circle clip-path="url(#clip492)" cx="420.026" cy="120.819" r="12" fill="#808080" fill-rule="evenodd" fill-opacity="0.8" stroke="#000000" stroke-opacity="0.8" stroke-width="2"/>
<circle clip-path="url(#clip492)" cx="428.711" cy="130.125" r="12" fill="#808080" fill-rule="evenodd" fill-opacity="0.8" stroke="#000000" stroke-opacity="0.8" stroke-width="2"/>
<circle clip-path="url(#clip492)" cx="437.395" cy="126.296" r="12" fill="#808080" fill-rule="evenodd" fill-opacity="0.8" stroke="#000000" stroke-opacity="0.8" stroke-width="2"/>
<circle clip-path="url(#clip492)" cx="446.079" cy="120.937" r="12" fill="#808080" fill-rule="evenodd" fill-opacity="0.8" stroke="#000000" stroke-opacity="0.8" stroke-width="2"/>
<circle clip-path="url(#clip492)" cx="455.034" cy="132.657" r="12" fill="#808080" fill-rule="evenodd" fill-opacity="0.8" stroke="#000000" stroke-opacity="0.8" stroke-width="2"/>
<circle clip-path="url(#clip492)" cx="463.718" cy="174.003" r="12" fill="#808080" fill-rule="evenodd" fill-opacity="0.8" stroke="#000000" stroke-opacity="0.8" stroke-width="2"/>
<circle clip-path="url(#clip492)" cx="472.402" cy="187.608" r="12" fill="#808080" fill-rule="evenodd" fill-opacity="0.8" stroke="#000000" stroke-opacity="0.8" stroke-width="2"/>
<circle clip-path="url(#clip492)" cx="481.087" cy="224.772" r="12" fill="#808080" fill-rule="evenodd" fill-opacity="0.8" stroke="#000000" stroke-opacity="0.8" stroke-width="2"/>
<circle clip-path="url(#clip492)" cx="491.128" cy="241.145" r="12" fill="#808080" fill-rule="evenodd" fill-opacity="0.8" stroke="#000000" stroke-opacity="0.8" stroke-width="2"/>
<circle clip-path="url(#clip492)" cx="504.154" cy="257.519" r="12" fill="#808080" fill-rule="evenodd" fill-opacity="0.8" stroke="#000000" stroke-opacity="0.8" stroke-width="2"/>
<circle clip-path="url(#clip492)" cx="517.451" cy="271.831" r="12" fill="#808080" fill-rule="evenodd" fill-opacity="0.8" stroke="#000000" stroke-opacity="0.8" stroke-width="2"/>
<circle clip-path="url(#clip492)" cx="530.749" cy="289.736" r="12" fill="#808080" fill-rule="evenodd" fill-opacity="0.8" stroke="#000000" stroke-opacity="0.8" stroke-width="2"/>
<circle clip-path="url(#clip492)" cx="543.775" cy="315.356" r="12" fill="#808080" fill-rule="evenodd" fill-opacity="0.8" stroke="#000000" stroke-opacity="0.8" stroke-width="2"/>
<circle clip-path="url(#clip492)" cx="557.072" cy="332.613" r="12" fill="#808080" fill-rule="evenodd" fill-opacity="0.8" stroke="#000000" stroke-opacity="0.8" stroke-width="2"/>
<circle clip-path="url(#clip492)" cx="570.37" cy="339.857" r="12" fill="#808080" fill-rule="evenodd" fill-opacity="0.8" stroke="#000000" stroke-opacity="0.8" stroke-width="2"/>
<circle clip-path="url(#clip492)" cx="583.667" cy="361.708" r="12" fill="#808080" fill-rule="evenodd" fill-opacity="0.8" stroke="#000000" stroke-opacity="0.8" stroke-width="2"/>
<circle clip-path="url(#clip492)" cx="596.694" cy="384.324" r="12" fill="#808080" fill-rule="evenodd" fill-opacity="0.8" stroke="#000000" stroke-opacity="0.8" stroke-width="2"/>
<circle clip-path="url(#clip492)" cx="609.991" cy="388.565" r="12" fill="#808080" fill-rule="evenodd" fill-opacity="0.8" stroke="#000000" stroke-opacity="0.8" stroke-width="2"/>
<circle clip-path="url(#clip492)" cx="623.289" cy="390.096" r="12" fill="#808080" fill-rule="evenodd" fill-opacity="0.8" stroke="#000000" stroke-opacity="0.8" stroke-width="2"/>
<circle clip-path="url(#clip492)" cx="636.586" cy="407.294" r="12" fill="#808080" fill-rule="evenodd" fill-opacity="0.8" stroke="#000000" stroke-opacity="0.8" stroke-width="2"/>
<circle clip-path="url(#clip492)" cx="649.612" cy="407.471" r="12" fill="#808080" fill-rule="evenodd" fill-opacity="0.8" stroke="#000000" stroke-opacity="0.8" stroke-width="2"/>
<circle clip-path="url(#clip492)" cx="662.91" cy="418.426" r="12" fill="#808080" fill-rule="evenodd" fill-opacity="0.8" stroke="#000000" stroke-opacity="0.8" stroke-width="2"/>
<circle clip-path="url(#clip492)" cx="676.207" cy="425.375" r="12" fill="#808080" fill-rule="evenodd" fill-opacity="0.8" stroke="#000000" stroke-opacity="0.8" stroke-width="2"/>
<circle clip-path="url(#clip492)" cx="689.234" cy="430.794" r="12" fill="#808080" fill-rule="evenodd" fill-opacity="0.8" stroke="#000000" stroke-opacity="0.8" stroke-width="2"/>
<circle clip-path="url(#clip492)" cx="702.531" cy="447.638" r="12" fill="#808080" fill-rule="evenodd" fill-opacity="0.8" stroke="#000000" stroke-opacity="0.8" stroke-width="2"/>
<circle clip-path="url(#clip492)" cx="715.829" cy="468.194" r="12" fill="#808080" fill-rule="evenodd" fill-opacity="0.8" stroke="#000000" stroke-opacity="0.8" stroke-width="2"/>
<circle clip-path="url(#clip492)" cx="728.855" cy="470.785" r="12" fill="#808080" fill-rule="evenodd" fill-opacity="0.8" stroke="#000000" stroke-opacity="0.8" stroke-width="2"/>
<circle clip-path="url(#clip492)" cx="742.152" cy="459.359" r="12" fill="#808080" fill-rule="evenodd" fill-opacity="0.8" stroke="#000000" stroke-opacity="0.8" stroke-width="2"/>
<circle clip-path="url(#clip492)" cx="755.45" cy="475.084" r="12" fill="#808080" fill-rule="evenodd" fill-opacity="0.8" stroke="#000000" stroke-opacity="0.8" stroke-width="2"/>
<circle clip-path="url(#clip492)" cx="768.476" cy="485.391" r="12" fill="#808080" fill-rule="evenodd" fill-opacity="0.8" stroke="#000000" stroke-opacity="0.8" stroke-width="2"/>
<circle clip-path="url(#clip492)" cx="781.773" cy="492.106" r="12" fill="#808080" fill-rule="evenodd" fill-opacity="0.8" stroke="#000000" stroke-opacity="0.8" stroke-width="2"/>
<circle clip-path="url(#clip492)" cx="795.071" cy="502" r="12" fill="#808080" fill-rule="evenodd" fill-opacity="0.8" stroke="#000000" stroke-opacity="0.8" stroke-width="2"/>
<circle clip-path="url(#clip492)" cx="808.369" cy="502.825" r="12" fill="#808080" fill-rule="evenodd" fill-opacity="0.8" stroke="#000000" stroke-opacity="0.8" stroke-width="2"/>
<circle clip-path="url(#clip492)" cx="821.395" cy="520.317" r="12" fill="#808080" fill-rule="evenodd" fill-opacity="0.8" stroke="#000000" stroke-opacity="0.8" stroke-width="2"/>
<circle clip-path="url(#clip492)" cx="834.692" cy="543.405" r="12" fill="#808080" fill-rule="evenodd" fill-opacity="0.8" stroke="#000000" stroke-opacity="0.8" stroke-width="2"/>
<circle clip-path="url(#clip492)" cx="847.99" cy="561.663" r="12" fill="#808080" fill-rule="evenodd" fill-opacity="0.8" stroke="#000000" stroke-opacity="0.8" stroke-width="2"/>
<circle clip-path="url(#clip492)" cx="861.016" cy="548.765" r="12" fill="#808080" fill-rule="evenodd" fill-opacity="0.8" stroke="#000000" stroke-opacity="0.8" stroke-width="2"/>
<circle clip-path="url(#clip492)" cx="874.042" cy="547.469" r="12" fill="#808080" fill-rule="evenodd" fill-opacity="0.8" stroke="#000000" stroke-opacity="0.8" stroke-width="2"/>
<circle clip-path="url(#clip492)" cx="887.34" cy="552.416" r="12" fill="#808080" fill-rule="evenodd" fill-opacity="0.8" stroke="#000000" stroke-opacity="0.8" stroke-width="2"/>
<circle clip-path="url(#clip492)" cx="900.637" cy="553.653" r="12" fill="#808080" fill-rule="evenodd" fill-opacity="0.8" stroke="#000000" stroke-opacity="0.8" stroke-width="2"/>
<circle clip-path="url(#clip492)" cx="913.935" cy="556.362" r="12" fill="#808080" fill-rule="evenodd" fill-opacity="0.8" stroke="#000000" stroke-opacity="0.8" stroke-width="2"/>
<circle clip-path="url(#clip492)" cx="926.961" cy="546.35" r="12" fill="#808080" fill-rule="evenodd" fill-opacity="0.8" stroke="#000000" stroke-opacity="0.8" stroke-width="2"/>
<circle clip-path="url(#clip492)" cx="940.258" cy="549.177" r="12" fill="#808080" fill-rule="evenodd" fill-opacity="0.8" stroke="#000000" stroke-opacity="0.8" stroke-width="2"/>
<circle clip-path="url(#clip492)" cx="953.556" cy="559.778" r="12" fill="#808080" fill-rule="evenodd" fill-opacity="0.8" stroke="#000000" stroke-opacity="0.8" stroke-width="2"/>
<circle clip-path="url(#clip492)" cx="966.853" cy="567.788" r="12" fill="#808080" fill-rule="evenodd" fill-opacity="0.8" stroke="#000000" stroke-opacity="0.8" stroke-width="2"/>
<circle clip-path="url(#clip492)" cx="979.879" cy="574.09" r="12" fill="#808080" fill-rule="evenodd" fill-opacity="0.8" stroke="#000000" stroke-opacity="0.8" stroke-width="2"/>
<circle clip-path="url(#clip492)" cx="993.177" cy="569.673" r="12" fill="#808080" fill-rule="evenodd" fill-opacity="0.8" stroke="#000000" stroke-opacity="0.8" stroke-width="2"/>
<circle clip-path="url(#clip492)" cx="1006.47" cy="570.144" r="12" fill="#808080" fill-rule="evenodd" fill-opacity="0.8" stroke="#000000" stroke-opacity="0.8" stroke-width="2"/>
<circle clip-path="url(#clip492)" cx="1019.77" cy="590.169" r="12" fill="#808080" fill-rule="evenodd" fill-opacity="0.8" stroke="#000000" stroke-opacity="0.8" stroke-width="2"/>
<circle clip-path="url(#clip492)" cx="1033.07" cy="604.776" r="12" fill="#808080" fill-rule="evenodd" fill-opacity="0.8" stroke="#000000" stroke-opacity="0.8" stroke-width="2"/>
<circle clip-path="url(#clip492)" cx="1046.37" cy="629.513" r="12" fill="#808080" fill-rule="evenodd" fill-opacity="0.8" stroke="#000000" stroke-opacity="0.8" stroke-width="2"/>
<circle clip-path="url(#clip492)" cx="1059.66" cy="636.875" r="12" fill="#808080" fill-rule="evenodd" fill-opacity="0.8" stroke="#000000" stroke-opacity="0.8" stroke-width="2"/>
<circle clip-path="url(#clip492)" cx="1072.69" cy="646.828" r="12" fill="#808080" fill-rule="evenodd" fill-opacity="0.8" stroke="#000000" stroke-opacity="0.8" stroke-width="2"/>
<circle clip-path="url(#clip492)" cx="1085.99" cy="647.712" r="12" fill="#808080" fill-rule="evenodd" fill-opacity="0.8" stroke="#000000" stroke-opacity="0.8" stroke-width="2"/>
<circle clip-path="url(#clip492)" cx="1099.29" cy="681.931" r="12" fill="#808080" fill-rule="evenodd" fill-opacity="0.8" stroke="#000000" stroke-opacity="0.8" stroke-width="2"/>
<circle clip-path="url(#clip492)" cx="1112.58" cy="691.943" r="12" fill="#808080" fill-rule="evenodd" fill-opacity="0.8" stroke="#000000" stroke-opacity="0.8" stroke-width="2"/>
<circle clip-path="url(#clip492)" cx="1125.88" cy="684.64" r="12" fill="#808080" fill-rule="evenodd" fill-opacity="0.8" stroke="#000000" stroke-opacity="0.8" stroke-width="2"/>
<circle clip-path="url(#clip492)" cx="1142.71" cy="703.664" r="12" fill="#808080" fill-rule="evenodd" fill-opacity="0.8" stroke="#000000" stroke-opacity="0.8" stroke-width="2"/>
<circle clip-path="url(#clip492)" cx="1160.07" cy="726.693" r="12" fill="#808080" fill-rule="evenodd" fill-opacity="0.8" stroke="#000000" stroke-opacity="0.8" stroke-width="2"/>
<circle clip-path="url(#clip492)" cx="1178.53" cy="709.671" r="12" fill="#808080" fill-rule="evenodd" fill-opacity="0.8" stroke="#000000" stroke-opacity="0.8" stroke-width="2"/>
<circle clip-path="url(#clip492)" cx="1196.98" cy="689.882" r="12" fill="#808080" fill-rule="evenodd" fill-opacity="0.8" stroke="#000000" stroke-opacity="0.8" stroke-width="2"/>
<circle clip-path="url(#clip492)" cx="1215.44" cy="685.17" r="12" fill="#808080" fill-rule="evenodd" fill-opacity="0.8" stroke="#000000" stroke-opacity="0.8" stroke-width="2"/>
<circle clip-path="url(#clip492)" cx="1233.62" cy="671.035" r="12" fill="#808080" fill-rule="evenodd" fill-opacity="0.8" stroke="#000000" stroke-opacity="0.8" stroke-width="2"/>
<circle clip-path="url(#clip492)" cx="1252.07" cy="669.916" r="12" fill="#808080" fill-rule="evenodd" fill-opacity="0.8" stroke="#000000" stroke-opacity="0.8" stroke-width="2"/>
<circle clip-path="url(#clip492)" cx="1270.53" cy="629.748" r="12" fill="#808080" fill-rule="evenodd" fill-opacity="0.8" stroke="#000000" stroke-opacity="0.8" stroke-width="2"/>
<circle clip-path="url(#clip492)" cx="1288.98" cy="638.936" r="12" fill="#808080" fill-rule="evenodd" fill-opacity="0.8" stroke="#000000" stroke-opacity="0.8" stroke-width="2"/>
<circle clip-path="url(#clip492)" cx="1307.43" cy="644.001" r="12" fill="#808080" fill-rule="evenodd" fill-opacity="0.8" stroke="#000000" stroke-opacity="0.8" stroke-width="2"/>
<circle clip-path="url(#clip492)" cx="1325.89" cy="670.21" r="12" fill="#808080" fill-rule="evenodd" fill-opacity="0.8" stroke="#000000" stroke-opacity="0.8" stroke-width="2"/>
<circle clip-path="url(#clip492)" cx="1344.34" cy="680.341" r="12" fill="#808080" fill-rule="evenodd" fill-opacity="0.8" stroke="#000000" stroke-opacity="0.8" stroke-width="2"/>
<circle clip-path="url(#clip492)" cx="1362.79" cy="628.276" r="12" fill="#808080" fill-rule="evenodd" fill-opacity="0.8" stroke="#000000" stroke-opacity="0.8" stroke-width="2"/>
<circle clip-path="url(#clip492)" cx="1381.25" cy="603.48" r="12" fill="#808080" fill-rule="evenodd" fill-opacity="0.8" stroke="#000000" stroke-opacity="0.8" stroke-width="2"/>
<circle clip-path="url(#clip492)" cx="1399.7" cy="613.434" r="12" fill="#808080" fill-rule="evenodd" fill-opacity="0.8" stroke="#000000" stroke-opacity="0.8" stroke-width="2"/>
<circle clip-path="url(#clip492)" cx="1417.88" cy="640.114" r="12" fill="#808080" fill-rule="evenodd" fill-opacity="0.8" stroke="#000000" stroke-opacity="0.8" stroke-width="2"/>
<circle clip-path="url(#clip492)" cx="1436.34" cy="660.021" r="12" fill="#808080" fill-rule="evenodd" fill-opacity="0.8" stroke="#000000" stroke-opacity="0.8" stroke-width="2"/>
<circle clip-path="url(#clip492)" cx="1454.79" cy="648.89" r="12" fill="#808080" fill-rule="evenodd" fill-opacity="0.8" stroke="#000000" stroke-opacity="0.8" stroke-width="2"/>
<circle clip-path="url(#clip492)" cx="1473.24" cy="637.464" r="12" fill="#808080" fill-rule="evenodd" fill-opacity="0.8" stroke="#000000" stroke-opacity="0.8" stroke-width="2"/>
<circle clip-path="url(#clip492)" cx="1491.7" cy="647.653" r="12" fill="#808080" fill-rule="evenodd" fill-opacity="0.8" stroke="#000000" stroke-opacity="0.8" stroke-width="2"/>
<circle clip-path="url(#clip492)" cx="1510.15" cy="661.022" r="12" fill="#808080" fill-rule="evenodd" fill-opacity="0.8" stroke="#000000" stroke-opacity="0.8" stroke-width="2"/>
<path clip-path="url(#clip492)" d="
M235.489 809.855 L244.445 812.034 L253.129 808.559 L261.813 799.489 L270.769 787.887 L279.453 767.921 L288.408 753.373 L297.092 737.589 L305.776 713.441 L314.732 679.222 
  L323.416 666.618 L332.371 635.108 L341.055 594.94 L350.011 557.246 L358.695 513.957 L367.379 464.424 L379.591 358.527 L388.275 288.204 L396.959 225.656 L405.643 162.754 
  L414.328 120.23 L423.012 107.155 L431.696 137.899 L440.38 166.7 L449.064 185.076 L457.748 212.168 L466.432 243.737 L475.116 259.521 L483.8 274.246 L493.841 291.031 
  L507.139 306.816 L520.436 308.288 L533.734 302.987 L546.76 324.838 L560.058 339.621 L573.355 354.522 L586.653 365.889 L599.679 380.673 L612.976 391.981 L626.274 405.233 
  L639.3 416.305 L652.598 429.321 L665.895 443.869 L679.193 445.106 L692.219 464.895 L705.516 482.859 L718.542 497.406 L731.84 497.819 L745.137 506.064 L758.435 515.841 
  L771.461 523.262 L784.759 525.618 L798.056 515.488 L811.354 512.955 L824.38 527.68 L837.677 541.344 L850.975 538.752 L863.73 541.992 L877.027 551.886 L890.325 557.069 
  L903.622 562.252 L916.648 567.788 L929.946 568.436 L943.243 587.401 L956.541 598.768 L969.838 612.786 L982.865 616.378 L996.162 619.088 L1009.46 623.093 L1022.76 619.559 
  L1036.05 614.023 L1049.35 603.303 L1062.38 598.003 L1075.68 584.692 L1088.97 586.046 L1102.27 582.1 L1115.57 605.659 L1128.59 641.469 L1146.51 679.752 L1163.87 695.183 
  L1182.33 698.363 L1200.78 686.466 L1219.23 640.408 L1237.69 625.508 L1256.14 635.402 L1274.6 651.658 L1293.05 658.136 L1311.5 653.012 L1329.96 625.036 L1348.41 629.454 
  L1366.59 639.525 L1385.05 661.847 L1403.5 678.279 L1421.95 687.526 L1440.41 696.302 L1458.86 709.082 L1477.32 719.448 L1495.77 766.271 L1514.22 790.596 L1514.22 746.423 
  L1495.77 732.582 L1477.32 709.671 L1458.86 700.366 L1440.41 693.828 L1421.95 669.857 L1403.5 663.791 L1385.05 644.767 L1366.59 612.55 L1348.41 604.01 L1329.96 602.538 
  L1311.5 626.627 L1293.05 643.648 L1274.6 635.167 L1256.14 620.678 L1237.69 617.262 L1219.23 629.571 L1200.78 661.14 L1182.33 682.108 L1163.87 668.797 L1146.51 650.657 
  L1128.59 608.251 L1115.57 578.684 L1102.27 568.083 L1088.97 569.438 L1075.68 571.852 L1062.38 583.985 L1049.35 591.171 L1036.05 602.597 L1022.76 607.897 L1009.46 612.845 
  L996.162 609.193 L982.865 604.599 L969.838 598.65 L956.541 585.929 L943.243 569.732 L929.946 556.303 L916.648 556.009 L903.622 550.708 L890.325 545.172 L877.027 537.869 
  L863.73 523.969 L850.975 521.201 L837.677 523.321 L824.38 510.835 L811.354 497.406 L798.056 500.41 L784.759 507.242 L771.461 503.944 L758.435 494.521 L745.137 487.688 
  L731.84 477.44 L718.542 476.91 L705.516 459.064 L692.219 447.108 L679.193 429.557 L665.895 427.967 L652.598 412.006 L639.3 404.172 L626.274 384.03 L612.976 373.369 
  L599.679 359.941 L586.653 349.634 L573.355 333.437 L560.058 322.07 L546.76 301.633 L533.734 278.133 L520.436 285.083 L507.139 282.55 L493.841 260.758 L483.8 238.318 
  L475.116 215.466 L466.432 202.745 L457.748 166.464 L449.064 135.131 L440.38 120.171 L431.696 97.9668 L423.012 76.2927 L414.328 81.9468 L405.643 107.273 L396.959 156.982 
  L388.275 212.227 L379.591 271.242 L367.379 392.216 L358.695 458.947 L350.011 517.667 L341.055 568.083 L332.371 601.536 L323.416 627.51 L314.732 642.47 L305.776 673.509 
  L297.092 698.599 L288.408 718.977 L279.453 731.758 L270.769 765.388 L261.813 777.58 L253.129 783.352 L244.445 779.405 L235.489 767.449  Z
  " fill="#4d4d4d" fill-rule="evenodd" fill-opacity="0.3"/>
<polyline clip-path="url(#clip492)" style="stroke:#4d4d4d; stroke-linecap:butt; stroke-linejoin:round; stroke-width:8; stroke-opacity:0.8; fill:none" points="
  235.489,788.652 244.445,795.72 253.129,795.956 261.813,788.534 270.769,776.637 279.453,749.839 288.408,736.175 297.092,718.094 305.776,693.475 314.732,660.846 
  323.416,647.064 332.371,618.322 341.055,581.511 350.011,537.456 358.695,486.452 367.379,428.32 379.591,314.885 388.275,250.216 396.959,191.319 405.643,135.013 
  414.328,101.088 423.012,91.7237 431.696,117.933 440.38,143.435 449.064,160.103 457.748,189.316 466.432,223.241 475.116,237.494 483.8,256.282 493.841,275.895 
  507.139,294.683 520.436,296.685 533.734,290.56 546.76,313.235 560.058,330.846 573.355,343.98 586.653,357.762 599.679,370.307 612.976,382.675 626.274,394.631 
  639.3,410.239 652.598,420.664 665.895,435.918 679.193,437.331 692.219,456.002 705.516,470.962 718.542,487.158 731.84,487.63 745.137,496.876 758.435,505.181 
  771.461,513.603 784.759,516.43 798.056,507.949 811.354,505.181 824.38,519.257 837.677,532.332 850.975,529.977 863.73,532.98 877.027,544.877 890.325,551.121 
  903.622,556.48 916.648,561.899 929.946,562.37 943.243,578.567 956.541,592.348 969.838,605.718 982.865,610.489 996.162,614.14 1009.46,617.969 1022.76,613.728 
  1036.05,608.31 1049.35,597.237 1062.38,590.994 1075.68,578.272 1088.97,577.742 1102.27,575.092 1115.57,592.172 1128.59,624.86 1146.51,665.204 1163.87,681.99 
  1182.33,690.235 1200.78,673.803 1219.23,634.99 1237.69,621.385 1256.14,628.04 1274.6,643.412 1293.05,650.892 1311.5,639.819 1329.96,613.787 1348.41,616.732 
  1366.59,626.038 1385.05,653.307 1403.5,671.035 1421.95,678.692 1440.41,695.065 1458.86,704.724 1477.32,714.56 1495.77,749.427 1514.22,768.509 
  "/>
<circle clip-path="url(#clip492)" cx="235.489" cy="788.652" r="12" fill="#4d4d4d" fill-rule="evenodd" fill-opacity="0.8" stroke="#000000" stroke-opacity="0.8" stroke-width="2"/>
<circle clip-path="url(#clip492)" cx="244.445" cy="795.72" r="12" fill="#4d4d4d" fill-rule="evenodd" fill-opacity="0.8" stroke="#000000" stroke-opacity="0.8" stroke-width="2"/>
<circle clip-path="url(#clip492)" cx="253.129" cy="795.956" r="12" fill="#4d4d4d" fill-rule="evenodd" fill-opacity="0.8" stroke="#000000" stroke-opacity="0.8" stroke-width="2"/>
<circle clip-path="url(#clip492)" cx="261.813" cy="788.534" r="12" fill="#4d4d4d" fill-rule="evenodd" fill-opacity="0.8" stroke="#000000" stroke-opacity="0.8" stroke-width="2"/>
<circle clip-path="url(#clip492)" cx="270.769" cy="776.637" r="12" fill="#4d4d4d" fill-rule="evenodd" fill-opacity="0.8" stroke="#000000" stroke-opacity="0.8" stroke-width="2"/>
<circle clip-path="url(#clip492)" cx="279.453" cy="749.839" r="12" fill="#4d4d4d" fill-rule="evenodd" fill-opacity="0.8" stroke="#000000" stroke-opacity="0.8" stroke-width="2"/>
<circle clip-path="url(#clip492)" cx="288.408" cy="736.175" r="12" fill="#4d4d4d" fill-rule="evenodd" fill-opacity="0.8" stroke="#000000" stroke-opacity="0.8" stroke-width="2"/>
<circle clip-path="url(#clip492)" cx="297.092" cy="718.094" r="12" fill="#4d4d4d" fill-rule="evenodd" fill-opacity="0.8" stroke="#000000" stroke-opacity="0.8" stroke-width="2"/>
<circle clip-path="url(#clip492)" cx="305.776" cy="693.475" r="12" fill="#4d4d4d" fill-rule="evenodd" fill-opacity="0.8" stroke="#000000" stroke-opacity="0.8" stroke-width="2"/>
<circle clip-path="url(#clip492)" cx="314.732" cy="660.846" r="12" fill="#4d4d4d" fill-rule="evenodd" fill-opacity="0.8" stroke="#000000" stroke-opacity="0.8" stroke-width="2"/>
<circle clip-path="url(#clip492)" cx="323.416" cy="647.064" r="12" fill="#4d4d4d" fill-rule="evenodd" fill-opacity="0.8" stroke="#000000" stroke-opacity="0.8" stroke-width="2"/>
<circle clip-path="url(#clip492)" cx="332.371" cy="618.322" r="12" fill="#4d4d4d" fill-rule="evenodd" fill-opacity="0.8" stroke="#000000" stroke-opacity="0.8" stroke-width="2"/>
<circle clip-path="url(#clip492)" cx="341.055" cy="581.511" r="12" fill="#4d4d4d" fill-rule="evenodd" fill-opacity="0.8" stroke="#000000" stroke-opacity="0.8" stroke-width="2"/>
<circle clip-path="url(#clip492)" cx="350.011" cy="537.456" r="12" fill="#4d4d4d" fill-rule="evenodd" fill-opacity="0.8" stroke="#000000" stroke-opacity="0.8" stroke-width="2"/>
<circle clip-path="url(#clip492)" cx="358.695" cy="486.452" r="12" fill="#4d4d4d" fill-rule="evenodd" fill-opacity="0.8" stroke="#000000" stroke-opacity="0.8" stroke-width="2"/>
<circle clip-path="url(#clip492)" cx="367.379" cy="428.32" r="12" fill="#4d4d4d" fill-rule="evenodd" fill-opacity="0.8" stroke="#000000" stroke-opacity="0.8" stroke-width="2"/>
<circle clip-path="url(#clip492)" cx="379.591" cy="314.885" r="12" fill="#4d4d4d" fill-rule="evenodd" fill-opacity="0.8" stroke="#000000" stroke-opacity="0.8" stroke-width="2"/>
<circle clip-path="url(#clip492)" cx="388.275" cy="250.216" r="12" fill="#4d4d4d" fill-rule="evenodd" fill-opacity="0.8" stroke="#000000" stroke-opacity="0.8" stroke-width="2"/>
<circle clip-path="url(#clip492)" cx="396.959" cy="191.319" r="12" fill="#4d4d4d" fill-rule="evenodd" fill-opacity="0.8" stroke="#000000" stroke-opacity="0.8" stroke-width="2"/>
<circle clip-path="url(#clip492)" cx="405.643" cy="135.013" r="12" fill="#4d4d4d" fill-rule="evenodd" fill-opacity="0.8" stroke="#000000" stroke-opacity="0.8" stroke-width="2"/>
<circle clip-path="url(#clip492)" cx="414.328" cy="101.088" r="12" fill="#4d4d4d" fill-rule="evenodd" fill-opacity="0.8" stroke="#000000" stroke-opacity="0.8" stroke-width="2"/>
<circle clip-path="url(#clip492)" cx="423.012" cy="91.7237" r="12" fill="#4d4d4d" fill-rule="evenodd" fill-opacity="0.8" stroke="#000000" stroke-opacity="0.8" stroke-width="2"/>
<circle clip-path="url(#clip492)" cx="431.696" cy="117.933" r="12" fill="#4d4d4d" fill-rule="evenodd" fill-opacity="0.8" stroke="#000000" stroke-opacity="0.8" stroke-width="2"/>
<circle clip-path="url(#clip492)" cx="440.38" cy="143.435" r="12" fill="#4d4d4d" fill-rule="evenodd" fill-opacity="0.8" stroke="#000000" stroke-opacity="0.8" stroke-width="2"/>
<circle clip-path="url(#clip492)" cx="449.064" cy="160.103" r="12" fill="#4d4d4d" fill-rule="evenodd" fill-opacity="0.8" stroke="#000000" stroke-opacity="0.8" stroke-width="2"/>
<circle clip-path="url(#clip492)" cx="457.748" cy="189.316" r="12" fill="#4d4d4d" fill-rule="evenodd" fill-opacity="0.8" stroke="#000000" stroke-opacity="0.8" stroke-width="2"/>
<circle clip-path="url(#clip492)" cx="466.432" cy="223.241" r="12" fill="#4d4d4d" fill-rule="evenodd" fill-opacity="0.8" stroke="#000000" stroke-opacity="0.8" stroke-width="2"/>
<circle clip-path="url(#clip492)" cx="475.116" cy="237.494" r="12" fill="#4d4d4d" fill-rule="evenodd" fill-opacity="0.8" stroke="#000000" stroke-opacity="0.8" stroke-width="2"/>
<circle clip-path="url(#clip492)" cx="483.8" cy="256.282" r="12" fill="#4d4d4d" fill-rule="evenodd" fill-opacity="0.8" stroke="#000000" stroke-opacity="0.8" stroke-width="2"/>
<circle clip-path="url(#clip492)" cx="493.841" cy="275.895" r="12" fill="#4d4d4d" fill-rule="evenodd" fill-opacity="0.8" stroke="#000000" stroke-opacity="0.8" stroke-width="2"/>
<circle clip-path="url(#clip492)" cx="507.139" cy="294.683" r="12" fill="#4d4d4d" fill-rule="evenodd" fill-opacity="0.8" stroke="#000000" stroke-opacity="0.8" stroke-width="2"/>
<circle clip-path="url(#clip492)" cx="520.436" cy="296.685" r="12" fill="#4d4d4d" fill-rule="evenodd" fill-opacity="0.8" stroke="#000000" stroke-opacity="0.8" stroke-width="2"/>
<circle clip-path="url(#clip492)" cx="533.734" cy="290.56" r="12" fill="#4d4d4d" fill-rule="evenodd" fill-opacity="0.8" stroke="#000000" stroke-opacity="0.8" stroke-width="2"/>
<circle clip-path="url(#clip492)" cx="546.76" cy="313.235" r="12" fill="#4d4d4d" fill-rule="evenodd" fill-opacity="0.8" stroke="#000000" stroke-opacity="0.8" stroke-width="2"/>
<circle clip-path="url(#clip492)" cx="560.058" cy="330.846" r="12" fill="#4d4d4d" fill-rule="evenodd" fill-opacity="0.8" stroke="#000000" stroke-opacity="0.8" stroke-width="2"/>
<circle clip-path="url(#clip492)" cx="573.355" cy="343.98" r="12" fill="#4d4d4d" fill-rule="evenodd" fill-opacity="0.8" stroke="#000000" stroke-opacity="0.8" stroke-width="2"/>
<circle clip-path="url(#clip492)" cx="586.653" cy="357.762" r="12" fill="#4d4d4d" fill-rule="evenodd" fill-opacity="0.8" stroke="#000000" stroke-opacity="0.8" stroke-width="2"/>
<circle clip-path="url(#clip492)" cx="599.679" cy="370.307" r="12" fill="#4d4d4d" fill-rule="evenodd" fill-opacity="0.8" stroke="#000000" stroke-opacity="0.8" stroke-width="2"/>
<circle clip-path="url(#clip492)" cx="612.976" cy="382.675" r="12" fill="#4d4d4d" fill-rule="evenodd" fill-opacity="0.8" stroke="#000000" stroke-opacity="0.8" stroke-width="2"/>
<circle clip-path="url(#clip492)" cx="626.274" cy="394.631" r="12" fill="#4d4d4d" fill-rule="evenodd" fill-opacity="0.8" stroke="#000000" stroke-opacity="0.8" stroke-width="2"/>
<circle clip-path="url(#clip492)" cx="639.3" cy="410.239" r="12" fill="#4d4d4d" fill-rule="evenodd" fill-opacity="0.8" stroke="#000000" stroke-opacity="0.8" stroke-width="2"/>
<circle clip-path="url(#clip492)" cx="652.598" cy="420.664" r="12" fill="#4d4d4d" fill-rule="evenodd" fill-opacity="0.8" stroke="#000000" stroke-opacity="0.8" stroke-width="2"/>
<circle clip-path="url(#clip492)" cx="665.895" cy="435.918" r="12" fill="#4d4d4d" fill-rule="evenodd" fill-opacity="0.8" stroke="#000000" stroke-opacity="0.8" stroke-width="2"/>
<circle clip-path="url(#clip492)" cx="679.193" cy="437.331" r="12" fill="#4d4d4d" fill-rule="evenodd" fill-opacity="0.8" stroke="#000000" stroke-opacity="0.8" stroke-width="2"/>
<circle clip-path="url(#clip492)" cx="692.219" cy="456.002" r="12" fill="#4d4d4d" fill-rule="evenodd" fill-opacity="0.8" stroke="#000000" stroke-opacity="0.8" stroke-width="2"/>
<circle clip-path="url(#clip492)" cx="705.516" cy="470.962" r="12" fill="#4d4d4d" fill-rule="evenodd" fill-opacity="0.8" stroke="#000000" stroke-opacity="0.8" stroke-width="2"/>
<circle clip-path="url(#clip492)" cx="718.542" cy="487.158" r="12" fill="#4d4d4d" fill-rule="evenodd" fill-opacity="0.8" stroke="#000000" stroke-opacity="0.8" stroke-width="2"/>
<circle clip-path="url(#clip492)" cx="731.84" cy="487.63" r="12" fill="#4d4d4d" fill-rule="evenodd" fill-opacity="0.8" stroke="#000000" stroke-opacity="0.8" stroke-width="2"/>
<circle clip-path="url(#clip492)" cx="745.137" cy="496.876" r="12" fill="#4d4d4d" fill-rule="evenodd" fill-opacity="0.8" stroke="#000000" stroke-opacity="0.8" stroke-width="2"/>
<circle clip-path="url(#clip492)" cx="758.435" cy="505.181" r="12" fill="#4d4d4d" fill-rule="evenodd" fill-opacity="0.8" stroke="#000000" stroke-opacity="0.8" stroke-width="2"/>
<circle clip-path="url(#clip492)" cx="771.461" cy="513.603" r="12" fill="#4d4d4d" fill-rule="evenodd" fill-opacity="0.8" stroke="#000000" stroke-opacity="0.8" stroke-width="2"/>
<circle clip-path="url(#clip492)" cx="784.759" cy="516.43" r="12" fill="#4d4d4d" fill-rule="evenodd" fill-opacity="0.8" stroke="#000000" stroke-opacity="0.8" stroke-width="2"/>
<circle clip-path="url(#clip492)" cx="798.056" cy="507.949" r="12" fill="#4d4d4d" fill-rule="evenodd" fill-opacity="0.8" stroke="#000000" stroke-opacity="0.8" stroke-width="2"/>
<circle clip-path="url(#clip492)" cx="811.354" cy="505.181" r="12" fill="#4d4d4d" fill-rule="evenodd" fill-opacity="0.8" stroke="#000000" stroke-opacity="0.8" stroke-width="2"/>
<circle clip-path="url(#clip492)" cx="824.38" cy="519.257" r="12" fill="#4d4d4d" fill-rule="evenodd" fill-opacity="0.8" stroke="#000000" stroke-opacity="0.8" stroke-width="2"/>
<circle clip-path="url(#clip492)" cx="837.677" cy="532.332" r="12" fill="#4d4d4d" fill-rule="evenodd" fill-opacity="0.8" stroke="#000000" stroke-opacity="0.8" stroke-width="2"/>
<circle clip-path="url(#clip492)" cx="850.975" cy="529.977" r="12" fill="#4d4d4d" fill-rule="evenodd" fill-opacity="0.8" stroke="#000000" stroke-opacity="0.8" stroke-width="2"/>
<circle clip-path="url(#clip492)" cx="863.73" cy="532.98" r="12" fill="#4d4d4d" fill-rule="evenodd" fill-opacity="0.8" stroke="#000000" stroke-opacity="0.8" stroke-width="2"/>
<circle clip-path="url(#clip492)" cx="877.027" cy="544.877" r="12" fill="#4d4d4d" fill-rule="evenodd" fill-opacity="0.8" stroke="#000000" stroke-opacity="0.8" stroke-width="2"/>
<circle clip-path="url(#clip492)" cx="890.325" cy="551.121" r="12" fill="#4d4d4d" fill-rule="evenodd" fill-opacity="0.8" stroke="#000000" stroke-opacity="0.8" stroke-width="2"/>
<circle clip-path="url(#clip492)" cx="903.622" cy="556.48" r="12" fill="#4d4d4d" fill-rule="evenodd" fill-opacity="0.8" stroke="#000000" stroke-opacity="0.8" stroke-width="2"/>
<circle clip-path="url(#clip492)" cx="916.648" cy="561.899" r="12" fill="#4d4d4d" fill-rule="evenodd" fill-opacity="0.8" stroke="#000000" stroke-opacity="0.8" stroke-width="2"/>
<circle clip-path="url(#clip492)" cx="929.946" cy="562.37" r="12" fill="#4d4d4d" fill-rule="evenodd" fill-opacity="0.8" stroke="#000000" stroke-opacity="0.8" stroke-width="2"/>
<circle clip-path="url(#clip492)" cx="943.243" cy="578.567" r="12" fill="#4d4d4d" fill-rule="evenodd" fill-opacity="0.8" stroke="#000000" stroke-opacity="0.8" stroke-width="2"/>
<circle clip-path="url(#clip492)" cx="956.541" cy="592.348" r="12" fill="#4d4d4d" fill-rule="evenodd" fill-opacity="0.8" stroke="#000000" stroke-opacity="0.8" stroke-width="2"/>
<circle clip-path="url(#clip492)" cx="969.838" cy="605.718" r="12" fill="#4d4d4d" fill-rule="evenodd" fill-opacity="0.8" stroke="#000000" stroke-opacity="0.8" stroke-width="2"/>
<circle clip-path="url(#clip492)" cx="982.865" cy="610.489" r="12" fill="#4d4d4d" fill-rule="evenodd" fill-opacity="0.8" stroke="#000000" stroke-opacity="0.8" stroke-width="2"/>
<circle clip-path="url(#clip492)" cx="996.162" cy="614.14" r="12" fill="#4d4d4d" fill-rule="evenodd" fill-opacity="0.8" stroke="#000000" stroke-opacity="0.8" stroke-width="2"/>
<circle clip-path="url(#clip492)" cx="1009.46" cy="617.969" r="12" fill="#4d4d4d" fill-rule="evenodd" fill-opacity="0.8" stroke="#000000" stroke-opacity="0.8" stroke-width="2"/>
<circle clip-path="url(#clip492)" cx="1022.76" cy="613.728" r="12" fill="#4d4d4d" fill-rule="evenodd" fill-opacity="0.8" stroke="#000000" stroke-opacity="0.8" stroke-width="2"/>
<circle clip-path="url(#clip492)" cx="1036.05" cy="608.31" r="12" fill="#4d4d4d" fill-rule="evenodd" fill-opacity="0.8" stroke="#000000" stroke-opacity="0.8" stroke-width="2"/>
<circle clip-path="url(#clip492)" cx="1049.35" cy="597.237" r="12" fill="#4d4d4d" fill-rule="evenodd" fill-opacity="0.8" stroke="#000000" stroke-opacity="0.8" stroke-width="2"/>
<circle clip-path="url(#clip492)" cx="1062.38" cy="590.994" r="12" fill="#4d4d4d" fill-rule="evenodd" fill-opacity="0.8" stroke="#000000" stroke-opacity="0.8" stroke-width="2"/>
<circle clip-path="url(#clip492)" cx="1075.68" cy="578.272" r="12" fill="#4d4d4d" fill-rule="evenodd" fill-opacity="0.8" stroke="#000000" stroke-opacity="0.8" stroke-width="2"/>
<circle clip-path="url(#clip492)" cx="1088.97" cy="577.742" r="12" fill="#4d4d4d" fill-rule="evenodd" fill-opacity="0.8" stroke="#000000" stroke-opacity="0.8" stroke-width="2"/>
<circle clip-path="url(#clip492)" cx="1102.27" cy="575.092" r="12" fill="#4d4d4d" fill-rule="evenodd" fill-opacity="0.8" stroke="#000000" stroke-opacity="0.8" stroke-width="2"/>
<circle clip-path="url(#clip492)" cx="1115.57" cy="592.172" r="12" fill="#4d4d4d" fill-rule="evenodd" fill-opacity="0.8" stroke="#000000" stroke-opacity="0.8" stroke-width="2"/>
<circle clip-path="url(#clip492)" cx="1128.59" cy="624.86" r="12" fill="#4d4d4d" fill-rule="evenodd" fill-opacity="0.8" stroke="#000000" stroke-opacity="0.8" stroke-width="2"/>
<circle clip-path="url(#clip492)" cx="1146.51" cy="665.204" r="12" fill="#4d4d4d" fill-rule="evenodd" fill-opacity="0.8" stroke="#000000" stroke-opacity="0.8" stroke-width="2"/>
<circle clip-path="url(#clip492)" cx="1163.87" cy="681.99" r="12" fill="#4d4d4d" fill-rule="evenodd" fill-opacity="0.8" stroke="#000000" stroke-opacity="0.8" stroke-width="2"/>
<circle clip-path="url(#clip492)" cx="1182.33" cy="690.235" r="12" fill="#4d4d4d" fill-rule="evenodd" fill-opacity="0.8" stroke="#000000" stroke-opacity="0.8" stroke-width="2"/>
<circle clip-path="url(#clip492)" cx="1200.78" cy="673.803" r="12" fill="#4d4d4d" fill-rule="evenodd" fill-opacity="0.8" stroke="#000000" stroke-opacity="0.8" stroke-width="2"/>
<circle clip-path="url(#clip492)" cx="1219.23" cy="634.99" r="12" fill="#4d4d4d" fill-rule="evenodd" fill-opacity="0.8" stroke="#000000" stroke-opacity="0.8" stroke-width="2"/>
<circle clip-path="url(#clip492)" cx="1237.69" cy="621.385" r="12" fill="#4d4d4d" fill-rule="evenodd" fill-opacity="0.8" stroke="#000000" stroke-opacity="0.8" stroke-width="2"/>
<circle clip-path="url(#clip492)" cx="1256.14" cy="628.04" r="12" fill="#4d4d4d" fill-rule="evenodd" fill-opacity="0.8" stroke="#000000" stroke-opacity="0.8" stroke-width="2"/>
<circle clip-path="url(#clip492)" cx="1274.6" cy="643.412" r="12" fill="#4d4d4d" fill-rule="evenodd" fill-opacity="0.8" stroke="#000000" stroke-opacity="0.8" stroke-width="2"/>
<circle clip-path="url(#clip492)" cx="1293.05" cy="650.892" r="12" fill="#4d4d4d" fill-rule="evenodd" fill-opacity="0.8" stroke="#000000" stroke-opacity="0.8" stroke-width="2"/>
<circle clip-path="url(#clip492)" cx="1311.5" cy="639.819" r="12" fill="#4d4d4d" fill-rule="evenodd" fill-opacity="0.8" stroke="#000000" stroke-opacity="0.8" stroke-width="2"/>
<circle clip-path="url(#clip492)" cx="1329.96" cy="613.787" r="12" fill="#4d4d4d" fill-rule="evenodd" fill-opacity="0.8" stroke="#000000" stroke-opacity="0.8" stroke-width="2"/>
<circle clip-path="url(#clip492)" cx="1348.41" cy="616.732" r="12" fill="#4d4d4d" fill-rule="evenodd" fill-opacity="0.8" stroke="#000000" stroke-opacity="0.8" stroke-width="2"/>
<circle clip-path="url(#clip492)" cx="1366.59" cy="626.038" r="12" fill="#4d4d4d" fill-rule="evenodd" fill-opacity="0.8" stroke="#000000" stroke-opacity="0.8" stroke-width="2"/>
<circle clip-path="url(#clip492)" cx="1385.05" cy="653.307" r="12" fill="#4d4d4d" fill-rule="evenodd" fill-opacity="0.8" stroke="#000000" stroke-opacity="0.8" stroke-width="2"/>
<circle clip-path="url(#clip492)" cx="1403.5" cy="671.035" r="12" fill="#4d4d4d" fill-rule="evenodd" fill-opacity="0.8" stroke="#000000" stroke-opacity="0.8" stroke-width="2"/>
<circle clip-path="url(#clip492)" cx="1421.95" cy="678.692" r="12" fill="#4d4d4d" fill-rule="evenodd" fill-opacity="0.8" stroke="#000000" stroke-opacity="0.8" stroke-width="2"/>
<circle clip-path="url(#clip492)" cx="1440.41" cy="695.065" r="12" fill="#4d4d4d" fill-rule="evenodd" fill-opacity="0.8" stroke="#000000" stroke-opacity="0.8" stroke-width="2"/>
<circle clip-path="url(#clip492)" cx="1458.86" cy="704.724" r="12" fill="#4d4d4d" fill-rule="evenodd" fill-opacity="0.8" stroke="#000000" stroke-opacity="0.8" stroke-width="2"/>
<circle clip-path="url(#clip492)" cx="1477.32" cy="714.56" r="12" fill="#4d4d4d" fill-rule="evenodd" fill-opacity="0.8" stroke="#000000" stroke-opacity="0.8" stroke-width="2"/>
<circle clip-path="url(#clip492)" cx="1495.77" cy="749.427" r="12" fill="#4d4d4d" fill-rule="evenodd" fill-opacity="0.8" stroke="#000000" stroke-opacity="0.8" stroke-width="2"/>
<circle clip-path="url(#clip492)" cx="1514.22" cy="768.509" r="12" fill="#4d4d4d" fill-rule="evenodd" fill-opacity="0.8" stroke="#000000" stroke-opacity="0.8" stroke-width="2"/>
<polyline clip-path="url(#clip492)" style="stroke:#e69f00; stroke-linecap:butt; stroke-linejoin:round; stroke-width:12; stroke-opacity:1; fill:none" stroke-dasharray="48, 30" points="
  421.926,1621.38 421.926,-739.822 
  "/>
<path clip-path="url(#clip490)" d="
M1324.43 280.84 L1507.37 280.84 L1507.37 73.4796 L1324.43 73.4796  Z
  " fill="#ffffff" fill-rule="evenodd" fill-opacity="1"/>
<polyline clip-path="url(#clip490)" style="stroke:#000000; stroke-linecap:butt; stroke-linejoin:round; stroke-width:4; stroke-opacity:1; fill:none" points="
  1324.43,280.84 1507.37,280.84 1507.37,73.4796 1324.43,73.4796 1324.43,280.84 
  "/>
<polyline clip-path="url(#clip490)" style="stroke:#b3b3b3; stroke-linecap:butt; stroke-linejoin:round; stroke-width:4; stroke-opacity:0.8; fill:none" points="
  1339.56,125.32 1430.32,125.32 
  "/>
<circle clip-path="url(#clip490)" cx="1384.94" cy="125.32" r="23" fill="#b3b3b3" fill-rule="evenodd" fill-opacity="0.8" stroke="#000000" stroke-opacity="0.8" stroke-width="3.65714"/>
<path clip-path="url(#clip490)" d="M1461.28 112.646 L1454.94 129.845 L1467.65 129.845 L1461.28 112.646 M1458.64 108.04 L1463.95 108.04 L1477.12 142.6 L1472.26 142.6 L1469.11 133.734 L1453.53 133.734 L1450.38 142.6 L1445.45 142.6 L1458.64 108.04 Z" fill="#000000" fill-rule="evenodd" fill-opacity="1" /><polyline clip-path="url(#clip490)" style="stroke:#808080; stroke-linecap:butt; stroke-linejoin:round; stroke-width:4; stroke-opacity:0.8; fill:none" points="
  1339.56,177.16 1430.32,177.16 
  "/>
<circle clip-path="url(#clip490)" cx="1384.94" cy="177.16" r="23" fill="#808080" fill-rule="evenodd" fill-opacity="0.8" stroke="#000000" stroke-opacity="0.8" stroke-width="3.65714"/>
<path clip-path="url(#clip490)" d="M1450.13 177.935 L1450.13 190.597 L1457.63 190.597 Q1461.4 190.597 1463.21 189.046 Q1465.03 187.472 1465.03 184.254 Q1465.03 181.014 1463.21 179.486 Q1461.4 177.935 1457.63 177.935 L1450.13 177.935 M1450.13 163.722 L1450.13 174.139 L1457.05 174.139 Q1460.47 174.139 1462.14 172.866 Q1463.83 171.569 1463.83 168.93 Q1463.83 166.315 1462.14 165.018 Q1460.47 163.722 1457.05 163.722 L1450.13 163.722 M1445.45 159.88 L1457.39 159.88 Q1462.74 159.88 1465.64 162.102 Q1468.53 164.324 1468.53 168.421 Q1468.53 171.593 1467.05 173.468 Q1465.57 175.342 1462.7 175.805 Q1466.14 176.546 1468.04 178.907 Q1469.96 181.245 1469.96 184.764 Q1469.96 189.393 1466.82 191.916 Q1463.67 194.44 1457.86 194.44 L1445.45 194.44 L1445.45 159.88 Z" fill="#000000" fill-rule="evenodd" fill-opacity="1" /><polyline clip-path="url(#clip490)" style="stroke:#4d4d4d; stroke-linecap:butt; stroke-linejoin:round; stroke-width:4; stroke-opacity:0.8; fill:none" points="
  1339.56,229 1430.32,229 
  "/>
<circle clip-path="url(#clip490)" cx="1384.94" cy="229" r="23" fill="#4d4d4d" fill-rule="evenodd" fill-opacity="0.8" stroke="#000000" stroke-opacity="0.8" stroke-width="3.65714"/>
<path clip-path="url(#clip490)" d="M1473.32 214.382 L1473.32 219.312 Q1470.96 217.113 1468.27 216.025 Q1465.61 214.937 1462.6 214.937 Q1456.68 214.937 1453.53 218.571 Q1450.38 222.183 1450.38 229.034 Q1450.38 235.863 1453.53 239.497 Q1456.68 243.108 1462.6 243.108 Q1465.61 243.108 1468.27 242.02 Q1470.96 240.932 1473.32 238.733 L1473.32 243.618 Q1470.87 245.284 1468.11 246.118 Q1465.38 246.951 1462.33 246.951 Q1454.48 246.951 1449.96 242.159 Q1445.45 237.344 1445.45 229.034 Q1445.45 220.701 1449.96 215.909 Q1454.48 211.095 1462.33 211.095 Q1465.43 211.095 1468.16 211.928 Q1470.91 212.738 1473.32 214.382 Z" fill="#000000" fill-rule="evenodd" fill-opacity="1" /><g clip-path="url(#clip490)">
<text style="fill:#000000; fill-opacity:1; font-family:Courier,Courier New,Lucida Sans Typewriter,Lucida Typewriter,monospace; font-size:89px; text-anchor:middle;" transform="rotate(0, 367.651, 752.928)" x="367.651" y="752.928">I</text>
</g>
<g clip-path="url(#clip490)">
<text style="fill:#000000; fill-opacity:1; font-family:Courier,Courier New,Lucida Sans Typewriter,Lucida Typewriter,monospace; font-size:89px; text-anchor:middle;" transform="rotate(0, 516.908, 752.928)" x="516.908" y="752.928">II</text>
</g>
</svg>
