<?xml version="1.0" encoding="utf-8"?>
<svg xmlns="http://www.w3.org/2000/svg" xmlns:xlink="http://www.w3.org/1999/xlink" width="800" height="150" viewBox="0 0 3200 600">
<defs>
  <clipPath id="clip380">
    <rect x="0" y="0" width="3200" height="600"/>
  </clipPath>
</defs>
<path clip-path="url(#clip380)" d="
M0 600 L3200 600 L3200 0 L0 0  Z
  " fill="#ffffff" fill-rule="evenodd" fill-opacity="1"/>
<defs>
  <clipPath id="clip381">
    <rect x="640" y="0" width="2241" height="600"/>
  </clipPath>
</defs>
<path clip-path="url(#clip380)" d="
M241.958 429.183 L3152.76 429.183 L3152.76 47.2441 L241.958 47.2441  Z
  " fill="#ffffff" fill-rule="evenodd" fill-opacity="1"/>
<defs>
  <clipPath id="clip382">
    <rect x="241" y="47" width="2912" height="383"/>
  </clipPath>
</defs>
<polyline clip-path="url(#clip380)" style="stroke:#000000; stroke-linecap:butt; stroke-linejoin:round; stroke-width:4; stroke-opacity:1; fill:none" points="
  241.958,429.183 3152.76,429.183 
  "/>
<polyline clip-path="url(#clip380)" style="stroke:#000000; stroke-linecap:butt; stroke-linejoin:round; stroke-width:4; stroke-opacity:1; fill:none" points="
  241.958,429.183 241.958,424.599 
  "/>
<polyline clip-path="url(#clip380)" style="stroke:#000000; stroke-linecap:butt; stroke-linejoin:round; stroke-width:4; stroke-opacity:1; fill:none" points="
  848.374,429.183 848.374,424.599 
  "/>
<polyline clip-path="url(#clip380)" style="stroke:#000000; stroke-linecap:butt; stroke-linejoin:round; stroke-width:4; stroke-opacity:1; fill:none" points="
  1454.79,429.183 1454.79,424.599 
  "/>
<polyline clip-path="url(#clip380)" style="stroke:#000000; stroke-linecap:butt; stroke-linejoin:round; stroke-width:4; stroke-opacity:1; fill:none" points="
  2061.21,429.183 2061.21,424.599 
  "/>
<polyline clip-path="url(#clip380)" style="stroke:#000000; stroke-linecap:butt; stroke-linejoin:round; stroke-width:4; stroke-opacity:1; fill:none" points="
  2667.62,429.183 2667.62,424.599 
  "/>
<path clip-path="url(#clip380)" d="M241.958 464.773 Q238.347 464.773 236.518 468.338 Q234.713 471.88 234.713 479.009 Q234.713 486.116 236.518 489.681 Q238.347 493.222 241.958 493.222 Q245.592 493.222 247.398 489.681 Q249.227 486.116 249.227 479.009 Q249.227 471.88 247.398 468.338 Q245.592 464.773 241.958 464.773 M241.958 461.07 Q247.768 461.07 250.824 465.676 Q253.902 470.259 253.902 479.009 Q253.902 487.736 250.824 492.343 Q247.768 496.926 241.958 496.926 Q236.148 496.926 233.069 492.343 Q230.014 487.736 230.014 479.009 Q230.014 470.259 233.069 465.676 Q236.148 461.07 241.958 461.07 Z" fill="#000000" fill-rule="evenodd" fill-opacity="1" /><path clip-path="url(#clip380)" d="M823.062 492.32 L830.701 492.32 L830.701 465.954 L822.391 467.621 L822.391 463.361 L830.654 461.695 L835.33 461.695 L835.33 492.32 L842.969 492.32 L842.969 496.255 L823.062 496.255 L823.062 492.32 Z" fill="#000000" fill-rule="evenodd" fill-opacity="1" /><path clip-path="url(#clip380)" d="M862.414 464.773 Q858.802 464.773 856.974 468.338 Q855.168 471.88 855.168 479.009 Q855.168 486.116 856.974 489.681 Q858.802 493.222 862.414 493.222 Q866.048 493.222 867.853 489.681 Q869.682 486.116 869.682 479.009 Q869.682 471.88 867.853 468.338 Q866.048 464.773 862.414 464.773 M862.414 461.07 Q868.224 461.07 871.279 465.676 Q874.358 470.259 874.358 479.009 Q874.358 487.736 871.279 492.343 Q868.224 496.926 862.414 496.926 Q856.603 496.926 853.525 492.343 Q850.469 487.736 850.469 479.009 Q850.469 470.259 853.525 465.676 Q856.603 461.07 862.414 461.07 Z" fill="#000000" fill-rule="evenodd" fill-opacity="1" /><path clip-path="url(#clip380)" d="M1433.56 492.32 L1449.88 492.32 L1449.88 496.255 L1427.94 496.255 L1427.94 492.32 Q1430.6 489.565 1435.18 484.935 Q1439.79 480.283 1440.97 478.94 Q1443.22 476.417 1444.1 474.681 Q1445 472.922 1445 471.232 Q1445 468.477 1443.05 466.741 Q1441.13 465.005 1438.03 465.005 Q1435.83 465.005 1433.38 465.769 Q1430.95 466.533 1428.17 468.084 L1428.17 463.361 Q1430.99 462.227 1433.45 461.648 Q1435.9 461.07 1437.94 461.07 Q1443.31 461.07 1446.5 463.755 Q1449.7 466.44 1449.7 470.931 Q1449.7 473.06 1448.89 474.982 Q1448.1 476.88 1445.99 479.472 Q1445.42 480.144 1442.31 483.361 Q1439.21 486.556 1433.56 492.32 Z" fill="#000000" fill-rule="evenodd" fill-opacity="1" /><path clip-path="url(#clip380)" d="M1469.7 464.773 Q1466.09 464.773 1464.26 468.338 Q1462.45 471.88 1462.45 479.009 Q1462.45 486.116 1464.26 489.681 Q1466.09 493.222 1469.7 493.222 Q1473.33 493.222 1475.14 489.681 Q1476.97 486.116 1476.97 479.009 Q1476.97 471.88 1475.14 468.338 Q1473.33 464.773 1469.7 464.773 M1469.7 461.07 Q1475.51 461.07 1478.56 465.676 Q1481.64 470.259 1481.64 479.009 Q1481.64 487.736 1478.56 492.343 Q1475.51 496.926 1469.7 496.926 Q1463.89 496.926 1460.81 492.343 Q1457.75 487.736 1457.75 479.009 Q1457.75 470.259 1460.81 465.676 Q1463.89 461.07 1469.7 461.07 Z" fill="#000000" fill-rule="evenodd" fill-opacity="1" /><path clip-path="url(#clip380)" d="M2050.05 477.621 Q2053.41 478.338 2055.28 480.607 Q2057.18 482.875 2057.18 486.208 Q2057.18 491.324 2053.66 494.125 Q2050.14 496.926 2043.66 496.926 Q2041.48 496.926 2039.17 496.486 Q2036.88 496.07 2034.42 495.213 L2034.42 490.699 Q2036.37 491.833 2038.68 492.412 Q2041 492.991 2043.52 492.991 Q2047.92 492.991 2050.21 491.255 Q2052.53 489.519 2052.53 486.208 Q2052.53 483.153 2050.37 481.44 Q2048.24 479.704 2044.42 479.704 L2040.4 479.704 L2040.4 475.861 L2044.61 475.861 Q2048.06 475.861 2049.89 474.496 Q2051.72 473.107 2051.72 470.514 Q2051.72 467.852 2049.82 466.44 Q2047.94 465.005 2044.42 465.005 Q2042.5 465.005 2040.3 465.422 Q2038.11 465.838 2035.47 466.718 L2035.47 462.551 Q2038.13 461.81 2040.44 461.44 Q2042.78 461.07 2044.84 461.07 Q2050.17 461.07 2053.27 463.5 Q2056.37 465.908 2056.37 470.028 Q2056.37 472.898 2054.73 474.889 Q2053.08 476.857 2050.05 477.621 Z" fill="#000000" fill-rule="evenodd" fill-opacity="1" /><path clip-path="url(#clip380)" d="M2076.04 464.773 Q2072.43 464.773 2070.6 468.338 Q2068.8 471.88 2068.8 479.009 Q2068.8 486.116 2070.6 489.681 Q2072.43 493.222 2076.04 493.222 Q2079.68 493.222 2081.48 489.681 Q2083.31 486.116 2083.31 479.009 Q2083.31 471.88 2081.48 468.338 Q2079.68 464.773 2076.04 464.773 M2076.04 461.07 Q2081.85 461.07 2084.91 465.676 Q2087.99 470.259 2087.99 479.009 Q2087.99 487.736 2084.91 492.343 Q2081.85 496.926 2076.04 496.926 Q2070.23 496.926 2067.16 492.343 Q2064.1 487.736 2064.1 479.009 Q2064.1 470.259 2067.16 465.676 Q2070.23 461.07 2076.04 461.07 Z" fill="#000000" fill-rule="evenodd" fill-opacity="1" /><path clip-path="url(#clip380)" d="M2655.79 465.769 L2643.99 484.218 L2655.79 484.218 L2655.79 465.769 M2654.57 461.695 L2660.45 461.695 L2660.45 484.218 L2665.38 484.218 L2665.38 488.107 L2660.45 488.107 L2660.45 496.255 L2655.79 496.255 L2655.79 488.107 L2640.19 488.107 L2640.19 483.593 L2654.57 461.695 Z" fill="#000000" fill-rule="evenodd" fill-opacity="1" /><path clip-path="url(#clip380)" d="M2683.11 464.773 Q2679.5 464.773 2677.67 468.338 Q2675.86 471.88 2675.86 479.009 Q2675.86 486.116 2677.67 489.681 Q2679.5 493.222 2683.11 493.222 Q2686.74 493.222 2688.55 489.681 Q2690.38 486.116 2690.38 479.009 Q2690.38 471.88 2688.55 468.338 Q2686.74 464.773 2683.11 464.773 M2683.11 461.07 Q2688.92 461.07 2691.97 465.676 Q2695.05 470.259 2695.05 479.009 Q2695.05 487.736 2691.97 492.343 Q2688.92 496.926 2683.11 496.926 Q2677.3 496.926 2674.22 492.343 Q2671.16 487.736 2671.16 479.009 Q2671.16 470.259 2674.22 465.676 Q2677.3 461.07 2683.11 461.07 Z" fill="#000000" fill-rule="evenodd" fill-opacity="1" /><path clip-path="url(#clip380)" d="M1560.81 538.527 L1601.01 538.527 L1601.01 543.938 L1584.14 543.938 L1584.14 586.047 L1577.68 586.047 L1577.68 543.938 L1560.81 543.938 L1560.81 538.527 Z" fill="#000000" fill-rule="evenodd" fill-opacity="1" /><path clip-path="url(#clip380)" d="M1604.96 550.399 L1610.82 550.399 L1610.82 586.047 L1604.96 586.047 L1604.96 550.399 M1604.96 536.522 L1610.82 536.522 L1610.82 543.938 L1604.96 543.938 L1604.96 536.522 Z" fill="#000000" fill-rule="evenodd" fill-opacity="1" /><path clip-path="url(#clip380)" d="M1650.82 557.242 Q1653.02 553.295 1656.08 551.417 Q1659.13 549.539 1663.27 549.539 Q1668.84 549.539 1671.86 553.454 Q1674.89 557.337 1674.89 564.531 L1674.89 586.047 L1669 586.047 L1669 564.722 Q1669 559.597 1667.18 557.115 Q1665.37 554.632 1661.65 554.632 Q1657.09 554.632 1654.45 557.656 Q1651.81 560.679 1651.81 565.899 L1651.81 586.047 L1645.92 586.047 L1645.92 564.722 Q1645.92 559.565 1644.11 557.115 Q1642.29 554.632 1638.51 554.632 Q1634.02 554.632 1631.38 557.687 Q1628.73 560.711 1628.73 565.899 L1628.73 586.047 L1622.85 586.047 L1622.85 550.399 L1628.73 550.399 L1628.73 555.937 Q1630.74 552.659 1633.54 551.099 Q1636.34 549.539 1640.19 549.539 Q1644.08 549.539 1646.78 551.513 Q1649.52 553.486 1650.82 557.242 Z" fill="#000000" fill-rule="evenodd" fill-opacity="1" /><path clip-path="url(#clip380)" d="M1717.06 566.759 L1717.06 569.623 L1690.13 569.623 Q1690.51 575.671 1693.76 578.853 Q1697.04 582.004 1702.86 582.004 Q1706.24 582.004 1709.39 581.177 Q1712.57 580.349 1715.69 578.694 L1715.69 584.232 Q1712.54 585.569 1709.23 586.27 Q1705.92 586.97 1702.51 586.97 Q1693.98 586.97 1688.99 582.004 Q1684.02 577.039 1684.02 568.573 Q1684.02 559.82 1688.73 554.696 Q1693.47 549.539 1701.49 549.539 Q1708.69 549.539 1712.86 554.186 Q1717.06 558.801 1717.06 566.759 M1711.2 565.04 Q1711.14 560.234 1708.5 557.369 Q1705.89 554.505 1701.56 554.505 Q1696.66 554.505 1693.7 557.274 Q1690.77 560.043 1690.32 565.072 L1711.2 565.04 Z" fill="#000000" fill-rule="evenodd" fill-opacity="1" /><path clip-path="url(#clip380)" d="M1726.13 536.522 L1739.63 536.522 L1739.63 541.073 L1731.99 541.073 L1731.99 590.089 L1739.63 590.089 L1739.63 594.64 L1726.13 594.64 L1726.13 536.522 Z" fill="#000000" fill-rule="evenodd" fill-opacity="1" /><path clip-path="url(#clip380)" d="M1781.73 564.531 L1781.73 586.047 L1775.88 586.047 L1775.88 564.722 Q1775.88 559.661 1773.9 557.146 Q1771.93 554.632 1767.98 554.632 Q1763.24 554.632 1760.5 557.656 Q1757.77 560.679 1757.77 565.899 L1757.77 586.047 L1751.88 586.047 L1751.88 536.522 L1757.77 536.522 L1757.77 555.937 Q1759.87 552.722 1762.7 551.131 Q1765.57 549.539 1769.29 549.539 Q1775.43 549.539 1778.58 553.359 Q1781.73 557.146 1781.73 564.531 Z" fill="#000000" fill-rule="evenodd" fill-opacity="1" /><path clip-path="url(#clip380)" d="M1814.07 555.873 Q1813.09 555.3 1811.91 555.046 Q1810.76 554.759 1809.36 554.759 Q1804.4 554.759 1801.72 558.006 Q1799.08 561.22 1799.08 567.268 L1799.08 586.047 L1793.19 586.047 L1793.19 550.399 L1799.08 550.399 L1799.08 555.937 Q1800.93 552.69 1803.89 551.131 Q1806.85 549.539 1811.08 549.539 Q1811.69 549.539 1812.42 549.635 Q1813.15 549.699 1814.04 549.858 L1814.07 555.873 Z" fill="#000000" fill-rule="evenodd" fill-opacity="1" /><path clip-path="url(#clip380)" d="M1833.9 536.522 L1833.9 594.64 L1820.41 594.64 L1820.41 590.089 L1828.01 590.089 L1828.01 541.073 L1820.41 541.073 L1820.41 536.522 L1833.9 536.522 Z" fill="#000000" fill-rule="evenodd" fill-opacity="1" /><polyline clip-path="url(#clip380)" style="stroke:#000000; stroke-linecap:butt; stroke-linejoin:round; stroke-width:4; stroke-opacity:1; fill:none" points="
  241.958,429.183 241.958,47.2441 
  "/>
<polyline clip-path="url(#clip380)" style="stroke:#000000; stroke-linecap:butt; stroke-linejoin:round; stroke-width:4; stroke-opacity:1; fill:none" points="
  241.958,418.793 276.888,418.793 
  "/>
<polyline clip-path="url(#clip380)" style="stroke:#000000; stroke-linecap:butt; stroke-linejoin:round; stroke-width:4; stroke-opacity:1; fill:none" points="
  241.958,324.714 276.888,324.714 
  "/>
<polyline clip-path="url(#clip380)" style="stroke:#000000; stroke-linecap:butt; stroke-linejoin:round; stroke-width:4; stroke-opacity:1; fill:none" points="
  241.958,230.635 276.888,230.635 
  "/>
<polyline clip-path="url(#clip380)" style="stroke:#000000; stroke-linecap:butt; stroke-linejoin:round; stroke-width:4; stroke-opacity:1; fill:none" points="
  241.958,136.556 276.888,136.556 
  "/>
<path clip-path="url(#clip380)" d="M182.014 404.592 Q178.403 404.592 176.574 408.157 Q174.768 411.698 174.768 418.828 Q174.768 425.934 176.574 429.499 Q178.403 433.041 182.014 433.041 Q185.648 433.041 187.454 429.499 Q189.282 425.934 189.282 418.828 Q189.282 411.698 187.454 408.157 Q185.648 404.592 182.014 404.592 M182.014 400.888 Q187.824 400.888 190.879 405.495 Q193.958 410.078 193.958 418.828 Q193.958 427.555 190.879 432.161 Q187.824 436.745 182.014 436.745 Q176.204 436.745 173.125 432.161 Q170.069 427.555 170.069 418.828 Q170.069 410.078 173.125 405.495 Q176.204 400.888 182.014 400.888 Z" fill="#000000" fill-rule="evenodd" fill-opacity="1" /><path clip-path="url(#clip380)" d="M145.88 338.059 L162.199 338.059 L162.199 341.994 L140.255 341.994 L140.255 338.059 Q142.917 335.304 147.5 330.675 Q152.106 326.022 153.287 324.679 Q155.532 322.156 156.412 320.42 Q157.315 318.661 157.315 316.971 Q157.315 314.217 155.37 312.48 Q153.449 310.744 150.347 310.744 Q148.148 310.744 145.694 311.508 Q143.264 312.272 140.486 313.823 L140.486 309.101 Q143.31 307.967 145.764 307.388 Q148.218 306.809 150.255 306.809 Q155.625 306.809 158.819 309.494 Q162.014 312.18 162.014 316.67 Q162.014 318.8 161.204 320.721 Q160.417 322.619 158.31 325.212 Q157.731 325.883 154.63 329.101 Q151.528 332.295 145.88 338.059 Z" fill="#000000" fill-rule="evenodd" fill-opacity="1" /><path clip-path="url(#clip380)" d="M182.014 310.513 Q178.403 310.513 176.574 314.078 Q174.768 317.619 174.768 324.749 Q174.768 331.855 176.574 335.42 Q178.403 338.962 182.014 338.962 Q185.648 338.962 187.454 335.42 Q189.282 331.855 189.282 324.749 Q189.282 317.619 187.454 314.078 Q185.648 310.513 182.014 310.513 M182.014 306.809 Q187.824 306.809 190.879 311.416 Q193.958 315.999 193.958 324.749 Q193.958 333.476 190.879 338.082 Q187.824 342.666 182.014 342.666 Q176.204 342.666 173.125 338.082 Q170.069 333.476 170.069 324.749 Q170.069 315.999 173.125 311.416 Q176.204 306.809 182.014 306.809 Z" fill="#000000" fill-rule="evenodd" fill-opacity="1" /><path clip-path="url(#clip380)" d="M154.699 217.429 L142.894 235.878 L154.699 235.878 L154.699 217.429 M153.472 213.355 L159.352 213.355 L159.352 235.878 L164.282 235.878 L164.282 239.767 L159.352 239.767 L159.352 247.915 L154.699 247.915 L154.699 239.767 L139.097 239.767 L139.097 235.253 L153.472 213.355 Z" fill="#000000" fill-rule="evenodd" fill-opacity="1" /><path clip-path="url(#clip380)" d="M182.014 216.434 Q178.403 216.434 176.574 219.999 Q174.768 223.54 174.768 230.67 Q174.768 237.776 176.574 241.341 Q178.403 244.883 182.014 244.883 Q185.648 244.883 187.454 241.341 Q189.282 237.776 189.282 230.67 Q189.282 223.54 187.454 219.999 Q185.648 216.434 182.014 216.434 M182.014 212.73 Q187.824 212.73 190.879 217.337 Q193.958 221.92 193.958 230.67 Q193.958 239.397 190.879 244.003 Q187.824 248.586 182.014 248.586 Q176.204 248.586 173.125 244.003 Q170.069 239.397 170.069 230.67 Q170.069 221.92 173.125 217.337 Q176.204 212.73 182.014 212.73 Z" fill="#000000" fill-rule="evenodd" fill-opacity="1" /><path clip-path="url(#clip380)" d="M152.431 134.693 Q149.282 134.693 147.431 136.845 Q145.602 138.998 145.602 142.748 Q145.602 146.475 147.431 148.651 Q149.282 150.804 152.431 150.804 Q155.579 150.804 157.407 148.651 Q159.259 146.475 159.259 142.748 Q159.259 138.998 157.407 136.845 Q155.579 134.693 152.431 134.693 M161.713 120.04 L161.713 124.299 Q159.954 123.466 158.148 123.026 Q156.366 122.586 154.606 122.586 Q149.977 122.586 147.523 125.711 Q145.093 128.836 144.745 135.156 Q146.111 133.142 148.171 132.077 Q150.231 130.989 152.708 130.989 Q157.917 130.989 160.926 134.16 Q163.958 137.308 163.958 142.748 Q163.958 148.072 160.81 151.29 Q157.662 154.507 152.431 154.507 Q146.435 154.507 143.264 149.924 Q140.093 145.318 140.093 136.591 Q140.093 128.396 143.982 123.535 Q147.87 118.651 154.421 118.651 Q156.181 118.651 157.963 118.998 Q159.768 119.346 161.713 120.04 Z" fill="#000000" fill-rule="evenodd" fill-opacity="1" /><path clip-path="url(#clip380)" d="M182.014 122.355 Q178.403 122.355 176.574 125.92 Q174.768 129.461 174.768 136.591 Q174.768 143.697 176.574 147.262 Q178.403 150.804 182.014 150.804 Q185.648 150.804 187.454 147.262 Q189.282 143.697 189.282 136.591 Q189.282 129.461 187.454 125.92 Q185.648 122.355 182.014 122.355 M182.014 118.651 Q187.824 118.651 190.879 123.258 Q193.958 127.841 193.958 136.591 Q193.958 145.318 190.879 149.924 Q187.824 154.507 182.014 154.507 Q176.204 154.507 173.125 149.924 Q170.069 145.318 170.069 136.591 Q170.069 127.841 173.125 123.258 Q176.204 118.651 182.014 118.651 Z" fill="#000000" fill-rule="evenodd" fill-opacity="1" /><path clip-path="url(#clip380)" d="M30.8809 311.642 L37.1511 311.642 Q35.4005 315.302 34.5412 318.549 Q33.6818 321.795 33.6818 324.819 Q33.6818 330.071 35.7188 332.935 Q37.7558 335.768 41.5116 335.768 Q44.6626 335.768 46.2859 333.89 Q47.8773 331.98 48.864 326.697 L49.6597 322.814 Q51.0283 315.62 54.4977 312.215 Q57.9351 308.777 63.7279 308.777 Q70.6347 308.777 74.1995 313.424 Q77.7643 318.039 77.7643 326.983 Q77.7643 330.357 77.0004 334.176 Q76.2365 337.964 74.7406 342.038 L68.1203 342.038 Q70.3164 338.123 71.4304 334.367 Q72.5444 330.612 72.5444 326.983 Q72.5444 321.477 70.3801 318.485 Q68.2158 315.493 64.2054 315.493 Q60.7042 315.493 58.7308 317.657 Q56.7575 319.79 55.7708 324.692 L55.0069 328.606 Q53.5746 335.8 50.5191 339.014 Q47.4635 342.229 42.0209 342.229 Q35.7188 342.229 32.0904 337.805 Q28.4619 333.349 28.4619 325.551 Q28.4619 322.209 29.0667 318.74 Q29.6714 315.27 30.8809 311.642 Z" fill="#000000" fill-rule="evenodd" fill-opacity="1" /><path clip-path="url(#clip380)" d="M27.3161 278.827 L27.3161 265.331 L31.8676 265.331 L31.8676 272.97 L80.8835 272.97 L80.8835 265.331 L85.435 265.331 L85.435 278.827 L27.3161 278.827 Z" fill="#000000" fill-rule="evenodd" fill-opacity="1" /><path clip-path="url(#clip380)" d="M90.4002 253.459 L41.1933 253.459 L41.1933 247.603 L63.346 247.603 Q67.9611 247.603 70.3164 245.407 Q72.6717 243.21 72.6717 238.914 Q72.6717 234.203 69.9981 231.848 Q67.3246 229.461 61.9774 229.461 L41.1933 229.461 L41.1933 223.604 L68.6295 223.604 Q70.5392 223.604 71.4623 223.063 Q72.3535 222.49 72.3535 221.312 Q72.3535 221.026 72.1943 220.517 Q72.0033 220.007 71.6214 219.116 L76.332 219.116 Q77.0641 220.421 77.4142 221.599 Q77.7643 222.745 77.7643 223.859 Q77.7643 226.055 76.523 227.36 Q75.2817 228.665 72.7354 229.142 Q75.2499 230.734 76.523 233.057 Q77.7643 235.349 77.7643 238.468 Q77.7643 241.715 76.523 244.006 Q75.2817 246.266 72.7991 247.603 L90.4002 247.603 L90.4002 253.459 Z" fill="#000000" fill-rule="evenodd" fill-opacity="1" /><path clip-path="url(#clip380)" d="M48.0365 183.627 Q44.0897 181.431 42.2118 178.376 Q40.334 175.32 40.334 171.183 Q40.334 165.613 44.2489 162.589 Q48.1319 159.565 55.3252 159.565 L76.8413 159.565 L76.8413 165.453 L55.5162 165.453 Q50.3918 165.453 47.9091 167.268 Q45.4265 169.082 45.4265 172.806 Q45.4265 177.357 48.4502 179.999 Q51.4739 182.641 56.6938 182.641 L76.8413 182.641 L76.8413 188.529 L55.5162 188.529 Q50.3599 188.529 47.9091 190.343 Q45.4265 192.158 45.4265 195.945 Q45.4265 200.433 48.4821 203.075 Q51.5058 205.716 56.6938 205.716 L76.8413 205.716 L76.8413 211.605 L41.1933 211.605 L41.1933 205.716 L46.7315 205.716 Q43.4532 203.711 41.8936 200.91 Q40.334 198.109 40.334 194.258 Q40.334 190.375 42.3073 187.67 Q44.2807 184.932 48.0365 183.627 Z" fill="#000000" fill-rule="evenodd" fill-opacity="1" /><path clip-path="url(#clip380)" d="M27.3161 134.198 L85.435 134.198 L85.435 147.693 L80.8835 147.693 L80.8835 140.086 L31.8676 140.086 L31.8676 147.693 L27.3161 147.693 L27.3161 134.198 Z" fill="#000000" fill-rule="evenodd" fill-opacity="1" /><polyline clip-path="url(#clip382)" style="stroke:#009af9; stroke-linecap:butt; stroke-linejoin:round; stroke-width:6; stroke-opacity:1; fill:none" points="
  273.256,417.887 307.721,418.014 342.185,417.882 376.65,416.773 411.013,416.07 445.444,414.446 479.909,410.876 514.34,417.67 553.892,409.692 589.3,414.708 
  624.674,417.904 660.015,412.987 695.288,405.853 730.628,415.716 766.036,417.957 801.444,414.253 837.425,413.191 872.53,413.965 907.668,412.378 942.84,412.182 
  977.597,410.78 1012.35,409.982 1047.11,409.77 1081.87,410.125 1116.62,411.029 1151.38,412.465 1186.55,414.729 1221.69,411.942 1256.86,413.831 1292.07,408.42 
  1327.24,409.956 1362.35,414.13 1397.82,402.626 1443.07,391.648 1478.27,390.001 1513.48,403.332 1551.31,413.486 1610.27,407.753 1645.44,408.705 1680.55,405.374 
  1715.52,405.053 1750.45,399.901 1785.32,406.958 1815.84,407.712 1848.19,404.974 1880.6,407.283 1913.04,409.813 1945.48,413.366 1978.16,411.848 2010.64,410.831 
  2043.15,410.283 2075.73,409.598 2108.2,409.612 2140.71,408.651 2173.23,406.329 2205.94,409.696 2238.15,407.761 2270.66,403.038 2303.13,402.74 2335.68,411.509 
  2368.12,411.929 2400.6,414.962 2433.07,413.41 2465.62,409.848 2498.16,417.713 2530.71,405.963 2563.29,406.1 2595.83,405.875 2628.71,411.761 2661.26,410.311 
  2693.8,408.138 2726.31,407.598 2758.85,406.269 2791.53,401.073 2824.04,400.15 2856.52,417.186 2889.07,410.411 2921.58,416.002 2954.15,412.273 
  "/>
<polyline clip-path="url(#clip382)" style="stroke:#e26f46; stroke-linecap:butt; stroke-linejoin:round; stroke-width:6; stroke-opacity:1; fill:none" points="
  273.256,417.229 307.721,416.728 342.185,415.503 376.65,412.518 411.013,408.637 445.444,410.346 479.909,404.922 514.34,380.89 553.892,363.361 589.3,331.899 
  624.674,303.734 660.015,285.173 695.288,270.481 730.628,240.541 766.036,220.218 801.444,208.159 837.425,195.925 872.53,185.206 907.668,180.225 942.84,177.618 
  977.597,180.276 1012.35,186.517 1047.11,196.362 1081.87,209.613 1116.62,225.792 1151.38,244.225 1186.55,264.016 1221.69,289.816 1256.86,310.975 1292.07,338.649 
  1327.24,357.903 1362.35,372.569 1397.82,400.877 1443.07,407.701 1478.27,394.641 1513.48,398.749 1551.31,401.24 1610.27,387.621 1645.44,385.918 1680.55,381.25 
  1715.52,380.736 1750.45,376.361 1785.32,385.002 1815.84,387.686 1848.19,387.472 1880.6,392.736 1913.04,398.582 1945.48,405.745 1978.16,408.105 2010.64,411.127 
  2043.15,414.761 2075.73,418.373 2108.2,414.837 2140.71,411.375 2173.23,409.24 2205.94,401.375 2238.15,398.89 2270.66,399.179 2303.13,395.091 2335.68,381.982 
  2368.12,377.293 2400.6,370.048 2433.07,367.455 2465.62,366.937 2498.16,355.068 2530.71,337.234 2563.29,333.527 2595.83,329.551 2628.71,331.737 2661.26,326.713 
  2693.8,321.054 2726.31,317.115 2758.85,312.468 2791.53,304.024 2824.04,299.953 2856.52,317.14 2889.07,304.162 2921.58,306.849 2954.15,313.333 
  "/>
<polyline clip-path="url(#clip382)" style="stroke:#3da44d; stroke-linecap:butt; stroke-linejoin:round; stroke-width:6; stroke-opacity:1; fill:none" points="
  273.256,417.219 307.721,416.7 342.185,415.443 376.65,412.404 411.013,408.438 445.444,410.017 479.909,404.396 514.34,380.074 553.892,362.046 589.3,329.926 
  624.674,300.824 660.015,280.948 695.288,264.433 730.628,231.99 766.036,208.266 801.444,191.657 837.425,173.313 872.53,154.847 907.668,140.001 942.84,125.078 
  977.597,112.904 1012.35,101.545 1047.11,91.0837 1081.87,81.6065 1116.62,73.2037 1151.38,65.9636 1186.55,59.6209 1221.69,60.2059 1256.86,58.0537 1292.07,65.2061 
  1327.24,67.461 1362.35,69.153 1397.82,88.7189 1443.07,113.103 1478.27,127.585 1513.48,129.151 1551.31,137.227 1610.27,175.674 1645.44,196.526 1680.55,223.123 
  1715.52,247.918 1750.45,278.592 1785.32,297.838 1815.84,320.583 1848.19,348.482 1880.6,371.419 1913.04,393.966 1945.48,415.039 1978.16,396.992 2010.64,373.137 
  2043.15,351.049 2075.73,330.363 2108.2,312.251 2140.71,295.179 2173.23,278.986 2205.94,270.844 2238.15,260.143 2270.66,249.305 2303.13,245.773 2335.68,254.303 
  2368.12,257.557 2400.6,266.492 2433.07,273.884 2465.62,282.288 2498.16,305.053 2530.71,336.692 2563.29,357.006 2595.83,380.203 2628.71,399.919 2661.26,408.727 
  2693.8,377.215 2726.31,345.77 2758.85,312.126 2791.53,273.315 2824.04,238.009 2856.52,223.195 2889.07,177.571 2921.58,147.286 2954.15,120.592 
  "/>
</svg>
