<?xml version="1.0" encoding="utf-8"?>
<svg xmlns="http://www.w3.org/2000/svg" xmlns:xlink="http://www.w3.org/1999/xlink" width="800" height="400" viewBox="0 0 3200 1600">
<defs>
  <clipPath id="clip220">
    <rect x="0" y="0" width="3200" height="1600"/>
  </clipPath>
</defs>
<path clip-path="url(#clip220)" d="
M0 1600 L3200 1600 L3200 0 L0 0  Z
  " fill="#ffffff" fill-rule="evenodd" fill-opacity="1"/>
<defs>
  <clipPath id="clip221">
    <rect x="640" y="0" width="2241" height="1600"/>
  </clipPath>
</defs>
<path clip-path="url(#clip220)" d="
M261.742 1443.7 L3152.76 1443.7 L3152.76 47.2441 L261.742 47.2441  Z
  " fill="#ffffff" fill-rule="evenodd" fill-opacity="1"/>
<defs>
  <clipPath id="clip222">
    <rect x="261" y="47" width="2892" height="1397"/>
  </clipPath>
</defs>
<polyline clip-path="url(#clip220)" style="stroke:#000000; stroke-linecap:butt; stroke-linejoin:round; stroke-width:4; stroke-opacity:1; fill:none" points="
  261.742,1443.7 3152.76,1443.7 
  "/>
<polyline clip-path="url(#clip220)" style="stroke:#000000; stroke-linecap:butt; stroke-linejoin:round; stroke-width:4; stroke-opacity:1; fill:none" points="
  261.742,1443.7 261.742,1426.94 
  "/>
<polyline clip-path="url(#clip220)" style="stroke:#000000; stroke-linecap:butt; stroke-linejoin:round; stroke-width:4; stroke-opacity:1; fill:none" points="
  864.036,1443.7 864.036,1426.94 
  "/>
<polyline clip-path="url(#clip220)" style="stroke:#000000; stroke-linecap:butt; stroke-linejoin:round; stroke-width:4; stroke-opacity:1; fill:none" points="
  1466.33,1443.7 1466.33,1426.94 
  "/>
<polyline clip-path="url(#clip220)" style="stroke:#000000; stroke-linecap:butt; stroke-linejoin:round; stroke-width:4; stroke-opacity:1; fill:none" points="
  2068.63,1443.7 2068.63,1426.94 
  "/>
<polyline clip-path="url(#clip220)" style="stroke:#000000; stroke-linecap:butt; stroke-linejoin:round; stroke-width:4; stroke-opacity:1; fill:none" points="
  2670.92,1443.7 2670.92,1426.94 
  "/>
<path clip-path="url(#clip220)" d="M261.742 1479.29 Q258.13 1479.29 256.302 1482.86 Q254.496 1486.4 254.496 1493.53 Q254.496 1500.63 256.302 1504.2 Q258.13 1507.74 261.742 1507.74 Q265.376 1507.74 267.181 1504.2 Q269.01 1500.63 269.01 1493.53 Q269.01 1486.4 267.181 1482.86 Q265.376 1479.29 261.742 1479.29 M261.742 1475.59 Q267.552 1475.59 270.607 1480.19 Q273.686 1484.78 273.686 1493.53 Q273.686 1502.25 270.607 1506.86 Q267.552 1511.44 261.742 1511.44 Q255.931 1511.44 252.853 1506.86 Q249.797 1502.25 249.797 1493.53 Q249.797 1484.78 252.853 1480.19 Q255.931 1475.59 261.742 1475.59 Z" fill="#000000" fill-rule="evenodd" fill-opacity="1" /><path clip-path="url(#clip220)" d="M838.724 1506.84 L846.363 1506.84 L846.363 1480.47 L838.053 1482.14 L838.053 1477.88 L846.316 1476.21 L850.992 1476.21 L850.992 1506.84 L858.631 1506.84 L858.631 1510.77 L838.724 1510.77 L838.724 1506.84 Z" fill="#000000" fill-rule="evenodd" fill-opacity="1" /><path clip-path="url(#clip220)" d="M878.075 1479.29 Q874.464 1479.29 872.636 1482.86 Q870.83 1486.4 870.83 1493.53 Q870.83 1500.63 872.636 1504.2 Q874.464 1507.74 878.075 1507.74 Q881.71 1507.74 883.515 1504.2 Q885.344 1500.63 885.344 1493.53 Q885.344 1486.4 883.515 1482.86 Q881.71 1479.29 878.075 1479.29 M878.075 1475.59 Q883.886 1475.59 886.941 1480.19 Q890.02 1484.78 890.02 1493.53 Q890.02 1502.25 886.941 1506.86 Q883.886 1511.44 878.075 1511.44 Q872.265 1511.44 869.187 1506.86 Q866.131 1502.25 866.131 1493.53 Q866.131 1484.78 869.187 1480.19 Q872.265 1475.59 878.075 1475.59 Z" fill="#000000" fill-rule="evenodd" fill-opacity="1" /><path clip-path="url(#clip220)" d="M1445.1 1506.84 L1461.42 1506.84 L1461.42 1510.77 L1439.48 1510.77 L1439.48 1506.84 Q1442.14 1504.08 1446.72 1499.45 Q1451.33 1494.8 1452.51 1493.46 Q1454.76 1490.93 1455.64 1489.2 Q1456.54 1487.44 1456.54 1485.75 Q1456.54 1482.99 1454.59 1481.26 Q1452.67 1479.52 1449.57 1479.52 Q1447.37 1479.52 1444.92 1480.29 Q1442.49 1481.05 1439.71 1482.6 L1439.71 1477.88 Q1442.53 1476.74 1444.99 1476.17 Q1447.44 1475.59 1449.48 1475.59 Q1454.85 1475.59 1458.04 1478.27 Q1461.24 1480.96 1461.24 1485.45 Q1461.24 1487.58 1460.43 1489.5 Q1459.64 1491.4 1457.53 1493.99 Q1456.96 1494.66 1453.85 1497.88 Q1450.75 1501.07 1445.1 1506.84 Z" fill="#000000" fill-rule="evenodd" fill-opacity="1" /><path clip-path="url(#clip220)" d="M1481.24 1479.29 Q1477.63 1479.29 1475.8 1482.86 Q1473.99 1486.4 1473.99 1493.53 Q1473.99 1500.63 1475.8 1504.2 Q1477.63 1507.74 1481.24 1507.74 Q1484.87 1507.74 1486.68 1504.2 Q1488.51 1500.63 1488.51 1493.53 Q1488.51 1486.4 1486.68 1482.86 Q1484.87 1479.29 1481.24 1479.29 M1481.24 1475.59 Q1487.05 1475.59 1490.1 1480.19 Q1493.18 1484.78 1493.18 1493.53 Q1493.18 1502.25 1490.1 1506.86 Q1487.05 1511.44 1481.24 1511.44 Q1475.43 1511.44 1472.35 1506.86 Q1469.29 1502.25 1469.29 1493.53 Q1469.29 1484.78 1472.35 1480.19 Q1475.43 1475.59 1481.24 1475.59 Z" fill="#000000" fill-rule="evenodd" fill-opacity="1" /><path clip-path="url(#clip220)" d="M2057.47 1492.14 Q2060.82 1492.86 2062.7 1495.12 Q2064.6 1497.39 2064.6 1500.73 Q2064.6 1505.84 2061.08 1508.64 Q2057.56 1511.44 2051.08 1511.44 Q2048.9 1511.44 2046.59 1511 Q2044.3 1510.59 2041.84 1509.73 L2041.84 1505.22 Q2043.79 1506.35 2046.1 1506.93 Q2048.42 1507.51 2050.94 1507.51 Q2055.34 1507.51 2057.63 1505.77 Q2059.94 1504.04 2059.94 1500.73 Q2059.94 1497.67 2057.79 1495.96 Q2055.66 1494.22 2051.84 1494.22 L2047.82 1494.22 L2047.82 1490.38 L2052.03 1490.38 Q2055.48 1490.38 2057.31 1489.01 Q2059.13 1487.62 2059.13 1485.03 Q2059.13 1482.37 2057.24 1480.96 Q2055.36 1479.52 2051.84 1479.52 Q2049.92 1479.52 2047.72 1479.94 Q2045.52 1480.36 2042.88 1481.23 L2042.88 1477.07 Q2045.55 1476.33 2047.86 1475.96 Q2050.2 1475.59 2052.26 1475.59 Q2057.58 1475.59 2060.69 1478.02 Q2063.79 1480.42 2063.79 1484.55 Q2063.79 1487.42 2062.14 1489.41 Q2060.5 1491.37 2057.47 1492.14 Z" fill="#000000" fill-rule="evenodd" fill-opacity="1" /><path clip-path="url(#clip220)" d="M2083.46 1479.29 Q2079.85 1479.29 2078.02 1482.86 Q2076.22 1486.4 2076.22 1493.53 Q2076.22 1500.63 2078.02 1504.2 Q2079.85 1507.74 2083.46 1507.74 Q2087.1 1507.74 2088.9 1504.2 Q2090.73 1500.63 2090.73 1493.53 Q2090.73 1486.4 2088.9 1482.86 Q2087.1 1479.29 2083.46 1479.29 M2083.46 1475.59 Q2089.27 1475.59 2092.33 1480.19 Q2095.41 1484.78 2095.41 1493.53 Q2095.41 1502.25 2092.33 1506.86 Q2089.27 1511.44 2083.46 1511.44 Q2077.65 1511.44 2074.57 1506.86 Q2071.52 1502.25 2071.52 1493.53 Q2071.52 1484.78 2074.57 1480.19 Q2077.65 1475.59 2083.46 1475.59 Z" fill="#000000" fill-rule="evenodd" fill-opacity="1" /><path clip-path="url(#clip220)" d="M2659.09 1480.29 L2647.29 1498.73 L2659.09 1498.73 L2659.09 1480.29 M2657.86 1476.21 L2663.74 1476.21 L2663.74 1498.73 L2668.67 1498.73 L2668.67 1502.62 L2663.74 1502.62 L2663.74 1510.77 L2659.09 1510.77 L2659.09 1502.62 L2643.49 1502.62 L2643.49 1498.11 L2657.86 1476.21 Z" fill="#000000" fill-rule="evenodd" fill-opacity="1" /><path clip-path="url(#clip220)" d="M2686.41 1479.29 Q2682.8 1479.29 2680.97 1482.86 Q2679.16 1486.4 2679.16 1493.53 Q2679.16 1500.63 2680.97 1504.2 Q2682.8 1507.74 2686.41 1507.74 Q2690.04 1507.74 2691.85 1504.2 Q2693.67 1500.63 2693.67 1493.53 Q2693.67 1486.4 2691.85 1482.86 Q2690.04 1479.29 2686.41 1479.29 M2686.41 1475.59 Q2692.22 1475.59 2695.27 1480.19 Q2698.35 1484.78 2698.35 1493.53 Q2698.35 1502.25 2695.27 1506.86 Q2692.22 1511.44 2686.41 1511.44 Q2680.6 1511.44 2677.52 1506.86 Q2674.46 1502.25 2674.46 1493.53 Q2674.46 1484.78 2677.52 1480.19 Q2680.6 1475.59 2686.41 1475.59 Z" fill="#000000" fill-rule="evenodd" fill-opacity="1" /><path clip-path="url(#clip220)" d="M1560.34 1553.04 L1600.54 1553.04 L1600.54 1558.45 L1583.67 1558.45 L1583.67 1600.56 L1577.21 1600.56 L1577.21 1558.45 L1560.34 1558.45 L1560.34 1553.04 Z" fill="#000000" fill-rule="evenodd" fill-opacity="1" /><path clip-path="url(#clip220)" d="M1604.49 1564.92 L1610.35 1564.92 L1610.35 1600.56 L1604.49 1600.56 L1604.49 1564.92 M1604.49 1551.04 L1610.35 1551.04 L1610.35 1558.45 L1604.49 1558.45 L1604.49 1551.04 Z" fill="#000000" fill-rule="evenodd" fill-opacity="1" /><path clip-path="url(#clip220)" d="M1650.36 1571.76 Q1652.55 1567.81 1655.61 1565.93 Q1658.66 1564.06 1662.8 1564.06 Q1668.37 1564.06 1671.39 1567.97 Q1674.42 1571.85 1674.42 1579.05 L1674.42 1600.56 L1668.53 1600.56 L1668.53 1579.24 Q1668.53 1574.11 1666.72 1571.63 Q1664.9 1569.15 1661.18 1569.15 Q1656.63 1569.15 1653.98 1572.17 Q1651.34 1575.2 1651.34 1580.42 L1651.34 1600.56 L1645.45 1600.56 L1645.45 1579.24 Q1645.45 1574.08 1643.64 1571.63 Q1641.83 1569.15 1638.04 1569.15 Q1633.55 1569.15 1630.91 1572.2 Q1628.27 1575.23 1628.27 1580.42 L1628.27 1600.56 L1622.38 1600.56 L1622.38 1564.92 L1628.27 1564.92 L1628.27 1570.45 Q1630.27 1567.18 1633.07 1565.62 Q1635.87 1564.06 1639.72 1564.06 Q1643.61 1564.06 1646.31 1566.03 Q1649.05 1568 1650.36 1571.76 Z" fill="#000000" fill-rule="evenodd" fill-opacity="1" /><path clip-path="url(#clip220)" d="M1716.59 1581.28 L1716.59 1584.14 L1689.66 1584.14 Q1690.05 1590.19 1693.29 1593.37 Q1696.57 1596.52 1702.39 1596.52 Q1705.77 1596.52 1708.92 1595.69 Q1712.1 1594.87 1715.22 1593.21 L1715.22 1598.75 Q1712.07 1600.09 1708.76 1600.79 Q1705.45 1601.49 1702.04 1601.49 Q1693.51 1601.49 1688.52 1596.52 Q1683.55 1591.56 1683.55 1583.09 Q1683.55 1574.34 1688.26 1569.21 Q1693.01 1564.06 1701.03 1564.06 Q1708.22 1564.06 1712.39 1568.7 Q1716.59 1573.32 1716.59 1581.28 M1710.73 1579.56 Q1710.67 1574.75 1708.03 1571.89 Q1705.42 1569.02 1701.09 1569.02 Q1696.19 1569.02 1693.23 1571.79 Q1690.3 1574.56 1689.85 1579.59 L1710.73 1579.56 Z" fill="#000000" fill-rule="evenodd" fill-opacity="1" /><path clip-path="url(#clip220)" d="M1746.38 1551.04 L1759.88 1551.04 L1759.88 1555.59 L1752.24 1555.59 L1752.24 1604.61 L1759.88 1604.61 L1759.88 1609.16 L1746.38 1609.16 L1746.38 1551.04 Z" fill="#000000" fill-rule="evenodd" fill-opacity="1" /><path clip-path="url(#clip220)" d="M1801.99 1579.05 L1801.99 1600.56 L1796.13 1600.56 L1796.13 1579.24 Q1796.13 1574.18 1794.16 1571.66 Q1792.18 1569.15 1788.24 1569.15 Q1783.49 1569.15 1780.76 1572.17 Q1778.02 1575.2 1778.02 1580.42 L1778.02 1600.56 L1772.13 1600.56 L1772.13 1551.04 L1778.02 1551.04 L1778.02 1570.45 Q1780.12 1567.24 1782.95 1565.65 Q1785.82 1564.06 1789.54 1564.06 Q1795.68 1564.06 1798.84 1567.88 Q1801.99 1571.66 1801.99 1579.05 Z" fill="#000000" fill-rule="evenodd" fill-opacity="1" /><path clip-path="url(#clip220)" d="M1834.32 1570.39 Q1833.34 1569.82 1832.16 1569.56 Q1831.01 1569.28 1829.61 1569.28 Q1824.65 1569.28 1821.97 1572.52 Q1819.33 1575.74 1819.33 1581.79 L1819.33 1600.56 L1813.44 1600.56 L1813.44 1564.92 L1819.33 1564.92 L1819.33 1570.45 Q1821.18 1567.21 1824.14 1565.65 Q1827.1 1564.06 1831.33 1564.06 Q1831.94 1564.06 1832.67 1564.15 Q1833.4 1564.22 1834.29 1564.37 L1834.32 1570.39 Z" fill="#000000" fill-rule="evenodd" fill-opacity="1" /><path clip-path="url(#clip220)" d="M1854.15 1551.04 L1854.15 1609.16 L1840.66 1609.16 L1840.66 1604.61 L1848.27 1604.61 L1848.27 1555.59 L1840.66 1555.59 L1840.66 1551.04 L1854.15 1551.04 Z" fill="#000000" fill-rule="evenodd" fill-opacity="1" /><polyline clip-path="url(#clip220)" style="stroke:#000000; stroke-linecap:butt; stroke-linejoin:round; stroke-width:4; stroke-opacity:1; fill:none" points="
  261.742,1443.7 261.742,47.2441 
  "/>
<polyline clip-path="url(#clip220)" style="stroke:#000000; stroke-linecap:butt; stroke-linejoin:round; stroke-width:4; stroke-opacity:1; fill:none" points="
  261.742,1443.7 296.434,1443.7 
  "/>
<polyline clip-path="url(#clip220)" style="stroke:#000000; stroke-linecap:butt; stroke-linejoin:round; stroke-width:4; stroke-opacity:1; fill:none" points="
  261.742,1094.59 296.434,1094.59 
  "/>
<polyline clip-path="url(#clip220)" style="stroke:#000000; stroke-linecap:butt; stroke-linejoin:round; stroke-width:4; stroke-opacity:1; fill:none" points="
  261.742,745.472 296.434,745.472 
  "/>
<polyline clip-path="url(#clip220)" style="stroke:#000000; stroke-linecap:butt; stroke-linejoin:round; stroke-width:4; stroke-opacity:1; fill:none" points="
  261.742,396.358 296.434,396.358 
  "/>
<polyline clip-path="url(#clip220)" style="stroke:#000000; stroke-linecap:butt; stroke-linejoin:round; stroke-width:4; stroke-opacity:1; fill:none" points="
  261.742,47.2441 296.434,47.2441 
  "/>
<path clip-path="url(#clip220)" d="M201.797 1429.5 Q198.186 1429.5 196.357 1433.06 Q194.552 1436.6 194.552 1443.73 Q194.552 1450.84 196.357 1454.41 Q198.186 1457.95 201.797 1457.95 Q205.431 1457.95 207.237 1454.41 Q209.066 1450.84 209.066 1443.73 Q209.066 1436.6 207.237 1433.06 Q205.431 1429.5 201.797 1429.5 M201.797 1425.79 Q207.607 1425.79 210.663 1430.4 Q213.742 1434.98 213.742 1443.73 Q213.742 1452.46 210.663 1457.07 Q207.607 1461.65 201.797 1461.65 Q195.987 1461.65 192.908 1457.07 Q189.853 1452.46 189.853 1443.73 Q189.853 1434.98 192.908 1430.4 Q195.987 1425.79 201.797 1425.79 Z" fill="#000000" fill-rule="evenodd" fill-opacity="1" /><path clip-path="url(#clip220)" d="M161.682 1077.31 L180.038 1077.31 L180.038 1081.24 L165.964 1081.24 L165.964 1089.71 Q166.983 1089.37 168.001 1089.2 Q169.02 1089.02 170.038 1089.02 Q175.825 1089.02 179.205 1092.19 Q182.584 1095.36 182.584 1100.78 Q182.584 1106.36 179.112 1109.46 Q175.64 1112.54 169.32 1112.54 Q167.145 1112.54 164.876 1112.17 Q162.631 1111.8 160.223 1111.06 L160.223 1106.36 Q162.307 1107.49 164.529 1108.05 Q166.751 1108.6 169.228 1108.6 Q173.232 1108.6 175.57 1106.5 Q177.908 1104.39 177.908 1100.78 Q177.908 1097.17 175.57 1095.06 Q173.232 1092.95 169.228 1092.95 Q167.353 1092.95 165.478 1093.37 Q163.626 1093.79 161.682 1094.67 L161.682 1077.31 Z" fill="#000000" fill-rule="evenodd" fill-opacity="1" /><path clip-path="url(#clip220)" d="M201.797 1080.38 Q198.186 1080.38 196.357 1083.95 Q194.552 1087.49 194.552 1094.62 Q194.552 1101.73 196.357 1105.29 Q198.186 1108.83 201.797 1108.83 Q205.431 1108.83 207.237 1105.29 Q209.066 1101.73 209.066 1094.62 Q209.066 1087.49 207.237 1083.95 Q205.431 1080.38 201.797 1080.38 M201.797 1076.68 Q207.607 1076.68 210.663 1081.29 Q213.742 1085.87 213.742 1094.62 Q213.742 1103.35 210.663 1107.95 Q207.607 1112.54 201.797 1112.54 Q195.987 1112.54 192.908 1107.95 Q189.853 1103.35 189.853 1094.62 Q189.853 1085.87 192.908 1081.29 Q195.987 1076.68 201.797 1076.68 Z" fill="#000000" fill-rule="evenodd" fill-opacity="1" /><path clip-path="url(#clip220)" d="M132.284 758.817 L139.922 758.817 L139.922 732.451 L131.612 734.118 L131.612 729.859 L139.876 728.192 L144.552 728.192 L144.552 758.817 L152.191 758.817 L152.191 762.752 L132.284 762.752 L132.284 758.817 Z" fill="#000000" fill-rule="evenodd" fill-opacity="1" /><path clip-path="url(#clip220)" d="M171.635 731.271 Q168.024 731.271 166.195 734.835 Q164.39 738.377 164.39 745.507 Q164.39 752.613 166.195 756.178 Q168.024 759.72 171.635 759.72 Q175.269 759.72 177.075 756.178 Q178.904 752.613 178.904 745.507 Q178.904 738.377 177.075 734.835 Q175.269 731.271 171.635 731.271 M171.635 727.567 Q177.445 727.567 180.501 732.173 Q183.58 736.757 183.58 745.507 Q183.58 754.233 180.501 758.84 Q177.445 763.423 171.635 763.423 Q165.825 763.423 162.746 758.84 Q159.691 754.233 159.691 745.507 Q159.691 736.757 162.746 732.173 Q165.825 727.567 171.635 727.567 Z" fill="#000000" fill-rule="evenodd" fill-opacity="1" /><path clip-path="url(#clip220)" d="M201.797 731.271 Q198.186 731.271 196.357 734.835 Q194.552 738.377 194.552 745.507 Q194.552 752.613 196.357 756.178 Q198.186 759.72 201.797 759.72 Q205.431 759.72 207.237 756.178 Q209.066 752.613 209.066 745.507 Q209.066 738.377 207.237 734.835 Q205.431 731.271 201.797 731.271 M201.797 727.567 Q207.607 727.567 210.663 732.173 Q213.742 736.757 213.742 745.507 Q213.742 754.233 210.663 758.84 Q207.607 763.423 201.797 763.423 Q195.987 763.423 192.908 758.84 Q189.853 754.233 189.853 745.507 Q189.853 736.757 192.908 732.173 Q195.987 727.567 201.797 727.567 Z" fill="#000000" fill-rule="evenodd" fill-opacity="1" /><path clip-path="url(#clip220)" d="M132.284 409.703 L139.922 409.703 L139.922 383.337 L131.612 385.004 L131.612 380.745 L139.876 379.078 L144.552 379.078 L144.552 409.703 L152.191 409.703 L152.191 413.638 L132.284 413.638 L132.284 409.703 Z" fill="#000000" fill-rule="evenodd" fill-opacity="1" /><path clip-path="url(#clip220)" d="M161.682 379.078 L180.038 379.078 L180.038 383.013 L165.964 383.013 L165.964 391.485 Q166.983 391.138 168.001 390.976 Q169.02 390.791 170.038 390.791 Q175.825 390.791 179.205 393.962 Q182.584 397.133 182.584 402.55 Q182.584 408.129 179.112 411.231 Q175.64 414.309 169.32 414.309 Q167.145 414.309 164.876 413.939 Q162.631 413.569 160.223 412.828 L160.223 408.129 Q162.307 409.263 164.529 409.819 Q166.751 410.374 169.228 410.374 Q173.232 410.374 175.57 408.268 Q177.908 406.161 177.908 402.55 Q177.908 398.939 175.57 396.833 Q173.232 394.726 169.228 394.726 Q167.353 394.726 165.478 395.143 Q163.626 395.559 161.682 396.439 L161.682 379.078 Z" fill="#000000" fill-rule="evenodd" fill-opacity="1" /><path clip-path="url(#clip220)" d="M201.797 382.157 Q198.186 382.157 196.357 385.722 Q194.552 389.263 194.552 396.393 Q194.552 403.499 196.357 407.064 Q198.186 410.606 201.797 410.606 Q205.431 410.606 207.237 407.064 Q209.066 403.499 209.066 396.393 Q209.066 389.263 207.237 385.722 Q205.431 382.157 201.797 382.157 M201.797 378.453 Q207.607 378.453 210.663 383.059 Q213.742 387.643 213.742 396.393 Q213.742 405.12 210.663 409.726 Q207.607 414.309 201.797 414.309 Q195.987 414.309 192.908 409.726 Q189.853 405.12 189.853 396.393 Q189.853 387.643 192.908 383.059 Q195.987 378.453 201.797 378.453 Z" fill="#000000" fill-rule="evenodd" fill-opacity="1" /><path clip-path="url(#clip220)" d="M135.501 60.5889 L151.821 60.5889 L151.821 64.5241 L129.876 64.5241 L129.876 60.5889 Q132.538 57.8343 137.122 53.2047 Q141.728 48.552 142.909 47.2094 Q145.154 44.6862 146.034 42.9501 Q146.936 41.1909 146.936 39.5011 Q146.936 36.7465 144.992 35.0104 Q143.071 33.2743 139.969 33.2743 Q137.77 33.2743 135.316 34.0381 Q132.885 34.802 130.108 36.3529 L130.108 31.6308 Q132.932 30.4965 135.385 29.9178 Q137.839 29.3391 139.876 29.3391 Q145.247 29.3391 148.441 32.0243 Q151.635 34.7094 151.635 39.2002 Q151.635 41.3298 150.825 43.2511 Q150.038 45.1492 147.932 47.7418 Q147.353 48.4131 144.251 51.6306 Q141.149 54.8251 135.501 60.5889 Z" fill="#000000" fill-rule="evenodd" fill-opacity="1" /><path clip-path="url(#clip220)" d="M171.635 33.0428 Q168.024 33.0428 166.195 36.6076 Q164.39 40.1492 164.39 47.2788 Q164.39 54.3853 166.195 57.9501 Q168.024 61.4917 171.635 61.4917 Q175.269 61.4917 177.075 57.9501 Q178.904 54.3853 178.904 47.2788 Q178.904 40.1492 177.075 36.6076 Q175.269 33.0428 171.635 33.0428 M171.635 29.3391 Q177.445 29.3391 180.501 33.9456 Q183.58 38.5289 183.58 47.2788 Q183.58 56.0056 180.501 60.6121 Q177.445 65.1954 171.635 65.1954 Q165.825 65.1954 162.746 60.6121 Q159.691 56.0056 159.691 47.2788 Q159.691 38.5289 162.746 33.9456 Q165.825 29.3391 171.635 29.3391 Z" fill="#000000" fill-rule="evenodd" fill-opacity="1" /><path clip-path="url(#clip220)" d="M201.797 33.0428 Q198.186 33.0428 196.357 36.6076 Q194.552 40.1492 194.552 47.2788 Q194.552 54.3853 196.357 57.9501 Q198.186 61.4917 201.797 61.4917 Q205.431 61.4917 207.237 57.9501 Q209.066 54.3853 209.066 47.2788 Q209.066 40.1492 207.237 36.6076 Q205.431 33.0428 201.797 33.0428 M201.797 29.3391 Q207.607 29.3391 210.663 33.9456 Q213.742 38.5289 213.742 47.2788 Q213.742 56.0056 210.663 60.6121 Q207.607 65.1954 201.797 65.1954 Q195.987 65.1954 192.908 60.6121 Q189.853 56.0056 189.853 47.2788 Q189.853 38.5289 192.908 33.9456 Q195.987 29.3391 201.797 29.3391 Z" fill="#000000" fill-rule="evenodd" fill-opacity="1" /><path clip-path="url(#clip220)" d="M20.1002 935.488 L20.1002 929.059 L39.5793 929.059 L39.5793 905.697 L20.1002 905.697 L20.1002 899.267 L67.6202 899.267 L67.6202 905.697 L44.9901 905.697 L44.9901 929.059 L67.6202 929.059 L67.6202 935.488 L20.1002 935.488 Z" fill="#000000" fill-rule="evenodd" fill-opacity="1" /><path clip-path="url(#clip220)" d="M48.3321 856.235 L51.1967 856.235 L51.1967 883.162 Q57.2441 882.78 60.427 879.534 Q63.578 876.255 63.578 870.431 Q63.578 867.057 62.7505 863.906 Q61.9229 860.723 60.2678 857.604 L65.806 857.604 Q67.1428 860.755 67.843 864.065 Q68.5432 867.375 68.5432 870.781 Q68.5432 879.311 63.578 884.308 Q58.6127 889.273 50.1464 889.273 Q41.3935 889.273 36.2691 884.563 Q31.1129 879.82 31.1129 871.799 Q31.1129 864.606 35.7599 860.437 Q40.375 856.235 48.3321 856.235 M46.6134 862.092 Q41.8073 862.155 38.9427 864.797 Q36.0781 867.407 36.0781 871.736 Q36.0781 876.637 38.8472 879.597 Q41.6163 882.526 46.6452 882.971 L46.6134 862.092 Z" fill="#000000" fill-rule="evenodd" fill-opacity="1" /><path clip-path="url(#clip220)" d="M31.9723 846.623 L31.9723 840.767 L67.6202 840.767 L67.6202 846.623 L31.9723 846.623 M18.095 846.623 L18.095 840.767 L25.5111 840.767 L25.5111 846.623 L18.095 846.623 Z" fill="#000000" fill-rule="evenodd" fill-opacity="1" /><path clip-path="url(#clip220)" d="M49.3825 805.055 Q43.0168 805.055 39.5156 807.697 Q36.0145 810.307 36.0145 815.049 Q36.0145 819.76 39.5156 822.402 Q43.0168 825.011 49.3825 825.011 Q55.7163 825.011 59.2175 822.402 Q62.7186 819.76 62.7186 815.049 Q62.7186 810.307 59.2175 807.697 Q55.7163 805.055 49.3825 805.055 M63.1961 799.199 Q72.299 799.199 76.7232 803.241 Q81.1792 807.283 81.1792 815.622 Q81.1792 818.709 80.7017 821.447 Q80.2561 824.184 79.3013 826.762 L73.604 826.762 Q75.0044 824.184 75.6728 821.669 Q76.3412 819.155 76.3412 816.545 Q76.3412 810.784 73.3175 807.92 Q70.3256 805.055 64.2464 805.055 L61.35 805.055 Q64.501 806.869 66.0606 809.702 Q67.6202 812.535 67.6202 816.481 Q67.6202 823.038 62.6231 827.048 Q57.6261 831.059 49.3825 831.059 Q41.1071 831.059 36.11 827.048 Q31.1129 823.038 31.1129 816.481 Q31.1129 812.535 32.6725 809.702 Q34.2321 806.869 37.3831 805.055 L31.9723 805.055 L31.9723 799.199 L63.1961 799.199 Z" fill="#000000" fill-rule="evenodd" fill-opacity="1" /><path clip-path="url(#clip220)" d="M46.1041 757.503 L67.6202 757.503 L67.6202 763.36 L46.2951 763.36 Q41.2344 763.36 38.7199 765.333 Q36.2055 767.306 36.2055 771.253 Q36.2055 775.996 39.2292 778.733 Q42.2529 781.47 47.4728 781.47 L67.6202 781.47 L67.6202 787.358 L18.095 787.358 L18.095 781.47 L37.5104 781.47 Q34.2957 779.369 32.7043 776.537 Q31.1129 773.672 31.1129 769.948 Q31.1129 763.805 34.9323 760.654 Q38.7199 757.503 46.1041 757.503 Z" fill="#000000" fill-rule="evenodd" fill-opacity="1" /><path clip-path="url(#clip220)" d="M21.8508 740.029 L31.9723 740.029 L31.9723 727.966 L36.5237 727.966 L36.5237 740.029 L55.8755 740.029 Q60.236 740.029 61.4773 738.852 Q62.7186 737.642 62.7186 733.982 L62.7186 727.966 L67.6202 727.966 L67.6202 733.982 Q67.6202 740.761 65.1058 743.339 Q62.5595 745.918 55.8755 745.918 L36.5237 745.918 L36.5237 750.214 L31.9723 750.214 L31.9723 745.918 L21.8508 745.918 L21.8508 740.029 Z" fill="#000000" fill-rule="evenodd" fill-opacity="1" /><path clip-path="url(#clip220)" d="M18.095 700.084 L18.095 686.589 L22.6465 686.589 L22.6465 694.228 L71.6624 694.228 L71.6624 686.589 L76.2139 686.589 L76.2139 700.084 L18.095 700.084 Z" fill="#000000" fill-rule="evenodd" fill-opacity="1" /><path clip-path="url(#clip220)" d="M81.1792 674.717 L31.9723 674.717 L31.9723 668.861 L54.1249 668.861 Q58.7401 668.861 61.0954 666.665 Q63.4507 664.468 63.4507 660.171 Q63.4507 655.461 60.7771 653.106 Q58.1035 650.718 52.7563 650.718 L31.9723 650.718 L31.9723 644.862 L59.4085 644.862 Q61.3182 644.862 62.2412 644.321 Q63.1324 643.748 63.1324 642.57 Q63.1324 642.284 62.9733 641.775 Q62.7823 641.265 62.4003 640.374 L67.111 640.374 Q67.843 641.679 68.1931 642.857 Q68.5432 644.003 68.5432 645.117 Q68.5432 647.313 67.3019 648.618 Q66.0606 649.923 63.5143 650.4 Q66.0288 651.992 67.3019 654.315 Q68.5432 656.607 68.5432 659.726 Q68.5432 662.972 67.3019 665.264 Q66.0606 667.524 63.578 668.861 L81.1792 668.861 L81.1792 674.717 Z" fill="#000000" fill-rule="evenodd" fill-opacity="1" /><path clip-path="url(#clip220)" d="M38.8154 604.885 Q34.8687 602.689 32.9908 599.634 Q31.1129 596.578 31.1129 592.44 Q31.1129 586.87 35.0278 583.847 Q38.9109 580.823 46.1041 580.823 L67.6202 580.823 L67.6202 586.711 L46.2951 586.711 Q41.1707 586.711 38.6881 588.525 Q36.2055 590.34 36.2055 594.064 Q36.2055 598.615 39.2292 601.257 Q42.2529 603.899 47.4728 603.899 L67.6202 603.899 L67.6202 609.787 L46.2951 609.787 Q41.1389 609.787 38.6881 611.601 Q36.2055 613.415 36.2055 617.203 Q36.2055 621.691 39.261 624.333 Q42.2847 626.974 47.4728 626.974 L67.6202 626.974 L67.6202 632.863 L31.9723 632.863 L31.9723 626.974 L37.5104 626.974 Q34.2321 624.969 32.6725 622.168 Q31.1129 619.367 31.1129 615.516 Q31.1129 611.633 33.0863 608.928 Q35.0596 606.19 38.8154 604.885 Z" fill="#000000" fill-rule="evenodd" fill-opacity="1" /><path clip-path="url(#clip220)" d="M18.095 555.456 L76.2139 555.456 L76.2139 568.951 L71.6624 568.951 L71.6624 561.344 L22.6465 561.344 L22.6465 568.951 L18.095 568.951 L18.095 555.456 Z" fill="#000000" fill-rule="evenodd" fill-opacity="1" /><circle clip-path="url(#clip222)" cx="292.827" cy="1440.49" r="14" fill="#000000" fill-rule="evenodd" fill-opacity="0.8" stroke="none"/>
<circle clip-path="url(#clip222)" cx="327.057" cy="1439.48" r="14" fill="#000000" fill-rule="evenodd" fill-opacity="0.8" stroke="none"/>
<circle clip-path="url(#clip222)" cx="361.287" cy="1437.31" r="14" fill="#000000" fill-rule="evenodd" fill-opacity="0.8" stroke="none"/>
<circle clip-path="url(#clip222)" cx="395.518" cy="1432.43" r="14" fill="#000000" fill-rule="evenodd" fill-opacity="0.8" stroke="none"/>
<circle clip-path="url(#clip222)" cx="429.648" cy="1426.09" r="14" fill="#000000" fill-rule="evenodd" fill-opacity="0.8" stroke="none"/>
<circle clip-path="url(#clip222)" cx="463.845" cy="1427.86" r="14" fill="#000000" fill-rule="evenodd" fill-opacity="0.8" stroke="none"/>
<circle clip-path="url(#clip222)" cx="498.075" cy="1418.82" r="14" fill="#000000" fill-rule="evenodd" fill-opacity="0.8" stroke="none"/>
<circle clip-path="url(#clip222)" cx="532.272" cy="1381.87" r="14" fill="#000000" fill-rule="evenodd" fill-opacity="0.8" stroke="none"/>
<circle clip-path="url(#clip222)" cx="571.555" cy="1353.9" r="14" fill="#000000" fill-rule="evenodd" fill-opacity="0.8" stroke="none"/>
<circle clip-path="url(#clip222)" cx="606.723" cy="1304.89" r="14" fill="#000000" fill-rule="evenodd" fill-opacity="0.8" stroke="none"/>
<circle clip-path="url(#clip222)" cx="641.856" cy="1260.08" r="14" fill="#000000" fill-rule="evenodd" fill-opacity="0.8" stroke="none"/>
<circle clip-path="url(#clip222)" cx="676.957" cy="1228.64" r="14" fill="#000000" fill-rule="evenodd" fill-opacity="0.8" stroke="none"/>
<circle clip-path="url(#clip222)" cx="711.99" cy="1201.8" r="14" fill="#000000" fill-rule="evenodd" fill-opacity="0.8" stroke="none"/>
<circle clip-path="url(#clip222)" cx="747.091" cy="1150.87" r="14" fill="#000000" fill-rule="evenodd" fill-opacity="0.8" stroke="none"/>
<circle clip-path="url(#clip222)" cx="782.258" cy="1112.35" r="14" fill="#000000" fill-rule="evenodd" fill-opacity="0.8" stroke="none"/>
<circle clip-path="url(#clip222)" cx="817.425" cy="1083.78" r="14" fill="#000000" fill-rule="evenodd" fill-opacity="0.8" stroke="none"/>
<circle clip-path="url(#clip222)" cx="853.161" cy="1051.87" r="14" fill="#000000" fill-rule="evenodd" fill-opacity="0.8" stroke="none"/>
<circle clip-path="url(#clip222)" cx="888.028" cy="1019.1" r="14" fill="#000000" fill-rule="evenodd" fill-opacity="0.8" stroke="none"/>
<circle clip-path="url(#clip222)" cx="922.927" cy="990.813" r="14" fill="#000000" fill-rule="evenodd" fill-opacity="0.8" stroke="none"/>
<circle clip-path="url(#clip222)" cx="957.86" cy="961.413" r="14" fill="#000000" fill-rule="evenodd" fill-opacity="0.8" stroke="none"/>
<circle clip-path="url(#clip222)" cx="992.381" cy="935.086" r="14" fill="#000000" fill-rule="evenodd" fill-opacity="0.8" stroke="none"/>
<circle clip-path="url(#clip222)" cx="1026.9" cy="908.759" r="14" fill="#000000" fill-rule="evenodd" fill-opacity="0.8" stroke="none"/>
<circle clip-path="url(#clip222)" cx="1061.42" cy="882.432" r="14" fill="#000000" fill-rule="evenodd" fill-opacity="0.8" stroke="none"/>
<circle clip-path="url(#clip222)" cx="1095.94" cy="856.105" r="14" fill="#000000" fill-rule="evenodd" fill-opacity="0.8" stroke="none"/>
<circle clip-path="url(#clip222)" cx="1130.46" cy="829.778" r="14" fill="#000000" fill-rule="evenodd" fill-opacity="0.8" stroke="none"/>
<circle clip-path="url(#clip222)" cx="1164.98" cy="803.451" r="14" fill="#000000" fill-rule="evenodd" fill-opacity="0.8" stroke="none"/>
<circle clip-path="url(#clip222)" cx="1199.92" cy="776.382" r="14" fill="#000000" fill-rule="evenodd" fill-opacity="0.8" stroke="none"/>
<circle clip-path="url(#clip222)" cx="1234.82" cy="757.591" r="14" fill="#000000" fill-rule="evenodd" fill-opacity="0.8" stroke="none"/>
<circle clip-path="url(#clip222)" cx="1269.75" cy="732.57" r="14" fill="#000000" fill-rule="evenodd" fill-opacity="0.8" stroke="none"/>
<circle clip-path="url(#clip222)" cx="1304.72" cy="719.074" r="14" fill="#000000" fill-rule="evenodd" fill-opacity="0.8" stroke="none"/>
<circle clip-path="url(#clip222)" cx="1339.65" cy="695.974" r="14" fill="#000000" fill-rule="evenodd" fill-opacity="0.8" stroke="none"/>
<circle clip-path="url(#clip222)" cx="1374.51" cy="669.664" r="14" fill="#000000" fill-rule="evenodd" fill-opacity="0.8" stroke="none"/>
<circle clip-path="url(#clip222)" cx="1409.75" cy="667.062" r="14" fill="#000000" fill-rule="evenodd" fill-opacity="0.8" stroke="none"/>
<circle clip-path="url(#clip222)" cx="1454.69" cy="659.18" r="14" fill="#000000" fill-rule="evenodd" fill-opacity="0.8" stroke="none"/>
<circle clip-path="url(#clip222)" cx="1489.65" cy="643.499" r="14" fill="#000000" fill-rule="evenodd" fill-opacity="0.8" stroke="none"/>
<circle clip-path="url(#clip222)" cx="1524.62" cy="606.165" r="14" fill="#000000" fill-rule="evenodd" fill-opacity="0.8" stroke="none"/>
<circle clip-path="url(#clip222)" cx="1562.2" cy="572.862" r="14" fill="#000000" fill-rule="evenodd" fill-opacity="0.8" stroke="none"/>
<circle clip-path="url(#clip222)" cx="1620.75" cy="554.201" r="14" fill="#000000" fill-rule="evenodd" fill-opacity="0.8" stroke="none"/>
<circle clip-path="url(#clip222)" cx="1655.69" cy="537.27" r="14" fill="#000000" fill-rule="evenodd" fill-opacity="0.8" stroke="none"/>
<circle clip-path="url(#clip222)" cx="1690.55" cy="527.22" r="14" fill="#000000" fill-rule="evenodd" fill-opacity="0.8" stroke="none"/>
<circle clip-path="url(#clip222)" cx="1725.28" cy="513.236" r="14" fill="#000000" fill-rule="evenodd" fill-opacity="0.8" stroke="none"/>
<circle clip-path="url(#clip222)" cx="1759.98" cy="506.894" r="14" fill="#000000" fill-rule="evenodd" fill-opacity="0.8" stroke="none"/>
<circle clip-path="url(#clip222)" cx="1794.61" cy="482.901" r="14" fill="#000000" fill-rule="evenodd" fill-opacity="0.8" stroke="none"/>
<circle clip-path="url(#clip222)" cx="1824.93" cy="470.3" r="14" fill="#000000" fill-rule="evenodd" fill-opacity="0.8" stroke="none"/>
<circle clip-path="url(#clip222)" cx="1857.05" cy="462.546" r="14" fill="#000000" fill-rule="evenodd" fill-opacity="0.8" stroke="none"/>
<circle clip-path="url(#clip222)" cx="1889.24" cy="447.624" r="14" fill="#000000" fill-rule="evenodd" fill-opacity="0.8" stroke="none"/>
<circle clip-path="url(#clip222)" cx="1921.46" cy="432.703" r="14" fill="#000000" fill-rule="evenodd" fill-opacity="0.8" stroke="none"/>
<circle clip-path="url(#clip222)" cx="1953.69" cy="416.594" r="14" fill="#000000" fill-rule="evenodd" fill-opacity="0.8" stroke="none"/>
<circle clip-path="url(#clip222)" cx="1986.14" cy="408.255" r="14" fill="#000000" fill-rule="evenodd" fill-opacity="0.8" stroke="none"/>
<circle clip-path="url(#clip222)" cx="2018.4" cy="399.551" r="14" fill="#000000" fill-rule="evenodd" fill-opacity="0.8" stroke="none"/>
<circle clip-path="url(#clip222)" cx="2050.69" cy="390.443" r="14" fill="#000000" fill-rule="evenodd" fill-opacity="0.8" stroke="none"/>
<circle clip-path="url(#clip222)" cx="2083.05" cy="381.81" r="14" fill="#000000" fill-rule="evenodd" fill-opacity="0.8" stroke="none"/>
<circle clip-path="url(#clip222)" cx="2115.3" cy="372.455" r="14" fill="#000000" fill-rule="evenodd" fill-opacity="0.8" stroke="none"/>
<circle clip-path="url(#clip222)" cx="2147.59" cy="364.815" r="14" fill="#000000" fill-rule="evenodd" fill-opacity="0.8" stroke="none"/>
<circle clip-path="url(#clip222)" cx="2179.88" cy="359.46" r="14" fill="#000000" fill-rule="evenodd" fill-opacity="0.8" stroke="none"/>
<circle clip-path="url(#clip222)" cx="2212.37" cy="345.87" r="14" fill="#000000" fill-rule="evenodd" fill-opacity="0.8" stroke="none"/>
<circle clip-path="url(#clip222)" cx="2244.36" cy="340.532" r="14" fill="#000000" fill-rule="evenodd" fill-opacity="0.8" stroke="none"/>
<circle clip-path="url(#clip222)" cx="2276.65" cy="339.499" r="14" fill="#000000" fill-rule="evenodd" fill-opacity="0.8" stroke="none"/>
<circle clip-path="url(#clip222)" cx="2308.91" cy="332.144" r="14" fill="#000000" fill-rule="evenodd" fill-opacity="0.8" stroke="none"/>
<circle clip-path="url(#clip222)" cx="2341.23" cy="311.545" r="14" fill="#000000" fill-rule="evenodd" fill-opacity="0.8" stroke="none"/>
<circle clip-path="url(#clip222)" cx="2373.45" cy="303.587" r="14" fill="#000000" fill-rule="evenodd" fill-opacity="0.8" stroke="none"/>
<circle clip-path="url(#clip222)" cx="2405.71" cy="291.959" r="14" fill="#000000" fill-rule="evenodd" fill-opacity="0.8" stroke="none"/>
<circle clip-path="url(#clip222)" cx="2437.97" cy="287.347" r="14" fill="#000000" fill-rule="evenodd" fill-opacity="0.8" stroke="none"/>
<circle clip-path="url(#clip222)" cx="2470.29" cy="285.911" r="14" fill="#000000" fill-rule="evenodd" fill-opacity="0.8" stroke="none"/>
<circle clip-path="url(#clip222)" cx="2502.61" cy="267.712" r="14" fill="#000000" fill-rule="evenodd" fill-opacity="0.8" stroke="none"/>
<circle clip-path="url(#clip222)" cx="2534.94" cy="240.733" r="14" fill="#000000" fill-rule="evenodd" fill-opacity="0.8" stroke="none"/>
<circle clip-path="url(#clip222)" cx="2567.29" cy="234.785" r="14" fill="#000000" fill-rule="evenodd" fill-opacity="0.8" stroke="none"/>
<circle clip-path="url(#clip222)" cx="2599.62" cy="228.49" r="14" fill="#000000" fill-rule="evenodd" fill-opacity="0.8" stroke="none"/>
<circle clip-path="url(#clip222)" cx="2632.27" cy="231.383" r="14" fill="#000000" fill-rule="evenodd" fill-opacity="0.8" stroke="none"/>
<circle clip-path="url(#clip222)" cx="2664.6" cy="223.617" r="14" fill="#000000" fill-rule="evenodd" fill-opacity="0.8" stroke="none"/>
<circle clip-path="url(#clip222)" cx="2696.92" cy="214.947" r="14" fill="#000000" fill-rule="evenodd" fill-opacity="0.8" stroke="none"/>
<circle clip-path="url(#clip222)" cx="2729.21" cy="208.866" r="14" fill="#000000" fill-rule="evenodd" fill-opacity="0.8" stroke="none"/>
<circle clip-path="url(#clip222)" cx="2761.53" cy="201.763" r="14" fill="#000000" fill-rule="evenodd" fill-opacity="0.8" stroke="none"/>
<circle clip-path="url(#clip222)" cx="2793.99" cy="189.052" r="14" fill="#000000" fill-rule="evenodd" fill-opacity="0.8" stroke="none"/>
<circle clip-path="url(#clip222)" cx="2826.28" cy="182.858" r="14" fill="#000000" fill-rule="evenodd" fill-opacity="0.8" stroke="none"/>
<circle clip-path="url(#clip222)" cx="2858.54" cy="208.238" r="14" fill="#000000" fill-rule="evenodd" fill-opacity="0.8" stroke="none"/>
<circle clip-path="url(#clip222)" cx="2890.86" cy="188.862" r="14" fill="#000000" fill-rule="evenodd" fill-opacity="0.8" stroke="none"/>
<circle clip-path="url(#clip222)" cx="2923.15" cy="192.752" r="14" fill="#000000" fill-rule="evenodd" fill-opacity="0.8" stroke="none"/>
<circle clip-path="url(#clip222)" cx="2955.5" cy="202.287" r="14" fill="#000000" fill-rule="evenodd" fill-opacity="0.8" stroke="none"/>
<polyline clip-path="url(#clip222)" style="stroke:#e26f46; stroke-linecap:butt; stroke-linejoin:round; stroke-width:8; stroke-opacity:1; fill:none" points="
  261.742,1443 264.635,1442.99 267.529,1442.97 270.423,1442.95 273.317,1442.94 276.211,1442.92 279.105,1442.9 281.999,1442.88 284.893,1442.87 287.787,1442.85 
  290.681,1442.83 293.575,1442.81 296.468,1442.79 299.362,1442.77 302.256,1442.75 305.15,1442.72 308.044,1442.7 310.938,1442.68 313.832,1442.66 316.726,1442.63 
  319.62,1442.61 322.514,1442.59 325.407,1442.56 328.301,1442.53 331.195,1442.51 334.089,1442.48 336.983,1442.45 339.877,1442.43 342.771,1442.4 345.665,1442.37 
  348.559,1442.34 351.453,1442.31 354.347,1442.28 357.24,1442.24 360.134,1442.21 363.028,1442.18 365.922,1442.14 368.816,1442.11 371.71,1442.07 374.604,1442.04 
  377.498,1442 380.392,1441.96 383.286,1441.92 386.18,1441.88 389.073,1441.84 391.967,1441.8 394.861,1441.76 397.755,1441.71 400.649,1441.67 403.543,1441.62 
  406.437,1441.58 409.331,1441.53 412.225,1441.48 415.119,1441.43 418.013,1441.38 420.906,1441.33 423.8,1441.27 426.694,1441.22 429.588,1441.16 432.482,1441.11 
  435.376,1441.05 438.27,1440.99 441.164,1440.93 444.058,1440.86 446.952,1440.8 449.846,1440.74 452.739,1440.67 455.633,1440.6 458.527,1440.53 461.421,1440.46 
  464.315,1440.39 467.209,1440.31 470.103,1440.24 472.997,1440.16 475.891,1440.08 478.785,1440 481.679,1439.92 484.572,1439.83 487.466,1439.75 490.36,1439.66 
  493.254,1439.57 496.148,1439.47 499.042,1439.38 501.936,1439.28 504.83,1439.18 507.724,1439.08 510.618,1438.98 513.512,1438.87 516.405,1438.77 519.299,1438.65 
  522.193,1438.54 525.087,1438.43 527.981,1438.31 530.875,1438.19 533.769,1438.06 536.663,1437.94 539.557,1437.81 542.451,1437.68 545.345,1437.54 548.238,1437.41 
  551.132,1437.26 554.026,1437.12 556.92,1436.97 559.814,1436.82 562.708,1436.67 565.602,1436.51 568.496,1436.35 571.39,1436.19 574.284,1436.02 577.178,1435.85 
  580.071,1435.68 582.965,1435.5 585.859,1435.31 588.753,1435.13 591.647,1434.94 594.541,1434.74 597.435,1434.54 600.329,1434.34 603.223,1434.13 606.117,1433.92 
  609.011,1433.7 611.904,1433.48 614.798,1433.25 617.692,1433.02 620.586,1432.78 623.48,1432.54 626.374,1432.29 629.268,1432.04 632.162,1431.78 635.056,1431.51 
  637.95,1431.24 640.843,1430.97 643.737,1430.69 646.631,1430.4 649.525,1430.1 652.419,1429.8 655.313,1429.5 658.207,1429.18 661.101,1428.86 663.995,1428.54 
  666.889,1428.2 669.783,1427.86 672.676,1427.51 675.57,1427.15 678.464,1426.79 681.358,1426.42 684.252,1426.04 687.146,1425.65 690.04,1425.25 692.934,1424.85 
  695.828,1424.43 698.722,1424.01 701.616,1423.58 704.509,1423.14 707.403,1422.69 710.297,1422.23 713.191,1421.76 716.085,1421.28 718.979,1420.79 721.873,1420.29 
  724.767,1419.78 727.661,1419.25 730.555,1418.72 733.449,1418.18 736.342,1417.62 739.236,1417.06 742.13,1416.48 745.024,1415.89 747.918,1415.28 750.812,1414.67 
  753.706,1414.04 756.6,1413.4 759.494,1412.74 762.388,1412.08 765.282,1411.39 768.175,1410.7 771.069,1409.99 773.963,1409.26 776.857,1408.52 779.751,1407.77 
  782.645,1407 785.539,1406.21 788.433,1405.41 791.327,1404.59 794.221,1403.76 797.115,1402.91 800.008,1402.04 802.902,1401.15 805.796,1400.25 808.69,1399.33 
  811.584,1398.39 814.478,1397.43 817.372,1396.45 820.266,1395.46 823.16,1394.44 826.054,1393.41 828.948,1392.35 831.841,1391.28 834.735,1390.18 837.629,1389.06 
  840.523,1387.92 843.417,1386.76 846.311,1385.58 849.205,1384.37 852.099,1383.14 854.993,1381.89 857.887,1380.61 860.781,1379.31 863.674,1377.98 866.568,1376.63 
  869.462,1375.26 872.356,1373.86 875.25,1372.43 878.144,1370.98 881.038,1369.5 883.932,1368 886.826,1366.47 889.72,1364.91 892.614,1363.32 895.507,1361.7 
  898.401,1360.06 901.295,1358.39 904.189,1356.68 907.083,1354.95 909.977,1353.19 912.871,1351.4 915.765,1349.57 918.659,1347.72 921.553,1345.84 924.447,1343.92 
  927.34,1341.97 930.234,1339.99 933.128,1337.98 936.022,1335.93 938.916,1333.85 941.81,1331.74 944.704,1329.59 947.598,1327.41 950.492,1325.2 953.386,1322.95 
  956.28,1320.66 959.173,1318.34 962.067,1315.99 964.961,1313.6 967.855,1311.17 970.749,1308.71 973.643,1306.21 976.537,1303.67 979.431,1301.1 982.325,1298.49 
  985.219,1295.84 988.112,1293.15 991.006,1290.43 993.9,1287.67 996.794,1284.88 999.688,1282.04 1002.58,1279.17 1005.48,1276.26 1008.37,1273.31 1011.26,1270.33 
  1014.16,1267.3 1017.05,1264.24 1019.95,1261.14 1022.84,1258 1025.73,1254.83 1028.63,1251.62 1031.52,1248.36 1034.42,1245.08 1037.31,1241.75 1040.2,1238.39 
  1043.1,1234.99 1045.99,1231.55 1048.88,1228.07 1051.78,1224.56 1054.67,1221.01 1057.57,1217.43 1060.46,1213.81 1063.35,1210.15 1066.25,1206.46 1069.14,1202.73 
  1072.04,1198.97 1074.93,1195.17 1077.82,1191.34 1080.72,1187.47 1083.61,1183.57 1086.51,1179.64 1089.4,1175.68 1092.29,1171.68 1095.19,1167.66 1098.08,1163.6 
  1100.97,1159.51 1103.87,1155.39 1106.76,1151.25 1109.66,1147.07 1112.55,1142.87 1115.44,1138.64 1118.34,1134.38 1121.23,1130.09 1124.13,1125.78 1127.02,1121.45 
  1129.91,1117.09 1132.81,1112.7 1135.7,1108.3 1138.6,1103.87 1141.49,1099.42 1144.38,1094.94 1147.28,1090.45 1150.17,1085.94 1153.07,1081.41 1155.96,1076.86 
  1158.85,1072.29 1161.75,1067.71 1164.64,1063.11 1167.53,1058.5 1170.43,1053.87 1173.32,1049.23 1176.22,1044.58 1179.11,1039.92 1182,1035.24 1184.9,1030.56 
  1187.79,1025.87 1190.69,1021.16 1193.58,1016.46 1196.47,1011.74 1199.37,1007.02 1202.26,1002.29 1205.16,997.562 1208.05,992.828 1210.94,988.092 1213.84,983.354 
  1216.73,978.615 1219.63,973.877 1222.52,969.139 1225.41,964.403 1228.31,959.67 1231.2,954.94 1234.09,950.214 1236.99,945.493 1239.88,940.778 1242.78,936.069 
  1245.67,931.367 1248.56,926.672 1251.46,921.987 1254.35,917.31 1257.25,912.643 1260.14,907.987 1263.03,903.342 1265.93,898.709 1268.82,894.088 1271.72,889.48 
  1274.61,884.885 1277.5,880.305 1280.4,875.74 1283.29,871.19 1286.19,866.656 1289.08,862.139 1291.97,857.638 1294.87,853.155 1297.76,848.69 1300.65,844.244 
  1303.55,839.816 1306.44,835.408 1309.34,831.02 1312.23,826.652 1315.12,822.305 1318.02,817.979 1320.91,813.675 1323.81,809.393 1326.7,805.133 1329.59,800.895 
  1332.49,796.681 1335.38,792.491 1338.28,788.324 1341.17,784.181 1344.06,780.063 1346.96,775.969 1349.85,771.901 1352.74,767.857 1355.64,763.84 1358.53,759.848 
  1361.43,755.882 1364.32,751.942 1367.21,748.028 1370.11,744.142 1373,740.282 1375.9,736.449 1378.79,732.643 1381.68,728.865 1384.58,725.115 1387.47,721.391 
  1390.37,717.696 1393.26,714.028 1396.15,710.387 1399.05,706.774 1401.94,703.189 1404.84,699.632 1407.73,696.103 1410.62,692.601 1413.52,689.127 1416.41,685.681 
  1419.3,682.263 1422.2,678.873 1425.09,675.51 1427.99,672.175 1430.88,668.868 1433.77,665.589 1436.67,662.338 1439.56,659.114 1442.46,655.918 1445.35,652.75 
  1448.24,649.609 1451.14,646.495 1454.03,643.41 1456.93,640.351 1459.82,637.32 1462.71,634.316 1465.61,631.34 1468.5,628.39 1471.4,625.468 1474.29,622.573 
  1477.18,619.704 1480.08,616.863 1482.97,614.048 1485.86,611.259 1488.76,608.497 1491.65,605.761 1494.55,603.052 1497.44,600.368 1500.33,597.711 1503.23,595.079 
  1506.12,592.473 1509.02,589.893 1511.91,587.338 1514.8,584.808 1517.7,582.303 1520.59,579.823 1523.49,577.368 1526.38,574.937 1529.27,572.531 1532.17,570.149 
  1535.06,567.791 1537.96,565.456 1540.85,563.145 1543.74,560.858 1546.64,558.594 1549.53,556.352 1552.42,554.134 1555.32,551.938 1558.21,549.764 1561.11,547.612 
  1564,545.483 1566.89,543.375 1569.79,541.289 1572.68,539.224 1575.58,537.181 1578.47,535.159 1581.36,533.158 1584.26,531.178 1587.15,529.219 1590.05,527.28 
  1592.94,525.361 1595.83,523.463 1598.73,521.585 1601.62,519.727 1604.51,517.888 1607.41,516.069 1610.3,514.27 1613.2,512.49 1616.09,510.729 1618.98,508.987 
  1621.88,507.263 1624.77,505.559 1627.67,503.873 1630.56,502.205 1633.45,500.555 1636.35,498.923 1639.24,497.31 1642.14,495.714 1645.03,494.135 1647.92,492.574 
  1650.82,491.03 1653.71,489.503 1656.61,487.993 1659.5,486.5 1662.39,485.024 1665.29,483.564 1668.18,482.12 1671.07,480.692 1673.97,479.281 1676.86,477.885 
  1679.76,476.505 1682.65,475.141 1685.54,473.792 1688.44,472.458 1691.33,471.139 1694.23,469.836 1697.12,468.547 1700.01,467.273 1702.91,466.013 1705.8,464.767 
  1708.7,463.536 1711.59,462.319 1714.48,461.116 1717.38,459.926 1720.27,458.75 1723.17,457.588 1726.06,456.439 1728.95,455.303 1731.85,454.18 1734.74,453.07 
  1737.63,451.972 1740.53,450.887 1743.42,449.815 1746.32,448.755 1749.21,447.707 1752.1,446.671 1755,445.647 1757.89,444.634 1760.79,443.634 1763.68,442.644 
  1766.57,441.666 1769.47,440.699 1772.36,439.743 1775.26,438.798 1778.15,437.863 1781.04,436.939 1783.94,436.025 1786.83,435.122 1789.73,434.229 1792.62,433.346 
  1795.51,432.472 1798.41,431.608 1801.3,430.754 1804.19,429.91 1807.09,429.074 1809.98,428.248 1812.88,427.431 1815.77,426.623 1818.66,425.824 1821.56,425.034 
  1824.45,424.254 1827.35,423.482 1830.24,422.719 1833.13,421.965 1836.03,421.219 1838.92,420.482 1841.82,419.754 1844.71,419.034 1847.6,418.322 1850.5,417.618 
  1853.39,416.923 1856.28,416.235 1859.18,415.556 1862.07,414.884 1864.97,414.22 1867.86,413.564 1870.75,412.915 1873.65,412.274 1876.54,411.64 1879.44,411.014 
  1882.33,410.395 1885.22,409.784 1888.12,409.179 1891.01,408.581 1893.91,407.991 1896.8,407.407 1899.69,406.83 1902.59,406.26 1905.48,405.697 1908.38,405.14 
  1911.27,404.59 1914.16,404.046 1917.06,403.508 1919.95,402.977 1922.84,402.452 1925.74,401.933 1928.63,401.421 1931.53,400.914 1934.42,400.413 1937.31,399.918 
  1940.21,399.429 1943.1,398.946 1946,398.468 1948.89,397.996 1951.78,397.529 1954.68,397.068 1957.57,396.612 1960.47,396.162 1963.36,395.717 1966.25,395.277 
  1969.15,394.842 1972.04,394.413 1974.94,393.988 1977.83,393.568 1980.72,393.153 1983.62,392.743 1986.51,392.338 1989.4,391.938 1992.3,391.542 1995.19,391.15 
  1998.09,390.764 2000.98,390.381 2003.87,390.004 2006.77,389.63 2009.66,389.261 2012.56,388.896 2015.45,388.535 2018.34,388.179 2021.24,387.826 2024.13,387.478 
  2027.03,387.133 2029.92,386.792 2032.81,386.456 2035.71,386.122 2038.6,385.793 2041.5,385.468 2044.39,385.146 2047.28,384.828 2050.18,384.513 2053.07,384.202 
  2055.96,383.895 2058.86,383.591 2061.75,383.291 2064.65,382.994 2067.54,382.701 2070.43,382.411 2073.33,382.124 2076.22,381.841 2079.12,381.561 2082.01,381.285 
  2084.9,381.011 2087.8,380.741 2090.69,380.474 2093.59,380.21 2096.48,379.949 2099.37,379.692 2102.27,379.437 2105.16,379.186 2108.06,378.937 2110.95,378.692 
  2113.84,378.449 2116.74,378.209 2119.63,377.972 2122.52,377.738 2125.42,377.507 2128.31,377.279 2131.21,377.053 2134.1,376.83 2136.99,376.61 2139.89,376.392 
  2142.78,376.177 2145.68,375.965 2148.57,375.755 2151.46,375.548 2154.36,375.343 2157.25,375.14 2160.15,374.941 2163.04,374.743 2165.93,374.548 2168.83,374.356 
  2171.72,374.165 2174.61,373.977 2177.51,373.792 2180.4,373.608 2183.3,373.427 2186.19,373.248 2189.08,373.071 2191.98,372.896 2194.87,372.724 2197.77,372.553 
  2200.66,372.385 2203.55,372.219 2206.45,372.054 2209.34,371.892 2212.24,371.731 2215.13,371.573 2218.02,371.416 2220.92,371.262 2223.81,371.109 2226.71,370.958 
  2229.6,370.809 2232.49,370.661 2235.39,370.515 2238.28,370.371 2241.17,370.229 2244.07,370.089 2246.96,369.95 2249.86,369.812 2252.75,369.677 2255.64,369.542 
  2258.54,369.41 2261.43,369.279 2264.33,369.149 2267.22,369.021 2270.11,368.894 2273.01,368.769 2275.9,368.645 2278.8,368.523 2281.69,368.402 2284.58,368.282 
  2287.48,368.164 2290.37,368.047 2293.27,367.931 2296.16,367.816 2299.05,367.703 2301.95,367.59 2304.84,367.479 2307.73,367.37 2310.63,367.261 2313.52,367.154 
  2316.42,367.048 2319.31,366.943 2322.2,366.839 2325.1,366.736 2327.99,366.635 2330.89,366.535 2333.78,366.436 2336.67,366.338 2339.57,366.241 2342.46,366.145 
  2345.36,366.051 2348.25,365.957 2351.14,365.865 2354.04,365.774 2356.93,365.683 2359.83,365.594 2362.72,365.506 2365.61,365.419 2368.51,365.333 2371.4,365.248 
  2374.29,365.164 2377.19,365.081 2380.08,364.999 2382.98,364.918 2385.87,364.838 2388.76,364.758 2391.66,364.68 2394.55,364.603 2397.45,364.527 2400.34,364.451 
  2403.23,364.377 2406.13,364.303 2409.02,364.23 2411.92,364.159 2414.81,364.088 2417.7,364.017 2420.6,363.948 2423.49,363.88 2426.38,363.812 2429.28,363.745 
  2432.17,363.68 2435.07,363.614 2437.96,363.55 2440.85,363.487 2443.75,363.424 2446.64,363.362 2449.54,363.301 2452.43,363.24 2455.32,363.18 2458.22,363.121 
  2461.11,363.063 2464.01,363.005 2466.9,362.949 2469.79,362.892 2472.69,362.837 2475.58,362.782 2478.48,362.728 2481.37,362.675 2484.26,362.622 2487.16,362.57 
  2490.05,362.518 2492.94,362.467 2495.84,362.417 2498.73,362.367 2501.63,362.318 2504.52,362.27 2507.41,362.222 2510.31,362.175 2513.2,362.128 2516.1,362.082 
  2518.99,362.036 2521.88,361.991 2524.78,361.947 2527.67,361.903 2530.57,361.859 2533.46,361.816 2536.35,361.774 2539.25,361.732 2542.14,361.691 2545.04,361.65 
  2547.93,361.609 2550.82,361.569 2553.72,361.53 2556.61,361.49 2559.5,361.452 2562.4,361.413 2565.29,361.376 2568.19,361.338 2571.08,361.301 2573.97,361.265 
  2576.87,361.228 2579.76,361.193 2582.66,361.157 2585.55,361.122 2588.44,361.088 2591.34,361.053 2594.23,361.019 2597.13,360.986 2600.02,360.952 2602.91,360.919 
  2605.81,360.887 2608.7,360.855 2611.6,360.823 2614.49,360.791 2617.38,360.76 2620.28,360.729 2623.17,360.699 2626.06,360.668 2628.96,360.638 2631.85,360.609 
  2634.75,360.58 2637.64,360.551 2640.53,360.522 2643.43,360.494 2646.32,360.466 2649.22,360.438 2652.11,360.411 2655,360.384 2657.9,360.357 2660.79,360.331 
  2663.69,360.305 2666.58,360.279 2669.47,360.253 2672.37,360.228 2675.26,360.203 2678.15,360.179 2681.05,360.154 2683.94,360.13 2686.84,360.107 2689.73,360.083 
  2692.62,360.06 2695.52,360.037 2698.41,360.014 2701.31,359.992 2704.2,359.97 2707.09,359.948 2709.99,359.927 2712.88,359.905 2715.78,359.884 2718.67,359.864 
  2721.56,359.843 2724.46,359.823 2727.35,359.803 2730.25,359.783 2733.14,359.764 2736.03,359.745 2738.93,359.726 2741.82,359.707 2744.71,359.689 2747.61,359.67 
  2750.5,359.652 2753.4,359.635 2756.29,359.617 2759.18,359.6 2762.08,359.583 2764.97,359.566 2767.87,359.549 2770.76,359.533 2773.65,359.517 2776.55,359.501 
  2779.44,359.485 2782.34,359.469 2785.23,359.454 2788.12,359.439 2791.02,359.424 2793.91,359.409 2796.81,359.395 2799.7,359.38 2802.59,359.366 2805.49,359.352 
  2808.38,359.338 2811.27,359.325 2814.17,359.311 2817.06,359.298 2819.96,359.285 2822.85,359.272 2825.74,359.26 2828.64,359.247 2831.53,359.235 2834.43,359.223 
  2837.32,359.211 2840.21,359.199 2843.11,359.187 2846,359.175 2848.9,359.164 2851.79,359.153 2854.68,359.142 2857.58,359.131 2860.47,359.12 2863.37,359.109 
  2866.26,359.099 2869.15,359.088 2872.05,359.078 2874.94,359.068 2877.83,359.058 2880.73,359.048 2883.62,359.038 2886.52,359.028 2889.41,359.019 2892.3,359.009 
  2895.2,359 2898.09,358.991 2900.99,358.982 2903.88,358.973 2906.77,358.964 2909.67,358.955 2912.56,358.946 2915.46,358.938 2918.35,358.929 2921.24,358.921 
  2924.14,358.912 2927.03,358.904 2929.92,358.896 2932.82,358.887 2935.71,358.879 2938.61,358.871 2941.5,358.863 2944.39,358.855 2947.29,358.848 2950.18,358.84 
  2953.08,358.832 2955.97,358.824 2958.86,358.817 2961.76,358.809 2964.65,358.802 2967.55,358.794 2970.44,358.787 2973.33,358.779 2976.23,358.772 2979.12,358.765 
  2982.02,358.758 2984.91,358.751 2987.8,358.744 2990.7,358.737 2993.59,358.731 2996.48,358.724 2999.38,358.717 3002.27,358.711 3005.17,358.704 3008.06,358.698 
  3010.95,358.692 3013.85,358.686 3016.74,358.68 3019.64,358.673 3022.53,358.668 3025.42,358.662 3028.32,358.656 3031.21,358.65 3034.11,358.644 3037,358.639 
  3039.89,358.633 3042.79,358.628 3045.68,358.622 3048.58,358.617 3051.47,358.611 3054.36,358.606 3057.26,358.601 3060.15,358.596 3063.04,358.591 3065.94,358.586 
  3068.83,358.581 3071.73,358.576 3074.62,358.571 3077.51,358.566 3080.41,358.562 3083.3,358.557 3086.2,358.553 3089.09,358.548 3091.98,358.543 3094.88,358.539 
  3097.77,358.535 3100.67,358.53 3103.56,358.526 3106.45,358.522 3109.35,358.518 3112.24,358.514 3115.14,358.509 3118.03,358.505 3120.92,358.501 3123.82,358.497 
  3126.71,358.494 3129.6,358.49 3132.5,358.486 3135.39,358.482 3138.29,358.478 3141.18,358.475 3144.07,358.471 3146.97,358.468 3149.86,358.464 3152.76,358.46 
  
  "/>
<polyline clip-path="url(#clip222)" style="stroke:#3da44d; stroke-linecap:butt; stroke-linejoin:round; stroke-width:8; stroke-opacity:1; fill:none" points="
  261.742,1443 264.635,1442.99 267.529,1442.97 270.423,1442.96 273.317,1442.94 276.211,1442.92 279.105,1442.91 281.999,1442.89 284.893,1442.87 287.787,1442.86 
  290.681,1442.84 293.575,1442.82 296.468,1442.8 299.362,1442.79 302.256,1442.77 305.15,1442.75 308.044,1442.73 310.938,1442.71 313.832,1442.69 316.726,1442.67 
  319.62,1442.64 322.514,1442.62 325.407,1442.6 328.301,1442.58 331.195,1442.55 334.089,1442.53 336.983,1442.51 339.877,1442.48 342.771,1442.46 345.665,1442.43 
  348.559,1442.41 351.453,1442.38 354.347,1442.35 357.24,1442.33 360.134,1442.3 363.028,1442.27 365.922,1442.24 368.816,1442.21 371.71,1442.18 374.604,1442.15 
  377.498,1442.12 380.392,1442.09 383.286,1442.06 386.18,1442.03 389.073,1441.99 391.967,1441.96 394.861,1441.92 397.755,1441.89 400.649,1441.85 403.543,1441.82 
  406.437,1441.78 409.331,1441.74 412.225,1441.7 415.119,1441.66 418.013,1441.62 420.906,1441.58 423.8,1441.54 426.694,1441.5 429.588,1441.46 432.482,1441.41 
  435.376,1441.37 438.27,1441.32 441.164,1441.28 444.058,1441.23 446.952,1441.18 449.846,1441.14 452.739,1441.09 455.633,1441.04 458.527,1440.99 461.421,1440.93 
  464.315,1440.88 467.209,1440.83 470.103,1440.77 472.997,1440.72 475.891,1440.66 478.785,1440.6 481.679,1440.54 484.572,1440.48 487.466,1440.42 490.36,1440.36 
  493.254,1440.3 496.148,1440.23 499.042,1440.17 501.936,1440.1 504.83,1440.04 507.724,1439.97 510.618,1439.9 513.512,1439.83 516.405,1439.76 519.299,1439.68 
  522.193,1439.61 525.087,1439.53 527.981,1439.46 530.875,1439.38 533.769,1439.3 536.663,1439.22 539.557,1439.14 542.451,1439.05 545.345,1438.97 548.238,1438.88 
  551.132,1438.79 554.026,1438.7 556.92,1438.61 559.814,1438.52 562.708,1438.43 565.602,1438.33 568.496,1438.24 571.39,1438.14 574.284,1438.04 577.178,1437.94 
  580.071,1437.83 582.965,1437.73 585.859,1437.62 588.753,1437.51 591.647,1437.4 594.541,1437.29 597.435,1437.18 600.329,1437.06 603.223,1436.95 606.117,1436.83 
  609.011,1436.7 611.904,1436.58 614.798,1436.46 617.692,1436.33 620.586,1436.2 623.48,1436.07 626.374,1435.94 629.268,1435.8 632.162,1435.67 635.056,1435.53 
  637.95,1435.38 640.843,1435.24 643.737,1435.09 646.631,1434.95 649.525,1434.8 652.419,1434.64 655.313,1434.49 658.207,1434.33 661.101,1434.17 663.995,1434.01 
  666.889,1433.84 669.783,1433.68 672.676,1433.51 675.57,1433.33 678.464,1433.16 681.358,1432.98 684.252,1432.8 687.146,1432.62 690.04,1432.43 692.934,1432.24 
  695.828,1432.05 698.722,1431.86 701.616,1431.66 704.509,1431.46 707.403,1431.26 710.297,1431.05 713.191,1430.84 716.085,1430.63 718.979,1430.41 721.873,1430.19 
  724.767,1429.97 727.661,1429.75 730.555,1429.52 733.449,1429.29 736.342,1429.05 739.236,1428.81 742.13,1428.57 745.024,1428.33 747.918,1428.08 750.812,1427.83 
  753.706,1427.57 756.6,1427.31 759.494,1427.05 762.388,1426.78 765.282,1426.51 768.175,1426.24 771.069,1425.96 773.963,1425.67 776.857,1425.39 779.751,1425.1 
  782.645,1424.8 785.539,1424.51 788.433,1424.2 791.327,1423.9 794.221,1423.59 797.115,1423.27 800.008,1422.95 802.902,1422.63 805.796,1422.3 808.69,1421.96 
  811.584,1421.63 814.478,1421.28 817.372,1420.94 820.266,1420.59 823.16,1420.23 826.054,1419.87 828.948,1419.5 831.841,1419.13 834.735,1418.76 837.629,1418.38 
  840.523,1417.99 843.417,1417.6 846.311,1417.2 849.205,1416.8 852.099,1416.4 854.993,1415.98 857.887,1415.57 860.781,1415.14 863.674,1414.72 866.568,1414.28 
  869.462,1413.84 872.356,1413.4 875.25,1412.95 878.144,1412.49 881.038,1412.03 883.932,1411.56 886.826,1411.08 889.72,1410.6 892.614,1410.12 895.507,1409.62 
  898.401,1409.12 901.295,1408.62 904.189,1408.11 907.083,1407.59 909.977,1407.06 912.871,1406.53 915.765,1406 918.659,1405.45 921.553,1404.9 924.447,1404.34 
  927.34,1403.78 930.234,1403.21 933.128,1402.63 936.022,1402.04 938.916,1401.45 941.81,1400.85 944.704,1400.24 947.598,1399.63 950.492,1399.01 953.386,1398.38 
  956.28,1397.74 959.173,1397.09 962.067,1396.44 964.961,1395.78 967.855,1395.11 970.749,1394.44 973.643,1393.75 976.537,1393.06 979.431,1392.36 982.325,1391.65 
  985.219,1390.94 988.112,1390.21 991.006,1389.48 993.9,1388.74 996.794,1387.99 999.688,1387.23 1002.58,1386.46 1005.48,1385.69 1008.37,1384.9 1011.26,1384.11 
  1014.16,1383.31 1017.05,1382.5 1019.95,1381.67 1022.84,1380.84 1025.73,1380.01 1028.63,1379.16 1031.52,1378.3 1034.42,1377.43 1037.31,1376.55 1040.2,1375.67 
  1043.1,1374.77 1045.99,1373.87 1048.88,1372.95 1051.78,1372.02 1054.67,1371.09 1057.57,1370.14 1060.46,1369.19 1063.35,1368.22 1066.25,1367.24 1069.14,1366.26 
  1072.04,1365.26 1074.93,1364.25 1077.82,1363.23 1080.72,1362.2 1083.61,1361.16 1086.51,1360.11 1089.4,1359.05 1092.29,1357.97 1095.19,1356.89 1098.08,1355.8 
  1100.97,1354.69 1103.87,1353.57 1106.76,1352.44 1109.66,1351.3 1112.55,1350.15 1115.44,1348.98 1118.34,1347.81 1121.23,1346.62 1124.13,1345.42 1127.02,1344.21 
  1129.91,1342.98 1132.81,1341.75 1135.7,1340.5 1138.6,1339.24 1141.49,1337.97 1144.38,1336.68 1147.28,1335.39 1150.17,1334.08 1153.07,1332.75 1155.96,1331.42 
  1158.85,1330.07 1161.75,1328.71 1164.64,1327.33 1167.53,1325.95 1170.43,1324.55 1173.32,1323.13 1176.22,1321.71 1179.11,1320.27 1182,1318.81 1184.9,1317.35 
  1187.79,1315.87 1190.69,1314.37 1193.58,1312.87 1196.47,1311.34 1199.37,1309.81 1202.26,1308.26 1205.16,1306.7 1208.05,1305.12 1210.94,1303.53 1213.84,1301.92 
  1216.73,1300.3 1219.63,1298.67 1222.52,1297.02 1225.41,1295.36 1228.31,1293.68 1231.2,1291.99 1234.09,1290.28 1236.99,1288.56 1239.88,1286.83 1242.78,1285.08 
  1245.67,1283.31 1248.56,1281.53 1251.46,1279.73 1254.35,1277.92 1257.25,1276.1 1260.14,1274.26 1263.03,1272.4 1265.93,1270.53 1268.82,1268.64 1271.72,1266.74 
  1274.61,1264.82 1277.5,1262.88 1280.4,1260.93 1283.29,1258.97 1286.19,1256.99 1289.08,1254.99 1291.97,1252.97 1294.87,1250.95 1297.76,1248.9 1300.65,1246.84 
  1303.55,1244.76 1306.44,1242.67 1309.34,1240.56 1312.23,1238.43 1315.12,1236.29 1318.02,1234.13 1320.91,1231.95 1323.81,1229.76 1326.7,1227.55 1329.59,1225.33 
  1332.49,1223.09 1335.38,1220.83 1338.28,1218.56 1341.17,1216.27 1344.06,1213.96 1346.96,1211.63 1349.85,1209.29 1352.74,1206.93 1355.64,1204.56 1358.53,1202.17 
  1361.43,1199.76 1364.32,1197.33 1367.21,1194.89 1370.11,1192.43 1373,1189.95 1375.9,1187.46 1378.79,1184.95 1381.68,1182.42 1384.58,1179.87 1387.47,1177.31 
  1390.37,1174.73 1393.26,1172.13 1396.15,1169.52 1399.05,1166.89 1401.94,1164.24 1404.84,1161.57 1407.73,1158.89 1410.62,1156.19 1413.52,1153.47 1416.41,1150.74 
  1419.3,1147.98 1422.2,1145.21 1425.09,1142.43 1427.99,1139.62 1430.88,1136.8 1433.77,1133.96 1436.67,1131.1 1439.56,1128.23 1442.46,1125.34 1445.35,1122.43 
  1448.24,1119.51 1451.14,1116.56 1454.03,1113.6 1456.93,1110.62 1459.82,1107.63 1462.71,1104.62 1465.61,1101.59 1468.5,1098.54 1471.4,1095.48 1474.29,1092.4 
  1477.18,1089.3 1480.08,1086.18 1482.97,1083.05 1485.86,1079.9 1488.76,1076.73 1491.65,1073.55 1494.55,1070.35 1497.44,1067.13 1500.33,1063.9 1503.23,1060.65 
  1506.12,1057.38 1509.02,1054.09 1511.91,1050.79 1514.8,1047.47 1517.7,1044.14 1520.59,1040.79 1523.49,1037.42 1526.38,1034.03 1529.27,1030.63 1532.17,1027.21 
  1535.06,1023.78 1537.96,1020.33 1540.85,1016.86 1543.74,1013.38 1546.64,1009.88 1549.53,1006.37 1552.42,1002.84 1555.32,999.293 1558.21,995.731 1561.11,992.154 
  1564,988.561 1566.89,984.952 1569.79,981.328 1572.68,977.689 1575.58,974.034 1578.47,970.364 1581.36,966.68 1584.26,962.98 1587.15,959.265 1590.05,955.535 
  1592.94,951.791 1595.83,948.032 1598.73,944.258 1601.62,940.47 1604.51,936.668 1607.41,932.852 1610.3,929.021 1613.2,925.176 1616.09,921.318 1618.98,917.446 
  1621.88,913.56 1624.77,909.66 1627.67,905.747 1630.56,901.821 1633.45,897.881 1636.35,893.929 1639.24,889.963 1642.14,885.985 1645.03,881.993 1647.92,877.99 
  1650.82,873.974 1653.71,869.946 1656.61,865.905 1659.5,861.853 1662.39,857.789 1665.29,853.713 1668.18,849.626 1671.07,845.528 1673.97,841.418 1676.86,837.298 
  1679.76,833.166 1682.65,829.024 1685.54,824.871 1688.44,820.708 1691.33,816.535 1694.23,812.352 1697.12,808.159 1700.01,803.956 1702.91,799.744 1705.8,795.523 
  1708.7,791.292 1711.59,787.052 1714.48,782.804 1717.38,778.547 1720.27,774.282 1723.17,770.008 1726.06,765.726 1728.95,761.437 1731.85,757.14 1734.74,752.835 
  1737.63,748.523 1740.53,744.204 1743.42,739.878 1746.32,735.546 1749.21,731.207 1752.1,726.861 1755,722.51 1757.89,718.152 1760.79,713.789 1763.68,709.421 
  1766.57,705.047 1769.47,700.669 1772.36,696.285 1775.26,691.897 1778.15,687.505 1781.04,683.108 1783.94,678.707 1786.83,674.303 1789.73,669.895 1792.62,665.484 
  1795.51,661.07 1798.41,656.653 1801.3,652.233 1804.19,647.811 1807.09,643.387 1809.98,638.961 1812.88,634.533 1815.77,630.104 1818.66,625.674 1821.56,621.243 
  1824.45,616.811 1827.35,612.378 1830.24,607.946 1833.13,603.513 1836.03,599.081 1838.92,594.649 1841.82,590.218 1844.71,585.789 1847.6,581.36 1850.5,576.933 
  1853.39,572.508 1856.28,568.085 1859.18,563.664 1862.07,559.246 1864.97,554.831 1867.86,550.419 1870.75,546.01 1873.65,541.605 1876.54,537.204 1879.44,532.807 
  1882.33,528.415 1885.22,524.028 1888.12,519.645 1891.01,515.268 1893.91,510.896 1896.8,506.529 1899.69,502.167 1902.59,497.811 1905.48,493.46 1908.38,489.116 
  1911.27,484.779 1914.16,480.448 1917.06,476.125 1919.95,471.809 1922.84,467.501 1925.74,463.201 1928.63,458.91 1931.53,454.628 1934.42,450.355 1937.31,446.092 
  1940.21,441.839 1943.1,437.595 1946,433.363 1948.89,429.141 1951.78,424.93 1954.68,420.731 1957.57,416.543 1960.47,412.368 1963.36,408.204 1966.25,404.054 
  1969.15,399.917 1972.04,395.793 1974.94,391.682 1977.83,387.586 1980.72,383.503 1983.62,379.435 1986.51,375.382 1989.4,371.344 1992.3,367.322 1995.19,363.315 
  1998.09,359.324 2000.98,355.349 2003.87,351.391 2006.77,347.449 2009.66,343.525 2012.56,339.618 2015.45,335.729 2018.34,331.857 2021.24,328.004 2024.13,324.17 
  2027.03,320.354 2029.92,316.557 2032.81,312.779 2035.71,309.021 2038.6,305.283 2041.5,301.565 2044.39,297.867 2047.28,294.19 2050.18,290.534 2053.07,286.899 
  2055.96,283.285 2058.86,279.693 2061.75,276.123 2064.65,272.574 2067.54,269.049 2070.43,265.546 2073.33,262.066 2076.22,258.609 2079.12,255.175 2082.01,251.765 
  2084.9,248.379 2087.8,245.017 2090.69,241.679 2093.59,238.366 2096.48,235.078 2099.37,231.814 2102.27,228.576 2105.16,225.364 2108.06,222.177 2110.95,219.016 
  2113.84,215.882 2116.74,212.773 2119.63,209.692 2122.52,206.637 2125.42,203.609 2128.31,200.608 2131.21,197.635 2134.1,194.69 2136.99,191.772 2139.89,188.883 
  2142.78,186.022 2145.68,183.189 2148.57,180.386 2151.46,177.611 2154.36,174.865 2157.25,172.149 2160.15,169.462 2163.04,166.805 2165.93,164.177 2168.83,161.58 
  2171.72,159.013 2174.61,156.477 2177.51,153.971 2180.4,151.497 2183.3,149.053 2186.19,146.64 2189.08,144.259 2191.98,141.91 2194.87,139.592 2197.77,137.306 
  2200.66,135.053 2203.55,132.831 2206.45,130.642 2209.34,128.486 2212.24,126.363 2215.13,124.272 2218.02,122.215 2220.92,120.191 2223.81,118.2 2226.71,116.243 
  2229.6,114.32 2232.49,112.431 2235.39,110.576 2238.28,108.755 2241.17,106.968 2244.07,105.216 2246.96,103.499 2249.86,101.817 2252.75,100.17 2255.64,98.5573 
  2258.54,96.9803 2261.43,95.4388 2264.33,93.9328 2267.22,92.4625 2270.11,91.0281 2273.01,89.6296 2275.9,88.2672 2278.8,86.9411 2281.69,85.6513 2284.58,84.398 
  2287.48,83.1813 2290.37,82.0014 2293.27,80.8583 2296.16,79.7523 2299.05,78.6833 2301.95,77.6515 2304.84,76.6571 2307.73,75.7001 2310.63,74.7807 2313.52,73.899 
  2316.42,73.0551 2319.31,72.249 2322.2,71.481 2325.1,70.7511 2327.99,70.0593 2330.89,69.4059 2333.78,68.7909 2336.67,68.2145 2339.57,67.6766 2342.46,67.1774 
  2345.36,66.7171 2348.25,66.2956 2351.14,65.9131 2354.04,65.5695 2356.93,65.2642 2359.83,64.9974 2362.72,64.7689 2365.61,64.5789 2368.51,64.4272 2371.4,64.314 
  2374.29,64.2391 2377.19,64.2025 2380.08,64.2043 2382.98,64.2445 2385.87,64.323 2388.76,64.4397 2391.66,64.5948 2394.55,64.788 2397.45,65.0195 2400.34,65.2892 
  2403.23,65.597 2406.13,65.943 2409.02,66.327 2411.92,66.749 2414.81,67.209 2417.7,67.707 2420.6,68.2428 2423.49,68.8165 2426.38,69.4279 2429.28,70.0771 
  2432.17,70.7639 2435.07,71.4883 2437.96,72.2502 2440.85,73.0496 2443.75,73.8864 2446.64,74.7605 2449.54,75.6718 2452.43,76.6203 2455.32,77.6059 2458.22,78.6285 
  2461.11,79.688 2464.01,80.7843 2466.9,81.9173 2469.79,83.0869 2472.69,84.2931 2475.58,85.5357 2478.48,86.8146 2481.37,88.1298 2484.26,89.481 2487.16,90.8683 
  2490.05,92.2915 2492.94,93.7504 2495.84,95.245 2498.73,96.7752 2501.63,98.3407 2504.52,99.9416 2507.41,101.578 2510.31,103.249 2513.2,104.955 2516.1,106.695 
  2518.99,108.47 2521.88,110.28 2524.78,112.124 2527.67,114.003 2530.57,115.915 2533.46,117.861 2536.35,119.841 2539.25,121.855 2542.14,123.901 2545.04,125.982 
  2547.93,128.095 2550.82,130.241 2553.72,132.42 2556.61,134.631 2559.5,136.875 2562.4,139.151 2565.29,141.459 2568.19,143.799 2571.08,146.171 2573.97,148.574 
  2576.87,151.008 2579.76,153.474 2582.66,155.97 2585.55,158.497 2588.44,161.054 2591.34,163.642 2594.23,166.26 2597.13,168.908 2600.02,171.585 2602.91,174.292 
  2605.81,177.028 2608.7,179.793 2611.6,182.587 2614.49,185.409 2617.38,188.26 2620.28,191.139 2623.17,194.045 2626.06,196.98 2628.96,199.941 2631.85,202.93 
  2634.75,205.946 2637.64,208.988 2640.53,212.057 2643.43,215.152 2646.32,218.273 2649.22,221.419 2652.11,224.591 2655,227.788 2657.9,231.01 2660.79,234.256 
  2663.69,237.525 2666.58,240.818 2669.47,244.133 2672.37,247.471 2675.26,250.832 2678.15,254.214 2681.05,257.618 2683.94,261.043 2686.84,264.491 2689.73,267.959 
  2692.62,271.448 2695.52,274.957 2698.41,278.487 2701.31,282.038 2704.2,285.608 2707.09,289.198 2709.99,292.807 2712.88,296.436 2715.78,300.083 2718.67,303.749 
  2721.56,307.434 2724.46,311.137 2727.35,314.859 2730.25,318.597 2733.14,322.354 2736.03,326.128 2738.93,329.919 2741.82,333.727 2744.71,337.551 2747.61,341.392 
  2750.5,345.249 2753.4,349.122 2756.29,353.011 2759.18,356.915 2762.08,360.834 2764.97,364.769 2767.87,368.718 2770.76,372.681 2773.65,376.659 2776.55,380.651 
  2779.44,384.656 2782.34,388.675 2785.23,392.708 2788.12,396.754 2791.02,400.812 2793.91,404.883 2796.81,408.966 2799.7,413.062 2802.59,417.169 2805.49,421.288 
  2808.38,425.419 2811.27,429.56 2814.17,433.713 2817.06,437.876 2819.96,442.05 2822.85,446.234 2825.74,450.428 2828.64,454.631 2831.53,458.844 2834.43,463.067 
  2837.32,467.298 2840.21,471.539 2843.11,475.788 2846,480.045 2848.9,484.31 2851.79,488.583 2854.68,492.864 2857.58,497.152 2860.47,501.447 2863.37,505.749 
  2866.26,510.058 2869.15,514.373 2872.05,518.695 2874.94,523.022 2877.83,527.355 2880.73,531.694 2883.62,536.037 2886.52,540.386 2889.41,544.739 2892.3,549.097 
  2895.2,553.46 2898.09,557.826 2900.99,562.196 2903.88,566.569 2906.77,570.946 2909.67,575.326 2912.56,579.709 2915.46,584.094 2918.35,588.482 2921.24,592.872 
  2924.14,597.264 2927.03,601.657 2929.92,606.052 2932.82,610.447 2935.71,614.844 2938.61,619.242 2941.5,623.64 2944.39,628.038 2947.29,632.436 2950.18,636.834 
  2953.08,641.231 2955.97,645.627 2958.86,650.023 2961.76,654.417 2964.65,658.81 2967.55,663.201 2970.44,667.59 2973.33,671.977 2976.23,676.361 2979.12,680.743 
  2982.02,685.122 2984.91,689.497 2987.8,693.87 2990.7,698.238 2993.59,702.603 2996.48,706.963 2999.38,711.32 3002.27,715.671 3005.17,720.018 3008.06,724.359 
  3010.95,728.696 3013.85,733.026 3016.74,737.351 3019.64,741.67 3022.53,745.983 3025.42,750.289 3028.32,754.588 3031.21,758.88 3034.11,763.165 3037,767.443 
  3039.89,771.712 3042.79,775.974 3045.68,780.228 3048.58,784.473 3051.47,788.709 3054.36,792.936 3057.26,797.154 3060.15,801.363 3063.04,805.562 3065.94,809.751 
  3068.83,813.93 3071.73,818.099 3074.62,822.257 3077.51,826.404 3080.41,830.539 3083.3,834.664 3086.2,838.777 3089.09,842.878 3091.98,846.967 3094.88,851.043 
  3097.77,855.107 3100.67,859.159 3103.56,863.197 3106.45,867.222 3109.35,871.233 3112.24,875.23 3115.14,879.214 3118.03,883.183 3120.92,887.137 3123.82,891.077 
  3126.71,895.002 3129.6,898.912 3132.5,902.806 3135.39,906.684 3138.29,910.546 3141.18,914.393 3144.07,918.222 3146.97,922.035 3149.86,925.831 3152.76,929.61 
  
  "/>
<path clip-path="url(#clip220)" d="
M358.109 249.313 L868.105 249.313 L868.105 93.7926 L358.109 93.7926  Z
  " fill="#ffffff" fill-rule="evenodd" fill-opacity="1"/>
<polyline clip-path="url(#clip220)" style="stroke:#000000; stroke-linecap:butt; stroke-linejoin:round; stroke-width:4; stroke-opacity:1; fill:none" points="
  358.109,249.313 868.105,249.313 868.105,93.7926 358.109,93.7926 358.109,249.313 
  "/>
<polyline clip-path="url(#clip220)" style="stroke:#e26f46; stroke-linecap:butt; stroke-linejoin:round; stroke-width:4; stroke-opacity:1; fill:none" points="
  390.231,145.633 582.965,145.633 
  "/>
<path clip-path="url(#clip220)" d="M615.088 128.353 L619.764 128.353 L619.764 158.977 L636.592 158.977 L636.592 162.913 L615.088 162.913 L615.088 128.353 Z" fill="#000000" fill-rule="evenodd" fill-opacity="1" /><path clip-path="url(#clip220)" d="M650.527 139.973 Q647.101 139.973 645.111 142.658 Q643.12 145.32 643.12 149.973 Q643.12 154.626 645.088 157.311 Q647.078 159.973 650.527 159.973 Q653.93 159.973 655.921 157.288 Q657.912 154.602 657.912 149.973 Q657.912 145.366 655.921 142.681 Q653.93 139.973 650.527 139.973 M650.527 136.362 Q656.083 136.362 659.254 139.973 Q662.425 143.584 662.425 149.973 Q662.425 156.339 659.254 159.973 Q656.083 163.584 650.527 163.584 Q644.949 163.584 641.777 159.973 Q638.629 156.339 638.629 149.973 Q638.629 143.584 641.777 139.973 Q644.949 136.362 650.527 136.362 Z" fill="#000000" fill-rule="evenodd" fill-opacity="1" /><path clip-path="url(#clip220)" d="M686.546 149.649 Q686.546 145.019 684.624 142.473 Q682.726 139.927 679.277 139.927 Q675.851 139.927 673.93 142.473 Q672.032 145.019 672.032 149.649 Q672.032 154.255 673.93 156.802 Q675.851 159.348 679.277 159.348 Q682.726 159.348 684.624 156.802 Q686.546 154.255 686.546 149.649 M690.805 159.695 Q690.805 166.315 687.865 169.533 Q684.925 172.774 678.861 172.774 Q676.615 172.774 674.624 172.426 Q672.634 172.102 670.759 171.408 L670.759 167.264 Q672.634 168.283 674.462 168.769 Q676.291 169.255 678.189 169.255 Q682.379 169.255 684.462 167.056 Q686.546 164.88 686.546 160.459 L686.546 158.352 Q685.226 160.644 683.166 161.778 Q681.106 162.913 678.236 162.913 Q673.467 162.913 670.55 159.278 Q667.634 155.644 667.634 149.649 Q667.634 143.63 670.55 139.996 Q673.467 136.362 678.236 136.362 Q681.106 136.362 683.166 137.496 Q685.226 138.63 686.546 140.922 L686.546 136.987 L690.805 136.987 L690.805 159.695 Z" fill="#000000" fill-rule="evenodd" fill-opacity="1" /><path clip-path="url(#clip220)" d="M699.578 136.987 L703.837 136.987 L703.837 162.913 L699.578 162.913 L699.578 136.987 M699.578 126.894 L703.837 126.894 L703.837 132.288 L699.578 132.288 L699.578 126.894 Z" fill="#000000" fill-rule="evenodd" fill-opacity="1" /><path clip-path="url(#clip220)" d="M729.277 137.751 L729.277 141.778 Q727.471 140.853 725.527 140.39 Q723.583 139.927 721.499 139.927 Q718.328 139.927 716.731 140.899 Q715.157 141.871 715.157 143.815 Q715.157 145.297 716.291 146.153 Q717.425 146.987 720.851 147.751 L722.309 148.075 Q726.846 149.047 728.745 150.829 Q730.666 152.589 730.666 155.76 Q730.666 159.371 727.795 161.477 Q724.948 163.584 719.948 163.584 Q717.865 163.584 715.596 163.167 Q713.351 162.774 710.851 161.964 L710.851 157.565 Q713.212 158.792 715.504 159.417 Q717.795 160.019 720.041 160.019 Q723.05 160.019 724.67 159.001 Q726.291 157.959 726.291 156.084 Q726.291 154.348 725.11 153.422 Q723.953 152.496 719.995 151.64 L718.513 151.292 Q714.555 150.459 712.796 148.746 Q711.036 147.01 711.036 144.001 Q711.036 140.343 713.629 138.353 Q716.221 136.362 720.99 136.362 Q723.351 136.362 725.434 136.709 Q727.518 137.056 729.277 137.751 Z" fill="#000000" fill-rule="evenodd" fill-opacity="1" /><path clip-path="url(#clip220)" d="M741.661 129.626 L741.661 136.987 L750.434 136.987 L750.434 140.297 L741.661 140.297 L741.661 154.371 Q741.661 157.542 742.518 158.445 Q743.397 159.348 746.059 159.348 L750.434 159.348 L750.434 162.913 L746.059 162.913 Q741.129 162.913 739.254 161.084 Q737.379 159.232 737.379 154.371 L737.379 140.297 L734.254 140.297 L734.254 136.987 L737.379 136.987 L737.379 129.626 L741.661 129.626 Z" fill="#000000" fill-rule="evenodd" fill-opacity="1" /><path clip-path="url(#clip220)" d="M756.036 136.987 L760.295 136.987 L760.295 162.913 L756.036 162.913 L756.036 136.987 M756.036 126.894 L760.295 126.894 L760.295 132.288 L756.036 132.288 L756.036 126.894 Z" fill="#000000" fill-rule="evenodd" fill-opacity="1" /><path clip-path="url(#clip220)" d="M787.865 137.982 L787.865 141.964 Q786.059 140.968 784.23 140.482 Q782.425 139.973 780.573 139.973 Q776.429 139.973 774.138 142.612 Q771.846 145.228 771.846 149.973 Q771.846 154.718 774.138 157.357 Q776.429 159.973 780.573 159.973 Q782.425 159.973 784.23 159.487 Q786.059 158.977 787.865 157.982 L787.865 161.917 Q786.082 162.751 784.161 163.167 Q782.263 163.584 780.11 163.584 Q774.254 163.584 770.804 159.903 Q767.355 156.223 767.355 149.973 Q767.355 143.63 770.828 139.996 Q774.323 136.362 780.388 136.362 Q782.355 136.362 784.23 136.779 Q786.105 137.172 787.865 137.982 Z" fill="#000000" fill-rule="evenodd" fill-opacity="1" /><polyline clip-path="url(#clip220)" style="stroke:#3da44d; stroke-linecap:butt; stroke-linejoin:round; stroke-width:4; stroke-opacity:1; fill:none" points="
  390.231,197.473 582.965,197.473 
  "/>
<path clip-path="url(#clip220)" d="M615.088 180.193 L621.384 180.193 L636.708 209.105 L636.708 180.193 L641.245 180.193 L641.245 214.753 L634.949 214.753 L619.625 185.841 L619.625 214.753 L615.088 214.753 L615.088 180.193 Z" fill="#000000" fill-rule="evenodd" fill-opacity="1" /><path clip-path="url(#clip220)" d="M649.925 204.521 L649.925 188.827 L654.185 188.827 L654.185 204.359 Q654.185 208.04 655.62 209.892 Q657.055 211.72 659.925 211.72 Q663.374 211.72 665.365 209.521 Q667.379 207.322 667.379 203.526 L667.379 188.827 L671.638 188.827 L671.638 214.753 L667.379 214.753 L667.379 210.771 Q665.828 213.132 663.768 214.29 Q661.731 215.424 659.023 215.424 Q654.555 215.424 652.24 212.646 Q649.925 209.868 649.925 204.521 M660.643 188.202 L660.643 188.202 Z" fill="#000000" fill-rule="evenodd" fill-opacity="1" /><path clip-path="url(#clip220)" d="M684.624 181.466 L684.624 188.827 L693.397 188.827 L693.397 192.137 L684.624 192.137 L684.624 206.211 Q684.624 209.382 685.481 210.285 Q686.36 211.188 689.023 211.188 L693.397 211.188 L693.397 214.753 L689.023 214.753 Q684.092 214.753 682.217 212.924 Q680.342 211.072 680.342 206.211 L680.342 192.137 L677.217 192.137 L677.217 188.827 L680.342 188.827 L680.342 181.466 L684.624 181.466 Z" fill="#000000" fill-rule="evenodd" fill-opacity="1" /><path clip-path="url(#clip220)" d="M714.022 192.808 Q713.305 192.392 712.448 192.206 Q711.615 191.998 710.596 191.998 Q706.985 191.998 705.041 194.359 Q703.12 196.697 703.12 201.095 L703.12 214.753 L698.837 214.753 L698.837 188.827 L703.12 188.827 L703.12 192.855 Q704.462 190.493 706.615 189.359 Q708.768 188.202 711.846 188.202 Q712.286 188.202 712.819 188.271 Q713.351 188.318 713.999 188.433 L714.022 192.808 Z" fill="#000000" fill-rule="evenodd" fill-opacity="1" /><path clip-path="url(#clip220)" d="M718.49 188.827 L722.749 188.827 L722.749 214.753 L718.49 214.753 L718.49 188.827 M718.49 178.734 L722.749 178.734 L722.749 184.128 L718.49 184.128 L718.49 178.734 Z" fill="#000000" fill-rule="evenodd" fill-opacity="1" /><path clip-path="url(#clip220)" d="M753.837 200.725 L753.837 202.808 L734.254 202.808 Q734.532 207.206 736.893 209.521 Q739.277 211.813 743.513 211.813 Q745.967 211.813 748.258 211.211 Q750.573 210.609 752.842 209.405 L752.842 213.433 Q750.55 214.405 748.143 214.915 Q745.735 215.424 743.258 215.424 Q737.055 215.424 733.42 211.813 Q729.809 208.202 729.809 202.044 Q729.809 195.679 733.235 191.952 Q736.684 188.202 742.518 188.202 Q747.749 188.202 750.781 191.581 Q753.837 194.938 753.837 200.725 M749.578 199.475 Q749.531 195.98 747.61 193.896 Q745.712 191.813 742.564 191.813 Q738.999 191.813 736.846 193.827 Q734.717 195.841 734.393 199.498 L749.578 199.475 Z" fill="#000000" fill-rule="evenodd" fill-opacity="1" /><path clip-path="url(#clip220)" d="M782.378 199.105 L782.378 214.753 L778.119 214.753 L778.119 199.243 Q778.119 195.563 776.684 193.734 Q775.249 191.906 772.379 191.906 Q768.929 191.906 766.939 194.105 Q764.948 196.304 764.948 200.1 L764.948 214.753 L760.666 214.753 L760.666 188.827 L764.948 188.827 L764.948 192.855 Q766.476 190.517 768.536 189.359 Q770.619 188.202 773.328 188.202 Q777.795 188.202 780.087 190.98 Q782.378 193.734 782.378 199.105 Z" fill="#000000" fill-rule="evenodd" fill-opacity="1" /><path clip-path="url(#clip220)" d="M795.087 181.466 L795.087 188.827 L803.86 188.827 L803.86 192.137 L795.087 192.137 L795.087 206.211 Q795.087 209.382 795.943 210.285 Q796.823 211.188 799.485 211.188 L803.86 211.188 L803.86 214.753 L799.485 214.753 Q794.554 214.753 792.679 212.924 Q790.804 211.072 790.804 206.211 L790.804 192.137 L787.679 192.137 L787.679 188.827 L790.804 188.827 L790.804 181.466 L795.087 181.466 Z" fill="#000000" fill-rule="evenodd" fill-opacity="1" /></svg>
