<?xml version="1.0" encoding="utf-8"?>
<svg xmlns="http://www.w3.org/2000/svg" xmlns:xlink="http://www.w3.org/1999/xlink" width="400" height="250" viewBox="0 0 1600 1000">
<defs>
  <clipPath id="clip820">
    <rect x="0" y="0" width="1600" height="1000"/>
  </clipPath>
</defs>
<path clip-path="url(#clip820)" d="
M0 1000 L1600 1000 L1600 0 L0 0  Z
  " fill="#ffffff" fill-rule="evenodd" fill-opacity="1"/>
<defs>
  <clipPath id="clip821">
    <rect x="320" y="0" width="1121" height="1000"/>
  </clipPath>
</defs>
<path clip-path="url(#clip820)" d="
M242.163 834.31 L1552.76 834.31 L1552.76 47.2441 L242.163 47.2441  Z
  " fill="#ffffff" fill-rule="evenodd" fill-opacity="1"/>
<defs>
  <clipPath id="clip822">
    <rect x="242" y="47" width="1312" height="788"/>
  </clipPath>
</defs>
<polyline clip-path="url(#clip820)" style="stroke:#000000; stroke-linecap:butt; stroke-linejoin:round; stroke-width:4; stroke-opacity:1; fill:none" points="
  242.163,834.31 1552.76,834.31 
  "/>
<polyline clip-path="url(#clip820)" style="stroke:#000000; stroke-linecap:butt; stroke-linejoin:round; stroke-width:4; stroke-opacity:1; fill:none" points="
  242.163,834.31 242.163,824.865 
  "/>
<polyline clip-path="url(#clip820)" style="stroke:#000000; stroke-linecap:butt; stroke-linejoin:round; stroke-width:4; stroke-opacity:1; fill:none" points="
  515.203,834.31 515.203,824.865 
  "/>
<polyline clip-path="url(#clip820)" style="stroke:#000000; stroke-linecap:butt; stroke-linejoin:round; stroke-width:4; stroke-opacity:1; fill:none" points="
  788.243,834.31 788.243,824.865 
  "/>
<polyline clip-path="url(#clip820)" style="stroke:#000000; stroke-linecap:butt; stroke-linejoin:round; stroke-width:4; stroke-opacity:1; fill:none" points="
  1061.28,834.31 1061.28,824.865 
  "/>
<polyline clip-path="url(#clip820)" style="stroke:#000000; stroke-linecap:butt; stroke-linejoin:round; stroke-width:4; stroke-opacity:1; fill:none" points="
  1334.32,834.31 1334.32,824.865 
  "/>
<path clip-path="url(#clip820)" d="M242.163 857.101 Q238.552 857.101 236.723 860.665 Q234.918 864.207 234.918 871.337 Q234.918 878.443 236.723 882.008 Q238.552 885.549 242.163 885.549 Q245.797 885.549 247.603 882.008 Q249.432 878.443 249.432 871.337 Q249.432 864.207 247.603 860.665 Q245.797 857.101 242.163 857.101 M242.163 853.397 Q247.973 853.397 251.029 858.003 Q254.108 862.587 254.108 871.337 Q254.108 880.063 251.029 884.67 Q247.973 889.253 242.163 889.253 Q236.353 889.253 233.274 884.67 Q230.219 880.063 230.219 871.337 Q230.219 862.587 233.274 858.003 Q236.353 853.397 242.163 853.397 Z" fill="#000000" fill-rule="evenodd" fill-opacity="1" /><path clip-path="url(#clip820)" d="M489.891 884.647 L497.53 884.647 L497.53 858.281 L489.22 859.948 L489.22 855.689 L497.483 854.022 L502.159 854.022 L502.159 884.647 L509.798 884.647 L509.798 888.582 L489.891 888.582 L489.891 884.647 Z" fill="#000000" fill-rule="evenodd" fill-opacity="1" /><path clip-path="url(#clip820)" d="M529.243 857.101 Q525.631 857.101 523.803 860.665 Q521.997 864.207 521.997 871.337 Q521.997 878.443 523.803 882.008 Q525.631 885.549 529.243 885.549 Q532.877 885.549 534.682 882.008 Q536.511 878.443 536.511 871.337 Q536.511 864.207 534.682 860.665 Q532.877 857.101 529.243 857.101 M529.243 853.397 Q535.053 853.397 538.108 858.003 Q541.187 862.587 541.187 871.337 Q541.187 880.063 538.108 884.67 Q535.053 889.253 529.243 889.253 Q523.432 889.253 520.354 884.67 Q517.298 880.063 517.298 871.337 Q517.298 862.587 520.354 858.003 Q523.432 853.397 529.243 853.397 Z" fill="#000000" fill-rule="evenodd" fill-opacity="1" /><path clip-path="url(#clip820)" d="M767.017 884.647 L783.336 884.647 L783.336 888.582 L761.392 888.582 L761.392 884.647 Q764.054 881.892 768.637 877.262 Q773.244 872.61 774.424 871.267 Q776.669 868.744 777.549 867.008 Q778.452 865.249 778.452 863.559 Q778.452 860.804 776.507 859.068 Q774.586 857.332 771.484 857.332 Q769.285 857.332 766.832 858.096 Q764.401 858.86 761.623 860.411 L761.623 855.689 Q764.447 854.554 766.901 853.976 Q769.355 853.397 771.392 853.397 Q776.762 853.397 779.956 856.082 Q783.151 858.767 783.151 863.258 Q783.151 865.388 782.341 867.309 Q781.554 869.207 779.447 871.8 Q778.869 872.471 775.767 875.688 Q772.665 878.883 767.017 884.647 Z" fill="#000000" fill-rule="evenodd" fill-opacity="1" /><path clip-path="url(#clip820)" d="M803.151 857.101 Q799.54 857.101 797.711 860.665 Q795.905 864.207 795.905 871.337 Q795.905 878.443 797.711 882.008 Q799.54 885.549 803.151 885.549 Q806.785 885.549 808.591 882.008 Q810.419 878.443 810.419 871.337 Q810.419 864.207 808.591 860.665 Q806.785 857.101 803.151 857.101 M803.151 853.397 Q808.961 853.397 812.016 858.003 Q815.095 862.587 815.095 871.337 Q815.095 880.063 812.016 884.67 Q808.961 889.253 803.151 889.253 Q797.341 889.253 794.262 884.67 Q791.206 880.063 791.206 871.337 Q791.206 862.587 794.262 858.003 Q797.341 853.397 803.151 853.397 Z" fill="#000000" fill-rule="evenodd" fill-opacity="1" /><path clip-path="url(#clip820)" d="M1050.13 869.948 Q1053.48 870.665 1055.36 872.934 Q1057.26 875.202 1057.26 878.536 Q1057.26 883.651 1053.74 886.452 Q1050.22 889.253 1043.74 889.253 Q1041.56 889.253 1039.25 888.813 Q1036.96 888.397 1034.5 887.54 L1034.5 883.026 Q1036.45 884.161 1038.76 884.739 Q1041.08 885.318 1043.6 885.318 Q1048 885.318 1050.29 883.582 Q1052.6 881.846 1052.6 878.536 Q1052.6 875.48 1050.45 873.767 Q1048.32 872.031 1044.5 872.031 L1040.47 872.031 L1040.47 868.188 L1044.69 868.188 Q1048.14 868.188 1049.96 866.823 Q1051.79 865.434 1051.79 862.841 Q1051.79 860.179 1049.89 858.767 Q1048.02 857.332 1044.5 857.332 Q1042.58 857.332 1040.38 857.749 Q1038.18 858.165 1035.54 859.045 L1035.54 854.878 Q1038.21 854.138 1040.52 853.767 Q1042.86 853.397 1044.92 853.397 Q1050.24 853.397 1053.34 855.827 Q1056.45 858.235 1056.45 862.355 Q1056.45 865.225 1054.8 867.216 Q1053.16 869.184 1050.13 869.948 Z" fill="#000000" fill-rule="evenodd" fill-opacity="1" /><path clip-path="url(#clip820)" d="M1076.12 857.101 Q1072.51 857.101 1070.68 860.665 Q1068.88 864.207 1068.88 871.337 Q1068.88 878.443 1070.68 882.008 Q1072.51 885.549 1076.12 885.549 Q1079.76 885.549 1081.56 882.008 Q1083.39 878.443 1083.39 871.337 Q1083.39 864.207 1081.56 860.665 Q1079.76 857.101 1076.12 857.101 M1076.12 853.397 Q1081.93 853.397 1084.99 858.003 Q1088.07 862.587 1088.07 871.337 Q1088.07 880.063 1084.99 884.67 Q1081.93 889.253 1076.12 889.253 Q1070.31 889.253 1067.23 884.67 Q1064.18 880.063 1064.18 871.337 Q1064.18 862.587 1067.23 858.003 Q1070.31 853.397 1076.12 853.397 Z" fill="#000000" fill-rule="evenodd" fill-opacity="1" /><path clip-path="url(#clip820)" d="M1322.5 858.096 L1310.69 876.545 L1322.5 876.545 L1322.5 858.096 M1321.27 854.022 L1327.15 854.022 L1327.15 876.545 L1332.08 876.545 L1332.08 880.434 L1327.15 880.434 L1327.15 888.582 L1322.5 888.582 L1322.5 880.434 L1306.89 880.434 L1306.89 875.92 L1321.27 854.022 Z" fill="#000000" fill-rule="evenodd" fill-opacity="1" /><path clip-path="url(#clip820)" d="M1349.81 857.101 Q1346.2 857.101 1344.37 860.665 Q1342.56 864.207 1342.56 871.337 Q1342.56 878.443 1344.37 882.008 Q1346.2 885.549 1349.81 885.549 Q1353.44 885.549 1355.25 882.008 Q1357.08 878.443 1357.08 871.337 Q1357.08 864.207 1355.25 860.665 Q1353.44 857.101 1349.81 857.101 M1349.81 853.397 Q1355.62 853.397 1358.68 858.003 Q1361.75 862.587 1361.75 871.337 Q1361.75 880.063 1358.68 884.67 Q1355.62 889.253 1349.81 889.253 Q1344 889.253 1340.92 884.67 Q1337.87 880.063 1337.87 871.337 Q1337.87 862.587 1340.92 858.003 Q1344 853.397 1349.81 853.397 Z" fill="#000000" fill-rule="evenodd" fill-opacity="1" /><path clip-path="url(#clip820)" d="M750.555 919.654 L790.754 919.654 L790.754 925.065 L773.885 925.065 L773.885 967.174 L767.424 967.174 L767.424 925.065 L750.555 925.065 L750.555 919.654 Z" fill="#000000" fill-rule="evenodd" fill-opacity="1" /><path clip-path="url(#clip820)" d="M794.701 931.526 L800.558 931.526 L800.558 967.174 L794.701 967.174 L794.701 931.526 M794.701 917.649 L800.558 917.649 L800.558 925.065 L794.701 925.065 L794.701 917.649 Z" fill="#000000" fill-rule="evenodd" fill-opacity="1" /><path clip-path="url(#clip820)" d="M840.566 938.369 Q842.762 934.422 845.818 932.544 Q848.873 930.667 853.011 930.667 Q858.581 930.667 861.605 934.581 Q864.628 938.465 864.628 945.658 L864.628 967.174 L858.74 967.174 L858.74 945.849 Q858.74 940.724 856.926 938.242 Q855.112 935.759 851.388 935.759 Q846.836 935.759 844.194 938.783 Q841.553 941.807 841.553 947.026 L841.553 967.174 L835.664 967.174 L835.664 945.849 Q835.664 940.693 833.85 938.242 Q832.036 935.759 828.248 935.759 Q823.761 935.759 821.119 938.815 Q818.477 941.838 818.477 947.026 L818.477 967.174 L812.589 967.174 L812.589 931.526 L818.477 931.526 L818.477 937.064 Q820.482 933.786 823.283 932.226 Q826.084 930.667 829.935 930.667 Q833.818 930.667 836.524 932.64 Q839.261 934.613 840.566 938.369 Z" fill="#000000" fill-rule="evenodd" fill-opacity="1" /><path clip-path="url(#clip820)" d="M906.801 947.886 L906.801 950.75 L879.874 950.75 Q880.256 956.798 883.503 959.981 Q886.781 963.132 892.606 963.132 Q895.98 963.132 899.131 962.304 Q902.313 961.477 905.433 959.821 L905.433 965.36 Q902.282 966.696 898.971 967.397 Q895.661 968.097 892.256 968.097 Q883.726 968.097 878.728 963.132 Q873.763 958.166 873.763 949.7 Q873.763 940.947 878.474 935.823 Q883.216 930.667 891.237 930.667 Q898.43 930.667 902.6 935.313 Q906.801 939.929 906.801 947.886 M900.945 946.167 Q900.881 941.361 898.239 938.496 Q895.629 935.632 891.301 935.632 Q886.399 935.632 883.439 938.401 Q880.511 941.17 880.065 946.199 L900.945 946.167 Z" fill="#000000" fill-rule="evenodd" fill-opacity="1" /><path clip-path="url(#clip820)" d="M936.593 917.649 L950.088 917.649 L950.088 922.2 L942.449 922.2 L942.449 971.216 L950.088 971.216 L950.088 975.768 L936.593 975.768 L936.593 917.649 Z" fill="#000000" fill-rule="evenodd" fill-opacity="1" /><path clip-path="url(#clip820)" d="M992.197 945.658 L992.197 967.174 L986.341 967.174 L986.341 945.849 Q986.341 940.788 984.367 938.274 Q982.394 935.759 978.447 935.759 Q973.705 935.759 970.968 938.783 Q968.23 941.807 968.23 947.026 L968.23 967.174 L962.342 967.174 L962.342 917.649 L968.23 917.649 L968.23 937.064 Q970.331 933.849 973.164 932.258 Q976.028 930.667 979.752 930.667 Q985.895 930.667 989.046 934.486 Q992.197 938.274 992.197 945.658 Z" fill="#000000" fill-rule="evenodd" fill-opacity="1" /><path clip-path="url(#clip820)" d="M1024.53 937 Q1023.55 936.427 1022.37 936.173 Q1021.22 935.886 1019.82 935.886 Q1014.86 935.886 1012.19 939.133 Q1009.54 942.348 1009.54 948.395 L1009.54 967.174 L1003.66 967.174 L1003.66 931.526 L1009.54 931.526 L1009.54 937.064 Q1011.39 933.818 1014.35 932.258 Q1017.31 930.667 1021.54 930.667 Q1022.15 930.667 1022.88 930.762 Q1023.61 930.826 1024.5 930.985 L1024.53 937 Z" fill="#000000" fill-rule="evenodd" fill-opacity="1" /><path clip-path="url(#clip820)" d="M1044.36 917.649 L1044.36 975.768 L1030.87 975.768 L1030.87 971.216 L1038.48 971.216 L1038.48 922.2 L1030.87 922.2 L1030.87 917.649 L1044.36 917.649 Z" fill="#000000" fill-rule="evenodd" fill-opacity="1" /><polyline clip-path="url(#clip820)" style="stroke:#000000; stroke-linecap:butt; stroke-linejoin:round; stroke-width:4; stroke-opacity:1; fill:none" points="
  242.163,834.31 242.163,47.2441 
  "/>
<polyline clip-path="url(#clip820)" style="stroke:#000000; stroke-linecap:butt; stroke-linejoin:round; stroke-width:4; stroke-opacity:1; fill:none" points="
  242.163,595.879 257.89,595.879 
  "/>
<polyline clip-path="url(#clip820)" style="stroke:#000000; stroke-linecap:butt; stroke-linejoin:round; stroke-width:4; stroke-opacity:1; fill:none" points="
  242.163,119.019 257.89,119.019 
  "/>
<path clip-path="url(#clip820)" d="M147.458 615.672 L155.096 615.672 L155.096 589.306 L146.786 590.973 L146.786 586.714 L155.05 585.047 L159.726 585.047 L159.726 615.672 L167.365 615.672 L167.365 619.607 L147.458 619.607 L147.458 615.672 Z" fill="#000000" fill-rule="evenodd" fill-opacity="1" /><path clip-path="url(#clip820)" d="M186.809 588.126 Q183.198 588.126 181.369 591.691 Q179.564 595.232 179.564 602.362 Q179.564 609.468 181.369 613.033 Q183.198 616.575 186.809 616.575 Q190.443 616.575 192.249 613.033 Q194.078 609.468 194.078 602.362 Q194.078 595.232 192.249 591.691 Q190.443 588.126 186.809 588.126 M186.809 584.422 Q192.619 584.422 195.675 589.029 Q198.754 593.612 198.754 602.362 Q198.754 611.089 195.675 615.695 Q192.619 620.278 186.809 620.278 Q180.999 620.278 177.92 615.695 Q174.865 611.089 174.865 602.362 Q174.865 593.612 177.92 589.029 Q180.999 584.422 186.809 584.422 Z" fill="#000000" fill-rule="evenodd" fill-opacity="1" /><path clip-path="url(#clip820)" d="M208.458 566.618 Q205.524 566.618 204.039 569.515 Q202.572 572.392 202.572 578.185 Q202.572 583.959 204.039 586.855 Q205.524 589.733 208.458 589.733 Q211.411 589.733 212.878 586.855 Q214.364 583.959 214.364 578.185 Q214.364 572.392 212.878 569.515 Q211.411 566.618 208.458 566.618 M208.458 563.609 Q213.179 563.609 215.662 567.352 Q218.163 571.076 218.163 578.185 Q218.163 585.275 215.662 589.018 Q213.179 592.742 208.458 592.742 Q203.738 592.742 201.236 589.018 Q198.754 585.275 198.754 578.185 Q198.754 571.076 201.236 567.352 Q203.738 563.609 208.458 563.609 Z" fill="#000000" fill-rule="evenodd" fill-opacity="1" /><path clip-path="url(#clip820)" d="M149.037 138.811 L156.676 138.811 L156.676 112.446 L148.366 114.112 L148.366 109.853 L156.63 108.186 L161.306 108.186 L161.306 138.811 L168.945 138.811 L168.945 142.746 L149.037 142.746 L149.037 138.811 Z" fill="#000000" fill-rule="evenodd" fill-opacity="1" /><path clip-path="url(#clip820)" d="M188.389 111.265 Q184.778 111.265 182.949 114.83 Q181.144 118.372 181.144 125.501 Q181.144 132.608 182.949 136.172 Q184.778 139.714 188.389 139.714 Q192.023 139.714 193.829 136.172 Q195.657 132.608 195.657 125.501 Q195.657 118.372 193.829 114.83 Q192.023 111.265 188.389 111.265 M188.389 107.561 Q194.199 107.561 197.255 112.168 Q200.333 116.751 200.333 125.501 Q200.333 134.228 197.255 138.834 Q194.199 143.418 188.389 143.418 Q182.579 143.418 179.5 138.834 Q176.445 134.228 176.445 125.501 Q176.445 116.751 179.5 112.168 Q182.579 107.561 188.389 107.561 Z" fill="#000000" fill-rule="evenodd" fill-opacity="1" /><path clip-path="url(#clip820)" d="M204.904 112.139 L218.163 112.139 L218.163 115.336 L200.333 115.336 L200.333 112.139 Q202.496 109.901 206.22 106.139 Q209.963 102.359 210.922 101.268 Q212.747 99.2177 213.461 97.8071 Q214.195 96.3778 214.195 95.0048 Q214.195 92.7667 212.615 91.3561 Q211.054 89.9455 208.534 89.9455 Q206.747 89.9455 204.753 90.5662 Q202.778 91.1868 200.521 92.4469 L200.521 88.6101 Q202.816 87.6886 204.81 87.2184 Q206.803 86.7482 208.458 86.7482 Q212.822 86.7482 215.417 88.9299 Q218.013 91.1116 218.013 94.7603 Q218.013 96.4906 217.354 98.0516 Q216.715 99.5939 215.003 101.7 Q214.533 102.246 212.013 104.86 Q209.493 107.456 204.904 112.139 Z" fill="#000000" fill-rule="evenodd" fill-opacity="1" /><path clip-path="url(#clip820)" d="M61.0102 630.793 L61.0102 624.364 L80.4893 624.364 L80.4893 601.002 L61.0102 601.002 L61.0102 594.572 L108.53 594.572 L108.53 601.002 L85.9001 601.002 L85.9001 624.364 L108.53 624.364 L108.53 630.793 L61.0102 630.793 Z" fill="#000000" fill-rule="evenodd" fill-opacity="1" /><path clip-path="url(#clip820)" d="M89.2421 551.54 L92.1067 551.54 L92.1067 578.467 Q98.1541 578.085 101.337 574.839 Q104.488 571.56 104.488 565.736 Q104.488 562.362 103.66 559.211 Q102.833 556.028 101.178 552.909 L106.716 552.909 Q108.053 556.06 108.753 559.37 Q109.453 562.68 109.453 566.086 Q109.453 574.616 104.488 579.613 Q99.5227 584.578 91.0564 584.578 Q82.3035 584.578 77.1791 579.868 Q72.0229 575.125 72.0229 567.104 Q72.0229 559.911 76.6699 555.742 Q81.285 551.54 89.2421 551.54 M87.5234 557.397 Q82.7173 557.46 79.8527 560.102 Q76.9881 562.712 76.9881 567.041 Q76.9881 571.942 79.7572 574.902 Q82.5263 577.831 87.5552 578.276 L87.5234 557.397 Z" fill="#000000" fill-rule="evenodd" fill-opacity="1" /><path clip-path="url(#clip820)" d="M72.8823 541.928 L72.8823 536.072 L108.53 536.072 L108.53 541.928 L72.8823 541.928 M59.005 541.928 L59.005 536.072 L66.4211 536.072 L66.4211 541.928 L59.005 541.928 Z" fill="#000000" fill-rule="evenodd" fill-opacity="1" /><path clip-path="url(#clip820)" d="M90.2925 500.36 Q83.9268 500.36 80.4256 503.002 Q76.9245 505.612 76.9245 510.354 Q76.9245 515.065 80.4256 517.707 Q83.9268 520.316 90.2925 520.316 Q96.6263 520.316 100.127 517.707 Q103.629 515.065 103.629 510.354 Q103.629 505.612 100.127 503.002 Q96.6263 500.36 90.2925 500.36 M104.106 494.504 Q113.209 494.504 117.633 498.546 Q122.089 502.588 122.089 510.927 Q122.089 514.014 121.612 516.752 Q121.166 519.489 120.211 522.067 L114.514 522.067 Q115.914 519.489 116.583 516.974 Q117.251 514.46 117.251 511.85 Q117.251 506.089 114.228 503.225 Q111.236 500.36 105.156 500.36 L102.26 500.36 Q105.411 502.174 106.971 505.007 Q108.53 507.84 108.53 511.786 Q108.53 518.343 103.533 522.353 Q98.5361 526.364 90.2925 526.364 Q82.0171 526.364 77.02 522.353 Q72.0229 518.343 72.0229 511.786 Q72.0229 507.84 73.5825 505.007 Q75.1421 502.174 78.2931 500.36 L72.8823 500.36 L72.8823 494.504 L104.106 494.504 Z" fill="#000000" fill-rule="evenodd" fill-opacity="1" /><path clip-path="url(#clip820)" d="M87.0141 452.808 L108.53 452.808 L108.53 458.665 L87.2051 458.665 Q82.1444 458.665 79.6299 460.638 Q77.1155 462.611 77.1155 466.558 Q77.1155 471.301 80.1392 474.038 Q83.1629 476.775 88.3828 476.775 L108.53 476.775 L108.53 482.663 L59.005 482.663 L59.005 476.775 L78.4204 476.775 Q75.2057 474.674 73.6143 471.842 Q72.0229 468.977 72.0229 465.253 Q72.0229 459.11 75.8423 455.959 Q79.6299 452.808 87.0141 452.808 Z" fill="#000000" fill-rule="evenodd" fill-opacity="1" /><path clip-path="url(#clip820)" d="M62.7608 435.334 L72.8823 435.334 L72.8823 423.271 L77.4337 423.271 L77.4337 435.334 L96.7855 435.334 Q101.146 435.334 102.387 434.157 Q103.629 432.947 103.629 429.287 L103.629 423.271 L108.53 423.271 L108.53 429.287 Q108.53 436.066 106.016 438.644 Q103.469 441.223 96.7855 441.223 L77.4337 441.223 L77.4337 445.519 L72.8823 445.519 L72.8823 441.223 L62.7608 441.223 L62.7608 435.334 Z" fill="#000000" fill-rule="evenodd" fill-opacity="1" /><path clip-path="url(#clip820)" d="M59.005 395.389 L59.005 381.894 L63.5565 381.894 L63.5565 389.533 L112.572 389.533 L112.572 381.894 L117.124 381.894 L117.124 395.389 L59.005 395.389 Z" fill="#000000" fill-rule="evenodd" fill-opacity="1" /><path clip-path="url(#clip820)" d="M122.089 370.022 L72.8823 370.022 L72.8823 364.166 L95.0349 364.166 Q99.6501 364.166 102.005 361.97 Q104.361 359.773 104.361 355.476 Q104.361 350.766 101.687 348.411 Q99.0135 346.023 93.6663 346.023 L72.8823 346.023 L72.8823 340.167 L100.318 340.167 Q102.228 340.167 103.151 339.626 Q104.042 339.053 104.042 337.875 Q104.042 337.589 103.883 337.08 Q103.692 336.57 103.31 335.679 L108.021 335.679 Q108.753 336.984 109.103 338.162 Q109.453 339.308 109.453 340.422 Q109.453 342.618 108.212 343.923 Q106.971 345.228 104.424 345.705 Q106.939 347.297 108.212 349.62 Q109.453 351.912 109.453 355.031 Q109.453 358.277 108.212 360.569 Q106.971 362.829 104.488 364.166 L122.089 364.166 L122.089 370.022 Z" fill="#000000" fill-rule="evenodd" fill-opacity="1" /><path clip-path="url(#clip820)" d="M79.7254 300.19 Q75.7787 297.994 73.9008 294.939 Q72.0229 291.883 72.0229 287.745 Q72.0229 282.175 75.9378 279.152 Q79.8209 276.128 87.0141 276.128 L108.53 276.128 L108.53 282.016 L87.2051 282.016 Q82.0807 282.016 79.5981 283.83 Q77.1155 285.645 77.1155 289.369 Q77.1155 293.92 80.1392 296.562 Q83.1629 299.204 88.3828 299.204 L108.53 299.204 L108.53 305.092 L87.2051 305.092 Q82.0489 305.092 79.5981 306.906 Q77.1155 308.72 77.1155 312.508 Q77.1155 316.996 80.171 319.638 Q83.1947 322.279 88.3828 322.279 L108.53 322.279 L108.53 328.168 L72.8823 328.168 L72.8823 322.279 L78.4204 322.279 Q75.1421 320.274 73.5825 317.473 Q72.0229 314.672 72.0229 310.821 Q72.0229 306.938 73.9963 304.233 Q75.9696 301.495 79.7254 300.19 Z" fill="#000000" fill-rule="evenodd" fill-opacity="1" /><path clip-path="url(#clip820)" d="M59.005 250.761 L117.124 250.761 L117.124 264.256 L112.572 264.256 L112.572 256.649 L63.5565 256.649 L63.5565 264.256 L59.005 264.256 L59.005 250.761 Z" fill="#000000" fill-rule="evenodd" fill-opacity="1" /><circle clip-path="url(#clip822)" cx="256.255" cy="676.368" r="14" fill="#000000" fill-rule="evenodd" fill-opacity="0.8" stroke="none"/>
<circle clip-path="url(#clip822)" cx="271.773" cy="648.028" r="14" fill="#000000" fill-rule="evenodd" fill-opacity="0.8" stroke="none"/>
<circle clip-path="url(#clip822)" cx="287.291" cy="605.139" r="14" fill="#000000" fill-rule="evenodd" fill-opacity="0.8" stroke="none"/>
<circle clip-path="url(#clip822)" cx="302.808" cy="546.318" r="14" fill="#000000" fill-rule="evenodd" fill-opacity="0.8" stroke="none"/>
<circle clip-path="url(#clip822)" cx="318.281" cy="500.066" r="14" fill="#000000" fill-rule="evenodd" fill-opacity="0.8" stroke="none"/>
<circle clip-path="url(#clip822)" cx="333.783" cy="511.069" r="14" fill="#000000" fill-rule="evenodd" fill-opacity="0.8" stroke="none"/>
<circle clip-path="url(#clip822)" cx="349.301" cy="464.308" r="14" fill="#000000" fill-rule="evenodd" fill-opacity="0.8" stroke="none"/>
<circle clip-path="url(#clip822)" cx="364.804" cy="370.034" r="14" fill="#000000" fill-rule="evenodd" fill-opacity="0.8" stroke="none"/>
<circle clip-path="url(#clip822)" cx="382.612" cy="331.393" r="14" fill="#000000" fill-rule="evenodd" fill-opacity="0.8" stroke="none"/>
<circle clip-path="url(#clip822)" cx="398.554" cy="286.297" r="14" fill="#000000" fill-rule="evenodd" fill-opacity="0.8" stroke="none"/>
<circle clip-path="url(#clip822)" cx="414.482" cy="257.329" r="14" fill="#000000" fill-rule="evenodd" fill-opacity="0.8" stroke="none"/>
<circle clip-path="url(#clip822)" cx="430.394" cy="240.962" r="14" fill="#000000" fill-rule="evenodd" fill-opacity="0.8" stroke="none"/>
<circle clip-path="url(#clip822)" cx="446.276" cy="228.785" r="14" fill="#000000" fill-rule="evenodd" fill-opacity="0.8" stroke="none"/>
<circle clip-path="url(#clip822)" cx="462.188" cy="208.998" r="14" fill="#000000" fill-rule="evenodd" fill-opacity="0.8" stroke="none"/>
<circle clip-path="url(#clip822)" cx="478.131" cy="196.201" r="14" fill="#000000" fill-rule="evenodd" fill-opacity="0.8" stroke="none"/>
<circle clip-path="url(#clip822)" cx="494.073" cy="187.638" r="14" fill="#000000" fill-rule="evenodd" fill-opacity="0.8" stroke="none"/>
<circle clip-path="url(#clip822)" cx="510.273" cy="178.84" r="14" fill="#000000" fill-rule="evenodd" fill-opacity="0.8" stroke="none"/>
<circle clip-path="url(#clip822)" cx="526.079" cy="170.523" r="14" fill="#000000" fill-rule="evenodd" fill-opacity="0.8" stroke="none"/>
<circle clip-path="url(#clip822)" cx="541.901" cy="163.846" r="14" fill="#000000" fill-rule="evenodd" fill-opacity="0.8" stroke="none"/>
<circle clip-path="url(#clip822)" cx="557.737" cy="157.333" r="14" fill="#000000" fill-rule="evenodd" fill-opacity="0.8" stroke="none"/>
<circle clip-path="url(#clip822)" cx="573.386" cy="151.829" r="14" fill="#000000" fill-rule="evenodd" fill-opacity="0.8" stroke="none"/>
<circle clip-path="url(#clip822)" cx="589.035" cy="146.603" r="14" fill="#000000" fill-rule="evenodd" fill-opacity="0.8" stroke="none"/>
<circle clip-path="url(#clip822)" cx="604.685" cy="141.628" r="14" fill="#000000" fill-rule="evenodd" fill-opacity="0.8" stroke="none"/>
<circle clip-path="url(#clip822)" cx="620.334" cy="136.882" r="14" fill="#000000" fill-rule="evenodd" fill-opacity="0.8" stroke="none"/>
<circle clip-path="url(#clip822)" cx="635.983" cy="132.343" r="14" fill="#000000" fill-rule="evenodd" fill-opacity="0.8" stroke="none"/>
<circle clip-path="url(#clip822)" cx="651.632" cy="127.995" r="14" fill="#000000" fill-rule="evenodd" fill-opacity="0.8" stroke="none"/>
<circle clip-path="url(#clip822)" cx="667.469" cy="123.707" r="14" fill="#000000" fill-rule="evenodd" fill-opacity="0.8" stroke="none"/>
<circle clip-path="url(#clip822)" cx="683.29" cy="120.832" r="14" fill="#000000" fill-rule="evenodd" fill-opacity="0.8" stroke="none"/>
<circle clip-path="url(#clip822)" cx="699.126" cy="117.123" r="14" fill="#000000" fill-rule="evenodd" fill-opacity="0.8" stroke="none"/>
<circle clip-path="url(#clip822)" cx="714.978" cy="115.176" r="14" fill="#000000" fill-rule="evenodd" fill-opacity="0.8" stroke="none"/>
<circle clip-path="url(#clip822)" cx="730.814" cy="111.927" r="14" fill="#000000" fill-rule="evenodd" fill-opacity="0.8" stroke="none"/>
<circle clip-path="url(#clip822)" cx="746.62" cy="108.346" r="14" fill="#000000" fill-rule="evenodd" fill-opacity="0.8" stroke="none"/>
<circle clip-path="url(#clip822)" cx="762.593" cy="107.998" r="14" fill="#000000" fill-rule="evenodd" fill-opacity="0.8" stroke="none"/>
<circle clip-path="url(#clip822)" cx="782.965" cy="106.953" r="14" fill="#000000" fill-rule="evenodd" fill-opacity="0.8" stroke="none"/>
<circle clip-path="url(#clip822)" cx="798.816" cy="104.903" r="14" fill="#000000" fill-rule="evenodd" fill-opacity="0.8" stroke="none"/>
<circle clip-path="url(#clip822)" cx="814.668" cy="100.181" r="14" fill="#000000" fill-rule="evenodd" fill-opacity="0.8" stroke="none"/>
<circle clip-path="url(#clip822)" cx="831.702" cy="96.1438" r="14" fill="#000000" fill-rule="evenodd" fill-opacity="0.8" stroke="none"/>
<circle clip-path="url(#clip822)" cx="858.248" cy="93.9483" r="14" fill="#000000" fill-rule="evenodd" fill-opacity="0.8" stroke="none"/>
<circle clip-path="url(#clip822)" cx="874.084" cy="91.9958" r="14" fill="#000000" fill-rule="evenodd" fill-opacity="0.8" stroke="none"/>
<circle clip-path="url(#clip822)" cx="889.89" cy="90.8541" r="14" fill="#000000" fill-rule="evenodd" fill-opacity="0.8" stroke="none"/>
<circle clip-path="url(#clip822)" cx="905.636" cy="89.286" r="14" fill="#000000" fill-rule="evenodd" fill-opacity="0.8" stroke="none"/>
<circle clip-path="url(#clip822)" cx="921.366" cy="88.5825" r="14" fill="#000000" fill-rule="evenodd" fill-opacity="0.8" stroke="none"/>
<circle clip-path="url(#clip822)" cx="937.066" cy="85.9639" r="14" fill="#000000" fill-rule="evenodd" fill-opacity="0.8" stroke="none"/>
<circle clip-path="url(#clip822)" cx="950.809" cy="84.6147" r="14" fill="#000000" fill-rule="evenodd" fill-opacity="0.8" stroke="none"/>
<circle clip-path="url(#clip822)" cx="965.371" cy="83.7931" r="14" fill="#000000" fill-rule="evenodd" fill-opacity="0.8" stroke="none"/>
<circle clip-path="url(#clip822)" cx="979.963" cy="82.2302" r="14" fill="#000000" fill-rule="evenodd" fill-opacity="0.8" stroke="none"/>
<circle clip-path="url(#clip822)" cx="994.571" cy="80.6905" r="14" fill="#000000" fill-rule="evenodd" fill-opacity="0.8" stroke="none"/>
<circle clip-path="url(#clip822)" cx="1009.18" cy="79.0536" r="14" fill="#000000" fill-rule="evenodd" fill-opacity="0.8" stroke="none"/>
<circle clip-path="url(#clip822)" cx="1023.89" cy="78.2162" r="14" fill="#000000" fill-rule="evenodd" fill-opacity="0.8" stroke="none"/>
<circle clip-path="url(#clip822)" cx="1038.52" cy="77.3495" r="14" fill="#000000" fill-rule="evenodd" fill-opacity="0.8" stroke="none"/>
<circle clip-path="url(#clip822)" cx="1053.15" cy="76.4501" r="14" fill="#000000" fill-rule="evenodd" fill-opacity="0.8" stroke="none"/>
<circle clip-path="url(#clip822)" cx="1067.82" cy="75.6048" r="14" fill="#000000" fill-rule="evenodd" fill-opacity="0.8" stroke="none"/>
<circle clip-path="url(#clip822)" cx="1082.44" cy="74.6966" r="14" fill="#000000" fill-rule="evenodd" fill-opacity="0.8" stroke="none"/>
<circle clip-path="url(#clip822)" cx="1097.08" cy="73.9607" r="14" fill="#000000" fill-rule="evenodd" fill-opacity="0.8" stroke="none"/>
<circle clip-path="url(#clip822)" cx="1111.72" cy="73.4481" r="14" fill="#000000" fill-rule="evenodd" fill-opacity="0.8" stroke="none"/>
<circle clip-path="url(#clip822)" cx="1126.45" cy="72.1582" r="14" fill="#000000" fill-rule="evenodd" fill-opacity="0.8" stroke="none"/>
<circle clip-path="url(#clip822)" cx="1140.95" cy="71.6559" r="14" fill="#000000" fill-rule="evenodd" fill-opacity="0.8" stroke="none"/>
<circle clip-path="url(#clip822)" cx="1155.59" cy="71.559" r="14" fill="#000000" fill-rule="evenodd" fill-opacity="0.8" stroke="none"/>
<circle clip-path="url(#clip822)" cx="1170.21" cy="70.8715" r="14" fill="#000000" fill-rule="evenodd" fill-opacity="0.8" stroke="none"/>
<circle clip-path="url(#clip822)" cx="1184.86" cy="68.9702" r="14" fill="#000000" fill-rule="evenodd" fill-opacity="0.8" stroke="none"/>
<circle clip-path="url(#clip822)" cx="1199.47" cy="68.2449" r="14" fill="#000000" fill-rule="evenodd" fill-opacity="0.8" stroke="none"/>
<circle clip-path="url(#clip822)" cx="1214.1" cy="67.1941" r="14" fill="#000000" fill-rule="evenodd" fill-opacity="0.8" stroke="none"/>
<circle clip-path="url(#clip822)" cx="1228.72" cy="66.7803" r="14" fill="#000000" fill-rule="evenodd" fill-opacity="0.8" stroke="none"/>
<circle clip-path="url(#clip822)" cx="1243.37" cy="66.6518" r="14" fill="#000000" fill-rule="evenodd" fill-opacity="0.8" stroke="none"/>
<circle clip-path="url(#clip822)" cx="1258.02" cy="65.0368" r="14" fill="#000000" fill-rule="evenodd" fill-opacity="0.8" stroke="none"/>
<circle clip-path="url(#clip822)" cx="1272.68" cy="62.688" r="14" fill="#000000" fill-rule="evenodd" fill-opacity="0.8" stroke="none"/>
<circle clip-path="url(#clip822)" cx="1287.35" cy="62.1774" r="14" fill="#000000" fill-rule="evenodd" fill-opacity="0.8" stroke="none"/>
<circle clip-path="url(#clip822)" cx="1302" cy="61.6396" r="14" fill="#000000" fill-rule="evenodd" fill-opacity="0.8" stroke="none"/>
<circle clip-path="url(#clip822)" cx="1316.8" cy="61.8864" r="14" fill="#000000" fill-rule="evenodd" fill-opacity="0.8" stroke="none"/>
<circle clip-path="url(#clip822)" cx="1331.46" cy="61.2252" r="14" fill="#000000" fill-rule="evenodd" fill-opacity="0.8" stroke="none"/>
<circle clip-path="url(#clip822)" cx="1346.11" cy="60.4919" r="14" fill="#000000" fill-rule="evenodd" fill-opacity="0.8" stroke="none"/>
<circle clip-path="url(#clip822)" cx="1360.75" cy="59.9807" r="14" fill="#000000" fill-rule="evenodd" fill-opacity="0.8" stroke="none"/>
<circle clip-path="url(#clip822)" cx="1375.4" cy="59.3868" r="14" fill="#000000" fill-rule="evenodd" fill-opacity="0.8" stroke="none"/>
<circle clip-path="url(#clip822)" cx="1390.12" cy="58.3324" r="14" fill="#000000" fill-rule="evenodd" fill-opacity="0.8" stroke="none"/>
<circle clip-path="url(#clip822)" cx="1404.75" cy="57.8224" r="14" fill="#000000" fill-rule="evenodd" fill-opacity="0.8" stroke="none"/>
<circle clip-path="url(#clip822)" cx="1419.38" cy="59.9281" r="14" fill="#000000" fill-rule="evenodd" fill-opacity="0.8" stroke="none"/>
<circle clip-path="url(#clip822)" cx="1434.03" cy="58.3167" r="14" fill="#000000" fill-rule="evenodd" fill-opacity="0.8" stroke="none"/>
<circle clip-path="url(#clip822)" cx="1448.67" cy="58.6382" r="14" fill="#000000" fill-rule="evenodd" fill-opacity="0.8" stroke="none"/>
<circle clip-path="url(#clip822)" cx="1463.34" cy="59.4305" r="14" fill="#000000" fill-rule="evenodd" fill-opacity="0.8" stroke="none"/>
<polyline clip-path="url(#clip822)" style="stroke:#009af9; stroke-linecap:butt; stroke-linejoin:round; stroke-width:8; stroke-opacity:1; fill:none" points="
  242.163,779.364 243.53,774.834 244.896,770.305 246.263,765.775 247.629,761.245 248.996,756.716 250.363,752.186 251.729,747.656 253.096,743.127 254.462,738.597 
  255.829,734.068 257.195,729.538 258.562,725.008 259.929,720.479 261.295,715.949 262.662,711.42 264.028,706.89 265.395,702.36 266.761,697.831 268.128,693.301 
  269.494,688.771 270.861,684.242 272.228,679.712 273.594,675.183 274.961,670.653 276.327,666.123 277.694,661.594 279.06,657.064 280.427,652.534 281.794,648.005 
  283.16,643.475 284.527,638.946 285.893,634.416 287.26,629.887 288.626,625.357 289.993,620.827 291.36,616.298 292.726,611.768 294.093,607.238 295.459,602.709 
  296.826,598.179 298.192,593.65 299.559,589.12 300.926,584.591 302.292,580.061 303.659,575.532 305.025,571.002 306.392,566.472 307.758,561.942 309.125,557.412 
  310.492,552.883 311.858,548.353 313.225,543.824 314.591,539.294 315.958,534.765 317.324,530.236 318.691,525.707 320.057,521.177 321.424,516.647 322.791,512.118 
  324.157,507.588 325.524,503.058 326.89,498.528 328.257,493.998 329.623,489.468 330.99,484.939 332.357,480.409 333.723,475.88 335.09,471.351 336.456,466.822 
  337.823,462.293 339.189,457.764 340.556,453.234 341.923,448.705 343.289,444.175 344.656,439.645 346.022,435.114 347.389,430.584 348.755,426.055 350.122,421.525 
  351.489,416.995 352.855,412.465 354.222,407.936 355.588,403.407 356.955,398.878 358.321,394.349 359.688,389.82 361.055,385.291 362.421,380.762 363.788,376.233 
  365.154,371.703 366.521,367.173 367.887,362.643 369.254,358.112 370.62,353.582 371.987,349.052 373.354,344.556 374.72,340.139 376.087,335.821 377.453,331.616 
  378.82,327.533 380.186,323.578 381.553,319.754 382.92,316.063 384.286,312.502 385.653,309.07 387.019,305.762 388.386,302.572 389.752,299.496 391.119,296.524 
  392.486,293.652 393.852,290.869 395.219,288.168 396.585,285.539 397.952,282.977 399.318,280.484 400.685,278.056 402.052,275.69 403.418,273.383 404.785,271.133 
  406.151,268.937 407.518,266.792 408.884,264.697 410.251,262.649 411.618,260.646 412.984,258.687 414.351,256.769 415.717,254.892 417.084,253.053 418.45,251.251 
  419.817,249.485 421.183,247.753 422.55,246.054 423.917,244.388 425.283,242.752 426.65,241.147 428.016,239.57 429.383,238.022 430.749,236.5 432.116,235.004 
  433.483,233.534 434.849,232.089 436.216,230.667 437.582,229.269 438.949,227.893 440.315,226.539 441.682,225.206 443.049,223.893 444.415,222.601 445.782,221.328 
  447.148,220.074 448.515,218.839 449.881,217.622 451.248,216.422 452.615,215.239 453.981,214.072 455.348,212.922 456.714,211.788 458.081,210.669 459.447,209.565 
  460.814,208.476 462.18,207.401 463.547,206.34 464.914,205.293 466.28,204.259 467.647,203.239 469.013,202.231 470.38,201.235 471.746,200.252 473.113,199.281 
  474.48,198.321 475.846,197.373 477.213,196.436 478.579,195.511 479.946,194.596 481.312,193.691 482.679,192.797 484.046,191.913 485.412,191.038 486.779,190.174 
  488.145,189.319 489.512,188.474 490.878,187.637 492.245,186.81 493.612,185.991 494.978,185.182 496.345,184.38 497.711,183.587 499.078,182.803 500.444,182.026 
  501.811,181.257 503.178,180.497 504.544,179.743 505.911,178.998 507.277,178.259 508.644,177.528 510.01,176.804 511.377,176.088 512.743,175.378 514.11,174.674 
  515.477,173.978 516.843,173.288 518.21,172.605 519.576,171.928 520.943,171.257 522.309,170.592 523.676,169.934 525.043,169.281 526.409,168.635 527.776,167.994 
  529.142,167.359 530.509,166.729 531.875,166.106 533.242,165.487 534.609,164.874 535.975,164.266 537.342,163.664 538.708,163.066 540.075,162.474 541.441,161.887 
  542.808,161.305 544.175,160.727 545.541,160.155 546.908,159.587 548.274,159.023 549.641,158.465 551.007,157.911 552.374,157.361 553.741,156.816 555.107,156.275 
  556.474,155.739 557.84,155.207 559.207,154.679 560.573,154.155 561.94,153.635 563.306,153.119 564.673,152.607 566.04,152.1 567.406,151.596 568.773,151.096 
  570.139,150.599 571.506,150.107 572.872,149.618 574.239,149.133 575.606,148.651 576.972,148.173 578.339,147.699 579.705,147.228 581.072,146.76 582.438,146.296 
  583.805,145.835 585.172,145.378 586.538,144.924 587.905,144.473 589.271,144.025 590.638,143.58 592.004,143.139 593.371,142.701 594.738,142.265 596.104,141.833 
  597.471,141.404 598.837,140.978 600.204,140.554 601.57,140.134 602.937,139.716 604.304,139.302 605.67,138.89 607.037,138.481 608.403,138.074 609.77,137.671 
  611.136,137.27 612.503,136.871 613.869,136.476 615.236,136.083 616.603,135.692 617.969,135.304 619.336,134.919 620.702,134.536 622.069,134.155 623.435,133.777 
  624.802,133.402 626.169,133.029 627.535,132.658 628.902,132.29 630.268,131.924 631.635,131.56 633.001,131.198 634.368,130.839 635.735,130.482 637.101,130.127 
  638.468,129.775 639.834,129.424 641.201,129.076 642.567,128.73 643.934,128.386 645.301,128.044 646.667,127.704 648.034,127.367 649.4,127.031 650.767,126.697 
  652.133,126.366 653.5,126.036 654.866,125.708 656.233,125.382 657.6,125.059 658.966,124.737 660.333,124.417 661.699,124.098 663.066,123.782 664.432,123.468 
  665.799,123.155 667.166,122.844 668.532,122.535 669.899,122.228 671.265,121.922 672.632,121.619 673.998,121.317 675.365,121.016 676.732,120.718 678.098,120.421 
  679.465,120.126 680.831,119.832 682.198,119.54 683.564,119.25 684.931,118.962 686.298,118.674 687.664,118.389 689.031,118.105 690.397,117.823 691.764,117.542 
  693.13,117.263 694.497,116.985 695.864,116.709 697.23,116.434 698.597,116.161 699.963,115.89 701.33,115.619 702.696,115.351 704.063,115.083 705.429,114.817 
  706.796,114.553 708.163,114.29 709.529,114.028 710.896,113.768 712.262,113.509 713.629,113.252 714.995,112.996 716.362,112.741 717.729,112.487 719.095,112.235 
  720.462,111.984 721.828,111.735 723.195,111.487 724.561,111.24 725.928,110.994 727.295,110.75 728.661,110.506 730.028,110.265 731.394,110.024 732.761,109.784 
  734.127,109.546 735.494,109.309 736.861,109.073 738.227,108.839 739.594,108.605 740.96,108.373 742.327,108.142 743.693,107.912 745.06,107.683 746.427,107.456 
  747.793,107.229 749.16,107.004 750.526,106.78 751.893,106.557 753.259,106.335 754.626,106.114 755.992,105.894 757.359,105.675 758.726,105.457 760.092,105.241 
  761.459,105.025 762.825,104.811 764.192,104.597 765.558,104.385 766.925,104.173 768.292,103.963 769.658,103.754 771.025,103.545 772.391,103.338 773.758,103.131 
  775.124,102.926 776.491,102.722 777.858,102.518 779.224,102.316 780.591,102.114 781.957,101.914 783.324,101.714 784.69,101.515 786.057,101.318 787.424,101.121 
  788.79,100.925 790.157,100.73 791.523,100.536 792.89,100.343 794.256,100.151 795.623,99.9591 796.989,99.7687 798.356,99.5791 799.723,99.3904 801.089,99.2025 
  802.456,99.0155 803.822,98.8294 805.189,98.6442 806.555,98.4597 807.922,98.2762 809.289,98.0934 810.655,97.9115 812.022,97.7304 813.388,97.5502 814.755,97.3707 
  816.121,97.1921 817.488,97.0143 818.855,96.8373 820.221,96.661 821.588,96.4856 822.954,96.3109 824.321,96.1371 825.687,95.964 827.054,95.7917 828.421,95.6201 
  829.787,95.4493 831.154,95.2793 832.52,95.11 833.887,94.9415 835.253,94.7737 836.62,94.6067 837.987,94.4404 839.353,94.2748 840.72,94.1099 842.086,93.9458 
  843.453,93.7824 844.819,93.6197 846.186,93.4577 847.552,93.2964 848.919,93.1358 850.286,92.9759 851.652,92.8167 853.019,92.6582 854.385,92.5004 855.752,92.3433 
  857.118,92.1868 858.485,92.031 859.852,91.8759 861.218,91.7215 862.585,91.5677 863.951,91.4145 865.318,91.2621 866.684,91.1102 868.051,90.959 869.418,90.8085 
  870.784,90.6586 872.151,90.5093 873.517,90.3607 874.884,90.2127 876.25,90.0653 877.617,89.9185 878.984,89.7724 880.35,89.6268 881.717,89.4819 883.083,89.3376 
  884.45,89.1939 885.816,89.0508 887.183,88.9083 888.55,88.7663 889.916,88.625 891.283,88.4843 892.649,88.3441 894.016,88.2045 895.382,88.0655 896.749,87.9271 
  898.115,87.7892 899.482,87.6519 900.849,87.5152 902.215,87.3791 903.582,87.2435 904.948,87.1084 906.315,86.9739 907.681,86.84 909.048,86.7066 910.415,86.5737 
  911.781,86.4414 913.148,86.3096 914.514,86.1784 915.881,86.0477 917.247,85.9175 918.614,85.7879 919.981,85.6587 921.347,85.5301 922.714,85.4021 924.08,85.2745 
  925.447,85.1474 926.813,85.0209 928.18,84.8949 929.547,84.7693 930.913,84.6443 932.28,84.5198 933.646,84.3958 935.013,84.2722 936.379,84.1492 937.746,84.0266 
  939.113,83.9046 940.479,83.783 941.846,83.6619 943.212,83.5413 944.579,83.4211 945.945,83.3015 947.312,83.1823 948.678,83.0636 950.045,82.9453 951.412,82.8275 
  952.778,82.7102 954.145,82.5933 955.511,82.4769 956.878,82.361 958.244,82.2455 959.611,82.1305 960.978,82.0159 962.344,81.9017 963.711,81.788 965.077,81.6748 
  966.444,81.5619 967.81,81.4496 969.177,81.3376 970.544,81.2261 971.91,81.115 973.277,81.0044 974.643,80.8942 976.01,80.7844 977.376,80.675 978.743,80.566 
  980.11,80.4575 981.476,80.3494 982.843,80.2417 984.209,80.1344 985.576,80.0275 986.942,79.9211 988.309,79.815 989.675,79.7093 991.042,79.6041 992.409,79.4992 
  993.775,79.3948 995.142,79.2907 996.508,79.1871 997.875,79.0838 999.241,78.9809 1000.61,78.8785 1001.97,78.7764 1003.34,78.6747 1004.71,78.5733 1006.07,78.4724 
  1007.44,78.3718 1008.81,78.2716 1010.17,78.1718 1011.54,78.0724 1012.91,77.9733 1014.27,77.8747 1015.64,77.7763 1017.01,77.6784 1018.37,77.5808 1019.74,77.4836 
  1021.11,77.3867 1022.47,77.2902 1023.84,77.1941 1025.21,77.0983 1026.57,77.0029 1027.94,76.9078 1029.31,76.8131 1030.67,76.7188 1032.04,76.6248 1033.41,76.5311 
  1034.77,76.4378 1036.14,76.3448 1037.51,76.2522 1038.87,76.1599 1040.24,76.0679 1041.61,75.9763 1042.97,75.8851 1044.34,75.7941 1045.7,75.7035 1047.07,75.6133 
  1048.44,75.5233 1049.8,75.4337 1051.17,75.3444 1052.54,75.2555 1053.9,75.1668 1055.27,75.0785 1056.64,74.9905 1058,74.9029 1059.37,74.8155 1060.74,74.7285 
  1062.1,74.6418 1063.47,74.5554 1064.84,74.4693 1066.2,74.3835 1067.57,74.2981 1068.94,74.2129 1070.3,74.1281 1071.67,74.0435 1073.04,73.9593 1074.4,73.8754 
  1075.77,73.7918 1077.14,73.7084 1078.5,73.6254 1079.87,73.5427 1081.24,73.4603 1082.6,73.3781 1083.97,73.2963 1085.34,73.2147 1086.7,73.1335 1088.07,73.0525 
  1089.43,72.9719 1090.8,72.8915 1092.17,72.8114 1093.53,72.7316 1094.9,72.652 1096.27,72.5728 1097.63,72.4938 1099,72.4151 1100.37,72.3367 1101.73,72.2586 
  1103.1,72.1808 1104.47,72.1032 1105.83,72.0259 1107.2,71.9489 1108.57,71.8721 1109.93,71.7956 1111.3,71.7194 1112.67,71.6435 1114.03,71.5678 1115.4,71.4924 
  1116.77,71.4172 1118.13,71.3424 1119.5,71.2677 1120.87,71.1934 1122.23,71.1193 1123.6,71.0455 1124.97,70.9719 1126.33,70.8986 1127.7,70.8255 1129.07,70.7527 
  1130.43,70.6802 1131.8,70.6079 1133.17,70.5358 1134.53,70.464 1135.9,70.3925 1137.26,70.3212 1138.63,70.2501 1140,70.1793 1141.36,70.1088 1142.73,70.0385 
  1144.1,69.9684 1145.46,69.8986 1146.83,69.829 1148.2,69.7597 1149.56,69.6906 1150.93,69.6217 1152.3,69.5531 1153.66,69.4847 1155.03,69.4166 1156.4,69.3487 
  1157.76,69.281 1159.13,69.2136 1160.5,69.1464 1161.86,69.0794 1163.23,69.0127 1164.6,68.9461 1165.96,68.8799 1167.33,68.8138 1168.7,68.748 1170.06,68.6824 
  1171.43,68.617 1172.8,68.5518 1174.16,68.4869 1175.53,68.4222 1176.9,68.3577 1178.26,68.2934 1179.63,68.2294 1180.99,68.1655 1182.36,68.1019 1183.73,68.0385 
  1185.09,67.9754 1186.46,67.9124 1187.83,67.8496 1189.19,67.7871 1190.56,67.7248 1191.93,67.6627 1193.29,67.6008 1194.66,67.5391 1196.03,67.4776 1197.39,67.4163 
  1198.76,67.3553 1200.13,67.2944 1201.49,67.2338 1202.86,67.1733 1204.23,67.1131 1205.59,67.0531 1206.96,66.9932 1208.33,66.9336 1209.69,66.8742 1211.06,66.8149 
  1212.43,66.7559 1213.79,66.6971 1215.16,66.6385 1216.53,66.58 1217.89,66.5218 1219.26,66.4637 1220.63,66.4059 1221.99,66.3482 1223.36,66.2908 1224.73,66.2335 
  1226.09,66.1764 1227.46,66.1196 1228.82,66.0629 1230.19,66.0064 1231.56,65.95 1232.92,65.8939 1234.29,65.838 1235.66,65.7822 1237.02,65.7267 1238.39,65.6713 
  1239.76,65.6161 1241.12,65.5611 1242.49,65.5063 1243.86,65.4516 1245.22,65.3972 1246.59,65.3429 1247.96,65.2888 1249.32,65.2348 1250.69,65.1811 1252.06,65.1275 
  1253.42,65.0742 1254.79,65.0209 1256.16,64.9679 1257.52,64.9151 1258.89,64.8624 1260.26,64.8099 1261.62,64.7575 1262.99,64.7054 1264.36,64.6534 1265.72,64.6016 
  1267.09,64.5499 1268.46,64.4984 1269.82,64.4471 1271.19,64.396 1272.55,64.345 1273.92,64.2942 1275.29,64.2436 1276.65,64.1931 1278.02,64.1428 1279.39,64.0927 
  1280.75,64.0427 1282.12,63.9929 1283.49,63.9432 1284.85,63.8938 1286.22,63.8444 1287.59,63.7953 1288.95,63.7463 1290.32,63.6974 1291.69,63.6488 1293.05,63.6002 
  1294.42,63.5519 1295.79,63.5037 1297.15,63.4556 1298.52,63.4077 1299.89,63.36 1301.25,63.3124 1302.62,63.265 1303.99,63.2177 1305.35,63.1706 1306.72,63.1237 
  1308.09,63.0768 1309.45,63.0302 1310.82,62.9837 1312.19,62.9373 1313.55,62.8911 1314.92,62.8451 1316.29,62.7992 1317.65,62.7534 1319.02,62.7078 1320.38,62.6623 
  1321.75,62.617 1323.12,62.5718 1324.48,62.5268 1325.85,62.4819 1327.22,62.4372 1328.58,62.3926 1329.95,62.3482 1331.32,62.3039 1332.68,62.2597 1334.05,62.2157 
  1335.42,62.1718 1336.78,62.1281 1338.15,62.0845 1339.52,62.0411 1340.88,61.9977 1342.25,61.9546 1343.62,61.9115 1344.98,61.8686 1346.35,61.8259 1347.72,61.7833 
  1349.08,61.7408 1350.45,61.6984 1351.82,61.6562 1353.18,61.6141 1354.55,61.5722 1355.92,61.5304 1357.28,61.4887 1358.65,61.4471 1360.02,61.4057 1361.38,61.3645 
  1362.75,61.3233 1364.11,61.2823 1365.48,61.2414 1366.85,61.2007 1368.21,61.16 1369.58,61.1195 1370.95,61.0792 1372.31,61.0389 1373.68,60.9988 1375.05,60.9588 
  1376.41,60.919 1377.78,60.8793 1379.15,60.8397 1380.51,60.8002 1381.88,60.7608 1383.25,60.7216 1384.61,60.6825 1385.98,60.6435 1387.35,60.6047 1388.71,60.5659 
  1390.08,60.5273 1391.45,60.4888 1392.81,60.4505 1394.18,60.4122 1395.55,60.3741 1396.91,60.3361 1398.28,60.2982 1399.65,60.2605 1401.01,60.2228 1402.38,60.1853 
  1403.75,60.1479 1405.11,60.1106 1406.48,60.0734 1407.85,60.0364 1409.21,59.9994 1410.58,59.9626 1411.94,59.9259 1413.31,59.8893 1414.68,59.8529 1416.04,59.8165 
  1417.41,59.7803 1418.78,59.7441 1420.14,59.7081 1421.51,59.6722 1422.88,59.6364 1424.24,59.6008 1425.61,59.5652 1426.98,59.5298 1428.34,59.4944 1429.71,59.4592 
  1431.08,59.4241 1432.44,59.3891 1433.81,59.3542 1435.18,59.3194 1436.54,59.2847 1437.91,59.2501 1439.28,59.2157 1440.64,59.1813 1442.01,59.1471 1443.38,59.1129 
  1444.74,59.0789 1446.11,59.045 1447.48,59.0111 1448.84,58.9774 1450.21,58.9438 1451.58,58.9103 1452.94,58.8769 1454.31,58.8436 1455.67,58.8104 1457.04,58.7773 
  1458.41,58.7443 1459.77,58.7115 1461.14,58.6787 1462.51,58.646 1463.87,58.6134 1465.24,58.581 1466.61,58.5486 1467.97,58.5163 1469.34,58.4841 1470.71,58.4521 
  1472.07,58.4201 1473.44,58.3882 1474.81,58.3564 1476.17,58.3248 1477.54,58.2932 1478.91,58.2617 1480.27,58.2303 1481.64,58.199 1483.01,58.1679 1484.37,58.1368 
  1485.74,58.1058 1487.11,58.0749 1488.47,58.0441 1489.84,58.0134 1491.21,57.9828 1492.57,57.9522 1493.94,57.9218 1495.31,57.8915 1496.67,57.8613 1498.04,57.8311 
  1499.41,57.8011 1500.77,57.7711 1502.14,57.7413 1503.5,57.7115 1504.87,57.6818 1506.24,57.6522 1507.6,57.6227 1508.97,57.5933 1510.34,57.564 1511.7,57.5348 
  1513.07,57.5057 1514.44,57.4766 1515.8,57.4477 1517.17,57.4188 1518.54,57.39 1519.9,57.3613 1521.27,57.3327 1522.64,57.3042 1524,57.2758 1525.37,57.2475 
  1526.74,57.2192 1528.1,57.191 1529.47,57.163 1530.84,57.135 1532.2,57.1071 1533.57,57.0793 1534.94,57.0515 1536.3,57.0239 1537.67,56.9963 1539.04,56.9688 
  1540.4,56.9414 1541.77,56.9141 1543.14,56.8869 1544.5,56.8598 1545.87,56.8327 1547.23,56.8057 1548.6,56.7788 1549.97,56.752 1551.33,56.7253 1552.7,56.6986 
  1554.07,56.6721 1555.43,56.6456 1556.8,56.6192 1558.17,56.5928 1559.53,56.5666 1560.9,56.5404 1562.27,56.5143 1563.63,56.4883 1565,56.4624 1566.37,56.4366 
  1567.73,56.4108 1569.1,56.3851 1570.47,56.3595 1571.83,56.334 1573.2,56.3085 1574.57,56.2831 1575.93,56.2578 1577.3,56.2326 1578.67,56.2074 1580.03,56.1824 
  1581.4,56.1574 1582.77,56.1325 1584.13,56.1076 1585.5,56.0828 1586.87,56.0581 1588.23,56.0335 1589.6,56.009 1590.97,55.9845 1592.33,55.9601 1593.7,55.9358 
  1595.06,55.9116 1596.43,55.8874 1597.8,55.8633 1599.16,55.8392 1600.53,55.8153 1601.9,55.7914 1603.26,55.7676 1604.63,55.7439 1606,55.7202 1607.36,55.6966 
  
  "/>
</svg>
