<?xml version="1.0" encoding="utf-8"?>
<svg xmlns="http://www.w3.org/2000/svg" xmlns:xlink="http://www.w3.org/1999/xlink" width="800" height="400" viewBox="0 0 3200 1600">
<defs>
  <clipPath id="clip460">
    <rect x="0" y="0" width="3200" height="1600"/>
  </clipPath>
</defs>
<path clip-path="url(#clip460)" d="
M0 1600 L3200 1600 L3200 0 L0 0  Z
  " fill="#ffffff" fill-rule="evenodd" fill-opacity="1"/>
<defs>
  <clipPath id="clip461">
    <rect x="640" y="0" width="2241" height="1600"/>
  </clipPath>
</defs>
<path clip-path="url(#clip460)" d="
M261.742 1443.7 L3152.76 1443.7 L3152.76 47.2441 L261.742 47.2441  Z
  " fill="#ffffff" fill-rule="evenodd" fill-opacity="1"/>
<defs>
  <clipPath id="clip462">
    <rect x="261" y="47" width="2892" height="1397"/>
  </clipPath>
</defs>
<polyline clip-path="url(#clip460)" style="stroke:#000000; stroke-linecap:butt; stroke-linejoin:round; stroke-width:4; stroke-opacity:1; fill:none" points="
  261.742,1443.7 3152.76,1443.7 
  "/>
<polyline clip-path="url(#clip460)" style="stroke:#000000; stroke-linecap:butt; stroke-linejoin:round; stroke-width:4; stroke-opacity:1; fill:none" points="
  261.742,1443.7 261.742,1426.94 
  "/>
<polyline clip-path="url(#clip460)" style="stroke:#000000; stroke-linecap:butt; stroke-linejoin:round; stroke-width:4; stroke-opacity:1; fill:none" points="
  864.036,1443.7 864.036,1426.94 
  "/>
<polyline clip-path="url(#clip460)" style="stroke:#000000; stroke-linecap:butt; stroke-linejoin:round; stroke-width:4; stroke-opacity:1; fill:none" points="
  1466.33,1443.7 1466.33,1426.94 
  "/>
<polyline clip-path="url(#clip460)" style="stroke:#000000; stroke-linecap:butt; stroke-linejoin:round; stroke-width:4; stroke-opacity:1; fill:none" points="
  2068.63,1443.7 2068.63,1426.94 
  "/>
<polyline clip-path="url(#clip460)" style="stroke:#000000; stroke-linecap:butt; stroke-linejoin:round; stroke-width:4; stroke-opacity:1; fill:none" points="
  2670.92,1443.7 2670.92,1426.94 
  "/>
<path clip-path="url(#clip460)" d="M261.742 1479.29 Q258.13 1479.29 256.302 1482.86 Q254.496 1486.4 254.496 1493.53 Q254.496 1500.63 256.302 1504.2 Q258.13 1507.74 261.742 1507.74 Q265.376 1507.74 267.181 1504.2 Q269.01 1500.63 269.01 1493.53 Q269.01 1486.4 267.181 1482.86 Q265.376 1479.29 261.742 1479.29 M261.742 1475.59 Q267.552 1475.59 270.607 1480.19 Q273.686 1484.78 273.686 1493.53 Q273.686 1502.25 270.607 1506.86 Q267.552 1511.44 261.742 1511.44 Q255.931 1511.44 252.853 1506.86 Q249.797 1502.25 249.797 1493.53 Q249.797 1484.78 252.853 1480.19 Q255.931 1475.59 261.742 1475.59 Z" fill="#000000" fill-rule="evenodd" fill-opacity="1" /><path clip-path="url(#clip460)" d="M838.724 1506.84 L846.363 1506.84 L846.363 1480.47 L838.053 1482.14 L838.053 1477.88 L846.316 1476.21 L850.992 1476.21 L850.992 1506.84 L858.631 1506.84 L858.631 1510.77 L838.724 1510.77 L838.724 1506.84 Z" fill="#000000" fill-rule="evenodd" fill-opacity="1" /><path clip-path="url(#clip460)" d="M878.075 1479.29 Q874.464 1479.29 872.636 1482.86 Q870.83 1486.4 870.83 1493.53 Q870.83 1500.63 872.636 1504.2 Q874.464 1507.74 878.075 1507.74 Q881.71 1507.74 883.515 1504.2 Q885.344 1500.63 885.344 1493.53 Q885.344 1486.4 883.515 1482.86 Q881.71 1479.29 878.075 1479.29 M878.075 1475.59 Q883.886 1475.59 886.941 1480.19 Q890.02 1484.78 890.02 1493.53 Q890.02 1502.25 886.941 1506.86 Q883.886 1511.44 878.075 1511.44 Q872.265 1511.44 869.187 1506.86 Q866.131 1502.25 866.131 1493.53 Q866.131 1484.78 869.187 1480.19 Q872.265 1475.59 878.075 1475.59 Z" fill="#000000" fill-rule="evenodd" fill-opacity="1" /><path clip-path="url(#clip460)" d="M1445.1 1506.84 L1461.42 1506.84 L1461.42 1510.77 L1439.48 1510.77 L1439.48 1506.84 Q1442.14 1504.08 1446.72 1499.45 Q1451.33 1494.8 1452.51 1493.46 Q1454.76 1490.93 1455.64 1489.2 Q1456.54 1487.44 1456.54 1485.75 Q1456.54 1482.99 1454.59 1481.26 Q1452.67 1479.52 1449.57 1479.52 Q1447.37 1479.52 1444.92 1480.29 Q1442.49 1481.05 1439.71 1482.6 L1439.71 1477.88 Q1442.53 1476.74 1444.99 1476.17 Q1447.44 1475.59 1449.48 1475.59 Q1454.85 1475.59 1458.04 1478.27 Q1461.24 1480.96 1461.24 1485.45 Q1461.24 1487.58 1460.43 1489.5 Q1459.64 1491.4 1457.53 1493.99 Q1456.96 1494.66 1453.85 1497.88 Q1450.75 1501.07 1445.1 1506.84 Z" fill="#000000" fill-rule="evenodd" fill-opacity="1" /><path clip-path="url(#clip460)" d="M1481.24 1479.29 Q1477.63 1479.29 1475.8 1482.86 Q1473.99 1486.4 1473.99 1493.53 Q1473.99 1500.63 1475.8 1504.2 Q1477.63 1507.74 1481.24 1507.74 Q1484.87 1507.74 1486.68 1504.2 Q1488.51 1500.63 1488.51 1493.53 Q1488.51 1486.4 1486.68 1482.86 Q1484.87 1479.29 1481.24 1479.29 M1481.24 1475.59 Q1487.05 1475.59 1490.1 1480.19 Q1493.18 1484.78 1493.18 1493.53 Q1493.18 1502.25 1490.1 1506.86 Q1487.05 1511.44 1481.24 1511.44 Q1475.43 1511.44 1472.35 1506.86 Q1469.29 1502.25 1469.29 1493.53 Q1469.29 1484.78 1472.35 1480.19 Q1475.43 1475.59 1481.24 1475.59 Z" fill="#000000" fill-rule="evenodd" fill-opacity="1" /><path clip-path="url(#clip460)" d="M2057.47 1492.14 Q2060.82 1492.86 2062.7 1495.12 Q2064.6 1497.39 2064.6 1500.73 Q2064.6 1505.84 2061.08 1508.64 Q2057.56 1511.44 2051.08 1511.44 Q2048.9 1511.44 2046.59 1511 Q2044.3 1510.59 2041.84 1509.73 L2041.84 1505.22 Q2043.79 1506.35 2046.1 1506.93 Q2048.42 1507.51 2050.94 1507.51 Q2055.34 1507.51 2057.63 1505.77 Q2059.94 1504.04 2059.94 1500.73 Q2059.94 1497.67 2057.79 1495.96 Q2055.66 1494.22 2051.84 1494.22 L2047.82 1494.22 L2047.82 1490.38 L2052.03 1490.38 Q2055.48 1490.38 2057.31 1489.01 Q2059.13 1487.62 2059.13 1485.03 Q2059.13 1482.37 2057.24 1480.96 Q2055.36 1479.52 2051.84 1479.52 Q2049.92 1479.52 2047.72 1479.94 Q2045.52 1480.36 2042.88 1481.23 L2042.88 1477.07 Q2045.55 1476.33 2047.86 1475.96 Q2050.2 1475.59 2052.26 1475.59 Q2057.58 1475.59 2060.69 1478.02 Q2063.79 1480.42 2063.79 1484.55 Q2063.79 1487.42 2062.14 1489.41 Q2060.5 1491.37 2057.47 1492.14 Z" fill="#000000" fill-rule="evenodd" fill-opacity="1" /><path clip-path="url(#clip460)" d="M2083.46 1479.29 Q2079.85 1479.29 2078.02 1482.86 Q2076.22 1486.4 2076.22 1493.53 Q2076.22 1500.63 2078.02 1504.2 Q2079.85 1507.74 2083.46 1507.74 Q2087.1 1507.74 2088.9 1504.2 Q2090.73 1500.63 2090.73 1493.53 Q2090.73 1486.4 2088.9 1482.86 Q2087.1 1479.29 2083.46 1479.29 M2083.46 1475.59 Q2089.27 1475.59 2092.33 1480.19 Q2095.41 1484.78 2095.41 1493.53 Q2095.41 1502.25 2092.33 1506.86 Q2089.27 1511.44 2083.46 1511.44 Q2077.65 1511.44 2074.57 1506.86 Q2071.52 1502.25 2071.52 1493.53 Q2071.52 1484.78 2074.57 1480.19 Q2077.65 1475.59 2083.46 1475.59 Z" fill="#000000" fill-rule="evenodd" fill-opacity="1" /><path clip-path="url(#clip460)" d="M2659.09 1480.29 L2647.29 1498.73 L2659.09 1498.73 L2659.09 1480.29 M2657.86 1476.21 L2663.74 1476.21 L2663.74 1498.73 L2668.67 1498.73 L2668.67 1502.62 L2663.74 1502.62 L2663.74 1510.77 L2659.09 1510.77 L2659.09 1502.62 L2643.49 1502.62 L2643.49 1498.11 L2657.86 1476.21 Z" fill="#000000" fill-rule="evenodd" fill-opacity="1" /><path clip-path="url(#clip460)" d="M2686.41 1479.29 Q2682.8 1479.29 2680.97 1482.86 Q2679.16 1486.4 2679.16 1493.53 Q2679.16 1500.63 2680.97 1504.2 Q2682.8 1507.74 2686.41 1507.74 Q2690.04 1507.74 2691.85 1504.2 Q2693.67 1500.63 2693.67 1493.53 Q2693.67 1486.4 2691.85 1482.86 Q2690.04 1479.29 2686.41 1479.29 M2686.41 1475.59 Q2692.22 1475.59 2695.27 1480.19 Q2698.35 1484.78 2698.35 1493.53 Q2698.35 1502.25 2695.27 1506.86 Q2692.22 1511.44 2686.41 1511.44 Q2680.6 1511.44 2677.52 1506.86 Q2674.46 1502.25 2674.46 1493.53 Q2674.46 1484.78 2677.52 1480.19 Q2680.6 1475.59 2686.41 1475.59 Z" fill="#000000" fill-rule="evenodd" fill-opacity="1" /><path clip-path="url(#clip460)" d="M1560.34 1553.04 L1600.54 1553.04 L1600.54 1558.45 L1583.67 1558.45 L1583.67 1600.56 L1577.21 1600.56 L1577.21 1558.45 L1560.34 1558.45 L1560.34 1553.04 Z" fill="#000000" fill-rule="evenodd" fill-opacity="1" /><path clip-path="url(#clip460)" d="M1604.49 1564.92 L1610.35 1564.92 L1610.35 1600.56 L1604.49 1600.56 L1604.49 1564.92 M1604.49 1551.04 L1610.35 1551.04 L1610.35 1558.45 L1604.49 1558.45 L1604.49 1551.04 Z" fill="#000000" fill-rule="evenodd" fill-opacity="1" /><path clip-path="url(#clip460)" d="M1650.36 1571.76 Q1652.55 1567.81 1655.61 1565.93 Q1658.66 1564.06 1662.8 1564.06 Q1668.37 1564.06 1671.39 1567.97 Q1674.42 1571.85 1674.42 1579.05 L1674.42 1600.56 L1668.53 1600.56 L1668.53 1579.24 Q1668.53 1574.11 1666.72 1571.63 Q1664.9 1569.15 1661.18 1569.15 Q1656.63 1569.15 1653.98 1572.17 Q1651.34 1575.2 1651.34 1580.42 L1651.34 1600.56 L1645.45 1600.56 L1645.45 1579.24 Q1645.45 1574.08 1643.64 1571.63 Q1641.83 1569.15 1638.04 1569.15 Q1633.55 1569.15 1630.91 1572.2 Q1628.27 1575.23 1628.27 1580.42 L1628.27 1600.56 L1622.38 1600.56 L1622.38 1564.92 L1628.27 1564.92 L1628.27 1570.45 Q1630.27 1567.18 1633.07 1565.62 Q1635.87 1564.06 1639.72 1564.06 Q1643.61 1564.06 1646.31 1566.03 Q1649.05 1568 1650.36 1571.76 Z" fill="#000000" fill-rule="evenodd" fill-opacity="1" /><path clip-path="url(#clip460)" d="M1716.59 1581.28 L1716.59 1584.14 L1689.66 1584.14 Q1690.05 1590.19 1693.29 1593.37 Q1696.57 1596.52 1702.39 1596.52 Q1705.77 1596.52 1708.92 1595.69 Q1712.1 1594.87 1715.22 1593.21 L1715.22 1598.75 Q1712.07 1600.09 1708.76 1600.79 Q1705.45 1601.49 1702.04 1601.49 Q1693.51 1601.49 1688.52 1596.52 Q1683.55 1591.56 1683.55 1583.09 Q1683.55 1574.34 1688.26 1569.21 Q1693.01 1564.06 1701.03 1564.06 Q1708.22 1564.06 1712.39 1568.7 Q1716.59 1573.32 1716.59 1581.28 M1710.73 1579.56 Q1710.67 1574.75 1708.03 1571.89 Q1705.42 1569.02 1701.09 1569.02 Q1696.19 1569.02 1693.23 1571.79 Q1690.3 1574.56 1689.85 1579.59 L1710.73 1579.56 Z" fill="#000000" fill-rule="evenodd" fill-opacity="1" /><path clip-path="url(#clip460)" d="M1746.38 1551.04 L1759.88 1551.04 L1759.88 1555.59 L1752.24 1555.59 L1752.24 1604.61 L1759.88 1604.61 L1759.88 1609.16 L1746.38 1609.16 L1746.38 1551.04 Z" fill="#000000" fill-rule="evenodd" fill-opacity="1" /><path clip-path="url(#clip460)" d="M1801.99 1579.05 L1801.99 1600.56 L1796.13 1600.56 L1796.13 1579.24 Q1796.13 1574.18 1794.16 1571.66 Q1792.18 1569.15 1788.24 1569.15 Q1783.49 1569.15 1780.76 1572.17 Q1778.02 1575.2 1778.02 1580.42 L1778.02 1600.56 L1772.13 1600.56 L1772.13 1551.04 L1778.02 1551.04 L1778.02 1570.45 Q1780.12 1567.24 1782.95 1565.65 Q1785.82 1564.06 1789.54 1564.06 Q1795.68 1564.06 1798.84 1567.88 Q1801.99 1571.66 1801.99 1579.05 Z" fill="#000000" fill-rule="evenodd" fill-opacity="1" /><path clip-path="url(#clip460)" d="M1834.32 1570.39 Q1833.34 1569.82 1832.16 1569.56 Q1831.01 1569.28 1829.61 1569.28 Q1824.65 1569.28 1821.97 1572.52 Q1819.33 1575.74 1819.33 1581.79 L1819.33 1600.56 L1813.44 1600.56 L1813.44 1564.92 L1819.33 1564.92 L1819.33 1570.45 Q1821.18 1567.21 1824.14 1565.65 Q1827.1 1564.06 1831.33 1564.06 Q1831.94 1564.06 1832.67 1564.15 Q1833.4 1564.22 1834.29 1564.37 L1834.32 1570.39 Z" fill="#000000" fill-rule="evenodd" fill-opacity="1" /><path clip-path="url(#clip460)" d="M1854.15 1551.04 L1854.15 1609.16 L1840.66 1609.16 L1840.66 1604.61 L1848.27 1604.61 L1848.27 1555.59 L1840.66 1555.59 L1840.66 1551.04 L1854.15 1551.04 Z" fill="#000000" fill-rule="evenodd" fill-opacity="1" /><polyline clip-path="url(#clip460)" style="stroke:#000000; stroke-linecap:butt; stroke-linejoin:round; stroke-width:4; stroke-opacity:1; fill:none" points="
  261.742,1443.7 261.742,47.2441 
  "/>
<polyline clip-path="url(#clip460)" style="stroke:#000000; stroke-linecap:butt; stroke-linejoin:round; stroke-width:4; stroke-opacity:1; fill:none" points="
  261.742,1443.7 296.434,1443.7 
  "/>
<polyline clip-path="url(#clip460)" style="stroke:#000000; stroke-linecap:butt; stroke-linejoin:round; stroke-width:4; stroke-opacity:1; fill:none" points="
  261.742,1094.59 296.434,1094.59 
  "/>
<polyline clip-path="url(#clip460)" style="stroke:#000000; stroke-linecap:butt; stroke-linejoin:round; stroke-width:4; stroke-opacity:1; fill:none" points="
  261.742,745.472 296.434,745.472 
  "/>
<polyline clip-path="url(#clip460)" style="stroke:#000000; stroke-linecap:butt; stroke-linejoin:round; stroke-width:4; stroke-opacity:1; fill:none" points="
  261.742,396.358 296.434,396.358 
  "/>
<polyline clip-path="url(#clip460)" style="stroke:#000000; stroke-linecap:butt; stroke-linejoin:round; stroke-width:4; stroke-opacity:1; fill:none" points="
  261.742,47.2441 296.434,47.2441 
  "/>
<path clip-path="url(#clip460)" d="M201.797 1429.5 Q198.186 1429.5 196.357 1433.06 Q194.552 1436.6 194.552 1443.73 Q194.552 1450.84 196.357 1454.41 Q198.186 1457.95 201.797 1457.95 Q205.431 1457.95 207.237 1454.41 Q209.066 1450.84 209.066 1443.73 Q209.066 1436.6 207.237 1433.06 Q205.431 1429.5 201.797 1429.5 M201.797 1425.79 Q207.607 1425.79 210.663 1430.4 Q213.742 1434.98 213.742 1443.73 Q213.742 1452.46 210.663 1457.07 Q207.607 1461.65 201.797 1461.65 Q195.987 1461.65 192.908 1457.07 Q189.853 1452.46 189.853 1443.73 Q189.853 1434.98 192.908 1430.4 Q195.987 1425.79 201.797 1425.79 Z" fill="#000000" fill-rule="evenodd" fill-opacity="1" /><path clip-path="url(#clip460)" d="M161.682 1077.31 L180.038 1077.31 L180.038 1081.24 L165.964 1081.24 L165.964 1089.71 Q166.983 1089.37 168.001 1089.2 Q169.02 1089.02 170.038 1089.02 Q175.825 1089.02 179.205 1092.19 Q182.584 1095.36 182.584 1100.78 Q182.584 1106.36 179.112 1109.46 Q175.64 1112.54 169.32 1112.54 Q167.145 1112.54 164.876 1112.17 Q162.631 1111.8 160.223 1111.06 L160.223 1106.36 Q162.307 1107.49 164.529 1108.05 Q166.751 1108.6 169.228 1108.6 Q173.232 1108.6 175.57 1106.5 Q177.908 1104.39 177.908 1100.78 Q177.908 1097.17 175.57 1095.06 Q173.232 1092.95 169.228 1092.95 Q167.353 1092.95 165.478 1093.37 Q163.626 1093.79 161.682 1094.67 L161.682 1077.31 Z" fill="#000000" fill-rule="evenodd" fill-opacity="1" /><path clip-path="url(#clip460)" d="M201.797 1080.38 Q198.186 1080.38 196.357 1083.95 Q194.552 1087.49 194.552 1094.62 Q194.552 1101.73 196.357 1105.29 Q198.186 1108.83 201.797 1108.83 Q205.431 1108.83 207.237 1105.29 Q209.066 1101.73 209.066 1094.62 Q209.066 1087.49 207.237 1083.95 Q205.431 1080.38 201.797 1080.38 M201.797 1076.68 Q207.607 1076.68 210.663 1081.29 Q213.742 1085.87 213.742 1094.62 Q213.742 1103.35 210.663 1107.95 Q207.607 1112.54 201.797 1112.54 Q195.987 1112.54 192.908 1107.95 Q189.853 1103.35 189.853 1094.62 Q189.853 1085.87 192.908 1081.29 Q195.987 1076.68 201.797 1076.68 Z" fill="#000000" fill-rule="evenodd" fill-opacity="1" /><path clip-path="url(#clip460)" d="M132.284 758.817 L139.922 758.817 L139.922 732.451 L131.612 734.118 L131.612 729.859 L139.876 728.192 L144.552 728.192 L144.552 758.817 L152.191 758.817 L152.191 762.752 L132.284 762.752 L132.284 758.817 Z" fill="#000000" fill-rule="evenodd" fill-opacity="1" /><path clip-path="url(#clip460)" d="M171.635 731.271 Q168.024 731.271 166.195 734.835 Q164.39 738.377 164.39 745.507 Q164.39 752.613 166.195 756.178 Q168.024 759.72 171.635 759.72 Q175.269 759.72 177.075 756.178 Q178.904 752.613 178.904 745.507 Q178.904 738.377 177.075 734.835 Q175.269 731.271 171.635 731.271 M171.635 727.567 Q177.445 727.567 180.501 732.173 Q183.58 736.757 183.58 745.507 Q183.58 754.233 180.501 758.84 Q177.445 763.423 171.635 763.423 Q165.825 763.423 162.746 758.84 Q159.691 754.233 159.691 745.507 Q159.691 736.757 162.746 732.173 Q165.825 727.567 171.635 727.567 Z" fill="#000000" fill-rule="evenodd" fill-opacity="1" /><path clip-path="url(#clip460)" d="M201.797 731.271 Q198.186 731.271 196.357 734.835 Q194.552 738.377 194.552 745.507 Q194.552 752.613 196.357 756.178 Q198.186 759.72 201.797 759.72 Q205.431 759.72 207.237 756.178 Q209.066 752.613 209.066 745.507 Q209.066 738.377 207.237 734.835 Q205.431 731.271 201.797 731.271 M201.797 727.567 Q207.607 727.567 210.663 732.173 Q213.742 736.757 213.742 745.507 Q213.742 754.233 210.663 758.84 Q207.607 763.423 201.797 763.423 Q195.987 763.423 192.908 758.84 Q189.853 754.233 189.853 745.507 Q189.853 736.757 192.908 732.173 Q195.987 727.567 201.797 727.567 Z" fill="#000000" fill-rule="evenodd" fill-opacity="1" /><path clip-path="url(#clip460)" d="M132.284 409.703 L139.922 409.703 L139.922 383.337 L131.612 385.004 L131.612 380.745 L139.876 379.078 L144.552 379.078 L144.552 409.703 L152.191 409.703 L152.191 413.638 L132.284 413.638 L132.284 409.703 Z" fill="#000000" fill-rule="evenodd" fill-opacity="1" /><path clip-path="url(#clip460)" d="M161.682 379.078 L180.038 379.078 L180.038 383.013 L165.964 383.013 L165.964 391.485 Q166.983 391.138 168.001 390.976 Q169.02 390.791 170.038 390.791 Q175.825 390.791 179.205 393.962 Q182.584 397.133 182.584 402.55 Q182.584 408.129 179.112 411.231 Q175.64 414.309 169.32 414.309 Q167.145 414.309 164.876 413.939 Q162.631 413.569 160.223 412.828 L160.223 408.129 Q162.307 409.263 164.529 409.819 Q166.751 410.374 169.228 410.374 Q173.232 410.374 175.57 408.268 Q177.908 406.161 177.908 402.55 Q177.908 398.939 175.57 396.833 Q173.232 394.726 169.228 394.726 Q167.353 394.726 165.478 395.143 Q163.626 395.559 161.682 396.439 L161.682 379.078 Z" fill="#000000" fill-rule="evenodd" fill-opacity="1" /><path clip-path="url(#clip460)" d="M201.797 382.157 Q198.186 382.157 196.357 385.722 Q194.552 389.263 194.552 396.393 Q194.552 403.499 196.357 407.064 Q198.186 410.606 201.797 410.606 Q205.431 410.606 207.237 407.064 Q209.066 403.499 209.066 396.393 Q209.066 389.263 207.237 385.722 Q205.431 382.157 201.797 382.157 M201.797 378.453 Q207.607 378.453 210.663 383.059 Q213.742 387.643 213.742 396.393 Q213.742 405.12 210.663 409.726 Q207.607 414.309 201.797 414.309 Q195.987 414.309 192.908 409.726 Q189.853 405.12 189.853 396.393 Q189.853 387.643 192.908 383.059 Q195.987 378.453 201.797 378.453 Z" fill="#000000" fill-rule="evenodd" fill-opacity="1" /><path clip-path="url(#clip460)" d="M135.501 60.5889 L151.821 60.5889 L151.821 64.5241 L129.876 64.5241 L129.876 60.5889 Q132.538 57.8343 137.122 53.2047 Q141.728 48.552 142.909 47.2094 Q145.154 44.6862 146.034 42.9501 Q146.936 41.1909 146.936 39.5011 Q146.936 36.7465 144.992 35.0104 Q143.071 33.2743 139.969 33.2743 Q137.77 33.2743 135.316 34.0381 Q132.885 34.802 130.108 36.3529 L130.108 31.6308 Q132.932 30.4965 135.385 29.9178 Q137.839 29.3391 139.876 29.3391 Q145.247 29.3391 148.441 32.0243 Q151.635 34.7094 151.635 39.2002 Q151.635 41.3298 150.825 43.2511 Q150.038 45.1492 147.932 47.7418 Q147.353 48.4131 144.251 51.6306 Q141.149 54.8251 135.501 60.5889 Z" fill="#000000" fill-rule="evenodd" fill-opacity="1" /><path clip-path="url(#clip460)" d="M171.635 33.0428 Q168.024 33.0428 166.195 36.6076 Q164.39 40.1492 164.39 47.2788 Q164.39 54.3853 166.195 57.9501 Q168.024 61.4917 171.635 61.4917 Q175.269 61.4917 177.075 57.9501 Q178.904 54.3853 178.904 47.2788 Q178.904 40.1492 177.075 36.6076 Q175.269 33.0428 171.635 33.0428 M171.635 29.3391 Q177.445 29.3391 180.501 33.9456 Q183.58 38.5289 183.58 47.2788 Q183.58 56.0056 180.501 60.6121 Q177.445 65.1954 171.635 65.1954 Q165.825 65.1954 162.746 60.6121 Q159.691 56.0056 159.691 47.2788 Q159.691 38.5289 162.746 33.9456 Q165.825 29.3391 171.635 29.3391 Z" fill="#000000" fill-rule="evenodd" fill-opacity="1" /><path clip-path="url(#clip460)" d="M201.797 33.0428 Q198.186 33.0428 196.357 36.6076 Q194.552 40.1492 194.552 47.2788 Q194.552 54.3853 196.357 57.9501 Q198.186 61.4917 201.797 61.4917 Q205.431 61.4917 207.237 57.9501 Q209.066 54.3853 209.066 47.2788 Q209.066 40.1492 207.237 36.6076 Q205.431 33.0428 201.797 33.0428 M201.797 29.3391 Q207.607 29.3391 210.663 33.9456 Q213.742 38.5289 213.742 47.2788 Q213.742 56.0056 210.663 60.6121 Q207.607 65.1954 201.797 65.1954 Q195.987 65.1954 192.908 60.6121 Q189.853 56.0056 189.853 47.2788 Q189.853 38.5289 192.908 33.9456 Q195.987 29.3391 201.797 29.3391 Z" fill="#000000" fill-rule="evenodd" fill-opacity="1" /><path clip-path="url(#clip460)" d="M20.1002 935.488 L20.1002 929.059 L39.5793 929.059 L39.5793 905.697 L20.1002 905.697 L20.1002 899.267 L67.6202 899.267 L67.6202 905.697 L44.9901 905.697 L44.9901 929.059 L67.6202 929.059 L67.6202 935.488 L20.1002 935.488 Z" fill="#000000" fill-rule="evenodd" fill-opacity="1" /><path clip-path="url(#clip460)" d="M48.3321 856.235 L51.1967 856.235 L51.1967 883.162 Q57.2441 882.78 60.427 879.534 Q63.578 876.255 63.578 870.431 Q63.578 867.057 62.7505 863.906 Q61.9229 860.723 60.2678 857.604 L65.806 857.604 Q67.1428 860.755 67.843 864.065 Q68.5432 867.375 68.5432 870.781 Q68.5432 879.311 63.578 884.308 Q58.6127 889.273 50.1464 889.273 Q41.3935 889.273 36.2691 884.563 Q31.1129 879.82 31.1129 871.799 Q31.1129 864.606 35.7599 860.437 Q40.375 856.235 48.3321 856.235 M46.6134 862.092 Q41.8073 862.155 38.9427 864.797 Q36.0781 867.407 36.0781 871.736 Q36.0781 876.637 38.8472 879.597 Q41.6163 882.526 46.6452 882.971 L46.6134 862.092 Z" fill="#000000" fill-rule="evenodd" fill-opacity="1" /><path clip-path="url(#clip460)" d="M31.9723 846.623 L31.9723 840.767 L67.6202 840.767 L67.6202 846.623 L31.9723 846.623 M18.095 846.623 L18.095 840.767 L25.5111 840.767 L25.5111 846.623 L18.095 846.623 Z" fill="#000000" fill-rule="evenodd" fill-opacity="1" /><path clip-path="url(#clip460)" d="M49.3825 805.055 Q43.0168 805.055 39.5156 807.697 Q36.0145 810.307 36.0145 815.049 Q36.0145 819.76 39.5156 822.402 Q43.0168 825.011 49.3825 825.011 Q55.7163 825.011 59.2175 822.402 Q62.7186 819.76 62.7186 815.049 Q62.7186 810.307 59.2175 807.697 Q55.7163 805.055 49.3825 805.055 M63.1961 799.199 Q72.299 799.199 76.7232 803.241 Q81.1792 807.283 81.1792 815.622 Q81.1792 818.709 80.7017 821.447 Q80.2561 824.184 79.3013 826.762 L73.604 826.762 Q75.0044 824.184 75.6728 821.669 Q76.3412 819.155 76.3412 816.545 Q76.3412 810.784 73.3175 807.92 Q70.3256 805.055 64.2464 805.055 L61.35 805.055 Q64.501 806.869 66.0606 809.702 Q67.6202 812.535 67.6202 816.481 Q67.6202 823.038 62.6231 827.048 Q57.6261 831.059 49.3825 831.059 Q41.1071 831.059 36.11 827.048 Q31.1129 823.038 31.1129 816.481 Q31.1129 812.535 32.6725 809.702 Q34.2321 806.869 37.3831 805.055 L31.9723 805.055 L31.9723 799.199 L63.1961 799.199 Z" fill="#000000" fill-rule="evenodd" fill-opacity="1" /><path clip-path="url(#clip460)" d="M46.1041 757.503 L67.6202 757.503 L67.6202 763.36 L46.2951 763.36 Q41.2344 763.36 38.7199 765.333 Q36.2055 767.306 36.2055 771.253 Q36.2055 775.996 39.2292 778.733 Q42.2529 781.47 47.4728 781.47 L67.6202 781.47 L67.6202 787.358 L18.095 787.358 L18.095 781.47 L37.5104 781.47 Q34.2957 779.369 32.7043 776.537 Q31.1129 773.672 31.1129 769.948 Q31.1129 763.805 34.9323 760.654 Q38.7199 757.503 46.1041 757.503 Z" fill="#000000" fill-rule="evenodd" fill-opacity="1" /><path clip-path="url(#clip460)" d="M21.8508 740.029 L31.9723 740.029 L31.9723 727.966 L36.5237 727.966 L36.5237 740.029 L55.8755 740.029 Q60.236 740.029 61.4773 738.852 Q62.7186 737.642 62.7186 733.982 L62.7186 727.966 L67.6202 727.966 L67.6202 733.982 Q67.6202 740.761 65.1058 743.339 Q62.5595 745.918 55.8755 745.918 L36.5237 745.918 L36.5237 750.214 L31.9723 750.214 L31.9723 745.918 L21.8508 745.918 L21.8508 740.029 Z" fill="#000000" fill-rule="evenodd" fill-opacity="1" /><path clip-path="url(#clip460)" d="M18.095 700.084 L18.095 686.589 L22.6465 686.589 L22.6465 694.228 L71.6624 694.228 L71.6624 686.589 L76.2139 686.589 L76.2139 700.084 L18.095 700.084 Z" fill="#000000" fill-rule="evenodd" fill-opacity="1" /><path clip-path="url(#clip460)" d="M81.1792 674.717 L31.9723 674.717 L31.9723 668.861 L54.1249 668.861 Q58.7401 668.861 61.0954 666.665 Q63.4507 664.468 63.4507 660.171 Q63.4507 655.461 60.7771 653.106 Q58.1035 650.718 52.7563 650.718 L31.9723 650.718 L31.9723 644.862 L59.4085 644.862 Q61.3182 644.862 62.2412 644.321 Q63.1324 643.748 63.1324 642.57 Q63.1324 642.284 62.9733 641.775 Q62.7823 641.265 62.4003 640.374 L67.111 640.374 Q67.843 641.679 68.1931 642.857 Q68.5432 644.003 68.5432 645.117 Q68.5432 647.313 67.3019 648.618 Q66.0606 649.923 63.5143 650.4 Q66.0288 651.992 67.3019 654.315 Q68.5432 656.607 68.5432 659.726 Q68.5432 662.972 67.3019 665.264 Q66.0606 667.524 63.578 668.861 L81.1792 668.861 L81.1792 674.717 Z" fill="#000000" fill-rule="evenodd" fill-opacity="1" /><path clip-path="url(#clip460)" d="M38.8154 604.885 Q34.8687 602.689 32.9908 599.634 Q31.1129 596.578 31.1129 592.44 Q31.1129 586.87 35.0278 583.847 Q38.9109 580.823 46.1041 580.823 L67.6202 580.823 L67.6202 586.711 L46.2951 586.711 Q41.1707 586.711 38.6881 588.525 Q36.2055 590.34 36.2055 594.064 Q36.2055 598.615 39.2292 601.257 Q42.2529 603.899 47.4728 603.899 L67.6202 603.899 L67.6202 609.787 L46.2951 609.787 Q41.1389 609.787 38.6881 611.601 Q36.2055 613.415 36.2055 617.203 Q36.2055 621.691 39.261 624.333 Q42.2847 626.974 47.4728 626.974 L67.6202 626.974 L67.6202 632.863 L31.9723 632.863 L31.9723 626.974 L37.5104 626.974 Q34.2321 624.969 32.6725 622.168 Q31.1129 619.367 31.1129 615.516 Q31.1129 611.633 33.0863 608.928 Q35.0596 606.19 38.8154 604.885 Z" fill="#000000" fill-rule="evenodd" fill-opacity="1" /><path clip-path="url(#clip460)" d="M18.095 555.456 L76.2139 555.456 L76.2139 568.951 L71.6624 568.951 L71.6624 561.344 L22.6465 561.344 L22.6465 568.951 L18.095 568.951 L18.095 555.456 Z" fill="#000000" fill-rule="evenodd" fill-opacity="1" /><circle clip-path="url(#clip462)" cx="292.827" cy="1440.49" r="14" fill="#000000" fill-rule="evenodd" fill-opacity="0.8" stroke="none"/>
<circle clip-path="url(#clip462)" cx="327.057" cy="1439.48" r="14" fill="#000000" fill-rule="evenodd" fill-opacity="0.8" stroke="none"/>
<circle clip-path="url(#clip462)" cx="361.287" cy="1437.31" r="14" fill="#000000" fill-rule="evenodd" fill-opacity="0.8" stroke="none"/>
<circle clip-path="url(#clip462)" cx="395.518" cy="1432.43" r="14" fill="#000000" fill-rule="evenodd" fill-opacity="0.8" stroke="none"/>
<circle clip-path="url(#clip462)" cx="429.648" cy="1426.09" r="14" fill="#000000" fill-rule="evenodd" fill-opacity="0.8" stroke="none"/>
<circle clip-path="url(#clip462)" cx="463.845" cy="1427.86" r="14" fill="#000000" fill-rule="evenodd" fill-opacity="0.8" stroke="none"/>
<circle clip-path="url(#clip462)" cx="498.075" cy="1418.82" r="14" fill="#000000" fill-rule="evenodd" fill-opacity="0.8" stroke="none"/>
<circle clip-path="url(#clip462)" cx="532.272" cy="1381.87" r="14" fill="#000000" fill-rule="evenodd" fill-opacity="0.8" stroke="none"/>
<circle clip-path="url(#clip462)" cx="571.555" cy="1353.9" r="14" fill="#000000" fill-rule="evenodd" fill-opacity="0.8" stroke="none"/>
<circle clip-path="url(#clip462)" cx="606.723" cy="1304.89" r="14" fill="#000000" fill-rule="evenodd" fill-opacity="0.8" stroke="none"/>
<circle clip-path="url(#clip462)" cx="641.856" cy="1260.08" r="14" fill="#000000" fill-rule="evenodd" fill-opacity="0.8" stroke="none"/>
<circle clip-path="url(#clip462)" cx="676.957" cy="1228.64" r="14" fill="#000000" fill-rule="evenodd" fill-opacity="0.8" stroke="none"/>
<circle clip-path="url(#clip462)" cx="711.99" cy="1201.8" r="14" fill="#000000" fill-rule="evenodd" fill-opacity="0.8" stroke="none"/>
<circle clip-path="url(#clip462)" cx="747.091" cy="1150.87" r="14" fill="#000000" fill-rule="evenodd" fill-opacity="0.8" stroke="none"/>
<circle clip-path="url(#clip462)" cx="782.258" cy="1112.35" r="14" fill="#000000" fill-rule="evenodd" fill-opacity="0.8" stroke="none"/>
<circle clip-path="url(#clip462)" cx="817.425" cy="1083.78" r="14" fill="#000000" fill-rule="evenodd" fill-opacity="0.8" stroke="none"/>
<circle clip-path="url(#clip462)" cx="853.161" cy="1051.87" r="14" fill="#000000" fill-rule="evenodd" fill-opacity="0.8" stroke="none"/>
<circle clip-path="url(#clip462)" cx="888.028" cy="1019.1" r="14" fill="#000000" fill-rule="evenodd" fill-opacity="0.8" stroke="none"/>
<circle clip-path="url(#clip462)" cx="922.927" cy="990.813" r="14" fill="#000000" fill-rule="evenodd" fill-opacity="0.8" stroke="none"/>
<circle clip-path="url(#clip462)" cx="957.86" cy="961.413" r="14" fill="#000000" fill-rule="evenodd" fill-opacity="0.8" stroke="none"/>
<circle clip-path="url(#clip462)" cx="992.381" cy="935.086" r="14" fill="#000000" fill-rule="evenodd" fill-opacity="0.8" stroke="none"/>
<circle clip-path="url(#clip462)" cx="1026.9" cy="908.759" r="14" fill="#000000" fill-rule="evenodd" fill-opacity="0.8" stroke="none"/>
<circle clip-path="url(#clip462)" cx="1061.42" cy="882.432" r="14" fill="#000000" fill-rule="evenodd" fill-opacity="0.8" stroke="none"/>
<circle clip-path="url(#clip462)" cx="1095.94" cy="856.105" r="14" fill="#000000" fill-rule="evenodd" fill-opacity="0.8" stroke="none"/>
<circle clip-path="url(#clip462)" cx="1130.46" cy="829.778" r="14" fill="#000000" fill-rule="evenodd" fill-opacity="0.8" stroke="none"/>
<circle clip-path="url(#clip462)" cx="1164.98" cy="803.451" r="14" fill="#000000" fill-rule="evenodd" fill-opacity="0.8" stroke="none"/>
<circle clip-path="url(#clip462)" cx="1199.92" cy="776.382" r="14" fill="#000000" fill-rule="evenodd" fill-opacity="0.8" stroke="none"/>
<circle clip-path="url(#clip462)" cx="1234.82" cy="757.591" r="14" fill="#000000" fill-rule="evenodd" fill-opacity="0.8" stroke="none"/>
<circle clip-path="url(#clip462)" cx="1269.75" cy="732.57" r="14" fill="#000000" fill-rule="evenodd" fill-opacity="0.8" stroke="none"/>
<circle clip-path="url(#clip462)" cx="1304.72" cy="719.074" r="14" fill="#000000" fill-rule="evenodd" fill-opacity="0.8" stroke="none"/>
<circle clip-path="url(#clip462)" cx="1339.65" cy="695.974" r="14" fill="#000000" fill-rule="evenodd" fill-opacity="0.8" stroke="none"/>
<circle clip-path="url(#clip462)" cx="1374.51" cy="669.664" r="14" fill="#000000" fill-rule="evenodd" fill-opacity="0.8" stroke="none"/>
<circle clip-path="url(#clip462)" cx="1409.75" cy="667.062" r="14" fill="#000000" fill-rule="evenodd" fill-opacity="0.8" stroke="none"/>
<circle clip-path="url(#clip462)" cx="1454.69" cy="659.18" r="14" fill="#000000" fill-rule="evenodd" fill-opacity="0.8" stroke="none"/>
<circle clip-path="url(#clip462)" cx="1489.65" cy="643.499" r="14" fill="#000000" fill-rule="evenodd" fill-opacity="0.8" stroke="none"/>
<circle clip-path="url(#clip462)" cx="1524.62" cy="606.165" r="14" fill="#000000" fill-rule="evenodd" fill-opacity="0.8" stroke="none"/>
<circle clip-path="url(#clip462)" cx="1562.2" cy="572.862" r="14" fill="#000000" fill-rule="evenodd" fill-opacity="0.8" stroke="none"/>
<circle clip-path="url(#clip462)" cx="1620.75" cy="554.201" r="14" fill="#000000" fill-rule="evenodd" fill-opacity="0.8" stroke="none"/>
<circle clip-path="url(#clip462)" cx="1655.69" cy="537.27" r="14" fill="#000000" fill-rule="evenodd" fill-opacity="0.8" stroke="none"/>
<circle clip-path="url(#clip462)" cx="1690.55" cy="527.22" r="14" fill="#000000" fill-rule="evenodd" fill-opacity="0.8" stroke="none"/>
<circle clip-path="url(#clip462)" cx="1725.28" cy="513.236" r="14" fill="#000000" fill-rule="evenodd" fill-opacity="0.8" stroke="none"/>
<circle clip-path="url(#clip462)" cx="1759.98" cy="506.894" r="14" fill="#000000" fill-rule="evenodd" fill-opacity="0.8" stroke="none"/>
<circle clip-path="url(#clip462)" cx="1794.61" cy="482.901" r="14" fill="#000000" fill-rule="evenodd" fill-opacity="0.8" stroke="none"/>
<circle clip-path="url(#clip462)" cx="1824.93" cy="470.3" r="14" fill="#000000" fill-rule="evenodd" fill-opacity="0.8" stroke="none"/>
<circle clip-path="url(#clip462)" cx="1857.05" cy="462.546" r="14" fill="#000000" fill-rule="evenodd" fill-opacity="0.8" stroke="none"/>
<circle clip-path="url(#clip462)" cx="1889.24" cy="447.624" r="14" fill="#000000" fill-rule="evenodd" fill-opacity="0.8" stroke="none"/>
<circle clip-path="url(#clip462)" cx="1921.46" cy="432.703" r="14" fill="#000000" fill-rule="evenodd" fill-opacity="0.8" stroke="none"/>
<circle clip-path="url(#clip462)" cx="1953.69" cy="416.594" r="14" fill="#000000" fill-rule="evenodd" fill-opacity="0.8" stroke="none"/>
<circle clip-path="url(#clip462)" cx="1986.14" cy="408.255" r="14" fill="#000000" fill-rule="evenodd" fill-opacity="0.8" stroke="none"/>
<circle clip-path="url(#clip462)" cx="2018.4" cy="399.551" r="14" fill="#000000" fill-rule="evenodd" fill-opacity="0.8" stroke="none"/>
<circle clip-path="url(#clip462)" cx="2050.69" cy="390.443" r="14" fill="#000000" fill-rule="evenodd" fill-opacity="0.8" stroke="none"/>
<circle clip-path="url(#clip462)" cx="2083.05" cy="381.81" r="14" fill="#000000" fill-rule="evenodd" fill-opacity="0.8" stroke="none"/>
<circle clip-path="url(#clip462)" cx="2115.3" cy="372.455" r="14" fill="#000000" fill-rule="evenodd" fill-opacity="0.8" stroke="none"/>
<circle clip-path="url(#clip462)" cx="2147.59" cy="364.815" r="14" fill="#000000" fill-rule="evenodd" fill-opacity="0.8" stroke="none"/>
<circle clip-path="url(#clip462)" cx="2179.88" cy="359.46" r="14" fill="#000000" fill-rule="evenodd" fill-opacity="0.8" stroke="none"/>
<circle clip-path="url(#clip462)" cx="2212.37" cy="345.87" r="14" fill="#000000" fill-rule="evenodd" fill-opacity="0.8" stroke="none"/>
<circle clip-path="url(#clip462)" cx="2244.36" cy="340.532" r="14" fill="#000000" fill-rule="evenodd" fill-opacity="0.8" stroke="none"/>
<circle clip-path="url(#clip462)" cx="2276.65" cy="339.499" r="14" fill="#000000" fill-rule="evenodd" fill-opacity="0.8" stroke="none"/>
<circle clip-path="url(#clip462)" cx="2308.91" cy="332.144" r="14" fill="#000000" fill-rule="evenodd" fill-opacity="0.8" stroke="none"/>
<circle clip-path="url(#clip462)" cx="2341.23" cy="311.545" r="14" fill="#000000" fill-rule="evenodd" fill-opacity="0.8" stroke="none"/>
<circle clip-path="url(#clip462)" cx="2373.45" cy="303.587" r="14" fill="#000000" fill-rule="evenodd" fill-opacity="0.8" stroke="none"/>
<circle clip-path="url(#clip462)" cx="2405.71" cy="291.959" r="14" fill="#000000" fill-rule="evenodd" fill-opacity="0.8" stroke="none"/>
<circle clip-path="url(#clip462)" cx="2437.97" cy="287.347" r="14" fill="#000000" fill-rule="evenodd" fill-opacity="0.8" stroke="none"/>
<circle clip-path="url(#clip462)" cx="2470.29" cy="285.911" r="14" fill="#000000" fill-rule="evenodd" fill-opacity="0.8" stroke="none"/>
<circle clip-path="url(#clip462)" cx="2502.61" cy="267.712" r="14" fill="#000000" fill-rule="evenodd" fill-opacity="0.8" stroke="none"/>
<circle clip-path="url(#clip462)" cx="2534.94" cy="240.733" r="14" fill="#000000" fill-rule="evenodd" fill-opacity="0.8" stroke="none"/>
<circle clip-path="url(#clip462)" cx="2567.29" cy="234.785" r="14" fill="#000000" fill-rule="evenodd" fill-opacity="0.8" stroke="none"/>
<circle clip-path="url(#clip462)" cx="2599.62" cy="228.49" r="14" fill="#000000" fill-rule="evenodd" fill-opacity="0.8" stroke="none"/>
<circle clip-path="url(#clip462)" cx="2632.27" cy="231.383" r="14" fill="#000000" fill-rule="evenodd" fill-opacity="0.8" stroke="none"/>
<circle clip-path="url(#clip462)" cx="2664.6" cy="223.617" r="14" fill="#000000" fill-rule="evenodd" fill-opacity="0.8" stroke="none"/>
<circle clip-path="url(#clip462)" cx="2696.92" cy="214.947" r="14" fill="#000000" fill-rule="evenodd" fill-opacity="0.8" stroke="none"/>
<circle clip-path="url(#clip462)" cx="2729.21" cy="208.866" r="14" fill="#000000" fill-rule="evenodd" fill-opacity="0.8" stroke="none"/>
<circle clip-path="url(#clip462)" cx="2761.53" cy="201.763" r="14" fill="#000000" fill-rule="evenodd" fill-opacity="0.8" stroke="none"/>
<circle clip-path="url(#clip462)" cx="2793.99" cy="189.052" r="14" fill="#000000" fill-rule="evenodd" fill-opacity="0.8" stroke="none"/>
<circle clip-path="url(#clip462)" cx="2826.28" cy="182.858" r="14" fill="#000000" fill-rule="evenodd" fill-opacity="0.8" stroke="none"/>
<circle clip-path="url(#clip462)" cx="2858.54" cy="208.238" r="14" fill="#000000" fill-rule="evenodd" fill-opacity="0.8" stroke="none"/>
<circle clip-path="url(#clip462)" cx="2890.86" cy="188.862" r="14" fill="#000000" fill-rule="evenodd" fill-opacity="0.8" stroke="none"/>
<circle clip-path="url(#clip462)" cx="2923.15" cy="192.752" r="14" fill="#000000" fill-rule="evenodd" fill-opacity="0.8" stroke="none"/>
<circle clip-path="url(#clip462)" cx="2955.5" cy="202.287" r="14" fill="#000000" fill-rule="evenodd" fill-opacity="0.8" stroke="none"/>
<polyline clip-path="url(#clip462)" style="stroke:#009af9; stroke-linecap:butt; stroke-linejoin:round; stroke-width:8; stroke-opacity:1; fill:none" points="
  261.742,1442.51 264.756,1442.46 267.77,1442.4 270.785,1442.35 273.799,1442.29 276.814,1442.22 279.828,1442.16 282.843,1442.09 285.857,1442.02 288.872,1441.94 
  291.886,1441.86 294.901,1441.78 297.915,1441.69 300.93,1441.6 303.944,1441.51 306.959,1441.41 309.973,1441.31 312.988,1441.2 316.002,1441.09 319.017,1440.97 
  322.031,1440.85 325.046,1440.73 328.06,1440.59 331.075,1440.45 334.089,1440.31 337.104,1440.16 340.118,1440 343.133,1439.83 346.147,1439.66 349.162,1439.48 
  352.176,1439.29 355.191,1439.09 358.205,1438.89 361.22,1438.67 364.234,1438.45 367.249,1438.21 370.263,1437.97 373.278,1437.71 376.292,1437.44 379.307,1437.16 
  382.321,1436.87 385.336,1436.57 388.35,1436.25 391.364,1435.91 394.379,1435.57 397.393,1435.2 400.408,1434.82 403.422,1434.42 406.437,1434.01 409.451,1433.58 
  412.466,1433.12 415.48,1432.65 418.495,1432.16 421.509,1431.64 424.524,1431.1 427.538,1430.54 430.553,1429.95 433.567,1429.33 436.582,1428.69 439.596,1428.02 
  442.611,1427.32 445.625,1426.59 448.64,1425.82 451.654,1425.02 454.669,1424.19 457.683,1423.32 460.698,1422.4 463.712,1421.45 466.727,1420.46 469.741,1419.42 
  472.756,1418.33 475.77,1417.2 478.785,1416.01 481.799,1414.78 484.814,1413.48 487.828,1412.13 490.843,1410.72 493.857,1409.24 496.872,1407.7 499.886,1406.09 
  502.901,1404.41 505.915,1402.66 508.93,1400.82 511.944,1398.9 514.958,1396.9 517.973,1394.81 520.987,1392.62 524.002,1390.34 527.016,1387.95 530.031,1385.46 
  533.045,1382.86 536.06,1380.14 539.074,1377.29 542.089,1374.32 545.103,1371.22 548.118,1367.98 551.132,1364.62 554.147,1361.17 557.161,1357.66 560.176,1354.09 
  563.19,1350.49 566.205,1346.86 569.219,1343.22 572.234,1339.57 575.248,1335.93 578.263,1332.3 581.277,1328.68 584.292,1325.08 587.306,1321.5 590.321,1317.95 
  593.335,1314.41 596.35,1310.89 599.364,1307.38 602.379,1303.87 605.393,1300.37 608.408,1296.88 611.422,1293.39 614.437,1289.92 617.451,1286.45 620.466,1283 
  623.48,1279.56 626.495,1276.12 629.509,1272.69 632.524,1269.28 635.538,1265.87 638.552,1262.48 641.567,1259.09 644.581,1255.71 647.596,1252.34 650.61,1248.98 
  653.625,1245.63 656.639,1242.29 659.654,1238.96 662.668,1235.64 665.683,1232.33 668.697,1229.03 671.712,1225.73 674.726,1222.45 677.741,1219.17 680.755,1215.91 
  683.77,1212.65 686.784,1209.4 689.799,1206.16 692.813,1202.93 695.828,1199.71 698.842,1196.5 701.857,1193.3 704.871,1190.1 707.886,1186.92 710.9,1183.74 
  713.915,1180.58 716.929,1177.42 719.944,1174.27 722.958,1171.13 725.973,1168 728.987,1164.87 732.002,1161.76 735.016,1158.65 738.031,1155.56 741.045,1152.47 
  744.06,1149.39 747.074,1146.32 750.089,1143.26 753.103,1140.2 756.118,1137.16 759.132,1134.12 762.146,1131.09 765.161,1128.07 768.175,1125.06 771.19,1122.06 
  774.204,1119.07 777.219,1116.08 780.233,1113.1 783.248,1110.13 786.262,1107.17 789.277,1104.22 792.291,1101.27 795.306,1098.34 798.32,1095.41 801.335,1092.49 
  804.349,1089.58 807.364,1086.68 810.378,1083.78 813.393,1080.89 816.407,1078.01 819.422,1075.14 822.436,1072.28 825.451,1069.43 828.465,1066.58 831.48,1063.74 
  834.494,1060.91 837.509,1058.09 840.523,1055.27 843.538,1052.46 846.552,1049.66 849.567,1046.87 852.581,1044.09 855.596,1041.31 858.61,1038.54 861.625,1035.78 
  864.639,1033.03 867.654,1030.28 870.668,1027.55 873.683,1024.82 876.697,1022.1 879.712,1019.38 882.726,1016.67 885.74,1013.97 888.755,1011.28 891.769,1008.6 
  894.784,1005.92 897.798,1003.25 900.813,1000.59 903.827,997.936 906.842,995.289 909.856,992.65 912.871,990.018 915.885,987.393 918.9,984.776 921.914,982.166 
  924.929,979.563 927.943,976.967 930.958,974.379 933.972,971.798 936.987,969.224 940.001,966.658 943.016,964.098 946.03,961.546 949.045,959.001 952.059,956.463 
  955.074,953.932 958.088,951.409 961.103,948.892 964.117,946.382 967.132,943.88 970.146,941.384 973.161,938.895 976.175,936.414 979.19,933.939 982.204,931.471 
  985.219,929.01 988.233,926.556 991.248,924.109 994.262,921.669 997.277,919.235 1000.29,916.809 1003.31,914.389 1006.32,911.976 1009.33,909.569 1012.35,907.17 
  1015.36,904.777 1018.38,902.391 1021.39,900.011 1024.41,897.638 1027.42,895.272 1030.44,892.913 1033.45,890.56 1036.46,888.213 1039.48,885.873 1042.49,883.54 
  1045.51,881.213 1048.52,878.893 1051.54,876.58 1054.55,874.272 1057.57,871.971 1060.58,869.677 1063.6,867.389 1066.61,865.108 1069.62,862.833 1072.64,860.564 
  1075.65,858.301 1078.67,856.045 1081.68,853.795 1084.7,851.552 1087.71,849.315 1090.73,847.084 1093.74,844.859 1096.75,842.641 1099.77,840.428 1102.78,838.222 
  1105.8,836.023 1108.81,833.829 1111.83,831.641 1114.84,829.46 1117.86,827.284 1120.87,825.115 1123.89,822.952 1126.9,820.795 1129.91,818.644 1132.93,816.499 
  1135.94,814.36 1138.96,812.226 1141.97,810.099 1144.99,807.978 1148,805.863 1151.02,803.754 1154.03,801.65 1157.04,799.553 1160.06,797.461 1163.07,795.375 
  1166.09,793.295 1169.1,791.221 1172.12,789.153 1175.13,787.09 1178.15,785.033 1181.16,782.982 1184.17,780.937 1187.19,778.898 1190.2,776.864 1193.22,774.836 
  1196.23,772.813 1199.25,770.796 1202.26,768.785 1205.28,766.78 1208.29,764.78 1211.31,762.785 1214.32,760.797 1217.33,758.813 1220.35,756.836 1223.36,754.864 
  1226.38,752.897 1229.39,750.936 1232.41,748.98 1235.42,747.03 1238.44,745.086 1241.45,743.146 1244.46,741.213 1247.48,739.284 1250.49,737.361 1253.51,735.444 
  1256.52,733.531 1259.54,731.625 1262.55,729.723 1265.57,727.827 1268.58,725.936 1271.59,724.05 1274.61,722.17 1277.62,720.295 1280.64,718.425 1283.65,716.56 
  1286.67,714.701 1289.68,712.846 1292.7,710.997 1295.71,709.154 1298.73,707.315 1301.74,705.481 1304.75,703.653 1307.77,701.83 1310.78,700.011 1313.8,698.198 
  1316.81,696.39 1319.83,694.587 1322.84,692.789 1325.86,690.997 1328.87,689.209 1331.88,687.426 1334.9,685.648 1337.91,683.875 1340.93,682.107 1343.94,680.344 
  1346.96,678.586 1349.97,676.833 1352.99,675.085 1356,673.341 1359.02,671.603 1362.03,669.869 1365.04,668.141 1368.06,666.417 1371.07,664.698 1374.09,662.983 
  1377.1,661.274 1380.12,659.569 1383.13,657.869 1386.15,656.174 1389.16,654.484 1392.17,652.798 1395.19,651.117 1398.2,649.441 1401.22,647.77 1404.23,646.103 
  1407.25,644.441 1410.26,642.783 1413.28,641.13 1416.29,639.482 1419.3,637.838 1422.32,636.199 1425.33,634.565 1428.35,632.935 1431.36,631.31 1434.38,629.689 
  1437.39,628.073 1440.41,626.461 1443.42,624.854 1446.44,623.251 1449.45,621.653 1452.46,620.059 1455.48,618.47 1458.49,616.885 1461.51,615.305 1464.52,613.729 
  1467.54,612.157 1470.55,610.59 1473.57,609.027 1476.58,607.469 1479.59,605.915 1482.61,604.365 1485.62,602.82 1488.64,601.279 1491.65,599.742 1494.67,598.21 
  1497.68,596.682 1500.7,595.158 1503.71,593.638 1506.72,592.123 1509.74,590.612 1512.75,589.105 1515.77,587.603 1518.78,586.104 1521.8,584.61 1524.81,583.12 
  1527.83,581.634 1530.84,580.152 1533.86,578.675 1536.87,577.201 1539.88,575.732 1542.9,574.267 1545.91,572.806 1548.93,571.349 1551.94,569.896 1554.96,568.447 
  1557.97,567.002 1560.99,565.562 1564,564.125 1567.01,562.692 1570.03,561.263 1573.04,559.839 1576.06,558.418 1579.07,557.001 1582.09,555.589 1585.1,554.18 
  1588.12,552.775 1591.13,551.374 1594.15,549.977 1597.16,548.584 1600.17,547.195 1603.19,545.809 1606.2,544.428 1609.22,543.05 1612.23,541.677 1615.25,540.307 
  1618.26,538.941 1621.28,537.578 1624.29,536.22 1627.3,534.865 1630.32,533.515 1633.33,532.168 1636.35,530.824 1639.36,529.485 1642.38,528.149 1645.39,526.817 
  1648.41,525.489 1651.42,524.164 1654.43,522.843 1657.45,521.526 1660.46,520.212 1663.48,518.903 1666.49,517.597 1669.51,516.294 1672.52,514.995 1675.54,513.7 
  1678.55,512.408 1681.57,511.12 1684.58,509.836 1687.59,508.555 1690.61,507.278 1693.62,506.004 1696.64,504.734 1699.65,503.467 1702.67,502.204 1705.68,500.945 
  1708.7,499.689 1711.71,498.437 1714.72,497.188 1717.74,495.942 1720.75,494.7 1723.77,493.462 1726.78,492.227 1729.8,490.995 1732.81,489.767 1735.83,488.542 
  1738.84,487.321 1741.86,486.103 1744.87,484.889 1747.88,483.678 1750.9,482.47 1753.91,481.266 1756.93,480.065 1759.94,478.868 1762.96,477.674 1765.97,476.483 
  1768.99,475.295 1772,474.111 1775.01,472.93 1778.03,471.753 1781.04,470.578 1784.06,469.407 1787.07,468.24 1790.09,467.075 1793.1,465.914 1796.12,464.756 
  1799.13,463.602 1802.14,462.45 1805.16,461.302 1808.17,460.157 1811.19,459.015 1814.2,457.877 1817.22,456.741 1820.23,455.609 1823.25,454.48 1826.26,453.354 
  1829.28,452.231 1832.29,451.112 1835.3,449.995 1838.32,448.882 1841.33,447.772 1844.35,446.665 1847.36,445.561 1850.38,444.46 1853.39,443.362 1856.41,442.267 
  1859.42,441.176 1862.43,440.087 1865.45,439.002 1868.46,437.919 1871.48,436.84 1874.49,435.763 1877.51,434.69 1880.52,433.619 1883.54,432.552 1886.55,431.487 
  1889.56,430.426 1892.58,429.367 1895.59,428.312 1898.61,427.259 1901.62,426.21 1904.64,425.163 1907.65,424.119 1910.67,423.078 1913.68,422.04 1916.7,421.005 
  1919.71,419.973 1922.72,418.944 1925.74,417.918 1928.75,416.894 1931.77,415.873 1934.78,414.856 1937.8,413.841 1940.81,412.829 1943.83,411.82 1946.84,410.813 
  1949.85,409.81 1952.87,408.809 1955.88,407.811 1958.9,406.816 1961.91,405.823 1964.93,404.834 1967.94,403.847 1970.96,402.863 1973.97,401.881 1976.99,400.903 
  1980,399.927 1983.01,398.954 1986.03,397.983 1989.04,397.016 1992.06,396.051 1995.07,395.089 1998.09,394.129 2001.1,393.172 2004.12,392.218 2007.13,391.266 
  2010.14,390.317 2013.16,389.371 2016.17,388.428 2019.19,387.487 2022.2,386.548 2025.22,385.613 2028.23,384.68 2031.25,383.749 2034.26,382.821 2037.27,381.896 
  2040.29,380.974 2043.3,380.054 2046.32,379.136 2049.33,378.221 2052.35,377.309 2055.36,376.399 2058.38,375.492 2061.39,374.587 2064.41,373.685 2067.42,372.785 
  2070.43,371.888 2073.45,370.993 2076.46,370.101 2079.48,369.211 2082.49,368.324 2085.51,367.44 2088.52,366.557 2091.54,365.678 2094.55,364.8 2097.56,363.926 
  2100.58,363.053 2103.59,362.183 2106.61,361.316 2109.62,360.451 2112.64,359.588 2115.65,358.728 2118.67,357.87 2121.68,357.015 2124.69,356.162 2127.71,355.311 
  2130.72,354.463 2133.74,353.617 2136.75,352.773 2139.77,351.932 2142.78,351.093 2145.8,350.257 2148.81,349.423 2151.83,348.591 2154.84,347.761 2157.85,346.934 
  2160.87,346.109 2163.88,345.287 2166.9,344.466 2169.91,343.648 2172.93,342.833 2175.94,342.019 2178.96,341.208 2181.97,340.399 2184.98,339.593 2188,338.788 
  2191.01,337.986 2194.03,337.186 2197.04,336.389 2200.06,335.593 2203.07,334.8 2206.09,334.009 2209.1,333.22 2212.12,332.434 2215.13,331.65 2218.14,330.867 
  2221.16,330.087 2224.17,329.31 2227.19,328.534 2230.2,327.761 2233.22,326.989 2236.23,326.22 2239.25,325.453 2242.26,324.688 2245.27,323.926 2248.29,323.165 
  2251.3,322.407 2254.32,321.65 2257.33,320.896 2260.35,320.144 2263.36,319.394 2266.38,318.646 2269.39,317.901 2272.4,317.157 2275.42,316.415 2278.43,315.676 
  2281.45,314.938 2284.46,314.203 2287.48,313.47 2290.49,312.738 2293.51,312.009 2296.52,311.282 2299.54,310.557 2302.55,309.834 2305.56,309.113 2308.58,308.394 
  2311.59,307.677 2314.61,306.961 2317.62,306.248 2320.64,305.537 2323.65,304.828 2326.67,304.121 2329.68,303.416 2332.69,302.713 2335.71,302.012 2338.72,301.313 
  2341.74,300.616 2344.75,299.92 2347.77,299.227 2350.78,298.536 2353.8,297.846 2356.81,297.159 2359.83,296.473 2362.84,295.789 2365.85,295.108 2368.87,294.428 
  2371.88,293.75 2374.9,293.074 2377.91,292.4 2380.93,291.728 2383.94,291.057 2386.96,290.389 2389.97,289.722 2392.98,289.057 2396,288.395 2399.01,287.734 
  2402.03,287.074 2405.04,286.417 2408.06,285.762 2411.07,285.108 2414.09,284.456 2417.1,283.806 2420.11,283.158 2423.13,282.512 2426.14,281.867 2429.16,281.225 
  2432.17,280.584 2435.19,279.945 2438.2,279.307 2441.22,278.672 2444.23,278.038 2447.25,277.406 2450.26,276.776 2453.27,276.147 2456.29,275.521 2459.3,274.896 
  2462.32,274.273 2465.33,273.651 2468.35,273.031 2471.36,272.414 2474.38,271.797 2477.39,271.183 2480.4,270.57 2483.42,269.959 2486.43,269.35 2489.45,268.742 
  2492.46,268.136 2495.48,267.532 2498.49,266.929 2501.51,266.328 2504.52,265.729 2507.53,265.132 2510.55,264.536 2513.56,263.942 2516.58,263.349 2519.59,262.759 
  2522.61,262.169 2525.62,261.582 2528.64,260.996 2531.65,260.412 2534.67,259.829 2537.68,259.248 2540.69,258.669 2543.71,258.091 2546.72,257.515 2549.74,256.941 
  2552.75,256.368 2555.77,255.796 2558.78,255.227 2561.8,254.659 2564.81,254.092 2567.82,253.527 2570.84,252.964 2573.85,252.402 2576.87,251.842 2579.88,251.283 
  2582.9,250.726 2585.91,250.171 2588.93,249.617 2591.94,249.065 2594.96,248.514 2597.97,247.965 2600.98,247.417 2604,246.871 2607.01,246.326 2610.03,245.783 
  2613.04,245.241 2616.06,244.701 2619.07,244.162 2622.09,243.625 2625.1,243.09 2628.11,242.556 2631.13,242.023 2634.14,241.492 2637.16,240.962 2640.17,240.434 
  2643.19,239.907 2646.2,239.382 2649.22,238.858 2652.23,238.336 2655.24,237.815 2658.26,237.296 2661.27,236.778 2664.29,236.261 2667.3,235.746 2670.32,235.233 
  2673.33,234.721 2676.35,234.21 2679.36,233.701 2682.38,233.193 2685.39,232.686 2688.4,232.181 2691.42,231.678 2694.43,231.176 2697.45,230.675 2700.46,230.175 
  2703.48,229.677 2706.49,229.181 2709.51,228.686 2712.52,228.192 2715.53,227.699 2718.55,227.208 2721.56,226.718 2724.58,226.23 2727.59,225.743 2730.61,225.257 
  2733.62,224.773 2736.64,224.29 2739.65,223.809 2742.66,223.328 2745.68,222.85 2748.69,222.372 2751.71,221.896 2754.72,221.421 2757.74,220.947 2760.75,220.475 
  2763.77,220.004 2766.78,219.535 2769.8,219.066 2772.81,218.599 2775.82,218.134 2778.84,217.669 2781.85,217.206 2784.87,216.745 2787.88,216.284 2790.9,215.825 
  2793.91,215.367 2796.93,214.91 2799.94,214.455 2802.95,214.001 2805.97,213.548 2808.98,213.097 2812,212.646 2815.01,212.197 2818.03,211.75 2821.04,211.303 
  2824.06,210.858 2827.07,210.414 2830.09,209.971 2833.1,209.53 2836.11,209.089 2839.13,208.65 2842.14,208.212 2845.16,207.776 2848.17,207.34 2851.19,206.906 
  2854.2,206.473 2857.22,206.042 2860.23,205.611 2863.24,205.182 2866.26,204.754 2869.27,204.327 2872.29,203.901 2875.3,203.476 2878.32,203.053 2881.33,202.631 
  2884.35,202.21 2887.36,201.79 2890.37,201.371 2893.39,200.954 2896.4,200.538 2899.42,200.123 2902.43,199.709 2905.45,199.296 2908.46,198.884 2911.48,198.474 
  2914.49,198.064 2917.51,197.656 2920.52,197.249 2923.53,196.843 2926.55,196.439 2929.56,196.035 2932.58,195.632 2935.59,195.231 2938.61,194.831 2941.62,194.432 
  2944.64,194.034 2947.65,193.637 2950.66,193.241 2953.68,192.846 2956.69,192.453 2959.71,192.06 2962.72,191.669 2965.74,191.279 2968.75,190.889 2971.77,190.501 
  2974.78,190.114 2977.8,189.728 2980.81,189.344 2983.82,188.96 2986.84,188.577 2989.85,188.196 2992.87,187.815 2995.88,187.435 2998.9,187.057 3001.91,186.68 
  3004.93,186.303 3007.94,185.928 3010.95,185.554 3013.97,185.181 3016.98,184.809 3020,184.438 3023.01,184.068 3026.03,183.699 3029.04,183.331 3032.06,182.964 
  3035.07,182.598 3038.08,182.233 3041.1,181.869 3044.11,181.506 3047.13,181.145 3050.14,180.784 3053.16,180.424 3056.17,180.065 3059.19,179.708 3062.2,179.351 
  3065.22,178.995 3068.23,178.64 3071.24,178.286 3074.26,177.934 3077.27,177.582 3080.29,177.231 3083.3,176.881 3086.32,176.532 3089.33,176.184 3092.35,175.838 
  3095.36,175.492 3098.37,175.147 3101.39,174.803 3104.4,174.46 3107.42,174.118 3110.43,173.776 3113.45,173.436 3116.46,173.097 3119.48,172.759 3122.49,172.421 
  3125.5,172.085 3128.52,171.75 3131.53,171.415 3134.55,171.082 3137.56,170.749 3140.58,170.417 3143.59,170.087 3146.61,169.757 3149.62,169.428 3152.64,169.1 
  3155.65,168.773 3158.66,168.447 3161.68,168.121 3164.69,167.797 3167.71,167.474 3170.72,167.151 3173.74,166.829 3176.75,166.509 3179.77,166.189 3182.78,165.87 
  3185.79,165.552 3188.81,165.235 3191.82,164.918 3194.84,164.603 3197.85,164.289 3200.87,163.975 3203.88,163.662 3206.9,163.35 3209.91,163.039 3212.93,162.729 
  3215.94,162.42 3218.95,162.112 3221.97,161.804 3224.98,161.497 3228,161.192 3231.01,160.887 3234.03,160.583 3237.04,160.279 3240.06,159.977 3243.07,159.675 
  3246.08,159.375 3249.1,159.075 3252.11,158.776 3255.13,158.477 3258.14,158.18 3261.16,157.884 3264.17,157.588 3267.19,157.293 3270.2,156.999 3273.21,156.706 
  
  "/>
<path clip-path="url(#clip460)" d="
M358.109 197.473 L884.401 197.473 L884.401 93.7926 L358.109 93.7926  Z
  " fill="#ffffff" fill-rule="evenodd" fill-opacity="1"/>
<polyline clip-path="url(#clip460)" style="stroke:#000000; stroke-linecap:butt; stroke-linejoin:round; stroke-width:4; stroke-opacity:1; fill:none" points="
  358.109,197.473 884.401,197.473 884.401,93.7926 358.109,93.7926 358.109,197.473 
  "/>
<polyline clip-path="url(#clip460)" style="stroke:#009af9; stroke-linecap:butt; stroke-linejoin:round; stroke-width:4; stroke-opacity:1; fill:none" points="
  390.231,145.633 582.965,145.633 
  "/>
<path clip-path="url(#clip460)" d="M615.088 128.353 L619.764 128.353 L619.764 162.913 L615.088 162.913 L615.088 128.353 Z" fill="#000000" fill-rule="evenodd" fill-opacity="1" /><path clip-path="url(#clip460)" d="M650.435 147.265 L650.435 162.913 L646.176 162.913 L646.176 147.403 Q646.176 143.723 644.74 141.894 Q643.305 140.066 640.435 140.066 Q636.986 140.066 634.995 142.265 Q633.004 144.464 633.004 148.26 L633.004 162.913 L628.722 162.913 L628.722 136.987 L633.004 136.987 L633.004 141.015 Q634.532 138.677 636.592 137.519 Q638.676 136.362 641.384 136.362 Q645.851 136.362 648.143 139.14 Q650.435 141.894 650.435 147.265 Z" fill="#000000" fill-rule="evenodd" fill-opacity="1" /><path clip-path="url(#clip460)" d="M663.143 129.626 L663.143 136.987 L671.916 136.987 L671.916 140.297 L663.143 140.297 L663.143 154.371 Q663.143 157.542 663.999 158.445 Q664.879 159.348 667.541 159.348 L671.916 159.348 L671.916 162.913 L667.541 162.913 Q662.611 162.913 660.736 161.084 Q658.861 159.232 658.861 154.371 L658.861 140.297 L655.736 140.297 L655.736 136.987 L658.861 136.987 L658.861 129.626 L663.143 129.626 Z" fill="#000000" fill-rule="evenodd" fill-opacity="1" /><path clip-path="url(#clip460)" d="M699.694 148.885 L699.694 150.968 L680.111 150.968 Q680.388 155.366 682.749 157.681 Q685.134 159.973 689.37 159.973 Q691.823 159.973 694.115 159.371 Q696.43 158.769 698.698 157.565 L698.698 161.593 Q696.407 162.565 693.999 163.075 Q691.592 163.584 689.115 163.584 Q682.911 163.584 679.277 159.973 Q675.666 156.362 675.666 150.204 Q675.666 143.839 679.092 140.112 Q682.541 136.362 688.374 136.362 Q693.606 136.362 696.638 139.741 Q699.694 143.098 699.694 148.885 M695.435 147.635 Q695.388 144.14 693.467 142.056 Q691.569 139.973 688.421 139.973 Q684.856 139.973 682.703 141.987 Q680.573 144.001 680.249 147.658 L695.435 147.635 Z" fill="#000000" fill-rule="evenodd" fill-opacity="1" /><path clip-path="url(#clip460)" d="M721.708 140.968 Q720.99 140.552 720.133 140.366 Q719.3 140.158 718.282 140.158 Q714.671 140.158 712.726 142.519 Q710.805 144.857 710.805 149.255 L710.805 162.913 L706.522 162.913 L706.522 136.987 L710.805 136.987 L710.805 141.015 Q712.147 138.653 714.3 137.519 Q716.453 136.362 719.532 136.362 Q719.971 136.362 720.504 136.431 Q721.036 136.478 721.684 136.593 L721.708 140.968 Z" fill="#000000" fill-rule="evenodd" fill-opacity="1" /><path clip-path="url(#clip460)" d="M739.3 126.894 L739.3 130.436 L735.226 130.436 Q732.934 130.436 732.032 131.362 Q731.152 132.288 731.152 134.695 L731.152 136.987 L738.166 136.987 L738.166 140.297 L731.152 140.297 L731.152 162.913 L726.87 162.913 L726.87 140.297 L722.795 140.297 L722.795 136.987 L726.87 136.987 L726.87 135.181 Q726.87 130.853 728.883 128.885 Q730.897 126.894 735.272 126.894 L739.3 126.894 Z" fill="#000000" fill-rule="evenodd" fill-opacity="1" /><path clip-path="url(#clip460)" d="M754.647 149.88 Q749.485 149.88 747.494 151.061 Q745.504 152.241 745.504 155.089 Q745.504 157.357 746.985 158.7 Q748.49 160.019 751.059 160.019 Q754.601 160.019 756.73 157.519 Q758.883 154.996 758.883 150.829 L758.883 149.88 L754.647 149.88 M763.142 148.121 L763.142 162.913 L758.883 162.913 L758.883 158.977 Q757.425 161.339 755.249 162.473 Q753.073 163.584 749.925 163.584 Q745.943 163.584 743.582 161.362 Q741.244 159.116 741.244 155.366 Q741.244 150.991 744.161 148.769 Q747.101 146.547 752.911 146.547 L758.883 146.547 L758.883 146.13 Q758.883 143.191 756.939 141.593 Q755.018 139.973 751.522 139.973 Q749.3 139.973 747.193 140.505 Q745.087 141.038 743.143 142.103 L743.143 138.167 Q745.481 137.265 747.68 136.825 Q749.879 136.362 751.962 136.362 Q757.587 136.362 760.365 139.278 Q763.142 142.195 763.142 148.121 Z" fill="#000000" fill-rule="evenodd" fill-opacity="1" /><path clip-path="url(#clip460)" d="M790.573 137.982 L790.573 141.964 Q788.767 140.968 786.939 140.482 Q785.133 139.973 783.281 139.973 Q779.138 139.973 776.846 142.612 Q774.554 145.228 774.554 149.973 Q774.554 154.718 776.846 157.357 Q779.138 159.973 783.281 159.973 Q785.133 159.973 786.939 159.487 Q788.767 158.977 790.573 157.982 L790.573 161.917 Q788.79 162.751 786.869 163.167 Q784.971 163.584 782.818 163.584 Q776.962 163.584 773.513 159.903 Q770.064 156.223 770.064 149.973 Q770.064 143.63 773.536 139.996 Q777.031 136.362 783.096 136.362 Q785.064 136.362 786.939 136.779 Q788.814 137.172 790.573 137.982 Z" fill="#000000" fill-rule="evenodd" fill-opacity="1" /><path clip-path="url(#clip460)" d="M820.156 148.885 L820.156 150.968 L800.573 150.968 Q800.851 155.366 803.212 157.681 Q805.596 159.973 809.832 159.973 Q812.286 159.973 814.577 159.371 Q816.892 158.769 819.161 157.565 L819.161 161.593 Q816.869 162.565 814.462 163.075 Q812.054 163.584 809.577 163.584 Q803.374 163.584 799.74 159.973 Q796.128 156.362 796.128 150.204 Q796.128 143.839 799.554 140.112 Q803.003 136.362 808.837 136.362 Q814.068 136.362 817.101 139.741 Q820.156 143.098 820.156 148.885 M815.897 147.635 Q815.851 144.14 813.929 142.056 Q812.031 139.973 808.883 139.973 Q805.318 139.973 803.165 141.987 Q801.036 144.001 800.712 147.658 L815.897 147.635 Z" fill="#000000" fill-rule="evenodd" fill-opacity="1" /></svg>
