<?xml version="1.0" encoding="utf-8"?>
<svg xmlns="http://www.w3.org/2000/svg" xmlns:xlink="http://www.w3.org/1999/xlink" width="800" height="400" viewBox="0 0 3200 1600">
<defs>
  <clipPath id="clip900">
    <rect x="0" y="0" width="3200" height="1600"/>
  </clipPath>
</defs>
<path clip-path="url(#clip900)" d="
M0 1600 L3200 1600 L3200 0 L0 0  Z
  " fill="#ffffff" fill-rule="evenodd" fill-opacity="1"/>
<defs>
  <clipPath id="clip901">
    <rect x="640" y="0" width="2241" height="1600"/>
  </clipPath>
</defs>
<path clip-path="url(#clip900)" d="
M261.742 1443.7 L3152.76 1443.7 L3152.76 47.2441 L261.742 47.2441  Z
  " fill="#ffffff" fill-rule="evenodd" fill-opacity="1"/>
<defs>
  <clipPath id="clip902">
    <rect x="261" y="47" width="2892" height="1397"/>
  </clipPath>
</defs>
<polyline clip-path="url(#clip900)" style="stroke:#000000; stroke-linecap:butt; stroke-linejoin:round; stroke-width:4; stroke-opacity:1; fill:none" points="
  261.742,1443.7 3152.76,1443.7 
  "/>
<polyline clip-path="url(#clip900)" style="stroke:#000000; stroke-linecap:butt; stroke-linejoin:round; stroke-width:4; stroke-opacity:1; fill:none" points="
  261.742,1443.7 261.742,1426.94 
  "/>
<polyline clip-path="url(#clip900)" style="stroke:#000000; stroke-linecap:butt; stroke-linejoin:round; stroke-width:4; stroke-opacity:1; fill:none" points="
  864.036,1443.7 864.036,1426.94 
  "/>
<polyline clip-path="url(#clip900)" style="stroke:#000000; stroke-linecap:butt; stroke-linejoin:round; stroke-width:4; stroke-opacity:1; fill:none" points="
  1466.33,1443.7 1466.33,1426.94 
  "/>
<polyline clip-path="url(#clip900)" style="stroke:#000000; stroke-linecap:butt; stroke-linejoin:round; stroke-width:4; stroke-opacity:1; fill:none" points="
  2068.63,1443.7 2068.63,1426.94 
  "/>
<polyline clip-path="url(#clip900)" style="stroke:#000000; stroke-linecap:butt; stroke-linejoin:round; stroke-width:4; stroke-opacity:1; fill:none" points="
  2670.92,1443.7 2670.92,1426.94 
  "/>
<path clip-path="url(#clip900)" d="M261.742 1479.29 Q258.13 1479.29 256.302 1482.86 Q254.496 1486.4 254.496 1493.53 Q254.496 1500.63 256.302 1504.2 Q258.13 1507.74 261.742 1507.74 Q265.376 1507.74 267.181 1504.2 Q269.01 1500.63 269.01 1493.53 Q269.01 1486.4 267.181 1482.86 Q265.376 1479.29 261.742 1479.29 M261.742 1475.59 Q267.552 1475.59 270.607 1480.19 Q273.686 1484.78 273.686 1493.53 Q273.686 1502.25 270.607 1506.86 Q267.552 1511.44 261.742 1511.44 Q255.931 1511.44 252.853 1506.86 Q249.797 1502.25 249.797 1493.53 Q249.797 1484.78 252.853 1480.19 Q255.931 1475.59 261.742 1475.59 Z" fill="#000000" fill-rule="evenodd" fill-opacity="1" /><path clip-path="url(#clip900)" d="M838.724 1506.84 L846.363 1506.84 L846.363 1480.47 L838.053 1482.14 L838.053 1477.88 L846.316 1476.21 L850.992 1476.21 L850.992 1506.84 L858.631 1506.84 L858.631 1510.77 L838.724 1510.77 L838.724 1506.84 Z" fill="#000000" fill-rule="evenodd" fill-opacity="1" /><path clip-path="url(#clip900)" d="M878.075 1479.29 Q874.464 1479.29 872.636 1482.86 Q870.83 1486.4 870.83 1493.53 Q870.83 1500.63 872.636 1504.2 Q874.464 1507.74 878.075 1507.74 Q881.71 1507.74 883.515 1504.2 Q885.344 1500.63 885.344 1493.53 Q885.344 1486.4 883.515 1482.86 Q881.71 1479.29 878.075 1479.29 M878.075 1475.59 Q883.886 1475.59 886.941 1480.19 Q890.02 1484.78 890.02 1493.53 Q890.02 1502.25 886.941 1506.86 Q883.886 1511.44 878.075 1511.44 Q872.265 1511.44 869.187 1506.86 Q866.131 1502.25 866.131 1493.53 Q866.131 1484.78 869.187 1480.19 Q872.265 1475.59 878.075 1475.59 Z" fill="#000000" fill-rule="evenodd" fill-opacity="1" /><path clip-path="url(#clip900)" d="M1445.1 1506.84 L1461.42 1506.84 L1461.42 1510.77 L1439.48 1510.77 L1439.48 1506.84 Q1442.14 1504.08 1446.72 1499.45 Q1451.33 1494.8 1452.51 1493.46 Q1454.76 1490.93 1455.64 1489.2 Q1456.54 1487.44 1456.54 1485.75 Q1456.54 1482.99 1454.59 1481.26 Q1452.67 1479.52 1449.57 1479.52 Q1447.37 1479.52 1444.92 1480.29 Q1442.49 1481.05 1439.71 1482.6 L1439.71 1477.88 Q1442.53 1476.74 1444.99 1476.17 Q1447.44 1475.59 1449.48 1475.59 Q1454.85 1475.59 1458.04 1478.27 Q1461.24 1480.96 1461.24 1485.45 Q1461.24 1487.58 1460.43 1489.5 Q1459.64 1491.4 1457.53 1493.99 Q1456.96 1494.66 1453.85 1497.88 Q1450.75 1501.07 1445.1 1506.84 Z" fill="#000000" fill-rule="evenodd" fill-opacity="1" /><path clip-path="url(#clip900)" d="M1481.24 1479.29 Q1477.63 1479.29 1475.8 1482.86 Q1473.99 1486.4 1473.99 1493.53 Q1473.99 1500.63 1475.8 1504.2 Q1477.63 1507.74 1481.24 1507.74 Q1484.87 1507.74 1486.68 1504.2 Q1488.51 1500.63 1488.51 1493.53 Q1488.51 1486.4 1486.68 1482.86 Q1484.87 1479.29 1481.24 1479.29 M1481.24 1475.59 Q1487.05 1475.59 1490.1 1480.19 Q1493.18 1484.78 1493.18 1493.53 Q1493.18 1502.25 1490.1 1506.86 Q1487.05 1511.44 1481.24 1511.44 Q1475.43 1511.44 1472.35 1506.86 Q1469.29 1502.25 1469.29 1493.53 Q1469.29 1484.78 1472.35 1480.19 Q1475.43 1475.59 1481.24 1475.59 Z" fill="#000000" fill-rule="evenodd" fill-opacity="1" /><path clip-path="url(#clip900)" d="M2057.47 1492.14 Q2060.82 1492.86 2062.7 1495.12 Q2064.6 1497.39 2064.6 1500.73 Q2064.6 1505.84 2061.08 1508.64 Q2057.56 1511.44 2051.08 1511.44 Q2048.9 1511.44 2046.59 1511 Q2044.3 1510.59 2041.84 1509.73 L2041.84 1505.22 Q2043.79 1506.35 2046.1 1506.93 Q2048.42 1507.51 2050.94 1507.51 Q2055.34 1507.51 2057.63 1505.77 Q2059.94 1504.04 2059.94 1500.73 Q2059.94 1497.67 2057.79 1495.96 Q2055.66 1494.22 2051.84 1494.22 L2047.82 1494.22 L2047.82 1490.38 L2052.03 1490.38 Q2055.48 1490.38 2057.31 1489.01 Q2059.13 1487.62 2059.13 1485.03 Q2059.13 1482.37 2057.24 1480.96 Q2055.36 1479.52 2051.84 1479.52 Q2049.92 1479.52 2047.72 1479.94 Q2045.52 1480.36 2042.88 1481.23 L2042.88 1477.07 Q2045.55 1476.33 2047.86 1475.96 Q2050.2 1475.59 2052.26 1475.59 Q2057.58 1475.59 2060.69 1478.02 Q2063.79 1480.42 2063.79 1484.55 Q2063.79 1487.42 2062.14 1489.41 Q2060.5 1491.37 2057.47 1492.14 Z" fill="#000000" fill-rule="evenodd" fill-opacity="1" /><path clip-path="url(#clip900)" d="M2083.46 1479.29 Q2079.85 1479.29 2078.02 1482.86 Q2076.22 1486.4 2076.22 1493.53 Q2076.22 1500.63 2078.02 1504.2 Q2079.85 1507.74 2083.46 1507.74 Q2087.1 1507.74 2088.9 1504.2 Q2090.73 1500.63 2090.73 1493.53 Q2090.73 1486.4 2088.9 1482.86 Q2087.1 1479.29 2083.46 1479.29 M2083.46 1475.59 Q2089.27 1475.59 2092.33 1480.19 Q2095.41 1484.78 2095.41 1493.53 Q2095.41 1502.25 2092.33 1506.86 Q2089.27 1511.44 2083.46 1511.44 Q2077.65 1511.44 2074.57 1506.86 Q2071.52 1502.25 2071.52 1493.53 Q2071.52 1484.78 2074.57 1480.19 Q2077.65 1475.59 2083.46 1475.59 Z" fill="#000000" fill-rule="evenodd" fill-opacity="1" /><path clip-path="url(#clip900)" d="M2659.09 1480.29 L2647.29 1498.73 L2659.09 1498.73 L2659.09 1480.29 M2657.86 1476.21 L2663.74 1476.21 L2663.74 1498.73 L2668.67 1498.73 L2668.67 1502.62 L2663.74 1502.62 L2663.74 1510.77 L2659.09 1510.77 L2659.09 1502.62 L2643.49 1502.62 L2643.49 1498.11 L2657.86 1476.21 Z" fill="#000000" fill-rule="evenodd" fill-opacity="1" /><path clip-path="url(#clip900)" d="M2686.41 1479.29 Q2682.8 1479.29 2680.97 1482.86 Q2679.16 1486.4 2679.16 1493.53 Q2679.16 1500.63 2680.97 1504.2 Q2682.8 1507.74 2686.41 1507.74 Q2690.04 1507.74 2691.85 1504.2 Q2693.67 1500.63 2693.67 1493.53 Q2693.67 1486.4 2691.85 1482.86 Q2690.04 1479.29 2686.41 1479.29 M2686.41 1475.59 Q2692.22 1475.59 2695.27 1480.19 Q2698.35 1484.78 2698.35 1493.53 Q2698.35 1502.25 2695.27 1506.86 Q2692.22 1511.44 2686.41 1511.44 Q2680.6 1511.44 2677.52 1506.86 Q2674.46 1502.25 2674.46 1493.53 Q2674.46 1484.78 2677.52 1480.19 Q2680.6 1475.59 2686.41 1475.59 Z" fill="#000000" fill-rule="evenodd" fill-opacity="1" /><path clip-path="url(#clip900)" d="M1560.34 1553.04 L1600.54 1553.04 L1600.54 1558.45 L1583.67 1558.45 L1583.67 1600.56 L1577.21 1600.56 L1577.21 1558.45 L1560.34 1558.45 L1560.34 1553.04 Z" fill="#000000" fill-rule="evenodd" fill-opacity="1" /><path clip-path="url(#clip900)" d="M1604.49 1564.92 L1610.35 1564.92 L1610.35 1600.56 L1604.49 1600.56 L1604.49 1564.92 M1604.49 1551.04 L1610.35 1551.04 L1610.35 1558.45 L1604.49 1558.45 L1604.49 1551.04 Z" fill="#000000" fill-rule="evenodd" fill-opacity="1" /><path clip-path="url(#clip900)" d="M1650.36 1571.76 Q1652.55 1567.81 1655.61 1565.93 Q1658.66 1564.06 1662.8 1564.06 Q1668.37 1564.06 1671.39 1567.97 Q1674.42 1571.85 1674.42 1579.05 L1674.42 1600.56 L1668.53 1600.56 L1668.53 1579.24 Q1668.53 1574.11 1666.72 1571.63 Q1664.9 1569.15 1661.18 1569.15 Q1656.63 1569.15 1653.98 1572.17 Q1651.34 1575.2 1651.34 1580.42 L1651.34 1600.56 L1645.45 1600.56 L1645.45 1579.24 Q1645.45 1574.08 1643.64 1571.63 Q1641.83 1569.15 1638.04 1569.15 Q1633.55 1569.15 1630.91 1572.2 Q1628.27 1575.23 1628.27 1580.42 L1628.27 1600.56 L1622.38 1600.56 L1622.38 1564.92 L1628.27 1564.92 L1628.27 1570.45 Q1630.27 1567.18 1633.07 1565.62 Q1635.87 1564.06 1639.72 1564.06 Q1643.61 1564.06 1646.31 1566.03 Q1649.05 1568 1650.36 1571.76 Z" fill="#000000" fill-rule="evenodd" fill-opacity="1" /><path clip-path="url(#clip900)" d="M1716.59 1581.28 L1716.59 1584.14 L1689.66 1584.14 Q1690.05 1590.19 1693.29 1593.37 Q1696.57 1596.52 1702.39 1596.52 Q1705.77 1596.52 1708.92 1595.69 Q1712.1 1594.87 1715.22 1593.21 L1715.22 1598.75 Q1712.07 1600.09 1708.76 1600.79 Q1705.45 1601.49 1702.04 1601.49 Q1693.51 1601.49 1688.52 1596.52 Q1683.55 1591.56 1683.55 1583.09 Q1683.55 1574.34 1688.26 1569.21 Q1693.01 1564.06 1701.03 1564.06 Q1708.22 1564.06 1712.39 1568.7 Q1716.59 1573.32 1716.59 1581.28 M1710.73 1579.56 Q1710.67 1574.75 1708.03 1571.89 Q1705.42 1569.02 1701.09 1569.02 Q1696.19 1569.02 1693.23 1571.79 Q1690.3 1574.56 1689.85 1579.59 L1710.73 1579.56 Z" fill="#000000" fill-rule="evenodd" fill-opacity="1" /><path clip-path="url(#clip900)" d="M1746.38 1551.04 L1759.88 1551.04 L1759.88 1555.59 L1752.24 1555.59 L1752.24 1604.61 L1759.88 1604.61 L1759.88 1609.16 L1746.38 1609.16 L1746.38 1551.04 Z" fill="#000000" fill-rule="evenodd" fill-opacity="1" /><path clip-path="url(#clip900)" d="M1801.99 1579.05 L1801.99 1600.56 L1796.13 1600.56 L1796.13 1579.24 Q1796.13 1574.18 1794.16 1571.66 Q1792.18 1569.15 1788.24 1569.15 Q1783.49 1569.15 1780.76 1572.17 Q1778.02 1575.2 1778.02 1580.42 L1778.02 1600.56 L1772.13 1600.56 L1772.13 1551.04 L1778.02 1551.04 L1778.02 1570.45 Q1780.12 1567.24 1782.95 1565.65 Q1785.82 1564.06 1789.54 1564.06 Q1795.68 1564.06 1798.84 1567.88 Q1801.99 1571.66 1801.99 1579.05 Z" fill="#000000" fill-rule="evenodd" fill-opacity="1" /><path clip-path="url(#clip900)" d="M1834.32 1570.39 Q1833.34 1569.82 1832.16 1569.56 Q1831.01 1569.28 1829.61 1569.28 Q1824.65 1569.28 1821.97 1572.52 Q1819.33 1575.74 1819.33 1581.79 L1819.33 1600.56 L1813.44 1600.56 L1813.44 1564.92 L1819.33 1564.92 L1819.33 1570.45 Q1821.18 1567.21 1824.14 1565.65 Q1827.1 1564.06 1831.33 1564.06 Q1831.94 1564.06 1832.67 1564.15 Q1833.4 1564.22 1834.29 1564.37 L1834.32 1570.39 Z" fill="#000000" fill-rule="evenodd" fill-opacity="1" /><path clip-path="url(#clip900)" d="M1854.15 1551.04 L1854.15 1609.16 L1840.66 1609.16 L1840.66 1604.61 L1848.27 1604.61 L1848.27 1555.59 L1840.66 1555.59 L1840.66 1551.04 L1854.15 1551.04 Z" fill="#000000" fill-rule="evenodd" fill-opacity="1" /><polyline clip-path="url(#clip900)" style="stroke:#000000; stroke-linecap:butt; stroke-linejoin:round; stroke-width:4; stroke-opacity:1; fill:none" points="
  261.742,1443.7 261.742,47.2441 
  "/>
<polyline clip-path="url(#clip900)" style="stroke:#000000; stroke-linecap:butt; stroke-linejoin:round; stroke-width:4; stroke-opacity:1; fill:none" points="
  261.742,1443.7 296.434,1443.7 
  "/>
<polyline clip-path="url(#clip900)" style="stroke:#000000; stroke-linecap:butt; stroke-linejoin:round; stroke-width:4; stroke-opacity:1; fill:none" points="
  261.742,1094.59 296.434,1094.59 
  "/>
<polyline clip-path="url(#clip900)" style="stroke:#000000; stroke-linecap:butt; stroke-linejoin:round; stroke-width:4; stroke-opacity:1; fill:none" points="
  261.742,745.472 296.434,745.472 
  "/>
<polyline clip-path="url(#clip900)" style="stroke:#000000; stroke-linecap:butt; stroke-linejoin:round; stroke-width:4; stroke-opacity:1; fill:none" points="
  261.742,396.358 296.434,396.358 
  "/>
<polyline clip-path="url(#clip900)" style="stroke:#000000; stroke-linecap:butt; stroke-linejoin:round; stroke-width:4; stroke-opacity:1; fill:none" points="
  261.742,47.2441 296.434,47.2441 
  "/>
<path clip-path="url(#clip900)" d="M201.797 1429.5 Q198.186 1429.5 196.357 1433.06 Q194.552 1436.6 194.552 1443.73 Q194.552 1450.84 196.357 1454.41 Q198.186 1457.95 201.797 1457.95 Q205.431 1457.95 207.237 1454.41 Q209.066 1450.84 209.066 1443.73 Q209.066 1436.6 207.237 1433.06 Q205.431 1429.5 201.797 1429.5 M201.797 1425.79 Q207.607 1425.79 210.663 1430.4 Q213.742 1434.98 213.742 1443.73 Q213.742 1452.46 210.663 1457.07 Q207.607 1461.65 201.797 1461.65 Q195.987 1461.65 192.908 1457.07 Q189.853 1452.46 189.853 1443.73 Q189.853 1434.98 192.908 1430.4 Q195.987 1425.79 201.797 1425.79 Z" fill="#000000" fill-rule="evenodd" fill-opacity="1" /><path clip-path="url(#clip900)" d="M161.682 1077.31 L180.038 1077.31 L180.038 1081.24 L165.964 1081.24 L165.964 1089.71 Q166.983 1089.37 168.001 1089.2 Q169.02 1089.02 170.038 1089.02 Q175.825 1089.02 179.205 1092.19 Q182.584 1095.36 182.584 1100.78 Q182.584 1106.36 179.112 1109.46 Q175.64 1112.54 169.32 1112.54 Q167.145 1112.54 164.876 1112.17 Q162.631 1111.8 160.223 1111.06 L160.223 1106.36 Q162.307 1107.49 164.529 1108.05 Q166.751 1108.6 169.228 1108.6 Q173.232 1108.6 175.57 1106.5 Q177.908 1104.39 177.908 1100.78 Q177.908 1097.17 175.57 1095.06 Q173.232 1092.95 169.228 1092.95 Q167.353 1092.95 165.478 1093.37 Q163.626 1093.79 161.682 1094.67 L161.682 1077.31 Z" fill="#000000" fill-rule="evenodd" fill-opacity="1" /><path clip-path="url(#clip900)" d="M201.797 1080.38 Q198.186 1080.38 196.357 1083.95 Q194.552 1087.49 194.552 1094.62 Q194.552 1101.73 196.357 1105.29 Q198.186 1108.83 201.797 1108.83 Q205.431 1108.83 207.237 1105.29 Q209.066 1101.73 209.066 1094.62 Q209.066 1087.49 207.237 1083.95 Q205.431 1080.38 201.797 1080.38 M201.797 1076.68 Q207.607 1076.68 210.663 1081.29 Q213.742 1085.87 213.742 1094.62 Q213.742 1103.35 210.663 1107.95 Q207.607 1112.54 201.797 1112.54 Q195.987 1112.54 192.908 1107.95 Q189.853 1103.35 189.853 1094.62 Q189.853 1085.87 192.908 1081.29 Q195.987 1076.68 201.797 1076.68 Z" fill="#000000" fill-rule="evenodd" fill-opacity="1" /><path clip-path="url(#clip900)" d="M132.284 758.817 L139.922 758.817 L139.922 732.451 L131.612 734.118 L131.612 729.859 L139.876 728.192 L144.552 728.192 L144.552 758.817 L152.191 758.817 L152.191 762.752 L132.284 762.752 L132.284 758.817 Z" fill="#000000" fill-rule="evenodd" fill-opacity="1" /><path clip-path="url(#clip900)" d="M171.635 731.271 Q168.024 731.271 166.195 734.835 Q164.39 738.377 164.39 745.507 Q164.39 752.613 166.195 756.178 Q168.024 759.72 171.635 759.72 Q175.269 759.72 177.075 756.178 Q178.904 752.613 178.904 745.507 Q178.904 738.377 177.075 734.835 Q175.269 731.271 171.635 731.271 M171.635 727.567 Q177.445 727.567 180.501 732.173 Q183.58 736.757 183.58 745.507 Q183.58 754.233 180.501 758.84 Q177.445 763.423 171.635 763.423 Q165.825 763.423 162.746 758.84 Q159.691 754.233 159.691 745.507 Q159.691 736.757 162.746 732.173 Q165.825 727.567 171.635 727.567 Z" fill="#000000" fill-rule="evenodd" fill-opacity="1" /><path clip-path="url(#clip900)" d="M201.797 731.271 Q198.186 731.271 196.357 734.835 Q194.552 738.377 194.552 745.507 Q194.552 752.613 196.357 756.178 Q198.186 759.72 201.797 759.72 Q205.431 759.72 207.237 756.178 Q209.066 752.613 209.066 745.507 Q209.066 738.377 207.237 734.835 Q205.431 731.271 201.797 731.271 M201.797 727.567 Q207.607 727.567 210.663 732.173 Q213.742 736.757 213.742 745.507 Q213.742 754.233 210.663 758.84 Q207.607 763.423 201.797 763.423 Q195.987 763.423 192.908 758.84 Q189.853 754.233 189.853 745.507 Q189.853 736.757 192.908 732.173 Q195.987 727.567 201.797 727.567 Z" fill="#000000" fill-rule="evenodd" fill-opacity="1" /><path clip-path="url(#clip900)" d="M132.284 409.703 L139.922 409.703 L139.922 383.337 L131.612 385.004 L131.612 380.745 L139.876 379.078 L144.552 379.078 L144.552 409.703 L152.191 409.703 L152.191 413.638 L132.284 413.638 L132.284 409.703 Z" fill="#000000" fill-rule="evenodd" fill-opacity="1" /><path clip-path="url(#clip900)" d="M161.682 379.078 L180.038 379.078 L180.038 383.013 L165.964 383.013 L165.964 391.485 Q166.983 391.138 168.001 390.976 Q169.02 390.791 170.038 390.791 Q175.825 390.791 179.205 393.962 Q182.584 397.133 182.584 402.55 Q182.584 408.129 179.112 411.231 Q175.64 414.309 169.32 414.309 Q167.145 414.309 164.876 413.939 Q162.631 413.569 160.223 412.828 L160.223 408.129 Q162.307 409.263 164.529 409.819 Q166.751 410.374 169.228 410.374 Q173.232 410.374 175.57 408.268 Q177.908 406.161 177.908 402.55 Q177.908 398.939 175.57 396.833 Q173.232 394.726 169.228 394.726 Q167.353 394.726 165.478 395.143 Q163.626 395.559 161.682 396.439 L161.682 379.078 Z" fill="#000000" fill-rule="evenodd" fill-opacity="1" /><path clip-path="url(#clip900)" d="M201.797 382.157 Q198.186 382.157 196.357 385.722 Q194.552 389.263 194.552 396.393 Q194.552 403.499 196.357 407.064 Q198.186 410.606 201.797 410.606 Q205.431 410.606 207.237 407.064 Q209.066 403.499 209.066 396.393 Q209.066 389.263 207.237 385.722 Q205.431 382.157 201.797 382.157 M201.797 378.453 Q207.607 378.453 210.663 383.059 Q213.742 387.643 213.742 396.393 Q213.742 405.12 210.663 409.726 Q207.607 414.309 201.797 414.309 Q195.987 414.309 192.908 409.726 Q189.853 405.12 189.853 396.393 Q189.853 387.643 192.908 383.059 Q195.987 378.453 201.797 378.453 Z" fill="#000000" fill-rule="evenodd" fill-opacity="1" /><path clip-path="url(#clip900)" d="M135.501 60.5889 L151.821 60.5889 L151.821 64.5241 L129.876 64.5241 L129.876 60.5889 Q132.538 57.8343 137.122 53.2047 Q141.728 48.552 142.909 47.2094 Q145.154 44.6862 146.034 42.9501 Q146.936 41.1909 146.936 39.5011 Q146.936 36.7465 144.992 35.0104 Q143.071 33.2743 139.969 33.2743 Q137.77 33.2743 135.316 34.0381 Q132.885 34.802 130.108 36.3529 L130.108 31.6308 Q132.932 30.4965 135.385 29.9178 Q137.839 29.3391 139.876 29.3391 Q145.247 29.3391 148.441 32.0243 Q151.635 34.7094 151.635 39.2002 Q151.635 41.3298 150.825 43.2511 Q150.038 45.1492 147.932 47.7418 Q147.353 48.4131 144.251 51.6306 Q141.149 54.8251 135.501 60.5889 Z" fill="#000000" fill-rule="evenodd" fill-opacity="1" /><path clip-path="url(#clip900)" d="M171.635 33.0428 Q168.024 33.0428 166.195 36.6076 Q164.39 40.1492 164.39 47.2788 Q164.39 54.3853 166.195 57.9501 Q168.024 61.4917 171.635 61.4917 Q175.269 61.4917 177.075 57.9501 Q178.904 54.3853 178.904 47.2788 Q178.904 40.1492 177.075 36.6076 Q175.269 33.0428 171.635 33.0428 M171.635 29.3391 Q177.445 29.3391 180.501 33.9456 Q183.58 38.5289 183.58 47.2788 Q183.58 56.0056 180.501 60.6121 Q177.445 65.1954 171.635 65.1954 Q165.825 65.1954 162.746 60.6121 Q159.691 56.0056 159.691 47.2788 Q159.691 38.5289 162.746 33.9456 Q165.825 29.3391 171.635 29.3391 Z" fill="#000000" fill-rule="evenodd" fill-opacity="1" /><path clip-path="url(#clip900)" d="M201.797 33.0428 Q198.186 33.0428 196.357 36.6076 Q194.552 40.1492 194.552 47.2788 Q194.552 54.3853 196.357 57.9501 Q198.186 61.4917 201.797 61.4917 Q205.431 61.4917 207.237 57.9501 Q209.066 54.3853 209.066 47.2788 Q209.066 40.1492 207.237 36.6076 Q205.431 33.0428 201.797 33.0428 M201.797 29.3391 Q207.607 29.3391 210.663 33.9456 Q213.742 38.5289 213.742 47.2788 Q213.742 56.0056 210.663 60.6121 Q207.607 65.1954 201.797 65.1954 Q195.987 65.1954 192.908 60.6121 Q189.853 56.0056 189.853 47.2788 Q189.853 38.5289 192.908 33.9456 Q195.987 29.3391 201.797 29.3391 Z" fill="#000000" fill-rule="evenodd" fill-opacity="1" /><path clip-path="url(#clip900)" d="M20.1002 935.488 L20.1002 929.059 L39.5793 929.059 L39.5793 905.697 L20.1002 905.697 L20.1002 899.267 L67.6202 899.267 L67.6202 905.697 L44.9901 905.697 L44.9901 929.059 L67.6202 929.059 L67.6202 935.488 L20.1002 935.488 Z" fill="#000000" fill-rule="evenodd" fill-opacity="1" /><path clip-path="url(#clip900)" d="M48.3321 856.235 L51.1967 856.235 L51.1967 883.162 Q57.2441 882.78 60.427 879.534 Q63.578 876.255 63.578 870.431 Q63.578 867.057 62.7505 863.906 Q61.9229 860.723 60.2678 857.604 L65.806 857.604 Q67.1428 860.755 67.843 864.065 Q68.5432 867.375 68.5432 870.781 Q68.5432 879.311 63.578 884.308 Q58.6127 889.273 50.1464 889.273 Q41.3935 889.273 36.2691 884.563 Q31.1129 879.82 31.1129 871.799 Q31.1129 864.606 35.7599 860.437 Q40.375 856.235 48.3321 856.235 M46.6134 862.092 Q41.8073 862.155 38.9427 864.797 Q36.0781 867.407 36.0781 871.736 Q36.0781 876.637 38.8472 879.597 Q41.6163 882.526 46.6452 882.971 L46.6134 862.092 Z" fill="#000000" fill-rule="evenodd" fill-opacity="1" /><path clip-path="url(#clip900)" d="M31.9723 846.623 L31.9723 840.767 L67.6202 840.767 L67.6202 846.623 L31.9723 846.623 M18.095 846.623 L18.095 840.767 L25.5111 840.767 L25.5111 846.623 L18.095 846.623 Z" fill="#000000" fill-rule="evenodd" fill-opacity="1" /><path clip-path="url(#clip900)" d="M49.3825 805.055 Q43.0168 805.055 39.5156 807.697 Q36.0145 810.307 36.0145 815.049 Q36.0145 819.76 39.5156 822.402 Q43.0168 825.011 49.3825 825.011 Q55.7163 825.011 59.2175 822.402 Q62.7186 819.76 62.7186 815.049 Q62.7186 810.307 59.2175 807.697 Q55.7163 805.055 49.3825 805.055 M63.1961 799.199 Q72.299 799.199 76.7232 803.241 Q81.1792 807.283 81.1792 815.622 Q81.1792 818.709 80.7017 821.447 Q80.2561 824.184 79.3013 826.762 L73.604 826.762 Q75.0044 824.184 75.6728 821.669 Q76.3412 819.155 76.3412 816.545 Q76.3412 810.784 73.3175 807.92 Q70.3256 805.055 64.2464 805.055 L61.35 805.055 Q64.501 806.869 66.0606 809.702 Q67.6202 812.535 67.6202 816.481 Q67.6202 823.038 62.6231 827.048 Q57.6261 831.059 49.3825 831.059 Q41.1071 831.059 36.11 827.048 Q31.1129 823.038 31.1129 816.481 Q31.1129 812.535 32.6725 809.702 Q34.2321 806.869 37.3831 805.055 L31.9723 805.055 L31.9723 799.199 L63.1961 799.199 Z" fill="#000000" fill-rule="evenodd" fill-opacity="1" /><path clip-path="url(#clip900)" d="M46.1041 757.503 L67.6202 757.503 L67.6202 763.36 L46.2951 763.36 Q41.2344 763.36 38.7199 765.333 Q36.2055 767.306 36.2055 771.253 Q36.2055 775.996 39.2292 778.733 Q42.2529 781.47 47.4728 781.47 L67.6202 781.47 L67.6202 787.358 L18.095 787.358 L18.095 781.47 L37.5104 781.47 Q34.2957 779.369 32.7043 776.537 Q31.1129 773.672 31.1129 769.948 Q31.1129 763.805 34.9323 760.654 Q38.7199 757.503 46.1041 757.503 Z" fill="#000000" fill-rule="evenodd" fill-opacity="1" /><path clip-path="url(#clip900)" d="M21.8508 740.029 L31.9723 740.029 L31.9723 727.966 L36.5237 727.966 L36.5237 740.029 L55.8755 740.029 Q60.236 740.029 61.4773 738.852 Q62.7186 737.642 62.7186 733.982 L62.7186 727.966 L67.6202 727.966 L67.6202 733.982 Q67.6202 740.761 65.1058 743.339 Q62.5595 745.918 55.8755 745.918 L36.5237 745.918 L36.5237 750.214 L31.9723 750.214 L31.9723 745.918 L21.8508 745.918 L21.8508 740.029 Z" fill="#000000" fill-rule="evenodd" fill-opacity="1" /><path clip-path="url(#clip900)" d="M18.095 700.084 L18.095 686.589 L22.6465 686.589 L22.6465 694.228 L71.6624 694.228 L71.6624 686.589 L76.2139 686.589 L76.2139 700.084 L18.095 700.084 Z" fill="#000000" fill-rule="evenodd" fill-opacity="1" /><path clip-path="url(#clip900)" d="M81.1792 674.717 L31.9723 674.717 L31.9723 668.861 L54.1249 668.861 Q58.7401 668.861 61.0954 666.665 Q63.4507 664.468 63.4507 660.171 Q63.4507 655.461 60.7771 653.106 Q58.1035 650.718 52.7563 650.718 L31.9723 650.718 L31.9723 644.862 L59.4085 644.862 Q61.3182 644.862 62.2412 644.321 Q63.1324 643.748 63.1324 642.57 Q63.1324 642.284 62.9733 641.775 Q62.7823 641.265 62.4003 640.374 L67.111 640.374 Q67.843 641.679 68.1931 642.857 Q68.5432 644.003 68.5432 645.117 Q68.5432 647.313 67.3019 648.618 Q66.0606 649.923 63.5143 650.4 Q66.0288 651.992 67.3019 654.315 Q68.5432 656.607 68.5432 659.726 Q68.5432 662.972 67.3019 665.264 Q66.0606 667.524 63.578 668.861 L81.1792 668.861 L81.1792 674.717 Z" fill="#000000" fill-rule="evenodd" fill-opacity="1" /><path clip-path="url(#clip900)" d="M38.8154 604.885 Q34.8687 602.689 32.9908 599.634 Q31.1129 596.578 31.1129 592.44 Q31.1129 586.87 35.0278 583.847 Q38.9109 580.823 46.1041 580.823 L67.6202 580.823 L67.6202 586.711 L46.2951 586.711 Q41.1707 586.711 38.6881 588.525 Q36.2055 590.34 36.2055 594.064 Q36.2055 598.615 39.2292 601.257 Q42.2529 603.899 47.4728 603.899 L67.6202 603.899 L67.6202 609.787 L46.2951 609.787 Q41.1389 609.787 38.6881 611.601 Q36.2055 613.415 36.2055 617.203 Q36.2055 621.691 39.261 624.333 Q42.2847 626.974 47.4728 626.974 L67.6202 626.974 L67.6202 632.863 L31.9723 632.863 L31.9723 626.974 L37.5104 626.974 Q34.2321 624.969 32.6725 622.168 Q31.1129 619.367 31.1129 615.516 Q31.1129 611.633 33.0863 608.928 Q35.0596 606.19 38.8154 604.885 Z" fill="#000000" fill-rule="evenodd" fill-opacity="1" /><path clip-path="url(#clip900)" d="M18.095 555.456 L76.2139 555.456 L76.2139 568.951 L71.6624 568.951 L71.6624 561.344 L22.6465 561.344 L22.6465 568.951 L18.095 568.951 L18.095 555.456 Z" fill="#000000" fill-rule="evenodd" fill-opacity="1" /><circle clip-path="url(#clip902)" cx="292.827" cy="1440.49" r="14" fill="#000000" fill-rule="evenodd" fill-opacity="0.8" stroke="none"/>
<circle clip-path="url(#clip902)" cx="327.057" cy="1439.48" r="14" fill="#000000" fill-rule="evenodd" fill-opacity="0.8" stroke="none"/>
<circle clip-path="url(#clip902)" cx="361.287" cy="1437.31" r="14" fill="#000000" fill-rule="evenodd" fill-opacity="0.8" stroke="none"/>
<circle clip-path="url(#clip902)" cx="395.518" cy="1432.43" r="14" fill="#000000" fill-rule="evenodd" fill-opacity="0.8" stroke="none"/>
<circle clip-path="url(#clip902)" cx="429.648" cy="1426.09" r="14" fill="#000000" fill-rule="evenodd" fill-opacity="0.8" stroke="none"/>
<circle clip-path="url(#clip902)" cx="463.845" cy="1427.86" r="14" fill="#000000" fill-rule="evenodd" fill-opacity="0.8" stroke="none"/>
<circle clip-path="url(#clip902)" cx="498.075" cy="1418.82" r="14" fill="#000000" fill-rule="evenodd" fill-opacity="0.8" stroke="none"/>
<circle clip-path="url(#clip902)" cx="532.272" cy="1381.87" r="14" fill="#000000" fill-rule="evenodd" fill-opacity="0.8" stroke="none"/>
<circle clip-path="url(#clip902)" cx="571.555" cy="1353.9" r="14" fill="#000000" fill-rule="evenodd" fill-opacity="0.8" stroke="none"/>
<circle clip-path="url(#clip902)" cx="606.723" cy="1304.89" r="14" fill="#000000" fill-rule="evenodd" fill-opacity="0.8" stroke="none"/>
<circle clip-path="url(#clip902)" cx="641.856" cy="1260.08" r="14" fill="#000000" fill-rule="evenodd" fill-opacity="0.8" stroke="none"/>
<circle clip-path="url(#clip902)" cx="676.957" cy="1228.64" r="14" fill="#000000" fill-rule="evenodd" fill-opacity="0.8" stroke="none"/>
<circle clip-path="url(#clip902)" cx="711.99" cy="1201.8" r="14" fill="#000000" fill-rule="evenodd" fill-opacity="0.8" stroke="none"/>
<circle clip-path="url(#clip902)" cx="747.091" cy="1150.87" r="14" fill="#000000" fill-rule="evenodd" fill-opacity="0.8" stroke="none"/>
<circle clip-path="url(#clip902)" cx="782.258" cy="1112.35" r="14" fill="#000000" fill-rule="evenodd" fill-opacity="0.8" stroke="none"/>
<circle clip-path="url(#clip902)" cx="817.425" cy="1083.78" r="14" fill="#000000" fill-rule="evenodd" fill-opacity="0.8" stroke="none"/>
<circle clip-path="url(#clip902)" cx="853.161" cy="1051.87" r="14" fill="#000000" fill-rule="evenodd" fill-opacity="0.8" stroke="none"/>
<circle clip-path="url(#clip902)" cx="888.028" cy="1019.1" r="14" fill="#000000" fill-rule="evenodd" fill-opacity="0.8" stroke="none"/>
<circle clip-path="url(#clip902)" cx="922.927" cy="990.813" r="14" fill="#000000" fill-rule="evenodd" fill-opacity="0.8" stroke="none"/>
<circle clip-path="url(#clip902)" cx="957.86" cy="961.413" r="14" fill="#000000" fill-rule="evenodd" fill-opacity="0.8" stroke="none"/>
<circle clip-path="url(#clip902)" cx="992.381" cy="935.086" r="14" fill="#000000" fill-rule="evenodd" fill-opacity="0.8" stroke="none"/>
<circle clip-path="url(#clip902)" cx="1026.9" cy="908.759" r="14" fill="#000000" fill-rule="evenodd" fill-opacity="0.8" stroke="none"/>
<circle clip-path="url(#clip902)" cx="1061.42" cy="882.432" r="14" fill="#000000" fill-rule="evenodd" fill-opacity="0.8" stroke="none"/>
<circle clip-path="url(#clip902)" cx="1095.94" cy="856.105" r="14" fill="#000000" fill-rule="evenodd" fill-opacity="0.8" stroke="none"/>
<circle clip-path="url(#clip902)" cx="1130.46" cy="829.778" r="14" fill="#000000" fill-rule="evenodd" fill-opacity="0.8" stroke="none"/>
<circle clip-path="url(#clip902)" cx="1164.98" cy="803.451" r="14" fill="#000000" fill-rule="evenodd" fill-opacity="0.8" stroke="none"/>
<circle clip-path="url(#clip902)" cx="1199.92" cy="776.382" r="14" fill="#000000" fill-rule="evenodd" fill-opacity="0.8" stroke="none"/>
<circle clip-path="url(#clip902)" cx="1234.82" cy="757.591" r="14" fill="#000000" fill-rule="evenodd" fill-opacity="0.8" stroke="none"/>
<circle clip-path="url(#clip902)" cx="1269.75" cy="732.57" r="14" fill="#000000" fill-rule="evenodd" fill-opacity="0.8" stroke="none"/>
<circle clip-path="url(#clip902)" cx="1304.72" cy="719.074" r="14" fill="#000000" fill-rule="evenodd" fill-opacity="0.8" stroke="none"/>
<circle clip-path="url(#clip902)" cx="1339.65" cy="695.974" r="14" fill="#000000" fill-rule="evenodd" fill-opacity="0.8" stroke="none"/>
<circle clip-path="url(#clip902)" cx="1374.51" cy="669.664" r="14" fill="#000000" fill-rule="evenodd" fill-opacity="0.8" stroke="none"/>
<circle clip-path="url(#clip902)" cx="1409.75" cy="667.062" r="14" fill="#000000" fill-rule="evenodd" fill-opacity="0.8" stroke="none"/>
<circle clip-path="url(#clip902)" cx="1454.69" cy="659.18" r="14" fill="#000000" fill-rule="evenodd" fill-opacity="0.8" stroke="none"/>
<circle clip-path="url(#clip902)" cx="1489.65" cy="643.499" r="14" fill="#000000" fill-rule="evenodd" fill-opacity="0.8" stroke="none"/>
<circle clip-path="url(#clip902)" cx="1524.62" cy="606.165" r="14" fill="#000000" fill-rule="evenodd" fill-opacity="0.8" stroke="none"/>
<circle clip-path="url(#clip902)" cx="1562.2" cy="572.862" r="14" fill="#000000" fill-rule="evenodd" fill-opacity="0.8" stroke="none"/>
<circle clip-path="url(#clip902)" cx="1620.75" cy="554.201" r="14" fill="#000000" fill-rule="evenodd" fill-opacity="0.8" stroke="none"/>
<circle clip-path="url(#clip902)" cx="1655.69" cy="537.27" r="14" fill="#000000" fill-rule="evenodd" fill-opacity="0.8" stroke="none"/>
<circle clip-path="url(#clip902)" cx="1690.55" cy="527.22" r="14" fill="#000000" fill-rule="evenodd" fill-opacity="0.8" stroke="none"/>
<circle clip-path="url(#clip902)" cx="1725.28" cy="513.236" r="14" fill="#000000" fill-rule="evenodd" fill-opacity="0.8" stroke="none"/>
<circle clip-path="url(#clip902)" cx="1759.98" cy="506.894" r="14" fill="#000000" fill-rule="evenodd" fill-opacity="0.8" stroke="none"/>
<circle clip-path="url(#clip902)" cx="1794.61" cy="482.901" r="14" fill="#000000" fill-rule="evenodd" fill-opacity="0.8" stroke="none"/>
<circle clip-path="url(#clip902)" cx="1824.93" cy="470.3" r="14" fill="#000000" fill-rule="evenodd" fill-opacity="0.8" stroke="none"/>
<circle clip-path="url(#clip902)" cx="1857.05" cy="462.546" r="14" fill="#000000" fill-rule="evenodd" fill-opacity="0.8" stroke="none"/>
<circle clip-path="url(#clip902)" cx="1889.24" cy="447.624" r="14" fill="#000000" fill-rule="evenodd" fill-opacity="0.8" stroke="none"/>
<circle clip-path="url(#clip902)" cx="1921.46" cy="432.703" r="14" fill="#000000" fill-rule="evenodd" fill-opacity="0.8" stroke="none"/>
<circle clip-path="url(#clip902)" cx="1953.69" cy="416.594" r="14" fill="#000000" fill-rule="evenodd" fill-opacity="0.8" stroke="none"/>
<circle clip-path="url(#clip902)" cx="1986.14" cy="408.255" r="14" fill="#000000" fill-rule="evenodd" fill-opacity="0.8" stroke="none"/>
<circle clip-path="url(#clip902)" cx="2018.4" cy="399.551" r="14" fill="#000000" fill-rule="evenodd" fill-opacity="0.8" stroke="none"/>
<circle clip-path="url(#clip902)" cx="2050.69" cy="390.443" r="14" fill="#000000" fill-rule="evenodd" fill-opacity="0.8" stroke="none"/>
<circle clip-path="url(#clip902)" cx="2083.05" cy="381.81" r="14" fill="#000000" fill-rule="evenodd" fill-opacity="0.8" stroke="none"/>
<circle clip-path="url(#clip902)" cx="2115.3" cy="372.455" r="14" fill="#000000" fill-rule="evenodd" fill-opacity="0.8" stroke="none"/>
<circle clip-path="url(#clip902)" cx="2147.59" cy="364.815" r="14" fill="#000000" fill-rule="evenodd" fill-opacity="0.8" stroke="none"/>
<circle clip-path="url(#clip902)" cx="2179.88" cy="359.46" r="14" fill="#000000" fill-rule="evenodd" fill-opacity="0.8" stroke="none"/>
<circle clip-path="url(#clip902)" cx="2212.37" cy="345.87" r="14" fill="#000000" fill-rule="evenodd" fill-opacity="0.8" stroke="none"/>
<circle clip-path="url(#clip902)" cx="2244.36" cy="340.532" r="14" fill="#000000" fill-rule="evenodd" fill-opacity="0.8" stroke="none"/>
<circle clip-path="url(#clip902)" cx="2276.65" cy="339.499" r="14" fill="#000000" fill-rule="evenodd" fill-opacity="0.8" stroke="none"/>
<circle clip-path="url(#clip902)" cx="2308.91" cy="332.144" r="14" fill="#000000" fill-rule="evenodd" fill-opacity="0.8" stroke="none"/>
<circle clip-path="url(#clip902)" cx="2341.23" cy="311.545" r="14" fill="#000000" fill-rule="evenodd" fill-opacity="0.8" stroke="none"/>
<circle clip-path="url(#clip902)" cx="2373.45" cy="303.587" r="14" fill="#000000" fill-rule="evenodd" fill-opacity="0.8" stroke="none"/>
<circle clip-path="url(#clip902)" cx="2405.71" cy="291.959" r="14" fill="#000000" fill-rule="evenodd" fill-opacity="0.8" stroke="none"/>
<circle clip-path="url(#clip902)" cx="2437.97" cy="287.347" r="14" fill="#000000" fill-rule="evenodd" fill-opacity="0.8" stroke="none"/>
<circle clip-path="url(#clip902)" cx="2470.29" cy="285.911" r="14" fill="#000000" fill-rule="evenodd" fill-opacity="0.8" stroke="none"/>
<circle clip-path="url(#clip902)" cx="2502.61" cy="267.712" r="14" fill="#000000" fill-rule="evenodd" fill-opacity="0.8" stroke="none"/>
<circle clip-path="url(#clip902)" cx="2534.94" cy="240.733" r="14" fill="#000000" fill-rule="evenodd" fill-opacity="0.8" stroke="none"/>
<circle clip-path="url(#clip902)" cx="2567.29" cy="234.785" r="14" fill="#000000" fill-rule="evenodd" fill-opacity="0.8" stroke="none"/>
<circle clip-path="url(#clip902)" cx="2599.62" cy="228.49" r="14" fill="#000000" fill-rule="evenodd" fill-opacity="0.8" stroke="none"/>
<circle clip-path="url(#clip902)" cx="2632.27" cy="231.383" r="14" fill="#000000" fill-rule="evenodd" fill-opacity="0.8" stroke="none"/>
<circle clip-path="url(#clip902)" cx="2664.6" cy="223.617" r="14" fill="#000000" fill-rule="evenodd" fill-opacity="0.8" stroke="none"/>
<circle clip-path="url(#clip902)" cx="2696.92" cy="214.947" r="14" fill="#000000" fill-rule="evenodd" fill-opacity="0.8" stroke="none"/>
<circle clip-path="url(#clip902)" cx="2729.21" cy="208.866" r="14" fill="#000000" fill-rule="evenodd" fill-opacity="0.8" stroke="none"/>
<circle clip-path="url(#clip902)" cx="2761.53" cy="201.763" r="14" fill="#000000" fill-rule="evenodd" fill-opacity="0.8" stroke="none"/>
<circle clip-path="url(#clip902)" cx="2793.99" cy="189.052" r="14" fill="#000000" fill-rule="evenodd" fill-opacity="0.8" stroke="none"/>
<circle clip-path="url(#clip902)" cx="2826.28" cy="182.858" r="14" fill="#000000" fill-rule="evenodd" fill-opacity="0.8" stroke="none"/>
<circle clip-path="url(#clip902)" cx="2858.54" cy="208.238" r="14" fill="#000000" fill-rule="evenodd" fill-opacity="0.8" stroke="none"/>
<circle clip-path="url(#clip902)" cx="2890.86" cy="188.862" r="14" fill="#000000" fill-rule="evenodd" fill-opacity="0.8" stroke="none"/>
<circle clip-path="url(#clip902)" cx="2923.15" cy="192.752" r="14" fill="#000000" fill-rule="evenodd" fill-opacity="0.8" stroke="none"/>
<circle clip-path="url(#clip902)" cx="2955.5" cy="202.287" r="14" fill="#000000" fill-rule="evenodd" fill-opacity="0.8" stroke="none"/>
</svg>
