<?xml version="1.0" encoding="utf-8"?>
<svg xmlns="http://www.w3.org/2000/svg" xmlns:xlink="http://www.w3.org/1999/xlink" width="600" height="400" viewBox="0 0 2400 1600">
<defs>
  <clipPath id="clip800">
    <rect x="0" y="0" width="2400" height="1600"/>
  </clipPath>
</defs>
<path clip-path="url(#clip800)" d="
M0 1600 L2400 1600 L2400 0 L0 0  Z
  " fill="#ffffff" fill-rule="evenodd" fill-opacity="1"/>
<defs>
  <clipPath id="clip801">
    <rect x="480" y="0" width="1681" height="1600"/>
  </clipPath>
</defs>
<path clip-path="url(#clip800)" d="
M234.125 1423.18 L2352.76 1423.18 L2352.76 47.2441 L234.125 47.2441  Z
  " fill="#ffffff" fill-rule="evenodd" fill-opacity="1"/>
<defs>
  <clipPath id="clip802">
    <rect x="234" y="47" width="2120" height="1377"/>
  </clipPath>
</defs>
<polyline clip-path="url(#clip802)" style="stroke:#000000; stroke-linecap:butt; stroke-linejoin:round; stroke-width:2; stroke-opacity:0.1; fill:none" points="
  294.087,1423.18 294.087,47.2441 
  "/>
<polyline clip-path="url(#clip802)" style="stroke:#000000; stroke-linecap:butt; stroke-linejoin:round; stroke-width:2; stroke-opacity:0.1; fill:none" points="
  1293.44,1423.18 1293.44,47.2441 
  "/>
<polyline clip-path="url(#clip802)" style="stroke:#000000; stroke-linecap:butt; stroke-linejoin:round; stroke-width:2; stroke-opacity:0.1; fill:none" points="
  2292.79,1423.18 2292.79,47.2441 
  "/>
<polyline clip-path="url(#clip800)" style="stroke:#000000; stroke-linecap:butt; stroke-linejoin:round; stroke-width:4; stroke-opacity:1; fill:none" points="
  234.125,1423.18 2352.76,1423.18 
  "/>
<polyline clip-path="url(#clip800)" style="stroke:#000000; stroke-linecap:butt; stroke-linejoin:round; stroke-width:4; stroke-opacity:1; fill:none" points="
  294.087,1423.18 294.087,1406.67 
  "/>
<polyline clip-path="url(#clip800)" style="stroke:#000000; stroke-linecap:butt; stroke-linejoin:round; stroke-width:4; stroke-opacity:1; fill:none" points="
  1293.44,1423.18 1293.44,1406.67 
  "/>
<polyline clip-path="url(#clip800)" style="stroke:#000000; stroke-linecap:butt; stroke-linejoin:round; stroke-width:4; stroke-opacity:1; fill:none" points="
  2292.79,1423.18 2292.79,1406.67 
  "/>
<path clip-path="url(#clip800)" d="M284.469 1479.92 L292.108 1479.92 L292.108 1453.55 L283.797 1455.22 L283.797 1450.96 L292.061 1449.29 L296.737 1449.29 L296.737 1479.92 L304.376 1479.92 L304.376 1483.85 L284.469 1483.85 L284.469 1479.92 Z" fill="#000000" fill-rule="evenodd" fill-opacity="1" /><path clip-path="url(#clip800)" d="M1288.09 1479.92 L1304.41 1479.92 L1304.41 1483.85 L1282.47 1483.85 L1282.47 1479.92 Q1285.13 1477.16 1289.71 1472.53 Q1294.32 1467.88 1295.5 1466.54 Q1297.75 1464.01 1298.63 1462.28 Q1299.53 1460.52 1299.53 1458.83 Q1299.53 1456.07 1297.58 1454.34 Q1295.66 1452.6 1292.56 1452.6 Q1290.36 1452.6 1287.91 1453.37 Q1285.48 1454.13 1282.7 1455.68 L1282.7 1450.96 Q1285.52 1449.82 1287.98 1449.25 Q1290.43 1448.67 1292.47 1448.67 Q1297.84 1448.67 1301.03 1451.35 Q1304.23 1454.04 1304.23 1458.53 Q1304.23 1460.66 1303.42 1462.58 Q1302.63 1464.48 1300.52 1467.07 Q1299.95 1467.74 1296.84 1470.96 Q1293.74 1474.15 1288.09 1479.92 Z" fill="#000000" fill-rule="evenodd" fill-opacity="1" /><path clip-path="url(#clip800)" d="M2297.04 1465.22 Q2300.4 1465.94 2302.27 1468.2 Q2304.17 1470.47 2304.17 1473.81 Q2304.17 1478.92 2300.65 1481.72 Q2297.13 1484.52 2290.65 1484.52 Q2288.48 1484.52 2286.16 1484.08 Q2283.87 1483.67 2281.42 1482.81 L2281.42 1478.3 Q2283.36 1479.43 2285.68 1480.01 Q2287.99 1480.59 2290.51 1480.59 Q2294.91 1480.59 2297.2 1478.85 Q2299.52 1477.12 2299.52 1473.81 Q2299.52 1470.75 2297.37 1469.04 Q2295.24 1467.3 2291.42 1467.3 L2287.39 1467.3 L2287.39 1463.46 L2291.6 1463.46 Q2295.05 1463.46 2296.88 1462.09 Q2298.71 1460.7 2298.71 1458.11 Q2298.71 1455.45 2296.81 1454.04 Q2294.94 1452.6 2291.42 1452.6 Q2289.5 1452.6 2287.3 1453.02 Q2285.1 1453.44 2282.46 1454.31 L2282.46 1450.15 Q2285.12 1449.41 2287.44 1449.04 Q2289.77 1448.67 2291.83 1448.67 Q2297.16 1448.67 2300.26 1451.1 Q2303.36 1453.5 2303.36 1457.63 Q2303.36 1460.5 2301.72 1462.49 Q2300.07 1464.45 2297.04 1465.22 Z" fill="#000000" fill-rule="evenodd" fill-opacity="1" /><path clip-path="url(#clip800)" d="M1161.16 1520.52 L1167.59 1520.52 L1167.59 1568.04 L1161.16 1568.04 L1161.16 1520.52 Z" fill="#000000" fill-rule="evenodd" fill-opacity="1" /><path clip-path="url(#clip800)" d="M1185.92 1522.27 L1185.92 1532.4 L1197.99 1532.4 L1197.99 1536.95 L1185.92 1536.95 L1185.92 1556.3 Q1185.92 1560.66 1187.1 1561.9 Q1188.31 1563.14 1191.97 1563.14 L1197.99 1563.14 L1197.99 1568.04 L1191.97 1568.04 Q1185.19 1568.04 1182.61 1565.53 Q1180.04 1562.98 1180.04 1556.3 L1180.04 1536.95 L1175.74 1536.95 L1175.74 1532.4 L1180.04 1532.4 L1180.04 1522.27 L1185.92 1522.27 Z" fill="#000000" fill-rule="evenodd" fill-opacity="1" /><path clip-path="url(#clip800)" d="M1236.18 1548.76 L1236.18 1551.62 L1209.25 1551.62 Q1209.64 1557.67 1212.88 1560.85 Q1216.16 1564 1221.99 1564 Q1225.36 1564 1228.51 1563.17 Q1231.69 1562.35 1234.81 1560.69 L1234.81 1566.23 Q1231.66 1567.57 1228.35 1568.27 Q1225.04 1568.97 1221.64 1568.97 Q1213.11 1568.97 1208.11 1564 Q1203.14 1559.04 1203.14 1550.57 Q1203.14 1541.82 1207.85 1536.69 Q1212.6 1531.54 1220.62 1531.54 Q1227.81 1531.54 1231.98 1536.18 Q1236.18 1540.8 1236.18 1548.76 M1230.32 1547.04 Q1230.26 1542.23 1227.62 1539.37 Q1225.01 1536.5 1220.68 1536.5 Q1215.78 1536.5 1212.82 1539.27 Q1209.89 1542.04 1209.45 1547.07 L1230.32 1547.04 Z" fill="#000000" fill-rule="evenodd" fill-opacity="1" /><path clip-path="url(#clip800)" d="M1266.45 1537.87 Q1265.46 1537.3 1264.29 1537.04 Q1263.14 1536.76 1261.74 1536.76 Q1256.77 1536.76 1254.1 1540 Q1251.46 1543.22 1251.46 1549.27 L1251.46 1568.04 L1245.57 1568.04 L1245.57 1532.4 L1251.46 1532.4 L1251.46 1537.93 Q1253.3 1534.69 1256.26 1533.13 Q1259.23 1531.54 1263.46 1531.54 Q1264.06 1531.54 1264.79 1531.63 Q1265.53 1531.7 1266.42 1531.85 L1266.45 1537.87 Z" fill="#000000" fill-rule="evenodd" fill-opacity="1" /><path clip-path="url(#clip800)" d="M1288.79 1550.12 Q1281.7 1550.12 1278.96 1551.75 Q1276.22 1553.37 1276.22 1557.29 Q1276.22 1560.4 1278.26 1562.25 Q1280.33 1564.07 1283.86 1564.07 Q1288.73 1564.07 1291.66 1560.63 Q1294.62 1557.16 1294.62 1551.43 L1294.62 1550.12 L1288.79 1550.12 M1300.47 1547.71 L1300.47 1568.04 L1294.62 1568.04 L1294.62 1562.63 Q1292.61 1565.88 1289.62 1567.44 Q1286.63 1568.97 1282.3 1568.97 Q1276.83 1568.97 1273.58 1565.91 Q1270.36 1562.82 1270.36 1557.67 Q1270.36 1551.65 1274.38 1548.6 Q1278.42 1545.54 1286.41 1545.54 L1294.62 1545.54 L1294.62 1544.97 Q1294.62 1540.93 1291.94 1538.73 Q1289.3 1536.5 1284.5 1536.5 Q1281.44 1536.5 1278.54 1537.23 Q1275.65 1537.97 1272.97 1539.43 L1272.97 1534.02 Q1276.19 1532.78 1279.21 1532.17 Q1282.24 1531.54 1285.1 1531.54 Q1292.84 1531.54 1296.66 1535.55 Q1300.47 1539.56 1300.47 1547.71 Z" fill="#000000" fill-rule="evenodd" fill-opacity="1" /><path clip-path="url(#clip800)" d="M1318.33 1522.27 L1318.33 1532.4 L1330.39 1532.4 L1330.39 1536.95 L1318.33 1536.95 L1318.33 1556.3 Q1318.33 1560.66 1319.51 1561.9 Q1320.72 1563.14 1324.38 1563.14 L1330.39 1563.14 L1330.39 1568.04 L1324.38 1568.04 Q1317.6 1568.04 1315.02 1565.53 Q1312.44 1562.98 1312.44 1556.3 L1312.44 1536.95 L1308.15 1536.95 L1308.15 1532.4 L1312.44 1532.4 L1312.44 1522.27 L1318.33 1522.27 Z" fill="#000000" fill-rule="evenodd" fill-opacity="1" /><path clip-path="url(#clip800)" d="M1338.1 1532.4 L1343.95 1532.4 L1343.95 1568.04 L1338.1 1568.04 L1338.1 1532.4 M1338.1 1518.52 L1343.95 1518.52 L1343.95 1525.93 L1338.1 1525.93 L1338.1 1518.52 Z" fill="#000000" fill-rule="evenodd" fill-opacity="1" /><path clip-path="url(#clip800)" d="M1370.02 1536.5 Q1365.31 1536.5 1362.57 1540.19 Q1359.83 1543.85 1359.83 1550.25 Q1359.83 1556.65 1362.54 1560.34 Q1365.28 1564 1370.02 1564 Q1374.7 1564 1377.44 1560.31 Q1380.17 1556.62 1380.17 1550.25 Q1380.17 1543.92 1377.44 1540.23 Q1374.7 1536.5 1370.02 1536.5 M1370.02 1531.54 Q1377.66 1531.54 1382.02 1536.5 Q1386.38 1541.47 1386.38 1550.25 Q1386.38 1559 1382.02 1564 Q1377.66 1568.97 1370.02 1568.97 Q1362.35 1568.97 1357.99 1564 Q1353.66 1559 1353.66 1550.25 Q1353.66 1541.47 1357.99 1536.5 Q1362.35 1531.54 1370.02 1531.54 Z" fill="#000000" fill-rule="evenodd" fill-opacity="1" /><path clip-path="url(#clip800)" d="M1425.72 1546.53 L1425.72 1568.04 L1419.86 1568.04 L1419.86 1546.72 Q1419.86 1541.66 1417.89 1539.14 Q1415.92 1536.63 1411.97 1536.63 Q1407.23 1536.63 1404.49 1539.65 Q1401.75 1542.68 1401.75 1547.9 L1401.75 1568.04 L1395.86 1568.04 L1395.86 1532.4 L1401.75 1532.4 L1401.75 1537.93 Q1403.85 1534.72 1406.69 1533.13 Q1409.55 1531.54 1413.28 1531.54 Q1419.42 1531.54 1422.57 1535.36 Q1425.72 1539.14 1425.72 1546.53 Z" fill="#000000" fill-rule="evenodd" fill-opacity="1" /><polyline clip-path="url(#clip802)" style="stroke:#000000; stroke-linecap:butt; stroke-linejoin:round; stroke-width:2; stroke-opacity:0.1; fill:none" points="
  234.125,1423.18 2352.76,1423.18 
  "/>
<polyline clip-path="url(#clip802)" style="stroke:#000000; stroke-linecap:butt; stroke-linejoin:round; stroke-width:2; stroke-opacity:0.1; fill:none" points="
  234.125,1153.39 2352.76,1153.39 
  "/>
<polyline clip-path="url(#clip802)" style="stroke:#000000; stroke-linecap:butt; stroke-linejoin:round; stroke-width:2; stroke-opacity:0.1; fill:none" points="
  234.125,883.597 2352.76,883.597 
  "/>
<polyline clip-path="url(#clip802)" style="stroke:#000000; stroke-linecap:butt; stroke-linejoin:round; stroke-width:2; stroke-opacity:0.1; fill:none" points="
  234.125,613.806 2352.76,613.806 
  "/>
<polyline clip-path="url(#clip802)" style="stroke:#000000; stroke-linecap:butt; stroke-linejoin:round; stroke-width:2; stroke-opacity:0.1; fill:none" points="
  234.125,344.015 2352.76,344.015 
  "/>
<polyline clip-path="url(#clip802)" style="stroke:#000000; stroke-linecap:butt; stroke-linejoin:round; stroke-width:2; stroke-opacity:0.1; fill:none" points="
  234.125,74.2232 2352.76,74.2232 
  "/>
<polyline clip-path="url(#clip800)" style="stroke:#000000; stroke-linecap:butt; stroke-linejoin:round; stroke-width:4; stroke-opacity:1; fill:none" points="
  234.125,1423.18 234.125,47.2441 
  "/>
<polyline clip-path="url(#clip800)" style="stroke:#000000; stroke-linecap:butt; stroke-linejoin:round; stroke-width:4; stroke-opacity:1; fill:none" points="
  234.125,1423.18 259.549,1423.18 
  "/>
<polyline clip-path="url(#clip800)" style="stroke:#000000; stroke-linecap:butt; stroke-linejoin:round; stroke-width:4; stroke-opacity:1; fill:none" points="
  234.125,1153.39 259.549,1153.39 
  "/>
<polyline clip-path="url(#clip800)" style="stroke:#000000; stroke-linecap:butt; stroke-linejoin:round; stroke-width:4; stroke-opacity:1; fill:none" points="
  234.125,883.597 259.549,883.597 
  "/>
<polyline clip-path="url(#clip800)" style="stroke:#000000; stroke-linecap:butt; stroke-linejoin:round; stroke-width:4; stroke-opacity:1; fill:none" points="
  234.125,613.806 259.549,613.806 
  "/>
<polyline clip-path="url(#clip800)" style="stroke:#000000; stroke-linecap:butt; stroke-linejoin:round; stroke-width:4; stroke-opacity:1; fill:none" points="
  234.125,344.015 259.549,344.015 
  "/>
<polyline clip-path="url(#clip800)" style="stroke:#000000; stroke-linecap:butt; stroke-linejoin:round; stroke-width:4; stroke-opacity:1; fill:none" points="
  234.125,74.2232 259.549,74.2232 
  "/>
<path clip-path="url(#clip800)" d="M186.181 1408.98 Q182.57 1408.98 180.741 1412.54 Q178.936 1416.08 178.936 1423.21 Q178.936 1430.32 180.741 1433.89 Q182.57 1437.43 186.181 1437.43 Q189.815 1437.43 191.621 1433.89 Q193.45 1430.32 193.45 1423.21 Q193.45 1416.08 191.621 1412.54 Q189.815 1408.98 186.181 1408.98 M186.181 1405.27 Q191.991 1405.27 195.047 1409.88 Q198.125 1414.46 198.125 1423.21 Q198.125 1431.94 195.047 1436.55 Q191.991 1441.13 186.181 1441.13 Q180.371 1441.13 177.292 1436.55 Q174.237 1431.94 174.237 1423.21 Q174.237 1414.46 177.292 1409.88 Q180.371 1405.27 186.181 1405.27 Z" fill="#000000" fill-rule="evenodd" fill-opacity="1" /><path clip-path="url(#clip800)" d="M146.066 1136.11 L164.422 1136.11 L164.422 1140.04 L150.348 1140.04 L150.348 1148.52 Q151.366 1148.17 152.385 1148.01 Q153.403 1147.82 154.422 1147.82 Q160.209 1147.82 163.589 1150.99 Q166.968 1154.16 166.968 1159.58 Q166.968 1165.16 163.496 1168.26 Q160.024 1171.34 153.704 1171.34 Q151.528 1171.34 149.26 1170.97 Q147.015 1170.6 144.607 1169.86 L144.607 1165.16 Q146.691 1166.29 148.913 1166.85 Q151.135 1167.4 153.612 1167.4 Q157.616 1167.4 159.954 1165.3 Q162.292 1163.19 162.292 1159.58 Q162.292 1155.97 159.954 1153.86 Q157.616 1151.76 153.612 1151.76 Q151.737 1151.76 149.862 1152.17 Q148.01 1152.59 146.066 1153.47 L146.066 1136.11 Z" fill="#000000" fill-rule="evenodd" fill-opacity="1" /><path clip-path="url(#clip800)" d="M186.181 1139.19 Q182.57 1139.19 180.741 1142.75 Q178.936 1146.29 178.936 1153.42 Q178.936 1160.53 180.741 1164.09 Q182.57 1167.64 186.181 1167.64 Q189.815 1167.64 191.621 1164.09 Q193.45 1160.53 193.45 1153.42 Q193.45 1146.29 191.621 1142.75 Q189.815 1139.19 186.181 1139.19 M186.181 1135.48 Q191.991 1135.48 195.047 1140.09 Q198.125 1144.67 198.125 1153.42 Q198.125 1162.15 195.047 1166.76 Q191.991 1171.34 186.181 1171.34 Q180.371 1171.34 177.292 1166.76 Q174.237 1162.15 174.237 1153.42 Q174.237 1144.67 177.292 1140.09 Q180.371 1135.48 186.181 1135.48 Z" fill="#000000" fill-rule="evenodd" fill-opacity="1" /><path clip-path="url(#clip800)" d="M116.668 896.942 L124.306 896.942 L124.306 870.576 L115.996 872.243 L115.996 867.984 L124.26 866.317 L128.936 866.317 L128.936 896.942 L136.575 896.942 L136.575 900.877 L116.668 900.877 L116.668 896.942 Z" fill="#000000" fill-rule="evenodd" fill-opacity="1" /><path clip-path="url(#clip800)" d="M156.019 869.396 Q152.408 869.396 150.579 872.961 Q148.774 876.502 148.774 883.632 Q148.774 890.738 150.579 894.303 Q152.408 897.845 156.019 897.845 Q159.653 897.845 161.459 894.303 Q163.288 890.738 163.288 883.632 Q163.288 876.502 161.459 872.961 Q159.653 869.396 156.019 869.396 M156.019 865.692 Q161.829 865.692 164.885 870.299 Q167.964 874.882 167.964 883.632 Q167.964 892.359 164.885 896.965 Q161.829 901.548 156.019 901.548 Q150.209 901.548 147.13 896.965 Q144.075 892.359 144.075 883.632 Q144.075 874.882 147.13 870.299 Q150.209 865.692 156.019 865.692 Z" fill="#000000" fill-rule="evenodd" fill-opacity="1" /><path clip-path="url(#clip800)" d="M186.181 869.396 Q182.57 869.396 180.741 872.961 Q178.936 876.502 178.936 883.632 Q178.936 890.738 180.741 894.303 Q182.57 897.845 186.181 897.845 Q189.815 897.845 191.621 894.303 Q193.45 890.738 193.45 883.632 Q193.45 876.502 191.621 872.961 Q189.815 869.396 186.181 869.396 M186.181 865.692 Q191.991 865.692 195.047 870.299 Q198.125 874.882 198.125 883.632 Q198.125 892.359 195.047 896.965 Q191.991 901.548 186.181 901.548 Q180.371 901.548 177.292 896.965 Q174.237 892.359 174.237 883.632 Q174.237 874.882 177.292 870.299 Q180.371 865.692 186.181 865.692 Z" fill="#000000" fill-rule="evenodd" fill-opacity="1" /><path clip-path="url(#clip800)" d="M116.668 627.151 L124.306 627.151 L124.306 600.785 L115.996 602.452 L115.996 598.193 L124.26 596.526 L128.936 596.526 L128.936 627.151 L136.575 627.151 L136.575 631.086 L116.668 631.086 L116.668 627.151 Z" fill="#000000" fill-rule="evenodd" fill-opacity="1" /><path clip-path="url(#clip800)" d="M146.066 596.526 L164.422 596.526 L164.422 600.461 L150.348 600.461 L150.348 608.933 Q151.366 608.586 152.385 608.424 Q153.403 608.239 154.422 608.239 Q160.209 608.239 163.589 611.41 Q166.968 614.581 166.968 619.998 Q166.968 625.577 163.496 628.678 Q160.024 631.757 153.704 631.757 Q151.528 631.757 149.26 631.387 Q147.015 631.016 144.607 630.276 L144.607 625.577 Q146.691 626.711 148.913 627.266 Q151.135 627.822 153.612 627.822 Q157.616 627.822 159.954 625.716 Q162.292 623.609 162.292 619.998 Q162.292 616.387 159.954 614.28 Q157.616 612.174 153.612 612.174 Q151.737 612.174 149.862 612.591 Q148.01 613.007 146.066 613.887 L146.066 596.526 Z" fill="#000000" fill-rule="evenodd" fill-opacity="1" /><path clip-path="url(#clip800)" d="M186.181 599.605 Q182.57 599.605 180.741 603.169 Q178.936 606.711 178.936 613.841 Q178.936 620.947 180.741 624.512 Q182.57 628.053 186.181 628.053 Q189.815 628.053 191.621 624.512 Q193.45 620.947 193.45 613.841 Q193.45 606.711 191.621 603.169 Q189.815 599.605 186.181 599.605 M186.181 595.901 Q191.991 595.901 195.047 600.507 Q198.125 605.091 198.125 613.841 Q198.125 622.567 195.047 627.174 Q191.991 631.757 186.181 631.757 Q180.371 631.757 177.292 627.174 Q174.237 622.567 174.237 613.841 Q174.237 605.091 177.292 600.507 Q180.371 595.901 186.181 595.901 Z" fill="#000000" fill-rule="evenodd" fill-opacity="1" /><path clip-path="url(#clip800)" d="M119.885 357.359 L136.204 357.359 L136.204 361.295 L114.26 361.295 L114.26 357.359 Q116.922 354.605 121.505 349.975 Q126.112 345.322 127.292 343.98 Q129.538 341.457 130.417 339.721 Q131.32 337.961 131.32 336.272 Q131.32 333.517 129.376 331.781 Q127.455 330.045 124.353 330.045 Q122.154 330.045 119.7 330.809 Q117.269 331.572 114.492 333.123 L114.492 328.401 Q117.316 327.267 119.769 326.688 Q122.223 326.11 124.26 326.11 Q129.63 326.11 132.825 328.795 Q136.019 331.48 136.019 335.971 Q136.019 338.1 135.209 340.022 Q134.422 341.92 132.316 344.512 Q131.737 345.184 128.635 348.401 Q125.533 351.596 119.885 357.359 Z" fill="#000000" fill-rule="evenodd" fill-opacity="1" /><path clip-path="url(#clip800)" d="M156.019 329.813 Q152.408 329.813 150.579 333.378 Q148.774 336.92 148.774 344.049 Q148.774 351.156 150.579 354.721 Q152.408 358.262 156.019 358.262 Q159.653 358.262 161.459 354.721 Q163.288 351.156 163.288 344.049 Q163.288 336.92 161.459 333.378 Q159.653 329.813 156.019 329.813 M156.019 326.11 Q161.829 326.11 164.885 330.716 Q167.964 335.299 167.964 344.049 Q167.964 352.776 164.885 357.383 Q161.829 361.966 156.019 361.966 Q150.209 361.966 147.13 357.383 Q144.075 352.776 144.075 344.049 Q144.075 335.299 147.13 330.716 Q150.209 326.11 156.019 326.11 Z" fill="#000000" fill-rule="evenodd" fill-opacity="1" /><path clip-path="url(#clip800)" d="M186.181 329.813 Q182.57 329.813 180.741 333.378 Q178.936 336.92 178.936 344.049 Q178.936 351.156 180.741 354.721 Q182.57 358.262 186.181 358.262 Q189.815 358.262 191.621 354.721 Q193.45 351.156 193.45 344.049 Q193.45 336.92 191.621 333.378 Q189.815 329.813 186.181 329.813 M186.181 326.11 Q191.991 326.11 195.047 330.716 Q198.125 335.299 198.125 344.049 Q198.125 352.776 195.047 357.383 Q191.991 361.966 186.181 361.966 Q180.371 361.966 177.292 357.383 Q174.237 352.776 174.237 344.049 Q174.237 335.299 177.292 330.716 Q180.371 326.11 186.181 326.11 Z" fill="#000000" fill-rule="evenodd" fill-opacity="1" /><path clip-path="url(#clip800)" d="M119.885 87.5681 L136.204 87.5681 L136.204 91.5032 L114.26 91.5032 L114.26 87.5681 Q116.922 84.8134 121.505 80.1838 Q126.112 75.5311 127.292 74.1885 Q129.538 71.6654 130.417 69.9293 Q131.32 68.17 131.32 66.4802 Q131.32 63.7256 129.376 61.9895 Q127.455 60.2534 124.353 60.2534 Q122.154 60.2534 119.7 61.0173 Q117.269 61.7812 114.492 63.3321 L114.492 58.6099 Q117.316 57.4756 119.769 56.8969 Q122.223 56.3182 124.26 56.3182 Q129.63 56.3182 132.825 59.0034 Q136.019 61.6886 136.019 66.1793 Q136.019 68.3089 135.209 70.2302 Q134.422 72.1283 132.316 74.7209 Q131.737 75.3922 128.635 78.6098 Q125.533 81.8042 119.885 87.5681 Z" fill="#000000" fill-rule="evenodd" fill-opacity="1" /><path clip-path="url(#clip800)" d="M146.066 56.9432 L164.422 56.9432 L164.422 60.8784 L150.348 60.8784 L150.348 69.3506 Q151.366 69.0033 152.385 68.8413 Q153.403 68.6561 154.422 68.6561 Q160.209 68.6561 163.589 71.8274 Q166.968 74.9987 166.968 80.4153 Q166.968 85.994 163.496 89.0958 Q160.024 92.1745 153.704 92.1745 Q151.528 92.1745 149.26 91.8042 Q147.015 91.4338 144.607 90.693 L144.607 85.994 Q146.691 87.1283 148.913 87.6838 Q151.135 88.2394 153.612 88.2394 Q157.616 88.2394 159.954 86.1329 Q162.292 84.0264 162.292 80.4153 Q162.292 76.8042 159.954 74.6978 Q157.616 72.5913 153.612 72.5913 Q151.737 72.5913 149.862 73.008 Q148.01 73.4246 146.066 74.3042 L146.066 56.9432 Z" fill="#000000" fill-rule="evenodd" fill-opacity="1" /><path clip-path="url(#clip800)" d="M186.181 60.0219 Q182.57 60.0219 180.741 63.5867 Q178.936 67.1284 178.936 74.2579 Q178.936 81.3644 180.741 84.9292 Q182.57 88.4708 186.181 88.4708 Q189.815 88.4708 191.621 84.9292 Q193.45 81.3644 193.45 74.2579 Q193.45 67.1284 191.621 63.5867 Q189.815 60.0219 186.181 60.0219 M186.181 56.3182 Q191.991 56.3182 195.047 60.9247 Q198.125 65.508 198.125 74.2579 Q198.125 82.9848 195.047 87.5912 Q191.991 92.1745 186.181 92.1745 Q180.371 92.1745 177.292 87.5912 Q174.237 82.9848 174.237 74.2579 Q174.237 65.508 177.292 60.9247 Q180.371 56.3182 186.181 56.3182 Z" fill="#000000" fill-rule="evenodd" fill-opacity="1" /><path clip-path="url(#clip800)" d="M16.4842 1098.36 L16.4842 1091.93 L35.9632 1091.93 L35.9632 1068.57 L16.4842 1068.57 L16.4842 1062.14 L64.0042 1062.14 L64.0042 1068.57 L41.3741 1068.57 L41.3741 1091.93 L64.0042 1091.93 L64.0042 1098.36 L16.4842 1098.36 Z" fill="#000000" fill-rule="evenodd" fill-opacity="1" /><path clip-path="url(#clip800)" d="M32.4621 1035.78 Q32.4621 1040.5 36.1542 1043.23 Q39.8145 1045.97 46.212 1045.97 Q52.6095 1045.97 56.3017 1043.26 Q59.9619 1040.53 59.9619 1035.78 Q59.9619 1031.11 56.2698 1028.37 Q52.5777 1025.63 46.212 1025.63 Q39.8781 1025.63 36.186 1028.37 Q32.4621 1031.11 32.4621 1035.78 M27.4968 1035.78 Q27.4968 1028.15 32.4621 1023.79 Q37.4273 1019.42 46.212 1019.42 Q54.9649 1019.42 59.9619 1023.79 Q64.9272 1028.15 64.9272 1035.78 Q64.9272 1043.46 59.9619 1047.82 Q54.9649 1052.14 46.212 1052.14 Q37.4273 1052.14 32.4621 1047.82 Q27.4968 1043.46 27.4968 1035.78 Z" fill="#000000" fill-rule="evenodd" fill-opacity="1" /><path clip-path="url(#clip800)" d="M35.1993 981.963 Q31.2526 979.767 29.3747 976.711 Q27.4968 973.655 27.4968 969.518 Q27.4968 963.948 31.4117 960.924 Q35.2948 957.9 42.4881 957.9 L64.0042 957.9 L64.0042 963.789 L42.679 963.789 Q37.5546 963.789 35.072 965.603 Q32.5894 967.417 32.5894 971.141 Q32.5894 975.692 35.6131 978.334 Q38.6368 980.976 43.8567 980.976 L64.0042 980.976 L64.0042 986.864 L42.679 986.864 Q37.5228 986.864 35.072 988.678 Q32.5894 990.493 32.5894 994.28 Q32.5894 998.768 35.6449 1001.41 Q38.6686 1004.05 43.8567 1004.05 L64.0042 1004.05 L64.0042 1009.94 L28.3562 1009.94 L28.3562 1004.05 L33.8944 1004.05 Q30.616 1002.05 29.0564 999.246 Q27.4968 996.445 27.4968 992.593 Q27.4968 988.71 29.4702 986.005 Q31.4436 983.268 35.1993 981.963 Z" fill="#000000" fill-rule="evenodd" fill-opacity="1" /><path clip-path="url(#clip800)" d="M44.7161 915.727 L47.5806 915.727 L47.5806 942.654 Q53.6281 942.272 56.8109 939.026 Q59.9619 935.748 59.9619 929.923 Q59.9619 926.549 59.1344 923.398 Q58.3069 920.215 56.6518 917.096 L62.1899 917.096 Q63.5267 920.247 64.227 923.557 Q64.9272 926.867 64.9272 930.273 Q64.9272 938.803 59.9619 943.8 Q54.9967 948.766 46.5303 948.766 Q37.7774 948.766 32.6531 944.055 Q27.4968 939.312 27.4968 931.292 Q27.4968 924.098 32.1438 919.929 Q36.7589 915.727 44.7161 915.727 M42.9973 921.584 Q38.1912 921.648 35.3266 924.289 Q32.4621 926.899 32.4621 931.228 Q32.4621 936.13 35.2312 939.09 Q38.0002 942.018 43.0292 942.463 L42.9973 921.584 Z" fill="#000000" fill-rule="evenodd" fill-opacity="1" /><path clip-path="url(#clip800)" d="M14.479 906.115 L14.479 900.259 L64.0042 900.259 L64.0042 906.115 L14.479 906.115 Z" fill="#000000" fill-rule="evenodd" fill-opacity="1" /><path clip-path="url(#clip800)" d="M46.0847 871.804 Q46.0847 878.902 47.7079 881.639 Q49.3312 884.376 53.2461 884.376 Q56.3653 884.376 58.2114 882.339 Q60.0256 880.271 60.0256 876.738 Q60.0256 871.868 56.5881 868.94 Q53.1188 865.979 47.3897 865.979 L46.0847 865.979 L46.0847 871.804 M43.6657 860.123 L64.0042 860.123 L64.0042 865.979 L58.5933 865.979 Q61.8398 867.985 63.3994 870.977 Q64.9272 873.968 64.9272 878.297 Q64.9272 883.772 61.8716 887.018 Q58.7843 890.233 53.6281 890.233 Q47.6125 890.233 44.5569 886.222 Q41.5014 882.18 41.5014 874.191 L41.5014 865.979 L40.9285 865.979 Q36.8862 865.979 34.6901 868.653 Q32.4621 871.295 32.4621 876.101 Q32.4621 879.157 33.1941 882.053 Q33.9262 884.949 35.3903 887.623 L29.9795 887.623 Q28.7381 884.408 28.1334 881.385 Q27.4968 878.361 27.4968 875.496 Q27.4968 867.762 31.5072 863.942 Q35.5176 860.123 43.6657 860.123 Z" fill="#000000" fill-rule="evenodd" fill-opacity="1" /><path clip-path="url(#clip800)" d="M42.4881 818.428 L64.0042 818.428 L64.0042 824.284 L42.679 824.284 Q37.6183 824.284 35.1038 826.257 Q32.5894 828.231 32.5894 832.178 Q32.5894 836.92 35.6131 839.657 Q38.6368 842.395 43.8567 842.395 L64.0042 842.395 L64.0042 848.283 L28.3562 848.283 L28.3562 842.395 L33.8944 842.395 Q30.6797 840.294 29.0883 837.461 Q27.4968 834.597 27.4968 830.873 Q27.4968 824.73 31.3163 821.579 Q35.1038 818.428 42.4881 818.428 Z" fill="#000000" fill-rule="evenodd" fill-opacity="1" /><path clip-path="url(#clip800)" d="M33.7671 783.289 L14.479 783.289 L14.479 777.433 L64.0042 777.433 L64.0042 783.289 L58.657 783.289 Q61.8398 785.135 63.3994 787.968 Q64.9272 790.769 64.9272 794.715 Q64.9272 801.177 59.771 805.251 Q54.6147 809.293 46.212 809.293 Q37.8093 809.293 32.6531 805.251 Q27.4968 801.177 27.4968 794.715 Q27.4968 790.769 29.0564 787.968 Q30.5842 785.135 33.7671 783.289 M46.212 803.245 Q52.6732 803.245 56.3653 800.604 Q60.0256 797.93 60.0256 793.283 Q60.0256 788.636 56.3653 785.963 Q52.6732 783.289 46.212 783.289 Q39.7508 783.289 36.0905 785.963 Q32.3984 788.636 32.3984 793.283 Q32.3984 797.93 36.0905 800.604 Q39.7508 803.245 46.212 803.245 Z" fill="#000000" fill-rule="evenodd" fill-opacity="1" /><path clip-path="url(#clip800)" d="M42.4881 715.017 L64.0042 715.017 L64.0042 720.873 L42.679 720.873 Q37.6183 720.873 35.1038 722.847 Q32.5894 724.82 32.5894 728.767 Q32.5894 733.509 35.6131 736.246 Q38.6368 738.984 43.8567 738.984 L64.0042 738.984 L64.0042 744.872 L14.479 744.872 L14.479 738.984 L33.8944 738.984 Q30.6797 736.883 29.0883 734.05 Q27.4968 731.186 27.4968 727.462 Q27.4968 721.319 31.3163 718.168 Q35.1038 715.017 42.4881 715.017 Z" fill="#000000" fill-rule="evenodd" fill-opacity="1" /><path clip-path="url(#clip800)" d="M44.7161 672.844 L47.5806 672.844 L47.5806 699.771 Q53.6281 699.389 56.8109 696.142 Q59.9619 692.864 59.9619 687.039 Q59.9619 683.666 59.1344 680.515 Q58.3069 677.332 56.6518 674.213 L62.1899 674.213 Q63.5267 677.364 64.227 680.674 Q64.9272 683.984 64.9272 687.39 Q64.9272 695.92 59.9619 700.917 Q54.9967 705.882 46.5303 705.882 Q37.7774 705.882 32.6531 701.171 Q27.4968 696.429 27.4968 688.408 Q27.4968 681.215 32.1438 677.045 Q36.7589 672.844 44.7161 672.844 M42.9973 678.7 Q38.1912 678.764 35.3266 681.406 Q32.4621 684.016 32.4621 688.344 Q32.4621 693.246 35.2312 696.206 Q38.0002 699.134 43.0292 699.58 L42.9973 678.7 Z" fill="#000000" fill-rule="evenodd" fill-opacity="1" /><path clip-path="url(#clip800)" d="M28.3562 663.232 L28.3562 657.375 L64.0042 657.375 L64.0042 663.232 L28.3562 663.232 M14.479 663.232 L14.479 657.375 L21.895 657.375 L21.895 663.232 L14.479 663.232 Z" fill="#000000" fill-rule="evenodd" fill-opacity="1" /><path clip-path="url(#clip800)" d="M45.7664 621.664 Q39.4007 621.664 35.8996 624.305 Q32.3984 626.915 32.3984 631.658 Q32.3984 636.368 35.8996 639.01 Q39.4007 641.62 45.7664 641.62 Q52.1003 641.62 55.6014 639.01 Q59.1026 636.368 59.1026 631.658 Q59.1026 626.915 55.6014 624.305 Q52.1003 621.664 45.7664 621.664 M59.58 615.807 Q68.683 615.807 73.1071 619.849 Q77.5631 623.892 77.5631 632.231 Q77.5631 635.318 77.0857 638.055 Q76.6401 640.793 75.6852 643.371 L69.9879 643.371 Q71.3884 640.793 72.0568 638.278 Q72.7252 635.764 72.7252 633.154 Q72.7252 627.393 69.7015 624.528 Q66.7096 621.664 60.6303 621.664 L57.7339 621.664 Q60.885 623.478 62.4446 626.311 Q64.0042 629.143 64.0042 633.09 Q64.0042 639.647 59.0071 643.657 Q54.01 647.668 45.7664 647.668 Q37.491 647.668 32.4939 643.657 Q27.4968 639.647 27.4968 633.09 Q27.4968 629.143 29.0564 626.311 Q30.616 623.478 33.7671 621.664 L28.3562 621.664 L28.3562 615.807 L59.58 615.807 Z" fill="#000000" fill-rule="evenodd" fill-opacity="1" /><path clip-path="url(#clip800)" d="M42.4881 574.112 L64.0042 574.112 L64.0042 579.968 L42.679 579.968 Q37.6183 579.968 35.1038 581.942 Q32.5894 583.915 32.5894 587.862 Q32.5894 592.604 35.6131 595.341 Q38.6368 598.079 43.8567 598.079 L64.0042 598.079 L64.0042 603.967 L14.479 603.967 L14.479 598.079 L33.8944 598.079 Q30.6797 595.978 29.0883 593.145 Q27.4968 590.281 27.4968 586.557 Q27.4968 580.414 31.3163 577.263 Q35.1038 574.112 42.4881 574.112 Z" fill="#000000" fill-rule="evenodd" fill-opacity="1" /><path clip-path="url(#clip800)" d="M18.2347 556.638 L28.3562 556.638 L28.3562 544.575 L32.9077 544.575 L32.9077 556.638 L52.2594 556.638 Q56.6199 556.638 57.8613 555.46 Q59.1026 554.251 59.1026 550.591 L59.1026 544.575 L64.0042 544.575 L64.0042 550.591 Q64.0042 557.37 61.4897 559.948 Q58.9434 562.526 52.2594 562.526 L32.9077 562.526 L32.9077 566.823 L28.3562 566.823 L28.3562 562.526 L18.2347 562.526 L18.2347 556.638 Z" fill="#000000" fill-rule="evenodd" fill-opacity="1" /><path clip-path="url(#clip800)" d="M14.5426 502.084 Q21.8632 506.349 29.0246 508.418 Q36.186 510.487 43.5384 510.487 Q50.8908 510.487 58.1159 508.418 Q65.3091 506.317 72.5979 502.084 L72.5979 507.176 Q65.1182 511.951 57.8931 514.338 Q50.668 516.693 43.5384 516.693 Q36.4406 516.693 29.2474 514.338 Q22.0542 511.983 14.5426 507.176 L14.5426 502.084 Z" fill="#000000" fill-rule="evenodd" fill-opacity="1" /><path clip-path="url(#clip800)" d="M77.5631 491.326 L28.3562 491.326 L28.3562 485.469 L50.5089 485.469 Q55.124 485.469 57.4793 483.273 Q59.8346 481.077 59.8346 476.78 Q59.8346 472.07 57.161 469.714 Q54.4874 467.327 49.1402 467.327 L28.3562 467.327 L28.3562 461.471 L55.7924 461.471 Q57.7021 461.471 58.6251 460.93 Q59.5163 460.357 59.5163 459.179 Q59.5163 458.893 59.3572 458.383 Q59.1662 457.874 58.7843 456.983 L63.4949 456.983 Q64.227 458.288 64.5771 459.465 Q64.9272 460.611 64.9272 461.725 Q64.9272 463.921 63.6859 465.226 Q62.4446 466.531 59.8983 467.009 Q62.4127 468.6 63.6859 470.924 Q64.9272 473.215 64.9272 476.335 Q64.9272 479.581 63.6859 481.873 Q62.4446 484.133 59.9619 485.469 L77.5631 485.469 L77.5631 491.326 Z" fill="#000000" fill-rule="evenodd" fill-opacity="1" /><path clip-path="url(#clip800)" d="M35.1993 421.494 Q31.2526 419.298 29.3747 416.242 Q27.4968 413.187 27.4968 409.049 Q27.4968 403.479 31.4117 400.455 Q35.2948 397.432 42.4881 397.432 L64.0042 397.432 L64.0042 403.32 L42.679 403.32 Q37.5546 403.32 35.072 405.134 Q32.5894 406.948 32.5894 410.672 Q32.5894 415.224 35.6131 417.866 Q38.6368 420.507 43.8567 420.507 L64.0042 420.507 L64.0042 426.396 L42.679 426.396 Q37.5228 426.396 35.072 428.21 Q32.5894 430.024 32.5894 433.812 Q32.5894 438.299 35.6449 440.941 Q38.6686 443.583 43.8567 443.583 L64.0042 443.583 L64.0042 449.471 L28.3562 449.471 L28.3562 443.583 L33.8944 443.583 Q30.616 441.578 29.0564 438.777 Q27.4968 435.976 27.4968 432.125 Q27.4968 428.242 29.4702 425.536 Q31.4436 422.799 35.1993 421.494 Z" fill="#000000" fill-rule="evenodd" fill-opacity="1" /><path clip-path="url(#clip800)" d="M14.5426 386.674 L14.5426 381.581 Q22.0542 376.807 29.2474 374.451 Q36.4406 372.064 43.5384 372.064 Q50.668 372.064 57.8931 374.451 Q65.1182 376.807 72.5979 381.581 L72.5979 386.674 Q65.3091 382.44 58.1159 380.372 Q50.8908 378.271 43.5384 378.271 Q36.186 378.271 29.0246 380.372 Q21.8632 382.44 14.5426 386.674 Z" fill="#000000" fill-rule="evenodd" fill-opacity="1" /><polyline clip-path="url(#clip802)" style="stroke:#009af9; stroke-linecap:butt; stroke-linejoin:round; stroke-width:4; stroke-opacity:1; fill:none" points="
  294.087,551.754 1293.44,868.111 2292.79,831.689 
  "/>
<circle clip-path="url(#clip802)" cx="294.087" cy="551.754" r="14" fill="#009af9" fill-rule="evenodd" fill-opacity="1" stroke="#000000" stroke-opacity="1" stroke-width="3.2"/>
<circle clip-path="url(#clip802)" cx="1293.44" cy="868.111" r="14" fill="#009af9" fill-rule="evenodd" fill-opacity="1" stroke="#000000" stroke-opacity="1" stroke-width="3.2"/>
<circle clip-path="url(#clip802)" cx="2292.79" cy="831.689" r="14" fill="#009af9" fill-rule="evenodd" fill-opacity="1" stroke="#000000" stroke-opacity="1" stroke-width="3.2"/>
<polyline clip-path="url(#clip802)" style="stroke:#e26f46; stroke-linecap:butt; stroke-linejoin:round; stroke-width:4; stroke-opacity:1; fill:none" points="
  294.087,449.989 1293.44,924.12 2292.79,922.177 
  "/>
<circle clip-path="url(#clip802)" cx="294.087" cy="449.989" r="14" fill="#e26f46" fill-rule="evenodd" fill-opacity="1" stroke="#000000" stroke-opacity="1" stroke-width="3.2"/>
<circle clip-path="url(#clip802)" cx="1293.44" cy="924.12" r="14" fill="#e26f46" fill-rule="evenodd" fill-opacity="1" stroke="#000000" stroke-opacity="1" stroke-width="3.2"/>
<circle clip-path="url(#clip802)" cx="2292.79" cy="922.177" r="14" fill="#e26f46" fill-rule="evenodd" fill-opacity="1" stroke="#000000" stroke-opacity="1" stroke-width="3.2"/>
<polyline clip-path="url(#clip802)" style="stroke:#3da44d; stroke-linecap:butt; stroke-linejoin:round; stroke-width:4; stroke-opacity:1; fill:none" points="
  294.087,433.046 1293.44,898.921 2292.79,733.054 
  "/>
<circle clip-path="url(#clip802)" cx="294.087" cy="433.046" r="14" fill="#3da44d" fill-rule="evenodd" fill-opacity="1" stroke="#000000" stroke-opacity="1" stroke-width="3.2"/>
<circle clip-path="url(#clip802)" cx="1293.44" cy="898.921" r="14" fill="#3da44d" fill-rule="evenodd" fill-opacity="1" stroke="#000000" stroke-opacity="1" stroke-width="3.2"/>
<circle clip-path="url(#clip802)" cx="2292.79" cy="733.054" r="14" fill="#3da44d" fill-rule="evenodd" fill-opacity="1" stroke="#000000" stroke-opacity="1" stroke-width="3.2"/>
<polyline clip-path="url(#clip802)" style="stroke:#c271d2; stroke-linecap:butt; stroke-linejoin:round; stroke-width:4; stroke-opacity:1; fill:none" points="
  294.087,166.977 1293.44,874.964 2292.79,1026.21 
  "/>
<circle clip-path="url(#clip802)" cx="294.087" cy="166.977" r="14" fill="#c271d2" fill-rule="evenodd" fill-opacity="1" stroke="#000000" stroke-opacity="1" stroke-width="3.2"/>
<circle clip-path="url(#clip802)" cx="1293.44" cy="874.964" r="14" fill="#c271d2" fill-rule="evenodd" fill-opacity="1" stroke="#000000" stroke-opacity="1" stroke-width="3.2"/>
<circle clip-path="url(#clip802)" cx="2292.79" cy="1026.21" r="14" fill="#c271d2" fill-rule="evenodd" fill-opacity="1" stroke="#000000" stroke-opacity="1" stroke-width="3.2"/>
<polyline clip-path="url(#clip802)" style="stroke:#ac8d18; stroke-linecap:butt; stroke-linejoin:round; stroke-width:4; stroke-opacity:1; fill:none" points="
  294.087,523.156 1293.44,994.697 2292.79,1098.73 
  "/>
<circle clip-path="url(#clip802)" cx="294.087" cy="523.156" r="14" fill="#ac8d18" fill-rule="evenodd" fill-opacity="1" stroke="#000000" stroke-opacity="1" stroke-width="3.2"/>
<circle clip-path="url(#clip802)" cx="1293.44" cy="994.697" r="14" fill="#ac8d18" fill-rule="evenodd" fill-opacity="1" stroke="#000000" stroke-opacity="1" stroke-width="3.2"/>
<circle clip-path="url(#clip802)" cx="2292.79" cy="1098.73" r="14" fill="#ac8d18" fill-rule="evenodd" fill-opacity="1" stroke="#000000" stroke-opacity="1" stroke-width="3.2"/>
<polyline clip-path="url(#clip802)" style="stroke:#00a9ad; stroke-linecap:butt; stroke-linejoin:round; stroke-width:4; stroke-opacity:1; fill:none" points="
  294.087,84.2595 1293.44,973.276 
  "/>
<circle clip-path="url(#clip802)" cx="294.087" cy="84.2595" r="14" fill="#00a9ad" fill-rule="evenodd" fill-opacity="1" stroke="#000000" stroke-opacity="1" stroke-width="3.2"/>
<circle clip-path="url(#clip802)" cx="1293.44" cy="973.276" r="14" fill="#00a9ad" fill-rule="evenodd" fill-opacity="1" stroke="#000000" stroke-opacity="1" stroke-width="3.2"/>
<polyline clip-path="url(#clip802)" style="stroke:#ed5d92; stroke-linecap:butt; stroke-linejoin:round; stroke-width:4; stroke-opacity:1; fill:none" points="
  294.087,337.647 1293.44,840.754 
  "/>
<circle clip-path="url(#clip802)" cx="294.087" cy="337.647" r="14" fill="#ed5d92" fill-rule="evenodd" fill-opacity="1" stroke="#000000" stroke-opacity="1" stroke-width="3.2"/>
<circle clip-path="url(#clip802)" cx="1293.44" cy="840.754" r="14" fill="#ed5d92" fill-rule="evenodd" fill-opacity="1" stroke="#000000" stroke-opacity="1" stroke-width="3.2"/>
<polyline clip-path="url(#clip802)" style="stroke:#c68125; stroke-linecap:butt; stroke-linejoin:round; stroke-width:4; stroke-opacity:1; fill:none" points="
  294.087,431.049 1293.44,972.466 2292.79,983.906 
  "/>
<circle clip-path="url(#clip802)" cx="294.087" cy="431.049" r="14" fill="#c68125" fill-rule="evenodd" fill-opacity="1" stroke="#000000" stroke-opacity="1" stroke-width="3.2"/>
<circle clip-path="url(#clip802)" cx="1293.44" cy="972.466" r="14" fill="#c68125" fill-rule="evenodd" fill-opacity="1" stroke="#000000" stroke-opacity="1" stroke-width="3.2"/>
<circle clip-path="url(#clip802)" cx="2292.79" cy="983.906" r="14" fill="#c68125" fill-rule="evenodd" fill-opacity="1" stroke="#000000" stroke-opacity="1" stroke-width="3.2"/>
<polyline clip-path="url(#clip802)" style="stroke:#00a98d; stroke-linecap:butt; stroke-linejoin:round; stroke-width:4; stroke-opacity:1; fill:none" points="
  294.087,550.675 1293.44,934.318 2292.79,1070.99 
  "/>
<circle clip-path="url(#clip802)" cx="294.087" cy="550.675" r="14" fill="#00a98d" fill-rule="evenodd" fill-opacity="1" stroke="#000000" stroke-opacity="1" stroke-width="3.2"/>
<circle clip-path="url(#clip802)" cx="1293.44" cy="934.318" r="14" fill="#00a98d" fill-rule="evenodd" fill-opacity="1" stroke="#000000" stroke-opacity="1" stroke-width="3.2"/>
<circle clip-path="url(#clip802)" cx="2292.79" cy="1070.99" r="14" fill="#00a98d" fill-rule="evenodd" fill-opacity="1" stroke="#000000" stroke-opacity="1" stroke-width="3.2"/>
</svg>
