<?xml version="1.0" encoding="utf-8"?>
<svg xmlns="http://www.w3.org/2000/svg" xmlns:xlink="http://www.w3.org/1999/xlink" width="500" height="400" viewBox="0 0 2000 1600">
<defs>
  <clipPath id="clip300">
    <rect x="0" y="0" width="2000" height="1600"/>
  </clipPath>
</defs>
<path clip-path="url(#clip300)" d="
M0 1600 L2000 1600 L2000 0 L0 0  Z
  " fill="#ffffff" fill-rule="evenodd" fill-opacity="1"/>
<defs>
  <clipPath id="clip301">
    <rect x="400" y="0" width="1401" height="1401"/>
  </clipPath>
</defs>
<path clip-path="url(#clip300)" d="
M240.787 1406.76 L1952.76 1406.76 L1952.76 47.2441 L240.787 47.2441  Z
  " fill="#ffffff" fill-rule="evenodd" fill-opacity="1"/>
<defs>
  <clipPath id="clip302">
    <rect x="240" y="47" width="1713" height="1361"/>
  </clipPath>
</defs>
<polyline clip-path="url(#clip300)" style="stroke:#000000; stroke-linecap:butt; stroke-linejoin:round; stroke-width:4; stroke-opacity:1; fill:none" points="
  240.787,1406.76 1952.76,1406.76 
  "/>
<polyline clip-path="url(#clip300)" style="stroke:#000000; stroke-linecap:butt; stroke-linejoin:round; stroke-width:4; stroke-opacity:1; fill:none" points="
  289.239,1406.76 289.239,1387.87 
  "/>
<polyline clip-path="url(#clip300)" style="stroke:#000000; stroke-linecap:butt; stroke-linejoin:round; stroke-width:4; stroke-opacity:1; fill:none" points="
  693.005,1406.76 693.005,1387.87 
  "/>
<polyline clip-path="url(#clip300)" style="stroke:#000000; stroke-linecap:butt; stroke-linejoin:round; stroke-width:4; stroke-opacity:1; fill:none" points="
  1096.77,1406.76 1096.77,1387.87 
  "/>
<polyline clip-path="url(#clip300)" style="stroke:#000000; stroke-linecap:butt; stroke-linejoin:round; stroke-width:4; stroke-opacity:1; fill:none" points="
  1500.54,1406.76 1500.54,1387.87 
  "/>
<polyline clip-path="url(#clip300)" style="stroke:#000000; stroke-linecap:butt; stroke-linejoin:round; stroke-width:4; stroke-opacity:1; fill:none" points="
  1904.3,1406.76 1904.3,1387.87 
  "/>
<path clip-path="url(#clip300)" d="M289.239 1434.48 Q285.628 1434.48 283.799 1438.05 Q281.993 1441.59 281.993 1448.72 Q281.993 1455.83 283.799 1459.39 Q285.628 1462.93 289.239 1462.93 Q292.873 1462.93 294.679 1459.39 Q296.507 1455.83 296.507 1448.72 Q296.507 1441.59 294.679 1438.05 Q292.873 1434.48 289.239 1434.48 M289.239 1430.78 Q295.049 1430.78 298.104 1435.39 Q301.183 1439.97 301.183 1448.72 Q301.183 1457.45 298.104 1462.05 Q295.049 1466.64 289.239 1466.64 Q283.429 1466.64 280.35 1462.05 Q277.294 1457.45 277.294 1448.72 Q277.294 1439.97 280.35 1435.39 Q283.429 1430.78 289.239 1430.78 Z" fill="#000000" fill-rule="evenodd" fill-opacity="1" /><path clip-path="url(#clip300)" d="M672.276 1462.03 L688.595 1462.03 L688.595 1465.96 L666.651 1465.96 L666.651 1462.03 Q669.313 1459.27 673.896 1454.64 Q678.503 1449.99 679.683 1448.65 Q681.929 1446.13 682.808 1444.39 Q683.711 1442.63 683.711 1440.94 Q683.711 1438.19 681.767 1436.45 Q679.845 1434.71 676.744 1434.71 Q674.545 1434.71 672.091 1435.48 Q669.66 1436.24 666.883 1437.79 L666.883 1433.07 Q669.707 1431.94 672.16 1431.36 Q674.614 1430.78 676.651 1430.78 Q682.021 1430.78 685.216 1433.46 Q688.41 1436.15 688.41 1440.64 Q688.41 1442.77 687.6 1444.69 Q686.813 1446.59 684.707 1449.18 Q684.128 1449.85 681.026 1453.07 Q677.924 1456.26 672.276 1462.03 Z" fill="#000000" fill-rule="evenodd" fill-opacity="1" /><path clip-path="url(#clip300)" d="M698.456 1431.4 L716.813 1431.4 L716.813 1435.34 L702.739 1435.34 L702.739 1443.81 Q703.757 1443.46 704.776 1443.3 Q705.794 1443.12 706.813 1443.12 Q712.6 1443.12 715.98 1446.29 Q719.359 1449.46 719.359 1454.88 Q719.359 1460.45 715.887 1463.56 Q712.415 1466.64 706.095 1466.64 Q703.919 1466.64 701.651 1466.26 Q699.406 1465.89 696.998 1465.15 L696.998 1460.45 Q699.081 1461.59 701.304 1462.14 Q703.526 1462.7 706.003 1462.7 Q710.007 1462.7 712.345 1460.59 Q714.683 1458.49 714.683 1454.88 Q714.683 1451.26 712.345 1449.16 Q710.007 1447.05 706.003 1447.05 Q704.128 1447.05 702.253 1447.47 Q700.401 1447.89 698.456 1448.76 L698.456 1431.4 Z" fill="#000000" fill-rule="evenodd" fill-opacity="1" /><path clip-path="url(#clip300)" d="M1071.47 1431.4 L1089.83 1431.4 L1089.83 1435.34 L1075.75 1435.34 L1075.75 1443.81 Q1076.77 1443.46 1077.79 1443.3 Q1078.81 1443.12 1079.83 1443.12 Q1085.61 1443.12 1088.99 1446.29 Q1092.37 1449.46 1092.37 1454.88 Q1092.37 1460.45 1088.9 1463.56 Q1085.43 1466.64 1079.11 1466.64 Q1076.93 1466.64 1074.67 1466.26 Q1072.42 1465.89 1070.01 1465.15 L1070.01 1460.45 Q1072.1 1461.59 1074.32 1462.14 Q1076.54 1462.7 1079.02 1462.7 Q1083.02 1462.7 1085.36 1460.59 Q1087.7 1458.49 1087.7 1454.88 Q1087.7 1451.26 1085.36 1449.16 Q1083.02 1447.05 1079.02 1447.05 Q1077.14 1447.05 1075.27 1447.47 Q1073.42 1447.89 1071.47 1448.76 L1071.47 1431.4 Z" fill="#000000" fill-rule="evenodd" fill-opacity="1" /><path clip-path="url(#clip300)" d="M1111.59 1434.48 Q1107.98 1434.48 1106.15 1438.05 Q1104.34 1441.59 1104.34 1448.72 Q1104.34 1455.83 1106.15 1459.39 Q1107.98 1462.93 1111.59 1462.93 Q1115.22 1462.93 1117.03 1459.39 Q1118.85 1455.83 1118.85 1448.72 Q1118.85 1441.59 1117.03 1438.05 Q1115.22 1434.48 1111.59 1434.48 M1111.59 1430.78 Q1117.4 1430.78 1120.45 1435.39 Q1123.53 1439.97 1123.53 1448.72 Q1123.53 1457.45 1120.45 1462.05 Q1117.4 1466.64 1111.59 1466.64 Q1105.78 1466.64 1102.7 1462.05 Q1099.64 1457.45 1099.64 1448.72 Q1099.64 1439.97 1102.7 1435.39 Q1105.78 1430.78 1111.59 1430.78 Z" fill="#000000" fill-rule="evenodd" fill-opacity="1" /><path clip-path="url(#clip300)" d="M1474.39 1431.4 L1496.61 1431.4 L1496.61 1433.39 L1484.07 1465.96 L1479.18 1465.96 L1490.99 1435.34 L1474.39 1435.34 L1474.39 1431.4 Z" fill="#000000" fill-rule="evenodd" fill-opacity="1" /><path clip-path="url(#clip300)" d="M1505.78 1431.4 L1524.14 1431.4 L1524.14 1435.34 L1510.06 1435.34 L1510.06 1443.81 Q1511.08 1443.46 1512.1 1443.3 Q1513.12 1443.12 1514.14 1443.12 Q1519.92 1443.12 1523.3 1446.29 Q1526.68 1449.46 1526.68 1454.88 Q1526.68 1460.45 1523.21 1463.56 Q1519.74 1466.64 1513.42 1466.64 Q1511.24 1466.64 1508.98 1466.26 Q1506.73 1465.89 1504.32 1465.15 L1504.32 1460.45 Q1506.41 1461.59 1508.63 1462.14 Q1510.85 1462.7 1513.33 1462.7 Q1517.33 1462.7 1519.67 1460.59 Q1522.01 1458.49 1522.01 1454.88 Q1522.01 1451.26 1519.67 1449.16 Q1517.33 1447.05 1513.33 1447.05 Q1511.45 1447.05 1509.58 1447.47 Q1507.73 1447.89 1505.78 1448.76 L1505.78 1431.4 Z" fill="#000000" fill-rule="evenodd" fill-opacity="1" /><path clip-path="url(#clip300)" d="M1863.91 1462.03 L1871.55 1462.03 L1871.55 1435.66 L1863.24 1437.33 L1863.24 1433.07 L1871.5 1431.4 L1876.18 1431.4 L1876.18 1462.03 L1883.82 1462.03 L1883.82 1465.96 L1863.91 1465.96 L1863.91 1462.03 Z" fill="#000000" fill-rule="evenodd" fill-opacity="1" /><path clip-path="url(#clip300)" d="M1903.26 1434.48 Q1899.65 1434.48 1897.82 1438.05 Q1896.02 1441.59 1896.02 1448.72 Q1896.02 1455.83 1897.82 1459.39 Q1899.65 1462.93 1903.26 1462.93 Q1906.9 1462.93 1908.7 1459.39 Q1910.53 1455.83 1910.53 1448.72 Q1910.53 1441.59 1908.7 1438.05 Q1906.9 1434.48 1903.26 1434.48 M1903.26 1430.78 Q1909.07 1430.78 1912.13 1435.39 Q1915.21 1439.97 1915.21 1448.72 Q1915.21 1457.45 1912.13 1462.05 Q1909.07 1466.64 1903.26 1466.64 Q1897.45 1466.64 1894.37 1462.05 Q1891.32 1457.45 1891.32 1448.72 Q1891.32 1439.97 1894.37 1435.39 Q1897.45 1430.78 1903.26 1430.78 Z" fill="#000000" fill-rule="evenodd" fill-opacity="1" /><path clip-path="url(#clip300)" d="M1933.42 1434.48 Q1929.81 1434.48 1927.98 1438.05 Q1926.18 1441.59 1926.18 1448.72 Q1926.18 1455.83 1927.98 1459.39 Q1929.81 1462.93 1933.42 1462.93 Q1937.06 1462.93 1938.86 1459.39 Q1940.69 1455.83 1940.69 1448.72 Q1940.69 1441.59 1938.86 1438.05 Q1937.06 1434.48 1933.42 1434.48 M1933.42 1430.78 Q1939.23 1430.78 1942.29 1435.39 Q1945.37 1439.97 1945.37 1448.72 Q1945.37 1457.45 1942.29 1462.05 Q1939.23 1466.64 1933.42 1466.64 Q1927.61 1466.64 1924.54 1462.05 Q1921.48 1457.45 1921.48 1448.72 Q1921.48 1439.97 1924.54 1435.39 Q1927.61 1430.78 1933.42 1430.78 Z" fill="#000000" fill-rule="evenodd" fill-opacity="1" /><path clip-path="url(#clip300)" d="M949.867 1498.11 L990.066 1498.11 L990.066 1503.52 L973.197 1503.52 L973.197 1545.63 L966.736 1545.63 L966.736 1503.52 L949.867 1503.52 L949.867 1498.11 Z" fill="#000000" fill-rule="evenodd" fill-opacity="1" /><path clip-path="url(#clip300)" d="M994.013 1509.98 L999.869 1509.98 L999.869 1545.63 L994.013 1545.63 L994.013 1509.98 M994.013 1496.1 L999.869 1496.1 L999.869 1503.52 L994.013 1503.52 L994.013 1496.1 Z" fill="#000000" fill-rule="evenodd" fill-opacity="1" /><path clip-path="url(#clip300)" d="M1039.88 1516.82 Q1042.07 1512.88 1045.13 1511 Q1048.19 1509.12 1052.32 1509.12 Q1057.89 1509.12 1060.92 1513.04 Q1063.94 1516.92 1063.94 1524.11 L1063.94 1545.63 L1058.05 1545.63 L1058.05 1524.3 Q1058.05 1519.18 1056.24 1516.7 Q1054.42 1514.21 1050.7 1514.21 Q1046.15 1514.21 1043.51 1517.24 Q1040.86 1520.26 1040.86 1525.48 L1040.86 1545.63 L1034.98 1545.63 L1034.98 1524.3 Q1034.98 1519.15 1033.16 1516.7 Q1031.35 1514.21 1027.56 1514.21 Q1023.07 1514.21 1020.43 1517.27 Q1017.79 1520.29 1017.79 1525.48 L1017.79 1545.63 L1011.9 1545.63 L1011.9 1509.98 L1017.79 1509.98 L1017.79 1515.52 Q1019.79 1512.24 1022.59 1510.68 Q1025.4 1509.12 1029.25 1509.12 Q1033.13 1509.12 1035.84 1511.09 Q1038.57 1513.07 1039.88 1516.82 Z" fill="#000000" fill-rule="evenodd" fill-opacity="1" /><path clip-path="url(#clip300)" d="M1106.11 1526.34 L1106.11 1529.2 L1079.19 1529.2 Q1079.57 1535.25 1082.81 1538.43 Q1086.09 1541.59 1091.92 1541.59 Q1095.29 1541.59 1098.44 1540.76 Q1101.63 1539.93 1104.74 1538.28 L1104.74 1543.81 Q1101.59 1545.15 1098.28 1545.85 Q1094.97 1546.55 1091.57 1546.55 Q1083.04 1546.55 1078.04 1541.59 Q1073.08 1536.62 1073.08 1528.15 Q1073.08 1519.4 1077.79 1514.28 Q1082.53 1509.12 1090.55 1509.12 Q1097.74 1509.12 1101.91 1513.77 Q1106.11 1518.38 1106.11 1526.34 M1100.26 1524.62 Q1100.19 1519.81 1097.55 1516.95 Q1094.94 1514.09 1090.61 1514.09 Q1085.71 1514.09 1082.75 1516.85 Q1079.82 1519.62 1079.38 1524.65 L1100.26 1524.62 Z" fill="#000000" fill-rule="evenodd" fill-opacity="1" /><path clip-path="url(#clip300)" d="M1135.9 1496.1 L1149.4 1496.1 L1149.4 1500.65 L1141.76 1500.65 L1141.76 1549.67 L1149.4 1549.67 L1149.4 1554.22 L1135.9 1554.22 L1135.9 1496.1 Z" fill="#000000" fill-rule="evenodd" fill-opacity="1" /><path clip-path="url(#clip300)" d="M1191.51 1524.11 L1191.51 1545.63 L1185.65 1545.63 L1185.65 1524.3 Q1185.65 1519.24 1183.68 1516.73 Q1181.71 1514.21 1177.76 1514.21 Q1173.02 1514.21 1170.28 1517.24 Q1167.54 1520.26 1167.54 1525.48 L1167.54 1545.63 L1161.65 1545.63 L1161.65 1496.1 L1167.54 1496.1 L1167.54 1515.52 Q1169.64 1512.3 1172.48 1510.71 Q1175.34 1509.12 1179.06 1509.12 Q1185.21 1509.12 1188.36 1512.94 Q1191.51 1516.73 1191.51 1524.11 Z" fill="#000000" fill-rule="evenodd" fill-opacity="1" /><path clip-path="url(#clip300)" d="M1223.85 1515.45 Q1222.86 1514.88 1221.68 1514.63 Q1220.54 1514.34 1219.14 1514.34 Q1214.17 1514.34 1211.5 1517.59 Q1208.86 1520.8 1208.86 1526.85 L1208.86 1545.63 L1202.97 1545.63 L1202.97 1509.98 L1208.86 1509.98 L1208.86 1515.52 Q1210.7 1512.27 1213.66 1510.71 Q1216.62 1509.12 1220.85 1509.12 Q1221.46 1509.12 1222.19 1509.22 Q1222.92 1509.28 1223.81 1509.44 L1223.85 1515.45 Z" fill="#000000" fill-rule="evenodd" fill-opacity="1" /><path clip-path="url(#clip300)" d="M1243.68 1496.1 L1243.68 1554.22 L1230.18 1554.22 L1230.18 1549.67 L1237.79 1549.67 L1237.79 1500.65 L1230.18 1500.65 L1230.18 1496.1 L1243.68 1496.1 Z" fill="#000000" fill-rule="evenodd" fill-opacity="1" /><polyline clip-path="url(#clip300)" style="stroke:#000000; stroke-linecap:butt; stroke-linejoin:round; stroke-width:4; stroke-opacity:1; fill:none" points="
  240.787,1406.76 240.787,47.2441 
  "/>
<polyline clip-path="url(#clip300)" style="stroke:#000000; stroke-linecap:butt; stroke-linejoin:round; stroke-width:4; stroke-opacity:1; fill:none" points="
  240.787,1368.9 259.684,1368.9 
  "/>
<polyline clip-path="url(#clip300)" style="stroke:#000000; stroke-linecap:butt; stroke-linejoin:round; stroke-width:4; stroke-opacity:1; fill:none" points="
  240.787,1061.7 259.684,1061.7 
  "/>
<polyline clip-path="url(#clip300)" style="stroke:#000000; stroke-linecap:butt; stroke-linejoin:round; stroke-width:4; stroke-opacity:1; fill:none" points="
  240.787,754.501 259.684,754.501 
  "/>
<polyline clip-path="url(#clip300)" style="stroke:#000000; stroke-linecap:butt; stroke-linejoin:round; stroke-width:4; stroke-opacity:1; fill:none" points="
  240.787,447.301 259.684,447.301 
  "/>
<polyline clip-path="url(#clip300)" style="stroke:#000000; stroke-linecap:butt; stroke-linejoin:round; stroke-width:4; stroke-opacity:1; fill:none" points="
  240.787,140.1 259.684,140.1 
  "/>
<path clip-path="url(#clip300)" d="M198.842 1354.7 Q195.231 1354.7 193.403 1358.26 Q191.597 1361.81 191.597 1368.94 Q191.597 1376.04 193.403 1379.61 Q195.231 1383.15 198.842 1383.15 Q202.477 1383.15 204.282 1379.61 Q206.111 1376.04 206.111 1368.94 Q206.111 1361.81 204.282 1358.26 Q202.477 1354.7 198.842 1354.7 M198.842 1351 Q204.653 1351 207.708 1355.6 Q210.787 1360.19 210.787 1368.94 Q210.787 1377.66 207.708 1382.27 Q204.653 1386.85 198.842 1386.85 Q193.032 1386.85 189.954 1382.27 Q186.898 1377.66 186.898 1368.94 Q186.898 1360.19 189.954 1355.6 Q193.032 1351 198.842 1351 Z" fill="#000000" fill-rule="evenodd" fill-opacity="1" /><path clip-path="url(#clip300)" d="M129.329 1075.05 L136.968 1075.05 L136.968 1048.68 L128.658 1050.35 L128.658 1046.09 L136.922 1044.42 L141.597 1044.42 L141.597 1075.05 L149.236 1075.05 L149.236 1078.98 L129.329 1078.98 L129.329 1075.05 Z" fill="#000000" fill-rule="evenodd" fill-opacity="1" /><path clip-path="url(#clip300)" d="M168.681 1047.5 Q165.07 1047.5 163.241 1051.06 Q161.435 1054.61 161.435 1061.74 Q161.435 1068.84 163.241 1072.41 Q165.07 1075.95 168.681 1075.95 Q172.315 1075.95 174.12 1072.41 Q175.949 1068.84 175.949 1061.74 Q175.949 1054.61 174.12 1051.06 Q172.315 1047.5 168.681 1047.5 M168.681 1043.8 Q174.491 1043.8 177.546 1048.4 Q180.625 1052.99 180.625 1061.74 Q180.625 1070.46 177.546 1075.07 Q174.491 1079.65 168.681 1079.65 Q162.87 1079.65 159.792 1075.07 Q156.736 1070.46 156.736 1061.74 Q156.736 1052.99 159.792 1048.4 Q162.87 1043.8 168.681 1043.8 Z" fill="#000000" fill-rule="evenodd" fill-opacity="1" /><path clip-path="url(#clip300)" d="M198.842 1047.5 Q195.231 1047.5 193.403 1051.06 Q191.597 1054.61 191.597 1061.74 Q191.597 1068.84 193.403 1072.41 Q195.231 1075.95 198.842 1075.95 Q202.477 1075.95 204.282 1072.41 Q206.111 1068.84 206.111 1061.74 Q206.111 1054.61 204.282 1051.06 Q202.477 1047.5 198.842 1047.5 M198.842 1043.8 Q204.653 1043.8 207.708 1048.4 Q210.787 1052.99 210.787 1061.74 Q210.787 1070.46 207.708 1075.07 Q204.653 1079.65 198.842 1079.65 Q193.032 1079.65 189.954 1075.07 Q186.898 1070.46 186.898 1061.74 Q186.898 1052.99 189.954 1048.4 Q193.032 1043.8 198.842 1043.8 Z" fill="#000000" fill-rule="evenodd" fill-opacity="1" /><path clip-path="url(#clip300)" d="M132.547 767.846 L148.866 767.846 L148.866 771.781 L126.922 771.781 L126.922 767.846 Q129.584 765.091 134.167 760.461 Q138.773 755.809 139.954 754.466 Q142.199 751.943 143.079 750.207 Q143.982 748.448 143.982 746.758 Q143.982 744.003 142.037 742.267 Q140.116 740.531 137.014 740.531 Q134.815 740.531 132.361 741.295 Q129.931 742.059 127.153 743.61 L127.153 738.888 Q129.977 737.753 132.431 737.175 Q134.884 736.596 136.922 736.596 Q142.292 736.596 145.486 739.281 Q148.681 741.966 148.681 746.457 Q148.681 748.587 147.871 750.508 Q147.083 752.406 144.977 754.999 Q144.398 755.67 141.296 758.887 Q138.195 762.082 132.547 767.846 Z" fill="#000000" fill-rule="evenodd" fill-opacity="1" /><path clip-path="url(#clip300)" d="M168.681 740.3 Q165.07 740.3 163.241 743.864 Q161.435 747.406 161.435 754.536 Q161.435 761.642 163.241 765.207 Q165.07 768.748 168.681 768.748 Q172.315 768.748 174.12 765.207 Q175.949 761.642 175.949 754.536 Q175.949 747.406 174.12 743.864 Q172.315 740.3 168.681 740.3 M168.681 736.596 Q174.491 736.596 177.546 741.202 Q180.625 745.786 180.625 754.536 Q180.625 763.262 177.546 767.869 Q174.491 772.452 168.681 772.452 Q162.87 772.452 159.792 767.869 Q156.736 763.262 156.736 754.536 Q156.736 745.786 159.792 741.202 Q162.87 736.596 168.681 736.596 Z" fill="#000000" fill-rule="evenodd" fill-opacity="1" /><path clip-path="url(#clip300)" d="M198.842 740.3 Q195.231 740.3 193.403 743.864 Q191.597 747.406 191.597 754.536 Q191.597 761.642 193.403 765.207 Q195.231 768.748 198.842 768.748 Q202.477 768.748 204.282 765.207 Q206.111 761.642 206.111 754.536 Q206.111 747.406 204.282 743.864 Q202.477 740.3 198.842 740.3 M198.842 736.596 Q204.653 736.596 207.708 741.202 Q210.787 745.786 210.787 754.536 Q210.787 763.262 207.708 767.869 Q204.653 772.452 198.842 772.452 Q193.032 772.452 189.954 767.869 Q186.898 763.262 186.898 754.536 Q186.898 745.786 189.954 741.202 Q193.032 736.596 198.842 736.596 Z" fill="#000000" fill-rule="evenodd" fill-opacity="1" /><path clip-path="url(#clip300)" d="M142.685 445.946 Q146.042 446.664 147.917 448.933 Q149.815 451.201 149.815 454.534 Q149.815 459.65 146.296 462.451 Q142.778 465.252 136.297 465.252 Q134.121 465.252 131.806 464.812 Q129.514 464.395 127.06 463.539 L127.06 459.025 Q129.005 460.159 131.32 460.738 Q133.634 461.317 136.158 461.317 Q140.556 461.317 142.847 459.581 Q145.162 457.845 145.162 454.534 Q145.162 451.479 143.009 449.766 Q140.88 448.03 137.06 448.03 L133.033 448.03 L133.033 444.187 L137.246 444.187 Q140.695 444.187 142.523 442.821 Q144.352 441.433 144.352 438.84 Q144.352 436.178 142.454 434.766 Q140.579 433.331 137.06 433.331 Q135.139 433.331 132.94 433.747 Q130.741 434.164 128.102 435.044 L128.102 430.877 Q130.764 430.136 133.079 429.766 Q135.417 429.396 137.477 429.396 Q142.801 429.396 145.903 431.826 Q149.005 434.234 149.005 438.354 Q149.005 441.224 147.361 443.215 Q145.718 445.183 142.685 445.946 Z" fill="#000000" fill-rule="evenodd" fill-opacity="1" /><path clip-path="url(#clip300)" d="M168.681 433.099 Q165.07 433.099 163.241 436.664 Q161.435 440.206 161.435 447.335 Q161.435 454.442 163.241 458.007 Q165.07 461.548 168.681 461.548 Q172.315 461.548 174.12 458.007 Q175.949 454.442 175.949 447.335 Q175.949 440.206 174.12 436.664 Q172.315 433.099 168.681 433.099 M168.681 429.396 Q174.491 429.396 177.546 434.002 Q180.625 438.585 180.625 447.335 Q180.625 456.062 177.546 460.669 Q174.491 465.252 168.681 465.252 Q162.87 465.252 159.792 460.669 Q156.736 456.062 156.736 447.335 Q156.736 438.585 159.792 434.002 Q162.87 429.396 168.681 429.396 Z" fill="#000000" fill-rule="evenodd" fill-opacity="1" /><path clip-path="url(#clip300)" d="M198.842 433.099 Q195.231 433.099 193.403 436.664 Q191.597 440.206 191.597 447.335 Q191.597 454.442 193.403 458.007 Q195.231 461.548 198.842 461.548 Q202.477 461.548 204.282 458.007 Q206.111 454.442 206.111 447.335 Q206.111 440.206 204.282 436.664 Q202.477 433.099 198.842 433.099 M198.842 429.396 Q204.653 429.396 207.708 434.002 Q210.787 438.585 210.787 447.335 Q210.787 456.062 207.708 460.669 Q204.653 465.252 198.842 465.252 Q193.032 465.252 189.954 460.669 Q186.898 456.062 186.898 447.335 Q186.898 438.585 189.954 434.002 Q193.032 429.396 198.842 429.396 Z" fill="#000000" fill-rule="evenodd" fill-opacity="1" /><path clip-path="url(#clip300)" d="M141.366 126.894 L129.56 145.343 L141.366 145.343 L141.366 126.894 M140.139 122.82 L146.019 122.82 L146.019 145.343 L150.949 145.343 L150.949 149.232 L146.019 149.232 L146.019 157.38 L141.366 157.38 L141.366 149.232 L125.764 149.232 L125.764 144.718 L140.139 122.82 Z" fill="#000000" fill-rule="evenodd" fill-opacity="1" /><path clip-path="url(#clip300)" d="M168.681 125.899 Q165.07 125.899 163.241 129.464 Q161.435 133.006 161.435 140.135 Q161.435 147.242 163.241 150.806 Q165.07 154.348 168.681 154.348 Q172.315 154.348 174.12 150.806 Q175.949 147.242 175.949 140.135 Q175.949 133.006 174.12 129.464 Q172.315 125.899 168.681 125.899 M168.681 122.195 Q174.491 122.195 177.546 126.802 Q180.625 131.385 180.625 140.135 Q180.625 148.862 177.546 153.468 Q174.491 158.052 168.681 158.052 Q162.87 158.052 159.792 153.468 Q156.736 148.862 156.736 140.135 Q156.736 131.385 159.792 126.802 Q162.87 122.195 168.681 122.195 Z" fill="#000000" fill-rule="evenodd" fill-opacity="1" /><path clip-path="url(#clip300)" d="M198.842 125.899 Q195.231 125.899 193.403 129.464 Q191.597 133.006 191.597 140.135 Q191.597 147.242 193.403 150.806 Q195.231 154.348 198.842 154.348 Q202.477 154.348 204.282 150.806 Q206.111 147.242 206.111 140.135 Q206.111 133.006 204.282 129.464 Q202.477 125.899 198.842 125.899 M198.842 122.195 Q204.653 122.195 207.708 126.802 Q210.787 131.385 210.787 140.135 Q210.787 148.862 207.708 153.468 Q204.653 158.052 198.842 158.052 Q193.032 158.052 189.954 153.468 Q186.898 148.862 186.898 140.135 Q186.898 131.385 189.954 126.802 Q193.032 122.195 198.842 122.195 Z" fill="#000000" fill-rule="evenodd" fill-opacity="1" /><path clip-path="url(#clip300)" d="M33.9882 896.364 L33.9882 889.934 L53.4672 889.934 L53.4672 866.572 L33.9882 866.572 L33.9882 860.143 L81.5082 860.143 L81.5082 866.572 L58.8781 866.572 L58.8781 889.934 L81.5082 889.934 L81.5082 896.364 L33.9882 896.364 Z" fill="#000000" fill-rule="evenodd" fill-opacity="1" /><path clip-path="url(#clip300)" d="M62.2201 817.111 L65.0846 817.111 L65.0846 844.037 Q71.1321 843.656 74.3149 840.409 Q77.4659 837.131 77.4659 831.306 Q77.4659 827.932 76.6384 824.781 Q75.8109 821.598 74.1558 818.479 L79.6939 818.479 Q81.0307 821.63 81.731 824.94 Q82.4312 828.251 82.4312 831.656 Q82.4312 840.186 77.4659 845.183 Q72.5007 850.149 64.0343 850.149 Q55.2814 850.149 50.1571 845.438 Q45.0008 840.695 45.0008 832.675 Q45.0008 825.481 49.6478 821.312 Q54.2629 817.111 62.2201 817.111 M60.5013 822.967 Q55.6952 823.031 52.8306 825.672 Q49.9661 828.282 49.9661 832.611 Q49.9661 837.513 52.7352 840.473 Q55.5042 843.401 60.5332 843.847 L60.5013 822.967 Z" fill="#000000" fill-rule="evenodd" fill-opacity="1" /><path clip-path="url(#clip300)" d="M45.8602 807.498 L45.8602 801.642 L81.5082 801.642 L81.5082 807.498 L45.8602 807.498 M31.983 807.498 L31.983 801.642 L39.399 801.642 L39.399 807.498 L31.983 807.498 Z" fill="#000000" fill-rule="evenodd" fill-opacity="1" /><path clip-path="url(#clip300)" d="M63.2704 765.93 Q56.9047 765.93 53.4036 768.572 Q49.9024 771.182 49.9024 775.924 Q49.9024 780.635 53.4036 783.277 Q56.9047 785.887 63.2704 785.887 Q69.6043 785.887 73.1054 783.277 Q76.6066 780.635 76.6066 775.924 Q76.6066 771.182 73.1054 768.572 Q69.6043 765.93 63.2704 765.93 M77.084 760.074 Q86.187 760.074 90.6111 764.116 Q95.0671 768.158 95.0671 776.497 Q95.0671 779.585 94.5897 782.322 Q94.1441 785.059 93.1892 787.637 L87.4919 787.637 Q88.8924 785.059 89.5608 782.545 Q90.2292 780.03 90.2292 777.42 Q90.2292 771.659 87.2055 768.795 Q84.2136 765.93 78.1343 765.93 L75.2379 765.93 Q78.389 767.744 79.9486 770.577 Q81.5082 773.41 81.5082 777.357 Q81.5082 783.913 76.5111 787.924 Q71.514 791.934 63.2704 791.934 Q54.995 791.934 49.9979 787.924 Q45.0008 783.913 45.0008 777.357 Q45.0008 773.41 46.5604 770.577 Q48.12 767.744 51.2711 765.93 L45.8602 765.93 L45.8602 760.074 L77.084 760.074 Z" fill="#000000" fill-rule="evenodd" fill-opacity="1" /><path clip-path="url(#clip300)" d="M35.7387 742.218 L45.8602 742.218 L45.8602 730.155 L50.4117 730.155 L50.4117 742.218 L69.7634 742.218 Q74.1239 742.218 75.3653 741.04 Q76.6066 739.831 76.6066 736.171 L76.6066 730.155 L81.5082 730.155 L81.5082 736.171 Q81.5082 742.95 78.9937 745.528 Q76.4474 748.106 69.7634 748.106 L50.4117 748.106 L50.4117 752.403 L45.8602 752.403 L45.8602 748.106 L35.7387 748.106 L35.7387 742.218 Z" fill="#000000" fill-rule="evenodd" fill-opacity="1" /><path clip-path="url(#clip300)" d="M31.983 702.273 L31.983 688.778 L36.5344 688.778 L36.5344 696.417 L85.5504 696.417 L85.5504 688.778 L90.1019 688.778 L90.1019 702.273 L31.983 702.273 Z" fill="#000000" fill-rule="evenodd" fill-opacity="1" /><path clip-path="url(#clip300)" d="M95.0671 676.906 L45.8602 676.906 L45.8602 671.049 L68.0129 671.049 Q72.628 671.049 74.9833 668.853 Q77.3386 666.657 77.3386 662.36 Q77.3386 657.65 74.665 655.294 Q71.9914 652.907 66.6442 652.907 L45.8602 652.907 L45.8602 647.051 L73.2964 647.051 Q75.2061 647.051 76.1291 646.51 Q77.0203 645.937 77.0203 644.759 Q77.0203 644.473 76.8612 643.963 Q76.6702 643.454 76.2883 642.563 L80.9989 642.563 Q81.731 643.868 82.0811 645.045 Q82.4312 646.191 82.4312 647.305 Q82.4312 649.501 81.1899 650.806 Q79.9486 652.111 77.4023 652.589 Q79.9167 654.18 81.1899 656.504 Q82.4312 658.795 82.4312 661.915 Q82.4312 665.161 81.1899 667.453 Q79.9486 669.713 77.4659 671.049 L95.0671 671.049 L95.0671 676.906 Z" fill="#000000" fill-rule="evenodd" fill-opacity="1" /><path clip-path="url(#clip300)" d="M52.7033 607.074 Q48.7566 604.878 46.8787 601.822 Q45.0008 598.767 45.0008 594.629 Q45.0008 589.059 48.9157 586.035 Q52.7988 583.012 59.9921 583.012 L81.5082 583.012 L81.5082 588.9 L60.183 588.9 Q55.0586 588.9 52.576 590.714 Q50.0934 592.528 50.0934 596.252 Q50.0934 600.804 53.1171 603.446 Q56.1408 606.087 61.3607 606.087 L81.5082 606.087 L81.5082 611.976 L60.183 611.976 Q55.0268 611.976 52.576 613.79 Q50.0934 615.604 50.0934 619.392 Q50.0934 623.88 53.1489 626.521 Q56.1726 629.163 61.3607 629.163 L81.5082 629.163 L81.5082 635.051 L45.8602 635.051 L45.8602 629.163 L51.3984 629.163 Q48.12 627.158 46.5604 624.357 Q45.0008 621.556 45.0008 617.705 Q45.0008 613.822 46.9742 611.116 Q48.9476 608.379 52.7033 607.074 Z" fill="#000000" fill-rule="evenodd" fill-opacity="1" /><path clip-path="url(#clip300)" d="M31.983 557.644 L90.1019 557.644 L90.1019 571.14 L85.5504 571.14 L85.5504 563.533 L36.5344 563.533 L36.5344 571.14 L31.983 571.14 L31.983 557.644 Z" fill="#000000" fill-rule="evenodd" fill-opacity="1" /><polyline clip-path="url(#clip302)" style="stroke:#ff0000; stroke-linecap:butt; stroke-linejoin:round; stroke-width:8; stroke-opacity:1; fill:none" points="
  289.239,1368.29 297.314,1367.79 305.389,1367.01 313.465,1365.83 321.54,1364.12 329.615,1361.75 337.691,1358.6 345.766,1354.54 353.841,1349.47 361.917,1343.32 
  369.992,1336.05 378.067,1327.66 386.143,1318.16 394.218,1307.63 402.293,1296.14 410.369,1283.8 418.444,1270.74 426.519,1257.09 434.595,1242.99 442.67,1228.56 
  450.745,1213.95 458.821,1199.27 466.896,1184.64 474.971,1170.14 483.047,1155.86 491.122,1141.87 499.197,1128.24 507.273,1115 515.348,1102.18 523.423,1089.82 
  531.499,1077.93 539.574,1066.51 547.649,1055.56 555.725,1045.08 563.8,1035.06 571.875,1025.48 579.951,1016.33 588.026,1007.59 596.101,999.248 604.177,991.272 
  612.252,983.644 620.327,976.344 628.402,969.353 636.478,962.648 644.553,956.211 652.628,950.02 660.704,944.057 668.779,938.304 676.854,932.745 684.93,927.365 
  693.005,922.149 701.08,917.082 709.156,912.15 717.231,907.34 725.306,902.642 733.382,898.045 741.457,893.539 749.532,889.116 757.608,884.767 765.683,880.482 
  773.758,876.255 781.834,872.079 789.909,867.948 797.984,863.857 806.06,859.799 814.135,855.771 822.21,851.767 830.286,847.783 838.361,843.815 846.436,839.86 
  854.512,835.915 862.587,831.976 870.662,828.042 878.738,824.108 886.813,820.174 894.888,816.236 902.964,812.293 911.039,808.342 919.114,804.383 927.19,800.414 
  935.265,796.432 943.34,792.438 951.416,788.429 959.491,784.404 967.566,780.363 975.641,776.304 983.717,772.226 991.792,768.129 999.867,764.011 1007.94,759.872 
  1016.02,755.712 1024.09,751.529 1032.17,747.323 1040.24,743.093 1048.32,738.839 1056.39,734.561 1064.47,730.257 1072.55,725.927 1080.62,721.571 1088.7,717.189 
  1096.77,712.779 1104.85,708.342 1112.92,703.878 1121,699.385 1129.07,694.863 1137.15,690.313 1145.22,685.733 1153.3,681.125 1161.37,676.486 1169.45,671.817 
  1177.52,667.118 1185.6,662.388 1193.68,657.627 1201.75,652.835 1209.83,648.011 1217.9,643.156 1225.98,638.268 1234.05,633.348 1242.13,628.395 1250.2,623.41 
  1258.28,618.391 1266.35,613.34 1274.43,608.254 1282.5,603.135 1290.58,597.981 1298.65,592.793 1306.73,587.57 1314.81,582.313 1322.88,577.02 1330.96,571.692 
  1339.03,566.328 1347.11,560.928 1355.18,555.492 1363.26,550.02 1371.33,544.51 1379.41,538.964 1387.48,533.381 1395.56,527.76 1403.63,522.102 1411.71,516.406 
  1419.78,510.671 1427.86,504.898 1435.94,499.086 1444.01,493.235 1452.09,487.344 1460.16,481.414 1468.24,475.445 1476.31,469.435 1484.39,463.384 1492.46,457.293 
  1500.54,451.162 1508.61,444.989 1516.69,438.774 1524.76,432.518 1532.84,426.219 1540.91,419.878 1548.99,413.495 1557.06,407.069 1565.14,400.599 1573.22,394.086 
  1581.29,387.529 1589.37,380.928 1597.44,374.283 1605.52,367.593 1613.59,360.858 1621.67,354.078 1629.74,347.252 1637.82,340.38 1645.89,333.462 1653.97,326.497 
  1662.04,319.486 1670.12,312.427 1678.19,305.321 1686.27,298.168 1694.35,290.966 1702.42,283.715 1710.5,276.416 1718.57,269.068 1726.65,261.671 1734.72,254.223 
  1742.8,246.726 1750.87,239.178 1758.95,231.579 1767.02,223.929 1775.1,216.228 1783.17,208.475 1791.25,200.67 1799.32,192.812 1807.4,184.902 1815.48,176.938 
  1823.55,168.921 1831.63,160.849 1839.7,152.724 1847.78,144.544 1855.85,136.308 1863.93,128.018 1872,119.672 1880.08,111.269 1888.15,102.81 1896.23,94.2942 
  1904.3,85.7211 
  "/>
<polyline clip-path="url(#clip302)" style="stroke:#0000ff; stroke-linecap:butt; stroke-linejoin:round; stroke-width:8; stroke-opacity:1; fill:none" points="
  289.239,1368.29 297.314,1367.92 305.389,1367.38 313.465,1366.61 321.54,1365.55 329.615,1364.11 337.691,1362.2 345.766,1359.74 353.841,1356.64 361.917,1352.8 
  369.992,1348.14 378.067,1342.59 386.143,1336.08 394.218,1328.58 402.293,1320.07 410.369,1310.54 418.444,1300.02 426.519,1288.56 434.595,1276.21 442.67,1263.07 
  450.745,1249.22 458.821,1234.78 466.896,1219.84 474.971,1204.53 483.047,1188.96 491.122,1173.24 499.197,1157.47 507.273,1141.75 515.348,1126.17 523.423,1110.8 
  531.499,1095.72 539.574,1080.99 547.649,1066.64 555.725,1052.72 563.8,1039.27 571.875,1026.3 579.951,1013.83 588.026,1001.87 596.101,990.425 604.177,979.496 
  612.252,969.077 620.327,959.16 628.402,949.735 636.478,940.79 644.553,932.31 652.628,924.282 660.704,916.689 668.779,909.513 676.854,902.738 684.93,896.345 
  693.005,890.316 701.08,884.636 709.156,879.286 717.231,874.25 725.306,869.514 733.382,865.06 741.457,860.873 749.532,856.939 757.608,853.242 765.683,849.77 
  773.758,846.511 781.834,843.452 789.909,840.581 797.984,837.889 806.06,835.364 814.135,832.996 822.21,830.776 830.286,828.694 838.361,826.742 846.436,824.912 
  854.512,823.198 862.587,821.591 870.662,820.086 878.738,818.677 886.813,817.356 894.888,816.12 902.964,814.962 911.039,813.877 919.114,812.861 927.19,811.909 
  935.265,811.018 943.34,810.183 951.416,809.402 959.491,808.671 967.566,807.987 975.641,807.347 983.717,806.747 991.792,806.186 999.867,805.661 1007.94,805.168 
  1016.02,804.708 1024.09,804.277 1032.17,803.873 1040.24,803.495 1048.32,803.142 1056.39,802.812 1064.47,802.502 1072.55,802.213 1080.62,801.942 1088.7,801.689 
  1096.77,801.451 1104.85,801.229 1112.92,801.021 1121,800.826 1129.07,800.644 1137.15,800.474 1145.22,800.315 1153.3,800.166 1161.37,800.026 1169.45,799.896 
  1177.52,799.774 1185.6,799.66 1193.68,799.553 1201.75,799.452 1209.83,799.359 1217.9,799.271 1225.98,799.189 1234.05,799.112 1242.13,799.04 1250.2,798.973 
  1258.28,798.911 1266.35,798.852 1274.43,798.797 1282.5,798.745 1290.58,798.697 1298.65,798.652 1306.73,798.61 1314.81,798.57 1322.88,798.533 1330.96,798.499 
  1339.03,798.467 1347.11,798.436 1355.18,798.408 1363.26,798.382 1371.33,798.357 1379.41,798.334 1387.48,798.312 1395.56,798.292 1403.63,798.273 1411.71,798.255 
  1419.78,798.238 1427.86,798.223 1435.94,798.208 1444.01,798.195 1452.09,798.182 1460.16,798.17 1468.24,798.159 1476.31,798.149 1484.39,798.139 1492.46,798.13 
  1500.54,798.121 1508.61,798.113 1516.69,798.106 1524.76,798.099 1532.84,798.092 1540.91,798.086 1548.99,798.08 1557.06,798.075 1565.14,798.07 1573.22,798.065 
  1581.29,798.061 1589.37,798.057 1597.44,798.053 1605.52,798.049 1613.59,798.046 1621.67,798.043 1629.74,798.04 1637.82,798.037 1645.89,798.035 1653.97,798.032 
  1662.04,798.03 1670.12,798.028 1678.19,798.026 1686.27,798.024 1694.35,798.022 1702.42,798.02 1710.5,798.019 1718.57,798.018 1726.65,798.016 1734.72,798.015 
  1742.8,798.014 1750.87,798.013 1758.95,798.012 1767.02,798.011 1775.1,798.01 1783.17,798.009 1791.25,798.008 1799.32,798.008 1807.4,798.007 1815.48,798.006 
  1823.55,798.006 1831.63,798.005 1839.7,798.005 1847.78,798.004 1855.85,798.004 1863.93,798.003 1872,798.003 1880.08,798.002 1888.15,798.002 1896.23,798.002 
  1904.3,798.001 
  "/>
<path clip-path="url(#clip300)" d="
M297.852 248.081 L686.625 248.081 L686.625 92.5614 L297.852 92.5614  Z
  " fill="#ffffff" fill-rule="evenodd" fill-opacity="1"/>
<polyline clip-path="url(#clip300)" style="stroke:#000000; stroke-linecap:butt; stroke-linejoin:round; stroke-width:4; stroke-opacity:1; fill:none" points="
  297.852,248.081 686.625,248.081 686.625,92.5614 297.852,92.5614 297.852,248.081 
  "/>
<polyline clip-path="url(#clip300)" style="stroke:#ff0000; stroke-linecap:butt; stroke-linejoin:round; stroke-width:4; stroke-opacity:1; fill:none" points="
  317.852,144.401 437.852,144.401 
  "/>
<path clip-path="url(#clip300)" d="M457.852 127.121 L464.149 127.121 L479.473 156.033 L479.473 127.121 L484.01 127.121 L484.01 161.681 L477.713 161.681 L462.389 132.77 L462.389 161.681 L457.852 161.681 L457.852 127.121 Z" fill="#000000" fill-rule="evenodd" fill-opacity="1" /><path clip-path="url(#clip300)" d="M492.69 151.45 L492.69 135.756 L496.949 135.756 L496.949 151.288 Q496.949 154.968 498.385 156.82 Q499.82 158.649 502.69 158.649 Q506.139 158.649 508.13 156.45 Q510.144 154.251 510.144 150.455 L510.144 135.756 L514.403 135.756 L514.403 161.681 L510.144 161.681 L510.144 157.7 Q508.593 160.061 506.533 161.218 Q504.496 162.353 501.787 162.353 Q497.32 162.353 495.005 159.575 Q492.69 156.797 492.69 151.45 M503.408 135.131 L503.408 135.131 Z" fill="#000000" fill-rule="evenodd" fill-opacity="1" /><path clip-path="url(#clip300)" d="M527.389 128.395 L527.389 135.756 L536.162 135.756 L536.162 139.066 L527.389 139.066 L527.389 153.14 Q527.389 156.311 528.246 157.214 Q529.125 158.117 531.787 158.117 L536.162 158.117 L536.162 161.681 L531.787 161.681 Q526.857 161.681 524.982 159.853 Q523.107 158.001 523.107 153.14 L523.107 139.066 L519.982 139.066 L519.982 135.756 L523.107 135.756 L523.107 128.395 L527.389 128.395 Z" fill="#000000" fill-rule="evenodd" fill-opacity="1" /><path clip-path="url(#clip300)" d="M556.787 139.737 Q556.07 139.32 555.213 139.135 Q554.38 138.927 553.361 138.927 Q549.75 138.927 547.806 141.288 Q545.884 143.626 545.884 148.024 L545.884 161.681 L541.602 161.681 L541.602 135.756 L545.884 135.756 L545.884 139.783 Q547.227 137.422 549.38 136.288 Q551.533 135.131 554.611 135.131 Q555.051 135.131 555.583 135.2 Q556.116 135.246 556.764 135.362 L556.787 139.737 Z" fill="#000000" fill-rule="evenodd" fill-opacity="1" /><path clip-path="url(#clip300)" d="M561.255 135.756 L565.514 135.756 L565.514 161.681 L561.255 161.681 L561.255 135.756 M561.255 125.663 L565.514 125.663 L565.514 131.057 L561.255 131.057 L561.255 125.663 Z" fill="#000000" fill-rule="evenodd" fill-opacity="1" /><path clip-path="url(#clip300)" d="M596.602 147.654 L596.602 149.737 L577.019 149.737 Q577.296 154.135 579.657 156.45 Q582.042 158.742 586.278 158.742 Q588.731 158.742 591.023 158.14 Q593.338 157.538 595.606 156.334 L595.606 160.362 Q593.315 161.334 590.907 161.843 Q588.5 162.353 586.023 162.353 Q579.819 162.353 576.185 158.742 Q572.574 155.131 572.574 148.973 Q572.574 142.607 576 138.881 Q579.449 135.131 585.282 135.131 Q590.514 135.131 593.546 138.51 Q596.602 141.867 596.602 147.654 M592.343 146.404 Q592.296 142.908 590.375 140.825 Q588.477 138.742 585.329 138.742 Q581.764 138.742 579.611 140.756 Q577.481 142.769 577.157 146.427 L592.343 146.404 Z" fill="#000000" fill-rule="evenodd" fill-opacity="1" /><path clip-path="url(#clip300)" d="M625.143 146.033 L625.143 161.681 L620.884 161.681 L620.884 146.172 Q620.884 142.492 619.449 140.663 Q618.014 138.834 615.143 138.834 Q611.694 138.834 609.704 141.033 Q607.713 143.232 607.713 147.029 L607.713 161.681 L603.43 161.681 L603.43 135.756 L607.713 135.756 L607.713 139.783 Q609.241 137.445 611.301 136.288 Q613.384 135.131 616.092 135.131 Q620.56 135.131 622.852 137.908 Q625.143 140.663 625.143 146.033 Z" fill="#000000" fill-rule="evenodd" fill-opacity="1" /><path clip-path="url(#clip300)" d="M637.852 128.395 L637.852 135.756 L646.625 135.756 L646.625 139.066 L637.852 139.066 L637.852 153.14 Q637.852 156.311 638.708 157.214 Q639.588 158.117 642.25 158.117 L646.625 158.117 L646.625 161.681 L642.25 161.681 Q637.319 161.681 635.444 159.853 Q633.569 158.001 633.569 153.14 L633.569 139.066 L630.444 139.066 L630.444 135.756 L633.569 135.756 L633.569 128.395 L637.852 128.395 Z" fill="#000000" fill-rule="evenodd" fill-opacity="1" /><polyline clip-path="url(#clip300)" style="stroke:#0000ff; stroke-linecap:butt; stroke-linejoin:round; stroke-width:4; stroke-opacity:1; fill:none" points="
  317.852,196.241 437.852,196.241 
  "/>
<path clip-path="url(#clip300)" d="M457.852 178.961 L462.528 178.961 L462.528 209.586 L479.357 209.586 L479.357 213.521 L457.852 213.521 L457.852 178.961 Z" fill="#000000" fill-rule="evenodd" fill-opacity="1" /><path clip-path="url(#clip300)" d="M493.292 190.582 Q489.866 190.582 487.875 193.267 Q485.885 195.929 485.885 200.582 Q485.885 205.234 487.852 207.92 Q489.843 210.582 493.292 210.582 Q496.695 210.582 498.686 207.896 Q500.676 205.211 500.676 200.582 Q500.676 195.975 498.686 193.29 Q496.695 190.582 493.292 190.582 M493.292 186.971 Q498.848 186.971 502.019 190.582 Q505.19 194.193 505.19 200.582 Q505.19 206.947 502.019 210.582 Q498.848 214.193 493.292 214.193 Q487.713 214.193 484.542 210.582 Q481.394 206.947 481.394 200.582 Q481.394 194.193 484.542 190.582 Q487.713 186.971 493.292 186.971 Z" fill="#000000" fill-rule="evenodd" fill-opacity="1" /><path clip-path="url(#clip300)" d="M529.31 200.258 Q529.31 195.628 527.389 193.082 Q525.491 190.535 522.042 190.535 Q518.616 190.535 516.695 193.082 Q514.797 195.628 514.797 200.258 Q514.797 204.864 516.695 207.41 Q518.616 209.957 522.042 209.957 Q525.491 209.957 527.389 207.41 Q529.31 204.864 529.31 200.258 M533.57 210.304 Q533.57 216.924 530.63 220.142 Q527.69 223.382 521.625 223.382 Q519.38 223.382 517.389 223.035 Q515.398 222.711 513.523 222.017 L513.523 217.873 Q515.398 218.892 517.227 219.378 Q519.056 219.864 520.954 219.864 Q525.144 219.864 527.227 217.665 Q529.31 215.489 529.31 211.068 L529.31 208.961 Q527.991 211.253 525.931 212.387 Q523.871 213.521 521 213.521 Q516.232 213.521 513.315 209.887 Q510.398 206.253 510.398 200.258 Q510.398 194.239 513.315 190.605 Q516.232 186.971 521 186.971 Q523.871 186.971 525.931 188.105 Q527.991 189.239 529.31 191.531 L529.31 187.596 L533.57 187.596 L533.57 210.304 Z" fill="#000000" fill-rule="evenodd" fill-opacity="1" /><path clip-path="url(#clip300)" d="M542.343 187.596 L546.602 187.596 L546.602 213.521 L542.343 213.521 L542.343 187.596 M542.343 177.503 L546.602 177.503 L546.602 182.897 L542.343 182.897 L542.343 177.503 Z" fill="#000000" fill-rule="evenodd" fill-opacity="1" /><path clip-path="url(#clip300)" d="M572.042 188.36 L572.042 192.387 Q570.236 191.461 568.292 190.998 Q566.347 190.535 564.264 190.535 Q561.093 190.535 559.495 191.508 Q557.921 192.48 557.921 194.424 Q557.921 195.906 559.056 196.762 Q560.19 197.596 563.616 198.359 L565.074 198.684 Q569.611 199.656 571.509 201.438 Q573.431 203.197 573.431 206.369 Q573.431 209.98 570.56 212.086 Q567.713 214.193 562.713 214.193 Q560.63 214.193 558.361 213.776 Q556.116 213.383 553.616 212.572 L553.616 208.174 Q555.977 209.401 558.269 210.026 Q560.56 210.628 562.806 210.628 Q565.815 210.628 567.435 209.609 Q569.056 208.568 569.056 206.693 Q569.056 204.957 567.875 204.031 Q566.718 203.105 562.759 202.248 L561.278 201.901 Q557.32 201.068 555.56 199.355 Q553.801 197.619 553.801 194.609 Q553.801 190.952 556.394 188.961 Q558.986 186.971 563.755 186.971 Q566.116 186.971 568.199 187.318 Q570.282 187.665 572.042 188.36 Z" fill="#000000" fill-rule="evenodd" fill-opacity="1" /><path clip-path="url(#clip300)" d="M584.426 180.235 L584.426 187.596 L593.199 187.596 L593.199 190.906 L584.426 190.906 L584.426 204.98 Q584.426 208.151 585.282 209.054 Q586.162 209.957 588.824 209.957 L593.199 209.957 L593.199 213.521 L588.824 213.521 Q583.893 213.521 582.018 211.693 Q580.143 209.841 580.143 204.98 L580.143 190.906 L577.019 190.906 L577.019 187.596 L580.143 187.596 L580.143 180.235 L584.426 180.235 Z" fill="#000000" fill-rule="evenodd" fill-opacity="1" /><path clip-path="url(#clip300)" d="M598.801 187.596 L603.06 187.596 L603.06 213.521 L598.801 213.521 L598.801 187.596 M598.801 177.503 L603.06 177.503 L603.06 182.897 L598.801 182.897 L598.801 177.503 Z" fill="#000000" fill-rule="evenodd" fill-opacity="1" /><path clip-path="url(#clip300)" d="M630.629 188.591 L630.629 192.572 Q628.824 191.577 626.995 191.091 Q625.19 190.582 623.338 190.582 Q619.194 190.582 616.903 193.221 Q614.611 195.836 614.611 200.582 Q614.611 205.327 616.903 207.966 Q619.194 210.582 623.338 210.582 Q625.19 210.582 626.995 210.096 Q628.824 209.586 630.629 208.591 L630.629 212.526 Q628.847 213.359 626.926 213.776 Q625.028 214.193 622.875 214.193 Q617.018 214.193 613.569 210.512 Q610.12 206.832 610.12 200.582 Q610.12 194.239 613.592 190.605 Q617.088 186.971 623.153 186.971 Q625.12 186.971 626.995 187.387 Q628.87 187.781 630.629 188.591 Z" fill="#000000" fill-rule="evenodd" fill-opacity="1" /></svg>
