<?xml version="1.0" encoding="utf-8"?>
<svg xmlns="http://www.w3.org/2000/svg" xmlns:xlink="http://www.w3.org/1999/xlink" width="350" height="300" viewBox="0 0 1400 1200">
<defs>
  <clipPath id="clip860">
    <rect x="0" y="0" width="1400" height="1200"/>
  </clipPath>
</defs>
<path clip-path="url(#clip860)" d="
M0 1200 L1400 1200 L1400 0 L0 0  Z
  " fill="#ffffff" fill-rule="evenodd" fill-opacity="1"/>
<defs>
  <clipPath id="clip861">
    <rect x="280" y="0" width="981" height="981"/>
  </clipPath>
</defs>
<path clip-path="url(#clip860)" d="
M238.86 1003.73 L1352.76 1003.73 L1352.76 47.2441 L238.86 47.2441  Z
  " fill="#ffffff" fill-rule="evenodd" fill-opacity="1"/>
<defs>
  <clipPath id="clip862">
    <rect x="238" y="47" width="1115" height="957"/>
  </clipPath>
</defs>
<polyline clip-path="url(#clip862)" style="stroke:#000000; stroke-linecap:butt; stroke-linejoin:round; stroke-width:2; stroke-opacity:0.1; fill:none" points="
  248.94,1003.73 248.94,47.2441 
  "/>
<polyline clip-path="url(#clip862)" style="stroke:#000000; stroke-linecap:butt; stroke-linejoin:round; stroke-width:2; stroke-opacity:0.1; fill:none" points="
  463.398,1003.73 463.398,47.2441 
  "/>
<polyline clip-path="url(#clip862)" style="stroke:#000000; stroke-linecap:butt; stroke-linejoin:round; stroke-width:2; stroke-opacity:0.1; fill:none" points="
  677.856,1003.73 677.856,47.2441 
  "/>
<polyline clip-path="url(#clip862)" style="stroke:#000000; stroke-linecap:butt; stroke-linejoin:round; stroke-width:2; stroke-opacity:0.1; fill:none" points="
  892.314,1003.73 892.314,47.2441 
  "/>
<polyline clip-path="url(#clip862)" style="stroke:#000000; stroke-linecap:butt; stroke-linejoin:round; stroke-width:2; stroke-opacity:0.1; fill:none" points="
  1106.77,1003.73 1106.77,47.2441 
  "/>
<polyline clip-path="url(#clip862)" style="stroke:#000000; stroke-linecap:butt; stroke-linejoin:round; stroke-width:2; stroke-opacity:0.1; fill:none" points="
  1321.23,1003.73 1321.23,47.2441 
  "/>
<polyline clip-path="url(#clip860)" style="stroke:#000000; stroke-linecap:butt; stroke-linejoin:round; stroke-width:4; stroke-opacity:1; fill:none" points="
  238.86,1003.73 1352.76,1003.73 
  "/>
<polyline clip-path="url(#clip860)" style="stroke:#000000; stroke-linecap:butt; stroke-linejoin:round; stroke-width:4; stroke-opacity:1; fill:none" points="
  248.94,1003.73 248.94,984.831 
  "/>
<polyline clip-path="url(#clip860)" style="stroke:#000000; stroke-linecap:butt; stroke-linejoin:round; stroke-width:4; stroke-opacity:1; fill:none" points="
  463.398,1003.73 463.398,984.831 
  "/>
<polyline clip-path="url(#clip860)" style="stroke:#000000; stroke-linecap:butt; stroke-linejoin:round; stroke-width:4; stroke-opacity:1; fill:none" points="
  677.856,1003.73 677.856,984.831 
  "/>
<polyline clip-path="url(#clip860)" style="stroke:#000000; stroke-linecap:butt; stroke-linejoin:round; stroke-width:4; stroke-opacity:1; fill:none" points="
  892.314,1003.73 892.314,984.831 
  "/>
<polyline clip-path="url(#clip860)" style="stroke:#000000; stroke-linecap:butt; stroke-linejoin:round; stroke-width:4; stroke-opacity:1; fill:none" points="
  1106.77,1003.73 1106.77,984.831 
  "/>
<polyline clip-path="url(#clip860)" style="stroke:#000000; stroke-linecap:butt; stroke-linejoin:round; stroke-width:4; stroke-opacity:1; fill:none" points="
  1321.23,1003.73 1321.23,984.831 
  "/>
<path clip-path="url(#clip860)" d="M226.324 1026.65 Q222.713 1026.65 220.884 1030.21 Q219.079 1033.75 219.079 1040.88 Q219.079 1047.99 220.884 1051.55 Q222.713 1055.1 226.324 1055.1 Q229.958 1055.1 231.764 1051.55 Q233.592 1047.99 233.592 1040.88 Q233.592 1033.75 231.764 1030.21 Q229.958 1026.65 226.324 1026.65 M226.324 1022.94 Q232.134 1022.94 235.19 1027.55 Q238.268 1032.13 238.268 1040.88 Q238.268 1049.61 235.19 1054.22 Q232.134 1058.8 226.324 1058.8 Q220.514 1058.8 217.435 1054.22 Q214.38 1049.61 214.38 1040.88 Q214.38 1032.13 217.435 1027.55 Q220.514 1022.94 226.324 1022.94 Z" fill="#000000" fill-rule="evenodd" fill-opacity="1" /><path clip-path="url(#clip860)" d="M246.486 1052.25 L251.37 1052.25 L251.37 1058.13 L246.486 1058.13 L246.486 1052.25 Z" fill="#000000" fill-rule="evenodd" fill-opacity="1" /><path clip-path="url(#clip860)" d="M271.555 1026.65 Q267.944 1026.65 266.115 1030.21 Q264.31 1033.75 264.31 1040.88 Q264.31 1047.99 266.115 1051.55 Q267.944 1055.1 271.555 1055.1 Q275.189 1055.1 276.995 1051.55 Q278.824 1047.99 278.824 1040.88 Q278.824 1033.75 276.995 1030.21 Q275.189 1026.65 271.555 1026.65 M271.555 1022.94 Q277.365 1022.94 280.421 1027.55 Q283.5 1032.13 283.5 1040.88 Q283.5 1049.61 280.421 1054.22 Q277.365 1058.8 271.555 1058.8 Q265.745 1058.8 262.666 1054.22 Q259.611 1049.61 259.611 1040.88 Q259.611 1032.13 262.666 1027.55 Q265.745 1022.94 271.555 1022.94 Z" fill="#000000" fill-rule="evenodd" fill-opacity="1" /><path clip-path="url(#clip860)" d="M441.396 1026.65 Q437.784 1026.65 435.956 1030.21 Q434.15 1033.75 434.15 1040.88 Q434.15 1047.99 435.956 1051.55 Q437.784 1055.1 441.396 1055.1 Q445.03 1055.1 446.835 1051.55 Q448.664 1047.99 448.664 1040.88 Q448.664 1033.75 446.835 1030.21 Q445.03 1026.65 441.396 1026.65 M441.396 1022.94 Q447.206 1022.94 450.261 1027.55 Q453.34 1032.13 453.34 1040.88 Q453.34 1049.61 450.261 1054.22 Q447.206 1058.8 441.396 1058.8 Q435.585 1058.8 432.507 1054.22 Q429.451 1049.61 429.451 1040.88 Q429.451 1032.13 432.507 1027.55 Q435.585 1022.94 441.396 1022.94 Z" fill="#000000" fill-rule="evenodd" fill-opacity="1" /><path clip-path="url(#clip860)" d="M461.557 1052.25 L466.442 1052.25 L466.442 1058.13 L461.557 1058.13 L461.557 1052.25 Z" fill="#000000" fill-rule="evenodd" fill-opacity="1" /><path clip-path="url(#clip860)" d="M477.437 1054.19 L485.076 1054.19 L485.076 1027.83 L476.766 1029.49 L476.766 1025.24 L485.03 1023.57 L489.705 1023.57 L489.705 1054.19 L497.344 1054.19 L497.344 1058.13 L477.437 1058.13 L477.437 1054.19 Z" fill="#000000" fill-rule="evenodd" fill-opacity="1" /><path clip-path="url(#clip860)" d="M656.039 1026.65 Q652.428 1026.65 650.599 1030.21 Q648.794 1033.75 648.794 1040.88 Q648.794 1047.99 650.599 1051.55 Q652.428 1055.1 656.039 1055.1 Q659.673 1055.1 661.479 1051.55 Q663.307 1047.99 663.307 1040.88 Q663.307 1033.75 661.479 1030.21 Q659.673 1026.65 656.039 1026.65 M656.039 1022.94 Q661.849 1022.94 664.905 1027.55 Q667.983 1032.13 667.983 1040.88 Q667.983 1049.61 664.905 1054.22 Q661.849 1058.8 656.039 1058.8 Q650.229 1058.8 647.15 1054.22 Q644.095 1049.61 644.095 1040.88 Q644.095 1032.13 647.15 1027.55 Q650.229 1022.94 656.039 1022.94 Z" fill="#000000" fill-rule="evenodd" fill-opacity="1" /><path clip-path="url(#clip860)" d="M676.201 1052.25 L681.085 1052.25 L681.085 1058.13 L676.201 1058.13 L676.201 1052.25 Z" fill="#000000" fill-rule="evenodd" fill-opacity="1" /><path clip-path="url(#clip860)" d="M695.298 1054.19 L711.617 1054.19 L711.617 1058.13 L689.673 1058.13 L689.673 1054.19 Q692.335 1051.44 696.918 1046.81 Q701.525 1042.16 702.705 1040.81 Q704.951 1038.29 705.83 1036.55 Q706.733 1034.8 706.733 1033.11 Q706.733 1030.35 704.789 1028.61 Q702.867 1026.88 699.766 1026.88 Q697.566 1026.88 695.113 1027.64 Q692.682 1028.41 689.904 1029.96 L689.904 1025.24 Q692.729 1024.1 695.182 1023.52 Q697.636 1022.94 699.673 1022.94 Q705.043 1022.94 708.238 1025.63 Q711.432 1028.31 711.432 1032.8 Q711.432 1034.93 710.622 1036.86 Q709.835 1038.75 707.728 1041.35 Q707.15 1042.02 704.048 1045.23 Q700.946 1048.43 695.298 1054.19 Z" fill="#000000" fill-rule="evenodd" fill-opacity="1" /><path clip-path="url(#clip860)" d="M870.023 1026.65 Q866.412 1026.65 864.583 1030.21 Q862.777 1033.75 862.777 1040.88 Q862.777 1047.99 864.583 1051.55 Q866.412 1055.1 870.023 1055.1 Q873.657 1055.1 875.462 1051.55 Q877.291 1047.99 877.291 1040.88 Q877.291 1033.75 875.462 1030.21 Q873.657 1026.65 870.023 1026.65 M870.023 1022.94 Q875.833 1022.94 878.888 1027.55 Q881.967 1032.13 881.967 1040.88 Q881.967 1049.61 878.888 1054.22 Q875.833 1058.8 870.023 1058.8 Q864.212 1058.8 861.134 1054.22 Q858.078 1049.61 858.078 1040.88 Q858.078 1032.13 861.134 1027.55 Q864.212 1022.94 870.023 1022.94 Z" fill="#000000" fill-rule="evenodd" fill-opacity="1" /><path clip-path="url(#clip860)" d="M890.185 1052.25 L895.069 1052.25 L895.069 1058.13 L890.185 1058.13 L890.185 1052.25 Z" fill="#000000" fill-rule="evenodd" fill-opacity="1" /><path clip-path="url(#clip860)" d="M919.42 1039.49 Q922.777 1040.21 924.652 1042.48 Q926.55 1044.75 926.55 1048.08 Q926.55 1053.2 923.032 1056 Q919.513 1058.8 913.032 1058.8 Q910.856 1058.8 908.541 1058.36 Q906.249 1057.94 903.796 1057.09 L903.796 1052.57 Q905.74 1053.71 908.055 1054.29 Q910.37 1054.86 912.893 1054.86 Q917.291 1054.86 919.583 1053.13 Q921.897 1051.39 921.897 1048.08 Q921.897 1045.03 919.745 1043.31 Q917.615 1041.58 913.796 1041.58 L909.768 1041.58 L909.768 1037.74 L913.981 1037.74 Q917.43 1037.74 919.258 1036.37 Q921.087 1034.98 921.087 1032.39 Q921.087 1029.73 919.189 1028.31 Q917.314 1026.88 913.796 1026.88 Q911.874 1026.88 909.675 1027.3 Q907.476 1027.71 904.837 1028.59 L904.837 1024.42 Q907.499 1023.68 909.814 1023.31 Q912.152 1022.94 914.212 1022.94 Q919.536 1022.94 922.638 1025.37 Q925.74 1027.78 925.74 1031.9 Q925.74 1034.77 924.096 1036.76 Q922.453 1038.73 919.42 1039.49 Z" fill="#000000" fill-rule="evenodd" fill-opacity="1" /><path clip-path="url(#clip860)" d="M1083.91 1026.65 Q1080.3 1026.65 1078.47 1030.21 Q1076.67 1033.75 1076.67 1040.88 Q1076.67 1047.99 1078.47 1051.55 Q1080.3 1055.1 1083.91 1055.1 Q1087.55 1055.1 1089.35 1051.55 Q1091.18 1047.99 1091.18 1040.88 Q1091.18 1033.75 1089.35 1030.21 Q1087.55 1026.65 1083.91 1026.65 M1083.91 1022.94 Q1089.72 1022.94 1092.78 1027.55 Q1095.86 1032.13 1095.86 1040.88 Q1095.86 1049.61 1092.78 1054.22 Q1089.72 1058.8 1083.91 1058.8 Q1078.1 1058.8 1075.02 1054.22 Q1071.97 1049.61 1071.97 1040.88 Q1071.97 1032.13 1075.02 1027.55 Q1078.1 1022.94 1083.91 1022.94 Z" fill="#000000" fill-rule="evenodd" fill-opacity="1" /><path clip-path="url(#clip860)" d="M1104.08 1052.25 L1108.96 1052.25 L1108.96 1058.13 L1104.08 1058.13 L1104.08 1052.25 Z" fill="#000000" fill-rule="evenodd" fill-opacity="1" /><path clip-path="url(#clip860)" d="M1131.99 1027.64 L1120.19 1046.09 L1131.99 1046.09 L1131.99 1027.64 M1130.77 1023.57 L1136.64 1023.57 L1136.64 1046.09 L1141.58 1046.09 L1141.58 1049.98 L1136.64 1049.98 L1136.64 1058.13 L1131.99 1058.13 L1131.99 1049.98 L1116.39 1049.98 L1116.39 1045.47 L1130.77 1023.57 Z" fill="#000000" fill-rule="evenodd" fill-opacity="1" /><path clip-path="url(#clip860)" d="M1299.11 1026.65 Q1295.5 1026.65 1293.67 1030.21 Q1291.87 1033.75 1291.87 1040.88 Q1291.87 1047.99 1293.67 1051.55 Q1295.5 1055.1 1299.11 1055.1 Q1302.75 1055.1 1304.55 1051.55 Q1306.38 1047.99 1306.38 1040.88 Q1306.38 1033.75 1304.55 1030.21 Q1302.75 1026.65 1299.11 1026.65 M1299.11 1022.94 Q1304.92 1022.94 1307.98 1027.55 Q1311.06 1032.13 1311.06 1040.88 Q1311.06 1049.61 1307.98 1054.22 Q1304.92 1058.8 1299.11 1058.8 Q1293.3 1058.8 1290.22 1054.22 Q1287.17 1049.61 1287.17 1040.88 Q1287.17 1032.13 1290.22 1027.55 Q1293.3 1022.94 1299.11 1022.94 Z" fill="#000000" fill-rule="evenodd" fill-opacity="1" /><path clip-path="url(#clip860)" d="M1319.27 1052.25 L1324.16 1052.25 L1324.16 1058.13 L1319.27 1058.13 L1319.27 1052.25 Z" fill="#000000" fill-rule="evenodd" fill-opacity="1" /><path clip-path="url(#clip860)" d="M1334.39 1023.57 L1352.75 1023.57 L1352.75 1027.5 L1338.67 1027.5 L1338.67 1035.98 Q1339.69 1035.63 1340.71 1035.47 Q1341.73 1035.28 1342.75 1035.28 Q1348.53 1035.28 1351.91 1038.45 Q1355.29 1041.62 1355.29 1047.04 Q1355.29 1052.62 1351.82 1055.72 Q1348.35 1058.8 1342.03 1058.8 Q1339.85 1058.8 1337.58 1058.43 Q1335.34 1058.06 1332.93 1057.32 L1332.93 1052.62 Q1335.02 1053.75 1337.24 1054.31 Q1339.46 1054.86 1341.94 1054.86 Q1345.94 1054.86 1348.28 1052.76 Q1350.62 1050.65 1350.62 1047.04 Q1350.62 1043.43 1348.28 1041.32 Q1345.94 1039.22 1341.94 1039.22 Q1340.06 1039.22 1338.19 1039.63 Q1336.33 1040.05 1334.39 1040.93 L1334.39 1023.57 Z" fill="#000000" fill-rule="evenodd" fill-opacity="1" /><path clip-path="url(#clip860)" d="M494.949 1087.63 L494.949 1093.9 Q491.288 1092.15 488.042 1091.29 Q484.795 1090.43 481.772 1090.43 Q476.52 1090.43 473.655 1092.47 Q470.823 1094.51 470.823 1098.26 Q470.823 1101.41 472.701 1103.04 Q474.61 1104.63 479.894 1105.62 L483.777 1106.41 Q490.97 1107.78 494.376 1111.25 Q497.813 1114.69 497.813 1120.48 Q497.813 1127.39 493.166 1130.95 Q488.551 1134.52 479.607 1134.52 Q476.234 1134.52 472.414 1133.75 Q468.627 1132.99 464.552 1131.49 L464.552 1124.87 Q468.467 1127.07 472.223 1128.18 Q475.979 1129.3 479.607 1129.3 Q485.114 1129.3 488.106 1127.13 Q491.097 1124.97 491.097 1120.96 Q491.097 1117.46 488.933 1115.48 Q486.801 1113.51 481.899 1112.52 L477.984 1111.76 Q470.791 1110.33 467.576 1107.27 Q464.362 1104.21 464.362 1098.77 Q464.362 1092.47 468.786 1088.84 Q473.242 1085.21 481.04 1085.21 Q484.382 1085.21 487.851 1085.82 Q491.32 1086.42 494.949 1087.63 Z" fill="#000000" fill-rule="evenodd" fill-opacity="1" /><path clip-path="url(#clip860)" d="M513.377 1087.82 L513.377 1097.94 L525.44 1097.94 L525.44 1102.5 L513.377 1102.5 L513.377 1121.85 Q513.377 1126.21 514.555 1127.45 Q515.765 1128.69 519.425 1128.69 L525.44 1128.69 L525.44 1133.59 L519.425 1133.59 Q512.645 1133.59 510.067 1131.08 Q507.489 1128.53 507.489 1121.85 L507.489 1102.5 L503.192 1102.5 L503.192 1097.94 L507.489 1097.94 L507.489 1087.82 L513.377 1087.82 Z" fill="#000000" fill-rule="evenodd" fill-opacity="1" /><path clip-path="url(#clip860)" d="M549.344 1115.67 Q542.246 1115.67 539.509 1117.3 Q536.771 1118.92 536.771 1122.83 Q536.771 1125.95 538.808 1127.8 Q540.877 1129.61 544.41 1129.61 Q549.28 1129.61 552.208 1126.18 Q555.168 1122.71 555.168 1116.98 L555.168 1115.67 L549.344 1115.67 M561.025 1113.25 L561.025 1133.59 L555.168 1133.59 L555.168 1128.18 Q553.163 1131.43 550.171 1132.99 Q547.179 1134.52 542.851 1134.52 Q537.376 1134.52 534.13 1131.46 Q530.915 1128.37 530.915 1123.22 Q530.915 1117.2 534.925 1114.15 Q538.968 1111.09 546.957 1111.09 L555.168 1111.09 L555.168 1110.52 Q555.168 1106.47 552.495 1104.28 Q549.853 1102.05 545.047 1102.05 Q541.991 1102.05 539.095 1102.78 Q536.199 1103.51 533.525 1104.98 L533.525 1099.57 Q536.74 1098.33 539.763 1097.72 Q542.787 1097.09 545.652 1097.09 Q553.386 1097.09 557.205 1101.1 Q561.025 1105.11 561.025 1113.25 Z" fill="#000000" fill-rule="evenodd" fill-opacity="1" /><path clip-path="url(#clip860)" d="M593.745 1103.42 Q592.758 1102.85 591.58 1102.59 Q590.434 1102.3 589.034 1102.3 Q584.069 1102.3 581.395 1105.55 Q578.753 1108.77 578.753 1114.81 L578.753 1133.59 L572.865 1133.59 L572.865 1097.94 L578.753 1097.94 L578.753 1103.48 Q580.599 1100.24 583.559 1098.68 Q586.519 1097.09 590.753 1097.09 Q591.357 1097.09 592.089 1097.18 Q592.821 1097.24 593.713 1097.4 L593.745 1103.42 Z" fill="#000000" fill-rule="evenodd" fill-opacity="1" /><path clip-path="url(#clip860)" d="M605.68 1087.82 L605.68 1097.94 L617.743 1097.94 L617.743 1102.5 L605.68 1102.5 L605.68 1121.85 Q605.68 1126.21 606.858 1127.45 Q608.067 1128.69 611.728 1128.69 L617.743 1128.69 L617.743 1133.59 L611.728 1133.59 Q604.948 1133.59 602.37 1131.08 Q599.792 1128.53 599.792 1121.85 L599.792 1102.5 L595.495 1102.5 L595.495 1097.94 L599.792 1097.94 L599.792 1087.82 L605.68 1087.82 Z" fill="#000000" fill-rule="evenodd" fill-opacity="1" /><path clip-path="url(#clip860)" d="M625.446 1097.94 L631.302 1097.94 L631.302 1133.59 L625.446 1133.59 L625.446 1097.94 M625.446 1084.07 L631.302 1084.07 L631.302 1091.48 L625.446 1091.48 L625.446 1084.07 Z" fill="#000000" fill-rule="evenodd" fill-opacity="1" /><path clip-path="url(#clip860)" d="M673.189 1112.08 L673.189 1133.59 L667.332 1133.59 L667.332 1112.27 Q667.332 1107.21 665.359 1104.69 Q663.385 1102.18 659.439 1102.18 Q654.696 1102.18 651.959 1105.2 Q649.222 1108.23 649.222 1113.44 L649.222 1133.59 L643.333 1133.59 L643.333 1097.94 L649.222 1097.94 L649.222 1103.48 Q651.322 1100.27 654.155 1098.68 Q657.02 1097.09 660.744 1097.09 Q666.886 1097.09 670.038 1100.9 Q673.189 1104.69 673.189 1112.08 Z" fill="#000000" fill-rule="evenodd" fill-opacity="1" /><path clip-path="url(#clip860)" d="M708.327 1115.35 Q708.327 1108.99 705.685 1105.49 Q703.076 1101.99 698.333 1101.99 Q693.622 1101.99 690.981 1105.49 Q688.371 1108.99 688.371 1115.35 Q688.371 1121.69 690.981 1125.19 Q693.622 1128.69 698.333 1128.69 Q703.076 1128.69 705.685 1125.19 Q708.327 1121.69 708.327 1115.35 M714.184 1129.17 Q714.184 1138.27 710.141 1142.7 Q706.099 1147.15 697.76 1147.15 Q694.673 1147.15 691.936 1146.67 Q689.198 1146.23 686.62 1145.27 L686.62 1139.58 Q689.198 1140.98 691.713 1141.65 Q694.227 1142.31 696.837 1142.31 Q702.598 1142.31 705.463 1139.29 Q708.327 1136.3 708.327 1130.22 L708.327 1127.32 Q706.513 1130.47 703.68 1132.03 Q700.848 1133.59 696.901 1133.59 Q690.344 1133.59 686.334 1128.6 Q682.323 1123.6 682.323 1115.35 Q682.323 1107.08 686.334 1102.08 Q690.344 1097.09 696.901 1097.09 Q700.848 1097.09 703.68 1098.64 Q706.513 1100.2 708.327 1103.36 L708.327 1097.94 L714.184 1097.94 L714.184 1129.17 Z" fill="#000000" fill-rule="evenodd" fill-opacity="1" /><path clip-path="url(#clip860)" d="M747.222 1086.07 L753.651 1086.07 L753.651 1105.55 L777.013 1105.55 L777.013 1086.07 L783.443 1086.07 L783.443 1133.59 L777.013 1133.59 L777.013 1110.96 L753.651 1110.96 L753.651 1133.59 L747.222 1133.59 L747.222 1086.07 Z" fill="#000000" fill-rule="evenodd" fill-opacity="1" /><path clip-path="url(#clip860)" d="M826.475 1114.3 L826.475 1117.17 L799.548 1117.17 Q799.93 1123.22 803.176 1126.4 Q806.455 1129.55 812.279 1129.55 Q815.653 1129.55 818.804 1128.72 Q821.987 1127.9 825.106 1126.24 L825.106 1131.78 Q821.955 1133.11 818.645 1133.82 Q815.335 1134.52 811.929 1134.52 Q803.399 1134.52 798.402 1129.55 Q793.437 1124.58 793.437 1116.12 Q793.437 1107.37 798.147 1102.24 Q802.89 1097.09 810.911 1097.09 Q818.104 1097.09 822.273 1101.73 Q826.475 1106.35 826.475 1114.3 M820.618 1112.59 Q820.555 1107.78 817.913 1104.91 Q815.303 1102.05 810.974 1102.05 Q806.073 1102.05 803.113 1104.82 Q800.184 1107.59 799.739 1112.62 L820.618 1112.59 Z" fill="#000000" fill-rule="evenodd" fill-opacity="1" /><path clip-path="url(#clip860)" d="M836.087 1097.94 L841.943 1097.94 L841.943 1133.59 L836.087 1133.59 L836.087 1097.94 M836.087 1084.07 L841.943 1084.07 L841.943 1091.48 L836.087 1091.48 L836.087 1084.07 Z" fill="#000000" fill-rule="evenodd" fill-opacity="1" /><path clip-path="url(#clip860)" d="M877.655 1115.35 Q877.655 1108.99 875.013 1105.49 Q872.403 1101.99 867.661 1101.99 Q862.95 1101.99 860.308 1105.49 Q857.699 1108.99 857.699 1115.35 Q857.699 1121.69 860.308 1125.19 Q862.95 1128.69 867.661 1128.69 Q872.403 1128.69 875.013 1125.19 Q877.655 1121.69 877.655 1115.35 M883.511 1129.17 Q883.511 1138.27 879.469 1142.7 Q875.427 1147.15 867.088 1147.15 Q864.001 1147.15 861.263 1146.67 Q858.526 1146.23 855.948 1145.27 L855.948 1139.58 Q858.526 1140.98 861.041 1141.65 Q863.555 1142.31 866.165 1142.31 Q871.926 1142.31 874.79 1139.29 Q877.655 1136.3 877.655 1130.22 L877.655 1127.32 Q875.841 1130.47 873.008 1132.03 Q870.175 1133.59 866.229 1133.59 Q859.672 1133.59 855.662 1128.6 Q851.651 1123.6 851.651 1115.35 Q851.651 1107.08 855.662 1102.08 Q859.672 1097.09 866.229 1097.09 Q870.175 1097.09 873.008 1098.64 Q875.841 1100.2 877.655 1103.36 L877.655 1097.94 L883.511 1097.94 L883.511 1129.17 Z" fill="#000000" fill-rule="evenodd" fill-opacity="1" /><path clip-path="url(#clip860)" d="M925.207 1112.08 L925.207 1133.59 L919.35 1133.59 L919.35 1112.27 Q919.35 1107.21 917.377 1104.69 Q915.404 1102.18 911.457 1102.18 Q906.714 1102.18 903.977 1105.2 Q901.24 1108.23 901.24 1113.44 L901.24 1133.59 L895.352 1133.59 L895.352 1084.07 L901.24 1084.07 L901.24 1103.48 Q903.341 1100.27 906.173 1098.68 Q909.038 1097.09 912.762 1097.09 Q918.905 1097.09 922.056 1100.9 Q925.207 1104.69 925.207 1112.08 Z" fill="#000000" fill-rule="evenodd" fill-opacity="1" /><path clip-path="url(#clip860)" d="M942.681 1087.82 L942.681 1097.94 L954.744 1097.94 L954.744 1102.5 L942.681 1102.5 L942.681 1121.85 Q942.681 1126.21 943.858 1127.45 Q945.068 1128.69 948.728 1128.69 L954.744 1128.69 L954.744 1133.59 L948.728 1133.59 Q941.949 1133.59 939.371 1131.08 Q936.792 1128.53 936.792 1121.85 L936.792 1102.5 L932.496 1102.5 L932.496 1097.94 L936.792 1097.94 L936.792 1087.82 L942.681 1087.82 Z" fill="#000000" fill-rule="evenodd" fill-opacity="1" /><path clip-path="url(#clip860)" d="M982.626 1084.07 L996.121 1084.07 L996.121 1088.62 L988.482 1088.62 L988.482 1137.63 L996.121 1137.63 L996.121 1142.19 L982.626 1142.19 L982.626 1084.07 Z" fill="#000000" fill-rule="evenodd" fill-opacity="1" /><path clip-path="url(#clip860)" d="M1007.99 1147.15 L1007.99 1097.94 L1013.85 1097.94 L1013.85 1120.1 Q1013.85 1124.71 1016.05 1127.07 Q1018.24 1129.42 1022.54 1129.42 Q1027.25 1129.42 1029.6 1126.75 Q1031.99 1124.08 1031.99 1118.73 L1031.99 1097.94 L1037.85 1097.94 L1037.85 1125.38 Q1037.85 1127.29 1038.39 1128.21 Q1038.96 1129.1 1040.14 1129.1 Q1040.43 1129.1 1040.94 1128.95 Q1041.44 1128.75 1042.34 1128.37 L1042.34 1133.08 Q1041.03 1133.82 1039.85 1134.17 Q1038.71 1134.52 1037.59 1134.52 Q1035.4 1134.52 1034.09 1133.27 Q1032.79 1132.03 1032.31 1129.49 Q1030.72 1132 1028.39 1133.27 Q1026.1 1134.52 1022.98 1134.52 Q1019.74 1134.52 1017.45 1133.27 Q1015.19 1132.03 1013.85 1129.55 L1013.85 1147.15 L1007.99 1147.15 Z" fill="#000000" fill-rule="evenodd" fill-opacity="1" /><path clip-path="url(#clip860)" d="M1077.82 1104.79 Q1080.02 1100.84 1083.08 1098.96 Q1086.13 1097.09 1090.27 1097.09 Q1095.84 1097.09 1098.86 1101 Q1101.89 1104.88 1101.89 1112.08 L1101.89 1133.59 L1096 1133.59 L1096 1112.27 Q1096 1107.14 1094.18 1104.66 Q1092.37 1102.18 1088.65 1102.18 Q1084.09 1102.18 1081.45 1105.2 Q1078.81 1108.23 1078.81 1113.44 L1078.81 1133.59 L1072.92 1133.59 L1072.92 1112.27 Q1072.92 1107.11 1071.11 1104.66 Q1069.29 1102.18 1065.51 1102.18 Q1061.02 1102.18 1058.38 1105.23 Q1055.74 1108.26 1055.74 1113.44 L1055.74 1133.59 L1049.85 1133.59 L1049.85 1097.94 L1055.74 1097.94 L1055.74 1103.48 Q1057.74 1100.2 1060.54 1098.64 Q1063.34 1097.09 1067.19 1097.09 Q1071.08 1097.09 1073.78 1099.06 Q1076.52 1101.03 1077.82 1104.79 Z" fill="#000000" fill-rule="evenodd" fill-opacity="1" /><path clip-path="url(#clip860)" d="M1127.25 1084.07 L1127.25 1142.19 L1113.76 1142.19 L1113.76 1137.63 L1121.37 1137.63 L1121.37 1088.62 L1113.76 1088.62 L1113.76 1084.07 L1127.25 1084.07 Z" fill="#000000" fill-rule="evenodd" fill-opacity="1" /><polyline clip-path="url(#clip862)" style="stroke:#000000; stroke-linecap:butt; stroke-linejoin:round; stroke-width:2; stroke-opacity:0.1; fill:none" points="
  238.86,1003.73 1352.76,1003.73 
  "/>
<polyline clip-path="url(#clip862)" style="stroke:#000000; stroke-linecap:butt; stroke-linejoin:round; stroke-width:2; stroke-opacity:0.1; fill:none" points="
  238.86,846.928 1352.76,846.928 
  "/>
<polyline clip-path="url(#clip862)" style="stroke:#000000; stroke-linecap:butt; stroke-linejoin:round; stroke-width:2; stroke-opacity:0.1; fill:none" points="
  238.86,690.127 1352.76,690.127 
  "/>
<polyline clip-path="url(#clip862)" style="stroke:#000000; stroke-linecap:butt; stroke-linejoin:round; stroke-width:2; stroke-opacity:0.1; fill:none" points="
  238.86,533.326 1352.76,533.326 
  "/>
<polyline clip-path="url(#clip862)" style="stroke:#000000; stroke-linecap:butt; stroke-linejoin:round; stroke-width:2; stroke-opacity:0.1; fill:none" points="
  238.86,376.526 1352.76,376.526 
  "/>
<polyline clip-path="url(#clip862)" style="stroke:#000000; stroke-linecap:butt; stroke-linejoin:round; stroke-width:2; stroke-opacity:0.1; fill:none" points="
  238.86,219.725 1352.76,219.725 
  "/>
<polyline clip-path="url(#clip862)" style="stroke:#000000; stroke-linecap:butt; stroke-linejoin:round; stroke-width:2; stroke-opacity:0.1; fill:none" points="
  238.86,62.9242 1352.76,62.9242 
  "/>
<polyline clip-path="url(#clip860)" style="stroke:#000000; stroke-linecap:butt; stroke-linejoin:round; stroke-width:4; stroke-opacity:1; fill:none" points="
  238.86,1003.73 238.86,47.2441 
  "/>
<polyline clip-path="url(#clip860)" style="stroke:#000000; stroke-linecap:butt; stroke-linejoin:round; stroke-width:4; stroke-opacity:1; fill:none" points="
  238.86,1003.73 257.758,1003.73 
  "/>
<polyline clip-path="url(#clip860)" style="stroke:#000000; stroke-linecap:butt; stroke-linejoin:round; stroke-width:4; stroke-opacity:1; fill:none" points="
  238.86,846.928 257.758,846.928 
  "/>
<polyline clip-path="url(#clip860)" style="stroke:#000000; stroke-linecap:butt; stroke-linejoin:round; stroke-width:4; stroke-opacity:1; fill:none" points="
  238.86,690.127 257.758,690.127 
  "/>
<polyline clip-path="url(#clip860)" style="stroke:#000000; stroke-linecap:butt; stroke-linejoin:round; stroke-width:4; stroke-opacity:1; fill:none" points="
  238.86,533.326 257.758,533.326 
  "/>
<polyline clip-path="url(#clip860)" style="stroke:#000000; stroke-linecap:butt; stroke-linejoin:round; stroke-width:4; stroke-opacity:1; fill:none" points="
  238.86,376.526 257.758,376.526 
  "/>
<polyline clip-path="url(#clip860)" style="stroke:#000000; stroke-linecap:butt; stroke-linejoin:round; stroke-width:4; stroke-opacity:1; fill:none" points="
  238.86,219.725 257.758,219.725 
  "/>
<polyline clip-path="url(#clip860)" style="stroke:#000000; stroke-linecap:butt; stroke-linejoin:round; stroke-width:4; stroke-opacity:1; fill:none" points="
  238.86,62.9242 257.758,62.9242 
  "/>
<path clip-path="url(#clip860)" d="M205.916 989.527 Q202.305 989.527 200.476 993.092 Q198.67 996.634 198.67 1003.76 Q198.67 1010.87 200.476 1014.43 Q202.305 1017.98 205.916 1017.98 Q209.55 1017.98 211.355 1014.43 Q213.184 1010.87 213.184 1003.76 Q213.184 996.634 211.355 993.092 Q209.55 989.527 205.916 989.527 M205.916 985.823 Q211.726 985.823 214.781 990.43 Q217.86 995.013 217.86 1003.76 Q217.86 1012.49 214.781 1017.1 Q211.726 1021.68 205.916 1021.68 Q200.105 1021.68 197.027 1017.1 Q193.971 1012.49 193.971 1003.76 Q193.971 995.013 197.027 990.43 Q200.105 985.823 205.916 985.823 Z" fill="#000000" fill-rule="evenodd" fill-opacity="1" /><path clip-path="url(#clip860)" d="M136.402 860.273 L144.041 860.273 L144.041 833.907 L135.731 835.574 L135.731 831.314 L143.995 829.648 L148.671 829.648 L148.671 860.273 L156.309 860.273 L156.309 864.208 L136.402 864.208 L136.402 860.273 Z" fill="#000000" fill-rule="evenodd" fill-opacity="1" /><path clip-path="url(#clip860)" d="M175.754 832.726 Q172.143 832.726 170.314 836.291 Q168.508 839.833 168.508 846.962 Q168.508 854.069 170.314 857.634 Q172.143 861.175 175.754 861.175 Q179.388 861.175 181.194 857.634 Q183.022 854.069 183.022 846.962 Q183.022 839.833 181.194 836.291 Q179.388 832.726 175.754 832.726 M175.754 829.023 Q181.564 829.023 184.619 833.629 Q187.698 838.212 187.698 846.962 Q187.698 855.689 184.619 860.296 Q181.564 864.879 175.754 864.879 Q169.944 864.879 166.865 860.296 Q163.809 855.689 163.809 846.962 Q163.809 838.212 166.865 833.629 Q169.944 829.023 175.754 829.023 Z" fill="#000000" fill-rule="evenodd" fill-opacity="1" /><path clip-path="url(#clip860)" d="M205.916 832.726 Q202.305 832.726 200.476 836.291 Q198.67 839.833 198.67 846.962 Q198.67 854.069 200.476 857.634 Q202.305 861.175 205.916 861.175 Q209.55 861.175 211.355 857.634 Q213.184 854.069 213.184 846.962 Q213.184 839.833 211.355 836.291 Q209.55 832.726 205.916 832.726 M205.916 829.023 Q211.726 829.023 214.781 833.629 Q217.86 838.212 217.86 846.962 Q217.86 855.689 214.781 860.296 Q211.726 864.879 205.916 864.879 Q200.105 864.879 197.027 860.296 Q193.971 855.689 193.971 846.962 Q193.971 838.212 197.027 833.629 Q200.105 829.023 205.916 829.023 Z" fill="#000000" fill-rule="evenodd" fill-opacity="1" /><path clip-path="url(#clip860)" d="M139.62 703.472 L155.939 703.472 L155.939 707.407 L133.995 707.407 L133.995 703.472 Q136.657 700.717 141.24 696.088 Q145.846 691.435 147.027 690.092 Q149.272 687.569 150.152 685.833 Q151.055 684.074 151.055 682.384 Q151.055 679.629 149.11 677.893 Q147.189 676.157 144.087 676.157 Q141.888 676.157 139.434 676.921 Q137.004 677.685 134.226 679.236 L134.226 674.514 Q137.05 673.379 139.504 672.801 Q141.958 672.222 143.995 672.222 Q149.365 672.222 152.559 674.907 Q155.754 677.592 155.754 682.083 Q155.754 684.213 154.944 686.134 Q154.157 688.032 152.05 690.625 Q151.471 691.296 148.37 694.514 Q145.268 697.708 139.62 703.472 Z" fill="#000000" fill-rule="evenodd" fill-opacity="1" /><path clip-path="url(#clip860)" d="M175.754 675.926 Q172.143 675.926 170.314 679.49 Q168.508 683.032 168.508 690.162 Q168.508 697.268 170.314 700.833 Q172.143 704.375 175.754 704.375 Q179.388 704.375 181.194 700.833 Q183.022 697.268 183.022 690.162 Q183.022 683.032 181.194 679.49 Q179.388 675.926 175.754 675.926 M175.754 672.222 Q181.564 672.222 184.619 676.828 Q187.698 681.412 187.698 690.162 Q187.698 698.889 184.619 703.495 Q181.564 708.078 175.754 708.078 Q169.944 708.078 166.865 703.495 Q163.809 698.889 163.809 690.162 Q163.809 681.412 166.865 676.828 Q169.944 672.222 175.754 672.222 Z" fill="#000000" fill-rule="evenodd" fill-opacity="1" /><path clip-path="url(#clip860)" d="M205.916 675.926 Q202.305 675.926 200.476 679.49 Q198.67 683.032 198.67 690.162 Q198.67 697.268 200.476 700.833 Q202.305 704.375 205.916 704.375 Q209.55 704.375 211.355 700.833 Q213.184 697.268 213.184 690.162 Q213.184 683.032 211.355 679.49 Q209.55 675.926 205.916 675.926 M205.916 672.222 Q211.726 672.222 214.781 676.828 Q217.86 681.412 217.86 690.162 Q217.86 698.889 214.781 703.495 Q211.726 708.078 205.916 708.078 Q200.105 708.078 197.027 703.495 Q193.971 698.889 193.971 690.162 Q193.971 681.412 197.027 676.828 Q200.105 672.222 205.916 672.222 Z" fill="#000000" fill-rule="evenodd" fill-opacity="1" /><path clip-path="url(#clip860)" d="M149.759 531.972 Q153.115 532.69 154.99 534.958 Q156.888 537.227 156.888 540.56 Q156.888 545.676 153.37 548.477 Q149.851 551.278 143.37 551.278 Q141.194 551.278 138.879 550.838 Q136.587 550.421 134.134 549.565 L134.134 545.051 Q136.078 546.185 138.393 546.764 Q140.708 547.342 143.231 547.342 Q147.629 547.342 149.921 545.606 Q152.235 543.87 152.235 540.56 Q152.235 537.505 150.083 535.792 Q147.953 534.055 144.134 534.055 L140.106 534.055 L140.106 530.213 L144.319 530.213 Q147.768 530.213 149.596 528.847 Q151.425 527.458 151.425 524.866 Q151.425 522.204 149.527 520.792 Q147.652 519.356 144.134 519.356 Q142.212 519.356 140.013 519.773 Q137.814 520.19 135.175 521.069 L135.175 516.903 Q137.837 516.162 140.152 515.792 Q142.49 515.421 144.55 515.421 Q149.874 515.421 152.976 517.852 Q156.078 520.259 156.078 524.38 Q156.078 527.25 154.434 529.241 Q152.791 531.208 149.759 531.972 Z" fill="#000000" fill-rule="evenodd" fill-opacity="1" /><path clip-path="url(#clip860)" d="M175.754 519.125 Q172.143 519.125 170.314 522.69 Q168.508 526.231 168.508 533.361 Q168.508 540.467 170.314 544.032 Q172.143 547.574 175.754 547.574 Q179.388 547.574 181.194 544.032 Q183.022 540.467 183.022 533.361 Q183.022 526.231 181.194 522.69 Q179.388 519.125 175.754 519.125 M175.754 515.421 Q181.564 515.421 184.619 520.028 Q187.698 524.611 187.698 533.361 Q187.698 542.088 184.619 546.694 Q181.564 551.278 175.754 551.278 Q169.944 551.278 166.865 546.694 Q163.809 542.088 163.809 533.361 Q163.809 524.611 166.865 520.028 Q169.944 515.421 175.754 515.421 Z" fill="#000000" fill-rule="evenodd" fill-opacity="1" /><path clip-path="url(#clip860)" d="M205.916 519.125 Q202.305 519.125 200.476 522.69 Q198.67 526.231 198.67 533.361 Q198.67 540.467 200.476 544.032 Q202.305 547.574 205.916 547.574 Q209.55 547.574 211.355 544.032 Q213.184 540.467 213.184 533.361 Q213.184 526.231 211.355 522.69 Q209.55 519.125 205.916 519.125 M205.916 515.421 Q211.726 515.421 214.781 520.028 Q217.86 524.611 217.86 533.361 Q217.86 542.088 214.781 546.694 Q211.726 551.278 205.916 551.278 Q200.105 551.278 197.027 546.694 Q193.971 542.088 193.971 533.361 Q193.971 524.611 197.027 520.028 Q200.105 515.421 205.916 515.421 Z" fill="#000000" fill-rule="evenodd" fill-opacity="1" /><path clip-path="url(#clip860)" d="M148.439 363.32 L136.634 381.769 L148.439 381.769 L148.439 363.32 M147.212 359.246 L153.092 359.246 L153.092 381.769 L158.022 381.769 L158.022 385.657 L153.092 385.657 L153.092 393.806 L148.439 393.806 L148.439 385.657 L132.837 385.657 L132.837 381.144 L147.212 359.246 Z" fill="#000000" fill-rule="evenodd" fill-opacity="1" /><path clip-path="url(#clip860)" d="M175.754 362.324 Q172.143 362.324 170.314 365.889 Q168.508 369.431 168.508 376.56 Q168.508 383.667 170.314 387.232 Q172.143 390.773 175.754 390.773 Q179.388 390.773 181.194 387.232 Q183.022 383.667 183.022 376.56 Q183.022 369.431 181.194 365.889 Q179.388 362.324 175.754 362.324 M175.754 358.621 Q181.564 358.621 184.619 363.227 Q187.698 367.81 187.698 376.56 Q187.698 385.287 184.619 389.894 Q181.564 394.477 175.754 394.477 Q169.944 394.477 166.865 389.894 Q163.809 385.287 163.809 376.56 Q163.809 367.81 166.865 363.227 Q169.944 358.621 175.754 358.621 Z" fill="#000000" fill-rule="evenodd" fill-opacity="1" /><path clip-path="url(#clip860)" d="M205.916 362.324 Q202.305 362.324 200.476 365.889 Q198.67 369.431 198.67 376.56 Q198.67 383.667 200.476 387.232 Q202.305 390.773 205.916 390.773 Q209.55 390.773 211.355 387.232 Q213.184 383.667 213.184 376.56 Q213.184 369.431 211.355 365.889 Q209.55 362.324 205.916 362.324 M205.916 358.621 Q211.726 358.621 214.781 363.227 Q217.86 367.81 217.86 376.56 Q217.86 385.287 214.781 389.894 Q211.726 394.477 205.916 394.477 Q200.105 394.477 197.027 389.894 Q193.971 385.287 193.971 376.56 Q193.971 367.81 197.027 363.227 Q200.105 358.621 205.916 358.621 Z" fill="#000000" fill-rule="evenodd" fill-opacity="1" /><path clip-path="url(#clip860)" d="M135.638 202.445 L153.995 202.445 L153.995 206.38 L139.921 206.38 L139.921 214.852 Q140.939 214.505 141.958 214.343 Q142.976 214.158 143.995 214.158 Q149.782 214.158 153.161 217.329 Q156.541 220.5 156.541 225.917 Q156.541 231.496 153.069 234.597 Q149.596 237.676 143.277 237.676 Q141.101 237.676 138.833 237.306 Q136.587 236.935 134.18 236.195 L134.18 231.496 Q136.263 232.63 138.485 233.185 Q140.708 233.741 143.184 233.741 Q147.189 233.741 149.527 231.635 Q151.865 229.528 151.865 225.917 Q151.865 222.306 149.527 220.199 Q147.189 218.093 143.184 218.093 Q141.309 218.093 139.434 218.51 Q137.583 218.926 135.638 219.806 L135.638 202.445 Z" fill="#000000" fill-rule="evenodd" fill-opacity="1" /><path clip-path="url(#clip860)" d="M175.754 205.524 Q172.143 205.524 170.314 209.088 Q168.508 212.63 168.508 219.76 Q168.508 226.866 170.314 230.431 Q172.143 233.972 175.754 233.972 Q179.388 233.972 181.194 230.431 Q183.022 226.866 183.022 219.76 Q183.022 212.63 181.194 209.088 Q179.388 205.524 175.754 205.524 M175.754 201.82 Q181.564 201.82 184.619 206.426 Q187.698 211.01 187.698 219.76 Q187.698 228.486 184.619 233.093 Q181.564 237.676 175.754 237.676 Q169.944 237.676 166.865 233.093 Q163.809 228.486 163.809 219.76 Q163.809 211.01 166.865 206.426 Q169.944 201.82 175.754 201.82 Z" fill="#000000" fill-rule="evenodd" fill-opacity="1" /><path clip-path="url(#clip860)" d="M205.916 205.524 Q202.305 205.524 200.476 209.088 Q198.67 212.63 198.67 219.76 Q198.67 226.866 200.476 230.431 Q202.305 233.972 205.916 233.972 Q209.55 233.972 211.355 230.431 Q213.184 226.866 213.184 219.76 Q213.184 212.63 211.355 209.088 Q209.55 205.524 205.916 205.524 M205.916 201.82 Q211.726 201.82 214.781 206.426 Q217.86 211.01 217.86 219.76 Q217.86 228.486 214.781 233.093 Q211.726 237.676 205.916 237.676 Q200.105 237.676 197.027 233.093 Q193.971 228.486 193.971 219.76 Q193.971 211.01 197.027 206.426 Q200.105 201.82 205.916 201.82 Z" fill="#000000" fill-rule="evenodd" fill-opacity="1" /><path clip-path="url(#clip860)" d="M146.171 61.0607 Q143.022 61.0607 141.171 63.2135 Q139.342 65.3663 139.342 69.1163 Q139.342 72.8431 141.171 75.019 Q143.022 77.1718 146.171 77.1718 Q149.319 77.1718 151.147 75.019 Q152.999 72.8431 152.999 69.1163 Q152.999 65.3663 151.147 63.2135 Q149.319 61.0607 146.171 61.0607 M155.453 46.4081 L155.453 50.6673 Q153.694 49.834 151.888 49.3941 Q150.106 48.9543 148.346 48.9543 Q143.717 48.9543 141.263 52.0793 Q138.833 55.2043 138.485 61.5237 Q139.851 59.5098 141.911 58.445 Q143.971 57.3571 146.448 57.3571 Q151.657 57.3571 154.666 60.5283 Q157.698 63.6765 157.698 69.1163 Q157.698 74.4403 154.55 77.6579 Q151.402 80.8755 146.171 80.8755 Q140.175 80.8755 137.004 76.2921 Q133.833 71.6857 133.833 62.9589 Q133.833 54.7645 137.722 49.9034 Q141.61 45.0192 148.161 45.0192 Q149.921 45.0192 151.703 45.3664 Q153.508 45.7136 155.453 46.4081 Z" fill="#000000" fill-rule="evenodd" fill-opacity="1" /><path clip-path="url(#clip860)" d="M175.754 48.7229 Q172.143 48.7229 170.314 52.2876 Q168.508 55.8293 168.508 62.9589 Q168.508 70.0653 170.314 73.6301 Q172.143 77.1718 175.754 77.1718 Q179.388 77.1718 181.194 73.6301 Q183.022 70.0653 183.022 62.9589 Q183.022 55.8293 181.194 52.2876 Q179.388 48.7229 175.754 48.7229 M175.754 45.0192 Q181.564 45.0192 184.619 49.6256 Q187.698 54.2089 187.698 62.9589 Q187.698 71.6857 184.619 76.2921 Q181.564 80.8755 175.754 80.8755 Q169.944 80.8755 166.865 76.2921 Q163.809 71.6857 163.809 62.9589 Q163.809 54.2089 166.865 49.6256 Q169.944 45.0192 175.754 45.0192 Z" fill="#000000" fill-rule="evenodd" fill-opacity="1" /><path clip-path="url(#clip860)" d="M205.916 48.7229 Q202.305 48.7229 200.476 52.2876 Q198.67 55.8293 198.67 62.9589 Q198.67 70.0653 200.476 73.6301 Q202.305 77.1718 205.916 77.1718 Q209.55 77.1718 211.355 73.6301 Q213.184 70.0653 213.184 62.9589 Q213.184 55.8293 211.355 52.2876 Q209.55 48.7229 205.916 48.7229 M205.916 45.0192 Q211.726 45.0192 214.781 49.6256 Q217.86 54.2089 217.86 62.9589 Q217.86 71.6857 214.781 76.2921 Q211.726 80.8755 205.916 80.8755 Q200.105 80.8755 197.027 76.2921 Q193.971 71.6857 193.971 62.9589 Q193.971 54.2089 197.027 49.6256 Q200.105 45.0192 205.916 45.0192 Z" fill="#000000" fill-rule="evenodd" fill-opacity="1" /><path clip-path="url(#clip860)" d="M55.3448 872.433 L73.2006 872.433 L73.2006 864.349 Q73.2006 859.861 70.8772 857.41 Q68.5537 854.959 64.2568 854.959 Q59.9918 854.959 57.6683 857.41 Q55.3448 859.861 55.3448 864.349 L55.3448 872.433 M50.0613 878.863 L50.0613 864.349 Q50.0613 856.36 53.6898 852.286 Q57.2864 848.18 64.2568 848.18 Q71.2909 848.18 74.8876 852.286 Q78.4842 856.36 78.4842 864.349 L78.4842 872.433 L97.5813 872.433 L97.5813 878.863 L50.0613 878.863 Z" fill="#000000" fill-rule="evenodd" fill-opacity="1" /><path clip-path="url(#clip860)" d="M67.4079 820.298 Q66.8349 821.285 66.5803 822.462 Q66.2939 823.608 66.2939 825.009 Q66.2939 829.974 69.5404 832.648 Q72.755 835.289 78.8025 835.289 L97.5813 835.289 L97.5813 841.178 L61.9333 841.178 L61.9333 835.289 L67.4715 835.289 Q64.225 833.443 62.6654 830.483 Q61.074 827.523 61.074 823.29 Q61.074 822.685 61.1695 821.953 Q61.2331 821.221 61.3923 820.33 L67.4079 820.298 Z" fill="#000000" fill-rule="evenodd" fill-opacity="1" /><path clip-path="url(#clip860)" d="M78.2932 785.096 L81.1578 785.096 L81.1578 812.023 Q87.2052 811.641 90.3881 808.394 Q93.5391 805.116 93.5391 799.291 Q93.5391 795.917 92.7115 792.766 Q91.884 789.584 90.2289 786.464 L95.7671 786.464 Q97.1039 789.615 97.8041 792.926 Q98.5043 796.236 98.5043 799.641 Q98.5043 808.171 93.5391 813.168 Q88.5738 818.134 80.1074 818.134 Q71.3546 818.134 66.2302 813.423 Q61.074 808.681 61.074 800.66 Q61.074 793.467 65.7209 789.297 Q70.3361 785.096 78.2932 785.096 M76.5745 790.952 Q71.7684 791.016 68.9038 793.658 Q66.0392 796.268 66.0392 800.596 Q66.0392 805.498 68.8083 808.458 Q71.5774 811.386 76.6063 811.832 L76.5745 790.952 Z" fill="#000000" fill-rule="evenodd" fill-opacity="1" /><path clip-path="url(#clip860)" d="M67.3442 752.026 L48.0561 752.026 L48.0561 746.169 L97.5813 746.169 L97.5813 752.026 L92.2341 752.026 Q95.417 753.872 96.9766 756.705 Q98.5043 759.506 98.5043 763.452 Q98.5043 769.913 93.3481 773.988 Q88.1919 778.03 79.7892 778.03 Q71.3864 778.03 66.2302 773.988 Q61.074 769.913 61.074 763.452 Q61.074 759.506 62.6336 756.705 Q64.1613 753.872 67.3442 752.026 M79.7892 771.982 Q86.2503 771.982 89.9425 769.341 Q93.6027 766.667 93.6027 762.02 Q93.6027 757.373 89.9425 754.699 Q86.2503 752.026 79.7892 752.026 Q73.328 752.026 69.6677 754.699 Q65.9756 757.373 65.9756 762.02 Q65.9756 766.667 69.6677 769.341 Q73.328 771.982 79.7892 771.982 Z" fill="#000000" fill-rule="evenodd" fill-opacity="1" /><path clip-path="url(#clip860)" d="M61.9333 734.106 L61.9333 728.25 L97.5813 728.25 L97.5813 734.106 L61.9333 734.106 M48.0561 734.106 L48.0561 728.25 L55.4722 728.25 L55.4722 734.106 L48.0561 734.106 Z" fill="#000000" fill-rule="evenodd" fill-opacity="1" /><path clip-path="url(#clip860)" d="M63.302 690.342 L68.7765 690.342 Q67.4079 692.825 66.7395 695.339 Q66.0392 697.822 66.0392 700.368 Q66.0392 706.065 69.6677 709.216 Q73.2643 712.367 79.7892 712.367 Q86.314 712.367 89.9425 709.216 Q93.5391 706.065 93.5391 700.368 Q93.5391 697.822 92.8707 695.339 Q92.1704 692.825 90.8018 690.342 L96.2127 690.342 Q97.3585 692.793 97.9314 695.435 Q98.5043 698.045 98.5043 701.005 Q98.5043 709.057 93.4436 713.8 Q88.3829 718.542 79.7892 718.542 Q71.0681 718.542 66.0711 713.768 Q61.074 708.962 61.074 700.623 Q61.074 697.917 61.6469 695.339 Q62.188 692.761 63.302 690.342 Z" fill="#000000" fill-rule="evenodd" fill-opacity="1" /><path clip-path="url(#clip860)" d="M51.8119 674.364 L61.9333 674.364 L61.9333 662.301 L66.4848 662.301 L66.4848 674.364 L85.8366 674.364 Q90.1971 674.364 91.4384 673.187 Q92.6797 671.977 92.6797 668.317 L92.6797 662.301 L97.5813 662.301 L97.5813 668.317 Q97.5813 675.096 95.0668 677.674 Q92.5206 680.252 85.8366 680.252 L66.4848 680.252 L66.4848 684.549 L61.9333 684.549 L61.9333 680.252 L51.8119 680.252 L51.8119 674.364 Z" fill="#000000" fill-rule="evenodd" fill-opacity="1" /><path clip-path="url(#clip860)" d="M78.2932 624.107 L81.1578 624.107 L81.1578 651.034 Q87.2052 650.652 90.3881 647.405 Q93.5391 644.127 93.5391 638.302 Q93.5391 634.929 92.7115 631.778 Q91.884 628.595 90.2289 625.476 L95.7671 625.476 Q97.1039 628.627 97.8041 631.937 Q98.5043 635.247 98.5043 638.653 Q98.5043 647.183 93.5391 652.18 Q88.5738 657.145 80.1074 657.145 Q71.3546 657.145 66.2302 652.434 Q61.074 647.692 61.074 639.671 Q61.074 632.478 65.7209 628.308 Q70.3361 624.107 78.2932 624.107 M76.5745 629.963 Q71.7684 630.027 68.9038 632.669 Q66.0392 635.279 66.0392 639.607 Q66.0392 644.509 68.8083 647.469 Q71.5774 650.397 76.6063 650.843 L76.5745 629.963 Z" fill="#000000" fill-rule="evenodd" fill-opacity="1" /><path clip-path="url(#clip860)" d="M67.3442 591.037 L48.0561 591.037 L48.0561 585.181 L97.5813 585.181 L97.5813 591.037 L92.2341 591.037 Q95.417 592.883 96.9766 595.716 Q98.5043 598.517 98.5043 602.464 Q98.5043 608.925 93.3481 612.999 Q88.1919 617.041 79.7892 617.041 Q71.3864 617.041 66.2302 612.999 Q61.074 608.925 61.074 602.464 Q61.074 598.517 62.6336 595.716 Q64.1613 592.883 67.3442 591.037 M79.7892 610.994 Q86.2503 610.994 89.9425 608.352 Q93.6027 605.678 93.6027 601.031 Q93.6027 596.384 89.9425 593.711 Q86.2503 591.037 79.7892 591.037 Q73.328 591.037 69.6677 593.711 Q65.9756 596.384 65.9756 601.031 Q65.9756 605.678 69.6677 608.352 Q73.328 610.994 79.7892 610.994 Z" fill="#000000" fill-rule="evenodd" fill-opacity="1" /><path clip-path="url(#clip860)" d="M50.0613 552.143 L50.0613 545.713 L69.5404 545.713 L69.5404 522.351 L50.0613 522.351 L50.0613 515.922 L97.5813 515.922 L97.5813 522.351 L74.9512 522.351 L74.9512 545.713 L97.5813 545.713 L97.5813 552.143 L50.0613 552.143 Z" fill="#000000" fill-rule="evenodd" fill-opacity="1" /><path clip-path="url(#clip860)" d="M78.2932 472.89 L81.1578 472.89 L81.1578 499.817 Q87.2052 499.435 90.3881 496.188 Q93.5391 492.91 93.5391 487.085 Q93.5391 483.711 92.7115 480.56 Q91.884 477.377 90.2289 474.258 L95.7671 474.258 Q97.1039 477.409 97.8041 480.719 Q98.5043 484.03 98.5043 487.435 Q98.5043 495.965 93.5391 500.962 Q88.5738 505.928 80.1074 505.928 Q71.3546 505.928 66.2302 501.217 Q61.074 496.475 61.074 488.454 Q61.074 481.261 65.7209 477.091 Q70.3361 472.89 78.2932 472.89 M76.5745 478.746 Q71.7684 478.81 68.9038 481.451 Q66.0392 484.061 66.0392 488.39 Q66.0392 493.292 68.8083 496.252 Q71.5774 499.18 76.6063 499.626 L76.5745 478.746 Z" fill="#000000" fill-rule="evenodd" fill-opacity="1" /><path clip-path="url(#clip860)" d="M61.9333 463.277 L61.9333 457.421 L97.5813 457.421 L97.5813 463.277 L61.9333 463.277 M48.0561 463.277 L48.0561 457.421 L55.4722 457.421 L55.4722 463.277 L48.0561 463.277 Z" fill="#000000" fill-rule="evenodd" fill-opacity="1" /><path clip-path="url(#clip860)" d="M79.3436 421.709 Q72.9778 421.709 69.4767 424.351 Q65.9756 426.961 65.9756 431.703 Q65.9756 436.414 69.4767 439.056 Q72.9778 441.666 79.3436 441.666 Q85.6774 441.666 89.1786 439.056 Q92.6797 436.414 92.6797 431.703 Q92.6797 426.961 89.1786 424.351 Q85.6774 421.709 79.3436 421.709 M93.1571 415.853 Q102.26 415.853 106.684 419.895 Q111.14 423.937 111.14 432.276 Q111.14 435.364 110.663 438.101 Q110.217 440.838 109.262 443.416 L103.565 443.416 Q104.966 440.838 105.634 438.324 Q106.302 435.809 106.302 433.199 Q106.302 427.438 103.279 424.574 Q100.287 421.709 94.2075 421.709 L91.3111 421.709 Q94.4621 423.524 96.0217 426.356 Q97.5813 429.189 97.5813 433.136 Q97.5813 439.692 92.5842 443.703 Q87.5871 447.713 79.3436 447.713 Q71.0681 447.713 66.0711 443.703 Q61.074 439.692 61.074 433.136 Q61.074 429.189 62.6336 426.356 Q64.1932 423.524 67.3442 421.709 L61.9333 421.709 L61.9333 415.853 L93.1571 415.853 Z" fill="#000000" fill-rule="evenodd" fill-opacity="1" /><path clip-path="url(#clip860)" d="M76.0652 374.157 L97.5813 374.157 L97.5813 380.014 L76.2562 380.014 Q71.1954 380.014 68.681 381.987 Q66.1665 383.961 66.1665 387.907 Q66.1665 392.65 69.1902 395.387 Q72.214 398.124 77.4338 398.124 L97.5813 398.124 L97.5813 404.013 L48.0561 404.013 L48.0561 398.124 L67.4715 398.124 Q64.2568 396.024 62.6654 393.191 Q61.074 390.326 61.074 386.602 Q61.074 380.46 64.8934 377.309 Q68.681 374.157 76.0652 374.157 Z" fill="#000000" fill-rule="evenodd" fill-opacity="1" /><path clip-path="url(#clip860)" d="M51.8119 356.684 L61.9333 356.684 L61.9333 344.621 L66.4848 344.621 L66.4848 356.684 L85.8366 356.684 Q90.1971 356.684 91.4384 355.506 Q92.6797 354.296 92.6797 350.636 L92.6797 344.621 L97.5813 344.621 L97.5813 350.636 Q97.5813 357.416 95.0668 359.994 Q92.5206 362.572 85.8366 362.572 L66.4848 362.572 L66.4848 366.869 L61.9333 366.869 L61.9333 362.572 L51.8119 362.572 L51.8119 356.684 Z" fill="#000000" fill-rule="evenodd" fill-opacity="1" /><path clip-path="url(#clip860)" d="M48.0561 316.739 L48.0561 303.244 L52.6076 303.244 L52.6076 310.882 L101.624 310.882 L101.624 303.244 L106.175 303.244 L106.175 316.739 L48.0561 316.739 Z" fill="#000000" fill-rule="evenodd" fill-opacity="1" /><path clip-path="url(#clip860)" d="M111.14 291.371 L61.9333 291.371 L61.9333 285.515 L84.086 285.515 Q88.7011 285.515 91.0565 283.319 Q93.4118 281.123 93.4118 276.826 Q93.4118 272.115 90.7382 269.76 Q88.0646 267.373 82.7174 267.373 L61.9333 267.373 L61.9333 261.516 L89.3695 261.516 Q91.2793 261.516 92.2023 260.975 Q93.0935 260.402 93.0935 259.225 Q93.0935 258.938 92.9343 258.429 Q92.7434 257.92 92.3614 257.028 L97.072 257.028 Q97.8041 258.333 98.1542 259.511 Q98.5043 260.657 98.5043 261.771 Q98.5043 263.967 97.263 265.272 Q96.0217 266.577 93.4754 267.054 Q95.9899 268.646 97.263 270.969 Q98.5043 273.261 98.5043 276.38 Q98.5043 279.627 97.263 281.918 Q96.0217 284.178 93.5391 285.515 L111.14 285.515 L111.14 291.371 Z" fill="#000000" fill-rule="evenodd" fill-opacity="1" /><path clip-path="url(#clip860)" d="M68.7765 221.54 Q64.8297 219.344 62.9519 216.288 Q61.074 213.232 61.074 209.095 Q61.074 203.525 64.9889 200.501 Q68.872 197.477 76.0652 197.477 L97.5813 197.477 L97.5813 203.366 L76.2562 203.366 Q71.1318 203.366 68.6492 205.18 Q66.1665 206.994 66.1665 210.718 Q66.1665 215.269 69.1902 217.911 Q72.214 220.553 77.4338 220.553 L97.5813 220.553 L97.5813 226.441 L76.2562 226.441 Q71.1 226.441 68.6492 228.255 Q66.1665 230.07 66.1665 233.857 Q66.1665 238.345 69.2221 240.987 Q72.2458 243.629 77.4338 243.629 L97.5813 243.629 L97.5813 249.517 L61.9333 249.517 L61.9333 243.629 L67.4715 243.629 Q64.1932 241.623 62.6336 238.823 Q61.074 236.022 61.074 232.17 Q61.074 228.287 63.0473 225.582 Q65.0207 222.845 68.7765 221.54 Z" fill="#000000" fill-rule="evenodd" fill-opacity="1" /><path clip-path="url(#clip860)" d="M48.0561 172.11 L106.175 172.11 L106.175 185.605 L101.624 185.605 L101.624 177.998 L52.6076 177.998 L52.6076 185.605 L48.0561 185.605 L48.0561 172.11 Z" fill="#000000" fill-rule="evenodd" fill-opacity="1" /><path clip-path="url(#clip862)" d="M270.385 639.26 L258.385 651.26 L270.385 663.26 L282.385 651.26 L270.385 639.26 Z" fill="#0072b2" fill-rule="evenodd" fill-opacity="1" stroke="#000000" stroke-opacity="1" stroke-width="2.4"/>
<path clip-path="url(#clip862)" d="M291.831 639.359 L279.831 651.359 L291.831 663.359 L303.831 651.359 L291.831 639.359 Z" fill="#0072b2" fill-rule="evenodd" fill-opacity="1" stroke="#000000" stroke-opacity="1" stroke-width="2.4"/>
<path clip-path="url(#clip862)" d="M313.277 639.425 L301.277 651.425 L313.277 663.425 L325.277 651.425 L313.277 639.425 Z" fill="#0072b2" fill-rule="evenodd" fill-opacity="1" stroke="#000000" stroke-opacity="1" stroke-width="2.4"/>
<path clip-path="url(#clip862)" d="M334.723 639.502 L322.723 651.502 L334.723 663.502 L346.723 651.502 L334.723 639.502 Z" fill="#0072b2" fill-rule="evenodd" fill-opacity="1" stroke="#000000" stroke-opacity="1" stroke-width="2.4"/>
<path clip-path="url(#clip862)" d="M356.169 639.554 L344.169 651.554 L356.169 663.554 L368.169 651.554 L356.169 639.554 Z" fill="#0072b2" fill-rule="evenodd" fill-opacity="1" stroke="#000000" stroke-opacity="1" stroke-width="2.4"/>
<path clip-path="url(#clip862)" d="M377.614 639.584 L365.614 651.584 L377.614 663.584 L389.614 651.584 L377.614 639.584 Z" fill="#0072b2" fill-rule="evenodd" fill-opacity="1" stroke="#000000" stroke-opacity="1" stroke-width="2.4"/>
<path clip-path="url(#clip862)" d="M399.06 639.659 L387.06 651.659 L399.06 663.659 L411.06 651.659 L399.06 639.659 Z" fill="#0072b2" fill-rule="evenodd" fill-opacity="1" stroke="#000000" stroke-opacity="1" stroke-width="2.4"/>
<path clip-path="url(#clip862)" d="M420.506 639.684 L408.506 651.684 L420.506 663.684 L432.506 651.684 L420.506 639.684 Z" fill="#0072b2" fill-rule="evenodd" fill-opacity="1" stroke="#000000" stroke-opacity="1" stroke-width="2.4"/>
<path clip-path="url(#clip862)" d="M441.952 639.729 L429.952 651.729 L441.952 663.729 L453.952 651.729 L441.952 639.729 Z" fill="#0072b2" fill-rule="evenodd" fill-opacity="1" stroke="#000000" stroke-opacity="1" stroke-width="2.4"/>
<path clip-path="url(#clip862)" d="M463.398 639.773 L451.398 651.773 L463.398 663.773 L475.398 651.773 L463.398 639.773 Z" fill="#0072b2" fill-rule="evenodd" fill-opacity="1" stroke="#000000" stroke-opacity="1" stroke-width="2.4"/>
<path clip-path="url(#clip862)" d="M484.844 639.788 L472.844 651.788 L484.844 663.788 L496.844 651.788 L484.844 639.788 Z" fill="#0072b2" fill-rule="evenodd" fill-opacity="1" stroke="#000000" stroke-opacity="1" stroke-width="2.4"/>
<path clip-path="url(#clip862)" d="M506.289 639.762 L494.289 651.762 L506.289 663.762 L518.289 651.762 L506.289 639.762 Z" fill="#0072b2" fill-rule="evenodd" fill-opacity="1" stroke="#000000" stroke-opacity="1" stroke-width="2.4"/>
<path clip-path="url(#clip862)" d="M527.735 639.799 L515.735 651.799 L527.735 663.799 L539.735 651.799 L527.735 639.799 Z" fill="#0072b2" fill-rule="evenodd" fill-opacity="1" stroke="#000000" stroke-opacity="1" stroke-width="2.4"/>
<path clip-path="url(#clip862)" d="M549.181 639.773 L537.181 651.773 L549.181 663.773 L561.181 651.773 L549.181 639.773 Z" fill="#0072b2" fill-rule="evenodd" fill-opacity="1" stroke="#000000" stroke-opacity="1" stroke-width="2.4"/>
<path clip-path="url(#clip862)" d="M570.627 639.796 L558.627 651.796 L570.627 663.796 L582.627 651.796 L570.627 639.796 Z" fill="#0072b2" fill-rule="evenodd" fill-opacity="1" stroke="#000000" stroke-opacity="1" stroke-width="2.4"/>
<path clip-path="url(#clip862)" d="M592.073 639.959 L580.073 651.959 L592.073 663.959 L604.073 651.959 L592.073 639.959 Z" fill="#0072b2" fill-rule="evenodd" fill-opacity="1" stroke="#000000" stroke-opacity="1" stroke-width="2.4"/>
<path clip-path="url(#clip862)" d="M613.518 639.937 L601.518 651.937 L613.518 663.937 L625.518 651.937 L613.518 639.937 Z" fill="#0072b2" fill-rule="evenodd" fill-opacity="1" stroke="#000000" stroke-opacity="1" stroke-width="2.4"/>
<path clip-path="url(#clip862)" d="M634.964 639.95 L622.964 651.95 L634.964 663.95 L646.964 651.95 L634.964 639.95 Z" fill="#0072b2" fill-rule="evenodd" fill-opacity="1" stroke="#000000" stroke-opacity="1" stroke-width="2.4"/>
<path clip-path="url(#clip862)" d="M656.41 639.993 L644.41 651.993 L656.41 663.993 L668.41 651.993 L656.41 639.993 Z" fill="#0072b2" fill-rule="evenodd" fill-opacity="1" stroke="#000000" stroke-opacity="1" stroke-width="2.4"/>
<path clip-path="url(#clip862)" d="M677.856 639.987 L665.856 651.987 L677.856 663.987 L689.856 651.987 L677.856 639.987 Z" fill="#0072b2" fill-rule="evenodd" fill-opacity="1" stroke="#000000" stroke-opacity="1" stroke-width="2.4"/>
<path clip-path="url(#clip862)" d="M699.302 639.972 L687.302 651.972 L699.302 663.972 L711.302 651.972 L699.302 639.972 Z" fill="#0072b2" fill-rule="evenodd" fill-opacity="1" stroke="#000000" stroke-opacity="1" stroke-width="2.4"/>
<path clip-path="url(#clip862)" d="M720.748 640.082 L708.748 652.082 L720.748 664.082 L732.748 652.082 L720.748 640.082 Z" fill="#0072b2" fill-rule="evenodd" fill-opacity="1" stroke="#000000" stroke-opacity="1" stroke-width="2.4"/>
<path clip-path="url(#clip862)" d="M742.193 640.085 L730.193 652.085 L742.193 664.085 L754.193 652.085 L742.193 640.085 Z" fill="#0072b2" fill-rule="evenodd" fill-opacity="1" stroke="#000000" stroke-opacity="1" stroke-width="2.4"/>
<path clip-path="url(#clip862)" d="M763.639 640.081 L751.639 652.081 L763.639 664.081 L775.639 652.081 L763.639 640.081 Z" fill="#0072b2" fill-rule="evenodd" fill-opacity="1" stroke="#000000" stroke-opacity="1" stroke-width="2.4"/>
<path clip-path="url(#clip862)" d="M785.085 640.068 L773.085 652.068 L785.085 664.068 L797.085 652.068 L785.085 640.068 Z" fill="#0072b2" fill-rule="evenodd" fill-opacity="1" stroke="#000000" stroke-opacity="1" stroke-width="2.4"/>
<path clip-path="url(#clip862)" d="M806.531 640.05 L794.531 652.05 L806.531 664.05 L818.531 652.05 L806.531 640.05 Z" fill="#0072b2" fill-rule="evenodd" fill-opacity="1" stroke="#000000" stroke-opacity="1" stroke-width="2.4"/>
<path clip-path="url(#clip862)" d="M827.977 640.043 L815.977 652.043 L827.977 664.043 L839.977 652.043 L827.977 640.043 Z" fill="#0072b2" fill-rule="evenodd" fill-opacity="1" stroke="#000000" stroke-opacity="1" stroke-width="2.4"/>
<path clip-path="url(#clip862)" d="M849.423 640.016 L837.423 652.016 L849.423 664.016 L861.423 652.016 L849.423 640.016 Z" fill="#0072b2" fill-rule="evenodd" fill-opacity="1" stroke="#000000" stroke-opacity="1" stroke-width="2.4"/>
<path clip-path="url(#clip862)" d="M870.868 639.983 L858.868 651.983 L870.868 663.983 L882.868 651.983 L870.868 639.983 Z" fill="#0072b2" fill-rule="evenodd" fill-opacity="1" stroke="#000000" stroke-opacity="1" stroke-width="2.4"/>
<path clip-path="url(#clip862)" d="M892.314 639.945 L880.314 651.945 L892.314 663.945 L904.314 651.945 L892.314 639.945 Z" fill="#0072b2" fill-rule="evenodd" fill-opacity="1" stroke="#000000" stroke-opacity="1" stroke-width="2.4"/>
<path clip-path="url(#clip862)" d="M913.76 640.091 L901.76 652.091 L913.76 664.091 L925.76 652.091 L913.76 640.091 Z" fill="#0072b2" fill-rule="evenodd" fill-opacity="1" stroke="#000000" stroke-opacity="1" stroke-width="2.4"/>
<path clip-path="url(#clip862)" d="M935.206 640.268 L923.206 652.268 L935.206 664.268 L947.206 652.268 L935.206 640.268 Z" fill="#0072b2" fill-rule="evenodd" fill-opacity="1" stroke="#000000" stroke-opacity="1" stroke-width="2.4"/>
<path clip-path="url(#clip862)" d="M956.652 640.164 L944.652 652.164 L956.652 664.164 L968.652 652.164 L956.652 640.164 Z" fill="#0072b2" fill-rule="evenodd" fill-opacity="1" stroke="#000000" stroke-opacity="1" stroke-width="2.4"/>
<path clip-path="url(#clip862)" d="M978.097 640.143 L966.097 652.143 L978.097 664.143 L990.097 652.143 L978.097 640.143 Z" fill="#0072b2" fill-rule="evenodd" fill-opacity="1" stroke="#000000" stroke-opacity="1" stroke-width="2.4"/>
<path clip-path="url(#clip862)" d="M999.543 640.025 L987.543 652.025 L999.543 664.025 L1011.54 652.025 L999.543 640.025 Z" fill="#0072b2" fill-rule="evenodd" fill-opacity="1" stroke="#000000" stroke-opacity="1" stroke-width="2.4"/>
<path clip-path="url(#clip862)" d="M1020.99 639.988 L1008.99 651.988 L1020.99 663.988 L1032.99 651.988 L1020.99 639.988 Z" fill="#0072b2" fill-rule="evenodd" fill-opacity="1" stroke="#000000" stroke-opacity="1" stroke-width="2.4"/>
<path clip-path="url(#clip862)" d="M1042.43 639.875 L1030.43 651.875 L1042.43 663.875 L1054.43 651.875 L1042.43 639.875 Z" fill="#0072b2" fill-rule="evenodd" fill-opacity="1" stroke="#000000" stroke-opacity="1" stroke-width="2.4"/>
<path clip-path="url(#clip862)" d="M1063.88 640.152 L1051.88 652.152 L1063.88 664.152 L1075.88 652.152 L1063.88 640.152 Z" fill="#0072b2" fill-rule="evenodd" fill-opacity="1" stroke="#000000" stroke-opacity="1" stroke-width="2.4"/>
<path clip-path="url(#clip862)" d="M1085.33 640.126 L1073.33 652.126 L1085.33 664.126 L1097.33 652.126 L1085.33 640.126 Z" fill="#0072b2" fill-rule="evenodd" fill-opacity="1" stroke="#000000" stroke-opacity="1" stroke-width="2.4"/>
<path clip-path="url(#clip862)" d="M1106.77 640.125 L1094.77 652.125 L1106.77 664.125 L1118.77 652.125 L1106.77 640.125 Z" fill="#0072b2" fill-rule="evenodd" fill-opacity="1" stroke="#000000" stroke-opacity="1" stroke-width="2.4"/>
<path clip-path="url(#clip862)" d="M1128.22 640.095 L1116.22 652.095 L1128.22 664.095 L1140.22 652.095 L1128.22 640.095 Z" fill="#0072b2" fill-rule="evenodd" fill-opacity="1" stroke="#000000" stroke-opacity="1" stroke-width="2.4"/>
<path clip-path="url(#clip862)" d="M1149.66 640.006 L1137.66 652.006 L1149.66 664.006 L1161.66 652.006 L1149.66 640.006 Z" fill="#0072b2" fill-rule="evenodd" fill-opacity="1" stroke="#000000" stroke-opacity="1" stroke-width="2.4"/>
<path clip-path="url(#clip862)" d="M1171.11 639.979 L1159.11 651.979 L1171.11 663.979 L1183.11 651.979 L1171.11 639.979 Z" fill="#0072b2" fill-rule="evenodd" fill-opacity="1" stroke="#000000" stroke-opacity="1" stroke-width="2.4"/>
<path clip-path="url(#clip862)" d="M1192.56 640.292 L1180.56 652.292 L1192.56 664.292 L1204.56 652.292 L1192.56 640.292 Z" fill="#0072b2" fill-rule="evenodd" fill-opacity="1" stroke="#000000" stroke-opacity="1" stroke-width="2.4"/>
<path clip-path="url(#clip862)" d="M1214 640.107 L1202 652.107 L1214 664.107 L1226 652.107 L1214 640.107 Z" fill="#0072b2" fill-rule="evenodd" fill-opacity="1" stroke="#000000" stroke-opacity="1" stroke-width="2.4"/>
<path clip-path="url(#clip862)" d="M1235.45 640.074 L1223.45 652.074 L1235.45 664.074 L1247.45 652.074 L1235.45 640.074 Z" fill="#0072b2" fill-rule="evenodd" fill-opacity="1" stroke="#000000" stroke-opacity="1" stroke-width="2.4"/>
<path clip-path="url(#clip862)" d="M1256.89 640.039 L1244.89 652.039 L1256.89 664.039 L1268.89 652.039 L1256.89 640.039 Z" fill="#0072b2" fill-rule="evenodd" fill-opacity="1" stroke="#000000" stroke-opacity="1" stroke-width="2.4"/>
<path clip-path="url(#clip862)" d="M1278.34 639.996 L1266.34 651.996 L1278.34 663.996 L1290.34 651.996 L1278.34 639.996 Z" fill="#0072b2" fill-rule="evenodd" fill-opacity="1" stroke="#000000" stroke-opacity="1" stroke-width="2.4"/>
<path clip-path="url(#clip862)" d="M1299.78 640.282 L1287.78 652.282 L1299.78 664.282 L1311.78 652.282 L1299.78 640.282 Z" fill="#0072b2" fill-rule="evenodd" fill-opacity="1" stroke="#000000" stroke-opacity="1" stroke-width="2.4"/>
<path clip-path="url(#clip862)" d="M1321.23 640.035 L1309.23 652.035 L1321.23 664.035 L1333.23 652.035 L1321.23 640.035 Z" fill="#0072b2" fill-rule="evenodd" fill-opacity="1" stroke="#000000" stroke-opacity="1" stroke-width="2.4"/>
<path clip-path="url(#clip862)" d="M258.385 65.9455 L258.385 89.9455 L282.385 89.9455 L282.385 65.9455 L258.385 65.9455 Z" fill="#d55e00" fill-rule="evenodd" fill-opacity="1" stroke="#000000" stroke-opacity="1" stroke-width="2.4"/>
<path clip-path="url(#clip862)" d="M279.831 108.117 L279.831 132.117 L303.831 132.117 L303.831 108.117 L279.831 108.117 Z" fill="#d55e00" fill-rule="evenodd" fill-opacity="1" stroke="#000000" stroke-opacity="1" stroke-width="2.4"/>
<path clip-path="url(#clip862)" d="M301.277 124.212 L301.277 148.212 L325.277 148.212 L325.277 124.212 L301.277 124.212 Z" fill="#d55e00" fill-rule="evenodd" fill-opacity="1" stroke="#000000" stroke-opacity="1" stroke-width="2.4"/>
<path clip-path="url(#clip862)" d="M322.723 119.509 L322.723 143.509 L346.723 143.509 L346.723 119.509 L322.723 119.509 Z" fill="#d55e00" fill-rule="evenodd" fill-opacity="1" stroke="#000000" stroke-opacity="1" stroke-width="2.4"/>
<path clip-path="url(#clip862)" d="M344.169 140.591 L344.169 164.591 L368.169 164.591 L368.169 140.591 L344.169 140.591 Z" fill="#d55e00" fill-rule="evenodd" fill-opacity="1" stroke="#000000" stroke-opacity="1" stroke-width="2.4"/>
<path clip-path="url(#clip862)" d="M365.614 127.902 L365.614 151.902 L389.614 151.902 L389.614 127.902 L365.614 127.902 Z" fill="#d55e00" fill-rule="evenodd" fill-opacity="1" stroke="#000000" stroke-opacity="1" stroke-width="2.4"/>
<path clip-path="url(#clip862)" d="M387.06 146.032 L387.06 170.032 L411.06 170.032 L411.06 146.032 L387.06 146.032 Z" fill="#d55e00" fill-rule="evenodd" fill-opacity="1" stroke="#000000" stroke-opacity="1" stroke-width="2.4"/>
<path clip-path="url(#clip862)" d="M408.506 133.666 L408.506 157.666 L432.506 157.666 L432.506 133.666 L408.506 133.666 Z" fill="#d55e00" fill-rule="evenodd" fill-opacity="1" stroke="#000000" stroke-opacity="1" stroke-width="2.4"/>
<path clip-path="url(#clip862)" d="M429.952 156.166 L429.952 180.166 L453.952 180.166 L453.952 156.166 L429.952 156.166 Z" fill="#d55e00" fill-rule="evenodd" fill-opacity="1" stroke="#000000" stroke-opacity="1" stroke-width="2.4"/>
<path clip-path="url(#clip862)" d="M451.398 150.103 L451.398 174.103 L475.398 174.103 L475.398 150.103 L451.398 150.103 Z" fill="#d55e00" fill-rule="evenodd" fill-opacity="1" stroke="#000000" stroke-opacity="1" stroke-width="2.4"/>
<path clip-path="url(#clip862)" d="M472.844 164.456 L472.844 188.456 L496.844 188.456 L496.844 164.456 L472.844 164.456 Z" fill="#d55e00" fill-rule="evenodd" fill-opacity="1" stroke="#000000" stroke-opacity="1" stroke-width="2.4"/>
<path clip-path="url(#clip862)" d="M494.289 161.712 L494.289 185.712 L518.289 185.712 L518.289 161.712 L494.289 161.712 Z" fill="#d55e00" fill-rule="evenodd" fill-opacity="1" stroke="#000000" stroke-opacity="1" stroke-width="2.4"/>
<path clip-path="url(#clip862)" d="M515.735 171.638 L515.735 195.638 L539.735 195.638 L539.735 171.638 L515.735 171.638 Z" fill="#d55e00" fill-rule="evenodd" fill-opacity="1" stroke="#000000" stroke-opacity="1" stroke-width="2.4"/>
<path clip-path="url(#clip862)" d="M537.181 157.751 L537.181 181.751 L561.181 181.751 L561.181 157.751 L537.181 157.751 Z" fill="#d55e00" fill-rule="evenodd" fill-opacity="1" stroke="#000000" stroke-opacity="1" stroke-width="2.4"/>
<path clip-path="url(#clip862)" d="M558.627 162.041 L558.627 186.041 L582.627 186.041 L582.627 162.041 L558.627 162.041 Z" fill="#d55e00" fill-rule="evenodd" fill-opacity="1" stroke="#000000" stroke-opacity="1" stroke-width="2.4"/>
<path clip-path="url(#clip862)" d="M580.073 166.544 L580.073 190.544 L604.073 190.544 L604.073 166.544 L580.073 166.544 Z" fill="#d55e00" fill-rule="evenodd" fill-opacity="1" stroke="#000000" stroke-opacity="1" stroke-width="2.4"/>
<path clip-path="url(#clip862)" d="M601.518 167.283 L601.518 191.283 L625.518 191.283 L625.518 167.283 L601.518 167.283 Z" fill="#d55e00" fill-rule="evenodd" fill-opacity="1" stroke="#000000" stroke-opacity="1" stroke-width="2.4"/>
<path clip-path="url(#clip862)" d="M622.964 173.779 L622.964 197.779 L646.964 197.779 L646.964 173.779 L622.964 173.779 Z" fill="#d55e00" fill-rule="evenodd" fill-opacity="1" stroke="#000000" stroke-opacity="1" stroke-width="2.4"/>
<path clip-path="url(#clip862)" d="M644.41 165.094 L644.41 189.094 L668.41 189.094 L668.41 165.094 L644.41 165.094 Z" fill="#d55e00" fill-rule="evenodd" fill-opacity="1" stroke="#000000" stroke-opacity="1" stroke-width="2.4"/>
<path clip-path="url(#clip862)" d="M665.856 171.797 L665.856 195.797 L689.856 195.797 L689.856 171.797 L665.856 171.797 Z" fill="#d55e00" fill-rule="evenodd" fill-opacity="1" stroke="#000000" stroke-opacity="1" stroke-width="2.4"/>
<path clip-path="url(#clip862)" d="M687.302 177.629 L687.302 201.629 L711.302 201.629 L711.302 177.629 L687.302 177.629 Z" fill="#d55e00" fill-rule="evenodd" fill-opacity="1" stroke="#000000" stroke-opacity="1" stroke-width="2.4"/>
<path clip-path="url(#clip862)" d="M708.748 182.696 L708.748 206.696 L732.748 206.696 L732.748 182.696 L708.748 182.696 Z" fill="#d55e00" fill-rule="evenodd" fill-opacity="1" stroke="#000000" stroke-opacity="1" stroke-width="2.4"/>
<path clip-path="url(#clip862)" d="M730.193 186.558 L730.193 210.558 L754.193 210.558 L754.193 186.558 L730.193 186.558 Z" fill="#d55e00" fill-rule="evenodd" fill-opacity="1" stroke="#000000" stroke-opacity="1" stroke-width="2.4"/>
<path clip-path="url(#clip862)" d="M751.639 190.441 L751.639 214.441 L775.639 214.441 L775.639 190.441 L751.639 190.441 Z" fill="#d55e00" fill-rule="evenodd" fill-opacity="1" stroke="#000000" stroke-opacity="1" stroke-width="2.4"/>
<path clip-path="url(#clip862)" d="M773.085 193.721 L773.085 217.721 L797.085 217.721 L797.085 193.721 L773.085 193.721 Z" fill="#d55e00" fill-rule="evenodd" fill-opacity="1" stroke="#000000" stroke-opacity="1" stroke-width="2.4"/>
<path clip-path="url(#clip862)" d="M794.531 196.398 L794.531 220.398 L818.531 220.398 L818.531 196.398 L794.531 196.398 Z" fill="#d55e00" fill-rule="evenodd" fill-opacity="1" stroke="#000000" stroke-opacity="1" stroke-width="2.4"/>
<path clip-path="url(#clip862)" d="M815.977 196.624 L815.977 220.624 L839.977 220.624 L839.977 196.624 L815.977 196.624 Z" fill="#d55e00" fill-rule="evenodd" fill-opacity="1" stroke="#000000" stroke-opacity="1" stroke-width="2.4"/>
<path clip-path="url(#clip862)" d="M837.423 189.969 L837.423 213.969 L861.423 213.969 L861.423 189.969 L837.423 189.969 Z" fill="#d55e00" fill-rule="evenodd" fill-opacity="1" stroke="#000000" stroke-opacity="1" stroke-width="2.4"/>
<path clip-path="url(#clip862)" d="M858.868 192.245 L858.868 216.245 L882.868 216.245 L882.868 192.245 L858.868 192.245 Z" fill="#d55e00" fill-rule="evenodd" fill-opacity="1" stroke="#000000" stroke-opacity="1" stroke-width="2.4"/>
<path clip-path="url(#clip862)" d="M880.314 195.529 L880.314 219.529 L904.314 219.529 L904.314 195.529 L880.314 195.529 Z" fill="#d55e00" fill-rule="evenodd" fill-opacity="1" stroke="#000000" stroke-opacity="1" stroke-width="2.4"/>
<path clip-path="url(#clip862)" d="M901.76 191.423 L901.76 215.423 L925.76 215.423 L925.76 191.423 L901.76 191.423 Z" fill="#d55e00" fill-rule="evenodd" fill-opacity="1" stroke="#000000" stroke-opacity="1" stroke-width="2.4"/>
<path clip-path="url(#clip862)" d="M923.206 203.155 L923.206 227.155 L947.206 227.155 L947.206 203.155 L923.206 203.155 Z" fill="#d55e00" fill-rule="evenodd" fill-opacity="1" stroke="#000000" stroke-opacity="1" stroke-width="2.4"/>
<path clip-path="url(#clip862)" d="M944.652 204.97 L944.652 228.97 L968.652 228.97 L968.652 204.97 L944.652 204.97 Z" fill="#d55e00" fill-rule="evenodd" fill-opacity="1" stroke="#000000" stroke-opacity="1" stroke-width="2.4"/>
<path clip-path="url(#clip862)" d="M966.097 202.559 L966.097 226.559 L990.097 226.559 L990.097 202.559 L966.097 202.559 Z" fill="#d55e00" fill-rule="evenodd" fill-opacity="1" stroke="#000000" stroke-opacity="1" stroke-width="2.4"/>
<path clip-path="url(#clip862)" d="M987.543 204.224 L987.543 228.224 L1011.54 228.224 L1011.54 204.224 L987.543 204.224 Z" fill="#d55e00" fill-rule="evenodd" fill-opacity="1" stroke="#000000" stroke-opacity="1" stroke-width="2.4"/>
<path clip-path="url(#clip862)" d="M1008.99 206.341 L1008.99 230.341 L1032.99 230.341 L1032.99 206.341 L1008.99 206.341 Z" fill="#d55e00" fill-rule="evenodd" fill-opacity="1" stroke="#000000" stroke-opacity="1" stroke-width="2.4"/>
<path clip-path="url(#clip862)" d="M1030.43 209.626 L1030.43 233.626 L1054.43 233.626 L1054.43 209.626 L1030.43 209.626 Z" fill="#d55e00" fill-rule="evenodd" fill-opacity="1" stroke="#000000" stroke-opacity="1" stroke-width="2.4"/>
<path clip-path="url(#clip862)" d="M1051.88 210.653 L1051.88 234.653 L1075.88 234.653 L1075.88 210.653 L1051.88 210.653 Z" fill="#d55e00" fill-rule="evenodd" fill-opacity="1" stroke="#000000" stroke-opacity="1" stroke-width="2.4"/>
<path clip-path="url(#clip862)" d="M1073.33 210.864 L1073.33 234.864 L1097.33 234.864 L1097.33 210.864 L1073.33 210.864 Z" fill="#d55e00" fill-rule="evenodd" fill-opacity="1" stroke="#000000" stroke-opacity="1" stroke-width="2.4"/>
<path clip-path="url(#clip862)" d="M1094.77 212.061 L1094.77 236.061 L1118.77 236.061 L1118.77 212.061 L1094.77 212.061 Z" fill="#d55e00" fill-rule="evenodd" fill-opacity="1" stroke="#000000" stroke-opacity="1" stroke-width="2.4"/>
<path clip-path="url(#clip862)" d="M1116.22 213.29 L1116.22 237.29 L1140.22 237.29 L1140.22 213.29 L1116.22 213.29 Z" fill="#d55e00" fill-rule="evenodd" fill-opacity="1" stroke="#000000" stroke-opacity="1" stroke-width="2.4"/>
<path clip-path="url(#clip862)" d="M1137.66 214.294 L1137.66 238.294 L1161.66 238.294 L1161.66 214.294 L1137.66 214.294 Z" fill="#d55e00" fill-rule="evenodd" fill-opacity="1" stroke="#000000" stroke-opacity="1" stroke-width="2.4"/>
<path clip-path="url(#clip862)" d="M1159.11 215.11 L1159.11 239.11 L1183.11 239.11 L1183.11 215.11 L1159.11 215.11 Z" fill="#d55e00" fill-rule="evenodd" fill-opacity="1" stroke="#000000" stroke-opacity="1" stroke-width="2.4"/>
<path clip-path="url(#clip862)" d="M1180.56 216.143 L1180.56 240.143 L1204.56 240.143 L1204.56 216.143 L1180.56 216.143 Z" fill="#d55e00" fill-rule="evenodd" fill-opacity="1" stroke="#000000" stroke-opacity="1" stroke-width="2.4"/>
<path clip-path="url(#clip862)" d="M1202 216.995 L1202 240.995 L1226 240.995 L1226 216.995 L1202 216.995 Z" fill="#d55e00" fill-rule="evenodd" fill-opacity="1" stroke="#000000" stroke-opacity="1" stroke-width="2.4"/>
<path clip-path="url(#clip862)" d="M1223.45 214.188 L1223.45 238.188 L1247.45 238.188 L1247.45 214.188 L1223.45 214.188 Z" fill="#d55e00" fill-rule="evenodd" fill-opacity="1" stroke="#000000" stroke-opacity="1" stroke-width="2.4"/>
<path clip-path="url(#clip862)" d="M1244.89 214.608 L1244.89 238.608 L1268.89 238.608 L1268.89 214.608 L1244.89 214.608 Z" fill="#d55e00" fill-rule="evenodd" fill-opacity="1" stroke="#000000" stroke-opacity="1" stroke-width="2.4"/>
<path clip-path="url(#clip862)" d="M1266.34 224.03 L1266.34 248.03 L1290.34 248.03 L1290.34 224.03 L1266.34 224.03 Z" fill="#d55e00" fill-rule="evenodd" fill-opacity="1" stroke="#000000" stroke-opacity="1" stroke-width="2.4"/>
<path clip-path="url(#clip862)" d="M1287.78 217.875 L1287.78 241.875 L1311.78 241.875 L1311.78 217.875 L1287.78 217.875 Z" fill="#d55e00" fill-rule="evenodd" fill-opacity="1" stroke="#000000" stroke-opacity="1" stroke-width="2.4"/>
<path clip-path="url(#clip862)" d="M1309.23 219.5 L1309.23 243.5 L1333.23 243.5 L1333.23 219.5 L1309.23 219.5 Z" fill="#d55e00" fill-rule="evenodd" fill-opacity="1" stroke="#000000" stroke-opacity="1" stroke-width="2.4"/>
<circle clip-path="url(#clip862)" cx="270.385" cy="637.62" r="10" fill="#f0e442" fill-rule="evenodd" fill-opacity="1" stroke="#000000" stroke-opacity="1" stroke-width="2.4"/>
<circle clip-path="url(#clip862)" cx="291.831" cy="641.416" r="10" fill="#f0e442" fill-rule="evenodd" fill-opacity="1" stroke="#000000" stroke-opacity="1" stroke-width="2.4"/>
<circle clip-path="url(#clip862)" cx="313.277" cy="641.974" r="10" fill="#f0e442" fill-rule="evenodd" fill-opacity="1" stroke="#000000" stroke-opacity="1" stroke-width="2.4"/>
<circle clip-path="url(#clip862)" cx="334.723" cy="657.297" r="10" fill="#f0e442" fill-rule="evenodd" fill-opacity="1" stroke="#000000" stroke-opacity="1" stroke-width="2.4"/>
<circle clip-path="url(#clip862)" cx="356.169" cy="650.198" r="10" fill="#f0e442" fill-rule="evenodd" fill-opacity="1" stroke="#000000" stroke-opacity="1" stroke-width="2.4"/>
<circle clip-path="url(#clip862)" cx="377.614" cy="665.358" r="10" fill="#f0e442" fill-rule="evenodd" fill-opacity="1" stroke="#000000" stroke-opacity="1" stroke-width="2.4"/>
<circle clip-path="url(#clip862)" cx="399.06" cy="656.937" r="10" fill="#f0e442" fill-rule="evenodd" fill-opacity="1" stroke="#000000" stroke-opacity="1" stroke-width="2.4"/>
<circle clip-path="url(#clip862)" cx="420.506" cy="664.61" r="10" fill="#f0e442" fill-rule="evenodd" fill-opacity="1" stroke="#000000" stroke-opacity="1" stroke-width="2.4"/>
<circle clip-path="url(#clip862)" cx="441.952" cy="656.806" r="10" fill="#f0e442" fill-rule="evenodd" fill-opacity="1" stroke="#000000" stroke-opacity="1" stroke-width="2.4"/>
<circle clip-path="url(#clip862)" cx="463.398" cy="668.762" r="10" fill="#f0e442" fill-rule="evenodd" fill-opacity="1" stroke="#000000" stroke-opacity="1" stroke-width="2.4"/>
<circle clip-path="url(#clip862)" cx="484.844" cy="674.753" r="10" fill="#f0e442" fill-rule="evenodd" fill-opacity="1" stroke="#000000" stroke-opacity="1" stroke-width="2.4"/>
<circle clip-path="url(#clip862)" cx="506.289" cy="669.5" r="10" fill="#f0e442" fill-rule="evenodd" fill-opacity="1" stroke="#000000" stroke-opacity="1" stroke-width="2.4"/>
<circle clip-path="url(#clip862)" cx="527.735" cy="672.191" r="10" fill="#f0e442" fill-rule="evenodd" fill-opacity="1" stroke="#000000" stroke-opacity="1" stroke-width="2.4"/>
<circle clip-path="url(#clip862)" cx="549.181" cy="676.332" r="10" fill="#f0e442" fill-rule="evenodd" fill-opacity="1" stroke="#000000" stroke-opacity="1" stroke-width="2.4"/>
<circle clip-path="url(#clip862)" cx="570.627" cy="678.024" r="10" fill="#f0e442" fill-rule="evenodd" fill-opacity="1" stroke="#000000" stroke-opacity="1" stroke-width="2.4"/>
<circle clip-path="url(#clip862)" cx="592.073" cy="675.765" r="10" fill="#f0e442" fill-rule="evenodd" fill-opacity="1" stroke="#000000" stroke-opacity="1" stroke-width="2.4"/>
<circle clip-path="url(#clip862)" cx="613.518" cy="674.044" r="10" fill="#f0e442" fill-rule="evenodd" fill-opacity="1" stroke="#000000" stroke-opacity="1" stroke-width="2.4"/>
<circle clip-path="url(#clip862)" cx="634.964" cy="674.992" r="10" fill="#f0e442" fill-rule="evenodd" fill-opacity="1" stroke="#000000" stroke-opacity="1" stroke-width="2.4"/>
<circle clip-path="url(#clip862)" cx="656.41" cy="677.397" r="10" fill="#f0e442" fill-rule="evenodd" fill-opacity="1" stroke="#000000" stroke-opacity="1" stroke-width="2.4"/>
<circle clip-path="url(#clip862)" cx="677.856" cy="677.751" r="10" fill="#f0e442" fill-rule="evenodd" fill-opacity="1" stroke="#000000" stroke-opacity="1" stroke-width="2.4"/>
<circle clip-path="url(#clip862)" cx="699.302" cy="672.044" r="10" fill="#f0e442" fill-rule="evenodd" fill-opacity="1" stroke="#000000" stroke-opacity="1" stroke-width="2.4"/>
<circle clip-path="url(#clip862)" cx="720.748" cy="675.162" r="10" fill="#f0e442" fill-rule="evenodd" fill-opacity="1" stroke="#000000" stroke-opacity="1" stroke-width="2.4"/>
<circle clip-path="url(#clip862)" cx="742.193" cy="678.08" r="10" fill="#f0e442" fill-rule="evenodd" fill-opacity="1" stroke="#000000" stroke-opacity="1" stroke-width="2.4"/>
<circle clip-path="url(#clip862)" cx="763.639" cy="680.784" r="10" fill="#f0e442" fill-rule="evenodd" fill-opacity="1" stroke="#000000" stroke-opacity="1" stroke-width="2.4"/>
<circle clip-path="url(#clip862)" cx="785.085" cy="683.254" r="10" fill="#f0e442" fill-rule="evenodd" fill-opacity="1" stroke="#000000" stroke-opacity="1" stroke-width="2.4"/>
<circle clip-path="url(#clip862)" cx="806.531" cy="685.54" r="10" fill="#f0e442" fill-rule="evenodd" fill-opacity="1" stroke="#000000" stroke-opacity="1" stroke-width="2.4"/>
<circle clip-path="url(#clip862)" cx="827.977" cy="687.281" r="10" fill="#f0e442" fill-rule="evenodd" fill-opacity="1" stroke="#000000" stroke-opacity="1" stroke-width="2.4"/>
<circle clip-path="url(#clip862)" cx="849.423" cy="689.306" r="10" fill="#f0e442" fill-rule="evenodd" fill-opacity="1" stroke="#000000" stroke-opacity="1" stroke-width="2.4"/>
<circle clip-path="url(#clip862)" cx="870.868" cy="691.141" r="10" fill="#f0e442" fill-rule="evenodd" fill-opacity="1" stroke="#000000" stroke-opacity="1" stroke-width="2.4"/>
<circle clip-path="url(#clip862)" cx="892.314" cy="692.842" r="10" fill="#f0e442" fill-rule="evenodd" fill-opacity="1" stroke="#000000" stroke-opacity="1" stroke-width="2.4"/>
<circle clip-path="url(#clip862)" cx="913.76" cy="685.778" r="10" fill="#f0e442" fill-rule="evenodd" fill-opacity="1" stroke="#000000" stroke-opacity="1" stroke-width="2.4"/>
<circle clip-path="url(#clip862)" cx="935.206" cy="687.637" r="10" fill="#f0e442" fill-rule="evenodd" fill-opacity="1" stroke="#000000" stroke-opacity="1" stroke-width="2.4"/>
<circle clip-path="url(#clip862)" cx="956.652" cy="688.628" r="10" fill="#f0e442" fill-rule="evenodd" fill-opacity="1" stroke="#000000" stroke-opacity="1" stroke-width="2.4"/>
<circle clip-path="url(#clip862)" cx="978.097" cy="690.321" r="10" fill="#f0e442" fill-rule="evenodd" fill-opacity="1" stroke="#000000" stroke-opacity="1" stroke-width="2.4"/>
<circle clip-path="url(#clip862)" cx="999.543" cy="693.186" r="10" fill="#f0e442" fill-rule="evenodd" fill-opacity="1" stroke="#000000" stroke-opacity="1" stroke-width="2.4"/>
<circle clip-path="url(#clip862)" cx="1020.99" cy="696.563" r="10" fill="#f0e442" fill-rule="evenodd" fill-opacity="1" stroke="#000000" stroke-opacity="1" stroke-width="2.4"/>
<circle clip-path="url(#clip862)" cx="1042.43" cy="697.812" r="10" fill="#f0e442" fill-rule="evenodd" fill-opacity="1" stroke="#000000" stroke-opacity="1" stroke-width="2.4"/>
<circle clip-path="url(#clip862)" cx="1063.88" cy="699.432" r="10" fill="#f0e442" fill-rule="evenodd" fill-opacity="1" stroke="#000000" stroke-opacity="1" stroke-width="2.4"/>
<circle clip-path="url(#clip862)" cx="1085.33" cy="696.123" r="10" fill="#f0e442" fill-rule="evenodd" fill-opacity="1" stroke="#000000" stroke-opacity="1" stroke-width="2.4"/>
<circle clip-path="url(#clip862)" cx="1106.77" cy="696.871" r="10" fill="#f0e442" fill-rule="evenodd" fill-opacity="1" stroke="#000000" stroke-opacity="1" stroke-width="2.4"/>
<circle clip-path="url(#clip862)" cx="1128.22" cy="698.066" r="10" fill="#f0e442" fill-rule="evenodd" fill-opacity="1" stroke="#000000" stroke-opacity="1" stroke-width="2.4"/>
<circle clip-path="url(#clip862)" cx="1149.66" cy="699.19" r="10" fill="#f0e442" fill-rule="evenodd" fill-opacity="1" stroke="#000000" stroke-opacity="1" stroke-width="2.4"/>
<circle clip-path="url(#clip862)" cx="1171.11" cy="700.979" r="10" fill="#f0e442" fill-rule="evenodd" fill-opacity="1" stroke="#000000" stroke-opacity="1" stroke-width="2.4"/>
<circle clip-path="url(#clip862)" cx="1192.56" cy="695.897" r="10" fill="#f0e442" fill-rule="evenodd" fill-opacity="1" stroke="#000000" stroke-opacity="1" stroke-width="2.4"/>
<circle clip-path="url(#clip862)" cx="1214" cy="700.693" r="10" fill="#f0e442" fill-rule="evenodd" fill-opacity="1" stroke="#000000" stroke-opacity="1" stroke-width="2.4"/>
<circle clip-path="url(#clip862)" cx="1235.45" cy="701.323" r="10" fill="#f0e442" fill-rule="evenodd" fill-opacity="1" stroke="#000000" stroke-opacity="1" stroke-width="2.4"/>
<circle clip-path="url(#clip862)" cx="1256.89" cy="702.254" r="10" fill="#f0e442" fill-rule="evenodd" fill-opacity="1" stroke="#000000" stroke-opacity="1" stroke-width="2.4"/>
<circle clip-path="url(#clip862)" cx="1278.34" cy="703.132" r="10" fill="#f0e442" fill-rule="evenodd" fill-opacity="1" stroke="#000000" stroke-opacity="1" stroke-width="2.4"/>
<circle clip-path="url(#clip862)" cx="1299.78" cy="703.128" r="10" fill="#f0e442" fill-rule="evenodd" fill-opacity="1" stroke="#000000" stroke-opacity="1" stroke-width="2.4"/>
<circle clip-path="url(#clip862)" cx="1321.23" cy="701.444" r="10" fill="#f0e442" fill-rule="evenodd" fill-opacity="1" stroke="#000000" stroke-opacity="1" stroke-width="2.4"/>
<path clip-path="url(#clip860)" d="
M911.114 971.846 L1315.63 971.846 L1315.63 764.486 L911.114 764.486  Z
  " fill="#ffffff" fill-rule="evenodd" fill-opacity="1"/>
<polyline clip-path="url(#clip860)" style="stroke:#000000; stroke-linecap:butt; stroke-linejoin:round; stroke-width:4; stroke-opacity:1; fill:none" points="
  911.114,971.846 1315.63,971.846 1315.63,764.486 911.114,764.486 911.114,971.846 
  "/>
<path clip-path="url(#clip860)" d="M967.114 790.726 L941.514 816.326 L967.114 841.926 L992.714 816.326 L967.114 790.726 Z" fill="#0072b2" fill-rule="evenodd" fill-opacity="1" stroke="#000000" stroke-opacity="1" stroke-width="5.12"/>
<path clip-path="url(#clip860)" d="M1038.95 803.652 L1032.6 820.851 L1045.31 820.851 L1038.95 803.652 M1036.31 799.046 L1041.61 799.046 L1054.78 833.606 L1049.92 833.606 L1046.77 824.74 L1031.19 824.74 L1028.04 833.606 L1023.11 833.606 L1036.31 799.046 Z" fill="#000000" fill-rule="evenodd" fill-opacity="1" /><path clip-path="url(#clip860)" d="M1080.98 819.578 L1080.98 821.661 L1061.4 821.661 Q1061.68 826.059 1064.04 828.374 Q1066.42 830.666 1070.66 830.666 Q1073.11 830.666 1075.4 830.064 Q1077.72 829.462 1079.99 828.258 L1079.99 832.286 Q1077.7 833.258 1075.29 833.768 Q1072.88 834.277 1070.4 834.277 Q1064.2 834.277 1060.57 830.666 Q1056.96 827.055 1056.96 820.897 Q1056.96 814.532 1060.38 810.805 Q1063.83 807.055 1069.66 807.055 Q1074.9 807.055 1077.93 810.434 Q1080.98 813.791 1080.98 819.578 M1076.72 818.328 Q1076.68 814.833 1074.76 812.749 Q1072.86 810.666 1069.71 810.666 Q1066.15 810.666 1063.99 812.68 Q1061.86 814.694 1061.54 818.351 L1076.72 818.328 Z" fill="#000000" fill-rule="evenodd" fill-opacity="1" /><path clip-path="url(#clip860)" d="M1103 811.661 Q1102.28 811.245 1101.42 811.059 Q1100.59 810.851 1099.57 810.851 Q1095.96 810.851 1094.02 813.212 Q1092.09 815.55 1092.09 819.948 L1092.09 833.606 L1087.81 833.606 L1087.81 807.68 L1092.09 807.68 L1092.09 811.708 Q1093.44 809.346 1095.59 808.212 Q1097.74 807.055 1100.82 807.055 Q1101.26 807.055 1101.79 807.124 Q1102.33 807.171 1102.97 807.286 L1103 811.661 Z" fill="#000000" fill-rule="evenodd" fill-opacity="1" /><path clip-path="url(#clip860)" d="M1116.47 810.666 Q1113.04 810.666 1111.05 813.351 Q1109.06 816.013 1109.06 820.666 Q1109.06 825.319 1111.03 828.004 Q1113.02 830.666 1116.47 830.666 Q1119.87 830.666 1121.86 827.981 Q1123.85 825.295 1123.85 820.666 Q1123.85 816.059 1121.86 813.374 Q1119.87 810.666 1116.47 810.666 M1116.47 807.055 Q1122.03 807.055 1125.2 810.666 Q1128.37 814.277 1128.37 820.666 Q1128.37 827.032 1125.2 830.666 Q1122.03 834.277 1116.47 834.277 Q1110.89 834.277 1107.72 830.666 Q1104.57 827.032 1104.57 820.666 Q1104.57 814.277 1107.72 810.666 Q1110.89 807.055 1116.47 807.055 Z" fill="#000000" fill-rule="evenodd" fill-opacity="1" /><path clip-path="url(#clip860)" d="M1155.61 812.657 Q1157.21 809.786 1159.43 808.421 Q1161.65 807.055 1164.66 807.055 Q1168.71 807.055 1170.91 809.902 Q1173.11 812.726 1173.11 817.958 L1173.11 833.606 L1168.83 833.606 L1168.83 818.096 Q1168.83 814.37 1167.51 812.564 Q1166.19 810.759 1163.48 810.759 Q1160.17 810.759 1158.25 812.958 Q1156.33 815.157 1156.33 818.953 L1156.33 833.606 L1152.05 833.606 L1152.05 818.096 Q1152.05 814.346 1150.73 812.564 Q1149.41 810.759 1146.65 810.759 Q1143.39 810.759 1141.47 812.981 Q1139.55 815.18 1139.55 818.953 L1139.55 833.606 L1135.27 833.606 L1135.27 807.68 L1139.55 807.68 L1139.55 811.708 Q1141.01 809.323 1143.04 808.189 Q1145.08 807.055 1147.88 807.055 Q1150.71 807.055 1152.67 808.49 Q1154.66 809.925 1155.61 812.657 Z" fill="#000000" fill-rule="evenodd" fill-opacity="1" /><path clip-path="url(#clip860)" d="M1191.65 810.666 Q1188.23 810.666 1186.24 813.351 Q1184.25 816.013 1184.25 820.666 Q1184.25 825.319 1186.21 828.004 Q1188.21 830.666 1191.65 830.666 Q1195.06 830.666 1197.05 827.981 Q1199.04 825.295 1199.04 820.666 Q1199.04 816.059 1197.05 813.374 Q1195.06 810.666 1191.65 810.666 M1191.65 807.055 Q1197.21 807.055 1200.38 810.666 Q1203.55 814.277 1203.55 820.666 Q1203.55 827.032 1200.38 830.666 Q1197.21 834.277 1191.65 834.277 Q1186.08 834.277 1182.9 830.666 Q1179.76 827.032 1179.76 820.666 Q1179.76 814.277 1182.9 810.666 Q1186.08 807.055 1191.65 807.055 Z" fill="#000000" fill-rule="evenodd" fill-opacity="1" /><path clip-path="url(#clip860)" d="M1232.16 817.958 L1232.16 833.606 L1227.9 833.606 L1227.9 818.096 Q1227.9 814.416 1226.47 812.587 Q1225.03 810.759 1222.16 810.759 Q1218.71 810.759 1216.72 812.958 Q1214.73 815.157 1214.73 818.953 L1214.73 833.606 L1210.45 833.606 L1210.45 807.68 L1214.73 807.68 L1214.73 811.708 Q1216.26 809.37 1218.32 808.212 Q1220.4 807.055 1223.11 807.055 Q1227.58 807.055 1229.87 809.833 Q1232.16 812.587 1232.16 817.958 Z" fill="#000000" fill-rule="evenodd" fill-opacity="1" /><path clip-path="url(#clip860)" d="M1252.44 820.573 Q1247.28 820.573 1245.29 821.754 Q1243.3 822.934 1243.3 825.782 Q1243.3 828.05 1244.78 829.393 Q1246.28 830.712 1248.85 830.712 Q1252.39 830.712 1254.52 828.212 Q1256.68 825.689 1256.68 821.522 L1256.68 820.573 L1252.44 820.573 M1260.94 818.814 L1260.94 833.606 L1256.68 833.606 L1256.68 829.67 Q1255.22 832.032 1253.04 833.166 Q1250.87 834.277 1247.72 834.277 Q1243.74 834.277 1241.38 832.055 Q1239.04 829.809 1239.04 826.059 Q1239.04 821.684 1241.95 819.462 Q1244.89 817.24 1250.7 817.24 L1256.68 817.24 L1256.68 816.823 Q1256.68 813.883 1254.73 812.286 Q1252.81 810.666 1249.32 810.666 Q1247.09 810.666 1244.99 811.198 Q1242.88 811.731 1240.94 812.796 L1240.94 808.86 Q1243.27 807.958 1245.47 807.518 Q1247.67 807.055 1249.76 807.055 Q1255.38 807.055 1258.16 809.971 Q1260.94 812.888 1260.94 818.814 Z" fill="#000000" fill-rule="evenodd" fill-opacity="1" /><path clip-path="url(#clip860)" d="M1286.24 808.444 L1286.24 812.471 Q1284.43 811.546 1282.49 811.083 Q1280.54 810.62 1278.46 810.62 Q1275.29 810.62 1273.69 811.592 Q1272.12 812.564 1272.12 814.508 Q1272.12 815.99 1273.25 816.846 Q1274.39 817.68 1277.81 818.444 L1279.27 818.768 Q1283.81 819.74 1285.7 821.522 Q1287.63 823.282 1287.63 826.453 Q1287.63 830.064 1284.76 832.17 Q1281.91 834.277 1276.91 834.277 Q1274.83 834.277 1272.56 833.86 Q1270.31 833.467 1267.81 832.657 L1267.81 828.258 Q1270.17 829.485 1272.46 830.11 Q1274.76 830.712 1277 830.712 Q1280.01 830.712 1281.63 829.694 Q1283.25 828.652 1283.25 826.777 Q1283.25 825.041 1282.07 824.115 Q1280.91 823.189 1276.95 822.333 L1275.47 821.985 Q1271.52 821.152 1269.76 819.439 Q1268 817.703 1268 814.694 Q1268 811.036 1270.59 809.046 Q1273.18 807.055 1277.95 807.055 Q1280.31 807.055 1282.39 807.402 Q1284.48 807.749 1286.24 808.444 Z" fill="#000000" fill-rule="evenodd" fill-opacity="1" /><path clip-path="url(#clip860)" d="M941.514 842.566 L941.514 893.766 L992.714 893.766 L992.714 842.566 L941.514 842.566 Z" fill="#d55e00" fill-rule="evenodd" fill-opacity="1" stroke="#000000" stroke-opacity="1" stroke-width="5.12"/>
<path clip-path="url(#clip860)" d="M1023.11 850.886 L1028.14 850.886 L1037.72 865.098 L1047.23 850.886 L1052.26 850.886 L1040.03 868.987 L1040.03 885.446 L1035.34 885.446 L1035.34 868.987 L1023.11 850.886 Z" fill="#000000" fill-rule="evenodd" fill-opacity="1" /><path clip-path="url(#clip860)" d="M1072.51 871.418 L1072.51 873.501 L1052.93 873.501 Q1053.21 877.899 1055.57 880.214 Q1057.95 882.506 1062.19 882.506 Q1064.64 882.506 1066.93 881.904 Q1069.25 881.302 1071.52 880.098 L1071.52 884.126 Q1069.22 885.098 1066.82 885.608 Q1064.41 886.117 1061.93 886.117 Q1055.73 886.117 1052.09 882.506 Q1048.48 878.895 1048.48 872.737 Q1048.48 866.372 1051.91 862.645 Q1055.36 858.895 1061.19 858.895 Q1066.42 858.895 1069.46 862.274 Q1072.51 865.631 1072.51 871.418 M1068.25 870.168 Q1068.21 866.673 1066.28 864.589 Q1064.39 862.506 1061.24 862.506 Q1057.67 862.506 1055.52 864.52 Q1053.39 866.534 1053.07 870.191 L1068.25 870.168 Z" fill="#000000" fill-rule="evenodd" fill-opacity="1" /><path clip-path="url(#clip860)" d="M1091.28 872.413 Q1086.12 872.413 1084.13 873.594 Q1082.14 874.774 1082.14 877.622 Q1082.14 879.89 1083.62 881.233 Q1085.13 882.552 1087.7 882.552 Q1091.24 882.552 1093.37 880.052 Q1095.52 877.529 1095.52 873.362 L1095.52 872.413 L1091.28 872.413 M1099.78 870.654 L1099.78 885.446 L1095.52 885.446 L1095.52 881.51 Q1094.06 883.872 1091.89 885.006 Q1089.71 886.117 1086.56 886.117 Q1082.58 886.117 1080.22 883.895 Q1077.88 881.649 1077.88 877.899 Q1077.88 873.524 1080.8 871.302 Q1083.74 869.08 1089.55 869.08 L1095.52 869.08 L1095.52 868.663 Q1095.52 865.723 1093.58 864.126 Q1091.65 862.506 1088.16 862.506 Q1085.94 862.506 1083.83 863.038 Q1081.72 863.571 1079.78 864.636 L1079.78 860.7 Q1082.12 859.798 1084.32 859.358 Q1086.52 858.895 1088.6 858.895 Q1094.22 858.895 1097 861.811 Q1099.78 864.728 1099.78 870.654 Z" fill="#000000" fill-rule="evenodd" fill-opacity="1" /><path clip-path="url(#clip860)" d="M1125.08 860.284 L1125.08 864.311 Q1123.28 863.386 1121.33 862.923 Q1119.39 862.46 1117.3 862.46 Q1114.13 862.46 1112.53 863.432 Q1110.96 864.404 1110.96 866.348 Q1110.96 867.83 1112.09 868.686 Q1113.23 869.52 1116.65 870.284 L1118.11 870.608 Q1122.65 871.58 1124.55 873.362 Q1126.47 875.122 1126.47 878.293 Q1126.47 881.904 1123.6 884.01 Q1120.75 886.117 1115.75 886.117 Q1113.67 886.117 1111.4 885.7 Q1109.15 885.307 1106.65 884.497 L1106.65 880.098 Q1109.02 881.325 1111.31 881.95 Q1113.6 882.552 1115.84 882.552 Q1118.85 882.552 1120.47 881.534 Q1122.09 880.492 1122.09 878.617 Q1122.09 876.881 1120.91 875.955 Q1119.76 875.029 1115.8 874.173 L1114.32 873.825 Q1110.36 872.992 1108.6 871.279 Q1106.84 869.543 1106.84 866.534 Q1106.84 862.876 1109.43 860.886 Q1112.03 858.895 1116.79 858.895 Q1119.15 858.895 1121.24 859.242 Q1123.32 859.589 1125.08 860.284 Z" fill="#000000" fill-rule="evenodd" fill-opacity="1" /><path clip-path="url(#clip860)" d="M1137.46 852.159 L1137.46 859.52 L1146.24 859.52 L1146.24 862.83 L1137.46 862.83 L1137.46 876.904 Q1137.46 880.075 1138.32 880.978 Q1139.2 881.881 1141.86 881.881 L1146.24 881.881 L1146.24 885.446 L1141.86 885.446 Q1136.93 885.446 1135.06 883.617 Q1133.18 881.765 1133.18 876.904 L1133.18 862.83 L1130.06 862.83 L1130.06 859.52 L1133.18 859.52 L1133.18 852.159 L1137.46 852.159 Z" fill="#000000" fill-rule="evenodd" fill-opacity="1" /><path clip-path="url(#clip860)" d="M1177.14 849.474 Q1174.04 854.798 1172.53 860.006 Q1171.03 865.214 1171.03 870.561 Q1171.03 875.909 1172.53 881.163 Q1174.06 886.395 1177.14 891.696 L1173.44 891.696 Q1169.96 886.256 1168.23 881.001 Q1166.52 875.747 1166.52 870.561 Q1166.52 865.399 1168.23 860.168 Q1169.94 854.937 1173.44 849.474 L1177.14 849.474 Z" fill="#000000" fill-rule="evenodd" fill-opacity="1" /><path clip-path="url(#clip860)" d="M1197.19 872.413 Q1192.02 872.413 1190.03 873.594 Q1188.04 874.774 1188.04 877.622 Q1188.04 879.89 1189.52 881.233 Q1191.03 882.552 1193.6 882.552 Q1197.14 882.552 1199.27 880.052 Q1201.42 877.529 1201.42 873.362 L1201.42 872.413 L1197.19 872.413 M1205.68 870.654 L1205.68 885.446 L1201.42 885.446 L1201.42 881.51 Q1199.96 883.872 1197.79 885.006 Q1195.61 886.117 1192.46 886.117 Q1188.48 886.117 1186.12 883.895 Q1183.78 881.649 1183.78 877.899 Q1183.78 873.524 1186.7 871.302 Q1189.64 869.08 1195.45 869.08 L1201.42 869.08 L1201.42 868.663 Q1201.42 865.723 1199.48 864.126 Q1197.56 862.506 1194.06 862.506 Q1191.84 862.506 1189.73 863.038 Q1187.63 863.571 1185.68 864.636 L1185.68 860.7 Q1188.02 859.798 1190.22 859.358 Q1192.42 858.895 1194.5 858.895 Q1200.13 858.895 1202.9 861.811 Q1205.68 864.728 1205.68 870.654 Z" fill="#000000" fill-rule="evenodd" fill-opacity="1" /><path clip-path="url(#clip860)" d="M1226.24 872.413 Q1221.08 872.413 1219.08 873.594 Q1217.09 874.774 1217.09 877.622 Q1217.09 879.89 1218.58 881.233 Q1220.08 882.552 1222.65 882.552 Q1226.19 882.552 1228.32 880.052 Q1230.47 877.529 1230.47 873.362 L1230.47 872.413 L1226.24 872.413 M1234.73 870.654 L1234.73 885.446 L1230.47 885.446 L1230.47 881.51 Q1229.02 883.872 1226.84 885.006 Q1224.66 886.117 1221.52 886.117 Q1217.53 886.117 1215.17 883.895 Q1212.83 881.649 1212.83 877.899 Q1212.83 873.524 1215.75 871.302 Q1218.69 869.08 1224.5 869.08 L1230.47 869.08 L1230.47 868.663 Q1230.47 865.723 1228.53 864.126 Q1226.61 862.506 1223.11 862.506 Q1220.89 862.506 1218.78 863.038 Q1216.68 863.571 1214.73 864.636 L1214.73 860.7 Q1217.07 859.798 1219.27 859.358 Q1221.47 858.895 1223.55 858.895 Q1229.18 858.895 1231.96 861.811 Q1234.73 864.728 1234.73 870.654 Z" fill="#000000" fill-rule="evenodd" fill-opacity="1" /><path clip-path="url(#clip860)" d="M1242.83 849.474 L1246.54 849.474 Q1250.01 854.937 1251.72 860.168 Q1253.46 865.399 1253.46 870.561 Q1253.46 875.747 1251.72 881.001 Q1250.01 886.256 1246.54 891.696 L1242.83 891.696 Q1245.91 886.395 1247.42 881.163 Q1248.95 875.909 1248.95 870.561 Q1248.95 865.214 1247.42 860.006 Q1245.91 854.798 1242.83 849.474 Z" fill="#000000" fill-rule="evenodd" fill-opacity="1" /><circle clip-path="url(#clip860)" cx="967.114" cy="920.006" r="23" fill="#f0e442" fill-rule="evenodd" fill-opacity="1" stroke="#000000" stroke-opacity="1" stroke-width="5.12"/>
<path clip-path="url(#clip860)" d="M1023.11 902.726 L1044.97 902.726 L1044.97 906.661 L1027.79 906.661 L1027.79 916.892 L1044.25 916.892 L1044.25 920.827 L1027.79 920.827 L1027.79 933.35 L1045.38 933.35 L1045.38 937.286 L1023.11 937.286 L1023.11 902.726 Z" fill="#000000" fill-rule="evenodd" fill-opacity="1" /><path clip-path="url(#clip860)" d="M1086.61 912.355 L1086.61 916.337 Q1084.8 915.341 1082.97 914.855 Q1081.17 914.346 1079.32 914.346 Q1075.17 914.346 1072.88 916.985 Q1070.59 919.601 1070.59 924.346 Q1070.59 929.091 1072.88 931.73 Q1075.17 934.346 1079.32 934.346 Q1081.17 934.346 1082.97 933.86 Q1084.8 933.35 1086.61 932.355 L1086.61 936.29 Q1084.83 937.124 1082.9 937.54 Q1081.01 937.957 1078.85 937.957 Q1073 937.957 1069.55 934.276 Q1066.1 930.596 1066.1 924.346 Q1066.1 918.003 1069.57 914.369 Q1073.07 910.735 1079.13 910.735 Q1081.1 910.735 1082.97 911.151 Q1084.85 911.545 1086.61 912.355 Z" fill="#000000" fill-rule="evenodd" fill-opacity="1" /><path clip-path="url(#clip860)" d="M1104.06 914.346 Q1100.64 914.346 1098.65 917.031 Q1096.65 919.693 1096.65 924.346 Q1096.65 928.999 1098.62 931.684 Q1100.61 934.346 1104.06 934.346 Q1107.46 934.346 1109.46 931.661 Q1111.45 928.975 1111.45 924.346 Q1111.45 919.739 1109.46 917.054 Q1107.46 914.346 1104.06 914.346 M1104.06 910.735 Q1109.62 910.735 1112.79 914.346 Q1115.96 917.957 1115.96 924.346 Q1115.96 930.712 1112.79 934.346 Q1109.62 937.957 1104.06 937.957 Q1098.48 937.957 1095.31 934.346 Q1092.16 930.712 1092.16 924.346 Q1092.16 917.957 1095.31 914.346 Q1098.48 910.735 1104.06 910.735 Z" fill="#000000" fill-rule="evenodd" fill-opacity="1" /><path clip-path="url(#clip860)" d="M1123.02 901.267 L1127.28 901.267 L1127.28 937.286 L1123.02 937.286 L1123.02 901.267 Z" fill="#000000" fill-rule="evenodd" fill-opacity="1" /><path clip-path="url(#clip860)" d="M1136.19 911.36 L1140.45 911.36 L1140.45 937.286 L1136.19 937.286 L1136.19 911.36 M1136.19 901.267 L1140.45 901.267 L1140.45 906.661 L1136.19 906.661 L1136.19 901.267 Z" fill="#000000" fill-rule="evenodd" fill-opacity="1" /></svg>
